<?xml version="1.0" encoding="UTF-8" standalone="no"?>
<!DOCTYPE svg PUBLIC "-//W3C//DTD SVG 1.1//EN"
 "http://www.w3.org/Graphics/SVG/1.1/DTD/svg11.dtd">
<!-- Generated by graphviz version 2.43.0 (0)
 -->
<!-- Title: test/cpp/src/041&#45;bitwise_ops.cc Pages: 1 -->
<svg width="214pt" height="207pt"
 viewBox="0.00 0.00 214.00 207.00" xmlns="http://www.w3.org/2000/svg" xmlns:xlink="http://www.w3.org/1999/xlink">
<g id="graph0" class="graph" transform="scale(1 1) rotate(0) translate(4 203)">
<title>test/cpp/src/041&#45;bitwise_ops.cc</title>
<!-- Node1 -->
<g id="node1" class="node">
<title>Node1</title>
<g id="a_node1"><a xlink:title=" ">
<polygon fill="#bfbfbf" stroke="black" points="46.5,-168.5 46.5,-198.5 179.5,-198.5 179.5,-168.5 46.5,-168.5"/>
<text text-anchor="start" x="54.5" y="-186.5" font-family="Helvetica,sans-Serif" font-size="10.00">test/cpp/src/041&#45;bitwise</text>
<text text-anchor="middle" x="113" y="-175.5" font-family="Helvetica,sans-Serif" font-size="10.00">_ops.cc</text>
</a>
</g>
</g>
<!-- Node2 -->
<g id="node2" class="node">
<title>Node2</title>
<g id="a_node2"><a xlink:title=" ">
<polygon fill="none" stroke="#bfbfbf" points="0,-112.5 0,-131.5 64,-131.5 64,-112.5 0,-112.5"/>
<text text-anchor="middle" x="32" y="-119.5" font-family="Helvetica,sans-Serif" font-size="10.00">catch.hpp</text>
</a>
</g>
</g>
<!-- Node1&#45;&gt;Node2 -->
<g id="edge1" class="edge">
<title>Node1&#45;&gt;Node2</title>
<path fill="none" stroke="midnightblue" d="M93.8,-168.4C81.18,-159.13 64.71,-147.03 51.94,-137.65"/>
<polygon fill="midnightblue" stroke="midnightblue" points="53.92,-134.76 43.79,-131.66 49.77,-140.4 53.92,-134.76"/>
</g>
<!-- Node3 -->
<g id="node3" class="node">
<title>Node3</title>
<g id="a_node3"><a xlink:href="util_2bits_8h.html" target="_top" xlink:title=" ">
<polygon fill="none" stroke="black" points="82,-112.5 82,-131.5 144,-131.5 144,-112.5 82,-112.5"/>
<text text-anchor="middle" x="113" y="-119.5" font-family="Helvetica,sans-Serif" font-size="10.00">util/bits.h</text>
</a>
</g>
</g>
<!-- Node1&#45;&gt;Node3 -->
<g id="edge2" class="edge">
<title>Node1&#45;&gt;Node3</title>
<path fill="none" stroke="midnightblue" d="M113,-168.4C113,-160.47 113,-150.46 113,-141.86"/>
<polygon fill="midnightblue" stroke="midnightblue" points="116.5,-141.66 113,-131.66 109.5,-141.66 116.5,-141.66"/>
</g>
<!-- Node8 -->
<g id="node8" class="node">
<title>Node8</title>
<g id="a_node8"><a xlink:title=" ">
<polygon fill="none" stroke="#bfbfbf" points="162,-112.5 162,-131.5 206,-131.5 206,-112.5 162,-112.5"/>
<text text-anchor="middle" x="184" y="-119.5" font-family="Helvetica,sans-Serif" font-size="10.00">bitset</text>
</a>
</g>
</g>
<!-- Node1&#45;&gt;Node8 -->
<g id="edge7" class="edge">
<title>Node1&#45;&gt;Node8</title>
<path fill="none" stroke="midnightblue" d="M129.83,-168.4C140.67,-159.31 154.78,-147.49 165.87,-138.19"/>
<polygon fill="midnightblue" stroke="midnightblue" points="168.25,-140.76 173.67,-131.66 163.76,-135.4 168.25,-140.76"/>
</g>
<!-- Node4 -->
<g id="node4" class="node">
<title>Node4</title>
<g id="a_node4"><a xlink:title=" ">
<polygon fill="none" stroke="#bfbfbf" points="51.5,-56.5 51.5,-75.5 96.5,-75.5 96.5,-56.5 51.5,-56.5"/>
<text text-anchor="middle" x="74" y="-63.5" font-family="Helvetica,sans-Serif" font-size="10.00">utility</text>
</a>
</g>
</g>
<!-- Node3&#45;&gt;Node4 -->
<g id="edge3" class="edge">
<title>Node3&#45;&gt;Node4</title>
<path fill="none" stroke="midnightblue" d="M106.56,-112.08C101.05,-104.46 92.97,-93.26 86.24,-83.94"/>
<polygon fill="midnightblue" stroke="midnightblue" points="89.01,-81.81 80.32,-75.75 83.34,-85.91 89.01,-81.81"/>
</g>
<!-- Node5 -->
<g id="node5" class="node">
<title>Node5</title>
<g id="a_node5"><a xlink:href="msl_2bits_8h.html" target="_top" xlink:title=" ">
<polygon fill="none" stroke="black" points="115,-56.5 115,-75.5 189,-75.5 189,-56.5 115,-56.5"/>
<text text-anchor="middle" x="152" y="-63.5" font-family="Helvetica,sans-Serif" font-size="10.00">../msl/bits.h</text>
</a>
</g>
</g>
<!-- Node3&#45;&gt;Node5 -->
<g id="edge4" class="edge">
<title>Node3&#45;&gt;Node5</title>
<path fill="none" stroke="midnightblue" d="M119.44,-112.08C124.95,-104.46 133.03,-93.26 139.76,-83.94"/>
<polygon fill="midnightblue" stroke="midnightblue" points="142.66,-85.91 145.68,-75.75 136.99,-81.81 142.66,-85.91"/>
</g>
<!-- Node6 -->
<g id="node6" class="node">
<title>Node6</title>
<g id="a_node6"><a xlink:title=" ">
<polygon fill="none" stroke="#bfbfbf" points="94,-0.5 94,-19.5 144,-19.5 144,-0.5 94,-0.5"/>
<text text-anchor="middle" x="119" y="-7.5" font-family="Helvetica,sans-Serif" font-size="10.00">cstdint</text>
</a>
</g>
</g>
<!-- Node5&#45;&gt;Node6 -->
<g id="edge5" class="edge">
<title>Node5&#45;&gt;Node6</title>
<path fill="none" stroke="midnightblue" d="M146.55,-56.08C141.99,-48.61 135.33,-37.72 129.71,-28.52"/>
<polygon fill="midnightblue" stroke="midnightblue" points="132.55,-26.46 124.35,-19.75 126.58,-30.11 132.55,-26.46"/>
</g>
<!-- Node7 -->
<g id="node7" class="node">
<title>Node7</title>
<g id="a_node7"><a xlink:title=" ">
<polygon fill="none" stroke="#bfbfbf" points="162,-0.5 162,-19.5 206,-19.5 206,-0.5 162,-0.5"/>
<text text-anchor="middle" x="184" y="-7.5" font-family="Helvetica,sans-Serif" font-size="10.00">limits</text>
</a>
</g>
</g>
<!-- Node5&#45;&gt;Node7 -->
<g id="edge6" class="edge">
<title>Node5&#45;&gt;Node7</title>
<path fill="none" stroke="midnightblue" d="M157.28,-56.08C161.71,-48.61 168.16,-37.72 173.62,-28.52"/>
<polygon fill="midnightblue" stroke="midnightblue" points="176.73,-30.14 178.81,-19.75 170.71,-26.57 176.73,-30.14"/>
</g>
</g>
</svg>
