<?xml version="1.0" encoding="UTF-8" standalone="no"?>
<!DOCTYPE svg PUBLIC "-//W3C//DTD SVG 1.1//EN"
 "http://www.w3.org/Graphics/SVG/1.1/DTD/svg11.dtd">
<!-- Generated by graphviz version 2.43.0 (0)
 -->
<!-- Title: test/cpp/src/044&#45;extract.cc Pages: 1 -->
<svg width="331pt" height="196pt"
 viewBox="0.00 0.00 331.00 196.00" xmlns="http://www.w3.org/2000/svg" xmlns:xlink="http://www.w3.org/1999/xlink">
<g id="graph0" class="graph" transform="scale(1 1) rotate(0) translate(4 192)">
<title>test/cpp/src/044&#45;extract.cc</title>
<!-- Node1 -->
<g id="node1" class="node">
<title>Node1</title>
<g id="a_node1"><a xlink:title=" ">
<polygon fill="#bfbfbf" stroke="black" points="55,-168.5 55,-187.5 201,-187.5 201,-168.5 55,-168.5"/>
<text text-anchor="middle" x="128" y="-175.5" font-family="Helvetica,sans-Serif" font-size="10.00">test/cpp/src/044&#45;extract.cc</text>
</a>
</g>
</g>
<!-- Node2 -->
<g id="node2" class="node">
<title>Node2</title>
<g id="a_node2"><a xlink:title=" ">
<polygon fill="none" stroke="#bfbfbf" points="0,-112.5 0,-131.5 64,-131.5 64,-112.5 0,-112.5"/>
<text text-anchor="middle" x="32" y="-119.5" font-family="Helvetica,sans-Serif" font-size="10.00">catch.hpp</text>
</a>
</g>
</g>
<!-- Node1&#45;&gt;Node2 -->
<g id="edge1" class="edge">
<title>Node1&#45;&gt;Node2</title>
<path fill="none" stroke="midnightblue" d="M112.58,-168.32C97.46,-159.82 74.18,-146.73 56.53,-136.8"/>
<polygon fill="midnightblue" stroke="midnightblue" points="57.82,-133.51 47.39,-131.65 54.39,-139.61 57.82,-133.51"/>
</g>
<!-- Node3 -->
<g id="node3" class="node">
<title>Node3</title>
<g id="a_node3"><a xlink:href="algorithm_8h.html" target="_top" xlink:title=" ">
<polygon fill="none" stroke="black" points="82,-112.5 82,-131.5 174,-131.5 174,-112.5 82,-112.5"/>
<text text-anchor="middle" x="128" y="-119.5" font-family="Helvetica,sans-Serif" font-size="10.00">util/algorithm.h</text>
</a>
</g>
</g>
<!-- Node1&#45;&gt;Node3 -->
<g id="edge2" class="edge">
<title>Node1&#45;&gt;Node3</title>
<path fill="none" stroke="midnightblue" d="M128,-168.08C128,-161.01 128,-150.86 128,-141.99"/>
<polygon fill="midnightblue" stroke="midnightblue" points="131.5,-141.75 128,-131.75 124.5,-141.75 131.5,-141.75"/>
</g>
<!-- Node9 -->
<g id="node9" class="node">
<title>Node9</title>
<g id="a_node9"><a xlink:title=" ">
<polygon fill="none" stroke="#bfbfbf" points="192.5,-112.5 192.5,-131.5 239.5,-131.5 239.5,-112.5 192.5,-112.5"/>
<text text-anchor="middle" x="216" y="-119.5" font-family="Helvetica,sans-Serif" font-size="10.00">vector</text>
</a>
</g>
</g>
<!-- Node1&#45;&gt;Node9 -->
<g id="edge9" class="edge">
<title>Node1&#45;&gt;Node9</title>
<path fill="none" stroke="midnightblue" d="M142.14,-168.32C155.87,-159.9 176.94,-146.97 193.06,-137.07"/>
<polygon fill="midnightblue" stroke="midnightblue" points="195.2,-139.87 201.9,-131.65 191.54,-133.9 195.2,-139.87"/>
</g>
<!-- Node4 -->
<g id="node4" class="node">
<title>Node4</title>
<g id="a_node4"><a xlink:title=" ">
<polygon fill="none" stroke="#bfbfbf" points="55,-0.5 55,-19.5 119,-19.5 119,-0.5 55,-0.5"/>
<text text-anchor="middle" x="87" y="-7.5" font-family="Helvetica,sans-Serif" font-size="10.00">algorithm</text>
</a>
</g>
</g>
<!-- Node3&#45;&gt;Node4 -->
<g id="edge3" class="edge">
<title>Node3&#45;&gt;Node4</title>
<path fill="none" stroke="midnightblue" d="M124.78,-112.37C118.14,-94.54 102.76,-53.3 93.81,-29.27"/>
<polygon fill="midnightblue" stroke="midnightblue" points="96.97,-27.74 90.2,-19.59 90.42,-30.18 96.97,-27.74"/>
</g>
<!-- Node5 -->
<g id="node5" class="node">
<title>Node5</title>
<g id="a_node5"><a xlink:href="span_8h.html" target="_top" xlink:title=" ">
<polygon fill="none" stroke="black" points="129,-56.5 129,-75.5 197,-75.5 197,-56.5 129,-56.5"/>
<text text-anchor="middle" x="163" y="-63.5" font-family="Helvetica,sans-Serif" font-size="10.00">util/span.h</text>
</a>
</g>
</g>
<!-- Node3&#45;&gt;Node5 -->
<g id="edge4" class="edge">
<title>Node3&#45;&gt;Node5</title>
<path fill="none" stroke="midnightblue" d="M133.78,-112.08C138.67,-104.53 145.83,-93.49 151.83,-84.23"/>
<polygon fill="midnightblue" stroke="midnightblue" points="154.83,-86.05 157.33,-75.75 148.95,-82.24 154.83,-86.05"/>
</g>
<!-- Node5&#45;&gt;Node4 -->
<g id="edge5" class="edge">
<title>Node5&#45;&gt;Node4</title>
<path fill="none" stroke="midnightblue" d="M150.79,-56.32C139.22,-48.11 121.62,-35.6 107.84,-25.81"/>
<polygon fill="midnightblue" stroke="midnightblue" points="109.61,-22.77 99.43,-19.83 105.56,-28.48 109.61,-22.77"/>
</g>
<!-- Node6 -->
<g id="node6" class="node">
<title>Node6</title>
<g id="a_node6"><a xlink:title=" ">
<polygon fill="none" stroke="#bfbfbf" points="137,-0.5 137,-19.5 189,-19.5 189,-0.5 137,-0.5"/>
<text text-anchor="middle" x="163" y="-7.5" font-family="Helvetica,sans-Serif" font-size="10.00">cassert</text>
</a>
</g>
</g>
<!-- Node5&#45;&gt;Node6 -->
<g id="edge6" class="edge">
<title>Node5&#45;&gt;Node6</title>
<path fill="none" stroke="midnightblue" d="M163,-56.08C163,-49.01 163,-38.86 163,-29.99"/>
<polygon fill="midnightblue" stroke="midnightblue" points="166.5,-29.75 163,-19.75 159.5,-29.75 166.5,-29.75"/>
</g>
<!-- Node7 -->
<g id="node7" class="node">
<title>Node7</title>
<g id="a_node7"><a xlink:title=" ">
<polygon fill="none" stroke="#bfbfbf" points="207.5,-0.5 207.5,-19.5 260.5,-19.5 260.5,-0.5 207.5,-0.5"/>
<text text-anchor="middle" x="234" y="-7.5" font-family="Helvetica,sans-Serif" font-size="10.00">iterator</text>
</a>
</g>
</g>
<!-- Node5&#45;&gt;Node7 -->
<g id="edge7" class="edge">
<title>Node5&#45;&gt;Node7</title>
<path fill="none" stroke="midnightblue" d="M174.41,-56.32C185.11,-48.18 201.34,-35.84 214.16,-26.09"/>
<polygon fill="midnightblue" stroke="midnightblue" points="216.54,-28.67 222.39,-19.83 212.31,-23.1 216.54,-28.67"/>
</g>
<!-- Node8 -->
<g id="node8" class="node">
<title>Node8</title>
<g id="a_node8"><a xlink:title=" ">
<polygon fill="none" stroke="#bfbfbf" points="279,-0.5 279,-19.5 323,-19.5 323,-0.5 279,-0.5"/>
<text text-anchor="middle" x="301" y="-7.5" font-family="Helvetica,sans-Serif" font-size="10.00">limits</text>
</a>
</g>
</g>
<!-- Node5&#45;&gt;Node8 -->
<g id="edge8" class="edge">
<title>Node5&#45;&gt;Node8</title>
<path fill="none" stroke="midnightblue" d="M184.87,-56.44C207.78,-47.48 243.98,-33.31 269.87,-23.18"/>
<polygon fill="midnightblue" stroke="midnightblue" points="271.2,-26.42 279.24,-19.52 268.65,-19.9 271.2,-26.42"/>
</g>
</g>
</svg>
