<?xml version="1.0" encoding="UTF-8" standalone="no"?>
<!DOCTYPE svg PUBLIC "-//W3C//DTD SVG 1.1//EN"
 "http://www.w3.org/Graphics/SVG/1.1/DTD/svg11.dtd">
<!-- Generated by graphviz version 2.43.0 (0)
 -->
<!-- Title: test/cpp/src/080&#45;tracereader.cc Pages: 1 -->
<svg width="711pt" height="252pt"
 viewBox="0.00 0.00 710.50 252.00" xmlns="http://www.w3.org/2000/svg" xmlns:xlink="http://www.w3.org/1999/xlink">
<g id="graph0" class="graph" transform="scale(1 1) rotate(0) translate(4 248)">
<title>test/cpp/src/080&#45;tracereader.cc</title>
<!-- Node1 -->
<g id="node1" class="node">
<title>Node1</title>
<g id="a_node1"><a xlink:title=" ">
<polygon fill="#bfbfbf" stroke="black" points="108.5,-224.5 108.5,-243.5 275.5,-243.5 275.5,-224.5 108.5,-224.5"/>
<text text-anchor="middle" x="192" y="-231.5" font-family="Helvetica,sans-Serif" font-size="10.00">test/cpp/src/080&#45;tracereader.cc</text>
</a>
</g>
</g>
<!-- Node2 -->
<g id="node2" class="node">
<title>Node2</title>
<g id="a_node2"><a xlink:title=" ">
<polygon fill="none" stroke="#bfbfbf" points="115,-168.5 115,-187.5 179,-187.5 179,-168.5 115,-168.5"/>
<text text-anchor="middle" x="147" y="-175.5" font-family="Helvetica,sans-Serif" font-size="10.00">catch.hpp</text>
</a>
</g>
</g>
<!-- Node1&#45;&gt;Node2 -->
<g id="edge1" class="edge">
<title>Node1&#45;&gt;Node2</title>
<path fill="none" stroke="midnightblue" d="M184.57,-224.08C178.15,-216.38 168.69,-205.03 160.88,-195.65"/>
<polygon fill="midnightblue" stroke="midnightblue" points="163.38,-193.19 154.29,-187.75 158.01,-197.67 163.38,-193.19"/>
</g>
<!-- Node3 -->
<g id="node3" class="node">
<title>Node3</title>
<g id="a_node3"><a xlink:href="tracereader_8h.html" target="_top" xlink:title=" ">
<polygon fill="none" stroke="black" points="197.5,-168.5 197.5,-187.5 278.5,-187.5 278.5,-168.5 197.5,-168.5"/>
<text text-anchor="middle" x="238" y="-175.5" font-family="Helvetica,sans-Serif" font-size="10.00">tracereader.h</text>
</a>
</g>
</g>
<!-- Node1&#45;&gt;Node3 -->
<g id="edge2" class="edge">
<title>Node1&#45;&gt;Node3</title>
<path fill="none" stroke="midnightblue" d="M199.6,-224.08C206.23,-216.3 216.02,-204.8 224.06,-195.37"/>
<polygon fill="midnightblue" stroke="midnightblue" points="226.73,-197.63 230.55,-187.75 221.4,-193.09 226.73,-197.63"/>
</g>
<!-- Node4 -->
<g id="node4" class="node">
<title>Node4</title>
<g id="a_node4"><a xlink:title=" ">
<polygon fill="none" stroke="#bfbfbf" points="0,-112.5 0,-131.5 50,-131.5 50,-112.5 0,-112.5"/>
<text text-anchor="middle" x="25" y="-119.5" font-family="Helvetica,sans-Serif" font-size="10.00">cstring</text>
</a>
</g>
</g>
<!-- Node3&#45;&gt;Node4 -->
<g id="edge3" class="edge">
<title>Node3&#45;&gt;Node4</title>
<path fill="none" stroke="midnightblue" d="M203.32,-168.42C169.28,-159.96 115.62,-146.56 60.23,-132.3"/>
<polygon fill="midnightblue" stroke="midnightblue" points="60.8,-128.83 50.24,-129.72 59.05,-135.61 60.8,-128.83"/>
</g>
<!-- Node5 -->
<g id="node5" class="node">
<title>Node5</title>
<g id="a_node5"><a xlink:title=" ">
<polygon fill="none" stroke="#bfbfbf" points="68.5,-112.5 68.5,-131.5 115.5,-131.5 115.5,-112.5 68.5,-112.5"/>
<text text-anchor="middle" x="92" y="-119.5" font-family="Helvetica,sans-Serif" font-size="10.00">deque</text>
</a>
</g>
</g>
<!-- Node3&#45;&gt;Node5 -->
<g id="edge4" class="edge">
<title>Node3&#45;&gt;Node5</title>
<path fill="none" stroke="midnightblue" d="M214.87,-168.44C190.52,-159.44 151.99,-145.19 124.58,-135.05"/>
<polygon fill="midnightblue" stroke="midnightblue" points="125.62,-131.7 115.03,-131.52 123.19,-138.27 125.62,-131.7"/>
</g>
<!-- Node6 -->
<g id="node6" class="node">
<title>Node6</title>
<g id="a_node6"><a xlink:title=" ">
<polygon fill="none" stroke="#bfbfbf" points="134,-112.5 134,-131.5 192,-131.5 192,-112.5 134,-112.5"/>
<text text-anchor="middle" x="163" y="-119.5" font-family="Helvetica,sans-Serif" font-size="10.00">memory</text>
</a>
</g>
</g>
<!-- Node3&#45;&gt;Node6 -->
<g id="edge5" class="edge">
<title>Node3&#45;&gt;Node6</title>
<path fill="none" stroke="midnightblue" d="M225.95,-168.32C214.54,-160.11 197.17,-147.6 183.57,-137.81"/>
<polygon fill="midnightblue" stroke="midnightblue" points="185.43,-134.84 175.27,-131.83 181.34,-140.52 185.43,-134.84"/>
</g>
<!-- Node7 -->
<g id="node7" class="node">
<title>Node7</title>
<g id="a_node7"><a xlink:title=" ">
<polygon fill="none" stroke="#bfbfbf" points="210,-112.5 210,-131.5 266,-131.5 266,-112.5 210,-112.5"/>
<text text-anchor="middle" x="238" y="-119.5" font-family="Helvetica,sans-Serif" font-size="10.00">numeric</text>
</a>
</g>
</g>
<!-- Node3&#45;&gt;Node7 -->
<g id="edge6" class="edge">
<title>Node3&#45;&gt;Node7</title>
<path fill="none" stroke="midnightblue" d="M238,-168.08C238,-161.01 238,-150.86 238,-141.99"/>
<polygon fill="midnightblue" stroke="midnightblue" points="241.5,-141.75 238,-131.75 234.5,-141.75 241.5,-141.75"/>
</g>
<!-- Node8 -->
<g id="node8" class="node">
<title>Node8</title>
<g id="a_node8"><a xlink:title=" ">
<polygon fill="none" stroke="#bfbfbf" points="284,-112.5 284,-131.5 328,-131.5 328,-112.5 284,-112.5"/>
<text text-anchor="middle" x="306" y="-119.5" font-family="Helvetica,sans-Serif" font-size="10.00">string</text>
</a>
</g>
</g>
<!-- Node3&#45;&gt;Node8 -->
<g id="edge7" class="edge">
<title>Node3&#45;&gt;Node8</title>
<path fill="none" stroke="midnightblue" d="M248.93,-168.32C259.17,-160.18 274.72,-147.84 287,-138.09"/>
<polygon fill="midnightblue" stroke="midnightblue" points="289.22,-140.79 294.88,-131.83 284.87,-135.31 289.22,-140.79"/>
</g>
<!-- Node9 -->
<g id="node9" class="node">
<title>Node9</title>
<g id="a_node9"><a xlink:href="instruction_8h.html" target="_top" xlink:title=" ">
<polygon fill="none" stroke="black" points="346.5,-112.5 346.5,-131.5 423.5,-131.5 423.5,-112.5 346.5,-112.5"/>
<text text-anchor="middle" x="385" y="-119.5" font-family="Helvetica,sans-Serif" font-size="10.00">instruction.h</text>
</a>
</g>
</g>
<!-- Node3&#45;&gt;Node9 -->
<g id="edge8" class="edge">
<title>Node3&#45;&gt;Node9</title>
<path fill="none" stroke="midnightblue" d="M261.29,-168.44C285.81,-159.44 324.6,-145.19 352.2,-135.05"/>
<polygon fill="midnightblue" stroke="midnightblue" points="353.64,-138.25 361.82,-131.52 351.22,-131.68 353.64,-138.25"/>
</g>
<!-- Node17 -->
<g id="node17" class="node">
<title>Node17</title>
<g id="a_node17"><a xlink:href="detect_8h.html" target="_top" xlink:title=" ">
<polygon fill="none" stroke="black" points="520.5,-112.5 520.5,-131.5 595.5,-131.5 595.5,-112.5 520.5,-112.5"/>
<text text-anchor="middle" x="558" y="-119.5" font-family="Helvetica,sans-Serif" font-size="10.00">util/detect.h</text>
</a>
</g>
</g>
<!-- Node3&#45;&gt;Node17 -->
<g id="edge17" class="edge">
<title>Node3&#45;&gt;Node17</title>
<path fill="none" stroke="midnightblue" d="M278.53,-170.16C337.63,-160.19 447.27,-141.69 510.22,-131.06"/>
<polygon fill="midnightblue" stroke="midnightblue" points="511.01,-134.48 520.28,-129.36 509.84,-127.58 511.01,-134.48"/>
</g>
<!-- Node10 -->
<g id="node10" class="node">
<title>Node10</title>
<g id="a_node10"><a xlink:title=" ">
<polygon fill="none" stroke="#bfbfbf" points="111,-56.5 111,-75.5 175,-75.5 175,-56.5 111,-56.5"/>
<text text-anchor="middle" x="143" y="-63.5" font-family="Helvetica,sans-Serif" font-size="10.00">algorithm</text>
</a>
</g>
</g>
<!-- Node9&#45;&gt;Node10 -->
<g id="edge9" class="edge">
<title>Node9&#45;&gt;Node10</title>
<path fill="none" stroke="midnightblue" d="M346.65,-112.44C302.67,-102.63 230.77,-86.58 185.22,-76.42"/>
<polygon fill="midnightblue" stroke="midnightblue" points="185.88,-72.98 175.36,-74.22 184.36,-79.81 185.88,-72.98"/>
</g>
<!-- Node11 -->
<g id="node11" class="node">
<title>Node11</title>
<g id="a_node11"><a xlink:title=" ">
<polygon fill="none" stroke="#bfbfbf" points="193,-56.5 193,-75.5 235,-75.5 235,-56.5 193,-56.5"/>
<text text-anchor="middle" x="214" y="-63.5" font-family="Helvetica,sans-Serif" font-size="10.00">array</text>
</a>
</g>
</g>
<!-- Node9&#45;&gt;Node11 -->
<g id="edge10" class="edge">
<title>Node9&#45;&gt;Node11</title>
<path fill="none" stroke="midnightblue" d="M357.9,-112.44C327.14,-102.73 277.06,-86.91 244.83,-76.74"/>
<polygon fill="midnightblue" stroke="midnightblue" points="245.63,-73.32 235.04,-73.64 243.52,-79.99 245.63,-73.32"/>
</g>
<!-- Node12 -->
<g id="node12" class="node">
<title>Node12</title>
<g id="a_node12"><a xlink:title=" ">
<polygon fill="none" stroke="#bfbfbf" points="253,-56.5 253,-75.5 303,-75.5 303,-56.5 253,-56.5"/>
<text text-anchor="middle" x="278" y="-63.5" font-family="Helvetica,sans-Serif" font-size="10.00">cstdint</text>
</a>
</g>
</g>
<!-- Node9&#45;&gt;Node12 -->
<g id="edge11" class="edge">
<title>Node9&#45;&gt;Node12</title>
<path fill="none" stroke="midnightblue" d="M367.81,-112.32C350.65,-103.66 324.05,-90.24 304.25,-80.25"/>
<polygon fill="midnightblue" stroke="midnightblue" points="305.65,-77.04 295.15,-75.65 302.5,-83.28 305.65,-77.04"/>
</g>
<!-- Node13 -->
<g id="node13" class="node">
<title>Node13</title>
<g id="a_node13"><a xlink:title=" ">
<polygon fill="none" stroke="#bfbfbf" points="321.5,-56.5 321.5,-75.5 386.5,-75.5 386.5,-56.5 321.5,-56.5"/>
<text text-anchor="middle" x="354" y="-63.5" font-family="Helvetica,sans-Serif" font-size="10.00">functional</text>
</a>
</g>
</g>
<!-- Node9&#45;&gt;Node13 -->
<g id="edge12" class="edge">
<title>Node9&#45;&gt;Node13</title>
<path fill="none" stroke="midnightblue" d="M379.88,-112.08C375.59,-104.61 369.34,-93.72 364.06,-84.52"/>
<polygon fill="midnightblue" stroke="midnightblue" points="367.04,-82.68 359.02,-75.75 360.97,-86.17 367.04,-82.68"/>
</g>
<!-- Node14 -->
<g id="node14" class="node">
<title>Node14</title>
<g id="a_node14"><a xlink:title=" ">
<polygon fill="none" stroke="#bfbfbf" points="466,-0.5 466,-19.5 510,-19.5 510,-0.5 466,-0.5"/>
<text text-anchor="middle" x="488" y="-7.5" font-family="Helvetica,sans-Serif" font-size="10.00">limits</text>
</a>
</g>
</g>
<!-- Node9&#45;&gt;Node14 -->
<g id="edge13" class="edge">
<title>Node9&#45;&gt;Node14</title>
<path fill="none" stroke="midnightblue" d="M390.93,-112.12C399.78,-99.15 417.32,-74.55 435,-56 445.28,-45.21 457.97,-34.37 468.35,-26.03"/>
<polygon fill="midnightblue" stroke="midnightblue" points="470.74,-28.6 476.43,-19.66 466.41,-23.1 470.74,-28.6"/>
</g>
<!-- Node15 -->
<g id="node15" class="node">
<title>Node15</title>
<g id="a_node15"><a xlink:title=" ">
<polygon fill="none" stroke="#bfbfbf" points="443.5,-56.5 443.5,-75.5 490.5,-75.5 490.5,-56.5 443.5,-56.5"/>
<text text-anchor="middle" x="467" y="-63.5" font-family="Helvetica,sans-Serif" font-size="10.00">vector</text>
</a>
</g>
</g>
<!-- Node9&#45;&gt;Node15 -->
<g id="edge14" class="edge">
<title>Node9&#45;&gt;Node15</title>
<path fill="none" stroke="midnightblue" d="M398.17,-112.32C410.85,-103.98 430.23,-91.21 445.21,-81.35"/>
<polygon fill="midnightblue" stroke="midnightblue" points="447.43,-84.08 453.86,-75.65 443.58,-78.23 447.43,-84.08"/>
</g>
<!-- Node16 -->
<g id="node16" class="node">
<title>Node16</title>
<g id="a_node16"><a xlink:href="trace__instruction_8h.html" target="_top" xlink:title=" ">
<polygon fill="none" stroke="black" points="508.5,-56.5 508.5,-75.5 615.5,-75.5 615.5,-56.5 508.5,-56.5"/>
<text text-anchor="middle" x="562" y="-63.5" font-family="Helvetica,sans-Serif" font-size="10.00">trace_instruction.h</text>
</a>
</g>
</g>
<!-- Node9&#45;&gt;Node16 -->
<g id="edge15" class="edge">
<title>Node9&#45;&gt;Node16</title>
<path fill="none" stroke="midnightblue" d="M413.05,-112.44C443.08,-103.28 490.91,-88.69 524.24,-78.52"/>
<polygon fill="midnightblue" stroke="midnightblue" points="525.54,-81.78 534.09,-75.52 523.5,-75.09 525.54,-81.78"/>
</g>
<!-- Node16&#45;&gt;Node14 -->
<g id="edge16" class="edge">
<title>Node16&#45;&gt;Node14</title>
<path fill="none" stroke="midnightblue" d="M550.11,-56.32C538.85,-48.11 521.71,-35.6 508.29,-25.81"/>
<polygon fill="midnightblue" stroke="midnightblue" points="510.25,-22.9 500.11,-19.83 506.12,-28.56 510.25,-22.9"/>
</g>
<!-- Node18 -->
<g id="node18" class="node">
<title>Node18</title>
<g id="a_node18"><a xlink:title=" ">
<polygon fill="none" stroke="#bfbfbf" points="633.5,-56.5 633.5,-75.5 702.5,-75.5 702.5,-56.5 633.5,-56.5"/>
<text text-anchor="middle" x="668" y="-63.5" font-family="Helvetica,sans-Serif" font-size="10.00">type_traits</text>
</a>
</g>
</g>
<!-- Node17&#45;&gt;Node18 -->
<g id="edge18" class="edge">
<title>Node17&#45;&gt;Node18</title>
<path fill="none" stroke="midnightblue" d="M575.67,-112.32C593.39,-103.62 620.9,-90.12 641.29,-80.11"/>
<polygon fill="midnightblue" stroke="midnightblue" points="642.94,-83.2 650.37,-75.65 639.85,-76.92 642.94,-83.2"/>
</g>
</g>
</svg>
