<?xml version="1.0" encoding="UTF-8" standalone="no"?>
<!DOCTYPE svg PUBLIC "-//W3C//DTD SVG 1.1//EN"
 "http://www.w3.org/Graphics/SVG/1.1/DTD/svg11.dtd">
<!-- Generated by graphviz version 2.43.0 (0)
 -->
<!-- Title: test/cpp/src/081&#45;tracereader&#45;instr&#45;id.cc Pages: 1 -->
<svg width="1078pt" height="274pt"
 viewBox="0.00 0.00 1078.48 274.00" xmlns="http://www.w3.org/2000/svg" xmlns:xlink="http://www.w3.org/1999/xlink">
<g id="graph0" class="graph" transform="scale(1 1) rotate(0) translate(4 270)">
<title>test/cpp/src/081&#45;tracereader&#45;instr&#45;id.cc</title>
<!-- Node1 -->
<g id="node1" class="node">
<title>Node1</title>
<g id="a_node1"><a xlink:title=" ">
<polygon fill="#bfbfbf" stroke="black" points="378,-235.5 378,-265.5 532,-265.5 532,-235.5 378,-235.5"/>
<text text-anchor="start" x="386" y="-253.5" font-family="Helvetica,sans-Serif" font-size="10.00">test/cpp/src/081&#45;tracereader</text>
<text text-anchor="middle" x="455" y="-242.5" font-family="Helvetica,sans-Serif" font-size="10.00">&#45;instr&#45;id.cc</text>
</a>
</g>
</g>
<!-- Node2 -->
<g id="node2" class="node">
<title>Node2</title>
<g id="a_node2"><a xlink:title=" ">
<polygon fill="none" stroke="#bfbfbf" points="0,-174 0,-193 64,-193 64,-174 0,-174"/>
<text text-anchor="middle" x="32" y="-181" font-family="Helvetica,sans-Serif" font-size="10.00">catch.hpp</text>
</a>
</g>
</g>
<!-- Node1&#45;&gt;Node2 -->
<g id="edge1" class="edge">
<title>Node1&#45;&gt;Node2</title>
<path fill="none" stroke="midnightblue" d="M377.67,-244.03C299.89,-237.43 176.91,-223.95 73,-199 69.77,-198.22 66.44,-197.29 63.14,-196.27"/>
<polygon fill="midnightblue" stroke="midnightblue" points="64.04,-192.88 53.45,-193.03 61.83,-199.52 64.04,-192.88"/>
</g>
<!-- Node3 -->
<g id="node3" class="node">
<title>Node3</title>
<g id="a_node3"><a xlink:title=" ">
<polygon fill="none" stroke="#bfbfbf" points="82,-174 82,-193 246,-193 246,-174 82,-174"/>
<text text-anchor="middle" x="164" y="-181" font-family="Helvetica,sans-Serif" font-size="10.00">catch2/catch_test_macros.hpp</text>
</a>
</g>
</g>
<!-- Node1&#45;&gt;Node3 -->
<g id="edge2" class="edge">
<title>Node1&#45;&gt;Node3</title>
<path fill="none" stroke="midnightblue" d="M392.22,-235.48C338.13,-223.4 261.21,-206.21 211.95,-195.21"/>
<polygon fill="midnightblue" stroke="midnightblue" points="212.7,-191.79 202.18,-193.03 211.18,-198.62 212.7,-191.79"/>
</g>
<!-- Node4 -->
<g id="node4" class="node">
<title>Node4</title>
<g id="a_node4"><a xlink:title=" ">
<polygon fill="none" stroke="#bfbfbf" points="264,-168.5 264,-198.5 408,-198.5 408,-168.5 264,-168.5"/>
<text text-anchor="start" x="272" y="-186.5" font-family="Helvetica,sans-Serif" font-size="10.00">catch2/matchers/catch</text>
<text text-anchor="middle" x="336" y="-175.5" font-family="Helvetica,sans-Serif" font-size="10.00">_matchers_templated.hpp</text>
</a>
</g>
</g>
<!-- Node1&#45;&gt;Node4 -->
<g id="edge3" class="edge">
<title>Node1&#45;&gt;Node4</title>
<path fill="none" stroke="midnightblue" d="M429.18,-235.4C412.03,-226.03 389.3,-213.62 370.59,-203.39"/>
<polygon fill="midnightblue" stroke="midnightblue" points="372.22,-200.3 361.77,-198.58 368.87,-206.44 372.22,-200.3"/>
</g>
<!-- Node5 -->
<g id="node5" class="node">
<title>Node5</title>
<g id="a_node5"><a xlink:title=" ">
<polygon fill="none" stroke="#bfbfbf" points="374,-56.5 374,-75.5 438,-75.5 438,-56.5 374,-56.5"/>
<text text-anchor="middle" x="406" y="-63.5" font-family="Helvetica,sans-Serif" font-size="10.00">algorithm</text>
</a>
</g>
</g>
<!-- Node1&#45;&gt;Node5 -->
<g id="edge4" class="edge">
<title>Node1&#45;&gt;Node5</title>
<path fill="none" stroke="midnightblue" d="M451.24,-235.48C442.5,-202.96 420.86,-122.34 411.02,-85.68"/>
<polygon fill="midnightblue" stroke="midnightblue" points="414.34,-84.57 408.37,-75.82 407.58,-86.38 414.34,-84.57"/>
</g>
<!-- Node6 -->
<g id="node6" class="node">
<title>Node6</title>
<g id="a_node6"><a xlink:title=" ">
<polygon fill="none" stroke="#bfbfbf" points="456.5,-56.5 456.5,-75.5 521.5,-75.5 521.5,-56.5 456.5,-56.5"/>
<text text-anchor="middle" x="489" y="-63.5" font-family="Helvetica,sans-Serif" font-size="10.00">functional</text>
</a>
</g>
</g>
<!-- Node1&#45;&gt;Node6 -->
<g id="edge5" class="edge">
<title>Node1&#45;&gt;Node6</title>
<path fill="none" stroke="midnightblue" d="M457.61,-235.48C463.67,-202.96 478.69,-122.34 485.52,-85.68"/>
<polygon fill="midnightblue" stroke="midnightblue" points="488.97,-86.29 487.36,-75.82 482.08,-85.01 488.97,-86.29"/>
</g>
<!-- Node7 -->
<g id="node7" class="node">
<title>Node7</title>
<g id="a_node7"><a xlink:title=" ">
<polygon fill="none" stroke="#bfbfbf" points="965.5,-56.5 965.5,-75.5 1034.5,-75.5 1034.5,-56.5 965.5,-56.5"/>
<text text-anchor="middle" x="1000" y="-63.5" font-family="Helvetica,sans-Serif" font-size="10.00">type_traits</text>
</a>
</g>
</g>
<!-- Node1&#45;&gt;Node7 -->
<g id="edge6" class="edge">
<title>Node1&#45;&gt;Node7</title>
<path fill="none" stroke="midnightblue" d="M532.26,-246.92C681.94,-240.08 1002.36,-215.75 1066,-132 1081.03,-112.22 1053.88,-92.64 1029.99,-80.22"/>
<polygon fill="midnightblue" stroke="midnightblue" points="1031.27,-76.95 1020.76,-75.67 1028.18,-83.23 1031.27,-76.95"/>
</g>
<!-- Node8 -->
<g id="node8" class="node">
<title>Node8</title>
<g id="a_node8"><a xlink:title=" ">
<polygon fill="none" stroke="#bfbfbf" points="539.5,-56.5 539.5,-75.5 586.5,-75.5 586.5,-56.5 539.5,-56.5"/>
<text text-anchor="middle" x="563" y="-63.5" font-family="Helvetica,sans-Serif" font-size="10.00">vector</text>
</a>
</g>
</g>
<!-- Node1&#45;&gt;Node8 -->
<g id="edge7" class="edge">
<title>Node1&#45;&gt;Node8</title>
<path fill="none" stroke="midnightblue" d="M462.72,-235.04C479.02,-204.61 516.62,-134.86 531,-112 537,-102.47 544.23,-92.2 550.3,-83.89"/>
<polygon fill="midnightblue" stroke="midnightblue" points="553.18,-85.88 556.32,-75.76 547.56,-81.72 553.18,-85.88"/>
</g>
<!-- Node9 -->
<g id="node9" class="node">
<title>Node9</title>
<g id="a_node9"><a xlink:href="tracereader_8h.html" target="_top" xlink:title=" ">
<polygon fill="none" stroke="black" points="735.5,-174 735.5,-193 816.5,-193 816.5,-174 735.5,-174"/>
<text text-anchor="middle" x="776" y="-181" font-family="Helvetica,sans-Serif" font-size="10.00">tracereader.h</text>
</a>
</g>
</g>
<!-- Node1&#45;&gt;Node9 -->
<g id="edge8" class="edge">
<title>Node1&#45;&gt;Node9</title>
<path fill="none" stroke="midnightblue" d="M524.26,-235.48C584.69,-223.24 670.95,-205.77 725.19,-194.79"/>
<polygon fill="midnightblue" stroke="midnightblue" points="726.15,-198.16 735.26,-192.75 724.76,-191.3 726.15,-198.16"/>
</g>
<!-- Node10 -->
<g id="node10" class="node">
<title>Node10</title>
<g id="a_node10"><a xlink:title=" ">
<polygon fill="none" stroke="#bfbfbf" points="791,-112.5 791,-131.5 841,-131.5 841,-112.5 791,-112.5"/>
<text text-anchor="middle" x="816" y="-119.5" font-family="Helvetica,sans-Serif" font-size="10.00">cstring</text>
</a>
</g>
</g>
<!-- Node9&#45;&gt;Node10 -->
<g id="edge9" class="edge">
<title>Node9&#45;&gt;Node10</title>
<path fill="none" stroke="midnightblue" d="M781.73,-173.98C787.67,-165.14 797.12,-151.09 804.59,-139.98"/>
<polygon fill="midnightblue" stroke="midnightblue" points="807.61,-141.76 810.28,-131.51 801.8,-137.86 807.61,-141.76"/>
</g>
<!-- Node11 -->
<g id="node11" class="node">
<title>Node11</title>
<g id="a_node11"><a xlink:title=" ">
<polygon fill="none" stroke="#bfbfbf" points="859.5,-112.5 859.5,-131.5 906.5,-131.5 906.5,-112.5 859.5,-112.5"/>
<text text-anchor="middle" x="883" y="-119.5" font-family="Helvetica,sans-Serif" font-size="10.00">deque</text>
</a>
</g>
</g>
<!-- Node9&#45;&gt;Node11 -->
<g id="edge10" class="edge">
<title>Node9&#45;&gt;Node11</title>
<path fill="none" stroke="midnightblue" d="M791.33,-173.98C808.97,-164.17 838.16,-147.93 858.86,-136.42"/>
<polygon fill="midnightblue" stroke="midnightblue" points="860.66,-139.43 867.7,-131.51 857.26,-133.31 860.66,-139.43"/>
</g>
<!-- Node12 -->
<g id="node12" class="node">
<title>Node12</title>
<g id="a_node12"><a xlink:title=" ">
<polygon fill="none" stroke="#bfbfbf" points="925,-112.5 925,-131.5 983,-131.5 983,-112.5 925,-112.5"/>
<text text-anchor="middle" x="954" y="-119.5" font-family="Helvetica,sans-Serif" font-size="10.00">memory</text>
</a>
</g>
</g>
<!-- Node9&#45;&gt;Node12 -->
<g id="edge11" class="edge">
<title>Node9&#45;&gt;Node12</title>
<path fill="none" stroke="midnightblue" d="M801.5,-173.98C832.3,-163.68 884.27,-146.31 918.85,-134.75"/>
<polygon fill="midnightblue" stroke="midnightblue" points="920.17,-138 928.54,-131.51 917.95,-131.36 920.17,-138"/>
</g>
<!-- Node13 -->
<g id="node13" class="node">
<title>Node13</title>
<g id="a_node13"><a xlink:title=" ">
<polygon fill="none" stroke="#bfbfbf" points="1001,-112.5 1001,-131.5 1057,-131.5 1057,-112.5 1001,-112.5"/>
<text text-anchor="middle" x="1029" y="-119.5" font-family="Helvetica,sans-Serif" font-size="10.00">numeric</text>
</a>
</g>
</g>
<!-- Node9&#45;&gt;Node13 -->
<g id="edge12" class="edge">
<title>Node9&#45;&gt;Node13</title>
<path fill="none" stroke="midnightblue" d="M813.1,-173.93C854.13,-164.43 922.47,-148.54 990.67,-132.3"/>
<polygon fill="midnightblue" stroke="midnightblue" points="991.81,-135.63 1000.72,-129.91 990.19,-128.82 991.81,-135.63"/>
</g>
<!-- Node14 -->
<g id="node14" class="node">
<title>Node14</title>
<g id="a_node14"><a xlink:title=" ">
<polygon fill="none" stroke="#bfbfbf" points="540,-112.5 540,-131.5 584,-131.5 584,-112.5 540,-112.5"/>
<text text-anchor="middle" x="562" y="-119.5" font-family="Helvetica,sans-Serif" font-size="10.00">string</text>
</a>
</g>
</g>
<!-- Node9&#45;&gt;Node14 -->
<g id="edge13" class="edge">
<title>Node9&#45;&gt;Node14</title>
<path fill="none" stroke="midnightblue" d="M744.55,-173.96C709.99,-164.54 652.58,-148.81 593.83,-132.21"/>
<polygon fill="midnightblue" stroke="midnightblue" points="594.58,-128.78 584.01,-129.43 592.67,-135.52 594.58,-128.78"/>
</g>
<!-- Node15 -->
<g id="node15" class="node">
<title>Node15</title>
<g id="a_node15"><a xlink:href="instruction_8h.html" target="_top" xlink:title=" ">
<polygon fill="none" stroke="black" points="602.5,-112.5 602.5,-131.5 679.5,-131.5 679.5,-112.5 602.5,-112.5"/>
<text text-anchor="middle" x="641" y="-119.5" font-family="Helvetica,sans-Serif" font-size="10.00">instruction.h</text>
</a>
</g>
</g>
<!-- Node9&#45;&gt;Node15 -->
<g id="edge14" class="edge">
<title>Node9&#45;&gt;Node15</title>
<path fill="none" stroke="midnightblue" d="M756.66,-173.98C733.9,-163.95 695.91,-147.2 669.71,-135.65"/>
<polygon fill="midnightblue" stroke="midnightblue" points="670.87,-132.34 660.31,-131.51 668.05,-138.74 670.87,-132.34"/>
</g>
<!-- Node20 -->
<g id="node20" class="node">
<title>Node20</title>
<g id="a_node20"><a xlink:href="detect_8h.html" target="_top" xlink:title=" ">
<polygon fill="none" stroke="black" points="697.5,-112.5 697.5,-131.5 772.5,-131.5 772.5,-112.5 697.5,-112.5"/>
<text text-anchor="middle" x="735" y="-119.5" font-family="Helvetica,sans-Serif" font-size="10.00">util/detect.h</text>
</a>
</g>
</g>
<!-- Node9&#45;&gt;Node20 -->
<g id="edge23" class="edge">
<title>Node9&#45;&gt;Node20</title>
<path fill="none" stroke="midnightblue" d="M770.13,-173.98C764.04,-165.14 754.36,-151.09 746.7,-139.98"/>
<polygon fill="midnightblue" stroke="midnightblue" points="749.42,-137.76 740.86,-131.51 743.66,-141.73 749.42,-137.76"/>
</g>
<!-- Node15&#45;&gt;Node5 -->
<g id="edge15" class="edge">
<title>Node15&#45;&gt;Node5</title>
<path fill="none" stroke="midnightblue" d="M603.76,-112.44C561.38,-102.7 492.31,-86.83 448.03,-76.66"/>
<polygon fill="midnightblue" stroke="midnightblue" points="448.68,-73.22 438.15,-74.39 447.12,-80.04 448.68,-73.22"/>
</g>
<!-- Node15&#45;&gt;Node6 -->
<g id="edge18" class="edge">
<title>Node15&#45;&gt;Node6</title>
<path fill="none" stroke="midnightblue" d="M616.92,-112.44C591.46,-103.4 551.11,-89.06 522.54,-78.92"/>
<polygon fill="midnightblue" stroke="midnightblue" points="523.57,-75.57 512.97,-75.52 521.22,-82.16 523.57,-75.57"/>
</g>
<!-- Node15&#45;&gt;Node8 -->
<g id="edge20" class="edge">
<title>Node15&#45;&gt;Node8</title>
<path fill="none" stroke="midnightblue" d="M628.47,-112.32C616.41,-103.98 597.97,-91.21 583.73,-81.35"/>
<polygon fill="midnightblue" stroke="midnightblue" points="585.72,-78.47 575.5,-75.65 581.73,-84.22 585.72,-78.47"/>
</g>
<!-- Node16 -->
<g id="node16" class="node">
<title>Node16</title>
<g id="a_node16"><a xlink:title=" ">
<polygon fill="none" stroke="#bfbfbf" points="605,-56.5 605,-75.5 647,-75.5 647,-56.5 605,-56.5"/>
<text text-anchor="middle" x="626" y="-63.5" font-family="Helvetica,sans-Serif" font-size="10.00">array</text>
</a>
</g>
</g>
<!-- Node15&#45;&gt;Node16 -->
<g id="edge16" class="edge">
<title>Node15&#45;&gt;Node16</title>
<path fill="none" stroke="midnightblue" d="M638.52,-112.08C636.51,-104.85 633.61,-94.41 631.11,-85.4"/>
<polygon fill="midnightblue" stroke="midnightblue" points="634.48,-84.45 628.43,-75.75 627.74,-86.32 634.48,-84.45"/>
</g>
<!-- Node17 -->
<g id="node17" class="node">
<title>Node17</title>
<g id="a_node17"><a xlink:title=" ">
<polygon fill="none" stroke="#bfbfbf" points="665,-56.5 665,-75.5 715,-75.5 715,-56.5 665,-56.5"/>
<text text-anchor="middle" x="690" y="-63.5" font-family="Helvetica,sans-Serif" font-size="10.00">cstdint</text>
</a>
</g>
</g>
<!-- Node15&#45;&gt;Node17 -->
<g id="edge17" class="edge">
<title>Node15&#45;&gt;Node17</title>
<path fill="none" stroke="midnightblue" d="M649.09,-112.08C656.16,-104.3 666.59,-92.8 675.15,-83.37"/>
<polygon fill="midnightblue" stroke="midnightblue" points="677.93,-85.51 682.06,-75.75 672.75,-80.8 677.93,-85.51"/>
</g>
<!-- Node18 -->
<g id="node18" class="node">
<title>Node18</title>
<g id="a_node18"><a xlink:title=" ">
<polygon fill="none" stroke="#bfbfbf" points="762,-0.5 762,-19.5 806,-19.5 806,-0.5 762,-0.5"/>
<text text-anchor="middle" x="784" y="-7.5" font-family="Helvetica,sans-Serif" font-size="10.00">limits</text>
</a>
</g>
</g>
<!-- Node15&#45;&gt;Node18 -->
<g id="edge19" class="edge">
<title>Node15&#45;&gt;Node18</title>
<path fill="none" stroke="midnightblue" d="M660.88,-112.49C678.42,-104.46 704.2,-91.4 724,-76 742.27,-61.79 759.82,-41.78 771.17,-27.73"/>
<polygon fill="midnightblue" stroke="midnightblue" points="773.94,-29.87 777.39,-19.85 768.45,-25.53 773.94,-29.87"/>
</g>
<!-- Node19 -->
<g id="node19" class="node">
<title>Node19</title>
<g id="a_node19"><a xlink:href="trace__instruction_8h.html" target="_top" xlink:title=" ">
<polygon fill="none" stroke="black" points="771.5,-56.5 771.5,-75.5 878.5,-75.5 878.5,-56.5 771.5,-56.5"/>
<text text-anchor="middle" x="825" y="-63.5" font-family="Helvetica,sans-Serif" font-size="10.00">trace_instruction.h</text>
</a>
</g>
</g>
<!-- Node15&#45;&gt;Node19 -->
<g id="edge21" class="edge">
<title>Node15&#45;&gt;Node19</title>
<path fill="none" stroke="midnightblue" d="M670.16,-112.44C701.51,-103.24 751.53,-88.56 786.2,-78.39"/>
<polygon fill="midnightblue" stroke="midnightblue" points="787.37,-81.69 795.98,-75.52 785.4,-74.97 787.37,-81.69"/>
</g>
<!-- Node19&#45;&gt;Node18 -->
<g id="edge22" class="edge">
<title>Node19&#45;&gt;Node18</title>
<path fill="none" stroke="midnightblue" d="M818.23,-56.08C812.44,-48.46 803.94,-37.26 796.86,-27.94"/>
<polygon fill="midnightblue" stroke="midnightblue" points="799.48,-25.6 790.64,-19.75 793.9,-29.83 799.48,-25.6"/>
</g>
<!-- Node20&#45;&gt;Node7 -->
<g id="edge24" class="edge">
<title>Node20&#45;&gt;Node7</title>
<path fill="none" stroke="midnightblue" d="M772.69,-113.32C820.91,-103.49 904.33,-86.49 955.59,-76.05"/>
<polygon fill="midnightblue" stroke="midnightblue" points="956.29,-79.48 965.39,-74.05 954.9,-72.62 956.29,-79.48"/>
</g>
</g>
</svg>
