<?xml version="1.0" encoding="UTF-8" standalone="no"?>
<!DOCTYPE svg PUBLIC "-//W3C//DTD SVG 1.1//EN"
 "http://www.w3.org/Graphics/SVG/1.1/DTD/svg11.dtd">
<!-- Generated by graphviz version 2.43.0 (0)
 -->
<!-- Title: test/cpp/src/082&#45;branch&#45;targets.cc Pages: 1 -->
<svg width="687pt" height="263pt"
 viewBox="0.00 0.00 687.00 263.00" xmlns="http://www.w3.org/2000/svg" xmlns:xlink="http://www.w3.org/1999/xlink">
<g id="graph0" class="graph" transform="scale(1 1) rotate(0) translate(4 259)">
<title>test/cpp/src/082&#45;branch&#45;targets.cc</title>
<!-- Node1 -->
<g id="node1" class="node">
<title>Node1</title>
<g id="a_node1"><a xlink:title=" ">
<polygon fill="#bfbfbf" stroke="black" points="101,-224.5 101,-254.5 232,-254.5 232,-224.5 101,-224.5"/>
<text text-anchor="start" x="109" y="-242.5" font-family="Helvetica,sans-Serif" font-size="10.00">test/cpp/src/082&#45;branch</text>
<text text-anchor="middle" x="166.5" y="-231.5" font-family="Helvetica,sans-Serif" font-size="10.00">&#45;targets.cc</text>
</a>
</g>
</g>
<!-- Node2 -->
<g id="node2" class="node">
<title>Node2</title>
<g id="a_node2"><a xlink:title=" ">
<polygon fill="none" stroke="#bfbfbf" points="41.5,-168.5 41.5,-187.5 105.5,-187.5 105.5,-168.5 41.5,-168.5"/>
<text text-anchor="middle" x="73.5" y="-175.5" font-family="Helvetica,sans-Serif" font-size="10.00">catch.hpp</text>
</a>
</g>
</g>
<!-- Node1&#45;&gt;Node2 -->
<g id="edge1" class="edge">
<title>Node1&#45;&gt;Node2</title>
<path fill="none" stroke="midnightblue" d="M144.46,-224.4C129.69,-214.95 110.32,-202.56 95.55,-193.11"/>
<polygon fill="midnightblue" stroke="midnightblue" points="97.34,-190.1 87.03,-187.66 93.57,-196 97.34,-190.1"/>
</g>
<!-- Node3 -->
<g id="node3" class="node">
<title>Node3</title>
<g id="a_node3"><a xlink:title=" ">
<polygon fill="none" stroke="#bfbfbf" points="0,-56.5 0,-75.5 47,-75.5 47,-56.5 0,-56.5"/>
<text text-anchor="middle" x="23.5" y="-63.5" font-family="Helvetica,sans-Serif" font-size="10.00">vector</text>
</a>
</g>
</g>
<!-- Node1&#45;&gt;Node3 -->
<g id="edge2" class="edge">
<title>Node1&#45;&gt;Node3</title>
<path fill="none" stroke="midnightblue" d="M156.73,-224.42C146.56,-209.96 129.98,-186.97 114.5,-168 89.17,-136.96 57.42,-102.68 38.9,-83.1"/>
<polygon fill="midnightblue" stroke="midnightblue" points="41.26,-80.5 31.83,-75.66 36.19,-85.32 41.26,-80.5"/>
</g>
<!-- Node4 -->
<g id="node4" class="node">
<title>Node4</title>
<g id="a_node4"><a xlink:href="tracereader_8h.html" target="_top" xlink:title=" ">
<polygon fill="none" stroke="black" points="344,-168.5 344,-187.5 425,-187.5 425,-168.5 344,-168.5"/>
<text text-anchor="middle" x="384.5" y="-175.5" font-family="Helvetica,sans-Serif" font-size="10.00">tracereader.h</text>
</a>
</g>
</g>
<!-- Node1&#45;&gt;Node4 -->
<g id="edge3" class="edge">
<title>Node1&#45;&gt;Node4</title>
<path fill="none" stroke="midnightblue" d="M217.89,-224.47C256.15,-214.03 307.71,-199.96 343.29,-190.25"/>
<polygon fill="midnightblue" stroke="midnightblue" points="344.61,-193.52 353.33,-187.51 342.77,-186.76 344.61,-193.52"/>
</g>
<!-- Node19 -->
<g id="node19" class="node">
<title>Node19</title>
<g id="a_node19"><a xlink:href="instr_8h.html" target="_top" xlink:title=" ">
<polygon fill="none" stroke="black" points="170,-168.5 170,-187.5 217,-187.5 217,-168.5 170,-168.5"/>
<text text-anchor="middle" x="193.5" y="-175.5" font-family="Helvetica,sans-Serif" font-size="10.00">instr.h</text>
</a>
</g>
</g>
<!-- Node1&#45;&gt;Node19 -->
<g id="edge20" class="edge">
<title>Node1&#45;&gt;Node19</title>
<path fill="none" stroke="midnightblue" d="M172.9,-224.4C176.62,-216.2 181.35,-205.78 185.33,-196.99"/>
<polygon fill="midnightblue" stroke="midnightblue" points="188.63,-198.21 189.57,-187.66 182.25,-195.32 188.63,-198.21"/>
</g>
<!-- Node5 -->
<g id="node5" class="node">
<title>Node5</title>
<g id="a_node5"><a xlink:title=" ">
<polygon fill="none" stroke="#bfbfbf" points="257.5,-112.5 257.5,-131.5 307.5,-131.5 307.5,-112.5 257.5,-112.5"/>
<text text-anchor="middle" x="282.5" y="-119.5" font-family="Helvetica,sans-Serif" font-size="10.00">cstring</text>
</a>
</g>
</g>
<!-- Node4&#45;&gt;Node5 -->
<g id="edge4" class="edge">
<title>Node4&#45;&gt;Node5</title>
<path fill="none" stroke="midnightblue" d="M368.11,-168.32C351.83,-159.7 326.63,-146.36 307.78,-136.39"/>
<polygon fill="midnightblue" stroke="midnightblue" points="309.32,-133.24 298.85,-131.65 306.05,-139.43 309.32,-133.24"/>
</g>
<!-- Node6 -->
<g id="node6" class="node">
<title>Node6</title>
<g id="a_node6"><a xlink:title=" ">
<polygon fill="none" stroke="#bfbfbf" points="326,-112.5 326,-131.5 373,-131.5 373,-112.5 326,-112.5"/>
<text text-anchor="middle" x="349.5" y="-119.5" font-family="Helvetica,sans-Serif" font-size="10.00">deque</text>
</a>
</g>
</g>
<!-- Node4&#45;&gt;Node6 -->
<g id="edge5" class="edge">
<title>Node4&#45;&gt;Node6</title>
<path fill="none" stroke="midnightblue" d="M378.72,-168.08C373.83,-160.53 366.67,-149.49 360.67,-140.23"/>
<polygon fill="midnightblue" stroke="midnightblue" points="363.55,-138.24 355.17,-131.75 357.67,-142.05 363.55,-138.24"/>
</g>
<!-- Node7 -->
<g id="node7" class="node">
<title>Node7</title>
<g id="a_node7"><a xlink:title=" ">
<polygon fill="none" stroke="#bfbfbf" points="391.5,-112.5 391.5,-131.5 449.5,-131.5 449.5,-112.5 391.5,-112.5"/>
<text text-anchor="middle" x="420.5" y="-119.5" font-family="Helvetica,sans-Serif" font-size="10.00">memory</text>
</a>
</g>
</g>
<!-- Node4&#45;&gt;Node7 -->
<g id="edge6" class="edge">
<title>Node4&#45;&gt;Node7</title>
<path fill="none" stroke="midnightblue" d="M390.44,-168.08C395.48,-160.53 402.84,-149.49 409.01,-140.23"/>
<polygon fill="midnightblue" stroke="midnightblue" points="412.03,-142.01 414.67,-131.75 406.21,-138.13 412.03,-142.01"/>
</g>
<!-- Node8 -->
<g id="node8" class="node">
<title>Node8</title>
<g id="a_node8"><a xlink:title=" ">
<polygon fill="none" stroke="#bfbfbf" points="467.5,-112.5 467.5,-131.5 523.5,-131.5 523.5,-112.5 467.5,-112.5"/>
<text text-anchor="middle" x="495.5" y="-119.5" font-family="Helvetica,sans-Serif" font-size="10.00">numeric</text>
</a>
</g>
</g>
<!-- Node4&#45;&gt;Node8 -->
<g id="edge7" class="edge">
<title>Node4&#45;&gt;Node8</title>
<path fill="none" stroke="midnightblue" d="M402.33,-168.32C420.22,-159.62 447.98,-146.12 468.55,-136.11"/>
<polygon fill="midnightblue" stroke="midnightblue" points="470.25,-139.18 477.71,-131.65 467.19,-132.88 470.25,-139.18"/>
</g>
<!-- Node9 -->
<g id="node9" class="node">
<title>Node9</title>
<g id="a_node9"><a xlink:title=" ">
<polygon fill="none" stroke="#bfbfbf" points="541.5,-112.5 541.5,-131.5 585.5,-131.5 585.5,-112.5 541.5,-112.5"/>
<text text-anchor="middle" x="563.5" y="-119.5" font-family="Helvetica,sans-Serif" font-size="10.00">string</text>
</a>
</g>
</g>
<!-- Node4&#45;&gt;Node9 -->
<g id="edge8" class="edge">
<title>Node4&#45;&gt;Node9</title>
<path fill="none" stroke="midnightblue" d="M412.86,-168.44C445.2,-158.69 497.94,-142.78 531.67,-132.6"/>
<polygon fill="midnightblue" stroke="midnightblue" points="532.91,-135.88 541.48,-129.64 530.89,-129.18 532.91,-135.88"/>
</g>
<!-- Node10 -->
<g id="node10" class="node">
<title>Node10</title>
<g id="a_node10"><a xlink:href="instruction_8h.html" target="_top" xlink:title=" ">
<polygon fill="none" stroke="black" points="162,-112.5 162,-131.5 239,-131.5 239,-112.5 162,-112.5"/>
<text text-anchor="middle" x="200.5" y="-119.5" font-family="Helvetica,sans-Serif" font-size="10.00">instruction.h</text>
</a>
</g>
</g>
<!-- Node4&#45;&gt;Node10 -->
<g id="edge9" class="edge">
<title>Node4&#45;&gt;Node10</title>
<path fill="none" stroke="midnightblue" d="M355.34,-168.44C323.99,-159.24 273.97,-144.56 239.3,-134.39"/>
<polygon fill="midnightblue" stroke="midnightblue" points="240.1,-130.97 229.52,-131.52 238.13,-137.69 240.1,-130.97"/>
</g>
<!-- Node17 -->
<g id="node17" class="node">
<title>Node17</title>
<g id="a_node17"><a xlink:href="detect_8h.html" target="_top" xlink:title=" ">
<polygon fill="none" stroke="black" points="604,-112.5 604,-131.5 679,-131.5 679,-112.5 604,-112.5"/>
<text text-anchor="middle" x="641.5" y="-119.5" font-family="Helvetica,sans-Serif" font-size="10.00">util/detect.h</text>
</a>
</g>
</g>
<!-- Node4&#45;&gt;Node17 -->
<g id="edge18" class="edge">
<title>Node4&#45;&gt;Node17</title>
<path fill="none" stroke="midnightblue" d="M425.22,-168.44C471.07,-158.81 545.49,-143.17 593.96,-132.99"/>
<polygon fill="midnightblue" stroke="midnightblue" points="594.83,-136.38 603.89,-130.9 593.39,-129.53 594.83,-136.38"/>
</g>
<!-- Node10&#45;&gt;Node3 -->
<g id="edge15" class="edge">
<title>Node10&#45;&gt;Node3</title>
<path fill="none" stroke="midnightblue" d="M172.45,-112.44C141.09,-102.88 90.33,-87.39 56.93,-77.2"/>
<polygon fill="midnightblue" stroke="midnightblue" points="57.75,-73.79 47.17,-74.22 55.71,-80.49 57.75,-73.79"/>
</g>
<!-- Node11 -->
<g id="node11" class="node">
<title>Node11</title>
<g id="a_node11"><a xlink:title=" ">
<polygon fill="none" stroke="#bfbfbf" points="65.5,-56.5 65.5,-75.5 129.5,-75.5 129.5,-56.5 65.5,-56.5"/>
<text text-anchor="middle" x="97.5" y="-63.5" font-family="Helvetica,sans-Serif" font-size="10.00">algorithm</text>
</a>
</g>
</g>
<!-- Node10&#45;&gt;Node11 -->
<g id="edge10" class="edge">
<title>Node10&#45;&gt;Node11</title>
<path fill="none" stroke="midnightblue" d="M183.95,-112.32C167.51,-103.7 142.07,-90.36 123.03,-80.39"/>
<polygon fill="midnightblue" stroke="midnightblue" points="124.49,-77.2 114.01,-75.65 121.24,-83.4 124.49,-77.2"/>
</g>
<!-- Node12 -->
<g id="node12" class="node">
<title>Node12</title>
<g id="a_node12"><a xlink:title=" ">
<polygon fill="none" stroke="#bfbfbf" points="147.5,-56.5 147.5,-75.5 189.5,-75.5 189.5,-56.5 147.5,-56.5"/>
<text text-anchor="middle" x="168.5" y="-63.5" font-family="Helvetica,sans-Serif" font-size="10.00">array</text>
</a>
</g>
</g>
<!-- Node10&#45;&gt;Node12 -->
<g id="edge11" class="edge">
<title>Node10&#45;&gt;Node12</title>
<path fill="none" stroke="midnightblue" d="M195.22,-112.08C190.79,-104.61 184.34,-93.72 178.88,-84.52"/>
<polygon fill="midnightblue" stroke="midnightblue" points="181.79,-82.57 173.69,-75.75 175.77,-86.14 181.79,-82.57"/>
</g>
<!-- Node13 -->
<g id="node13" class="node">
<title>Node13</title>
<g id="a_node13"><a xlink:title=" ">
<polygon fill="none" stroke="#bfbfbf" points="207.5,-56.5 207.5,-75.5 257.5,-75.5 257.5,-56.5 207.5,-56.5"/>
<text text-anchor="middle" x="232.5" y="-63.5" font-family="Helvetica,sans-Serif" font-size="10.00">cstdint</text>
</a>
</g>
</g>
<!-- Node10&#45;&gt;Node13 -->
<g id="edge12" class="edge">
<title>Node10&#45;&gt;Node13</title>
<path fill="none" stroke="midnightblue" d="M205.78,-112.08C210.21,-104.61 216.66,-93.72 222.12,-84.52"/>
<polygon fill="midnightblue" stroke="midnightblue" points="225.23,-86.14 227.31,-75.75 219.21,-82.57 225.23,-86.14"/>
</g>
<!-- Node14 -->
<g id="node14" class="node">
<title>Node14</title>
<g id="a_node14"><a xlink:title=" ">
<polygon fill="none" stroke="#bfbfbf" points="276,-56.5 276,-75.5 341,-75.5 341,-56.5 276,-56.5"/>
<text text-anchor="middle" x="308.5" y="-63.5" font-family="Helvetica,sans-Serif" font-size="10.00">functional</text>
</a>
</g>
</g>
<!-- Node10&#45;&gt;Node14 -->
<g id="edge13" class="edge">
<title>Node10&#45;&gt;Node14</title>
<path fill="none" stroke="midnightblue" d="M217.85,-112.32C235.17,-103.66 262.02,-90.24 282,-80.25"/>
<polygon fill="midnightblue" stroke="midnightblue" points="283.81,-83.26 291.19,-75.65 280.68,-77 283.81,-83.26"/>
</g>
<!-- Node15 -->
<g id="node15" class="node">
<title>Node15</title>
<g id="a_node15"><a xlink:title=" ">
<polygon fill="none" stroke="#bfbfbf" points="388.5,-0.5 388.5,-19.5 432.5,-19.5 432.5,-0.5 388.5,-0.5"/>
<text text-anchor="middle" x="410.5" y="-7.5" font-family="Helvetica,sans-Serif" font-size="10.00">limits</text>
</a>
</g>
</g>
<!-- Node10&#45;&gt;Node15 -->
<g id="edge14" class="edge">
<title>Node10&#45;&gt;Node15</title>
<path fill="none" stroke="midnightblue" d="M236.42,-112.44C274.13,-103.05 330.56,-87.75 349.5,-76 369.76,-63.43 387.72,-42.46 398.82,-27.74"/>
<polygon fill="midnightblue" stroke="midnightblue" points="401.75,-29.66 404.8,-19.52 396.09,-25.55 401.75,-29.66"/>
</g>
<!-- Node16 -->
<g id="node16" class="node">
<title>Node16</title>
<g id="a_node16"><a xlink:href="trace__instruction_8h.html" target="_top" xlink:title=" ">
<polygon fill="none" stroke="black" points="398,-56.5 398,-75.5 505,-75.5 505,-56.5 398,-56.5"/>
<text text-anchor="middle" x="451.5" y="-63.5" font-family="Helvetica,sans-Serif" font-size="10.00">trace_instruction.h</text>
</a>
</g>
</g>
<!-- Node10&#45;&gt;Node16 -->
<g id="edge16" class="edge">
<title>Node10&#45;&gt;Node16</title>
<path fill="none" stroke="midnightblue" d="M239.17,-112.68C282.95,-103.26 354.38,-87.9 402.14,-77.62"/>
<polygon fill="midnightblue" stroke="midnightblue" points="402.92,-81.03 411.96,-75.51 401.45,-74.19 402.92,-81.03"/>
</g>
<!-- Node16&#45;&gt;Node15 -->
<g id="edge17" class="edge">
<title>Node16&#45;&gt;Node15</title>
<path fill="none" stroke="midnightblue" d="M444.73,-56.08C438.94,-48.46 430.44,-37.26 423.36,-27.94"/>
<polygon fill="midnightblue" stroke="midnightblue" points="425.98,-25.6 417.14,-19.75 420.4,-29.83 425.98,-25.6"/>
</g>
<!-- Node18 -->
<g id="node18" class="node">
<title>Node18</title>
<g id="a_node18"><a xlink:title=" ">
<polygon fill="none" stroke="#bfbfbf" points="607,-56.5 607,-75.5 676,-75.5 676,-56.5 607,-56.5"/>
<text text-anchor="middle" x="641.5" y="-63.5" font-family="Helvetica,sans-Serif" font-size="10.00">type_traits</text>
</a>
</g>
</g>
<!-- Node17&#45;&gt;Node18 -->
<g id="edge19" class="edge">
<title>Node17&#45;&gt;Node18</title>
<path fill="none" stroke="midnightblue" d="M641.5,-112.08C641.5,-105.01 641.5,-94.86 641.5,-85.99"/>
<polygon fill="midnightblue" stroke="midnightblue" points="645,-85.75 641.5,-75.75 638,-85.75 645,-85.75"/>
</g>
<!-- Node19&#45;&gt;Node10 -->
<g id="edge21" class="edge">
<title>Node19&#45;&gt;Node10</title>
<path fill="none" stroke="midnightblue" d="M194.66,-168.08C195.58,-160.93 196.92,-150.64 198.08,-141.69"/>
<polygon fill="midnightblue" stroke="midnightblue" points="201.55,-142.12 199.37,-131.75 194.61,-141.22 201.55,-142.12"/>
</g>
</g>
</svg>
