<?xml version="1.0" encoding="UTF-8" standalone="no"?>
<!DOCTYPE svg PUBLIC "-//W3C//DTD SVG 1.1//EN"
 "http://www.w3.org/Graphics/SVG/1.1/DTD/svg11.dtd">
<!-- Generated by graphviz version 2.43.0 (0)
 -->
<!-- Title: test/cpp/src/085&#45;repeatable.cc Pages: 1 -->
<svg width="513pt" height="252pt"
 viewBox="0.00 0.00 512.50 252.00" xmlns="http://www.w3.org/2000/svg" xmlns:xlink="http://www.w3.org/1999/xlink">
<g id="graph0" class="graph" transform="scale(1 1) rotate(0) translate(4 248)">
<title>test/cpp/src/085&#45;repeatable.cc</title>
<!-- Node1 -->
<g id="node1" class="node">
<title>Node1</title>
<g id="a_node1"><a xlink:title=" ">
<polygon fill="#bfbfbf" stroke="black" points="76,-224.5 76,-243.5 240,-243.5 240,-224.5 76,-224.5"/>
<text text-anchor="middle" x="158" y="-231.5" font-family="Helvetica,sans-Serif" font-size="10.00">test/cpp/src/085&#45;repeatable.cc</text>
</a>
</g>
</g>
<!-- Node2 -->
<g id="node2" class="node">
<title>Node2</title>
<g id="a_node2"><a xlink:title=" ">
<polygon fill="none" stroke="#bfbfbf" points="82,-168.5 82,-187.5 146,-187.5 146,-168.5 82,-168.5"/>
<text text-anchor="middle" x="114" y="-175.5" font-family="Helvetica,sans-Serif" font-size="10.00">catch.hpp</text>
</a>
</g>
</g>
<!-- Node1&#45;&gt;Node2 -->
<g id="edge1" class="edge">
<title>Node1&#45;&gt;Node2</title>
<path fill="none" stroke="midnightblue" d="M150.73,-224.08C144.46,-216.38 135.21,-205.03 127.57,-195.65"/>
<polygon fill="midnightblue" stroke="midnightblue" points="130.16,-193.29 121.13,-187.75 124.73,-197.71 130.16,-193.29"/>
</g>
<!-- Node3 -->
<g id="node3" class="node">
<title>Node3</title>
<g id="a_node3"><a xlink:href="repeatable_8h.html" target="_top" xlink:title=" ">
<polygon fill="none" stroke="black" points="164,-168.5 164,-187.5 242,-187.5 242,-168.5 164,-168.5"/>
<text text-anchor="middle" x="203" y="-175.5" font-family="Helvetica,sans-Serif" font-size="10.00">repeatable.h</text>
</a>
</g>
</g>
<!-- Node1&#45;&gt;Node3 -->
<g id="edge2" class="edge">
<title>Node1&#45;&gt;Node3</title>
<path fill="none" stroke="midnightblue" d="M165.43,-224.08C171.85,-216.38 181.31,-205.03 189.12,-195.65"/>
<polygon fill="midnightblue" stroke="midnightblue" points="191.99,-197.67 195.71,-187.75 186.62,-193.19 191.99,-197.67"/>
</g>
<!-- Node4 -->
<g id="node4" class="node">
<title>Node4</title>
<g id="a_node4"><a xlink:title=" ">
<polygon fill="none" stroke="#bfbfbf" points="66,-112.5 66,-131.5 124,-131.5 124,-112.5 66,-112.5"/>
<text text-anchor="middle" x="95" y="-119.5" font-family="Helvetica,sans-Serif" font-size="10.00">memory</text>
</a>
</g>
</g>
<!-- Node3&#45;&gt;Node4 -->
<g id="edge3" class="edge">
<title>Node3&#45;&gt;Node4</title>
<path fill="none" stroke="midnightblue" d="M185.65,-168.32C168.33,-159.66 141.48,-146.24 121.5,-136.25"/>
<polygon fill="midnightblue" stroke="midnightblue" points="122.82,-133 112.31,-131.65 119.69,-139.26 122.82,-133"/>
</g>
<!-- Node5 -->
<g id="node5" class="node">
<title>Node5</title>
<g id="a_node5"><a xlink:title=" ">
<polygon fill="none" stroke="#bfbfbf" points="142,-112.5 142,-131.5 186,-131.5 186,-112.5 142,-112.5"/>
<text text-anchor="middle" x="164" y="-119.5" font-family="Helvetica,sans-Serif" font-size="10.00">string</text>
</a>
</g>
</g>
<!-- Node3&#45;&gt;Node5 -->
<g id="edge4" class="edge">
<title>Node3&#45;&gt;Node5</title>
<path fill="none" stroke="midnightblue" d="M196.56,-168.08C191.05,-160.46 182.97,-149.26 176.24,-139.94"/>
<polygon fill="midnightblue" stroke="midnightblue" points="179.01,-137.81 170.32,-131.75 173.34,-141.91 179.01,-137.81"/>
</g>
<!-- Node6 -->
<g id="node6" class="node">
<title>Node6</title>
<g id="a_node6"><a xlink:href="instruction_8h.html" target="_top" xlink:title=" ">
<polygon fill="none" stroke="black" points="204.5,-112.5 204.5,-131.5 281.5,-131.5 281.5,-112.5 204.5,-112.5"/>
<text text-anchor="middle" x="243" y="-119.5" font-family="Helvetica,sans-Serif" font-size="10.00">instruction.h</text>
</a>
</g>
</g>
<!-- Node3&#45;&gt;Node6 -->
<g id="edge5" class="edge">
<title>Node3&#45;&gt;Node6</title>
<path fill="none" stroke="midnightblue" d="M209.61,-168.08C215.26,-160.46 223.54,-149.26 230.45,-139.94"/>
<polygon fill="midnightblue" stroke="midnightblue" points="233.38,-141.87 236.52,-131.75 227.75,-137.7 233.38,-141.87"/>
</g>
<!-- Node14 -->
<g id="node14" class="node">
<title>Node14</title>
<g id="a_node14"><a xlink:title=" ">
<polygon fill="none" stroke="#bfbfbf" points="299.5,-112.5 299.5,-131.5 378.5,-131.5 378.5,-112.5 299.5,-112.5"/>
<text text-anchor="middle" x="339" y="-119.5" font-family="Helvetica,sans-Serif" font-size="10.00">fmt/ranges.h</text>
</a>
</g>
</g>
<!-- Node3&#45;&gt;Node14 -->
<g id="edge14" class="edge">
<title>Node3&#45;&gt;Node14</title>
<path fill="none" stroke="midnightblue" d="M224.55,-168.44C247.03,-159.52 282.49,-145.44 307.98,-135.32"/>
<polygon fill="midnightblue" stroke="midnightblue" points="309.55,-138.46 317.55,-131.52 306.97,-131.95 309.55,-138.46"/>
</g>
<!-- Node7 -->
<g id="node7" class="node">
<title>Node7</title>
<g id="a_node7"><a xlink:title=" ">
<polygon fill="none" stroke="#bfbfbf" points="0,-56.5 0,-75.5 64,-75.5 64,-56.5 0,-56.5"/>
<text text-anchor="middle" x="32" y="-63.5" font-family="Helvetica,sans-Serif" font-size="10.00">algorithm</text>
</a>
</g>
</g>
<!-- Node6&#45;&gt;Node7 -->
<g id="edge6" class="edge">
<title>Node6&#45;&gt;Node7</title>
<path fill="none" stroke="midnightblue" d="M209.57,-112.44C172.9,-103.06 113.99,-87.98 74.17,-77.79"/>
<polygon fill="midnightblue" stroke="midnightblue" points="74.79,-74.34 64.24,-75.25 73.06,-81.12 74.79,-74.34"/>
</g>
<!-- Node8 -->
<g id="node8" class="node">
<title>Node8</title>
<g id="a_node8"><a xlink:title=" ">
<polygon fill="none" stroke="#bfbfbf" points="82,-56.5 82,-75.5 124,-75.5 124,-56.5 82,-56.5"/>
<text text-anchor="middle" x="103" y="-63.5" font-family="Helvetica,sans-Serif" font-size="10.00">array</text>
</a>
</g>
</g>
<!-- Node6&#45;&gt;Node8 -->
<g id="edge7" class="edge">
<title>Node6&#45;&gt;Node8</title>
<path fill="none" stroke="midnightblue" d="M220.82,-112.44C197.3,-103.37 159.99,-88.98 133.66,-78.83"/>
<polygon fill="midnightblue" stroke="midnightblue" points="134.75,-75.5 124.16,-75.16 132.23,-82.03 134.75,-75.5"/>
</g>
<!-- Node9 -->
<g id="node9" class="node">
<title>Node9</title>
<g id="a_node9"><a xlink:title=" ">
<polygon fill="none" stroke="#bfbfbf" points="142,-56.5 142,-75.5 192,-75.5 192,-56.5 142,-56.5"/>
<text text-anchor="middle" x="167" y="-63.5" font-family="Helvetica,sans-Serif" font-size="10.00">cstdint</text>
</a>
</g>
</g>
<!-- Node6&#45;&gt;Node9 -->
<g id="edge8" class="edge">
<title>Node6&#45;&gt;Node9</title>
<path fill="none" stroke="midnightblue" d="M230.79,-112.32C219.22,-104.11 201.62,-91.6 187.84,-81.81"/>
<polygon fill="midnightblue" stroke="midnightblue" points="189.61,-78.77 179.43,-75.83 185.56,-84.48 189.61,-78.77"/>
</g>
<!-- Node10 -->
<g id="node10" class="node">
<title>Node10</title>
<g id="a_node10"><a xlink:title=" ">
<polygon fill="none" stroke="#bfbfbf" points="210.5,-56.5 210.5,-75.5 275.5,-75.5 275.5,-56.5 210.5,-56.5"/>
<text text-anchor="middle" x="243" y="-63.5" font-family="Helvetica,sans-Serif" font-size="10.00">functional</text>
</a>
</g>
</g>
<!-- Node6&#45;&gt;Node10 -->
<g id="edge9" class="edge">
<title>Node6&#45;&gt;Node10</title>
<path fill="none" stroke="midnightblue" d="M243,-112.08C243,-105.01 243,-94.86 243,-85.99"/>
<polygon fill="midnightblue" stroke="midnightblue" points="246.5,-85.75 243,-75.75 239.5,-85.75 246.5,-85.75"/>
</g>
<!-- Node11 -->
<g id="node11" class="node">
<title>Node11</title>
<g id="a_node11"><a xlink:title=" ">
<polygon fill="none" stroke="#bfbfbf" points="355,-0.5 355,-19.5 399,-19.5 399,-0.5 355,-0.5"/>
<text text-anchor="middle" x="377" y="-7.5" font-family="Helvetica,sans-Serif" font-size="10.00">limits</text>
</a>
</g>
</g>
<!-- Node6&#45;&gt;Node11 -->
<g id="edge10" class="edge">
<title>Node6&#45;&gt;Node11</title>
<path fill="none" stroke="midnightblue" d="M253.51,-112.37C276.22,-93.73 330.06,-49.53 358.56,-26.13"/>
<polygon fill="midnightblue" stroke="midnightblue" points="361.03,-28.64 366.53,-19.59 356.58,-23.23 361.03,-28.64"/>
</g>
<!-- Node12 -->
<g id="node12" class="node">
<title>Node12</title>
<g id="a_node12"><a xlink:title=" ">
<polygon fill="none" stroke="#bfbfbf" points="332.5,-56.5 332.5,-75.5 379.5,-75.5 379.5,-56.5 332.5,-56.5"/>
<text text-anchor="middle" x="356" y="-63.5" font-family="Helvetica,sans-Serif" font-size="10.00">vector</text>
</a>
</g>
</g>
<!-- Node6&#45;&gt;Node12 -->
<g id="edge11" class="edge">
<title>Node6&#45;&gt;Node12</title>
<path fill="none" stroke="midnightblue" d="M260.91,-112.44C279.25,-103.68 308.01,-89.94 329.09,-79.86"/>
<polygon fill="midnightblue" stroke="midnightblue" points="330.67,-82.99 338.18,-75.52 327.65,-76.67 330.67,-82.99"/>
</g>
<!-- Node13 -->
<g id="node13" class="node">
<title>Node13</title>
<g id="a_node13"><a xlink:href="trace__instruction_8h.html" target="_top" xlink:title=" ">
<polygon fill="none" stroke="black" points="397.5,-56.5 397.5,-75.5 504.5,-75.5 504.5,-56.5 397.5,-56.5"/>
<text text-anchor="middle" x="451" y="-63.5" font-family="Helvetica,sans-Serif" font-size="10.00">trace_instruction.h</text>
</a>
</g>
</g>
<!-- Node6&#45;&gt;Node13 -->
<g id="edge12" class="edge">
<title>Node6&#45;&gt;Node13</title>
<path fill="none" stroke="midnightblue" d="M275.96,-112.44C311.79,-103.14 369.16,-88.25 408.39,-78.06"/>
<polygon fill="midnightblue" stroke="midnightblue" points="409.4,-81.42 418.2,-75.52 407.64,-74.64 409.4,-81.42"/>
</g>
<!-- Node13&#45;&gt;Node11 -->
<g id="edge13" class="edge">
<title>Node13&#45;&gt;Node11</title>
<path fill="none" stroke="midnightblue" d="M439.11,-56.32C427.85,-48.11 410.71,-35.6 397.29,-25.81"/>
<polygon fill="midnightblue" stroke="midnightblue" points="399.25,-22.9 389.11,-19.83 395.12,-28.56 399.25,-22.9"/>
</g>
</g>
</svg>
