<?xml version="1.0" encoding="UTF-8" standalone="no"?>
<!DOCTYPE svg PUBLIC "-//W3C//DTD SVG 1.1//EN"
 "http://www.w3.org/Graphics/SVG/1.1/DTD/svg11.dtd">
<!-- Generated by graphviz version 2.43.0 (0)
 -->
<!-- Title: test/cpp/src/150&#45;fetch&#45;bandwidth.cc Pages: 1 -->
<svg width="2278pt" height="375pt"
 viewBox="0.00 0.00 2277.64 375.00" xmlns="http://www.w3.org/2000/svg" xmlns:xlink="http://www.w3.org/1999/xlink">
<g id="graph0" class="graph" transform="scale(1 1) rotate(0) translate(4 371)">
<title>test/cpp/src/150&#45;fetch&#45;bandwidth.cc</title>
<!-- Node1 -->
<g id="node1" class="node">
<title>Node1</title>
<g id="a_node1"><a xlink:title=" ">
<polygon fill="#bfbfbf" stroke="black" points="998,-336.5 998,-366.5 1120,-366.5 1120,-336.5 998,-336.5"/>
<text text-anchor="start" x="1006" y="-354.5" font-family="Helvetica,sans-Serif" font-size="10.00">test/cpp/src/150&#45;fetch</text>
<text text-anchor="middle" x="1059" y="-343.5" font-family="Helvetica,sans-Serif" font-size="10.00">&#45;bandwidth.cc</text>
</a>
</g>
</g>
<!-- Node2 -->
<g id="node2" class="node">
<title>Node2</title>
<g id="a_node2"><a xlink:title=" ">
<polygon fill="none" stroke="#bfbfbf" points="139,-280.5 139,-299.5 203,-299.5 203,-280.5 139,-280.5"/>
<text text-anchor="middle" x="171" y="-287.5" font-family="Helvetica,sans-Serif" font-size="10.00">catch.hpp</text>
</a>
</g>
</g>
<!-- Node1&#45;&gt;Node2 -->
<g id="edge1" class="edge">
<title>Node1&#45;&gt;Node2</title>
<path fill="none" stroke="midnightblue" d="M997.82,-350.13C859.54,-348.58 512.29,-340.73 213.31,-299.96"/>
<polygon fill="midnightblue" stroke="midnightblue" points="213.53,-296.45 203.14,-298.55 212.57,-303.39 213.53,-296.45"/>
</g>
<!-- Node3 -->
<g id="node3" class="node">
<title>Node3</title>
<g id="a_node3"><a xlink:href="mocks_8hpp.html" target="_top" xlink:title=" ">
<polygon fill="none" stroke="black" points="221,-280.5 221,-299.5 291,-299.5 291,-280.5 221,-280.5"/>
<text text-anchor="middle" x="256" y="-287.5" font-family="Helvetica,sans-Serif" font-size="10.00">mocks.hpp</text>
</a>
</g>
</g>
<!-- Node1&#45;&gt;Node3 -->
<g id="edge2" class="edge">
<title>Node1&#45;&gt;Node3</title>
<path fill="none" stroke="midnightblue" d="M997.99,-345.98C843.17,-334.51 437.75,-304.47 301.45,-294.37"/>
<polygon fill="midnightblue" stroke="midnightblue" points="301.59,-290.87 291.35,-293.62 301.07,-297.85 301.59,-290.87"/>
</g>
<!-- Node25 -->
<g id="node25" class="node">
<title>Node25</title>
<g id="a_node25"><a xlink:href="defaults_8hpp.html" target="_top" xlink:title=" ">
<polygon fill="none" stroke="black" points="1020.5,-280.5 1020.5,-299.5 1097.5,-299.5 1097.5,-280.5 1020.5,-280.5"/>
<text text-anchor="middle" x="1059" y="-287.5" font-family="Helvetica,sans-Serif" font-size="10.00">defaults.hpp</text>
</a>
</g>
</g>
<!-- Node1&#45;&gt;Node25 -->
<g id="edge33" class="edge">
<title>Node1&#45;&gt;Node25</title>
<path fill="none" stroke="midnightblue" d="M1059,-336.4C1059,-328.47 1059,-318.46 1059,-309.86"/>
<polygon fill="midnightblue" stroke="midnightblue" points="1062.5,-309.66 1059,-299.66 1055.5,-309.66 1062.5,-309.66"/>
</g>
<!-- Node26 -->
<g id="node26" class="node">
<title>Node26</title>
<g id="a_node26"><a xlink:href="ooo__cpu_8h.html" target="_top" xlink:title=" ">
<polygon fill="none" stroke="black" points="1433,-224.5 1433,-243.5 1499,-243.5 1499,-224.5 1433,-224.5"/>
<text text-anchor="middle" x="1466" y="-231.5" font-family="Helvetica,sans-Serif" font-size="10.00">ooo_cpu.h</text>
</a>
</g>
</g>
<!-- Node1&#45;&gt;Node26 -->
<g id="edge81" class="edge">
<title>Node1&#45;&gt;Node26</title>
<path fill="none" stroke="midnightblue" d="M1108.5,-336.45C1190.04,-313.31 1351.02,-267.63 1425.92,-246.37"/>
<polygon fill="midnightblue" stroke="midnightblue" points="1427.23,-249.64 1435.9,-243.54 1425.32,-242.91 1427.23,-249.64"/>
</g>
<!-- Node40 -->
<g id="node40" class="node">
<title>Node40</title>
<g id="a_node40"><a xlink:href="instr_8h.html" target="_top" xlink:title=" ">
<polygon fill="none" stroke="black" points="1842.5,-224.5 1842.5,-243.5 1889.5,-243.5 1889.5,-224.5 1842.5,-224.5"/>
<text text-anchor="middle" x="1866" y="-231.5" font-family="Helvetica,sans-Serif" font-size="10.00">instr.h</text>
</a>
</g>
</g>
<!-- Node1&#45;&gt;Node40 -->
<g id="edge82" class="edge">
<title>Node1&#45;&gt;Node40</title>
<path fill="none" stroke="midnightblue" d="M1120.32,-341.72C1280.79,-318.76 1709.22,-257.44 1832.43,-239.8"/>
<polygon fill="midnightblue" stroke="midnightblue" points="1833.01,-243.26 1842.41,-238.38 1832.01,-236.33 1833.01,-243.26"/>
</g>
<!-- Node4 -->
<g id="node4" class="node">
<title>Node4</title>
<g id="a_node4"><a xlink:title=" ">
<polygon fill="none" stroke="#bfbfbf" points="828.5,-112.5 828.5,-131.5 875.5,-131.5 875.5,-112.5 828.5,-112.5"/>
<text text-anchor="middle" x="852" y="-119.5" font-family="Helvetica,sans-Serif" font-size="10.00">deque</text>
</a>
</g>
</g>
<!-- Node3&#45;&gt;Node4 -->
<g id="edge3" class="edge">
<title>Node3&#45;&gt;Node4</title>
<path fill="none" stroke="midnightblue" d="M220.88,-281.21C177.19,-271.17 107.39,-253.83 100,-244 79.69,-217.01 76.84,-192.59 100,-168 124.94,-141.53 674.37,-127.08 817.93,-123.75"/>
<polygon fill="midnightblue" stroke="midnightblue" points="818.39,-127.24 828.31,-123.51 818.23,-120.24 818.39,-127.24"/>
</g>
<!-- Node5 -->
<g id="node5" class="node">
<title>Node5</title>
<g id="a_node5"><a xlink:title=" ">
<polygon fill="none" stroke="#bfbfbf" points="189.5,-112.5 189.5,-131.5 254.5,-131.5 254.5,-112.5 189.5,-112.5"/>
<text text-anchor="middle" x="222" y="-119.5" font-family="Helvetica,sans-Serif" font-size="10.00">exception</text>
</a>
</g>
</g>
<!-- Node3&#45;&gt;Node5 -->
<g id="edge4" class="edge">
<title>Node3&#45;&gt;Node5</title>
<path fill="none" stroke="midnightblue" d="M220.98,-281.45C165.78,-269.48 64.5,-247.15 62,-244 40.99,-217.55 41.6,-194.92 62,-168 76.17,-149.3 136.88,-136.2 179.3,-129.13"/>
<polygon fill="midnightblue" stroke="midnightblue" points="180.07,-132.55 189.38,-127.51 178.95,-125.64 180.07,-132.55"/>
</g>
<!-- Node6 -->
<g id="node6" class="node">
<title>Node6</title>
<g id="a_node6"><a xlink:title=" ">
<polygon fill="none" stroke="#bfbfbf" points="1115.5,-112.5 1115.5,-131.5 1180.5,-131.5 1180.5,-112.5 1115.5,-112.5"/>
<text text-anchor="middle" x="1148" y="-119.5" font-family="Helvetica,sans-Serif" font-size="10.00">functional</text>
</a>
</g>
</g>
<!-- Node3&#45;&gt;Node6 -->
<g id="edge5" class="edge">
<title>Node3&#45;&gt;Node6</title>
<path fill="none" stroke="midnightblue" d="M234.95,-280.36C189.9,-260.74 91.46,-211.17 133,-168 169,-130.58 1015.22,-135.87 1067,-132 1079.46,-131.07 1092.95,-129.71 1105.29,-128.33"/>
<polygon fill="midnightblue" stroke="midnightblue" points="1105.8,-131.79 1115.34,-127.17 1105,-124.84 1105.8,-131.79"/>
</g>
<!-- Node7 -->
<g id="node7" class="node">
<title>Node7</title>
<g id="a_node7"><a xlink:title=" ">
<polygon fill="none" stroke="#bfbfbf" points="1880,-0.5 1880,-19.5 1924,-19.5 1924,-0.5 1880,-0.5"/>
<text text-anchor="middle" x="1902" y="-7.5" font-family="Helvetica,sans-Serif" font-size="10.00">limits</text>
</a>
</g>
</g>
<!-- Node3&#45;&gt;Node7 -->
<g id="edge6" class="edge">
<title>Node3&#45;&gt;Node7</title>
<path fill="none" stroke="midnightblue" d="M220.84,-281.76C162.25,-269.66 50.66,-246.39 47,-244 17.15,-224.51 0,-214.65 0,-179 0,-179 0,-179 0,-121 0,-96.58 1619.68,-23.56 1869.75,-12.43"/>
<polygon fill="midnightblue" stroke="midnightblue" points="1870.15,-15.91 1879.98,-11.97 1869.84,-8.92 1870.15,-15.91"/>
</g>
<!-- Node8 -->
<g id="node8" class="node">
<title>Node8</title>
<g id="a_node8"><a xlink:href="cache_8h.html" target="_top" xlink:title=" ">
<polygon fill="none" stroke="black" points="702,-224.5 702,-243.5 756,-243.5 756,-224.5 702,-224.5"/>
<text text-anchor="middle" x="729" y="-231.5" font-family="Helvetica,sans-Serif" font-size="10.00">cache.h</text>
</a>
</g>
</g>
<!-- Node3&#45;&gt;Node8 -->
<g id="edge7" class="edge">
<title>Node3&#45;&gt;Node8</title>
<path fill="none" stroke="midnightblue" d="M291.17,-284.99C378.09,-275.06 602.46,-249.45 691.65,-239.26"/>
<polygon fill="midnightblue" stroke="midnightblue" points="692.29,-242.71 701.83,-238.1 691.5,-235.76 692.29,-242.71"/>
</g>
<!-- Node21 -->
<g id="node21" class="node">
<title>Node21</title>
<g id="a_node21"><a xlink:href="operable_8h.html" target="_top" xlink:title=" ">
<polygon fill="none" stroke="black" points="610,-168.5 610,-187.5 678,-187.5 678,-168.5 610,-168.5"/>
<text text-anchor="middle" x="644" y="-175.5" font-family="Helvetica,sans-Serif" font-size="10.00">operable.h</text>
</a>
</g>
</g>
<!-- Node3&#45;&gt;Node21 -->
<g id="edge32" class="edge">
<title>Node3&#45;&gt;Node21</title>
<path fill="none" stroke="midnightblue" d="M286.12,-280.46C355.39,-260.82 526.01,-212.45 603.97,-190.35"/>
<polygon fill="midnightblue" stroke="midnightblue" points="605.23,-193.63 613.9,-187.53 603.32,-186.89 605.23,-193.63"/>
</g>
<!-- Node8&#45;&gt;Node4 -->
<g id="edge10" class="edge">
<title>Node8&#45;&gt;Node4</title>
<path fill="none" stroke="midnightblue" d="M701.82,-233.66C631.15,-234.52 450.84,-230.79 506,-168 526.44,-144.73 735.09,-129.92 818.15,-124.9"/>
<polygon fill="midnightblue" stroke="midnightblue" points="818.55,-128.39 828.32,-124.3 818.13,-121.4 818.55,-128.39"/>
</g>
<!-- Node9 -->
<g id="node9" class="node">
<title>Node9</title>
<g id="a_node9"><a xlink:title=" ">
<polygon fill="none" stroke="#bfbfbf" points="1237,-112.5 1237,-131.5 1279,-131.5 1279,-112.5 1237,-112.5"/>
<text text-anchor="middle" x="1258" y="-119.5" font-family="Helvetica,sans-Serif" font-size="10.00">array</text>
</a>
</g>
</g>
<!-- Node8&#45;&gt;Node9 -->
<g id="edge8" class="edge">
<title>Node8&#45;&gt;Node9</title>
<path fill="none" stroke="midnightblue" d="M701.69,-232.41C638.33,-230.16 490.36,-219.41 539,-168 588.71,-115.46 1116.98,-138.68 1189,-132 1201.34,-130.86 1214.87,-129.18 1226.66,-127.59"/>
<polygon fill="midnightblue" stroke="midnightblue" points="1227.48,-131.01 1236.91,-126.16 1226.52,-124.07 1227.48,-131.01"/>
</g>
<!-- Node10 -->
<g id="node10" class="node">
<title>Node10</title>
<g id="a_node10"><a xlink:title=" ">
<polygon fill="none" stroke="#bfbfbf" points="780,-168.5 780,-187.5 824,-187.5 824,-168.5 780,-168.5"/>
<text text-anchor="middle" x="802" y="-175.5" font-family="Helvetica,sans-Serif" font-size="10.00">bitset</text>
</a>
</g>
</g>
<!-- Node8&#45;&gt;Node10 -->
<g id="edge9" class="edge">
<title>Node8&#45;&gt;Node10</title>
<path fill="none" stroke="midnightblue" d="M740.73,-224.32C751.84,-216.11 768.74,-203.6 781.98,-193.81"/>
<polygon fill="midnightblue" stroke="midnightblue" points="784.1,-196.59 790.06,-187.83 779.94,-190.97 784.1,-196.59"/>
</g>
<!-- Node11 -->
<g id="node11" class="node">
<title>Node11</title>
<g id="a_node11"><a xlink:title=" ">
<polygon fill="none" stroke="#bfbfbf" points="1437,-168.5 1437,-187.5 1495,-187.5 1495,-168.5 1437,-168.5"/>
<text text-anchor="middle" x="1466" y="-175.5" font-family="Helvetica,sans-Serif" font-size="10.00">memory</text>
</a>
</g>
</g>
<!-- Node8&#45;&gt;Node11 -->
<g id="edge11" class="edge">
<title>Node8&#45;&gt;Node11</title>
<path fill="none" stroke="midnightblue" d="M756.03,-231.87C865.33,-227.21 1275.64,-208.79 1426.65,-187.91"/>
<polygon fill="midnightblue" stroke="midnightblue" points="1427.24,-191.36 1436.64,-186.47 1426.24,-184.44 1427.24,-191.36"/>
</g>
<!-- Node12 -->
<g id="node12" class="node">
<title>Node12</title>
<g id="a_node12"><a xlink:title=" ">
<polygon fill="none" stroke="#bfbfbf" points="696.5,-168.5 696.5,-187.5 761.5,-187.5 761.5,-168.5 696.5,-168.5"/>
<text text-anchor="middle" x="729" y="-175.5" font-family="Helvetica,sans-Serif" font-size="10.00">stdexcept</text>
</a>
</g>
</g>
<!-- Node8&#45;&gt;Node12 -->
<g id="edge12" class="edge">
<title>Node8&#45;&gt;Node12</title>
<path fill="none" stroke="midnightblue" d="M729,-224.08C729,-217.01 729,-206.86 729,-197.99"/>
<polygon fill="midnightblue" stroke="midnightblue" points="732.5,-197.75 729,-187.75 725.5,-197.75 732.5,-197.75"/>
</g>
<!-- Node13 -->
<g id="node13" class="node">
<title>Node13</title>
<g id="a_node13"><a xlink:title=" ">
<polygon fill="none" stroke="#bfbfbf" points="548,-168.5 548,-187.5 592,-187.5 592,-168.5 548,-168.5"/>
<text text-anchor="middle" x="570" y="-175.5" font-family="Helvetica,sans-Serif" font-size="10.00">string</text>
</a>
</g>
</g>
<!-- Node8&#45;&gt;Node13 -->
<g id="edge13" class="edge">
<title>Node8&#45;&gt;Node13</title>
<path fill="none" stroke="midnightblue" d="M703.81,-224.44C676.11,-215.04 631.58,-199.91 601.58,-189.72"/>
<polygon fill="midnightblue" stroke="midnightblue" points="602.6,-186.37 592,-186.47 600.35,-193 602.6,-186.37"/>
</g>
<!-- Node14 -->
<g id="node14" class="node">
<title>Node14</title>
<g id="a_node14"><a xlink:title=" ">
<polygon fill="none" stroke="#bfbfbf" points="1569.5,-56.5 1569.5,-75.5 1616.5,-75.5 1616.5,-56.5 1569.5,-56.5"/>
<text text-anchor="middle" x="1593" y="-63.5" font-family="Helvetica,sans-Serif" font-size="10.00">vector</text>
</a>
</g>
</g>
<!-- Node8&#45;&gt;Node14 -->
<g id="edge14" class="edge">
<title>Node8&#45;&gt;Node14</title>
<path fill="none" stroke="midnightblue" d="M701.77,-232C645.46,-229.29 519.26,-219.74 493,-188 487.33,-181.15 487.27,-174.8 493,-168 563.48,-84.38 1381.59,-69.59 1559.14,-67.36"/>
<polygon fill="midnightblue" stroke="midnightblue" points="1559.25,-70.86 1569.21,-67.24 1559.17,-63.86 1559.25,-70.86"/>
</g>
<!-- Node15 -->
<g id="node15" class="node">
<title>Node15</title>
<g id="a_node15"><a xlink:href="champsim_8h.html" target="_top" xlink:title=" ">
<polygon fill="none" stroke="black" points="880.5,-168.5 880.5,-187.5 957.5,-187.5 957.5,-168.5 880.5,-168.5"/>
<text text-anchor="middle" x="919" y="-175.5" font-family="Helvetica,sans-Serif" font-size="10.00">champsim.h</text>
</a>
</g>
</g>
<!-- Node8&#45;&gt;Node15 -->
<g id="edge15" class="edge">
<title>Node8&#45;&gt;Node15</title>
<path fill="none" stroke="midnightblue" d="M756.22,-225.26C788.39,-216.12 842.2,-200.83 879.08,-190.34"/>
<polygon fill="midnightblue" stroke="midnightblue" points="880.34,-193.62 889.01,-187.52 878.43,-186.89 880.34,-193.62"/>
</g>
<!-- Node17 -->
<g id="node17" class="node">
<title>Node17</title>
<g id="a_node17"><a xlink:title=" ">
<polygon fill="none" stroke="#bfbfbf" points="1096.5,-168.5 1096.5,-187.5 1225.5,-187.5 1225.5,-168.5 1096.5,-168.5"/>
<text text-anchor="middle" x="1161" y="-175.5" font-family="Helvetica,sans-Serif" font-size="10.00">champsim_constants.h</text>
</a>
</g>
</g>
<!-- Node8&#45;&gt;Node17 -->
<g id="edge18" class="edge">
<title>Node8&#45;&gt;Node17</title>
<path fill="none" stroke="midnightblue" d="M756.02,-229.62C821.05,-221.49 988.12,-200.61 1086.16,-188.36"/>
<polygon fill="midnightblue" stroke="midnightblue" points="1086.81,-191.8 1096.3,-187.09 1085.94,-184.86 1086.81,-191.8"/>
</g>
<!-- Node18 -->
<g id="node18" class="node">
<title>Node18</title>
<g id="a_node18"><a xlink:href="channel_8h.html" target="_top" xlink:title=" ">
<polygon fill="none" stroke="black" points="976,-168.5 976,-187.5 1040,-187.5 1040,-168.5 976,-168.5"/>
<text text-anchor="middle" x="1008" y="-175.5" font-family="Helvetica,sans-Serif" font-size="10.00">channel.h</text>
</a>
</g>
</g>
<!-- Node8&#45;&gt;Node18 -->
<g id="edge19" class="edge">
<title>Node8&#45;&gt;Node18</title>
<path fill="none" stroke="midnightblue" d="M756.05,-228.08C800.11,-220.01 890.05,-203.34 966,-188 966.1,-187.98 966.2,-187.96 966.3,-187.94"/>
<polygon fill="midnightblue" stroke="midnightblue" points="966.83,-191.4 975.91,-185.96 965.41,-184.55 966.83,-191.4"/>
</g>
<!-- Node20 -->
<g id="node20" class="node">
<title>Node20</title>
<g id="a_node20"><a xlink:href="module__impl_8h.html" target="_top" xlink:title=" ">
<polygon fill="none" stroke="black" points="1330.5,-168.5 1330.5,-187.5 1419.5,-187.5 1419.5,-168.5 1330.5,-168.5"/>
<text text-anchor="middle" x="1375" y="-175.5" font-family="Helvetica,sans-Serif" font-size="10.00">module_impl.h</text>
</a>
</g>
</g>
<!-- Node8&#45;&gt;Node20 -->
<g id="edge27" class="edge">
<title>Node8&#45;&gt;Node20</title>
<path fill="none" stroke="midnightblue" d="M756.23,-231.8C839.21,-227.95 1096.38,-214.67 1320.29,-187.97"/>
<polygon fill="midnightblue" stroke="midnightblue" points="1320.75,-191.44 1330.26,-186.77 1319.91,-184.49 1320.75,-191.44"/>
</g>
<!-- Node8&#45;&gt;Node21 -->
<g id="edge28" class="edge">
<title>Node8&#45;&gt;Node21</title>
<path fill="none" stroke="midnightblue" d="M715.34,-224.32C702.08,-215.9 681.73,-202.97 666.15,-193.07"/>
<polygon fill="midnightblue" stroke="midnightblue" points="667.94,-190.06 657.62,-187.65 664.19,-195.97 667.94,-190.06"/>
</g>
<!-- Node22 -->
<g id="node22" class="node">
<title>Node22</title>
<g id="a_node22"><a xlink:title=" ">
<polygon fill="none" stroke="#bfbfbf" points="1243.5,-168.5 1243.5,-187.5 1312.5,-187.5 1312.5,-168.5 1243.5,-168.5"/>
<text text-anchor="middle" x="1278" y="-175.5" font-family="Helvetica,sans-Serif" font-size="10.00">type_traits</text>
</a>
</g>
</g>
<!-- Node8&#45;&gt;Node22 -->
<g id="edge29" class="edge">
<title>Node8&#45;&gt;Node22</title>
<path fill="none" stroke="midnightblue" d="M756.22,-231.66C830.82,-227.75 1044.92,-215 1233.39,-187.91"/>
<polygon fill="midnightblue" stroke="midnightblue" points="1234.09,-191.35 1243.48,-186.44 1233.08,-184.42 1234.09,-191.35"/>
</g>
<!-- Node23 -->
<g id="node23" class="node">
<title>Node23</title>
<g id="a_node23"><a xlink:title=" ">
<polygon fill="none" stroke="#bfbfbf" points="142,-168.5 142,-187.5 272,-187.5 272,-168.5 142,-168.5"/>
<text text-anchor="middle" x="207" y="-175.5" font-family="Helvetica,sans-Serif" font-size="10.00">cache_module_decl.inc</text>
</a>
</g>
</g>
<!-- Node8&#45;&gt;Node23 -->
<g id="edge30" class="edge">
<title>Node8&#45;&gt;Node23</title>
<path fill="none" stroke="midnightblue" d="M701.96,-230.48C633.64,-224.08 448.28,-206.45 282.73,-188.17"/>
<polygon fill="midnightblue" stroke="midnightblue" points="282.69,-184.65 272.36,-187.02 281.92,-191.6 282.69,-184.65"/>
</g>
<!-- Node24 -->
<g id="node24" class="node">
<title>Node24</title>
<g id="a_node24"><a xlink:title=" ">
<polygon fill="none" stroke="#bfbfbf" points="290.5,-168.5 290.5,-187.5 415.5,-187.5 415.5,-168.5 290.5,-168.5"/>
<text text-anchor="middle" x="353" y="-175.5" font-family="Helvetica,sans-Serif" font-size="10.00">cache_module_def.inc</text>
</a>
</g>
</g>
<!-- Node8&#45;&gt;Node24 -->
<g id="edge31" class="edge">
<title>Node8&#45;&gt;Node24</title>
<path fill="none" stroke="midnightblue" d="M701.96,-229.12C644.03,-220.8 506.41,-201.03 422.34,-188.96"/>
<polygon fill="midnightblue" stroke="midnightblue" points="422.75,-185.48 412.36,-187.52 421.76,-192.41 422.75,-185.48"/>
</g>
<!-- Node15&#45;&gt;Node5 -->
<g id="edge17" class="edge">
<title>Node15&#45;&gt;Node5</title>
<path fill="none" stroke="midnightblue" d="M880.49,-172.72C865.66,-171.13 848.55,-169.39 833,-168 619.91,-149.01 364.5,-132.08 264.8,-125.7"/>
<polygon fill="midnightblue" stroke="midnightblue" points="265.02,-122.2 254.81,-125.06 264.57,-129.19 265.02,-122.2"/>
</g>
<!-- Node16 -->
<g id="node16" class="node">
<title>Node16</title>
<g id="a_node16"><a xlink:title=" ">
<polygon fill="none" stroke="#bfbfbf" points="1620,-0.5 1620,-19.5 1670,-19.5 1670,-0.5 1620,-0.5"/>
<text text-anchor="middle" x="1645" y="-7.5" font-family="Helvetica,sans-Serif" font-size="10.00">cstdint</text>
</a>
</g>
</g>
<!-- Node15&#45;&gt;Node16 -->
<g id="edge16" class="edge">
<title>Node15&#45;&gt;Node16</title>
<path fill="none" stroke="midnightblue" d="M922.27,-168.26C931.46,-145.09 959.97,-82.07 1007,-56 1059.78,-26.74 1483.08,-14.72 1609.48,-11.76"/>
<polygon fill="midnightblue" stroke="midnightblue" points="1609.84,-15.26 1619.76,-11.53 1609.68,-8.26 1609.84,-15.26"/>
</g>
<!-- Node18&#45;&gt;Node4 -->
<g id="edge22" class="edge">
<title>Node18&#45;&gt;Node4</title>
<path fill="none" stroke="midnightblue" d="M983.28,-168.44C956.84,-159.29 914.76,-144.73 885.39,-134.56"/>
<polygon fill="midnightblue" stroke="midnightblue" points="886.18,-131.13 875.58,-131.16 883.89,-137.74 886.18,-131.13"/>
</g>
<!-- Node18&#45;&gt;Node6 -->
<g id="edge23" class="edge">
<title>Node18&#45;&gt;Node6</title>
<path fill="none" stroke="midnightblue" d="M1030.18,-168.44C1053.43,-159.48 1090.15,-145.31 1116.42,-135.18"/>
<polygon fill="midnightblue" stroke="midnightblue" points="1117.85,-138.38 1125.92,-131.52 1115.33,-131.85 1117.85,-138.38"/>
</g>
<!-- Node18&#45;&gt;Node7 -->
<g id="edge24" class="edge">
<title>Node18&#45;&gt;Node7</title>
<path fill="none" stroke="midnightblue" d="M1019.53,-168.38C1041.21,-152.32 1087.53,-118.87 1106,-112 1250.31,-58.35 1738.83,-22.05 1869.59,-13.14"/>
<polygon fill="midnightblue" stroke="midnightblue" points="1870.01,-16.61 1879.75,-12.45 1869.54,-9.63 1870.01,-16.61"/>
</g>
<!-- Node18&#45;&gt;Node9 -->
<g id="edge20" class="edge">
<title>Node18&#45;&gt;Node9</title>
<path fill="none" stroke="midnightblue" d="M1040.15,-170.74C1082.28,-162.44 1158.38,-147.06 1223,-132 1224.27,-131.7 1225.57,-131.4 1226.88,-131.08"/>
<polygon fill="midnightblue" stroke="midnightblue" points="1228.08,-134.39 1236.94,-128.58 1226.39,-127.6 1228.08,-134.39"/>
</g>
<!-- Node18&#45;&gt;Node14 -->
<g id="edge25" class="edge">
<title>Node18&#45;&gt;Node14</title>
<path fill="none" stroke="midnightblue" d="M1040.28,-169.91C1084.62,-160.02 1161.94,-142.15 1189,-132 1207.24,-125.16 1209.38,-117.72 1228,-112 1345.93,-75.74 1493.8,-68.58 1559.21,-67.25"/>
<polygon fill="midnightblue" stroke="midnightblue" points="1559.41,-70.75 1569.35,-67.08 1559.29,-63.75 1559.41,-70.75"/>
</g>
<!-- Node18&#45;&gt;Node16 -->
<g id="edge21" class="edge">
<title>Node18&#45;&gt;Node16</title>
<path fill="none" stroke="midnightblue" d="M998.22,-168.4C985.1,-155.78 964.68,-131.61 976,-112 1000.89,-68.89 1025.46,-70.76 1073,-56 1174.04,-24.63 1501.25,-14.34 1609.71,-11.74"/>
<polygon fill="midnightblue" stroke="midnightblue" points="1609.88,-15.24 1619.8,-11.51 1609.72,-8.24 1609.88,-15.24"/>
</g>
<!-- Node19 -->
<g id="node19" class="node">
<title>Node19</title>
<g id="a_node19"><a xlink:title=" ">
<polygon fill="none" stroke="#bfbfbf" points="985.5,-112.5 985.5,-131.5 1058.5,-131.5 1058.5,-112.5 985.5,-112.5"/>
<text text-anchor="middle" x="1022" y="-119.5" font-family="Helvetica,sans-Serif" font-size="10.00">string_view</text>
</a>
</g>
</g>
<!-- Node18&#45;&gt;Node19 -->
<g id="edge26" class="edge">
<title>Node18&#45;&gt;Node19</title>
<path fill="none" stroke="midnightblue" d="M1010.31,-168.08C1012.17,-160.93 1014.84,-150.64 1017.15,-141.69"/>
<polygon fill="midnightblue" stroke="midnightblue" points="1020.61,-142.31 1019.73,-131.75 1013.83,-140.55 1020.61,-142.31"/>
</g>
<!-- Node25&#45;&gt;Node8 -->
<g id="edge34" class="edge">
<title>Node25&#45;&gt;Node8</title>
<path fill="none" stroke="midnightblue" d="M1020.5,-282.7C956.56,-272.24 829.29,-251.41 766.21,-241.09"/>
<polygon fill="midnightblue" stroke="midnightblue" points="766.73,-237.63 756.3,-239.47 765.6,-244.54 766.73,-237.63"/>
</g>
<!-- Node25&#45;&gt;Node17 -->
<g id="edge35" class="edge">
<title>Node25&#45;&gt;Node17</title>
<path fill="none" stroke="midnightblue" d="M1067,-280.37C1084.06,-261.97 1124.21,-218.67 1146.12,-195.05"/>
<polygon fill="midnightblue" stroke="midnightblue" points="1148.8,-197.3 1153.03,-187.59 1143.67,-192.54 1148.8,-197.3"/>
</g>
<!-- Node25&#45;&gt;Node26 -->
<g id="edge36" class="edge">
<title>Node25&#45;&gt;Node26</title>
<path fill="none" stroke="midnightblue" d="M1097.66,-283.87C1173.81,-273.77 1342.74,-251.35 1422.59,-240.76"/>
<polygon fill="midnightblue" stroke="midnightblue" points="1423.34,-244.19 1432.79,-239.41 1422.42,-237.25 1423.34,-244.19"/>
</g>
<!-- Node39 -->
<g id="node39" class="node">
<title>Node39</title>
<g id="a_node39"><a xlink:href="ptw_8h.html" target="_top" xlink:title=" ">
<polygon fill="none" stroke="black" points="986.5,-224.5 986.5,-243.5 1029.5,-243.5 1029.5,-224.5 986.5,-224.5"/>
<text text-anchor="middle" x="1008" y="-231.5" font-family="Helvetica,sans-Serif" font-size="10.00">ptw.h</text>
</a>
</g>
</g>
<!-- Node25&#45;&gt;Node39 -->
<g id="edge74" class="edge">
<title>Node25&#45;&gt;Node39</title>
<path fill="none" stroke="midnightblue" d="M1050.58,-280.08C1043.15,-272.22 1032.15,-260.57 1023.19,-251.08"/>
<polygon fill="midnightblue" stroke="midnightblue" points="1025.68,-248.62 1016.26,-243.75 1020.59,-253.42 1025.68,-248.62"/>
</g>
<!-- Node26&#45;&gt;Node4 -->
<g id="edge39" class="edge">
<title>Node26&#45;&gt;Node4</title>
<path fill="none" stroke="midnightblue" d="M1499.2,-229.46C1551.58,-222.67 1644.02,-205.07 1609,-168 1584.81,-142.4 1011.15,-134.27 976,-132 945.47,-130.02 910.73,-127.48 885.8,-125.6"/>
<polygon fill="midnightblue" stroke="midnightblue" points="886,-122.1 875.76,-124.84 885.47,-129.08 886,-122.1"/>
</g>
<!-- Node26&#45;&gt;Node7 -->
<g id="edge40" class="edge">
<title>Node26&#45;&gt;Node7</title>
<path fill="none" stroke="midnightblue" d="M1499.01,-232.33C1643.5,-229.24 2214.19,-215.35 2240,-188 2280.26,-145.33 2278.65,-100.14 2240,-56 2219.99,-33.14 2014.73,-18.01 1934.19,-12.91"/>
<polygon fill="midnightblue" stroke="midnightblue" points="1934.32,-9.41 1924.12,-12.28 1933.88,-16.4 1934.32,-9.41"/>
</g>
<!-- Node26&#45;&gt;Node9 -->
<g id="edge37" class="edge">
<title>Node26&#45;&gt;Node9</title>
<path fill="none" stroke="midnightblue" d="M1499.07,-231.78C1561.17,-228.37 1685.33,-215.56 1643,-168 1619.57,-141.67 1376.62,-128.3 1289.16,-124.31"/>
<polygon fill="midnightblue" stroke="midnightblue" points="1289.2,-120.81 1279.05,-123.86 1288.89,-127.8 1289.2,-120.81"/>
</g>
<!-- Node26&#45;&gt;Node10 -->
<g id="edge38" class="edge">
<title>Node26&#45;&gt;Node10</title>
<path fill="none" stroke="midnightblue" d="M1432.72,-231.12C1342.31,-225.87 1084.57,-209.99 871,-188 858.95,-186.76 845.75,-185.11 834.15,-183.56"/>
<polygon fill="midnightblue" stroke="midnightblue" points="834.41,-180.06 824.03,-182.18 833.46,-187 834.41,-180.06"/>
</g>
<!-- Node26&#45;&gt;Node11 -->
<g id="edge41" class="edge">
<title>Node26&#45;&gt;Node11</title>
<path fill="none" stroke="midnightblue" d="M1466,-224.08C1466,-217.01 1466,-206.86 1466,-197.99"/>
<polygon fill="midnightblue" stroke="midnightblue" points="1469.5,-197.75 1466,-187.75 1462.5,-197.75 1469.5,-197.75"/>
</g>
<!-- Node26&#45;&gt;Node12 -->
<g id="edge44" class="edge">
<title>Node26&#45;&gt;Node12</title>
<path fill="none" stroke="midnightblue" d="M1432.91,-232.57C1333.98,-230.94 1031.81,-223.3 771.94,-187.91"/>
<polygon fill="midnightblue" stroke="midnightblue" points="772.32,-184.43 761.93,-186.53 771.36,-191.37 772.32,-184.43"/>
</g>
<!-- Node26&#45;&gt;Node14 -->
<g id="edge45" class="edge">
<title>Node26&#45;&gt;Node14</title>
<path fill="none" stroke="midnightblue" d="M1499.04,-230.29C1549.49,-225.38 1641.99,-213.13 1662,-188 1689.7,-153.22 1642.02,-105.99 1612.95,-82.13"/>
<polygon fill="midnightblue" stroke="midnightblue" points="1614.98,-79.27 1604.98,-75.78 1610.62,-84.75 1614.98,-79.27"/>
</g>
<!-- Node26&#45;&gt;Node15 -->
<g id="edge46" class="edge">
<title>Node26&#45;&gt;Node15</title>
<path fill="none" stroke="midnightblue" d="M1432.89,-231.11C1354.12,-226.38 1149.27,-212.7 967.72,-187.97"/>
<polygon fill="midnightblue" stroke="midnightblue" points="968.1,-184.49 957.72,-186.59 967.15,-191.42 968.1,-184.49"/>
</g>
<!-- Node26&#45;&gt;Node17 -->
<g id="edge47" class="edge">
<title>Node26&#45;&gt;Node17</title>
<path fill="none" stroke="midnightblue" d="M1432.78,-227.12C1381.59,-218.06 1282.74,-200.55 1219.41,-189.34"/>
<polygon fill="midnightblue" stroke="midnightblue" points="1219.64,-185.83 1209.18,-187.53 1218.41,-192.72 1219.64,-185.83"/>
</g>
<!-- Node26&#45;&gt;Node18 -->
<g id="edge48" class="edge">
<title>Node26&#45;&gt;Node18</title>
<path fill="none" stroke="midnightblue" d="M1432.69,-229.07C1351.01,-219.44 1140.87,-194.67 1050.43,-184"/>
<polygon fill="midnightblue" stroke="midnightblue" points="1050.6,-180.5 1040.26,-182.8 1049.78,-187.45 1050.6,-180.5"/>
</g>
<!-- Node26&#45;&gt;Node20 -->
<g id="edge58" class="edge">
<title>Node26&#45;&gt;Node20</title>
<path fill="none" stroke="midnightblue" d="M1451.38,-224.32C1437.05,-215.82 1414.99,-202.73 1398.25,-192.8"/>
<polygon fill="midnightblue" stroke="midnightblue" points="1399.97,-189.75 1389.58,-187.65 1396.4,-195.77 1399.97,-189.75"/>
</g>
<!-- Node26&#45;&gt;Node21 -->
<g id="edge59" class="edge">
<title>Node26&#45;&gt;Node21</title>
<path fill="none" stroke="midnightblue" d="M1432.8,-232.84C1326.05,-231.96 981.89,-226.25 688.18,-187.95"/>
<polygon fill="midnightblue" stroke="midnightblue" points="688.56,-184.47 678.19,-186.63 687.65,-191.41 688.56,-184.47"/>
</g>
<!-- Node26&#45;&gt;Node22 -->
<g id="edge71" class="edge">
<title>Node26&#45;&gt;Node22</title>
<path fill="none" stroke="midnightblue" d="M1436.21,-224.44C1404.17,-215.24 1353.07,-200.56 1317.65,-190.39"/>
<polygon fill="midnightblue" stroke="midnightblue" points="1318.23,-186.91 1307.65,-187.52 1316.29,-193.64 1318.23,-186.91"/>
</g>
<!-- Node27 -->
<g id="node27" class="node">
<title>Node27</title>
<g id="a_node27"><a xlink:title=" ">
<polygon fill="none" stroke="#bfbfbf" points="1891,-56.5 1891,-75.5 1947,-75.5 1947,-56.5 1891,-56.5"/>
<text text-anchor="middle" x="1919" y="-63.5" font-family="Helvetica,sans-Serif" font-size="10.00">optional</text>
</a>
</g>
</g>
<!-- Node26&#45;&gt;Node27 -->
<g id="edge42" class="edge">
<title>Node26&#45;&gt;Node27</title>
<path fill="none" stroke="midnightblue" d="M1499.02,-231.44C1591.74,-226.77 1849.63,-211.75 1879,-188 1910.01,-162.92 1917.18,-113.17 1918.71,-85.93"/>
<polygon fill="midnightblue" stroke="midnightblue" points="1922.21,-85.88 1919.07,-75.76 1915.22,-85.63 1922.21,-85.88"/>
</g>
<!-- Node28 -->
<g id="node28" class="node">
<title>Node28</title>
<g id="a_node28"><a xlink:title=" ">
<polygon fill="none" stroke="#bfbfbf" points="1927.5,-168.5 1927.5,-187.5 1974.5,-187.5 1974.5,-168.5 1927.5,-168.5"/>
<text text-anchor="middle" x="1951" y="-175.5" font-family="Helvetica,sans-Serif" font-size="10.00">queue</text>
</a>
</g>
</g>
<!-- Node26&#45;&gt;Node28 -->
<g id="edge43" class="edge">
<title>Node26&#45;&gt;Node28</title>
<path fill="none" stroke="midnightblue" d="M1499.01,-231.18C1573.33,-226.74 1759.36,-213.81 1913,-188 1914.46,-187.75 1915.95,-187.48 1917.45,-187.2"/>
<polygon fill="midnightblue" stroke="midnightblue" points="1918.32,-190.59 1927.38,-185.1 1916.87,-183.74 1918.32,-190.59"/>
</g>
<!-- Node29 -->
<g id="node29" class="node">
<title>Node29</title>
<g id="a_node29"><a xlink:href="instruction_8h.html" target="_top" xlink:title=" ">
<polygon fill="none" stroke="black" points="2153.5,-168.5 2153.5,-187.5 2230.5,-187.5 2230.5,-168.5 2153.5,-168.5"/>
<text text-anchor="middle" x="2192" y="-175.5" font-family="Helvetica,sans-Serif" font-size="10.00">instruction.h</text>
</a>
</g>
</g>
<!-- Node26&#45;&gt;Node29 -->
<g id="edge49" class="edge">
<title>Node26&#45;&gt;Node29</title>
<path fill="none" stroke="midnightblue" d="M1499.29,-232.19C1596.72,-229.54 1889.78,-219.43 2143.16,-187.94"/>
<polygon fill="midnightblue" stroke="midnightblue" points="2143.8,-191.39 2153.29,-186.67 2142.93,-184.44 2143.8,-191.39"/>
</g>
<!-- Node32 -->
<g id="node32" class="node">
<title>Node32</title>
<g id="a_node32"><a xlink:href="util_2lru__table_8h.html" target="_top" xlink:title=" ">
<polygon fill="none" stroke="black" points="1513.5,-168.5 1513.5,-187.5 1600.5,-187.5 1600.5,-168.5 1513.5,-168.5"/>
<text text-anchor="middle" x="1557" y="-175.5" font-family="Helvetica,sans-Serif" font-size="10.00">util/lru_table.h</text>
</a>
</g>
</g>
<!-- Node26&#45;&gt;Node32 -->
<g id="edge60" class="edge">
<title>Node26&#45;&gt;Node32</title>
<path fill="none" stroke="midnightblue" d="M1480.62,-224.32C1494.95,-215.82 1517.01,-202.73 1533.75,-192.8"/>
<polygon fill="midnightblue" stroke="midnightblue" points="1535.6,-195.77 1542.42,-187.65 1532.03,-189.75 1535.6,-195.77"/>
</g>
<!-- Node37 -->
<g id="node37" class="node">
<title>Node37</title>
<g id="a_node37"><a xlink:title=" ">
<polygon fill="none" stroke="#bfbfbf" points="1993,-168.5 1993,-187.5 2135,-187.5 2135,-168.5 1993,-168.5"/>
<text text-anchor="middle" x="2064" y="-175.5" font-family="Helvetica,sans-Serif" font-size="10.00">ooo_cpu_module_decl.inc</text>
</a>
</g>
</g>
<!-- Node26&#45;&gt;Node37 -->
<g id="edge72" class="edge">
<title>Node26&#45;&gt;Node37</title>
<path fill="none" stroke="midnightblue" d="M1499.06,-230.42C1579.72,-224.07 1793.3,-206.86 1982.76,-188.1"/>
<polygon fill="midnightblue" stroke="midnightblue" points="1983.31,-191.56 1992.91,-187.09 1982.61,-184.6 1983.31,-191.56"/>
</g>
<!-- Node38 -->
<g id="node38" class="node">
<title>Node38</title>
<g id="a_node38"><a xlink:title=" ">
<polygon fill="none" stroke="#bfbfbf" points="1733.5,-168.5 1733.5,-187.5 1870.5,-187.5 1870.5,-168.5 1733.5,-168.5"/>
<text text-anchor="middle" x="1802" y="-175.5" font-family="Helvetica,sans-Serif" font-size="10.00">ooo_cpu_module_def.inc</text>
</a>
</g>
</g>
<!-- Node26&#45;&gt;Node38 -->
<g id="edge73" class="edge">
<title>Node26&#45;&gt;Node38</title>
<path fill="none" stroke="midnightblue" d="M1499.14,-227.67C1554.68,-218.75 1667.48,-200.62 1738.64,-189.18"/>
<polygon fill="midnightblue" stroke="midnightblue" points="1739.51,-192.59 1748.83,-187.55 1738.4,-185.68 1739.51,-192.59"/>
</g>
<!-- Node29&#45;&gt;Node6 -->
<g id="edge53" class="edge">
<title>Node29&#45;&gt;Node6</title>
<path fill="none" stroke="midnightblue" d="M2153.3,-169.24C2150.16,-168.77 2147.03,-168.34 2144,-168 1739.14,-122.34 1634.26,-162.79 1228,-132 1215.93,-131.08 1202.87,-129.76 1190.87,-128.4"/>
<polygon fill="midnightblue" stroke="midnightblue" points="1190.98,-124.89 1180.64,-127.22 1190.17,-131.85 1190.98,-124.89"/>
</g>
<!-- Node29&#45;&gt;Node7 -->
<g id="edge54" class="edge">
<title>Node29&#45;&gt;Node7</title>
<path fill="none" stroke="midnightblue" d="M2186.02,-168.45C2170.06,-146.29 2124.02,-86.56 2071,-56 2027.61,-30.99 1969.98,-19.53 1934.47,-14.54"/>
<polygon fill="midnightblue" stroke="midnightblue" points="1934.57,-11.02 1924.2,-13.19 1933.66,-17.96 1934.57,-11.02"/>
</g>
<!-- Node29&#45;&gt;Node9 -->
<g id="edge51" class="edge">
<title>Node29&#45;&gt;Node9</title>
<path fill="none" stroke="midnightblue" d="M2153.3,-169.28C2150.16,-168.8 2147.03,-168.36 2144,-168 1811,-128.51 1403.55,-123.64 1289.16,-123.07"/>
<polygon fill="midnightblue" stroke="midnightblue" points="1289.03,-119.57 1279.02,-123.03 1289,-126.57 1289.03,-119.57"/>
</g>
<!-- Node29&#45;&gt;Node14 -->
<g id="edge55" class="edge">
<title>Node29&#45;&gt;Node14</title>
<path fill="none" stroke="midnightblue" d="M2153.28,-169.43C2150.14,-168.91 2147.02,-168.42 2144,-168 1975.13,-144.26 1926.59,-176.61 1762,-132 1741.66,-126.49 1738.5,-120 1719,-112 1688.07,-99.32 1652.1,-86.67 1626.53,-78.03"/>
<polygon fill="midnightblue" stroke="midnightblue" points="1627.53,-74.68 1616.93,-74.81 1625.3,-81.31 1627.53,-74.68"/>
</g>
<!-- Node29&#45;&gt;Node16 -->
<g id="edge52" class="edge">
<title>Node29&#45;&gt;Node16</title>
<path fill="none" stroke="midnightblue" d="M2181.01,-168.33C2145.96,-140.7 2039.05,-56.43 2038,-56 1973.51,-29.49 1764.05,-16.72 1680.19,-12.58"/>
<polygon fill="midnightblue" stroke="midnightblue" points="1680.3,-9.08 1670.14,-12.09 1679.96,-16.07 1680.3,-9.08"/>
</g>
<!-- Node30 -->
<g id="node30" class="node">
<title>Node30</title>
<g id="a_node30"><a xlink:title=" ">
<polygon fill="none" stroke="#bfbfbf" points="1965,-56.5 1965,-75.5 2029,-75.5 2029,-56.5 1965,-56.5"/>
<text text-anchor="middle" x="1997" y="-63.5" font-family="Helvetica,sans-Serif" font-size="10.00">algorithm</text>
</a>
</g>
</g>
<!-- Node29&#45;&gt;Node30 -->
<g id="edge50" class="edge">
<title>Node29&#45;&gt;Node30</title>
<path fill="none" stroke="midnightblue" d="M2153.67,-168.43C2115.71,-159.41 2060.76,-144.79 2043,-132 2026.05,-119.79 2013.08,-99.34 2005.3,-84.64"/>
<polygon fill="midnightblue" stroke="midnightblue" points="2008.36,-82.93 2000.76,-75.55 2002.1,-86.06 2008.36,-82.93"/>
</g>
<!-- Node31 -->
<g id="node31" class="node">
<title>Node31</title>
<g id="a_node31"><a xlink:href="trace__instruction_8h.html" target="_top" xlink:title=" ">
<polygon fill="none" stroke="black" points="2123.5,-56.5 2123.5,-75.5 2230.5,-75.5 2230.5,-56.5 2123.5,-56.5"/>
<text text-anchor="middle" x="2177" y="-63.5" font-family="Helvetica,sans-Serif" font-size="10.00">trace_instruction.h</text>
</a>
</g>
</g>
<!-- Node29&#45;&gt;Node31 -->
<g id="edge56" class="edge">
<title>Node29&#45;&gt;Node31</title>
<path fill="none" stroke="midnightblue" d="M2190.82,-168.37C2188.4,-150.62 2182.82,-109.67 2179.54,-85.6"/>
<polygon fill="midnightblue" stroke="midnightblue" points="2182.99,-85.03 2178.17,-75.59 2176.05,-85.97 2182.99,-85.03"/>
</g>
<!-- Node31&#45;&gt;Node7 -->
<g id="edge57" class="edge">
<title>Node31&#45;&gt;Node7</title>
<path fill="none" stroke="midnightblue" d="M2133.43,-56.44C2077.97,-45.55 1983.48,-27 1934.15,-17.31"/>
<polygon fill="midnightblue" stroke="midnightblue" points="1934.53,-13.82 1924.05,-15.33 1933.19,-20.69 1934.53,-13.82"/>
</g>
<!-- Node33 -->
<g id="node33" class="node">
<title>Node33</title>
<g id="a_node33"><a xlink:href="msl_2lru__table_8h.html" target="_top" xlink:title=" ">
<polygon fill="none" stroke="black" points="1771.5,-112.5 1771.5,-131.5 1860.5,-131.5 1860.5,-112.5 1771.5,-112.5"/>
<text text-anchor="middle" x="1816" y="-119.5" font-family="Helvetica,sans-Serif" font-size="10.00">msl/lru_table.h</text>
</a>
</g>
</g>
<!-- Node32&#45;&gt;Node33 -->
<g id="edge61" class="edge">
<title>Node32&#45;&gt;Node33</title>
<path fill="none" stroke="midnightblue" d="M1598.04,-168.44C1643.32,-159 1716.23,-143.8 1765.11,-133.61"/>
<polygon fill="midnightblue" stroke="midnightblue" points="1766.08,-136.98 1775.15,-131.52 1764.65,-130.13 1766.08,-136.98"/>
</g>
<!-- Node33&#45;&gt;Node14 -->
<g id="edge67" class="edge">
<title>Node33&#45;&gt;Node14</title>
<path fill="none" stroke="midnightblue" d="M1780.66,-112.44C1738.32,-102.19 1667.91,-85.14 1626.43,-75.09"/>
<polygon fill="midnightblue" stroke="midnightblue" points="1627.08,-71.65 1616.54,-72.7 1625.44,-78.46 1627.08,-71.65"/>
</g>
<!-- Node33&#45;&gt;Node16 -->
<g id="edge64" class="edge">
<title>Node33&#45;&gt;Node16</title>
<path fill="none" stroke="midnightblue" d="M1771.48,-112.73C1732.28,-104.59 1679.15,-91.21 1664,-76 1651.95,-63.91 1647.46,-44.63 1645.83,-30.2"/>
<polygon fill="midnightblue" stroke="midnightblue" points="1649.29,-29.6 1645.04,-19.9 1642.31,-30.13 1649.29,-29.6"/>
</g>
<!-- Node33&#45;&gt;Node27 -->
<g id="edge65" class="edge">
<title>Node33&#45;&gt;Node27</title>
<path fill="none" stroke="midnightblue" d="M1832.55,-112.32C1848.99,-103.7 1874.43,-90.36 1893.47,-80.39"/>
<polygon fill="midnightblue" stroke="midnightblue" points="1895.26,-83.4 1902.49,-75.65 1892.01,-77.2 1895.26,-83.4"/>
</g>
<!-- Node33&#45;&gt;Node30 -->
<g id="edge62" class="edge">
<title>Node33&#45;&gt;Node30</title>
<path fill="none" stroke="midnightblue" d="M1844.68,-112.44C1875.53,-103.24 1924.73,-88.56 1958.83,-78.39"/>
<polygon fill="midnightblue" stroke="midnightblue" points="1959.87,-81.73 1968.45,-75.52 1957.87,-75.02 1959.87,-81.73"/>
</g>
<!-- Node34 -->
<g id="node34" class="node">
<title>Node34</title>
<g id="a_node34"><a xlink:title=" ">
<polygon fill="none" stroke="#bfbfbf" points="1757,-56.5 1757,-75.5 1809,-75.5 1809,-56.5 1757,-56.5"/>
<text text-anchor="middle" x="1783" y="-63.5" font-family="Helvetica,sans-Serif" font-size="10.00">cassert</text>
</a>
</g>
</g>
<!-- Node33&#45;&gt;Node34 -->
<g id="edge63" class="edge">
<title>Node33&#45;&gt;Node34</title>
<path fill="none" stroke="midnightblue" d="M1810.55,-112.08C1805.99,-104.61 1799.33,-93.72 1793.71,-84.52"/>
<polygon fill="midnightblue" stroke="midnightblue" points="1796.55,-82.46 1788.35,-75.75 1790.58,-86.11 1796.55,-82.46"/>
</g>
<!-- Node35 -->
<g id="node35" class="node">
<title>Node35</title>
<g id="a_node35"><a xlink:title=" ">
<polygon fill="none" stroke="#bfbfbf" points="1827.5,-56.5 1827.5,-75.5 1872.5,-75.5 1872.5,-56.5 1827.5,-56.5"/>
<text text-anchor="middle" x="1850" y="-63.5" font-family="Helvetica,sans-Serif" font-size="10.00">utility</text>
</a>
</g>
</g>
<!-- Node33&#45;&gt;Node35 -->
<g id="edge66" class="edge">
<title>Node33&#45;&gt;Node35</title>
<path fill="none" stroke="midnightblue" d="M1821.61,-112.08C1826.37,-104.53 1833.32,-93.49 1839.15,-84.23"/>
<polygon fill="midnightblue" stroke="midnightblue" points="1842.12,-86.08 1844.49,-75.75 1836.2,-82.35 1842.12,-86.08"/>
</g>
<!-- Node36 -->
<g id="node36" class="node">
<title>Node36</title>
<g id="a_node36"><a xlink:href="msl_2bits_8h.html" target="_top" xlink:title=" ">
<polygon fill="none" stroke="black" points="1673.5,-56.5 1673.5,-75.5 1738.5,-75.5 1738.5,-56.5 1673.5,-56.5"/>
<text text-anchor="middle" x="1706" y="-63.5" font-family="Helvetica,sans-Serif" font-size="10.00">msl/bits.h</text>
</a>
</g>
</g>
<!-- Node33&#45;&gt;Node36 -->
<g id="edge68" class="edge">
<title>Node33&#45;&gt;Node36</title>
<path fill="none" stroke="midnightblue" d="M1798.33,-112.32C1780.61,-103.62 1753.1,-90.12 1732.71,-80.11"/>
<polygon fill="midnightblue" stroke="midnightblue" points="1734.15,-76.92 1723.63,-75.65 1731.06,-83.2 1734.15,-76.92"/>
</g>
<!-- Node36&#45;&gt;Node7 -->
<g id="edge70" class="edge">
<title>Node36&#45;&gt;Node7</title>
<path fill="none" stroke="midnightblue" d="M1737.06,-56.44C1773.46,-46.41 1833.49,-29.88 1870.21,-19.76"/>
<polygon fill="midnightblue" stroke="midnightblue" points="1871.2,-23.12 1879.91,-17.09 1869.34,-16.37 1871.2,-23.12"/>
</g>
<!-- Node36&#45;&gt;Node16 -->
<g id="edge69" class="edge">
<title>Node36&#45;&gt;Node16</title>
<path fill="none" stroke="midnightblue" d="M1696.2,-56.32C1687.18,-48.34 1673.59,-36.31 1662.68,-26.65"/>
<polygon fill="midnightblue" stroke="midnightblue" points="1664.79,-23.84 1654.98,-19.83 1660.15,-29.08 1664.79,-23.84"/>
</g>
<!-- Node39&#45;&gt;Node4 -->
<g id="edge76" class="edge">
<title>Node39&#45;&gt;Node4</title>
<path fill="none" stroke="midnightblue" d="M986.48,-231.95C956.42,-229.32 902.07,-220.12 871,-188 859.13,-175.73 854.61,-156.47 852.93,-142.1"/>
<polygon fill="midnightblue" stroke="midnightblue" points="856.39,-141.53 852.09,-131.84 849.41,-142.09 856.39,-141.53"/>
</g>
<!-- Node39&#45;&gt;Node9 -->
<g id="edge75" class="edge">
<title>Node39&#45;&gt;Node9</title>
<path fill="none" stroke="midnightblue" d="M1015.89,-224.45C1029.21,-210.54 1057.59,-183.05 1087,-168 1090.17,-166.38 1178.43,-143.51 1226.88,-131.01"/>
<polygon fill="midnightblue" stroke="midnightblue" points="1228.04,-134.33 1236.85,-128.44 1226.29,-127.55 1228.04,-134.33"/>
</g>
<!-- Node39&#45;&gt;Node13 -->
<g id="edge77" class="edge">
<title>Node39&#45;&gt;Node13</title>
<path fill="none" stroke="midnightblue" d="M986.18,-231.91C926.24,-228.65 753.99,-217.41 602.2,-187.92"/>
<polygon fill="midnightblue" stroke="midnightblue" points="602.73,-184.46 592.24,-185.95 601.37,-191.33 602.73,-184.46"/>
</g>
<!-- Node39&#45;&gt;Node18 -->
<g id="edge78" class="edge">
<title>Node39&#45;&gt;Node18</title>
<path fill="none" stroke="midnightblue" d="M1008,-224.08C1008,-217.01 1008,-206.86 1008,-197.99"/>
<polygon fill="midnightblue" stroke="midnightblue" points="1011.5,-197.75 1008,-187.75 1004.5,-197.75 1011.5,-197.75"/>
</g>
<!-- Node39&#45;&gt;Node21 -->
<g id="edge79" class="edge">
<title>Node39&#45;&gt;Node21</title>
<path fill="none" stroke="midnightblue" d="M986.12,-230.45C935.53,-224.43 806.31,-208.45 688.16,-188.11"/>
<polygon fill="midnightblue" stroke="midnightblue" points="688.68,-184.64 678.23,-186.38 687.48,-191.54 688.68,-184.64"/>
</g>
<!-- Node39&#45;&gt;Node32 -->
<g id="edge80" class="edge">
<title>Node39&#45;&gt;Node32</title>
<path fill="none" stroke="midnightblue" d="M1029.82,-231.63C1098.06,-227.21 1313.61,-212.29 1503.22,-188"/>
<polygon fill="midnightblue" stroke="midnightblue" points="1503.9,-191.44 1513.37,-186.69 1503,-184.5 1503.9,-191.44"/>
</g>
<!-- Node40&#45;&gt;Node29 -->
<g id="edge83" class="edge">
<title>Node40&#45;&gt;Node29</title>
<path fill="none" stroke="midnightblue" d="M1889.83,-229.35C1936.39,-222.17 2042.92,-205.52 2143.24,-188.1"/>
<polygon fill="midnightblue" stroke="midnightblue" points="2143.99,-191.52 2153.24,-186.35 2142.79,-184.62 2143.99,-191.52"/>
</g>
</g>
</svg>
