<?xml version="1.0" encoding="UTF-8" standalone="no"?>
<!DOCTYPE svg PUBLIC "-//W3C//DTD SVG 1.1//EN"
 "http://www.w3.org/Graphics/SVG/1.1/DTD/svg11.dtd">
<!-- Generated by graphviz version 2.43.0 (0)
 -->
<!-- Title: test/cpp/src/165&#45;basic&#45;btb&#45;no&#45;evict&#45;on&#45;unknown&#45;target.cc Pages: 1 -->
<svg width="2449pt" height="397pt"
 viewBox="0.00 0.00 2448.69 397.00" xmlns="http://www.w3.org/2000/svg" xmlns:xlink="http://www.w3.org/1999/xlink">
<g id="graph0" class="graph" transform="scale(1 1) rotate(0) translate(4 393)">
<title>test/cpp/src/165&#45;basic&#45;btb&#45;no&#45;evict&#45;on&#45;unknown&#45;target.cc</title>
<!-- Node1 -->
<g id="node1" class="node">
<title>Node1</title>
<g id="a_node1"><a xlink:title=" ">
<polygon fill="#bfbfbf" stroke="black" points="212.5,-347.5 212.5,-388.5 355.5,-388.5 355.5,-347.5 212.5,-347.5"/>
<text text-anchor="start" x="220.5" y="-376.5" font-family="Helvetica,sans-Serif" font-size="10.00">test/cpp/src/165&#45;basic</text>
<text text-anchor="start" x="220.5" y="-365.5" font-family="Helvetica,sans-Serif" font-size="10.00">&#45;btb&#45;no&#45;evict&#45;on&#45;unknown</text>
<text text-anchor="middle" x="284" y="-354.5" font-family="Helvetica,sans-Serif" font-size="10.00">&#45;target.cc</text>
</a>
</g>
</g>
<!-- Node2 -->
<g id="node2" class="node">
<title>Node2</title>
<g id="a_node2"><a xlink:title=" ">
<polygon fill="none" stroke="#bfbfbf" points="0,-286 0,-305 64,-305 64,-286 0,-286"/>
<text text-anchor="middle" x="32" y="-293" font-family="Helvetica,sans-Serif" font-size="10.00">catch.hpp</text>
</a>
</g>
</g>
<!-- Node1&#45;&gt;Node2 -->
<g id="edge1" class="edge">
<title>Node1&#45;&gt;Node2</title>
<path fill="none" stroke="midnightblue" d="M212.3,-349.5C171.28,-339.1 118.99,-325.21 73,-311 70.39,-310.19 67.69,-309.32 64.99,-308.42"/>
<polygon fill="midnightblue" stroke="midnightblue" points="65.9,-305.04 55.31,-305.11 63.63,-311.66 65.9,-305.04"/>
</g>
<!-- Node3 -->
<g id="node3" class="node">
<title>Node3</title>
<g id="a_node3"><a xlink:title=" ">
<polygon fill="none" stroke="#bfbfbf" points="82.5,-280.5 82.5,-310.5 209.5,-310.5 209.5,-280.5 82.5,-280.5"/>
<text text-anchor="start" x="90.5" y="-298.5" font-family="Helvetica,sans-Serif" font-size="10.00">catch2/matchers/catch</text>
<text text-anchor="middle" x="146" y="-287.5" font-family="Helvetica,sans-Serif" font-size="10.00">_matchers.hpp</text>
</a>
</g>
</g>
<!-- Node1&#45;&gt;Node3 -->
<g id="edge2" class="edge">
<title>Node1&#45;&gt;Node3</title>
<path fill="none" stroke="midnightblue" d="M245.56,-347.36C225.96,-337.35 202.23,-325.23 182.86,-315.33"/>
<polygon fill="midnightblue" stroke="midnightblue" points="184.23,-312.1 173.74,-310.67 181.05,-318.34 184.23,-312.1"/>
</g>
<!-- Node4 -->
<g id="node4" class="node">
<title>Node4</title>
<g id="a_node4"><a xlink:title=" ">
<polygon fill="none" stroke="#bfbfbf" points="430,-56.5 430,-75.5 494,-75.5 494,-56.5 430,-56.5"/>
<text text-anchor="middle" x="462" y="-63.5" font-family="Helvetica,sans-Serif" font-size="10.00">algorithm</text>
</a>
</g>
</g>
<!-- Node1&#45;&gt;Node4 -->
<g id="edge3" class="edge">
<title>Node1&#45;&gt;Node4</title>
<path fill="none" stroke="midnightblue" d="M272.39,-347.17C258.77,-321.98 238,-276.74 238,-235 238,-235 238,-235 238,-177 238,-136.9 355.1,-97.28 419.97,-78.41"/>
<polygon fill="midnightblue" stroke="midnightblue" points="421.26,-81.68 429.91,-75.57 419.33,-74.96 421.26,-81.68"/>
</g>
<!-- Node5 -->
<g id="node5" class="node">
<title>Node5</title>
<g id="a_node5"><a xlink:href="mocks_8hpp.html" target="_top" xlink:title=" ">
<polygon fill="none" stroke="black" points="413,-286 413,-305 483,-305 483,-286 413,-286"/>
<text text-anchor="middle" x="448" y="-293" font-family="Helvetica,sans-Serif" font-size="10.00">mocks.hpp</text>
</a>
</g>
</g>
<!-- Node1&#45;&gt;Node5 -->
<g id="edge4" class="edge">
<title>Node1&#45;&gt;Node5</title>
<path fill="none" stroke="midnightblue" d="M329.68,-347.36C358.13,-335.13 393.89,-319.76 418.61,-309.14"/>
<polygon fill="midnightblue" stroke="midnightblue" points="420.02,-312.34 427.82,-305.17 417.25,-305.91 420.02,-312.34"/>
</g>
<!-- Node27 -->
<g id="node27" class="node">
<title>Node27</title>
<g id="a_node27"><a xlink:href="ooo__cpu_8h.html" target="_top" xlink:title=" ">
<polygon fill="none" stroke="black" points="1044,-224.5 1044,-243.5 1110,-243.5 1110,-224.5 1044,-224.5"/>
<text text-anchor="middle" x="1077" y="-231.5" font-family="Helvetica,sans-Serif" font-size="10.00">ooo_cpu.h</text>
</a>
</g>
</g>
<!-- Node1&#45;&gt;Node27 -->
<g id="edge35" class="edge">
<title>Node1&#45;&gt;Node27</title>
<path fill="none" stroke="midnightblue" d="M303.57,-347.31C325.76,-326.41 364.07,-294.44 404,-280 520.35,-237.92 903.16,-234.65 1033.27,-234.79"/>
<polygon fill="midnightblue" stroke="midnightblue" points="1033.62,-238.29 1043.63,-234.81 1033.64,-231.29 1033.62,-238.29"/>
</g>
<!-- Node39 -->
<g id="node39" class="node">
<title>Node39</title>
<g id="a_node39"><a xlink:href="defaults_8hpp.html" target="_top" xlink:title=" ">
<polygon fill="none" stroke="black" points="1646.5,-286 1646.5,-305 1723.5,-305 1723.5,-286 1646.5,-286"/>
<text text-anchor="middle" x="1685" y="-293" font-family="Helvetica,sans-Serif" font-size="10.00">defaults.hpp</text>
</a>
</g>
</g>
<!-- Node1&#45;&gt;Node39 -->
<g id="edge73" class="edge">
<title>Node1&#45;&gt;Node39</title>
<path fill="none" stroke="midnightblue" d="M355.89,-363.38C604.9,-350.85 1426.78,-309.49 1636.13,-298.96"/>
<polygon fill="midnightblue" stroke="midnightblue" points="1636.4,-302.45 1646.21,-298.45 1636.04,-295.46 1636.4,-302.45"/>
</g>
<!-- Node6 -->
<g id="node6" class="node">
<title>Node6</title>
<g id="a_node6"><a xlink:title=" ">
<polygon fill="none" stroke="#bfbfbf" points="2296.5,-112.5 2296.5,-131.5 2343.5,-131.5 2343.5,-112.5 2296.5,-112.5"/>
<text text-anchor="middle" x="2320" y="-119.5" font-family="Helvetica,sans-Serif" font-size="10.00">deque</text>
</a>
</g>
</g>
<!-- Node5&#45;&gt;Node6 -->
<g id="edge5" class="edge">
<title>Node5&#45;&gt;Node6</title>
<path fill="none" stroke="midnightblue" d="M483.28,-294.02C744.25,-290.27 2366.52,-263.94 2434,-188 2460.77,-157.87 2396.1,-138.34 2353.58,-129.15"/>
<polygon fill="midnightblue" stroke="midnightblue" points="2354.08,-125.68 2343.58,-127.09 2352.67,-132.54 2354.08,-125.68"/>
</g>
<!-- Node7 -->
<g id="node7" class="node">
<title>Node7</title>
<g id="a_node7"><a xlink:title=" ">
<polygon fill="none" stroke="#bfbfbf" points="626.5,-112.5 626.5,-131.5 691.5,-131.5 691.5,-112.5 626.5,-112.5"/>
<text text-anchor="middle" x="659" y="-119.5" font-family="Helvetica,sans-Serif" font-size="10.00">exception</text>
</a>
</g>
</g>
<!-- Node5&#45;&gt;Node7 -->
<g id="edge6" class="edge">
<title>Node5&#45;&gt;Node7</title>
<path fill="none" stroke="midnightblue" d="M446.43,-285.75C442.88,-263.03 436.84,-201.57 468,-168 487.8,-146.67 566.24,-133.77 616.23,-127.54"/>
<polygon fill="midnightblue" stroke="midnightblue" points="616.93,-130.99 626.44,-126.32 616.09,-124.04 616.93,-130.99"/>
</g>
<!-- Node8 -->
<g id="node8" class="node">
<title>Node8</title>
<g id="a_node8"><a xlink:title=" ">
<polygon fill="none" stroke="#bfbfbf" points="504.5,-112.5 504.5,-131.5 569.5,-131.5 569.5,-112.5 504.5,-112.5"/>
<text text-anchor="middle" x="537" y="-119.5" font-family="Helvetica,sans-Serif" font-size="10.00">functional</text>
</a>
</g>
</g>
<!-- Node5&#45;&gt;Node8 -->
<g id="edge7" class="edge">
<title>Node5&#45;&gt;Node8</title>
<path fill="none" stroke="midnightblue" d="M443.6,-285.95C433.1,-264.22 409.2,-205.9 434,-168 447.44,-147.47 472.52,-136.25 494.57,-130.15"/>
<polygon fill="midnightblue" stroke="midnightblue" points="495.58,-133.5 504.44,-127.69 493.89,-126.71 495.58,-133.5"/>
</g>
<!-- Node9 -->
<g id="node9" class="node">
<title>Node9</title>
<g id="a_node9"><a xlink:title=" ">
<polygon fill="none" stroke="#bfbfbf" points="339,-0.5 339,-19.5 383,-19.5 383,-0.5 339,-0.5"/>
<text text-anchor="middle" x="361" y="-7.5" font-family="Helvetica,sans-Serif" font-size="10.00">limits</text>
</a>
</g>
</g>
<!-- Node5&#45;&gt;Node9 -->
<g id="edge8" class="edge">
<title>Node5&#45;&gt;Node9</title>
<path fill="none" stroke="midnightblue" d="M421.35,-285.9C370,-267.51 260.43,-218.81 238,-132 232.94,-112.41 238.69,-62.9 244,-56 264.13,-29.8 301.55,-18.85 328.66,-14.27"/>
<polygon fill="midnightblue" stroke="midnightblue" points="329.46,-17.69 338.84,-12.77 328.44,-10.77 329.46,-17.69"/>
</g>
<!-- Node10 -->
<g id="node10" class="node">
<title>Node10</title>
<g id="a_node10"><a xlink:href="cache_8h.html" target="_top" xlink:title=" ">
<polygon fill="none" stroke="black" points="1658,-224.5 1658,-243.5 1712,-243.5 1712,-224.5 1658,-224.5"/>
<text text-anchor="middle" x="1685" y="-231.5" font-family="Helvetica,sans-Serif" font-size="10.00">cache.h</text>
</a>
</g>
</g>
<!-- Node5&#45;&gt;Node10 -->
<g id="edge9" class="edge">
<title>Node5&#45;&gt;Node10</title>
<path fill="none" stroke="midnightblue" d="M483.03,-292.82C661.03,-284.25 1464.04,-245.63 1647.57,-236.8"/>
<polygon fill="midnightblue" stroke="midnightblue" points="1647.97,-240.29 1657.79,-236.31 1647.63,-233.29 1647.97,-240.29"/>
</g>
<!-- Node23 -->
<g id="node23" class="node">
<title>Node23</title>
<g id="a_node23"><a xlink:href="operable_8h.html" target="_top" xlink:title=" ">
<polygon fill="none" stroke="black" points="1626,-168.5 1626,-187.5 1694,-187.5 1694,-168.5 1626,-168.5"/>
<text text-anchor="middle" x="1660" y="-175.5" font-family="Helvetica,sans-Serif" font-size="10.00">operable.h</text>
</a>
</g>
</g>
<!-- Node5&#45;&gt;Node23 -->
<g id="edge34" class="edge">
<title>Node5&#45;&gt;Node23</title>
<path fill="none" stroke="midnightblue" d="M483.12,-293.05C624.4,-286.87 1164.82,-259.7 1615.82,-188.06"/>
<polygon fill="midnightblue" stroke="midnightblue" points="1616.46,-191.5 1625.79,-186.46 1615.36,-184.59 1616.46,-191.5"/>
</g>
<!-- Node10&#45;&gt;Node6 -->
<g id="edge12" class="edge">
<title>Node10&#45;&gt;Node6</title>
<path fill="none" stroke="midnightblue" d="M1712.3,-231.87C1828.59,-226.94 2277.78,-206.77 2301,-188 2314.55,-177.05 2318.78,-156.99 2319.94,-142.04"/>
<polygon fill="midnightblue" stroke="midnightblue" points="2323.44,-141.97 2320.33,-131.84 2316.45,-141.7 2323.44,-141.97"/>
</g>
<!-- Node11 -->
<g id="node11" class="node">
<title>Node11</title>
<g id="a_node11"><a xlink:title=" ">
<polygon fill="none" stroke="#bfbfbf" points="1701,-112.5 1701,-131.5 1743,-131.5 1743,-112.5 1701,-112.5"/>
<text text-anchor="middle" x="1722" y="-119.5" font-family="Helvetica,sans-Serif" font-size="10.00">array</text>
</a>
</g>
</g>
<!-- Node10&#45;&gt;Node11 -->
<g id="edge10" class="edge">
<title>Node10&#45;&gt;Node11</title>
<path fill="none" stroke="midnightblue" d="M1688.7,-224.47C1692.52,-215.48 1698.55,-200.88 1703,-188 1708.34,-172.55 1713.48,-154.7 1717.07,-141.62"/>
<polygon fill="midnightblue" stroke="midnightblue" points="1720.46,-142.48 1719.69,-131.92 1713.7,-140.66 1720.46,-142.48"/>
</g>
<!-- Node12 -->
<g id="node12" class="node">
<title>Node12</title>
<g id="a_node12"><a xlink:title=" ">
<polygon fill="none" stroke="#bfbfbf" points="1105,-168.5 1105,-187.5 1149,-187.5 1149,-168.5 1105,-168.5"/>
<text text-anchor="middle" x="1127" y="-175.5" font-family="Helvetica,sans-Serif" font-size="10.00">bitset</text>
</a>
</g>
</g>
<!-- Node10&#45;&gt;Node12 -->
<g id="edge11" class="edge">
<title>Node10&#45;&gt;Node12</title>
<path fill="none" stroke="midnightblue" d="M1657.87,-232.57C1580.95,-230.94 1354.81,-223.43 1159.11,-187.85"/>
<polygon fill="midnightblue" stroke="midnightblue" points="1159.69,-184.4 1149.22,-186.02 1158.42,-191.28 1159.69,-184.4"/>
</g>
<!-- Node13 -->
<g id="node13" class="node">
<title>Node13</title>
<g id="a_node13"><a xlink:title=" ">
<polygon fill="none" stroke="#bfbfbf" points="1167,-168.5 1167,-187.5 1225,-187.5 1225,-168.5 1167,-168.5"/>
<text text-anchor="middle" x="1196" y="-175.5" font-family="Helvetica,sans-Serif" font-size="10.00">memory</text>
</a>
</g>
</g>
<!-- Node10&#45;&gt;Node13 -->
<g id="edge13" class="edge">
<title>Node10&#45;&gt;Node13</title>
<path fill="none" stroke="midnightblue" d="M1657.96,-231.5C1589.15,-227.42 1401.72,-214.73 1235.23,-187.81"/>
<polygon fill="midnightblue" stroke="midnightblue" points="1235.74,-184.35 1225.31,-186.18 1234.61,-191.25 1235.74,-184.35"/>
</g>
<!-- Node14 -->
<g id="node14" class="node">
<title>Node14</title>
<g id="a_node14"><a xlink:title=" ">
<polygon fill="none" stroke="#bfbfbf" points="1243.5,-168.5 1243.5,-187.5 1308.5,-187.5 1308.5,-168.5 1243.5,-168.5"/>
<text text-anchor="middle" x="1276" y="-175.5" font-family="Helvetica,sans-Serif" font-size="10.00">stdexcept</text>
</a>
</g>
</g>
<!-- Node10&#45;&gt;Node14 -->
<g id="edge14" class="edge">
<title>Node10&#45;&gt;Node14</title>
<path fill="none" stroke="midnightblue" d="M1657.72,-230.49C1598.12,-224.84 1451.68,-209.98 1318.48,-187.93"/>
<polygon fill="midnightblue" stroke="midnightblue" points="1318.94,-184.46 1308.5,-186.26 1317.79,-191.37 1318.94,-184.46"/>
</g>
<!-- Node15 -->
<g id="node15" class="node">
<title>Node15</title>
<g id="a_node15"><a xlink:title=" ">
<polygon fill="none" stroke="#bfbfbf" points="2348,-168.5 2348,-187.5 2392,-187.5 2392,-168.5 2348,-168.5"/>
<text text-anchor="middle" x="2370" y="-175.5" font-family="Helvetica,sans-Serif" font-size="10.00">string</text>
</a>
</g>
</g>
<!-- Node10&#45;&gt;Node15 -->
<g id="edge15" class="edge">
<title>Node10&#45;&gt;Node15</title>
<path fill="none" stroke="midnightblue" d="M1712.25,-231.75C1819.3,-226.74 2211.15,-207.46 2334,-188 2335.25,-187.8 2336.53,-187.58 2337.81,-187.34"/>
<polygon fill="midnightblue" stroke="midnightblue" points="2338.61,-190.75 2347.66,-185.23 2337.15,-183.9 2338.61,-190.75"/>
</g>
<!-- Node16 -->
<g id="node16" class="node">
<title>Node16</title>
<g id="a_node16"><a xlink:title=" ">
<polygon fill="none" stroke="#bfbfbf" points="1077.5,-56.5 1077.5,-75.5 1124.5,-75.5 1124.5,-56.5 1077.5,-56.5"/>
<text text-anchor="middle" x="1101" y="-63.5" font-family="Helvetica,sans-Serif" font-size="10.00">vector</text>
</a>
</g>
</g>
<!-- Node10&#45;&gt;Node16 -->
<g id="edge16" class="edge">
<title>Node10&#45;&gt;Node16</title>
<path fill="none" stroke="midnightblue" d="M1712.44,-233C1777.44,-232.35 1937.85,-226.78 1971,-188 1992.95,-162.33 1994.26,-136.49 1971,-112 1941.7,-81.14 1291.4,-69.76 1134.73,-67.46"/>
<polygon fill="midnightblue" stroke="midnightblue" points="1134.78,-63.96 1124.73,-67.32 1134.67,-70.96 1134.78,-63.96"/>
</g>
<!-- Node17 -->
<g id="node17" class="node">
<title>Node17</title>
<g id="a_node17"><a xlink:href="champsim_8h.html" target="_top" xlink:title=" ">
<polygon fill="none" stroke="black" points="895.5,-168.5 895.5,-187.5 972.5,-187.5 972.5,-168.5 895.5,-168.5"/>
<text text-anchor="middle" x="934" y="-175.5" font-family="Helvetica,sans-Serif" font-size="10.00">champsim.h</text>
</a>
</g>
</g>
<!-- Node10&#45;&gt;Node17 -->
<g id="edge17" class="edge">
<title>Node10&#45;&gt;Node17</title>
<path fill="none" stroke="midnightblue" d="M1657.83,-231.05C1546.87,-223.07 1127.21,-192.89 983.01,-182.52"/>
<polygon fill="midnightblue" stroke="midnightblue" points="982.93,-179.01 972.71,-181.78 982.43,-185.99 982.93,-179.01"/>
</g>
<!-- Node19 -->
<g id="node19" class="node">
<title>Node19</title>
<g id="a_node19"><a xlink:title=" ">
<polygon fill="none" stroke="#bfbfbf" points="1750.5,-168.5 1750.5,-187.5 1879.5,-187.5 1879.5,-168.5 1750.5,-168.5"/>
<text text-anchor="middle" x="1815" y="-175.5" font-family="Helvetica,sans-Serif" font-size="10.00">champsim_constants.h</text>
</a>
</g>
</g>
<!-- Node10&#45;&gt;Node19 -->
<g id="edge20" class="edge">
<title>Node10&#45;&gt;Node19</title>
<path fill="none" stroke="midnightblue" d="M1705.6,-224.44C1726.99,-215.56 1760.68,-201.56 1785.02,-191.45"/>
<polygon fill="midnightblue" stroke="midnightblue" points="1786.61,-194.58 1794.5,-187.52 1783.92,-188.12 1786.61,-194.58"/>
</g>
<!-- Node20 -->
<g id="node20" class="node">
<title>Node20</title>
<g id="a_node20"><a xlink:href="channel_8h.html" target="_top" xlink:title=" ">
<polygon fill="none" stroke="black" points="1898,-168.5 1898,-187.5 1962,-187.5 1962,-168.5 1898,-168.5"/>
<text text-anchor="middle" x="1930" y="-175.5" font-family="Helvetica,sans-Serif" font-size="10.00">channel.h</text>
</a>
</g>
</g>
<!-- Node10&#45;&gt;Node20 -->
<g id="edge21" class="edge">
<title>Node10&#45;&gt;Node20</title>
<path fill="none" stroke="midnightblue" d="M1712.16,-227.01C1754.7,-217.64 1837.39,-199.41 1887.76,-188.31"/>
<polygon fill="midnightblue" stroke="midnightblue" points="1888.67,-191.69 1897.69,-186.12 1887.17,-184.86 1888.67,-191.69"/>
</g>
<!-- Node22 -->
<g id="node22" class="node">
<title>Node22</title>
<g id="a_node22"><a xlink:href="module__impl_8h.html" target="_top" xlink:title=" ">
<polygon fill="none" stroke="black" points="1326.5,-168.5 1326.5,-187.5 1415.5,-187.5 1415.5,-168.5 1326.5,-168.5"/>
<text text-anchor="middle" x="1371" y="-175.5" font-family="Helvetica,sans-Serif" font-size="10.00">module_impl.h</text>
</a>
</g>
</g>
<!-- Node10&#45;&gt;Node22 -->
<g id="edge29" class="edge">
<title>Node10&#45;&gt;Node22</title>
<path fill="none" stroke="midnightblue" d="M1657.96,-228.35C1606.52,-219.5 1493.7,-200.1 1425.85,-188.43"/>
<polygon fill="midnightblue" stroke="midnightblue" points="1426.22,-184.94 1415.77,-186.7 1425.03,-191.84 1426.22,-184.94"/>
</g>
<!-- Node10&#45;&gt;Node23 -->
<g id="edge30" class="edge">
<title>Node10&#45;&gt;Node23</title>
<path fill="none" stroke="midnightblue" d="M1680.87,-224.08C1677.49,-216.77 1672.58,-206.18 1668.38,-197.1"/>
<polygon fill="midnightblue" stroke="midnightblue" points="1671.43,-195.36 1664.05,-187.75 1665.08,-198.3 1671.43,-195.36"/>
</g>
<!-- Node24 -->
<g id="node24" class="node">
<title>Node24</title>
<g id="a_node24"><a xlink:title=" ">
<polygon fill="none" stroke="#bfbfbf" points="1433.5,-168.5 1433.5,-187.5 1502.5,-187.5 1502.5,-168.5 1433.5,-168.5"/>
<text text-anchor="middle" x="1468" y="-175.5" font-family="Helvetica,sans-Serif" font-size="10.00">type_traits</text>
</a>
</g>
</g>
<!-- Node10&#45;&gt;Node24 -->
<g id="edge31" class="edge">
<title>Node10&#45;&gt;Node24</title>
<path fill="none" stroke="midnightblue" d="M1657.96,-226.27C1621.38,-217.17 1555.7,-200.82 1511.98,-189.94"/>
<polygon fill="midnightblue" stroke="midnightblue" points="1512.73,-186.53 1502.19,-187.51 1511.04,-193.32 1512.73,-186.53"/>
</g>
<!-- Node25 -->
<g id="node25" class="node">
<title>Node25</title>
<g id="a_node25"><a xlink:title=" ">
<polygon fill="none" stroke="#bfbfbf" points="2018,-168.5 2018,-187.5 2148,-187.5 2148,-168.5 2018,-168.5"/>
<text text-anchor="middle" x="2083" y="-175.5" font-family="Helvetica,sans-Serif" font-size="10.00">cache_module_decl.inc</text>
</a>
</g>
</g>
<!-- Node10&#45;&gt;Node25 -->
<g id="edge32" class="edge">
<title>Node10&#45;&gt;Node25</title>
<path fill="none" stroke="midnightblue" d="M1712.04,-229.33C1772.52,-221.13 1920.43,-201.06 2010.14,-188.89"/>
<polygon fill="midnightblue" stroke="midnightblue" points="2010.81,-192.33 2020.25,-187.51 2009.87,-185.39 2010.81,-192.33"/>
</g>
<!-- Node26 -->
<g id="node26" class="node">
<title>Node26</title>
<g id="a_node26"><a xlink:title=" ">
<polygon fill="none" stroke="#bfbfbf" points="2166.5,-168.5 2166.5,-187.5 2291.5,-187.5 2291.5,-168.5 2166.5,-168.5"/>
<text text-anchor="middle" x="2229" y="-175.5" font-family="Helvetica,sans-Serif" font-size="10.00">cache_module_def.inc</text>
</a>
</g>
</g>
<!-- Node10&#45;&gt;Node26 -->
<g id="edge33" class="edge">
<title>Node10&#45;&gt;Node26</title>
<path fill="none" stroke="midnightblue" d="M1712.17,-230.69C1783.2,-224.59 1980.53,-207.27 2156.24,-188.05"/>
<polygon fill="midnightblue" stroke="midnightblue" points="2156.63,-191.53 2166.18,-186.96 2155.86,-184.57 2156.63,-191.53"/>
</g>
<!-- Node17&#45;&gt;Node7 -->
<g id="edge19" class="edge">
<title>Node17&#45;&gt;Node7</title>
<path fill="none" stroke="midnightblue" d="M895.47,-169.43C844.47,-159.42 754.84,-141.82 701.79,-131.4"/>
<polygon fill="midnightblue" stroke="midnightblue" points="702.17,-127.91 691.69,-129.42 700.82,-134.78 702.17,-127.91"/>
</g>
<!-- Node18 -->
<g id="node18" class="node">
<title>Node18</title>
<g id="a_node18"><a xlink:title=" ">
<polygon fill="none" stroke="#bfbfbf" points="830,-0.5 830,-19.5 880,-19.5 880,-0.5 830,-0.5"/>
<text text-anchor="middle" x="855" y="-7.5" font-family="Helvetica,sans-Serif" font-size="10.00">cstdint</text>
</a>
</g>
</g>
<!-- Node17&#45;&gt;Node18 -->
<g id="edge18" class="edge">
<title>Node17&#45;&gt;Node18</title>
<path fill="none" stroke="midnightblue" d="M895.39,-169.51C848.95,-158.21 772.98,-131.86 739,-76 718.26,-41.91 778.41,-24.22 819.67,-16.33"/>
<polygon fill="midnightblue" stroke="midnightblue" points="820.47,-19.74 829.7,-14.53 819.24,-12.85 820.47,-19.74"/>
</g>
<!-- Node20&#45;&gt;Node6 -->
<g id="edge24" class="edge">
<title>Node20&#45;&gt;Node6</title>
<path fill="none" stroke="midnightblue" d="M1962.25,-172.54C2035.13,-162.44 2211.97,-137.96 2286.26,-127.67"/>
<polygon fill="midnightblue" stroke="midnightblue" points="2287.02,-131.1 2296.45,-126.26 2286.06,-124.17 2287.02,-131.1"/>
</g>
<!-- Node20&#45;&gt;Node8 -->
<g id="edge25" class="edge">
<title>Node20&#45;&gt;Node8</title>
<path fill="none" stroke="midnightblue" d="M1897.87,-169.35C1894.88,-168.82 1891.89,-168.36 1889,-168 1328.1,-99.11 1181.75,-171.24 618,-132 605.54,-131.13 592.04,-129.79 579.7,-128.41"/>
<polygon fill="midnightblue" stroke="midnightblue" points="579.99,-124.92 569.66,-127.25 579.19,-131.87 579.99,-124.92"/>
</g>
<!-- Node20&#45;&gt;Node9 -->
<g id="edge26" class="edge">
<title>Node20&#45;&gt;Node9</title>
<path fill="none" stroke="midnightblue" d="M1916.03,-168.42C1891.67,-153.93 1839.38,-124.93 1791,-112 1514.3,-38.03 579.21,-15.43 393.3,-11.62"/>
<polygon fill="midnightblue" stroke="midnightblue" points="393.16,-8.11 383.09,-11.41 393.02,-15.11 393.16,-8.11"/>
</g>
<!-- Node20&#45;&gt;Node11 -->
<g id="edge22" class="edge">
<title>Node20&#45;&gt;Node11</title>
<path fill="none" stroke="midnightblue" d="M1897.96,-168.68C1858.52,-158.44 1792,-141.17 1753.04,-131.06"/>
<polygon fill="midnightblue" stroke="midnightblue" points="1753.85,-127.65 1743.29,-128.53 1752.09,-134.43 1753.85,-127.65"/>
</g>
<!-- Node20&#45;&gt;Node16 -->
<g id="edge27" class="edge">
<title>Node20&#45;&gt;Node16</title>
<path fill="none" stroke="midnightblue" d="M1905.09,-168.45C1879.42,-159.57 1838.28,-145.17 1803,-132 1780.19,-123.49 1775.75,-117.35 1752,-112 1632.49,-85.1 1250.36,-71.54 1134.57,-67.97"/>
<polygon fill="midnightblue" stroke="midnightblue" points="1134.62,-64.47 1124.52,-67.67 1134.41,-71.47 1134.62,-64.47"/>
</g>
<!-- Node20&#45;&gt;Node18 -->
<g id="edge23" class="edge">
<title>Node20&#45;&gt;Node18</title>
<path fill="none" stroke="midnightblue" d="M1918.89,-168.44C1908.2,-159.9 1891.96,-146.05 1880,-132 1853.95,-101.4 1865.84,-76.04 1831,-56 1748.19,-8.35 1055.17,-9.72 890.16,-10.73"/>
<polygon fill="midnightblue" stroke="midnightblue" points="890.05,-7.23 880.07,-10.8 890.09,-14.23 890.05,-7.23"/>
</g>
<!-- Node21 -->
<g id="node21" class="node">
<title>Node21</title>
<g id="a_node21"><a xlink:title=" ">
<polygon fill="none" stroke="#bfbfbf" points="1888.5,-112.5 1888.5,-131.5 1961.5,-131.5 1961.5,-112.5 1888.5,-112.5"/>
<text text-anchor="middle" x="1925" y="-119.5" font-family="Helvetica,sans-Serif" font-size="10.00">string_view</text>
</a>
</g>
</g>
<!-- Node20&#45;&gt;Node21 -->
<g id="edge28" class="edge">
<title>Node20&#45;&gt;Node21</title>
<path fill="none" stroke="midnightblue" d="M1929.17,-168.08C1928.52,-161.01 1927.58,-150.86 1926.76,-141.99"/>
<polygon fill="midnightblue" stroke="midnightblue" points="1930.22,-141.39 1925.81,-131.75 1923.25,-142.03 1930.22,-141.39"/>
</g>
<!-- Node27&#45;&gt;Node6 -->
<g id="edge38" class="edge">
<title>Node27&#45;&gt;Node6</title>
<path fill="none" stroke="midnightblue" d="M1076.61,-224.09C1076.53,-209.66 1078.75,-181.43 1096,-168 1108.08,-158.59 2089.81,-129.67 2286.08,-123.98"/>
<polygon fill="midnightblue" stroke="midnightblue" points="2286.46,-127.47 2296.35,-123.68 2286.26,-120.47 2286.46,-127.47"/>
</g>
<!-- Node27&#45;&gt;Node9 -->
<g id="edge39" class="edge">
<title>Node27&#45;&gt;Node9</title>
<path fill="none" stroke="midnightblue" d="M1043.94,-233.24C902.93,-233.97 356.18,-233.81 296,-188 247.42,-151.02 224.57,-107.08 258,-56 273.54,-32.25 304.68,-20.96 328.67,-15.64"/>
<polygon fill="midnightblue" stroke="midnightblue" points="329.64,-19.01 338.78,-13.65 328.29,-12.15 329.64,-19.01"/>
</g>
<!-- Node27&#45;&gt;Node11 -->
<g id="edge36" class="edge">
<title>Node27&#45;&gt;Node11</title>
<path fill="none" stroke="midnightblue" d="M1070.86,-224.15C1062.08,-210.31 1048.5,-183.52 1063,-168 1106.26,-121.69 1566.19,-121.8 1690.94,-122.7"/>
<polygon fill="midnightblue" stroke="midnightblue" points="1690.94,-126.2 1700.97,-122.78 1691,-119.2 1690.94,-126.2"/>
</g>
<!-- Node27&#45;&gt;Node12 -->
<g id="edge37" class="edge">
<title>Node27&#45;&gt;Node12</title>
<path fill="none" stroke="midnightblue" d="M1085.26,-224.08C1092.46,-216.3 1103.11,-204.8 1111.85,-195.37"/>
<polygon fill="midnightblue" stroke="midnightblue" points="1114.67,-197.47 1118.9,-187.75 1109.53,-192.71 1114.67,-197.47"/>
</g>
<!-- Node27&#45;&gt;Node13 -->
<g id="edge40" class="edge">
<title>Node27&#45;&gt;Node13</title>
<path fill="none" stroke="midnightblue" d="M1095.86,-224.44C1115.27,-215.64 1145.73,-201.81 1167.96,-191.72"/>
<polygon fill="midnightblue" stroke="midnightblue" points="1169.57,-194.84 1177.23,-187.52 1166.68,-188.46 1169.57,-194.84"/>
</g>
<!-- Node27&#45;&gt;Node14 -->
<g id="edge43" class="edge">
<title>Node27&#45;&gt;Node14</title>
<path fill="none" stroke="midnightblue" d="M1108.53,-224.44C1142.59,-215.2 1197.01,-200.44 1234.52,-190.26"/>
<polygon fill="midnightblue" stroke="midnightblue" points="1235.88,-193.51 1244.62,-187.52 1234.05,-186.76 1235.88,-193.51"/>
</g>
<!-- Node27&#45;&gt;Node16 -->
<g id="edge44" class="edge">
<title>Node27&#45;&gt;Node16</title>
<path fill="none" stroke="midnightblue" d="M1070.37,-224.27C1064.23,-215.61 1055.54,-201.67 1052,-188 1049.77,-179.4 1050.01,-176.66 1052,-168 1059.21,-136.64 1077.5,-103.72 1089.58,-84.3"/>
<polygon fill="midnightblue" stroke="midnightblue" points="1092.65,-85.99 1095.09,-75.68 1086.75,-82.22 1092.65,-85.99"/>
</g>
<!-- Node27&#45;&gt;Node17 -->
<g id="edge45" class="edge">
<title>Node27&#45;&gt;Node17</title>
<path fill="none" stroke="midnightblue" d="M1054.34,-224.44C1030.6,-215.48 993.09,-201.31 966.26,-191.18"/>
<polygon fill="midnightblue" stroke="midnightblue" points="967.14,-187.77 956.55,-187.52 964.67,-194.32 967.14,-187.77"/>
</g>
<!-- Node27&#45;&gt;Node19 -->
<g id="edge46" class="edge">
<title>Node27&#45;&gt;Node19</title>
<path fill="none" stroke="midnightblue" d="M1110.26,-230.71C1203.69,-224.25 1476.47,-205.24 1703,-188 1715,-187.09 1727.73,-186.09 1740.13,-185.1"/>
<polygon fill="midnightblue" stroke="midnightblue" points="1740.76,-188.57 1750.45,-184.28 1740.2,-181.59 1740.76,-188.57"/>
</g>
<!-- Node27&#45;&gt;Node20 -->
<g id="edge47" class="edge">
<title>Node27&#45;&gt;Node20</title>
<path fill="none" stroke="midnightblue" d="M1110.05,-233.07C1219.59,-232.89 1580.71,-229.11 1887.87,-187.92"/>
<polygon fill="midnightblue" stroke="midnightblue" points="1888.42,-191.38 1897.86,-186.57 1887.48,-184.44 1888.42,-191.38"/>
</g>
<!-- Node27&#45;&gt;Node22 -->
<g id="edge57" class="edge">
<title>Node27&#45;&gt;Node22</title>
<path fill="none" stroke="midnightblue" d="M1110.15,-226.91C1160.27,-217.71 1255.86,-200.15 1316.36,-189.04"/>
<polygon fill="midnightblue" stroke="midnightblue" points="1317.29,-192.42 1326.49,-187.17 1316.03,-185.54 1317.29,-192.42"/>
</g>
<!-- Node27&#45;&gt;Node23 -->
<g id="edge58" class="edge">
<title>Node27&#45;&gt;Node23</title>
<path fill="none" stroke="midnightblue" d="M1110.03,-231.67C1193.28,-228 1418.52,-216.22 1615.83,-188"/>
<polygon fill="midnightblue" stroke="midnightblue" points="1616.4,-191.45 1625.8,-186.55 1615.4,-184.52 1616.4,-191.45"/>
</g>
<!-- Node27&#45;&gt;Node24 -->
<g id="edge70" class="edge">
<title>Node27&#45;&gt;Node24</title>
<path fill="none" stroke="midnightblue" d="M1110.24,-229.57C1170.61,-223.16 1302.5,-208.29 1423.16,-188.21"/>
<polygon fill="midnightblue" stroke="midnightblue" points="1424.03,-191.61 1433.31,-186.5 1422.87,-184.71 1424.03,-191.61"/>
</g>
<!-- Node28 -->
<g id="node28" class="node">
<title>Node28</title>
<g id="a_node28"><a xlink:title=" ">
<polygon fill="none" stroke="#bfbfbf" points="748,-56.5 748,-75.5 804,-75.5 804,-56.5 748,-56.5"/>
<text text-anchor="middle" x="776" y="-63.5" font-family="Helvetica,sans-Serif" font-size="10.00">optional</text>
</a>
</g>
</g>
<!-- Node27&#45;&gt;Node28 -->
<g id="edge41" class="edge">
<title>Node27&#45;&gt;Node28</title>
<path fill="none" stroke="midnightblue" d="M1043.94,-232.59C936.59,-230.91 602.93,-222.89 571,-188 542.86,-157.24 583.51,-134.35 618,-112 654.77,-88.17 704.3,-76.74 738.04,-71.4"/>
<polygon fill="midnightblue" stroke="midnightblue" points="738.59,-74.86 747.97,-69.94 737.57,-67.93 738.59,-74.86"/>
</g>
<!-- Node29 -->
<g id="node29" class="node">
<title>Node29</title>
<g id="a_node29"><a xlink:title=" ">
<polygon fill="none" stroke="#bfbfbf" points="476.5,-168.5 476.5,-187.5 523.5,-187.5 523.5,-168.5 476.5,-168.5"/>
<text text-anchor="middle" x="500" y="-175.5" font-family="Helvetica,sans-Serif" font-size="10.00">queue</text>
</a>
</g>
</g>
<!-- Node27&#45;&gt;Node29 -->
<g id="edge42" class="edge">
<title>Node27&#45;&gt;Node29</title>
<path fill="none" stroke="midnightblue" d="M1043.98,-231.96C959.38,-228.92 728.1,-218.27 538,-188 536.54,-187.77 535.04,-187.51 533.54,-187.23"/>
<polygon fill="midnightblue" stroke="midnightblue" points="534.11,-183.77 523.61,-185.17 532.69,-190.63 534.11,-183.77"/>
</g>
<!-- Node30 -->
<g id="node30" class="node">
<title>Node30</title>
<g id="a_node30"><a xlink:href="instruction_8h.html" target="_top" xlink:title=" ">
<polygon fill="none" stroke="black" points="304.5,-168.5 304.5,-187.5 381.5,-187.5 381.5,-168.5 304.5,-168.5"/>
<text text-anchor="middle" x="343" y="-175.5" font-family="Helvetica,sans-Serif" font-size="10.00">instruction.h</text>
</a>
</g>
</g>
<!-- Node27&#45;&gt;Node30 -->
<g id="edge48" class="edge">
<title>Node27&#45;&gt;Node30</title>
<path fill="none" stroke="midnightblue" d="M1043.55,-230.54C926.02,-221.89 531.54,-192.87 392.23,-182.62"/>
<polygon fill="midnightblue" stroke="midnightblue" points="392.1,-179.1 381.87,-181.86 391.59,-186.08 392.1,-179.1"/>
</g>
<!-- Node32 -->
<g id="node32" class="node">
<title>Node32</title>
<g id="a_node32"><a xlink:href="util_2lru__table_8h.html" target="_top" xlink:title=" ">
<polygon fill="none" stroke="black" points="1520.5,-168.5 1520.5,-187.5 1607.5,-187.5 1607.5,-168.5 1520.5,-168.5"/>
<text text-anchor="middle" x="1564" y="-175.5" font-family="Helvetica,sans-Serif" font-size="10.00">util/lru_table.h</text>
</a>
</g>
</g>
<!-- Node27&#45;&gt;Node32 -->
<g id="edge59" class="edge">
<title>Node27&#45;&gt;Node32</title>
<path fill="none" stroke="midnightblue" d="M1110.11,-230.35C1181.38,-224.49 1354.85,-209.31 1510.14,-188.18"/>
<polygon fill="midnightblue" stroke="midnightblue" points="1510.91,-191.61 1520.34,-186.78 1509.96,-184.67 1510.91,-191.61"/>
</g>
<!-- Node37 -->
<g id="node37" class="node">
<title>Node37</title>
<g id="a_node37"><a xlink:title=" ">
<polygon fill="none" stroke="#bfbfbf" points="580,-168.5 580,-187.5 722,-187.5 722,-168.5 580,-168.5"/>
<text text-anchor="middle" x="651" y="-175.5" font-family="Helvetica,sans-Serif" font-size="10.00">ooo_cpu_module_decl.inc</text>
</a>
</g>
</g>
<!-- Node27&#45;&gt;Node37 -->
<g id="edge71" class="edge">
<title>Node27&#45;&gt;Node37</title>
<path fill="none" stroke="midnightblue" d="M1043.93,-228.81C976.69,-220.28 822.45,-200.73 728.46,-188.82"/>
<polygon fill="midnightblue" stroke="midnightblue" points="728.79,-185.33 718.43,-187.55 727.91,-192.28 728.79,-185.33"/>
</g>
<!-- Node38 -->
<g id="node38" class="node">
<title>Node38</title>
<g id="a_node38"><a xlink:title=" ">
<polygon fill="none" stroke="#bfbfbf" points="740.5,-168.5 740.5,-187.5 877.5,-187.5 877.5,-168.5 740.5,-168.5"/>
<text text-anchor="middle" x="809" y="-175.5" font-family="Helvetica,sans-Serif" font-size="10.00">ooo_cpu_module_def.inc</text>
</a>
</g>
</g>
<!-- Node27&#45;&gt;Node38 -->
<g id="edge72" class="edge">
<title>Node27&#45;&gt;Node38</title>
<path fill="none" stroke="midnightblue" d="M1043.87,-226.32C998.22,-217.13 915.48,-200.46 861.4,-189.56"/>
<polygon fill="midnightblue" stroke="midnightblue" points="861.81,-186.07 851.31,-187.53 860.43,-192.93 861.81,-186.07"/>
</g>
<!-- Node30&#45;&gt;Node4 -->
<g id="edge49" class="edge">
<title>Node30&#45;&gt;Node4</title>
<path fill="none" stroke="midnightblue" d="M352.34,-168.37C372.41,-149.81 419.9,-105.91 445.3,-82.44"/>
<polygon fill="midnightblue" stroke="midnightblue" points="447.74,-84.95 452.71,-75.59 442.99,-79.81 447.74,-84.95"/>
</g>
<!-- Node30&#45;&gt;Node8 -->
<g id="edge52" class="edge">
<title>Node30&#45;&gt;Node8</title>
<path fill="none" stroke="midnightblue" d="M373.74,-168.44C406.94,-159.2 459.99,-144.44 496.56,-134.26"/>
<polygon fill="midnightblue" stroke="midnightblue" points="497.71,-137.57 506.4,-131.52 495.83,-130.83 497.71,-137.57"/>
</g>
<!-- Node30&#45;&gt;Node9 -->
<g id="edge53" class="edge">
<title>Node30&#45;&gt;Node9</title>
<path fill="none" stroke="midnightblue" d="M347.7,-168.42C356.71,-151.41 376.14,-111.94 383,-76 384.67,-67.27 385,-64.66 383,-56 380.77,-46.36 376.18,-36.41 371.76,-28.31"/>
<polygon fill="midnightblue" stroke="midnightblue" points="374.7,-26.4 366.64,-19.52 368.65,-29.92 374.7,-26.4"/>
</g>
<!-- Node30&#45;&gt;Node11 -->
<g id="edge50" class="edge">
<title>Node30&#45;&gt;Node11</title>
<path fill="none" stroke="midnightblue" d="M381.55,-173.86C406.25,-171.94 439,-169.56 468,-168 955.09,-141.73 1549.47,-126.99 1690.8,-123.71"/>
<polygon fill="midnightblue" stroke="midnightblue" points="1691,-127.2 1700.91,-123.47 1690.84,-120.2 1691,-127.2"/>
</g>
<!-- Node30&#45;&gt;Node16 -->
<g id="edge54" class="edge">
<title>Node30&#45;&gt;Node16</title>
<path fill="none" stroke="midnightblue" d="M364.4,-168.42C386.44,-159.53 421.76,-145.11 452,-132 471.71,-123.46 475.17,-117.25 496,-112 726.65,-53.85 793.24,-98.97 1030,-76 1042.24,-74.81 1055.64,-73.2 1067.46,-71.66"/>
<polygon fill="midnightblue" stroke="midnightblue" points="1067.92,-75.13 1077.37,-70.35 1067,-68.19 1067.92,-75.13"/>
</g>
<!-- Node30&#45;&gt;Node18 -->
<g id="edge51" class="edge">
<title>Node30&#45;&gt;Node18</title>
<path fill="none" stroke="midnightblue" d="M356.93,-168.39C384.03,-151.67 442.07,-116.1 452,-112 582,-58.32 747.76,-27.82 819.39,-16.33"/>
<polygon fill="midnightblue" stroke="midnightblue" points="820.33,-19.72 829.66,-14.71 819.24,-12.81 820.33,-19.72"/>
</g>
<!-- Node31 -->
<g id="node31" class="node">
<title>Node31</title>
<g id="a_node31"><a xlink:href="trace__instruction_8h.html" target="_top" xlink:title=" ">
<polygon fill="none" stroke="black" points="266.5,-56.5 266.5,-75.5 373.5,-75.5 373.5,-56.5 266.5,-56.5"/>
<text text-anchor="middle" x="320" y="-63.5" font-family="Helvetica,sans-Serif" font-size="10.00">trace_instruction.h</text>
</a>
</g>
</g>
<!-- Node30&#45;&gt;Node31 -->
<g id="edge55" class="edge">
<title>Node30&#45;&gt;Node31</title>
<path fill="none" stroke="midnightblue" d="M341.2,-168.37C337.48,-150.62 328.92,-109.67 323.89,-85.6"/>
<polygon fill="midnightblue" stroke="midnightblue" points="327.27,-84.66 321.8,-75.59 320.42,-86.1 327.27,-84.66"/>
</g>
<!-- Node31&#45;&gt;Node9 -->
<g id="edge56" class="edge">
<title>Node31&#45;&gt;Node9</title>
<path fill="none" stroke="midnightblue" d="M326.77,-56.08C332.56,-48.46 341.06,-37.26 348.14,-27.94"/>
<polygon fill="midnightblue" stroke="midnightblue" points="351.1,-29.83 354.36,-19.75 345.52,-25.6 351.1,-29.83"/>
</g>
<!-- Node33 -->
<g id="node33" class="node">
<title>Node33</title>
<g id="a_node33"><a xlink:href="msl_2lru__table_8h.html" target="_top" xlink:title=" ">
<polygon fill="none" stroke="black" points="883.5,-112.5 883.5,-131.5 972.5,-131.5 972.5,-112.5 883.5,-112.5"/>
<text text-anchor="middle" x="928" y="-119.5" font-family="Helvetica,sans-Serif" font-size="10.00">msl/lru_table.h</text>
</a>
</g>
</g>
<!-- Node32&#45;&gt;Node33 -->
<g id="edge60" class="edge">
<title>Node32&#45;&gt;Node33</title>
<path fill="none" stroke="midnightblue" d="M1520.35,-169.14C1517.53,-168.72 1514.73,-168.34 1512,-168 1318.35,-143.84 1086.85,-130.61 983.07,-125.51"/>
<polygon fill="midnightblue" stroke="midnightblue" points="983,-122 972.84,-125.01 982.66,-128.99 983,-122"/>
</g>
<!-- Node33&#45;&gt;Node4 -->
<g id="edge61" class="edge">
<title>Node33&#45;&gt;Node4</title>
<path fill="none" stroke="midnightblue" d="M883.32,-115.82C793.46,-105.41 591.98,-82.06 504.21,-71.89"/>
<polygon fill="midnightblue" stroke="midnightblue" points="504.42,-68.39 494.08,-70.72 503.61,-75.35 504.42,-68.39"/>
</g>
<!-- Node33&#45;&gt;Node16 -->
<g id="edge66" class="edge">
<title>Node33&#45;&gt;Node16</title>
<path fill="none" stroke="midnightblue" d="M955.41,-112.44C985.89,-102.93 1035.12,-87.56 1067.77,-77.37"/>
<polygon fill="midnightblue" stroke="midnightblue" points="1068.83,-80.71 1077.33,-74.39 1066.74,-74.03 1068.83,-80.71"/>
</g>
<!-- Node33&#45;&gt;Node18 -->
<g id="edge63" class="edge">
<title>Node33&#45;&gt;Node18</title>
<path fill="none" stroke="midnightblue" d="M965.89,-112.49C1003.01,-102.35 1051.17,-83.3 1030,-56 1013.06,-34.15 936.48,-21.06 890.42,-15.02"/>
<polygon fill="midnightblue" stroke="midnightblue" points="890.62,-11.51 880.26,-13.73 889.74,-18.46 890.62,-11.51"/>
</g>
<!-- Node33&#45;&gt;Node28 -->
<g id="edge64" class="edge">
<title>Node33&#45;&gt;Node28</title>
<path fill="none" stroke="midnightblue" d="M903.92,-112.44C878.46,-103.4 838.11,-89.06 809.54,-78.92"/>
<polygon fill="midnightblue" stroke="midnightblue" points="810.57,-75.57 799.97,-75.52 808.22,-82.16 810.57,-75.57"/>
</g>
<!-- Node34 -->
<g id="node34" class="node">
<title>Node34</title>
<g id="a_node34"><a xlink:title=" ">
<polygon fill="none" stroke="#bfbfbf" points="969,-56.5 969,-75.5 1021,-75.5 1021,-56.5 969,-56.5"/>
<text text-anchor="middle" x="995" y="-63.5" font-family="Helvetica,sans-Serif" font-size="10.00">cassert</text>
</a>
</g>
</g>
<!-- Node33&#45;&gt;Node34 -->
<g id="edge62" class="edge">
<title>Node33&#45;&gt;Node34</title>
<path fill="none" stroke="midnightblue" d="M938.76,-112.32C948.77,-104.26 963.89,-92.08 975.93,-82.37"/>
<polygon fill="midnightblue" stroke="midnightblue" points="978.45,-84.83 984.04,-75.83 974.06,-79.38 978.45,-84.83"/>
</g>
<!-- Node35 -->
<g id="node35" class="node">
<title>Node35</title>
<g id="a_node35"><a xlink:title=" ">
<polygon fill="none" stroke="#bfbfbf" points="905.5,-56.5 905.5,-75.5 950.5,-75.5 950.5,-56.5 905.5,-56.5"/>
<text text-anchor="middle" x="928" y="-63.5" font-family="Helvetica,sans-Serif" font-size="10.00">utility</text>
</a>
</g>
</g>
<!-- Node33&#45;&gt;Node35 -->
<g id="edge65" class="edge">
<title>Node33&#45;&gt;Node35</title>
<path fill="none" stroke="midnightblue" d="M928,-112.08C928,-105.01 928,-94.86 928,-85.99"/>
<polygon fill="midnightblue" stroke="midnightblue" points="931.5,-85.75 928,-75.75 924.5,-85.75 931.5,-85.75"/>
</g>
<!-- Node36 -->
<g id="node36" class="node">
<title>Node36</title>
<g id="a_node36"><a xlink:href="msl_2bits_8h.html" target="_top" xlink:title=" ">
<polygon fill="none" stroke="black" points="822.5,-56.5 822.5,-75.5 887.5,-75.5 887.5,-56.5 822.5,-56.5"/>
<text text-anchor="middle" x="855" y="-63.5" font-family="Helvetica,sans-Serif" font-size="10.00">msl/bits.h</text>
</a>
</g>
</g>
<!-- Node33&#45;&gt;Node36 -->
<g id="edge67" class="edge">
<title>Node33&#45;&gt;Node36</title>
<path fill="none" stroke="midnightblue" d="M916.27,-112.32C905.16,-104.11 888.26,-91.6 875.02,-81.81"/>
<polygon fill="midnightblue" stroke="midnightblue" points="877.06,-78.97 866.94,-75.83 872.9,-84.59 877.06,-78.97"/>
</g>
<!-- Node36&#45;&gt;Node9 -->
<g id="edge69" class="edge">
<title>Node36&#45;&gt;Node9</title>
<path fill="none" stroke="midnightblue" d="M822.05,-57.58C819,-57 815.95,-56.46 813,-56 656.68,-31.55 467.76,-17.78 393.35,-12.97"/>
<polygon fill="midnightblue" stroke="midnightblue" points="393.42,-9.47 383.22,-12.33 392.97,-16.46 393.42,-9.47"/>
</g>
<!-- Node36&#45;&gt;Node18 -->
<g id="edge68" class="edge">
<title>Node36&#45;&gt;Node18</title>
<path fill="none" stroke="midnightblue" d="M855,-56.08C855,-49.01 855,-38.86 855,-29.99"/>
<polygon fill="midnightblue" stroke="midnightblue" points="858.5,-29.75 855,-19.75 851.5,-29.75 858.5,-29.75"/>
</g>
<!-- Node39&#45;&gt;Node10 -->
<g id="edge74" class="edge">
<title>Node39&#45;&gt;Node10</title>
<path fill="none" stroke="midnightblue" d="M1685,-285.98C1685,-277.58 1685,-264.48 1685,-253.66"/>
<polygon fill="midnightblue" stroke="midnightblue" points="1688.5,-253.51 1685,-243.51 1681.5,-253.51 1688.5,-253.51"/>
</g>
<!-- Node39&#45;&gt;Node19 -->
<g id="edge75" class="edge">
<title>Node39&#45;&gt;Node19</title>
<path fill="none" stroke="midnightblue" d="M1694.77,-285.82C1716.6,-266.42 1769.61,-219.33 1797.37,-194.66"/>
<polygon fill="midnightblue" stroke="midnightblue" points="1799.96,-197.04 1805.12,-187.78 1795.32,-191.81 1799.96,-197.04"/>
</g>
<!-- Node39&#45;&gt;Node27 -->
<g id="edge76" class="edge">
<title>Node39&#45;&gt;Node27</title>
<path fill="none" stroke="midnightblue" d="M1646.04,-290.69C1537.77,-280.09 1233.77,-250.34 1120.37,-239.24"/>
<polygon fill="midnightblue" stroke="midnightblue" points="1120.61,-235.75 1110.32,-238.26 1119.93,-242.72 1120.61,-235.75"/>
</g>
<!-- Node40 -->
<g id="node40" class="node">
<title>Node40</title>
<g id="a_node40"><a xlink:href="ptw_8h.html" target="_top" xlink:title=" ">
<polygon fill="none" stroke="black" points="1908.5,-224.5 1908.5,-243.5 1951.5,-243.5 1951.5,-224.5 1908.5,-224.5"/>
<text text-anchor="middle" x="1930" y="-231.5" font-family="Helvetica,sans-Serif" font-size="10.00">ptw.h</text>
</a>
</g>
</g>
<!-- Node39&#45;&gt;Node40 -->
<g id="edge77" class="edge">
<title>Node39&#45;&gt;Node40</title>
<path fill="none" stroke="midnightblue" d="M1720.1,-285.98C1767.85,-274.38 1852.57,-253.8 1898.42,-242.67"/>
<polygon fill="midnightblue" stroke="midnightblue" points="1899.5,-246.01 1908.39,-240.25 1897.85,-239.21 1899.5,-246.01"/>
</g>
<!-- Node40&#45;&gt;Node6 -->
<g id="edge79" class="edge">
<title>Node40&#45;&gt;Node6</title>
<path fill="none" stroke="midnightblue" d="M1951.55,-232.68C2041.79,-231.13 2386.14,-222.93 2418,-188 2441.39,-162.35 2390.49,-142.1 2353.66,-131.39"/>
<polygon fill="midnightblue" stroke="midnightblue" points="2354.29,-127.94 2343.71,-128.63 2352.41,-134.68 2354.29,-127.94"/>
</g>
<!-- Node40&#45;&gt;Node11 -->
<g id="edge78" class="edge">
<title>Node40&#45;&gt;Node11</title>
<path fill="none" stroke="midnightblue" d="M1951.5,-233.35C2051.62,-234.63 2464.53,-235.88 2401,-168 2395.39,-162 1886.63,-132.44 1753.56,-124.8"/>
<polygon fill="midnightblue" stroke="midnightblue" points="1753.43,-121.29 1743.25,-124.21 1753.03,-128.28 1753.43,-121.29"/>
</g>
<!-- Node40&#45;&gt;Node15 -->
<g id="edge80" class="edge">
<title>Node40&#45;&gt;Node15</title>
<path fill="none" stroke="midnightblue" d="M1951.61,-231.62C2012.27,-227.52 2189.18,-214.05 2334,-188 2335.25,-187.78 2336.52,-187.53 2337.8,-187.27"/>
<polygon fill="midnightblue" stroke="midnightblue" points="2338.63,-190.67 2347.63,-185.09 2337.11,-183.84 2338.63,-190.67"/>
</g>
<!-- Node40&#45;&gt;Node20 -->
<g id="edge81" class="edge">
<title>Node40&#45;&gt;Node20</title>
<path fill="none" stroke="midnightblue" d="M1930,-224.08C1930,-217.01 1930,-206.86 1930,-197.99"/>
<polygon fill="midnightblue" stroke="midnightblue" points="1933.5,-197.75 1930,-187.75 1926.5,-197.75 1933.5,-197.75"/>
</g>
<!-- Node40&#45;&gt;Node23 -->
<g id="edge82" class="edge">
<title>Node40&#45;&gt;Node23</title>
<path fill="none" stroke="midnightblue" d="M1908.36,-228.67C1864.21,-219.84 1762.97,-199.59 1704.29,-187.86"/>
<polygon fill="midnightblue" stroke="midnightblue" points="1704.69,-184.37 1694.2,-185.84 1703.32,-191.23 1704.69,-184.37"/>
</g>
<!-- Node40&#45;&gt;Node32 -->
<g id="edge83" class="edge">
<title>Node40&#45;&gt;Node32</title>
<path fill="none" stroke="midnightblue" d="M1908.34,-230.08C1858.89,-223.37 1733.65,-206.15 1617.77,-188.09"/>
<polygon fill="midnightblue" stroke="midnightblue" points="1618.08,-184.59 1607.66,-186.5 1617,-191.51 1618.08,-184.59"/>
</g>
</g>
</svg>
