<?xml version="1.0" encoding="UTF-8" standalone="no"?>
<!DOCTYPE svg PUBLIC "-//W3C//DTD SVG 1.1//EN"
 "http://www.w3.org/Graphics/SVG/1.1/DTD/svg11.dtd">
<!-- Generated by graphviz version 2.43.0 (0)
 -->
<!-- Title: test/cpp/src/166&#45;issue296&#45;basic&#45;btb&#45;no&#45;mispredict&#45;on&#45;not&#45;taken.cc Pages: 1 -->
<svg width="2328pt" height="386pt"
 viewBox="0.00 0.00 2327.90 386.00" xmlns="http://www.w3.org/2000/svg" xmlns:xlink="http://www.w3.org/1999/xlink">
<g id="graph0" class="graph" transform="scale(1 1) rotate(0) translate(4 382)">
<title>test/cpp/src/166&#45;issue296&#45;basic&#45;btb&#45;no&#45;mispredict&#45;on&#45;not&#45;taken.cc</title>
<!-- Node1 -->
<g id="node1" class="node">
<title>Node1</title>
<g id="a_node1"><a xlink:title=" ">
<polygon fill="#bfbfbf" stroke="black" points="1212,-336.5 1212,-377.5 1353,-377.5 1353,-336.5 1212,-336.5"/>
<text text-anchor="start" x="1220" y="-365.5" font-family="Helvetica,sans-Serif" font-size="10.00">test/cpp/src/166&#45;issue296</text>
<text text-anchor="start" x="1220" y="-354.5" font-family="Helvetica,sans-Serif" font-size="10.00">&#45;basic&#45;btb&#45;no&#45;mispredict</text>
<text text-anchor="middle" x="1282.5" y="-343.5" font-family="Helvetica,sans-Serif" font-size="10.00">&#45;on&#45;not&#45;taken.cc</text>
</a>
</g>
</g>
<!-- Node2 -->
<g id="node2" class="node">
<title>Node2</title>
<g id="a_node2"><a xlink:title=" ">
<polygon fill="none" stroke="#bfbfbf" points="1157.5,-280.5 1157.5,-299.5 1221.5,-299.5 1221.5,-280.5 1157.5,-280.5"/>
<text text-anchor="middle" x="1189.5" y="-287.5" font-family="Helvetica,sans-Serif" font-size="10.00">catch.hpp</text>
</a>
</g>
</g>
<!-- Node1&#45;&gt;Node2 -->
<g id="edge1" class="edge">
<title>Node1&#45;&gt;Node2</title>
<path fill="none" stroke="midnightblue" d="M1254.6,-336.5C1240.34,-326.53 1223.29,-314.61 1210.21,-305.48"/>
<polygon fill="midnightblue" stroke="midnightblue" points="1212.08,-302.51 1201.88,-299.65 1208.07,-308.25 1212.08,-302.51"/>
</g>
<!-- Node3 -->
<g id="node3" class="node">
<title>Node3</title>
<g id="a_node3"><a xlink:href="mocks_8hpp.html" target="_top" xlink:title=" ">
<polygon fill="none" stroke="black" points="2170.5,-280.5 2170.5,-299.5 2240.5,-299.5 2240.5,-280.5 2170.5,-280.5"/>
<text text-anchor="middle" x="2205.5" y="-287.5" font-family="Helvetica,sans-Serif" font-size="10.00">mocks.hpp</text>
</a>
</g>
</g>
<!-- Node1&#45;&gt;Node3 -->
<g id="edge2" class="edge">
<title>Node1&#45;&gt;Node3</title>
<path fill="none" stroke="midnightblue" d="M1353.01,-351.03C1533.88,-338.3 2010.57,-304.73 2160.02,-294.2"/>
<polygon fill="midnightblue" stroke="midnightblue" points="2160.47,-297.68 2170.2,-293.49 2159.98,-290.7 2160.47,-297.68"/>
</g>
<!-- Node25 -->
<g id="node25" class="node">
<title>Node25</title>
<g id="a_node25"><a xlink:href="ooo__cpu_8h.html" target="_top" xlink:title=" ">
<polygon fill="none" stroke="black" points="882.5,-224.5 882.5,-243.5 948.5,-243.5 948.5,-224.5 882.5,-224.5"/>
<text text-anchor="middle" x="915.5" y="-231.5" font-family="Helvetica,sans-Serif" font-size="10.00">ooo_cpu.h</text>
</a>
</g>
</g>
<!-- Node1&#45;&gt;Node25 -->
<g id="edge33" class="edge">
<title>Node1&#45;&gt;Node25</title>
<path fill="none" stroke="midnightblue" d="M1274.59,-336.3C1266.36,-318.51 1251.68,-293.17 1230.5,-280 1185.98,-252.31 1034.29,-240.94 958.84,-236.92"/>
<polygon fill="midnightblue" stroke="midnightblue" points="958.89,-233.41 948.72,-236.4 958.53,-240.4 958.89,-233.41"/>
</g>
<!-- Node38 -->
<g id="node38" class="node">
<title>Node38</title>
<g id="a_node38"><a xlink:href="defaults_8hpp.html" target="_top" xlink:title=" ">
<polygon fill="none" stroke="black" points="1278,-280.5 1278,-299.5 1355,-299.5 1355,-280.5 1278,-280.5"/>
<text text-anchor="middle" x="1316.5" y="-287.5" font-family="Helvetica,sans-Serif" font-size="10.00">defaults.hpp</text>
</a>
</g>
</g>
<!-- Node1&#45;&gt;Node38 -->
<g id="edge71" class="edge">
<title>Node1&#45;&gt;Node38</title>
<path fill="none" stroke="midnightblue" d="M1292.7,-336.5C1297.31,-327.68 1302.72,-317.34 1307.22,-308.74"/>
<polygon fill="midnightblue" stroke="midnightblue" points="1310.44,-310.14 1311.97,-299.65 1304.24,-306.89 1310.44,-310.14"/>
</g>
<!-- Node4 -->
<g id="node4" class="node">
<title>Node4</title>
<g id="a_node4"><a xlink:title=" ">
<polygon fill="none" stroke="#bfbfbf" points="1094,-112.5 1094,-131.5 1141,-131.5 1141,-112.5 1094,-112.5"/>
<text text-anchor="middle" x="1117.5" y="-119.5" font-family="Helvetica,sans-Serif" font-size="10.00">deque</text>
</a>
</g>
</g>
<!-- Node3&#45;&gt;Node4 -->
<g id="edge3" class="edge">
<title>Node3&#45;&gt;Node4</title>
<path fill="none" stroke="midnightblue" d="M2210.52,-280.23C2222.48,-258.05 2249.52,-199.27 2219.5,-168 2181.61,-128.53 1332.81,-123.67 1151.41,-123.08"/>
<polygon fill="midnightblue" stroke="midnightblue" points="1151.16,-119.58 1141.15,-123.05 1151.14,-126.58 1151.16,-119.58"/>
</g>
<!-- Node5 -->
<g id="node5" class="node">
<title>Node5</title>
<g id="a_node5"><a xlink:title=" ">
<polygon fill="none" stroke="#bfbfbf" points="2226,-112.5 2226,-131.5 2291,-131.5 2291,-112.5 2226,-112.5"/>
<text text-anchor="middle" x="2258.5" y="-119.5" font-family="Helvetica,sans-Serif" font-size="10.00">exception</text>
</a>
</g>
</g>
<!-- Node3&#45;&gt;Node5 -->
<g id="edge4" class="edge">
<title>Node3&#45;&gt;Node5</title>
<path fill="none" stroke="midnightblue" d="M2221.5,-280.29C2233.87,-272.57 2250.09,-260.04 2257.5,-244 2272.94,-210.59 2267.72,-166.25 2262.88,-141.58"/>
<polygon fill="midnightblue" stroke="midnightblue" points="2266.29,-140.78 2260.76,-131.74 2259.44,-142.25 2266.29,-140.78"/>
</g>
<!-- Node6 -->
<g id="node6" class="node">
<title>Node6</title>
<g id="a_node6"><a xlink:title=" ">
<polygon fill="none" stroke="#bfbfbf" points="912,-112.5 912,-131.5 977,-131.5 977,-112.5 912,-112.5"/>
<text text-anchor="middle" x="944.5" y="-119.5" font-family="Helvetica,sans-Serif" font-size="10.00">functional</text>
</a>
</g>
</g>
<!-- Node3&#45;&gt;Node6 -->
<g id="edge5" class="edge">
<title>Node3&#45;&gt;Node6</title>
<path fill="none" stroke="midnightblue" d="M2207.36,-280.28C2211.62,-257.68 2219.32,-197.01 2186.5,-168 2140.65,-127.47 1146.63,-134.95 1085.5,-132 1052.59,-130.41 1015.39,-128.01 987.47,-126.09"/>
<polygon fill="midnightblue" stroke="midnightblue" points="987.47,-122.58 977.25,-125.38 986.98,-129.56 987.47,-122.58"/>
</g>
<!-- Node7 -->
<g id="node7" class="node">
<title>Node7</title>
<g id="a_node7"><a xlink:title=" ">
<polygon fill="none" stroke="#bfbfbf" points="409.5,-0.5 409.5,-19.5 453.5,-19.5 453.5,-0.5 409.5,-0.5"/>
<text text-anchor="middle" x="431.5" y="-7.5" font-family="Helvetica,sans-Serif" font-size="10.00">limits</text>
</a>
</g>
</g>
<!-- Node3&#45;&gt;Node7 -->
<g id="edge6" class="edge">
<title>Node3&#45;&gt;Node7</title>
<path fill="none" stroke="midnightblue" d="M2226.79,-280.39C2242.34,-273 2262.69,-260.87 2274.5,-244 2308.78,-195.01 2341.62,-155.41 2300.5,-112 2284.02,-94.6 709.66,-23.45 463.66,-12.44"/>
<polygon fill="midnightblue" stroke="midnightblue" points="463.73,-8.94 453.58,-11.98 463.42,-15.93 463.73,-8.94"/>
</g>
<!-- Node8 -->
<g id="node8" class="node">
<title>Node8</title>
<g id="a_node8"><a xlink:href="cache_8h.html" target="_top" xlink:title=" ">
<polygon fill="none" stroke="black" points="1488.5,-224.5 1488.5,-243.5 1542.5,-243.5 1542.5,-224.5 1488.5,-224.5"/>
<text text-anchor="middle" x="1515.5" y="-231.5" font-family="Helvetica,sans-Serif" font-size="10.00">cache.h</text>
</a>
</g>
</g>
<!-- Node3&#45;&gt;Node8 -->
<g id="edge7" class="edge">
<title>Node3&#45;&gt;Node8</title>
<path fill="none" stroke="midnightblue" d="M2170.33,-286.25C2052.77,-277.05 1674.03,-247.41 1553.03,-237.94"/>
<polygon fill="midnightblue" stroke="midnightblue" points="1553.04,-234.43 1542.8,-237.14 1552.49,-241.41 1553.04,-234.43"/>
</g>
<!-- Node21 -->
<g id="node21" class="node">
<title>Node21</title>
<g id="a_node21"><a xlink:href="operable_8h.html" target="_top" xlink:title=" ">
<polygon fill="none" stroke="black" points="1555.5,-168.5 1555.5,-187.5 1623.5,-187.5 1623.5,-168.5 1555.5,-168.5"/>
<text text-anchor="middle" x="1589.5" y="-175.5" font-family="Helvetica,sans-Serif" font-size="10.00">operable.h</text>
</a>
</g>
</g>
<!-- Node3&#45;&gt;Node21 -->
<g id="edge32" class="edge">
<title>Node3&#45;&gt;Node21</title>
<path fill="none" stroke="midnightblue" d="M2170.17,-282.69C2064.33,-263.79 1749.99,-207.66 1633.54,-186.86"/>
<polygon fill="midnightblue" stroke="midnightblue" points="1634.01,-183.39 1623.55,-185.08 1632.78,-190.28 1634.01,-183.39"/>
</g>
<!-- Node8&#45;&gt;Node4 -->
<g id="edge10" class="edge">
<title>Node8&#45;&gt;Node4</title>
<path fill="none" stroke="midnightblue" d="M1542.57,-230.7C1595.24,-225.28 1703.19,-208.91 1665.5,-168 1630.61,-130.12 1265.17,-124.13 1151.23,-123.18"/>
<polygon fill="midnightblue" stroke="midnightblue" points="1151.04,-119.68 1141.01,-123.1 1150.98,-126.68 1151.04,-119.68"/>
</g>
<!-- Node9 -->
<g id="node9" class="node">
<title>Node9</title>
<g id="a_node9"><a xlink:title=" ">
<polygon fill="none" stroke="#bfbfbf" points="684.5,-112.5 684.5,-131.5 726.5,-131.5 726.5,-112.5 684.5,-112.5"/>
<text text-anchor="middle" x="705.5" y="-119.5" font-family="Helvetica,sans-Serif" font-size="10.00">array</text>
</a>
</g>
</g>
<!-- Node8&#45;&gt;Node9 -->
<g id="edge8" class="edge">
<title>Node8&#45;&gt;Node9</title>
<path fill="none" stroke="midnightblue" d="M1542.46,-224.42C1575.31,-213.68 1627.16,-195.78 1632.5,-188 1637.53,-180.67 1638.65,-174.42 1632.5,-168 1600.97,-135.06 858.01,-134.91 812.5,-132 787.04,-130.37 758.21,-127.91 736.9,-125.97"/>
<polygon fill="midnightblue" stroke="midnightblue" points="737.08,-122.48 726.8,-125.04 736.43,-129.45 737.08,-122.48"/>
</g>
<!-- Node10 -->
<g id="node10" class="node">
<title>Node10</title>
<g id="a_node10"><a xlink:title=" ">
<polygon fill="none" stroke="#bfbfbf" points="1241.5,-168.5 1241.5,-187.5 1285.5,-187.5 1285.5,-168.5 1241.5,-168.5"/>
<text text-anchor="middle" x="1263.5" y="-175.5" font-family="Helvetica,sans-Serif" font-size="10.00">bitset</text>
</a>
</g>
</g>
<!-- Node8&#45;&gt;Node10 -->
<g id="edge9" class="edge">
<title>Node8&#45;&gt;Node10</title>
<path fill="none" stroke="midnightblue" d="M1488.26,-228.09C1448.35,-220.74 1371.44,-206.06 1295.98,-187.96"/>
<polygon fill="midnightblue" stroke="midnightblue" points="1296.37,-184.45 1285.83,-185.5 1294.72,-191.26 1296.37,-184.45"/>
</g>
<!-- Node11 -->
<g id="node11" class="node">
<title>Node11</title>
<g id="a_node11"><a xlink:title=" ">
<polygon fill="none" stroke="#bfbfbf" points="1031.5,-168.5 1031.5,-187.5 1089.5,-187.5 1089.5,-168.5 1031.5,-168.5"/>
<text text-anchor="middle" x="1060.5" y="-175.5" font-family="Helvetica,sans-Serif" font-size="10.00">memory</text>
</a>
</g>
</g>
<!-- Node8&#45;&gt;Node11 -->
<g id="edge11" class="edge">
<title>Node8&#45;&gt;Node11</title>
<path fill="none" stroke="midnightblue" d="M1488.4,-229.78C1411.29,-220.63 1190.42,-194.42 1099.91,-183.68"/>
<polygon fill="midnightblue" stroke="midnightblue" points="1100.13,-180.18 1089.79,-182.48 1099.31,-187.13 1100.13,-180.18"/>
</g>
<!-- Node12 -->
<g id="node12" class="node">
<title>Node12</title>
<g id="a_node12"><a xlink:title=" ">
<polygon fill="none" stroke="#bfbfbf" points="1304,-168.5 1304,-187.5 1369,-187.5 1369,-168.5 1304,-168.5"/>
<text text-anchor="middle" x="1336.5" y="-175.5" font-family="Helvetica,sans-Serif" font-size="10.00">stdexcept</text>
</a>
</g>
</g>
<!-- Node8&#45;&gt;Node12 -->
<g id="edge12" class="edge">
<title>Node8&#45;&gt;Node12</title>
<path fill="none" stroke="midnightblue" d="M1488.31,-224.8C1457.96,-215.64 1408.62,-200.76 1374.47,-190.45"/>
<polygon fill="midnightblue" stroke="midnightblue" points="1375.42,-187.08 1364.83,-187.55 1373.39,-193.79 1375.42,-187.08"/>
</g>
<!-- Node13 -->
<g id="node13" class="node">
<title>Node13</title>
<g id="a_node13"><a xlink:title=" ">
<polygon fill="none" stroke="#bfbfbf" points="1493.5,-168.5 1493.5,-187.5 1537.5,-187.5 1537.5,-168.5 1493.5,-168.5"/>
<text text-anchor="middle" x="1515.5" y="-175.5" font-family="Helvetica,sans-Serif" font-size="10.00">string</text>
</a>
</g>
</g>
<!-- Node8&#45;&gt;Node13 -->
<g id="edge13" class="edge">
<title>Node8&#45;&gt;Node13</title>
<path fill="none" stroke="midnightblue" d="M1515.5,-224.08C1515.5,-217.01 1515.5,-206.86 1515.5,-197.99"/>
<polygon fill="midnightblue" stroke="midnightblue" points="1519,-197.75 1515.5,-187.75 1512,-197.75 1519,-197.75"/>
</g>
<!-- Node14 -->
<g id="node14" class="node">
<title>Node14</title>
<g id="a_node14"><a xlink:title=" ">
<polygon fill="none" stroke="#bfbfbf" points="717,-56.5 717,-75.5 764,-75.5 764,-56.5 717,-56.5"/>
<text text-anchor="middle" x="740.5" y="-63.5" font-family="Helvetica,sans-Serif" font-size="10.00">vector</text>
</a>
</g>
</g>
<!-- Node8&#45;&gt;Node14 -->
<g id="edge14" class="edge">
<title>Node8&#45;&gt;Node14</title>
<path fill="none" stroke="midnightblue" d="M1542.73,-225.32C1544.34,-224.87 1545.94,-224.43 1547.5,-224 1610.15,-206.84 1725.91,-216.32 1682.5,-168 1620.51,-99.01 936.42,-73.18 774.64,-68.02"/>
<polygon fill="midnightblue" stroke="midnightblue" points="774.44,-64.51 764.33,-67.69 774.22,-71.51 774.44,-64.51"/>
</g>
<!-- Node15 -->
<g id="node15" class="node">
<title>Node15</title>
<g id="a_node15"><a xlink:href="champsim_8h.html" target="_top" xlink:title=" ">
<polygon fill="none" stroke="black" points="1146,-168.5 1146,-187.5 1223,-187.5 1223,-168.5 1146,-168.5"/>
<text text-anchor="middle" x="1184.5" y="-175.5" font-family="Helvetica,sans-Serif" font-size="10.00">champsim.h</text>
</a>
</g>
</g>
<!-- Node8&#45;&gt;Node15 -->
<g id="edge15" class="edge">
<title>Node8&#45;&gt;Node15</title>
<path fill="none" stroke="midnightblue" d="M1488.14,-228.91C1439.21,-221.53 1333.25,-205.31 1233.23,-188.09"/>
<polygon fill="midnightblue" stroke="midnightblue" points="1233.71,-184.62 1223.26,-186.36 1232.51,-191.51 1233.71,-184.62"/>
</g>
<!-- Node17 -->
<g id="node17" class="node">
<title>Node17</title>
<g id="a_node17"><a xlink:title=" ">
<polygon fill="none" stroke="#bfbfbf" points="1756,-168.5 1756,-187.5 1885,-187.5 1885,-168.5 1756,-168.5"/>
<text text-anchor="middle" x="1820.5" y="-175.5" font-family="Helvetica,sans-Serif" font-size="10.00">champsim_constants.h</text>
</a>
</g>
</g>
<!-- Node8&#45;&gt;Node17 -->
<g id="edge18" class="edge">
<title>Node8&#45;&gt;Node17</title>
<path fill="none" stroke="midnightblue" d="M1542.57,-228.21C1591.63,-219.52 1696.25,-201 1762.21,-189.32"/>
<polygon fill="midnightblue" stroke="midnightblue" points="1763.22,-192.7 1772.45,-187.51 1761.99,-185.8 1763.22,-192.7"/>
</g>
<!-- Node18 -->
<g id="node18" class="node">
<title>Node18</title>
<g id="a_node18"><a xlink:href="channel_8h.html" target="_top" xlink:title=" ">
<polygon fill="none" stroke="black" points="823.5,-168.5 823.5,-187.5 887.5,-187.5 887.5,-168.5 823.5,-168.5"/>
<text text-anchor="middle" x="855.5" y="-175.5" font-family="Helvetica,sans-Serif" font-size="10.00">channel.h</text>
</a>
</g>
</g>
<!-- Node8&#45;&gt;Node18 -->
<g id="edge19" class="edge">
<title>Node8&#45;&gt;Node18</title>
<path fill="none" stroke="midnightblue" d="M1488.29,-231.23C1405.31,-225.74 1148.15,-208.2 935.5,-188 923.34,-186.84 910.16,-185.43 898.07,-184.07"/>
<polygon fill="midnightblue" stroke="midnightblue" points="898.11,-180.55 887.78,-182.89 897.32,-187.5 898.11,-180.55"/>
</g>
<!-- Node20 -->
<g id="node20" class="node">
<title>Node20</title>
<g id="a_node20"><a xlink:href="module__impl_8h.html" target="_top" xlink:title=" ">
<polygon fill="none" stroke="black" points="1387,-168.5 1387,-187.5 1476,-187.5 1476,-168.5 1387,-168.5"/>
<text text-anchor="middle" x="1431.5" y="-175.5" font-family="Helvetica,sans-Serif" font-size="10.00">module_impl.h</text>
</a>
</g>
</g>
<!-- Node8&#45;&gt;Node20 -->
<g id="edge27" class="edge">
<title>Node8&#45;&gt;Node20</title>
<path fill="none" stroke="midnightblue" d="M1502,-224.32C1488.9,-215.9 1468.79,-202.97 1453.39,-193.07"/>
<polygon fill="midnightblue" stroke="midnightblue" points="1455.27,-190.12 1444.96,-187.65 1451.48,-196.01 1455.27,-190.12"/>
</g>
<!-- Node8&#45;&gt;Node21 -->
<g id="edge28" class="edge">
<title>Node8&#45;&gt;Node21</title>
<path fill="none" stroke="midnightblue" d="M1527.39,-224.32C1538.65,-216.11 1555.79,-203.6 1569.21,-193.81"/>
<polygon fill="midnightblue" stroke="midnightblue" points="1571.38,-196.56 1577.39,-187.83 1567.25,-190.9 1571.38,-196.56"/>
</g>
<!-- Node22 -->
<g id="node22" class="node">
<title>Node22</title>
<g id="a_node22"><a xlink:title=" ">
<polygon fill="none" stroke="#bfbfbf" points="944,-168.5 944,-187.5 1013,-187.5 1013,-168.5 944,-168.5"/>
<text text-anchor="middle" x="978.5" y="-175.5" font-family="Helvetica,sans-Serif" font-size="10.00">type_traits</text>
</a>
</g>
</g>
<!-- Node8&#45;&gt;Node22 -->
<g id="edge29" class="edge">
<title>Node8&#45;&gt;Node22</title>
<path fill="none" stroke="midnightblue" d="M1488.39,-231.58C1415.11,-227.53 1206.85,-214.53 1023.14,-187.92"/>
<polygon fill="midnightblue" stroke="midnightblue" points="1023.43,-184.43 1013.02,-186.44 1022.41,-191.35 1023.43,-184.43"/>
</g>
<!-- Node23 -->
<g id="node23" class="node">
<title>Node23</title>
<g id="a_node23"><a xlink:title=" ">
<polygon fill="none" stroke="#bfbfbf" points="1903.5,-168.5 1903.5,-187.5 2033.5,-187.5 2033.5,-168.5 1903.5,-168.5"/>
<text text-anchor="middle" x="1968.5" y="-175.5" font-family="Helvetica,sans-Serif" font-size="10.00">cache_module_decl.inc</text>
</a>
</g>
</g>
<!-- Node8&#45;&gt;Node23 -->
<g id="edge30" class="edge">
<title>Node8&#45;&gt;Node23</title>
<path fill="none" stroke="midnightblue" d="M1542.62,-229.81C1603.31,-222.66 1754.95,-204.75 1892.81,-188.2"/>
<polygon fill="midnightblue" stroke="midnightblue" points="1893.62,-191.63 1903.13,-186.96 1892.79,-184.68 1893.62,-191.63"/>
</g>
<!-- Node24 -->
<g id="node24" class="node">
<title>Node24</title>
<g id="a_node24"><a xlink:title=" ">
<polygon fill="none" stroke="#bfbfbf" points="2052,-168.5 2052,-187.5 2177,-187.5 2177,-168.5 2052,-168.5"/>
<text text-anchor="middle" x="2114.5" y="-175.5" font-family="Helvetica,sans-Serif" font-size="10.00">cache_module_def.inc</text>
</a>
</g>
</g>
<!-- Node8&#45;&gt;Node24 -->
<g id="edge31" class="edge">
<title>Node8&#45;&gt;Node24</title>
<path fill="none" stroke="midnightblue" d="M1542.69,-231.06C1619.32,-225.5 1843.79,-208.67 2041.69,-188.05"/>
<polygon fill="midnightblue" stroke="midnightblue" points="2042.11,-191.52 2051.69,-187 2041.38,-184.56 2042.11,-191.52"/>
</g>
<!-- Node15&#45;&gt;Node5 -->
<g id="edge17" class="edge">
<title>Node15&#45;&gt;Node5</title>
<path fill="none" stroke="midnightblue" d="M1223.2,-169.23C1226.34,-168.76 1229.47,-168.34 1232.5,-168 1665.22,-119.75 1778.87,-181.09 2211.5,-132 2212.97,-131.83 2214.46,-131.65 2215.97,-131.44"/>
<polygon fill="midnightblue" stroke="midnightblue" points="2216.64,-134.88 2225.98,-129.89 2215.56,-127.96 2216.64,-134.88"/>
</g>
<!-- Node16 -->
<g id="node16" class="node">
<title>Node16</title>
<g id="a_node16"><a xlink:title=" ">
<polygon fill="none" stroke="#bfbfbf" points="663.5,-0.5 663.5,-19.5 713.5,-19.5 713.5,-0.5 663.5,-0.5"/>
<text text-anchor="middle" x="688.5" y="-7.5" font-family="Helvetica,sans-Serif" font-size="10.00">cstdint</text>
</a>
</g>
</g>
<!-- Node15&#45;&gt;Node16 -->
<g id="edge16" class="edge">
<title>Node15&#45;&gt;Node16</title>
<path fill="none" stroke="midnightblue" d="M1182.39,-168.42C1178.51,-154.47 1168.9,-126.91 1150.5,-112 1084.09,-58.2 820.13,-25.1 723.87,-14.62"/>
<polygon fill="midnightblue" stroke="midnightblue" points="724.08,-11.13 713.77,-13.54 723.34,-18.09 724.08,-11.13"/>
</g>
<!-- Node18&#45;&gt;Node4 -->
<g id="edge22" class="edge">
<title>Node18&#45;&gt;Node4</title>
<path fill="none" stroke="midnightblue" d="M887.63,-170.38C937.48,-160.1 1033.02,-140.41 1083.81,-129.94"/>
<polygon fill="midnightblue" stroke="midnightblue" points="1084.55,-133.36 1093.64,-127.92 1083.14,-126.51 1084.55,-133.36"/>
</g>
<!-- Node18&#45;&gt;Node6 -->
<g id="edge23" class="edge">
<title>Node18&#45;&gt;Node6</title>
<path fill="none" stroke="midnightblue" d="M869.8,-168.32C883.68,-159.9 904.99,-146.97 921.3,-137.07"/>
<polygon fill="midnightblue" stroke="midnightblue" points="923.5,-139.83 930.24,-131.65 919.87,-133.85 923.5,-139.83"/>
</g>
<!-- Node18&#45;&gt;Node7 -->
<g id="edge24" class="edge">
<title>Node18&#45;&gt;Node7</title>
<path fill="none" stroke="midnightblue" d="M845.77,-168.38C836.46,-159.79 822.4,-145.91 812.5,-132 790.49,-101.07 804.54,-77.87 773.5,-56 724.04,-21.15 539.59,-13.28 464.06,-11.51"/>
<polygon fill="midnightblue" stroke="midnightblue" points="463.81,-8 453.74,-11.29 463.66,-15 463.81,-8"/>
</g>
<!-- Node18&#45;&gt;Node9 -->
<g id="edge20" class="edge">
<title>Node18&#45;&gt;Node9</title>
<path fill="none" stroke="midnightblue" d="M831.73,-168.44C805.87,-159.13 764.43,-144.22 736.14,-134.03"/>
<polygon fill="midnightblue" stroke="midnightblue" points="737.33,-130.74 726.73,-130.64 734.95,-137.32 737.33,-130.74"/>
</g>
<!-- Node18&#45;&gt;Node14 -->
<g id="edge25" class="edge">
<title>Node18&#45;&gt;Node14</title>
<path fill="none" stroke="midnightblue" d="M834.6,-168.38C817.91,-160.71 794.71,-148.2 778.5,-132 765.09,-118.6 754.68,-99.52 748.17,-85.5"/>
<polygon fill="midnightblue" stroke="midnightblue" points="751.2,-83.68 743.97,-75.94 744.79,-86.5 751.2,-83.68"/>
</g>
<!-- Node18&#45;&gt;Node16 -->
<g id="edge21" class="edge">
<title>Node18&#45;&gt;Node16</title>
<path fill="none" stroke="midnightblue" d="M887.76,-170.39C922.64,-162.51 974.83,-148.34 986.5,-132 991.66,-124.77 991.68,-119.22 986.5,-112 925.44,-26.84 788.57,-12.59 723.78,-10.8"/>
<polygon fill="midnightblue" stroke="midnightblue" points="723.73,-7.3 713.66,-10.61 723.59,-14.3 723.73,-7.3"/>
</g>
<!-- Node19 -->
<g id="node19" class="node">
<title>Node19</title>
<g id="a_node19"><a xlink:title=" ">
<polygon fill="none" stroke="#bfbfbf" points="821,-112.5 821,-131.5 894,-131.5 894,-112.5 821,-112.5"/>
<text text-anchor="middle" x="857.5" y="-119.5" font-family="Helvetica,sans-Serif" font-size="10.00">string_view</text>
</a>
</g>
</g>
<!-- Node18&#45;&gt;Node19 -->
<g id="edge26" class="edge">
<title>Node18&#45;&gt;Node19</title>
<path fill="none" stroke="midnightblue" d="M855.83,-168.08C856.09,-161.01 856.47,-150.86 856.8,-141.99"/>
<polygon fill="midnightblue" stroke="midnightblue" points="860.3,-141.87 857.18,-131.75 853.31,-141.61 860.3,-141.87"/>
</g>
<!-- Node25&#45;&gt;Node4 -->
<g id="edge36" class="edge">
<title>Node25&#45;&gt;Node4</title>
<path fill="none" stroke="midnightblue" d="M915.59,-224.46C916.22,-210.56 919.54,-183.09 935.5,-168 956.66,-147.99 1037.18,-133.97 1083.73,-127.34"/>
<polygon fill="midnightblue" stroke="midnightblue" points="1084.24,-130.8 1093.66,-125.96 1083.28,-123.87 1084.24,-130.8"/>
</g>
<!-- Node25&#45;&gt;Node7 -->
<g id="edge37" class="edge">
<title>Node25&#45;&gt;Node7</title>
<path fill="none" stroke="midnightblue" d="M882.36,-232.73C745.91,-231.39 231.79,-223.96 169.5,-188 111.25,-154.37 51.21,-106.62 95.5,-56 134.75,-11.15 322.21,-9.1 398.8,-10.2"/>
<polygon fill="midnightblue" stroke="midnightblue" points="399.2,-13.71 409.26,-10.38 399.32,-6.71 399.2,-13.71"/>
</g>
<!-- Node25&#45;&gt;Node9 -->
<g id="edge34" class="edge">
<title>Node25&#45;&gt;Node9</title>
<path fill="none" stroke="midnightblue" d="M882.38,-233.07C762.35,-233 355.15,-229.67 316.5,-188 310.45,-181.48 310.59,-174.64 316.5,-168 316.5,-168 581.72,-137.32 674.17,-126.62"/>
<polygon fill="midnightblue" stroke="midnightblue" points="674.78,-130.08 684.31,-125.45 673.97,-123.12 674.78,-130.08"/>
</g>
<!-- Node25&#45;&gt;Node10 -->
<g id="edge35" class="edge">
<title>Node25&#45;&gt;Node10</title>
<path fill="none" stroke="midnightblue" d="M948.63,-229.86C1004.91,-224.18 1122.88,-210.84 1231.44,-187.97"/>
<polygon fill="midnightblue" stroke="midnightblue" points="1232.2,-191.38 1241.25,-185.87 1230.73,-184.54 1232.2,-191.38"/>
</g>
<!-- Node25&#45;&gt;Node11 -->
<g id="edge38" class="edge">
<title>Node25&#45;&gt;Node11</title>
<path fill="none" stroke="midnightblue" d="M938.48,-224.44C962.66,-215.44 1000.92,-201.19 1028.15,-191.05"/>
<polygon fill="midnightblue" stroke="midnightblue" points="1029.48,-194.29 1037.63,-187.52 1027.04,-187.73 1029.48,-194.29"/>
</g>
<!-- Node25&#45;&gt;Node12 -->
<g id="edge41" class="edge">
<title>Node25&#45;&gt;Node12</title>
<path fill="none" stroke="midnightblue" d="M948.6,-230.11C1013.03,-224.27 1159.96,-209.85 1293.96,-187.94"/>
<polygon fill="midnightblue" stroke="midnightblue" points="1294.7,-191.36 1304,-186.28 1293.56,-184.45 1294.7,-191.36"/>
</g>
<!-- Node25&#45;&gt;Node14 -->
<g id="edge42" class="edge">
<title>Node25&#45;&gt;Node14</title>
<path fill="none" stroke="midnightblue" d="M882.34,-231.93C821.98,-229.2 697.96,-219.78 671.5,-188 662.84,-177.6 657.16,-144.17 675.5,-112 683.32,-98.28 697.25,-87.8 710.21,-80.42"/>
<polygon fill="midnightblue" stroke="midnightblue" points="712.15,-83.35 719.37,-75.6 708.89,-77.16 712.15,-83.35"/>
</g>
<!-- Node25&#45;&gt;Node15 -->
<g id="edge43" class="edge">
<title>Node25&#45;&gt;Node15</title>
<path fill="none" stroke="midnightblue" d="M948.75,-226.32C995.63,-216.91 1081.47,-199.68 1135.62,-188.81"/>
<polygon fill="midnightblue" stroke="midnightblue" points="1136.56,-192.19 1145.67,-186.79 1135.18,-185.33 1136.56,-192.19"/>
</g>
<!-- Node25&#45;&gt;Node17 -->
<g id="edge44" class="edge">
<title>Node25&#45;&gt;Node17</title>
<path fill="none" stroke="midnightblue" d="M948.51,-231.03C1078.84,-223.25 1559.51,-194.57 1745.93,-183.45"/>
<polygon fill="midnightblue" stroke="midnightblue" points="1746.14,-186.94 1755.91,-182.85 1745.72,-179.96 1746.14,-186.94"/>
</g>
<!-- Node25&#45;&gt;Node18 -->
<g id="edge45" class="edge">
<title>Node25&#45;&gt;Node18</title>
<path fill="none" stroke="midnightblue" d="M905.86,-224.32C896.99,-216.34 883.63,-204.31 872.89,-194.65"/>
<polygon fill="midnightblue" stroke="midnightblue" points="875.09,-191.92 865.32,-187.83 870.41,-197.13 875.09,-191.92"/>
</g>
<!-- Node25&#45;&gt;Node20 -->
<g id="edge55" class="edge">
<title>Node25&#45;&gt;Node20</title>
<path fill="none" stroke="midnightblue" d="M948.72,-230.59C1023.34,-225 1210.12,-210.03 1376.3,-188.22"/>
<polygon fill="midnightblue" stroke="midnightblue" points="1377.26,-191.62 1386.71,-186.84 1376.34,-184.68 1377.26,-191.62"/>
</g>
<!-- Node25&#45;&gt;Node21 -->
<g id="edge56" class="edge">
<title>Node25&#45;&gt;Node21</title>
<path fill="none" stroke="midnightblue" d="M948.69,-231.23C1058.56,-225.27 1410.65,-205.43 1545.24,-187.95"/>
<polygon fill="midnightblue" stroke="midnightblue" points="1545.86,-191.4 1555.31,-186.59 1544.93,-184.46 1545.86,-191.4"/>
</g>
<!-- Node25&#45;&gt;Node22 -->
<g id="edge68" class="edge">
<title>Node25&#45;&gt;Node22</title>
<path fill="none" stroke="midnightblue" d="M925.62,-224.32C935.03,-216.26 949.24,-204.08 960.57,-194.37"/>
<polygon fill="midnightblue" stroke="midnightblue" points="962.88,-197 968.19,-187.83 958.32,-191.68 962.88,-197"/>
</g>
<!-- Node26 -->
<g id="node26" class="node">
<title>Node26</title>
<g id="a_node26"><a xlink:title=" ">
<polygon fill="none" stroke="#bfbfbf" points="267.5,-56.5 267.5,-75.5 323.5,-75.5 323.5,-56.5 267.5,-56.5"/>
<text text-anchor="middle" x="295.5" y="-63.5" font-family="Helvetica,sans-Serif" font-size="10.00">optional</text>
</a>
</g>
</g>
<!-- Node25&#45;&gt;Node26 -->
<g id="edge39" class="edge">
<title>Node25&#45;&gt;Node26</title>
<path fill="none" stroke="midnightblue" d="M882.42,-232.22C742.81,-228.74 207.76,-213.8 183.5,-188 146.78,-148.95 223.71,-102.29 267.67,-80.04"/>
<polygon fill="midnightblue" stroke="midnightblue" points="269.34,-83.12 276.75,-75.55 266.24,-76.84 269.34,-83.12"/>
</g>
<!-- Node27 -->
<g id="node27" class="node">
<title>Node27</title>
<g id="a_node27"><a xlink:title=" ">
<polygon fill="none" stroke="#bfbfbf" points="0,-168.5 0,-187.5 47,-187.5 47,-168.5 0,-168.5"/>
<text text-anchor="middle" x="23.5" y="-175.5" font-family="Helvetica,sans-Serif" font-size="10.00">queue</text>
</a>
</g>
</g>
<!-- Node25&#45;&gt;Node27 -->
<g id="edge40" class="edge">
<title>Node25&#45;&gt;Node27</title>
<path fill="none" stroke="midnightblue" d="M882.32,-233.39C767.77,-234.28 378.57,-233.52 61.5,-188 60.03,-187.79 58.54,-187.55 57.03,-187.29"/>
<polygon fill="midnightblue" stroke="midnightblue" points="57.59,-183.83 47.09,-185.28 56.2,-190.69 57.59,-183.83"/>
</g>
<!-- Node28 -->
<g id="node28" class="node">
<title>Node28</title>
<g id="a_node28"><a xlink:href="instruction_8h.html" target="_top" xlink:title=" ">
<polygon fill="none" stroke="black" points="192,-168.5 192,-187.5 269,-187.5 269,-168.5 192,-168.5"/>
<text text-anchor="middle" x="230.5" y="-175.5" font-family="Helvetica,sans-Serif" font-size="10.00">instruction.h</text>
</a>
</g>
</g>
<!-- Node25&#45;&gt;Node28 -->
<g id="edge46" class="edge">
<title>Node25&#45;&gt;Node28</title>
<path fill="none" stroke="midnightblue" d="M882.5,-231.78C788.55,-228.07 511.76,-215.44 283.5,-188 282.2,-187.84 280.88,-187.68 279.55,-187.5"/>
<polygon fill="midnightblue" stroke="midnightblue" points="279.62,-183.98 269.22,-186.02 278.63,-190.91 279.62,-183.98"/>
</g>
<!-- Node31 -->
<g id="node31" class="node">
<title>Node31</title>
<g id="a_node31"><a xlink:href="util_2lru__table_8h.html" target="_top" xlink:title=" ">
<polygon fill="none" stroke="black" points="680,-168.5 680,-187.5 767,-187.5 767,-168.5 680,-168.5"/>
<text text-anchor="middle" x="723.5" y="-175.5" font-family="Helvetica,sans-Serif" font-size="10.00">util/lru_table.h</text>
</a>
</g>
</g>
<!-- Node25&#45;&gt;Node31 -->
<g id="edge57" class="edge">
<title>Node25&#45;&gt;Node31</title>
<path fill="none" stroke="midnightblue" d="M885.08,-224.44C852.22,-215.2 799.72,-200.44 763.53,-190.26"/>
<polygon fill="midnightblue" stroke="midnightblue" points="764.35,-186.85 753.78,-187.52 762.46,-193.59 764.35,-186.85"/>
</g>
<!-- Node36 -->
<g id="node36" class="node">
<title>Node36</title>
<g id="a_node36"><a xlink:title=" ">
<polygon fill="none" stroke="#bfbfbf" points="325.5,-168.5 325.5,-187.5 467.5,-187.5 467.5,-168.5 325.5,-168.5"/>
<text text-anchor="middle" x="396.5" y="-175.5" font-family="Helvetica,sans-Serif" font-size="10.00">ooo_cpu_module_decl.inc</text>
</a>
</g>
</g>
<!-- Node25&#45;&gt;Node36 -->
<g id="edge69" class="edge">
<title>Node25&#45;&gt;Node36</title>
<path fill="none" stroke="midnightblue" d="M882.25,-229.68C810.64,-222.51 636.27,-204.93 478.01,-188.05"/>
<polygon fill="midnightblue" stroke="midnightblue" points="477.93,-184.52 467.61,-186.94 477.19,-191.48 477.93,-184.52"/>
</g>
<!-- Node37 -->
<g id="node37" class="node">
<title>Node37</title>
<g id="a_node37"><a xlink:title=" ">
<polygon fill="none" stroke="#bfbfbf" points="486,-168.5 486,-187.5 623,-187.5 623,-168.5 486,-168.5"/>
<text text-anchor="middle" x="554.5" y="-175.5" font-family="Helvetica,sans-Serif" font-size="10.00">ooo_cpu_module_def.inc</text>
</a>
</g>
</g>
<!-- Node25&#45;&gt;Node37 -->
<g id="edge70" class="edge">
<title>Node25&#45;&gt;Node37</title>
<path fill="none" stroke="midnightblue" d="M882.19,-228.02C823.13,-219.18 699.05,-200.62 621.66,-189.05"/>
<polygon fill="midnightblue" stroke="midnightblue" points="621.93,-185.55 611.53,-187.53 620.9,-192.47 621.93,-185.55"/>
</g>
<!-- Node28&#45;&gt;Node6 -->
<g id="edge50" class="edge">
<title>Node28&#45;&gt;Node6</title>
<path fill="none" stroke="midnightblue" d="M269.42,-172.57C284.16,-170.98 301.09,-169.28 316.5,-168 573.68,-146.67 642.88,-167.58 901.82,-132.03"/>
<polygon fill="midnightblue" stroke="midnightblue" points="902.48,-135.47 911.91,-130.63 901.52,-128.54 902.48,-135.47"/>
</g>
<!-- Node28&#45;&gt;Node7 -->
<g id="edge51" class="edge">
<title>Node28&#45;&gt;Node7</title>
<path fill="none" stroke="midnightblue" d="M229.72,-168.28C228.26,-146.21 227.67,-87.68 258.5,-56 277.89,-36.08 354.85,-22 399.32,-15.35"/>
<polygon fill="midnightblue" stroke="midnightblue" points="399.95,-18.79 409.34,-13.89 398.95,-11.86 399.95,-18.79"/>
</g>
<!-- Node28&#45;&gt;Node9 -->
<g id="edge48" class="edge">
<title>Node28&#45;&gt;Node9</title>
<path fill="none" stroke="midnightblue" d="M269.24,-170.13C274.04,-169.36 278.88,-168.63 283.5,-168 435.8,-147.12 474.7,-148.81 627.5,-132 642.83,-130.31 659.85,-128.36 674.07,-126.7"/>
<polygon fill="midnightblue" stroke="midnightblue" points="674.79,-130.14 684.32,-125.51 673.98,-123.19 674.79,-130.14"/>
</g>
<!-- Node28&#45;&gt;Node14 -->
<g id="edge52" class="edge">
<title>Node28&#45;&gt;Node14</title>
<path fill="none" stroke="midnightblue" d="M269.17,-172.38C361.29,-161.35 586.71,-134.23 594.5,-132 614.76,-126.19 618.29,-120.66 637.5,-112 662.22,-100.85 690.46,-88.54 711.11,-79.62"/>
<polygon fill="midnightblue" stroke="midnightblue" points="712.51,-82.83 720.31,-75.66 709.74,-76.4 712.51,-82.83"/>
</g>
<!-- Node28&#45;&gt;Node16 -->
<g id="edge49" class="edge">
<title>Node28&#45;&gt;Node16</title>
<path fill="none" stroke="midnightblue" d="M237.27,-168.42C255.79,-145.65 309.96,-83.52 370.5,-56 420.35,-33.34 580.9,-18.96 652.94,-13.5"/>
<polygon fill="midnightblue" stroke="midnightblue" points="653.6,-16.96 663.31,-12.72 653.08,-9.98 653.6,-16.96"/>
</g>
<!-- Node29 -->
<g id="node29" class="node">
<title>Node29</title>
<g id="a_node29"><a xlink:title=" ">
<polygon fill="none" stroke="#bfbfbf" points="379.5,-56.5 379.5,-75.5 443.5,-75.5 443.5,-56.5 379.5,-56.5"/>
<text text-anchor="middle" x="411.5" y="-63.5" font-family="Helvetica,sans-Serif" font-size="10.00">algorithm</text>
</a>
</g>
</g>
<!-- Node28&#45;&gt;Node29 -->
<g id="edge47" class="edge">
<title>Node28&#45;&gt;Node29</title>
<path fill="none" stroke="midnightblue" d="M269,-170.87C297.79,-164.79 336.93,-153.2 365.5,-132 382.1,-119.68 395,-99.59 402.86,-84.99"/>
<polygon fill="midnightblue" stroke="midnightblue" points="406.05,-86.43 407.48,-75.94 399.82,-83.25 406.05,-86.43"/>
</g>
<!-- Node30 -->
<g id="node30" class="node">
<title>Node30</title>
<g id="a_node30"><a xlink:href="trace__instruction_8h.html" target="_top" xlink:title=" ">
<polygon fill="none" stroke="black" points="104,-56.5 104,-75.5 211,-75.5 211,-56.5 104,-56.5"/>
<text text-anchor="middle" x="157.5" y="-63.5" font-family="Helvetica,sans-Serif" font-size="10.00">trace_instruction.h</text>
</a>
</g>
</g>
<!-- Node28&#45;&gt;Node30 -->
<g id="edge53" class="edge">
<title>Node28&#45;&gt;Node30</title>
<path fill="none" stroke="midnightblue" d="M224.77,-168.37C212.72,-150.22 184.58,-107.8 168.78,-83.99"/>
<polygon fill="midnightblue" stroke="midnightblue" points="171.65,-81.99 163.2,-75.59 165.81,-85.86 171.65,-81.99"/>
</g>
<!-- Node30&#45;&gt;Node7 -->
<g id="edge54" class="edge">
<title>Node30&#45;&gt;Node7</title>
<path fill="none" stroke="midnightblue" d="M200.92,-56.44C256.03,-45.58 349.83,-27.09 399.09,-17.39"/>
<polygon fill="midnightblue" stroke="midnightblue" points="400.05,-20.77 409.19,-15.4 398.7,-13.9 400.05,-20.77"/>
</g>
<!-- Node32 -->
<g id="node32" class="node">
<title>Node32</title>
<g id="a_node32"><a xlink:href="msl_2lru__table_8h.html" target="_top" xlink:title=" ">
<polygon fill="none" stroke="black" points="496,-112.5 496,-131.5 585,-131.5 585,-112.5 496,-112.5"/>
<text text-anchor="middle" x="540.5" y="-119.5" font-family="Helvetica,sans-Serif" font-size="10.00">msl/lru_table.h</text>
</a>
</g>
</g>
<!-- Node31&#45;&gt;Node32 -->
<g id="edge58" class="edge">
<title>Node31&#45;&gt;Node32</title>
<path fill="none" stroke="midnightblue" d="M694.5,-168.44C663.32,-159.24 613.57,-144.56 579.09,-134.39"/>
<polygon fill="midnightblue" stroke="midnightblue" points="579.94,-130.99 569.36,-131.52 577.96,-137.7 579.94,-130.99"/>
</g>
<!-- Node32&#45;&gt;Node14 -->
<g id="edge64" class="edge">
<title>Node32&#45;&gt;Node14</title>
<path fill="none" stroke="midnightblue" d="M572.19,-112.44C608.94,-102.52 669.26,-86.23 706.83,-76.09"/>
<polygon fill="midnightblue" stroke="midnightblue" points="708.04,-79.39 716.79,-73.4 706.22,-72.63 708.04,-79.39"/>
</g>
<!-- Node32&#45;&gt;Node16 -->
<g id="edge61" class="edge">
<title>Node32&#45;&gt;Node16</title>
<path fill="none" stroke="midnightblue" d="M576.12,-112.48C609.6,-103.81 656.47,-89.71 669.5,-76 681.26,-63.62 685.79,-44.38 687.51,-30.04"/>
<polygon fill="midnightblue" stroke="midnightblue" points="691.02,-30.07 688.37,-19.81 684.04,-29.48 691.02,-30.07"/>
</g>
<!-- Node32&#45;&gt;Node26 -->
<g id="edge62" class="edge">
<title>Node32&#45;&gt;Node26</title>
<path fill="none" stroke="midnightblue" d="M501.68,-112.44C455.64,-102.3 379.4,-85.49 333.66,-75.41"/>
<polygon fill="midnightblue" stroke="midnightblue" points="334.35,-71.98 323.83,-73.24 332.84,-78.81 334.35,-71.98"/>
</g>
<!-- Node32&#45;&gt;Node29 -->
<g id="edge59" class="edge">
<title>Node32&#45;&gt;Node29</title>
<path fill="none" stroke="midnightblue" d="M520.06,-112.44C498.83,-103.56 465.4,-89.56 441.25,-79.45"/>
<polygon fill="midnightblue" stroke="midnightblue" points="442.42,-76.15 431.84,-75.52 439.72,-82.61 442.42,-76.15"/>
</g>
<!-- Node33 -->
<g id="node33" class="node">
<title>Node33</title>
<g id="a_node33"><a xlink:title=" ">
<polygon fill="none" stroke="#bfbfbf" points="461.5,-56.5 461.5,-75.5 513.5,-75.5 513.5,-56.5 461.5,-56.5"/>
<text text-anchor="middle" x="487.5" y="-63.5" font-family="Helvetica,sans-Serif" font-size="10.00">cassert</text>
</a>
</g>
</g>
<!-- Node32&#45;&gt;Node33 -->
<g id="edge60" class="edge">
<title>Node32&#45;&gt;Node33</title>
<path fill="none" stroke="midnightblue" d="M531.75,-112.08C524.03,-104.22 512.6,-92.57 503.28,-83.08"/>
<polygon fill="midnightblue" stroke="midnightblue" points="505.59,-80.44 496.09,-75.75 500.6,-85.34 505.59,-80.44"/>
</g>
<!-- Node34 -->
<g id="node34" class="node">
<title>Node34</title>
<g id="a_node34"><a xlink:title=" ">
<polygon fill="none" stroke="#bfbfbf" points="532,-56.5 532,-75.5 577,-75.5 577,-56.5 532,-56.5"/>
<text text-anchor="middle" x="554.5" y="-63.5" font-family="Helvetica,sans-Serif" font-size="10.00">utility</text>
</a>
</g>
</g>
<!-- Node32&#45;&gt;Node34 -->
<g id="edge63" class="edge">
<title>Node32&#45;&gt;Node34</title>
<path fill="none" stroke="midnightblue" d="M542.81,-112.08C544.67,-104.93 547.34,-94.64 549.65,-85.69"/>
<polygon fill="midnightblue" stroke="midnightblue" points="553.11,-86.31 552.23,-75.75 546.33,-84.55 553.11,-86.31"/>
</g>
<!-- Node35 -->
<g id="node35" class="node">
<title>Node35</title>
<g id="a_node35"><a xlink:href="msl_2bits_8h.html" target="_top" xlink:title=" ">
<polygon fill="none" stroke="black" points="595,-56.5 595,-75.5 660,-75.5 660,-56.5 595,-56.5"/>
<text text-anchor="middle" x="627.5" y="-63.5" font-family="Helvetica,sans-Serif" font-size="10.00">msl/bits.h</text>
</a>
</g>
</g>
<!-- Node32&#45;&gt;Node35 -->
<g id="edge65" class="edge">
<title>Node32&#45;&gt;Node35</title>
<path fill="none" stroke="midnightblue" d="M554.48,-112.32C568.05,-103.9 588.88,-90.97 604.82,-81.07"/>
<polygon fill="midnightblue" stroke="midnightblue" points="606.91,-83.9 613.56,-75.65 603.21,-77.95 606.91,-83.9"/>
</g>
<!-- Node35&#45;&gt;Node7 -->
<g id="edge67" class="edge">
<title>Node35&#45;&gt;Node7</title>
<path fill="none" stroke="midnightblue" d="M596.44,-56.44C560.04,-46.41 500.01,-29.88 463.29,-19.76"/>
<polygon fill="midnightblue" stroke="midnightblue" points="464.16,-16.37 453.59,-17.09 462.3,-23.12 464.16,-16.37"/>
</g>
<!-- Node35&#45;&gt;Node16 -->
<g id="edge66" class="edge">
<title>Node35&#45;&gt;Node16</title>
<path fill="none" stroke="midnightblue" d="M637.3,-56.32C646.32,-48.34 659.91,-36.31 670.82,-26.65"/>
<polygon fill="midnightblue" stroke="midnightblue" points="673.35,-29.08 678.52,-19.83 668.71,-23.84 673.35,-29.08"/>
</g>
<!-- Node38&#45;&gt;Node8 -->
<g id="edge72" class="edge">
<title>Node38&#45;&gt;Node8</title>
<path fill="none" stroke="midnightblue" d="M1348.03,-280.44C1383.39,-270.85 1440.7,-255.3 1478.24,-245.11"/>
<polygon fill="midnightblue" stroke="midnightblue" points="1479.54,-248.39 1488.27,-242.39 1477.7,-241.63 1479.54,-248.39"/>
</g>
<!-- Node38&#45;&gt;Node17 -->
<g id="edge73" class="edge">
<title>Node38&#45;&gt;Node17</title>
<path fill="none" stroke="midnightblue" d="M1355.29,-282.16C1401.97,-273.79 1482.68,-258.89 1551.5,-244 1631.79,-226.62 1724.83,-203.46 1777.77,-190"/>
<polygon fill="midnightblue" stroke="midnightblue" points="1778.66,-193.38 1787.49,-187.52 1776.93,-186.6 1778.66,-193.38"/>
</g>
<!-- Node38&#45;&gt;Node25 -->
<g id="edge74" class="edge">
<title>Node38&#45;&gt;Node25</title>
<path fill="none" stroke="midnightblue" d="M1277.74,-282.24C1272.95,-281.45 1268.12,-280.69 1263.5,-280 1153.98,-263.63 1024.54,-247.82 958.68,-240.03"/>
<polygon fill="midnightblue" stroke="midnightblue" points="959.01,-236.54 948.67,-238.85 958.19,-243.49 959.01,-236.54"/>
</g>
<!-- Node39 -->
<g id="node39" class="node">
<title>Node39</title>
<g id="a_node39"><a xlink:href="ptw_8h.html" target="_top" xlink:title=" ">
<polygon fill="none" stroke="black" points="1096,-224.5 1096,-243.5 1139,-243.5 1139,-224.5 1096,-224.5"/>
<text text-anchor="middle" x="1117.5" y="-231.5" font-family="Helvetica,sans-Serif" font-size="10.00">ptw.h</text>
</a>
</g>
</g>
<!-- Node38&#45;&gt;Node39 -->
<g id="edge75" class="edge">
<title>Node38&#45;&gt;Node39</title>
<path fill="none" stroke="midnightblue" d="M1284.97,-280.44C1247.7,-270.33 1186.07,-253.61 1148.87,-243.51"/>
<polygon fill="midnightblue" stroke="midnightblue" points="1149.64,-240.09 1139.07,-240.85 1147.81,-246.85 1149.64,-240.09"/>
</g>
<!-- Node39&#45;&gt;Node4 -->
<g id="edge77" class="edge">
<title>Node39&#45;&gt;Node4</title>
<path fill="none" stroke="midnightblue" d="M1117.5,-224.37C1117.5,-206.62 1117.5,-165.67 1117.5,-141.6"/>
<polygon fill="midnightblue" stroke="midnightblue" points="1121,-141.59 1117.5,-131.59 1114,-141.59 1121,-141.59"/>
</g>
<!-- Node39&#45;&gt;Node9 -->
<g id="edge76" class="edge">
<title>Node39&#45;&gt;Node9</title>
<path fill="none" stroke="midnightblue" d="M1095.87,-232.64C1045.2,-231.21 915.43,-224 814.5,-188 805.37,-184.74 757.3,-155.26 728.13,-137.13"/>
<polygon fill="midnightblue" stroke="midnightblue" points="729.73,-134.01 719.39,-131.7 726.03,-139.95 729.73,-134.01"/>
</g>
<!-- Node39&#45;&gt;Node13 -->
<g id="edge78" class="edge">
<title>Node39&#45;&gt;Node13</title>
<path fill="none" stroke="midnightblue" d="M1139.28,-231.63C1195.12,-227.86 1348.01,-215.8 1483.21,-188.21"/>
<polygon fill="midnightblue" stroke="midnightblue" points="1484.25,-191.57 1493.33,-186.11 1482.83,-184.72 1484.25,-191.57"/>
</g>
<!-- Node39&#45;&gt;Node18 -->
<g id="edge79" class="edge">
<title>Node39&#45;&gt;Node18</title>
<path fill="none" stroke="midnightblue" d="M1095.61,-228.49C1052.08,-219.52 953.98,-199.3 897.56,-187.67"/>
<polygon fill="midnightblue" stroke="midnightblue" points="898.04,-184.19 887.54,-185.6 896.62,-191.05 898.04,-184.19"/>
</g>
<!-- Node39&#45;&gt;Node21 -->
<g id="edge80" class="edge">
<title>Node39&#45;&gt;Node21</title>
<path fill="none" stroke="midnightblue" d="M1139.03,-231.52C1200.69,-227.12 1383.43,-212.94 1545.16,-188.06"/>
<polygon fill="midnightblue" stroke="midnightblue" points="1545.95,-191.48 1555.29,-186.49 1544.87,-184.57 1545.95,-191.48"/>
</g>
<!-- Node39&#45;&gt;Node31 -->
<g id="edge81" class="edge">
<title>Node39&#45;&gt;Node31</title>
<path fill="none" stroke="midnightblue" d="M1095.86,-230.26C1042.44,-223.46 900.04,-205.13 781.5,-188 780.05,-187.79 778.58,-187.58 777.1,-187.36"/>
<polygon fill="midnightblue" stroke="midnightblue" points="777.6,-183.89 767.19,-185.88 776.56,-190.82 777.6,-183.89"/>
</g>
</g>
</svg>
