<?xml version="1.0" encoding="UTF-8" standalone="no"?>
<!DOCTYPE svg PUBLIC "-//W3C//DTD SVG 1.1//EN"
 "http://www.w3.org/Graphics/SVG/1.1/DTD/svg11.dtd">
<!-- Generated by graphviz version 2.43.0 (0)
 -->
<!-- Title: test/cpp/src/400&#45;cache&#45;occupancy&#45;size.cc Pages: 1 -->
<svg width="2206pt" height="375pt"
 viewBox="0.00 0.00 2205.73 375.00" xmlns="http://www.w3.org/2000/svg" xmlns:xlink="http://www.w3.org/1999/xlink">
<g id="graph0" class="graph" transform="scale(1 1) rotate(0) translate(4 371)">
<title>test/cpp/src/400&#45;cache&#45;occupancy&#45;size.cc</title>
<!-- Node1 -->
<g id="node1" class="node">
<title>Node1</title>
<g id="a_node1"><a xlink:title=" ">
<polygon fill="#bfbfbf" stroke="black" points="1367,-336.5 1367,-366.5 1493,-366.5 1493,-336.5 1367,-336.5"/>
<text text-anchor="start" x="1375" y="-354.5" font-family="Helvetica,sans-Serif" font-size="10.00">test/cpp/src/400&#45;cache</text>
<text text-anchor="middle" x="1430" y="-343.5" font-family="Helvetica,sans-Serif" font-size="10.00">&#45;occupancy&#45;size.cc</text>
</a>
</g>
</g>
<!-- Node2 -->
<g id="node2" class="node">
<title>Node2</title>
<g id="a_node2"><a xlink:title=" ">
<polygon fill="none" stroke="#bfbfbf" points="1242,-280.5 1242,-299.5 1306,-299.5 1306,-280.5 1242,-280.5"/>
<text text-anchor="middle" x="1274" y="-287.5" font-family="Helvetica,sans-Serif" font-size="10.00">catch.hpp</text>
</a>
</g>
</g>
<!-- Node1&#45;&gt;Node2 -->
<g id="edge1" class="edge">
<title>Node1&#45;&gt;Node2</title>
<path fill="none" stroke="midnightblue" d="M1393.03,-336.4C1366.62,-326.33 1331.44,-312.91 1306.19,-303.28"/>
<polygon fill="midnightblue" stroke="midnightblue" points="1307.29,-299.95 1296.7,-299.66 1304.8,-306.49 1307.29,-299.95"/>
</g>
<!-- Node3 -->
<g id="node3" class="node">
<title>Node3</title>
<g id="a_node3"><a xlink:href="cache_8h.html" target="_top" xlink:title=" ">
<polygon fill="none" stroke="black" points="1336,-224.5 1336,-243.5 1390,-243.5 1390,-224.5 1336,-224.5"/>
<text text-anchor="middle" x="1363" y="-231.5" font-family="Helvetica,sans-Serif" font-size="10.00">cache.h</text>
</a>
</g>
</g>
<!-- Node1&#45;&gt;Node3 -->
<g id="edge2" class="edge">
<title>Node1&#45;&gt;Node3</title>
<path fill="none" stroke="midnightblue" d="M1428.23,-336.38C1425.88,-321.49 1420.69,-297.77 1410,-280 1403.06,-268.47 1392.41,-257.93 1382.99,-249.95"/>
<polygon fill="midnightblue" stroke="midnightblue" points="1385.15,-247.19 1375.17,-243.64 1380.75,-252.64 1385.15,-247.19"/>
</g>
<!-- Node15 -->
<g id="node15" class="node">
<title>Node15</title>
<g id="a_node15"><a xlink:href="channel_8h.html" target="_top" xlink:title=" ">
<polygon fill="none" stroke="black" points="1628,-168.5 1628,-187.5 1692,-187.5 1692,-168.5 1628,-168.5"/>
<text text-anchor="middle" x="1660" y="-175.5" font-family="Helvetica,sans-Serif" font-size="10.00">channel.h</text>
</a>
</g>
</g>
<!-- Node1&#45;&gt;Node15 -->
<g id="edge27" class="edge">
<title>Node1&#45;&gt;Node15</title>
<path fill="none" stroke="midnightblue" d="M1493.1,-343.17C1547.78,-335.48 1621.16,-321.48 1641,-300 1666.77,-272.11 1665.83,-224.25 1662.91,-197.86"/>
<polygon fill="midnightblue" stroke="midnightblue" points="1666.34,-197.13 1661.56,-187.68 1659.4,-198.05 1666.34,-197.13"/>
</g>
<!-- Node24 -->
<g id="node24" class="node">
<title>Node24</title>
<g id="a_node24"><a xlink:href="defaults_8hpp.html" target="_top" xlink:title=" ">
<polygon fill="none" stroke="black" points="1324.5,-280.5 1324.5,-299.5 1401.5,-299.5 1401.5,-280.5 1324.5,-280.5"/>
<text text-anchor="middle" x="1363" y="-287.5" font-family="Helvetica,sans-Serif" font-size="10.00">defaults.hpp</text>
</a>
</g>
</g>
<!-- Node1&#45;&gt;Node24 -->
<g id="edge28" class="edge">
<title>Node1&#45;&gt;Node24</title>
<path fill="none" stroke="midnightblue" d="M1414.12,-336.4C1403.98,-327.4 1390.84,-315.72 1380.41,-306.47"/>
<polygon fill="midnightblue" stroke="midnightblue" points="1382.55,-303.68 1372.75,-299.66 1377.9,-308.92 1382.55,-303.68"/>
</g>
<!-- Node39 -->
<g id="node39" class="node">
<title>Node39</title>
<g id="a_node39"><a xlink:href="mocks_8hpp.html" target="_top" xlink:title=" ">
<polygon fill="none" stroke="black" points="1562,-280.5 1562,-299.5 1632,-299.5 1632,-280.5 1562,-280.5"/>
<text text-anchor="middle" x="1597" y="-287.5" font-family="Helvetica,sans-Serif" font-size="10.00">mocks.hpp</text>
</a>
</g>
</g>
<!-- Node1&#45;&gt;Node39 -->
<g id="edge76" class="edge">
<title>Node1&#45;&gt;Node39</title>
<path fill="none" stroke="midnightblue" d="M1469.58,-336.4C1498.1,-326.24 1536.17,-312.67 1563.26,-303.02"/>
<polygon fill="midnightblue" stroke="midnightblue" points="1564.45,-306.31 1572.7,-299.66 1562.11,-299.72 1564.45,-306.31"/>
</g>
<!-- Node4 -->
<g id="node4" class="node">
<title>Node4</title>
<g id="a_node4"><a xlink:title=" ">
<polygon fill="none" stroke="#bfbfbf" points="1344,-112.5 1344,-131.5 1386,-131.5 1386,-112.5 1344,-112.5"/>
<text text-anchor="middle" x="1365" y="-119.5" font-family="Helvetica,sans-Serif" font-size="10.00">array</text>
</a>
</g>
</g>
<!-- Node3&#45;&gt;Node4 -->
<g id="edge3" class="edge">
<title>Node3&#45;&gt;Node4</title>
<path fill="none" stroke="midnightblue" d="M1338.68,-224.47C1311.96,-213.63 1274.6,-193.25 1289,-168 1298.78,-150.85 1317.94,-139.57 1334.58,-132.59"/>
<polygon fill="midnightblue" stroke="midnightblue" points="1335.91,-135.83 1343.99,-128.97 1333.4,-129.29 1335.91,-135.83"/>
</g>
<!-- Node5 -->
<g id="node5" class="node">
<title>Node5</title>
<g id="a_node5"><a xlink:title=" ">
<polygon fill="none" stroke="#bfbfbf" points="893,-168.5 893,-187.5 937,-187.5 937,-168.5 893,-168.5"/>
<text text-anchor="middle" x="915" y="-175.5" font-family="Helvetica,sans-Serif" font-size="10.00">bitset</text>
</a>
</g>
</g>
<!-- Node3&#45;&gt;Node5 -->
<g id="edge4" class="edge">
<title>Node3&#45;&gt;Node5</title>
<path fill="none" stroke="midnightblue" d="M1335.92,-231.72C1270.56,-228.29 1098.96,-217.21 947.2,-187.92"/>
<polygon fill="midnightblue" stroke="midnightblue" points="947.72,-184.45 937.24,-185.96 946.37,-191.32 947.72,-184.45"/>
</g>
<!-- Node6 -->
<g id="node6" class="node">
<title>Node6</title>
<g id="a_node6"><a xlink:title=" ">
<polygon fill="none" stroke="#bfbfbf" points="1840.5,-112.5 1840.5,-131.5 1887.5,-131.5 1887.5,-112.5 1840.5,-112.5"/>
<text text-anchor="middle" x="1864" y="-119.5" font-family="Helvetica,sans-Serif" font-size="10.00">deque</text>
</a>
</g>
</g>
<!-- Node3&#45;&gt;Node6 -->
<g id="edge5" class="edge">
<title>Node3&#45;&gt;Node6</title>
<path fill="none" stroke="midnightblue" d="M1390.03,-232.23C1486.47,-229.23 1809.75,-217.08 1845,-188 1858.44,-176.91 1862.69,-156.87 1863.88,-141.97"/>
<polygon fill="midnightblue" stroke="midnightblue" points="1867.38,-141.94 1864.3,-131.8 1860.39,-141.65 1867.38,-141.94"/>
</g>
<!-- Node7 -->
<g id="node7" class="node">
<title>Node7</title>
<g id="a_node7"><a xlink:title=" ">
<polygon fill="none" stroke="#bfbfbf" points="955,-168.5 955,-187.5 1013,-187.5 1013,-168.5 955,-168.5"/>
<text text-anchor="middle" x="984" y="-175.5" font-family="Helvetica,sans-Serif" font-size="10.00">memory</text>
</a>
</g>
</g>
<!-- Node3&#45;&gt;Node7 -->
<g id="edge6" class="edge">
<title>Node3&#45;&gt;Node7</title>
<path fill="none" stroke="midnightblue" d="M1335.89,-230.37C1279.5,-224.69 1145.32,-210.13 1023.28,-188.08"/>
<polygon fill="midnightblue" stroke="midnightblue" points="1023.86,-184.63 1013.4,-186.27 1022.6,-191.51 1023.86,-184.63"/>
</g>
<!-- Node8 -->
<g id="node8" class="node">
<title>Node8</title>
<g id="a_node8"><a xlink:title=" ">
<polygon fill="none" stroke="#bfbfbf" points="1031.5,-168.5 1031.5,-187.5 1096.5,-187.5 1096.5,-168.5 1031.5,-168.5"/>
<text text-anchor="middle" x="1064" y="-175.5" font-family="Helvetica,sans-Serif" font-size="10.00">stdexcept</text>
</a>
</g>
</g>
<!-- Node3&#45;&gt;Node8 -->
<g id="edge7" class="edge">
<title>Node3&#45;&gt;Node8</title>
<path fill="none" stroke="midnightblue" d="M1335.81,-228.66C1290.4,-221.32 1196.02,-205.69 1106.67,-188.27"/>
<polygon fill="midnightblue" stroke="midnightblue" points="1107.13,-184.79 1096.65,-186.3 1105.79,-191.66 1107.13,-184.79"/>
</g>
<!-- Node9 -->
<g id="node9" class="node">
<title>Node9</title>
<g id="a_node9"><a xlink:title=" ">
<polygon fill="none" stroke="#bfbfbf" points="1988,-168.5 1988,-187.5 2032,-187.5 2032,-168.5 1988,-168.5"/>
<text text-anchor="middle" x="2010" y="-175.5" font-family="Helvetica,sans-Serif" font-size="10.00">string</text>
</a>
</g>
</g>
<!-- Node3&#45;&gt;Node9 -->
<g id="edge8" class="edge">
<title>Node3&#45;&gt;Node9</title>
<path fill="none" stroke="midnightblue" d="M1390.27,-233.04C1475.81,-232.72 1746.39,-228.5 1977.83,-187.83"/>
<polygon fill="midnightblue" stroke="midnightblue" points="1978.55,-191.26 1987.78,-186.06 1977.32,-184.37 1978.55,-191.26"/>
</g>
<!-- Node10 -->
<g id="node10" class="node">
<title>Node10</title>
<g id="a_node10"><a xlink:title=" ">
<polygon fill="none" stroke="#bfbfbf" points="1208.5,-56.5 1208.5,-75.5 1255.5,-75.5 1255.5,-56.5 1208.5,-56.5"/>
<text text-anchor="middle" x="1232" y="-63.5" font-family="Helvetica,sans-Serif" font-size="10.00">vector</text>
</a>
</g>
</g>
<!-- Node3&#45;&gt;Node10 -->
<g id="edge9" class="edge">
<title>Node3&#45;&gt;Node10</title>
<path fill="none" stroke="midnightblue" d="M1340.18,-224.42C1322.61,-216.92 1298.6,-204.62 1282,-188 1253.32,-159.28 1240.32,-111.75 1235.08,-85.63"/>
<polygon fill="midnightblue" stroke="midnightblue" points="1238.49,-84.77 1233.24,-75.57 1231.6,-86.03 1238.49,-84.77"/>
</g>
<!-- Node11 -->
<g id="node11" class="node">
<title>Node11</title>
<g id="a_node11"><a xlink:href="champsim_8h.html" target="_top" xlink:title=" ">
<polygon fill="none" stroke="black" points="1892.5,-168.5 1892.5,-187.5 1969.5,-187.5 1969.5,-168.5 1892.5,-168.5"/>
<text text-anchor="middle" x="1931" y="-175.5" font-family="Helvetica,sans-Serif" font-size="10.00">champsim.h</text>
</a>
</g>
</g>
<!-- Node3&#45;&gt;Node11 -->
<g id="edge10" class="edge">
<title>Node3&#45;&gt;Node11</title>
<path fill="none" stroke="midnightblue" d="M1390.16,-231.41C1466.97,-226.73 1692.17,-211.86 1878,-188 1879.3,-187.83 1880.62,-187.66 1881.95,-187.47"/>
<polygon fill="midnightblue" stroke="midnightblue" points="1882.89,-190.87 1892.27,-185.95 1881.86,-183.95 1882.89,-190.87"/>
</g>
<!-- Node14 -->
<g id="node14" class="node">
<title>Node14</title>
<g id="a_node14"><a xlink:title=" ">
<polygon fill="none" stroke="#bfbfbf" points="66.5,-168.5 66.5,-187.5 195.5,-187.5 195.5,-168.5 66.5,-168.5"/>
<text text-anchor="middle" x="131" y="-175.5" font-family="Helvetica,sans-Serif" font-size="10.00">champsim_constants.h</text>
</a>
</g>
</g>
<!-- Node3&#45;&gt;Node14 -->
<g id="edge13" class="edge">
<title>Node3&#45;&gt;Node14</title>
<path fill="none" stroke="midnightblue" d="M1335.81,-232.05C1213.41,-227.75 701.13,-209.34 281,-188 256.49,-186.76 229.74,-185.21 205.71,-183.75"/>
<polygon fill="midnightblue" stroke="midnightblue" points="205.78,-180.25 195.59,-183.14 205.36,-187.24 205.78,-180.25"/>
</g>
<!-- Node3&#45;&gt;Node15 -->
<g id="edge14" class="edge">
<title>Node3&#45;&gt;Node15</title>
<path fill="none" stroke="midnightblue" d="M1390.14,-228.06C1442.1,-218.62 1555.92,-197.92 1617.85,-186.66"/>
<polygon fill="midnightblue" stroke="midnightblue" points="1618.47,-190.11 1627.69,-184.88 1617.22,-183.22 1618.47,-190.11"/>
</g>
<!-- Node19 -->
<g id="node19" class="node">
<title>Node19</title>
<g id="a_node19"><a xlink:href="module__impl_8h.html" target="_top" xlink:title=" ">
<polygon fill="none" stroke="black" points="1114.5,-168.5 1114.5,-187.5 1203.5,-187.5 1203.5,-168.5 1114.5,-168.5"/>
<text text-anchor="middle" x="1159" y="-175.5" font-family="Helvetica,sans-Serif" font-size="10.00">module_impl.h</text>
</a>
</g>
</g>
<!-- Node3&#45;&gt;Node19 -->
<g id="edge22" class="edge">
<title>Node3&#45;&gt;Node19</title>
<path fill="none" stroke="midnightblue" d="M1335.91,-225.83C1301.44,-216.7 1241.53,-200.85 1201.09,-190.14"/>
<polygon fill="midnightblue" stroke="midnightblue" points="1201.81,-186.71 1191.25,-187.54 1200.02,-193.48 1201.81,-186.71"/>
</g>
<!-- Node20 -->
<g id="node20" class="node">
<title>Node20</title>
<g id="a_node20"><a xlink:href="operable_8h.html" target="_top" xlink:title=" ">
<polygon fill="none" stroke="black" points="2050,-168.5 2050,-187.5 2118,-187.5 2118,-168.5 2050,-168.5"/>
<text text-anchor="middle" x="2084" y="-175.5" font-family="Helvetica,sans-Serif" font-size="10.00">operable.h</text>
</a>
</g>
</g>
<!-- Node3&#45;&gt;Node20 -->
<g id="edge23" class="edge">
<title>Node3&#45;&gt;Node20</title>
<path fill="none" stroke="midnightblue" d="M1390.27,-232.56C1481.13,-230.8 1781.95,-222.67 2039.88,-187.96"/>
<polygon fill="midnightblue" stroke="midnightblue" points="2040.37,-191.42 2049.81,-186.61 2039.43,-184.49 2040.37,-191.42"/>
</g>
<!-- Node21 -->
<g id="node21" class="node">
<title>Node21</title>
<g id="a_node21"><a xlink:title=" ">
<polygon fill="none" stroke="#bfbfbf" points="805.5,-168.5 805.5,-187.5 874.5,-187.5 874.5,-168.5 805.5,-168.5"/>
<text text-anchor="middle" x="840" y="-175.5" font-family="Helvetica,sans-Serif" font-size="10.00">type_traits</text>
</a>
</g>
</g>
<!-- Node3&#45;&gt;Node21 -->
<g id="edge24" class="edge">
<title>Node3&#45;&gt;Node21</title>
<path fill="none" stroke="midnightblue" d="M1335.87,-231.48C1264.01,-227.24 1062.67,-213.95 884.6,-187.92"/>
<polygon fill="midnightblue" stroke="midnightblue" points="884.93,-184.43 874.52,-186.43 883.9,-191.35 884.93,-184.43"/>
</g>
<!-- Node22 -->
<g id="node22" class="node">
<title>Node22</title>
<g id="a_node22"><a xlink:title=" ">
<polygon fill="none" stroke="#bfbfbf" points="1298,-168.5 1298,-187.5 1428,-187.5 1428,-168.5 1298,-168.5"/>
<text text-anchor="middle" x="1363" y="-175.5" font-family="Helvetica,sans-Serif" font-size="10.00">cache_module_decl.inc</text>
</a>
</g>
</g>
<!-- Node3&#45;&gt;Node22 -->
<g id="edge25" class="edge">
<title>Node3&#45;&gt;Node22</title>
<path fill="none" stroke="midnightblue" d="M1363,-224.08C1363,-217.01 1363,-206.86 1363,-197.99"/>
<polygon fill="midnightblue" stroke="midnightblue" points="1366.5,-197.75 1363,-187.75 1359.5,-197.75 1366.5,-197.75"/>
</g>
<!-- Node23 -->
<g id="node23" class="node">
<title>Node23</title>
<g id="a_node23"><a xlink:title=" ">
<polygon fill="none" stroke="#bfbfbf" points="1446.5,-168.5 1446.5,-187.5 1571.5,-187.5 1571.5,-168.5 1446.5,-168.5"/>
<text text-anchor="middle" x="1509" y="-175.5" font-family="Helvetica,sans-Serif" font-size="10.00">cache_module_def.inc</text>
</a>
</g>
</g>
<!-- Node3&#45;&gt;Node23 -->
<g id="edge26" class="edge">
<title>Node3&#45;&gt;Node23</title>
<path fill="none" stroke="midnightblue" d="M1386.13,-224.44C1410.48,-215.44 1449.01,-201.19 1476.42,-191.05"/>
<polygon fill="midnightblue" stroke="midnightblue" points="1477.81,-194.27 1485.97,-187.52 1475.38,-187.7 1477.81,-194.27"/>
</g>
<!-- Node12 -->
<g id="node12" class="node">
<title>Node12</title>
<g id="a_node12"><a xlink:title=" ">
<polygon fill="none" stroke="#bfbfbf" points="1683,-0.5 1683,-19.5 1733,-19.5 1733,-0.5 1683,-0.5"/>
<text text-anchor="middle" x="1708" y="-7.5" font-family="Helvetica,sans-Serif" font-size="10.00">cstdint</text>
</a>
</g>
</g>
<!-- Node11&#45;&gt;Node12 -->
<g id="edge11" class="edge">
<title>Node11&#45;&gt;Node12</title>
<path fill="none" stroke="midnightblue" d="M1928.36,-168.42C1923.84,-154.94 1913.5,-128.64 1897,-112 1852.48,-67.08 1783.75,-37.29 1742.59,-22.33"/>
<polygon fill="midnightblue" stroke="midnightblue" points="1743.6,-18.98 1733.01,-18.94 1741.26,-25.57 1743.6,-18.98"/>
</g>
<!-- Node13 -->
<g id="node13" class="node">
<title>Node13</title>
<g id="a_node13"><a xlink:title=" ">
<polygon fill="none" stroke="#bfbfbf" points="2089.5,-112.5 2089.5,-131.5 2154.5,-131.5 2154.5,-112.5 2089.5,-112.5"/>
<text text-anchor="middle" x="2122" y="-119.5" font-family="Helvetica,sans-Serif" font-size="10.00">exception</text>
</a>
</g>
</g>
<!-- Node11&#45;&gt;Node13 -->
<g id="edge12" class="edge">
<title>Node11&#45;&gt;Node13</title>
<path fill="none" stroke="midnightblue" d="M1961.26,-168.44C1993.96,-159.2 2046.18,-144.44 2082.18,-134.26"/>
<polygon fill="midnightblue" stroke="midnightblue" points="2083.21,-137.61 2091.88,-131.52 2081.3,-130.87 2083.21,-137.61"/>
</g>
<!-- Node15&#45;&gt;Node4 -->
<g id="edge15" class="edge">
<title>Node15&#45;&gt;Node4</title>
<path fill="none" stroke="midnightblue" d="M1627.85,-170.6C1623.21,-169.7 1618.48,-168.82 1614,-168 1519.11,-150.74 1494.35,-152.03 1400,-132 1398.72,-131.73 1397.42,-131.44 1396.11,-131.14"/>
<polygon fill="midnightblue" stroke="midnightblue" points="1396.57,-127.66 1386.03,-128.72 1394.93,-134.46 1396.57,-127.66"/>
</g>
<!-- Node15&#45;&gt;Node6 -->
<g id="edge17" class="edge">
<title>Node15&#45;&gt;Node6</title>
<path fill="none" stroke="midnightblue" d="M1692.32,-168.44C1730.01,-158.47 1792.01,-142.06 1830.29,-131.92"/>
<polygon fill="midnightblue" stroke="midnightblue" points="1831.64,-135.19 1840.41,-129.24 1829.85,-128.42 1831.64,-135.19"/>
</g>
<!-- Node15&#45;&gt;Node10 -->
<g id="edge20" class="edge">
<title>Node15&#45;&gt;Node10</title>
<path fill="none" stroke="midnightblue" d="M1627.92,-170.7C1568.62,-159.04 1447.01,-134.96 1438,-132 1417.98,-125.42 1414.78,-119.27 1395,-112 1351.24,-95.91 1299.04,-82.46 1265.72,-74.58"/>
<polygon fill="midnightblue" stroke="midnightblue" points="1266.13,-71.08 1255.6,-72.21 1264.54,-77.89 1266.13,-71.08"/>
</g>
<!-- Node15&#45;&gt;Node12 -->
<g id="edge16" class="edge">
<title>Node15&#45;&gt;Node12</title>
<path fill="none" stroke="midnightblue" d="M1665.79,-168.3C1676.66,-151.4 1699.76,-112.55 1708,-76 1711.46,-60.67 1711.15,-42.79 1710.16,-29.67"/>
<polygon fill="midnightblue" stroke="midnightblue" points="1713.63,-29.16 1709.18,-19.55 1706.66,-29.84 1713.63,-29.16"/>
</g>
<!-- Node16 -->
<g id="node16" class="node">
<title>Node16</title>
<g id="a_node16"><a xlink:title=" ">
<polygon fill="none" stroke="#bfbfbf" points="1260.5,-112.5 1260.5,-131.5 1325.5,-131.5 1325.5,-112.5 1260.5,-112.5"/>
<text text-anchor="middle" x="1293" y="-119.5" font-family="Helvetica,sans-Serif" font-size="10.00">functional</text>
</a>
</g>
</g>
<!-- Node15&#45;&gt;Node16 -->
<g id="edge18" class="edge">
<title>Node15&#45;&gt;Node16</title>
<path fill="none" stroke="midnightblue" d="M1627.88,-170.44C1623.23,-169.57 1618.5,-168.73 1614,-168 1493.72,-148.49 1459.93,-152.87 1335.43,-131.93"/>
<polygon fill="midnightblue" stroke="midnightblue" points="1335.95,-128.47 1325.51,-130.24 1334.78,-135.37 1335.95,-128.47"/>
</g>
<!-- Node17 -->
<g id="node17" class="node">
<title>Node17</title>
<g id="a_node17"><a xlink:title=" ">
<polygon fill="none" stroke="#bfbfbf" points="240,-0.5 240,-19.5 284,-19.5 284,-0.5 240,-0.5"/>
<text text-anchor="middle" x="262" y="-7.5" font-family="Helvetica,sans-Serif" font-size="10.00">limits</text>
</a>
</g>
</g>
<!-- Node15&#45;&gt;Node17 -->
<g id="edge19" class="edge">
<title>Node15&#45;&gt;Node17</title>
<path fill="none" stroke="midnightblue" d="M1627.76,-171.4C1581.23,-162.97 1497.88,-146.46 1471,-132 1427.53,-108.61 1435.53,-75.07 1390,-56 1286.64,-12.7 467.63,-10.85 294.2,-10.95"/>
<polygon fill="midnightblue" stroke="midnightblue" points="294.16,-7.45 284.16,-10.96 294.17,-14.45 294.16,-7.45"/>
</g>
<!-- Node18 -->
<g id="node18" class="node">
<title>Node18</title>
<g id="a_node18"><a xlink:title=" ">
<polygon fill="none" stroke="#bfbfbf" points="1480.5,-112.5 1480.5,-131.5 1553.5,-131.5 1553.5,-112.5 1480.5,-112.5"/>
<text text-anchor="middle" x="1517" y="-119.5" font-family="Helvetica,sans-Serif" font-size="10.00">string_view</text>
</a>
</g>
</g>
<!-- Node15&#45;&gt;Node18 -->
<g id="edge21" class="edge">
<title>Node15&#45;&gt;Node18</title>
<path fill="none" stroke="midnightblue" d="M1637.34,-168.44C1613.6,-159.48 1576.09,-145.31 1549.26,-135.18"/>
<polygon fill="midnightblue" stroke="midnightblue" points="1550.14,-131.77 1539.55,-131.52 1547.67,-138.32 1550.14,-131.77"/>
</g>
<!-- Node24&#45;&gt;Node3 -->
<g id="edge29" class="edge">
<title>Node24&#45;&gt;Node3</title>
<path fill="none" stroke="midnightblue" d="M1363,-280.08C1363,-273.01 1363,-262.86 1363,-253.99"/>
<polygon fill="midnightblue" stroke="midnightblue" points="1366.5,-253.75 1363,-243.75 1359.5,-253.75 1366.5,-253.75"/>
</g>
<!-- Node24&#45;&gt;Node14 -->
<g id="edge30" class="edge">
<title>Node24&#45;&gt;Node14</title>
<path fill="none" stroke="midnightblue" d="M1324.29,-281.36C1321.15,-280.86 1318.03,-280.4 1315,-280 1102.88,-252.25 1048.21,-261.55 835,-244 557.05,-221.13 487.46,-216.23 210,-188 208.69,-187.87 207.36,-187.73 206.03,-187.59"/>
<polygon fill="midnightblue" stroke="midnightblue" points="205.97,-184.07 195.66,-186.49 205.23,-191.03 205.97,-184.07"/>
</g>
<!-- Node25 -->
<g id="node25" class="node">
<title>Node25</title>
<g id="a_node25"><a xlink:href="ooo__cpu_8h.html" target="_top" xlink:title=" ">
<polygon fill="none" stroke="black" points="844,-224.5 844,-243.5 910,-243.5 910,-224.5 844,-224.5"/>
<text text-anchor="middle" x="877" y="-231.5" font-family="Helvetica,sans-Serif" font-size="10.00">ooo_cpu.h</text>
</a>
</g>
</g>
<!-- Node24&#45;&gt;Node25 -->
<g id="edge31" class="edge">
<title>Node24&#45;&gt;Node25</title>
<path fill="none" stroke="midnightblue" d="M1324.27,-281.45C1321.14,-280.93 1318.02,-280.44 1315,-280 1170.92,-259.13 998.8,-244.41 920.11,-238.23"/>
<polygon fill="midnightblue" stroke="midnightblue" points="920.32,-234.74 910.08,-237.46 919.78,-241.72 920.32,-234.74"/>
</g>
<!-- Node38 -->
<g id="node38" class="node">
<title>Node38</title>
<g id="a_node38"><a xlink:href="ptw_8h.html" target="_top" xlink:title=" ">
<polygon fill="none" stroke="black" points="1988.5,-224.5 1988.5,-243.5 2031.5,-243.5 2031.5,-224.5 1988.5,-224.5"/>
<text text-anchor="middle" x="2010" y="-231.5" font-family="Helvetica,sans-Serif" font-size="10.00">ptw.h</text>
</a>
</g>
</g>
<!-- Node24&#45;&gt;Node38 -->
<g id="edge69" class="edge">
<title>Node24&#45;&gt;Node38</title>
<path fill="none" stroke="midnightblue" d="M1401.54,-285.78C1518.84,-275.99 1870.12,-246.67 1978.08,-237.66"/>
<polygon fill="midnightblue" stroke="midnightblue" points="1978.65,-241.13 1988.32,-236.81 1978.07,-234.15 1978.65,-241.13"/>
</g>
<!-- Node25&#45;&gt;Node4 -->
<g id="edge32" class="edge">
<title>Node25&#45;&gt;Node4</title>
<path fill="none" stroke="midnightblue" d="M851.06,-224.42C819.95,-212.83 774.51,-190.98 796,-168 836.93,-124.24 1275,-142.41 1334,-132 1334.1,-131.98 1334.2,-131.96 1334.3,-131.95"/>
<polygon fill="midnightblue" stroke="midnightblue" points="1334.81,-135.42 1343.8,-129.81 1333.27,-128.59 1334.81,-135.42"/>
</g>
<!-- Node25&#45;&gt;Node5 -->
<g id="edge33" class="edge">
<title>Node25&#45;&gt;Node5</title>
<path fill="none" stroke="midnightblue" d="M883.27,-224.08C888.64,-216.46 896.52,-205.26 903.08,-195.94"/>
<polygon fill="midnightblue" stroke="midnightblue" points="905.95,-197.94 908.84,-187.75 900.22,-193.91 905.95,-197.94"/>
</g>
<!-- Node25&#45;&gt;Node6 -->
<g id="edge34" class="edge">
<title>Node25&#45;&gt;Node6</title>
<path fill="none" stroke="midnightblue" d="M910.22,-232C1054.59,-227.57 1623.81,-208.88 1701,-188 1719.8,-182.91 1722.14,-175.78 1740,-168 1770.08,-154.89 1805.32,-142.36 1830.54,-133.87"/>
<polygon fill="midnightblue" stroke="midnightblue" points="1831.97,-137.08 1840.34,-130.6 1829.75,-130.44 1831.97,-137.08"/>
</g>
<!-- Node25&#45;&gt;Node7 -->
<g id="edge36" class="edge">
<title>Node25&#45;&gt;Node7</title>
<path fill="none" stroke="midnightblue" d="M894.19,-224.32C911.35,-215.66 937.95,-202.24 957.75,-192.25"/>
<polygon fill="midnightblue" stroke="midnightblue" points="959.5,-195.28 966.85,-187.65 956.35,-189.04 959.5,-195.28"/>
</g>
<!-- Node25&#45;&gt;Node8 -->
<g id="edge39" class="edge">
<title>Node25&#45;&gt;Node8</title>
<path fill="none" stroke="midnightblue" d="M906.63,-224.44C938.5,-215.24 989.33,-200.56 1024.56,-190.39"/>
<polygon fill="midnightblue" stroke="midnightblue" points="1025.87,-193.65 1034.51,-187.52 1023.93,-186.93 1025.87,-193.65"/>
</g>
<!-- Node25&#45;&gt;Node10 -->
<g id="edge40" class="edge">
<title>Node25&#45;&gt;Node10</title>
<path fill="none" stroke="midnightblue" d="M843.63,-233.06C723.68,-232.93 319.41,-229.42 281,-188 274.96,-181.48 275.06,-174.61 281,-168 343.68,-98.31 1035.72,-72.98 1198.06,-67.97"/>
<polygon fill="midnightblue" stroke="midnightblue" points="1198.51,-71.46 1208.4,-67.66 1198.3,-64.47 1198.51,-71.46"/>
</g>
<!-- Node25&#45;&gt;Node11 -->
<g id="edge41" class="edge">
<title>Node25&#45;&gt;Node11</title>
<path fill="none" stroke="midnightblue" d="M910.05,-232.16C1033.45,-228.86 1478.86,-215.65 1845,-188 1857.05,-187.09 1870.02,-185.86 1882.14,-184.61"/>
<polygon fill="midnightblue" stroke="midnightblue" points="1882.51,-188.09 1892.08,-183.55 1881.77,-181.13 1882.51,-188.09"/>
</g>
<!-- Node25&#45;&gt;Node14 -->
<g id="edge42" class="edge">
<title>Node25&#45;&gt;Node14</title>
<path fill="none" stroke="midnightblue" d="M843.99,-231.31C746.76,-226.23 453.02,-210.03 210,-188 208.69,-187.88 207.36,-187.76 206.02,-187.63"/>
<polygon fill="midnightblue" stroke="midnightblue" points="205.94,-184.11 195.64,-186.61 205.25,-191.07 205.94,-184.11"/>
</g>
<!-- Node25&#45;&gt;Node15 -->
<g id="edge43" class="edge">
<title>Node25&#45;&gt;Node15</title>
<path fill="none" stroke="midnightblue" d="M910.34,-231.44C1011.32,-226.58 1322.64,-210.7 1580,-188 1592.17,-186.93 1605.35,-185.54 1617.44,-184.17"/>
<polygon fill="midnightblue" stroke="midnightblue" points="1618.19,-187.61 1627.73,-182.99 1617.39,-180.66 1618.19,-187.61"/>
</g>
<!-- Node25&#45;&gt;Node17 -->
<g id="edge35" class="edge">
<title>Node25&#45;&gt;Node17</title>
<path fill="none" stroke="midnightblue" d="M843.81,-232.44C693.71,-229.74 84.49,-217.04 57,-188 -8.45,-118.86 157.87,-48.36 230.28,-21.91"/>
<polygon fill="midnightblue" stroke="midnightblue" points="231.61,-25.15 239.84,-18.47 229.25,-18.56 231.61,-25.15"/>
</g>
<!-- Node25&#45;&gt;Node19 -->
<g id="edge53" class="edge">
<title>Node25&#45;&gt;Node19</title>
<path fill="none" stroke="midnightblue" d="M910.18,-226.65C957.98,-217.49 1046.78,-200.49 1104.35,-189.47"/>
<polygon fill="midnightblue" stroke="midnightblue" points="1105.2,-192.87 1114.36,-187.55 1103.88,-185.99 1105.2,-192.87"/>
</g>
<!-- Node25&#45;&gt;Node20 -->
<g id="edge54" class="edge">
<title>Node25&#45;&gt;Node20</title>
<path fill="none" stroke="midnightblue" d="M910.2,-232.47C1073.53,-229.74 1793.37,-216.39 2039.85,-187.89"/>
<polygon fill="midnightblue" stroke="midnightblue" points="2040.31,-191.36 2049.82,-186.69 2039.47,-184.41 2040.31,-191.36"/>
</g>
<!-- Node25&#45;&gt;Node21 -->
<g id="edge66" class="edge">
<title>Node25&#45;&gt;Node21</title>
<path fill="none" stroke="midnightblue" d="M870.89,-224.08C865.72,-216.53 858.15,-205.49 851.81,-196.23"/>
<polygon fill="midnightblue" stroke="midnightblue" points="854.54,-194.02 846,-187.75 848.76,-197.98 854.54,-194.02"/>
</g>
<!-- Node26 -->
<g id="node26" class="node">
<title>Node26</title>
<g id="a_node26"><a xlink:title=" ">
<polygon fill="none" stroke="#bfbfbf" points="636,-56.5 636,-75.5 692,-75.5 692,-56.5 636,-56.5"/>
<text text-anchor="middle" x="664" y="-63.5" font-family="Helvetica,sans-Serif" font-size="10.00">optional</text>
</a>
</g>
</g>
<!-- Node25&#45;&gt;Node26 -->
<g id="edge37" class="edge">
<title>Node25&#45;&gt;Node26</title>
<path fill="none" stroke="midnightblue" d="M843.94,-233.2C720.13,-233.61 288.84,-231.87 248,-188 224.98,-163.28 225.44,-137.14 248,-112 273.02,-84.13 527.71,-71.96 625.79,-68.28"/>
<polygon fill="midnightblue" stroke="midnightblue" points="626,-71.78 635.87,-67.91 625.74,-64.78 626,-71.78"/>
</g>
<!-- Node27 -->
<g id="node27" class="node">
<title>Node27</title>
<g id="a_node27"><a xlink:title=" ">
<polygon fill="none" stroke="#bfbfbf" points="290.5,-168.5 290.5,-187.5 337.5,-187.5 337.5,-168.5 290.5,-168.5"/>
<text text-anchor="middle" x="314" y="-175.5" font-family="Helvetica,sans-Serif" font-size="10.00">queue</text>
</a>
</g>
</g>
<!-- Node25&#45;&gt;Node27 -->
<g id="edge38" class="edge">
<title>Node25&#45;&gt;Node27</title>
<path fill="none" stroke="midnightblue" d="M843.86,-232.27C761.45,-230.02 540.66,-221.27 347.71,-187.78"/>
<polygon fill="midnightblue" stroke="midnightblue" points="348.13,-184.3 337.68,-186.01 346.92,-191.19 348.13,-184.3"/>
</g>
<!-- Node28 -->
<g id="node28" class="node">
<title>Node28</title>
<g id="a_node28"><a xlink:href="instruction_8h.html" target="_top" xlink:title=" ">
<polygon fill="none" stroke="black" points="671.5,-168.5 671.5,-187.5 748.5,-187.5 748.5,-168.5 671.5,-168.5"/>
<text text-anchor="middle" x="710" y="-175.5" font-family="Helvetica,sans-Serif" font-size="10.00">instruction.h</text>
</a>
</g>
</g>
<!-- Node25&#45;&gt;Node28 -->
<g id="edge44" class="edge">
<title>Node25&#45;&gt;Node28</title>
<path fill="none" stroke="midnightblue" d="M850.54,-224.44C822.32,-215.32 777.46,-200.81 746.03,-190.65"/>
<polygon fill="midnightblue" stroke="midnightblue" points="746.93,-187.26 736.34,-187.52 744.78,-193.92 746.93,-187.26"/>
</g>
<!-- Node31 -->
<g id="node31" class="node">
<title>Node31</title>
<g id="a_node31"><a xlink:href="util_2lru__table_8h.html" target="_top" xlink:title=" ">
<polygon fill="none" stroke="black" points="1748.5,-168.5 1748.5,-187.5 1835.5,-187.5 1835.5,-168.5 1748.5,-168.5"/>
<text text-anchor="middle" x="1792" y="-175.5" font-family="Helvetica,sans-Serif" font-size="10.00">util/lru_table.h</text>
</a>
</g>
</g>
<!-- Node25&#45;&gt;Node31 -->
<g id="edge55" class="edge">
<title>Node25&#45;&gt;Node31</title>
<path fill="none" stroke="midnightblue" d="M910.18,-232.47C1024.76,-230.38 1414.27,-221.12 1734,-188 1735.46,-187.85 1736.93,-187.69 1738.42,-187.51"/>
<polygon fill="midnightblue" stroke="midnightblue" points="1738.88,-190.99 1748.36,-186.26 1738,-184.04 1738.88,-190.99"/>
</g>
<!-- Node36 -->
<g id="node36" class="node">
<title>Node36</title>
<g id="a_node36"><a xlink:title=" ">
<polygon fill="none" stroke="#bfbfbf" points="356,-168.5 356,-187.5 498,-187.5 498,-168.5 356,-168.5"/>
<text text-anchor="middle" x="427" y="-175.5" font-family="Helvetica,sans-Serif" font-size="10.00">ooo_cpu_module_decl.inc</text>
</a>
</g>
</g>
<!-- Node25&#45;&gt;Node36 -->
<g id="edge67" class="edge">
<title>Node25&#45;&gt;Node36</title>
<path fill="none" stroke="midnightblue" d="M843.91,-229.03C773.76,-220.61 608.33,-200.76 508.23,-188.75"/>
<polygon fill="midnightblue" stroke="midnightblue" points="508.5,-185.26 498.16,-187.54 507.67,-192.21 508.5,-185.26"/>
</g>
<!-- Node37 -->
<g id="node37" class="node">
<title>Node37</title>
<g id="a_node37"><a xlink:title=" ">
<polygon fill="none" stroke="#bfbfbf" points="516.5,-168.5 516.5,-187.5 653.5,-187.5 653.5,-168.5 516.5,-168.5"/>
<text text-anchor="middle" x="585" y="-175.5" font-family="Helvetica,sans-Serif" font-size="10.00">ooo_cpu_module_def.inc</text>
</a>
</g>
</g>
<!-- Node25&#45;&gt;Node37 -->
<g id="edge68" class="edge">
<title>Node25&#45;&gt;Node37</title>
<path fill="none" stroke="midnightblue" d="M843.79,-226.86C794.47,-217.74 701.26,-200.5 641.2,-189.39"/>
<polygon fill="midnightblue" stroke="midnightblue" points="641.59,-185.91 631.12,-187.53 640.32,-192.79 641.59,-185.91"/>
</g>
<!-- Node28&#45;&gt;Node4 -->
<g id="edge46" class="edge">
<title>Node28&#45;&gt;Node4</title>
<path fill="none" stroke="midnightblue" d="M748.72,-169.94C753.52,-169.21 758.36,-168.54 763,-168 1015.58,-138.67 1083.5,-175.71 1334,-132 1334.1,-131.98 1334.2,-131.96 1334.3,-131.95"/>
<polygon fill="midnightblue" stroke="midnightblue" points="1334.81,-135.42 1343.8,-129.82 1333.28,-128.59 1334.81,-135.42"/>
</g>
<!-- Node28&#45;&gt;Node10 -->
<g id="edge50" class="edge">
<title>Node28&#45;&gt;Node10</title>
<path fill="none" stroke="midnightblue" d="M748.81,-168.82C847.32,-148.06 1105.8,-93.59 1198.4,-74.08"/>
<polygon fill="midnightblue" stroke="midnightblue" points="1199.28,-77.47 1208.35,-71.98 1197.84,-70.62 1199.28,-77.47"/>
</g>
<!-- Node28&#45;&gt;Node12 -->
<g id="edge47" class="edge">
<title>Node28&#45;&gt;Node12</title>
<path fill="none" stroke="midnightblue" d="M734.78,-168.48C773.98,-155.21 852.83,-129.32 921,-112 1043.16,-80.96 1074.26,-74.02 1199,-56 1376.06,-30.42 1590.02,-17.22 1672.87,-12.76"/>
<polygon fill="midnightblue" stroke="midnightblue" points="1673.19,-16.25 1682.99,-12.23 1672.82,-9.26 1673.19,-16.25"/>
</g>
<!-- Node28&#45;&gt;Node16 -->
<g id="edge48" class="edge">
<title>Node28&#45;&gt;Node16</title>
<path fill="none" stroke="midnightblue" d="M748.73,-170.04C753.53,-169.29 758.37,-168.59 763,-168 943.42,-145.06 1159.93,-130.78 1250.21,-125.42"/>
<polygon fill="midnightblue" stroke="midnightblue" points="1250.56,-128.9 1260.33,-124.82 1250.14,-121.91 1250.56,-128.9"/>
</g>
<!-- Node28&#45;&gt;Node17 -->
<g id="edge49" class="edge">
<title>Node28&#45;&gt;Node17</title>
<path fill="none" stroke="midnightblue" d="M672.68,-168.47C592.74,-149.9 407.57,-105.11 350,-76 323.44,-62.57 296.43,-41.23 279.46,-26.69"/>
<polygon fill="midnightblue" stroke="midnightblue" points="281.4,-23.74 271.57,-19.79 276.79,-29.01 281.4,-23.74"/>
</g>
<!-- Node29 -->
<g id="node29" class="node">
<title>Node29</title>
<g id="a_node29"><a xlink:title=" ">
<polygon fill="none" stroke="#bfbfbf" points="1317,-56.5 1317,-75.5 1381,-75.5 1381,-56.5 1317,-56.5"/>
<text text-anchor="middle" x="1349" y="-63.5" font-family="Helvetica,sans-Serif" font-size="10.00">algorithm</text>
</a>
</g>
</g>
<!-- Node28&#45;&gt;Node29 -->
<g id="edge45" class="edge">
<title>Node28&#45;&gt;Node29</title>
<path fill="none" stroke="midnightblue" d="M748.74,-170.84C802.01,-162.33 900.84,-146.4 985,-132 1101.76,-112.02 1239.32,-87.07 1307.03,-74.7"/>
<polygon fill="midnightblue" stroke="midnightblue" points="1307.68,-78.14 1316.89,-72.9 1306.42,-71.25 1307.68,-78.14"/>
</g>
<!-- Node30 -->
<g id="node30" class="node">
<title>Node30</title>
<g id="a_node30"><a xlink:href="trace__instruction_8h.html" target="_top" xlink:title=" ">
<polygon fill="none" stroke="black" points="359.5,-56.5 359.5,-75.5 466.5,-75.5 466.5,-56.5 359.5,-56.5"/>
<text text-anchor="middle" x="413" y="-63.5" font-family="Helvetica,sans-Serif" font-size="10.00">trace_instruction.h</text>
</a>
</g>
</g>
<!-- Node28&#45;&gt;Node30 -->
<g id="edge51" class="edge">
<title>Node28&#45;&gt;Node30</title>
<path fill="none" stroke="midnightblue" d="M686.69,-168.37C634.1,-148.89 506.09,-101.48 445.64,-79.09"/>
<polygon fill="midnightblue" stroke="midnightblue" points="446.79,-75.78 436.2,-75.59 444.36,-82.35 446.79,-75.78"/>
</g>
<!-- Node30&#45;&gt;Node17 -->
<g id="edge52" class="edge">
<title>Node30&#45;&gt;Node17</title>
<path fill="none" stroke="midnightblue" d="M389.07,-56.44C363.33,-47.24 322.28,-32.56 293.83,-22.38"/>
<polygon fill="midnightblue" stroke="midnightblue" points="294.93,-19.06 284.34,-18.99 292.58,-25.65 294.93,-19.06"/>
</g>
<!-- Node32 -->
<g id="node32" class="node">
<title>Node32</title>
<g id="a_node32"><a xlink:href="msl_2lru__table_8h.html" target="_top" xlink:title=" ">
<polygon fill="none" stroke="black" points="1571.5,-112.5 1571.5,-131.5 1660.5,-131.5 1660.5,-112.5 1571.5,-112.5"/>
<text text-anchor="middle" x="1616" y="-119.5" font-family="Helvetica,sans-Serif" font-size="10.00">msl/lru_table.h</text>
</a>
</g>
</g>
<!-- Node31&#45;&gt;Node32 -->
<g id="edge56" class="edge">
<title>Node31&#45;&gt;Node32</title>
<path fill="none" stroke="midnightblue" d="M1764.11,-168.44C1734.25,-159.28 1686.69,-144.69 1653.54,-134.52"/>
<polygon fill="midnightblue" stroke="midnightblue" points="1654.34,-131.1 1643.76,-131.52 1652.29,-137.8 1654.34,-131.1"/>
</g>
<!-- Node32&#45;&gt;Node10 -->
<g id="edge62" class="edge">
<title>Node32&#45;&gt;Node10</title>
<path fill="none" stroke="midnightblue" d="M1571.23,-113.43C1568.11,-112.94 1565.01,-112.46 1562,-112 1453.87,-95.62 1325.38,-78.88 1265.64,-71.25"/>
<polygon fill="midnightblue" stroke="midnightblue" points="1266.01,-67.77 1255.64,-69.98 1265.12,-74.72 1266.01,-67.77"/>
</g>
<!-- Node32&#45;&gt;Node12 -->
<g id="edge59" class="edge">
<title>Node32&#45;&gt;Node12</title>
<path fill="none" stroke="midnightblue" d="M1638.23,-112.49C1654.53,-105.16 1676,-93.05 1689,-76 1699.24,-62.57 1703.97,-43.76 1706.15,-29.82"/>
<polygon fill="midnightblue" stroke="midnightblue" points="1709.62,-30.25 1707.41,-19.89 1702.68,-29.37 1709.62,-30.25"/>
</g>
<!-- Node32&#45;&gt;Node26 -->
<g id="edge60" class="edge">
<title>Node32&#45;&gt;Node26</title>
<path fill="none" stroke="midnightblue" d="M1571.27,-113.14C1568.14,-112.71 1565.02,-112.33 1562,-112 1230.24,-76.16 826.38,-68.8 702.16,-67.34"/>
<polygon fill="midnightblue" stroke="midnightblue" points="702.06,-63.84 692.02,-67.23 701.99,-70.84 702.06,-63.84"/>
</g>
<!-- Node32&#45;&gt;Node29 -->
<g id="edge57" class="edge">
<title>Node32&#45;&gt;Node29</title>
<path fill="none" stroke="midnightblue" d="M1573.69,-112.44C1523.62,-102.32 1440.76,-85.56 1390.87,-75.47"/>
<polygon fill="midnightblue" stroke="midnightblue" points="1391.55,-72.03 1381.05,-73.48 1390.16,-78.9 1391.55,-72.03"/>
</g>
<!-- Node33 -->
<g id="node33" class="node">
<title>Node33</title>
<g id="a_node33"><a xlink:title=" ">
<polygon fill="none" stroke="#bfbfbf" points="1564,-56.5 1564,-75.5 1616,-75.5 1616,-56.5 1564,-56.5"/>
<text text-anchor="middle" x="1590" y="-63.5" font-family="Helvetica,sans-Serif" font-size="10.00">cassert</text>
</a>
</g>
</g>
<!-- Node32&#45;&gt;Node33 -->
<g id="edge58" class="edge">
<title>Node32&#45;&gt;Node33</title>
<path fill="none" stroke="midnightblue" d="M1611.71,-112.08C1608.15,-104.69 1602.98,-93.95 1598.58,-84.81"/>
<polygon fill="midnightblue" stroke="midnightblue" points="1601.71,-83.24 1594.21,-75.75 1595.4,-86.28 1601.71,-83.24"/>
</g>
<!-- Node34 -->
<g id="node34" class="node">
<title>Node34</title>
<g id="a_node34"><a xlink:title=" ">
<polygon fill="none" stroke="#bfbfbf" points="1634.5,-56.5 1634.5,-75.5 1679.5,-75.5 1679.5,-56.5 1634.5,-56.5"/>
<text text-anchor="middle" x="1657" y="-63.5" font-family="Helvetica,sans-Serif" font-size="10.00">utility</text>
</a>
</g>
</g>
<!-- Node32&#45;&gt;Node34 -->
<g id="edge61" class="edge">
<title>Node32&#45;&gt;Node34</title>
<path fill="none" stroke="midnightblue" d="M1622.77,-112.08C1628.56,-104.46 1637.06,-93.26 1644.14,-83.94"/>
<polygon fill="midnightblue" stroke="midnightblue" points="1647.1,-85.83 1650.36,-75.75 1641.52,-81.6 1647.1,-85.83"/>
</g>
<!-- Node35 -->
<g id="node35" class="node">
<title>Node35</title>
<g id="a_node35"><a xlink:href="msl_2bits_8h.html" target="_top" xlink:title=" ">
<polygon fill="none" stroke="black" points="1480.5,-56.5 1480.5,-75.5 1545.5,-75.5 1545.5,-56.5 1480.5,-56.5"/>
<text text-anchor="middle" x="1513" y="-63.5" font-family="Helvetica,sans-Serif" font-size="10.00">msl/bits.h</text>
</a>
</g>
</g>
<!-- Node32&#45;&gt;Node35 -->
<g id="edge63" class="edge">
<title>Node32&#45;&gt;Node35</title>
<path fill="none" stroke="midnightblue" d="M1599.45,-112.32C1583.01,-103.7 1557.57,-90.36 1538.53,-80.39"/>
<polygon fill="midnightblue" stroke="midnightblue" points="1539.99,-77.2 1529.51,-75.65 1536.74,-83.4 1539.99,-77.2"/>
</g>
<!-- Node35&#45;&gt;Node12 -->
<g id="edge64" class="edge">
<title>Node35&#45;&gt;Node12</title>
<path fill="none" stroke="midnightblue" d="M1543.9,-56.44C1579.04,-46.71 1636.3,-30.86 1673.04,-20.68"/>
<polygon fill="midnightblue" stroke="midnightblue" points="1674.12,-24.01 1682.83,-17.97 1672.26,-17.27 1674.12,-24.01"/>
</g>
<!-- Node35&#45;&gt;Node17 -->
<g id="edge65" class="edge">
<title>Node35&#45;&gt;Node17</title>
<path fill="none" stroke="midnightblue" d="M1480.48,-58.11C1475.65,-57.28 1470.71,-56.54 1466,-56 1229.33,-29.08 460.83,-14.44 294.1,-11.54"/>
<polygon fill="midnightblue" stroke="midnightblue" points="294.06,-8.04 284,-11.37 293.94,-15.04 294.06,-8.04"/>
</g>
<!-- Node38&#45;&gt;Node4 -->
<g id="edge70" class="edge">
<title>Node38&#45;&gt;Node4</title>
<path fill="none" stroke="midnightblue" d="M2031.75,-229.35C2073.53,-221.5 2158.23,-200.99 2127,-168 2101.91,-141.49 1507.41,-134.54 1471,-132 1445.78,-130.24 1417.23,-127.79 1396.12,-125.89"/>
<polygon fill="midnightblue" stroke="midnightblue" points="1396.38,-122.4 1386.1,-124.98 1395.75,-129.37 1396.38,-122.4"/>
</g>
<!-- Node38&#45;&gt;Node6 -->
<g id="edge71" class="edge">
<title>Node38&#45;&gt;Node6</title>
<path fill="none" stroke="midnightblue" d="M2031.82,-231.38C2081.8,-226.89 2197.46,-211.59 2160,-168 2126.48,-129 1967.98,-123.41 1897.7,-122.87"/>
<polygon fill="midnightblue" stroke="midnightblue" points="1897.62,-119.37 1887.6,-122.83 1897.58,-126.37 1897.62,-119.37"/>
</g>
<!-- Node38&#45;&gt;Node9 -->
<g id="edge72" class="edge">
<title>Node38&#45;&gt;Node9</title>
<path fill="none" stroke="midnightblue" d="M2010,-224.08C2010,-217.01 2010,-206.86 2010,-197.99"/>
<polygon fill="midnightblue" stroke="midnightblue" points="2013.5,-197.75 2010,-187.75 2006.5,-197.75 2013.5,-197.75"/>
</g>
<!-- Node38&#45;&gt;Node15 -->
<g id="edge73" class="edge">
<title>Node38&#45;&gt;Node15</title>
<path fill="none" stroke="midnightblue" d="M1988.37,-229.66C1931.57,-220.9 1777.42,-197.12 1702.29,-185.53"/>
<polygon fill="midnightblue" stroke="midnightblue" points="1702.65,-182.04 1692.23,-183.97 1701.58,-188.96 1702.65,-182.04"/>
</g>
<!-- Node38&#45;&gt;Node20 -->
<g id="edge74" class="edge">
<title>Node38&#45;&gt;Node20</title>
<path fill="none" stroke="midnightblue" d="M2021.89,-224.32C2033.15,-216.11 2050.29,-203.6 2063.71,-193.81"/>
<polygon fill="midnightblue" stroke="midnightblue" points="2065.88,-196.56 2071.89,-187.83 2061.75,-190.9 2065.88,-196.56"/>
</g>
<!-- Node38&#45;&gt;Node31 -->
<g id="edge75" class="edge">
<title>Node38&#45;&gt;Node31</title>
<path fill="none" stroke="midnightblue" d="M1988.3,-227.62C1952.98,-218.88 1882.38,-201.39 1836.17,-189.94"/>
<polygon fill="midnightblue" stroke="midnightblue" points="1836.97,-186.53 1826.42,-187.53 1835.29,-193.33 1836.97,-186.53"/>
</g>
<!-- Node39&#45;&gt;Node3 -->
<g id="edge81" class="edge">
<title>Node39&#45;&gt;Node3</title>
<path fill="none" stroke="midnightblue" d="M1561.97,-280.92C1518.44,-270.87 1444.49,-253.81 1400.05,-243.55"/>
<polygon fill="midnightblue" stroke="midnightblue" points="1400.76,-240.12 1390.23,-241.28 1399.19,-246.94 1400.76,-240.12"/>
</g>
<!-- Node39&#45;&gt;Node6 -->
<g id="edge77" class="edge">
<title>Node39&#45;&gt;Node6</title>
<path fill="none" stroke="midnightblue" d="M1632,-289.24C1748.49,-289.16 2119,-281.47 2177,-188 2181.69,-180.45 2182.82,-174.72 2177,-168 2141.11,-126.58 1970.78,-122.4 1897.57,-122.56"/>
<polygon fill="midnightblue" stroke="midnightblue" points="1897.48,-119.06 1887.5,-122.61 1897.52,-126.06 1897.48,-119.06"/>
</g>
<!-- Node39&#45;&gt;Node13 -->
<g id="edge78" class="edge">
<title>Node39&#45;&gt;Node13</title>
<path fill="none" stroke="midnightblue" d="M1632.18,-288.7C1735.16,-287.41 2034.4,-280.52 2124,-244 2165.97,-226.89 2213.72,-207.78 2192,-168 2184.18,-153.68 2169.64,-143.24 2155.82,-136.04"/>
<polygon fill="midnightblue" stroke="midnightblue" points="2157,-132.72 2146.47,-131.56 2153.98,-139.03 2157,-132.72"/>
</g>
<!-- Node39&#45;&gt;Node16 -->
<g id="edge79" class="edge">
<title>Node39&#45;&gt;Node16</title>
<path fill="none" stroke="midnightblue" d="M1598.89,-280.18C1603.11,-257.88 1610.65,-198.85 1580,-168 1543.11,-130.87 1403.73,-140.64 1335.45,-131.72"/>
<polygon fill="midnightblue" stroke="midnightblue" points="1335.93,-128.25 1325.52,-130.19 1334.87,-135.17 1335.93,-128.25"/>
</g>
<!-- Node39&#45;&gt;Node17 -->
<g id="edge80" class="edge">
<title>Node39&#45;&gt;Node17</title>
<path fill="none" stroke="midnightblue" d="M1561.67,-287.06C1453.15,-281.06 1115.03,-262.16 835,-244 649.27,-231.96 0,-365.12 0,-179 0,-179 0,-179 0,-121 0,-22.46 159.51,-10.73 229.61,-10.33"/>
<polygon fill="midnightblue" stroke="midnightblue" points="229.66,-13.83 239.66,-10.34 229.67,-6.83 229.66,-13.83"/>
</g>
<!-- Node39&#45;&gt;Node20 -->
<g id="edge82" class="edge">
<title>Node39&#45;&gt;Node20</title>
<path fill="none" stroke="midnightblue" d="M1632.03,-289.24C1724.43,-289.3 1972.37,-285.48 2041,-244 2058.69,-233.31 2070.58,-212.23 2077.29,-196.97"/>
<polygon fill="midnightblue" stroke="midnightblue" points="2080.6,-198.12 2081.12,-187.54 2074.12,-195.49 2080.6,-198.12"/>
</g>
</g>
</svg>
