<?xml version="1.0" encoding="UTF-8" standalone="no"?>
<!DOCTYPE svg PUBLIC "-//W3C//DTD SVG 1.1//EN"
 "http://www.w3.org/Graphics/SVG/1.1/DTD/svg11.dtd">
<!-- Generated by graphviz version 2.43.0 (0)
 -->
<!-- Title: test/cpp/src/410&#45;queue&#45;collision.cc Pages: 1 -->
<svg width="1535pt" height="263pt"
 viewBox="0.00 0.00 1534.56 263.00" xmlns="http://www.w3.org/2000/svg" xmlns:xlink="http://www.w3.org/1999/xlink">
<g id="graph0" class="graph" transform="scale(1 1) rotate(0) translate(4 259)">
<title>test/cpp/src/410&#45;queue&#45;collision.cc</title>
<!-- Node1 -->
<g id="node1" class="node">
<title>Node1</title>
<g id="a_node1"><a xlink:title=" ">
<polygon fill="#bfbfbf" stroke="black" points="419,-224.5 419,-254.5 547,-254.5 547,-224.5 419,-224.5"/>
<text text-anchor="start" x="427" y="-242.5" font-family="Helvetica,sans-Serif" font-size="10.00">test/cpp/src/410&#45;queue</text>
<text text-anchor="middle" x="483" y="-231.5" font-family="Helvetica,sans-Serif" font-size="10.00">&#45;collision.cc</text>
</a>
</g>
</g>
<!-- Node2 -->
<g id="node2" class="node">
<title>Node2</title>
<g id="a_node2"><a xlink:title=" ">
<polygon fill="none" stroke="#bfbfbf" points="0,-168.5 0,-187.5 64,-187.5 64,-168.5 0,-168.5"/>
<text text-anchor="middle" x="32" y="-175.5" font-family="Helvetica,sans-Serif" font-size="10.00">catch.hpp</text>
</a>
</g>
</g>
<!-- Node1&#45;&gt;Node2 -->
<g id="edge1" class="edge">
<title>Node1&#45;&gt;Node2</title>
<path fill="none" stroke="midnightblue" d="M418.97,-231.9C338.98,-223.34 197.99,-207.2 78,-188 76.73,-187.8 75.45,-187.59 74.16,-187.37"/>
<polygon fill="midnightblue" stroke="midnightblue" points="74.58,-183.89 64.12,-185.58 73.35,-190.78 74.58,-183.89"/>
</g>
<!-- Node3 -->
<g id="node3" class="node">
<title>Node3</title>
<g id="a_node3"><a xlink:href="mocks_8hpp.html" target="_top" xlink:title=" ">
<polygon fill="none" stroke="black" points="840,-168.5 840,-187.5 910,-187.5 910,-168.5 840,-168.5"/>
<text text-anchor="middle" x="875" y="-175.5" font-family="Helvetica,sans-Serif" font-size="10.00">mocks.hpp</text>
</a>
</g>
</g>
<!-- Node1&#45;&gt;Node3 -->
<g id="edge2" class="edge">
<title>Node1&#45;&gt;Node3</title>
<path fill="none" stroke="midnightblue" d="M547.29,-228.74C626.83,-216.67 760.24,-196.42 829.76,-185.87"/>
<polygon fill="midnightblue" stroke="midnightblue" points="830.59,-189.28 839.95,-184.32 829.54,-182.36 830.59,-189.28"/>
</g>
<!-- Node17 -->
<g id="node17" class="node">
<title>Node17</title>
<g id="a_node17"><a xlink:title=" ">
<polygon fill="none" stroke="#bfbfbf" points="1382.5,-56.5 1382.5,-75.5 1511.5,-75.5 1511.5,-56.5 1382.5,-56.5"/>
<text text-anchor="middle" x="1447" y="-63.5" font-family="Helvetica,sans-Serif" font-size="10.00">champsim_constants.h</text>
</a>
</g>
</g>
<!-- Node1&#45;&gt;Node17 -->
<g id="edge34" class="edge">
<title>Node1&#45;&gt;Node17</title>
<path fill="none" stroke="midnightblue" d="M547.04,-234.56C680.98,-225.28 999.8,-197.65 1259,-132 1315.61,-117.66 1379.46,-93.9 1416.29,-79.43"/>
<polygon fill="midnightblue" stroke="midnightblue" points="1417.92,-82.54 1425.93,-75.61 1415.34,-76.04 1417.92,-82.54"/>
</g>
<!-- Node18 -->
<g id="node18" class="node">
<title>Node18</title>
<g id="a_node18"><a xlink:href="channel_8h.html" target="_top" xlink:title=" ">
<polygon fill="none" stroke="black" points="196,-56.5 196,-75.5 260,-75.5 260,-56.5 196,-56.5"/>
<text text-anchor="middle" x="228" y="-63.5" font-family="Helvetica,sans-Serif" font-size="10.00">channel.h</text>
</a>
</g>
</g>
<!-- Node1&#45;&gt;Node18 -->
<g id="edge33" class="edge">
<title>Node1&#45;&gt;Node18</title>
<path fill="none" stroke="midnightblue" d="M462.13,-224.47C414.3,-192.3 297.2,-113.54 249.13,-81.21"/>
<polygon fill="midnightblue" stroke="midnightblue" points="250.98,-78.24 240.73,-75.56 247.07,-84.04 250.98,-78.24"/>
</g>
<!-- Node4 -->
<g id="node4" class="node">
<title>Node4</title>
<g id="a_node4"><a xlink:title=" ">
<polygon fill="none" stroke="#bfbfbf" points="1206.5,-0.5 1206.5,-19.5 1253.5,-19.5 1253.5,-0.5 1206.5,-0.5"/>
<text text-anchor="middle" x="1230" y="-7.5" font-family="Helvetica,sans-Serif" font-size="10.00">deque</text>
</a>
</g>
</g>
<!-- Node3&#45;&gt;Node4 -->
<g id="edge3" class="edge">
<title>Node3&#45;&gt;Node4</title>
<path fill="none" stroke="midnightblue" d="M910.11,-174.83C1008.27,-167.97 1281.89,-143.06 1335,-76 1357.97,-47 1302.25,-27.56 1263.5,-17.97"/>
<polygon fill="midnightblue" stroke="midnightblue" points="1264.12,-14.52 1253.59,-15.63 1262.52,-21.33 1264.12,-14.52"/>
</g>
<!-- Node5 -->
<g id="node5" class="node">
<title>Node5</title>
<g id="a_node5"><a xlink:title=" ">
<polygon fill="none" stroke="#bfbfbf" points="1389.5,-0.5 1389.5,-19.5 1454.5,-19.5 1454.5,-0.5 1389.5,-0.5"/>
<text text-anchor="middle" x="1422" y="-7.5" font-family="Helvetica,sans-Serif" font-size="10.00">exception</text>
</a>
</g>
</g>
<!-- Node3&#45;&gt;Node5 -->
<g id="edge4" class="edge">
<title>Node3&#45;&gt;Node5</title>
<path fill="none" stroke="midnightblue" d="M910.02,-177.35C1033.24,-177.75 1443.54,-171.76 1521,-76 1541.21,-51.01 1499.84,-32.31 1464.54,-21.53"/>
<polygon fill="midnightblue" stroke="midnightblue" points="1465.39,-18.13 1454.81,-18.7 1463.43,-24.85 1465.39,-18.13"/>
</g>
<!-- Node6 -->
<g id="node6" class="node">
<title>Node6</title>
<g id="a_node6"><a xlink:title=" ">
<polygon fill="none" stroke="#bfbfbf" points="89.5,-0.5 89.5,-19.5 154.5,-19.5 154.5,-0.5 89.5,-0.5"/>
<text text-anchor="middle" x="122" y="-7.5" font-family="Helvetica,sans-Serif" font-size="10.00">functional</text>
</a>
</g>
</g>
<!-- Node3&#45;&gt;Node6 -->
<g id="edge5" class="edge">
<title>Node3&#45;&gt;Node6</title>
<path fill="none" stroke="midnightblue" d="M839.65,-177.31C723.27,-177.89 353.35,-176.15 244,-132 192.53,-111.22 151.43,-56.73 132.82,-28.51"/>
<polygon fill="midnightblue" stroke="midnightblue" points="135.53,-26.25 127.19,-19.72 129.63,-30.03 135.53,-26.25"/>
</g>
<!-- Node7 -->
<g id="node7" class="node">
<title>Node7</title>
<g id="a_node7"><a xlink:title=" ">
<polygon fill="none" stroke="#bfbfbf" points="173,-0.5 173,-19.5 217,-19.5 217,-0.5 173,-0.5"/>
<text text-anchor="middle" x="195" y="-7.5" font-family="Helvetica,sans-Serif" font-size="10.00">limits</text>
</a>
</g>
</g>
<!-- Node3&#45;&gt;Node7 -->
<g id="edge6" class="edge">
<title>Node3&#45;&gt;Node7</title>
<path fill="none" stroke="midnightblue" d="M839.71,-177.57C711.45,-178.8 273.03,-175.58 187,-76 175.99,-63.26 180.4,-43.51 186.06,-29.13"/>
<polygon fill="midnightblue" stroke="midnightblue" points="189.36,-30.34 190.21,-19.78 182.96,-27.5 189.36,-30.34"/>
</g>
<!-- Node8 -->
<g id="node8" class="node">
<title>Node8</title>
<g id="a_node8"><a xlink:href="cache_8h.html" target="_top" xlink:title=" ">
<polygon fill="none" stroke="black" points="848,-112.5 848,-131.5 902,-131.5 902,-112.5 848,-112.5"/>
<text text-anchor="middle" x="875" y="-119.5" font-family="Helvetica,sans-Serif" font-size="10.00">cache.h</text>
</a>
</g>
</g>
<!-- Node3&#45;&gt;Node8 -->
<g id="edge7" class="edge">
<title>Node3&#45;&gt;Node8</title>
<path fill="none" stroke="midnightblue" d="M875,-168.08C875,-161.01 875,-150.86 875,-141.99"/>
<polygon fill="midnightblue" stroke="midnightblue" points="878.5,-141.75 875,-131.75 871.5,-141.75 878.5,-141.75"/>
</g>
<!-- Node21 -->
<g id="node21" class="node">
<title>Node21</title>
<g id="a_node21"><a xlink:href="operable_8h.html" target="_top" xlink:title=" ">
<polygon fill="none" stroke="black" points="1258,-56.5 1258,-75.5 1326,-75.5 1326,-56.5 1258,-56.5"/>
<text text-anchor="middle" x="1292" y="-63.5" font-family="Helvetica,sans-Serif" font-size="10.00">operable.h</text>
</a>
</g>
</g>
<!-- Node3&#45;&gt;Node21 -->
<g id="edge32" class="edge">
<title>Node3&#45;&gt;Node21</title>
<path fill="none" stroke="midnightblue" d="M907.37,-168.46C982.05,-148.76 1166.32,-100.15 1249.75,-78.15"/>
<polygon fill="midnightblue" stroke="midnightblue" points="1250.87,-81.47 1259.65,-75.53 1249.08,-74.7 1250.87,-81.47"/>
</g>
<!-- Node8&#45;&gt;Node4 -->
<g id="edge10" class="edge">
<title>Node8&#45;&gt;Node4</title>
<path fill="none" stroke="midnightblue" d="M902.14,-121.05C973.63,-120.62 1164.8,-115.7 1211,-76 1224.22,-64.64 1228.5,-44.65 1229.76,-29.82"/>
<polygon fill="midnightblue" stroke="midnightblue" points="1233.26,-29.88 1230.24,-19.73 1226.27,-29.55 1233.26,-29.88"/>
</g>
<!-- Node9 -->
<g id="node9" class="node">
<title>Node9</title>
<g id="a_node9"><a xlink:title=" ">
<polygon fill="none" stroke="#bfbfbf" points="623,-0.5 623,-19.5 665,-19.5 665,-0.5 623,-0.5"/>
<text text-anchor="middle" x="644" y="-7.5" font-family="Helvetica,sans-Serif" font-size="10.00">array</text>
</a>
</g>
</g>
<!-- Node8&#45;&gt;Node9 -->
<g id="edge8" class="edge">
<title>Node8&#45;&gt;Node9</title>
<path fill="none" stroke="midnightblue" d="M874.97,-112.4C874.42,-98.42 871.2,-70.83 855,-56 829.02,-32.22 727.36,-19.1 675.22,-13.8"/>
<polygon fill="midnightblue" stroke="midnightblue" points="675.48,-10.31 665.19,-12.82 674.8,-17.28 675.48,-10.31"/>
</g>
<!-- Node10 -->
<g id="node10" class="node">
<title>Node10</title>
<g id="a_node10"><a xlink:title=" ">
<polygon fill="none" stroke="#bfbfbf" points="903,-56.5 903,-75.5 947,-75.5 947,-56.5 903,-56.5"/>
<text text-anchor="middle" x="925" y="-63.5" font-family="Helvetica,sans-Serif" font-size="10.00">bitset</text>
</a>
</g>
</g>
<!-- Node8&#45;&gt;Node10 -->
<g id="edge9" class="edge">
<title>Node8&#45;&gt;Node10</title>
<path fill="none" stroke="midnightblue" d="M883.26,-112.08C890.46,-104.3 901.11,-92.8 909.85,-83.37"/>
<polygon fill="midnightblue" stroke="midnightblue" points="912.67,-85.47 916.9,-75.75 907.53,-80.71 912.67,-85.47"/>
</g>
<!-- Node11 -->
<g id="node11" class="node">
<title>Node11</title>
<g id="a_node11"><a xlink:title=" ">
<polygon fill="none" stroke="#bfbfbf" points="965,-56.5 965,-75.5 1023,-75.5 1023,-56.5 965,-56.5"/>
<text text-anchor="middle" x="994" y="-63.5" font-family="Helvetica,sans-Serif" font-size="10.00">memory</text>
</a>
</g>
</g>
<!-- Node8&#45;&gt;Node11 -->
<g id="edge11" class="edge">
<title>Node8&#45;&gt;Node11</title>
<path fill="none" stroke="midnightblue" d="M893.86,-112.44C913.27,-103.64 943.73,-89.81 965.96,-79.72"/>
<polygon fill="midnightblue" stroke="midnightblue" points="967.57,-82.84 975.23,-75.52 964.68,-76.46 967.57,-82.84"/>
</g>
<!-- Node12 -->
<g id="node12" class="node">
<title>Node12</title>
<g id="a_node12"><a xlink:title=" ">
<polygon fill="none" stroke="#bfbfbf" points="1041.5,-56.5 1041.5,-75.5 1106.5,-75.5 1106.5,-56.5 1041.5,-56.5"/>
<text text-anchor="middle" x="1074" y="-63.5" font-family="Helvetica,sans-Serif" font-size="10.00">stdexcept</text>
</a>
</g>
</g>
<!-- Node8&#45;&gt;Node12 -->
<g id="edge12" class="edge">
<title>Node8&#45;&gt;Node12</title>
<path fill="none" stroke="midnightblue" d="M902.25,-113.6C935.94,-104.46 993.59,-88.82 1032.72,-78.2"/>
<polygon fill="midnightblue" stroke="midnightblue" points="1033.75,-81.55 1042.49,-75.55 1031.92,-74.79 1033.75,-81.55"/>
</g>
<!-- Node13 -->
<g id="node13" class="node">
<title>Node13</title>
<g id="a_node13"><a xlink:title=" ">
<polygon fill="none" stroke="#bfbfbf" points="278,-56.5 278,-75.5 322,-75.5 322,-56.5 278,-56.5"/>
<text text-anchor="middle" x="300" y="-63.5" font-family="Helvetica,sans-Serif" font-size="10.00">string</text>
</a>
</g>
</g>
<!-- Node8&#45;&gt;Node13 -->
<g id="edge13" class="edge">
<title>Node8&#45;&gt;Node13</title>
<path fill="none" stroke="midnightblue" d="M847.89,-120.28C768.61,-117.86 530.54,-108.22 336,-76 334.75,-75.79 333.48,-75.56 332.2,-75.32"/>
<polygon fill="midnightblue" stroke="midnightblue" points="332.87,-71.88 322.35,-73.18 331.38,-78.72 332.87,-71.88"/>
</g>
<!-- Node14 -->
<g id="node14" class="node">
<title>Node14</title>
<g id="a_node14"><a xlink:title=" ">
<polygon fill="none" stroke="#bfbfbf" points="326.5,-0.5 326.5,-19.5 373.5,-19.5 373.5,-0.5 326.5,-0.5"/>
<text text-anchor="middle" x="350" y="-7.5" font-family="Helvetica,sans-Serif" font-size="10.00">vector</text>
</a>
</g>
</g>
<!-- Node8&#45;&gt;Node14 -->
<g id="edge14" class="edge">
<title>Node8&#45;&gt;Node14</title>
<path fill="none" stroke="midnightblue" d="M847.66,-120.35C747.74,-117.71 406.19,-106.54 369,-76 355.53,-64.94 351.29,-44.9 350.11,-29.98"/>
<polygon fill="midnightblue" stroke="midnightblue" points="353.6,-29.66 349.69,-19.81 346.6,-29.94 353.6,-29.66"/>
</g>
<!-- Node15 -->
<g id="node15" class="node">
<title>Node15</title>
<g id="a_node15"><a xlink:href="champsim_8h.html" target="_top" xlink:title=" ">
<polygon fill="none" stroke="black" points="1124.5,-56.5 1124.5,-75.5 1201.5,-75.5 1201.5,-56.5 1124.5,-56.5"/>
<text text-anchor="middle" x="1163" y="-63.5" font-family="Helvetica,sans-Serif" font-size="10.00">champsim.h</text>
</a>
</g>
</g>
<!-- Node8&#45;&gt;Node15 -->
<g id="edge15" class="edge">
<title>Node8&#45;&gt;Node15</title>
<path fill="none" stroke="midnightblue" d="M902.11,-115.98C945.03,-108.02 1031.5,-91.96 1114.44,-76.29"/>
<polygon fill="midnightblue" stroke="midnightblue" points="1115.1,-79.73 1124.27,-74.43 1113.8,-72.85 1115.1,-79.73"/>
</g>
<!-- Node8&#45;&gt;Node17 -->
<g id="edge18" class="edge">
<title>Node8&#45;&gt;Node17</title>
<path fill="none" stroke="midnightblue" d="M902.2,-118.43C986.18,-110.5 1243.43,-86.22 1372.09,-74.07"/>
<polygon fill="midnightblue" stroke="midnightblue" points="1372.63,-77.54 1382.25,-73.11 1371.97,-70.57 1372.63,-77.54"/>
</g>
<!-- Node8&#45;&gt;Node18 -->
<g id="edge19" class="edge">
<title>Node8&#45;&gt;Node18</title>
<path fill="none" stroke="midnightblue" d="M847.97,-120.36C763.83,-118.08 499,-108.73 270.32,-75.99"/>
<polygon fill="midnightblue" stroke="midnightblue" points="270.55,-72.48 260.15,-74.51 269.54,-79.41 270.55,-72.48"/>
</g>
<!-- Node20 -->
<g id="node20" class="node">
<title>Node20</title>
<g id="a_node20"><a xlink:href="module__impl_8h.html" target="_top" xlink:title=" ">
<polygon fill="none" stroke="black" points="378.5,-56.5 378.5,-75.5 467.5,-75.5 467.5,-56.5 378.5,-56.5"/>
<text text-anchor="middle" x="423" y="-63.5" font-family="Helvetica,sans-Serif" font-size="10.00">module_impl.h</text>
</a>
</g>
</g>
<!-- Node8&#45;&gt;Node20 -->
<g id="edge27" class="edge">
<title>Node8&#45;&gt;Node20</title>
<path fill="none" stroke="midnightblue" d="M847.84,-118.47C784.7,-112.46 622.92,-96.43 477.5,-76.15"/>
<polygon fill="midnightblue" stroke="midnightblue" points="477.89,-72.67 467.5,-74.74 476.92,-79.6 477.89,-72.67"/>
</g>
<!-- Node8&#45;&gt;Node21 -->
<g id="edge28" class="edge">
<title>Node8&#45;&gt;Node21</title>
<path fill="none" stroke="midnightblue" d="M902.39,-118.27C963.74,-112.01 1116.76,-95.67 1244,-76 1245.27,-75.8 1246.56,-75.6 1247.86,-75.39"/>
<polygon fill="midnightblue" stroke="midnightblue" points="1248.69,-78.8 1257.96,-73.66 1247.51,-71.9 1248.69,-78.8"/>
</g>
<!-- Node22 -->
<g id="node22" class="node">
<title>Node22</title>
<g id="a_node22"><a xlink:title=" ">
<polygon fill="none" stroke="#bfbfbf" points="485.5,-56.5 485.5,-75.5 554.5,-75.5 554.5,-56.5 485.5,-56.5"/>
<text text-anchor="middle" x="520" y="-63.5" font-family="Helvetica,sans-Serif" font-size="10.00">type_traits</text>
</a>
</g>
</g>
<!-- Node8&#45;&gt;Node22 -->
<g id="edge29" class="edge">
<title>Node8&#45;&gt;Node22</title>
<path fill="none" stroke="midnightblue" d="M847.88,-117.61C795.33,-110.94 675.81,-95.2 564.6,-76.01"/>
<polygon fill="midnightblue" stroke="midnightblue" points="565,-72.53 554.55,-74.26 563.8,-79.43 565,-72.53"/>
</g>
<!-- Node23 -->
<g id="node23" class="node">
<title>Node23</title>
<g id="a_node23"><a xlink:title=" ">
<polygon fill="none" stroke="#bfbfbf" points="573,-56.5 573,-75.5 703,-75.5 703,-56.5 573,-56.5"/>
<text text-anchor="middle" x="638" y="-63.5" font-family="Helvetica,sans-Serif" font-size="10.00">cache_module_decl.inc</text>
</a>
</g>
</g>
<!-- Node8&#45;&gt;Node23 -->
<g id="edge30" class="edge">
<title>Node8&#45;&gt;Node23</title>
<path fill="none" stroke="midnightblue" d="M847.81,-114.81C808.2,-105.78 734.03,-88.88 685.34,-77.79"/>
<polygon fill="midnightblue" stroke="midnightblue" points="685.88,-74.32 675.35,-75.51 684.33,-81.15 685.88,-74.32"/>
</g>
<!-- Node24 -->
<g id="node24" class="node">
<title>Node24</title>
<g id="a_node24"><a xlink:title=" ">
<polygon fill="none" stroke="#bfbfbf" points="721.5,-56.5 721.5,-75.5 846.5,-75.5 846.5,-56.5 721.5,-56.5"/>
<text text-anchor="middle" x="784" y="-63.5" font-family="Helvetica,sans-Serif" font-size="10.00">cache_module_def.inc</text>
</a>
</g>
</g>
<!-- Node8&#45;&gt;Node24 -->
<g id="edge31" class="edge">
<title>Node8&#45;&gt;Node24</title>
<path fill="none" stroke="midnightblue" d="M860.38,-112.32C846.05,-103.82 823.99,-90.73 807.25,-80.8"/>
<polygon fill="midnightblue" stroke="midnightblue" points="808.97,-77.75 798.58,-75.65 805.4,-83.77 808.97,-77.75"/>
</g>
<!-- Node15&#45;&gt;Node5 -->
<g id="edge17" class="edge">
<title>Node15&#45;&gt;Node5</title>
<path fill="none" stroke="midnightblue" d="M1201.77,-56.92C1249.34,-47 1329.71,-30.24 1379.08,-19.95"/>
<polygon fill="midnightblue" stroke="midnightblue" points="1380.05,-23.32 1389.13,-17.85 1378.62,-16.47 1380.05,-23.32"/>
</g>
<!-- Node16 -->
<g id="node16" class="node">
<title>Node16</title>
<g id="a_node16"><a xlink:title=" ">
<polygon fill="none" stroke="#bfbfbf" points="911,-0.5 911,-19.5 961,-19.5 961,-0.5 911,-0.5"/>
<text text-anchor="middle" x="936" y="-7.5" font-family="Helvetica,sans-Serif" font-size="10.00">cstdint</text>
</a>
</g>
</g>
<!-- Node15&#45;&gt;Node16 -->
<g id="edge16" class="edge">
<title>Node15&#45;&gt;Node16</title>
<path fill="none" stroke="midnightblue" d="M1127.03,-56.44C1084.3,-46.28 1013.48,-29.43 971.12,-19.36"/>
<polygon fill="midnightblue" stroke="midnightblue" points="971.8,-15.92 961.26,-17.01 970.18,-22.73 971.8,-15.92"/>
</g>
<!-- Node18&#45;&gt;Node4 -->
<g id="edge22" class="edge">
<title>Node18&#45;&gt;Node4</title>
<path fill="none" stroke="midnightblue" d="M260.14,-57.41C263.12,-56.86 266.11,-56.38 269,-56 362.27,-43.67 1035.84,-18.18 1195.93,-12.25"/>
<polygon fill="midnightblue" stroke="midnightblue" points="1196.27,-15.74 1206.13,-11.88 1196.01,-8.75 1196.27,-15.74"/>
</g>
<!-- Node18&#45;&gt;Node6 -->
<g id="edge23" class="edge">
<title>Node18&#45;&gt;Node6</title>
<path fill="none" stroke="midnightblue" d="M210.97,-56.32C193.97,-47.66 167.62,-34.24 148.01,-24.25"/>
<polygon fill="midnightblue" stroke="midnightblue" points="149.49,-21.08 138.99,-19.65 146.31,-27.31 149.49,-21.08"/>
</g>
<!-- Node18&#45;&gt;Node7 -->
<g id="edge24" class="edge">
<title>Node18&#45;&gt;Node7</title>
<path fill="none" stroke="midnightblue" d="M222.55,-56.08C217.99,-48.61 211.33,-37.72 205.71,-28.52"/>
<polygon fill="midnightblue" stroke="midnightblue" points="208.55,-26.46 200.35,-19.75 202.58,-30.11 208.55,-26.46"/>
</g>
<!-- Node18&#45;&gt;Node9 -->
<g id="edge20" class="edge">
<title>Node18&#45;&gt;Node9</title>
<path fill="none" stroke="midnightblue" d="M260.17,-57.63C263.15,-57.04 266.13,-56.49 269,-56 395.51,-34.58 547.72,-19.61 612.42,-13.75"/>
<polygon fill="midnightblue" stroke="midnightblue" points="613.1,-17.2 622.75,-12.82 612.48,-10.23 613.1,-17.2"/>
</g>
<!-- Node18&#45;&gt;Node14 -->
<g id="edge25" class="edge">
<title>Node18&#45;&gt;Node14</title>
<path fill="none" stroke="midnightblue" d="M247.33,-56.44C267.32,-47.6 298.74,-33.69 321.56,-23.59"/>
<polygon fill="midnightblue" stroke="midnightblue" points="323.03,-26.76 330.76,-19.52 320.2,-20.36 323.03,-26.76"/>
</g>
<!-- Node18&#45;&gt;Node16 -->
<g id="edge21" class="edge">
<title>Node18&#45;&gt;Node16</title>
<path fill="none" stroke="midnightblue" d="M260.15,-57.47C263.13,-56.91 266.11,-56.41 269,-56 392.94,-38.32 781.68,-18.48 900.89,-12.68"/>
<polygon fill="midnightblue" stroke="midnightblue" points="901.12,-16.17 910.94,-12.19 900.78,-9.18 901.12,-16.17"/>
</g>
<!-- Node19 -->
<g id="node19" class="node">
<title>Node19</title>
<g id="a_node19"><a xlink:title=" ">
<polygon fill="none" stroke="#bfbfbf" points="235.5,-0.5 235.5,-19.5 308.5,-19.5 308.5,-0.5 235.5,-0.5"/>
<text text-anchor="middle" x="272" y="-7.5" font-family="Helvetica,sans-Serif" font-size="10.00">string_view</text>
</a>
</g>
</g>
<!-- Node18&#45;&gt;Node19 -->
<g id="edge26" class="edge">
<title>Node18&#45;&gt;Node19</title>
<path fill="none" stroke="midnightblue" d="M235.27,-56.08C241.54,-48.38 250.79,-37.03 258.43,-27.65"/>
<polygon fill="midnightblue" stroke="midnightblue" points="261.27,-29.71 264.87,-19.75 255.84,-25.29 261.27,-29.71"/>
</g>
</g>
</svg>
