<?xml version="1.0" encoding="UTF-8" standalone="no"?>
<!DOCTYPE svg PUBLIC "-//W3C//DTD SVG 1.1//EN"
 "http://www.w3.org/Graphics/SVG/1.1/DTD/svg11.dtd">
<!-- Generated by graphviz version 2.43.0 (0)
 -->
<!-- Title: test/cpp/src/412&#45;queue&#45;translation&#45;miss.cc Pages: 1 -->
<svg width="2277pt" height="375pt"
 viewBox="0.00 0.00 2276.50 375.00" xmlns="http://www.w3.org/2000/svg" xmlns:xlink="http://www.w3.org/1999/xlink">
<g id="graph0" class="graph" transform="scale(1 1) rotate(0) translate(4 371)">
<title>test/cpp/src/412&#45;queue&#45;translation&#45;miss.cc</title>
<!-- Node1 -->
<g id="node1" class="node">
<title>Node1</title>
<g id="a_node1"><a xlink:title=" ">
<polygon fill="#bfbfbf" stroke="black" points="739,-336.5 739,-366.5 867,-366.5 867,-336.5 739,-336.5"/>
<text text-anchor="start" x="747" y="-354.5" font-family="Helvetica,sans-Serif" font-size="10.00">test/cpp/src/412&#45;queue</text>
<text text-anchor="middle" x="803" y="-343.5" font-family="Helvetica,sans-Serif" font-size="10.00">&#45;translation&#45;miss.cc</text>
</a>
</g>
</g>
<!-- Node2 -->
<g id="node2" class="node">
<title>Node2</title>
<g id="a_node2"><a xlink:title=" ">
<polygon fill="none" stroke="#bfbfbf" points="143,-280.5 143,-299.5 207,-299.5 207,-280.5 143,-280.5"/>
<text text-anchor="middle" x="175" y="-287.5" font-family="Helvetica,sans-Serif" font-size="10.00">catch.hpp</text>
</a>
</g>
</g>
<!-- Node1&#45;&gt;Node2 -->
<g id="edge1" class="edge">
<title>Node1&#45;&gt;Node2</title>
<path fill="none" stroke="midnightblue" d="M738.83,-347.72C632.4,-342.51 412.53,-329.19 217.31,-300.01"/>
<polygon fill="midnightblue" stroke="midnightblue" points="217.57,-296.51 207.15,-298.47 216.52,-303.43 217.57,-296.51"/>
</g>
<!-- Node3 -->
<g id="node3" class="node">
<title>Node3</title>
<g id="a_node3"><a xlink:href="mocks_8hpp.html" target="_top" xlink:title=" ">
<polygon fill="none" stroke="black" points="225,-280.5 225,-299.5 295,-299.5 295,-280.5 225,-280.5"/>
<text text-anchor="middle" x="260" y="-287.5" font-family="Helvetica,sans-Serif" font-size="10.00">mocks.hpp</text>
</a>
</g>
</g>
<!-- Node1&#45;&gt;Node3 -->
<g id="edge2" class="edge">
<title>Node1&#45;&gt;Node3</title>
<path fill="none" stroke="midnightblue" d="M738.85,-343.47C627.56,-331.28 401.41,-306.5 305.09,-295.94"/>
<polygon fill="midnightblue" stroke="midnightblue" points="305.41,-292.45 295.08,-294.84 304.64,-299.41 305.41,-292.45"/>
</g>
<!-- Node17 -->
<g id="node17" class="node">
<title>Node17</title>
<g id="a_node17"><a xlink:title=" ">
<polygon fill="none" stroke="#bfbfbf" points="2139.5,-168.5 2139.5,-187.5 2268.5,-187.5 2268.5,-168.5 2139.5,-168.5"/>
<text text-anchor="middle" x="2204" y="-175.5" font-family="Helvetica,sans-Serif" font-size="10.00">champsim_constants.h</text>
</a>
</g>
</g>
<!-- Node1&#45;&gt;Node17 -->
<g id="edge82" class="edge">
<title>Node1&#45;&gt;Node17</title>
<path fill="none" stroke="midnightblue" d="M867.3,-342.63C1097.87,-314.4 1882.52,-218.35 2129.16,-188.16"/>
<polygon fill="midnightblue" stroke="midnightblue" points="2129.95,-191.59 2139.45,-186.9 2129.1,-184.64 2129.95,-191.59"/>
</g>
<!-- Node18 -->
<g id="node18" class="node">
<title>Node18</title>
<g id="a_node18"><a xlink:href="channel_8h.html" target="_top" xlink:title=" ">
<polygon fill="none" stroke="black" points="830,-168.5 830,-187.5 894,-187.5 894,-168.5 830,-168.5"/>
<text text-anchor="middle" x="862" y="-175.5" font-family="Helvetica,sans-Serif" font-size="10.00">channel.h</text>
</a>
</g>
</g>
<!-- Node1&#45;&gt;Node18 -->
<g id="edge81" class="edge">
<title>Node1&#45;&gt;Node18</title>
<path fill="none" stroke="midnightblue" d="M804.35,-336.29C807.01,-312.29 814.21,-262.57 831,-224 835.39,-213.91 842.17,-203.72 848.27,-195.59"/>
<polygon fill="midnightblue" stroke="midnightblue" points="851.05,-197.72 854.48,-187.69 845.55,-193.39 851.05,-197.72"/>
</g>
<!-- Node25 -->
<g id="node25" class="node">
<title>Node25</title>
<g id="a_node25"><a xlink:href="defaults_8hpp.html" target="_top" xlink:title=" ">
<polygon fill="none" stroke="black" points="831.5,-280.5 831.5,-299.5 908.5,-299.5 908.5,-280.5 831.5,-280.5"/>
<text text-anchor="middle" x="870" y="-287.5" font-family="Helvetica,sans-Serif" font-size="10.00">defaults.hpp</text>
</a>
</g>
</g>
<!-- Node1&#45;&gt;Node25 -->
<g id="edge33" class="edge">
<title>Node1&#45;&gt;Node25</title>
<path fill="none" stroke="midnightblue" d="M818.88,-336.4C829.02,-327.4 842.16,-315.72 852.59,-306.47"/>
<polygon fill="midnightblue" stroke="midnightblue" points="855.1,-308.92 860.25,-299.66 850.45,-303.68 855.1,-308.92"/>
</g>
<!-- Node4 -->
<g id="node4" class="node">
<title>Node4</title>
<g id="a_node4"><a xlink:title=" ">
<polygon fill="none" stroke="#bfbfbf" points="778.5,-112.5 778.5,-131.5 825.5,-131.5 825.5,-112.5 778.5,-112.5"/>
<text text-anchor="middle" x="802" y="-119.5" font-family="Helvetica,sans-Serif" font-size="10.00">deque</text>
</a>
</g>
</g>
<!-- Node3&#45;&gt;Node4 -->
<g id="edge3" class="edge">
<title>Node3&#45;&gt;Node4</title>
<path fill="none" stroke="midnightblue" d="M224.84,-280.78C192.56,-272.43 148.23,-258.68 138,-244 121.43,-220.23 149.16,-177.69 163,-168 169.27,-163.61 636.95,-133.52 768.13,-125.15"/>
<polygon fill="midnightblue" stroke="midnightblue" points="768.62,-128.63 778.38,-124.5 768.18,-121.64 768.62,-128.63"/>
</g>
<!-- Node5 -->
<g id="node5" class="node">
<title>Node5</title>
<g id="a_node5"><a xlink:title=" ">
<polygon fill="none" stroke="#bfbfbf" points="576.5,-112.5 576.5,-131.5 641.5,-131.5 641.5,-112.5 576.5,-112.5"/>
<text text-anchor="middle" x="609" y="-119.5" font-family="Helvetica,sans-Serif" font-size="10.00">exception</text>
</a>
</g>
</g>
<!-- Node3&#45;&gt;Node5 -->
<g id="edge4" class="edge">
<title>Node3&#45;&gt;Node5</title>
<path fill="none" stroke="midnightblue" d="M224.71,-281.56C168.48,-269.63 64.56,-247.21 62,-244 40.93,-217.6 39.12,-192.84 62,-168 95.95,-131.14 443.48,-124.47 566.29,-123.27"/>
<polygon fill="midnightblue" stroke="midnightblue" points="566.48,-126.76 576.45,-123.17 566.41,-119.77 566.48,-126.76"/>
</g>
<!-- Node6 -->
<g id="node6" class="node">
<title>Node6</title>
<g id="a_node6"><a xlink:title=" ">
<polygon fill="none" stroke="#bfbfbf" points="1016.5,-112.5 1016.5,-131.5 1081.5,-131.5 1081.5,-112.5 1016.5,-112.5"/>
<text text-anchor="middle" x="1049" y="-119.5" font-family="Helvetica,sans-Serif" font-size="10.00">functional</text>
</a>
</g>
</g>
<!-- Node3&#45;&gt;Node6 -->
<g id="edge5" class="edge">
<title>Node3&#45;&gt;Node6</title>
<path fill="none" stroke="midnightblue" d="M244.93,-280.2C211.06,-259.4 134.6,-206.08 171,-168 201.63,-135.96 923.81,-135.45 968,-132 980.45,-131.03 993.95,-129.66 1006.29,-128.28"/>
<polygon fill="midnightblue" stroke="midnightblue" points="1006.8,-131.74 1016.33,-127.12 1006,-124.79 1006.8,-131.74"/>
</g>
<!-- Node7 -->
<g id="node7" class="node">
<title>Node7</title>
<g id="a_node7"><a xlink:title=" ">
<polygon fill="none" stroke="#bfbfbf" points="1582,-0.5 1582,-19.5 1626,-19.5 1626,-0.5 1582,-0.5"/>
<text text-anchor="middle" x="1604" y="-7.5" font-family="Helvetica,sans-Serif" font-size="10.00">limits</text>
</a>
</g>
</g>
<!-- Node3&#45;&gt;Node7 -->
<g id="edge6" class="edge">
<title>Node3&#45;&gt;Node7</title>
<path fill="none" stroke="midnightblue" d="M224.73,-281.71C164.69,-269.29 48.88,-245.22 47,-244 17.11,-224.57 0,-214.65 0,-179 0,-179 0,-179 0,-121 0,-80.11 1344.87,-21.87 1571.7,-12.34"/>
<polygon fill="midnightblue" stroke="midnightblue" points="1572.09,-15.83 1581.94,-11.91 1571.8,-8.84 1572.09,-15.83"/>
</g>
<!-- Node8 -->
<g id="node8" class="node">
<title>Node8</title>
<g id="a_node8"><a xlink:href="cache_8h.html" target="_top" xlink:title=" ">
<polygon fill="none" stroke="black" points="708,-224.5 708,-243.5 762,-243.5 762,-224.5 708,-224.5"/>
<text text-anchor="middle" x="735" y="-231.5" font-family="Helvetica,sans-Serif" font-size="10.00">cache.h</text>
</a>
</g>
</g>
<!-- Node3&#45;&gt;Node8 -->
<g id="edge7" class="edge">
<title>Node3&#45;&gt;Node8</title>
<path fill="none" stroke="midnightblue" d="M295.31,-284.99C382.69,-275.05 608.39,-249.39 697.76,-239.23"/>
<polygon fill="midnightblue" stroke="midnightblue" points="698.18,-242.71 707.72,-238.1 697.39,-235.75 698.18,-242.71"/>
</g>
<!-- Node21 -->
<g id="node21" class="node">
<title>Node21</title>
<g id="a_node21"><a xlink:href="operable_8h.html" target="_top" xlink:title=" ">
<polygon fill="none" stroke="black" points="548,-168.5 548,-187.5 616,-187.5 616,-168.5 548,-168.5"/>
<text text-anchor="middle" x="582" y="-175.5" font-family="Helvetica,sans-Serif" font-size="10.00">operable.h</text>
</a>
</g>
</g>
<!-- Node3&#45;&gt;Node21 -->
<g id="edge32" class="edge">
<title>Node3&#45;&gt;Node21</title>
<path fill="none" stroke="midnightblue" d="M285,-280.46C341.94,-261.01 481.43,-213.36 546.94,-190.98"/>
<polygon fill="midnightblue" stroke="midnightblue" points="548.46,-194.16 556.8,-187.61 546.2,-187.53 548.46,-194.16"/>
</g>
<!-- Node8&#45;&gt;Node4 -->
<g id="edge10" class="edge">
<title>Node8&#45;&gt;Node4</title>
<path fill="none" stroke="midnightblue" d="M707.96,-232.94C600.5,-232.43 207.78,-227.83 171,-188 164.97,-181.47 164.94,-174.51 171,-168 176.14,-162.48 637.7,-133.26 768.06,-125.11"/>
<polygon fill="midnightblue" stroke="midnightblue" points="768.49,-128.59 778.25,-124.48 768.05,-121.61 768.49,-128.59"/>
</g>
<!-- Node9 -->
<g id="node9" class="node">
<title>Node9</title>
<g id="a_node9"><a xlink:title=" ">
<polygon fill="none" stroke="#bfbfbf" points="1210,-112.5 1210,-131.5 1252,-131.5 1252,-112.5 1210,-112.5"/>
<text text-anchor="middle" x="1231" y="-119.5" font-family="Helvetica,sans-Serif" font-size="10.00">array</text>
</a>
</g>
</g>
<!-- Node8&#45;&gt;Node9 -->
<g id="edge8" class="edge">
<title>Node8&#45;&gt;Node9</title>
<path fill="none" stroke="midnightblue" d="M707.83,-232.65C643.15,-230.96 488.99,-221.37 539,-168 539.36,-167.62 1065.15,-133.69 1199.86,-125.01"/>
<polygon fill="midnightblue" stroke="midnightblue" points="1200.17,-128.49 1209.92,-124.36 1199.72,-121.51 1200.17,-128.49"/>
</g>
<!-- Node10 -->
<g id="node10" class="node">
<title>Node10</title>
<g id="a_node10"><a xlink:title=" ">
<polygon fill="none" stroke="#bfbfbf" points="1083,-168.5 1083,-187.5 1127,-187.5 1127,-168.5 1083,-168.5"/>
<text text-anchor="middle" x="1105" y="-175.5" font-family="Helvetica,sans-Serif" font-size="10.00">bitset</text>
</a>
</g>
</g>
<!-- Node8&#45;&gt;Node10 -->
<g id="edge9" class="edge">
<title>Node8&#45;&gt;Node10</title>
<path fill="none" stroke="midnightblue" d="M762.15,-229.93C828.44,-222.36 998.05,-202.47 1072.85,-187.91"/>
<polygon fill="midnightblue" stroke="midnightblue" points="1073.65,-191.32 1082.75,-185.89 1072.25,-184.46 1073.65,-191.32"/>
</g>
<!-- Node11 -->
<g id="node11" class="node">
<title>Node11</title>
<g id="a_node11"><a xlink:title=" ">
<polygon fill="none" stroke="#bfbfbf" points="1145,-168.5 1145,-187.5 1203,-187.5 1203,-168.5 1145,-168.5"/>
<text text-anchor="middle" x="1174" y="-175.5" font-family="Helvetica,sans-Serif" font-size="10.00">memory</text>
</a>
</g>
</g>
<!-- Node8&#45;&gt;Node11 -->
<g id="edge11" class="edge">
<title>Node8&#45;&gt;Node11</title>
<path fill="none" stroke="midnightblue" d="M762.17,-230.38C837.15,-223.1 1046.72,-202.27 1134.75,-187.99"/>
<polygon fill="midnightblue" stroke="midnightblue" points="1135.34,-191.44 1144.61,-186.33 1134.17,-184.54 1135.34,-191.44"/>
</g>
<!-- Node12 -->
<g id="node12" class="node">
<title>Node12</title>
<g id="a_node12"><a xlink:title=" ">
<polygon fill="none" stroke="#bfbfbf" points="999.5,-168.5 999.5,-187.5 1064.5,-187.5 1064.5,-168.5 999.5,-168.5"/>
<text text-anchor="middle" x="1032" y="-175.5" font-family="Helvetica,sans-Serif" font-size="10.00">stdexcept</text>
</a>
</g>
</g>
<!-- Node8&#45;&gt;Node12 -->
<g id="edge12" class="edge">
<title>Node8&#45;&gt;Node12</title>
<path fill="none" stroke="midnightblue" d="M762.23,-228.53C807.25,-221.07 900.23,-205.35 989.45,-188.05"/>
<polygon fill="midnightblue" stroke="midnightblue" points="990.32,-191.44 999.46,-186.09 988.98,-184.57 990.32,-191.44"/>
</g>
<!-- Node13 -->
<g id="node13" class="node">
<title>Node13</title>
<g id="a_node13"><a xlink:title=" ">
<polygon fill="none" stroke="#bfbfbf" points="634,-168.5 634,-187.5 678,-187.5 678,-168.5 634,-168.5"/>
<text text-anchor="middle" x="656" y="-175.5" font-family="Helvetica,sans-Serif" font-size="10.00">string</text>
</a>
</g>
</g>
<!-- Node8&#45;&gt;Node13 -->
<g id="edge13" class="edge">
<title>Node8&#45;&gt;Node13</title>
<path fill="none" stroke="midnightblue" d="M722.31,-224.32C710.1,-215.98 691.42,-203.21 677,-193.35"/>
<polygon fill="midnightblue" stroke="midnightblue" points="678.89,-190.41 668.66,-187.65 674.94,-196.19 678.89,-190.41"/>
</g>
<!-- Node14 -->
<g id="node14" class="node">
<title>Node14</title>
<g id="a_node14"><a xlink:title=" ">
<polygon fill="none" stroke="#bfbfbf" points="1271.5,-56.5 1271.5,-75.5 1318.5,-75.5 1318.5,-56.5 1271.5,-56.5"/>
<text text-anchor="middle" x="1295" y="-63.5" font-family="Helvetica,sans-Serif" font-size="10.00">vector</text>
</a>
</g>
</g>
<!-- Node8&#45;&gt;Node14 -->
<g id="edge14" class="edge">
<title>Node8&#45;&gt;Node14</title>
<path fill="none" stroke="midnightblue" d="M707.75,-231.26C656.42,-227.35 548.56,-215.94 526,-188 501.7,-157.91 542.6,-125.34 567,-112 628.33,-78.48 1125.3,-69.31 1260.92,-67.42"/>
<polygon fill="midnightblue" stroke="midnightblue" points="1261.18,-70.91 1271.13,-67.28 1261.08,-63.92 1261.18,-70.91"/>
</g>
<!-- Node15 -->
<g id="node15" class="node">
<title>Node15</title>
<g id="a_node15"><a xlink:href="champsim_8h.html" target="_top" xlink:title=" ">
<polygon fill="none" stroke="black" points="696.5,-168.5 696.5,-187.5 773.5,-187.5 773.5,-168.5 696.5,-168.5"/>
<text text-anchor="middle" x="735" y="-175.5" font-family="Helvetica,sans-Serif" font-size="10.00">champsim.h</text>
</a>
</g>
</g>
<!-- Node8&#45;&gt;Node15 -->
<g id="edge15" class="edge">
<title>Node8&#45;&gt;Node15</title>
<path fill="none" stroke="midnightblue" d="M735,-224.08C735,-217.01 735,-206.86 735,-197.99"/>
<polygon fill="midnightblue" stroke="midnightblue" points="738.5,-197.75 735,-187.75 731.5,-197.75 738.5,-197.75"/>
</g>
<!-- Node8&#45;&gt;Node17 -->
<g id="edge18" class="edge">
<title>Node8&#45;&gt;Node17</title>
<path fill="none" stroke="midnightblue" d="M762.27,-229.97C781.47,-227.96 807.78,-225.43 831,-224 1373.76,-190.6 1510.75,-212.29 2054,-188 2078.52,-186.9 2105.27,-185.4 2129.3,-183.93"/>
<polygon fill="midnightblue" stroke="midnightblue" points="2129.65,-187.42 2139.42,-183.31 2129.22,-180.43 2129.65,-187.42"/>
</g>
<!-- Node8&#45;&gt;Node18 -->
<g id="edge19" class="edge">
<title>Node8&#45;&gt;Node18</title>
<path fill="none" stroke="midnightblue" d="M755.12,-224.44C776.02,-215.56 808.93,-201.56 832.72,-191.45"/>
<polygon fill="midnightblue" stroke="midnightblue" points="834.14,-194.65 841.97,-187.52 831.4,-188.21 834.14,-194.65"/>
</g>
<!-- Node20 -->
<g id="node20" class="node">
<title>Node20</title>
<g id="a_node20"><a xlink:href="module__impl_8h.html" target="_top" xlink:title=" ">
<polygon fill="none" stroke="black" points="1259.5,-168.5 1259.5,-187.5 1348.5,-187.5 1348.5,-168.5 1259.5,-168.5"/>
<text text-anchor="middle" x="1304" y="-175.5" font-family="Helvetica,sans-Serif" font-size="10.00">module_impl.h</text>
</a>
</g>
</g>
<!-- Node8&#45;&gt;Node20 -->
<g id="edge27" class="edge">
<title>Node8&#45;&gt;Node20</title>
<path fill="none" stroke="midnightblue" d="M762.15,-230.45C849.61,-222.24 1123.41,-196.51 1212,-188 1223.98,-186.85 1236.84,-185.6 1249.03,-184.41"/>
<polygon fill="midnightblue" stroke="midnightblue" points="1249.47,-187.88 1259.08,-183.43 1248.79,-180.92 1249.47,-187.88"/>
</g>
<!-- Node8&#45;&gt;Node21 -->
<g id="edge28" class="edge">
<title>Node8&#45;&gt;Node21</title>
<path fill="none" stroke="midnightblue" d="M710.76,-224.44C685.13,-215.4 644.51,-201.06 615.76,-190.92"/>
<polygon fill="midnightblue" stroke="midnightblue" points="616.72,-187.54 606.13,-187.52 614.39,-194.15 616.72,-187.54"/>
</g>
<!-- Node22 -->
<g id="node22" class="node">
<title>Node22</title>
<g id="a_node22"><a xlink:title=" ">
<polygon fill="none" stroke="#bfbfbf" points="912.5,-168.5 912.5,-187.5 981.5,-187.5 981.5,-168.5 912.5,-168.5"/>
<text text-anchor="middle" x="947" y="-175.5" font-family="Helvetica,sans-Serif" font-size="10.00">type_traits</text>
</a>
</g>
</g>
<!-- Node8&#45;&gt;Node22 -->
<g id="edge29" class="edge">
<title>Node8&#45;&gt;Node22</title>
<path fill="none" stroke="midnightblue" d="M762.28,-226.05C798.1,-216.93 861.4,-200.8 903.78,-190.01"/>
<polygon fill="midnightblue" stroke="midnightblue" points="904.71,-193.38 913.54,-187.52 902.99,-186.6 904.71,-193.38"/>
</g>
<!-- Node23 -->
<g id="node23" class="node">
<title>Node23</title>
<g id="a_node23"><a xlink:title=" ">
<polygon fill="none" stroke="#bfbfbf" points="180,-168.5 180,-187.5 310,-187.5 310,-168.5 180,-168.5"/>
<text text-anchor="middle" x="245" y="-175.5" font-family="Helvetica,sans-Serif" font-size="10.00">cache_module_decl.inc</text>
</a>
</g>
</g>
<!-- Node8&#45;&gt;Node23 -->
<g id="edge30" class="edge">
<title>Node8&#45;&gt;Node23</title>
<path fill="none" stroke="midnightblue" d="M707.73,-230.18C642.67,-223.41 473,-205.62 320.39,-188.15"/>
<polygon fill="midnightblue" stroke="midnightblue" points="320.7,-184.66 310.36,-187 319.9,-191.61 320.7,-184.66"/>
</g>
<!-- Node24 -->
<g id="node24" class="node">
<title>Node24</title>
<g id="a_node24"><a xlink:title=" ">
<polygon fill="none" stroke="#bfbfbf" points="328.5,-168.5 328.5,-187.5 453.5,-187.5 453.5,-168.5 328.5,-168.5"/>
<text text-anchor="middle" x="391" y="-175.5" font-family="Helvetica,sans-Serif" font-size="10.00">cache_module_def.inc</text>
</a>
</g>
</g>
<!-- Node8&#45;&gt;Node24 -->
<g id="edge31" class="edge">
<title>Node8&#45;&gt;Node24</title>
<path fill="none" stroke="midnightblue" d="M707.72,-228.72C653.5,-220.21 530.9,-200.96 455.13,-189.07"/>
<polygon fill="midnightblue" stroke="midnightblue" points="455.64,-185.6 445.22,-187.51 454.56,-192.52 455.64,-185.6"/>
</g>
<!-- Node15&#45;&gt;Node5 -->
<g id="edge17" class="edge">
<title>Node15&#45;&gt;Node5</title>
<path fill="none" stroke="midnightblue" d="M715.03,-168.44C694.39,-159.6 661.94,-145.69 638.37,-135.59"/>
<polygon fill="midnightblue" stroke="midnightblue" points="639.44,-132.24 628.87,-131.52 636.68,-138.67 639.44,-132.24"/>
</g>
<!-- Node16 -->
<g id="node16" class="node">
<title>Node16</title>
<g id="a_node16"><a xlink:title=" ">
<polygon fill="none" stroke="#bfbfbf" points="1322,-0.5 1322,-19.5 1372,-19.5 1372,-0.5 1322,-0.5"/>
<text text-anchor="middle" x="1347" y="-7.5" font-family="Helvetica,sans-Serif" font-size="10.00">cstdint</text>
</a>
</g>
</g>
<!-- Node15&#45;&gt;Node16 -->
<g id="edge16" class="edge">
<title>Node15&#45;&gt;Node16</title>
<path fill="none" stroke="midnightblue" d="M737.41,-168.17C741.6,-154.36 751.52,-127.6 769,-112 820.54,-66 846.83,-72.16 914,-56 1058.63,-21.21 1236.81,-13.32 1311.47,-11.53"/>
<polygon fill="midnightblue" stroke="midnightblue" points="1311.79,-15.02 1321.71,-11.3 1311.64,-8.02 1311.79,-15.02"/>
</g>
<!-- Node18&#45;&gt;Node4 -->
<g id="edge22" class="edge">
<title>Node18&#45;&gt;Node4</title>
<path fill="none" stroke="midnightblue" d="M852.36,-168.32C843.49,-160.34 830.13,-148.31 819.39,-138.65"/>
<polygon fill="midnightblue" stroke="midnightblue" points="821.59,-135.92 811.82,-131.83 816.91,-141.13 821.59,-135.92"/>
</g>
<!-- Node18&#45;&gt;Node6 -->
<g id="edge23" class="edge">
<title>Node18&#45;&gt;Node6</title>
<path fill="none" stroke="midnightblue" d="M891.63,-168.44C923.5,-159.24 974.33,-144.56 1009.56,-134.39"/>
<polygon fill="midnightblue" stroke="midnightblue" points="1010.87,-137.65 1019.51,-131.52 1008.93,-130.93 1010.87,-137.65"/>
</g>
<!-- Node18&#45;&gt;Node7 -->
<g id="edge24" class="edge">
<title>Node18&#45;&gt;Node7</title>
<path fill="none" stroke="midnightblue" d="M883.29,-168.42C904.81,-159.64 938.96,-145.41 968,-132 986.05,-123.67 989.26,-118.63 1008,-112 1214.56,-38.95 1480.57,-17.88 1571.71,-12.59"/>
<polygon fill="midnightblue" stroke="midnightblue" points="1572.15,-16.07 1581.94,-12.02 1571.76,-9.08 1572.15,-16.07"/>
</g>
<!-- Node18&#45;&gt;Node9 -->
<g id="edge20" class="edge">
<title>Node18&#45;&gt;Node9</title>
<path fill="none" stroke="midnightblue" d="M894.18,-169.68C897.16,-169.08 900.13,-168.51 903,-168 931.91,-162.85 1123.73,-137.24 1199.9,-127.12"/>
<polygon fill="midnightblue" stroke="midnightblue" points="1200.4,-130.59 1209.86,-125.8 1199.48,-123.65 1200.4,-130.59"/>
</g>
<!-- Node18&#45;&gt;Node14 -->
<g id="edge25" class="edge">
<title>Node18&#45;&gt;Node14</title>
<path fill="none" stroke="midnightblue" d="M894.21,-169.84C897.18,-169.21 900.14,-168.59 903,-168 986.33,-150.88 1008.55,-152.95 1091,-132 1152.11,-116.47 1221.8,-92.98 1261.87,-78.9"/>
<polygon fill="midnightblue" stroke="midnightblue" points="1263.14,-82.17 1271.4,-75.54 1260.8,-75.57 1263.14,-82.17"/>
</g>
<!-- Node18&#45;&gt;Node16 -->
<g id="edge21" class="edge">
<title>Node18&#45;&gt;Node16</title>
<path fill="none" stroke="midnightblue" d="M861.89,-168.09C862.17,-154.65 864.46,-128.94 877,-112 906.61,-71.98 926.78,-71.74 974,-56 1093.23,-16.25 1244.3,-10.84 1311.72,-10.6"/>
<polygon fill="midnightblue" stroke="midnightblue" points="1311.81,-14.1 1321.81,-10.6 1311.81,-7.1 1311.81,-14.1"/>
</g>
<!-- Node19 -->
<g id="node19" class="node">
<title>Node19</title>
<g id="a_node19"><a xlink:title=" ">
<polygon fill="none" stroke="#bfbfbf" points="886.5,-112.5 886.5,-131.5 959.5,-131.5 959.5,-112.5 886.5,-112.5"/>
<text text-anchor="middle" x="923" y="-119.5" font-family="Helvetica,sans-Serif" font-size="10.00">string_view</text>
</a>
</g>
</g>
<!-- Node18&#45;&gt;Node19 -->
<g id="edge26" class="edge">
<title>Node18&#45;&gt;Node19</title>
<path fill="none" stroke="midnightblue" d="M871.8,-168.32C880.82,-160.34 894.41,-148.31 905.32,-138.65"/>
<polygon fill="midnightblue" stroke="midnightblue" points="907.85,-141.08 913.02,-131.83 903.21,-135.84 907.85,-141.08"/>
</g>
<!-- Node25&#45;&gt;Node8 -->
<g id="edge34" class="edge">
<title>Node25&#45;&gt;Node8</title>
<path fill="none" stroke="midnightblue" d="M848.61,-280.44C826.29,-271.52 791.1,-257.44 765.79,-247.32"/>
<polygon fill="midnightblue" stroke="midnightblue" points="766.88,-243.98 756.29,-243.52 764.28,-250.48 766.88,-243.98"/>
</g>
<!-- Node25&#45;&gt;Node17 -->
<g id="edge35" class="edge">
<title>Node25&#45;&gt;Node17</title>
<path fill="none" stroke="midnightblue" d="M908.56,-286.38C1062.22,-275.83 1645.84,-234.81 2125,-188 2126.31,-187.87 2127.64,-187.74 2128.97,-187.61"/>
<polygon fill="midnightblue" stroke="midnightblue" points="2129.76,-191.04 2139.35,-186.54 2129.04,-184.08 2129.76,-191.04"/>
</g>
<!-- Node26 -->
<g id="node26" class="node">
<title>Node26</title>
<g id="a_node26"><a xlink:href="ooo__cpu_8h.html" target="_top" xlink:title=" ">
<polygon fill="none" stroke="black" points="1363,-224.5 1363,-243.5 1429,-243.5 1429,-224.5 1363,-224.5"/>
<text text-anchor="middle" x="1396" y="-231.5" font-family="Helvetica,sans-Serif" font-size="10.00">ooo_cpu.h</text>
</a>
</g>
</g>
<!-- Node25&#45;&gt;Node26 -->
<g id="edge36" class="edge">
<title>Node25&#45;&gt;Node26</title>
<path fill="none" stroke="midnightblue" d="M908.68,-285.03C1004.46,-275.2 1252.18,-249.76 1352.68,-239.45"/>
<polygon fill="midnightblue" stroke="midnightblue" points="1353.19,-242.91 1362.78,-238.41 1352.48,-235.95 1353.19,-242.91"/>
</g>
<!-- Node39 -->
<g id="node39" class="node">
<title>Node39</title>
<g id="a_node39"><a xlink:href="ptw_8h.html" target="_top" xlink:title=" ">
<polygon fill="none" stroke="black" points="840.5,-224.5 840.5,-243.5 883.5,-243.5 883.5,-224.5 840.5,-224.5"/>
<text text-anchor="middle" x="862" y="-231.5" font-family="Helvetica,sans-Serif" font-size="10.00">ptw.h</text>
</a>
</g>
</g>
<!-- Node25&#45;&gt;Node39 -->
<g id="edge74" class="edge">
<title>Node25&#45;&gt;Node39</title>
<path fill="none" stroke="midnightblue" d="M868.68,-280.08C867.62,-272.93 866.09,-262.64 864.77,-253.69"/>
<polygon fill="midnightblue" stroke="midnightblue" points="868.22,-253.13 863.3,-243.75 861.3,-254.16 868.22,-253.13"/>
</g>
<!-- Node26&#45;&gt;Node4 -->
<g id="edge39" class="edge">
<title>Node26&#45;&gt;Node4</title>
<path fill="none" stroke="midnightblue" d="M1393.79,-224.43C1389.57,-209.97 1378.84,-181.02 1358,-168 1267.08,-111.22 983.68,-142.39 877,-132 863.54,-130.69 848.75,-128.97 835.89,-127.39"/>
<polygon fill="midnightblue" stroke="midnightblue" points="835.97,-123.88 825.62,-126.11 835.1,-130.82 835.97,-123.88"/>
</g>
<!-- Node26&#45;&gt;Node7 -->
<g id="edge40" class="edge">
<title>Node26&#45;&gt;Node7</title>
<path fill="none" stroke="midnightblue" d="M1429.24,-230.03C1450.36,-228.18 1478.27,-225.82 1503,-224 1565.96,-219.35 2026.8,-234.03 2070,-188 2200.49,-48.97 1761.18,-18.14 1636.22,-12.25"/>
<polygon fill="midnightblue" stroke="midnightblue" points="1636.27,-8.75 1626.12,-11.8 1635.95,-15.75 1636.27,-8.75"/>
</g>
<!-- Node26&#45;&gt;Node9 -->
<g id="edge37" class="edge">
<title>Node26&#45;&gt;Node9</title>
<path fill="none" stroke="midnightblue" d="M1398.17,-224.29C1401.01,-210.64 1404.2,-184.11 1391,-168 1374.73,-148.15 1303.79,-134.15 1262.03,-127.46"/>
<polygon fill="midnightblue" stroke="midnightblue" points="1262.51,-124 1252.09,-125.92 1261.44,-130.91 1262.51,-124"/>
</g>
<!-- Node26&#45;&gt;Node10 -->
<g id="edge38" class="edge">
<title>Node26&#45;&gt;Node10</title>
<path fill="none" stroke="midnightblue" d="M1362.93,-228.48C1315.15,-221.69 1223.89,-207.74 1137.27,-188.09"/>
<polygon fill="midnightblue" stroke="midnightblue" points="1137.8,-184.62 1127.27,-185.79 1136.23,-191.44 1137.8,-184.62"/>
</g>
<!-- Node26&#45;&gt;Node11 -->
<g id="edge41" class="edge">
<title>Node26&#45;&gt;Node11</title>
<path fill="none" stroke="midnightblue" d="M1362.76,-224.92C1322.76,-215.18 1255.67,-198.87 1213.19,-188.53"/>
<polygon fill="midnightblue" stroke="midnightblue" points="1213.75,-185.07 1203.21,-186.1 1212.1,-191.87 1213.75,-185.07"/>
</g>
<!-- Node26&#45;&gt;Node12 -->
<g id="edge44" class="edge">
<title>Node26&#45;&gt;Node12</title>
<path fill="none" stroke="midnightblue" d="M1362.96,-229.18C1306.21,-222.45 1186.35,-207.48 1074.61,-187.99"/>
<polygon fill="midnightblue" stroke="midnightblue" points="1074.97,-184.5 1064.51,-186.21 1073.76,-191.39 1074.97,-184.5"/>
</g>
<!-- Node26&#45;&gt;Node14 -->
<g id="edge45" class="edge">
<title>Node26&#45;&gt;Node14</title>
<path fill="none" stroke="midnightblue" d="M1401,-224.21C1407.62,-211.35 1417.5,-186.89 1409,-168 1390.96,-127.92 1348.29,-97.31 1320.58,-80.77"/>
<polygon fill="midnightblue" stroke="midnightblue" points="1322.22,-77.67 1311.81,-75.7 1318.72,-83.74 1322.22,-77.67"/>
</g>
<!-- Node26&#45;&gt;Node15 -->
<g id="edge46" class="edge">
<title>Node26&#45;&gt;Node15</title>
<path fill="none" stroke="midnightblue" d="M1362.92,-230.72C1274.77,-224.56 1026.91,-206.83 821,-188 808.85,-186.89 795.75,-185.58 783.53,-184.3"/>
<polygon fill="midnightblue" stroke="midnightblue" points="783.82,-180.81 773.51,-183.25 783.09,-187.78 783.82,-180.81"/>
</g>
<!-- Node26&#45;&gt;Node17 -->
<g id="edge47" class="edge">
<title>Node26&#45;&gt;Node17</title>
<path fill="none" stroke="midnightblue" d="M1429.11,-231.57C1532.24,-226.98 1856.89,-211.53 2125,-188 2126.31,-187.88 2127.64,-187.77 2128.98,-187.64"/>
<polygon fill="midnightblue" stroke="midnightblue" points="2129.74,-191.09 2139.36,-186.64 2129.07,-184.12 2129.74,-191.09"/>
</g>
<!-- Node26&#45;&gt;Node18 -->
<g id="edge48" class="edge">
<title>Node26&#45;&gt;Node18</title>
<path fill="none" stroke="midnightblue" d="M1362.94,-231.41C1284.84,-227.36 1082.68,-215.09 904.25,-188.01"/>
<polygon fill="midnightblue" stroke="midnightblue" points="904.57,-184.52 894.16,-186.46 903.51,-191.44 904.57,-184.52"/>
</g>
<!-- Node26&#45;&gt;Node20 -->
<g id="edge58" class="edge">
<title>Node26&#45;&gt;Node20</title>
<path fill="none" stroke="midnightblue" d="M1381.22,-224.32C1366.73,-215.82 1344.43,-202.73 1327.51,-192.8"/>
<polygon fill="midnightblue" stroke="midnightblue" points="1329.14,-189.7 1318.74,-187.65 1325.6,-195.74 1329.14,-189.7"/>
</g>
<!-- Node26&#45;&gt;Node21 -->
<g id="edge59" class="edge">
<title>Node26&#45;&gt;Node21</title>
<path fill="none" stroke="midnightblue" d="M1362.77,-232.81C1256.73,-231.85 916.86,-225.91 626.5,-187.99"/>
<polygon fill="midnightblue" stroke="midnightblue" points="626.56,-184.47 616.19,-186.63 625.64,-191.41 626.56,-184.47"/>
</g>
<!-- Node26&#45;&gt;Node22 -->
<g id="edge71" class="edge">
<title>Node26&#45;&gt;Node22</title>
<path fill="none" stroke="midnightblue" d="M1362.96,-230.42C1295.22,-224.9 1135.5,-210.69 991.98,-188.19"/>
<polygon fill="midnightblue" stroke="midnightblue" points="992.11,-184.67 981.68,-186.56 991.01,-191.58 992.11,-184.67"/>
</g>
<!-- Node27 -->
<g id="node27" class="node">
<title>Node27</title>
<g id="a_node27"><a xlink:title=" ">
<polygon fill="none" stroke="#bfbfbf" points="1713,-56.5 1713,-75.5 1769,-75.5 1769,-56.5 1713,-56.5"/>
<text text-anchor="middle" x="1741" y="-63.5" font-family="Helvetica,sans-Serif" font-size="10.00">optional</text>
</a>
</g>
</g>
<!-- Node26&#45;&gt;Node27 -->
<g id="edge42" class="edge">
<title>Node26&#45;&gt;Node27</title>
<path fill="none" stroke="midnightblue" d="M1429.24,-230.04C1450.36,-228.2 1478.28,-225.85 1503,-224 1564.18,-219.43 2012.06,-232.77 2054,-188 2094.7,-144.55 1870.93,-93.36 1779.02,-74.48"/>
<polygon fill="midnightblue" stroke="midnightblue" points="1779.5,-71 1769,-72.44 1778.11,-77.86 1779.5,-71"/>
</g>
<!-- Node28 -->
<g id="node28" class="node">
<title>Node28</title>
<g id="a_node28"><a xlink:title=" ">
<polygon fill="none" stroke="#bfbfbf" points="1681.5,-168.5 1681.5,-187.5 1728.5,-187.5 1728.5,-168.5 1681.5,-168.5"/>
<text text-anchor="middle" x="1705" y="-175.5" font-family="Helvetica,sans-Serif" font-size="10.00">queue</text>
</a>
</g>
</g>
<!-- Node26&#45;&gt;Node28 -->
<g id="edge43" class="edge">
<title>Node26&#45;&gt;Node28</title>
<path fill="none" stroke="midnightblue" d="M1429.06,-228.86C1479.45,-222.29 1578.63,-208.3 1671.48,-188.15"/>
<polygon fill="midnightblue" stroke="midnightblue" points="1672.3,-191.55 1681.31,-185.99 1670.79,-184.72 1672.3,-191.55"/>
</g>
<!-- Node29 -->
<g id="node29" class="node">
<title>Node29</title>
<g id="a_node29"><a xlink:href="instruction_8h.html" target="_top" xlink:title=" ">
<polygon fill="none" stroke="black" points="1586.5,-168.5 1586.5,-187.5 1663.5,-187.5 1663.5,-168.5 1586.5,-168.5"/>
<text text-anchor="middle" x="1625" y="-175.5" font-family="Helvetica,sans-Serif" font-size="10.00">instruction.h</text>
</a>
</g>
</g>
<!-- Node26&#45;&gt;Node29 -->
<g id="edge49" class="edge">
<title>Node26&#45;&gt;Node29</title>
<path fill="none" stroke="midnightblue" d="M1429.3,-225.15C1468.66,-215.87 1534.39,-200.37 1578.69,-189.92"/>
<polygon fill="midnightblue" stroke="midnightblue" points="1579.7,-193.28 1588.63,-187.58 1578.1,-186.46 1579.7,-193.28"/>
</g>
<!-- Node32 -->
<g id="node32" class="node">
<title>Node32</title>
<g id="a_node32"><a xlink:href="util_2lru__table_8h.html" target="_top" xlink:title=" ">
<polygon fill="none" stroke="black" points="1481.5,-168.5 1481.5,-187.5 1568.5,-187.5 1568.5,-168.5 1481.5,-168.5"/>
<text text-anchor="middle" x="1525" y="-175.5" font-family="Helvetica,sans-Serif" font-size="10.00">util/lru_table.h</text>
</a>
</g>
</g>
<!-- Node26&#45;&gt;Node32 -->
<g id="edge60" class="edge">
<title>Node26&#45;&gt;Node32</title>
<path fill="none" stroke="midnightblue" d="M1416.44,-224.44C1437.67,-215.56 1471.1,-201.56 1495.25,-191.45"/>
<polygon fill="midnightblue" stroke="midnightblue" points="1496.78,-194.61 1504.66,-187.52 1494.08,-188.15 1496.78,-194.61"/>
</g>
<!-- Node37 -->
<g id="node37" class="node">
<title>Node37</title>
<g id="a_node37"><a xlink:title=" ">
<polygon fill="none" stroke="#bfbfbf" points="1747,-168.5 1747,-187.5 1889,-187.5 1889,-168.5 1747,-168.5"/>
<text text-anchor="middle" x="1818" y="-175.5" font-family="Helvetica,sans-Serif" font-size="10.00">ooo_cpu_module_decl.inc</text>
</a>
</g>
</g>
<!-- Node26&#45;&gt;Node37 -->
<g id="edge72" class="edge">
<title>Node26&#45;&gt;Node37</title>
<path fill="none" stroke="midnightblue" d="M1429.11,-228.76C1495.88,-220.22 1648.19,-200.73 1741.15,-188.83"/>
<polygon fill="midnightblue" stroke="midnightblue" points="1741.87,-192.27 1751.34,-187.53 1740.98,-185.33 1741.87,-192.27"/>
</g>
<!-- Node38 -->
<g id="node38" class="node">
<title>Node38</title>
<g id="a_node38"><a xlink:title=" ">
<polygon fill="none" stroke="#bfbfbf" points="1907.5,-168.5 1907.5,-187.5 2044.5,-187.5 2044.5,-168.5 1907.5,-168.5"/>
<text text-anchor="middle" x="1976" y="-175.5" font-family="Helvetica,sans-Serif" font-size="10.00">ooo_cpu_module_def.inc</text>
</a>
</g>
</g>
<!-- Node26&#45;&gt;Node38 -->
<g id="edge73" class="edge">
<title>Node26&#45;&gt;Node38</title>
<path fill="none" stroke="midnightblue" d="M1429.22,-230.32C1508.24,-223.87 1713.9,-206.72 1897.02,-188.08"/>
<polygon fill="midnightblue" stroke="midnightblue" points="1897.51,-191.54 1907.11,-187.05 1896.8,-184.58 1897.51,-191.54"/>
</g>
<!-- Node29&#45;&gt;Node6 -->
<g id="edge53" class="edge">
<title>Node29&#45;&gt;Node6</title>
<path fill="none" stroke="midnightblue" d="M1586.32,-169.26C1583.51,-168.8 1580.72,-168.37 1578,-168 1484.22,-155.07 1200.36,-133.92 1091.82,-126.06"/>
<polygon fill="midnightblue" stroke="midnightblue" points="1091.81,-122.55 1081.58,-125.32 1091.3,-129.53 1091.81,-122.55"/>
</g>
<!-- Node29&#45;&gt;Node7 -->
<g id="edge54" class="edge">
<title>Node29&#45;&gt;Node7</title>
<path fill="none" stroke="midnightblue" d="M1654.23,-168.42C1709.06,-150.87 1818.33,-108.08 1778,-56 1760.77,-33.74 1681.38,-20.5 1636.02,-14.63"/>
<polygon fill="midnightblue" stroke="midnightblue" points="1636.44,-11.15 1626.08,-13.39 1635.57,-18.1 1636.44,-11.15"/>
</g>
<!-- Node29&#45;&gt;Node9 -->
<g id="edge51" class="edge">
<title>Node29&#45;&gt;Node9</title>
<path fill="none" stroke="midnightblue" d="M1586.3,-169.4C1583.5,-168.91 1580.71,-168.43 1578,-168 1462,-149.39 1323.24,-133.22 1262.3,-126.42"/>
<polygon fill="midnightblue" stroke="midnightblue" points="1262.51,-122.92 1252.19,-125.3 1261.74,-129.88 1262.51,-122.92"/>
</g>
<!-- Node29&#45;&gt;Node14 -->
<g id="edge55" class="edge">
<title>Node29&#45;&gt;Node14</title>
<path fill="none" stroke="midnightblue" d="M1599.18,-168.49C1573.55,-159.87 1533.23,-145.86 1499,-132 1479.09,-123.94 1475.18,-119.37 1455,-112 1412.2,-96.36 1361.33,-82.89 1328.62,-74.87"/>
<polygon fill="midnightblue" stroke="midnightblue" points="1329.22,-71.41 1318.67,-72.46 1327.57,-78.21 1329.22,-71.41"/>
</g>
<!-- Node29&#45;&gt;Node16 -->
<g id="edge52" class="edge">
<title>Node29&#45;&gt;Node16</title>
<path fill="none" stroke="midnightblue" d="M1633.06,-168.28C1652.02,-146.71 1695.68,-90.16 1666,-56 1629.64,-14.15 1458.28,-10.13 1382.83,-10.45"/>
<polygon fill="midnightblue" stroke="midnightblue" points="1382.39,-6.95 1372.42,-10.52 1382.44,-13.95 1382.39,-6.95"/>
</g>
<!-- Node30 -->
<g id="node30" class="node">
<title>Node30</title>
<g id="a_node30"><a xlink:title=" ">
<polygon fill="none" stroke="#bfbfbf" points="1593,-56.5 1593,-75.5 1657,-75.5 1657,-56.5 1593,-56.5"/>
<text text-anchor="middle" x="1625" y="-63.5" font-family="Helvetica,sans-Serif" font-size="10.00">algorithm</text>
</a>
</g>
</g>
<!-- Node29&#45;&gt;Node30 -->
<g id="edge50" class="edge">
<title>Node29&#45;&gt;Node30</title>
<path fill="none" stroke="midnightblue" d="M1625,-168.37C1625,-150.62 1625,-109.67 1625,-85.6"/>
<polygon fill="midnightblue" stroke="midnightblue" points="1628.5,-85.59 1625,-75.59 1621.5,-85.59 1628.5,-85.59"/>
</g>
<!-- Node31 -->
<g id="node31" class="node">
<title>Node31</title>
<g id="a_node31"><a xlink:href="trace__instruction_8h.html" target="_top" xlink:title=" ">
<polygon fill="none" stroke="black" points="1825.5,-56.5 1825.5,-75.5 1932.5,-75.5 1932.5,-56.5 1825.5,-56.5"/>
<text text-anchor="middle" x="1879" y="-63.5" font-family="Helvetica,sans-Serif" font-size="10.00">trace_instruction.h</text>
</a>
</g>
</g>
<!-- Node29&#45;&gt;Node31 -->
<g id="edge56" class="edge">
<title>Node29&#45;&gt;Node31</title>
<path fill="none" stroke="midnightblue" d="M1663.52,-168.8C1714.12,-157.86 1798.1,-139.05 1811,-132 1833.28,-119.82 1853.58,-98.46 1866.09,-83.56"/>
<polygon fill="midnightblue" stroke="midnightblue" points="1868.92,-85.62 1872.51,-75.65 1863.49,-81.21 1868.92,-85.62"/>
</g>
<!-- Node31&#45;&gt;Node7 -->
<g id="edge57" class="edge">
<title>Node31&#45;&gt;Node7</title>
<path fill="none" stroke="midnightblue" d="M1835.43,-56.44C1779.97,-45.55 1685.48,-27 1636.15,-17.31"/>
<polygon fill="midnightblue" stroke="midnightblue" points="1636.53,-13.82 1626.05,-15.33 1635.19,-20.69 1636.53,-13.82"/>
</g>
<!-- Node33 -->
<g id="node33" class="node">
<title>Node33</title>
<g id="a_node33"><a xlink:href="msl_2lru__table_8h.html" target="_top" xlink:title=" ">
<polygon fill="none" stroke="black" points="1507.5,-112.5 1507.5,-131.5 1596.5,-131.5 1596.5,-112.5 1507.5,-112.5"/>
<text text-anchor="middle" x="1552" y="-119.5" font-family="Helvetica,sans-Serif" font-size="10.00">msl/lru_table.h</text>
</a>
</g>
</g>
<!-- Node32&#45;&gt;Node33 -->
<g id="edge61" class="edge">
<title>Node32&#45;&gt;Node33</title>
<path fill="none" stroke="midnightblue" d="M1529.46,-168.08C1533.15,-160.69 1538.52,-149.95 1543.09,-140.81"/>
<polygon fill="midnightblue" stroke="midnightblue" points="1546.28,-142.26 1547.62,-131.75 1540.02,-139.13 1546.28,-142.26"/>
</g>
<!-- Node33&#45;&gt;Node14 -->
<g id="edge67" class="edge">
<title>Node33&#45;&gt;Node14</title>
<path fill="none" stroke="midnightblue" d="M1508.29,-112.42C1464.03,-103.63 1393.64,-89.41 1333,-76 1331.55,-75.68 1330.07,-75.35 1328.58,-75.01"/>
<polygon fill="midnightblue" stroke="midnightblue" points="1329.22,-71.57 1318.69,-72.73 1327.65,-78.39 1329.22,-71.57"/>
</g>
<!-- Node33&#45;&gt;Node16 -->
<g id="edge64" class="edge">
<title>Node33&#45;&gt;Node16</title>
<path fill="none" stroke="midnightblue" d="M1507.31,-112.53C1455.91,-102.41 1377.26,-85.66 1367,-76 1354.39,-64.12 1349.66,-44.5 1347.93,-29.91"/>
<polygon fill="midnightblue" stroke="midnightblue" points="1351.38,-29.23 1347.08,-19.54 1344.41,-29.8 1351.38,-29.23"/>
</g>
<!-- Node33&#45;&gt;Node27 -->
<g id="edge65" class="edge">
<title>Node33&#45;&gt;Node27</title>
<path fill="none" stroke="midnightblue" d="M1581.95,-112.44C1614.63,-103.11 1667.05,-88.13 1702.7,-77.94"/>
<polygon fill="midnightblue" stroke="midnightblue" points="1704.08,-81.19 1712.74,-75.08 1702.16,-74.46 1704.08,-81.19"/>
</g>
<!-- Node33&#45;&gt;Node30 -->
<g id="edge62" class="edge">
<title>Node33&#45;&gt;Node30</title>
<path fill="none" stroke="midnightblue" d="M1563.73,-112.32C1574.84,-104.11 1591.74,-91.6 1604.98,-81.81"/>
<polygon fill="midnightblue" stroke="midnightblue" points="1607.1,-84.59 1613.06,-75.83 1602.94,-78.97 1607.1,-84.59"/>
</g>
<!-- Node34 -->
<g id="node34" class="node">
<title>Node34</title>
<g id="a_node34"><a xlink:title=" ">
<polygon fill="none" stroke="#bfbfbf" points="1459,-56.5 1459,-75.5 1511,-75.5 1511,-56.5 1459,-56.5"/>
<text text-anchor="middle" x="1485" y="-63.5" font-family="Helvetica,sans-Serif" font-size="10.00">cassert</text>
</a>
</g>
</g>
<!-- Node33&#45;&gt;Node34 -->
<g id="edge63" class="edge">
<title>Node33&#45;&gt;Node34</title>
<path fill="none" stroke="midnightblue" d="M1541.24,-112.32C1531.23,-104.26 1516.11,-92.08 1504.07,-82.37"/>
<polygon fill="midnightblue" stroke="midnightblue" points="1505.94,-79.38 1495.96,-75.83 1501.55,-84.83 1505.94,-79.38"/>
</g>
<!-- Node35 -->
<g id="node35" class="node">
<title>Node35</title>
<g id="a_node35"><a xlink:title=" ">
<polygon fill="none" stroke="#bfbfbf" points="1529.5,-56.5 1529.5,-75.5 1574.5,-75.5 1574.5,-56.5 1529.5,-56.5"/>
<text text-anchor="middle" x="1552" y="-63.5" font-family="Helvetica,sans-Serif" font-size="10.00">utility</text>
</a>
</g>
</g>
<!-- Node33&#45;&gt;Node35 -->
<g id="edge66" class="edge">
<title>Node33&#45;&gt;Node35</title>
<path fill="none" stroke="midnightblue" d="M1552,-112.08C1552,-105.01 1552,-94.86 1552,-85.99"/>
<polygon fill="midnightblue" stroke="midnightblue" points="1555.5,-85.75 1552,-75.75 1548.5,-85.75 1555.5,-85.75"/>
</g>
<!-- Node36 -->
<g id="node36" class="node">
<title>Node36</title>
<g id="a_node36"><a xlink:href="msl_2bits_8h.html" target="_top" xlink:title=" ">
<polygon fill="none" stroke="black" points="1375.5,-56.5 1375.5,-75.5 1440.5,-75.5 1440.5,-56.5 1375.5,-56.5"/>
<text text-anchor="middle" x="1408" y="-63.5" font-family="Helvetica,sans-Serif" font-size="10.00">msl/bits.h</text>
</a>
</g>
</g>
<!-- Node33&#45;&gt;Node36 -->
<g id="edge68" class="edge">
<title>Node33&#45;&gt;Node36</title>
<path fill="none" stroke="midnightblue" d="M1529.18,-112.44C1505.17,-103.44 1467.17,-89.19 1440.13,-79.05"/>
<polygon fill="midnightblue" stroke="midnightblue" points="1441.3,-75.75 1430.71,-75.52 1438.84,-82.3 1441.3,-75.75"/>
</g>
<!-- Node36&#45;&gt;Node7 -->
<g id="edge70" class="edge">
<title>Node36&#45;&gt;Node7</title>
<path fill="none" stroke="midnightblue" d="M1439.06,-56.44C1475.46,-46.41 1535.49,-29.88 1572.21,-19.76"/>
<polygon fill="midnightblue" stroke="midnightblue" points="1573.2,-23.12 1581.91,-17.09 1571.34,-16.37 1573.2,-23.12"/>
</g>
<!-- Node36&#45;&gt;Node16 -->
<g id="edge69" class="edge">
<title>Node36&#45;&gt;Node16</title>
<path fill="none" stroke="midnightblue" d="M1398.2,-56.32C1389.18,-48.34 1375.59,-36.31 1364.68,-26.65"/>
<polygon fill="midnightblue" stroke="midnightblue" points="1366.79,-23.84 1356.98,-19.83 1362.15,-29.08 1366.79,-23.84"/>
</g>
<!-- Node39&#45;&gt;Node4 -->
<g id="edge76" class="edge">
<title>Node39&#45;&gt;Node4</title>
<path fill="none" stroke="midnightblue" d="M851.81,-224.35C842.53,-215.94 829.07,-202.38 821,-188 812.91,-173.58 807.97,-155.39 805.17,-141.92"/>
<polygon fill="midnightblue" stroke="midnightblue" points="808.57,-141.09 803.29,-131.91 801.69,-142.38 808.57,-141.09"/>
</g>
<!-- Node39&#45;&gt;Node9 -->
<g id="edge75" class="edge">
<title>Node39&#45;&gt;Node9</title>
<path fill="none" stroke="midnightblue" d="M883.63,-233.2C952.06,-233.41 1162.28,-230.49 1212,-188 1225.25,-176.68 1229.52,-156.68 1230.78,-141.84"/>
<polygon fill="midnightblue" stroke="midnightblue" points="1234.28,-141.89 1231.24,-131.74 1227.29,-141.56 1234.28,-141.89"/>
</g>
<!-- Node39&#45;&gt;Node13 -->
<g id="edge77" class="edge">
<title>Node39&#45;&gt;Node13</title>
<path fill="none" stroke="midnightblue" d="M840.39,-227.67C808.97,-219.87 748.61,-204.71 688.05,-188.23"/>
<polygon fill="midnightblue" stroke="midnightblue" points="688.9,-184.83 678.33,-185.57 687.05,-191.58 688.9,-184.83"/>
</g>
<!-- Node39&#45;&gt;Node18 -->
<g id="edge78" class="edge">
<title>Node39&#45;&gt;Node18</title>
<path fill="none" stroke="midnightblue" d="M862,-224.08C862,-217.01 862,-206.86 862,-197.99"/>
<polygon fill="midnightblue" stroke="midnightblue" points="865.5,-197.75 862,-187.75 858.5,-197.75 865.5,-197.75"/>
</g>
<!-- Node39&#45;&gt;Node21 -->
<g id="edge79" class="edge">
<title>Node39&#45;&gt;Node21</title>
<path fill="none" stroke="midnightblue" d="M840.41,-229.04C800.27,-221.65 711.2,-205.11 626.08,-188.19"/>
<polygon fill="midnightblue" stroke="midnightblue" points="626.75,-184.75 616.26,-186.23 625.38,-191.62 626.75,-184.75"/>
</g>
<!-- Node39&#45;&gt;Node32 -->
<g id="edge80" class="edge">
<title>Node39&#45;&gt;Node32</title>
<path fill="none" stroke="midnightblue" d="M883.68,-231.23C975.47,-223.76 1333.62,-194.59 1470.97,-183.4"/>
<polygon fill="midnightblue" stroke="midnightblue" points="1471.57,-186.86 1481.25,-182.56 1471,-179.89 1471.57,-186.86"/>
</g>
</g>
</svg>
