<?xml version="1.0" encoding="UTF-8" standalone="no"?>
<!DOCTYPE svg PUBLIC "-//W3C//DTD SVG 1.1//EN"
 "http://www.w3.org/Graphics/SVG/1.1/DTD/svg11.dtd">
<!-- Generated by graphviz version 2.43.0 (0)
 -->
<!-- Title: test/cpp/src/414&#45;tag&#45;check&#45;bound.cc Pages: 1 -->
<svg width="2281pt" height="375pt"
 viewBox="0.00 0.00 2280.50 375.00" xmlns="http://www.w3.org/2000/svg" xmlns:xlink="http://www.w3.org/1999/xlink">
<g id="graph0" class="graph" transform="scale(1 1) rotate(0) translate(4 371)">
<title>test/cpp/src/414&#45;tag&#45;check&#45;bound.cc</title>
<!-- Node1 -->
<g id="node1" class="node">
<title>Node1</title>
<g id="a_node1"><a xlink:title=" ">
<polygon fill="#bfbfbf" stroke="black" points="60.5,-336.5 60.5,-366.5 173.5,-366.5 173.5,-336.5 60.5,-336.5"/>
<text text-anchor="start" x="68.5" y="-354.5" font-family="Helvetica,sans-Serif" font-size="10.00">test/cpp/src/414&#45;tag</text>
<text text-anchor="middle" x="117" y="-343.5" font-family="Helvetica,sans-Serif" font-size="10.00">&#45;check&#45;bound.cc</text>
</a>
</g>
</g>
<!-- Node2 -->
<g id="node2" class="node">
<title>Node2</title>
<g id="a_node2"><a xlink:title=" ">
<polygon fill="none" stroke="#bfbfbf" points="0,-280.5 0,-299.5 64,-299.5 64,-280.5 0,-280.5"/>
<text text-anchor="middle" x="32" y="-287.5" font-family="Helvetica,sans-Serif" font-size="10.00">catch.hpp</text>
</a>
</g>
</g>
<!-- Node1&#45;&gt;Node2 -->
<g id="edge1" class="edge">
<title>Node1&#45;&gt;Node2</title>
<path fill="none" stroke="midnightblue" d="M96.86,-336.4C83.61,-327.13 66.32,-315.03 52.92,-305.65"/>
<polygon fill="midnightblue" stroke="midnightblue" points="54.57,-302.53 44.37,-299.66 50.55,-308.26 54.57,-302.53"/>
</g>
<!-- Node3 -->
<g id="node3" class="node">
<title>Node3</title>
<g id="a_node3"><a xlink:href="mocks_8hpp.html" target="_top" xlink:title=" ">
<polygon fill="none" stroke="black" points="82,-280.5 82,-299.5 152,-299.5 152,-280.5 82,-280.5"/>
<text text-anchor="middle" x="117" y="-287.5" font-family="Helvetica,sans-Serif" font-size="10.00">mocks.hpp</text>
</a>
</g>
</g>
<!-- Node1&#45;&gt;Node3 -->
<g id="edge2" class="edge">
<title>Node1&#45;&gt;Node3</title>
<path fill="none" stroke="midnightblue" d="M117,-336.4C117,-328.47 117,-318.46 117,-309.86"/>
<polygon fill="midnightblue" stroke="midnightblue" points="120.5,-309.66 117,-299.66 113.5,-309.66 120.5,-309.66"/>
</g>
<!-- Node25 -->
<g id="node25" class="node">
<title>Node25</title>
<g id="a_node25"><a xlink:href="defaults_8hpp.html" target="_top" xlink:title=" ">
<polygon fill="none" stroke="black" points="1096.5,-280.5 1096.5,-299.5 1173.5,-299.5 1173.5,-280.5 1096.5,-280.5"/>
<text text-anchor="middle" x="1135" y="-287.5" font-family="Helvetica,sans-Serif" font-size="10.00">defaults.hpp</text>
</a>
</g>
</g>
<!-- Node1&#45;&gt;Node25 -->
<g id="edge33" class="edge">
<title>Node1&#45;&gt;Node25</title>
<path fill="none" stroke="midnightblue" d="M173.55,-347.19C354.42,-336.62 916.85,-303.75 1086.24,-293.85"/>
<polygon fill="midnightblue" stroke="midnightblue" points="1086.58,-297.34 1096.35,-293.26 1086.17,-290.35 1086.58,-297.34"/>
</g>
<!-- Node4 -->
<g id="node4" class="node">
<title>Node4</title>
<g id="a_node4"><a xlink:title=" ">
<polygon fill="none" stroke="#bfbfbf" points="951.5,-112.5 951.5,-131.5 998.5,-131.5 998.5,-112.5 951.5,-112.5"/>
<text text-anchor="middle" x="975" y="-119.5" font-family="Helvetica,sans-Serif" font-size="10.00">deque</text>
</a>
</g>
</g>
<!-- Node3&#45;&gt;Node4 -->
<g id="edge3" class="edge">
<title>Node3&#45;&gt;Node4</title>
<path fill="none" stroke="midnightblue" d="M112,-280.25C100.08,-258.12 73.15,-199.43 103,-168 132.37,-137.07 784.16,-125.74 941.19,-123.46"/>
<polygon fill="midnightblue" stroke="midnightblue" points="941.27,-126.96 951.22,-123.31 941.17,-119.96 941.27,-126.96"/>
</g>
<!-- Node5 -->
<g id="node5" class="node">
<title>Node5</title>
<g id="a_node5"><a xlink:title=" ">
<polygon fill="none" stroke="#bfbfbf" points="211.5,-112.5 211.5,-131.5 276.5,-131.5 276.5,-112.5 211.5,-112.5"/>
<text text-anchor="middle" x="244" y="-119.5" font-family="Helvetica,sans-Serif" font-size="10.00">exception</text>
</a>
</g>
</g>
<!-- Node3&#45;&gt;Node5 -->
<g id="edge4" class="edge">
<title>Node3&#45;&gt;Node5</title>
<path fill="none" stroke="midnightblue" d="M101.22,-280.47C88.8,-272.77 72.39,-260.18 65,-244 50.96,-213.28 44.23,-194.64 65,-168 81.57,-146.75 153.61,-134 201.09,-127.75"/>
<polygon fill="midnightblue" stroke="midnightblue" points="201.64,-131.21 211.12,-126.48 200.75,-124.27 201.64,-131.21"/>
</g>
<!-- Node6 -->
<g id="node6" class="node">
<title>Node6</title>
<g id="a_node6"><a xlink:title=" ">
<polygon fill="none" stroke="#bfbfbf" points="1101.5,-112.5 1101.5,-131.5 1166.5,-131.5 1166.5,-112.5 1101.5,-112.5"/>
<text text-anchor="middle" x="1134" y="-119.5" font-family="Helvetica,sans-Serif" font-size="10.00">functional</text>
</a>
</g>
</g>
<!-- Node3&#45;&gt;Node6 -->
<g id="edge5" class="edge">
<title>Node3&#45;&gt;Node6</title>
<path fill="none" stroke="midnightblue" d="M115.15,-280.29C110.93,-257.74 103.3,-197.15 136,-168 172.15,-135.77 958.65,-134.71 1007,-132 1035.1,-130.42 1066.66,-128.19 1091.29,-126.34"/>
<polygon fill="midnightblue" stroke="midnightblue" points="1091.68,-129.82 1101.39,-125.58 1091.15,-122.84 1091.68,-129.82"/>
</g>
<!-- Node7 -->
<g id="node7" class="node">
<title>Node7</title>
<g id="a_node7"><a xlink:title=" ">
<polygon fill="none" stroke="#bfbfbf" points="1633,-0.5 1633,-19.5 1677,-19.5 1677,-0.5 1633,-0.5"/>
<text text-anchor="middle" x="1655" y="-7.5" font-family="Helvetica,sans-Serif" font-size="10.00">limits</text>
</a>
</g>
</g>
<!-- Node3&#45;&gt;Node7 -->
<g id="edge6" class="edge">
<title>Node3&#45;&gt;Node7</title>
<path fill="none" stroke="midnightblue" d="M96.36,-280.42C63.5,-265.23 3,-230.29 3,-179 3,-179 3,-179 3,-121 3,-78.82 1392.4,-21.49 1622.81,-12.27"/>
<polygon fill="midnightblue" stroke="midnightblue" points="1623.04,-15.77 1632.9,-11.87 1622.76,-8.77 1623.04,-15.77"/>
</g>
<!-- Node8 -->
<g id="node8" class="node">
<title>Node8</title>
<g id="a_node8"><a xlink:href="cache_8h.html" target="_top" xlink:title=" ">
<polygon fill="none" stroke="black" points="707,-224.5 707,-243.5 761,-243.5 761,-224.5 707,-224.5"/>
<text text-anchor="middle" x="734" y="-231.5" font-family="Helvetica,sans-Serif" font-size="10.00">cache.h</text>
</a>
</g>
</g>
<!-- Node3&#45;&gt;Node8 -->
<g id="edge7" class="edge">
<title>Node3&#45;&gt;Node8</title>
<path fill="none" stroke="midnightblue" d="M152.39,-285.9C260.54,-276.44 586.07,-247.95 696.72,-238.26"/>
<polygon fill="midnightblue" stroke="midnightblue" points="697.08,-241.74 706.74,-237.39 696.47,-234.77 697.08,-241.74"/>
</g>
<!-- Node21 -->
<g id="node21" class="node">
<title>Node21</title>
<g id="a_node21"><a xlink:href="operable_8h.html" target="_top" xlink:title=" ">
<polygon fill="none" stroke="black" points="551,-168.5 551,-187.5 619,-187.5 619,-168.5 551,-168.5"/>
<text text-anchor="middle" x="585" y="-175.5" font-family="Helvetica,sans-Serif" font-size="10.00">operable.h</text>
</a>
</g>
</g>
<!-- Node3&#45;&gt;Node21 -->
<g id="edge32" class="edge">
<title>Node3&#45;&gt;Node21</title>
<path fill="none" stroke="midnightblue" d="M152.18,-280.73C236.18,-260.99 448.36,-211.12 540.81,-189.39"/>
<polygon fill="midnightblue" stroke="midnightblue" points="541.75,-192.76 550.69,-187.06 540.15,-185.95 541.75,-192.76"/>
</g>
<!-- Node8&#45;&gt;Node4 -->
<g id="edge10" class="edge">
<title>Node8&#45;&gt;Node4</title>
<path fill="none" stroke="midnightblue" d="M706.67,-232.98C605.86,-232.47 263.43,-226.43 318,-168 360.84,-122.13 813.54,-121.84 941.49,-122.69"/>
<polygon fill="midnightblue" stroke="midnightblue" points="941.47,-126.19 951.49,-122.76 941.52,-119.19 941.47,-126.19"/>
</g>
<!-- Node9 -->
<g id="node9" class="node">
<title>Node9</title>
<g id="a_node9"><a xlink:title=" ">
<polygon fill="none" stroke="#bfbfbf" points="1358,-112.5 1358,-131.5 1400,-131.5 1400,-112.5 1358,-112.5"/>
<text text-anchor="middle" x="1379" y="-119.5" font-family="Helvetica,sans-Serif" font-size="10.00">array</text>
</a>
</g>
</g>
<!-- Node8&#45;&gt;Node9 -->
<g id="edge8" class="edge">
<title>Node8&#45;&gt;Node9</title>
<path fill="none" stroke="midnightblue" d="M706.86,-232.47C643.08,-230.35 492.63,-219.88 542,-168 569.8,-138.79 1226.76,-134.62 1267,-132 1294.39,-130.22 1325.51,-127.68 1347.98,-125.75"/>
<polygon fill="midnightblue" stroke="midnightblue" points="1348.3,-129.23 1357.96,-124.88 1347.69,-122.26 1348.3,-129.23"/>
</g>
<!-- Node10 -->
<g id="node10" class="node">
<title>Node10</title>
<g id="a_node10"><a xlink:title=" ">
<polygon fill="none" stroke="#bfbfbf" points="1003,-168.5 1003,-187.5 1047,-187.5 1047,-168.5 1003,-168.5"/>
<text text-anchor="middle" x="1025" y="-175.5" font-family="Helvetica,sans-Serif" font-size="10.00">bitset</text>
</a>
</g>
</g>
<!-- Node8&#45;&gt;Node10 -->
<g id="edge9" class="edge">
<title>Node8&#45;&gt;Node10</title>
<path fill="none" stroke="midnightblue" d="M761.12,-227.97C814.91,-217.99 934.92,-195.72 992.7,-184.99"/>
<polygon fill="midnightblue" stroke="midnightblue" points="993.54,-188.4 1002.73,-183.13 992.26,-181.52 993.54,-188.4"/>
</g>
<!-- Node11 -->
<g id="node11" class="node">
<title>Node11</title>
<g id="a_node11"><a xlink:title=" ">
<polygon fill="none" stroke="#bfbfbf" points="1065,-168.5 1065,-187.5 1123,-187.5 1123,-168.5 1065,-168.5"/>
<text text-anchor="middle" x="1094" y="-175.5" font-family="Helvetica,sans-Serif" font-size="10.00">memory</text>
</a>
</g>
</g>
<!-- Node8&#45;&gt;Node11 -->
<g id="edge11" class="edge">
<title>Node8&#45;&gt;Node11</title>
<path fill="none" stroke="midnightblue" d="M761.28,-230.06C815.37,-224.05 940.21,-209.25 1054.62,-188.11"/>
<polygon fill="midnightblue" stroke="midnightblue" points="1055.41,-191.53 1064.6,-186.25 1054.13,-184.65 1055.41,-191.53"/>
</g>
<!-- Node12 -->
<g id="node12" class="node">
<title>Node12</title>
<g id="a_node12"><a xlink:title=" ">
<polygon fill="none" stroke="#bfbfbf" points="786.5,-168.5 786.5,-187.5 851.5,-187.5 851.5,-168.5 786.5,-168.5"/>
<text text-anchor="middle" x="819" y="-175.5" font-family="Helvetica,sans-Serif" font-size="10.00">stdexcept</text>
</a>
</g>
</g>
<!-- Node8&#45;&gt;Node12 -->
<g id="edge12" class="edge">
<title>Node8&#45;&gt;Node12</title>
<path fill="none" stroke="midnightblue" d="M747.66,-224.32C760.92,-215.9 781.27,-202.97 796.85,-193.07"/>
<polygon fill="midnightblue" stroke="midnightblue" points="798.81,-195.97 805.38,-187.65 795.06,-190.06 798.81,-195.97"/>
</g>
<!-- Node13 -->
<g id="node13" class="node">
<title>Node13</title>
<g id="a_node13"><a xlink:title=" ">
<polygon fill="none" stroke="#bfbfbf" points="637,-168.5 637,-187.5 681,-187.5 681,-168.5 637,-168.5"/>
<text text-anchor="middle" x="659" y="-175.5" font-family="Helvetica,sans-Serif" font-size="10.00">string</text>
</a>
</g>
</g>
<!-- Node8&#45;&gt;Node13 -->
<g id="edge13" class="edge">
<title>Node8&#45;&gt;Node13</title>
<path fill="none" stroke="midnightblue" d="M721.95,-224.32C710.54,-216.11 693.17,-203.6 679.57,-193.81"/>
<polygon fill="midnightblue" stroke="midnightblue" points="681.43,-190.84 671.27,-187.83 677.34,-196.52 681.43,-190.84"/>
</g>
<!-- Node14 -->
<g id="node14" class="node">
<title>Node14</title>
<g id="a_node14"><a xlink:title=" ">
<polygon fill="none" stroke="#bfbfbf" points="1300.5,-56.5 1300.5,-75.5 1347.5,-75.5 1347.5,-56.5 1300.5,-56.5"/>
<text text-anchor="middle" x="1324" y="-63.5" font-family="Helvetica,sans-Serif" font-size="10.00">vector</text>
</a>
</g>
</g>
<!-- Node8&#45;&gt;Node14 -->
<g id="edge14" class="edge">
<title>Node8&#45;&gt;Node14</title>
<path fill="none" stroke="midnightblue" d="M706.84,-233.15C640.39,-232.65 478.65,-225.64 529,-168 580.01,-109.61 1145.01,-76.32 1290.17,-68.7"/>
<polygon fill="midnightblue" stroke="midnightblue" points="1290.45,-72.19 1300.26,-68.17 1290.09,-65.2 1290.45,-72.19"/>
</g>
<!-- Node15 -->
<g id="node15" class="node">
<title>Node15</title>
<g id="a_node15"><a xlink:href="champsim_8h.html" target="_top" xlink:title=" ">
<polygon fill="none" stroke="black" points="869.5,-168.5 869.5,-187.5 946.5,-187.5 946.5,-168.5 869.5,-168.5"/>
<text text-anchor="middle" x="908" y="-175.5" font-family="Helvetica,sans-Serif" font-size="10.00">champsim.h</text>
</a>
</g>
</g>
<!-- Node8&#45;&gt;Node15 -->
<g id="edge15" class="edge">
<title>Node8&#45;&gt;Node15</title>
<path fill="none" stroke="midnightblue" d="M761.19,-224.56C790.64,-215.42 837.81,-200.78 870.71,-190.57"/>
<polygon fill="midnightblue" stroke="midnightblue" points="871.92,-193.86 880.43,-187.56 869.84,-187.18 871.92,-193.86"/>
</g>
<!-- Node17 -->
<g id="node17" class="node">
<title>Node17</title>
<g id="a_node17"><a xlink:title=" ">
<polygon fill="none" stroke="#bfbfbf" points="2143.5,-168.5 2143.5,-187.5 2272.5,-187.5 2272.5,-168.5 2143.5,-168.5"/>
<text text-anchor="middle" x="2208" y="-175.5" font-family="Helvetica,sans-Serif" font-size="10.00">champsim_constants.h</text>
</a>
</g>
</g>
<!-- Node8&#45;&gt;Node17 -->
<g id="edge18" class="edge">
<title>Node8&#45;&gt;Node17</title>
<path fill="none" stroke="midnightblue" d="M761.25,-232.28C928.92,-227.79 1822.44,-203.5 2096,-188 2108.02,-187.32 2120.75,-186.44 2133.16,-185.51"/>
<polygon fill="midnightblue" stroke="midnightblue" points="2133.78,-188.97 2143.48,-184.71 2133.24,-181.99 2133.78,-188.97"/>
</g>
<!-- Node18 -->
<g id="node18" class="node">
<title>Node18</title>
<g id="a_node18"><a xlink:href="channel_8h.html" target="_top" xlink:title=" ">
<polygon fill="none" stroke="black" points="1287,-168.5 1287,-187.5 1351,-187.5 1351,-168.5 1287,-168.5"/>
<text text-anchor="middle" x="1319" y="-175.5" font-family="Helvetica,sans-Serif" font-size="10.00">channel.h</text>
</a>
</g>
</g>
<!-- Node8&#45;&gt;Node18 -->
<g id="edge19" class="edge">
<title>Node8&#45;&gt;Node18</title>
<path fill="none" stroke="midnightblue" d="M761.12,-230.81C836.78,-224.64 1056.62,-206.38 1239,-188 1251.15,-186.78 1264.33,-185.34 1276.42,-183.98"/>
<polygon fill="midnightblue" stroke="midnightblue" points="1277.17,-187.41 1286.71,-182.8 1276.38,-180.46 1277.17,-187.41"/>
</g>
<!-- Node20 -->
<g id="node20" class="node">
<title>Node20</title>
<g id="a_node20"><a xlink:href="module__impl_8h.html" target="_top" xlink:title=" ">
<polygon fill="none" stroke="black" points="1141.5,-168.5 1141.5,-187.5 1230.5,-187.5 1230.5,-168.5 1141.5,-168.5"/>
<text text-anchor="middle" x="1186" y="-175.5" font-family="Helvetica,sans-Serif" font-size="10.00">module_impl.h</text>
</a>
</g>
</g>
<!-- Node8&#45;&gt;Node20 -->
<g id="edge27" class="edge">
<title>Node8&#45;&gt;Node20</title>
<path fill="none" stroke="midnightblue" d="M761.09,-230.43C824.06,-224.36 985.42,-208.19 1131.21,-188.04"/>
<polygon fill="midnightblue" stroke="midnightblue" points="1131.82,-191.49 1141.24,-186.65 1130.85,-184.56 1131.82,-191.49"/>
</g>
<!-- Node8&#45;&gt;Node21 -->
<g id="edge28" class="edge">
<title>Node8&#45;&gt;Node21</title>
<path fill="none" stroke="midnightblue" d="M710.39,-224.44C685.54,-215.44 646.23,-201.19 618.25,-191.05"/>
<polygon fill="midnightblue" stroke="midnightblue" points="619.09,-187.63 608.5,-187.52 616.71,-194.21 619.09,-187.63"/>
</g>
<!-- Node22 -->
<g id="node22" class="node">
<title>Node22</title>
<g id="a_node22"><a xlink:title=" ">
<polygon fill="none" stroke="#bfbfbf" points="699.5,-168.5 699.5,-187.5 768.5,-187.5 768.5,-168.5 699.5,-168.5"/>
<text text-anchor="middle" x="734" y="-175.5" font-family="Helvetica,sans-Serif" font-size="10.00">type_traits</text>
</a>
</g>
</g>
<!-- Node8&#45;&gt;Node22 -->
<g id="edge29" class="edge">
<title>Node8&#45;&gt;Node22</title>
<path fill="none" stroke="midnightblue" d="M734,-224.08C734,-217.01 734,-206.86 734,-197.99"/>
<polygon fill="midnightblue" stroke="midnightblue" points="737.5,-197.75 734,-187.75 730.5,-197.75 737.5,-197.75"/>
</g>
<!-- Node23 -->
<g id="node23" class="node">
<title>Node23</title>
<g id="a_node23"><a xlink:title=" ">
<polygon fill="none" stroke="#bfbfbf" points="327,-168.5 327,-187.5 457,-187.5 457,-168.5 327,-168.5"/>
<text text-anchor="middle" x="392" y="-175.5" font-family="Helvetica,sans-Serif" font-size="10.00">cache_module_decl.inc</text>
</a>
</g>
</g>
<!-- Node8&#45;&gt;Node23 -->
<g id="edge30" class="edge">
<title>Node8&#45;&gt;Node23</title>
<path fill="none" stroke="midnightblue" d="M706.88,-228.72C653.09,-220.22 531.59,-201.04 456.22,-189.14"/>
<polygon fill="midnightblue" stroke="midnightblue" points="456.33,-185.61 445.91,-187.51 455.24,-192.53 456.33,-185.61"/>
</g>
<!-- Node24 -->
<g id="node24" class="node">
<title>Node24</title>
<g id="a_node24"><a xlink:title=" ">
<polygon fill="none" stroke="#bfbfbf" points="145.5,-168.5 145.5,-187.5 270.5,-187.5 270.5,-168.5 145.5,-168.5"/>
<text text-anchor="middle" x="208" y="-175.5" font-family="Helvetica,sans-Serif" font-size="10.00">cache_module_def.inc</text>
</a>
</g>
</g>
<!-- Node8&#45;&gt;Node24 -->
<g id="edge31" class="edge">
<title>Node8&#45;&gt;Node24</title>
<path fill="none" stroke="midnightblue" d="M706.91,-230.44C637.01,-223.81 444.86,-205.35 285,-188 283.54,-187.84 282.06,-187.68 280.57,-187.52"/>
<polygon fill="midnightblue" stroke="midnightblue" points="280.93,-184.03 270.61,-186.4 280.16,-190.99 280.93,-184.03"/>
</g>
<!-- Node15&#45;&gt;Node5 -->
<g id="edge17" class="edge">
<title>Node15&#45;&gt;Node5</title>
<path fill="none" stroke="midnightblue" d="M869.29,-169.35C866.15,-168.85 863.03,-168.39 860,-168 645.61,-140.16 386.84,-128.26 286.56,-124.46"/>
<polygon fill="midnightblue" stroke="midnightblue" points="286.65,-120.96 276.52,-124.09 286.39,-127.96 286.65,-120.96"/>
</g>
<!-- Node16 -->
<g id="node16" class="node">
<title>Node16</title>
<g id="a_node16"><a xlink:title=" ">
<polygon fill="none" stroke="#bfbfbf" points="1351,-0.5 1351,-19.5 1401,-19.5 1401,-0.5 1351,-0.5"/>
<text text-anchor="middle" x="1376" y="-7.5" font-family="Helvetica,sans-Serif" font-size="10.00">cstdint</text>
</a>
</g>
</g>
<!-- Node15&#45;&gt;Node16 -->
<g id="edge16" class="edge">
<title>Node15&#45;&gt;Node16</title>
<path fill="none" stroke="midnightblue" d="M910.15,-168.48C914.09,-154.6 923.79,-127.15 942,-112 1003.5,-60.86 1248.81,-26.44 1340.86,-15.09"/>
<polygon fill="midnightblue" stroke="midnightblue" points="1341.3,-18.57 1350.8,-13.89 1340.45,-11.62 1341.3,-18.57"/>
</g>
<!-- Node18&#45;&gt;Node4 -->
<g id="edge22" class="edge">
<title>Node18&#45;&gt;Node4</title>
<path fill="none" stroke="midnightblue" d="M1286.86,-170.53C1282.22,-169.65 1277.49,-168.78 1273,-168 1177.34,-151.43 1063.81,-135.24 1008.56,-127.58"/>
<polygon fill="midnightblue" stroke="midnightblue" points="1009.01,-124.11 998.62,-126.21 1008.05,-131.05 1009.01,-124.11"/>
</g>
<!-- Node18&#45;&gt;Node6 -->
<g id="edge23" class="edge">
<title>Node18&#45;&gt;Node6</title>
<path fill="none" stroke="midnightblue" d="M1289.69,-168.44C1258.16,-159.24 1207.87,-144.56 1173.01,-134.39"/>
<polygon fill="midnightblue" stroke="midnightblue" points="1173.76,-130.96 1163.18,-131.52 1171.8,-137.68 1173.76,-130.96"/>
</g>
<!-- Node18&#45;&gt;Node7 -->
<g id="edge24" class="edge">
<title>Node18&#45;&gt;Node7</title>
<path fill="none" stroke="midnightblue" d="M1312.73,-168.44C1297.67,-146.77 1262.78,-89.06 1292,-56 1313.78,-31.36 1537.97,-17.13 1622.76,-12.6"/>
<polygon fill="midnightblue" stroke="midnightblue" points="1623.04,-16.09 1632.85,-12.07 1622.68,-9.1 1623.04,-16.09"/>
</g>
<!-- Node18&#45;&gt;Node9 -->
<g id="edge20" class="edge">
<title>Node18&#45;&gt;Node9</title>
<path fill="none" stroke="midnightblue" d="M1328.64,-168.32C1337.51,-160.34 1350.87,-148.31 1361.61,-138.65"/>
<polygon fill="midnightblue" stroke="midnightblue" points="1364.09,-141.13 1369.18,-131.83 1359.41,-135.92 1364.09,-141.13"/>
</g>
<!-- Node18&#45;&gt;Node14 -->
<g id="edge25" class="edge">
<title>Node18&#45;&gt;Node14</title>
<path fill="none" stroke="midnightblue" d="M1319.39,-168.37C1320.2,-150.62 1322.06,-109.67 1323.15,-85.6"/>
<polygon fill="midnightblue" stroke="midnightblue" points="1326.65,-85.74 1323.61,-75.59 1319.66,-85.42 1326.65,-85.74"/>
</g>
<!-- Node18&#45;&gt;Node16 -->
<g id="edge21" class="edge">
<title>Node18&#45;&gt;Node16</title>
<path fill="none" stroke="midnightblue" d="M1286.61,-170.71C1224.08,-158.56 1092.78,-132.95 1092,-132 1086.36,-125.13 1086.87,-119.26 1092,-112 1149.33,-30.76 1278.01,-14.48 1340.54,-11.48"/>
<polygon fill="midnightblue" stroke="midnightblue" points="1340.85,-14.97 1350.7,-11.08 1340.58,-7.98 1340.85,-14.97"/>
</g>
<!-- Node19 -->
<g id="node19" class="node">
<title>Node19</title>
<g id="a_node19"><a xlink:title=" ">
<polygon fill="none" stroke="#bfbfbf" points="1184.5,-112.5 1184.5,-131.5 1257.5,-131.5 1257.5,-112.5 1184.5,-112.5"/>
<text text-anchor="middle" x="1221" y="-119.5" font-family="Helvetica,sans-Serif" font-size="10.00">string_view</text>
</a>
</g>
</g>
<!-- Node18&#45;&gt;Node19 -->
<g id="edge26" class="edge">
<title>Node18&#45;&gt;Node19</title>
<path fill="none" stroke="midnightblue" d="M1303.25,-168.32C1287.68,-159.74 1263.62,-146.49 1245.54,-136.52"/>
<polygon fill="midnightblue" stroke="midnightblue" points="1247.15,-133.42 1236.71,-131.65 1243.78,-139.55 1247.15,-133.42"/>
</g>
<!-- Node25&#45;&gt;Node8 -->
<g id="edge34" class="edge">
<title>Node25&#45;&gt;Node8</title>
<path fill="none" stroke="midnightblue" d="M1096.19,-283.77C1018.94,-273.37 846.87,-250.2 771.07,-239.99"/>
<polygon fill="midnightblue" stroke="midnightblue" points="771.41,-236.51 761.04,-238.64 770.48,-243.44 771.41,-236.51"/>
</g>
<!-- Node25&#45;&gt;Node17 -->
<g id="edge35" class="edge">
<title>Node25&#45;&gt;Node17</title>
<path fill="none" stroke="midnightblue" d="M1173.86,-285.22C1307.04,-272.24 1757.35,-228.05 2129,-188 2130.31,-187.86 2131.64,-187.72 2132.97,-187.57"/>
<polygon fill="midnightblue" stroke="midnightblue" points="2133.78,-191 2143.34,-186.43 2133.02,-184.04 2133.78,-191"/>
</g>
<!-- Node26 -->
<g id="node26" class="node">
<title>Node26</title>
<g id="a_node26"><a xlink:href="ooo__cpu_8h.html" target="_top" xlink:title=" ">
<polygon fill="none" stroke="black" points="1335,-224.5 1335,-243.5 1401,-243.5 1401,-224.5 1335,-224.5"/>
<text text-anchor="middle" x="1368" y="-231.5" font-family="Helvetica,sans-Serif" font-size="10.00">ooo_cpu.h</text>
</a>
</g>
</g>
<!-- Node25&#45;&gt;Node26 -->
<g id="edge36" class="edge">
<title>Node25&#45;&gt;Node26</title>
<path fill="none" stroke="midnightblue" d="M1171.92,-280.44C1213.47,-270.81 1280.88,-255.19 1324.83,-245"/>
<polygon fill="midnightblue" stroke="midnightblue" points="1325.7,-248.4 1334.65,-242.73 1324.12,-241.58 1325.7,-248.4"/>
</g>
<!-- Node39 -->
<g id="node39" class="node">
<title>Node39</title>
<g id="a_node39"><a xlink:href="ptw_8h.html" target="_top" xlink:title=" ">
<polygon fill="none" stroke="black" points="1113.5,-224.5 1113.5,-243.5 1156.5,-243.5 1156.5,-224.5 1113.5,-224.5"/>
<text text-anchor="middle" x="1135" y="-231.5" font-family="Helvetica,sans-Serif" font-size="10.00">ptw.h</text>
</a>
</g>
</g>
<!-- Node25&#45;&gt;Node39 -->
<g id="edge74" class="edge">
<title>Node25&#45;&gt;Node39</title>
<path fill="none" stroke="midnightblue" d="M1135,-280.08C1135,-273.01 1135,-262.86 1135,-253.99"/>
<polygon fill="midnightblue" stroke="midnightblue" points="1138.5,-253.75 1135,-243.75 1131.5,-253.75 1138.5,-253.75"/>
</g>
<!-- Node26&#45;&gt;Node4 -->
<g id="edge39" class="edge">
<title>Node26&#45;&gt;Node4</title>
<path fill="none" stroke="midnightblue" d="M1350.72,-224.43C1332.58,-215.41 1303.25,-200.79 1278,-188 1260.62,-179.2 1257.48,-174.15 1239,-168 1196.76,-153.94 1069.99,-135.73 1008.79,-127.45"/>
<polygon fill="midnightblue" stroke="midnightblue" points="1008.88,-123.93 998.5,-126.07 1007.95,-130.87 1008.88,-123.93"/>
</g>
<!-- Node26&#45;&gt;Node7 -->
<g id="edge40" class="edge">
<title>Node26&#45;&gt;Node7</title>
<path fill="none" stroke="midnightblue" d="M1401.17,-231.71C1458.49,-228.71 1579.23,-218.94 1676,-188 1694.55,-182.07 1696.7,-174.67 1715,-168 1782.26,-143.48 1806.93,-161.86 1872,-132 1910.13,-114.5 1929.08,-113.45 1948,-76 1952.01,-68.07 1953.79,-62.75 1948,-56 1914.68,-17.17 1756.32,-11.51 1687.29,-10.92"/>
<polygon fill="midnightblue" stroke="midnightblue" points="1687.03,-7.42 1677.01,-10.87 1687,-14.42 1687.03,-7.42"/>
</g>
<!-- Node26&#45;&gt;Node9 -->
<g id="edge37" class="edge">
<title>Node26&#45;&gt;Node9</title>
<path fill="none" stroke="midnightblue" d="M1374.63,-224.27C1380.77,-215.61 1389.46,-201.67 1393,-188 1397.07,-172.31 1392.46,-154.27 1387.47,-141.18"/>
<polygon fill="midnightblue" stroke="midnightblue" points="1390.66,-139.74 1383.54,-131.89 1384.21,-142.46 1390.66,-139.74"/>
</g>
<!-- Node26&#45;&gt;Node10 -->
<g id="edge38" class="edge">
<title>Node26&#45;&gt;Node10</title>
<path fill="none" stroke="midnightblue" d="M1334.94,-229.76C1279.42,-224 1163.84,-210.58 1057.21,-188.01"/>
<polygon fill="midnightblue" stroke="midnightblue" points="1057.77,-184.54 1047.26,-185.86 1056.3,-191.39 1057.77,-184.54"/>
</g>
<!-- Node26&#45;&gt;Node11 -->
<g id="edge41" class="edge">
<title>Node26&#45;&gt;Node11</title>
<path fill="none" stroke="midnightblue" d="M1334.69,-227.13C1290.77,-219.28 1210.89,-204.65 1133,-188.14"/>
<polygon fill="midnightblue" stroke="midnightblue" points="1133.53,-184.67 1123.02,-186.01 1132.07,-191.52 1133.53,-184.67"/>
</g>
<!-- Node26&#45;&gt;Node12 -->
<g id="edge44" class="edge">
<title>Node26&#45;&gt;Node12</title>
<path fill="none" stroke="midnightblue" d="M1334.84,-231.53C1254.99,-227.68 1045.62,-215.73 861.73,-188.09"/>
<polygon fill="midnightblue" stroke="midnightblue" points="862.02,-184.6 851.6,-186.55 860.96,-191.52 862.02,-184.6"/>
</g>
<!-- Node26&#45;&gt;Node14 -->
<g id="edge45" class="edge">
<title>Node26&#45;&gt;Node14</title>
<path fill="none" stroke="midnightblue" d="M1401.44,-232.63C1460.79,-230.65 1575.33,-220.18 1542,-168 1531.17,-151.05 1412.95,-102.33 1355.28,-79.31"/>
<polygon fill="midnightblue" stroke="midnightblue" points="1356.5,-76.03 1345.91,-75.59 1353.91,-82.54 1356.5,-76.03"/>
</g>
<!-- Node26&#45;&gt;Node15 -->
<g id="edge46" class="edge">
<title>Node26&#45;&gt;Node15</title>
<path fill="none" stroke="midnightblue" d="M1334.92,-229.12C1254.9,-219.72 1050.57,-195.74 956.61,-184.71"/>
<polygon fill="midnightblue" stroke="midnightblue" points="956.86,-181.21 946.52,-183.52 956.04,-188.16 956.86,-181.21"/>
</g>
<!-- Node26&#45;&gt;Node17 -->
<g id="edge47" class="edge">
<title>Node26&#45;&gt;Node17</title>
<path fill="none" stroke="midnightblue" d="M1401.05,-231.69C1507.03,-227.35 1847.82,-212.31 2129,-188 2130.32,-187.89 2131.64,-187.77 2132.98,-187.65"/>
<polygon fill="midnightblue" stroke="midnightblue" points="2133.74,-191.09 2143.36,-186.65 2133.07,-184.12 2133.74,-191.09"/>
</g>
<!-- Node26&#45;&gt;Node18 -->
<g id="edge48" class="edge">
<title>Node26&#45;&gt;Node18</title>
<path fill="none" stroke="midnightblue" d="M1359.91,-224.08C1352.84,-216.3 1342.41,-204.8 1333.85,-195.37"/>
<polygon fill="midnightblue" stroke="midnightblue" points="1336.25,-192.8 1326.94,-187.75 1331.07,-197.51 1336.25,-192.8"/>
</g>
<!-- Node26&#45;&gt;Node20 -->
<g id="edge58" class="edge">
<title>Node26&#45;&gt;Node20</title>
<path fill="none" stroke="midnightblue" d="M1339.16,-224.44C1308.14,-215.24 1258.67,-200.56 1224.38,-190.39"/>
<polygon fill="midnightblue" stroke="midnightblue" points="1225.29,-187.01 1214.7,-187.52 1223.29,-193.72 1225.29,-187.01"/>
</g>
<!-- Node26&#45;&gt;Node21 -->
<g id="edge59" class="edge">
<title>Node26&#45;&gt;Node21</title>
<path fill="none" stroke="midnightblue" d="M1334.85,-231.63C1212.61,-226.47 786.54,-207.6 629.16,-187.92"/>
<polygon fill="midnightblue" stroke="midnightblue" points="629.56,-184.44 619.19,-186.62 628.65,-191.39 629.56,-184.44"/>
</g>
<!-- Node26&#45;&gt;Node22 -->
<g id="edge71" class="edge">
<title>Node26&#45;&gt;Node22</title>
<path fill="none" stroke="midnightblue" d="M1334.68,-231.04C1229.51,-224.75 904.58,-204.65 778.79,-188.05"/>
<polygon fill="midnightblue" stroke="midnightblue" points="779.05,-184.55 768.67,-186.66 778.1,-191.49 779.05,-184.55"/>
</g>
<!-- Node27 -->
<g id="node27" class="node">
<title>Node27</title>
<g id="a_node27"><a xlink:title=" ">
<polygon fill="none" stroke="#bfbfbf" points="1704,-56.5 1704,-75.5 1760,-75.5 1760,-56.5 1704,-56.5"/>
<text text-anchor="middle" x="1732" y="-63.5" font-family="Helvetica,sans-Serif" font-size="10.00">optional</text>
</a>
</g>
</g>
<!-- Node26&#45;&gt;Node27 -->
<g id="edge42" class="edge">
<title>Node26&#45;&gt;Node27</title>
<path fill="none" stroke="midnightblue" d="M1401.04,-231.57C1541.69,-225.41 2083.92,-200.84 2096,-188 2143.52,-137.46 1872.6,-89.04 1770.08,-72.76"/>
<polygon fill="midnightblue" stroke="midnightblue" points="1770.56,-69.3 1760.14,-71.2 1769.47,-76.21 1770.56,-69.3"/>
</g>
<!-- Node28 -->
<g id="node28" class="node">
<title>Node28</title>
<g id="a_node28"><a xlink:title=" ">
<polygon fill="none" stroke="#bfbfbf" points="1723.5,-168.5 1723.5,-187.5 1770.5,-187.5 1770.5,-168.5 1723.5,-168.5"/>
<text text-anchor="middle" x="1747" y="-175.5" font-family="Helvetica,sans-Serif" font-size="10.00">queue</text>
</a>
</g>
</g>
<!-- Node26&#45;&gt;Node28 -->
<g id="edge43" class="edge">
<title>Node26&#45;&gt;Node28</title>
<path fill="none" stroke="midnightblue" d="M1401.09,-229.76C1462.22,-223.53 1596.83,-208.63 1709,-188 1710.46,-187.73 1711.95,-187.44 1713.44,-187.14"/>
<polygon fill="midnightblue" stroke="midnightblue" points="1714.33,-190.53 1723.36,-184.99 1712.85,-183.69 1714.33,-190.53"/>
</g>
<!-- Node29 -->
<g id="node29" class="node">
<title>Node29</title>
<g id="a_node29"><a xlink:href="instruction_8h.html" target="_top" xlink:title=" ">
<polygon fill="none" stroke="black" points="1589.5,-168.5 1589.5,-187.5 1666.5,-187.5 1666.5,-168.5 1589.5,-168.5"/>
<text text-anchor="middle" x="1628" y="-175.5" font-family="Helvetica,sans-Serif" font-size="10.00">instruction.h</text>
</a>
</g>
</g>
<!-- Node26&#45;&gt;Node29 -->
<g id="edge49" class="edge">
<title>Node26&#45;&gt;Node29</title>
<path fill="none" stroke="midnightblue" d="M1401.19,-226.11C1446.24,-216.75 1527.07,-199.96 1579.08,-189.16"/>
<polygon fill="midnightblue" stroke="midnightblue" points="1580,-192.54 1589.08,-187.08 1578.58,-185.69 1580,-192.54"/>
</g>
<!-- Node32 -->
<g id="node32" class="node">
<title>Node32</title>
<g id="a_node32"><a xlink:href="util_2lru__table_8h.html" target="_top" xlink:title=" ">
<polygon fill="none" stroke="black" points="1445.5,-168.5 1445.5,-187.5 1532.5,-187.5 1532.5,-168.5 1445.5,-168.5"/>
<text text-anchor="middle" x="1489" y="-175.5" font-family="Helvetica,sans-Serif" font-size="10.00">util/lru_table.h</text>
</a>
</g>
</g>
<!-- Node26&#45;&gt;Node32 -->
<g id="edge60" class="edge">
<title>Node26&#45;&gt;Node32</title>
<path fill="none" stroke="midnightblue" d="M1387.17,-224.44C1406.91,-215.64 1437.89,-201.81 1460.49,-191.72"/>
<polygon fill="midnightblue" stroke="midnightblue" points="1462.21,-194.79 1469.92,-187.52 1459.36,-188.4 1462.21,-194.79"/>
</g>
<!-- Node37 -->
<g id="node37" class="node">
<title>Node37</title>
<g id="a_node37"><a xlink:title=" ">
<polygon fill="none" stroke="#bfbfbf" points="1789,-168.5 1789,-187.5 1931,-187.5 1931,-168.5 1789,-168.5"/>
<text text-anchor="middle" x="1860" y="-175.5" font-family="Helvetica,sans-Serif" font-size="10.00">ooo_cpu_module_decl.inc</text>
</a>
</g>
</g>
<!-- Node26&#45;&gt;Node37 -->
<g id="edge72" class="edge">
<title>Node26&#45;&gt;Node37</title>
<path fill="none" stroke="midnightblue" d="M1401.11,-229.42C1469.51,-222.02 1631.62,-204.43 1778.78,-188.13"/>
<polygon fill="midnightblue" stroke="midnightblue" points="1779.35,-191.59 1788.9,-187.01 1778.58,-184.63 1779.35,-191.59"/>
</g>
<!-- Node38 -->
<g id="node38" class="node">
<title>Node38</title>
<g id="a_node38"><a xlink:title=" ">
<polygon fill="none" stroke="#bfbfbf" points="1949.5,-168.5 1949.5,-187.5 2086.5,-187.5 2086.5,-168.5 1949.5,-168.5"/>
<text text-anchor="middle" x="2018" y="-175.5" font-family="Helvetica,sans-Serif" font-size="10.00">ooo_cpu_module_def.inc</text>
</a>
</g>
</g>
<!-- Node26&#45;&gt;Node38 -->
<g id="edge73" class="edge">
<title>Node26&#45;&gt;Node38</title>
<path fill="none" stroke="midnightblue" d="M1401.24,-230.81C1487.86,-225.01 1727.85,-208.37 1939.08,-188.06"/>
<polygon fill="midnightblue" stroke="midnightblue" points="1939.49,-191.53 1949.11,-187.09 1938.82,-184.56 1939.49,-191.53"/>
</g>
<!-- Node29&#45;&gt;Node6 -->
<g id="edge53" class="edge">
<title>Node29&#45;&gt;Node6</title>
<path fill="none" stroke="midnightblue" d="M1589.48,-172.91C1574.64,-171.36 1557.53,-169.57 1542,-168 1382.29,-151.81 1338.66,-157.37 1176.92,-132.15"/>
<polygon fill="midnightblue" stroke="midnightblue" points="1177.03,-128.62 1166.61,-130.52 1175.94,-135.54 1177.03,-128.62"/>
</g>
<!-- Node29&#45;&gt;Node7 -->
<g id="edge54" class="edge">
<title>Node29&#45;&gt;Node7</title>
<path fill="none" stroke="midnightblue" d="M1666.66,-170.53C1742.33,-156.94 1905.08,-122.75 1933,-76 1937.56,-68.37 1938.76,-62.77 1933,-56 1901.78,-19.32 1753.94,-12.45 1687.49,-11.22"/>
<polygon fill="midnightblue" stroke="midnightblue" points="1687.23,-7.72 1677.18,-11.07 1687.13,-14.72 1687.23,-7.72"/>
</g>
<!-- Node29&#45;&gt;Node9 -->
<g id="edge51" class="edge">
<title>Node29&#45;&gt;Node9</title>
<path fill="none" stroke="midnightblue" d="M1589.37,-168.62C1539.94,-157.9 1455.32,-139.55 1409.92,-129.71"/>
<polygon fill="midnightblue" stroke="midnightblue" points="1410.58,-126.27 1400.07,-127.57 1409.1,-133.11 1410.58,-126.27"/>
</g>
<!-- Node29&#45;&gt;Node14 -->
<g id="edge55" class="edge">
<title>Node29&#45;&gt;Node14</title>
<path fill="none" stroke="midnightblue" d="M1608.82,-168.39C1588.68,-159.35 1556.1,-144.71 1528,-132 1508.43,-123.15 1504.18,-119.37 1484,-112 1441.2,-96.36 1390.33,-82.89 1357.62,-74.87"/>
<polygon fill="midnightblue" stroke="midnightblue" points="1358.22,-71.41 1347.67,-72.46 1356.57,-78.21 1358.22,-71.41"/>
</g>
<!-- Node29&#45;&gt;Node16 -->
<g id="edge52" class="edge">
<title>Node29&#45;&gt;Node16</title>
<path fill="none" stroke="midnightblue" d="M1653.37,-168.38C1704.46,-149.75 1811.41,-103.54 1769,-56 1745.36,-29.5 1503.43,-16.45 1411.33,-12.41"/>
<polygon fill="midnightblue" stroke="midnightblue" points="1411.26,-8.9 1401.12,-11.97 1410.96,-15.9 1411.26,-8.9"/>
</g>
<!-- Node30 -->
<g id="node30" class="node">
<title>Node30</title>
<g id="a_node30"><a xlink:title=" ">
<polygon fill="none" stroke="#bfbfbf" points="1622,-56.5 1622,-75.5 1686,-75.5 1686,-56.5 1622,-56.5"/>
<text text-anchor="middle" x="1654" y="-63.5" font-family="Helvetica,sans-Serif" font-size="10.00">algorithm</text>
</a>
</g>
</g>
<!-- Node29&#45;&gt;Node30 -->
<g id="edge50" class="edge">
<title>Node29&#45;&gt;Node30</title>
<path fill="none" stroke="midnightblue" d="M1630.04,-168.37C1634.24,-150.62 1643.92,-109.67 1649.6,-85.6"/>
<polygon fill="midnightblue" stroke="midnightblue" points="1653.08,-86.13 1651.97,-75.59 1646.26,-84.52 1653.08,-86.13"/>
</g>
<!-- Node31 -->
<g id="node31" class="node">
<title>Node31</title>
<g id="a_node31"><a xlink:href="trace__instruction_8h.html" target="_top" xlink:title=" ">
<polygon fill="none" stroke="black" points="1816.5,-56.5 1816.5,-75.5 1923.5,-75.5 1923.5,-56.5 1816.5,-56.5"/>
<text text-anchor="middle" x="1870" y="-63.5" font-family="Helvetica,sans-Serif" font-size="10.00">trace_instruction.h</text>
</a>
</g>
</g>
<!-- Node29&#45;&gt;Node31 -->
<g id="edge56" class="edge">
<title>Node29&#45;&gt;Node31</title>
<path fill="none" stroke="midnightblue" d="M1666.65,-169.38C1710.51,-160.33 1778.96,-144.82 1802,-132 1824.19,-119.65 1844.51,-98.32 1857.04,-83.48"/>
<polygon fill="midnightblue" stroke="midnightblue" points="1859.86,-85.57 1863.48,-75.61 1854.44,-81.13 1859.86,-85.57"/>
</g>
<!-- Node31&#45;&gt;Node7 -->
<g id="edge57" class="edge">
<title>Node31&#45;&gt;Node7</title>
<path fill="none" stroke="midnightblue" d="M1835.93,-56.44C1794.98,-46.16 1726.78,-29.03 1686.84,-19"/>
<polygon fill="midnightblue" stroke="midnightblue" points="1687.64,-15.59 1677.09,-16.55 1685.94,-22.38 1687.64,-15.59"/>
</g>
<!-- Node33 -->
<g id="node33" class="node">
<title>Node33</title>
<g id="a_node33"><a xlink:href="msl_2lru__table_8h.html" target="_top" xlink:title=" ">
<polygon fill="none" stroke="black" points="1536.5,-112.5 1536.5,-131.5 1625.5,-131.5 1625.5,-112.5 1536.5,-112.5"/>
<text text-anchor="middle" x="1581" y="-119.5" font-family="Helvetica,sans-Serif" font-size="10.00">msl/lru_table.h</text>
</a>
</g>
</g>
<!-- Node32&#45;&gt;Node33 -->
<g id="edge61" class="edge">
<title>Node32&#45;&gt;Node33</title>
<path fill="none" stroke="midnightblue" d="M1503.78,-168.32C1518.27,-159.82 1540.57,-146.73 1557.49,-136.8"/>
<polygon fill="midnightblue" stroke="midnightblue" points="1559.4,-139.74 1566.26,-131.65 1555.86,-133.7 1559.4,-139.74"/>
</g>
<!-- Node33&#45;&gt;Node14 -->
<g id="edge67" class="edge">
<title>Node33&#45;&gt;Node14</title>
<path fill="none" stroke="midnightblue" d="M1537.29,-112.42C1493.03,-103.63 1422.64,-89.41 1362,-76 1360.55,-75.68 1359.07,-75.35 1357.58,-75.01"/>
<polygon fill="midnightblue" stroke="midnightblue" points="1358.22,-71.57 1347.69,-72.73 1356.65,-78.39 1358.22,-71.57"/>
</g>
<!-- Node33&#45;&gt;Node16 -->
<g id="edge64" class="edge">
<title>Node33&#45;&gt;Node16</title>
<path fill="none" stroke="midnightblue" d="M1536.31,-112.53C1484.91,-102.41 1406.26,-85.66 1396,-76 1383.39,-64.12 1378.66,-44.5 1376.93,-29.91"/>
<polygon fill="midnightblue" stroke="midnightblue" points="1380.38,-29.23 1376.08,-19.54 1373.41,-29.8 1380.38,-29.23"/>
</g>
<!-- Node33&#45;&gt;Node27 -->
<g id="edge65" class="edge">
<title>Node33&#45;&gt;Node27</title>
<path fill="none" stroke="midnightblue" d="M1604.93,-112.44C1630.22,-103.4 1670.3,-89.06 1698.68,-78.92"/>
<polygon fill="midnightblue" stroke="midnightblue" points="1699.95,-82.18 1708.19,-75.52 1697.59,-75.59 1699.95,-82.18"/>
</g>
<!-- Node33&#45;&gt;Node30 -->
<g id="edge62" class="edge">
<title>Node33&#45;&gt;Node30</title>
<path fill="none" stroke="midnightblue" d="M1592.73,-112.32C1603.84,-104.11 1620.74,-91.6 1633.98,-81.81"/>
<polygon fill="midnightblue" stroke="midnightblue" points="1636.1,-84.59 1642.06,-75.83 1631.94,-78.97 1636.1,-84.59"/>
</g>
<!-- Node34 -->
<g id="node34" class="node">
<title>Node34</title>
<g id="a_node34"><a xlink:title=" ">
<polygon fill="none" stroke="#bfbfbf" points="1488,-56.5 1488,-75.5 1540,-75.5 1540,-56.5 1488,-56.5"/>
<text text-anchor="middle" x="1514" y="-63.5" font-family="Helvetica,sans-Serif" font-size="10.00">cassert</text>
</a>
</g>
</g>
<!-- Node33&#45;&gt;Node34 -->
<g id="edge63" class="edge">
<title>Node33&#45;&gt;Node34</title>
<path fill="none" stroke="midnightblue" d="M1570.24,-112.32C1560.23,-104.26 1545.11,-92.08 1533.07,-82.37"/>
<polygon fill="midnightblue" stroke="midnightblue" points="1534.94,-79.38 1524.96,-75.83 1530.55,-84.83 1534.94,-79.38"/>
</g>
<!-- Node35 -->
<g id="node35" class="node">
<title>Node35</title>
<g id="a_node35"><a xlink:title=" ">
<polygon fill="none" stroke="#bfbfbf" points="1558.5,-56.5 1558.5,-75.5 1603.5,-75.5 1603.5,-56.5 1558.5,-56.5"/>
<text text-anchor="middle" x="1581" y="-63.5" font-family="Helvetica,sans-Serif" font-size="10.00">utility</text>
</a>
</g>
</g>
<!-- Node33&#45;&gt;Node35 -->
<g id="edge66" class="edge">
<title>Node33&#45;&gt;Node35</title>
<path fill="none" stroke="midnightblue" d="M1581,-112.08C1581,-105.01 1581,-94.86 1581,-85.99"/>
<polygon fill="midnightblue" stroke="midnightblue" points="1584.5,-85.75 1581,-75.75 1577.5,-85.75 1584.5,-85.75"/>
</g>
<!-- Node36 -->
<g id="node36" class="node">
<title>Node36</title>
<g id="a_node36"><a xlink:href="msl_2bits_8h.html" target="_top" xlink:title=" ">
<polygon fill="none" stroke="black" points="1404.5,-56.5 1404.5,-75.5 1469.5,-75.5 1469.5,-56.5 1404.5,-56.5"/>
<text text-anchor="middle" x="1437" y="-63.5" font-family="Helvetica,sans-Serif" font-size="10.00">msl/bits.h</text>
</a>
</g>
</g>
<!-- Node33&#45;&gt;Node36 -->
<g id="edge68" class="edge">
<title>Node33&#45;&gt;Node36</title>
<path fill="none" stroke="midnightblue" d="M1558.18,-112.44C1534.17,-103.44 1496.17,-89.19 1469.13,-79.05"/>
<polygon fill="midnightblue" stroke="midnightblue" points="1470.3,-75.75 1459.71,-75.52 1467.84,-82.3 1470.3,-75.75"/>
</g>
<!-- Node36&#45;&gt;Node7 -->
<g id="edge70" class="edge">
<title>Node36&#45;&gt;Node7</title>
<path fill="none" stroke="midnightblue" d="M1469.64,-56.92C1511.03,-46.66 1581.94,-29.1 1623.02,-18.92"/>
<polygon fill="midnightblue" stroke="midnightblue" points="1623.92,-22.31 1632.78,-16.5 1622.23,-15.51 1623.92,-22.31"/>
</g>
<!-- Node36&#45;&gt;Node16 -->
<g id="edge69" class="edge">
<title>Node36&#45;&gt;Node16</title>
<path fill="none" stroke="midnightblue" d="M1427.2,-56.32C1418.18,-48.34 1404.59,-36.31 1393.68,-26.65"/>
<polygon fill="midnightblue" stroke="midnightblue" points="1395.79,-23.84 1385.98,-19.83 1391.15,-29.08 1395.79,-23.84"/>
</g>
<!-- Node39&#45;&gt;Node4 -->
<g id="edge76" class="edge">
<title>Node39&#45;&gt;Node4</title>
<path fill="none" stroke="midnightblue" d="M1113.38,-232.19C1082.57,-229.85 1026.21,-221.01 994,-188 982.08,-175.78 977.57,-156.52 975.9,-142.13"/>
<polygon fill="midnightblue" stroke="midnightblue" points="979.36,-141.55 975.08,-131.86 972.38,-142.11 979.36,-141.55"/>
</g>
<!-- Node39&#45;&gt;Node9 -->
<g id="edge75" class="edge">
<title>Node39&#45;&gt;Node9</title>
<path fill="none" stroke="midnightblue" d="M1156.85,-231.47C1207.4,-227.49 1330.34,-215.19 1360,-188 1372.85,-176.23 1377.19,-156.3 1378.56,-141.6"/>
<polygon fill="midnightblue" stroke="midnightblue" points="1382.06,-141.79 1379.13,-131.61 1375.07,-141.39 1382.06,-141.79"/>
</g>
<!-- Node39&#45;&gt;Node13 -->
<g id="edge77" class="edge">
<title>Node39&#45;&gt;Node13</title>
<path fill="none" stroke="midnightblue" d="M1113.49,-232.21C1050.11,-229.6 858.53,-219.61 691.2,-187.9"/>
<polygon fill="midnightblue" stroke="midnightblue" points="691.71,-184.43 681.23,-185.98 690.39,-191.31 691.71,-184.43"/>
</g>
<!-- Node39&#45;&gt;Node18 -->
<g id="edge78" class="edge">
<title>Node39&#45;&gt;Node18</title>
<path fill="none" stroke="midnightblue" d="M1156.83,-226.59C1187.11,-217.71 1242.36,-201.49 1279.87,-190.48"/>
<polygon fill="midnightblue" stroke="midnightblue" points="1281.33,-193.7 1289.94,-187.53 1279.36,-186.99 1281.33,-193.7"/>
</g>
<!-- Node39&#45;&gt;Node21 -->
<g id="edge79" class="edge">
<title>Node39&#45;&gt;Node21</title>
<path fill="none" stroke="midnightblue" d="M1113.15,-231.98C1043.8,-228.56 822.36,-216.15 629.25,-188.02"/>
<polygon fill="midnightblue" stroke="midnightblue" points="629.61,-184.53 619.2,-186.54 628.58,-191.46 629.61,-184.53"/>
</g>
<!-- Node39&#45;&gt;Node32 -->
<g id="edge80" class="edge">
<title>Node39&#45;&gt;Node32</title>
<path fill="none" stroke="midnightblue" d="M1156.61,-229.7C1211.2,-221.38 1355.94,-199.3 1435.22,-187.2"/>
<polygon fill="midnightblue" stroke="midnightblue" points="1436.13,-190.61 1445.49,-185.64 1435.07,-183.69 1436.13,-190.61"/>
</g>
</g>
</svg>
