<?xml version="1.0" encoding="UTF-8" standalone="no"?>
<!DOCTYPE svg PUBLIC "-//W3C//DTD SVG 1.1//EN"
 "http://www.w3.org/Graphics/SVG/1.1/DTD/svg11.dtd">
<!-- Generated by graphviz version 2.43.0 (0)
 -->
<!-- Title: test/cpp/src/421&#45;prefetch&#45;fill&#45;level.cc Pages: 1 -->
<svg width="2247pt" height="375pt"
 viewBox="0.00 0.00 2247.39 375.00" xmlns="http://www.w3.org/2000/svg" xmlns:xlink="http://www.w3.org/1999/xlink">
<g id="graph0" class="graph" transform="scale(1 1) rotate(0) translate(4 371)">
<title>test/cpp/src/421&#45;prefetch&#45;fill&#45;level.cc</title>
<!-- Node1 -->
<g id="node1" class="node">
<title>Node1</title>
<g id="a_node1"><a xlink:title=" ">
<polygon fill="#bfbfbf" stroke="black" points="641.89,-336.5 641.89,-366.5 779.89,-366.5 779.89,-336.5 641.89,-336.5"/>
<text text-anchor="start" x="649.89" y="-354.5" font-family="Helvetica,sans-Serif" font-size="10.00">test/cpp/src/421&#45;prefetch</text>
<text text-anchor="middle" x="710.89" y="-343.5" font-family="Helvetica,sans-Serif" font-size="10.00">&#45;fill&#45;level.cc</text>
</a>
</g>
</g>
<!-- Node2 -->
<g id="node2" class="node">
<title>Node2</title>
<g id="a_node2"><a xlink:title=" ">
<polygon fill="none" stroke="#bfbfbf" points="112.89,-280.5 112.89,-299.5 176.89,-299.5 176.89,-280.5 112.89,-280.5"/>
<text text-anchor="middle" x="144.89" y="-287.5" font-family="Helvetica,sans-Serif" font-size="10.00">catch.hpp</text>
</a>
</g>
</g>
<!-- Node1&#45;&gt;Node2 -->
<g id="edge1" class="edge">
<title>Node1&#45;&gt;Node2</title>
<path fill="none" stroke="midnightblue" d="M641.76,-346.51C543,-340.21 355.75,-326.1 187.1,-300.02"/>
<polygon fill="midnightblue" stroke="midnightblue" points="187.47,-296.53 177.04,-298.44 186.38,-303.45 187.47,-296.53"/>
</g>
<!-- Node3 -->
<g id="node3" class="node">
<title>Node3</title>
<g id="a_node3"><a xlink:href="mocks_8hpp.html" target="_top" xlink:title=" ">
<polygon fill="none" stroke="black" points="194.89,-280.5 194.89,-299.5 264.89,-299.5 264.89,-280.5 194.89,-280.5"/>
<text text-anchor="middle" x="229.89" y="-287.5" font-family="Helvetica,sans-Serif" font-size="10.00">mocks.hpp</text>
</a>
</g>
</g>
<!-- Node1&#45;&gt;Node3 -->
<g id="edge2" class="edge">
<title>Node1&#45;&gt;Node3</title>
<path fill="none" stroke="midnightblue" d="M641.71,-341.94C541.77,-329.58 359.71,-307.06 275.21,-296.61"/>
<polygon fill="midnightblue" stroke="midnightblue" points="275.51,-293.12 265.16,-295.36 274.65,-300.06 275.51,-293.12"/>
</g>
<!-- Node8 -->
<g id="node8" class="node">
<title>Node8</title>
<g id="a_node8"><a xlink:href="cache_8h.html" target="_top" xlink:title=" ">
<polygon fill="none" stroke="black" points="683.89,-224.5 683.89,-243.5 737.89,-243.5 737.89,-224.5 683.89,-224.5"/>
<text text-anchor="middle" x="710.89" y="-231.5" font-family="Helvetica,sans-Serif" font-size="10.00">cache.h</text>
</a>
</g>
</g>
<!-- Node1&#45;&gt;Node8 -->
<g id="edge81" class="edge">
<title>Node1&#45;&gt;Node8</title>
<path fill="none" stroke="midnightblue" d="M710.89,-336.34C710.89,-315.62 710.89,-277.02 710.89,-253.9"/>
<polygon fill="midnightblue" stroke="midnightblue" points="714.39,-253.67 710.89,-243.67 707.39,-253.67 714.39,-253.67"/>
</g>
<!-- Node17 -->
<g id="node17" class="node">
<title>Node17</title>
<g id="a_node17"><a xlink:title=" ">
<polygon fill="none" stroke="#bfbfbf" points="2110.39,-168.5 2110.39,-187.5 2239.39,-187.5 2239.39,-168.5 2110.39,-168.5"/>
<text text-anchor="middle" x="2174.89" y="-175.5" font-family="Helvetica,sans-Serif" font-size="10.00">champsim_constants.h</text>
</a>
</g>
</g>
<!-- Node1&#45;&gt;Node17 -->
<g id="edge82" class="edge">
<title>Node1&#45;&gt;Node17</title>
<path fill="none" stroke="midnightblue" d="M779.94,-344.17C878.65,-335.01 1065.77,-317.27 1224.89,-300 1434.46,-277.25 1486.76,-270.62 1695.89,-244 1841.12,-225.51 2010.86,-202.04 2104.26,-188.96"/>
<polygon fill="midnightblue" stroke="midnightblue" points="2105.02,-192.38 2114.44,-187.53 2104.05,-185.45 2105.02,-192.38"/>
</g>
<!-- Node25 -->
<g id="node25" class="node">
<title>Node25</title>
<g id="a_node25"><a xlink:href="defaults_8hpp.html" target="_top" xlink:title=" ">
<polygon fill="none" stroke="black" points="1139.39,-280.5 1139.39,-299.5 1216.39,-299.5 1216.39,-280.5 1139.39,-280.5"/>
<text text-anchor="middle" x="1177.89" y="-287.5" font-family="Helvetica,sans-Serif" font-size="10.00">defaults.hpp</text>
</a>
</g>
</g>
<!-- Node1&#45;&gt;Node25 -->
<g id="edge33" class="edge">
<title>Node1&#45;&gt;Node25</title>
<path fill="none" stroke="midnightblue" d="M780.04,-341.69C875.71,-329.5 1046.03,-307.8 1129.32,-297.19"/>
<polygon fill="midnightblue" stroke="midnightblue" points="1129.79,-300.66 1139.27,-295.92 1128.91,-293.71 1129.79,-300.66"/>
</g>
<!-- Node4 -->
<g id="node4" class="node">
<title>Node4</title>
<g id="a_node4"><a xlink:title=" ">
<polygon fill="none" stroke="#bfbfbf" points="998.39,-112.5 998.39,-131.5 1045.39,-131.5 1045.39,-112.5 998.39,-112.5"/>
<text text-anchor="middle" x="1021.89" y="-119.5" font-family="Helvetica,sans-Serif" font-size="10.00">deque</text>
</a>
</g>
</g>
<!-- Node3&#45;&gt;Node4 -->
<g id="edge3" class="edge">
<title>Node3&#45;&gt;Node4</title>
<path fill="none" stroke="midnightblue" d="M194.73,-280.78C162.44,-272.43 118.12,-258.68 107.89,-244 91.29,-220.19 118.95,-177.55 132.89,-168 204.39,-119 833.42,-121.32 987.79,-122.65"/>
<polygon fill="midnightblue" stroke="midnightblue" points="988.04,-126.15 998.07,-122.74 988.1,-119.15 988.04,-126.15"/>
</g>
<!-- Node5 -->
<g id="node5" class="node">
<title>Node5</title>
<g id="a_node5"><a xlink:title=" ">
<polygon fill="none" stroke="#bfbfbf" points="268.39,-112.5 268.39,-131.5 333.39,-131.5 333.39,-112.5 268.39,-112.5"/>
<text text-anchor="middle" x="300.89" y="-119.5" font-family="Helvetica,sans-Serif" font-size="10.00">exception</text>
</a>
</g>
</g>
<!-- Node3&#45;&gt;Node5 -->
<g id="edge4" class="edge">
<title>Node3&#45;&gt;Node5</title>
<path fill="none" stroke="midnightblue" d="M194.6,-281.56C138.36,-269.63 34.45,-247.21 31.89,-244 10.81,-217.6 10.06,-193.78 31.89,-168 60.37,-134.36 189.72,-125.85 258.14,-123.71"/>
<polygon fill="midnightblue" stroke="midnightblue" points="258.28,-127.21 268.17,-123.43 258.08,-120.21 258.28,-127.21"/>
</g>
<!-- Node6 -->
<g id="node6" class="node">
<title>Node6</title>
<g id="a_node6"><a xlink:title=" ">
<polygon fill="none" stroke="#bfbfbf" points="1102.39,-112.5 1102.39,-131.5 1167.39,-131.5 1167.39,-112.5 1102.39,-112.5"/>
<text text-anchor="middle" x="1134.89" y="-119.5" font-family="Helvetica,sans-Serif" font-size="10.00">functional</text>
</a>
</g>
</g>
<!-- Node3&#45;&gt;Node6 -->
<g id="edge5" class="edge">
<title>Node3&#45;&gt;Node6</title>
<path fill="none" stroke="midnightblue" d="M215.3,-280.5C181.66,-259.89 104.2,-206.16 140.89,-168 176.06,-131.41 1003.27,-135.81 1053.89,-132 1066.34,-131.06 1079.84,-129.7 1092.18,-128.32"/>
<polygon fill="midnightblue" stroke="midnightblue" points="1092.69,-131.79 1102.22,-127.17 1091.89,-124.83 1092.69,-131.79"/>
</g>
<!-- Node7 -->
<g id="node7" class="node">
<title>Node7</title>
<g id="a_node7"><a xlink:title=" ">
<polygon fill="none" stroke="#bfbfbf" points="1658.89,-0.5 1658.89,-19.5 1702.89,-19.5 1702.89,-0.5 1658.89,-0.5"/>
<text text-anchor="middle" x="1680.89" y="-7.5" font-family="Helvetica,sans-Serif" font-size="10.00">limits</text>
</a>
</g>
</g>
<!-- Node3&#45;&gt;Node7 -->
<g id="edge6" class="edge">
<title>Node3&#45;&gt;Node7</title>
<path fill="none" stroke="midnightblue" d="M194.69,-281.74C134.13,-269.24 16.6,-244.88 15.89,-244 -5.4,-217.77 -5.15,-194.43 15.89,-168 84.9,-81.28 149.28,-128.42 258.89,-112 540.42,-69.82 1464.23,-21.89 1648.67,-12.6"/>
<polygon fill="midnightblue" stroke="midnightblue" points="1648.99,-16.09 1658.81,-12.1 1648.64,-9.1 1648.99,-16.09"/>
</g>
<!-- Node3&#45;&gt;Node8 -->
<g id="edge7" class="edge">
<title>Node3&#45;&gt;Node8</title>
<path fill="none" stroke="midnightblue" d="M265.25,-285.03C353.64,-275.11 583.48,-249.3 673.73,-239.17"/>
<polygon fill="midnightblue" stroke="midnightblue" points="674.23,-242.64 683.78,-238.04 673.45,-235.68 674.23,-242.64"/>
</g>
<!-- Node21 -->
<g id="node21" class="node">
<title>Node21</title>
<g id="a_node21"><a xlink:href="operable_8h.html" target="_top" xlink:title=" ">
<polygon fill="none" stroke="black" points="517.89,-168.5 517.89,-187.5 585.89,-187.5 585.89,-168.5 517.89,-168.5"/>
<text text-anchor="middle" x="551.89" y="-175.5" font-family="Helvetica,sans-Serif" font-size="10.00">operable.h</text>
</a>
</g>
</g>
<!-- Node3&#45;&gt;Node21 -->
<g id="edge32" class="edge">
<title>Node3&#45;&gt;Node21</title>
<path fill="none" stroke="midnightblue" d="M254.88,-280.46C311.83,-261.01 451.32,-213.36 516.83,-190.98"/>
<polygon fill="midnightblue" stroke="midnightblue" points="518.35,-194.16 526.68,-187.61 516.09,-187.53 518.35,-194.16"/>
</g>
<!-- Node8&#45;&gt;Node4 -->
<g id="edge10" class="edge">
<title>Node8&#45;&gt;Node4</title>
<path fill="none" stroke="midnightblue" d="M683.55,-232.96C574.96,-232.54 178.07,-228.23 140.89,-188 134.85,-181.47 134.76,-174.44 140.89,-168 170.6,-136.73 830.51,-125.64 988.24,-123.44"/>
<polygon fill="midnightblue" stroke="midnightblue" points="988.36,-126.94 998.31,-123.3 988.26,-119.94 988.36,-126.94"/>
</g>
<!-- Node9 -->
<g id="node9" class="node">
<title>Node9</title>
<g id="a_node9"><a xlink:title=" ">
<polygon fill="none" stroke="#bfbfbf" points="1352.89,-112.5 1352.89,-131.5 1394.89,-131.5 1394.89,-112.5 1352.89,-112.5"/>
<text text-anchor="middle" x="1373.89" y="-119.5" font-family="Helvetica,sans-Serif" font-size="10.00">array</text>
</a>
</g>
</g>
<!-- Node8&#45;&gt;Node9 -->
<g id="edge8" class="edge">
<title>Node8&#45;&gt;Node9</title>
<path fill="none" stroke="midnightblue" d="M683.82,-232.8C617.65,-231.46 456.76,-222.65 508.89,-168 537.98,-137.49 1224.82,-134.77 1266.89,-132 1292.35,-130.33 1321.17,-127.87 1342.48,-125.94"/>
<polygon fill="midnightblue" stroke="midnightblue" points="1342.95,-129.42 1352.59,-125.02 1342.31,-122.45 1342.95,-129.42"/>
</g>
<!-- Node10 -->
<g id="node10" class="node">
<title>Node10</title>
<g id="a_node10"><a xlink:title=" ">
<polygon fill="none" stroke="#bfbfbf" points="1154.89,-168.5 1154.89,-187.5 1198.89,-187.5 1198.89,-168.5 1154.89,-168.5"/>
<text text-anchor="middle" x="1176.89" y="-175.5" font-family="Helvetica,sans-Serif" font-size="10.00">bitset</text>
</a>
</g>
</g>
<!-- Node8&#45;&gt;Node10 -->
<g id="edge9" class="edge">
<title>Node8&#45;&gt;Node10</title>
<path fill="none" stroke="midnightblue" d="M738.04,-231.8C805.31,-228.48 985.15,-217.53 1144.63,-187.69"/>
<polygon fill="midnightblue" stroke="midnightblue" points="1145.45,-191.09 1154.62,-185.79 1144.14,-184.22 1145.45,-191.09"/>
</g>
<!-- Node11 -->
<g id="node11" class="node">
<title>Node11</title>
<g id="a_node11"><a xlink:title=" ">
<polygon fill="none" stroke="#bfbfbf" points="860.89,-168.5 860.89,-187.5 918.89,-187.5 918.89,-168.5 860.89,-168.5"/>
<text text-anchor="middle" x="889.89" y="-175.5" font-family="Helvetica,sans-Serif" font-size="10.00">memory</text>
</a>
</g>
</g>
<!-- Node8&#45;&gt;Node11 -->
<g id="edge11" class="edge">
<title>Node8&#45;&gt;Node11</title>
<path fill="none" stroke="midnightblue" d="M738.07,-224.8C768.43,-215.64 817.76,-200.76 851.92,-190.45"/>
<polygon fill="midnightblue" stroke="midnightblue" points="852.99,-193.79 861.55,-187.55 850.97,-187.08 852.99,-193.79"/>
</g>
<!-- Node12 -->
<g id="node12" class="node">
<title>Node12</title>
<g id="a_node12"><a xlink:title=" ">
<polygon fill="none" stroke="#bfbfbf" points="1071.39,-168.5 1071.39,-187.5 1136.39,-187.5 1136.39,-168.5 1071.39,-168.5"/>
<text text-anchor="middle" x="1103.89" y="-175.5" font-family="Helvetica,sans-Serif" font-size="10.00">stdexcept</text>
</a>
</g>
</g>
<!-- Node8&#45;&gt;Node12 -->
<g id="edge12" class="edge">
<title>Node8&#45;&gt;Node12</title>
<path fill="none" stroke="midnightblue" d="M737.9,-229.29C804.95,-220.08 979.44,-196.1 1060.87,-184.91"/>
<polygon fill="midnightblue" stroke="midnightblue" points="1061.82,-188.31 1071.25,-183.48 1060.87,-181.38 1061.82,-188.31"/>
</g>
<!-- Node13 -->
<g id="node13" class="node">
<title>Node13</title>
<g id="a_node13"><a xlink:title=" ">
<polygon fill="none" stroke="#bfbfbf" points="603.89,-168.5 603.89,-187.5 647.89,-187.5 647.89,-168.5 603.89,-168.5"/>
<text text-anchor="middle" x="625.89" y="-175.5" font-family="Helvetica,sans-Serif" font-size="10.00">string</text>
</a>
</g>
</g>
<!-- Node8&#45;&gt;Node13 -->
<g id="edge13" class="edge">
<title>Node8&#45;&gt;Node13</title>
<path fill="none" stroke="midnightblue" d="M697.23,-224.32C683.97,-215.9 663.62,-202.97 648.04,-193.07"/>
<polygon fill="midnightblue" stroke="midnightblue" points="649.83,-190.06 639.51,-187.65 646.07,-195.97 649.83,-190.06"/>
</g>
<!-- Node14 -->
<g id="node14" class="node">
<title>Node14</title>
<g id="a_node14"><a xlink:title=" ">
<polygon fill="none" stroke="#bfbfbf" points="1315.39,-56.5 1315.39,-75.5 1362.39,-75.5 1362.39,-56.5 1315.39,-56.5"/>
<text text-anchor="middle" x="1338.89" y="-63.5" font-family="Helvetica,sans-Serif" font-size="10.00">vector</text>
</a>
</g>
</g>
<!-- Node8&#45;&gt;Node14 -->
<g id="edge14" class="edge">
<title>Node8&#45;&gt;Node14</title>
<path fill="none" stroke="midnightblue" d="M683.76,-233.43C614.67,-233.68 441.21,-228.48 494.89,-168 549.71,-106.22 1154.12,-75.25 1304.94,-68.45"/>
<polygon fill="midnightblue" stroke="midnightblue" points="1305.17,-71.95 1315,-68.01 1304.86,-64.95 1305.17,-71.95"/>
</g>
<!-- Node15 -->
<g id="node15" class="node">
<title>Node15</title>
<g id="a_node15"><a xlink:href="champsim_8h.html" target="_top" xlink:title=" ">
<polygon fill="none" stroke="black" points="937.39,-168.5 937.39,-187.5 1014.39,-187.5 1014.39,-168.5 937.39,-168.5"/>
<text text-anchor="middle" x="975.89" y="-175.5" font-family="Helvetica,sans-Serif" font-size="10.00">champsim.h</text>
</a>
</g>
</g>
<!-- Node8&#45;&gt;Node15 -->
<g id="edge15" class="edge">
<title>Node8&#45;&gt;Node15</title>
<path fill="none" stroke="midnightblue" d="M738.25,-227.42C782.81,-218.34 871.68,-200.24 927.21,-188.92"/>
<polygon fill="midnightblue" stroke="midnightblue" points="928.07,-192.32 937.17,-186.89 926.67,-185.46 928.07,-192.32"/>
</g>
<!-- Node8&#45;&gt;Node17 -->
<g id="edge18" class="edge">
<title>Node8&#45;&gt;Node17</title>
<path fill="none" stroke="midnightblue" d="M738.05,-232.57C877.82,-230.26 1530.04,-218.26 2062.89,-188 2074.91,-187.32 2087.64,-186.44 2100.04,-185.5"/>
<polygon fill="midnightblue" stroke="midnightblue" points="2100.66,-188.97 2110.36,-184.7 2100.12,-181.99 2100.66,-188.97"/>
</g>
<!-- Node18 -->
<g id="node18" class="node">
<title>Node18</title>
<g id="a_node18"><a xlink:href="channel_8h.html" target="_top" xlink:title=" ">
<polygon fill="none" stroke="black" points="1254.89,-168.5 1254.89,-187.5 1318.89,-187.5 1318.89,-168.5 1254.89,-168.5"/>
<text text-anchor="middle" x="1286.89" y="-175.5" font-family="Helvetica,sans-Serif" font-size="10.00">channel.h</text>
</a>
</g>
</g>
<!-- Node8&#45;&gt;Node18 -->
<g id="edge19" class="edge">
<title>Node8&#45;&gt;Node18</title>
<path fill="none" stroke="midnightblue" d="M738.11,-230.76C813.08,-224.54 1028.83,-206.3 1207.89,-188 1219.78,-186.78 1232.67,-185.36 1244.52,-184.01"/>
<polygon fill="midnightblue" stroke="midnightblue" points="1245.08,-187.47 1254.62,-182.85 1244.28,-180.51 1245.08,-187.47"/>
</g>
<!-- Node20 -->
<g id="node20" class="node">
<title>Node20</title>
<g id="a_node20"><a xlink:href="module__impl_8h.html" target="_top" xlink:title=" ">
<polygon fill="none" stroke="black" points="666.39,-168.5 666.39,-187.5 755.39,-187.5 755.39,-168.5 666.39,-168.5"/>
<text text-anchor="middle" x="710.89" y="-175.5" font-family="Helvetica,sans-Serif" font-size="10.00">module_impl.h</text>
</a>
</g>
</g>
<!-- Node8&#45;&gt;Node20 -->
<g id="edge27" class="edge">
<title>Node8&#45;&gt;Node20</title>
<path fill="none" stroke="midnightblue" d="M710.89,-224.08C710.89,-217.01 710.89,-206.86 710.89,-197.99"/>
<polygon fill="midnightblue" stroke="midnightblue" points="714.39,-197.75 710.89,-187.75 707.39,-197.75 714.39,-197.75"/>
</g>
<!-- Node8&#45;&gt;Node21 -->
<g id="edge28" class="edge">
<title>Node8&#45;&gt;Node21</title>
<path fill="none" stroke="midnightblue" d="M685.69,-224.44C658.94,-215.36 616.48,-200.94 586.58,-190.78"/>
<polygon fill="midnightblue" stroke="midnightblue" points="587.56,-187.42 576.96,-187.52 585.3,-194.05 587.56,-187.42"/>
</g>
<!-- Node22 -->
<g id="node22" class="node">
<title>Node22</title>
<g id="a_node22"><a xlink:title=" ">
<polygon fill="none" stroke="#bfbfbf" points="773.39,-168.5 773.39,-187.5 842.39,-187.5 842.39,-168.5 773.39,-168.5"/>
<text text-anchor="middle" x="807.89" y="-175.5" font-family="Helvetica,sans-Serif" font-size="10.00">type_traits</text>
</a>
</g>
</g>
<!-- Node8&#45;&gt;Node22 -->
<g id="edge29" class="edge">
<title>Node8&#45;&gt;Node22</title>
<path fill="none" stroke="midnightblue" d="M726.47,-224.32C741.88,-215.74 765.7,-202.49 783.59,-192.52"/>
<polygon fill="midnightblue" stroke="midnightblue" points="785.3,-195.58 792.34,-187.65 781.9,-189.46 785.3,-195.58"/>
</g>
<!-- Node23 -->
<g id="node23" class="node">
<title>Node23</title>
<g id="a_node23"><a xlink:title=" ">
<polygon fill="none" stroke="#bfbfbf" points="149.89,-168.5 149.89,-187.5 279.89,-187.5 279.89,-168.5 149.89,-168.5"/>
<text text-anchor="middle" x="214.89" y="-175.5" font-family="Helvetica,sans-Serif" font-size="10.00">cache_module_decl.inc</text>
</a>
</g>
</g>
<!-- Node8&#45;&gt;Node23 -->
<g id="edge30" class="edge">
<title>Node8&#45;&gt;Node23</title>
<path fill="none" stroke="midnightblue" d="M683.72,-230.24C618.09,-223.56 445.49,-205.79 290.44,-188.16"/>
<polygon fill="midnightblue" stroke="midnightblue" points="290.58,-184.66 280.25,-187 289.79,-191.61 290.58,-184.66"/>
</g>
<!-- Node24 -->
<g id="node24" class="node">
<title>Node24</title>
<g id="a_node24"><a xlink:title=" ">
<polygon fill="none" stroke="#bfbfbf" points="298.39,-168.5 298.39,-187.5 423.39,-187.5 423.39,-168.5 298.39,-168.5"/>
<text text-anchor="middle" x="360.89" y="-175.5" font-family="Helvetica,sans-Serif" font-size="10.00">cache_module_def.inc</text>
</a>
</g>
</g>
<!-- Node8&#45;&gt;Node24 -->
<g id="edge31" class="edge">
<title>Node8&#45;&gt;Node24</title>
<path fill="none" stroke="midnightblue" d="M683.71,-228.81C628.91,-220.35 503.8,-201.05 426.41,-189.11"/>
<polygon fill="midnightblue" stroke="midnightblue" points="426.7,-185.61 416.29,-187.55 425.64,-192.53 426.7,-185.61"/>
</g>
<!-- Node15&#45;&gt;Node5 -->
<g id="edge17" class="edge">
<title>Node15&#45;&gt;Node5</title>
<path fill="none" stroke="midnightblue" d="M937.17,-169.35C934.04,-168.85 930.91,-168.39 927.89,-168 814.3,-153.32 465.52,-132.47 343.54,-125.43"/>
<polygon fill="midnightblue" stroke="midnightblue" points="343.65,-121.93 333.46,-124.85 343.25,-128.92 343.65,-121.93"/>
</g>
<!-- Node16 -->
<g id="node16" class="node">
<title>Node16</title>
<g id="a_node16"><a xlink:title=" ">
<polygon fill="none" stroke="#bfbfbf" points="1365.89,-0.5 1365.89,-19.5 1415.89,-19.5 1415.89,-0.5 1365.89,-0.5"/>
<text text-anchor="middle" x="1390.89" y="-7.5" font-family="Helvetica,sans-Serif" font-size="10.00">cstdint</text>
</a>
</g>
</g>
<!-- Node15&#45;&gt;Node16 -->
<g id="edge16" class="edge">
<title>Node15&#45;&gt;Node16</title>
<path fill="none" stroke="midnightblue" d="M975.19,-168.34C974.58,-154.76 975.38,-128.31 988.89,-112 1036,-55.07 1266.3,-24.47 1355.5,-14.6"/>
<polygon fill="midnightblue" stroke="midnightblue" points="1356.09,-18.06 1365.66,-13.5 1355.34,-11.1 1356.09,-18.06"/>
</g>
<!-- Node18&#45;&gt;Node4 -->
<g id="edge22" class="edge">
<title>Node18&#45;&gt;Node4</title>
<path fill="none" stroke="midnightblue" d="M1254.5,-170.65C1196.38,-159.24 1078.68,-136.09 1059.89,-132 1058.44,-131.68 1056.96,-131.36 1055.46,-131.02"/>
<polygon fill="midnightblue" stroke="midnightblue" points="1056.1,-127.58 1045.57,-128.75 1054.53,-134.4 1056.1,-127.58"/>
</g>
<!-- Node18&#45;&gt;Node6 -->
<g id="edge23" class="edge">
<title>Node18&#45;&gt;Node6</title>
<path fill="none" stroke="midnightblue" d="M1262.8,-168.44C1237.34,-159.4 1196.99,-145.06 1168.43,-134.92"/>
<polygon fill="midnightblue" stroke="midnightblue" points="1169.45,-131.57 1158.86,-131.52 1167.11,-138.16 1169.45,-131.57"/>
</g>
<!-- Node18&#45;&gt;Node7 -->
<g id="edge24" class="edge">
<title>Node18&#45;&gt;Node7</title>
<path fill="none" stroke="midnightblue" d="M1285.17,-168.44C1281.27,-146.23 1274.35,-86.41 1305.89,-56 1330.41,-32.35 1562.27,-17.44 1648.66,-12.67"/>
<polygon fill="midnightblue" stroke="midnightblue" points="1648.89,-16.16 1658.68,-12.12 1648.51,-9.17 1648.89,-16.16"/>
</g>
<!-- Node18&#45;&gt;Node9 -->
<g id="edge20" class="edge">
<title>Node18&#45;&gt;Node9</title>
<path fill="none" stroke="midnightblue" d="M1300.86,-168.32C1314.43,-159.9 1335.27,-146.97 1351.21,-137.07"/>
<polygon fill="midnightblue" stroke="midnightblue" points="1353.29,-139.9 1359.94,-131.65 1349.6,-133.95 1353.29,-139.9"/>
</g>
<!-- Node18&#45;&gt;Node14 -->
<g id="edge25" class="edge">
<title>Node18&#45;&gt;Node14</title>
<path fill="none" stroke="midnightblue" d="M1290.97,-168.37C1299.43,-150.46 1319.07,-108.92 1330.4,-84.95"/>
<polygon fill="midnightblue" stroke="midnightblue" points="1333.71,-86.13 1334.82,-75.59 1327.39,-83.14 1333.71,-86.13"/>
</g>
<!-- Node18&#45;&gt;Node16 -->
<g id="edge21" class="edge">
<title>Node18&#45;&gt;Node16</title>
<path fill="none" stroke="midnightblue" d="M1254.59,-170.59C1200.74,-159.76 1097.95,-138.38 1092.89,-132 1087.36,-125.04 1087.71,-119.22 1092.89,-112 1153.94,-26.84 1290.81,-12.59 1355.6,-10.8"/>
<polygon fill="midnightblue" stroke="midnightblue" points="1355.79,-14.3 1365.73,-10.61 1355.66,-7.3 1355.79,-14.3"/>
</g>
<!-- Node19 -->
<g id="node19" class="node">
<title>Node19</title>
<g id="a_node19"><a xlink:title=" ">
<polygon fill="none" stroke="#bfbfbf" points="1185.39,-112.5 1185.39,-131.5 1258.39,-131.5 1258.39,-112.5 1185.39,-112.5"/>
<text text-anchor="middle" x="1221.89" y="-119.5" font-family="Helvetica,sans-Serif" font-size="10.00">string_view</text>
</a>
</g>
</g>
<!-- Node18&#45;&gt;Node19 -->
<g id="edge26" class="edge">
<title>Node18&#45;&gt;Node19</title>
<path fill="none" stroke="midnightblue" d="M1276.44,-168.32C1266.74,-160.26 1252.07,-148.08 1240.39,-138.37"/>
<polygon fill="midnightblue" stroke="midnightblue" points="1242.45,-135.53 1232.52,-131.83 1237.97,-140.92 1242.45,-135.53"/>
</g>
<!-- Node25&#45;&gt;Node8 -->
<g id="edge34" class="edge">
<title>Node25&#45;&gt;Node8</title>
<path fill="none" stroke="midnightblue" d="M1139.27,-284.54C1050.95,-274.32 835.15,-249.37 748.15,-239.31"/>
<polygon fill="midnightblue" stroke="midnightblue" points="748.29,-235.8 737.95,-238.13 747.49,-242.76 748.29,-235.8"/>
</g>
<!-- Node25&#45;&gt;Node17 -->
<g id="edge35" class="edge">
<title>Node25&#45;&gt;Node17</title>
<path fill="none" stroke="midnightblue" d="M1216.81,-284.77C1343.47,-271 1755.29,-226.14 2095.89,-188 2097.2,-187.85 2098.52,-187.7 2099.85,-187.55"/>
<polygon fill="midnightblue" stroke="midnightblue" points="2100.67,-190.98 2110.22,-186.39 2099.89,-184.03 2100.67,-190.98"/>
</g>
<!-- Node26 -->
<g id="node26" class="node">
<title>Node26</title>
<g id="a_node26"><a xlink:href="ooo__cpu_8h.html" target="_top" xlink:title=" ">
<polygon fill="none" stroke="black" points="1302.89,-224.5 1302.89,-243.5 1368.89,-243.5 1368.89,-224.5 1302.89,-224.5"/>
<text text-anchor="middle" x="1335.89" y="-231.5" font-family="Helvetica,sans-Serif" font-size="10.00">ooo_cpu.h</text>
</a>
</g>
</g>
<!-- Node25&#45;&gt;Node26 -->
<g id="edge36" class="edge">
<title>Node25&#45;&gt;Node26</title>
<path fill="none" stroke="midnightblue" d="M1202.92,-280.44C1229.5,-271.36 1271.69,-256.94 1301.41,-246.78"/>
<polygon fill="midnightblue" stroke="midnightblue" points="1302.64,-250.06 1310.97,-243.52 1300.37,-243.44 1302.64,-250.06"/>
</g>
<!-- Node39 -->
<g id="node39" class="node">
<title>Node39</title>
<g id="a_node39"><a xlink:href="ptw_8h.html" target="_top" xlink:title=" ">
<polygon fill="none" stroke="black" points="1156.39,-224.5 1156.39,-243.5 1199.39,-243.5 1199.39,-224.5 1156.39,-224.5"/>
<text text-anchor="middle" x="1177.89" y="-231.5" font-family="Helvetica,sans-Serif" font-size="10.00">ptw.h</text>
</a>
</g>
</g>
<!-- Node25&#45;&gt;Node39 -->
<g id="edge74" class="edge">
<title>Node25&#45;&gt;Node39</title>
<path fill="none" stroke="midnightblue" d="M1177.89,-280.08C1177.89,-273.01 1177.89,-262.86 1177.89,-253.99"/>
<polygon fill="midnightblue" stroke="midnightblue" points="1181.39,-253.75 1177.89,-243.75 1174.39,-253.75 1181.39,-253.75"/>
</g>
<!-- Node26&#45;&gt;Node4 -->
<g id="edge39" class="edge">
<title>Node26&#45;&gt;Node4</title>
<path fill="none" stroke="midnightblue" d="M1318.58,-224.48C1300.42,-215.51 1271.06,-200.92 1245.89,-188 1228.9,-179.29 1225.74,-174.74 1207.89,-168 1204.28,-166.64 1108.11,-143.59 1055.51,-131.02"/>
<polygon fill="midnightblue" stroke="midnightblue" points="1056.15,-127.58 1045.61,-128.66 1054.52,-134.39 1056.15,-127.58"/>
</g>
<!-- Node26&#45;&gt;Node7 -->
<g id="edge40" class="edge">
<title>Node26&#45;&gt;Node7</title>
<path fill="none" stroke="midnightblue" d="M1369.36,-231.55C1510.55,-225.35 2050.84,-200.81 2062.89,-188 2107.01,-141.06 2176.91,-174.98 1984.89,-56 1939.9,-28.13 1782.07,-16.43 1713.31,-12.58"/>
<polygon fill="midnightblue" stroke="midnightblue" points="1713.24,-9.07 1703.07,-12.02 1712.87,-16.06 1713.24,-9.07"/>
</g>
<!-- Node26&#45;&gt;Node9 -->
<g id="edge37" class="edge">
<title>Node26&#45;&gt;Node9</title>
<path fill="none" stroke="midnightblue" d="M1341.71,-224.42C1347.42,-215.64 1355.95,-201.42 1360.89,-188 1366.41,-172.96 1369.77,-155.06 1371.69,-141.85"/>
<polygon fill="midnightblue" stroke="midnightblue" points="1375.2,-142.01 1373.02,-131.64 1368.26,-141.11 1375.2,-142.01"/>
</g>
<!-- Node26&#45;&gt;Node10 -->
<g id="edge38" class="edge">
<title>Node26&#45;&gt;Node10</title>
<path fill="none" stroke="midnightblue" d="M1310.69,-224.44C1283,-215.04 1238.47,-199.91 1208.46,-189.72"/>
<polygon fill="midnightblue" stroke="midnightblue" points="1209.48,-186.37 1198.89,-186.47 1207.23,-193 1209.48,-186.37"/>
</g>
<!-- Node26&#45;&gt;Node11 -->
<g id="edge41" class="edge">
<title>Node26&#45;&gt;Node11</title>
<path fill="none" stroke="midnightblue" d="M1302.64,-230.72C1234.4,-225.75 1073.49,-212.5 929.19,-188.04"/>
<polygon fill="midnightblue" stroke="midnightblue" points="929.72,-184.58 919.27,-186.34 928.53,-191.48 929.72,-184.58"/>
</g>
<!-- Node26&#45;&gt;Node12 -->
<g id="edge44" class="edge">
<title>Node26&#45;&gt;Node12</title>
<path fill="none" stroke="midnightblue" d="M1302.65,-225.26C1261.53,-215.69 1191.46,-199.38 1146.45,-188.91"/>
<polygon fill="midnightblue" stroke="midnightblue" points="1147.22,-185.49 1136.69,-186.64 1145.63,-192.31 1147.22,-185.49"/>
</g>
<!-- Node26&#45;&gt;Node14 -->
<g id="edge45" class="edge">
<title>Node26&#45;&gt;Node14</title>
<path fill="none" stroke="midnightblue" d="M1345.49,-224.42C1354.66,-215.86 1368.45,-202 1377.89,-188 1393.22,-165.24 1397.97,-158.8 1403.89,-132 1405.8,-123.32 1408.01,-119.87 1403.89,-112 1396.61,-98.11 1382.88,-87.65 1369.9,-80.33"/>
<polygon fill="midnightblue" stroke="midnightblue" points="1371.18,-77.05 1360.69,-75.55 1367.96,-83.27 1371.18,-77.05"/>
</g>
<!-- Node26&#45;&gt;Node15 -->
<g id="edge46" class="edge">
<title>Node26&#45;&gt;Node15</title>
<path fill="none" stroke="midnightblue" d="M1302.66,-228.02C1238.82,-218.44 1098.77,-197.43 1024.45,-186.28"/>
<polygon fill="midnightblue" stroke="midnightblue" points="1024.82,-182.8 1014.41,-184.78 1023.78,-189.72 1024.82,-182.8"/>
</g>
<!-- Node26&#45;&gt;Node17 -->
<g id="edge47" class="edge">
<title>Node26&#45;&gt;Node17</title>
<path fill="none" stroke="midnightblue" d="M1368.89,-231.69C1474.73,-227.34 1815.07,-212.29 2095.89,-188 2097.2,-187.89 2098.53,-187.77 2099.86,-187.65"/>
<polygon fill="midnightblue" stroke="midnightblue" points="2100.62,-191.09 2110.24,-186.65 2099.96,-184.12 2100.62,-191.09"/>
</g>
<!-- Node26&#45;&gt;Node18 -->
<g id="edge48" class="edge">
<title>Node26&#45;&gt;Node18</title>
<path fill="none" stroke="midnightblue" d="M1327.79,-224.08C1320.73,-216.3 1310.3,-204.8 1301.74,-195.37"/>
<polygon fill="midnightblue" stroke="midnightblue" points="1304.14,-192.8 1294.83,-187.75 1298.95,-197.51 1304.14,-192.8"/>
</g>
<!-- Node26&#45;&gt;Node20 -->
<g id="edge58" class="edge">
<title>Node26&#45;&gt;Node20</title>
<path fill="none" stroke="midnightblue" d="M1302.66,-230.56C1193.76,-222.55 850.17,-197.06 765.8,-188.05"/>
<polygon fill="midnightblue" stroke="midnightblue" points="766,-184.55 755.66,-186.89 765.2,-191.51 766,-184.55"/>
</g>
<!-- Node26&#45;&gt;Node21 -->
<g id="edge59" class="edge">
<title>Node26&#45;&gt;Node21</title>
<path fill="none" stroke="midnightblue" d="M1302.74,-230.56C1276.9,-228.69 1240.12,-226.08 1207.89,-224 938.86,-206.64 867.15,-223.63 596.21,-187.98"/>
<polygon fill="midnightblue" stroke="midnightblue" points="596.45,-184.48 586.07,-186.63 595.53,-191.42 596.45,-184.48"/>
</g>
<!-- Node26&#45;&gt;Node22 -->
<g id="edge71" class="edge">
<title>Node26&#45;&gt;Node22</title>
<path fill="none" stroke="midnightblue" d="M1302.77,-230.4C1211.47,-223.14 956.59,-202.38 852.31,-187.86"/>
<polygon fill="midnightblue" stroke="midnightblue" points="852.81,-184.4 842.41,-186.43 851.81,-191.32 852.81,-184.4"/>
</g>
<!-- Node27 -->
<g id="node27" class="node">
<title>Node27</title>
<g id="a_node27"><a xlink:title=" ">
<polygon fill="none" stroke="#bfbfbf" points="1755.89,-56.5 1755.89,-75.5 1811.89,-75.5 1811.89,-56.5 1755.89,-56.5"/>
<text text-anchor="middle" x="1783.89" y="-63.5" font-family="Helvetica,sans-Serif" font-size="10.00">optional</text>
</a>
</g>
</g>
<!-- Node26&#45;&gt;Node27 -->
<g id="edge42" class="edge">
<title>Node26&#45;&gt;Node27</title>
<path fill="none" stroke="midnightblue" d="M1369.22,-231.42C1483.28,-225.85 1851.9,-206.48 1868.89,-188 1901.1,-152.95 1842.05,-105.19 1807.05,-81.53"/>
<polygon fill="midnightblue" stroke="midnightblue" points="1808.6,-78.36 1798.32,-75.78 1804.75,-84.2 1808.6,-78.36"/>
</g>
<!-- Node28 -->
<g id="node28" class="node">
<title>Node28</title>
<g id="a_node28"><a xlink:title=" ">
<polygon fill="none" stroke="#bfbfbf" points="1556.39,-168.5 1556.39,-187.5 1603.39,-187.5 1603.39,-168.5 1556.39,-168.5"/>
<text text-anchor="middle" x="1579.89" y="-175.5" font-family="Helvetica,sans-Serif" font-size="10.00">queue</text>
</a>
</g>
</g>
<!-- Node26&#45;&gt;Node28 -->
<g id="edge43" class="edge">
<title>Node26&#45;&gt;Node28</title>
<path fill="none" stroke="midnightblue" d="M1369.09,-226.65C1408.99,-218.86 1478.17,-204.88 1546.15,-188.32"/>
<polygon fill="midnightblue" stroke="midnightblue" points="1547.29,-191.64 1556.16,-185.86 1545.62,-184.84 1547.29,-191.64"/>
</g>
<!-- Node29 -->
<g id="node29" class="node">
<title>Node29</title>
<g id="a_node29"><a xlink:href="instruction_8h.html" target="_top" xlink:title=" ">
<polygon fill="none" stroke="black" points="1782.39,-168.5 1782.39,-187.5 1859.39,-187.5 1859.39,-168.5 1782.39,-168.5"/>
<text text-anchor="middle" x="1820.89" y="-175.5" font-family="Helvetica,sans-Serif" font-size="10.00">instruction.h</text>
</a>
</g>
</g>
<!-- Node26&#45;&gt;Node29 -->
<g id="edge49" class="edge">
<title>Node26&#45;&gt;Node29</title>
<path fill="none" stroke="midnightblue" d="M1368.89,-230.54C1440.36,-225.01 1614.96,-210.42 1771.85,-188.03"/>
<polygon fill="midnightblue" stroke="midnightblue" points="1772.76,-191.44 1782.16,-186.55 1771.76,-184.51 1772.76,-191.44"/>
</g>
<!-- Node32 -->
<g id="node32" class="node">
<title>Node32</title>
<g id="a_node32"><a xlink:href="util_2lru__table_8h.html" target="_top" xlink:title=" ">
<polygon fill="none" stroke="black" points="1451.39,-168.5 1451.39,-187.5 1538.39,-187.5 1538.39,-168.5 1451.39,-168.5"/>
<text text-anchor="middle" x="1494.89" y="-175.5" font-family="Helvetica,sans-Serif" font-size="10.00">util/lru_table.h</text>
</a>
</g>
</g>
<!-- Node26&#45;&gt;Node32 -->
<g id="edge60" class="edge">
<title>Node26&#45;&gt;Node32</title>
<path fill="none" stroke="midnightblue" d="M1361.08,-224.44C1387.83,-215.36 1430.29,-200.94 1460.19,-190.78"/>
<polygon fill="midnightblue" stroke="midnightblue" points="1461.47,-194.05 1469.81,-187.52 1459.21,-187.42 1461.47,-194.05"/>
</g>
<!-- Node37 -->
<g id="node37" class="node">
<title>Node37</title>
<g id="a_node37"><a xlink:title=" ">
<polygon fill="none" stroke="#bfbfbf" points="1621.89,-168.5 1621.89,-187.5 1763.89,-187.5 1763.89,-168.5 1621.89,-168.5"/>
<text text-anchor="middle" x="1692.89" y="-175.5" font-family="Helvetica,sans-Serif" font-size="10.00">ooo_cpu_module_decl.inc</text>
</a>
</g>
</g>
<!-- Node26&#45;&gt;Node37 -->
<g id="edge72" class="edge">
<title>Node26&#45;&gt;Node37</title>
<path fill="none" stroke="midnightblue" d="M1369.15,-227.97C1427.71,-219.11 1550.23,-200.58 1626.61,-189.02"/>
<polygon fill="midnightblue" stroke="midnightblue" points="1627.25,-192.47 1636.61,-187.51 1626.2,-185.55 1627.25,-192.47"/>
</g>
<!-- Node38 -->
<g id="node38" class="node">
<title>Node38</title>
<g id="a_node38"><a xlink:title=" ">
<polygon fill="none" stroke="#bfbfbf" points="1916.39,-168.5 1916.39,-187.5 2053.39,-187.5 2053.39,-168.5 1916.39,-168.5"/>
<text text-anchor="middle" x="1984.89" y="-175.5" font-family="Helvetica,sans-Serif" font-size="10.00">ooo_cpu_module_def.inc</text>
</a>
</g>
</g>
<!-- Node26&#45;&gt;Node38 -->
<g id="edge73" class="edge">
<title>Node26&#45;&gt;Node38</title>
<path fill="none" stroke="midnightblue" d="M1369.09,-230.69C1456.41,-224.56 1699.71,-206.99 1901.89,-188 1903.18,-187.88 1904.49,-187.75 1905.81,-187.63"/>
<polygon fill="midnightblue" stroke="midnightblue" points="1906.45,-191.08 1916.06,-186.62 1905.76,-184.11 1906.45,-191.08"/>
</g>
<!-- Node29&#45;&gt;Node6 -->
<g id="edge53" class="edge">
<title>Node29&#45;&gt;Node6</title>
<path fill="none" stroke="midnightblue" d="M1782.18,-169.31C1779.04,-168.82 1775.91,-168.37 1772.89,-168 1512.42,-135.86 1440.97,-167.78 1177.73,-132.05"/>
<polygon fill="midnightblue" stroke="midnightblue" points="1177.86,-128.53 1167.48,-130.63 1176.9,-135.47 1177.86,-128.53"/>
</g>
<!-- Node29&#45;&gt;Node7 -->
<g id="edge54" class="edge">
<title>Node29&#45;&gt;Node7</title>
<path fill="none" stroke="midnightblue" d="M1824.01,-168.34C1831.14,-146.9 1846.13,-90.63 1820.89,-56 1796.39,-22.4 1746.39,-13.34 1713.26,-11.19"/>
<polygon fill="midnightblue" stroke="midnightblue" points="1713.3,-7.69 1703.15,-10.72 1712.97,-14.68 1713.3,-7.69"/>
</g>
<!-- Node29&#45;&gt;Node9 -->
<g id="edge51" class="edge">
<title>Node29&#45;&gt;Node9</title>
<path fill="none" stroke="midnightblue" d="M1782.15,-169.48C1779.02,-168.95 1775.9,-168.45 1772.89,-168 1628.7,-146.55 1591.67,-148.92 1446.89,-132 1433.21,-130.4 1418.11,-128.55 1405.2,-126.95"/>
<polygon fill="midnightblue" stroke="midnightblue" points="1405.32,-123.44 1394.96,-125.67 1404.45,-130.38 1405.32,-123.44"/>
</g>
<!-- Node29&#45;&gt;Node14 -->
<g id="edge55" class="edge">
<title>Node29&#45;&gt;Node14</title>
<path fill="none" stroke="midnightblue" d="M1782.15,-169.52C1779.02,-168.98 1775.9,-168.47 1772.89,-168 1643.67,-147.94 1606.7,-167.63 1480.89,-132 1480.14,-131.79 1408.02,-98.72 1366.86,-79.84"/>
<polygon fill="midnightblue" stroke="midnightblue" points="1368.16,-76.58 1357.62,-75.6 1365.24,-82.95 1368.16,-76.58"/>
</g>
<!-- Node29&#45;&gt;Node16 -->
<g id="edge52" class="edge">
<title>Node29&#45;&gt;Node16</title>
<path fill="none" stroke="midnightblue" d="M1815.92,-168.42C1802.21,-145.63 1761.38,-83.48 1708.89,-56 1660.27,-30.55 1498.44,-17.63 1426.22,-13.02"/>
<polygon fill="midnightblue" stroke="midnightblue" points="1426.43,-9.53 1416.23,-12.4 1426,-16.52 1426.43,-9.53"/>
</g>
<!-- Node30 -->
<g id="node30" class="node">
<title>Node30</title>
<g id="a_node30"><a xlink:title=" ">
<polygon fill="none" stroke="#bfbfbf" points="1635.89,-56.5 1635.89,-75.5 1699.89,-75.5 1699.89,-56.5 1635.89,-56.5"/>
<text text-anchor="middle" x="1667.89" y="-63.5" font-family="Helvetica,sans-Serif" font-size="10.00">algorithm</text>
</a>
</g>
</g>
<!-- Node29&#45;&gt;Node30 -->
<g id="edge50" class="edge">
<title>Node29&#45;&gt;Node30</title>
<path fill="none" stroke="midnightblue" d="M1787.95,-168.38C1765.4,-161.3 1735.73,-149.54 1713.89,-132 1697.77,-119.06 1684.79,-99.07 1676.78,-84.67"/>
<polygon fill="midnightblue" stroke="midnightblue" points="1679.83,-82.95 1672.05,-75.75 1673.64,-86.23 1679.83,-82.95"/>
</g>
<!-- Node31 -->
<g id="node31" class="node">
<title>Node31</title>
<g id="a_node31"><a xlink:href="trace__instruction_8h.html" target="_top" xlink:title=" ">
<polygon fill="none" stroke="black" points="1868.39,-56.5 1868.39,-75.5 1975.39,-75.5 1975.39,-56.5 1868.39,-56.5"/>
<text text-anchor="middle" x="1921.89" y="-63.5" font-family="Helvetica,sans-Serif" font-size="10.00">trace_instruction.h</text>
</a>
</g>
</g>
<!-- Node29&#45;&gt;Node31 -->
<g id="edge56" class="edge">
<title>Node29&#45;&gt;Node31</title>
<path fill="none" stroke="midnightblue" d="M1828.81,-168.37C1845.7,-149.97 1885.46,-106.67 1907.15,-83.05"/>
<polygon fill="midnightblue" stroke="midnightblue" points="1909.81,-85.32 1914,-75.59 1904.66,-80.59 1909.81,-85.32"/>
</g>
<!-- Node31&#45;&gt;Node7 -->
<g id="edge57" class="edge">
<title>Node31&#45;&gt;Node7</title>
<path fill="none" stroke="midnightblue" d="M1883.7,-56.44C1836.51,-45.87 1757.08,-28.07 1712.92,-18.18"/>
<polygon fill="midnightblue" stroke="midnightblue" points="1713.54,-14.73 1703.02,-15.96 1712.01,-21.56 1713.54,-14.73"/>
</g>
<!-- Node33 -->
<g id="node33" class="node">
<title>Node33</title>
<g id="a_node33"><a xlink:href="msl_2lru__table_8h.html" target="_top" xlink:title=" ">
<polygon fill="none" stroke="black" points="1489.39,-112.5 1489.39,-131.5 1578.39,-131.5 1578.39,-112.5 1489.39,-112.5"/>
<text text-anchor="middle" x="1533.89" y="-119.5" font-family="Helvetica,sans-Serif" font-size="10.00">msl/lru_table.h</text>
</a>
</g>
</g>
<!-- Node32&#45;&gt;Node33 -->
<g id="edge61" class="edge">
<title>Node32&#45;&gt;Node33</title>
<path fill="none" stroke="midnightblue" d="M1501.33,-168.08C1506.83,-160.46 1514.92,-149.26 1521.65,-139.94"/>
<polygon fill="midnightblue" stroke="midnightblue" points="1524.55,-141.91 1527.56,-131.75 1518.87,-137.81 1524.55,-141.91"/>
</g>
<!-- Node33&#45;&gt;Node14 -->
<g id="edge67" class="edge">
<title>Node33&#45;&gt;Node14</title>
<path fill="none" stroke="midnightblue" d="M1502.99,-112.44C1467.35,-102.58 1408.99,-86.41 1372.32,-76.26"/>
<polygon fill="midnightblue" stroke="midnightblue" points="1373.16,-72.86 1362.58,-73.56 1371.29,-79.6 1373.16,-72.86"/>
</g>
<!-- Node33&#45;&gt;Node16 -->
<g id="edge64" class="edge">
<title>Node33&#45;&gt;Node16</title>
<path fill="none" stroke="midnightblue" d="M1489.35,-115.07C1462.89,-109.32 1430.57,-98.05 1409.89,-76 1398.21,-63.55 1393.66,-44.32 1391.92,-30"/>
<polygon fill="midnightblue" stroke="midnightblue" points="1395.38,-29.45 1391.04,-19.79 1388.41,-30.05 1395.38,-29.45"/>
</g>
<!-- Node33&#45;&gt;Node27 -->
<g id="edge65" class="edge">
<title>Node33&#45;&gt;Node27</title>
<path fill="none" stroke="midnightblue" d="M1573.5,-112.44C1620.73,-102.24 1699.12,-85.31 1745.71,-75.25"/>
<polygon fill="midnightblue" stroke="midnightblue" points="1746.67,-78.62 1755.71,-73.09 1745.19,-71.78 1746.67,-78.62"/>
</g>
<!-- Node33&#45;&gt;Node30 -->
<g id="edge62" class="edge">
<title>Node33&#45;&gt;Node30</title>
<path fill="none" stroke="midnightblue" d="M1555.12,-112.44C1577.27,-103.52 1612.2,-89.44 1637.32,-79.32"/>
<polygon fill="midnightblue" stroke="midnightblue" points="1638.78,-82.5 1646.75,-75.52 1636.17,-76.01 1638.78,-82.5"/>
</g>
<!-- Node34 -->
<g id="node34" class="node">
<title>Node34</title>
<g id="a_node34"><a xlink:title=" ">
<polygon fill="none" stroke="#bfbfbf" points="1418.89,-56.5 1418.89,-75.5 1470.89,-75.5 1470.89,-56.5 1418.89,-56.5"/>
<text text-anchor="middle" x="1444.89" y="-63.5" font-family="Helvetica,sans-Serif" font-size="10.00">cassert</text>
</a>
</g>
</g>
<!-- Node33&#45;&gt;Node34 -->
<g id="edge63" class="edge">
<title>Node33&#45;&gt;Node34</title>
<path fill="none" stroke="midnightblue" d="M1519.59,-112.32C1505.7,-103.9 1484.39,-90.97 1468.08,-81.07"/>
<polygon fill="midnightblue" stroke="midnightblue" points="1469.51,-77.85 1459.15,-75.65 1465.88,-83.83 1469.51,-77.85"/>
</g>
<!-- Node35 -->
<g id="node35" class="node">
<title>Node35</title>
<g id="a_node35"><a xlink:title=" ">
<polygon fill="none" stroke="#bfbfbf" points="1572.39,-56.5 1572.39,-75.5 1617.39,-75.5 1617.39,-56.5 1572.39,-56.5"/>
<text text-anchor="middle" x="1594.89" y="-63.5" font-family="Helvetica,sans-Serif" font-size="10.00">utility</text>
</a>
</g>
</g>
<!-- Node33&#45;&gt;Node35 -->
<g id="edge66" class="edge">
<title>Node33&#45;&gt;Node35</title>
<path fill="none" stroke="midnightblue" d="M1543.69,-112.32C1552.7,-104.34 1566.29,-92.31 1577.2,-82.65"/>
<polygon fill="midnightblue" stroke="midnightblue" points="1579.74,-85.08 1584.91,-75.83 1575.1,-79.84 1579.74,-85.08"/>
</g>
<!-- Node36 -->
<g id="node36" class="node">
<title>Node36</title>
<g id="a_node36"><a xlink:href="msl_2bits_8h.html" target="_top" xlink:title=" ">
<polygon fill="none" stroke="black" points="1489.39,-56.5 1489.39,-75.5 1554.39,-75.5 1554.39,-56.5 1489.39,-56.5"/>
<text text-anchor="middle" x="1521.89" y="-63.5" font-family="Helvetica,sans-Serif" font-size="10.00">msl/bits.h</text>
</a>
</g>
</g>
<!-- Node33&#45;&gt;Node36 -->
<g id="edge68" class="edge">
<title>Node33&#45;&gt;Node36</title>
<path fill="none" stroke="midnightblue" d="M1531.9,-112.08C1530.31,-104.93 1528.03,-94.64 1526.04,-85.69"/>
<polygon fill="midnightblue" stroke="midnightblue" points="1529.42,-84.75 1523.83,-75.75 1522.58,-86.27 1529.42,-84.75"/>
</g>
<!-- Node36&#45;&gt;Node7 -->
<g id="edge70" class="edge">
<title>Node36&#45;&gt;Node7</title>
<path fill="none" stroke="midnightblue" d="M1547.08,-56.44C1574.77,-47.04 1619.3,-31.91 1649.31,-21.72"/>
<polygon fill="midnightblue" stroke="midnightblue" points="1650.54,-25 1658.88,-18.47 1648.29,-18.37 1650.54,-25"/>
</g>
<!-- Node36&#45;&gt;Node16 -->
<g id="edge69" class="edge">
<title>Node36&#45;&gt;Node16</title>
<path fill="none" stroke="midnightblue" d="M1501.13,-56.44C1479.57,-47.56 1445.62,-33.56 1421.09,-23.45"/>
<polygon fill="midnightblue" stroke="midnightblue" points="1422.12,-20.09 1411.55,-19.52 1419.46,-26.56 1422.12,-20.09"/>
</g>
<!-- Node39&#45;&gt;Node4 -->
<g id="edge76" class="edge">
<title>Node39&#45;&gt;Node4</title>
<path fill="none" stroke="midnightblue" d="M1156.07,-228.94C1131.01,-223.35 1089.77,-211.23 1061.89,-188 1046.81,-175.44 1035.79,-155.67 1029.18,-141.22"/>
<polygon fill="midnightblue" stroke="midnightblue" points="1032.31,-139.64 1025.15,-131.83 1025.88,-142.4 1032.31,-139.64"/>
</g>
<!-- Node39&#45;&gt;Node9 -->
<g id="edge75" class="edge">
<title>Node39&#45;&gt;Node9</title>
<path fill="none" stroke="midnightblue" d="M1199.45,-230.98C1230.45,-227.15 1288.26,-216.48 1327.89,-188 1344.85,-175.81 1357.82,-155.36 1365.59,-140.65"/>
<polygon fill="midnightblue" stroke="midnightblue" points="1368.8,-142.07 1370.13,-131.56 1362.53,-138.94 1368.8,-142.07"/>
</g>
<!-- Node39&#45;&gt;Node13 -->
<g id="edge77" class="edge">
<title>Node39&#45;&gt;Node13</title>
<path fill="none" stroke="midnightblue" d="M1156.34,-232.65C1085.92,-231.19 856.13,-223.95 658.11,-187.87"/>
<polygon fill="midnightblue" stroke="midnightblue" points="658.58,-184.4 648.11,-186.02 657.31,-191.28 658.58,-184.4"/>
</g>
<!-- Node39&#45;&gt;Node18 -->
<g id="edge78" class="edge">
<title>Node39&#45;&gt;Node18</title>
<path fill="none" stroke="midnightblue" d="M1195.4,-224.32C1212.96,-215.62 1240.22,-202.12 1260.42,-192.11"/>
<polygon fill="midnightblue" stroke="midnightblue" points="1262.01,-195.23 1269.42,-187.65 1258.9,-188.96 1262.01,-195.23"/>
</g>
<!-- Node39&#45;&gt;Node21 -->
<g id="edge79" class="edge">
<title>Node39&#45;&gt;Node21</title>
<path fill="none" stroke="midnightblue" d="M1156.34,-232.34C1080.74,-229.82 820.5,-219.38 596.07,-187.99"/>
<polygon fill="midnightblue" stroke="midnightblue" points="596.47,-184.51 586.08,-186.57 595.49,-191.44 596.47,-184.51"/>
</g>
<!-- Node39&#45;&gt;Node32 -->
<g id="edge80" class="edge">
<title>Node39&#45;&gt;Node32</title>
<path fill="none" stroke="midnightblue" d="M1199.67,-229.29C1249,-220.89 1370.43,-200.2 1441.24,-188.14"/>
<polygon fill="midnightblue" stroke="midnightblue" points="1442.03,-191.55 1451.3,-186.42 1440.86,-184.65 1442.03,-191.55"/>
</g>
</g>
</svg>
