<?xml version="1.0" encoding="UTF-8" standalone="no"?>
<!DOCTYPE svg PUBLIC "-//W3C//DTD SVG 1.1//EN"
 "http://www.w3.org/Graphics/SVG/1.1/DTD/svg11.dtd">
<!-- Generated by graphviz version 2.43.0 (0)
 -->
<!-- Title: test/cpp/src/424&#45;duplicate&#45;prefetch.cc Pages: 1 -->
<svg width="2281pt" height="375pt"
 viewBox="0.00 0.00 2281.00 375.00" xmlns="http://www.w3.org/2000/svg" xmlns:xlink="http://www.w3.org/1999/xlink">
<g id="graph0" class="graph" transform="scale(1 1) rotate(0) translate(4 371)">
<title>test/cpp/src/424&#45;duplicate&#45;prefetch.cc</title>
<!-- Node1 -->
<g id="node1" class="node">
<title>Node1</title>
<g id="a_node1"><a xlink:title=" ">
<polygon fill="#bfbfbf" stroke="black" points="748.5,-336.5 748.5,-366.5 891.5,-366.5 891.5,-336.5 748.5,-336.5"/>
<text text-anchor="start" x="756.5" y="-354.5" font-family="Helvetica,sans-Serif" font-size="10.00">test/cpp/src/424&#45;duplicate</text>
<text text-anchor="middle" x="820" y="-343.5" font-family="Helvetica,sans-Serif" font-size="10.00">&#45;prefetch.cc</text>
</a>
</g>
</g>
<!-- Node2 -->
<g id="node2" class="node">
<title>Node2</title>
<g id="a_node2"><a xlink:title=" ">
<polygon fill="none" stroke="#bfbfbf" points="672,-280.5 672,-299.5 736,-299.5 736,-280.5 672,-280.5"/>
<text text-anchor="middle" x="704" y="-287.5" font-family="Helvetica,sans-Serif" font-size="10.00">catch.hpp</text>
</a>
</g>
</g>
<!-- Node1&#45;&gt;Node2 -->
<g id="edge1" class="edge">
<title>Node1&#45;&gt;Node2</title>
<path fill="none" stroke="midnightblue" d="M792.51,-336.4C773.57,-326.68 748.56,-313.86 729.96,-304.31"/>
<polygon fill="midnightblue" stroke="midnightblue" points="731.37,-301.11 720.88,-299.66 728.18,-307.34 731.37,-301.11"/>
</g>
<!-- Node3 -->
<g id="node3" class="node">
<title>Node3</title>
<g id="a_node3"><a xlink:href="mocks_8hpp.html" target="_top" xlink:title=" ">
<polygon fill="none" stroke="black" points="754,-280.5 754,-299.5 824,-299.5 824,-280.5 754,-280.5"/>
<text text-anchor="middle" x="789" y="-287.5" font-family="Helvetica,sans-Serif" font-size="10.00">mocks.hpp</text>
</a>
</g>
</g>
<!-- Node1&#45;&gt;Node3 -->
<g id="edge2" class="edge">
<title>Node1&#45;&gt;Node3</title>
<path fill="none" stroke="midnightblue" d="M812.65,-336.4C808.33,-328.11 802.83,-317.55 798.23,-308.71"/>
<polygon fill="midnightblue" stroke="midnightblue" points="801.24,-306.91 793.51,-299.66 795.03,-310.14 801.24,-306.91"/>
</g>
<!-- Node8 -->
<g id="node8" class="node">
<title>Node8</title>
<g id="a_node8"><a xlink:href="cache_8h.html" target="_top" xlink:title=" ">
<polygon fill="none" stroke="black" points="825,-224.5 825,-243.5 879,-243.5 879,-224.5 825,-224.5"/>
<text text-anchor="middle" x="852" y="-231.5" font-family="Helvetica,sans-Serif" font-size="10.00">cache.h</text>
</a>
</g>
</g>
<!-- Node1&#45;&gt;Node8 -->
<g id="edge81" class="edge">
<title>Node1&#45;&gt;Node8</title>
<path fill="none" stroke="midnightblue" d="M823.92,-336.34C829.69,-315.53 840.46,-276.66 846.85,-253.58"/>
<polygon fill="midnightblue" stroke="midnightblue" points="850.3,-254.24 849.6,-243.67 843.56,-252.37 850.3,-254.24"/>
</g>
<!-- Node25 -->
<g id="node25" class="node">
<title>Node25</title>
<g id="a_node25"><a xlink:href="defaults_8hpp.html" target="_top" xlink:title=" ">
<polygon fill="none" stroke="black" points="880.5,-280.5 880.5,-299.5 957.5,-299.5 957.5,-280.5 880.5,-280.5"/>
<text text-anchor="middle" x="919" y="-287.5" font-family="Helvetica,sans-Serif" font-size="10.00">defaults.hpp</text>
</a>
</g>
</g>
<!-- Node1&#45;&gt;Node25 -->
<g id="edge33" class="edge">
<title>Node1&#45;&gt;Node25</title>
<path fill="none" stroke="midnightblue" d="M843.46,-336.4C859.33,-326.86 880.19,-314.32 895.97,-304.84"/>
<polygon fill="midnightblue" stroke="midnightblue" points="897.83,-307.81 904.59,-299.66 894.22,-301.81 897.83,-307.81"/>
</g>
<!-- Node4 -->
<g id="node4" class="node">
<title>Node4</title>
<g id="a_node4"><a xlink:title=" ">
<polygon fill="none" stroke="#bfbfbf" points="1350.5,-112.5 1350.5,-131.5 1397.5,-131.5 1397.5,-112.5 1350.5,-112.5"/>
<text text-anchor="middle" x="1374" y="-119.5" font-family="Helvetica,sans-Serif" font-size="10.00">deque</text>
</a>
</g>
</g>
<!-- Node3&#45;&gt;Node4 -->
<g id="edge3" class="edge">
<title>Node3&#45;&gt;Node4</title>
<path fill="none" stroke="midnightblue" d="M753.97,-281.66C750.94,-281.08 747.92,-280.52 745,-280 608.86,-255.86 37.02,-267.52 133,-168 176.08,-123.33 1145.75,-122.61 1340.22,-122.92"/>
<polygon fill="midnightblue" stroke="midnightblue" points="1340.4,-126.42 1350.41,-122.94 1340.41,-119.42 1340.4,-126.42"/>
</g>
<!-- Node5 -->
<g id="node5" class="node">
<title>Node5</title>
<g id="a_node5"><a xlink:title=" ">
<polygon fill="none" stroke="#bfbfbf" points="423.5,-112.5 423.5,-131.5 488.5,-131.5 488.5,-112.5 423.5,-112.5"/>
<text text-anchor="middle" x="456" y="-119.5" font-family="Helvetica,sans-Serif" font-size="10.00">exception</text>
</a>
</g>
</g>
<!-- Node3&#45;&gt;Node5 -->
<g id="edge4" class="edge">
<title>Node3&#45;&gt;Node5</title>
<path fill="none" stroke="midnightblue" d="M753.53,-281.27C750.66,-280.79 747.78,-280.36 745,-280 669.62,-270.36 114.3,-299.13 62,-244 38.75,-219.49 39.51,-193.2 62,-168 85.11,-142.1 316.28,-129.08 413.39,-124.72"/>
<polygon fill="midnightblue" stroke="midnightblue" points="413.62,-128.22 423.46,-124.28 413.31,-121.22 413.62,-128.22"/>
</g>
<!-- Node6 -->
<g id="node6" class="node">
<title>Node6</title>
<g id="a_node6"><a xlink:title=" ">
<polygon fill="none" stroke="#bfbfbf" points="1622.5,-112.5 1622.5,-131.5 1687.5,-131.5 1687.5,-112.5 1622.5,-112.5"/>
<text text-anchor="middle" x="1655" y="-119.5" font-family="Helvetica,sans-Serif" font-size="10.00">functional</text>
</a>
</g>
</g>
<!-- Node3&#45;&gt;Node6 -->
<g id="edge5" class="edge">
<title>Node3&#45;&gt;Node6</title>
<path fill="none" stroke="midnightblue" d="M824.08,-284.74C838.58,-283.09 855.59,-281.29 871,-280 1010.52,-268.36 1368.97,-293.32 1500,-244 1531.07,-232.3 1604.41,-168.52 1637.85,-138.56"/>
<polygon fill="midnightblue" stroke="midnightblue" points="1640.35,-141.02 1645.44,-131.73 1635.67,-135.82 1640.35,-141.02"/>
</g>
<!-- Node7 -->
<g id="node7" class="node">
<title>Node7</title>
<g id="a_node7"><a xlink:title=" ">
<polygon fill="none" stroke="#bfbfbf" points="1538,-0.5 1538,-19.5 1582,-19.5 1582,-0.5 1538,-0.5"/>
<text text-anchor="middle" x="1560" y="-7.5" font-family="Helvetica,sans-Serif" font-size="10.00">limits</text>
</a>
</g>
</g>
<!-- Node3&#45;&gt;Node7 -->
<g id="edge6" class="edge">
<title>Node3&#45;&gt;Node7</title>
<path fill="none" stroke="midnightblue" d="M753.53,-281.27C750.66,-280.79 747.78,-280.35 745,-280 667.74,-270.17 113.03,-281.91 45,-244 14.31,-226.9 0,-214.14 0,-179 0,-179 0,-179 0,-121 0,-41.53 1305.24,-15.41 1527.89,-11.53"/>
<polygon fill="midnightblue" stroke="midnightblue" points="1528.01,-15.03 1537.95,-11.36 1527.89,-8.03 1528.01,-15.03"/>
</g>
<!-- Node3&#45;&gt;Node8 -->
<g id="edge7" class="edge">
<title>Node3&#45;&gt;Node8</title>
<path fill="none" stroke="midnightblue" d="M799.12,-280.32C808.53,-272.26 822.74,-260.08 834.07,-250.37"/>
<polygon fill="midnightblue" stroke="midnightblue" points="836.38,-253 841.69,-243.83 831.82,-247.68 836.38,-253"/>
</g>
<!-- Node21 -->
<g id="node21" class="node">
<title>Node21</title>
<g id="a_node21"><a xlink:href="operable_8h.html" target="_top" xlink:title=" ">
<polygon fill="none" stroke="black" points="1131,-168.5 1131,-187.5 1199,-187.5 1199,-168.5 1131,-168.5"/>
<text text-anchor="middle" x="1165" y="-175.5" font-family="Helvetica,sans-Serif" font-size="10.00">operable.h</text>
</a>
</g>
</g>
<!-- Node3&#45;&gt;Node21 -->
<g id="edge32" class="edge">
<title>Node3&#45;&gt;Node21</title>
<path fill="none" stroke="midnightblue" d="M818.19,-280.46C885.32,-260.82 1050.66,-212.45 1126.21,-190.35"/>
<polygon fill="midnightblue" stroke="midnightblue" points="1127.21,-193.7 1135.83,-187.53 1125.25,-186.98 1127.21,-193.7"/>
</g>
<!-- Node8&#45;&gt;Node4 -->
<g id="edge10" class="edge">
<title>Node8&#45;&gt;Node4</title>
<path fill="none" stroke="midnightblue" d="M824.96,-232.15C767.68,-229.71 637.11,-220.62 610,-188 604.32,-181.16 603.88,-174.45 610,-168 636.35,-140.24 1259.86,-135.25 1298,-132 1311.89,-130.82 1327.17,-129.09 1340.36,-127.47"/>
<polygon fill="midnightblue" stroke="midnightblue" points="1340.94,-130.92 1350.42,-126.2 1340.06,-123.97 1340.94,-130.92"/>
</g>
<!-- Node9 -->
<g id="node9" class="node">
<title>Node9</title>
<g id="a_node9"><a xlink:title=" ">
<polygon fill="none" stroke="#bfbfbf" points="1896,-112.5 1896,-131.5 1938,-131.5 1938,-112.5 1896,-112.5"/>
<text text-anchor="middle" x="1917" y="-119.5" font-family="Helvetica,sans-Serif" font-size="10.00">array</text>
</a>
</g>
</g>
<!-- Node8&#45;&gt;Node9 -->
<g id="edge8" class="edge">
<title>Node8&#45;&gt;Node9</title>
<path fill="none" stroke="midnightblue" d="M879.2,-232.26C1015.74,-228.44 1622.95,-210.31 1704,-188 1722.4,-182.93 1724.19,-174.87 1742,-168 1768.16,-157.91 1843.12,-139.97 1885.97,-130.06"/>
<polygon fill="midnightblue" stroke="midnightblue" points="1886.9,-133.44 1895.86,-127.78 1885.33,-126.62 1886.9,-133.44"/>
</g>
<!-- Node10 -->
<g id="node10" class="node">
<title>Node10</title>
<g id="a_node10"><a xlink:title=" ">
<polygon fill="none" stroke="#bfbfbf" points="909,-168.5 909,-187.5 953,-187.5 953,-168.5 909,-168.5"/>
<text text-anchor="middle" x="931" y="-175.5" font-family="Helvetica,sans-Serif" font-size="10.00">bitset</text>
</a>
</g>
</g>
<!-- Node8&#45;&gt;Node10 -->
<g id="edge9" class="edge">
<title>Node8&#45;&gt;Node10</title>
<path fill="none" stroke="midnightblue" d="M864.69,-224.32C876.9,-215.98 895.58,-203.21 910,-193.35"/>
<polygon fill="midnightblue" stroke="midnightblue" points="912.06,-196.19 918.34,-187.65 908.11,-190.41 912.06,-196.19"/>
</g>
<!-- Node11 -->
<g id="node11" class="node">
<title>Node11</title>
<g id="a_node11"><a xlink:title=" ">
<polygon fill="none" stroke="#bfbfbf" points="1055,-168.5 1055,-187.5 1113,-187.5 1113,-168.5 1055,-168.5"/>
<text text-anchor="middle" x="1084" y="-175.5" font-family="Helvetica,sans-Serif" font-size="10.00">memory</text>
</a>
</g>
</g>
<!-- Node8&#45;&gt;Node11 -->
<g id="edge11" class="edge">
<title>Node8&#45;&gt;Node11</title>
<path fill="none" stroke="midnightblue" d="M879.32,-226.71C915.05,-218.46 979.86,-203.48 1044.94,-188.24"/>
<polygon fill="midnightblue" stroke="midnightblue" points="1046.02,-191.58 1054.96,-185.89 1044.42,-184.77 1046.02,-191.58"/>
</g>
<!-- Node12 -->
<g id="node12" class="node">
<title>Node12</title>
<g id="a_node12"><a xlink:title=" ">
<polygon fill="none" stroke="#bfbfbf" points="971.5,-168.5 971.5,-187.5 1036.5,-187.5 1036.5,-168.5 971.5,-168.5"/>
<text text-anchor="middle" x="1004" y="-175.5" font-family="Helvetica,sans-Serif" font-size="10.00">stdexcept</text>
</a>
</g>
</g>
<!-- Node8&#45;&gt;Node12 -->
<g id="edge12" class="edge">
<title>Node8&#45;&gt;Node12</title>
<path fill="none" stroke="midnightblue" d="M876.08,-224.44C901.54,-215.4 941.89,-201.06 970.46,-190.92"/>
<polygon fill="midnightblue" stroke="midnightblue" points="971.78,-194.16 980.03,-187.52 969.43,-187.57 971.78,-194.16"/>
</g>
<!-- Node13 -->
<g id="node13" class="node">
<title>Node13</title>
<g id="a_node13"><a xlink:title=" ">
<polygon fill="none" stroke="#bfbfbf" points="1255,-168.5 1255,-187.5 1299,-187.5 1299,-168.5 1255,-168.5"/>
<text text-anchor="middle" x="1277" y="-175.5" font-family="Helvetica,sans-Serif" font-size="10.00">string</text>
</a>
</g>
</g>
<!-- Node8&#45;&gt;Node13 -->
<g id="edge13" class="edge">
<title>Node8&#45;&gt;Node13</title>
<path fill="none" stroke="midnightblue" d="M879.25,-229.59C938.86,-222.13 1085.35,-203.75 1208,-188 1220.02,-186.46 1233.21,-184.74 1244.81,-183.23"/>
<polygon fill="midnightblue" stroke="midnightblue" points="1245.48,-186.67 1254.94,-181.9 1244.57,-179.73 1245.48,-186.67"/>
</g>
<!-- Node14 -->
<g id="node14" class="node">
<title>Node14</title>
<g id="a_node14"><a xlink:title=" ">
<polygon fill="none" stroke="#bfbfbf" points="1492.5,-56.5 1492.5,-75.5 1539.5,-75.5 1539.5,-56.5 1492.5,-56.5"/>
<text text-anchor="middle" x="1516" y="-63.5" font-family="Helvetica,sans-Serif" font-size="10.00">vector</text>
</a>
</g>
</g>
<!-- Node8&#45;&gt;Node14 -->
<g id="edge14" class="edge">
<title>Node8&#45;&gt;Node14</title>
<path fill="none" stroke="midnightblue" d="M824.84,-232.33C696.63,-229.04 157.14,-213.7 133,-188 126.91,-181.52 126.95,-174.51 133,-168 144.88,-155.22 1270.75,-82.67 1482.04,-69.17"/>
<polygon fill="midnightblue" stroke="midnightblue" points="1482.46,-72.65 1492.22,-68.51 1482.01,-65.66 1482.46,-72.65"/>
</g>
<!-- Node15 -->
<g id="node15" class="node">
<title>Node15</title>
<g id="a_node15"><a xlink:href="champsim_8h.html" target="_top" xlink:title=" ">
<polygon fill="none" stroke="black" points="813.5,-168.5 813.5,-187.5 890.5,-187.5 890.5,-168.5 813.5,-168.5"/>
<text text-anchor="middle" x="852" y="-175.5" font-family="Helvetica,sans-Serif" font-size="10.00">champsim.h</text>
</a>
</g>
</g>
<!-- Node8&#45;&gt;Node15 -->
<g id="edge15" class="edge">
<title>Node8&#45;&gt;Node15</title>
<path fill="none" stroke="midnightblue" d="M852,-224.08C852,-217.01 852,-206.86 852,-197.99"/>
<polygon fill="midnightblue" stroke="midnightblue" points="855.5,-197.75 852,-187.75 848.5,-197.75 855.5,-197.75"/>
</g>
<!-- Node17 -->
<g id="node17" class="node">
<title>Node17</title>
<g id="a_node17"><a xlink:title=" ">
<polygon fill="none" stroke="#bfbfbf" points="285.5,-168.5 285.5,-187.5 414.5,-187.5 414.5,-168.5 285.5,-168.5"/>
<text text-anchor="middle" x="350" y="-175.5" font-family="Helvetica,sans-Serif" font-size="10.00">champsim_constants.h</text>
</a>
</g>
</g>
<!-- Node8&#45;&gt;Node17 -->
<g id="edge18" class="edge">
<title>Node8&#45;&gt;Node17</title>
<path fill="none" stroke="midnightblue" d="M824.94,-230.31C758.76,-223.7 583.21,-205.95 424.96,-188.09"/>
<polygon fill="midnightblue" stroke="midnightblue" points="424.9,-184.56 414.57,-186.92 424.11,-191.52 424.9,-184.56"/>
</g>
<!-- Node18 -->
<g id="node18" class="node">
<title>Node18</title>
<g id="a_node18"><a xlink:href="channel_8h.html" target="_top" xlink:title=" ">
<polygon fill="none" stroke="black" points="1497,-168.5 1497,-187.5 1561,-187.5 1561,-168.5 1497,-168.5"/>
<text text-anchor="middle" x="1529" y="-175.5" font-family="Helvetica,sans-Serif" font-size="10.00">channel.h</text>
</a>
</g>
</g>
<!-- Node8&#45;&gt;Node18 -->
<g id="edge19" class="edge">
<title>Node8&#45;&gt;Node18</title>
<path fill="none" stroke="midnightblue" d="M879.15,-231.33C963.73,-226.04 1230,-208.8 1450,-188 1461.9,-186.87 1474.8,-185.48 1486.65,-184.13"/>
<polygon fill="midnightblue" stroke="midnightblue" points="1487.21,-187.59 1496.74,-182.96 1486.41,-180.63 1487.21,-187.59"/>
</g>
<!-- Node20 -->
<g id="node20" class="node">
<title>Node20</title>
<g id="a_node20"><a xlink:href="module__impl_8h.html" target="_top" xlink:title=" ">
<polygon fill="none" stroke="black" points="619.5,-168.5 619.5,-187.5 708.5,-187.5 708.5,-168.5 619.5,-168.5"/>
<text text-anchor="middle" x="664" y="-175.5" font-family="Helvetica,sans-Serif" font-size="10.00">module_impl.h</text>
</a>
</g>
</g>
<!-- Node8&#45;&gt;Node20 -->
<g id="edge27" class="edge">
<title>Node8&#45;&gt;Node20</title>
<path fill="none" stroke="midnightblue" d="M824.66,-225.15C792.83,-216 739.97,-200.82 703.64,-190.38"/>
<polygon fill="midnightblue" stroke="midnightblue" points="704.43,-186.97 693.86,-187.58 702.5,-193.7 704.43,-186.97"/>
</g>
<!-- Node8&#45;&gt;Node21 -->
<g id="edge28" class="edge">
<title>Node8&#45;&gt;Node21</title>
<path fill="none" stroke="midnightblue" d="M879.28,-228.83C926.41,-221.56 1026.36,-205.76 1120.76,-188.17"/>
<polygon fill="midnightblue" stroke="midnightblue" points="1121.57,-191.58 1130.76,-186.3 1120.28,-184.7 1121.57,-191.58"/>
</g>
<!-- Node22 -->
<g id="node22" class="node">
<title>Node22</title>
<g id="a_node22"><a xlink:title=" ">
<polygon fill="none" stroke="#bfbfbf" points="726.5,-168.5 726.5,-187.5 795.5,-187.5 795.5,-168.5 726.5,-168.5"/>
<text text-anchor="middle" x="761" y="-175.5" font-family="Helvetica,sans-Serif" font-size="10.00">type_traits</text>
</a>
</g>
</g>
<!-- Node8&#45;&gt;Node22 -->
<g id="edge29" class="edge">
<title>Node8&#45;&gt;Node22</title>
<path fill="none" stroke="midnightblue" d="M837.38,-224.32C823.05,-215.82 800.99,-202.73 784.25,-192.8"/>
<polygon fill="midnightblue" stroke="midnightblue" points="785.97,-189.75 775.58,-187.65 782.4,-195.77 785.97,-189.75"/>
</g>
<!-- Node23 -->
<g id="node23" class="node">
<title>Node23</title>
<g id="a_node23"><a xlink:title=" ">
<polygon fill="none" stroke="#bfbfbf" points="433,-168.5 433,-187.5 563,-187.5 563,-168.5 433,-168.5"/>
<text text-anchor="middle" x="498" y="-175.5" font-family="Helvetica,sans-Serif" font-size="10.00">cache_module_decl.inc</text>
</a>
</g>
</g>
<!-- Node8&#45;&gt;Node23 -->
<g id="edge30" class="edge">
<title>Node8&#45;&gt;Node23</title>
<path fill="none" stroke="midnightblue" d="M824.81,-228.85C769.49,-220.41 642.48,-201.04 564.08,-189.08"/>
<polygon fill="midnightblue" stroke="midnightblue" points="564.24,-185.56 553.83,-187.52 563.19,-192.48 564.24,-185.56"/>
</g>
<!-- Node24 -->
<g id="node24" class="node">
<title>Node24</title>
<g id="a_node24"><a xlink:title=" ">
<polygon fill="none" stroke="#bfbfbf" points="142.5,-168.5 142.5,-187.5 267.5,-187.5 267.5,-168.5 142.5,-168.5"/>
<text text-anchor="middle" x="205" y="-175.5" font-family="Helvetica,sans-Serif" font-size="10.00">cache_module_def.inc</text>
</a>
</g>
</g>
<!-- Node8&#45;&gt;Node24 -->
<g id="edge31" class="edge">
<title>Node8&#45;&gt;Node24</title>
<path fill="none" stroke="midnightblue" d="M824.97,-231.35C743.77,-226.3 494.74,-210.11 277.69,-188.13"/>
<polygon fill="midnightblue" stroke="midnightblue" points="278,-184.65 267.7,-187.11 277.29,-191.61 278,-184.65"/>
</g>
<!-- Node15&#45;&gt;Node5 -->
<g id="edge17" class="edge">
<title>Node15&#45;&gt;Node5</title>
<path fill="none" stroke="midnightblue" d="M813.26,-169.54C810.13,-169 807.01,-168.48 804,-168 694.34,-150.64 564.44,-135.19 498.7,-127.73"/>
<polygon fill="midnightblue" stroke="midnightblue" points="499.04,-124.25 488.71,-126.6 498.26,-131.2 499.04,-124.25"/>
</g>
<!-- Node16 -->
<g id="node16" class="node">
<title>Node16</title>
<g id="a_node16"><a xlink:title=" ">
<polygon fill="none" stroke="#bfbfbf" points="1805,-0.5 1805,-19.5 1855,-19.5 1855,-0.5 1805,-0.5"/>
<text text-anchor="middle" x="1830" y="-7.5" font-family="Helvetica,sans-Serif" font-size="10.00">cstdint</text>
</a>
</g>
</g>
<!-- Node15&#45;&gt;Node16 -->
<g id="edge16" class="edge">
<title>Node15&#45;&gt;Node16</title>
<path fill="none" stroke="midnightblue" d="M890.69,-168.75C989.29,-147.93 1258.16,-92.27 1484,-56 1597.08,-37.84 1731.85,-21.96 1794.6,-14.9"/>
<polygon fill="midnightblue" stroke="midnightblue" points="1795.2,-18.35 1804.75,-13.76 1794.42,-11.39 1795.2,-18.35"/>
</g>
<!-- Node18&#45;&gt;Node4 -->
<g id="edge22" class="edge">
<title>Node18&#45;&gt;Node4</title>
<path fill="none" stroke="midnightblue" d="M1504.44,-168.44C1478.25,-159.32 1436.6,-144.81 1407.43,-134.65"/>
<polygon fill="midnightblue" stroke="midnightblue" points="1408.28,-131.24 1397.68,-131.25 1405.97,-137.85 1408.28,-131.24"/>
</g>
<!-- Node18&#45;&gt;Node6 -->
<g id="edge23" class="edge">
<title>Node18&#45;&gt;Node6</title>
<path fill="none" stroke="midnightblue" d="M1548.97,-168.44C1569.61,-159.6 1602.06,-145.69 1625.63,-135.59"/>
<polygon fill="midnightblue" stroke="midnightblue" points="1627.32,-138.67 1635.13,-131.52 1624.56,-132.24 1627.32,-138.67"/>
</g>
<!-- Node18&#45;&gt;Node7 -->
<g id="edge24" class="edge">
<title>Node18&#45;&gt;Node7</title>
<path fill="none" stroke="midnightblue" d="M1513.22,-168.47C1500.8,-160.77 1484.39,-148.18 1477,-132 1469.51,-115.62 1473.31,-72.31 1484,-56 1494.37,-40.18 1512.4,-29.15 1528.3,-21.98"/>
<polygon fill="midnightblue" stroke="midnightblue" points="1529.95,-25.08 1537.83,-18 1527.26,-18.62 1529.95,-25.08"/>
</g>
<!-- Node18&#45;&gt;Node9 -->
<g id="edge20" class="edge">
<title>Node18&#45;&gt;Node9</title>
<path fill="none" stroke="midnightblue" d="M1561.08,-172.54C1634.31,-162.34 1813.01,-137.47 1885.58,-127.37"/>
<polygon fill="midnightblue" stroke="midnightblue" points="1886.47,-130.78 1895.89,-125.94 1885.51,-123.85 1886.47,-130.78"/>
</g>
<!-- Node18&#45;&gt;Node14 -->
<g id="edge25" class="edge">
<title>Node18&#45;&gt;Node14</title>
<path fill="none" stroke="midnightblue" d="M1515.94,-168.44C1505.09,-160.47 1490.43,-147.52 1484,-132 1476.97,-115.03 1488.37,-96.27 1499.46,-83.29"/>
<polygon fill="midnightblue" stroke="midnightblue" points="1502.29,-85.38 1506.51,-75.66 1497.15,-80.63 1502.29,-85.38"/>
</g>
<!-- Node18&#45;&gt;Node16 -->
<g id="edge21" class="edge">
<title>Node18&#45;&gt;Node16</title>
<path fill="none" stroke="midnightblue" d="M1538.61,-168.45C1548.23,-159.69 1563.27,-145.49 1575,-132 1602.53,-100.34 1595.88,-78.96 1631,-56 1681.42,-23.03 1752.69,-14.01 1794.84,-11.66"/>
<polygon fill="midnightblue" stroke="midnightblue" points="1795.07,-15.16 1804.9,-11.2 1794.75,-8.16 1795.07,-15.16"/>
</g>
<!-- Node19 -->
<g id="node19" class="node">
<title>Node19</title>
<g id="a_node19"><a xlink:title=" ">
<polygon fill="none" stroke="#bfbfbf" points="1492.5,-112.5 1492.5,-131.5 1565.5,-131.5 1565.5,-112.5 1492.5,-112.5"/>
<text text-anchor="middle" x="1529" y="-119.5" font-family="Helvetica,sans-Serif" font-size="10.00">string_view</text>
</a>
</g>
</g>
<!-- Node18&#45;&gt;Node19 -->
<g id="edge26" class="edge">
<title>Node18&#45;&gt;Node19</title>
<path fill="none" stroke="midnightblue" d="M1529,-168.08C1529,-161.01 1529,-150.86 1529,-141.99"/>
<polygon fill="midnightblue" stroke="midnightblue" points="1532.5,-141.75 1529,-131.75 1525.5,-141.75 1532.5,-141.75"/>
</g>
<!-- Node25&#45;&gt;Node8 -->
<g id="edge34" class="edge">
<title>Node25&#45;&gt;Node8</title>
<path fill="none" stroke="midnightblue" d="M908.24,-280.32C898.23,-272.26 883.11,-260.08 871.07,-250.37"/>
<polygon fill="midnightblue" stroke="midnightblue" points="872.94,-247.38 862.96,-243.83 868.55,-252.83 872.94,-247.38"/>
</g>
<!-- Node25&#45;&gt;Node17 -->
<g id="edge35" class="edge">
<title>Node25&#45;&gt;Node17</title>
<path fill="none" stroke="midnightblue" d="M880.34,-281.53C781.27,-262.37 518.14,-211.51 404.04,-189.45"/>
<polygon fill="midnightblue" stroke="midnightblue" points="404.61,-185.99 394.12,-187.53 403.28,-192.86 404.61,-185.99"/>
</g>
<!-- Node26 -->
<g id="node26" class="node">
<title>Node26</title>
<g id="a_node26"><a xlink:href="ooo__cpu_8h.html" target="_top" xlink:title=" ">
<polygon fill="none" stroke="black" points="1244,-224.5 1244,-243.5 1310,-243.5 1310,-224.5 1244,-224.5"/>
<text text-anchor="middle" x="1277" y="-231.5" font-family="Helvetica,sans-Serif" font-size="10.00">ooo_cpu.h</text>
</a>
</g>
</g>
<!-- Node25&#45;&gt;Node26 -->
<g id="edge36" class="edge">
<title>Node25&#45;&gt;Node26</title>
<path fill="none" stroke="midnightblue" d="M957.65,-283.17C1024.89,-273.03 1162.95,-252.2 1233.46,-241.57"/>
<polygon fill="midnightblue" stroke="midnightblue" points="1234.4,-244.97 1243.77,-240.01 1233.36,-238.04 1234.4,-244.97"/>
</g>
<!-- Node39 -->
<g id="node39" class="node">
<title>Node39</title>
<g id="a_node39"><a xlink:href="ptw_8h.html" target="_top" xlink:title=" ">
<polygon fill="none" stroke="black" points="1447.5,-224.5 1447.5,-243.5 1490.5,-243.5 1490.5,-224.5 1447.5,-224.5"/>
<text text-anchor="middle" x="1469" y="-231.5" font-family="Helvetica,sans-Serif" font-size="10.00">ptw.h</text>
</a>
</g>
</g>
<!-- Node25&#45;&gt;Node39 -->
<g id="edge74" class="edge">
<title>Node25&#45;&gt;Node39</title>
<path fill="none" stroke="midnightblue" d="M957.67,-285.2C1061.03,-275.05 1342.26,-247.44 1437.2,-238.12"/>
<polygon fill="midnightblue" stroke="midnightblue" points="1437.72,-241.59 1447.33,-237.13 1437.03,-234.62 1437.72,-241.59"/>
</g>
<!-- Node26&#45;&gt;Node4 -->
<g id="edge39" class="edge">
<title>Node26&#45;&gt;Node4</title>
<path fill="none" stroke="midnightblue" d="M1293.41,-224.48C1307.45,-216.54 1327.48,-203.6 1341,-188 1353.02,-174.13 1362.01,-155.11 1367.55,-141.23"/>
<polygon fill="midnightblue" stroke="midnightblue" points="1370.86,-142.38 1371.1,-131.79 1364.3,-139.92 1370.86,-142.38"/>
</g>
<!-- Node26&#45;&gt;Node7 -->
<g id="edge40" class="edge">
<title>Node26&#45;&gt;Node7</title>
<path fill="none" stroke="midnightblue" d="M1267.32,-224.11C1254.87,-211.53 1235.96,-187.86 1246,-168 1300.53,-60.08 1459.12,-25.14 1527.73,-14.88"/>
<polygon fill="midnightblue" stroke="midnightblue" points="1528.53,-18.3 1537.94,-13.44 1527.55,-11.37 1528.53,-18.3"/>
</g>
<!-- Node26&#45;&gt;Node9 -->
<g id="edge37" class="edge">
<title>Node26&#45;&gt;Node9</title>
<path fill="none" stroke="midnightblue" d="M1310.02,-231.14C1458.51,-222.74 2057.18,-188.87 2058,-188 2092.97,-150.96 1999.47,-133.18 1948.12,-126.42"/>
<polygon fill="midnightblue" stroke="midnightblue" points="1948.52,-122.94 1938.16,-125.17 1947.65,-129.88 1948.52,-122.94"/>
</g>
<!-- Node26&#45;&gt;Node10 -->
<g id="edge38" class="edge">
<title>Node26&#45;&gt;Node10</title>
<path fill="none" stroke="midnightblue" d="M1243.62,-229.79C1187.57,-224.07 1070.87,-210.72 963.3,-188.02"/>
<polygon fill="midnightblue" stroke="midnightblue" points="963.77,-184.54 953.26,-185.87 962.3,-191.39 963.77,-184.54"/>
</g>
<!-- Node26&#45;&gt;Node11 -->
<g id="edge41" class="edge">
<title>Node26&#45;&gt;Node11</title>
<path fill="none" stroke="midnightblue" d="M1246.42,-224.44C1213,-215.09 1159.37,-200.09 1122.96,-189.9"/>
<polygon fill="midnightblue" stroke="midnightblue" points="1123.75,-186.49 1113.17,-187.16 1121.86,-193.23 1123.75,-186.49"/>
</g>
<!-- Node26&#45;&gt;Node12 -->
<g id="edge44" class="edge">
<title>Node26&#45;&gt;Node12</title>
<path fill="none" stroke="midnightblue" d="M1243.68,-226.71C1200.59,-218.53 1122.96,-203.65 1046.37,-188.04"/>
<polygon fill="midnightblue" stroke="midnightblue" points="1047.05,-184.61 1036.55,-186.04 1045.64,-191.47 1047.05,-184.61"/>
</g>
<!-- Node26&#45;&gt;Node14 -->
<g id="edge45" class="edge">
<title>Node26&#45;&gt;Node14</title>
<path fill="none" stroke="midnightblue" d="M1283.67,-224.34C1290.31,-215.5 1300.56,-201.23 1308,-188 1326.13,-155.74 1313.74,-135.88 1342,-112 1344.73,-109.7 1432.45,-87.7 1482.28,-75.33"/>
<polygon fill="midnightblue" stroke="midnightblue" points="1483.42,-78.65 1492.29,-72.85 1481.74,-71.86 1483.42,-78.65"/>
</g>
<!-- Node26&#45;&gt;Node15 -->
<g id="edge46" class="edge">
<title>Node26&#45;&gt;Node15</title>
<path fill="none" stroke="midnightblue" d="M1243.87,-229.79C1179.72,-223.43 1033.91,-208.17 900.71,-188.01"/>
<polygon fill="midnightblue" stroke="midnightblue" points="901.15,-184.54 890.73,-186.49 900.09,-191.46 901.15,-184.54"/>
</g>
<!-- Node26&#45;&gt;Node17 -->
<g id="edge47" class="edge">
<title>Node26&#45;&gt;Node17</title>
<path fill="none" stroke="midnightblue" d="M1243.61,-232.06C1130.36,-228.7 750.28,-215.99 424.65,-187.99"/>
<polygon fill="midnightblue" stroke="midnightblue" points="424.81,-184.49 414.55,-187.11 424.21,-191.46 424.81,-184.49"/>
</g>
<!-- Node26&#45;&gt;Node18 -->
<g id="edge48" class="edge">
<title>Node26&#45;&gt;Node18</title>
<path fill="none" stroke="midnightblue" d="M1310.2,-225.88C1355.72,-216.13 1437.48,-198.61 1487.13,-187.97"/>
<polygon fill="midnightblue" stroke="midnightblue" points="1487.87,-191.39 1496.92,-185.87 1486.41,-184.55 1487.87,-191.39"/>
</g>
<!-- Node26&#45;&gt;Node20 -->
<g id="edge58" class="edge">
<title>Node26&#45;&gt;Node20</title>
<path fill="none" stroke="midnightblue" d="M1243.76,-231.35C1158.31,-226.9 923.85,-213.31 718.83,-188.13"/>
<polygon fill="midnightblue" stroke="midnightblue" points="719.13,-184.65 708.78,-186.89 718.27,-191.59 719.13,-184.65"/>
</g>
<!-- Node26&#45;&gt;Node21 -->
<g id="edge59" class="edge">
<title>Node26&#45;&gt;Node21</title>
<path fill="none" stroke="midnightblue" d="M1259.01,-224.32C1240.96,-215.62 1212.95,-202.12 1192.2,-192.11"/>
<polygon fill="midnightblue" stroke="midnightblue" points="1193.48,-188.84 1182.95,-187.65 1190.44,-195.15 1193.48,-188.84"/>
</g>
<!-- Node26&#45;&gt;Node22 -->
<g id="edge71" class="edge">
<title>Node26&#45;&gt;Node22</title>
<path fill="none" stroke="midnightblue" d="M1243.87,-231.12C1168.03,-226.55 975.83,-213.43 805.81,-188.13"/>
<polygon fill="midnightblue" stroke="midnightblue" points="806.08,-184.63 795.67,-186.6 805.04,-191.55 806.08,-184.63"/>
</g>
<!-- Node27 -->
<g id="node27" class="node">
<title>Node27</title>
<g id="a_node27"><a xlink:title=" ">
<polygon fill="none" stroke="#bfbfbf" points="1961,-56.5 1961,-75.5 2017,-75.5 2017,-56.5 1961,-56.5"/>
<text text-anchor="middle" x="1989" y="-63.5" font-family="Helvetica,sans-Serif" font-size="10.00">optional</text>
</a>
</g>
</g>
<!-- Node26&#45;&gt;Node27 -->
<g id="edge42" class="edge">
<title>Node26&#45;&gt;Node27</title>
<path fill="none" stroke="midnightblue" d="M1310,-231.16C1460.51,-222.75 2074.58,-188.44 2075,-188 2107.99,-153.1 2047.38,-104.89 2011.96,-81.25"/>
<polygon fill="midnightblue" stroke="midnightblue" points="2013.45,-78.04 2003.15,-75.52 2009.63,-83.91 2013.45,-78.04"/>
</g>
<!-- Node28 -->
<g id="node28" class="node">
<title>Node28</title>
<g id="a_node28"><a xlink:title=" ">
<polygon fill="none" stroke="#bfbfbf" points="1393.5,-168.5 1393.5,-187.5 1440.5,-187.5 1440.5,-168.5 1393.5,-168.5"/>
<text text-anchor="middle" x="1417" y="-175.5" font-family="Helvetica,sans-Serif" font-size="10.00">queue</text>
</a>
</g>
</g>
<!-- Node26&#45;&gt;Node28 -->
<g id="edge43" class="edge">
<title>Node26&#45;&gt;Node28</title>
<path fill="none" stroke="midnightblue" d="M1299.18,-224.44C1322.43,-215.48 1359.15,-201.31 1385.42,-191.18"/>
<polygon fill="midnightblue" stroke="midnightblue" points="1386.85,-194.38 1394.92,-187.52 1384.33,-187.85 1386.85,-194.38"/>
</g>
<!-- Node29 -->
<g id="node29" class="node">
<title>Node29</title>
<g id="a_node29"><a xlink:href="instruction_8h.html" target="_top" xlink:title=" ">
<polygon fill="none" stroke="black" points="1617.5,-168.5 1617.5,-187.5 1694.5,-187.5 1694.5,-168.5 1617.5,-168.5"/>
<text text-anchor="middle" x="1656" y="-175.5" font-family="Helvetica,sans-Serif" font-size="10.00">instruction.h</text>
</a>
</g>
</g>
<!-- Node26&#45;&gt;Node29 -->
<g id="edge49" class="edge">
<title>Node26&#45;&gt;Node29</title>
<path fill="none" stroke="midnightblue" d="M1310.3,-228.26C1377.37,-218.7 1528.99,-197.1 1607.24,-185.95"/>
<polygon fill="midnightblue" stroke="midnightblue" points="1607.92,-189.39 1617.32,-184.51 1606.93,-182.46 1607.92,-189.39"/>
</g>
<!-- Node32 -->
<g id="node32" class="node">
<title>Node32</title>
<g id="a_node32"><a xlink:href="util_2lru__table_8h.html" target="_top" xlink:title=" ">
<polygon fill="none" stroke="black" points="2143.5,-168.5 2143.5,-187.5 2230.5,-187.5 2230.5,-168.5 2143.5,-168.5"/>
<text text-anchor="middle" x="2187" y="-175.5" font-family="Helvetica,sans-Serif" font-size="10.00">util/lru_table.h</text>
</a>
</g>
</g>
<!-- Node26&#45;&gt;Node32 -->
<g id="edge60" class="edge">
<title>Node26&#45;&gt;Node32</title>
<path fill="none" stroke="midnightblue" d="M1310.2,-231.12C1342.94,-229.28 1394.42,-226.4 1439,-224 1745.64,-207.48 1823.54,-219.58 2129,-188 2130.46,-187.85 2131.93,-187.69 2133.42,-187.52"/>
<polygon fill="midnightblue" stroke="midnightblue" points="2133.88,-190.99 2143.36,-186.26 2133,-184.04 2133.88,-190.99"/>
</g>
<!-- Node37 -->
<g id="node37" class="node">
<title>Node37</title>
<g id="a_node37"><a xlink:title=" ">
<polygon fill="none" stroke="#bfbfbf" points="1751,-168.5 1751,-187.5 1893,-187.5 1893,-168.5 1751,-168.5"/>
<text text-anchor="middle" x="1822" y="-175.5" font-family="Helvetica,sans-Serif" font-size="10.00">ooo_cpu_module_decl.inc</text>
</a>
</g>
</g>
<!-- Node26&#45;&gt;Node37 -->
<g id="edge72" class="edge">
<title>Node26&#45;&gt;Node37</title>
<path fill="none" stroke="midnightblue" d="M1310.2,-229.84C1385.91,-222.63 1577.14,-204.28 1737,-188 1738.11,-187.89 1739.22,-187.77 1740.34,-187.66"/>
<polygon fill="midnightblue" stroke="midnightblue" points="1740.99,-191.11 1750.58,-186.6 1740.28,-184.15 1740.99,-191.11"/>
</g>
<!-- Node38 -->
<g id="node38" class="node">
<title>Node38</title>
<g id="a_node38"><a xlink:title=" ">
<polygon fill="none" stroke="#bfbfbf" points="1911.5,-168.5 1911.5,-187.5 2048.5,-187.5 2048.5,-168.5 1911.5,-168.5"/>
<text text-anchor="middle" x="1980" y="-175.5" font-family="Helvetica,sans-Serif" font-size="10.00">ooo_cpu_module_def.inc</text>
</a>
</g>
</g>
<!-- Node26&#45;&gt;Node38 -->
<g id="edge73" class="edge">
<title>Node26&#45;&gt;Node38</title>
<path fill="none" stroke="midnightblue" d="M1310.24,-231.11C1402.29,-225.77 1668.48,-209.62 1901.11,-188.04"/>
<polygon fill="midnightblue" stroke="midnightblue" points="1901.48,-191.52 1911.11,-187.11 1900.83,-184.55 1901.48,-191.52"/>
</g>
<!-- Node29&#45;&gt;Node6 -->
<g id="edge53" class="edge">
<title>Node29&#45;&gt;Node6</title>
<path fill="none" stroke="midnightblue" d="M1655.83,-168.08C1655.7,-161.01 1655.52,-150.86 1655.35,-141.99"/>
<polygon fill="midnightblue" stroke="midnightblue" points="1658.85,-141.68 1655.16,-131.75 1651.85,-141.81 1658.85,-141.68"/>
</g>
<!-- Node29&#45;&gt;Node7 -->
<g id="edge54" class="edge">
<title>Node29&#45;&gt;Node7</title>
<path fill="none" stroke="midnightblue" d="M1688.7,-168.38C1707.97,-161.61 1731.2,-150.22 1745,-132 1765.61,-104.8 1777.26,-82.7 1756,-56 1735.9,-30.76 1642.63,-18.51 1592.34,-13.65"/>
<polygon fill="midnightblue" stroke="midnightblue" points="1592.59,-10.15 1582.31,-12.72 1591.94,-17.12 1592.59,-10.15"/>
</g>
<!-- Node29&#45;&gt;Node9 -->
<g id="edge51" class="edge">
<title>Node29&#45;&gt;Node9</title>
<path fill="none" stroke="midnightblue" d="M1694.53,-170C1739.62,-161.65 1816.47,-146.94 1882,-132 1883.27,-131.71 1884.57,-131.41 1885.88,-131.1"/>
<polygon fill="midnightblue" stroke="midnightblue" points="1887.08,-134.41 1895.95,-128.61 1885.4,-127.61 1887.08,-134.41"/>
</g>
<!-- Node29&#45;&gt;Node14 -->
<g id="edge55" class="edge">
<title>Node29&#45;&gt;Node14</title>
<path fill="none" stroke="midnightblue" d="M1668.33,-168.43C1685.22,-155.64 1711.87,-131.02 1697,-112 1679.06,-89.06 1596.96,-76.14 1549.72,-70.48"/>
<polygon fill="midnightblue" stroke="midnightblue" points="1549.98,-66.99 1539.65,-69.32 1549.18,-73.94 1549.98,-66.99"/>
</g>
<!-- Node29&#45;&gt;Node16 -->
<g id="edge52" class="edge">
<title>Node29&#45;&gt;Node16</title>
<path fill="none" stroke="midnightblue" d="M1693.32,-168.46C1716.16,-161.69 1744.8,-150.25 1765,-132 1796.74,-103.33 1815.91,-55.43 1824.55,-29.33"/>
<polygon fill="midnightblue" stroke="midnightblue" points="1827.95,-30.18 1827.61,-19.59 1821.27,-28.08 1827.95,-30.18"/>
</g>
<!-- Node30 -->
<g id="node30" class="node">
<title>Node30</title>
<g id="a_node30"><a xlink:title=" ">
<polygon fill="none" stroke="#bfbfbf" points="1872,-56.5 1872,-75.5 1936,-75.5 1936,-56.5 1872,-56.5"/>
<text text-anchor="middle" x="1904" y="-63.5" font-family="Helvetica,sans-Serif" font-size="10.00">algorithm</text>
</a>
</g>
</g>
<!-- Node29&#45;&gt;Node30 -->
<g id="edge50" class="edge">
<title>Node29&#45;&gt;Node30</title>
<path fill="none" stroke="midnightblue" d="M1694.57,-170.51C1741.9,-162.07 1818.95,-146.68 1844,-132 1864.41,-120.04 1881.98,-98.94 1892.74,-84.03"/>
<polygon fill="midnightblue" stroke="midnightblue" points="1895.7,-85.9 1898.52,-75.68 1889.95,-81.91 1895.7,-85.9"/>
</g>
<!-- Node31 -->
<g id="node31" class="node">
<title>Node31</title>
<g id="a_node31"><a xlink:href="trace__instruction_8h.html" target="_top" xlink:title=" ">
<polygon fill="none" stroke="black" points="1639.5,-56.5 1639.5,-75.5 1746.5,-75.5 1746.5,-56.5 1639.5,-56.5"/>
<text text-anchor="middle" x="1693" y="-63.5" font-family="Helvetica,sans-Serif" font-size="10.00">trace_instruction.h</text>
</a>
</g>
</g>
<!-- Node29&#45;&gt;Node31 -->
<g id="edge56" class="edge">
<title>Node29&#45;&gt;Node31</title>
<path fill="none" stroke="midnightblue" d="M1682.93,-168.36C1699.72,-161.41 1719.98,-149.82 1730,-132 1739.47,-115.16 1725.43,-95.94 1712.01,-82.79"/>
<polygon fill="midnightblue" stroke="midnightblue" points="1714.11,-79.97 1704.37,-75.81 1709.4,-85.14 1714.11,-79.97"/>
</g>
<!-- Node31&#45;&gt;Node7 -->
<g id="edge57" class="edge">
<title>Node31&#45;&gt;Node7</title>
<path fill="none" stroke="midnightblue" d="M1671.93,-56.44C1649.94,-47.52 1615.27,-33.44 1590.34,-23.32"/>
<polygon fill="midnightblue" stroke="midnightblue" points="1591.56,-20.04 1580.98,-19.52 1588.92,-26.52 1591.56,-20.04"/>
</g>
<!-- Node33 -->
<g id="node33" class="node">
<title>Node33</title>
<g id="a_node33"><a xlink:href="msl_2lru__table_8h.html" target="_top" xlink:title=" ">
<polygon fill="none" stroke="black" points="2135.5,-112.5 2135.5,-131.5 2224.5,-131.5 2224.5,-112.5 2135.5,-112.5"/>
<text text-anchor="middle" x="2180" y="-119.5" font-family="Helvetica,sans-Serif" font-size="10.00">msl/lru_table.h</text>
</a>
</g>
</g>
<!-- Node32&#45;&gt;Node33 -->
<g id="edge61" class="edge">
<title>Node32&#45;&gt;Node33</title>
<path fill="none" stroke="midnightblue" d="M2185.84,-168.08C2184.92,-160.93 2183.58,-150.64 2182.42,-141.69"/>
<polygon fill="midnightblue" stroke="midnightblue" points="2185.89,-141.22 2181.13,-131.75 2178.95,-142.12 2185.89,-141.22"/>
</g>
<!-- Node33&#45;&gt;Node14 -->
<g id="edge67" class="edge">
<title>Node33&#45;&gt;Node14</title>
<path fill="none" stroke="midnightblue" d="M2135.4,-117.37C2010.74,-107.23 1660.55,-78.76 1549.93,-69.76"/>
<polygon fill="midnightblue" stroke="midnightblue" points="1549.95,-66.25 1539.7,-68.93 1549.38,-73.23 1549.95,-66.25"/>
</g>
<!-- Node33&#45;&gt;Node16 -->
<g id="edge64" class="edge">
<title>Node33&#45;&gt;Node16</title>
<path fill="none" stroke="midnightblue" d="M2173.38,-112.11C2162.11,-97.71 2137.72,-69.52 2110,-56 2028.9,-16.44 1920.4,-10.46 1865.31,-10.25"/>
<polygon fill="midnightblue" stroke="midnightblue" points="1865.02,-6.75 1855.03,-10.28 1865.04,-13.75 1865.02,-6.75"/>
</g>
<!-- Node33&#45;&gt;Node27 -->
<g id="edge65" class="edge">
<title>Node33&#45;&gt;Node27</title>
<path fill="none" stroke="midnightblue" d="M2149.74,-112.44C2116.47,-103.04 2062.97,-87.91 2026.93,-77.72"/>
<polygon fill="midnightblue" stroke="midnightblue" points="2027.83,-74.34 2017.25,-74.99 2025.93,-81.08 2027.83,-74.34"/>
</g>
<!-- Node33&#45;&gt;Node30 -->
<g id="edge62" class="edge">
<title>Node33&#45;&gt;Node30</title>
<path fill="none" stroke="midnightblue" d="M2136.27,-112.44C2084.22,-102.26 1997.91,-85.37 1946.44,-75.3"/>
<polygon fill="midnightblue" stroke="midnightblue" points="1946.8,-71.81 1936.32,-73.32 1945.46,-78.68 1946.8,-71.81"/>
</g>
<!-- Node34 -->
<g id="node34" class="node">
<title>Node34</title>
<g id="a_node34"><a xlink:title=" ">
<polygon fill="none" stroke="#bfbfbf" points="2221,-56.5 2221,-75.5 2273,-75.5 2273,-56.5 2221,-56.5"/>
<text text-anchor="middle" x="2247" y="-63.5" font-family="Helvetica,sans-Serif" font-size="10.00">cassert</text>
</a>
</g>
</g>
<!-- Node33&#45;&gt;Node34 -->
<g id="edge63" class="edge">
<title>Node33&#45;&gt;Node34</title>
<path fill="none" stroke="midnightblue" d="M2190.76,-112.32C2200.77,-104.26 2215.89,-92.08 2227.93,-82.37"/>
<polygon fill="midnightblue" stroke="midnightblue" points="2230.45,-84.83 2236.04,-75.83 2226.06,-79.38 2230.45,-84.83"/>
</g>
<!-- Node35 -->
<g id="node35" class="node">
<title>Node35</title>
<g id="a_node35"><a xlink:title=" ">
<polygon fill="none" stroke="#bfbfbf" points="2157.5,-56.5 2157.5,-75.5 2202.5,-75.5 2202.5,-56.5 2157.5,-56.5"/>
<text text-anchor="middle" x="2180" y="-63.5" font-family="Helvetica,sans-Serif" font-size="10.00">utility</text>
</a>
</g>
</g>
<!-- Node33&#45;&gt;Node35 -->
<g id="edge66" class="edge">
<title>Node33&#45;&gt;Node35</title>
<path fill="none" stroke="midnightblue" d="M2180,-112.08C2180,-105.01 2180,-94.86 2180,-85.99"/>
<polygon fill="midnightblue" stroke="midnightblue" points="2183.5,-85.75 2180,-75.75 2176.5,-85.75 2183.5,-85.75"/>
</g>
<!-- Node36 -->
<g id="node36" class="node">
<title>Node36</title>
<g id="a_node36"><a xlink:href="msl_2bits_8h.html" target="_top" xlink:title=" ">
<polygon fill="none" stroke="black" points="2035.5,-56.5 2035.5,-75.5 2100.5,-75.5 2100.5,-56.5 2035.5,-56.5"/>
<text text-anchor="middle" x="2068" y="-63.5" font-family="Helvetica,sans-Serif" font-size="10.00">msl/bits.h</text>
</a>
</g>
</g>
<!-- Node33&#45;&gt;Node36 -->
<g id="edge68" class="edge">
<title>Node33&#45;&gt;Node36</title>
<path fill="none" stroke="midnightblue" d="M2162.01,-112.32C2143.96,-103.62 2115.95,-90.12 2095.2,-80.11"/>
<polygon fill="midnightblue" stroke="midnightblue" points="2096.48,-76.84 2085.95,-75.65 2093.44,-83.15 2096.48,-76.84"/>
</g>
<!-- Node36&#45;&gt;Node7 -->
<g id="edge70" class="edge">
<title>Node36&#45;&gt;Node7</title>
<path fill="none" stroke="midnightblue" d="M2035.05,-57.57C2032,-56.99 2028.95,-56.46 2026,-56 1864.47,-30.98 1669.14,-17.5 1592.81,-12.87"/>
<polygon fill="midnightblue" stroke="midnightblue" points="1592.62,-9.35 1582.42,-12.25 1592.2,-16.34 1592.62,-9.35"/>
</g>
<!-- Node36&#45;&gt;Node16 -->
<g id="edge69" class="edge">
<title>Node36&#45;&gt;Node16</title>
<path fill="none" stroke="midnightblue" d="M2035.41,-57.6C1990.79,-47.48 1911,-29.38 1865.1,-18.96"/>
<polygon fill="midnightblue" stroke="midnightblue" points="1865.83,-15.54 1855.3,-16.74 1864.28,-22.37 1865.83,-15.54"/>
</g>
<!-- Node39&#45;&gt;Node4 -->
<g id="edge76" class="edge">
<title>Node39&#45;&gt;Node4</title>
<path fill="none" stroke="midnightblue" d="M1468.44,-224.08C1467.19,-210.62 1463.12,-184.9 1450,-168 1439.04,-153.89 1422.32,-143.31 1407.35,-135.96"/>
<polygon fill="midnightblue" stroke="midnightblue" points="1408.39,-132.58 1397.85,-131.59 1405.47,-138.95 1408.39,-132.58"/>
</g>
<!-- Node39&#45;&gt;Node9 -->
<g id="edge75" class="edge">
<title>Node39&#45;&gt;Node9</title>
<path fill="none" stroke="midnightblue" d="M1490.82,-232.56C1613.59,-229.99 2213.58,-216.01 2240,-188 2246.1,-181.53 2245.84,-174.71 2240,-168 2220.96,-146.13 2025.54,-130.44 1948.24,-125.05"/>
<polygon fill="midnightblue" stroke="midnightblue" points="1948.36,-121.55 1938.14,-124.36 1947.88,-128.53 1948.36,-121.55"/>
</g>
<!-- Node39&#45;&gt;Node13 -->
<g id="edge77" class="edge">
<title>Node39&#45;&gt;Node13</title>
<path fill="none" stroke="midnightblue" d="M1447.35,-226.91C1413.59,-217.42 1348.22,-199.03 1309.01,-188"/>
<polygon fill="midnightblue" stroke="midnightblue" points="1309.74,-184.57 1299.16,-185.23 1307.84,-191.31 1309.74,-184.57"/>
</g>
<!-- Node39&#45;&gt;Node18 -->
<g id="edge78" class="edge">
<title>Node39&#45;&gt;Node18</title>
<path fill="none" stroke="midnightblue" d="M1478.64,-224.32C1487.51,-216.34 1500.87,-204.31 1511.61,-194.65"/>
<polygon fill="midnightblue" stroke="midnightblue" points="1514.09,-197.13 1519.18,-187.83 1509.41,-191.92 1514.09,-197.13"/>
</g>
<!-- Node39&#45;&gt;Node21 -->
<g id="edge79" class="edge">
<title>Node39&#45;&gt;Node21</title>
<path fill="none" stroke="midnightblue" d="M1447.14,-229.12C1397.51,-220.3 1275.55,-198.64 1209.4,-186.89"/>
<polygon fill="midnightblue" stroke="midnightblue" points="1209.74,-183.39 1199.28,-185.09 1208.52,-190.28 1209.74,-183.39"/>
</g>
<!-- Node39&#45;&gt;Node32 -->
<g id="edge80" class="edge">
<title>Node39&#45;&gt;Node32</title>
<path fill="none" stroke="midnightblue" d="M1490.71,-232.2C1573.74,-228.99 1879.03,-215.86 2129,-188 2130.46,-187.84 2131.93,-187.67 2133.42,-187.48"/>
<polygon fill="midnightblue" stroke="midnightblue" points="2133.89,-190.95 2143.35,-186.18 2132.98,-184.01 2133.89,-190.95"/>
</g>
</g>
</svg>
