<?xml version="1.0" encoding="UTF-8" standalone="no"?>
<!DOCTYPE svg PUBLIC "-//W3C//DTD SVG 1.1//EN"
 "http://www.w3.org/Graphics/SVG/1.1/DTD/svg11.dtd">
<!-- Generated by graphviz version 2.43.0 (0)
 -->
<!-- Title: test/cpp/src/432&#45;prefetch&#45;metadata.cc Pages: 1 -->
<svg width="2408pt" height="375pt"
 viewBox="0.00 0.00 2407.50 375.00" xmlns="http://www.w3.org/2000/svg" xmlns:xlink="http://www.w3.org/1999/xlink">
<g id="graph0" class="graph" transform="scale(1 1) rotate(0) translate(4 371)">
<title>test/cpp/src/432&#45;prefetch&#45;metadata.cc</title>
<!-- Node1 -->
<g id="node1" class="node">
<title>Node1</title>
<g id="a_node1"><a xlink:title=" ">
<polygon fill="#bfbfbf" stroke="black" points="786,-336.5 786,-366.5 924,-366.5 924,-336.5 786,-336.5"/>
<text text-anchor="start" x="794" y="-354.5" font-family="Helvetica,sans-Serif" font-size="10.00">test/cpp/src/432&#45;prefetch</text>
<text text-anchor="middle" x="855" y="-343.5" font-family="Helvetica,sans-Serif" font-size="10.00">&#45;metadata.cc</text>
</a>
</g>
</g>
<!-- Node2 -->
<g id="node2" class="node">
<title>Node2</title>
<g id="a_node2"><a xlink:title=" ">
<polygon fill="none" stroke="#bfbfbf" points="0,-280.5 0,-299.5 64,-299.5 64,-280.5 0,-280.5"/>
<text text-anchor="middle" x="32" y="-287.5" font-family="Helvetica,sans-Serif" font-size="10.00">catch.hpp</text>
</a>
</g>
</g>
<!-- Node1&#45;&gt;Node2 -->
<g id="edge1" class="edge">
<title>Node1&#45;&gt;Node2</title>
<path fill="none" stroke="midnightblue" d="M785.85,-348.98C649.78,-345.33 337.9,-333.73 78,-300 76.73,-299.84 75.44,-299.66 74.14,-299.47"/>
<polygon fill="midnightblue" stroke="midnightblue" points="74.52,-295.98 64.08,-297.82 73.39,-302.89 74.52,-295.98"/>
</g>
<!-- Node3 -->
<g id="node3" class="node">
<title>Node3</title>
<g id="a_node3"><a xlink:href="mocks_8hpp.html" target="_top" xlink:title=" ">
<polygon fill="none" stroke="black" points="285,-280.5 285,-299.5 355,-299.5 355,-280.5 285,-280.5"/>
<text text-anchor="middle" x="320" y="-287.5" font-family="Helvetica,sans-Serif" font-size="10.00">mocks.hpp</text>
</a>
</g>
</g>
<!-- Node1&#45;&gt;Node3 -->
<g id="edge2" class="edge">
<title>Node1&#45;&gt;Node3</title>
<path fill="none" stroke="midnightblue" d="M785.88,-342.81C674.66,-330.44 458.98,-306.46 365.28,-296.04"/>
<polygon fill="midnightblue" stroke="midnightblue" points="365.6,-292.55 355.27,-294.92 364.82,-299.51 365.6,-292.55"/>
</g>
<!-- Node8 -->
<g id="node8" class="node">
<title>Node8</title>
<g id="a_node8"><a xlink:href="cache_8h.html" target="_top" xlink:title=" ">
<polygon fill="none" stroke="black" points="828,-224.5 828,-243.5 882,-243.5 882,-224.5 828,-224.5"/>
<text text-anchor="middle" x="855" y="-231.5" font-family="Helvetica,sans-Serif" font-size="10.00">cache.h</text>
</a>
</g>
</g>
<!-- Node1&#45;&gt;Node8 -->
<g id="edge81" class="edge">
<title>Node1&#45;&gt;Node8</title>
<path fill="none" stroke="midnightblue" d="M855,-336.34C855,-315.62 855,-277.02 855,-253.9"/>
<polygon fill="midnightblue" stroke="midnightblue" points="858.5,-253.67 855,-243.67 851.5,-253.67 858.5,-253.67"/>
</g>
<!-- Node14 -->
<g id="node14" class="node">
<title>Node14</title>
<g id="a_node14"><a xlink:title=" ">
<polygon fill="none" stroke="#bfbfbf" points="1344.5,-56.5 1344.5,-75.5 1391.5,-75.5 1391.5,-56.5 1344.5,-56.5"/>
<text text-anchor="middle" x="1368" y="-63.5" font-family="Helvetica,sans-Serif" font-size="10.00">vector</text>
</a>
</g>
</g>
<!-- Node1&#45;&gt;Node14 -->
<g id="edge84" class="edge">
<title>Node1&#45;&gt;Node14</title>
<path fill="none" stroke="midnightblue" d="M785.75,-348.18C653.39,-343.13 369.35,-329.19 276,-300 228.12,-285.03 203.18,-287.39 178,-244 161.05,-214.79 163.16,-198.34 178,-168 195.81,-131.58 211.93,-125.93 250,-112 353.87,-74.01 1157.67,-68 1333.91,-67.14"/>
<polygon fill="midnightblue" stroke="midnightblue" points="1334.16,-70.63 1344.15,-67.09 1334.13,-63.63 1334.16,-70.63"/>
</g>
<!-- Node17 -->
<g id="node17" class="node">
<title>Node17</title>
<g id="a_node17"><a xlink:title=" ">
<polygon fill="none" stroke="#bfbfbf" points="2270.5,-168.5 2270.5,-187.5 2399.5,-187.5 2399.5,-168.5 2270.5,-168.5"/>
<text text-anchor="middle" x="2335" y="-175.5" font-family="Helvetica,sans-Serif" font-size="10.00">champsim_constants.h</text>
</a>
</g>
</g>
<!-- Node1&#45;&gt;Node17 -->
<g id="edge82" class="edge">
<title>Node1&#45;&gt;Node17</title>
<path fill="none" stroke="midnightblue" d="M924.2,-342.7C1127.44,-319.74 1740.5,-250.21 2260.18,-188.21"/>
<polygon fill="midnightblue" stroke="midnightblue" points="2260.61,-191.69 2270.12,-187.02 2259.78,-184.73 2260.61,-191.69"/>
</g>
<!-- Node25 -->
<g id="node25" class="node">
<title>Node25</title>
<g id="a_node25"><a xlink:href="defaults_8hpp.html" target="_top" xlink:title=" ">
<polygon fill="none" stroke="black" points="1145.5,-280.5 1145.5,-299.5 1222.5,-299.5 1222.5,-280.5 1145.5,-280.5"/>
<text text-anchor="middle" x="1184" y="-287.5" font-family="Helvetica,sans-Serif" font-size="10.00">defaults.hpp</text>
</a>
</g>
</g>
<!-- Node1&#45;&gt;Node25 -->
<g id="edge33" class="edge">
<title>Node1&#45;&gt;Node25</title>
<path fill="none" stroke="midnightblue" d="M924.37,-337.95C987.55,-326.53 1079.26,-309.94 1135.08,-299.85"/>
<polygon fill="midnightblue" stroke="midnightblue" points="1135.85,-303.26 1145.07,-298.04 1134.61,-296.38 1135.85,-303.26"/>
</g>
<!-- Node40 -->
<g id="node40" class="node">
<title>Node40</title>
<g id="a_node40"><a xlink:title=" ">
<polygon fill="none" stroke="#bfbfbf" points="1635,-280.5 1635,-299.5 1673,-299.5 1673,-280.5 1635,-280.5"/>
<text text-anchor="middle" x="1654" y="-287.5" font-family="Helvetica,sans-Serif" font-size="10.00">map</text>
</a>
</g>
</g>
<!-- Node1&#45;&gt;Node40 -->
<g id="edge83" class="edge">
<title>Node1&#45;&gt;Node40</title>
<path fill="none" stroke="midnightblue" d="M924.2,-350.56C1059.18,-349.66 1366.66,-342.62 1621,-300 1622.28,-299.78 1623.59,-299.54 1624.91,-299.27"/>
<polygon fill="midnightblue" stroke="midnightblue" points="1626.03,-302.6 1634.95,-296.89 1624.41,-295.79 1626.03,-302.6"/>
</g>
<!-- Node4 -->
<g id="node4" class="node">
<title>Node4</title>
<g id="a_node4"><a xlink:title=" ">
<polygon fill="none" stroke="#bfbfbf" points="1101.5,-112.5 1101.5,-131.5 1148.5,-131.5 1148.5,-112.5 1101.5,-112.5"/>
<text text-anchor="middle" x="1125" y="-119.5" font-family="Helvetica,sans-Serif" font-size="10.00">deque</text>
</a>
</g>
</g>
<!-- Node3&#45;&gt;Node4 -->
<g id="edge3" class="edge">
<title>Node3&#45;&gt;Node4</title>
<path fill="none" stroke="midnightblue" d="M316.4,-280.22C312.94,-271.28 307.97,-256.94 306,-244 300.66,-208.85 301.73,-188.19 331,-168 394.21,-124.41 947.11,-122.6 1090.93,-122.87"/>
<polygon fill="midnightblue" stroke="midnightblue" points="1091.31,-126.37 1101.32,-122.89 1091.33,-119.37 1091.31,-126.37"/>
</g>
<!-- Node5 -->
<g id="node5" class="node">
<title>Node5</title>
<g id="a_node5"><a xlink:title=" ">
<polygon fill="none" stroke="#bfbfbf" points="272.5,-112.5 272.5,-131.5 337.5,-131.5 337.5,-112.5 272.5,-112.5"/>
<text text-anchor="middle" x="305" y="-119.5" font-family="Helvetica,sans-Serif" font-size="10.00">exception</text>
</a>
</g>
</g>
<!-- Node3&#45;&gt;Node5 -->
<g id="edge4" class="edge">
<title>Node3&#45;&gt;Node5</title>
<path fill="none" stroke="midnightblue" d="M284.92,-287.32C254.76,-283.81 212.9,-273.5 192,-244 172.47,-216.44 173.04,-195.96 192,-168 207.68,-144.88 237.32,-133.64 262.32,-128.17"/>
<polygon fill="midnightblue" stroke="midnightblue" points="263.18,-131.57 272.33,-126.23 261.85,-124.7 263.18,-131.57"/>
</g>
<!-- Node6 -->
<g id="node6" class="node">
<title>Node6</title>
<g id="a_node6"><a xlink:title=" ">
<polygon fill="none" stroke="#bfbfbf" points="1335.5,-112.5 1335.5,-131.5 1400.5,-131.5 1400.5,-112.5 1335.5,-112.5"/>
<text text-anchor="middle" x="1368" y="-119.5" font-family="Helvetica,sans-Serif" font-size="10.00">functional</text>
</a>
</g>
</g>
<!-- Node3&#45;&gt;Node6 -->
<g id="edge5" class="edge">
<title>Node3&#45;&gt;Node6</title>
<path fill="none" stroke="midnightblue" d="M318.14,-280.29C313.91,-257.72 306.26,-197.1 339,-168 378.44,-132.95 1235.39,-135.95 1288,-132 1300.07,-131.09 1313.14,-129.77 1325.14,-128.41"/>
<polygon fill="midnightblue" stroke="midnightblue" points="1325.83,-131.86 1335.36,-127.23 1325.02,-124.91 1325.83,-131.86"/>
</g>
<!-- Node7 -->
<g id="node7" class="node">
<title>Node7</title>
<g id="a_node7"><a xlink:title=" ">
<polygon fill="none" stroke="#bfbfbf" points="1783,-0.5 1783,-19.5 1827,-19.5 1827,-0.5 1783,-0.5"/>
<text text-anchor="middle" x="1805" y="-7.5" font-family="Helvetica,sans-Serif" font-size="10.00">limits</text>
</a>
</g>
</g>
<!-- Node3&#45;&gt;Node7 -->
<g id="edge6" class="edge">
<title>Node3&#45;&gt;Node7</title>
<path fill="none" stroke="midnightblue" d="M284.73,-282.72C246.96,-275.18 190.72,-261.37 178,-244 138.52,-190.08 187.53,-135.73 250,-112 323.84,-83.96 1557.25,-23.02 1772.94,-12.55"/>
<polygon fill="midnightblue" stroke="midnightblue" points="1773.17,-16.04 1782.99,-12.06 1772.83,-9.05 1773.17,-16.04"/>
</g>
<!-- Node3&#45;&gt;Node8 -->
<g id="edge7" class="edge">
<title>Node3&#45;&gt;Node8</title>
<path fill="none" stroke="midnightblue" d="M355.1,-285.46C451.33,-275.74 718.68,-248.76 817.59,-238.78"/>
<polygon fill="midnightblue" stroke="midnightblue" points="818.11,-242.24 827.71,-237.75 817.41,-235.28 818.11,-242.24"/>
</g>
<!-- Node21 -->
<g id="node21" class="node">
<title>Node21</title>
<g id="a_node21"><a xlink:href="operable_8h.html" target="_top" xlink:title=" ">
<polygon fill="none" stroke="black" points="740,-168.5 740,-187.5 808,-187.5 808,-168.5 740,-168.5"/>
<text text-anchor="middle" x="774" y="-175.5" font-family="Helvetica,sans-Serif" font-size="10.00">operable.h</text>
</a>
</g>
</g>
<!-- Node3&#45;&gt;Node21 -->
<g id="edge32" class="edge">
<title>Node3&#45;&gt;Node21</title>
<path fill="none" stroke="midnightblue" d="M355.25,-280.46C437.09,-260.63 639.88,-211.5 729.82,-189.7"/>
<polygon fill="midnightblue" stroke="midnightblue" points="730.81,-193.07 739.71,-187.31 729.16,-186.26 730.81,-193.07"/>
</g>
<!-- Node8&#45;&gt;Node4 -->
<g id="edge10" class="edge">
<title>Node8&#45;&gt;Node4</title>
<path fill="none" stroke="midnightblue" d="M827.86,-232.73C726.24,-231.42 372.27,-224.29 339,-188 332.99,-181.45 332.9,-174.46 339,-168 365.18,-140.28 943.02,-126.69 1090.82,-123.66"/>
<polygon fill="midnightblue" stroke="midnightblue" points="1091.16,-127.16 1101.09,-123.46 1091.02,-120.16 1091.16,-127.16"/>
</g>
<!-- Node9 -->
<g id="node9" class="node">
<title>Node9</title>
<g id="a_node9"><a xlink:title=" ">
<polygon fill="none" stroke="#bfbfbf" points="1457,-112.5 1457,-131.5 1499,-131.5 1499,-112.5 1457,-112.5"/>
<text text-anchor="middle" x="1478" y="-119.5" font-family="Helvetica,sans-Serif" font-size="10.00">array</text>
</a>
</g>
</g>
<!-- Node8&#45;&gt;Node9 -->
<g id="edge8" class="edge">
<title>Node8&#45;&gt;Node9</title>
<path fill="none" stroke="midnightblue" d="M827.77,-232.24C765.41,-229.63 621.22,-218.15 669,-168 697.43,-138.16 1368.95,-135.71 1410,-132 1422.08,-130.91 1435.31,-129.26 1446.86,-127.67"/>
<polygon fill="midnightblue" stroke="midnightblue" points="1447.51,-131.12 1456.92,-126.25 1446.52,-124.19 1447.51,-131.12"/>
</g>
<!-- Node10 -->
<g id="node10" class="node">
<title>Node10</title>
<g id="a_node10"><a xlink:title=" ">
<polygon fill="none" stroke="#bfbfbf" points="986,-168.5 986,-187.5 1030,-187.5 1030,-168.5 986,-168.5"/>
<text text-anchor="middle" x="1008" y="-175.5" font-family="Helvetica,sans-Serif" font-size="10.00">bitset</text>
</a>
</g>
</g>
<!-- Node8&#45;&gt;Node10 -->
<g id="edge9" class="edge">
<title>Node8&#45;&gt;Node10</title>
<path fill="none" stroke="midnightblue" d="M879.24,-224.44C905.47,-215.19 947.4,-200.39 976.25,-190.21"/>
<polygon fill="midnightblue" stroke="midnightblue" points="977.59,-193.44 985.86,-186.82 975.26,-186.84 977.59,-193.44"/>
</g>
<!-- Node11 -->
<g id="node11" class="node">
<title>Node11</title>
<g id="a_node11"><a xlink:title=" ">
<polygon fill="none" stroke="#bfbfbf" points="826,-168.5 826,-187.5 884,-187.5 884,-168.5 826,-168.5"/>
<text text-anchor="middle" x="855" y="-175.5" font-family="Helvetica,sans-Serif" font-size="10.00">memory</text>
</a>
</g>
</g>
<!-- Node8&#45;&gt;Node11 -->
<g id="edge11" class="edge">
<title>Node8&#45;&gt;Node11</title>
<path fill="none" stroke="midnightblue" d="M855,-224.08C855,-217.01 855,-206.86 855,-197.99"/>
<polygon fill="midnightblue" stroke="midnightblue" points="858.5,-197.75 855,-187.75 851.5,-197.75 858.5,-197.75"/>
</g>
<!-- Node12 -->
<g id="node12" class="node">
<title>Node12</title>
<g id="a_node12"><a xlink:title=" ">
<polygon fill="none" stroke="#bfbfbf" points="902.5,-168.5 902.5,-187.5 967.5,-187.5 967.5,-168.5 902.5,-168.5"/>
<text text-anchor="middle" x="935" y="-175.5" font-family="Helvetica,sans-Serif" font-size="10.00">stdexcept</text>
</a>
</g>
</g>
<!-- Node8&#45;&gt;Node12 -->
<g id="edge12" class="edge">
<title>Node8&#45;&gt;Node12</title>
<path fill="none" stroke="midnightblue" d="M867.85,-224.32C880.22,-215.98 899.13,-203.21 913.74,-193.35"/>
<polygon fill="midnightblue" stroke="midnightblue" points="915.85,-196.15 922.18,-187.65 911.93,-190.35 915.85,-196.15"/>
</g>
<!-- Node13 -->
<g id="node13" class="node">
<title>Node13</title>
<g id="a_node13"><a xlink:title=" ">
<polygon fill="none" stroke="#bfbfbf" points="678,-168.5 678,-187.5 722,-187.5 722,-168.5 678,-168.5"/>
<text text-anchor="middle" x="700" y="-175.5" font-family="Helvetica,sans-Serif" font-size="10.00">string</text>
</a>
</g>
</g>
<!-- Node8&#45;&gt;Node13 -->
<g id="edge13" class="edge">
<title>Node8&#45;&gt;Node13</title>
<path fill="none" stroke="midnightblue" d="M830.44,-224.44C803.87,-215.19 761.39,-200.39 732.17,-190.21"/>
<polygon fill="midnightblue" stroke="midnightblue" points="733.03,-186.8 722.43,-186.82 730.72,-193.41 733.03,-186.8"/>
</g>
<!-- Node8&#45;&gt;Node14 -->
<g id="edge14" class="edge">
<title>Node8&#45;&gt;Node14</title>
<path fill="none" stroke="midnightblue" d="M827.96,-232.78C734.01,-231.7 422.52,-225.33 331,-188 289.03,-170.88 231.61,-144.69 263,-112 301.01,-72.41 1152.96,-67.64 1334.26,-67.08"/>
<polygon fill="midnightblue" stroke="midnightblue" points="1334.3,-70.58 1344.29,-67.05 1334.28,-63.58 1334.3,-70.58"/>
</g>
<!-- Node15 -->
<g id="node15" class="node">
<title>Node15</title>
<g id="a_node15"><a xlink:href="champsim_8h.html" target="_top" xlink:title=" ">
<polygon fill="none" stroke="black" points="1048.5,-168.5 1048.5,-187.5 1125.5,-187.5 1125.5,-168.5 1048.5,-168.5"/>
<text text-anchor="middle" x="1087" y="-175.5" font-family="Helvetica,sans-Serif" font-size="10.00">champsim.h</text>
</a>
</g>
</g>
<!-- Node8&#45;&gt;Node15 -->
<g id="edge15" class="edge">
<title>Node8&#45;&gt;Node15</title>
<path fill="none" stroke="midnightblue" d="M882.07,-226.7C920.82,-217.68 992.67,-200.96 1040.16,-189.9"/>
<polygon fill="midnightblue" stroke="midnightblue" points="1041.25,-193.24 1050.19,-187.57 1039.66,-186.42 1041.25,-193.24"/>
</g>
<!-- Node8&#45;&gt;Node17 -->
<g id="edge18" class="edge">
<title>Node8&#45;&gt;Node17</title>
<path fill="none" stroke="midnightblue" d="M882.04,-232.17C1066.68,-226.49 2137.73,-193.5 2260.06,-187.85"/>
<polygon fill="midnightblue" stroke="midnightblue" points="2260.36,-191.34 2270.15,-187.3 2259.98,-184.35 2260.36,-191.34"/>
</g>
<!-- Node18 -->
<g id="node18" class="node">
<title>Node18</title>
<g id="a_node18"><a xlink:href="channel_8h.html" target="_top" xlink:title=" ">
<polygon fill="none" stroke="black" points="1182,-168.5 1182,-187.5 1246,-187.5 1246,-168.5 1182,-168.5"/>
<text text-anchor="middle" x="1214" y="-175.5" font-family="Helvetica,sans-Serif" font-size="10.00">channel.h</text>
</a>
</g>
</g>
<!-- Node8&#45;&gt;Node18 -->
<g id="edge19" class="edge">
<title>Node8&#45;&gt;Node18</title>
<path fill="none" stroke="midnightblue" d="M882.28,-228.9C944.55,-219.53 1097.55,-196.52 1171.97,-185.32"/>
<polygon fill="midnightblue" stroke="midnightblue" points="1172.57,-188.77 1181.94,-183.82 1171.53,-181.85 1172.57,-188.77"/>
</g>
<!-- Node20 -->
<g id="node20" class="node">
<title>Node20</title>
<g id="a_node20"><a xlink:href="module__impl_8h.html" target="_top" xlink:title=" ">
<polygon fill="none" stroke="black" points="1264.5,-168.5 1264.5,-187.5 1353.5,-187.5 1353.5,-168.5 1264.5,-168.5"/>
<text text-anchor="middle" x="1309" y="-175.5" font-family="Helvetica,sans-Serif" font-size="10.00">module_impl.h</text>
</a>
</g>
</g>
<!-- Node8&#45;&gt;Node20 -->
<g id="edge27" class="edge">
<title>Node8&#45;&gt;Node20</title>
<path fill="none" stroke="midnightblue" d="M882.22,-230.44C945.52,-224.38 1107.69,-208.25 1254.17,-188.05"/>
<polygon fill="midnightblue" stroke="midnightblue" points="1254.82,-191.49 1264.24,-186.65 1253.85,-184.56 1254.82,-191.49"/>
</g>
<!-- Node8&#45;&gt;Node21 -->
<g id="edge28" class="edge">
<title>Node8&#45;&gt;Node21</title>
<path fill="none" stroke="midnightblue" d="M841.99,-224.32C829.47,-215.98 810.32,-203.21 795.53,-193.35"/>
<polygon fill="midnightblue" stroke="midnightblue" points="797.24,-190.29 786.98,-187.65 793.36,-196.11 797.24,-190.29"/>
</g>
<!-- Node22 -->
<g id="node22" class="node">
<title>Node22</title>
<g id="a_node22"><a xlink:title=" ">
<polygon fill="none" stroke="#bfbfbf" points="1410.5,-168.5 1410.5,-187.5 1479.5,-187.5 1479.5,-168.5 1410.5,-168.5"/>
<text text-anchor="middle" x="1445" y="-175.5" font-family="Helvetica,sans-Serif" font-size="10.00">type_traits</text>
</a>
</g>
</g>
<!-- Node8&#45;&gt;Node22 -->
<g id="edge29" class="edge">
<title>Node8&#45;&gt;Node22</title>
<path fill="none" stroke="midnightblue" d="M882,-230.81C957.85,-224.61 1179.3,-206.22 1363,-188 1375.01,-186.81 1388.01,-185.43 1400.03,-184.11"/>
<polygon fill="midnightblue" stroke="midnightblue" points="1400.75,-187.55 1410.3,-182.97 1399.98,-180.59 1400.75,-187.55"/>
</g>
<!-- Node23 -->
<g id="node23" class="node">
<title>Node23</title>
<g id="a_node23"><a xlink:title=" ">
<polygon fill="none" stroke="#bfbfbf" points="492,-168.5 492,-187.5 622,-187.5 622,-168.5 492,-168.5"/>
<text text-anchor="middle" x="557" y="-175.5" font-family="Helvetica,sans-Serif" font-size="10.00">cache_module_decl.inc</text>
</a>
</g>
</g>
<!-- Node8&#45;&gt;Node23 -->
<g id="edge30" class="edge">
<title>Node8&#45;&gt;Node23</title>
<path fill="none" stroke="midnightblue" d="M827.76,-228.06C779.48,-219.32 677.95,-200.92 613.86,-189.3"/>
<polygon fill="midnightblue" stroke="midnightblue" points="614.37,-185.84 603.91,-187.5 613.13,-192.73 614.37,-185.84"/>
</g>
<!-- Node24 -->
<g id="node24" class="node">
<title>Node24</title>
<g id="a_node24"><a xlink:title=" ">
<polygon fill="none" stroke="#bfbfbf" points="348.5,-168.5 348.5,-187.5 473.5,-187.5 473.5,-168.5 348.5,-168.5"/>
<text text-anchor="middle" x="411" y="-175.5" font-family="Helvetica,sans-Serif" font-size="10.00">cache_module_def.inc</text>
</a>
</g>
</g>
<!-- Node8&#45;&gt;Node24 -->
<g id="edge31" class="edge">
<title>Node8&#45;&gt;Node24</title>
<path fill="none" stroke="midnightblue" d="M827.92,-229.76C768.05,-222.59 619.62,-204.78 483.98,-188.12"/>
<polygon fill="midnightblue" stroke="midnightblue" points="484.18,-184.61 473.83,-186.87 483.33,-191.56 484.18,-184.61"/>
</g>
<!-- Node15&#45;&gt;Node5 -->
<g id="edge17" class="edge">
<title>Node15&#45;&gt;Node5</title>
<path fill="none" stroke="midnightblue" d="M1048.3,-169.29C1045.16,-168.8 1042.03,-168.36 1039,-168 735.4,-131.75 655.52,-168.84 352,-132 350.53,-131.82 349.04,-131.62 347.53,-131.41"/>
<polygon fill="midnightblue" stroke="midnightblue" points="347.95,-127.93 337.53,-129.83 346.85,-134.85 347.95,-127.93"/>
</g>
<!-- Node16 -->
<g id="node16" class="node">
<title>Node16</title>
<g id="a_node16"><a xlink:title=" ">
<polygon fill="none" stroke="#bfbfbf" points="1538,-0.5 1538,-19.5 1588,-19.5 1588,-0.5 1538,-0.5"/>
<text text-anchor="middle" x="1563" y="-7.5" font-family="Helvetica,sans-Serif" font-size="10.00">cstdint</text>
</a>
</g>
</g>
<!-- Node15&#45;&gt;Node16 -->
<g id="edge16" class="edge">
<title>Node15&#45;&gt;Node16</title>
<path fill="none" stroke="midnightblue" d="M1084.78,-168.25C1081.87,-154.54 1078.59,-127.93 1092,-112 1148.44,-44.95 1428.23,-19.99 1527.77,-13.14"/>
<polygon fill="midnightblue" stroke="midnightblue" points="1528.17,-16.62 1537.91,-12.46 1527.7,-9.64 1528.17,-16.62"/>
</g>
<!-- Node18&#45;&gt;Node4 -->
<g id="edge22" class="edge">
<title>Node18&#45;&gt;Node4</title>
<path fill="none" stroke="midnightblue" d="M1199.7,-168.32C1185.82,-159.9 1164.51,-146.97 1148.2,-137.07"/>
<polygon fill="midnightblue" stroke="midnightblue" points="1149.63,-133.85 1139.26,-131.65 1146,-139.83 1149.63,-133.85"/>
</g>
<!-- Node18&#45;&gt;Node6 -->
<g id="edge23" class="edge">
<title>Node18&#45;&gt;Node6</title>
<path fill="none" stroke="midnightblue" d="M1238.4,-168.44C1264.2,-159.4 1305.08,-145.06 1334.02,-134.92"/>
<polygon fill="midnightblue" stroke="midnightblue" points="1335.43,-138.13 1343.71,-131.52 1333.12,-131.52 1335.43,-138.13"/>
</g>
<!-- Node18&#45;&gt;Node7 -->
<g id="edge24" class="edge">
<title>Node18&#45;&gt;Node7</title>
<path fill="none" stroke="midnightblue" d="M1246.12,-170.1C1297.69,-158.96 1394.74,-137.66 1410,-132 1427.89,-125.36 1430.72,-120.11 1448,-112 1506.8,-84.4 1520.88,-74.99 1583,-56 1649.19,-35.77 1729.29,-22.09 1772.89,-15.51"/>
<polygon fill="midnightblue" stroke="midnightblue" points="1773.53,-18.96 1782.91,-14.03 1772.5,-12.03 1773.53,-18.96"/>
</g>
<!-- Node18&#45;&gt;Node9 -->
<g id="edge20" class="edge">
<title>Node18&#45;&gt;Node9</title>
<path fill="none" stroke="midnightblue" d="M1246.09,-170.05C1249.43,-169.35 1252.78,-168.65 1256,-168 1338.94,-151.13 1360.42,-150.55 1443,-132 1444.27,-131.71 1445.57,-131.41 1446.88,-131.11"/>
<polygon fill="midnightblue" stroke="midnightblue" points="1448.07,-134.42 1456.95,-128.64 1446.41,-127.62 1448.07,-134.42"/>
</g>
<!-- Node18&#45;&gt;Node14 -->
<g id="edge25" class="edge">
<title>Node18&#45;&gt;Node14</title>
<path fill="none" stroke="midnightblue" d="M1207.09,-168.07C1197.57,-154.61 1182.98,-128.87 1196,-112 1212.76,-90.3 1289.09,-77.04 1334.24,-70.97"/>
<polygon fill="midnightblue" stroke="midnightblue" points="1334.72,-74.43 1344.19,-69.68 1333.82,-67.49 1334.72,-74.43"/>
</g>
<!-- Node18&#45;&gt;Node16 -->
<g id="edge21" class="edge">
<title>Node18&#45;&gt;Node16</title>
<path fill="none" stroke="midnightblue" d="M1233.28,-168.38C1249.28,-160.54 1271.92,-147.81 1288,-132 1316.49,-103.99 1303.06,-78.61 1336,-56 1366.73,-34.91 1472.16,-20.75 1527.86,-14.56"/>
<polygon fill="midnightblue" stroke="midnightblue" points="1528.42,-18.02 1537.98,-13.46 1527.66,-11.06 1528.42,-18.02"/>
</g>
<!-- Node19 -->
<g id="node19" class="node">
<title>Node19</title>
<g id="a_node19"><a xlink:title=" ">
<polygon fill="none" stroke="#bfbfbf" points="1205.5,-112.5 1205.5,-131.5 1278.5,-131.5 1278.5,-112.5 1205.5,-112.5"/>
<text text-anchor="middle" x="1242" y="-119.5" font-family="Helvetica,sans-Serif" font-size="10.00">string_view</text>
</a>
</g>
</g>
<!-- Node18&#45;&gt;Node19 -->
<g id="edge26" class="edge">
<title>Node18&#45;&gt;Node19</title>
<path fill="none" stroke="midnightblue" d="M1218.62,-168.08C1222.46,-160.69 1228.02,-149.95 1232.76,-140.81"/>
<polygon fill="midnightblue" stroke="midnightblue" points="1235.97,-142.24 1237.46,-131.75 1229.75,-139.02 1235.97,-142.24"/>
</g>
<!-- Node25&#45;&gt;Node8 -->
<g id="edge34" class="edge">
<title>Node25&#45;&gt;Node8</title>
<path fill="none" stroke="midnightblue" d="M1145.29,-282.65C1081.55,-272.18 955.28,-251.46 892.4,-241.14"/>
<polygon fill="midnightblue" stroke="midnightblue" points="892.59,-237.62 882.15,-239.46 891.45,-244.53 892.59,-237.62"/>
</g>
<!-- Node25&#45;&gt;Node17 -->
<g id="edge35" class="edge">
<title>Node25&#45;&gt;Node17</title>
<path fill="none" stroke="midnightblue" d="M1222.72,-288.19C1290.38,-285.91 1433.98,-277.22 1550,-244 1570.26,-238.2 1572.55,-229.1 1593,-224 1734.35,-188.73 2097.64,-200.57 2259.76,-188.09"/>
<polygon fill="midnightblue" stroke="midnightblue" points="2260.47,-191.54 2270.15,-187.23 2259.89,-184.57 2260.47,-191.54"/>
</g>
<!-- Node26 -->
<g id="node26" class="node">
<title>Node26</title>
<g id="a_node26"><a xlink:href="ooo__cpu_8h.html" target="_top" xlink:title=" ">
<polygon fill="none" stroke="black" points="1475,-224.5 1475,-243.5 1541,-243.5 1541,-224.5 1475,-224.5"/>
<text text-anchor="middle" x="1508" y="-231.5" font-family="Helvetica,sans-Serif" font-size="10.00">ooo_cpu.h</text>
</a>
</g>
</g>
<!-- Node25&#45;&gt;Node26 -->
<g id="edge36" class="edge">
<title>Node25&#45;&gt;Node26</title>
<path fill="none" stroke="midnightblue" d="M1222.76,-282.54C1283.54,-272.41 1400.88,-252.85 1464.48,-242.25"/>
<polygon fill="midnightblue" stroke="midnightblue" points="1465.29,-245.67 1474.58,-240.57 1464.14,-238.76 1465.29,-245.67"/>
</g>
<!-- Node39 -->
<g id="node39" class="node">
<title>Node39</title>
<g id="a_node39"><a xlink:href="ptw_8h.html" target="_top" xlink:title=" ">
<polygon fill="none" stroke="black" points="1162.5,-224.5 1162.5,-243.5 1205.5,-243.5 1205.5,-224.5 1162.5,-224.5"/>
<text text-anchor="middle" x="1184" y="-231.5" font-family="Helvetica,sans-Serif" font-size="10.00">ptw.h</text>
</a>
</g>
</g>
<!-- Node25&#45;&gt;Node39 -->
<g id="edge74" class="edge">
<title>Node25&#45;&gt;Node39</title>
<path fill="none" stroke="midnightblue" d="M1184,-280.08C1184,-273.01 1184,-262.86 1184,-253.99"/>
<polygon fill="midnightblue" stroke="midnightblue" points="1187.5,-253.75 1184,-243.75 1180.5,-253.75 1187.5,-253.75"/>
</g>
<!-- Node26&#45;&gt;Node4 -->
<g id="edge39" class="edge">
<title>Node26&#45;&gt;Node4</title>
<path fill="none" stroke="midnightblue" d="M1508.25,-224.25C1508.14,-210.06 1505.66,-182.16 1489,-168 1439.01,-125.52 1261.1,-140.12 1196,-132 1183.79,-130.48 1170.41,-128.79 1158.59,-127.28"/>
<polygon fill="midnightblue" stroke="midnightblue" points="1159.03,-123.81 1148.66,-126.02 1158.14,-130.76 1159.03,-123.81"/>
</g>
<!-- Node26&#45;&gt;Node7 -->
<g id="edge40" class="edge">
<title>Node26&#45;&gt;Node7</title>
<path fill="none" stroke="midnightblue" d="M1541.09,-224.81C1542.75,-224.51 1544.39,-224.24 1546,-224 1611.3,-214.36 2093.76,-236.07 2139,-188 2161.07,-164.55 2260.19,-194.56 2138,-56 2098.92,-11.69 1913.24,-9.33 1837.39,-10.27"/>
<polygon fill="midnightblue" stroke="midnightblue" points="1836.97,-6.78 1827.03,-10.43 1837.08,-13.78 1836.97,-6.78"/>
</g>
<!-- Node26&#45;&gt;Node9 -->
<g id="edge37" class="edge">
<title>Node26&#45;&gt;Node9</title>
<path fill="none" stroke="midnightblue" d="M1541.22,-225.59C1574.47,-217.42 1622.19,-203.38 1633,-188 1638.11,-180.73 1638.34,-175.11 1633,-168 1618.14,-148.21 1550,-134.31 1509.18,-127.59"/>
<polygon fill="midnightblue" stroke="midnightblue" points="1509.62,-124.11 1499.19,-126 1508.51,-131.03 1509.62,-124.11"/>
</g>
<!-- Node26&#45;&gt;Node10 -->
<g id="edge38" class="edge">
<title>Node26&#45;&gt;Node10</title>
<path fill="none" stroke="midnightblue" d="M1474.72,-231.94C1399.02,-229.08 1208.13,-219.3 1040.24,-187.9"/>
<polygon fill="midnightblue" stroke="midnightblue" points="1040.71,-184.42 1030.23,-185.99 1039.4,-191.3 1040.71,-184.42"/>
</g>
<!-- Node26&#45;&gt;Node11 -->
<g id="edge41" class="edge">
<title>Node26&#45;&gt;Node11</title>
<path fill="none" stroke="midnightblue" d="M1474.79,-232.43C1383.53,-230.47 1121.19,-222.18 894.45,-187.99"/>
<polygon fill="midnightblue" stroke="midnightblue" points="894.78,-184.5 884.37,-186.44 893.72,-191.42 894.78,-184.5"/>
</g>
<!-- Node26&#45;&gt;Node12 -->
<g id="edge44" class="edge">
<title>Node26&#45;&gt;Node12</title>
<path fill="none" stroke="midnightblue" d="M1474.9,-231.65C1392.57,-227.99 1171.85,-216.28 978.03,-187.96"/>
<polygon fill="midnightblue" stroke="midnightblue" points="978.35,-184.47 967.94,-186.47 977.32,-191.4 978.35,-184.47"/>
</g>
<!-- Node26&#45;&gt;Node14 -->
<g id="edge45" class="edge">
<title>Node26&#45;&gt;Node14</title>
<path fill="none" stroke="midnightblue" d="M1541.24,-224.51C1580.56,-214.14 1641.53,-196.87 1648,-188 1653.24,-180.82 1652.98,-175.36 1648,-168 1592.66,-86.25 1464,-70.27 1402.26,-67.42"/>
<polygon fill="midnightblue" stroke="midnightblue" points="1402.01,-63.91 1391.89,-67.04 1401.75,-70.9 1402.01,-63.91"/>
</g>
<!-- Node26&#45;&gt;Node15 -->
<g id="edge46" class="edge">
<title>Node26&#45;&gt;Node15</title>
<path fill="none" stroke="midnightblue" d="M1474.96,-228.76C1401.11,-219.29 1222.33,-196.36 1135.68,-185.24"/>
<polygon fill="midnightblue" stroke="midnightblue" points="1135.95,-181.75 1125.59,-183.95 1135.06,-188.69 1135.95,-181.75"/>
</g>
<!-- Node26&#45;&gt;Node17 -->
<g id="edge47" class="edge">
<title>Node26&#45;&gt;Node17</title>
<path fill="none" stroke="midnightblue" d="M1541.03,-226.08C1545.71,-225.27 1550.46,-224.55 1555,-224 1864.01,-186.73 1946.78,-214.65 2259.87,-188.12"/>
<polygon fill="midnightblue" stroke="midnightblue" points="2260.48,-191.58 2270.15,-187.24 2259.88,-184.61 2260.48,-191.58"/>
</g>
<!-- Node26&#45;&gt;Node18 -->
<g id="edge48" class="edge">
<title>Node26&#45;&gt;Node18</title>
<path fill="none" stroke="midnightblue" d="M1474.91,-227.46C1426.68,-219.31 1334.28,-203.37 1256,-188 1255.9,-187.98 1255.8,-187.96 1255.7,-187.94"/>
<polygon fill="midnightblue" stroke="midnightblue" points="1256.58,-184.55 1246.08,-185.99 1255.19,-191.41 1256.58,-184.55"/>
</g>
<!-- Node26&#45;&gt;Node20 -->
<g id="edge58" class="edge">
<title>Node26&#45;&gt;Node20</title>
<path fill="none" stroke="midnightblue" d="M1476.47,-224.44C1442.41,-215.2 1387.99,-200.44 1350.48,-190.26"/>
<polygon fill="midnightblue" stroke="midnightblue" points="1350.95,-186.76 1340.38,-187.52 1349.12,-193.51 1350.95,-186.76"/>
</g>
<!-- Node26&#45;&gt;Node21 -->
<g id="edge59" class="edge">
<title>Node26&#45;&gt;Node21</title>
<path fill="none" stroke="midnightblue" d="M1474.75,-232.5C1376.05,-230.66 1076.08,-222.52 818.12,-187.96"/>
<polygon fill="midnightblue" stroke="midnightblue" points="818.57,-184.49 808.19,-186.61 817.63,-191.42 818.57,-184.49"/>
</g>
<!-- Node26&#45;&gt;Node22 -->
<g id="edge71" class="edge">
<title>Node26&#45;&gt;Node22</title>
<path fill="none" stroke="midnightblue" d="M1497.88,-224.32C1488.47,-216.26 1474.26,-204.08 1462.93,-194.37"/>
<polygon fill="midnightblue" stroke="midnightblue" points="1465.18,-191.68 1455.31,-187.83 1460.62,-197 1465.18,-191.68"/>
</g>
<!-- Node27 -->
<g id="node27" class="node">
<title>Node27</title>
<g id="a_node27"><a xlink:title=" ">
<polygon fill="none" stroke="#bfbfbf" points="2055,-56.5 2055,-75.5 2111,-75.5 2111,-56.5 2055,-56.5"/>
<text text-anchor="middle" x="2083" y="-63.5" font-family="Helvetica,sans-Serif" font-size="10.00">optional</text>
</a>
</g>
</g>
<!-- Node26&#45;&gt;Node27 -->
<g id="edge42" class="edge">
<title>Node26&#45;&gt;Node27</title>
<path fill="none" stroke="midnightblue" d="M1541.1,-224.81C1542.75,-224.51 1544.39,-224.24 1546,-224 1609.21,-214.6 2076.25,-234.58 2120,-188 2147.58,-158.64 2116.66,-109.25 2096.9,-83.6"/>
<polygon fill="midnightblue" stroke="midnightblue" points="2099.47,-81.21 2090.49,-75.59 2094,-85.58 2099.47,-81.21"/>
</g>
<!-- Node28 -->
<g id="node28" class="node">
<title>Node28</title>
<g id="a_node28"><a xlink:title=" ">
<polygon fill="none" stroke="#bfbfbf" points="2205.5,-168.5 2205.5,-187.5 2252.5,-187.5 2252.5,-168.5 2205.5,-168.5"/>
<text text-anchor="middle" x="2229" y="-175.5" font-family="Helvetica,sans-Serif" font-size="10.00">queue</text>
</a>
</g>
</g>
<!-- Node26&#45;&gt;Node28 -->
<g id="edge43" class="edge">
<title>Node26&#45;&gt;Node28</title>
<path fill="none" stroke="midnightblue" d="M1541.04,-226.1C1545.71,-225.29 1550.47,-224.56 1555,-224 1835.98,-189.3 1910.83,-228.78 2191,-188 2192.47,-187.79 2193.96,-187.54 2195.47,-187.28"/>
<polygon fill="midnightblue" stroke="midnightblue" points="2196.3,-190.68 2205.41,-185.27 2194.91,-183.82 2196.3,-190.68"/>
</g>
<!-- Node29 -->
<g id="node29" class="node">
<title>Node29</title>
<g id="a_node29"><a xlink:href="instruction_8h.html" target="_top" xlink:title=" ">
<polygon fill="none" stroke="black" points="2033.5,-168.5 2033.5,-187.5 2110.5,-187.5 2110.5,-168.5 2033.5,-168.5"/>
<text text-anchor="middle" x="2072" y="-175.5" font-family="Helvetica,sans-Serif" font-size="10.00">instruction.h</text>
</a>
</g>
</g>
<!-- Node26&#45;&gt;Node29 -->
<g id="edge49" class="edge">
<title>Node26&#45;&gt;Node29</title>
<path fill="none" stroke="midnightblue" d="M1541.05,-226.19C1545.72,-225.37 1550.47,-224.61 1555,-224 1759.41,-196.69 1815.6,-215.15 2023.32,-188.09"/>
<polygon fill="midnightblue" stroke="midnightblue" points="2023.87,-191.54 2033.33,-186.76 2022.96,-184.6 2023.87,-191.54"/>
</g>
<!-- Node32 -->
<g id="node32" class="node">
<title>Node32</title>
<g id="a_node32"><a xlink:href="util_2lru__table_8h.html" target="_top" xlink:title=" ">
<polygon fill="none" stroke="black" points="1536.5,-168.5 1536.5,-187.5 1623.5,-187.5 1623.5,-168.5 1536.5,-168.5"/>
<text text-anchor="middle" x="1580" y="-175.5" font-family="Helvetica,sans-Serif" font-size="10.00">util/lru_table.h</text>
</a>
</g>
</g>
<!-- Node26&#45;&gt;Node32 -->
<g id="edge60" class="edge">
<title>Node26&#45;&gt;Node32</title>
<path fill="none" stroke="midnightblue" d="M1519.57,-224.32C1530.42,-216.18 1546.88,-203.84 1559.88,-194.09"/>
<polygon fill="midnightblue" stroke="midnightblue" points="1562.32,-196.63 1568.22,-187.83 1558.12,-191.03 1562.32,-196.63"/>
</g>
<!-- Node37 -->
<g id="node37" class="node">
<title>Node37</title>
<g id="a_node37"><a xlink:title=" ">
<polygon fill="none" stroke="#bfbfbf" points="1718,-168.5 1718,-187.5 1860,-187.5 1860,-168.5 1718,-168.5"/>
<text text-anchor="middle" x="1789" y="-175.5" font-family="Helvetica,sans-Serif" font-size="10.00">ooo_cpu_module_decl.inc</text>
</a>
</g>
</g>
<!-- Node26&#45;&gt;Node37 -->
<g id="edge72" class="edge">
<title>Node26&#45;&gt;Node37</title>
<path fill="none" stroke="midnightblue" d="M1541.06,-226.65C1588.69,-217.49 1677.17,-200.49 1734.54,-189.47"/>
<polygon fill="midnightblue" stroke="midnightblue" points="1735.36,-192.87 1744.52,-187.55 1734.04,-186 1735.36,-192.87"/>
</g>
<!-- Node38 -->
<g id="node38" class="node">
<title>Node38</title>
<g id="a_node38"><a xlink:title=" ">
<polygon fill="none" stroke="#bfbfbf" points="1878.5,-168.5 1878.5,-187.5 2015.5,-187.5 2015.5,-168.5 1878.5,-168.5"/>
<text text-anchor="middle" x="1947" y="-175.5" font-family="Helvetica,sans-Serif" font-size="10.00">ooo_cpu_module_def.inc</text>
</a>
</g>
</g>
<!-- Node26&#45;&gt;Node38 -->
<g id="edge73" class="edge">
<title>Node26&#45;&gt;Node38</title>
<path fill="none" stroke="midnightblue" d="M1541.07,-226.34C1545.74,-225.5 1550.48,-224.69 1555,-224 1690.6,-203.27 1727.73,-204 1867.83,-188.13"/>
<polygon fill="midnightblue" stroke="midnightblue" points="1868.56,-191.57 1878.1,-186.95 1867.76,-184.61 1868.56,-191.57"/>
</g>
<!-- Node29&#45;&gt;Node6 -->
<g id="edge53" class="edge">
<title>Node29&#45;&gt;Node6</title>
<path fill="none" stroke="midnightblue" d="M2033.33,-169.19C2030.52,-168.75 2027.72,-168.34 2025,-168 1770.09,-135.77 1703.97,-154.37 1448,-132 1435.94,-130.95 1422.88,-129.57 1410.88,-128.22"/>
<polygon fill="midnightblue" stroke="midnightblue" points="1410.99,-124.71 1400.66,-127.05 1410.19,-131.67 1410.99,-124.71"/>
</g>
<!-- Node29&#45;&gt;Node7 -->
<g id="edge54" class="edge">
<title>Node29&#45;&gt;Node7</title>
<path fill="none" stroke="midnightblue" d="M2080.88,-168.36C2101.79,-146.99 2150.21,-90.83 2120,-56 2083.68,-14.12 1910.7,-10.25 1837.66,-10.53"/>
<polygon fill="midnightblue" stroke="midnightblue" points="1837.21,-7.03 1827.24,-10.6 1837.26,-14.03 1837.21,-7.03"/>
</g>
<!-- Node29&#45;&gt;Node9 -->
<g id="edge51" class="edge">
<title>Node29&#45;&gt;Node9</title>
<path fill="none" stroke="midnightblue" d="M2033.33,-169.25C2030.51,-168.8 2027.72,-168.37 2025,-168 1829.86,-141.37 1593.25,-128.41 1509.35,-124.4"/>
<polygon fill="midnightblue" stroke="midnightblue" points="1509.36,-120.9 1499.21,-123.93 1509.03,-127.89 1509.36,-120.9"/>
</g>
<!-- Node29&#45;&gt;Node14 -->
<g id="edge55" class="edge">
<title>Node29&#45;&gt;Node14</title>
<path fill="none" stroke="midnightblue" d="M2033.31,-169.36C2030.5,-168.87 2027.71,-168.42 2025,-168 1887.9,-146.94 1848.64,-169.15 1715,-132 1694.3,-126.25 1691.6,-118.08 1671,-112 1575.88,-83.92 1458.56,-72.87 1401.85,-68.94"/>
<polygon fill="midnightblue" stroke="midnightblue" points="1401.88,-65.44 1391.67,-68.27 1401.42,-72.42 1401.88,-65.44"/>
</g>
<!-- Node29&#45;&gt;Node16 -->
<g id="edge52" class="edge">
<title>Node29&#45;&gt;Node16</title>
<path fill="none" stroke="midnightblue" d="M2059.09,-168.33C2019.54,-141.82 1901.49,-63.19 1882,-56 1783.75,-19.73 1658.55,-12.45 1598.4,-11.15"/>
<polygon fill="midnightblue" stroke="midnightblue" points="1598.35,-7.65 1588.29,-10.97 1598.23,-14.64 1598.35,-7.65"/>
</g>
<!-- Node30 -->
<g id="node30" class="node">
<title>Node30</title>
<g id="a_node30"><a xlink:title=" ">
<polygon fill="none" stroke="#bfbfbf" points="1809,-56.5 1809,-75.5 1873,-75.5 1873,-56.5 1809,-56.5"/>
<text text-anchor="middle" x="1841" y="-63.5" font-family="Helvetica,sans-Serif" font-size="10.00">algorithm</text>
</a>
</g>
</g>
<!-- Node29&#45;&gt;Node30 -->
<g id="edge50" class="edge">
<title>Node29&#45;&gt;Node30</title>
<path fill="none" stroke="midnightblue" d="M2033.48,-169.14C1982.9,-158.59 1899.1,-140.22 1887,-132 1869.72,-120.26 1856.81,-99.73 1849.13,-84.88"/>
<polygon fill="midnightblue" stroke="midnightblue" points="1852.18,-83.15 1844.67,-75.68 1845.89,-86.2 1852.18,-83.15"/>
</g>
<!-- Node31 -->
<g id="node31" class="node">
<title>Node31</title>
<g id="a_node31"><a xlink:href="trace__instruction_8h.html" target="_top" xlink:title=" ">
<polygon fill="none" stroke="black" points="1929.5,-56.5 1929.5,-75.5 2036.5,-75.5 2036.5,-56.5 1929.5,-56.5"/>
<text text-anchor="middle" x="1983" y="-63.5" font-family="Helvetica,sans-Serif" font-size="10.00">trace_instruction.h</text>
</a>
</g>
</g>
<!-- Node29&#45;&gt;Node31 -->
<g id="edge56" class="edge">
<title>Node29&#45;&gt;Node31</title>
<path fill="none" stroke="midnightblue" d="M2065.02,-168.37C2050.26,-150.14 2015.71,-107.43 1996.49,-83.68"/>
<polygon fill="midnightblue" stroke="midnightblue" points="1998.96,-81.16 1989.95,-75.59 1993.52,-85.57 1998.96,-81.16"/>
</g>
<!-- Node31&#45;&gt;Node7 -->
<g id="edge57" class="edge">
<title>Node31&#45;&gt;Node7</title>
<path fill="none" stroke="midnightblue" d="M1954.8,-56.44C1922.72,-46.71 1870.48,-30.86 1836.93,-20.69"/>
<polygon fill="midnightblue" stroke="midnightblue" points="1837.75,-17.28 1827.17,-17.73 1835.72,-23.98 1837.75,-17.28"/>
</g>
<!-- Node33 -->
<g id="node33" class="node">
<title>Node33</title>
<g id="a_node33"><a xlink:href="msl_2lru__table_8h.html" target="_top" xlink:title=" ">
<polygon fill="none" stroke="black" points="1723.5,-112.5 1723.5,-131.5 1812.5,-131.5 1812.5,-112.5 1723.5,-112.5"/>
<text text-anchor="middle" x="1768" y="-119.5" font-family="Helvetica,sans-Serif" font-size="10.00">msl/lru_table.h</text>
</a>
</g>
</g>
<!-- Node32&#45;&gt;Node33 -->
<g id="edge61" class="edge">
<title>Node32&#45;&gt;Node33</title>
<path fill="none" stroke="midnightblue" d="M1609.79,-168.44C1641.83,-159.24 1692.93,-144.56 1728.35,-134.39"/>
<polygon fill="midnightblue" stroke="midnightblue" points="1729.71,-137.64 1738.35,-131.52 1727.77,-130.91 1729.71,-137.64"/>
</g>
<!-- Node33&#45;&gt;Node14 -->
<g id="edge67" class="edge">
<title>Node33&#45;&gt;Node14</title>
<path fill="none" stroke="midnightblue" d="M1723.24,-114.07C1718.43,-113.36 1713.62,-112.66 1709,-112 1596.62,-96.02 1463.12,-78.96 1401.83,-71.23"/>
<polygon fill="midnightblue" stroke="midnightblue" points="1401.95,-67.72 1391.59,-69.95 1401.07,-74.67 1401.95,-67.72"/>
</g>
<!-- Node33&#45;&gt;Node16 -->
<g id="edge64" class="edge">
<title>Node33&#45;&gt;Node16</title>
<path fill="none" stroke="midnightblue" d="M1723.31,-112.53C1671.91,-102.41 1593.26,-85.66 1583,-76 1570.39,-64.12 1565.66,-44.5 1563.93,-29.91"/>
<polygon fill="midnightblue" stroke="midnightblue" points="1567.38,-29.23 1563.08,-19.54 1560.41,-29.8 1567.38,-29.23"/>
</g>
<!-- Node33&#45;&gt;Node27 -->
<g id="edge65" class="edge">
<title>Node33&#45;&gt;Node27</title>
<path fill="none" stroke="midnightblue" d="M1812.97,-114.82C1866.12,-107.28 1957.4,-93.56 2044.94,-76.09"/>
<polygon fill="midnightblue" stroke="midnightblue" points="2045.66,-79.51 2054.77,-74.11 2044.27,-72.65 2045.66,-79.51"/>
</g>
<!-- Node33&#45;&gt;Node30 -->
<g id="edge62" class="edge">
<title>Node33&#45;&gt;Node30</title>
<path fill="none" stroke="midnightblue" d="M1779.73,-112.32C1790.84,-104.11 1807.74,-91.6 1820.98,-81.81"/>
<polygon fill="midnightblue" stroke="midnightblue" points="1823.1,-84.59 1829.06,-75.83 1818.94,-78.97 1823.1,-84.59"/>
</g>
<!-- Node34 -->
<g id="node34" class="node">
<title>Node34</title>
<g id="a_node34"><a xlink:title=" ">
<polygon fill="none" stroke="#bfbfbf" points="1675,-56.5 1675,-75.5 1727,-75.5 1727,-56.5 1675,-56.5"/>
<text text-anchor="middle" x="1701" y="-63.5" font-family="Helvetica,sans-Serif" font-size="10.00">cassert</text>
</a>
</g>
</g>
<!-- Node33&#45;&gt;Node34 -->
<g id="edge63" class="edge">
<title>Node33&#45;&gt;Node34</title>
<path fill="none" stroke="midnightblue" d="M1757.24,-112.32C1747.23,-104.26 1732.11,-92.08 1720.07,-82.37"/>
<polygon fill="midnightblue" stroke="midnightblue" points="1721.94,-79.38 1711.96,-75.83 1717.55,-84.83 1721.94,-79.38"/>
</g>
<!-- Node35 -->
<g id="node35" class="node">
<title>Node35</title>
<g id="a_node35"><a xlink:title=" ">
<polygon fill="none" stroke="#bfbfbf" points="1745.5,-56.5 1745.5,-75.5 1790.5,-75.5 1790.5,-56.5 1745.5,-56.5"/>
<text text-anchor="middle" x="1768" y="-63.5" font-family="Helvetica,sans-Serif" font-size="10.00">utility</text>
</a>
</g>
</g>
<!-- Node33&#45;&gt;Node35 -->
<g id="edge66" class="edge">
<title>Node33&#45;&gt;Node35</title>
<path fill="none" stroke="midnightblue" d="M1768,-112.08C1768,-105.01 1768,-94.86 1768,-85.99"/>
<polygon fill="midnightblue" stroke="midnightblue" points="1771.5,-85.75 1768,-75.75 1764.5,-85.75 1771.5,-85.75"/>
</g>
<!-- Node36 -->
<g id="node36" class="node">
<title>Node36</title>
<g id="a_node36"><a xlink:href="msl_2bits_8h.html" target="_top" xlink:title=" ">
<polygon fill="none" stroke="black" points="1591.5,-56.5 1591.5,-75.5 1656.5,-75.5 1656.5,-56.5 1591.5,-56.5"/>
<text text-anchor="middle" x="1624" y="-63.5" font-family="Helvetica,sans-Serif" font-size="10.00">msl/bits.h</text>
</a>
</g>
</g>
<!-- Node33&#45;&gt;Node36 -->
<g id="edge68" class="edge">
<title>Node33&#45;&gt;Node36</title>
<path fill="none" stroke="midnightblue" d="M1745.18,-112.44C1721.17,-103.44 1683.17,-89.19 1656.13,-79.05"/>
<polygon fill="midnightblue" stroke="midnightblue" points="1657.3,-75.75 1646.71,-75.52 1654.84,-82.3 1657.3,-75.75"/>
</g>
<!-- Node36&#45;&gt;Node7 -->
<g id="edge70" class="edge">
<title>Node36&#45;&gt;Node7</title>
<path fill="none" stroke="midnightblue" d="M1652.68,-56.44C1685.38,-46.69 1738.71,-30.78 1772.81,-20.6"/>
<polygon fill="midnightblue" stroke="midnightblue" points="1774.15,-23.86 1782.73,-17.64 1772.15,-17.15 1774.15,-23.86"/>
</g>
<!-- Node36&#45;&gt;Node16 -->
<g id="edge69" class="edge">
<title>Node36&#45;&gt;Node16</title>
<path fill="none" stroke="midnightblue" d="M1614.2,-56.32C1605.18,-48.34 1591.59,-36.31 1580.68,-26.65"/>
<polygon fill="midnightblue" stroke="midnightblue" points="1582.79,-23.84 1572.98,-19.83 1578.15,-29.08 1582.79,-23.84"/>
</g>
<!-- Node39&#45;&gt;Node4 -->
<g id="edge76" class="edge">
<title>Node39&#45;&gt;Node4</title>
<path fill="none" stroke="midnightblue" d="M1179.37,-224.37C1169.72,-206.38 1147.29,-164.55 1134.45,-140.63"/>
<polygon fill="midnightblue" stroke="midnightblue" points="1137.42,-138.75 1129.61,-131.59 1131.25,-142.06 1137.42,-138.75"/>
</g>
<!-- Node39&#45;&gt;Node9 -->
<g id="edge75" class="edge">
<title>Node39&#45;&gt;Node9</title>
<path fill="none" stroke="midnightblue" d="M1205.52,-229.52C1239.73,-223.56 1308.25,-209.89 1363,-188 1381.37,-180.66 1427.2,-153.7 1455.14,-136.89"/>
<polygon fill="midnightblue" stroke="midnightblue" points="1457.11,-139.79 1463.86,-131.62 1453.49,-133.8 1457.11,-139.79"/>
</g>
<!-- Node39&#45;&gt;Node13 -->
<g id="edge77" class="edge">
<title>Node39&#45;&gt;Node13</title>
<path fill="none" stroke="midnightblue" d="M1162.11,-232.25C1097.56,-229.74 902.36,-220 732.12,-187.88"/>
<polygon fill="midnightblue" stroke="midnightblue" points="732.71,-184.43 722.23,-185.98 731.39,-191.31 732.71,-184.43"/>
</g>
<!-- Node39&#45;&gt;Node18 -->
<g id="edge78" class="edge">
<title>Node39&#45;&gt;Node18</title>
<path fill="none" stroke="midnightblue" d="M1188.95,-224.08C1193.1,-216.61 1199.15,-205.72 1204.27,-196.52"/>
<polygon fill="midnightblue" stroke="midnightblue" points="1207.34,-198.19 1209.14,-187.75 1201.22,-194.79 1207.34,-198.19"/>
</g>
<!-- Node39&#45;&gt;Node21 -->
<g id="edge79" class="edge">
<title>Node39&#45;&gt;Node21</title>
<path fill="none" stroke="midnightblue" d="M1162.4,-230.99C1106.99,-225.71 955.12,-210.38 818.45,-188.12"/>
<polygon fill="midnightblue" stroke="midnightblue" points="818.65,-184.6 808.22,-186.43 817.52,-191.51 818.65,-184.6"/>
</g>
<!-- Node39&#45;&gt;Node32 -->
<g id="edge80" class="edge">
<title>Node39&#45;&gt;Node32</title>
<path fill="none" stroke="midnightblue" d="M1205.57,-230.06C1265.96,-221.82 1438.07,-198.35 1526.35,-186.32"/>
<polygon fill="midnightblue" stroke="midnightblue" points="1526.99,-189.76 1536.43,-184.94 1526.04,-182.83 1526.99,-189.76"/>
</g>
</g>
</svg>
