<?xml version="1.0" encoding="UTF-8" standalone="no"?>
<!DOCTYPE svg PUBLIC "-//W3C//DTD SVG 1.1//EN"
 "http://www.w3.org/Graphics/SVG/1.1/DTD/svg11.dtd">
<!-- Generated by graphviz version 2.43.0 (0)
 -->
<!-- Title: test/cpp/src/441&#45;replacement&#45;bypass.cc Pages: 1 -->
<svg width="2247pt" height="375pt"
 viewBox="0.00 0.00 2247.39 375.00" xmlns="http://www.w3.org/2000/svg" xmlns:xlink="http://www.w3.org/1999/xlink">
<g id="graph0" class="graph" transform="scale(1 1) rotate(0) translate(4 371)">
<title>test/cpp/src/441&#45;replacement&#45;bypass.cc</title>
<!-- Node1 -->
<g id="node1" class="node">
<title>Node1</title>
<g id="a_node1"><a xlink:title=" ">
<polygon fill="#bfbfbf" stroke="black" points="920.39,-336.5 920.39,-366.5 1079.39,-366.5 1079.39,-336.5 920.39,-336.5"/>
<text text-anchor="start" x="928.39" y="-354.5" font-family="Helvetica,sans-Serif" font-size="10.00">test/cpp/src/441&#45;replacement</text>
<text text-anchor="middle" x="999.89" y="-343.5" font-family="Helvetica,sans-Serif" font-size="10.00">&#45;bypass.cc</text>
</a>
</g>
</g>
<!-- Node2 -->
<g id="node2" class="node">
<title>Node2</title>
<g id="a_node2"><a xlink:title=" ">
<polygon fill="none" stroke="#bfbfbf" points="112.89,-280.5 112.89,-299.5 176.89,-299.5 176.89,-280.5 112.89,-280.5"/>
<text text-anchor="middle" x="144.89" y="-287.5" font-family="Helvetica,sans-Serif" font-size="10.00">catch.hpp</text>
</a>
</g>
</g>
<!-- Node1&#45;&gt;Node2 -->
<g id="edge1" class="edge">
<title>Node1&#45;&gt;Node2</title>
<path fill="none" stroke="midnightblue" d="M920.33,-349.62C775.95,-347.15 461.17,-337.66 187.17,-299.96"/>
<polygon fill="midnightblue" stroke="midnightblue" points="187.42,-296.46 177.03,-298.55 186.45,-303.39 187.42,-296.46"/>
</g>
<!-- Node3 -->
<g id="node3" class="node">
<title>Node3</title>
<g id="a_node3"><a xlink:href="mocks_8hpp.html" target="_top" xlink:title=" ">
<polygon fill="none" stroke="black" points="194.89,-280.5 194.89,-299.5 264.89,-299.5 264.89,-280.5 194.89,-280.5"/>
<text text-anchor="middle" x="229.89" y="-287.5" font-family="Helvetica,sans-Serif" font-size="10.00">mocks.hpp</text>
</a>
</g>
</g>
<!-- Node1&#45;&gt;Node3 -->
<g id="edge2" class="edge">
<title>Node1&#45;&gt;Node3</title>
<path fill="none" stroke="midnightblue" d="M920.38,-344.36C759.86,-331.95 401.6,-304.27 275.14,-294.5"/>
<polygon fill="midnightblue" stroke="midnightblue" points="275.28,-291 265.04,-293.72 274.74,-297.98 275.28,-291"/>
</g>
<!-- Node8 -->
<g id="node8" class="node">
<title>Node8</title>
<g id="a_node8"><a xlink:href="cache_8h.html" target="_top" xlink:title=" ">
<polygon fill="none" stroke="black" points="732.89,-224.5 732.89,-243.5 786.89,-243.5 786.89,-224.5 732.89,-224.5"/>
<text text-anchor="middle" x="759.89" y="-231.5" font-family="Helvetica,sans-Serif" font-size="10.00">cache.h</text>
</a>
</g>
</g>
<!-- Node1&#45;&gt;Node8 -->
<g id="edge33" class="edge">
<title>Node1&#45;&gt;Node8</title>
<path fill="none" stroke="midnightblue" d="M970.46,-336.34C923.46,-313.72 832.16,-269.78 786.8,-247.95"/>
<polygon fill="midnightblue" stroke="midnightblue" points="788.12,-244.71 777.59,-243.52 785.09,-251.01 788.12,-244.71"/>
</g>
<!-- Node17 -->
<g id="node17" class="node">
<title>Node17</title>
<g id="a_node17"><a xlink:title=" ">
<polygon fill="none" stroke="#bfbfbf" points="2110.39,-168.5 2110.39,-187.5 2239.39,-187.5 2239.39,-168.5 2110.39,-168.5"/>
<text text-anchor="middle" x="2174.89" y="-175.5" font-family="Helvetica,sans-Serif" font-size="10.00">champsim_constants.h</text>
</a>
</g>
</g>
<!-- Node1&#45;&gt;Node17 -->
<g id="edge34" class="edge">
<title>Node1&#45;&gt;Node17</title>
<path fill="none" stroke="midnightblue" d="M1074.75,-336.5C1155.92,-321.55 1289.35,-297.62 1404.89,-280 1659.42,-241.17 1962.69,-204.07 2100.34,-187.72"/>
<polygon fill="midnightblue" stroke="midnightblue" points="2100.85,-191.19 2110.36,-186.54 2100.02,-184.24 2100.85,-191.19"/>
</g>
<!-- Node25 -->
<g id="node25" class="node">
<title>Node25</title>
<g id="a_node25"><a xlink:href="defaults_8hpp.html" target="_top" xlink:title=" ">
<polygon fill="none" stroke="black" points="1090.39,-280.5 1090.39,-299.5 1167.39,-299.5 1167.39,-280.5 1090.39,-280.5"/>
<text text-anchor="middle" x="1128.89" y="-287.5" font-family="Helvetica,sans-Serif" font-size="10.00">defaults.hpp</text>
</a>
</g>
</g>
<!-- Node1&#45;&gt;Node25 -->
<g id="edge35" class="edge">
<title>Node1&#45;&gt;Node25</title>
<path fill="none" stroke="midnightblue" d="M1030.46,-336.4C1051.81,-326.55 1080.1,-313.5 1100.87,-303.92"/>
<polygon fill="midnightblue" stroke="midnightblue" points="1102.5,-307.02 1110.11,-299.66 1099.57,-300.67 1102.5,-307.02"/>
</g>
<!-- Node40 -->
<g id="node40" class="node">
<title>Node40</title>
<g id="a_node40"><a xlink:title=" ">
<polygon fill="none" stroke="#bfbfbf" points="1413.89,-280.5 1413.89,-299.5 1451.89,-299.5 1451.89,-280.5 1413.89,-280.5"/>
<text text-anchor="middle" x="1432.89" y="-287.5" font-family="Helvetica,sans-Serif" font-size="10.00">map</text>
</a>
</g>
</g>
<!-- Node1&#45;&gt;Node40 -->
<g id="edge83" class="edge">
<title>Node1&#45;&gt;Node40</title>
<path fill="none" stroke="midnightblue" d="M1079.72,-343.75C1160.84,-336.12 1289.86,-321.84 1399.89,-300 1401.16,-299.75 1402.46,-299.47 1403.78,-299.18"/>
<polygon fill="midnightblue" stroke="midnightblue" points="1404.93,-302.5 1413.8,-296.69 1403.25,-295.7 1404.93,-302.5"/>
</g>
<!-- Node4 -->
<g id="node4" class="node">
<title>Node4</title>
<g id="a_node4"><a xlink:title=" ">
<polygon fill="none" stroke="#bfbfbf" points="998.39,-112.5 998.39,-131.5 1045.39,-131.5 1045.39,-112.5 998.39,-112.5"/>
<text text-anchor="middle" x="1021.89" y="-119.5" font-family="Helvetica,sans-Serif" font-size="10.00">deque</text>
</a>
</g>
</g>
<!-- Node3&#45;&gt;Node4 -->
<g id="edge3" class="edge">
<title>Node3&#45;&gt;Node4</title>
<path fill="none" stroke="midnightblue" d="M194.73,-280.78C162.44,-272.43 118.12,-258.68 107.89,-244 91.29,-220.19 118.95,-177.55 132.89,-168 204.39,-119 833.42,-121.32 987.79,-122.65"/>
<polygon fill="midnightblue" stroke="midnightblue" points="988.04,-126.15 998.07,-122.74 988.1,-119.15 988.04,-126.15"/>
</g>
<!-- Node5 -->
<g id="node5" class="node">
<title>Node5</title>
<g id="a_node5"><a xlink:title=" ">
<polygon fill="none" stroke="#bfbfbf" points="268.39,-112.5 268.39,-131.5 333.39,-131.5 333.39,-112.5 268.39,-112.5"/>
<text text-anchor="middle" x="300.89" y="-119.5" font-family="Helvetica,sans-Serif" font-size="10.00">exception</text>
</a>
</g>
</g>
<!-- Node3&#45;&gt;Node5 -->
<g id="edge4" class="edge">
<title>Node3&#45;&gt;Node5</title>
<path fill="none" stroke="midnightblue" d="M194.6,-281.56C138.36,-269.63 34.45,-247.21 31.89,-244 10.81,-217.6 10.06,-193.78 31.89,-168 60.37,-134.36 189.72,-125.85 258.14,-123.71"/>
<polygon fill="midnightblue" stroke="midnightblue" points="258.28,-127.21 268.17,-123.43 258.08,-120.21 258.28,-127.21"/>
</g>
<!-- Node6 -->
<g id="node6" class="node">
<title>Node6</title>
<g id="a_node6"><a xlink:title=" ">
<polygon fill="none" stroke="#bfbfbf" points="1102.39,-112.5 1102.39,-131.5 1167.39,-131.5 1167.39,-112.5 1102.39,-112.5"/>
<text text-anchor="middle" x="1134.89" y="-119.5" font-family="Helvetica,sans-Serif" font-size="10.00">functional</text>
</a>
</g>
</g>
<!-- Node3&#45;&gt;Node6 -->
<g id="edge5" class="edge">
<title>Node3&#45;&gt;Node6</title>
<path fill="none" stroke="midnightblue" d="M215.3,-280.5C181.66,-259.89 104.2,-206.16 140.89,-168 176.06,-131.41 1003.27,-135.81 1053.89,-132 1066.34,-131.06 1079.84,-129.7 1092.18,-128.32"/>
<polygon fill="midnightblue" stroke="midnightblue" points="1092.69,-131.79 1102.22,-127.17 1091.89,-124.83 1092.69,-131.79"/>
</g>
<!-- Node7 -->
<g id="node7" class="node">
<title>Node7</title>
<g id="a_node7"><a xlink:title=" ">
<polygon fill="none" stroke="#bfbfbf" points="1658.89,-0.5 1658.89,-19.5 1702.89,-19.5 1702.89,-0.5 1658.89,-0.5"/>
<text text-anchor="middle" x="1680.89" y="-7.5" font-family="Helvetica,sans-Serif" font-size="10.00">limits</text>
</a>
</g>
</g>
<!-- Node3&#45;&gt;Node7 -->
<g id="edge6" class="edge">
<title>Node3&#45;&gt;Node7</title>
<path fill="none" stroke="midnightblue" d="M194.69,-281.74C134.13,-269.24 16.6,-244.88 15.89,-244 -5.4,-217.77 -5.15,-194.43 15.89,-168 84.9,-81.28 149.28,-128.42 258.89,-112 540.42,-69.82 1464.23,-21.89 1648.67,-12.6"/>
<polygon fill="midnightblue" stroke="midnightblue" points="1648.99,-16.09 1658.81,-12.1 1648.64,-9.1 1648.99,-16.09"/>
</g>
<!-- Node3&#45;&gt;Node8 -->
<g id="edge7" class="edge">
<title>Node3&#45;&gt;Node8</title>
<path fill="none" stroke="midnightblue" d="M265.07,-285.42C360.66,-275.68 624.51,-248.79 722.56,-238.8"/>
<polygon fill="midnightblue" stroke="midnightblue" points="723.01,-242.28 732.6,-237.78 722.3,-235.31 723.01,-242.28"/>
</g>
<!-- Node21 -->
<g id="node21" class="node">
<title>Node21</title>
<g id="a_node21"><a xlink:href="operable_8h.html" target="_top" xlink:title=" ">
<polygon fill="none" stroke="black" points="517.89,-168.5 517.89,-187.5 585.89,-187.5 585.89,-168.5 517.89,-168.5"/>
<text text-anchor="middle" x="551.89" y="-175.5" font-family="Helvetica,sans-Serif" font-size="10.00">operable.h</text>
</a>
</g>
</g>
<!-- Node3&#45;&gt;Node21 -->
<g id="edge32" class="edge">
<title>Node3&#45;&gt;Node21</title>
<path fill="none" stroke="midnightblue" d="M254.88,-280.46C311.83,-261.01 451.32,-213.36 516.83,-190.98"/>
<polygon fill="midnightblue" stroke="midnightblue" points="518.35,-194.16 526.68,-187.61 516.09,-187.53 518.35,-194.16"/>
</g>
<!-- Node8&#45;&gt;Node4 -->
<g id="edge10" class="edge">
<title>Node8&#45;&gt;Node4</title>
<path fill="none" stroke="midnightblue" d="M732.57,-233.15C618.18,-233.48 181.65,-231.84 140.89,-188 134.83,-181.49 134.76,-174.44 140.89,-168 170.6,-136.73 830.51,-125.64 988.24,-123.44"/>
<polygon fill="midnightblue" stroke="midnightblue" points="988.36,-126.94 998.31,-123.3 988.26,-119.94 988.36,-126.94"/>
</g>
<!-- Node9 -->
<g id="node9" class="node">
<title>Node9</title>
<g id="a_node9"><a xlink:title=" ">
<polygon fill="none" stroke="#bfbfbf" points="1352.89,-112.5 1352.89,-131.5 1394.89,-131.5 1394.89,-112.5 1352.89,-112.5"/>
<text text-anchor="middle" x="1373.89" y="-119.5" font-family="Helvetica,sans-Serif" font-size="10.00">array</text>
</a>
</g>
</g>
<!-- Node8&#45;&gt;Node9 -->
<g id="edge8" class="edge">
<title>Node8&#45;&gt;Node9</title>
<path fill="none" stroke="midnightblue" d="M732.74,-232.34C673.83,-230.28 537.22,-221.87 508.89,-188 503.18,-181.18 502.75,-174.43 508.89,-168 537.98,-137.49 1224.82,-134.77 1266.89,-132 1292.35,-130.33 1321.17,-127.87 1342.48,-125.94"/>
<polygon fill="midnightblue" stroke="midnightblue" points="1342.95,-129.42 1352.59,-125.02 1342.31,-122.45 1342.95,-129.42"/>
</g>
<!-- Node10 -->
<g id="node10" class="node">
<title>Node10</title>
<g id="a_node10"><a xlink:title=" ">
<polygon fill="none" stroke="#bfbfbf" points="1154.89,-168.5 1154.89,-187.5 1198.89,-187.5 1198.89,-168.5 1154.89,-168.5"/>
<text text-anchor="middle" x="1176.89" y="-175.5" font-family="Helvetica,sans-Serif" font-size="10.00">bitset</text>
</a>
</g>
</g>
<!-- Node8&#45;&gt;Node10 -->
<g id="edge9" class="edge">
<title>Node8&#45;&gt;Node10</title>
<path fill="none" stroke="midnightblue" d="M787.19,-231.3C849.04,-227.12 1004.67,-214.84 1144.57,-187.73"/>
<polygon fill="midnightblue" stroke="midnightblue" points="1145.48,-191.11 1154.61,-185.75 1144.13,-184.25 1145.48,-191.11"/>
</g>
<!-- Node11 -->
<g id="node11" class="node">
<title>Node11</title>
<g id="a_node11"><a xlink:title=" ">
<polygon fill="none" stroke="#bfbfbf" points="860.89,-168.5 860.89,-187.5 918.89,-187.5 918.89,-168.5 860.89,-168.5"/>
<text text-anchor="middle" x="889.89" y="-175.5" font-family="Helvetica,sans-Serif" font-size="10.00">memory</text>
</a>
</g>
</g>
<!-- Node8&#45;&gt;Node11 -->
<g id="edge11" class="edge">
<title>Node8&#45;&gt;Node11</title>
<path fill="none" stroke="midnightblue" d="M780.48,-224.44C801.88,-215.56 835.57,-201.56 859.91,-191.45"/>
<polygon fill="midnightblue" stroke="midnightblue" points="861.49,-194.58 869.38,-187.52 858.8,-188.12 861.49,-194.58"/>
</g>
<!-- Node12 -->
<g id="node12" class="node">
<title>Node12</title>
<g id="a_node12"><a xlink:title=" ">
<polygon fill="none" stroke="#bfbfbf" points="1071.39,-168.5 1071.39,-187.5 1136.39,-187.5 1136.39,-168.5 1071.39,-168.5"/>
<text text-anchor="middle" x="1103.89" y="-175.5" font-family="Helvetica,sans-Serif" font-size="10.00">stdexcept</text>
</a>
</g>
</g>
<!-- Node8&#45;&gt;Node12 -->
<g id="edge12" class="edge">
<title>Node8&#45;&gt;Node12</title>
<path fill="none" stroke="midnightblue" d="M787.17,-228.72C846.84,-219.35 989.36,-196.98 1061.1,-185.72"/>
<polygon fill="midnightblue" stroke="midnightblue" points="1061.81,-189.15 1071.15,-184.14 1060.73,-182.23 1061.81,-189.15"/>
</g>
<!-- Node13 -->
<g id="node13" class="node">
<title>Node13</title>
<g id="a_node13"><a xlink:title=" ">
<polygon fill="none" stroke="#bfbfbf" points="603.89,-168.5 603.89,-187.5 647.89,-187.5 647.89,-168.5 603.89,-168.5"/>
<text text-anchor="middle" x="625.89" y="-175.5" font-family="Helvetica,sans-Serif" font-size="10.00">string</text>
</a>
</g>
</g>
<!-- Node8&#45;&gt;Node13 -->
<g id="edge13" class="edge">
<title>Node8&#45;&gt;Node13</title>
<path fill="none" stroke="midnightblue" d="M738.65,-224.44C716.5,-215.52 681.57,-201.44 656.45,-191.32"/>
<polygon fill="midnightblue" stroke="midnightblue" points="657.6,-188.01 647.02,-187.52 654.99,-194.5 657.6,-188.01"/>
</g>
<!-- Node14 -->
<g id="node14" class="node">
<title>Node14</title>
<g id="a_node14"><a xlink:title=" ">
<polygon fill="none" stroke="#bfbfbf" points="1315.39,-56.5 1315.39,-75.5 1362.39,-75.5 1362.39,-56.5 1315.39,-56.5"/>
<text text-anchor="middle" x="1338.89" y="-63.5" font-family="Helvetica,sans-Serif" font-size="10.00">vector</text>
</a>
</g>
</g>
<!-- Node8&#45;&gt;Node14 -->
<g id="edge14" class="edge">
<title>Node8&#45;&gt;Node14</title>
<path fill="none" stroke="midnightblue" d="M732.8,-232.51C672.53,-230.78 530.34,-223.01 500.89,-188 495.16,-181.2 494.99,-174.65 500.89,-168 555.3,-106.63 1155.43,-75.36 1305.18,-68.47"/>
<polygon fill="midnightblue" stroke="midnightblue" points="1305.34,-71.97 1315.17,-68.02 1305.02,-64.98 1305.34,-71.97"/>
</g>
<!-- Node15 -->
<g id="node15" class="node">
<title>Node15</title>
<g id="a_node15"><a xlink:href="champsim_8h.html" target="_top" xlink:title=" ">
<polygon fill="none" stroke="black" points="937.39,-168.5 937.39,-187.5 1014.39,-187.5 1014.39,-168.5 937.39,-168.5"/>
<text text-anchor="middle" x="975.89" y="-175.5" font-family="Helvetica,sans-Serif" font-size="10.00">champsim.h</text>
</a>
</g>
</g>
<!-- Node8&#45;&gt;Node15 -->
<g id="edge15" class="edge">
<title>Node8&#45;&gt;Node15</title>
<path fill="none" stroke="midnightblue" d="M787.24,-226.16C823.68,-217.05 888.58,-200.83 931.93,-189.99"/>
<polygon fill="midnightblue" stroke="midnightblue" points="932.79,-193.38 941.64,-187.56 931.09,-186.59 932.79,-193.38"/>
</g>
<!-- Node8&#45;&gt;Node17 -->
<g id="edge18" class="edge">
<title>Node8&#45;&gt;Node17</title>
<path fill="none" stroke="midnightblue" d="M787,-232.23C950.05,-227.59 1801.74,-202.99 2062.89,-188 2074.9,-187.31 2087.64,-186.43 2100.04,-185.49"/>
<polygon fill="midnightblue" stroke="midnightblue" points="2100.66,-188.95 2110.36,-184.69 2100.12,-181.97 2100.66,-188.95"/>
</g>
<!-- Node18 -->
<g id="node18" class="node">
<title>Node18</title>
<g id="a_node18"><a xlink:href="channel_8h.html" target="_top" xlink:title=" ">
<polygon fill="none" stroke="black" points="1254.89,-168.5 1254.89,-187.5 1318.89,-187.5 1318.89,-168.5 1254.89,-168.5"/>
<text text-anchor="middle" x="1286.89" y="-175.5" font-family="Helvetica,sans-Serif" font-size="10.00">channel.h</text>
</a>
</g>
</g>
<!-- Node8&#45;&gt;Node18 -->
<g id="edge19" class="edge">
<title>Node8&#45;&gt;Node18</title>
<path fill="none" stroke="midnightblue" d="M786.92,-230.41C856.65,-223.71 1048.36,-205.1 1207.89,-188 1219.77,-186.73 1232.66,-185.28 1244.51,-183.93"/>
<polygon fill="midnightblue" stroke="midnightblue" points="1245.07,-187.39 1254.61,-182.78 1244.28,-180.44 1245.07,-187.39"/>
</g>
<!-- Node20 -->
<g id="node20" class="node">
<title>Node20</title>
<g id="a_node20"><a xlink:href="module__impl_8h.html" target="_top" xlink:title=" ">
<polygon fill="none" stroke="black" points="666.39,-168.5 666.39,-187.5 755.39,-187.5 755.39,-168.5 666.39,-168.5"/>
<text text-anchor="middle" x="710.89" y="-175.5" font-family="Helvetica,sans-Serif" font-size="10.00">module_impl.h</text>
</a>
</g>
</g>
<!-- Node8&#45;&gt;Node20 -->
<g id="edge27" class="edge">
<title>Node8&#45;&gt;Node20</title>
<path fill="none" stroke="midnightblue" d="M751.79,-224.08C744.73,-216.3 734.3,-204.8 725.74,-195.37"/>
<polygon fill="midnightblue" stroke="midnightblue" points="728.14,-192.8 718.83,-187.75 722.95,-197.51 728.14,-192.8"/>
</g>
<!-- Node8&#45;&gt;Node21 -->
<g id="edge28" class="edge">
<title>Node8&#45;&gt;Node21</title>
<path fill="none" stroke="midnightblue" d="M732.69,-225.94C697.6,-216.83 636.13,-200.87 594.73,-190.12"/>
<polygon fill="midnightblue" stroke="midnightblue" points="595.48,-186.7 584.92,-187.58 593.72,-193.48 595.48,-186.7"/>
</g>
<!-- Node22 -->
<g id="node22" class="node">
<title>Node22</title>
<g id="a_node22"><a xlink:title=" ">
<polygon fill="none" stroke="#bfbfbf" points="773.39,-168.5 773.39,-187.5 842.39,-187.5 842.39,-168.5 773.39,-168.5"/>
<text text-anchor="middle" x="807.89" y="-175.5" font-family="Helvetica,sans-Serif" font-size="10.00">type_traits</text>
</a>
</g>
</g>
<!-- Node8&#45;&gt;Node22 -->
<g id="edge29" class="edge">
<title>Node8&#45;&gt;Node22</title>
<path fill="none" stroke="midnightblue" d="M767.81,-224.08C774.73,-216.3 784.95,-204.8 793.34,-195.37"/>
<polygon fill="midnightblue" stroke="midnightblue" points="796.08,-197.55 800.11,-187.75 790.85,-192.9 796.08,-197.55"/>
</g>
<!-- Node23 -->
<g id="node23" class="node">
<title>Node23</title>
<g id="a_node23"><a xlink:title=" ">
<polygon fill="none" stroke="#bfbfbf" points="149.89,-168.5 149.89,-187.5 279.89,-187.5 279.89,-168.5 149.89,-168.5"/>
<text text-anchor="middle" x="214.89" y="-175.5" font-family="Helvetica,sans-Serif" font-size="10.00">cache_module_decl.inc</text>
</a>
</g>
</g>
<!-- Node8&#45;&gt;Node23 -->
<g id="edge30" class="edge">
<title>Node8&#45;&gt;Node23</title>
<path fill="none" stroke="midnightblue" d="M732.78,-230.66C661.94,-224.48 465.21,-206.99 290.4,-188.14"/>
<polygon fill="midnightblue" stroke="midnightblue" points="290.56,-184.64 280.24,-187.04 289.81,-191.6 290.56,-184.64"/>
</g>
<!-- Node24 -->
<g id="node24" class="node">
<title>Node24</title>
<g id="a_node24"><a xlink:title=" ">
<polygon fill="none" stroke="#bfbfbf" points="298.39,-168.5 298.39,-187.5 423.39,-187.5 423.39,-168.5 298.39,-168.5"/>
<text text-anchor="middle" x="360.89" y="-175.5" font-family="Helvetica,sans-Serif" font-size="10.00">cache_module_def.inc</text>
</a>
</g>
</g>
<!-- Node8&#45;&gt;Node24 -->
<g id="edge31" class="edge">
<title>Node8&#45;&gt;Node24</title>
<path fill="none" stroke="midnightblue" d="M732.77,-229.33C672.06,-221.11 523.45,-201 433.55,-188.83"/>
<polygon fill="midnightblue" stroke="midnightblue" points="433.81,-185.34 423.43,-187.46 432.87,-192.27 433.81,-185.34"/>
</g>
<!-- Node15&#45;&gt;Node5 -->
<g id="edge17" class="edge">
<title>Node15&#45;&gt;Node5</title>
<path fill="none" stroke="midnightblue" d="M937.17,-169.35C934.04,-168.85 930.91,-168.39 927.89,-168 814.3,-153.32 465.52,-132.47 343.54,-125.43"/>
<polygon fill="midnightblue" stroke="midnightblue" points="343.65,-121.93 333.46,-124.85 343.25,-128.92 343.65,-121.93"/>
</g>
<!-- Node16 -->
<g id="node16" class="node">
<title>Node16</title>
<g id="a_node16"><a xlink:title=" ">
<polygon fill="none" stroke="#bfbfbf" points="1365.89,-0.5 1365.89,-19.5 1415.89,-19.5 1415.89,-0.5 1365.89,-0.5"/>
<text text-anchor="middle" x="1390.89" y="-7.5" font-family="Helvetica,sans-Serif" font-size="10.00">cstdint</text>
</a>
</g>
</g>
<!-- Node15&#45;&gt;Node16 -->
<g id="edge16" class="edge">
<title>Node15&#45;&gt;Node16</title>
<path fill="none" stroke="midnightblue" d="M975.19,-168.34C974.58,-154.76 975.38,-128.31 988.89,-112 1036,-55.07 1266.3,-24.47 1355.5,-14.6"/>
<polygon fill="midnightblue" stroke="midnightblue" points="1356.09,-18.06 1365.66,-13.5 1355.34,-11.1 1356.09,-18.06"/>
</g>
<!-- Node18&#45;&gt;Node4 -->
<g id="edge22" class="edge">
<title>Node18&#45;&gt;Node4</title>
<path fill="none" stroke="midnightblue" d="M1254.5,-170.65C1196.38,-159.24 1078.68,-136.09 1059.89,-132 1058.44,-131.68 1056.96,-131.36 1055.46,-131.02"/>
<polygon fill="midnightblue" stroke="midnightblue" points="1056.1,-127.58 1045.57,-128.75 1054.53,-134.4 1056.1,-127.58"/>
</g>
<!-- Node18&#45;&gt;Node6 -->
<g id="edge23" class="edge">
<title>Node18&#45;&gt;Node6</title>
<path fill="none" stroke="midnightblue" d="M1262.8,-168.44C1237.34,-159.4 1196.99,-145.06 1168.43,-134.92"/>
<polygon fill="midnightblue" stroke="midnightblue" points="1169.45,-131.57 1158.86,-131.52 1167.11,-138.16 1169.45,-131.57"/>
</g>
<!-- Node18&#45;&gt;Node7 -->
<g id="edge24" class="edge">
<title>Node18&#45;&gt;Node7</title>
<path fill="none" stroke="midnightblue" d="M1285.17,-168.44C1281.27,-146.23 1274.35,-86.41 1305.89,-56 1330.41,-32.35 1562.27,-17.44 1648.66,-12.67"/>
<polygon fill="midnightblue" stroke="midnightblue" points="1648.89,-16.16 1658.68,-12.12 1648.51,-9.17 1648.89,-16.16"/>
</g>
<!-- Node18&#45;&gt;Node9 -->
<g id="edge20" class="edge">
<title>Node18&#45;&gt;Node9</title>
<path fill="none" stroke="midnightblue" d="M1300.86,-168.32C1314.43,-159.9 1335.27,-146.97 1351.21,-137.07"/>
<polygon fill="midnightblue" stroke="midnightblue" points="1353.29,-139.9 1359.94,-131.65 1349.6,-133.95 1353.29,-139.9"/>
</g>
<!-- Node18&#45;&gt;Node14 -->
<g id="edge25" class="edge">
<title>Node18&#45;&gt;Node14</title>
<path fill="none" stroke="midnightblue" d="M1290.97,-168.37C1299.43,-150.46 1319.07,-108.92 1330.4,-84.95"/>
<polygon fill="midnightblue" stroke="midnightblue" points="1333.71,-86.13 1334.82,-75.59 1327.39,-83.14 1333.71,-86.13"/>
</g>
<!-- Node18&#45;&gt;Node16 -->
<g id="edge21" class="edge">
<title>Node18&#45;&gt;Node16</title>
<path fill="none" stroke="midnightblue" d="M1254.59,-170.59C1200.74,-159.76 1097.95,-138.38 1092.89,-132 1087.36,-125.04 1087.71,-119.22 1092.89,-112 1153.94,-26.84 1290.81,-12.59 1355.6,-10.8"/>
<polygon fill="midnightblue" stroke="midnightblue" points="1355.79,-14.3 1365.73,-10.61 1355.66,-7.3 1355.79,-14.3"/>
</g>
<!-- Node19 -->
<g id="node19" class="node">
<title>Node19</title>
<g id="a_node19"><a xlink:title=" ">
<polygon fill="none" stroke="#bfbfbf" points="1185.39,-112.5 1185.39,-131.5 1258.39,-131.5 1258.39,-112.5 1185.39,-112.5"/>
<text text-anchor="middle" x="1221.89" y="-119.5" font-family="Helvetica,sans-Serif" font-size="10.00">string_view</text>
</a>
</g>
</g>
<!-- Node18&#45;&gt;Node19 -->
<g id="edge26" class="edge">
<title>Node18&#45;&gt;Node19</title>
<path fill="none" stroke="midnightblue" d="M1276.44,-168.32C1266.74,-160.26 1252.07,-148.08 1240.39,-138.37"/>
<polygon fill="midnightblue" stroke="midnightblue" points="1242.45,-135.53 1232.52,-131.83 1237.97,-140.92 1242.45,-135.53"/>
</g>
<!-- Node25&#45;&gt;Node8 -->
<g id="edge36" class="edge">
<title>Node25&#45;&gt;Node8</title>
<path fill="none" stroke="midnightblue" d="M1090.09,-283.32C1018.81,-272.89 867.86,-250.8 797.48,-240.5"/>
<polygon fill="midnightblue" stroke="midnightblue" points="797.7,-237 787.3,-239.01 796.69,-243.92 797.7,-237"/>
</g>
<!-- Node25&#45;&gt;Node17 -->
<g id="edge37" class="edge">
<title>Node25&#45;&gt;Node17</title>
<path fill="none" stroke="midnightblue" d="M1167.53,-282.84C1208.31,-275.75 1274.14,-262.65 1328.89,-244 1348.84,-237.2 1351.42,-229.06 1371.89,-224 1528.26,-185.32 1935.33,-201.12 2095.89,-188 2097.2,-187.89 2098.53,-187.78 2099.87,-187.66"/>
<polygon fill="midnightblue" stroke="midnightblue" points="2100.61,-191.11 2110.25,-186.7 2099.97,-184.14 2100.61,-191.11"/>
</g>
<!-- Node26 -->
<g id="node26" class="node">
<title>Node26</title>
<g id="a_node26"><a xlink:href="ooo__cpu_8h.html" target="_top" xlink:title=" ">
<polygon fill="none" stroke="black" points="1253.89,-224.5 1253.89,-243.5 1319.89,-243.5 1319.89,-224.5 1253.89,-224.5"/>
<text text-anchor="middle" x="1286.89" y="-231.5" font-family="Helvetica,sans-Serif" font-size="10.00">ooo_cpu.h</text>
</a>
</g>
</g>
<!-- Node25&#45;&gt;Node26 -->
<g id="edge38" class="edge">
<title>Node25&#45;&gt;Node26</title>
<path fill="none" stroke="midnightblue" d="M1153.92,-280.44C1180.5,-271.36 1222.69,-256.94 1252.41,-246.78"/>
<polygon fill="midnightblue" stroke="midnightblue" points="1253.64,-250.06 1261.97,-243.52 1251.37,-243.44 1253.64,-250.06"/>
</g>
<!-- Node39 -->
<g id="node39" class="node">
<title>Node39</title>
<g id="a_node39"><a xlink:href="ptw_8h.html" target="_top" xlink:title=" ">
<polygon fill="none" stroke="black" points="1107.39,-224.5 1107.39,-243.5 1150.39,-243.5 1150.39,-224.5 1107.39,-224.5"/>
<text text-anchor="middle" x="1128.89" y="-231.5" font-family="Helvetica,sans-Serif" font-size="10.00">ptw.h</text>
</a>
</g>
</g>
<!-- Node25&#45;&gt;Node39 -->
<g id="edge76" class="edge">
<title>Node25&#45;&gt;Node39</title>
<path fill="none" stroke="midnightblue" d="M1128.89,-280.08C1128.89,-273.01 1128.89,-262.86 1128.89,-253.99"/>
<polygon fill="midnightblue" stroke="midnightblue" points="1132.39,-253.75 1128.89,-243.75 1125.39,-253.75 1132.39,-253.75"/>
</g>
<!-- Node26&#45;&gt;Node4 -->
<g id="edge41" class="edge">
<title>Node26&#45;&gt;Node4</title>
<path fill="none" stroke="midnightblue" d="M1279.03,-224.39C1265.75,-210.38 1237.44,-182.75 1207.89,-168 1206.16,-167.14 1108.65,-143.75 1055.53,-131.04"/>
<polygon fill="midnightblue" stroke="midnightblue" points="1056.08,-127.57 1045.54,-128.65 1054.45,-134.38 1056.08,-127.57"/>
</g>
<!-- Node26&#45;&gt;Node7 -->
<g id="edge42" class="edge">
<title>Node26&#45;&gt;Node7</title>
<path fill="none" stroke="midnightblue" d="M1319.98,-224.78C1321.63,-224.49 1323.27,-224.23 1324.89,-224 1406.17,-212.49 2006.27,-247.45 2062.89,-188 2107.37,-141.29 2179.41,-176.53 1984.89,-56 1939.9,-28.13 1782.07,-16.43 1713.31,-12.58"/>
<polygon fill="midnightblue" stroke="midnightblue" points="1713.24,-9.07 1703.07,-12.02 1712.87,-16.06 1713.24,-9.07"/>
</g>
<!-- Node26&#45;&gt;Node9 -->
<g id="edge39" class="edge">
<title>Node26&#45;&gt;Node9</title>
<path fill="none" stroke="midnightblue" d="M1310.91,-224.43C1327.51,-217.25 1348.72,-205.37 1360.89,-188 1370.27,-174.6 1373.24,-156.03 1374.03,-142.17"/>
<polygon fill="midnightblue" stroke="midnightblue" points="1377.53,-141.93 1374.27,-131.85 1370.54,-141.77 1377.53,-141.93"/>
</g>
<!-- Node26&#45;&gt;Node10 -->
<g id="edge40" class="edge">
<title>Node26&#45;&gt;Node10</title>
<path fill="none" stroke="midnightblue" d="M1269.21,-224.32C1251.49,-215.62 1223.98,-202.12 1203.6,-192.11"/>
<polygon fill="midnightblue" stroke="midnightblue" points="1205.03,-188.92 1194.51,-187.65 1201.95,-195.2 1205.03,-188.92"/>
</g>
<!-- Node26&#45;&gt;Node11 -->
<g id="edge43" class="edge">
<title>Node26&#45;&gt;Node11</title>
<path fill="none" stroke="midnightblue" d="M1253.54,-230.03C1191.59,-224.26 1054.37,-210.25 929.4,-188.11"/>
<polygon fill="midnightblue" stroke="midnightblue" points="929.74,-184.61 919.28,-186.29 928.5,-191.5 929.74,-184.61"/>
</g>
<!-- Node26&#45;&gt;Node12 -->
<g id="edge46" class="edge">
<title>Node26&#45;&gt;Node12</title>
<path fill="none" stroke="midnightblue" d="M1257.89,-224.44C1226.7,-215.24 1176.96,-200.56 1142.48,-190.39"/>
<polygon fill="midnightblue" stroke="midnightblue" points="1143.33,-186.99 1132.75,-187.52 1141.35,-193.7 1143.33,-186.99"/>
</g>
<!-- Node26&#45;&gt;Node14 -->
<g id="edge47" class="edge">
<title>Node26&#45;&gt;Node14</title>
<path fill="none" stroke="midnightblue" d="M1317.49,-224.39C1337.47,-217.41 1362.91,-205.77 1379.89,-188 1398.59,-168.42 1398.44,-158.53 1403.89,-132 1405.67,-123.29 1408.01,-119.87 1403.89,-112 1396.61,-98.11 1382.88,-87.65 1369.9,-80.33"/>
<polygon fill="midnightblue" stroke="midnightblue" points="1371.18,-77.05 1360.69,-75.55 1367.96,-83.27 1371.18,-77.05"/>
</g>
<!-- Node26&#45;&gt;Node15 -->
<g id="edge48" class="edge">
<title>Node26&#45;&gt;Node15</title>
<path fill="none" stroke="midnightblue" d="M1253.6,-227.22C1198.68,-217.68 1088.81,-198.61 1024.96,-187.52"/>
<polygon fill="midnightblue" stroke="midnightblue" points="1025.19,-184.01 1014.74,-185.75 1024,-190.91 1025.19,-184.01"/>
</g>
<!-- Node26&#45;&gt;Node17 -->
<g id="edge49" class="edge">
<title>Node26&#45;&gt;Node17</title>
<path fill="none" stroke="midnightblue" d="M1319.92,-226.06C1324.59,-225.26 1329.35,-224.54 1333.89,-224 1670.56,-184.02 1757.93,-215.2 2095.89,-188 2097.2,-187.89 2098.53,-187.78 2099.87,-187.67"/>
<polygon fill="midnightblue" stroke="midnightblue" points="2100.61,-191.12 2110.25,-186.72 2099.97,-184.14 2100.61,-191.12"/>
</g>
<!-- Node26&#45;&gt;Node18 -->
<g id="edge50" class="edge">
<title>Node26&#45;&gt;Node18</title>
<path fill="none" stroke="midnightblue" d="M1286.89,-224.08C1286.89,-217.01 1286.89,-206.86 1286.89,-197.99"/>
<polygon fill="midnightblue" stroke="midnightblue" points="1290.39,-197.75 1286.89,-187.75 1283.39,-197.75 1290.39,-197.75"/>
</g>
<!-- Node26&#45;&gt;Node20 -->
<g id="edge60" class="edge">
<title>Node26&#45;&gt;Node20</title>
<path fill="none" stroke="midnightblue" d="M1253.64,-230.5C1157.11,-223.19 877.14,-201.57 765.61,-188.11"/>
<polygon fill="midnightblue" stroke="midnightblue" points="766.02,-184.63 755.67,-186.87 765.16,-191.58 766.02,-184.63"/>
</g>
<!-- Node26&#45;&gt;Node21 -->
<g id="edge61" class="edge">
<title>Node26&#45;&gt;Node21</title>
<path fill="none" stroke="midnightblue" d="M1253.74,-230.61C1227.9,-228.76 1191.11,-226.16 1158.89,-224 911.58,-207.41 845.51,-221.43 596.17,-187.98"/>
<polygon fill="midnightblue" stroke="midnightblue" points="596.46,-184.49 586.08,-186.62 595.52,-191.43 596.46,-184.49"/>
</g>
<!-- Node26&#45;&gt;Node22 -->
<g id="edge73" class="edge">
<title>Node26&#45;&gt;Node22</title>
<path fill="none" stroke="midnightblue" d="M1253.73,-230.69C1182.36,-225.49 1008.71,-211.53 852.67,-187.96"/>
<polygon fill="midnightblue" stroke="midnightblue" points="852.83,-184.45 842.41,-186.4 851.77,-191.37 852.83,-184.45"/>
</g>
<!-- Node27 -->
<g id="node27" class="node">
<title>Node27</title>
<g id="a_node27"><a xlink:title=" ">
<polygon fill="none" stroke="#bfbfbf" points="1755.89,-56.5 1755.89,-75.5 1811.89,-75.5 1811.89,-56.5 1755.89,-56.5"/>
<text text-anchor="middle" x="1783.89" y="-63.5" font-family="Helvetica,sans-Serif" font-size="10.00">optional</text>
</a>
</g>
</g>
<!-- Node26&#45;&gt;Node27 -->
<g id="edge44" class="edge">
<title>Node26&#45;&gt;Node27</title>
<path fill="none" stroke="midnightblue" d="M1319.98,-224.82C1321.63,-224.52 1323.28,-224.24 1324.89,-224 1384.79,-214.99 1827.49,-232.23 1868.89,-188 1901.58,-153.07 1841.64,-104.88 1806.6,-81.24"/>
<polygon fill="midnightblue" stroke="midnightblue" points="1808.17,-78.08 1797.89,-75.52 1804.32,-83.93 1808.17,-78.08"/>
</g>
<!-- Node28 -->
<g id="node28" class="node">
<title>Node28</title>
<g id="a_node28"><a xlink:title=" ">
<polygon fill="none" stroke="#bfbfbf" points="1556.39,-168.5 1556.39,-187.5 1603.39,-187.5 1603.39,-168.5 1556.39,-168.5"/>
<text text-anchor="middle" x="1579.89" y="-175.5" font-family="Helvetica,sans-Serif" font-size="10.00">queue</text>
</a>
</g>
</g>
<!-- Node26&#45;&gt;Node28 -->
<g id="edge45" class="edge">
<title>Node26&#45;&gt;Node28</title>
<path fill="none" stroke="midnightblue" d="M1319.99,-226.56C1324.65,-225.69 1329.39,-224.81 1333.89,-224 1425.66,-207.5 1452.04,-208.96 1546.24,-188.19"/>
<polygon fill="midnightblue" stroke="midnightblue" points="1547.19,-191.56 1556.19,-185.97 1545.67,-184.73 1547.19,-191.56"/>
</g>
<!-- Node29 -->
<g id="node29" class="node">
<title>Node29</title>
<g id="a_node29"><a xlink:href="instruction_8h.html" target="_top" xlink:title=" ">
<polygon fill="none" stroke="black" points="1782.39,-168.5 1782.39,-187.5 1859.39,-187.5 1859.39,-168.5 1782.39,-168.5"/>
<text text-anchor="middle" x="1820.89" y="-175.5" font-family="Helvetica,sans-Serif" font-size="10.00">instruction.h</text>
</a>
</g>
</g>
<!-- Node26&#45;&gt;Node29 -->
<g id="edge51" class="edge">
<title>Node26&#45;&gt;Node29</title>
<path fill="none" stroke="midnightblue" d="M1319.94,-226.21C1324.61,-225.38 1329.36,-224.62 1333.89,-224 1524.64,-197.99 1577.13,-213.54 1772.17,-187.95"/>
<polygon fill="midnightblue" stroke="midnightblue" points="1772.72,-191.4 1782.17,-186.62 1771.79,-184.47 1772.72,-191.4"/>
</g>
<!-- Node32 -->
<g id="node32" class="node">
<title>Node32</title>
<g id="a_node32"><a xlink:href="util_2lru__table_8h.html" target="_top" xlink:title=" ">
<polygon fill="none" stroke="black" points="1451.39,-168.5 1451.39,-187.5 1538.39,-187.5 1538.39,-168.5 1451.39,-168.5"/>
<text text-anchor="middle" x="1494.89" y="-175.5" font-family="Helvetica,sans-Serif" font-size="10.00">util/lru_table.h</text>
</a>
</g>
</g>
<!-- Node26&#45;&gt;Node32 -->
<g id="edge62" class="edge">
<title>Node26&#45;&gt;Node32</title>
<path fill="none" stroke="midnightblue" d="M1319.84,-224.44C1355.67,-215.14 1413.05,-200.25 1452.28,-190.06"/>
<polygon fill="midnightblue" stroke="midnightblue" points="1453.28,-193.42 1462.08,-187.52 1451.52,-186.64 1453.28,-193.42"/>
</g>
<!-- Node37 -->
<g id="node37" class="node">
<title>Node37</title>
<g id="a_node37"><a xlink:title=" ">
<polygon fill="none" stroke="#bfbfbf" points="1621.89,-168.5 1621.89,-187.5 1763.89,-187.5 1763.89,-168.5 1621.89,-168.5"/>
<text text-anchor="middle" x="1692.89" y="-175.5" font-family="Helvetica,sans-Serif" font-size="10.00">ooo_cpu_module_decl.inc</text>
</a>
</g>
</g>
<!-- Node26&#45;&gt;Node37 -->
<g id="edge74" class="edge">
<title>Node26&#45;&gt;Node37</title>
<path fill="none" stroke="midnightblue" d="M1319.96,-226.39C1324.63,-225.54 1329.37,-224.71 1333.89,-224 1385.71,-215.8 1522.78,-199.14 1611.77,-188.55"/>
<polygon fill="midnightblue" stroke="midnightblue" points="1612.32,-192.01 1621.83,-187.35 1611.49,-185.06 1612.32,-192.01"/>
</g>
<!-- Node38 -->
<g id="node38" class="node">
<title>Node38</title>
<g id="a_node38"><a xlink:title=" ">
<polygon fill="none" stroke="#bfbfbf" points="1916.39,-168.5 1916.39,-187.5 2053.39,-187.5 2053.39,-168.5 1916.39,-168.5"/>
<text text-anchor="middle" x="1984.89" y="-175.5" font-family="Helvetica,sans-Serif" font-size="10.00">ooo_cpu_module_def.inc</text>
</a>
</g>
</g>
<!-- Node26&#45;&gt;Node38 -->
<g id="edge75" class="edge">
<title>Node26&#45;&gt;Node38</title>
<path fill="none" stroke="midnightblue" d="M1319.93,-226.13C1324.6,-225.32 1329.35,-224.58 1333.89,-224 1584.82,-192.15 1649.86,-209.64 1901.89,-188 1903.18,-187.89 1904.5,-187.77 1905.82,-187.66"/>
<polygon fill="midnightblue" stroke="midnightblue" points="1906.43,-191.11 1916.07,-186.7 1905.78,-184.14 1906.43,-191.11"/>
</g>
<!-- Node29&#45;&gt;Node6 -->
<g id="edge55" class="edge">
<title>Node29&#45;&gt;Node6</title>
<path fill="none" stroke="midnightblue" d="M1782.18,-169.31C1779.04,-168.82 1775.91,-168.37 1772.89,-168 1512.42,-135.86 1440.97,-167.78 1177.73,-132.05"/>
<polygon fill="midnightblue" stroke="midnightblue" points="1177.86,-128.53 1167.48,-130.63 1176.9,-135.47 1177.86,-128.53"/>
</g>
<!-- Node29&#45;&gt;Node7 -->
<g id="edge56" class="edge">
<title>Node29&#45;&gt;Node7</title>
<path fill="none" stroke="midnightblue" d="M1824.01,-168.34C1831.14,-146.9 1846.13,-90.63 1820.89,-56 1796.39,-22.4 1746.39,-13.34 1713.26,-11.19"/>
<polygon fill="midnightblue" stroke="midnightblue" points="1713.3,-7.69 1703.15,-10.72 1712.97,-14.68 1713.3,-7.69"/>
</g>
<!-- Node29&#45;&gt;Node9 -->
<g id="edge53" class="edge">
<title>Node29&#45;&gt;Node9</title>
<path fill="none" stroke="midnightblue" d="M1782.15,-169.48C1779.02,-168.95 1775.9,-168.45 1772.89,-168 1628.7,-146.55 1591.67,-148.92 1446.89,-132 1433.21,-130.4 1418.11,-128.55 1405.2,-126.95"/>
<polygon fill="midnightblue" stroke="midnightblue" points="1405.32,-123.44 1394.96,-125.67 1404.45,-130.38 1405.32,-123.44"/>
</g>
<!-- Node29&#45;&gt;Node14 -->
<g id="edge57" class="edge">
<title>Node29&#45;&gt;Node14</title>
<path fill="none" stroke="midnightblue" d="M1782.15,-169.52C1779.02,-168.98 1775.9,-168.47 1772.89,-168 1643.67,-147.94 1606.7,-167.63 1480.89,-132 1480.14,-131.79 1408.02,-98.72 1366.86,-79.84"/>
<polygon fill="midnightblue" stroke="midnightblue" points="1368.16,-76.58 1357.62,-75.6 1365.24,-82.95 1368.16,-76.58"/>
</g>
<!-- Node29&#45;&gt;Node16 -->
<g id="edge54" class="edge">
<title>Node29&#45;&gt;Node16</title>
<path fill="none" stroke="midnightblue" d="M1815.92,-168.42C1802.21,-145.63 1761.38,-83.48 1708.89,-56 1660.27,-30.55 1498.44,-17.63 1426.22,-13.02"/>
<polygon fill="midnightblue" stroke="midnightblue" points="1426.43,-9.53 1416.23,-12.4 1426,-16.52 1426.43,-9.53"/>
</g>
<!-- Node30 -->
<g id="node30" class="node">
<title>Node30</title>
<g id="a_node30"><a xlink:title=" ">
<polygon fill="none" stroke="#bfbfbf" points="1635.89,-56.5 1635.89,-75.5 1699.89,-75.5 1699.89,-56.5 1635.89,-56.5"/>
<text text-anchor="middle" x="1667.89" y="-63.5" font-family="Helvetica,sans-Serif" font-size="10.00">algorithm</text>
</a>
</g>
</g>
<!-- Node29&#45;&gt;Node30 -->
<g id="edge52" class="edge">
<title>Node29&#45;&gt;Node30</title>
<path fill="none" stroke="midnightblue" d="M1787.95,-168.38C1765.4,-161.3 1735.73,-149.54 1713.89,-132 1697.77,-119.06 1684.79,-99.07 1676.78,-84.67"/>
<polygon fill="midnightblue" stroke="midnightblue" points="1679.83,-82.95 1672.05,-75.75 1673.64,-86.23 1679.83,-82.95"/>
</g>
<!-- Node31 -->
<g id="node31" class="node">
<title>Node31</title>
<g id="a_node31"><a xlink:href="trace__instruction_8h.html" target="_top" xlink:title=" ">
<polygon fill="none" stroke="black" points="1868.39,-56.5 1868.39,-75.5 1975.39,-75.5 1975.39,-56.5 1868.39,-56.5"/>
<text text-anchor="middle" x="1921.89" y="-63.5" font-family="Helvetica,sans-Serif" font-size="10.00">trace_instruction.h</text>
</a>
</g>
</g>
<!-- Node29&#45;&gt;Node31 -->
<g id="edge58" class="edge">
<title>Node29&#45;&gt;Node31</title>
<path fill="none" stroke="midnightblue" d="M1828.81,-168.37C1845.7,-149.97 1885.46,-106.67 1907.15,-83.05"/>
<polygon fill="midnightblue" stroke="midnightblue" points="1909.81,-85.32 1914,-75.59 1904.66,-80.59 1909.81,-85.32"/>
</g>
<!-- Node31&#45;&gt;Node7 -->
<g id="edge59" class="edge">
<title>Node31&#45;&gt;Node7</title>
<path fill="none" stroke="midnightblue" d="M1883.7,-56.44C1836.51,-45.87 1757.08,-28.07 1712.92,-18.18"/>
<polygon fill="midnightblue" stroke="midnightblue" points="1713.54,-14.73 1703.02,-15.96 1712.01,-21.56 1713.54,-14.73"/>
</g>
<!-- Node33 -->
<g id="node33" class="node">
<title>Node33</title>
<g id="a_node33"><a xlink:href="msl_2lru__table_8h.html" target="_top" xlink:title=" ">
<polygon fill="none" stroke="black" points="1489.39,-112.5 1489.39,-131.5 1578.39,-131.5 1578.39,-112.5 1489.39,-112.5"/>
<text text-anchor="middle" x="1533.89" y="-119.5" font-family="Helvetica,sans-Serif" font-size="10.00">msl/lru_table.h</text>
</a>
</g>
</g>
<!-- Node32&#45;&gt;Node33 -->
<g id="edge63" class="edge">
<title>Node32&#45;&gt;Node33</title>
<path fill="none" stroke="midnightblue" d="M1501.33,-168.08C1506.83,-160.46 1514.92,-149.26 1521.65,-139.94"/>
<polygon fill="midnightblue" stroke="midnightblue" points="1524.55,-141.91 1527.56,-131.75 1518.87,-137.81 1524.55,-141.91"/>
</g>
<!-- Node33&#45;&gt;Node14 -->
<g id="edge69" class="edge">
<title>Node33&#45;&gt;Node14</title>
<path fill="none" stroke="midnightblue" d="M1502.99,-112.44C1467.35,-102.58 1408.99,-86.41 1372.32,-76.26"/>
<polygon fill="midnightblue" stroke="midnightblue" points="1373.16,-72.86 1362.58,-73.56 1371.29,-79.6 1373.16,-72.86"/>
</g>
<!-- Node33&#45;&gt;Node16 -->
<g id="edge66" class="edge">
<title>Node33&#45;&gt;Node16</title>
<path fill="none" stroke="midnightblue" d="M1489.35,-115.07C1462.89,-109.32 1430.57,-98.05 1409.89,-76 1398.21,-63.55 1393.66,-44.32 1391.92,-30"/>
<polygon fill="midnightblue" stroke="midnightblue" points="1395.38,-29.45 1391.04,-19.79 1388.41,-30.05 1395.38,-29.45"/>
</g>
<!-- Node33&#45;&gt;Node27 -->
<g id="edge67" class="edge">
<title>Node33&#45;&gt;Node27</title>
<path fill="none" stroke="midnightblue" d="M1573.5,-112.44C1620.73,-102.24 1699.12,-85.31 1745.71,-75.25"/>
<polygon fill="midnightblue" stroke="midnightblue" points="1746.67,-78.62 1755.71,-73.09 1745.19,-71.78 1746.67,-78.62"/>
</g>
<!-- Node33&#45;&gt;Node30 -->
<g id="edge64" class="edge">
<title>Node33&#45;&gt;Node30</title>
<path fill="none" stroke="midnightblue" d="M1555.12,-112.44C1577.27,-103.52 1612.2,-89.44 1637.32,-79.32"/>
<polygon fill="midnightblue" stroke="midnightblue" points="1638.78,-82.5 1646.75,-75.52 1636.17,-76.01 1638.78,-82.5"/>
</g>
<!-- Node34 -->
<g id="node34" class="node">
<title>Node34</title>
<g id="a_node34"><a xlink:title=" ">
<polygon fill="none" stroke="#bfbfbf" points="1418.89,-56.5 1418.89,-75.5 1470.89,-75.5 1470.89,-56.5 1418.89,-56.5"/>
<text text-anchor="middle" x="1444.89" y="-63.5" font-family="Helvetica,sans-Serif" font-size="10.00">cassert</text>
</a>
</g>
</g>
<!-- Node33&#45;&gt;Node34 -->
<g id="edge65" class="edge">
<title>Node33&#45;&gt;Node34</title>
<path fill="none" stroke="midnightblue" d="M1519.59,-112.32C1505.7,-103.9 1484.39,-90.97 1468.08,-81.07"/>
<polygon fill="midnightblue" stroke="midnightblue" points="1469.51,-77.85 1459.15,-75.65 1465.88,-83.83 1469.51,-77.85"/>
</g>
<!-- Node35 -->
<g id="node35" class="node">
<title>Node35</title>
<g id="a_node35"><a xlink:title=" ">
<polygon fill="none" stroke="#bfbfbf" points="1572.39,-56.5 1572.39,-75.5 1617.39,-75.5 1617.39,-56.5 1572.39,-56.5"/>
<text text-anchor="middle" x="1594.89" y="-63.5" font-family="Helvetica,sans-Serif" font-size="10.00">utility</text>
</a>
</g>
</g>
<!-- Node33&#45;&gt;Node35 -->
<g id="edge68" class="edge">
<title>Node33&#45;&gt;Node35</title>
<path fill="none" stroke="midnightblue" d="M1543.69,-112.32C1552.7,-104.34 1566.29,-92.31 1577.2,-82.65"/>
<polygon fill="midnightblue" stroke="midnightblue" points="1579.74,-85.08 1584.91,-75.83 1575.1,-79.84 1579.74,-85.08"/>
</g>
<!-- Node36 -->
<g id="node36" class="node">
<title>Node36</title>
<g id="a_node36"><a xlink:href="msl_2bits_8h.html" target="_top" xlink:title=" ">
<polygon fill="none" stroke="black" points="1489.39,-56.5 1489.39,-75.5 1554.39,-75.5 1554.39,-56.5 1489.39,-56.5"/>
<text text-anchor="middle" x="1521.89" y="-63.5" font-family="Helvetica,sans-Serif" font-size="10.00">msl/bits.h</text>
</a>
</g>
</g>
<!-- Node33&#45;&gt;Node36 -->
<g id="edge70" class="edge">
<title>Node33&#45;&gt;Node36</title>
<path fill="none" stroke="midnightblue" d="M1531.9,-112.08C1530.31,-104.93 1528.03,-94.64 1526.04,-85.69"/>
<polygon fill="midnightblue" stroke="midnightblue" points="1529.42,-84.75 1523.83,-75.75 1522.58,-86.27 1529.42,-84.75"/>
</g>
<!-- Node36&#45;&gt;Node7 -->
<g id="edge72" class="edge">
<title>Node36&#45;&gt;Node7</title>
<path fill="none" stroke="midnightblue" d="M1547.08,-56.44C1574.77,-47.04 1619.3,-31.91 1649.31,-21.72"/>
<polygon fill="midnightblue" stroke="midnightblue" points="1650.54,-25 1658.88,-18.47 1648.29,-18.37 1650.54,-25"/>
</g>
<!-- Node36&#45;&gt;Node16 -->
<g id="edge71" class="edge">
<title>Node36&#45;&gt;Node16</title>
<path fill="none" stroke="midnightblue" d="M1501.13,-56.44C1479.57,-47.56 1445.62,-33.56 1421.09,-23.45"/>
<polygon fill="midnightblue" stroke="midnightblue" points="1422.12,-20.09 1411.55,-19.52 1419.46,-26.56 1422.12,-20.09"/>
</g>
<!-- Node39&#45;&gt;Node4 -->
<g id="edge78" class="edge">
<title>Node39&#45;&gt;Node4</title>
<path fill="none" stroke="midnightblue" d="M1112,-224.36C1097.5,-216.34 1076.64,-203.36 1061.89,-188 1048.44,-174.01 1037.29,-154.75 1030.2,-140.83"/>
<polygon fill="midnightblue" stroke="midnightblue" points="1033.32,-139.25 1025.79,-131.8 1027.03,-142.32 1033.32,-139.25"/>
</g>
<!-- Node39&#45;&gt;Node9 -->
<g id="edge77" class="edge">
<title>Node39&#45;&gt;Node9</title>
<path fill="none" stroke="midnightblue" d="M1150.58,-233.02C1189.41,-232.06 1271.91,-225.37 1327.89,-188 1345.26,-176.4 1358.15,-155.84 1365.8,-140.95"/>
<polygon fill="midnightblue" stroke="midnightblue" points="1369.06,-142.25 1370.24,-131.72 1362.75,-139.21 1369.06,-142.25"/>
</g>
<!-- Node39&#45;&gt;Node13 -->
<g id="edge79" class="edge">
<title>Node39&#45;&gt;Node13</title>
<path fill="none" stroke="midnightblue" d="M1107.04,-232.37C1040.75,-230.16 836.08,-221.1 658.18,-187.9"/>
<polygon fill="midnightblue" stroke="midnightblue" points="658.59,-184.42 648.11,-185.99 657.29,-191.3 658.59,-184.42"/>
</g>
<!-- Node39&#45;&gt;Node18 -->
<g id="edge80" class="edge">
<title>Node39&#45;&gt;Node18</title>
<path fill="none" stroke="midnightblue" d="M1150.52,-225.6C1176.76,-216.64 1221.3,-201.41 1252.31,-190.82"/>
<polygon fill="midnightblue" stroke="midnightblue" points="1253.54,-194.1 1261.87,-187.55 1251.27,-187.47 1253.54,-194.1"/>
</g>
<!-- Node39&#45;&gt;Node21 -->
<g id="edge81" class="edge">
<title>Node39&#45;&gt;Node21</title>
<path fill="none" stroke="midnightblue" d="M1107.16,-232.12C1035.54,-229.03 800.33,-217.29 596.09,-188"/>
<polygon fill="midnightblue" stroke="midnightblue" points="596.48,-184.53 586.09,-186.55 595.48,-191.45 596.48,-184.53"/>
</g>
<!-- Node39&#45;&gt;Node32 -->
<g id="edge82" class="edge">
<title>Node39&#45;&gt;Node32</title>
<path fill="none" stroke="midnightblue" d="M1150.41,-229.82C1206.62,-221.53 1359.1,-199.03 1441.05,-186.94"/>
<polygon fill="midnightblue" stroke="midnightblue" points="1441.79,-190.37 1451.17,-185.45 1440.77,-183.45 1441.79,-190.37"/>
</g>
</g>
</svg>
