<?xml version="1.0" encoding="UTF-8" standalone="no"?>
<!DOCTYPE svg PUBLIC "-//W3C//DTD SVG 1.1//EN"
 "http://www.w3.org/Graphics/SVG/1.1/DTD/svg11.dtd">
<!-- Generated by graphviz version 2.43.0 (0)
 -->
<!-- Title: test/cpp/src/442&#45;replacement&#45;interface.cc Pages: 1 -->
<svg width="2322pt" height="375pt"
 viewBox="0.00 0.00 2322.40 375.00" xmlns="http://www.w3.org/2000/svg" xmlns:xlink="http://www.w3.org/1999/xlink">
<g id="graph0" class="graph" transform="scale(1 1) rotate(0) translate(4 371)">
<title>test/cpp/src/442&#45;replacement&#45;interface.cc</title>
<!-- Node1 -->
<g id="node1" class="node">
<title>Node1</title>
<g id="a_node1"><a xlink:title=" ">
<polygon fill="#bfbfbf" stroke="black" points="894.9,-336.5 894.9,-366.5 1053.9,-366.5 1053.9,-336.5 894.9,-336.5"/>
<text text-anchor="start" x="902.9" y="-354.5" font-family="Helvetica,sans-Serif" font-size="10.00">test/cpp/src/442&#45;replacement</text>
<text text-anchor="middle" x="974.4" y="-343.5" font-family="Helvetica,sans-Serif" font-size="10.00">&#45;interface.cc</text>
</a>
</g>
</g>
<!-- Node2 -->
<g id="node2" class="node">
<title>Node2</title>
<g id="a_node2"><a xlink:title=" ">
<polygon fill="none" stroke="#bfbfbf" points="261.4,-280.5 261.4,-299.5 325.4,-299.5 325.4,-280.5 261.4,-280.5"/>
<text text-anchor="middle" x="293.4" y="-287.5" font-family="Helvetica,sans-Serif" font-size="10.00">catch.hpp</text>
</a>
</g>
</g>
<!-- Node1&#45;&gt;Node2 -->
<g id="edge1" class="edge">
<title>Node1&#45;&gt;Node2</title>
<path fill="none" stroke="midnightblue" d="M894.68,-347.73C775.18,-342.79 542.43,-330.17 335.69,-299.99"/>
<polygon fill="midnightblue" stroke="midnightblue" points="335.96,-296.49 325.55,-298.5 334.93,-303.42 335.96,-296.49"/>
</g>
<!-- Node3 -->
<g id="node3" class="node">
<title>Node3</title>
<g id="a_node3"><a xlink:href="mocks_8hpp.html" target="_top" xlink:title=" ">
<polygon fill="none" stroke="black" points="343.4,-280.5 343.4,-299.5 413.4,-299.5 413.4,-280.5 343.4,-280.5"/>
<text text-anchor="middle" x="378.4" y="-287.5" font-family="Helvetica,sans-Serif" font-size="10.00">mocks.hpp</text>
</a>
</g>
</g>
<!-- Node1&#45;&gt;Node3 -->
<g id="edge2" class="edge">
<title>Node1&#45;&gt;Node3</title>
<path fill="none" stroke="midnightblue" d="M894.64,-342.54C767.81,-329.88 524.23,-305.56 423.6,-295.51"/>
<polygon fill="midnightblue" stroke="midnightblue" points="423.76,-292.01 413.47,-294.5 423.07,-298.98 423.76,-292.01"/>
</g>
<!-- Node8 -->
<g id="node8" class="node">
<title>Node8</title>
<g id="a_node8"><a xlink:href="cache_8h.html" target="_top" xlink:title=" ">
<polygon fill="none" stroke="black" points="914.4,-224.5 914.4,-243.5 968.4,-243.5 968.4,-224.5 914.4,-224.5"/>
<text text-anchor="middle" x="941.4" y="-231.5" font-family="Helvetica,sans-Serif" font-size="10.00">cache.h</text>
</a>
</g>
</g>
<!-- Node1&#45;&gt;Node8 -->
<g id="edge81" class="edge">
<title>Node1&#45;&gt;Node8</title>
<path fill="none" stroke="midnightblue" d="M970.35,-336.34C964.41,-315.53 953.3,-276.66 946.71,-253.58"/>
<polygon fill="midnightblue" stroke="midnightblue" points="949.99,-252.32 943.88,-243.67 943.26,-254.25 949.99,-252.32"/>
</g>
<!-- Node14 -->
<g id="node14" class="node">
<title>Node14</title>
<g id="a_node14"><a xlink:title=" ">
<polygon fill="none" stroke="#bfbfbf" points="1482.9,-56.5 1482.9,-75.5 1529.9,-75.5 1529.9,-56.5 1482.9,-56.5"/>
<text text-anchor="middle" x="1506.4" y="-63.5" font-family="Helvetica,sans-Serif" font-size="10.00">vector</text>
</a>
</g>
</g>
<!-- Node1&#45;&gt;Node14 -->
<g id="edge86" class="edge">
<title>Node1&#45;&gt;Node14</title>
<path fill="none" stroke="midnightblue" d="M1054.09,-347.47C1333,-336.34 2248.4,-295.24 2248.4,-235 2248.4,-235 2248.4,-235 2248.4,-177 2248.4,-140.71 1685.76,-84.21 1540.36,-70.22"/>
<polygon fill="midnightblue" stroke="midnightblue" points="1540.54,-66.72 1530.25,-69.25 1539.87,-73.69 1540.54,-66.72"/>
</g>
<!-- Node17 -->
<g id="node17" class="node">
<title>Node17</title>
<g id="a_node17"><a xlink:title=" ">
<polygon fill="none" stroke="#bfbfbf" points="2090.9,-168.5 2090.9,-187.5 2219.9,-187.5 2219.9,-168.5 2090.9,-168.5"/>
<text text-anchor="middle" x="2155.4" y="-175.5" font-family="Helvetica,sans-Serif" font-size="10.00">champsim_constants.h</text>
</a>
</g>
</g>
<!-- Node1&#45;&gt;Node17 -->
<g id="edge82" class="edge">
<title>Node1&#45;&gt;Node17</title>
<path fill="none" stroke="midnightblue" d="M1054.18,-338.91C1273.3,-307.1 1881.63,-218.76 2086.81,-188.96"/>
<polygon fill="midnightblue" stroke="midnightblue" points="2087.46,-192.4 2096.86,-187.5 2086.46,-185.48 2087.46,-192.4"/>
</g>
<!-- Node25 -->
<g id="node25" class="node">
<title>Node25</title>
<g id="a_node25"><a xlink:href="defaults_8hpp.html" target="_top" xlink:title=" ">
<polygon fill="none" stroke="black" points="969.9,-280.5 969.9,-299.5 1046.9,-299.5 1046.9,-280.5 969.9,-280.5"/>
<text text-anchor="middle" x="1008.4" y="-287.5" font-family="Helvetica,sans-Serif" font-size="10.00">defaults.hpp</text>
</a>
</g>
</g>
<!-- Node1&#45;&gt;Node25 -->
<g id="edge33" class="edge">
<title>Node1&#45;&gt;Node25</title>
<path fill="none" stroke="midnightblue" d="M982.46,-336.4C987.25,-328.02 993.36,-317.33 998.44,-308.42"/>
<polygon fill="midnightblue" stroke="midnightblue" points="1001.53,-310.08 1003.45,-299.66 995.45,-306.6 1001.53,-310.08"/>
</g>
<!-- Node40 -->
<g id="node40" class="node">
<title>Node40</title>
<g id="a_node40"><a xlink:href="repl__interface_8h.html" target="_top" xlink:title=" ">
<polygon fill="none" stroke="black" points="478.9,-224.5 478.9,-243.5 571.9,-243.5 571.9,-224.5 478.9,-224.5"/>
<text text-anchor="middle" x="525.4" y="-231.5" font-family="Helvetica,sans-Serif" font-size="10.00">repl_interface.h</text>
</a>
</g>
</g>
<!-- Node1&#45;&gt;Node40 -->
<g id="edge83" class="edge">
<title>Node1&#45;&gt;Node40</title>
<path fill="none" stroke="midnightblue" d="M919.79,-336.45C829.38,-313.19 650.43,-267.16 568.36,-246.05"/>
<polygon fill="midnightblue" stroke="midnightblue" points="569.16,-242.64 558.61,-243.54 567.42,-249.42 569.16,-242.64"/>
</g>
<!-- Node41 -->
<g id="node41" class="node">
<title>Node41</title>
<g id="a_node41"><a xlink:title=" ">
<polygon fill="none" stroke="#bfbfbf" points="2276.4,-280.5 2276.4,-299.5 2314.4,-299.5 2314.4,-280.5 2276.4,-280.5"/>
<text text-anchor="middle" x="2295.4" y="-287.5" font-family="Helvetica,sans-Serif" font-size="10.00">map</text>
</a>
</g>
</g>
<!-- Node1&#45;&gt;Node41 -->
<g id="edge85" class="edge">
<title>Node1&#45;&gt;Node41</title>
<path fill="none" stroke="midnightblue" d="M1054.26,-349.74C1297.65,-347.05 2027.81,-336.11 2262.4,-300 2263.69,-299.8 2265,-299.57 2266.32,-299.32"/>
<polygon fill="midnightblue" stroke="midnightblue" points="2267.42,-302.65 2276.36,-296.98 2265.83,-295.84 2267.42,-302.65"/>
</g>
<!-- Node4 -->
<g id="node4" class="node">
<title>Node4</title>
<g id="a_node4"><a xlink:title=" ">
<polygon fill="none" stroke="#bfbfbf" points="323.9,-112.5 323.9,-131.5 370.9,-131.5 370.9,-112.5 323.9,-112.5"/>
<text text-anchor="middle" x="347.4" y="-119.5" font-family="Helvetica,sans-Serif" font-size="10.00">deque</text>
</a>
</g>
</g>
<!-- Node3&#45;&gt;Node4 -->
<g id="edge3" class="edge">
<title>Node3&#45;&gt;Node4</title>
<path fill="none" stroke="midnightblue" d="M345.89,-280.47C271.16,-260.55 92.34,-210.92 76.4,-188 71.32,-180.7 70.65,-174.78 76.4,-168 106.42,-132.59 247.48,-125.01 313.35,-123.41"/>
<polygon fill="midnightblue" stroke="midnightblue" points="313.7,-126.91 323.62,-123.2 313.55,-119.91 313.7,-126.91"/>
</g>
<!-- Node5 -->
<g id="node5" class="node">
<title>Node5</title>
<g id="a_node5"><a xlink:title=" ">
<polygon fill="none" stroke="#bfbfbf" points="17.9,-112.5 17.9,-131.5 82.9,-131.5 82.9,-112.5 17.9,-112.5"/>
<text text-anchor="middle" x="50.4" y="-119.5" font-family="Helvetica,sans-Serif" font-size="10.00">exception</text>
</a>
</g>
</g>
<!-- Node3&#45;&gt;Node5 -->
<g id="edge4" class="edge">
<title>Node3&#45;&gt;Node5</title>
<path fill="none" stroke="midnightblue" d="M343.34,-281.81C340.32,-281.19 337.31,-280.58 334.4,-280 253.56,-263.74 228.61,-275.47 152.4,-244 110.93,-226.87 94.71,-224.35 68.4,-188 58.64,-174.51 54.17,-155.96 52.12,-142.12"/>
<polygon fill="midnightblue" stroke="midnightblue" points="55.56,-141.35 50.91,-131.83 48.6,-142.17 55.56,-141.35"/>
</g>
<!-- Node6 -->
<g id="node6" class="node">
<title>Node6</title>
<g id="a_node6"><a xlink:title=" ">
<polygon fill="none" stroke="#bfbfbf" points="843.9,-112.5 843.9,-131.5 908.9,-131.5 908.9,-112.5 843.9,-112.5"/>
<text text-anchor="middle" x="876.4" y="-119.5" font-family="Helvetica,sans-Serif" font-size="10.00">functional</text>
</a>
</g>
</g>
<!-- Node3&#45;&gt;Node6 -->
<g id="edge5" class="edge">
<title>Node3&#45;&gt;Node6</title>
<path fill="none" stroke="midnightblue" d="M413.7,-288.95C456.69,-287.25 529.83,-278.9 580.4,-244 613.68,-221.04 596.69,-190.32 630.4,-168 704.61,-118.86 739.85,-148.04 827.4,-132 829.46,-131.62 831.57,-131.24 833.7,-130.85"/>
<polygon fill="midnightblue" stroke="midnightblue" points="834.51,-134.25 843.72,-129.01 833.25,-127.37 834.51,-134.25"/>
</g>
<!-- Node7 -->
<g id="node7" class="node">
<title>Node7</title>
<g id="a_node7"><a xlink:title=" ">
<polygon fill="none" stroke="#bfbfbf" points="1229.4,-0.5 1229.4,-19.5 1273.4,-19.5 1273.4,-0.5 1229.4,-0.5"/>
<text text-anchor="middle" x="1251.4" y="-7.5" font-family="Helvetica,sans-Serif" font-size="10.00">limits</text>
</a>
</g>
</g>
<!-- Node3&#45;&gt;Node7 -->
<g id="edge6" class="edge">
<title>Node3&#45;&gt;Node7</title>
<path fill="none" stroke="midnightblue" d="M343.34,-281.81C340.32,-281.19 337.31,-280.58 334.4,-280 253.56,-263.74 228.61,-275.47 152.4,-244 110.93,-226.87 103.58,-215.84 68.4,-188 34.65,-161.29 -20.55,-143.84 8.4,-112 92.3,-19.73 1032.03,-11.74 1219.12,-11.06"/>
<polygon fill="midnightblue" stroke="midnightblue" points="1219.16,-14.56 1229.15,-11.03 1219.14,-7.56 1219.16,-14.56"/>
</g>
<!-- Node3&#45;&gt;Node8 -->
<g id="edge7" class="edge">
<title>Node3&#45;&gt;Node8</title>
<path fill="none" stroke="midnightblue" d="M413.62,-285.62C514.06,-275.99 801.29,-248.44 904.17,-238.57"/>
<polygon fill="midnightblue" stroke="midnightblue" points="904.77,-242.03 914.39,-237.59 904.1,-235.06 904.77,-242.03"/>
</g>
<!-- Node21 -->
<g id="node21" class="node">
<title>Node21</title>
<g id="a_node21"><a xlink:href="operable_8h.html" target="_top" xlink:title=" ">
<polygon fill="none" stroke="black" points="93.4,-168.5 93.4,-187.5 161.4,-187.5 161.4,-168.5 93.4,-168.5"/>
<text text-anchor="middle" x="127.4" y="-175.5" font-family="Helvetica,sans-Serif" font-size="10.00">operable.h</text>
</a>
</g>
</g>
<!-- Node3&#45;&gt;Node21 -->
<g id="edge32" class="edge">
<title>Node3&#45;&gt;Node21</title>
<path fill="none" stroke="midnightblue" d="M358.7,-280.37C314.63,-261.05 207.86,-214.26 156.26,-191.65"/>
<polygon fill="midnightblue" stroke="midnightblue" points="157.57,-188.4 147,-187.59 154.76,-194.81 157.57,-188.4"/>
</g>
<!-- Node8&#45;&gt;Node4 -->
<g id="edge10" class="edge">
<title>Node8&#45;&gt;Node4</title>
<path fill="none" stroke="midnightblue" d="M914.14,-232.66C805.76,-231.06 409.29,-222.84 366.4,-188 352.88,-177.01 348.64,-156.96 347.48,-142.02"/>
<polygon fill="midnightblue" stroke="midnightblue" points="350.97,-141.69 347.08,-131.83 343.97,-141.96 350.97,-141.69"/>
</g>
<!-- Node9 -->
<g id="node9" class="node">
<title>Node9</title>
<g id="a_node9"><a xlink:title=" ">
<polygon fill="none" stroke="#bfbfbf" points="927.4,-112.5 927.4,-131.5 969.4,-131.5 969.4,-112.5 927.4,-112.5"/>
<text text-anchor="middle" x="948.4" y="-119.5" font-family="Helvetica,sans-Serif" font-size="10.00">array</text>
</a>
</g>
</g>
<!-- Node8&#45;&gt;Node9 -->
<g id="edge8" class="edge">
<title>Node8&#45;&gt;Node9</title>
<path fill="none" stroke="midnightblue" d="M941.95,-224.37C943.08,-206.62 945.69,-165.67 947.22,-141.6"/>
<polygon fill="midnightblue" stroke="midnightblue" points="950.71,-141.79 947.85,-131.59 943.73,-141.35 950.71,-141.79"/>
</g>
<!-- Node10 -->
<g id="node10" class="node">
<title>Node10</title>
<g id="a_node10"><a xlink:title=" ">
<polygon fill="none" stroke="#bfbfbf" points="1254.4,-168.5 1254.4,-187.5 1298.4,-187.5 1298.4,-168.5 1254.4,-168.5"/>
<text text-anchor="middle" x="1276.4" y="-175.5" font-family="Helvetica,sans-Serif" font-size="10.00">bitset</text>
</a>
</g>
</g>
<!-- Node8&#45;&gt;Node10 -->
<g id="edge9" class="edge">
<title>Node8&#45;&gt;Node10</title>
<path fill="none" stroke="midnightblue" d="M968.46,-230.24C1020.22,-224.7 1136.92,-210.93 1244.13,-188.03"/>
<polygon fill="midnightblue" stroke="midnightblue" points="1245.11,-191.39 1254.14,-185.85 1243.63,-184.55 1245.11,-191.39"/>
</g>
<!-- Node11 -->
<g id="node11" class="node">
<title>Node11</title>
<g id="a_node11"><a xlink:title=" ">
<polygon fill="none" stroke="#bfbfbf" points="1007.4,-168.5 1007.4,-187.5 1065.4,-187.5 1065.4,-168.5 1007.4,-168.5"/>
<text text-anchor="middle" x="1036.4" y="-175.5" font-family="Helvetica,sans-Serif" font-size="10.00">memory</text>
</a>
</g>
</g>
<!-- Node8&#45;&gt;Node11 -->
<g id="edge11" class="edge">
<title>Node8&#45;&gt;Node11</title>
<path fill="none" stroke="midnightblue" d="M956.66,-224.32C971.62,-215.82 994.66,-202.73 1012.13,-192.8"/>
<polygon fill="midnightblue" stroke="midnightblue" points="1014.21,-195.64 1021.17,-187.65 1010.75,-189.55 1014.21,-195.64"/>
</g>
<!-- Node12 -->
<g id="node12" class="node">
<title>Node12</title>
<g id="a_node12"><a xlink:title=" ">
<polygon fill="none" stroke="#bfbfbf" points="1083.9,-168.5 1083.9,-187.5 1148.9,-187.5 1148.9,-168.5 1083.9,-168.5"/>
<text text-anchor="middle" x="1116.4" y="-175.5" font-family="Helvetica,sans-Serif" font-size="10.00">stdexcept</text>
</a>
</g>
</g>
<!-- Node8&#45;&gt;Node12 -->
<g id="edge12" class="edge">
<title>Node8&#45;&gt;Node12</title>
<path fill="none" stroke="midnightblue" d="M968.74,-224.56C998.36,-215.42 1045.81,-200.78 1078.9,-190.57"/>
<polygon fill="midnightblue" stroke="midnightblue" points="1080.15,-193.85 1088.67,-187.56 1078.08,-187.16 1080.15,-193.85"/>
</g>
<!-- Node13 -->
<g id="node13" class="node">
<title>Node13</title>
<g id="a_node13"><a xlink:title=" ">
<polygon fill="none" stroke="#bfbfbf" points="179.4,-168.5 179.4,-187.5 223.4,-187.5 223.4,-168.5 179.4,-168.5"/>
<text text-anchor="middle" x="201.4" y="-175.5" font-family="Helvetica,sans-Serif" font-size="10.00">string</text>
</a>
</g>
</g>
<!-- Node8&#45;&gt;Node13 -->
<g id="edge13" class="edge">
<title>Node8&#45;&gt;Node13</title>
<path fill="none" stroke="midnightblue" d="M914.34,-232.08C803.94,-228.19 386.6,-212.3 233.73,-187.78"/>
<polygon fill="midnightblue" stroke="midnightblue" points="234.06,-184.29 223.61,-186.08 232.89,-191.19 234.06,-184.29"/>
</g>
<!-- Node8&#45;&gt;Node14 -->
<g id="edge14" class="edge">
<title>Node8&#45;&gt;Node14</title>
<path fill="none" stroke="midnightblue" d="M946.43,-224.21C955.09,-209.95 974.22,-181.96 998.4,-168 1080.58,-120.56 1372.55,-82.69 1472.53,-70.86"/>
<polygon fill="midnightblue" stroke="midnightblue" points="1473.15,-74.31 1482.67,-69.67 1472.33,-67.36 1473.15,-74.31"/>
</g>
<!-- Node15 -->
<g id="node15" class="node">
<title>Node15</title>
<g id="a_node15"><a xlink:href="champsim_8h.html" target="_top" xlink:title=" ">
<polygon fill="none" stroke="black" points="241.9,-168.5 241.9,-187.5 318.9,-187.5 318.9,-168.5 241.9,-168.5"/>
<text text-anchor="middle" x="280.4" y="-175.5" font-family="Helvetica,sans-Serif" font-size="10.00">champsim.h</text>
</a>
</g>
</g>
<!-- Node8&#45;&gt;Node15 -->
<g id="edge15" class="edge">
<title>Node8&#45;&gt;Node15</title>
<path fill="none" stroke="midnightblue" d="M914.34,-231.91C828.85,-228.27 556.94,-215.19 333.4,-188 332.1,-187.84 330.78,-187.67 329.45,-187.5"/>
<polygon fill="midnightblue" stroke="midnightblue" points="329.52,-183.97 319.13,-186.01 328.52,-190.9 329.52,-183.97"/>
</g>
<!-- Node8&#45;&gt;Node17 -->
<g id="edge18" class="edge">
<title>Node8&#45;&gt;Node17</title>
<path fill="none" stroke="midnightblue" d="M968.54,-232.03C1089.63,-227.66 1592.72,-209.11 2005.4,-188 2029.91,-186.75 2056.66,-185.2 2080.69,-183.74"/>
<polygon fill="midnightblue" stroke="midnightblue" points="2081.04,-187.23 2090.81,-183.13 2080.62,-180.24 2081.04,-187.23"/>
</g>
<!-- Node18 -->
<g id="node18" class="node">
<title>Node18</title>
<g id="a_node18"><a xlink:href="channel_8h.html" target="_top" xlink:title=" ">
<polygon fill="none" stroke="black" points="481.4,-168.5 481.4,-187.5 545.4,-187.5 545.4,-168.5 481.4,-168.5"/>
<text text-anchor="middle" x="513.4" y="-175.5" font-family="Helvetica,sans-Serif" font-size="10.00">channel.h</text>
</a>
</g>
</g>
<!-- Node8&#45;&gt;Node18 -->
<g id="edge19" class="edge">
<title>Node8&#45;&gt;Node18</title>
<path fill="none" stroke="midnightblue" d="M914.3,-229.58C841.82,-220.44 643.06,-195.36 555.62,-184.33"/>
<polygon fill="midnightblue" stroke="midnightblue" points="555.89,-180.83 545.53,-183.05 555.01,-187.78 555.89,-180.83"/>
</g>
<!-- Node20 -->
<g id="node20" class="node">
<title>Node20</title>
<g id="a_node20"><a xlink:href="module__impl_8h.html" target="_top" xlink:title=" ">
<polygon fill="none" stroke="black" points="1316.9,-168.5 1316.9,-187.5 1405.9,-187.5 1405.9,-168.5 1316.9,-168.5"/>
<text text-anchor="middle" x="1361.4" y="-175.5" font-family="Helvetica,sans-Serif" font-size="10.00">module_impl.h</text>
</a>
</g>
</g>
<!-- Node8&#45;&gt;Node20 -->
<g id="edge27" class="edge">
<title>Node8&#45;&gt;Node20</title>
<path fill="none" stroke="midnightblue" d="M968.54,-230.07C1027.85,-223.57 1173.65,-207.12 1306.67,-188.05"/>
<polygon fill="midnightblue" stroke="midnightblue" points="1307.24,-191.5 1316.63,-186.61 1306.24,-184.58 1307.24,-191.5"/>
</g>
<!-- Node8&#45;&gt;Node21 -->
<g id="edge28" class="edge">
<title>Node8&#45;&gt;Node21</title>
<path fill="none" stroke="midnightblue" d="M914.29,-232.87C815.82,-232.08 467.75,-226.64 171.66,-187.96"/>
<polygon fill="midnightblue" stroke="midnightblue" points="171.96,-184.47 161.59,-186.63 171.04,-191.41 171.96,-184.47"/>
</g>
<!-- Node22 -->
<g id="node22" class="node">
<title>Node22</title>
<g id="a_node22"><a xlink:title=" ">
<polygon fill="none" stroke="#bfbfbf" points="1166.9,-168.5 1166.9,-187.5 1235.9,-187.5 1235.9,-168.5 1166.9,-168.5"/>
<text text-anchor="middle" x="1201.4" y="-175.5" font-family="Helvetica,sans-Serif" font-size="10.00">type_traits</text>
</a>
</g>
</g>
<!-- Node8&#45;&gt;Node22 -->
<g id="edge29" class="edge">
<title>Node8&#45;&gt;Node22</title>
<path fill="none" stroke="midnightblue" d="M968.47,-227.4C1007.77,-219.27 1083.19,-203.66 1156.77,-188.34"/>
<polygon fill="midnightblue" stroke="midnightblue" points="1157.59,-191.74 1166.67,-186.28 1156.16,-184.89 1157.59,-191.74"/>
</g>
<!-- Node23 -->
<g id="node23" class="node">
<title>Node23</title>
<g id="a_node23"><a xlink:title=" ">
<polygon fill="none" stroke="#bfbfbf" points="639.4,-168.5 639.4,-187.5 769.4,-187.5 769.4,-168.5 639.4,-168.5"/>
<text text-anchor="middle" x="704.4" y="-175.5" font-family="Helvetica,sans-Serif" font-size="10.00">cache_module_decl.inc</text>
</a>
</g>
</g>
<!-- Node8&#45;&gt;Node23 -->
<g id="edge30" class="edge">
<title>Node8&#45;&gt;Node23</title>
<path fill="none" stroke="midnightblue" d="M914.21,-226.81C874.6,-217.78 800.43,-200.88 751.74,-189.79"/>
<polygon fill="midnightblue" stroke="midnightblue" points="752.28,-186.32 741.75,-187.51 750.73,-193.15 752.28,-186.32"/>
</g>
<!-- Node24 -->
<g id="node24" class="node">
<title>Node24</title>
<g id="a_node24"><a xlink:title=" ">
<polygon fill="none" stroke="#bfbfbf" points="787.9,-168.5 787.9,-187.5 912.9,-187.5 912.9,-168.5 787.9,-168.5"/>
<text text-anchor="middle" x="850.4" y="-175.5" font-family="Helvetica,sans-Serif" font-size="10.00">cache_module_def.inc</text>
</a>
</g>
</g>
<!-- Node8&#45;&gt;Node24 -->
<g id="edge31" class="edge">
<title>Node8&#45;&gt;Node24</title>
<path fill="none" stroke="midnightblue" d="M926.78,-224.32C912.45,-215.82 890.39,-202.73 873.65,-192.8"/>
<polygon fill="midnightblue" stroke="midnightblue" points="875.37,-189.75 864.98,-187.65 871.8,-195.77 875.37,-189.75"/>
</g>
<!-- Node15&#45;&gt;Node5 -->
<g id="edge17" class="edge">
<title>Node15&#45;&gt;Node5</title>
<path fill="none" stroke="midnightblue" d="M243.96,-168.44C202.91,-158.81 136.3,-143.17 92.92,-132.98"/>
<polygon fill="midnightblue" stroke="midnightblue" points="93.49,-129.52 82.96,-130.64 91.89,-136.34 93.49,-129.52"/>
</g>
<!-- Node16 -->
<g id="node16" class="node">
<title>Node16</title>
<g id="a_node16"><a xlink:title=" ">
<polygon fill="none" stroke="#bfbfbf" points="514.4,-0.5 514.4,-19.5 564.4,-19.5 564.4,-0.5 514.4,-0.5"/>
<text text-anchor="middle" x="539.4" y="-7.5" font-family="Helvetica,sans-Serif" font-size="10.00">cstdint</text>
</a>
</g>
</g>
<!-- Node15&#45;&gt;Node16 -->
<g id="edge16" class="edge">
<title>Node15&#45;&gt;Node16</title>
<path fill="none" stroke="midnightblue" d="M282.91,-168.28C287.24,-154.62 297.34,-128.07 314.4,-112 369.58,-60.04 456.02,-31.65 504.12,-19.07"/>
<polygon fill="midnightblue" stroke="midnightblue" points="505.22,-22.4 514.06,-16.56 503.5,-15.62 505.22,-22.4"/>
</g>
<!-- Node18&#45;&gt;Node4 -->
<g id="edge22" class="edge">
<title>Node18&#45;&gt;Node4</title>
<path fill="none" stroke="midnightblue" d="M487.1,-168.44C458.31,-159.08 412.08,-144.04 380.76,-133.85"/>
<polygon fill="midnightblue" stroke="midnightblue" points="381.75,-130.49 371.16,-130.73 379.59,-137.15 381.75,-130.49"/>
</g>
<!-- Node18&#45;&gt;Node6 -->
<g id="edge23" class="edge">
<title>Node18&#45;&gt;Node6</title>
<path fill="none" stroke="midnightblue" d="M545.53,-170.46C550.17,-169.59 554.9,-168.74 559.4,-168 678.86,-148.37 709.9,-151.39 829.4,-132 830.86,-131.76 832.35,-131.52 833.85,-131.26"/>
<polygon fill="midnightblue" stroke="midnightblue" points="834.59,-134.68 843.83,-129.49 833.37,-127.79 834.59,-134.68"/>
</g>
<!-- Node18&#45;&gt;Node7 -->
<g id="edge24" class="edge">
<title>Node18&#45;&gt;Node7</title>
<path fill="none" stroke="midnightblue" d="M545.5,-170.82C550.49,-169.87 555.58,-168.9 560.4,-168 647.89,-151.63 673.98,-163.04 757.4,-132 773.83,-125.89 776.06,-120.48 791.4,-112 838.72,-85.84 847.79,-72.12 899.4,-56 1013.08,-20.49 1155.8,-12.95 1218.87,-11.39"/>
<polygon fill="midnightblue" stroke="midnightblue" points="1219.07,-14.88 1229,-11.17 1218.92,-7.88 1219.07,-14.88"/>
</g>
<!-- Node18&#45;&gt;Node9 -->
<g id="edge20" class="edge">
<title>Node18&#45;&gt;Node9</title>
<path fill="none" stroke="midnightblue" d="M545.51,-170.32C550.16,-169.47 554.89,-168.67 559.4,-168 714.78,-145.06 759.29,-162.44 917.16,-131.88"/>
<polygon fill="midnightblue" stroke="midnightblue" points="918.09,-135.27 927.22,-129.9 916.73,-128.4 918.09,-135.27"/>
</g>
<!-- Node18&#45;&gt;Node14 -->
<g id="edge25" class="edge">
<title>Node18&#45;&gt;Node14</title>
<path fill="none" stroke="midnightblue" d="M545.48,-170.7C550.47,-169.77 555.57,-168.84 560.4,-168 662.78,-150.23 691.98,-162.21 791.4,-132 811.57,-125.87 813.98,-117.24 834.4,-112 865.56,-104.01 1339.72,-76.5 1472.23,-68.94"/>
<polygon fill="midnightblue" stroke="midnightblue" points="1472.8,-72.41 1482.58,-68.35 1472.4,-65.42 1472.8,-72.41"/>
</g>
<!-- Node18&#45;&gt;Node16 -->
<g id="edge21" class="edge">
<title>Node18&#45;&gt;Node16</title>
<path fill="none" stroke="midnightblue" d="M494.42,-168.4C480.51,-160.95 462.69,-148.74 454.4,-132 450.46,-124.03 451.35,-120.35 454.4,-112 467.52,-76.05 499.69,-44.02 520.48,-26.1"/>
<polygon fill="midnightblue" stroke="midnightblue" points="522.92,-28.62 528.34,-19.52 518.42,-23.25 522.92,-28.62"/>
</g>
<!-- Node19 -->
<g id="node19" class="node">
<title>Node19</title>
<g id="a_node19"><a xlink:title=" ">
<polygon fill="none" stroke="#bfbfbf" points="463.9,-112.5 463.9,-131.5 536.9,-131.5 536.9,-112.5 463.9,-112.5"/>
<text text-anchor="middle" x="500.4" y="-119.5" font-family="Helvetica,sans-Serif" font-size="10.00">string_view</text>
</a>
</g>
</g>
<!-- Node18&#45;&gt;Node19 -->
<g id="edge26" class="edge">
<title>Node18&#45;&gt;Node19</title>
<path fill="none" stroke="midnightblue" d="M511.25,-168.08C509.53,-160.93 507.05,-150.64 504.9,-141.69"/>
<polygon fill="midnightblue" stroke="midnightblue" points="508.25,-140.65 502.51,-131.75 501.45,-142.29 508.25,-140.65"/>
</g>
<!-- Node25&#45;&gt;Node8 -->
<g id="edge34" class="edge">
<title>Node25&#45;&gt;Node8</title>
<path fill="none" stroke="midnightblue" d="M997.64,-280.32C987.63,-272.26 972.51,-260.08 960.47,-250.37"/>
<polygon fill="midnightblue" stroke="midnightblue" points="962.34,-247.38 952.36,-243.83 957.95,-252.83 962.34,-247.38"/>
</g>
<!-- Node25&#45;&gt;Node17 -->
<g id="edge35" class="edge">
<title>Node25&#45;&gt;Node17</title>
<path fill="none" stroke="midnightblue" d="M1047.22,-285.6C1186.54,-273.34 1674.43,-229.9 2076.4,-188 2077.71,-187.86 2079.04,-187.72 2080.37,-187.58"/>
<polygon fill="midnightblue" stroke="midnightblue" points="2081.17,-191.02 2090.74,-186.47 2080.43,-184.06 2081.17,-191.02"/>
</g>
<!-- Node26 -->
<g id="node26" class="node">
<title>Node26</title>
<g id="a_node26"><a xlink:href="ooo__cpu_8h.html" target="_top" xlink:title=" ">
<polygon fill="none" stroke="black" points="1364.4,-224.5 1364.4,-243.5 1430.4,-243.5 1430.4,-224.5 1364.4,-224.5"/>
<text text-anchor="middle" x="1397.4" y="-231.5" font-family="Helvetica,sans-Serif" font-size="10.00">ooo_cpu.h</text>
</a>
</g>
</g>
<!-- Node25&#45;&gt;Node26 -->
<g id="edge36" class="edge">
<title>Node25&#45;&gt;Node26</title>
<path fill="none" stroke="midnightblue" d="M1047.12,-283.62C1120.08,-273.5 1277.43,-251.65 1353.91,-241.04"/>
<polygon fill="midnightblue" stroke="midnightblue" points="1354.72,-244.46 1364.14,-239.62 1353.76,-237.53 1354.72,-244.46"/>
</g>
<!-- Node39 -->
<g id="node39" class="node">
<title>Node39</title>
<g id="a_node39"><a xlink:href="ptw_8h.html" target="_top" xlink:title=" ">
<polygon fill="none" stroke="black" points="397.9,-224.5 397.9,-243.5 440.9,-243.5 440.9,-224.5 397.9,-224.5"/>
<text text-anchor="middle" x="419.4" y="-231.5" font-family="Helvetica,sans-Serif" font-size="10.00">ptw.h</text>
</a>
</g>
</g>
<!-- Node25&#45;&gt;Node39 -->
<g id="edge74" class="edge">
<title>Node25&#45;&gt;Node39</title>
<path fill="none" stroke="midnightblue" d="M969.71,-287.03C880.96,-282.24 656.07,-268.54 469.4,-244 463.46,-243.22 457.16,-242.22 451.1,-241.17"/>
<polygon fill="midnightblue" stroke="midnightblue" points="451.7,-237.72 441.24,-239.39 450.46,-244.61 451.7,-237.72"/>
</g>
<!-- Node26&#45;&gt;Node4 -->
<g id="edge39" class="edge">
<title>Node26&#45;&gt;Node4</title>
<path fill="none" stroke="midnightblue" d="M1404.42,-224.15C1414.51,-210.31 1430.35,-183.52 1415.4,-168 1378.34,-129.52 507.73,-135.24 454.4,-132 429.89,-130.51 402.27,-128.17 381.23,-126.25"/>
<polygon fill="midnightblue" stroke="midnightblue" points="381.46,-122.76 371.18,-125.32 380.81,-129.73 381.46,-122.76"/>
</g>
<!-- Node26&#45;&gt;Node7 -->
<g id="edge40" class="edge">
<title>Node26&#45;&gt;Node7</title>
<path fill="none" stroke="midnightblue" d="M1430.52,-230.51C1454.84,-228.69 1488.67,-226.17 1518.4,-224 1574.28,-219.92 1983.22,-229.01 2021.4,-188 2027.46,-181.49 2026.32,-175.41 2021.4,-168 1950.45,-61.14 1879.88,-86.96 1755.4,-56 1581.21,-12.67 1364.01,-9.84 1283.42,-10.46"/>
<polygon fill="midnightblue" stroke="midnightblue" points="1283.38,-6.96 1273.41,-10.57 1283.45,-13.96 1283.38,-6.96"/>
</g>
<!-- Node26&#45;&gt;Node9 -->
<g id="edge37" class="edge">
<title>Node26&#45;&gt;Node9</title>
<path fill="none" stroke="midnightblue" d="M1412.48,-224.47C1433.17,-211.72 1465.92,-187.16 1448.4,-168 1416.74,-133.36 1084.44,-125.16 979.78,-123.42"/>
<polygon fill="midnightblue" stroke="midnightblue" points="979.6,-119.92 969.55,-123.26 979.49,-126.92 979.6,-119.92"/>
</g>
<!-- Node26&#45;&gt;Node10 -->
<g id="edge38" class="edge">
<title>Node26&#45;&gt;Node10</title>
<path fill="none" stroke="midnightblue" d="M1378.23,-224.44C1358.49,-215.64 1327.52,-201.81 1304.91,-191.72"/>
<polygon fill="midnightblue" stroke="midnightblue" points="1306.04,-188.4 1295.48,-187.52 1303.19,-194.79 1306.04,-188.4"/>
</g>
<!-- Node26&#45;&gt;Node11 -->
<g id="edge41" class="edge">
<title>Node26&#45;&gt;Node11</title>
<path fill="none" stroke="midnightblue" d="M1364.33,-229.35C1307.54,-222.88 1187.6,-208.28 1075.83,-187.92"/>
<polygon fill="midnightblue" stroke="midnightblue" points="1076.2,-184.43 1065.73,-186.06 1074.93,-191.31 1076.2,-184.43"/>
</g>
<!-- Node26&#45;&gt;Node12 -->
<g id="edge44" class="edge">
<title>Node26&#45;&gt;Node12</title>
<path fill="none" stroke="midnightblue" d="M1364.1,-227C1319.77,-218.96 1238.67,-204.03 1159.14,-188.11"/>
<polygon fill="midnightblue" stroke="midnightblue" points="1159.44,-184.6 1148.94,-186.06 1158.06,-191.46 1159.44,-184.6"/>
</g>
<!-- Node26&#45;&gt;Node14 -->
<g id="edge45" class="edge">
<title>Node26&#45;&gt;Node14</title>
<path fill="none" stroke="midnightblue" d="M1430.46,-230.57C1525.72,-223.41 1794.83,-202.03 1807.4,-188 1846.28,-144.62 1625.83,-92.35 1539.74,-73.87"/>
<polygon fill="midnightblue" stroke="midnightblue" points="1540.44,-70.44 1529.93,-71.79 1538.98,-77.29 1540.44,-70.44"/>
</g>
<!-- Node26&#45;&gt;Node15 -->
<g id="edge46" class="edge">
<title>Node26&#45;&gt;Node15</title>
<path fill="none" stroke="midnightblue" d="M1363.98,-232.28C1235.11,-229.34 758.14,-217.02 366.4,-188 354.35,-187.11 341.38,-185.89 329.26,-184.63"/>
<polygon fill="midnightblue" stroke="midnightblue" points="329.63,-181.15 319.31,-183.58 328.89,-188.11 329.63,-181.15"/>
</g>
<!-- Node26&#45;&gt;Node17 -->
<g id="edge47" class="edge">
<title>Node26&#45;&gt;Node17</title>
<path fill="none" stroke="midnightblue" d="M1430.65,-231.35C1529.27,-226.35 1828.72,-210.3 2076.4,-188 2077.72,-187.88 2079.04,-187.76 2080.38,-187.63"/>
<polygon fill="midnightblue" stroke="midnightblue" points="2081.15,-191.08 2090.76,-186.62 2080.46,-184.11 2081.15,-191.08"/>
</g>
<!-- Node26&#45;&gt;Node18 -->
<g id="edge48" class="edge">
<title>Node26&#45;&gt;Node18</title>
<path fill="none" stroke="midnightblue" d="M1364.12,-231.26C1257.41,-225.65 914.2,-207.24 630.4,-188 605.66,-186.32 577.99,-184.21 555.78,-182.45"/>
<polygon fill="midnightblue" stroke="midnightblue" points="555.92,-178.95 545.67,-181.64 555.36,-185.92 555.92,-178.95"/>
</g>
<!-- Node26&#45;&gt;Node20 -->
<g id="edge58" class="edge">
<title>Node26&#45;&gt;Node20</title>
<path fill="none" stroke="midnightblue" d="M1391.46,-224.08C1386.42,-216.53 1379.06,-205.49 1372.89,-196.23"/>
<polygon fill="midnightblue" stroke="midnightblue" points="1375.69,-194.13 1367.23,-187.75 1369.87,-198.01 1375.69,-194.13"/>
</g>
<!-- Node26&#45;&gt;Node21 -->
<g id="edge59" class="edge">
<title>Node26&#45;&gt;Node21</title>
<path fill="none" stroke="midnightblue" d="M1364.28,-232.12C1184.99,-227.32 333.02,-203.95 171.96,-187.85"/>
<polygon fill="midnightblue" stroke="midnightblue" points="171.9,-184.32 161.58,-186.7 171.14,-191.28 171.9,-184.32"/>
</g>
<!-- Node26&#45;&gt;Node22 -->
<g id="edge71" class="edge">
<title>Node26&#45;&gt;Node22</title>
<path fill="none" stroke="midnightblue" d="M1366.34,-224.44C1332.8,-215.2 1279.2,-200.44 1242.26,-190.26"/>
<polygon fill="midnightblue" stroke="midnightblue" points="1242.88,-186.8 1232.31,-187.52 1241.02,-193.55 1242.88,-186.8"/>
</g>
<!-- Node27 -->
<g id="node27" class="node">
<title>Node27</title>
<g id="a_node27"><a xlink:title=" ">
<polygon fill="none" stroke="#bfbfbf" points="1269.4,-56.5 1269.4,-75.5 1325.4,-75.5 1325.4,-56.5 1269.4,-56.5"/>
<text text-anchor="middle" x="1297.4" y="-63.5" font-family="Helvetica,sans-Serif" font-size="10.00">optional</text>
</a>
</g>
</g>
<!-- Node26&#45;&gt;Node27 -->
<g id="edge42" class="edge">
<title>Node26&#45;&gt;Node27</title>
<path fill="none" stroke="midnightblue" d="M1430.53,-230.53C1454.84,-228.72 1488.68,-226.2 1518.4,-224 1572.51,-219.99 1968.48,-227.76 2005.4,-188 2011.45,-181.49 2011.23,-174.71 2005.4,-168 1961,-116.81 1477.44,-79.48 1336.03,-69.59"/>
<polygon fill="midnightblue" stroke="midnightblue" points="1335.9,-66.08 1325.69,-68.88 1335.42,-73.06 1335.9,-66.08"/>
</g>
<!-- Node28 -->
<g id="node28" class="node">
<title>Node28</title>
<g id="a_node28"><a xlink:title=" ">
<polygon fill="none" stroke="#bfbfbf" points="1655.9,-168.5 1655.9,-187.5 1702.9,-187.5 1702.9,-168.5 1655.9,-168.5"/>
<text text-anchor="middle" x="1679.4" y="-175.5" font-family="Helvetica,sans-Serif" font-size="10.00">queue</text>
</a>
</g>
</g>
<!-- Node26&#45;&gt;Node28 -->
<g id="edge43" class="edge">
<title>Node26&#45;&gt;Node28</title>
<path fill="none" stroke="midnightblue" d="M1430.77,-228.04C1477.06,-220.93 1563.56,-206.83 1645.94,-188.18"/>
<polygon fill="midnightblue" stroke="midnightblue" points="1646.73,-191.58 1655.7,-185.94 1645.17,-184.76 1646.73,-191.58"/>
</g>
<!-- Node29 -->
<g id="node29" class="node">
<title>Node29</title>
<g id="a_node29"><a xlink:href="instruction_8h.html" target="_top" xlink:title=" ">
<polygon fill="none" stroke="black" points="1720.9,-168.5 1720.9,-187.5 1797.9,-187.5 1797.9,-168.5 1720.9,-168.5"/>
<text text-anchor="middle" x="1759.4" y="-175.5" font-family="Helvetica,sans-Serif" font-size="10.00">instruction.h</text>
</a>
</g>
</g>
<!-- Node26&#45;&gt;Node29 -->
<g id="edge49" class="edge">
<title>Node26&#45;&gt;Node29</title>
<path fill="none" stroke="midnightblue" d="M1430.59,-228.78C1486.36,-221.59 1602.64,-206.09 1710.61,-188.24"/>
<polygon fill="midnightblue" stroke="midnightblue" points="1711.41,-191.66 1720.7,-186.56 1710.26,-184.75 1711.41,-191.66"/>
</g>
<!-- Node32 -->
<g id="node32" class="node">
<title>Node32</title>
<g id="a_node32"><a xlink:href="util_2lru__table_8h.html" target="_top" xlink:title=" ">
<polygon fill="none" stroke="black" points="375.9,-168.5 375.9,-187.5 462.9,-187.5 462.9,-168.5 375.9,-168.5"/>
<text text-anchor="middle" x="419.4" y="-175.5" font-family="Helvetica,sans-Serif" font-size="10.00">util/lru_table.h</text>
</a>
</g>
</g>
<!-- Node26&#45;&gt;Node32 -->
<g id="edge60" class="edge">
<title>Node26&#45;&gt;Node32</title>
<path fill="none" stroke="midnightblue" d="M1364.1,-232.82C1244.8,-231.86 827.49,-225.9 472.96,-187.91"/>
<polygon fill="midnightblue" stroke="midnightblue" points="473.33,-184.43 463.02,-186.83 472.58,-191.39 473.33,-184.43"/>
</g>
<!-- Node37 -->
<g id="node37" class="node">
<title>Node37</title>
<g id="a_node37"><a xlink:title=" ">
<polygon fill="none" stroke="#bfbfbf" points="1854.4,-168.5 1854.4,-187.5 1996.4,-187.5 1996.4,-168.5 1854.4,-168.5"/>
<text text-anchor="middle" x="1925.4" y="-175.5" font-family="Helvetica,sans-Serif" font-size="10.00">ooo_cpu_module_decl.inc</text>
</a>
</g>
</g>
<!-- Node26&#45;&gt;Node37 -->
<g id="edge72" class="edge">
<title>Node26&#45;&gt;Node37</title>
<path fill="none" stroke="midnightblue" d="M1430.47,-229.69C1504.11,-222.31 1687.19,-203.89 1840.4,-188 1841.51,-187.89 1842.62,-187.77 1843.74,-187.65"/>
<polygon fill="midnightblue" stroke="midnightblue" points="1844.4,-191.1 1853.98,-186.58 1843.67,-184.14 1844.4,-191.1"/>
</g>
<!-- Node38 -->
<g id="node38" class="node">
<title>Node38</title>
<g id="a_node38"><a xlink:title=" ">
<polygon fill="none" stroke="#bfbfbf" points="1500.9,-168.5 1500.9,-187.5 1637.9,-187.5 1637.9,-168.5 1500.9,-168.5"/>
<text text-anchor="middle" x="1569.4" y="-175.5" font-family="Helvetica,sans-Serif" font-size="10.00">ooo_cpu_module_def.inc</text>
</a>
</g>
</g>
<!-- Node26&#45;&gt;Node38 -->
<g id="edge73" class="edge">
<title>Node26&#45;&gt;Node38</title>
<path fill="none" stroke="midnightblue" d="M1424.65,-224.44C1453.84,-215.28 1500.32,-200.69 1532.71,-190.52"/>
<polygon fill="midnightblue" stroke="midnightblue" points="1533.78,-193.85 1542.27,-187.52 1531.68,-187.17 1533.78,-193.85"/>
</g>
<!-- Node29&#45;&gt;Node6 -->
<g id="edge53" class="edge">
<title>Node29&#45;&gt;Node6</title>
<path fill="none" stroke="midnightblue" d="M1720.74,-169.14C1717.93,-168.71 1715.12,-168.32 1712.4,-168 1364.83,-127.06 1270.5,-176.23 919.26,-131.87"/>
<polygon fill="midnightblue" stroke="midnightblue" points="919.69,-128.39 909.33,-130.59 918.8,-135.34 919.69,-128.39"/>
</g>
<!-- Node29&#45;&gt;Node7 -->
<g id="edge54" class="edge">
<title>Node29&#45;&gt;Node7</title>
<path fill="none" stroke="midnightblue" d="M1760.68,-168.33C1763.45,-145.86 1767.33,-85.47 1734.4,-56 1700.84,-25.96 1386.08,-14.7 1283.53,-11.81"/>
<polygon fill="midnightblue" stroke="midnightblue" points="1283.55,-8.31 1273.46,-11.54 1283.36,-15.31 1283.55,-8.31"/>
</g>
<!-- Node29&#45;&gt;Node9 -->
<g id="edge51" class="edge">
<title>Node29&#45;&gt;Node9</title>
<path fill="none" stroke="midnightblue" d="M1720.74,-169.18C1717.92,-168.74 1715.12,-168.34 1712.4,-168 1566.83,-149.85 1103.97,-129.53 979.48,-124.29"/>
<polygon fill="midnightblue" stroke="midnightblue" points="979.61,-120.79 969.48,-123.87 979.32,-127.78 979.61,-120.79"/>
</g>
<!-- Node29&#45;&gt;Node14 -->
<g id="edge55" class="edge">
<title>Node29&#45;&gt;Node14</title>
<path fill="none" stroke="midnightblue" d="M1739.55,-168.37C1695.12,-149.05 1587.5,-102.26 1535.49,-79.65"/>
<polygon fill="midnightblue" stroke="midnightblue" points="1536.73,-76.37 1526.16,-75.59 1533.94,-82.79 1536.73,-76.37"/>
</g>
<!-- Node29&#45;&gt;Node16 -->
<g id="edge52" class="edge">
<title>Node29&#45;&gt;Node16</title>
<path fill="none" stroke="midnightblue" d="M1720.74,-169.1C1717.93,-168.68 1715.13,-168.31 1712.4,-168 1595.07,-154.86 762.28,-169.73 650.4,-132 609.62,-118.25 599.32,-108.76 571.4,-76 559.57,-62.12 550.87,-43.1 545.56,-29.23"/>
<polygon fill="midnightblue" stroke="midnightblue" points="548.84,-28.01 542.15,-19.79 542.25,-30.38 548.84,-28.01"/>
</g>
<!-- Node30 -->
<g id="node30" class="node">
<title>Node30</title>
<g id="a_node30"><a xlink:title=" ">
<polygon fill="none" stroke="#bfbfbf" points="908.4,-56.5 908.4,-75.5 972.4,-75.5 972.4,-56.5 908.4,-56.5"/>
<text text-anchor="middle" x="940.4" y="-63.5" font-family="Helvetica,sans-Serif" font-size="10.00">algorithm</text>
</a>
</g>
</g>
<!-- Node29&#45;&gt;Node30 -->
<g id="edge50" class="edge">
<title>Node29&#45;&gt;Node30</title>
<path fill="none" stroke="midnightblue" d="M1720.7,-169.4C1717.9,-168.91 1715.11,-168.44 1712.4,-168 1435.14,-123.36 1099.43,-84.65 982.77,-71.65"/>
<polygon fill="midnightblue" stroke="midnightblue" points="982.81,-68.14 972.49,-70.51 982.04,-75.09 982.81,-68.14"/>
</g>
<!-- Node31 -->
<g id="node31" class="node">
<title>Node31</title>
<g id="a_node31"><a xlink:href="trace__instruction_8h.html" target="_top" xlink:title=" ">
<polygon fill="none" stroke="black" points="1617.9,-56.5 1617.9,-75.5 1724.9,-75.5 1724.9,-56.5 1617.9,-56.5"/>
<text text-anchor="middle" x="1671.4" y="-63.5" font-family="Helvetica,sans-Serif" font-size="10.00">trace_instruction.h</text>
</a>
</g>
</g>
<!-- Node29&#45;&gt;Node31 -->
<g id="edge56" class="edge">
<title>Node29&#45;&gt;Node31</title>
<path fill="none" stroke="midnightblue" d="M1752.5,-168.37C1737.91,-150.14 1703.74,-107.43 1684.74,-83.68"/>
<polygon fill="midnightblue" stroke="midnightblue" points="1687.25,-81.21 1678.27,-75.59 1681.79,-85.59 1687.25,-81.21"/>
</g>
<!-- Node31&#45;&gt;Node7 -->
<g id="edge57" class="edge">
<title>Node31&#45;&gt;Node7</title>
<path fill="none" stroke="midnightblue" d="M1617.78,-58.11C1529.43,-46.75 1355.9,-24.44 1283.9,-15.18"/>
<polygon fill="midnightblue" stroke="midnightblue" points="1284.01,-11.66 1273.64,-13.86 1283.11,-18.61 1284.01,-11.66"/>
</g>
<!-- Node33 -->
<g id="node33" class="node">
<title>Node33</title>
<g id="a_node33"><a xlink:href="msl_2lru__table_8h.html" target="_top" xlink:title=" ">
<polygon fill="none" stroke="black" points="659.9,-112.5 659.9,-131.5 748.9,-131.5 748.9,-112.5 659.9,-112.5"/>
<text text-anchor="middle" x="704.4" y="-119.5" font-family="Helvetica,sans-Serif" font-size="10.00">msl/lru_table.h</text>
</a>
</g>
</g>
<!-- Node32&#45;&gt;Node33 -->
<g id="edge61" class="edge">
<title>Node32&#45;&gt;Node33</title>
<path fill="none" stroke="midnightblue" d="M463,-168.74C513.1,-159.25 595.38,-143.66 649.73,-133.36"/>
<polygon fill="midnightblue" stroke="midnightblue" points="650.7,-136.74 659.87,-131.44 649.39,-129.86 650.7,-136.74"/>
</g>
<!-- Node33&#45;&gt;Node14 -->
<g id="edge67" class="edge">
<title>Node33&#45;&gt;Node14</title>
<path fill="none" stroke="midnightblue" d="M749.29,-116.56C765.68,-115.02 784.37,-113.33 801.4,-112 1059.17,-91.82 1370.5,-74.36 1472.36,-68.82"/>
<polygon fill="midnightblue" stroke="midnightblue" points="1472.85,-72.3 1482.65,-68.27 1472.47,-65.31 1472.85,-72.3"/>
</g>
<!-- Node33&#45;&gt;Node16 -->
<g id="edge64" class="edge">
<title>Node33&#45;&gt;Node16</title>
<path fill="none" stroke="midnightblue" d="M674.11,-112.49C651.36,-105.17 620.16,-93.06 596.4,-76 578,-62.78 561.48,-42.56 551.02,-28.18"/>
<polygon fill="midnightblue" stroke="midnightblue" points="553.68,-25.88 545.07,-19.71 547.96,-29.9 553.68,-25.88"/>
</g>
<!-- Node33&#45;&gt;Node27 -->
<g id="edge65" class="edge">
<title>Node33&#45;&gt;Node27</title>
<path fill="none" stroke="midnightblue" d="M749.31,-116.81C765.7,-115.29 784.39,-113.56 801.4,-112 972.12,-96.34 1175.92,-77.94 1259.15,-70.44"/>
<polygon fill="midnightblue" stroke="midnightblue" points="1259.51,-73.93 1269.16,-69.54 1258.88,-66.95 1259.51,-73.93"/>
</g>
<!-- Node33&#45;&gt;Node30 -->
<g id="edge62" class="edge">
<title>Node33&#45;&gt;Node30</title>
<path fill="none" stroke="midnightblue" d="M741.8,-112.44C784.36,-102.7 853.73,-86.83 898.2,-76.66"/>
<polygon fill="midnightblue" stroke="midnightblue" points="899.14,-80.03 908.11,-74.39 897.58,-73.21 899.14,-80.03"/>
</g>
<!-- Node34 -->
<g id="node34" class="node">
<title>Node34</title>
<g id="a_node34"><a xlink:title=" ">
<polygon fill="none" stroke="#bfbfbf" points="752.4,-56.5 752.4,-75.5 804.4,-75.5 804.4,-56.5 752.4,-56.5"/>
<text text-anchor="middle" x="778.4" y="-63.5" font-family="Helvetica,sans-Serif" font-size="10.00">cassert</text>
</a>
</g>
</g>
<!-- Node33&#45;&gt;Node34 -->
<g id="edge63" class="edge">
<title>Node33&#45;&gt;Node34</title>
<path fill="none" stroke="midnightblue" d="M716.29,-112.32C727.55,-104.11 744.69,-91.6 758.11,-81.81"/>
<polygon fill="midnightblue" stroke="midnightblue" points="760.28,-84.56 766.29,-75.83 756.15,-78.9 760.28,-84.56"/>
</g>
<!-- Node35 -->
<g id="node35" class="node">
<title>Node35</title>
<g id="a_node35"><a xlink:title=" ">
<polygon fill="none" stroke="#bfbfbf" points="688.9,-56.5 688.9,-75.5 733.9,-75.5 733.9,-56.5 688.9,-56.5"/>
<text text-anchor="middle" x="711.4" y="-63.5" font-family="Helvetica,sans-Serif" font-size="10.00">utility</text>
</a>
</g>
</g>
<!-- Node33&#45;&gt;Node35 -->
<g id="edge66" class="edge">
<title>Node33&#45;&gt;Node35</title>
<path fill="none" stroke="midnightblue" d="M705.56,-112.08C706.48,-104.93 707.82,-94.64 708.98,-85.69"/>
<polygon fill="midnightblue" stroke="midnightblue" points="712.45,-86.12 710.27,-75.75 705.51,-85.22 712.45,-86.12"/>
</g>
<!-- Node36 -->
<g id="node36" class="node">
<title>Node36</title>
<g id="a_node36"><a xlink:href="msl_2bits_8h.html" target="_top" xlink:title=" ">
<polygon fill="none" stroke="black" points="605.9,-56.5 605.9,-75.5 670.9,-75.5 670.9,-56.5 605.9,-56.5"/>
<text text-anchor="middle" x="638.4" y="-63.5" font-family="Helvetica,sans-Serif" font-size="10.00">msl/bits.h</text>
</a>
</g>
</g>
<!-- Node33&#45;&gt;Node36 -->
<g id="edge68" class="edge">
<title>Node33&#45;&gt;Node36</title>
<path fill="none" stroke="midnightblue" d="M693.8,-112.32C683.94,-104.26 669.05,-92.08 657.19,-82.37"/>
<polygon fill="midnightblue" stroke="midnightblue" points="659.15,-79.46 649.2,-75.83 654.72,-84.88 659.15,-79.46"/>
</g>
<!-- Node36&#45;&gt;Node7 -->
<g id="edge70" class="edge">
<title>Node36&#45;&gt;Node7</title>
<path fill="none" stroke="midnightblue" d="M671,-57.42C673.83,-56.89 676.66,-56.41 679.4,-56 883.48,-25.72 1131.74,-14.98 1219.11,-11.98"/>
<polygon fill="midnightblue" stroke="midnightblue" points="1219.31,-15.48 1229.19,-11.65 1219.08,-8.48 1219.31,-15.48"/>
</g>
<!-- Node36&#45;&gt;Node16 -->
<g id="edge69" class="edge">
<title>Node36&#45;&gt;Node16</title>
<path fill="none" stroke="midnightblue" d="M622.49,-56.32C606.76,-47.74 582.46,-34.49 564.19,-24.52"/>
<polygon fill="midnightblue" stroke="midnightblue" points="565.72,-21.37 555.27,-19.65 562.37,-27.52 565.72,-21.37"/>
</g>
<!-- Node39&#45;&gt;Node4 -->
<g id="edge76" class="edge">
<title>Node39&#45;&gt;Node4</title>
<path fill="none" stroke="midnightblue" d="M397.7,-233.6C330.14,-234.96 125.55,-235.04 84.4,-188 78.55,-181.31 78.67,-174.79 84.4,-168 113.4,-133.62 249.73,-125.5 313.88,-123.59"/>
<polygon fill="midnightblue" stroke="midnightblue" points="313.99,-127.09 323.89,-123.32 313.8,-120.09 313.99,-127.09"/>
</g>
<!-- Node39&#45;&gt;Node9 -->
<g id="edge75" class="edge">
<title>Node39&#45;&gt;Node9</title>
<path fill="none" stroke="midnightblue" d="M440.92,-225.84C486.83,-210.67 593.21,-175.99 630.4,-168 753.32,-141.6 790.31,-157.76 917.11,-131.94"/>
<polygon fill="midnightblue" stroke="midnightblue" points="918.13,-135.3 927.21,-129.84 916.7,-128.45 918.13,-135.3"/>
</g>
<!-- Node39&#45;&gt;Node13 -->
<g id="edge77" class="edge">
<title>Node39&#45;&gt;Node13</title>
<path fill="none" stroke="midnightblue" d="M397.72,-228.13C364.5,-220.59 298.78,-205.38 233.73,-188.26"/>
<polygon fill="midnightblue" stroke="midnightblue" points="234.28,-184.79 223.72,-185.61 232.49,-191.56 234.28,-184.79"/>
</g>
<!-- Node39&#45;&gt;Node18 -->
<g id="edge78" class="edge">
<title>Node39&#45;&gt;Node18</title>
<path fill="none" stroke="midnightblue" d="M434.5,-224.32C449.3,-215.82 472.09,-202.73 489.38,-192.8"/>
<polygon fill="midnightblue" stroke="midnightblue" points="491.41,-195.67 498.34,-187.65 487.92,-189.6 491.41,-195.67"/>
</g>
<!-- Node39&#45;&gt;Node21 -->
<g id="edge79" class="edge">
<title>Node39&#45;&gt;Node21</title>
<path fill="none" stroke="midnightblue" d="M397.71,-229.29C355.99,-222.1 261.43,-205.6 171.72,-188.22"/>
<polygon fill="midnightblue" stroke="midnightblue" points="172.14,-184.73 161.65,-186.26 170.8,-191.6 172.14,-184.73"/>
</g>
<!-- Node39&#45;&gt;Node32 -->
<g id="edge80" class="edge">
<title>Node39&#45;&gt;Node32</title>
<path fill="none" stroke="midnightblue" d="M419.4,-224.08C419.4,-217.01 419.4,-206.86 419.4,-197.99"/>
<polygon fill="midnightblue" stroke="midnightblue" points="422.9,-197.75 419.4,-187.75 415.9,-197.75 422.9,-197.75"/>
</g>
<!-- Node40&#45;&gt;Node18 -->
<g id="edge84" class="edge">
<title>Node40&#45;&gt;Node18</title>
<path fill="none" stroke="midnightblue" d="M523.42,-224.08C521.83,-216.93 519.54,-206.64 517.55,-197.69"/>
<polygon fill="midnightblue" stroke="midnightblue" points="520.93,-196.75 515.35,-187.75 514.1,-198.27 520.93,-196.75"/>
</g>
</g>
</svg>
