<?xml version="1.0" encoding="UTF-8" standalone="no"?>
<!DOCTYPE svg PUBLIC "-//W3C//DTD SVG 1.1//EN"
 "http://www.w3.org/Graphics/SVG/1.1/DTD/svg11.dtd">
<!-- Generated by graphviz version 2.43.0 (0)
 -->
<!-- Title: test/cpp/src/452&#45;ip&#45;stride&#45;behavior.cc Pages: 1 -->
<svg width="2248pt" height="375pt"
 viewBox="0.00 0.00 2248.13 375.00" xmlns="http://www.w3.org/2000/svg" xmlns:xlink="http://www.w3.org/1999/xlink">
<g id="graph0" class="graph" transform="scale(1 1) rotate(0) translate(4 371)">
<title>test/cpp/src/452&#45;ip&#45;stride&#45;behavior.cc</title>
<!-- Node1 -->
<g id="node1" class="node">
<title>Node1</title>
<g id="a_node1"><a xlink:title=" ">
<polygon fill="#bfbfbf" stroke="black" points="578.13,-336.5 578.13,-366.5 685.13,-366.5 685.13,-336.5 578.13,-336.5"/>
<text text-anchor="start" x="586.13" y="-354.5" font-family="Helvetica,sans-Serif" font-size="10.00">test/cpp/src/452&#45;ip</text>
<text text-anchor="middle" x="631.63" y="-343.5" font-family="Helvetica,sans-Serif" font-size="10.00">&#45;stride&#45;behavior.cc</text>
</a>
</g>
</g>
<!-- Node2 -->
<g id="node2" class="node">
<title>Node2</title>
<g id="a_node2"><a xlink:title=" ">
<polygon fill="none" stroke="#bfbfbf" points="361.63,-280.5 361.63,-299.5 425.63,-299.5 425.63,-280.5 361.63,-280.5"/>
<text text-anchor="middle" x="393.63" y="-287.5" font-family="Helvetica,sans-Serif" font-size="10.00">catch.hpp</text>
</a>
</g>
</g>
<!-- Node1&#45;&gt;Node2 -->
<g id="edge1" class="edge">
<title>Node1&#45;&gt;Node2</title>
<path fill="none" stroke="midnightblue" d="M577.92,-337.07C534.92,-326.32 475.43,-311.45 435.8,-301.54"/>
<polygon fill="midnightblue" stroke="midnightblue" points="436.48,-298.1 425.93,-299.07 434.78,-304.89 436.48,-298.1"/>
</g>
<!-- Node3 -->
<g id="node3" class="node">
<title>Node3</title>
<g id="a_node3"><a xlink:title=" ">
<polygon fill="none" stroke="#bfbfbf" points="443.63,-280.5 443.63,-299.5 499.63,-299.5 499.63,-280.5 443.63,-280.5"/>
<text text-anchor="middle" x="471.63" y="-287.5" font-family="Helvetica,sans-Serif" font-size="10.00">numeric</text>
</a>
</g>
</g>
<!-- Node1&#45;&gt;Node3 -->
<g id="edge2" class="edge">
<title>Node1&#45;&gt;Node3</title>
<path fill="none" stroke="midnightblue" d="M593.72,-336.4C566.51,-326.28 530.23,-312.79 504.3,-303.15"/>
<polygon fill="midnightblue" stroke="midnightblue" points="505.51,-299.86 494.92,-299.66 503.07,-306.42 505.51,-299.86"/>
</g>
<!-- Node4 -->
<g id="node4" class="node">
<title>Node4</title>
<g id="a_node4"><a xlink:href="mocks_8hpp.html" target="_top" xlink:title=" ">
<polygon fill="none" stroke="black" points="517.63,-280.5 517.63,-299.5 587.63,-299.5 587.63,-280.5 517.63,-280.5"/>
<text text-anchor="middle" x="552.63" y="-287.5" font-family="Helvetica,sans-Serif" font-size="10.00">mocks.hpp</text>
</a>
</g>
</g>
<!-- Node1&#45;&gt;Node4 -->
<g id="edge3" class="edge">
<title>Node1&#45;&gt;Node4</title>
<path fill="none" stroke="midnightblue" d="M612.91,-336.4C600.72,-327.22 584.84,-315.26 572.44,-305.92"/>
<polygon fill="midnightblue" stroke="midnightblue" points="574.22,-302.88 564.13,-299.66 570.01,-308.47 574.22,-302.88"/>
</g>
<!-- Node9 -->
<g id="node9" class="node">
<title>Node9</title>
<g id="a_node9"><a xlink:href="cache_8h.html" target="_top" xlink:title=" ">
<polygon fill="none" stroke="black" points="664.63,-224.5 664.63,-243.5 718.63,-243.5 718.63,-224.5 664.63,-224.5"/>
<text text-anchor="middle" x="691.63" y="-231.5" font-family="Helvetica,sans-Serif" font-size="10.00">cache.h</text>
</a>
</g>
</g>
<!-- Node1&#45;&gt;Node9 -->
<g id="edge82" class="edge">
<title>Node1&#45;&gt;Node9</title>
<path fill="none" stroke="midnightblue" d="M638.99,-336.34C649.95,-315.24 670.54,-275.6 682.47,-252.65"/>
<polygon fill="midnightblue" stroke="midnightblue" points="685.63,-254.16 687.13,-243.67 679.41,-250.93 685.63,-254.16"/>
</g>
<!-- Node18 -->
<g id="node18" class="node">
<title>Node18</title>
<g id="a_node18"><a xlink:title=" ">
<polygon fill="none" stroke="#bfbfbf" points="2111.13,-168.5 2111.13,-187.5 2240.13,-187.5 2240.13,-168.5 2111.13,-168.5"/>
<text text-anchor="middle" x="2175.63" y="-175.5" font-family="Helvetica,sans-Serif" font-size="10.00">champsim_constants.h</text>
</a>
</g>
</g>
<!-- Node1&#45;&gt;Node18 -->
<g id="edge83" class="edge">
<title>Node1&#45;&gt;Node18</title>
<path fill="none" stroke="midnightblue" d="M685.34,-346.54C789.6,-338.72 1026.66,-320.28 1225.63,-300 1435.35,-278.62 1487.51,-270.62 1696.63,-244 1841.87,-225.51 2011.61,-202.04 2105.01,-188.96"/>
<polygon fill="midnightblue" stroke="midnightblue" points="2105.77,-192.38 2115.18,-187.53 2104.8,-185.45 2105.77,-192.38"/>
</g>
<!-- Node26 -->
<g id="node26" class="node">
<title>Node26</title>
<g id="a_node26"><a xlink:href="defaults_8hpp.html" target="_top" xlink:title=" ">
<polygon fill="none" stroke="black" points="1140.13,-280.5 1140.13,-299.5 1217.13,-299.5 1217.13,-280.5 1140.13,-280.5"/>
<text text-anchor="middle" x="1178.63" y="-287.5" font-family="Helvetica,sans-Serif" font-size="10.00">defaults.hpp</text>
</a>
</g>
</g>
<!-- Node1&#45;&gt;Node26 -->
<g id="edge34" class="edge">
<title>Node1&#45;&gt;Node26</title>
<path fill="none" stroke="midnightblue" d="M685.33,-344.66C791.64,-333.1 1027.46,-307.44 1129.73,-296.32"/>
<polygon fill="midnightblue" stroke="midnightblue" points="1130.23,-299.79 1139.79,-295.23 1129.47,-292.83 1130.23,-299.79"/>
</g>
<!-- Node5 -->
<g id="node5" class="node">
<title>Node5</title>
<g id="a_node5"><a xlink:title=" ">
<polygon fill="none" stroke="#bfbfbf" points="999.13,-112.5 999.13,-131.5 1046.13,-131.5 1046.13,-112.5 999.13,-112.5"/>
<text text-anchor="middle" x="1022.63" y="-119.5" font-family="Helvetica,sans-Serif" font-size="10.00">deque</text>
</a>
</g>
</g>
<!-- Node4&#45;&gt;Node5 -->
<g id="edge4" class="edge">
<title>Node4&#45;&gt;Node5</title>
<path fill="none" stroke="midnightblue" d="M517.63,-281.47C514.6,-280.93 511.57,-280.43 508.63,-280 464.48,-273.52 138.74,-276.94 108.63,-244 88.86,-222.37 109.95,-184.23 133.63,-168 205.14,-119 834.17,-121.32 988.54,-122.65"/>
<polygon fill="midnightblue" stroke="midnightblue" points="988.79,-126.15 998.82,-122.74 988.85,-119.15 988.79,-126.15"/>
</g>
<!-- Node6 -->
<g id="node6" class="node">
<title>Node6</title>
<g id="a_node6"><a xlink:title=" ">
<polygon fill="none" stroke="#bfbfbf" points="269.13,-112.5 269.13,-131.5 334.13,-131.5 334.13,-112.5 269.13,-112.5"/>
<text text-anchor="middle" x="301.63" y="-119.5" font-family="Helvetica,sans-Serif" font-size="10.00">exception</text>
</a>
</g>
</g>
<!-- Node4&#45;&gt;Node6 -->
<g id="edge5" class="edge">
<title>Node4&#45;&gt;Node6</title>
<path fill="none" stroke="midnightblue" d="M517.16,-281.34C514.28,-280.84 511.41,-280.39 508.63,-280 456.1,-272.67 68.7,-282.89 32.63,-244 9.67,-219.23 10.81,-193.78 32.63,-168 61.12,-134.36 190.46,-125.85 258.89,-123.71"/>
<polygon fill="midnightblue" stroke="midnightblue" points="259.03,-127.21 268.92,-123.43 258.83,-120.21 259.03,-127.21"/>
</g>
<!-- Node7 -->
<g id="node7" class="node">
<title>Node7</title>
<g id="a_node7"><a xlink:title=" ">
<polygon fill="none" stroke="#bfbfbf" points="1103.13,-112.5 1103.13,-131.5 1168.13,-131.5 1168.13,-112.5 1103.13,-112.5"/>
<text text-anchor="middle" x="1135.63" y="-119.5" font-family="Helvetica,sans-Serif" font-size="10.00">functional</text>
</a>
</g>
</g>
<!-- Node4&#45;&gt;Node7 -->
<g id="edge6" class="edge">
<title>Node4&#45;&gt;Node7</title>
<path fill="none" stroke="midnightblue" d="M517.36,-281.56C419.92,-260.87 153.48,-203.11 141.63,-188 136.15,-181 135.47,-174.41 141.63,-168 176.81,-131.41 1004.01,-135.81 1054.63,-132 1067.09,-131.06 1080.59,-129.7 1092.93,-128.32"/>
<polygon fill="midnightblue" stroke="midnightblue" points="1093.44,-131.79 1102.97,-127.17 1092.64,-124.83 1093.44,-131.79"/>
</g>
<!-- Node8 -->
<g id="node8" class="node">
<title>Node8</title>
<g id="a_node8"><a xlink:title=" ">
<polygon fill="none" stroke="#bfbfbf" points="1659.63,-0.5 1659.63,-19.5 1703.63,-19.5 1703.63,-0.5 1659.63,-0.5"/>
<text text-anchor="middle" x="1681.63" y="-7.5" font-family="Helvetica,sans-Serif" font-size="10.00">limits</text>
</a>
</g>
</g>
<!-- Node4&#45;&gt;Node8 -->
<g id="edge7" class="edge">
<title>Node4&#45;&gt;Node8</title>
<path fill="none" stroke="midnightblue" d="M517.16,-281.34C514.28,-280.84 511.41,-280.38 508.63,-280 454.34,-272.49 53.95,-284.15 16.63,-244 -6.36,-219.26 -4.4,-194.43 16.63,-168 85.64,-81.28 150.03,-128.42 259.63,-112 541.17,-69.82 1464.97,-21.89 1649.42,-12.6"/>
<polygon fill="midnightblue" stroke="midnightblue" points="1649.74,-16.09 1659.55,-12.1 1649.39,-9.1 1649.74,-16.09"/>
</g>
<!-- Node4&#45;&gt;Node9 -->
<g id="edge8" class="edge">
<title>Node4&#45;&gt;Node9</title>
<path fill="none" stroke="midnightblue" d="M574.66,-280.44C597.74,-271.48 634.2,-257.31 660.27,-247.18"/>
<polygon fill="midnightblue" stroke="midnightblue" points="661.66,-250.4 669.71,-243.52 659.12,-243.88 661.66,-250.4"/>
</g>
<!-- Node22 -->
<g id="node22" class="node">
<title>Node22</title>
<g id="a_node22"><a xlink:href="operable_8h.html" target="_top" xlink:title=" ">
<polygon fill="none" stroke="black" points="518.63,-168.5 518.63,-187.5 586.63,-187.5 586.63,-168.5 518.63,-168.5"/>
<text text-anchor="middle" x="552.63" y="-175.5" font-family="Helvetica,sans-Serif" font-size="10.00">operable.h</text>
</a>
</g>
</g>
<!-- Node4&#45;&gt;Node22 -->
<g id="edge33" class="edge">
<title>Node4&#45;&gt;Node22</title>
<path fill="none" stroke="midnightblue" d="M552.63,-280.37C552.63,-262.62 552.63,-221.67 552.63,-197.6"/>
<polygon fill="midnightblue" stroke="midnightblue" points="556.13,-197.59 552.63,-187.59 549.13,-197.59 556.13,-197.59"/>
</g>
<!-- Node9&#45;&gt;Node5 -->
<g id="edge11" class="edge">
<title>Node9&#45;&gt;Node5</title>
<path fill="none" stroke="midnightblue" d="M664.54,-232.88C558.73,-232.14 177.38,-226.79 141.63,-188 135.61,-181.46 135.51,-174.44 141.63,-168 171.35,-136.73 831.26,-125.64 988.99,-123.44"/>
<polygon fill="midnightblue" stroke="midnightblue" points="989.1,-126.94 999.06,-123.3 989.01,-119.94 989.1,-126.94"/>
</g>
<!-- Node10 -->
<g id="node10" class="node">
<title>Node10</title>
<g id="a_node10"><a xlink:title=" ">
<polygon fill="none" stroke="#bfbfbf" points="1353.63,-112.5 1353.63,-131.5 1395.63,-131.5 1395.63,-112.5 1353.63,-112.5"/>
<text text-anchor="middle" x="1374.63" y="-119.5" font-family="Helvetica,sans-Serif" font-size="10.00">array</text>
</a>
</g>
</g>
<!-- Node9&#45;&gt;Node10 -->
<g id="edge9" class="edge">
<title>Node9&#45;&gt;Node10</title>
<path fill="none" stroke="midnightblue" d="M664.51,-232.09C603.22,-229.16 462.86,-217.05 509.63,-168 538.73,-137.49 1225.57,-134.77 1267.63,-132 1293.09,-130.33 1321.92,-127.87 1343.23,-125.94"/>
<polygon fill="midnightblue" stroke="midnightblue" points="1343.69,-129.42 1353.33,-125.02 1343.06,-122.45 1343.69,-129.42"/>
</g>
<!-- Node11 -->
<g id="node11" class="node">
<title>Node11</title>
<g id="a_node11"><a xlink:title=" ">
<polygon fill="none" stroke="#bfbfbf" points="1155.63,-168.5 1155.63,-187.5 1199.63,-187.5 1199.63,-168.5 1155.63,-168.5"/>
<text text-anchor="middle" x="1177.63" y="-175.5" font-family="Helvetica,sans-Serif" font-size="10.00">bitset</text>
</a>
</g>
</g>
<!-- Node9&#45;&gt;Node11 -->
<g id="edge10" class="edge">
<title>Node9&#45;&gt;Node11</title>
<path fill="none" stroke="midnightblue" d="M718.73,-231.97C788.12,-228.99 977.89,-218.63 1145.39,-187.67"/>
<polygon fill="midnightblue" stroke="midnightblue" points="1146.19,-191.08 1155.37,-185.8 1144.9,-184.21 1146.19,-191.08"/>
</g>
<!-- Node12 -->
<g id="node12" class="node">
<title>Node12</title>
<g id="a_node12"><a xlink:title=" ">
<polygon fill="none" stroke="#bfbfbf" points="861.63,-168.5 861.63,-187.5 919.63,-187.5 919.63,-168.5 861.63,-168.5"/>
<text text-anchor="middle" x="890.63" y="-175.5" font-family="Helvetica,sans-Serif" font-size="10.00">memory</text>
</a>
</g>
</g>
<!-- Node9&#45;&gt;Node12 -->
<g id="edge12" class="edge">
<title>Node9&#45;&gt;Node12</title>
<path fill="none" stroke="midnightblue" d="M718.89,-225.6C753.26,-216.28 812.58,-200.18 851.72,-189.56"/>
<polygon fill="midnightblue" stroke="midnightblue" points="852.72,-192.92 861.45,-186.92 850.88,-186.16 852.72,-192.92"/>
</g>
<!-- Node13 -->
<g id="node13" class="node">
<title>Node13</title>
<g id="a_node13"><a xlink:title=" ">
<polygon fill="none" stroke="#bfbfbf" points="1072.13,-168.5 1072.13,-187.5 1137.13,-187.5 1137.13,-168.5 1072.13,-168.5"/>
<text text-anchor="middle" x="1104.63" y="-175.5" font-family="Helvetica,sans-Serif" font-size="10.00">stdexcept</text>
</a>
</g>
</g>
<!-- Node9&#45;&gt;Node13 -->
<g id="edge13" class="edge">
<title>Node9&#45;&gt;Node13</title>
<path fill="none" stroke="midnightblue" d="M718.73,-229.46C788.93,-220.28 977.13,-195.67 1062.04,-184.57"/>
<polygon fill="midnightblue" stroke="midnightblue" points="1062.65,-188.02 1072.11,-183.25 1061.74,-181.08 1062.65,-188.02"/>
</g>
<!-- Node14 -->
<g id="node14" class="node">
<title>Node14</title>
<g id="a_node14"><a xlink:title=" ">
<polygon fill="none" stroke="#bfbfbf" points="604.63,-168.5 604.63,-187.5 648.63,-187.5 648.63,-168.5 604.63,-168.5"/>
<text text-anchor="middle" x="626.63" y="-175.5" font-family="Helvetica,sans-Serif" font-size="10.00">string</text>
</a>
</g>
</g>
<!-- Node9&#45;&gt;Node14 -->
<g id="edge14" class="edge">
<title>Node9&#45;&gt;Node14</title>
<path fill="none" stroke="midnightblue" d="M681.19,-224.32C671.49,-216.26 656.82,-204.08 645.13,-194.37"/>
<polygon fill="midnightblue" stroke="midnightblue" points="647.2,-191.53 637.27,-187.83 642.72,-196.92 647.2,-191.53"/>
</g>
<!-- Node15 -->
<g id="node15" class="node">
<title>Node15</title>
<g id="a_node15"><a xlink:title=" ">
<polygon fill="none" stroke="#bfbfbf" points="1316.13,-56.5 1316.13,-75.5 1363.13,-75.5 1363.13,-56.5 1316.13,-56.5"/>
<text text-anchor="middle" x="1339.63" y="-63.5" font-family="Helvetica,sans-Serif" font-size="10.00">vector</text>
</a>
</g>
</g>
<!-- Node9&#45;&gt;Node15 -->
<g id="edge15" class="edge">
<title>Node9&#45;&gt;Node15</title>
<path fill="none" stroke="midnightblue" d="M664.31,-232.77C600.09,-231.35 448.43,-222.32 496.63,-168 551.39,-106.29 1155.09,-75.27 1305.73,-68.46"/>
<polygon fill="midnightblue" stroke="midnightblue" points="1305.95,-71.95 1315.78,-68.01 1305.63,-64.96 1305.95,-71.95"/>
</g>
<!-- Node16 -->
<g id="node16" class="node">
<title>Node16</title>
<g id="a_node16"><a xlink:href="champsim_8h.html" target="_top" xlink:title=" ">
<polygon fill="none" stroke="black" points="938.13,-168.5 938.13,-187.5 1015.13,-187.5 1015.13,-168.5 938.13,-168.5"/>
<text text-anchor="middle" x="976.63" y="-175.5" font-family="Helvetica,sans-Serif" font-size="10.00">champsim.h</text>
</a>
</g>
</g>
<!-- Node9&#45;&gt;Node16 -->
<g id="edge16" class="edge">
<title>Node9&#45;&gt;Node16</title>
<path fill="none" stroke="midnightblue" d="M718.7,-227.87C766.78,-218.76 867.66,-199.65 928.03,-188.21"/>
<polygon fill="midnightblue" stroke="midnightblue" points="928.91,-191.61 938.08,-186.3 927.6,-184.73 928.91,-191.61"/>
</g>
<!-- Node9&#45;&gt;Node18 -->
<g id="edge19" class="edge">
<title>Node9&#45;&gt;Node18</title>
<path fill="none" stroke="midnightblue" d="M718.73,-232.59C859.59,-230.35 1522.31,-218.61 2063.63,-188 2075.65,-187.32 2088.39,-186.45 2100.79,-185.51"/>
<polygon fill="midnightblue" stroke="midnightblue" points="2101.41,-188.97 2111.11,-184.71 2100.87,-181.99 2101.41,-188.97"/>
</g>
<!-- Node19 -->
<g id="node19" class="node">
<title>Node19</title>
<g id="a_node19"><a xlink:href="channel_8h.html" target="_top" xlink:title=" ">
<polygon fill="none" stroke="black" points="1255.63,-168.5 1255.63,-187.5 1319.63,-187.5 1319.63,-168.5 1255.63,-168.5"/>
<text text-anchor="middle" x="1287.63" y="-175.5" font-family="Helvetica,sans-Serif" font-size="10.00">channel.h</text>
</a>
</g>
</g>
<!-- Node9&#45;&gt;Node19 -->
<g id="edge20" class="edge">
<title>Node9&#45;&gt;Node19</title>
<path fill="none" stroke="midnightblue" d="M718.84,-230.89C795.79,-224.86 1021.5,-206.8 1208.63,-188 1220.53,-186.8 1233.42,-185.39 1245.27,-184.04"/>
<polygon fill="midnightblue" stroke="midnightblue" points="1245.83,-187.49 1255.37,-182.87 1245.03,-180.54 1245.83,-187.49"/>
</g>
<!-- Node21 -->
<g id="node21" class="node">
<title>Node21</title>
<g id="a_node21"><a xlink:href="module__impl_8h.html" target="_top" xlink:title=" ">
<polygon fill="none" stroke="black" points="667.13,-168.5 667.13,-187.5 756.13,-187.5 756.13,-168.5 667.13,-168.5"/>
<text text-anchor="middle" x="711.63" y="-175.5" font-family="Helvetica,sans-Serif" font-size="10.00">module_impl.h</text>
</a>
</g>
</g>
<!-- Node9&#45;&gt;Node21 -->
<g id="edge28" class="edge">
<title>Node9&#45;&gt;Node21</title>
<path fill="none" stroke="midnightblue" d="M694.94,-224.08C697.62,-216.85 701.48,-206.41 704.82,-197.4"/>
<polygon fill="midnightblue" stroke="midnightblue" points="708.2,-198.34 708.39,-187.75 701.64,-195.91 708.2,-198.34"/>
</g>
<!-- Node9&#45;&gt;Node22 -->
<g id="edge29" class="edge">
<title>Node9&#45;&gt;Node22</title>
<path fill="none" stroke="midnightblue" d="M669.61,-224.44C646.53,-215.48 610.07,-201.31 583.99,-191.18"/>
<polygon fill="midnightblue" stroke="midnightblue" points="585.14,-187.88 574.56,-187.52 582.61,-194.4 585.14,-187.88"/>
</g>
<!-- Node23 -->
<g id="node23" class="node">
<title>Node23</title>
<g id="a_node23"><a xlink:title=" ">
<polygon fill="none" stroke="#bfbfbf" points="774.13,-168.5 774.13,-187.5 843.13,-187.5 843.13,-168.5 774.13,-168.5"/>
<text text-anchor="middle" x="808.63" y="-175.5" font-family="Helvetica,sans-Serif" font-size="10.00">type_traits</text>
</a>
</g>
</g>
<!-- Node9&#45;&gt;Node23 -->
<g id="edge30" class="edge">
<title>Node9&#45;&gt;Node23</title>
<path fill="none" stroke="midnightblue" d="M710.17,-224.44C729.26,-215.64 759.21,-201.81 781.07,-191.72"/>
<polygon fill="midnightblue" stroke="midnightblue" points="782.57,-194.88 790.18,-187.52 779.63,-188.53 782.57,-194.88"/>
</g>
<!-- Node24 -->
<g id="node24" class="node">
<title>Node24</title>
<g id="a_node24"><a xlink:title=" ">
<polygon fill="none" stroke="#bfbfbf" points="150.63,-168.5 150.63,-187.5 280.63,-187.5 280.63,-168.5 150.63,-168.5"/>
<text text-anchor="middle" x="215.63" y="-175.5" font-family="Helvetica,sans-Serif" font-size="10.00">cache_module_decl.inc</text>
</a>
</g>
</g>
<!-- Node9&#45;&gt;Node24 -->
<g id="edge31" class="edge">
<title>Node9&#45;&gt;Node24</title>
<path fill="none" stroke="midnightblue" d="M664.33,-230.03C600.83,-223.12 438.07,-205.28 291.1,-188.16"/>
<polygon fill="midnightblue" stroke="midnightblue" points="291.34,-184.67 281,-186.98 290.53,-191.62 291.34,-184.67"/>
</g>
<!-- Node25 -->
<g id="node25" class="node">
<title>Node25</title>
<g id="a_node25"><a xlink:title=" ">
<polygon fill="none" stroke="#bfbfbf" points="299.13,-168.5 299.13,-187.5 424.13,-187.5 424.13,-168.5 299.13,-168.5"/>
<text text-anchor="middle" x="361.63" y="-175.5" font-family="Helvetica,sans-Serif" font-size="10.00">cache_module_def.inc</text>
</a>
</g>
</g>
<!-- Node9&#45;&gt;Node25 -->
<g id="edge32" class="edge">
<title>Node9&#45;&gt;Node25</title>
<path fill="none" stroke="midnightblue" d="M664.63,-228.58C612.29,-220.02 495.84,-200.96 423.52,-189.13"/>
<polygon fill="midnightblue" stroke="midnightblue" points="424.05,-185.67 413.62,-187.51 422.92,-192.58 424.05,-185.67"/>
</g>
<!-- Node16&#45;&gt;Node6 -->
<g id="edge18" class="edge">
<title>Node16&#45;&gt;Node6</title>
<path fill="none" stroke="midnightblue" d="M937.92,-169.35C934.79,-168.85 931.66,-168.39 928.63,-168 815.05,-153.32 466.27,-132.47 344.29,-125.43"/>
<polygon fill="midnightblue" stroke="midnightblue" points="344.4,-121.93 334.21,-124.85 343.99,-128.92 344.4,-121.93"/>
</g>
<!-- Node17 -->
<g id="node17" class="node">
<title>Node17</title>
<g id="a_node17"><a xlink:title=" ">
<polygon fill="none" stroke="#bfbfbf" points="1366.63,-0.5 1366.63,-19.5 1416.63,-19.5 1416.63,-0.5 1366.63,-0.5"/>
<text text-anchor="middle" x="1391.63" y="-7.5" font-family="Helvetica,sans-Serif" font-size="10.00">cstdint</text>
</a>
</g>
</g>
<!-- Node16&#45;&gt;Node17 -->
<g id="edge17" class="edge">
<title>Node16&#45;&gt;Node17</title>
<path fill="none" stroke="midnightblue" d="M975.94,-168.34C975.32,-154.76 976.13,-128.31 989.63,-112 1036.75,-55.07 1267.05,-24.47 1356.25,-14.6"/>
<polygon fill="midnightblue" stroke="midnightblue" points="1356.84,-18.06 1366.41,-13.5 1356.09,-11.1 1356.84,-18.06"/>
</g>
<!-- Node19&#45;&gt;Node5 -->
<g id="edge23" class="edge">
<title>Node19&#45;&gt;Node5</title>
<path fill="none" stroke="midnightblue" d="M1255.24,-170.65C1197.13,-159.24 1079.43,-136.09 1060.63,-132 1059.18,-131.68 1057.71,-131.36 1056.21,-131.02"/>
<polygon fill="midnightblue" stroke="midnightblue" points="1056.85,-127.58 1046.32,-128.75 1055.28,-134.4 1056.85,-127.58"/>
</g>
<!-- Node19&#45;&gt;Node7 -->
<g id="edge24" class="edge">
<title>Node19&#45;&gt;Node7</title>
<path fill="none" stroke="midnightblue" d="M1263.55,-168.44C1238.09,-159.4 1197.74,-145.06 1169.17,-134.92"/>
<polygon fill="midnightblue" stroke="midnightblue" points="1170.2,-131.57 1159.61,-131.52 1167.86,-138.16 1170.2,-131.57"/>
</g>
<!-- Node19&#45;&gt;Node8 -->
<g id="edge25" class="edge">
<title>Node19&#45;&gt;Node8</title>
<path fill="none" stroke="midnightblue" d="M1286,-168.43C1282.3,-146.2 1275.94,-86.32 1307.63,-56 1332.18,-32.51 1563.37,-17.5 1649.5,-12.68"/>
<polygon fill="midnightblue" stroke="midnightblue" points="1649.7,-16.18 1659.5,-12.14 1649.32,-9.19 1649.7,-16.18"/>
</g>
<!-- Node19&#45;&gt;Node10 -->
<g id="edge21" class="edge">
<title>Node19&#45;&gt;Node10</title>
<path fill="none" stroke="midnightblue" d="M1301.61,-168.32C1315.18,-159.9 1336.01,-146.97 1351.96,-137.07"/>
<polygon fill="midnightblue" stroke="midnightblue" points="1354.04,-139.9 1360.69,-131.65 1350.35,-133.95 1354.04,-139.9"/>
</g>
<!-- Node19&#45;&gt;Node15 -->
<g id="edge26" class="edge">
<title>Node19&#45;&gt;Node15</title>
<path fill="none" stroke="midnightblue" d="M1291.71,-168.37C1300.18,-150.46 1319.82,-108.92 1331.15,-84.95"/>
<polygon fill="midnightblue" stroke="midnightblue" points="1334.46,-86.13 1335.57,-75.59 1328.13,-83.14 1334.46,-86.13"/>
</g>
<!-- Node19&#45;&gt;Node17 -->
<g id="edge22" class="edge">
<title>Node19&#45;&gt;Node17</title>
<path fill="none" stroke="midnightblue" d="M1255.34,-170.59C1201.49,-159.76 1098.7,-138.38 1093.63,-132 1088.1,-125.04 1088.45,-119.22 1093.63,-112 1154.69,-26.84 1291.56,-12.59 1356.35,-10.8"/>
<polygon fill="midnightblue" stroke="midnightblue" points="1356.54,-14.3 1366.47,-10.61 1356.41,-7.3 1356.54,-14.3"/>
</g>
<!-- Node20 -->
<g id="node20" class="node">
<title>Node20</title>
<g id="a_node20"><a xlink:title=" ">
<polygon fill="none" stroke="#bfbfbf" points="1186.13,-112.5 1186.13,-131.5 1259.13,-131.5 1259.13,-112.5 1186.13,-112.5"/>
<text text-anchor="middle" x="1222.63" y="-119.5" font-family="Helvetica,sans-Serif" font-size="10.00">string_view</text>
</a>
</g>
</g>
<!-- Node19&#45;&gt;Node20 -->
<g id="edge27" class="edge">
<title>Node19&#45;&gt;Node20</title>
<path fill="none" stroke="midnightblue" d="M1277.19,-168.32C1267.49,-160.26 1252.82,-148.08 1241.13,-138.37"/>
<polygon fill="midnightblue" stroke="midnightblue" points="1243.2,-135.53 1233.27,-131.83 1238.72,-140.92 1243.2,-135.53"/>
</g>
<!-- Node26&#45;&gt;Node9 -->
<g id="edge35" class="edge">
<title>Node26&#45;&gt;Node9</title>
<path fill="none" stroke="midnightblue" d="M1140.01,-284.72C1048.37,-274.56 818.71,-249.09 728.67,-239.11"/>
<polygon fill="midnightblue" stroke="midnightblue" points="728.98,-235.62 718.65,-238 728.21,-242.58 728.98,-235.62"/>
</g>
<!-- Node26&#45;&gt;Node18 -->
<g id="edge36" class="edge">
<title>Node26&#45;&gt;Node18</title>
<path fill="none" stroke="midnightblue" d="M1217.56,-284.77C1344.22,-271 1756.04,-226.14 2096.63,-188 2097.95,-187.85 2099.27,-187.7 2100.6,-187.55"/>
<polygon fill="midnightblue" stroke="midnightblue" points="2101.42,-190.98 2110.97,-186.39 2100.64,-184.03 2101.42,-190.98"/>
</g>
<!-- Node27 -->
<g id="node27" class="node">
<title>Node27</title>
<g id="a_node27"><a xlink:href="ooo__cpu_8h.html" target="_top" xlink:title=" ">
<polygon fill="none" stroke="black" points="1303.63,-224.5 1303.63,-243.5 1369.63,-243.5 1369.63,-224.5 1303.63,-224.5"/>
<text text-anchor="middle" x="1336.63" y="-231.5" font-family="Helvetica,sans-Serif" font-size="10.00">ooo_cpu.h</text>
</a>
</g>
</g>
<!-- Node26&#45;&gt;Node27 -->
<g id="edge37" class="edge">
<title>Node26&#45;&gt;Node27</title>
<path fill="none" stroke="midnightblue" d="M1203.67,-280.44C1230.25,-271.36 1272.44,-256.94 1302.16,-246.78"/>
<polygon fill="midnightblue" stroke="midnightblue" points="1303.38,-250.06 1311.72,-243.52 1301.12,-243.44 1303.38,-250.06"/>
</g>
<!-- Node40 -->
<g id="node40" class="node">
<title>Node40</title>
<g id="a_node40"><a xlink:href="ptw_8h.html" target="_top" xlink:title=" ">
<polygon fill="none" stroke="black" points="1157.13,-224.5 1157.13,-243.5 1200.13,-243.5 1200.13,-224.5 1157.13,-224.5"/>
<text text-anchor="middle" x="1178.63" y="-231.5" font-family="Helvetica,sans-Serif" font-size="10.00">ptw.h</text>
</a>
</g>
</g>
<!-- Node26&#45;&gt;Node40 -->
<g id="edge75" class="edge">
<title>Node26&#45;&gt;Node40</title>
<path fill="none" stroke="midnightblue" d="M1178.63,-280.08C1178.63,-273.01 1178.63,-262.86 1178.63,-253.99"/>
<polygon fill="midnightblue" stroke="midnightblue" points="1182.13,-253.75 1178.63,-243.75 1175.13,-253.75 1182.13,-253.75"/>
</g>
<!-- Node27&#45;&gt;Node5 -->
<g id="edge40" class="edge">
<title>Node27&#45;&gt;Node5</title>
<path fill="none" stroke="midnightblue" d="M1319.33,-224.48C1301.17,-215.51 1271.81,-200.92 1246.63,-188 1229.65,-179.29 1226.49,-174.74 1208.63,-168 1205.03,-166.64 1108.86,-143.59 1056.26,-131.02"/>
<polygon fill="midnightblue" stroke="midnightblue" points="1056.9,-127.58 1046.36,-128.66 1055.27,-134.39 1056.9,-127.58"/>
</g>
<!-- Node27&#45;&gt;Node8 -->
<g id="edge41" class="edge">
<title>Node27&#45;&gt;Node8</title>
<path fill="none" stroke="midnightblue" d="M1370.1,-231.55C1511.3,-225.35 2051.59,-200.81 2063.63,-188 2107.76,-141.06 2177.66,-174.98 1985.63,-56 1940.65,-28.13 1782.82,-16.43 1714.06,-12.58"/>
<polygon fill="midnightblue" stroke="midnightblue" points="1713.99,-9.07 1703.82,-12.02 1713.62,-16.06 1713.99,-9.07"/>
</g>
<!-- Node27&#45;&gt;Node10 -->
<g id="edge38" class="edge">
<title>Node27&#45;&gt;Node10</title>
<path fill="none" stroke="midnightblue" d="M1342.46,-224.42C1348.17,-215.64 1356.7,-201.42 1361.63,-188 1367.16,-172.96 1370.52,-155.06 1372.44,-141.85"/>
<polygon fill="midnightblue" stroke="midnightblue" points="1375.95,-142.01 1373.77,-131.64 1369,-141.11 1375.95,-142.01"/>
</g>
<!-- Node27&#45;&gt;Node11 -->
<g id="edge39" class="edge">
<title>Node27&#45;&gt;Node11</title>
<path fill="none" stroke="midnightblue" d="M1311.44,-224.44C1283.75,-215.04 1239.21,-199.91 1209.21,-189.72"/>
<polygon fill="midnightblue" stroke="midnightblue" points="1210.23,-186.37 1199.64,-186.47 1207.98,-193 1210.23,-186.37"/>
</g>
<!-- Node27&#45;&gt;Node12 -->
<g id="edge42" class="edge">
<title>Node27&#45;&gt;Node12</title>
<path fill="none" stroke="midnightblue" d="M1303.39,-230.72C1235.15,-225.75 1074.24,-212.5 929.94,-188.04"/>
<polygon fill="midnightblue" stroke="midnightblue" points="930.47,-184.58 920.02,-186.34 929.28,-191.48 930.47,-184.58"/>
</g>
<!-- Node27&#45;&gt;Node13 -->
<g id="edge45" class="edge">
<title>Node27&#45;&gt;Node13</title>
<path fill="none" stroke="midnightblue" d="M1303.39,-225.26C1262.27,-215.69 1192.21,-199.38 1147.2,-188.91"/>
<polygon fill="midnightblue" stroke="midnightblue" points="1147.97,-185.49 1137.44,-186.64 1146.38,-192.31 1147.97,-185.49"/>
</g>
<!-- Node27&#45;&gt;Node15 -->
<g id="edge46" class="edge">
<title>Node27&#45;&gt;Node15</title>
<path fill="none" stroke="midnightblue" d="M1345.95,-224.35C1354.86,-215.74 1368.29,-201.84 1377.63,-188 1393.1,-165.1 1398.48,-158.94 1404.63,-132 1406.61,-123.33 1408.76,-119.87 1404.63,-112 1397.35,-98.11 1383.62,-87.65 1370.65,-80.33"/>
<polygon fill="midnightblue" stroke="midnightblue" points="1371.93,-77.05 1361.44,-75.55 1368.71,-83.27 1371.93,-77.05"/>
</g>
<!-- Node27&#45;&gt;Node16 -->
<g id="edge47" class="edge">
<title>Node27&#45;&gt;Node16</title>
<path fill="none" stroke="midnightblue" d="M1303.41,-228.02C1239.57,-218.44 1099.52,-197.43 1025.2,-186.28"/>
<polygon fill="midnightblue" stroke="midnightblue" points="1025.57,-182.8 1015.16,-184.78 1024.53,-189.72 1025.57,-182.8"/>
</g>
<!-- Node27&#45;&gt;Node18 -->
<g id="edge48" class="edge">
<title>Node27&#45;&gt;Node18</title>
<path fill="none" stroke="midnightblue" d="M1369.64,-231.69C1475.48,-227.34 1815.82,-212.29 2096.63,-188 2097.95,-187.89 2099.28,-187.77 2100.61,-187.65"/>
<polygon fill="midnightblue" stroke="midnightblue" points="2101.37,-191.09 2110.99,-186.65 2100.7,-184.12 2101.37,-191.09"/>
</g>
<!-- Node27&#45;&gt;Node19 -->
<g id="edge49" class="edge">
<title>Node27&#45;&gt;Node19</title>
<path fill="none" stroke="midnightblue" d="M1328.54,-224.08C1321.48,-216.3 1311.05,-204.8 1302.48,-195.37"/>
<polygon fill="midnightblue" stroke="midnightblue" points="1304.89,-192.8 1295.57,-187.75 1299.7,-197.51 1304.89,-192.8"/>
</g>
<!-- Node27&#45;&gt;Node21 -->
<g id="edge59" class="edge">
<title>Node27&#45;&gt;Node21</title>
<path fill="none" stroke="midnightblue" d="M1303.41,-230.56C1194.51,-222.55 850.92,-197.06 766.55,-188.05"/>
<polygon fill="midnightblue" stroke="midnightblue" points="766.74,-184.55 756.41,-186.89 765.95,-191.51 766.74,-184.55"/>
</g>
<!-- Node27&#45;&gt;Node22 -->
<g id="edge60" class="edge">
<title>Node27&#45;&gt;Node22</title>
<path fill="none" stroke="midnightblue" d="M1303.49,-230.56C1277.65,-228.69 1240.87,-226.08 1208.63,-224 939.61,-206.64 867.9,-223.63 596.96,-187.98"/>
<polygon fill="midnightblue" stroke="midnightblue" points="597.2,-184.48 586.82,-186.63 596.27,-191.42 597.2,-184.48"/>
</g>
<!-- Node27&#45;&gt;Node23 -->
<g id="edge72" class="edge">
<title>Node27&#45;&gt;Node23</title>
<path fill="none" stroke="midnightblue" d="M1303.52,-230.4C1212.22,-223.14 957.34,-202.38 853.06,-187.86"/>
<polygon fill="midnightblue" stroke="midnightblue" points="853.56,-184.4 843.16,-186.43 852.56,-191.32 853.56,-184.4"/>
</g>
<!-- Node28 -->
<g id="node28" class="node">
<title>Node28</title>
<g id="a_node28"><a xlink:title=" ">
<polygon fill="none" stroke="#bfbfbf" points="1756.63,-56.5 1756.63,-75.5 1812.63,-75.5 1812.63,-56.5 1756.63,-56.5"/>
<text text-anchor="middle" x="1784.63" y="-63.5" font-family="Helvetica,sans-Serif" font-size="10.00">optional</text>
</a>
</g>
</g>
<!-- Node27&#45;&gt;Node28 -->
<g id="edge43" class="edge">
<title>Node27&#45;&gt;Node28</title>
<path fill="none" stroke="midnightblue" d="M1369.97,-231.42C1484.03,-225.85 1852.65,-206.48 1869.63,-188 1901.85,-152.95 1842.8,-105.19 1807.79,-81.53"/>
<polygon fill="midnightblue" stroke="midnightblue" points="1809.35,-78.36 1799.07,-75.78 1805.5,-84.2 1809.35,-78.36"/>
</g>
<!-- Node29 -->
<g id="node29" class="node">
<title>Node29</title>
<g id="a_node29"><a xlink:title=" ">
<polygon fill="none" stroke="#bfbfbf" points="1557.13,-168.5 1557.13,-187.5 1604.13,-187.5 1604.13,-168.5 1557.13,-168.5"/>
<text text-anchor="middle" x="1580.63" y="-175.5" font-family="Helvetica,sans-Serif" font-size="10.00">queue</text>
</a>
</g>
</g>
<!-- Node27&#45;&gt;Node29 -->
<g id="edge44" class="edge">
<title>Node27&#45;&gt;Node29</title>
<path fill="none" stroke="midnightblue" d="M1369.83,-226.65C1409.74,-218.86 1478.92,-204.88 1546.9,-188.32"/>
<polygon fill="midnightblue" stroke="midnightblue" points="1548.04,-191.64 1556.91,-185.86 1546.37,-184.84 1548.04,-191.64"/>
</g>
<!-- Node30 -->
<g id="node30" class="node">
<title>Node30</title>
<g id="a_node30"><a xlink:href="instruction_8h.html" target="_top" xlink:title=" ">
<polygon fill="none" stroke="black" points="1783.13,-168.5 1783.13,-187.5 1860.13,-187.5 1860.13,-168.5 1783.13,-168.5"/>
<text text-anchor="middle" x="1821.63" y="-175.5" font-family="Helvetica,sans-Serif" font-size="10.00">instruction.h</text>
</a>
</g>
</g>
<!-- Node27&#45;&gt;Node30 -->
<g id="edge50" class="edge">
<title>Node27&#45;&gt;Node30</title>
<path fill="none" stroke="midnightblue" d="M1369.64,-230.54C1441.11,-225.01 1615.71,-210.42 1772.6,-188.03"/>
<polygon fill="midnightblue" stroke="midnightblue" points="1773.51,-191.44 1782.91,-186.55 1772.51,-184.51 1773.51,-191.44"/>
</g>
<!-- Node33 -->
<g id="node33" class="node">
<title>Node33</title>
<g id="a_node33"><a xlink:href="util_2lru__table_8h.html" target="_top" xlink:title=" ">
<polygon fill="none" stroke="black" points="1452.13,-168.5 1452.13,-187.5 1539.13,-187.5 1539.13,-168.5 1452.13,-168.5"/>
<text text-anchor="middle" x="1495.63" y="-175.5" font-family="Helvetica,sans-Serif" font-size="10.00">util/lru_table.h</text>
</a>
</g>
</g>
<!-- Node27&#45;&gt;Node33 -->
<g id="edge61" class="edge">
<title>Node27&#45;&gt;Node33</title>
<path fill="none" stroke="midnightblue" d="M1361.83,-224.44C1388.58,-215.36 1431.04,-200.94 1460.94,-190.78"/>
<polygon fill="midnightblue" stroke="midnightblue" points="1462.21,-194.05 1470.56,-187.52 1459.96,-187.42 1462.21,-194.05"/>
</g>
<!-- Node38 -->
<g id="node38" class="node">
<title>Node38</title>
<g id="a_node38"><a xlink:title=" ">
<polygon fill="none" stroke="#bfbfbf" points="1622.63,-168.5 1622.63,-187.5 1764.63,-187.5 1764.63,-168.5 1622.63,-168.5"/>
<text text-anchor="middle" x="1693.63" y="-175.5" font-family="Helvetica,sans-Serif" font-size="10.00">ooo_cpu_module_decl.inc</text>
</a>
</g>
</g>
<!-- Node27&#45;&gt;Node38 -->
<g id="edge73" class="edge">
<title>Node27&#45;&gt;Node38</title>
<path fill="none" stroke="midnightblue" d="M1369.9,-227.97C1428.46,-219.11 1550.98,-200.58 1627.36,-189.02"/>
<polygon fill="midnightblue" stroke="midnightblue" points="1628,-192.47 1637.36,-187.51 1626.95,-185.55 1628,-192.47"/>
</g>
<!-- Node39 -->
<g id="node39" class="node">
<title>Node39</title>
<g id="a_node39"><a xlink:title=" ">
<polygon fill="none" stroke="#bfbfbf" points="1917.13,-168.5 1917.13,-187.5 2054.13,-187.5 2054.13,-168.5 1917.13,-168.5"/>
<text text-anchor="middle" x="1985.63" y="-175.5" font-family="Helvetica,sans-Serif" font-size="10.00">ooo_cpu_module_def.inc</text>
</a>
</g>
</g>
<!-- Node27&#45;&gt;Node39 -->
<g id="edge74" class="edge">
<title>Node27&#45;&gt;Node39</title>
<path fill="none" stroke="midnightblue" d="M1369.84,-230.69C1457.16,-224.56 1700.46,-206.99 1902.63,-188 1903.93,-187.88 1905.24,-187.75 1906.56,-187.63"/>
<polygon fill="midnightblue" stroke="midnightblue" points="1907.2,-191.08 1916.81,-186.62 1906.51,-184.11 1907.2,-191.08"/>
</g>
<!-- Node30&#45;&gt;Node7 -->
<g id="edge54" class="edge">
<title>Node30&#45;&gt;Node7</title>
<path fill="none" stroke="midnightblue" d="M1782.93,-169.31C1779.79,-168.82 1776.66,-168.37 1773.63,-168 1513.17,-135.86 1441.72,-167.78 1178.48,-132.05"/>
<polygon fill="midnightblue" stroke="midnightblue" points="1178.61,-128.53 1168.22,-130.63 1177.65,-135.47 1178.61,-128.53"/>
</g>
<!-- Node30&#45;&gt;Node8 -->
<g id="edge55" class="edge">
<title>Node30&#45;&gt;Node8</title>
<path fill="none" stroke="midnightblue" d="M1824.76,-168.34C1831.89,-146.9 1846.88,-90.63 1821.63,-56 1797.14,-22.4 1747.14,-13.34 1714.01,-11.19"/>
<polygon fill="midnightblue" stroke="midnightblue" points="1714.05,-7.69 1703.9,-10.72 1713.72,-14.68 1714.05,-7.69"/>
</g>
<!-- Node30&#45;&gt;Node10 -->
<g id="edge52" class="edge">
<title>Node30&#45;&gt;Node10</title>
<path fill="none" stroke="midnightblue" d="M1782.9,-169.48C1779.77,-168.95 1776.65,-168.45 1773.63,-168 1629.45,-146.55 1592.42,-148.92 1447.63,-132 1433.96,-130.4 1418.86,-128.55 1405.95,-126.95"/>
<polygon fill="midnightblue" stroke="midnightblue" points="1406.07,-123.44 1395.71,-125.67 1405.2,-130.38 1406.07,-123.44"/>
</g>
<!-- Node30&#45;&gt;Node15 -->
<g id="edge56" class="edge">
<title>Node30&#45;&gt;Node15</title>
<path fill="none" stroke="midnightblue" d="M1782.9,-169.52C1779.77,-168.98 1776.65,-168.47 1773.63,-168 1644.42,-147.94 1607.45,-167.63 1481.63,-132 1480.89,-131.79 1408.77,-98.72 1367.61,-79.84"/>
<polygon fill="midnightblue" stroke="midnightblue" points="1368.91,-76.58 1358.36,-75.6 1365.99,-82.95 1368.91,-76.58"/>
</g>
<!-- Node30&#45;&gt;Node17 -->
<g id="edge53" class="edge">
<title>Node30&#45;&gt;Node17</title>
<path fill="none" stroke="midnightblue" d="M1816.66,-168.42C1802.96,-145.63 1762.13,-83.48 1709.63,-56 1661.02,-30.55 1499.19,-17.63 1426.96,-13.02"/>
<polygon fill="midnightblue" stroke="midnightblue" points="1427.18,-9.53 1416.98,-12.4 1426.75,-16.52 1427.18,-9.53"/>
</g>
<!-- Node31 -->
<g id="node31" class="node">
<title>Node31</title>
<g id="a_node31"><a xlink:title=" ">
<polygon fill="none" stroke="#bfbfbf" points="1636.63,-56.5 1636.63,-75.5 1700.63,-75.5 1700.63,-56.5 1636.63,-56.5"/>
<text text-anchor="middle" x="1668.63" y="-63.5" font-family="Helvetica,sans-Serif" font-size="10.00">algorithm</text>
</a>
</g>
</g>
<!-- Node30&#45;&gt;Node31 -->
<g id="edge51" class="edge">
<title>Node30&#45;&gt;Node31</title>
<path fill="none" stroke="midnightblue" d="M1788.7,-168.38C1766.14,-161.3 1736.48,-149.54 1714.63,-132 1698.52,-119.06 1685.54,-99.07 1677.53,-84.67"/>
<polygon fill="midnightblue" stroke="midnightblue" points="1680.57,-82.95 1672.8,-75.75 1674.39,-86.23 1680.57,-82.95"/>
</g>
<!-- Node32 -->
<g id="node32" class="node">
<title>Node32</title>
<g id="a_node32"><a xlink:href="trace__instruction_8h.html" target="_top" xlink:title=" ">
<polygon fill="none" stroke="black" points="1869.13,-56.5 1869.13,-75.5 1976.13,-75.5 1976.13,-56.5 1869.13,-56.5"/>
<text text-anchor="middle" x="1922.63" y="-63.5" font-family="Helvetica,sans-Serif" font-size="10.00">trace_instruction.h</text>
</a>
</g>
</g>
<!-- Node30&#45;&gt;Node32 -->
<g id="edge57" class="edge">
<title>Node30&#45;&gt;Node32</title>
<path fill="none" stroke="midnightblue" d="M1829.56,-168.37C1846.45,-149.97 1886.21,-106.67 1907.9,-83.05"/>
<polygon fill="midnightblue" stroke="midnightblue" points="1910.56,-85.32 1914.75,-75.59 1905.4,-80.59 1910.56,-85.32"/>
</g>
<!-- Node32&#45;&gt;Node8 -->
<g id="edge58" class="edge">
<title>Node32&#45;&gt;Node8</title>
<path fill="none" stroke="midnightblue" d="M1884.45,-56.44C1837.26,-45.87 1757.83,-28.07 1713.67,-18.18"/>
<polygon fill="midnightblue" stroke="midnightblue" points="1714.29,-14.73 1703.77,-15.96 1712.76,-21.56 1714.29,-14.73"/>
</g>
<!-- Node34 -->
<g id="node34" class="node">
<title>Node34</title>
<g id="a_node34"><a xlink:href="msl_2lru__table_8h.html" target="_top" xlink:title=" ">
<polygon fill="none" stroke="black" points="1490.13,-112.5 1490.13,-131.5 1579.13,-131.5 1579.13,-112.5 1490.13,-112.5"/>
<text text-anchor="middle" x="1534.63" y="-119.5" font-family="Helvetica,sans-Serif" font-size="10.00">msl/lru_table.h</text>
</a>
</g>
</g>
<!-- Node33&#45;&gt;Node34 -->
<g id="edge62" class="edge">
<title>Node33&#45;&gt;Node34</title>
<path fill="none" stroke="midnightblue" d="M1502.07,-168.08C1507.58,-160.46 1515.66,-149.26 1522.4,-139.94"/>
<polygon fill="midnightblue" stroke="midnightblue" points="1525.3,-141.91 1528.31,-131.75 1519.62,-137.81 1525.3,-141.91"/>
</g>
<!-- Node34&#45;&gt;Node15 -->
<g id="edge68" class="edge">
<title>Node34&#45;&gt;Node15</title>
<path fill="none" stroke="midnightblue" d="M1503.74,-112.44C1468.1,-102.58 1409.73,-86.41 1373.06,-76.26"/>
<polygon fill="midnightblue" stroke="midnightblue" points="1373.9,-72.86 1363.33,-73.56 1372.04,-79.6 1373.9,-72.86"/>
</g>
<!-- Node34&#45;&gt;Node17 -->
<g id="edge65" class="edge">
<title>Node34&#45;&gt;Node17</title>
<path fill="none" stroke="midnightblue" d="M1490.1,-115.07C1463.64,-109.32 1431.32,-98.05 1410.63,-76 1398.95,-63.55 1394.41,-44.32 1392.67,-30"/>
<polygon fill="midnightblue" stroke="midnightblue" points="1396.13,-29.45 1391.78,-19.79 1389.16,-30.05 1396.13,-29.45"/>
</g>
<!-- Node34&#45;&gt;Node28 -->
<g id="edge66" class="edge">
<title>Node34&#45;&gt;Node28</title>
<path fill="none" stroke="midnightblue" d="M1574.25,-112.44C1621.48,-102.24 1699.87,-85.31 1746.46,-75.25"/>
<polygon fill="midnightblue" stroke="midnightblue" points="1747.42,-78.62 1756.46,-73.09 1745.94,-71.78 1747.42,-78.62"/>
</g>
<!-- Node34&#45;&gt;Node31 -->
<g id="edge63" class="edge">
<title>Node34&#45;&gt;Node31</title>
<path fill="none" stroke="midnightblue" d="M1555.87,-112.44C1578.02,-103.52 1612.95,-89.44 1638.07,-79.32"/>
<polygon fill="midnightblue" stroke="midnightblue" points="1639.53,-82.5 1647.5,-75.52 1636.92,-76.01 1639.53,-82.5"/>
</g>
<!-- Node35 -->
<g id="node35" class="node">
<title>Node35</title>
<g id="a_node35"><a xlink:title=" ">
<polygon fill="none" stroke="#bfbfbf" points="1419.63,-56.5 1419.63,-75.5 1471.63,-75.5 1471.63,-56.5 1419.63,-56.5"/>
<text text-anchor="middle" x="1445.63" y="-63.5" font-family="Helvetica,sans-Serif" font-size="10.00">cassert</text>
</a>
</g>
</g>
<!-- Node34&#45;&gt;Node35 -->
<g id="edge64" class="edge">
<title>Node34&#45;&gt;Node35</title>
<path fill="none" stroke="midnightblue" d="M1520.33,-112.32C1506.45,-103.9 1485.14,-90.97 1468.83,-81.07"/>
<polygon fill="midnightblue" stroke="midnightblue" points="1470.26,-77.85 1459.9,-75.65 1466.63,-83.83 1470.26,-77.85"/>
</g>
<!-- Node36 -->
<g id="node36" class="node">
<title>Node36</title>
<g id="a_node36"><a xlink:title=" ">
<polygon fill="none" stroke="#bfbfbf" points="1573.13,-56.5 1573.13,-75.5 1618.13,-75.5 1618.13,-56.5 1573.13,-56.5"/>
<text text-anchor="middle" x="1595.63" y="-63.5" font-family="Helvetica,sans-Serif" font-size="10.00">utility</text>
</a>
</g>
</g>
<!-- Node34&#45;&gt;Node36 -->
<g id="edge67" class="edge">
<title>Node34&#45;&gt;Node36</title>
<path fill="none" stroke="midnightblue" d="M1544.43,-112.32C1553.45,-104.34 1567.04,-92.31 1577.95,-82.65"/>
<polygon fill="midnightblue" stroke="midnightblue" points="1580.49,-85.08 1585.65,-75.83 1575.85,-79.84 1580.49,-85.08"/>
</g>
<!-- Node37 -->
<g id="node37" class="node">
<title>Node37</title>
<g id="a_node37"><a xlink:href="msl_2bits_8h.html" target="_top" xlink:title=" ">
<polygon fill="none" stroke="black" points="1490.13,-56.5 1490.13,-75.5 1555.13,-75.5 1555.13,-56.5 1490.13,-56.5"/>
<text text-anchor="middle" x="1522.63" y="-63.5" font-family="Helvetica,sans-Serif" font-size="10.00">msl/bits.h</text>
</a>
</g>
</g>
<!-- Node34&#45;&gt;Node37 -->
<g id="edge69" class="edge">
<title>Node34&#45;&gt;Node37</title>
<path fill="none" stroke="midnightblue" d="M1532.65,-112.08C1531.06,-104.93 1528.77,-94.64 1526.79,-85.69"/>
<polygon fill="midnightblue" stroke="midnightblue" points="1530.16,-84.75 1524.58,-75.75 1523.33,-86.27 1530.16,-84.75"/>
</g>
<!-- Node37&#45;&gt;Node8 -->
<g id="edge71" class="edge">
<title>Node37&#45;&gt;Node8</title>
<path fill="none" stroke="midnightblue" d="M1547.83,-56.44C1575.52,-47.04 1620.05,-31.91 1650.06,-21.72"/>
<polygon fill="midnightblue" stroke="midnightblue" points="1651.29,-25 1659.63,-18.47 1649.04,-18.37 1651.29,-25"/>
</g>
<!-- Node37&#45;&gt;Node17 -->
<g id="edge70" class="edge">
<title>Node37&#45;&gt;Node17</title>
<path fill="none" stroke="midnightblue" d="M1501.88,-56.44C1480.32,-47.56 1446.37,-33.56 1421.84,-23.45"/>
<polygon fill="midnightblue" stroke="midnightblue" points="1422.87,-20.09 1412.29,-19.52 1420.21,-26.56 1422.87,-20.09"/>
</g>
<!-- Node40&#45;&gt;Node5 -->
<g id="edge77" class="edge">
<title>Node40&#45;&gt;Node5</title>
<path fill="none" stroke="midnightblue" d="M1156.82,-228.94C1131.76,-223.35 1090.52,-211.23 1062.63,-188 1047.56,-175.44 1036.54,-155.67 1029.93,-141.22"/>
<polygon fill="midnightblue" stroke="midnightblue" points="1033.06,-139.64 1025.9,-131.83 1026.63,-142.4 1033.06,-139.64"/>
</g>
<!-- Node40&#45;&gt;Node10 -->
<g id="edge76" class="edge">
<title>Node40&#45;&gt;Node10</title>
<path fill="none" stroke="midnightblue" d="M1200.2,-230.98C1231.2,-227.15 1289,-216.48 1328.63,-188 1345.6,-175.81 1358.56,-155.36 1366.34,-140.65"/>
<polygon fill="midnightblue" stroke="midnightblue" points="1369.54,-142.07 1370.88,-131.56 1363.28,-138.94 1369.54,-142.07"/>
</g>
<!-- Node40&#45;&gt;Node14 -->
<g id="edge78" class="edge">
<title>Node40&#45;&gt;Node14</title>
<path fill="none" stroke="midnightblue" d="M1157.09,-232.65C1086.66,-231.19 856.88,-223.95 658.86,-187.87"/>
<polygon fill="midnightblue" stroke="midnightblue" points="659.33,-184.4 648.86,-186.02 658.05,-191.28 659.33,-184.4"/>
</g>
<!-- Node40&#45;&gt;Node19 -->
<g id="edge79" class="edge">
<title>Node40&#45;&gt;Node19</title>
<path fill="none" stroke="midnightblue" d="M1196.15,-224.32C1213.71,-215.62 1240.96,-202.12 1261.16,-192.11"/>
<polygon fill="midnightblue" stroke="midnightblue" points="1262.76,-195.23 1270.16,-187.65 1259.65,-188.96 1262.76,-195.23"/>
</g>
<!-- Node40&#45;&gt;Node22 -->
<g id="edge80" class="edge">
<title>Node40&#45;&gt;Node22</title>
<path fill="none" stroke="midnightblue" d="M1157.08,-232.34C1081.49,-229.82 821.24,-219.38 596.82,-187.99"/>
<polygon fill="midnightblue" stroke="midnightblue" points="597.22,-184.51 586.83,-186.57 596.24,-191.44 597.22,-184.51"/>
</g>
<!-- Node40&#45;&gt;Node33 -->
<g id="edge81" class="edge">
<title>Node40&#45;&gt;Node33</title>
<path fill="none" stroke="midnightblue" d="M1200.42,-229.29C1249.75,-220.89 1371.18,-200.2 1441.99,-188.14"/>
<polygon fill="midnightblue" stroke="midnightblue" points="1442.78,-191.55 1452.05,-186.42 1441.6,-184.65 1442.78,-191.55"/>
</g>
</g>
</svg>
