<?xml version="1.0" encoding="UTF-8" standalone="no"?>
<!DOCTYPE svg PUBLIC "-//W3C//DTD SVG 1.1//EN"
 "http://www.w3.org/Graphics/SVG/1.1/DTD/svg11.dtd">
<!-- Generated by graphviz version 2.43.0 (0)
 -->
<!-- Title: test/cpp/src/602&#45;walk&#45;latency.cc Pages: 1 -->
<svg width="2531pt" height="375pt"
 viewBox="0.00 0.00 2530.50 375.00" xmlns="http://www.w3.org/2000/svg" xmlns:xlink="http://www.w3.org/1999/xlink">
<g id="graph0" class="graph" transform="scale(1 1) rotate(0) translate(4 371)">
<title>test/cpp/src/602&#45;walk&#45;latency.cc</title>
<!-- Node1 -->
<g id="node1" class="node">
<title>Node1</title>
<g id="a_node1"><a xlink:title=" ">
<polygon fill="#bfbfbf" stroke="black" points="517.5,-336.5 517.5,-366.5 638.5,-366.5 638.5,-336.5 517.5,-336.5"/>
<text text-anchor="start" x="525.5" y="-354.5" font-family="Helvetica,sans-Serif" font-size="10.00">test/cpp/src/602&#45;walk</text>
<text text-anchor="middle" x="578" y="-343.5" font-family="Helvetica,sans-Serif" font-size="10.00">&#45;latency.cc</text>
</a>
</g>
</g>
<!-- Node2 -->
<g id="node2" class="node">
<title>Node2</title>
<g id="a_node2"><a xlink:title=" ">
<polygon fill="none" stroke="#bfbfbf" points="320,-280.5 320,-299.5 384,-299.5 384,-280.5 320,-280.5"/>
<text text-anchor="middle" x="352" y="-287.5" font-family="Helvetica,sans-Serif" font-size="10.00">catch.hpp</text>
</a>
</g>
</g>
<!-- Node1&#45;&gt;Node2 -->
<g id="edge1" class="edge">
<title>Node1&#45;&gt;Node2</title>
<path fill="none" stroke="midnightblue" d="M524.73,-336.47C484.89,-325.99 431.14,-311.84 394.25,-302.12"/>
<polygon fill="midnightblue" stroke="midnightblue" points="394.87,-298.67 384.31,-299.51 393.09,-305.44 394.87,-298.67"/>
</g>
<!-- Node3 -->
<g id="node3" class="node">
<title>Node3</title>
<g id="a_node3"><a xlink:href="mocks_8hpp.html" target="_top" xlink:title=" ">
<polygon fill="none" stroke="black" points="402,-280.5 402,-299.5 472,-299.5 472,-280.5 402,-280.5"/>
<text text-anchor="middle" x="437" y="-287.5" font-family="Helvetica,sans-Serif" font-size="10.00">mocks.hpp</text>
</a>
</g>
</g>
<!-- Node1&#45;&gt;Node3 -->
<g id="edge2" class="edge">
<title>Node1&#45;&gt;Node3</title>
<path fill="none" stroke="midnightblue" d="M544.58,-336.4C521.03,-326.46 489.76,-313.26 467.01,-303.66"/>
<polygon fill="midnightblue" stroke="midnightblue" points="468.09,-300.32 457.52,-299.66 465.37,-306.77 468.09,-300.32"/>
</g>
<!-- Node17 -->
<g id="node17" class="node">
<title>Node17</title>
<g id="a_node17"><a xlink:title=" ">
<polygon fill="none" stroke="#bfbfbf" points="2279.5,-168.5 2279.5,-187.5 2408.5,-187.5 2408.5,-168.5 2279.5,-168.5"/>
<text text-anchor="middle" x="2344" y="-175.5" font-family="Helvetica,sans-Serif" font-size="10.00">champsim_constants.h</text>
</a>
</g>
</g>
<!-- Node1&#45;&gt;Node17 -->
<g id="edge33" class="edge">
<title>Node1&#45;&gt;Node17</title>
<path fill="none" stroke="midnightblue" d="M638.7,-345.73C815.68,-331.7 1346.41,-288.75 1786,-244 1959.19,-226.37 2162.14,-201.73 2269.15,-188.42"/>
<polygon fill="midnightblue" stroke="midnightblue" points="2269.71,-191.88 2279.2,-187.17 2268.85,-184.93 2269.71,-191.88"/>
</g>
<!-- Node25 -->
<g id="node25" class="node">
<title>Node25</title>
<g id="a_node25"><a xlink:href="defaults_8hpp.html" target="_top" xlink:title=" ">
<polygon fill="none" stroke="black" points="1018.5,-280.5 1018.5,-299.5 1095.5,-299.5 1095.5,-280.5 1018.5,-280.5"/>
<text text-anchor="middle" x="1057" y="-287.5" font-family="Helvetica,sans-Serif" font-size="10.00">defaults.hpp</text>
</a>
</g>
</g>
<!-- Node1&#45;&gt;Node25 -->
<g id="edge34" class="edge">
<title>Node1&#45;&gt;Node25</title>
<path fill="none" stroke="midnightblue" d="M638.67,-342.96C734.8,-331.02 920.25,-307.99 1008.3,-297.05"/>
<polygon fill="midnightblue" stroke="midnightblue" points="1008.8,-300.51 1018.29,-295.81 1007.94,-293.57 1008.8,-300.51"/>
</g>
<!-- Node39 -->
<g id="node39" class="node">
<title>Node39</title>
<g id="a_node39"><a xlink:href="ptw_8h.html" target="_top" xlink:title=" ">
<polygon fill="none" stroke="black" points="556.5,-224.5 556.5,-243.5 599.5,-243.5 599.5,-224.5 556.5,-224.5"/>
<text text-anchor="middle" x="578" y="-231.5" font-family="Helvetica,sans-Serif" font-size="10.00">ptw.h</text>
</a>
</g>
</g>
<!-- Node1&#45;&gt;Node39 -->
<g id="edge91" class="edge">
<title>Node1&#45;&gt;Node39</title>
<path fill="none" stroke="midnightblue" d="M578,-336.34C578,-315.62 578,-277.02 578,-253.9"/>
<polygon fill="midnightblue" stroke="midnightblue" points="581.5,-253.67 578,-243.67 574.5,-253.67 581.5,-253.67"/>
</g>
<!-- Node40 -->
<g id="node40" class="node">
<title>Node40</title>
<g id="a_node40"><a xlink:href="dram__controller_8h.html" target="_top" xlink:title=" ">
<polygon fill="none" stroke="black" points="293,-224.5 293,-243.5 395,-243.5 395,-224.5 293,-224.5"/>
<text text-anchor="middle" x="344" y="-231.5" font-family="Helvetica,sans-Serif" font-size="10.00">dram_controller.h</text>
</a>
</g>
</g>
<!-- Node1&#45;&gt;Node40 -->
<g id="edge82" class="edge">
<title>Node1&#45;&gt;Node40</title>
<path fill="none" stroke="midnightblue" d="M561.87,-336.32C543.42,-320.71 511.77,-295.74 481,-280 452.02,-265.17 417.13,-253.8 389.82,-246.19"/>
<polygon fill="midnightblue" stroke="midnightblue" points="390.69,-242.8 380.12,-243.56 388.86,-249.56 390.69,-242.8"/>
</g>
<!-- Node42 -->
<g id="node42" class="node">
<title>Node42</title>
<g id="a_node42"><a xlink:href="vmem_8h.html" target="_top" xlink:title=" ">
<polygon fill="none" stroke="black" points="2465.5,-224.5 2465.5,-243.5 2522.5,-243.5 2522.5,-224.5 2465.5,-224.5"/>
<text text-anchor="middle" x="2494" y="-231.5" font-family="Helvetica,sans-Serif" font-size="10.00">vmem.h</text>
</a>
</g>
</g>
<!-- Node1&#45;&gt;Node42 -->
<g id="edge92" class="edge">
<title>Node1&#45;&gt;Node42</title>
<path fill="none" stroke="midnightblue" d="M638.64,-350.07C893.98,-348.03 1882.77,-337.8 2192,-300 2287.92,-288.27 2398.42,-260.85 2455.46,-245.64"/>
<polygon fill="midnightblue" stroke="midnightblue" points="2456.39,-249.02 2465.14,-243.04 2454.58,-242.26 2456.39,-249.02"/>
</g>
<!-- Node4 -->
<g id="node4" class="node">
<title>Node4</title>
<g id="a_node4"><a xlink:title=" ">
<polygon fill="none" stroke="#bfbfbf" points="456.5,-112.5 456.5,-131.5 503.5,-131.5 503.5,-112.5 456.5,-112.5"/>
<text text-anchor="middle" x="480" y="-119.5" font-family="Helvetica,sans-Serif" font-size="10.00">deque</text>
</a>
</g>
</g>
<!-- Node3&#45;&gt;Node4 -->
<g id="edge3" class="edge">
<title>Node3&#45;&gt;Node4</title>
<path fill="none" stroke="midnightblue" d="M401.98,-281.58C398.95,-281.01 395.92,-280.48 393,-280 328.26,-269.42 143.47,-293.13 100,-244 77.62,-218.7 77.56,-193.25 100,-168 122.84,-142.29 357.38,-128.73 446.18,-124.49"/>
<polygon fill="midnightblue" stroke="midnightblue" points="446.44,-127.98 456.26,-124.01 446.11,-120.98 446.44,-127.98"/>
</g>
<!-- Node5 -->
<g id="node5" class="node">
<title>Node5</title>
<g id="a_node5"><a xlink:title=" ">
<polygon fill="none" stroke="#bfbfbf" points="2142.5,-112.5 2142.5,-131.5 2207.5,-131.5 2207.5,-112.5 2142.5,-112.5"/>
<text text-anchor="middle" x="2175" y="-119.5" font-family="Helvetica,sans-Serif" font-size="10.00">exception</text>
</a>
</g>
</g>
<!-- Node3&#45;&gt;Node5 -->
<g id="edge4" class="edge">
<title>Node3&#45;&gt;Node5</title>
<path fill="none" stroke="midnightblue" d="M472.15,-288.58C732.17,-285.29 2348.67,-261.89 2418,-188 2424.08,-181.52 2423.68,-174.83 2418,-168 2392.98,-137.93 2280.31,-127.86 2217.56,-124.56"/>
<polygon fill="midnightblue" stroke="midnightblue" points="2217.72,-121.07 2207.56,-124.07 2217.38,-128.06 2217.72,-121.07"/>
</g>
<!-- Node6 -->
<g id="node6" class="node">
<title>Node6</title>
<g id="a_node6"><a xlink:title=" ">
<polygon fill="none" stroke="#bfbfbf" points="674.5,-112.5 674.5,-131.5 739.5,-131.5 739.5,-112.5 674.5,-112.5"/>
<text text-anchor="middle" x="707" y="-119.5" font-family="Helvetica,sans-Serif" font-size="10.00">functional</text>
</a>
</g>
</g>
<!-- Node3&#45;&gt;Node6 -->
<g id="edge5" class="edge">
<title>Node3&#45;&gt;Node6</title>
<path fill="none" stroke="midnightblue" d="M401.85,-281.78C313.7,-262.92 93.1,-210.69 133,-168 171.8,-126.49 571.48,-139.05 663.94,-131.6"/>
<polygon fill="midnightblue" stroke="midnightblue" points="664.49,-135.06 674.06,-130.52 663.75,-128.1 664.49,-135.06"/>
</g>
<!-- Node7 -->
<g id="node7" class="node">
<title>Node7</title>
<g id="a_node7"><a xlink:title=" ">
<polygon fill="none" stroke="#bfbfbf" points="1123,-0.5 1123,-19.5 1167,-19.5 1167,-0.5 1123,-0.5"/>
<text text-anchor="middle" x="1145" y="-7.5" font-family="Helvetica,sans-Serif" font-size="10.00">limits</text>
</a>
</g>
</g>
<!-- Node3&#45;&gt;Node7 -->
<g id="edge6" class="edge">
<title>Node3&#45;&gt;Node7</title>
<path fill="none" stroke="midnightblue" d="M401.99,-281.56C398.95,-281 395.93,-280.47 393,-280 256.48,-258.13 212.02,-296.22 84,-244 40.29,-226.17 0,-226.21 0,-179 0,-179 0,-179 0,-121 0,-6.03 926.55,-8.89 1112.67,-10.63"/>
<polygon fill="midnightblue" stroke="midnightblue" points="1112.86,-14.13 1122.9,-10.73 1112.93,-7.13 1112.86,-14.13"/>
</g>
<!-- Node8 -->
<g id="node8" class="node">
<title>Node8</title>
<g id="a_node8"><a xlink:href="cache_8h.html" target="_top" xlink:title=" ">
<polygon fill="none" stroke="black" points="1030,-224.5 1030,-243.5 1084,-243.5 1084,-224.5 1030,-224.5"/>
<text text-anchor="middle" x="1057" y="-231.5" font-family="Helvetica,sans-Serif" font-size="10.00">cache.h</text>
</a>
</g>
</g>
<!-- Node3&#45;&gt;Node8 -->
<g id="edge7" class="edge">
<title>Node3&#45;&gt;Node8</title>
<path fill="none" stroke="midnightblue" d="M472.11,-285.94C580.43,-276.51 908.79,-247.91 1019.84,-238.24"/>
<polygon fill="midnightblue" stroke="midnightblue" points="1020.23,-241.72 1029.89,-237.36 1019.62,-234.74 1020.23,-241.72"/>
</g>
<!-- Node21 -->
<g id="node21" class="node">
<title>Node21</title>
<g id="a_node21"><a xlink:href="operable_8h.html" target="_top" xlink:title=" ">
<polygon fill="none" stroke="black" points="384,-168.5 384,-187.5 452,-187.5 452,-168.5 384,-168.5"/>
<text text-anchor="middle" x="418" y="-175.5" font-family="Helvetica,sans-Serif" font-size="10.00">operable.h</text>
</a>
</g>
</g>
<!-- Node3&#45;&gt;Node21 -->
<g id="edge32" class="edge">
<title>Node3&#45;&gt;Node21</title>
<path fill="none" stroke="midnightblue" d="M435.51,-280.37C432.44,-262.62 425.37,-221.67 421.21,-197.6"/>
<polygon fill="midnightblue" stroke="midnightblue" points="424.64,-196.85 419.48,-187.59 417.74,-198.04 424.64,-196.85"/>
</g>
<!-- Node8&#45;&gt;Node4 -->
<g id="edge10" class="edge">
<title>Node8&#45;&gt;Node4</title>
<path fill="none" stroke="midnightblue" d="M1029.77,-232.48C924.27,-230.24 546.2,-220.03 504,-188 489.8,-177.22 484,-157.14 481.63,-142.13"/>
<polygon fill="midnightblue" stroke="midnightblue" points="485.07,-141.4 480.4,-131.89 478.11,-142.23 485.07,-141.4"/>
</g>
<!-- Node9 -->
<g id="node9" class="node">
<title>Node9</title>
<g id="a_node9"><a xlink:title=" ">
<polygon fill="none" stroke="#bfbfbf" points="852,-112.5 852,-131.5 894,-131.5 894,-112.5 852,-112.5"/>
<text text-anchor="middle" x="873" y="-119.5" font-family="Helvetica,sans-Serif" font-size="10.00">array</text>
</a>
</g>
</g>
<!-- Node8&#45;&gt;Node9 -->
<g id="edge8" class="edge">
<title>Node8&#45;&gt;Node9</title>
<path fill="none" stroke="midnightblue" d="M1042.56,-224.37C1010.85,-205.41 934.89,-160 896.32,-136.94"/>
<polygon fill="midnightblue" stroke="midnightblue" points="897.75,-133.72 887.37,-131.59 894.16,-139.73 897.75,-133.72"/>
</g>
<!-- Node10 -->
<g id="node10" class="node">
<title>Node10</title>
<g id="a_node10"><a xlink:title=" ">
<polygon fill="none" stroke="#bfbfbf" points="1379,-168.5 1379,-187.5 1423,-187.5 1423,-168.5 1379,-168.5"/>
<text text-anchor="middle" x="1401" y="-175.5" font-family="Helvetica,sans-Serif" font-size="10.00">bitset</text>
</a>
</g>
</g>
<!-- Node8&#45;&gt;Node10 -->
<g id="edge9" class="edge">
<title>Node8&#45;&gt;Node10</title>
<path fill="none" stroke="midnightblue" d="M1084.02,-230.4C1136.93,-225.04 1257.99,-211.43 1368.75,-188.01"/>
<polygon fill="midnightblue" stroke="midnightblue" points="1369.7,-191.39 1378.74,-185.87 1368.23,-184.54 1369.7,-191.39"/>
</g>
<!-- Node11 -->
<g id="node11" class="node">
<title>Node11</title>
<g id="a_node11"><a xlink:title=" ">
<polygon fill="none" stroke="#bfbfbf" points="1441,-168.5 1441,-187.5 1499,-187.5 1499,-168.5 1441,-168.5"/>
<text text-anchor="middle" x="1470" y="-175.5" font-family="Helvetica,sans-Serif" font-size="10.00">memory</text>
</a>
</g>
</g>
<!-- Node8&#45;&gt;Node11 -->
<g id="edge11" class="edge">
<title>Node8&#45;&gt;Node11</title>
<path fill="none" stroke="midnightblue" d="M1084.45,-230.78C1145.11,-225.64 1295.31,-211.67 1430.49,-188.1"/>
<polygon fill="midnightblue" stroke="midnightblue" points="1431.37,-191.49 1440.61,-186.31 1430.15,-184.6 1431.37,-191.49"/>
</g>
<!-- Node12 -->
<g id="node12" class="node">
<title>Node12</title>
<g id="a_node12"><a xlink:title=" ">
<polygon fill="none" stroke="#bfbfbf" points="1295.5,-168.5 1295.5,-187.5 1360.5,-187.5 1360.5,-168.5 1295.5,-168.5"/>
<text text-anchor="middle" x="1328" y="-175.5" font-family="Helvetica,sans-Serif" font-size="10.00">stdexcept</text>
</a>
</g>
</g>
<!-- Node8&#45;&gt;Node12 -->
<g id="edge12" class="edge">
<title>Node8&#45;&gt;Node12</title>
<path fill="none" stroke="midnightblue" d="M1084.3,-227.87C1125.65,-220.05 1206.88,-204.52 1285.3,-188.32"/>
<polygon fill="midnightblue" stroke="midnightblue" points="1286.26,-191.7 1295.34,-186.24 1284.84,-184.84 1286.26,-191.7"/>
</g>
<!-- Node13 -->
<g id="node13" class="node">
<title>Node13</title>
<g id="a_node13"><a xlink:title=" ">
<polygon fill="none" stroke="#bfbfbf" points="322,-168.5 322,-187.5 366,-187.5 366,-168.5 322,-168.5"/>
<text text-anchor="middle" x="344" y="-175.5" font-family="Helvetica,sans-Serif" font-size="10.00">string</text>
</a>
</g>
</g>
<!-- Node8&#45;&gt;Node13 -->
<g id="edge13" class="edge">
<title>Node8&#45;&gt;Node13</title>
<path fill="none" stroke="midnightblue" d="M1029.78,-233.31C938.42,-233.9 634.4,-232.32 376.15,-187.81"/>
<polygon fill="midnightblue" stroke="midnightblue" points="376.67,-184.35 366.21,-186.07 375.46,-191.24 376.67,-184.35"/>
</g>
<!-- Node14 -->
<g id="node14" class="node">
<title>Node14</title>
<g id="a_node14"><a xlink:title=" ">
<polygon fill="none" stroke="#bfbfbf" points="1674.5,-56.5 1674.5,-75.5 1721.5,-75.5 1721.5,-56.5 1674.5,-56.5"/>
<text text-anchor="middle" x="1698" y="-63.5" font-family="Helvetica,sans-Serif" font-size="10.00">vector</text>
</a>
</g>
</g>
<!-- Node8&#45;&gt;Node14 -->
<g id="edge14" class="edge">
<title>Node8&#45;&gt;Node14</title>
<path fill="none" stroke="midnightblue" d="M1084.33,-233C1198.79,-232.72 1635.82,-228.97 1680,-188 1708.07,-161.97 1705.54,-112.61 1701.58,-85.68"/>
<polygon fill="midnightblue" stroke="midnightblue" points="1705,-84.92 1699.88,-75.64 1698.1,-86.08 1705,-84.92"/>
</g>
<!-- Node15 -->
<g id="node15" class="node">
<title>Node15</title>
<g id="a_node15"><a xlink:href="champsim_8h.html" target="_top" xlink:title=" ">
<polygon fill="none" stroke="black" points="1803.5,-168.5 1803.5,-187.5 1880.5,-187.5 1880.5,-168.5 1803.5,-168.5"/>
<text text-anchor="middle" x="1842" y="-175.5" font-family="Helvetica,sans-Serif" font-size="10.00">champsim.h</text>
</a>
</g>
</g>
<!-- Node8&#45;&gt;Node15 -->
<g id="edge15" class="edge">
<title>Node8&#45;&gt;Node15</title>
<path fill="none" stroke="midnightblue" d="M1084.18,-231.15C1173.94,-225.03 1469,-204.88 1713,-188 1739.55,-186.16 1769.18,-184.1 1793.34,-182.41"/>
<polygon fill="midnightblue" stroke="midnightblue" points="1793.6,-185.9 1803.33,-181.71 1793.11,-178.92 1793.6,-185.9"/>
</g>
<!-- Node8&#45;&gt;Node17 -->
<g id="edge18" class="edge">
<title>Node8&#45;&gt;Node17</title>
<path fill="none" stroke="midnightblue" d="M1084.03,-232.31C1238.19,-228.35 2008.28,-207.92 2268.98,-188.08"/>
<polygon fill="midnightblue" stroke="midnightblue" points="2269.45,-191.56 2279.15,-187.29 2268.91,-184.58 2269.45,-191.56"/>
</g>
<!-- Node18 -->
<g id="node18" class="node">
<title>Node18</title>
<g id="a_node18"><a xlink:href="channel_8h.html" target="_top" xlink:title=" ">
<polygon fill="none" stroke="black" points="546,-168.5 546,-187.5 610,-187.5 610,-168.5 546,-168.5"/>
<text text-anchor="middle" x="578" y="-175.5" font-family="Helvetica,sans-Serif" font-size="10.00">channel.h</text>
</a>
</g>
</g>
<!-- Node8&#45;&gt;Node18 -->
<g id="edge19" class="edge">
<title>Node8&#45;&gt;Node18</title>
<path fill="none" stroke="midnightblue" d="M1029.84,-229.96C965.22,-222.72 797.27,-203.88 657,-188 645.12,-186.65 632.23,-185.19 620.38,-183.84"/>
<polygon fill="midnightblue" stroke="midnightblue" points="620.62,-180.34 610.29,-182.69 619.82,-187.3 620.62,-180.34"/>
</g>
<!-- Node20 -->
<g id="node20" class="node">
<title>Node20</title>
<g id="a_node20"><a xlink:href="module__impl_8h.html" target="_top" xlink:title=" ">
<polygon fill="none" stroke="black" points="1101.5,-168.5 1101.5,-187.5 1190.5,-187.5 1190.5,-168.5 1101.5,-168.5"/>
<text text-anchor="middle" x="1146" y="-175.5" font-family="Helvetica,sans-Serif" font-size="10.00">module_impl.h</text>
</a>
</g>
</g>
<!-- Node8&#45;&gt;Node20 -->
<g id="edge27" class="edge">
<title>Node8&#45;&gt;Node20</title>
<path fill="none" stroke="midnightblue" d="M1071.3,-224.32C1085.18,-215.9 1106.49,-202.97 1122.8,-193.07"/>
<polygon fill="midnightblue" stroke="midnightblue" points="1125,-195.83 1131.74,-187.65 1121.37,-189.85 1125,-195.83"/>
</g>
<!-- Node8&#45;&gt;Node21 -->
<g id="edge28" class="edge">
<title>Node8&#45;&gt;Node21</title>
<path fill="none" stroke="midnightblue" d="M1029.79,-231.99C945.65,-228.63 682.29,-216.43 466,-188 464.72,-187.83 463.43,-187.65 462.12,-187.46"/>
<polygon fill="midnightblue" stroke="midnightblue" points="462.44,-183.97 452.01,-185.85 461.34,-190.88 462.44,-183.97"/>
</g>
<!-- Node22 -->
<g id="node22" class="node">
<title>Node22</title>
<g id="a_node22"><a xlink:title=" ">
<polygon fill="none" stroke="#bfbfbf" points="1208.5,-168.5 1208.5,-187.5 1277.5,-187.5 1277.5,-168.5 1208.5,-168.5"/>
<text text-anchor="middle" x="1243" y="-175.5" font-family="Helvetica,sans-Serif" font-size="10.00">type_traits</text>
</a>
</g>
</g>
<!-- Node8&#45;&gt;Node22 -->
<g id="edge29" class="edge">
<title>Node8&#45;&gt;Node22</title>
<path fill="none" stroke="midnightblue" d="M1084.05,-225.15C1115.54,-216 1167.83,-200.82 1203.79,-190.38"/>
<polygon fill="midnightblue" stroke="midnightblue" points="1204.83,-193.72 1213.46,-187.58 1202.88,-187 1204.83,-193.72"/>
</g>
<!-- Node23 -->
<g id="node23" class="node">
<title>Node23</title>
<g id="a_node23"><a xlink:title=" ">
<polygon fill="none" stroke="#bfbfbf" points="666,-168.5 666,-187.5 796,-187.5 796,-168.5 666,-168.5"/>
<text text-anchor="middle" x="731" y="-175.5" font-family="Helvetica,sans-Serif" font-size="10.00">cache_module_decl.inc</text>
</a>
</g>
</g>
<!-- Node8&#45;&gt;Node23 -->
<g id="edge30" class="edge">
<title>Node8&#45;&gt;Node23</title>
<path fill="none" stroke="midnightblue" d="M1029.77,-228.49C977.91,-219.9 863.84,-201 792.61,-189.21"/>
<polygon fill="midnightblue" stroke="midnightblue" points="792.87,-185.7 782.43,-187.52 791.72,-192.61 792.87,-185.7"/>
</g>
<!-- Node24 -->
<g id="node24" class="node">
<title>Node24</title>
<g id="a_node24"><a xlink:title=" ">
<polygon fill="none" stroke="#bfbfbf" points="814.5,-168.5 814.5,-187.5 939.5,-187.5 939.5,-168.5 814.5,-168.5"/>
<text text-anchor="middle" x="877" y="-175.5" font-family="Helvetica,sans-Serif" font-size="10.00">cache_module_def.inc</text>
</a>
</g>
</g>
<!-- Node8&#45;&gt;Node24 -->
<g id="edge31" class="edge">
<title>Node8&#45;&gt;Node24</title>
<path fill="none" stroke="midnightblue" d="M1029.66,-224.8C999.14,-215.64 949.52,-200.76 915.18,-190.45"/>
<polygon fill="midnightblue" stroke="midnightblue" points="916.07,-187.07 905.49,-187.55 914.06,-193.77 916.07,-187.07"/>
</g>
<!-- Node15&#45;&gt;Node5 -->
<g id="edge17" class="edge">
<title>Node15&#45;&gt;Node5</title>
<path fill="none" stroke="midnightblue" d="M1880.76,-169.63C1883.88,-169.07 1886.99,-168.52 1890,-168 1975.79,-153.19 2076.45,-137.75 2132.25,-129.36"/>
<polygon fill="midnightblue" stroke="midnightblue" points="2133.1,-132.77 2142.47,-127.83 2132.06,-125.85 2133.1,-132.77"/>
</g>
<!-- Node16 -->
<g id="node16" class="node">
<title>Node16</title>
<g id="a_node16"><a xlink:title=" ">
<polygon fill="none" stroke="#bfbfbf" points="1685,-0.5 1685,-19.5 1735,-19.5 1735,-0.5 1685,-0.5"/>
<text text-anchor="middle" x="1710" y="-7.5" font-family="Helvetica,sans-Serif" font-size="10.00">cstdint</text>
</a>
</g>
</g>
<!-- Node15&#45;&gt;Node16 -->
<g id="edge16" class="edge">
<title>Node15&#45;&gt;Node16</title>
<path fill="none" stroke="midnightblue" d="M1843.69,-168.26C1847.33,-146.66 1853.59,-90.02 1827,-56 1807.48,-31.02 1772.29,-19.9 1745.59,-14.95"/>
<polygon fill="midnightblue" stroke="midnightblue" points="1745.89,-11.46 1735.46,-13.29 1744.76,-18.36 1745.89,-11.46"/>
</g>
<!-- Node18&#45;&gt;Node4 -->
<g id="edge22" class="edge">
<title>Node18&#45;&gt;Node4</title>
<path fill="none" stroke="midnightblue" d="M562.25,-168.32C546.68,-159.74 522.62,-146.49 504.54,-136.52"/>
<polygon fill="midnightblue" stroke="midnightblue" points="506.15,-133.42 495.71,-131.65 502.78,-139.55 506.15,-133.42"/>
</g>
<!-- Node18&#45;&gt;Node6 -->
<g id="edge23" class="edge">
<title>Node18&#45;&gt;Node6</title>
<path fill="none" stroke="midnightblue" d="M598.44,-168.44C619.67,-159.56 653.1,-145.56 677.25,-135.45"/>
<polygon fill="midnightblue" stroke="midnightblue" points="678.78,-138.61 686.66,-131.52 676.08,-132.15 678.78,-138.61"/>
</g>
<!-- Node18&#45;&gt;Node7 -->
<g id="edge24" class="edge">
<title>Node18&#45;&gt;Node7</title>
<path fill="none" stroke="midnightblue" d="M574.06,-168.25C568.55,-154.55 560.63,-127.94 574,-112 643.88,-28.67 1002.52,-14.06 1112.74,-11.52"/>
<polygon fill="midnightblue" stroke="midnightblue" points="1112.98,-15.02 1122.9,-11.31 1112.83,-8.02 1112.98,-15.02"/>
</g>
<!-- Node18&#45;&gt;Node9 -->
<g id="edge20" class="edge">
<title>Node18&#45;&gt;Node9</title>
<path fill="none" stroke="midnightblue" d="M610.16,-170.65C614.8,-169.75 619.52,-168.84 624,-168 702.47,-153.23 795.03,-136.75 842.12,-128.43"/>
<polygon fill="midnightblue" stroke="midnightblue" points="842.75,-131.88 851.99,-126.69 841.54,-124.98 842.75,-131.88"/>
</g>
<!-- Node18&#45;&gt;Node14 -->
<g id="edge25" class="edge">
<title>Node18&#45;&gt;Node14</title>
<path fill="none" stroke="midnightblue" d="M610.24,-172.78C624.54,-171.05 641.58,-169.18 657,-168 857.46,-152.61 1365.78,-180.06 1561,-132 1604.03,-121.41 1649.7,-96.64 1675.94,-80.92"/>
<polygon fill="midnightblue" stroke="midnightblue" points="1677.98,-83.78 1684.69,-75.58 1674.33,-77.81 1677.98,-83.78"/>
</g>
<!-- Node18&#45;&gt;Node16 -->
<g id="edge21" class="edge">
<title>Node18&#45;&gt;Node16</title>
<path fill="none" stroke="midnightblue" d="M610.24,-172.81C624.54,-171.09 641.59,-169.21 657,-168 839.94,-153.61 1302.38,-169.55 1482,-132 1549.62,-117.86 1566.93,-110.11 1627,-76 1651.94,-61.84 1677.44,-40.66 1693.48,-26.36"/>
<polygon fill="midnightblue" stroke="midnightblue" points="1695.89,-28.9 1700.95,-19.59 1691.19,-23.71 1695.89,-28.9"/>
</g>
<!-- Node19 -->
<g id="node19" class="node">
<title>Node19</title>
<g id="a_node19"><a xlink:title=" ">
<polygon fill="none" stroke="#bfbfbf" points="583.5,-112.5 583.5,-131.5 656.5,-131.5 656.5,-112.5 583.5,-112.5"/>
<text text-anchor="middle" x="620" y="-119.5" font-family="Helvetica,sans-Serif" font-size="10.00">string_view</text>
</a>
</g>
</g>
<!-- Node18&#45;&gt;Node19 -->
<g id="edge26" class="edge">
<title>Node18&#45;&gt;Node19</title>
<path fill="none" stroke="midnightblue" d="M584.94,-168.08C590.93,-160.38 599.75,-149.03 607.05,-139.65"/>
<polygon fill="midnightblue" stroke="midnightblue" points="609.82,-141.79 613.19,-131.75 604.29,-137.5 609.82,-141.79"/>
</g>
<!-- Node25&#45;&gt;Node8 -->
<g id="edge35" class="edge">
<title>Node25&#45;&gt;Node8</title>
<path fill="none" stroke="midnightblue" d="M1057,-280.08C1057,-273.01 1057,-262.86 1057,-253.99"/>
<polygon fill="midnightblue" stroke="midnightblue" points="1060.5,-253.75 1057,-243.75 1053.5,-253.75 1060.5,-253.75"/>
</g>
<!-- Node25&#45;&gt;Node17 -->
<g id="edge36" class="edge">
<title>Node25&#45;&gt;Node17</title>
<path fill="none" stroke="midnightblue" d="M1095.58,-286.35C1245.12,-275.96 1801.02,-236.25 2269.14,-188.16"/>
<polygon fill="midnightblue" stroke="midnightblue" points="2269.55,-191.64 2279.14,-187.13 2268.83,-184.68 2269.55,-191.64"/>
</g>
<!-- Node26 -->
<g id="node26" class="node">
<title>Node26</title>
<g id="a_node26"><a xlink:href="ooo__cpu_8h.html" target="_top" xlink:title=" ">
<polygon fill="none" stroke="black" points="1465,-224.5 1465,-243.5 1531,-243.5 1531,-224.5 1465,-224.5"/>
<text text-anchor="middle" x="1498" y="-231.5" font-family="Helvetica,sans-Serif" font-size="10.00">ooo_cpu.h</text>
</a>
</g>
</g>
<!-- Node25&#45;&gt;Node26 -->
<g id="edge37" class="edge">
<title>Node25&#45;&gt;Node26</title>
<path fill="none" stroke="midnightblue" d="M1095.75,-284.26C1177.87,-274.2 1368.89,-250.81 1454.8,-240.29"/>
<polygon fill="midnightblue" stroke="midnightblue" points="1455.48,-243.73 1464.98,-239.04 1454.63,-236.78 1455.48,-243.73"/>
</g>
<!-- Node25&#45;&gt;Node39 -->
<g id="edge75" class="edge">
<title>Node25&#45;&gt;Node39</title>
<path fill="none" stroke="midnightblue" d="M1018.21,-284.63C925.83,-274.21 694.24,-248.1 609.61,-238.56"/>
<polygon fill="midnightblue" stroke="midnightblue" points="609.91,-235.07 599.58,-237.43 609.12,-242.03 609.91,-235.07"/>
</g>
<!-- Node26&#45;&gt;Node4 -->
<g id="edge40" class="edge">
<title>Node26&#45;&gt;Node4</title>
<path fill="none" stroke="midnightblue" d="M1464.9,-232.18C1300.69,-228 579.65,-208.54 537,-188 515.95,-177.86 499.42,-156.01 489.7,-140.45"/>
<polygon fill="midnightblue" stroke="midnightblue" points="492.65,-138.56 484.55,-131.73 486.62,-142.12 492.65,-138.56"/>
</g>
<!-- Node26&#45;&gt;Node7 -->
<g id="edge41" class="edge">
<title>Node26&#45;&gt;Node7</title>
<path fill="none" stroke="midnightblue" d="M1531.3,-231.41C1589.26,-227.88 1705.03,-217.28 1731,-188 1769.93,-144.11 1772.37,-97.59 1731,-56 1691.79,-16.58 1294.61,-11.67 1177.4,-11.07"/>
<polygon fill="midnightblue" stroke="midnightblue" points="1177.27,-7.57 1167.26,-11.03 1177.24,-14.57 1177.27,-7.57"/>
</g>
<!-- Node26&#45;&gt;Node9 -->
<g id="edge38" class="edge">
<title>Node26&#45;&gt;Node9</title>
<path fill="none" stroke="midnightblue" d="M1503.33,-224.11C1510.89,-210.23 1522.32,-183.37 1508,-168 1487.18,-145.66 1028.84,-128.35 904.1,-124.04"/>
<polygon fill="midnightblue" stroke="midnightblue" points="904.18,-120.54 894.06,-123.69 903.94,-127.53 904.18,-120.54"/>
</g>
<!-- Node26&#45;&gt;Node10 -->
<g id="edge39" class="edge">
<title>Node26&#45;&gt;Node10</title>
<path fill="none" stroke="midnightblue" d="M1482.42,-224.32C1467,-215.74 1443.19,-202.49 1425.29,-192.52"/>
<polygon fill="midnightblue" stroke="midnightblue" points="1426.99,-189.46 1416.55,-187.65 1423.58,-195.58 1426.99,-189.46"/>
</g>
<!-- Node26&#45;&gt;Node11 -->
<g id="edge42" class="edge">
<title>Node26&#45;&gt;Node11</title>
<path fill="none" stroke="midnightblue" d="M1493.38,-224.08C1489.54,-216.69 1483.98,-205.95 1479.24,-196.81"/>
<polygon fill="midnightblue" stroke="midnightblue" points="1482.25,-195.02 1474.54,-187.75 1476.03,-198.24 1482.25,-195.02"/>
</g>
<!-- Node26&#45;&gt;Node12 -->
<g id="edge45" class="edge">
<title>Node26&#45;&gt;Node12</title>
<path fill="none" stroke="midnightblue" d="M1471.06,-224.44C1442.34,-215.32 1396.67,-200.81 1364.68,-190.65"/>
<polygon fill="midnightblue" stroke="midnightblue" points="1365.4,-187.21 1354.81,-187.52 1363.28,-193.88 1365.4,-187.21"/>
</g>
<!-- Node26&#45;&gt;Node14 -->
<g id="edge46" class="edge">
<title>Node26&#45;&gt;Node14</title>
<path fill="none" stroke="midnightblue" d="M1531.1,-231.02C1585.6,-226.99 1690.46,-215.75 1713,-188 1737.04,-158.41 1719.83,-110.57 1707.51,-84.8"/>
<polygon fill="midnightblue" stroke="midnightblue" points="1710.6,-83.15 1702.98,-75.8 1704.35,-86.31 1710.6,-83.15"/>
</g>
<!-- Node26&#45;&gt;Node15 -->
<g id="edge47" class="edge">
<title>Node26&#45;&gt;Node15</title>
<path fill="none" stroke="midnightblue" d="M1531.19,-228.03C1585.25,-219.9 1695.65,-203.14 1789,-188 1790.3,-187.79 1791.61,-187.58 1792.93,-187.36"/>
<polygon fill="midnightblue" stroke="midnightblue" points="1793.93,-190.74 1803.22,-185.65 1792.79,-183.84 1793.93,-190.74"/>
</g>
<!-- Node26&#45;&gt;Node17 -->
<g id="edge48" class="edge">
<title>Node26&#45;&gt;Node17</title>
<path fill="none" stroke="midnightblue" d="M1531.21,-231.83C1637.19,-227.95 1977.07,-214.24 2268.79,-188.15"/>
<polygon fill="midnightblue" stroke="midnightblue" points="2269.5,-191.6 2279.14,-187.22 2268.87,-184.63 2269.5,-191.6"/>
</g>
<!-- Node26&#45;&gt;Node18 -->
<g id="edge49" class="edge">
<title>Node26&#45;&gt;Node18</title>
<path fill="none" stroke="midnightblue" d="M1464.7,-231.94C1351.42,-228.17 970.63,-214.23 657,-188 645.08,-187 632.19,-185.65 620.34,-184.3"/>
<polygon fill="midnightblue" stroke="midnightblue" points="620.58,-180.8 610.24,-183.12 619.77,-187.75 620.58,-180.8"/>
</g>
<!-- Node26&#45;&gt;Node20 -->
<g id="edge59" class="edge">
<title>Node26&#45;&gt;Node20</title>
<path fill="none" stroke="midnightblue" d="M1464.9,-228.17C1411.59,-220.36 1303.17,-204.31 1200.68,-188.09"/>
<polygon fill="midnightblue" stroke="midnightblue" points="1201.21,-184.63 1190.78,-186.52 1200.11,-191.54 1201.21,-184.63"/>
</g>
<!-- Node26&#45;&gt;Node21 -->
<g id="edge60" class="edge">
<title>Node26&#45;&gt;Node21</title>
<path fill="none" stroke="midnightblue" d="M1464.92,-232.21C1339.44,-229.07 880.83,-216.22 504,-188 490.4,-186.98 475.62,-185.55 462.22,-184.13"/>
<polygon fill="midnightblue" stroke="midnightblue" points="462.59,-180.65 452.27,-183.06 461.84,-187.61 462.59,-180.65"/>
</g>
<!-- Node26&#45;&gt;Node22 -->
<g id="edge72" class="edge">
<title>Node26&#45;&gt;Node22</title>
<path fill="none" stroke="midnightblue" d="M1464.92,-226C1419.66,-216.41 1338.29,-199.18 1287.65,-188.46"/>
<polygon fill="midnightblue" stroke="midnightblue" points="1288.16,-184.98 1277.65,-186.34 1286.71,-191.83 1288.16,-184.98"/>
</g>
<!-- Node27 -->
<g id="node27" class="node">
<title>Node27</title>
<g id="a_node27"><a xlink:title=" ">
<polygon fill="none" stroke="#bfbfbf" points="1061,-56.5 1061,-75.5 1117,-75.5 1117,-56.5 1061,-56.5"/>
<text text-anchor="middle" x="1089" y="-63.5" font-family="Helvetica,sans-Serif" font-size="10.00">optional</text>
</a>
</g>
</g>
<!-- Node26&#45;&gt;Node27 -->
<g id="edge43" class="edge">
<title>Node26&#45;&gt;Node27</title>
<path fill="none" stroke="midnightblue" d="M1506.76,-224.44C1519.49,-211 1540,-184.75 1525,-168 1476.69,-114.02 1269.81,-154.67 1201,-132 1165.87,-120.43 1129.65,-96.89 1108.23,-81.54"/>
<polygon fill="midnightblue" stroke="midnightblue" points="1110.15,-78.6 1100.01,-75.52 1106.01,-84.25 1110.15,-78.6"/>
</g>
<!-- Node28 -->
<g id="node28" class="node">
<title>Node28</title>
<g id="a_node28"><a xlink:title=" ">
<polygon fill="none" stroke="#bfbfbf" points="1898.5,-168.5 1898.5,-187.5 1945.5,-187.5 1945.5,-168.5 1898.5,-168.5"/>
<text text-anchor="middle" x="1922" y="-175.5" font-family="Helvetica,sans-Serif" font-size="10.00">queue</text>
</a>
</g>
</g>
<!-- Node26&#45;&gt;Node28 -->
<g id="edge44" class="edge">
<title>Node26&#45;&gt;Node28</title>
<path fill="none" stroke="midnightblue" d="M1531.06,-231C1597.28,-226.6 1751,-214.47 1888.47,-188.04"/>
<polygon fill="midnightblue" stroke="midnightblue" points="1889.19,-191.46 1898.34,-186.11 1887.85,-184.59 1889.19,-191.46"/>
</g>
<!-- Node29 -->
<g id="node29" class="node">
<title>Node29</title>
<g id="a_node29"><a xlink:href="instruction_8h.html" target="_top" xlink:title=" ">
<polygon fill="none" stroke="black" points="1593.5,-168.5 1593.5,-187.5 1670.5,-187.5 1670.5,-168.5 1593.5,-168.5"/>
<text text-anchor="middle" x="1632" y="-175.5" font-family="Helvetica,sans-Serif" font-size="10.00">instruction.h</text>
</a>
</g>
</g>
<!-- Node26&#45;&gt;Node29 -->
<g id="edge50" class="edge">
<title>Node26&#45;&gt;Node29</title>
<path fill="none" stroke="midnightblue" d="M1519.23,-224.44C1541.38,-215.52 1576.32,-201.44 1601.44,-191.32"/>
<polygon fill="midnightblue" stroke="midnightblue" points="1602.9,-194.5 1610.87,-187.52 1600.28,-188.01 1602.9,-194.5"/>
</g>
<!-- Node32 -->
<g id="node32" class="node">
<title>Node32</title>
<g id="a_node32"><a xlink:href="util_2lru__table_8h.html" target="_top" xlink:title=" ">
<polygon fill="none" stroke="black" points="996.5,-168.5 996.5,-187.5 1083.5,-187.5 1083.5,-168.5 996.5,-168.5"/>
<text text-anchor="middle" x="1040" y="-175.5" font-family="Helvetica,sans-Serif" font-size="10.00">util/lru_table.h</text>
</a>
</g>
</g>
<!-- Node26&#45;&gt;Node32 -->
<g id="edge61" class="edge">
<title>Node26&#45;&gt;Node32</title>
<path fill="none" stroke="midnightblue" d="M1464.85,-229.97C1397.16,-223.64 1238.03,-208.04 1093.57,-188"/>
<polygon fill="midnightblue" stroke="midnightblue" points="1094.03,-184.53 1083.64,-186.62 1093.06,-191.47 1094.03,-184.53"/>
</g>
<!-- Node37 -->
<g id="node37" class="node">
<title>Node37</title>
<g id="a_node37"><a xlink:title=" ">
<polygon fill="none" stroke="#bfbfbf" points="1964,-168.5 1964,-187.5 2106,-187.5 2106,-168.5 1964,-168.5"/>
<text text-anchor="middle" x="2035" y="-175.5" font-family="Helvetica,sans-Serif" font-size="10.00">ooo_cpu_module_decl.inc</text>
</a>
</g>
</g>
<!-- Node26&#45;&gt;Node37 -->
<g id="edge73" class="edge">
<title>Node26&#45;&gt;Node37</title>
<path fill="none" stroke="midnightblue" d="M1531.27,-229.88C1605.15,-222.93 1788.7,-205.46 1953.58,-188.14"/>
<polygon fill="midnightblue" stroke="midnightblue" points="1954.33,-191.58 1963.91,-187.05 1953.59,-184.62 1954.33,-191.58"/>
</g>
<!-- Node38 -->
<g id="node38" class="node">
<title>Node38</title>
<g id="a_node38"><a xlink:title=" ">
<polygon fill="none" stroke="#bfbfbf" points="2124.5,-168.5 2124.5,-187.5 2261.5,-187.5 2261.5,-168.5 2124.5,-168.5"/>
<text text-anchor="middle" x="2193" y="-175.5" font-family="Helvetica,sans-Serif" font-size="10.00">ooo_cpu_module_def.inc</text>
</a>
</g>
</g>
<!-- Node26&#45;&gt;Node38 -->
<g id="edge74" class="edge">
<title>Node26&#45;&gt;Node38</title>
<path fill="none" stroke="midnightblue" d="M1531.15,-231.07C1622.28,-225.68 1884.48,-209.44 2113.9,-188.06"/>
<polygon fill="midnightblue" stroke="midnightblue" points="2114.48,-191.53 2124.11,-187.11 2113.83,-184.56 2114.48,-191.53"/>
</g>
<!-- Node29&#45;&gt;Node6 -->
<g id="edge54" class="edge">
<title>Node29&#45;&gt;Node6</title>
<path fill="none" stroke="midnightblue" d="M1593.47,-174.02C1569,-172.17 1536.65,-169.82 1508,-168 1212.6,-149.29 1138.45,-149.77 843,-132 811.83,-130.12 776.65,-127.79 749.88,-125.97"/>
<polygon fill="midnightblue" stroke="midnightblue" points="749.91,-122.46 739.69,-125.27 749.43,-129.45 749.91,-122.46"/>
</g>
<!-- Node29&#45;&gt;Node7 -->
<g id="edge55" class="edge">
<title>Node29&#45;&gt;Node7</title>
<path fill="none" stroke="midnightblue" d="M1593.42,-172.55C1521.12,-164.04 1367.84,-145.14 1316,-132 1246.62,-114.41 1214.16,-128.03 1165,-76 1153.23,-63.54 1148.37,-44.31 1146.38,-29.99"/>
<polygon fill="midnightblue" stroke="midnightblue" points="1149.83,-29.37 1145.32,-19.79 1142.87,-30.09 1149.83,-29.37"/>
</g>
<!-- Node29&#45;&gt;Node9 -->
<g id="edge52" class="edge">
<title>Node29&#45;&gt;Node9</title>
<path fill="none" stroke="midnightblue" d="M1593.06,-172.88C1576.95,-171.24 1558.09,-169.42 1541,-168 1295.9,-147.63 999.61,-130.19 904.2,-124.75"/>
<polygon fill="midnightblue" stroke="midnightblue" points="904.26,-121.25 894.08,-124.18 903.86,-128.24 904.26,-121.25"/>
</g>
<!-- Node29&#45;&gt;Node14 -->
<g id="edge56" class="edge">
<title>Node29&#45;&gt;Node14</title>
<path fill="none" stroke="midnightblue" d="M1637.18,-168.37C1648.02,-150.3 1673.29,-108.18 1687.62,-84.31"/>
<polygon fill="midnightblue" stroke="midnightblue" points="1690.7,-85.97 1692.85,-75.59 1684.7,-82.37 1690.7,-85.97"/>
</g>
<!-- Node29&#45;&gt;Node16 -->
<g id="edge53" class="edge">
<title>Node29&#45;&gt;Node16</title>
<path fill="none" stroke="midnightblue" d="M1646.04,-168.26C1669.13,-152.93 1714.22,-118.74 1731,-76 1737.28,-60.01 1729.73,-41.31 1721.99,-28.08"/>
<polygon fill="midnightblue" stroke="midnightblue" points="1724.86,-26.06 1716.52,-19.53 1718.96,-29.84 1724.86,-26.06"/>
</g>
<!-- Node30 -->
<g id="node30" class="node">
<title>Node30</title>
<g id="a_node30"><a xlink:title=" ">
<polygon fill="none" stroke="#bfbfbf" points="1554,-56.5 1554,-75.5 1618,-75.5 1618,-56.5 1554,-56.5"/>
<text text-anchor="middle" x="1586" y="-63.5" font-family="Helvetica,sans-Serif" font-size="10.00">algorithm</text>
</a>
</g>
</g>
<!-- Node29&#45;&gt;Node30 -->
<g id="edge51" class="edge">
<title>Node29&#45;&gt;Node30</title>
<path fill="none" stroke="midnightblue" d="M1628.39,-168.37C1620.9,-150.46 1603.53,-108.92 1593.51,-84.95"/>
<polygon fill="midnightblue" stroke="midnightblue" points="1596.68,-83.47 1589.59,-75.59 1590.22,-86.17 1596.68,-83.47"/>
</g>
<!-- Node31 -->
<g id="node31" class="node">
<title>Node31</title>
<g id="a_node31"><a xlink:href="trace__instruction_8h.html" target="_top" xlink:title=" ">
<polygon fill="none" stroke="black" points="1173.5,-56.5 1173.5,-75.5 1280.5,-75.5 1280.5,-56.5 1173.5,-56.5"/>
<text text-anchor="middle" x="1227" y="-63.5" font-family="Helvetica,sans-Serif" font-size="10.00">trace_instruction.h</text>
</a>
</g>
</g>
<!-- Node29&#45;&gt;Node31 -->
<g id="edge57" class="edge">
<title>Node29&#45;&gt;Node31</title>
<path fill="none" stroke="midnightblue" d="M1593.37,-170.36C1522.9,-158.23 1380.22,-133.58 1375,-132 1330.11,-118.43 1280.76,-94.88 1251.9,-80.16"/>
<polygon fill="midnightblue" stroke="midnightblue" points="1253.43,-77.01 1242.94,-75.53 1250.22,-83.23 1253.43,-77.01"/>
</g>
<!-- Node31&#45;&gt;Node7 -->
<g id="edge58" class="edge">
<title>Node31&#45;&gt;Node7</title>
<path fill="none" stroke="midnightblue" d="M1213.83,-56.32C1201.15,-47.98 1181.77,-35.21 1166.79,-25.35"/>
<polygon fill="midnightblue" stroke="midnightblue" points="1168.42,-22.23 1158.14,-19.65 1164.57,-28.08 1168.42,-22.23"/>
</g>
<!-- Node33 -->
<g id="node33" class="node">
<title>Node33</title>
<g id="a_node33"><a xlink:href="msl_2lru__table_8h.html" target="_top" xlink:title=" ">
<polygon fill="none" stroke="black" points="1383.5,-112.5 1383.5,-131.5 1472.5,-131.5 1472.5,-112.5 1383.5,-112.5"/>
<text text-anchor="middle" x="1428" y="-119.5" font-family="Helvetica,sans-Serif" font-size="10.00">msl/lru_table.h</text>
</a>
</g>
</g>
<!-- Node32&#45;&gt;Node33 -->
<g id="edge62" class="edge">
<title>Node32&#45;&gt;Node33</title>
<path fill="none" stroke="midnightblue" d="M1083.65,-169.46C1086.81,-168.96 1089.96,-168.46 1093,-168 1191.57,-153.01 1306.87,-138.1 1373.27,-129.76"/>
<polygon fill="midnightblue" stroke="midnightblue" points="1374.01,-133.2 1383.5,-128.48 1373.14,-126.25 1374.01,-133.2"/>
</g>
<!-- Node33&#45;&gt;Node14 -->
<g id="edge68" class="edge">
<title>Node33&#45;&gt;Node14</title>
<path fill="none" stroke="midnightblue" d="M1470.78,-112.44C1524.39,-101.72 1615.17,-83.57 1664.19,-73.76"/>
<polygon fill="midnightblue" stroke="midnightblue" points="1665.15,-77.14 1674.27,-71.75 1663.78,-70.27 1665.15,-77.14"/>
</g>
<!-- Node33&#45;&gt;Node16 -->
<g id="edge65" class="edge">
<title>Node33&#45;&gt;Node16</title>
<path fill="none" stroke="midnightblue" d="M1442.98,-112.41C1472.11,-95.75 1534.51,-60.27 1545,-56 1588.36,-38.34 1640.91,-25.36 1674.87,-18"/>
<polygon fill="midnightblue" stroke="midnightblue" points="1675.73,-21.4 1684.79,-15.9 1674.28,-14.55 1675.73,-21.4"/>
</g>
<!-- Node33&#45;&gt;Node27 -->
<g id="edge66" class="edge">
<title>Node33&#45;&gt;Node27</title>
<path fill="none" stroke="midnightblue" d="M1383.33,-113.88C1316.23,-103.2 1190.56,-83.18 1127.36,-73.11"/>
<polygon fill="midnightblue" stroke="midnightblue" points="1127.83,-69.64 1117.41,-71.53 1126.73,-76.55 1127.83,-69.64"/>
</g>
<!-- Node33&#45;&gt;Node30 -->
<g id="edge63" class="edge">
<title>Node33&#45;&gt;Node30</title>
<path fill="none" stroke="midnightblue" d="M1453.04,-112.44C1479.62,-103.36 1521.81,-88.94 1551.52,-78.78"/>
<polygon fill="midnightblue" stroke="midnightblue" points="1552.75,-82.06 1561.08,-75.52 1550.49,-75.44 1552.75,-82.06"/>
</g>
<!-- Node34 -->
<g id="node34" class="node">
<title>Node34</title>
<g id="a_node34"><a xlink:title=" ">
<polygon fill="none" stroke="#bfbfbf" points="1299,-56.5 1299,-75.5 1351,-75.5 1351,-56.5 1299,-56.5"/>
<text text-anchor="middle" x="1325" y="-63.5" font-family="Helvetica,sans-Serif" font-size="10.00">cassert</text>
</a>
</g>
</g>
<!-- Node33&#45;&gt;Node34 -->
<g id="edge64" class="edge">
<title>Node33&#45;&gt;Node34</title>
<path fill="none" stroke="midnightblue" d="M1411.45,-112.32C1395.01,-103.7 1369.57,-90.36 1350.53,-80.39"/>
<polygon fill="midnightblue" stroke="midnightblue" points="1351.99,-77.2 1341.51,-75.65 1348.74,-83.4 1351.99,-77.2"/>
</g>
<!-- Node35 -->
<g id="node35" class="node">
<title>Node35</title>
<g id="a_node35"><a xlink:title=" ">
<polygon fill="none" stroke="#bfbfbf" points="1369.5,-56.5 1369.5,-75.5 1414.5,-75.5 1414.5,-56.5 1369.5,-56.5"/>
<text text-anchor="middle" x="1392" y="-63.5" font-family="Helvetica,sans-Serif" font-size="10.00">utility</text>
</a>
</g>
</g>
<!-- Node33&#45;&gt;Node35 -->
<g id="edge67" class="edge">
<title>Node33&#45;&gt;Node35</title>
<path fill="none" stroke="midnightblue" d="M1422.06,-112.08C1417.02,-104.53 1409.66,-93.49 1403.49,-84.23"/>
<polygon fill="midnightblue" stroke="midnightblue" points="1406.29,-82.13 1397.83,-75.75 1400.47,-86.01 1406.29,-82.13"/>
</g>
<!-- Node36 -->
<g id="node36" class="node">
<title>Node36</title>
<g id="a_node36"><a xlink:href="msl_2bits_8h.html" target="_top" xlink:title=" ">
<polygon fill="none" stroke="black" points="1432.5,-56.5 1432.5,-75.5 1497.5,-75.5 1497.5,-56.5 1432.5,-56.5"/>
<text text-anchor="middle" x="1465" y="-63.5" font-family="Helvetica,sans-Serif" font-size="10.00">msl/bits.h</text>
</a>
</g>
</g>
<!-- Node33&#45;&gt;Node36 -->
<g id="edge69" class="edge">
<title>Node33&#45;&gt;Node36</title>
<path fill="none" stroke="midnightblue" d="M1434.11,-112.08C1439.28,-104.53 1446.85,-93.49 1453.19,-84.23"/>
<polygon fill="midnightblue" stroke="midnightblue" points="1456.24,-85.98 1459,-75.75 1450.46,-82.02 1456.24,-85.98"/>
</g>
<!-- Node36&#45;&gt;Node7 -->
<g id="edge71" class="edge">
<title>Node36&#45;&gt;Node7</title>
<path fill="none" stroke="midnightblue" d="M1432.36,-57.66C1429.54,-57.08 1426.72,-56.52 1424,-56 1334.94,-39.06 1229.1,-23.13 1177.09,-15.58"/>
<polygon fill="midnightblue" stroke="midnightblue" points="1177.53,-12.1 1167.14,-14.14 1176.53,-19.03 1177.53,-12.1"/>
</g>
<!-- Node36&#45;&gt;Node16 -->
<g id="edge70" class="edge">
<title>Node36&#45;&gt;Node16</title>
<path fill="none" stroke="midnightblue" d="M1497.53,-57.83C1543.62,-47.67 1627.55,-29.17 1674.96,-18.72"/>
<polygon fill="midnightblue" stroke="midnightblue" points="1675.77,-22.13 1684.78,-16.56 1674.26,-15.29 1675.77,-22.13"/>
</g>
<!-- Node39&#45;&gt;Node4 -->
<g id="edge77" class="edge">
<title>Node39&#45;&gt;Node4</title>
<path fill="none" stroke="midnightblue" d="M556.43,-232.75C498.94,-231.58 344.24,-224.99 313,-188 274.56,-142.48 387.08,-128.69 446.22,-124.63"/>
<polygon fill="midnightblue" stroke="midnightblue" points="446.49,-128.12 456.25,-124 446.05,-121.13 446.49,-128.12"/>
</g>
<!-- Node39&#45;&gt;Node9 -->
<g id="edge76" class="edge">
<title>Node39&#45;&gt;Node9</title>
<path fill="none" stroke="midnightblue" d="M585.81,-224.28C599,-210.12 627.21,-182.28 657,-168 718.3,-138.62 798.41,-128.35 841.79,-124.81"/>
<polygon fill="midnightblue" stroke="midnightblue" points="842.29,-128.28 852,-124.05 841.76,-121.3 842.29,-128.28"/>
</g>
<!-- Node39&#45;&gt;Node13 -->
<g id="edge78" class="edge">
<title>Node39&#45;&gt;Node13</title>
<path fill="none" stroke="midnightblue" d="M556.26,-228.66C520.66,-221.45 447.54,-206.22 376.33,-188.22"/>
<polygon fill="midnightblue" stroke="midnightblue" points="376.86,-184.74 366.3,-185.66 375.13,-191.52 376.86,-184.74"/>
</g>
<!-- Node39&#45;&gt;Node18 -->
<g id="edge79" class="edge">
<title>Node39&#45;&gt;Node18</title>
<path fill="none" stroke="midnightblue" d="M578,-224.08C578,-217.01 578,-206.86 578,-197.99"/>
<polygon fill="midnightblue" stroke="midnightblue" points="581.5,-197.75 578,-187.75 574.5,-197.75 581.5,-197.75"/>
</g>
<!-- Node39&#45;&gt;Node21 -->
<g id="edge80" class="edge">
<title>Node39&#45;&gt;Node21</title>
<path fill="none" stroke="midnightblue" d="M556.42,-225.72C529.94,-216.78 484.69,-201.51 453.17,-190.87"/>
<polygon fill="midnightblue" stroke="midnightblue" points="454.05,-187.47 443.45,-187.59 451.81,-194.1 454.05,-187.47"/>
</g>
<!-- Node39&#45;&gt;Node32 -->
<g id="edge81" class="edge">
<title>Node39&#45;&gt;Node32</title>
<path fill="none" stroke="midnightblue" d="M599.66,-230.47C668.65,-222.4 884.63,-197.16 986.2,-185.29"/>
<polygon fill="midnightblue" stroke="midnightblue" points="986.72,-188.75 996.25,-184.11 985.91,-181.8 986.72,-188.75"/>
</g>
<!-- Node40&#45;&gt;Node7 -->
<g id="edge85" class="edge">
<title>Node40&#45;&gt;Node7</title>
<path fill="none" stroke="midnightblue" d="M292.85,-233.77C217.58,-233.09 90.26,-223.98 133,-168 190.31,-92.93 246.01,-133.41 338,-112 465.85,-82.24 497.99,-74.16 628,-56 810.53,-30.5 1031.47,-17.02 1112.88,-12.63"/>
<polygon fill="midnightblue" stroke="midnightblue" points="1113.19,-16.12 1122.99,-12.1 1112.82,-9.13 1113.19,-16.12"/>
</g>
<!-- Node40&#45;&gt;Node9 -->
<g id="edge83" class="edge">
<title>Node40&#45;&gt;Node9</title>
<path fill="none" stroke="midnightblue" d="M334.32,-224.48C320.24,-211.09 297.4,-184.91 313,-168 317.53,-163.09 724.72,-133.61 841.83,-125.22"/>
<polygon fill="midnightblue" stroke="midnightblue" points="842.2,-128.71 851.92,-124.5 841.7,-121.72 842.2,-128.71"/>
</g>
<!-- Node40&#45;&gt;Node13 -->
<g id="edge87" class="edge">
<title>Node40&#45;&gt;Node13</title>
<path fill="none" stroke="midnightblue" d="M344,-224.08C344,-217.01 344,-206.86 344,-197.99"/>
<polygon fill="midnightblue" stroke="midnightblue" points="347.5,-197.75 344,-187.75 340.5,-197.75 347.5,-197.75"/>
</g>
<!-- Node40&#45;&gt;Node17 -->
<g id="edge88" class="edge">
<title>Node40&#45;&gt;Node17</title>
<path fill="none" stroke="midnightblue" d="M395.3,-230.39C436.33,-228.39 495.35,-225.68 547,-224 1309.62,-199.14 1504.87,-242.57 2269,-188.07"/>
<polygon fill="midnightblue" stroke="midnightblue" points="2269.43,-191.55 2279.15,-187.34 2268.93,-184.57 2269.43,-191.55"/>
</g>
<!-- Node40&#45;&gt;Node18 -->
<g id="edge89" class="edge">
<title>Node40&#45;&gt;Node18</title>
<path fill="none" stroke="midnightblue" d="M381.08,-224.44C423.28,-214.7 492.06,-198.83 536.15,-188.66"/>
<polygon fill="midnightblue" stroke="midnightblue" points="537.03,-192.05 545.98,-186.39 535.45,-185.23 537.03,-192.05"/>
</g>
<!-- Node40&#45;&gt;Node21 -->
<g id="edge90" class="edge">
<title>Node40&#45;&gt;Node21</title>
<path fill="none" stroke="midnightblue" d="M355.89,-224.32C367.15,-216.11 384.29,-203.6 397.71,-193.81"/>
<polygon fill="midnightblue" stroke="midnightblue" points="399.88,-196.56 405.89,-187.83 395.75,-190.9 399.88,-196.56"/>
</g>
<!-- Node40&#45;&gt;Node27 -->
<g id="edge86" class="edge">
<title>Node40&#45;&gt;Node27</title>
<path fill="none" stroke="midnightblue" d="M331.48,-224.49C314.64,-211.98 288.32,-187.94 302,-168 341.07,-111.03 379.57,-127.03 447,-112 563.18,-86.11 930.7,-72.14 1050.69,-68.19"/>
<polygon fill="midnightblue" stroke="midnightblue" points="1050.99,-71.68 1060.87,-67.86 1050.76,-64.68 1050.99,-71.68"/>
</g>
<!-- Node41 -->
<g id="node41" class="node">
<title>Node41</title>
<g id="a_node41"><a xlink:title=" ">
<polygon fill="none" stroke="#bfbfbf" points="142.5,-168.5 142.5,-187.5 189.5,-187.5 189.5,-168.5 142.5,-168.5"/>
<text text-anchor="middle" x="166" y="-175.5" font-family="Helvetica,sans-Serif" font-size="10.00">cmath</text>
</a>
</g>
</g>
<!-- Node40&#45;&gt;Node41 -->
<g id="edge84" class="edge">
<title>Node40&#45;&gt;Node41</title>
<path fill="none" stroke="midnightblue" d="M315.8,-224.44C284.17,-214.85 232.92,-199.3 199.34,-189.11"/>
<polygon fill="midnightblue" stroke="midnightblue" points="200.11,-185.69 189.53,-186.14 198.08,-192.39 200.11,-185.69"/>
</g>
<!-- Node42&#45;&gt;Node16 -->
<g id="edge93" class="edge">
<title>Node42&#45;&gt;Node16</title>
<path fill="none" stroke="midnightblue" d="M2500.72,-224.41C2510.4,-210.94 2525.69,-184.63 2512,-168 2412.36,-46.97 1887.09,-17.9 1745.3,-12.21"/>
<polygon fill="midnightblue" stroke="midnightblue" points="1745.14,-8.71 1735.01,-11.82 1744.87,-15.7 1745.14,-8.71"/>
</g>
<!-- Node42&#45;&gt;Node17 -->
<g id="edge95" class="edge">
<title>Node42&#45;&gt;Node17</title>
<path fill="none" stroke="midnightblue" d="M2470.23,-224.44C2445.11,-215.4 2405.29,-201.06 2377.1,-190.92"/>
<polygon fill="midnightblue" stroke="midnightblue" points="2378.25,-187.61 2367.66,-187.52 2375.88,-194.2 2378.25,-187.61"/>
</g>
<!-- Node43 -->
<g id="node43" class="node">
<title>Node43</title>
<g id="a_node43"><a xlink:title=" ">
<polygon fill="none" stroke="#bfbfbf" points="2465,-168.5 2465,-187.5 2503,-187.5 2503,-168.5 2465,-168.5"/>
<text text-anchor="middle" x="2484" y="-175.5" font-family="Helvetica,sans-Serif" font-size="10.00">map</text>
</a>
</g>
</g>
<!-- Node42&#45;&gt;Node43 -->
<g id="edge94" class="edge">
<title>Node42&#45;&gt;Node43</title>
<path fill="none" stroke="midnightblue" d="M2492.35,-224.08C2491.02,-216.93 2489.12,-206.64 2487.46,-197.69"/>
<polygon fill="midnightblue" stroke="midnightblue" points="2490.88,-196.95 2485.62,-187.75 2484,-198.22 2490.88,-196.95"/>
</g>
</g>
</svg>
