<?xml version="1.0" encoding="UTF-8" standalone="no"?>
<!DOCTYPE svg PUBLIC "-//W3C//DTD SVG 1.1//EN"
 "http://www.w3.org/Graphics/SVG/1.1/DTD/svg11.dtd">
<!-- Generated by graphviz version 2.43.0 (0)
 -->
<!-- Title: test/cpp/src/802&#45;pte&#45;page.cc Pages: 1 -->
<svg width="687pt" height="207pt"
 viewBox="0.00 0.00 687.00 207.00" xmlns="http://www.w3.org/2000/svg" xmlns:xlink="http://www.w3.org/1999/xlink">
<g id="graph0" class="graph" transform="scale(1 1) rotate(0) translate(4 203)">
<title>test/cpp/src/802&#45;pte&#45;page.cc</title>
<!-- Node1 -->
<g id="node1" class="node">
<title>Node1</title>
<g id="a_node1"><a xlink:title=" ">
<polygon fill="#bfbfbf" stroke="black" points="111.5,-168.5 111.5,-198.5 224.5,-198.5 224.5,-168.5 111.5,-168.5"/>
<text text-anchor="start" x="119.5" y="-186.5" font-family="Helvetica,sans-Serif" font-size="10.00">test/cpp/src/802&#45;pte</text>
<text text-anchor="middle" x="168" y="-175.5" font-family="Helvetica,sans-Serif" font-size="10.00">&#45;page.cc</text>
</a>
</g>
</g>
<!-- Node2 -->
<g id="node2" class="node">
<title>Node2</title>
<g id="a_node2"><a xlink:title=" ">
<polygon fill="none" stroke="#bfbfbf" points="0,-112.5 0,-131.5 64,-131.5 64,-112.5 0,-112.5"/>
<text text-anchor="middle" x="32" y="-119.5" font-family="Helvetica,sans-Serif" font-size="10.00">catch.hpp</text>
</a>
</g>
</g>
<!-- Node1&#45;&gt;Node2 -->
<g id="edge1" class="edge">
<title>Node1&#45;&gt;Node2</title>
<path fill="none" stroke="midnightblue" d="M135.77,-168.4C113.16,-158.51 83.16,-145.38 61.24,-135.79"/>
<polygon fill="midnightblue" stroke="midnightblue" points="62.35,-132.46 51.79,-131.66 59.55,-138.87 62.35,-132.46"/>
</g>
<!-- Node3 -->
<g id="node3" class="node">
<title>Node3</title>
<g id="a_node3"><a xlink:href="vmem_8h.html" target="_top" xlink:title=" ">
<polygon fill="none" stroke="black" points="82.5,-112.5 82.5,-131.5 139.5,-131.5 139.5,-112.5 82.5,-112.5"/>
<text text-anchor="middle" x="111" y="-119.5" font-family="Helvetica,sans-Serif" font-size="10.00">vmem.h</text>
</a>
</g>
</g>
<!-- Node1&#45;&gt;Node3 -->
<g id="edge2" class="edge">
<title>Node1&#45;&gt;Node3</title>
<path fill="none" stroke="midnightblue" d="M154.49,-168.4C146.04,-159.58 135.12,-148.18 126.34,-139.02"/>
<polygon fill="midnightblue" stroke="midnightblue" points="128.74,-136.46 119.29,-131.66 123.68,-141.3 128.74,-136.46"/>
</g>
<!-- Node6 -->
<g id="node6" class="node">
<title>Node6</title>
<g id="a_node6"><a xlink:title=" ">
<polygon fill="none" stroke="#bfbfbf" points="75.5,-56.5 75.5,-75.5 204.5,-75.5 204.5,-56.5 75.5,-56.5"/>
<text text-anchor="middle" x="140" y="-63.5" font-family="Helvetica,sans-Serif" font-size="10.00">champsim_constants.h</text>
</a>
</g>
</g>
<!-- Node1&#45;&gt;Node6 -->
<g id="edge7" class="edge">
<title>Node1&#45;&gt;Node6</title>
<path fill="none" stroke="midnightblue" d="M164.57,-168.34C159.52,-147.53 150.1,-108.66 144.51,-85.58"/>
<polygon fill="midnightblue" stroke="midnightblue" points="147.86,-84.56 142.1,-75.67 141.06,-86.21 147.86,-84.56"/>
</g>
<!-- Node7 -->
<g id="node7" class="node">
<title>Node7</title>
<g id="a_node7"><a xlink:title=" ">
<polygon fill="none" stroke="#bfbfbf" points="222.5,-56.5 222.5,-75.5 269.5,-75.5 269.5,-56.5 222.5,-56.5"/>
<text text-anchor="middle" x="246" y="-63.5" font-family="Helvetica,sans-Serif" font-size="10.00">cmath</text>
</a>
</g>
</g>
<!-- Node1&#45;&gt;Node7 -->
<g id="edge6" class="edge">
<title>Node1&#45;&gt;Node7</title>
<path fill="none" stroke="midnightblue" d="M177.56,-168.34C191.94,-147.05 219.06,-106.89 234.5,-84.03"/>
<polygon fill="midnightblue" stroke="midnightblue" points="237.45,-85.92 240.15,-75.67 231.65,-82 237.45,-85.92"/>
</g>
<!-- Node8 -->
<g id="node8" class="node">
<title>Node8</title>
<g id="a_node8"><a xlink:href="dram__controller_8h.html" target="_top" xlink:title=" ">
<polygon fill="none" stroke="black" points="333,-112.5 333,-131.5 435,-131.5 435,-112.5 333,-112.5"/>
<text text-anchor="middle" x="384" y="-119.5" font-family="Helvetica,sans-Serif" font-size="10.00">dram_controller.h</text>
</a>
</g>
</g>
<!-- Node1&#45;&gt;Node8 -->
<g id="edge8" class="edge">
<title>Node1&#45;&gt;Node8</title>
<path fill="none" stroke="midnightblue" d="M218.92,-168.47C256.83,-158.03 307.92,-143.96 343.17,-134.25"/>
<polygon fill="midnightblue" stroke="midnightblue" points="344.41,-137.54 353.12,-131.51 342.55,-130.79 344.41,-137.54"/>
</g>
<!-- Node4 -->
<g id="node4" class="node">
<title>Node4</title>
<g id="a_node4"><a xlink:title=" ">
<polygon fill="none" stroke="#bfbfbf" points="87,-0.5 87,-19.5 137,-19.5 137,-0.5 87,-0.5"/>
<text text-anchor="middle" x="112" y="-7.5" font-family="Helvetica,sans-Serif" font-size="10.00">cstdint</text>
</a>
</g>
</g>
<!-- Node3&#45;&gt;Node4 -->
<g id="edge3" class="edge">
<title>Node3&#45;&gt;Node4</title>
<path fill="none" stroke="midnightblue" d="M83.07,-112.36C56.19,-103.42 18.41,-88.96 10,-76 5.16,-68.54 5.15,-63.45 10,-56 24.73,-33.4 53.66,-22.07 76.95,-16.44"/>
<polygon fill="midnightblue" stroke="midnightblue" points="77.83,-19.83 86.86,-14.29 76.35,-12.99 77.83,-19.83"/>
</g>
<!-- Node5 -->
<g id="node5" class="node">
<title>Node5</title>
<g id="a_node5"><a xlink:title=" ">
<polygon fill="none" stroke="#bfbfbf" points="19,-56.5 19,-75.5 57,-75.5 57,-56.5 19,-56.5"/>
<text text-anchor="middle" x="38" y="-63.5" font-family="Helvetica,sans-Serif" font-size="10.00">map</text>
</a>
</g>
</g>
<!-- Node3&#45;&gt;Node5 -->
<g id="edge4" class="edge">
<title>Node3&#45;&gt;Node5</title>
<path fill="none" stroke="midnightblue" d="M99.27,-112.32C88.16,-104.11 71.26,-91.6 58.02,-81.81"/>
<polygon fill="midnightblue" stroke="midnightblue" points="60.06,-78.97 49.94,-75.83 55.9,-84.59 60.06,-78.97"/>
</g>
<!-- Node3&#45;&gt;Node6 -->
<g id="edge5" class="edge">
<title>Node3&#45;&gt;Node6</title>
<path fill="none" stroke="midnightblue" d="M115.79,-112.08C119.76,-104.69 125.53,-93.95 130.43,-84.81"/>
<polygon fill="midnightblue" stroke="midnightblue" points="133.65,-86.22 135.3,-75.75 127.49,-82.91 133.65,-86.22"/>
</g>
<!-- Node8&#45;&gt;Node6 -->
<g id="edge14" class="edge">
<title>Node8&#45;&gt;Node6</title>
<path fill="none" stroke="midnightblue" d="M345.34,-112.44C302.86,-103.04 234.57,-87.93 188.53,-77.74"/>
<polygon fill="midnightblue" stroke="midnightblue" points="189,-74.26 178.48,-75.52 187.49,-81.09 189,-74.26"/>
</g>
<!-- Node8&#45;&gt;Node7 -->
<g id="edge10" class="edge">
<title>Node8&#45;&gt;Node7</title>
<path fill="none" stroke="midnightblue" d="M362.13,-112.44C339.22,-103.48 303.02,-89.31 277.13,-79.18"/>
<polygon fill="midnightblue" stroke="midnightblue" points="278.35,-75.9 267.76,-75.52 275.8,-82.42 278.35,-75.9"/>
</g>
<!-- Node9 -->
<g id="node9" class="node">
<title>Node9</title>
<g id="a_node9"><a xlink:title=" ">
<polygon fill="none" stroke="#bfbfbf" points="575,-0.5 575,-19.5 617,-19.5 617,-0.5 575,-0.5"/>
<text text-anchor="middle" x="596" y="-7.5" font-family="Helvetica,sans-Serif" font-size="10.00">array</text>
</a>
</g>
</g>
<!-- Node8&#45;&gt;Node9 -->
<g id="edge9" class="edge">
<title>Node8&#45;&gt;Node9</title>
<path fill="none" stroke="midnightblue" d="M435.25,-115.74C487.22,-109.34 562.78,-96.73 583,-76 594.67,-64.04 597.28,-44.74 597.36,-30.27"/>
<polygon fill="midnightblue" stroke="midnightblue" points="600.85,-29.81 597,-19.94 593.85,-30.05 600.85,-29.81"/>
</g>
<!-- Node10 -->
<g id="node10" class="node">
<title>Node10</title>
<g id="a_node10"><a xlink:title=" ">
<polygon fill="none" stroke="#bfbfbf" points="635,-0.5 635,-19.5 679,-19.5 679,-0.5 635,-0.5"/>
<text text-anchor="middle" x="657" y="-7.5" font-family="Helvetica,sans-Serif" font-size="10.00">limits</text>
</a>
</g>
</g>
<!-- Node8&#45;&gt;Node10 -->
<g id="edge11" class="edge">
<title>Node8&#45;&gt;Node10</title>
<path fill="none" stroke="midnightblue" d="M435.43,-119.77C481.89,-116.57 550.67,-106.49 602,-76 621.39,-64.48 637.21,-43.6 646.82,-28.61"/>
<polygon fill="midnightblue" stroke="midnightblue" points="649.99,-30.13 652.21,-19.77 644.02,-26.48 649.99,-30.13"/>
</g>
<!-- Node11 -->
<g id="node11" class="node">
<title>Node11</title>
<g id="a_node11"><a xlink:title=" ">
<polygon fill="none" stroke="#bfbfbf" points="288,-56.5 288,-75.5 344,-75.5 344,-56.5 288,-56.5"/>
<text text-anchor="middle" x="316" y="-63.5" font-family="Helvetica,sans-Serif" font-size="10.00">optional</text>
</a>
</g>
</g>
<!-- Node8&#45;&gt;Node11 -->
<g id="edge12" class="edge">
<title>Node8&#45;&gt;Node11</title>
<path fill="none" stroke="midnightblue" d="M373.07,-112.32C362.83,-104.18 347.28,-91.84 335,-82.09"/>
<polygon fill="midnightblue" stroke="midnightblue" points="337.13,-79.31 327.12,-75.83 332.78,-84.79 337.13,-79.31"/>
</g>
<!-- Node12 -->
<g id="node12" class="node">
<title>Node12</title>
<g id="a_node12"><a xlink:title=" ">
<polygon fill="none" stroke="#bfbfbf" points="362,-56.5 362,-75.5 406,-75.5 406,-56.5 362,-56.5"/>
<text text-anchor="middle" x="384" y="-63.5" font-family="Helvetica,sans-Serif" font-size="10.00">string</text>
</a>
</g>
</g>
<!-- Node8&#45;&gt;Node12 -->
<g id="edge13" class="edge">
<title>Node8&#45;&gt;Node12</title>
<path fill="none" stroke="midnightblue" d="M384,-112.08C384,-105.01 384,-94.86 384,-85.99"/>
<polygon fill="midnightblue" stroke="midnightblue" points="387.5,-85.75 384,-75.75 380.5,-85.75 387.5,-85.75"/>
</g>
<!-- Node13 -->
<g id="node13" class="node">
<title>Node13</title>
<g id="a_node13"><a xlink:href="channel_8h.html" target="_top" xlink:title=" ">
<polygon fill="none" stroke="black" points="424,-56.5 424,-75.5 488,-75.5 488,-56.5 424,-56.5"/>
<text text-anchor="middle" x="456" y="-63.5" font-family="Helvetica,sans-Serif" font-size="10.00">channel.h</text>
</a>
</g>
</g>
<!-- Node8&#45;&gt;Node13 -->
<g id="edge15" class="edge">
<title>Node8&#45;&gt;Node13</title>
<path fill="none" stroke="midnightblue" d="M395.57,-112.32C406.42,-104.18 422.88,-91.84 435.88,-82.09"/>
<polygon fill="midnightblue" stroke="midnightblue" points="438.32,-84.63 444.22,-75.83 434.12,-79.03 438.32,-84.63"/>
</g>
<!-- Node18 -->
<g id="node18" class="node">
<title>Node18</title>
<g id="a_node18"><a xlink:href="operable_8h.html" target="_top" xlink:title=" ">
<polygon fill="none" stroke="black" points="506,-56.5 506,-75.5 574,-75.5 574,-56.5 506,-56.5"/>
<text text-anchor="middle" x="540" y="-63.5" font-family="Helvetica,sans-Serif" font-size="10.00">operable.h</text>
</a>
</g>
</g>
<!-- Node8&#45;&gt;Node18 -->
<g id="edge23" class="edge">
<title>Node8&#45;&gt;Node18</title>
<path fill="none" stroke="midnightblue" d="M408.72,-112.44C434.85,-103.4 476.26,-89.06 505.58,-78.92"/>
<polygon fill="midnightblue" stroke="midnightblue" points="507.09,-82.1 515.4,-75.52 504.8,-75.48 507.09,-82.1"/>
</g>
<!-- Node13&#45;&gt;Node4 -->
<g id="edge17" class="edge">
<title>Node13&#45;&gt;Node4</title>
<path fill="none" stroke="midnightblue" d="M423.81,-57.72C420.84,-57.11 417.87,-56.53 415,-56 318.69,-38.3 204.17,-22.78 147.46,-15.46"/>
<polygon fill="midnightblue" stroke="midnightblue" points="147.6,-11.95 137.24,-14.15 146.71,-18.9 147.6,-11.95"/>
</g>
<!-- Node13&#45;&gt;Node9 -->
<g id="edge16" class="edge">
<title>Node13&#45;&gt;Node9</title>
<path fill="none" stroke="midnightblue" d="M478.18,-56.44C501.7,-47.37 539.01,-32.98 565.34,-22.83"/>
<polygon fill="midnightblue" stroke="midnightblue" points="566.77,-26.03 574.84,-19.16 564.25,-19.5 566.77,-26.03"/>
</g>
<!-- Node13&#45;&gt;Node10 -->
<g id="edge20" class="edge">
<title>Node13&#45;&gt;Node10</title>
<path fill="none" stroke="midnightblue" d="M488.02,-56.77C520.23,-48.43 571.58,-35 624.73,-20.31"/>
<polygon fill="midnightblue" stroke="midnightblue" points="625.97,-23.6 634.67,-17.55 624.1,-16.85 625.97,-23.6"/>
</g>
<!-- Node14 -->
<g id="node14" class="node">
<title>Node14</title>
<g id="a_node14"><a xlink:title=" ">
<polygon fill="none" stroke="#bfbfbf" points="270.5,-0.5 270.5,-19.5 317.5,-19.5 317.5,-0.5 270.5,-0.5"/>
<text text-anchor="middle" x="294" y="-7.5" font-family="Helvetica,sans-Serif" font-size="10.00">deque</text>
</a>
</g>
</g>
<!-- Node13&#45;&gt;Node14 -->
<g id="edge18" class="edge">
<title>Node13&#45;&gt;Node14</title>
<path fill="none" stroke="midnightblue" d="M430.33,-56.44C402.52,-47.17 358.03,-32.34 327.48,-22.16"/>
<polygon fill="midnightblue" stroke="midnightblue" points="328.3,-18.74 317.7,-18.9 326.08,-25.38 328.3,-18.74"/>
</g>
<!-- Node15 -->
<g id="node15" class="node">
<title>Node15</title>
<g id="a_node15"><a xlink:title=" ">
<polygon fill="none" stroke="#bfbfbf" points="335.5,-0.5 335.5,-19.5 400.5,-19.5 400.5,-0.5 335.5,-0.5"/>
<text text-anchor="middle" x="368" y="-7.5" font-family="Helvetica,sans-Serif" font-size="10.00">functional</text>
</a>
</g>
</g>
<!-- Node13&#45;&gt;Node15 -->
<g id="edge19" class="edge">
<title>Node13&#45;&gt;Node15</title>
<path fill="none" stroke="midnightblue" d="M441.86,-56.32C428.13,-47.9 407.06,-34.97 390.94,-25.07"/>
<polygon fill="midnightblue" stroke="midnightblue" points="392.46,-21.9 382.1,-19.65 388.8,-27.87 392.46,-21.9"/>
</g>
<!-- Node16 -->
<g id="node16" class="node">
<title>Node16</title>
<g id="a_node16"><a xlink:title=" ">
<polygon fill="none" stroke="#bfbfbf" points="418.5,-0.5 418.5,-19.5 465.5,-19.5 465.5,-0.5 418.5,-0.5"/>
<text text-anchor="middle" x="442" y="-7.5" font-family="Helvetica,sans-Serif" font-size="10.00">vector</text>
</a>
</g>
</g>
<!-- Node13&#45;&gt;Node16 -->
<g id="edge21" class="edge">
<title>Node13&#45;&gt;Node16</title>
<path fill="none" stroke="midnightblue" d="M453.69,-56.08C451.83,-48.93 449.16,-38.64 446.85,-29.69"/>
<polygon fill="midnightblue" stroke="midnightblue" points="450.17,-28.55 444.27,-19.75 443.39,-30.31 450.17,-28.55"/>
</g>
<!-- Node17 -->
<g id="node17" class="node">
<title>Node17</title>
<g id="a_node17"><a xlink:title=" ">
<polygon fill="none" stroke="#bfbfbf" points="483.5,-0.5 483.5,-19.5 556.5,-19.5 556.5,-0.5 483.5,-0.5"/>
<text text-anchor="middle" x="520" y="-7.5" font-family="Helvetica,sans-Serif" font-size="10.00">string_view</text>
</a>
</g>
</g>
<!-- Node13&#45;&gt;Node17 -->
<g id="edge22" class="edge">
<title>Node13&#45;&gt;Node17</title>
<path fill="none" stroke="midnightblue" d="M466.28,-56.32C475.84,-48.26 490.28,-36.08 501.78,-26.37"/>
<polygon fill="midnightblue" stroke="midnightblue" points="504.14,-28.96 509.53,-19.83 499.63,-23.61 504.14,-28.96"/>
</g>
</g>
</svg>
