<?xml version="1.0" encoding="UTF-8" standalone="no"?>
<!DOCTYPE svg PUBLIC "-//W3C//DTD SVG 1.1//EN"
 "http://www.w3.org/Graphics/SVG/1.1/DTD/svg11.dtd">
<!-- Generated by graphviz version 2.43.0 (0)
 -->
<!-- Title: test/cpp/src/803&#45;vmem&#45;offset.cc Pages: 1 -->
<svg width="681pt" height="207pt"
 viewBox="0.00 0.00 681.00 207.00" xmlns="http://www.w3.org/2000/svg" xmlns:xlink="http://www.w3.org/1999/xlink">
<g id="graph0" class="graph" transform="scale(1 1) rotate(0) translate(4 203)">
<title>test/cpp/src/803&#45;vmem&#45;offset.cc</title>
<!-- Node1 -->
<g id="node1" class="node">
<title>Node1</title>
<g id="a_node1"><a xlink:title=" ">
<polygon fill="#bfbfbf" stroke="black" points="47,-168.5 47,-198.5 175,-198.5 175,-168.5 47,-168.5"/>
<text text-anchor="start" x="55" y="-186.5" font-family="Helvetica,sans-Serif" font-size="10.00">test/cpp/src/803&#45;vmem</text>
<text text-anchor="middle" x="111" y="-175.5" font-family="Helvetica,sans-Serif" font-size="10.00">&#45;offset.cc</text>
</a>
</g>
</g>
<!-- Node2 -->
<g id="node2" class="node">
<title>Node2</title>
<g id="a_node2"><a xlink:title=" ">
<polygon fill="none" stroke="#bfbfbf" points="0,-112.5 0,-131.5 64,-131.5 64,-112.5 0,-112.5"/>
<text text-anchor="middle" x="32" y="-119.5" font-family="Helvetica,sans-Serif" font-size="10.00">catch.hpp</text>
</a>
</g>
</g>
<!-- Node1&#45;&gt;Node2 -->
<g id="edge1" class="edge">
<title>Node1&#45;&gt;Node2</title>
<path fill="none" stroke="midnightblue" d="M92.28,-168.4C80.09,-159.22 64.21,-147.26 51.81,-137.92"/>
<polygon fill="midnightblue" stroke="midnightblue" points="53.59,-134.88 43.5,-131.66 49.38,-140.47 53.59,-134.88"/>
</g>
<!-- Node3 -->
<g id="node3" class="node">
<title>Node3</title>
<g id="a_node3"><a xlink:href="vmem_8h.html" target="_top" xlink:title=" ">
<polygon fill="none" stroke="black" points="82.5,-112.5 82.5,-131.5 139.5,-131.5 139.5,-112.5 82.5,-112.5"/>
<text text-anchor="middle" x="111" y="-119.5" font-family="Helvetica,sans-Serif" font-size="10.00">vmem.h</text>
</a>
</g>
</g>
<!-- Node1&#45;&gt;Node3 -->
<g id="edge2" class="edge">
<title>Node1&#45;&gt;Node3</title>
<path fill="none" stroke="midnightblue" d="M111,-168.4C111,-160.47 111,-150.46 111,-141.86"/>
<polygon fill="midnightblue" stroke="midnightblue" points="114.5,-141.66 111,-131.66 107.5,-141.66 114.5,-141.66"/>
</g>
<!-- Node7 -->
<g id="node7" class="node">
<title>Node7</title>
<g id="a_node7"><a xlink:href="dram__controller_8h.html" target="_top" xlink:title=" ">
<polygon fill="none" stroke="black" points="350,-112.5 350,-131.5 452,-131.5 452,-112.5 350,-112.5"/>
<text text-anchor="middle" x="401" y="-119.5" font-family="Helvetica,sans-Serif" font-size="10.00">dram_controller.h</text>
</a>
</g>
</g>
<!-- Node1&#45;&gt;Node7 -->
<g id="edge6" class="edge">
<title>Node1&#45;&gt;Node7</title>
<path fill="none" stroke="midnightblue" d="M175,-169.37C227.48,-158.6 300.8,-143.56 349.53,-133.56"/>
<polygon fill="midnightblue" stroke="midnightblue" points="350.45,-136.94 359.54,-131.51 349.04,-130.09 350.45,-136.94"/>
</g>
<!-- Node4 -->
<g id="node4" class="node">
<title>Node4</title>
<g id="a_node4"><a xlink:title=" ">
<polygon fill="none" stroke="#bfbfbf" points="77,-0.5 77,-19.5 127,-19.5 127,-0.5 77,-0.5"/>
<text text-anchor="middle" x="102" y="-7.5" font-family="Helvetica,sans-Serif" font-size="10.00">cstdint</text>
</a>
</g>
</g>
<!-- Node3&#45;&gt;Node4 -->
<g id="edge3" class="edge">
<title>Node3&#45;&gt;Node4</title>
<path fill="none" stroke="midnightblue" d="M82.31,-112.84C64.41,-106.1 42.79,-94.56 32,-76 19.42,-54.36 46.02,-35.63 69.96,-23.92"/>
<polygon fill="midnightblue" stroke="midnightblue" points="71.64,-27 79.26,-19.63 68.71,-20.64 71.64,-27"/>
</g>
<!-- Node5 -->
<g id="node5" class="node">
<title>Node5</title>
<g id="a_node5"><a xlink:title=" ">
<polygon fill="none" stroke="#bfbfbf" points="41,-56.5 41,-75.5 79,-75.5 79,-56.5 41,-56.5"/>
<text text-anchor="middle" x="60" y="-63.5" font-family="Helvetica,sans-Serif" font-size="10.00">map</text>
</a>
</g>
</g>
<!-- Node3&#45;&gt;Node5 -->
<g id="edge4" class="edge">
<title>Node3&#45;&gt;Node5</title>
<path fill="none" stroke="midnightblue" d="M102.58,-112.08C95.15,-104.22 84.15,-92.57 75.19,-83.08"/>
<polygon fill="midnightblue" stroke="midnightblue" points="77.68,-80.62 68.26,-75.75 72.59,-85.42 77.68,-80.62"/>
</g>
<!-- Node6 -->
<g id="node6" class="node">
<title>Node6</title>
<g id="a_node6"><a xlink:title=" ">
<polygon fill="none" stroke="#bfbfbf" points="97.5,-56.5 97.5,-75.5 226.5,-75.5 226.5,-56.5 97.5,-56.5"/>
<text text-anchor="middle" x="162" y="-63.5" font-family="Helvetica,sans-Serif" font-size="10.00">champsim_constants.h</text>
</a>
</g>
</g>
<!-- Node3&#45;&gt;Node6 -->
<g id="edge5" class="edge">
<title>Node3&#45;&gt;Node6</title>
<path fill="none" stroke="midnightblue" d="M119.42,-112.08C126.85,-104.22 137.85,-92.57 146.81,-83.08"/>
<polygon fill="midnightblue" stroke="midnightblue" points="149.41,-85.42 153.74,-75.75 144.32,-80.62 149.41,-85.42"/>
</g>
<!-- Node7&#45;&gt;Node6 -->
<g id="edge12" class="edge">
<title>Node7&#45;&gt;Node6</title>
<path fill="none" stroke="midnightblue" d="M363.13,-112.44C321.52,-103.04 254.63,-87.93 209.53,-77.74"/>
<polygon fill="midnightblue" stroke="midnightblue" points="210.22,-74.31 199.69,-75.52 208.68,-81.13 210.22,-74.31"/>
</g>
<!-- Node8 -->
<g id="node8" class="node">
<title>Node8</title>
<g id="a_node8"><a xlink:title=" ">
<polygon fill="none" stroke="#bfbfbf" points="195,-0.5 195,-19.5 237,-19.5 237,-0.5 195,-0.5"/>
<text text-anchor="middle" x="216" y="-7.5" font-family="Helvetica,sans-Serif" font-size="10.00">array</text>
</a>
</g>
</g>
<!-- Node7&#45;&gt;Node8 -->
<g id="edge7" class="edge">
<title>Node7&#45;&gt;Node8</title>
<path fill="none" stroke="midnightblue" d="M392.4,-112.49C378.53,-99.11 349.95,-72.94 322,-56 297.98,-41.44 268.4,-29.31 246.6,-21.33"/>
<polygon fill="midnightblue" stroke="midnightblue" points="247.77,-18.03 237.18,-17.95 245.41,-24.62 247.77,-18.03"/>
</g>
<!-- Node9 -->
<g id="node9" class="node">
<title>Node9</title>
<g id="a_node9"><a xlink:title=" ">
<polygon fill="none" stroke="#bfbfbf" points="451.5,-56.5 451.5,-75.5 498.5,-75.5 498.5,-56.5 451.5,-56.5"/>
<text text-anchor="middle" x="475" y="-63.5" font-family="Helvetica,sans-Serif" font-size="10.00">cmath</text>
</a>
</g>
</g>
<!-- Node7&#45;&gt;Node9 -->
<g id="edge8" class="edge">
<title>Node7&#45;&gt;Node9</title>
<path fill="none" stroke="midnightblue" d="M412.89,-112.32C424.15,-104.11 441.29,-91.6 454.71,-81.81"/>
<polygon fill="midnightblue" stroke="midnightblue" points="456.88,-84.56 462.89,-75.83 452.75,-78.9 456.88,-84.56"/>
</g>
<!-- Node10 -->
<g id="node10" class="node">
<title>Node10</title>
<g id="a_node10"><a xlink:title=" ">
<polygon fill="none" stroke="#bfbfbf" points="560,-0.5 560,-19.5 604,-19.5 604,-0.5 560,-0.5"/>
<text text-anchor="middle" x="582" y="-7.5" font-family="Helvetica,sans-Serif" font-size="10.00">limits</text>
</a>
</g>
</g>
<!-- Node7&#45;&gt;Node10 -->
<g id="edge9" class="edge">
<title>Node7&#45;&gt;Node10</title>
<path fill="none" stroke="midnightblue" d="M427.67,-112.49C450.05,-104.73 482.38,-92.04 508,-76 530.29,-62.04 552.51,-41.39 566.7,-27.13"/>
<polygon fill="midnightblue" stroke="midnightblue" points="569.59,-29.18 574.06,-19.57 564.58,-24.29 569.59,-29.18"/>
</g>
<!-- Node11 -->
<g id="node11" class="node">
<title>Node11</title>
<g id="a_node11"><a xlink:title=" ">
<polygon fill="none" stroke="#bfbfbf" points="555,-56.5 555,-75.5 611,-75.5 611,-56.5 555,-56.5"/>
<text text-anchor="middle" x="583" y="-63.5" font-family="Helvetica,sans-Serif" font-size="10.00">optional</text>
</a>
</g>
</g>
<!-- Node7&#45;&gt;Node11 -->
<g id="edge10" class="edge">
<title>Node7&#45;&gt;Node11</title>
<path fill="none" stroke="midnightblue" d="M429.84,-112.44C461.04,-103.19 510.91,-88.39 545.22,-78.21"/>
<polygon fill="midnightblue" stroke="midnightblue" points="546.3,-81.54 554.89,-75.34 544.31,-74.83 546.3,-81.54"/>
</g>
<!-- Node12 -->
<g id="node12" class="node">
<title>Node12</title>
<g id="a_node12"><a xlink:title=" ">
<polygon fill="none" stroke="#bfbfbf" points="629,-56.5 629,-75.5 673,-75.5 673,-56.5 629,-56.5"/>
<text text-anchor="middle" x="651" y="-63.5" font-family="Helvetica,sans-Serif" font-size="10.00">string</text>
</a>
</g>
</g>
<!-- Node7&#45;&gt;Node12 -->
<g id="edge11" class="edge">
<title>Node7&#45;&gt;Node12</title>
<path fill="none" stroke="midnightblue" d="M448.24,-112.42C490.58,-104.48 554.59,-91.86 618.82,-76.15"/>
<polygon fill="midnightblue" stroke="midnightblue" points="619.84,-79.5 628.71,-73.7 618.16,-72.7 619.84,-79.5"/>
</g>
<!-- Node13 -->
<g id="node13" class="node">
<title>Node13</title>
<g id="a_node13"><a xlink:href="channel_8h.html" target="_top" xlink:title=" ">
<polygon fill="none" stroke="black" points="369,-56.5 369,-75.5 433,-75.5 433,-56.5 369,-56.5"/>
<text text-anchor="middle" x="401" y="-63.5" font-family="Helvetica,sans-Serif" font-size="10.00">channel.h</text>
</a>
</g>
</g>
<!-- Node7&#45;&gt;Node13 -->
<g id="edge13" class="edge">
<title>Node7&#45;&gt;Node13</title>
<path fill="none" stroke="midnightblue" d="M401,-112.08C401,-105.01 401,-94.86 401,-85.99"/>
<polygon fill="midnightblue" stroke="midnightblue" points="404.5,-85.75 401,-75.75 397.5,-85.75 404.5,-85.75"/>
</g>
<!-- Node18 -->
<g id="node18" class="node">
<title>Node18</title>
<g id="a_node18"><a xlink:href="operable_8h.html" target="_top" xlink:title=" ">
<polygon fill="none" stroke="black" points="245,-56.5 245,-75.5 313,-75.5 313,-56.5 245,-56.5"/>
<text text-anchor="middle" x="279" y="-63.5" font-family="Helvetica,sans-Serif" font-size="10.00">operable.h</text>
</a>
</g>
</g>
<!-- Node7&#45;&gt;Node18 -->
<g id="edge21" class="edge">
<title>Node7&#45;&gt;Node18</title>
<path fill="none" stroke="midnightblue" d="M381.67,-112.44C361.68,-103.6 330.26,-89.69 307.44,-79.59"/>
<polygon fill="midnightblue" stroke="midnightblue" points="308.8,-76.36 298.24,-75.52 305.97,-82.76 308.8,-76.36"/>
</g>
<!-- Node13&#45;&gt;Node4 -->
<g id="edge15" class="edge">
<title>Node13&#45;&gt;Node4</title>
<path fill="none" stroke="midnightblue" d="M368.72,-59.17C312.16,-48.96 195.64,-27.91 137.13,-17.35"/>
<polygon fill="midnightblue" stroke="midnightblue" points="137.71,-13.89 127.25,-15.56 136.47,-20.78 137.71,-13.89"/>
</g>
<!-- Node13&#45;&gt;Node8 -->
<g id="edge14" class="edge">
<title>Node13&#45;&gt;Node8</title>
<path fill="none" stroke="midnightblue" d="M371.69,-56.44C337.56,-46.48 281.46,-30.11 246.74,-19.97"/>
<polygon fill="midnightblue" stroke="midnightblue" points="247.7,-16.61 237.12,-17.16 245.74,-23.33 247.7,-16.61"/>
</g>
<!-- Node13&#45;&gt;Node10 -->
<g id="edge18" class="edge">
<title>Node13&#45;&gt;Node10</title>
<path fill="none" stroke="midnightblue" d="M429.68,-56.44C462.38,-46.69 515.71,-30.78 549.81,-20.6"/>
<polygon fill="midnightblue" stroke="midnightblue" points="551.15,-23.86 559.73,-17.64 549.15,-17.15 551.15,-23.86"/>
</g>
<!-- Node14 -->
<g id="node14" class="node">
<title>Node14</title>
<g id="a_node14"><a xlink:title=" ">
<polygon fill="none" stroke="#bfbfbf" points="494.5,-0.5 494.5,-19.5 541.5,-19.5 541.5,-0.5 494.5,-0.5"/>
<text text-anchor="middle" x="518" y="-7.5" font-family="Helvetica,sans-Serif" font-size="10.00">deque</text>
</a>
</g>
</g>
<!-- Node13&#45;&gt;Node14 -->
<g id="edge16" class="edge">
<title>Node13&#45;&gt;Node14</title>
<path fill="none" stroke="midnightblue" d="M419.54,-56.44C438.62,-47.64 468.57,-33.81 490.44,-23.72"/>
<polygon fill="midnightblue" stroke="midnightblue" points="491.93,-26.88 499.55,-19.52 489,-20.53 491.93,-26.88"/>
</g>
<!-- Node15 -->
<g id="node15" class="node">
<title>Node15</title>
<g id="a_node15"><a xlink:title=" ">
<polygon fill="none" stroke="#bfbfbf" points="255.5,-0.5 255.5,-19.5 320.5,-19.5 320.5,-0.5 255.5,-0.5"/>
<text text-anchor="middle" x="288" y="-7.5" font-family="Helvetica,sans-Serif" font-size="10.00">functional</text>
</a>
</g>
</g>
<!-- Node13&#45;&gt;Node15 -->
<g id="edge17" class="edge">
<title>Node13&#45;&gt;Node15</title>
<path fill="none" stroke="midnightblue" d="M383.09,-56.44C364.75,-47.68 335.99,-33.94 314.91,-23.86"/>
<polygon fill="midnightblue" stroke="midnightblue" points="316.35,-20.67 305.82,-19.52 313.33,-26.99 316.35,-20.67"/>
</g>
<!-- Node16 -->
<g id="node16" class="node">
<title>Node16</title>
<g id="a_node16"><a xlink:title=" ">
<polygon fill="none" stroke="#bfbfbf" points="338.5,-0.5 338.5,-19.5 385.5,-19.5 385.5,-0.5 338.5,-0.5"/>
<text text-anchor="middle" x="362" y="-7.5" font-family="Helvetica,sans-Serif" font-size="10.00">vector</text>
</a>
</g>
</g>
<!-- Node13&#45;&gt;Node16 -->
<g id="edge19" class="edge">
<title>Node13&#45;&gt;Node16</title>
<path fill="none" stroke="midnightblue" d="M394.56,-56.08C389.05,-48.46 380.97,-37.26 374.24,-27.94"/>
<polygon fill="midnightblue" stroke="midnightblue" points="377.01,-25.81 368.32,-19.75 371.34,-29.91 377.01,-25.81"/>
</g>
<!-- Node17 -->
<g id="node17" class="node">
<title>Node17</title>
<g id="a_node17"><a xlink:title=" ">
<polygon fill="none" stroke="#bfbfbf" points="403.5,-0.5 403.5,-19.5 476.5,-19.5 476.5,-0.5 403.5,-0.5"/>
<text text-anchor="middle" x="440" y="-7.5" font-family="Helvetica,sans-Serif" font-size="10.00">string_view</text>
</a>
</g>
</g>
<!-- Node13&#45;&gt;Node17 -->
<g id="edge20" class="edge">
<title>Node13&#45;&gt;Node17</title>
<path fill="none" stroke="midnightblue" d="M407.44,-56.08C412.95,-48.46 421.03,-37.26 427.76,-27.94"/>
<polygon fill="midnightblue" stroke="midnightblue" points="430.66,-29.91 433.68,-19.75 424.99,-25.81 430.66,-29.91"/>
</g>
</g>
</svg>
