<?xml version="1.0" encoding="UTF-8" standalone="no"?>
<!DOCTYPE svg PUBLIC "-//W3C//DTD SVG 1.1//EN"
 "http://www.w3.org/Graphics/SVG/1.1/DTD/svg11.dtd">
<!-- Generated by graphviz version 2.43.0 (0)
 -->
<!-- Title: inc/util/algorithm.h Pages: 1 -->
<svg width="412pt" height="95pt"
 viewBox="0.00 0.00 412.00 95.00" xmlns="http://www.w3.org/2000/svg" xmlns:xlink="http://www.w3.org/1999/xlink">
<g id="graph0" class="graph" transform="scale(1 1) rotate(0) translate(4 91)">
<title>inc/util/algorithm.h</title>
<!-- Node1 -->
<g id="node1" class="node">
<title>Node1</title>
<g id="a_node1"><a xlink:title=" ">
<polygon fill="#bfbfbf" stroke="black" points="112.5,-67.5 112.5,-86.5 221.5,-86.5 221.5,-67.5 112.5,-67.5"/>
<text text-anchor="middle" x="167" y="-74.5" font-family="Helvetica,sans-Serif" font-size="10.00">inc/util/algorithm.h</text>
</a>
</g>
</g>
<!-- Node2 -->
<g id="node2" class="node">
<title>Node2</title>
<g id="a_node2"><a xlink:href="cache_8cc.html" target="_top" xlink:title=" ">
<polygon fill="none" stroke="black" points="0,-6 0,-25 76,-25 76,-6 0,-6"/>
<text text-anchor="middle" x="38" y="-13" font-family="Helvetica,sans-Serif" font-size="10.00">src/cache.cc</text>
</a>
</g>
</g>
<!-- Node1&#45;&gt;Node2 -->
<g id="edge1" class="edge">
<title>Node1&#45;&gt;Node2</title>
<path fill="none" stroke="midnightblue" d="M139.19,-63.17C114.16,-51.63 78.08,-34.99 56.45,-25.01"/>
<polygon fill="midnightblue" stroke="midnightblue" points="137.97,-66.46 148.52,-67.48 140.9,-60.11 137.97,-66.46"/>
</g>
<!-- Node3 -->
<g id="node3" class="node">
<title>Node3</title>
<g id="a_node3"><a xlink:href="044-extract_8cc.html" target="_top" xlink:title=" ">
<polygon fill="none" stroke="black" points="94,-6 94,-25 240,-25 240,-6 94,-6"/>
<text text-anchor="middle" x="167" y="-13" font-family="Helvetica,sans-Serif" font-size="10.00">test/cpp/src/044&#45;extract.cc</text>
</a>
</g>
</g>
<!-- Node1&#45;&gt;Node3 -->
<g id="edge2" class="edge">
<title>Node1&#45;&gt;Node3</title>
<path fill="none" stroke="midnightblue" d="M167,-57.32C167,-46.5 167,-33.4 167,-25.01"/>
<polygon fill="midnightblue" stroke="midnightblue" points="163.5,-57.48 167,-67.48 170.5,-57.48 163.5,-57.48"/>
</g>
<!-- Node4 -->
<g id="node4" class="node">
<title>Node4</title>
<g id="a_node4"><a xlink:href="045-transform-while-n_8cc.html" target="_top" xlink:title=" ">
<polygon fill="none" stroke="black" points="258,-0.5 258,-30.5 404,-30.5 404,-0.5 258,-0.5"/>
<text text-anchor="start" x="266" y="-18.5" font-family="Helvetica,sans-Serif" font-size="10.00">test/cpp/src/045&#45;transform</text>
<text text-anchor="middle" x="331" y="-7.5" font-family="Helvetica,sans-Serif" font-size="10.00">&#45;while&#45;n.cc</text>
</a>
</g>
</g>
<!-- Node1&#45;&gt;Node4 -->
<g id="edge3" class="edge">
<title>Node1&#45;&gt;Node4</title>
<path fill="none" stroke="midnightblue" d="M200.14,-63.98C226.81,-54.3 264.32,-40.69 292.35,-30.52"/>
<polygon fill="midnightblue" stroke="midnightblue" points="198.7,-60.77 190.5,-67.48 201.09,-67.35 198.7,-60.77"/>
</g>
</g>
</svg>
