<?xml version="1.0" encoding="UTF-8" standalone="no"?>
<!DOCTYPE svg PUBLIC "-//W3C//DTD SVG 1.1//EN"
 "http://www.w3.org/Graphics/SVG/1.1/DTD/svg11.dtd">
<!-- Generated by graphviz version 2.43.0 (0)
 -->
<!-- Title: btb/basic_btb/basic_btb.cc Pages: 1 -->
<svg width="1776pt" height="319pt"
 viewBox="0.00 0.00 1775.57 319.00" xmlns="http://www.w3.org/2000/svg" xmlns:xlink="http://www.w3.org/1999/xlink">
<g id="graph0" class="graph" transform="scale(1 1) rotate(0) translate(4 315)">
<title>btb/basic_btb/basic_btb.cc</title>
<!-- Node1 -->
<g id="node1" class="node">
<title>Node1</title>
<g id="a_node1"><a xlink:title=" ">
<polygon fill="#bfbfbf" stroke="black" points="1057.57,-280.5 1057.57,-310.5 1167.57,-310.5 1167.57,-280.5 1057.57,-280.5"/>
<text text-anchor="start" x="1065.57" y="-298.5" font-family="Helvetica,sans-Serif" font-size="10.00">btb/basic_btb/basic</text>
<text text-anchor="middle" x="1112.57" y="-287.5" font-family="Helvetica,sans-Serif" font-size="10.00">_btb.cc</text>
</a>
</g>
</g>
<!-- Node2 -->
<g id="node2" class="node">
<title>Node2</title>
<g id="a_node2"><a xlink:title=" ">
<polygon fill="none" stroke="#bfbfbf" points="1420.57,-56.5 1420.57,-75.5 1484.57,-75.5 1484.57,-56.5 1420.57,-56.5"/>
<text text-anchor="middle" x="1452.57" y="-63.5" font-family="Helvetica,sans-Serif" font-size="10.00">algorithm</text>
</a>
</g>
</g>
<!-- Node1&#45;&gt;Node2 -->
<g id="edge1" class="edge">
<title>Node1&#45;&gt;Node2</title>
<path fill="none" stroke="midnightblue" d="M1167.62,-291.68C1288.59,-284.22 1571.33,-259.35 1628.57,-188 1639.24,-174.69 1643.69,-136.6 1622.57,-112 1618.31,-107.04 1543.62,-88.57 1494.67,-76.89"/>
<polygon fill="midnightblue" stroke="midnightblue" points="1495.19,-73.41 1484.65,-74.5 1493.57,-80.22 1495.19,-73.41"/>
</g>
<!-- Node3 -->
<g id="node3" class="node">
<title>Node3</title>
<g id="a_node3"><a xlink:title=" ">
<polygon fill="none" stroke="#bfbfbf" points="18.57,-168.5 18.57,-187.5 62.57,-187.5 62.57,-168.5 18.57,-168.5"/>
<text text-anchor="middle" x="40.57" y="-175.5" font-family="Helvetica,sans-Serif" font-size="10.00">bitset</text>
</a>
</g>
</g>
<!-- Node1&#45;&gt;Node3 -->
<g id="edge2" class="edge">
<title>Node1&#45;&gt;Node3</title>
<path fill="none" stroke="midnightblue" d="M1057.43,-291.61C902.12,-282.86 448.1,-253.2 76.57,-188 75.32,-187.78 74.05,-187.54 72.77,-187.29"/>
<polygon fill="midnightblue" stroke="midnightblue" points="73.45,-183.85 62.93,-185.11 71.94,-190.69 73.45,-183.85"/>
</g>
<!-- Node4 -->
<g id="node4" class="node">
<title>Node4</title>
<g id="a_node4"><a xlink:title=" ">
<polygon fill="none" stroke="#bfbfbf" points="119.07,-56.5 119.07,-75.5 166.07,-75.5 166.07,-56.5 119.07,-56.5"/>
<text text-anchor="middle" x="142.57" y="-63.5" font-family="Helvetica,sans-Serif" font-size="10.00">deque</text>
</a>
</g>
</g>
<!-- Node1&#45;&gt;Node4 -->
<g id="edge3" class="edge">
<title>Node1&#45;&gt;Node4</title>
<path fill="none" stroke="midnightblue" d="M1057.3,-293.58C843.29,-289.45 77.59,-269.05 9.57,-188 -27.68,-143.62 59.01,-99.98 109.5,-79.34"/>
<polygon fill="midnightblue" stroke="midnightblue" points="111.07,-82.48 119.06,-75.53 108.48,-75.98 111.07,-82.48"/>
</g>
<!-- Node5 -->
<g id="node5" class="node">
<title>Node5</title>
<g id="a_node5"><a xlink:title=" ">
<polygon fill="none" stroke="#bfbfbf" points="1729.57,-224.5 1729.57,-243.5 1767.57,-243.5 1767.57,-224.5 1729.57,-224.5"/>
<text text-anchor="middle" x="1748.57" y="-231.5" font-family="Helvetica,sans-Serif" font-size="10.00">map</text>
</a>
</g>
</g>
<!-- Node1&#45;&gt;Node5 -->
<g id="edge4" class="edge">
<title>Node1&#45;&gt;Node5</title>
<path fill="none" stroke="midnightblue" d="M1167.87,-293.24C1274.57,-290.07 1515.91,-279.28 1715.57,-244 1716.85,-243.77 1718.16,-243.52 1719.47,-243.24"/>
<polygon fill="midnightblue" stroke="midnightblue" points="1720.6,-246.57 1729.51,-240.83 1718.97,-239.77 1720.6,-246.57"/>
</g>
<!-- Node6 -->
<g id="node6" class="node">
<title>Node6</title>
<g id="a_node6"><a xlink:href="msl_2lru__table_8h.html" target="_top" xlink:title=" ">
<polygon fill="none" stroke="black" points="1401.07,-112.5 1401.07,-131.5 1490.07,-131.5 1490.07,-112.5 1401.07,-112.5"/>
<text text-anchor="middle" x="1445.57" y="-119.5" font-family="Helvetica,sans-Serif" font-size="10.00">msl/lru_table.h</text>
</a>
</g>
</g>
<!-- Node1&#45;&gt;Node6 -->
<g id="edge5" class="edge">
<title>Node1&#45;&gt;Node6</title>
<path fill="none" stroke="midnightblue" d="M1167.82,-290.67C1237.43,-282.9 1356.29,-259.35 1425.57,-188 1437.51,-175.7 1442.34,-156.45 1444.28,-142.08"/>
<polygon fill="midnightblue" stroke="midnightblue" points="1447.79,-142.13 1445.3,-131.83 1440.83,-141.44 1447.79,-142.13"/>
</g>
<!-- Node14 -->
<g id="node14" class="node">
<title>Node14</title>
<g id="a_node14"><a xlink:href="ooo__cpu_8h.html" target="_top" xlink:title=" ">
<polygon fill="none" stroke="black" points="717.57,-224.5 717.57,-243.5 783.57,-243.5 783.57,-224.5 717.57,-224.5"/>
<text text-anchor="middle" x="750.57" y="-231.5" font-family="Helvetica,sans-Serif" font-size="10.00">ooo_cpu.h</text>
</a>
</g>
</g>
<!-- Node1&#45;&gt;Node14 -->
<g id="edge15" class="edge">
<title>Node1&#45;&gt;Node14</title>
<path fill="none" stroke="midnightblue" d="M1057.19,-285.4C984.81,-273.5 859.54,-252.91 793.76,-242.1"/>
<polygon fill="midnightblue" stroke="midnightblue" points="794.17,-238.62 783.73,-240.45 793.03,-245.53 794.17,-238.62"/>
</g>
<!-- Node6&#45;&gt;Node2 -->
<g id="edge6" class="edge">
<title>Node6&#45;&gt;Node2</title>
<path fill="none" stroke="midnightblue" d="M1446.72,-112.08C1447.65,-104.93 1448.99,-94.64 1450.14,-85.69"/>
<polygon fill="midnightblue" stroke="midnightblue" points="1453.62,-86.12 1451.43,-75.75 1446.68,-85.22 1453.62,-86.12"/>
</g>
<!-- Node7 -->
<g id="node7" class="node">
<title>Node7</title>
<g id="a_node7"><a xlink:title=" ">
<polygon fill="none" stroke="#bfbfbf" points="1566.57,-56.5 1566.57,-75.5 1618.57,-75.5 1618.57,-56.5 1566.57,-56.5"/>
<text text-anchor="middle" x="1592.57" y="-63.5" font-family="Helvetica,sans-Serif" font-size="10.00">cassert</text>
</a>
</g>
</g>
<!-- Node6&#45;&gt;Node7 -->
<g id="edge7" class="edge">
<title>Node6&#45;&gt;Node7</title>
<path fill="none" stroke="midnightblue" d="M1468.86,-112.44C1493.38,-103.44 1532.16,-89.19 1559.77,-79.05"/>
<polygon fill="midnightblue" stroke="midnightblue" points="1561.2,-82.25 1569.38,-75.52 1558.79,-75.68 1561.2,-82.25"/>
</g>
<!-- Node8 -->
<g id="node8" class="node">
<title>Node8</title>
<g id="a_node8"><a xlink:title=" ">
<polygon fill="none" stroke="#bfbfbf" points="1344.57,-0.5 1344.57,-19.5 1394.57,-19.5 1394.57,-0.5 1344.57,-0.5"/>
<text text-anchor="middle" x="1369.57" y="-7.5" font-family="Helvetica,sans-Serif" font-size="10.00">cstdint</text>
</a>
</g>
</g>
<!-- Node6&#45;&gt;Node8 -->
<g id="edge8" class="edge">
<title>Node6&#45;&gt;Node8</title>
<path fill="none" stroke="midnightblue" d="M1490.19,-116.22C1538.47,-110.03 1610.81,-97.4 1627.57,-76 1633.05,-69 1633.29,-62.8 1627.57,-56 1599.51,-22.62 1468.64,-14 1404.79,-11.77"/>
<polygon fill="midnightblue" stroke="midnightblue" points="1404.89,-8.27 1394.78,-11.46 1404.67,-15.27 1404.89,-8.27"/>
</g>
<!-- Node9 -->
<g id="node9" class="node">
<title>Node9</title>
<g id="a_node9"><a xlink:title=" ">
<polygon fill="none" stroke="#bfbfbf" points="1262.57,-56.5 1262.57,-75.5 1318.57,-75.5 1318.57,-56.5 1262.57,-56.5"/>
<text text-anchor="middle" x="1290.57" y="-63.5" font-family="Helvetica,sans-Serif" font-size="10.00">optional</text>
</a>
</g>
</g>
<!-- Node6&#45;&gt;Node9 -->
<g id="edge9" class="edge">
<title>Node6&#45;&gt;Node9</title>
<path fill="none" stroke="midnightblue" d="M1421.01,-112.44C1395.05,-103.4 1353.9,-89.06 1324.77,-78.92"/>
<polygon fill="midnightblue" stroke="midnightblue" points="1325.61,-75.5 1315.01,-75.52 1323.3,-82.11 1325.61,-75.5"/>
</g>
<!-- Node10 -->
<g id="node10" class="node">
<title>Node10</title>
<g id="a_node10"><a xlink:title=" ">
<polygon fill="none" stroke="#bfbfbf" points="1503.07,-56.5 1503.07,-75.5 1548.07,-75.5 1548.07,-56.5 1503.07,-56.5"/>
<text text-anchor="middle" x="1525.57" y="-63.5" font-family="Helvetica,sans-Serif" font-size="10.00">utility</text>
</a>
</g>
</g>
<!-- Node6&#45;&gt;Node10 -->
<g id="edge10" class="edge">
<title>Node6&#45;&gt;Node10</title>
<path fill="none" stroke="midnightblue" d="M1458.42,-112.32C1470.78,-103.98 1489.7,-91.21 1504.3,-81.35"/>
<polygon fill="midnightblue" stroke="midnightblue" points="1506.42,-84.15 1512.75,-75.65 1502.5,-78.35 1506.42,-84.15"/>
</g>
<!-- Node11 -->
<g id="node11" class="node">
<title>Node11</title>
<g id="a_node11"><a xlink:title=" ">
<polygon fill="none" stroke="#bfbfbf" points="995.07,-56.5 995.07,-75.5 1042.07,-75.5 1042.07,-56.5 995.07,-56.5"/>
<text text-anchor="middle" x="1018.57" y="-63.5" font-family="Helvetica,sans-Serif" font-size="10.00">vector</text>
</a>
</g>
</g>
<!-- Node6&#45;&gt;Node11 -->
<g id="edge11" class="edge">
<title>Node6&#45;&gt;Node11</title>
<path fill="none" stroke="midnightblue" d="M1400.89,-115.36C1333.44,-106.84 1201.59,-90.18 1089.57,-76 1077.36,-74.46 1063.98,-72.76 1052.16,-71.26"/>
<polygon fill="midnightblue" stroke="midnightblue" points="1052.6,-67.79 1042.23,-70 1051.71,-74.73 1052.6,-67.79"/>
</g>
<!-- Node12 -->
<g id="node12" class="node">
<title>Node12</title>
<g id="a_node12"><a xlink:href="msl_2bits_8h.html" target="_top" xlink:title=" ">
<polygon fill="none" stroke="black" points="1337.07,-56.5 1337.07,-75.5 1402.07,-75.5 1402.07,-56.5 1337.07,-56.5"/>
<text text-anchor="middle" x="1369.57" y="-63.5" font-family="Helvetica,sans-Serif" font-size="10.00">msl/bits.h</text>
</a>
</g>
</g>
<!-- Node6&#45;&gt;Node12 -->
<g id="edge12" class="edge">
<title>Node6&#45;&gt;Node12</title>
<path fill="none" stroke="midnightblue" d="M1433.36,-112.32C1421.79,-104.11 1404.19,-91.6 1390.41,-81.81"/>
<polygon fill="midnightblue" stroke="midnightblue" points="1392.18,-78.77 1382,-75.83 1388.13,-84.48 1392.18,-78.77"/>
</g>
<!-- Node12&#45;&gt;Node8 -->
<g id="edge13" class="edge">
<title>Node12&#45;&gt;Node8</title>
<path fill="none" stroke="midnightblue" d="M1369.57,-56.08C1369.57,-49.01 1369.57,-38.86 1369.57,-29.99"/>
<polygon fill="midnightblue" stroke="midnightblue" points="1373.07,-29.75 1369.57,-19.75 1366.07,-29.75 1373.07,-29.75"/>
</g>
<!-- Node13 -->
<g id="node13" class="node">
<title>Node13</title>
<g id="a_node13"><a xlink:title=" ">
<polygon fill="none" stroke="#bfbfbf" points="1048.57,-0.5 1048.57,-19.5 1092.57,-19.5 1092.57,-0.5 1048.57,-0.5"/>
<text text-anchor="middle" x="1070.57" y="-7.5" font-family="Helvetica,sans-Serif" font-size="10.00">limits</text>
</a>
</g>
</g>
<!-- Node12&#45;&gt;Node13 -->
<g id="edge14" class="edge">
<title>Node12&#45;&gt;Node13</title>
<path fill="none" stroke="midnightblue" d="M1337.03,-57.9C1333.84,-57.24 1330.64,-56.6 1327.57,-56 1246.79,-40.28 1151.24,-24.21 1102.56,-16.2"/>
<polygon fill="midnightblue" stroke="midnightblue" points="1103.06,-12.74 1092.62,-14.57 1101.92,-19.65 1103.06,-12.74"/>
</g>
<!-- Node14&#45;&gt;Node3 -->
<g id="edge17" class="edge">
<title>Node14&#45;&gt;Node3</title>
<path fill="none" stroke="midnightblue" d="M717.37,-232.87C618.96,-232.04 320.44,-226.31 76.57,-188 75.31,-187.8 74.04,-187.58 72.76,-187.35"/>
<polygon fill="midnightblue" stroke="midnightblue" points="73.42,-183.91 62.91,-185.24 71.96,-190.75 73.42,-183.91"/>
</g>
<!-- Node14&#45;&gt;Node4 -->
<g id="edge18" class="edge">
<title>Node14&#45;&gt;Node4</title>
<path fill="none" stroke="midnightblue" d="M717.25,-232.56C601.19,-230.73 219.48,-222.16 177.57,-188 147.01,-163.1 142.13,-113.28 141.92,-85.97"/>
<polygon fill="midnightblue" stroke="midnightblue" points="145.42,-85.83 142.06,-75.79 138.42,-85.74 145.42,-85.83"/>
</g>
<!-- Node14&#45;&gt;Node9 -->
<g id="edge21" class="edge">
<title>Node14&#45;&gt;Node9</title>
<path fill="none" stroke="midnightblue" d="M783.71,-231.67C888.2,-227.23 1206.18,-211.88 1245.57,-188 1280.6,-166.76 1288.55,-114.15 1290.23,-85.81"/>
<polygon fill="midnightblue" stroke="midnightblue" points="1293.73,-85.74 1290.62,-75.62 1286.74,-85.48 1293.73,-85.74"/>
</g>
<!-- Node14&#45;&gt;Node11 -->
<g id="edge24" class="edge">
<title>Node14&#45;&gt;Node11</title>
<path fill="none" stroke="midnightblue" d="M783.81,-231.93C878.39,-228.55 1143.9,-216.57 1169.57,-188 1212.24,-140.5 1108.29,-96.83 1051.93,-77.49"/>
<polygon fill="midnightblue" stroke="midnightblue" points="1052.93,-74.13 1042.34,-74.27 1050.71,-80.77 1052.93,-74.13"/>
</g>
<!-- Node14&#45;&gt;Node13 -->
<g id="edge19" class="edge">
<title>Node14&#45;&gt;Node13</title>
<path fill="none" stroke="midnightblue" d="M717.46,-232.47C599.35,-230.31 203.23,-220.66 157.57,-188 106.79,-151.69 66.47,-101.16 109.57,-56 142.29,-21.71 872.8,-12.85 1037.7,-11.28"/>
<polygon fill="midnightblue" stroke="midnightblue" points="1038.19,-14.78 1048.15,-11.18 1038.12,-7.78 1038.19,-14.78"/>
</g>
<!-- Node15 -->
<g id="node15" class="node">
<title>Node15</title>
<g id="a_node15"><a xlink:title=" ">
<polygon fill="none" stroke="#bfbfbf" points="934.57,-56.5 934.57,-75.5 976.57,-75.5 976.57,-56.5 934.57,-56.5"/>
<text text-anchor="middle" x="955.57" y="-63.5" font-family="Helvetica,sans-Serif" font-size="10.00">array</text>
</a>
</g>
</g>
<!-- Node14&#45;&gt;Node15 -->
<g id="edge16" class="edge">
<title>Node14&#45;&gt;Node15</title>
<path fill="none" stroke="midnightblue" d="M783.85,-231.78C875.96,-228.06 1129.04,-215.42 1153.57,-188 1159.49,-181.38 1158.21,-175.58 1153.57,-168 1134.63,-137.07 1036.75,-97.11 986.07,-78.05"/>
<polygon fill="midnightblue" stroke="midnightblue" points="987.2,-74.74 976.6,-74.53 984.75,-81.3 987.2,-74.74"/>
</g>
<!-- Node16 -->
<g id="node16" class="node">
<title>Node16</title>
<g id="a_node16"><a xlink:title=" ">
<polygon fill="none" stroke="#bfbfbf" points="194.57,-168.5 194.57,-187.5 252.57,-187.5 252.57,-168.5 194.57,-168.5"/>
<text text-anchor="middle" x="223.57" y="-175.5" font-family="Helvetica,sans-Serif" font-size="10.00">memory</text>
</a>
</g>
</g>
<!-- Node14&#45;&gt;Node16 -->
<g id="edge20" class="edge">
<title>Node14&#45;&gt;Node16</title>
<path fill="none" stroke="midnightblue" d="M717.45,-231.56C639.71,-227.85 439.35,-216.28 262.92,-188.01"/>
<polygon fill="midnightblue" stroke="midnightblue" points="263.38,-184.54 252.94,-186.39 262.25,-191.45 263.38,-184.54"/>
</g>
<!-- Node17 -->
<g id="node17" class="node">
<title>Node17</title>
<g id="a_node17"><a xlink:title=" ">
<polygon fill="none" stroke="#bfbfbf" points="271.07,-168.5 271.07,-187.5 318.07,-187.5 318.07,-168.5 271.07,-168.5"/>
<text text-anchor="middle" x="294.57" y="-175.5" font-family="Helvetica,sans-Serif" font-size="10.00">queue</text>
</a>
</g>
</g>
<!-- Node14&#45;&gt;Node17 -->
<g id="edge22" class="edge">
<title>Node14&#45;&gt;Node17</title>
<path fill="none" stroke="midnightblue" d="M717.3,-231.38C646.97,-227.54 477.97,-216.18 328.07,-188.01"/>
<polygon fill="midnightblue" stroke="midnightblue" points="328.71,-184.57 318.23,-186.13 327.39,-191.45 328.71,-184.57"/>
</g>
<!-- Node18 -->
<g id="node18" class="node">
<title>Node18</title>
<g id="a_node18"><a xlink:title=" ">
<polygon fill="none" stroke="#bfbfbf" points="336.07,-168.5 336.07,-187.5 401.07,-187.5 401.07,-168.5 336.07,-168.5"/>
<text text-anchor="middle" x="368.57" y="-175.5" font-family="Helvetica,sans-Serif" font-size="10.00">stdexcept</text>
</a>
</g>
</g>
<!-- Node14&#45;&gt;Node18 -->
<g id="edge23" class="edge">
<title>Node14&#45;&gt;Node18</title>
<path fill="none" stroke="midnightblue" d="M717.51,-229.58C658.1,-223.23 529.21,-208.54 411.12,-188.16"/>
<polygon fill="midnightblue" stroke="midnightblue" points="411.64,-184.69 401.19,-186.42 410.44,-191.59 411.64,-184.69"/>
</g>
<!-- Node19 -->
<g id="node19" class="node">
<title>Node19</title>
<g id="a_node19"><a xlink:href="champsim_8h.html" target="_top" xlink:title=" ">
<polygon fill="none" stroke="black" points="1543.07,-168.5 1543.07,-187.5 1620.07,-187.5 1620.07,-168.5 1543.07,-168.5"/>
<text text-anchor="middle" x="1581.57" y="-175.5" font-family="Helvetica,sans-Serif" font-size="10.00">champsim.h</text>
</a>
</g>
</g>
<!-- Node14&#45;&gt;Node19 -->
<g id="edge25" class="edge">
<title>Node14&#45;&gt;Node19</title>
<path fill="none" stroke="midnightblue" d="M783.66,-230.85C912.31,-222.49 1379.69,-192.12 1532.7,-182.18"/>
<polygon fill="midnightblue" stroke="midnightblue" points="1532.99,-185.66 1542.74,-181.52 1532.54,-178.68 1532.99,-185.66"/>
</g>
<!-- Node21 -->
<g id="node21" class="node">
<title>Node21</title>
<g id="a_node21"><a xlink:title=" ">
<polygon fill="none" stroke="#bfbfbf" points="419.07,-168.5 419.07,-187.5 548.07,-187.5 548.07,-168.5 419.07,-168.5"/>
<text text-anchor="middle" x="483.57" y="-175.5" font-family="Helvetica,sans-Serif" font-size="10.00">champsim_constants.h</text>
</a>
</g>
</g>
<!-- Node14&#45;&gt;Node21 -->
<g id="edge28" class="edge">
<title>Node14&#45;&gt;Node21</title>
<path fill="none" stroke="midnightblue" d="M717.56,-226.32C672.08,-217.13 589.65,-200.46 535.77,-189.56"/>
<polygon fill="midnightblue" stroke="midnightblue" points="536.22,-186.08 525.72,-187.53 534.83,-192.94 536.22,-186.08"/>
</g>
<!-- Node22 -->
<g id="node22" class="node">
<title>Node22</title>
<g id="a_node22"><a xlink:href="channel_8h.html" target="_top" xlink:title=" ">
<polygon fill="none" stroke="black" points="757.57,-112.5 757.57,-131.5 821.57,-131.5 821.57,-112.5 757.57,-112.5"/>
<text text-anchor="middle" x="789.57" y="-119.5" font-family="Helvetica,sans-Serif" font-size="10.00">channel.h</text>
</a>
</g>
</g>
<!-- Node14&#45;&gt;Node22 -->
<g id="edge29" class="edge">
<title>Node14&#45;&gt;Node22</title>
<path fill="none" stroke="midnightblue" d="M717.35,-232.91C601.69,-232.27 221.74,-227.17 185.57,-188 179.54,-181.47 179.52,-174.51 185.57,-168 223.66,-126.97 616.43,-123.06 747.36,-122.91"/>
<polygon fill="midnightblue" stroke="midnightblue" points="747.41,-126.41 757.41,-122.9 747.41,-119.41 747.41,-126.41"/>
</g>
<!-- Node25 -->
<g id="node25" class="node">
<title>Node25</title>
<g id="a_node25"><a xlink:href="instruction_8h.html" target="_top" xlink:title=" ">
<polygon fill="none" stroke="black" points="1196.07,-112.5 1196.07,-131.5 1273.07,-131.5 1273.07,-112.5 1196.07,-112.5"/>
<text text-anchor="middle" x="1234.57" y="-119.5" font-family="Helvetica,sans-Serif" font-size="10.00">instruction.h</text>
</a>
</g>
</g>
<!-- Node14&#45;&gt;Node25 -->
<g id="edge37" class="edge">
<title>Node14&#45;&gt;Node25</title>
<path fill="none" stroke="midnightblue" d="M783.57,-232.2C886.04,-229.4 1193.71,-218.51 1225.57,-188 1237.76,-176.32 1238.85,-156.38 1237.61,-141.65"/>
<polygon fill="midnightblue" stroke="midnightblue" points="1241.07,-141.12 1236.35,-131.63 1234.13,-141.99 1241.07,-141.12"/>
</g>
<!-- Node27 -->
<g id="node27" class="node">
<title>Node27</title>
<g id="a_node27"><a xlink:href="module__impl_8h.html" target="_top" xlink:title=" ">
<polygon fill="none" stroke="black" points="566.07,-168.5 566.07,-187.5 655.07,-187.5 655.07,-168.5 566.07,-168.5"/>
<text text-anchor="middle" x="610.57" y="-175.5" font-family="Helvetica,sans-Serif" font-size="10.00">module_impl.h</text>
</a>
</g>
</g>
<!-- Node14&#45;&gt;Node27 -->
<g id="edge46" class="edge">
<title>Node14&#45;&gt;Node27</title>
<path fill="none" stroke="midnightblue" d="M728.38,-224.44C705.14,-215.48 668.42,-201.31 642.15,-191.18"/>
<polygon fill="midnightblue" stroke="midnightblue" points="643.24,-187.85 632.65,-187.52 640.72,-194.38 643.24,-187.85"/>
</g>
<!-- Node28 -->
<g id="node28" class="node">
<title>Node28</title>
<g id="a_node28"><a xlink:href="operable_8h.html" target="_top" xlink:title=" ">
<polygon fill="none" stroke="black" points="673.57,-168.5 673.57,-187.5 741.57,-187.5 741.57,-168.5 673.57,-168.5"/>
<text text-anchor="middle" x="707.57" y="-175.5" font-family="Helvetica,sans-Serif" font-size="10.00">operable.h</text>
</a>
</g>
</g>
<!-- Node14&#45;&gt;Node28 -->
<g id="edge47" class="edge">
<title>Node14&#45;&gt;Node28</title>
<path fill="none" stroke="midnightblue" d="M743.47,-224.08C737.33,-216.38 728.3,-205.03 720.83,-195.65"/>
<polygon fill="midnightblue" stroke="midnightblue" points="723.5,-193.39 714.54,-187.75 718.03,-197.75 723.5,-193.39"/>
</g>
<!-- Node29 -->
<g id="node29" class="node">
<title>Node29</title>
<g id="a_node29"><a xlink:href="util_2lru__table_8h.html" target="_top" xlink:title=" ">
<polygon fill="none" stroke="black" points="1330.07,-168.5 1330.07,-187.5 1417.07,-187.5 1417.07,-168.5 1330.07,-168.5"/>
<text text-anchor="middle" x="1373.57" y="-175.5" font-family="Helvetica,sans-Serif" font-size="10.00">util/lru_table.h</text>
</a>
</g>
</g>
<!-- Node14&#45;&gt;Node29 -->
<g id="edge48" class="edge">
<title>Node14&#45;&gt;Node29</title>
<path fill="none" stroke="midnightblue" d="M783.77,-231.22C871.07,-226.36 1114.24,-211.6 1315.57,-188 1317.02,-187.83 1318.5,-187.65 1319.98,-187.46"/>
<polygon fill="midnightblue" stroke="midnightblue" points="1320.47,-190.93 1329.91,-186.13 1319.53,-183.99 1320.47,-190.93"/>
</g>
<!-- Node30 -->
<g id="node30" class="node">
<title>Node30</title>
<g id="a_node30"><a xlink:title=" ">
<polygon fill="none" stroke="#bfbfbf" points="760.07,-168.5 760.07,-187.5 829.07,-187.5 829.07,-168.5 760.07,-168.5"/>
<text text-anchor="middle" x="794.57" y="-175.5" font-family="Helvetica,sans-Serif" font-size="10.00">type_traits</text>
</a>
</g>
</g>
<!-- Node14&#45;&gt;Node30 -->
<g id="edge50" class="edge">
<title>Node14&#45;&gt;Node30</title>
<path fill="none" stroke="midnightblue" d="M757.83,-224.08C764.11,-216.38 773.36,-205.03 781,-195.65"/>
<polygon fill="midnightblue" stroke="midnightblue" points="783.83,-197.71 787.44,-187.75 778.41,-193.29 783.83,-197.71"/>
</g>
<!-- Node31 -->
<g id="node31" class="node">
<title>Node31</title>
<g id="a_node31"><a xlink:title=" ">
<polygon fill="none" stroke="#bfbfbf" points="847.57,-168.5 847.57,-187.5 989.57,-187.5 989.57,-168.5 847.57,-168.5"/>
<text text-anchor="middle" x="918.57" y="-175.5" font-family="Helvetica,sans-Serif" font-size="10.00">ooo_cpu_module_decl.inc</text>
</a>
</g>
</g>
<!-- Node14&#45;&gt;Node31 -->
<g id="edge51" class="edge">
<title>Node14&#45;&gt;Node31</title>
<path fill="none" stroke="midnightblue" d="M777.19,-224.44C805.57,-215.32 850.7,-200.81 882.32,-190.65"/>
<polygon fill="midnightblue" stroke="midnightblue" points="883.62,-193.91 892.07,-187.52 881.48,-187.24 883.62,-193.91"/>
</g>
<!-- Node32 -->
<g id="node32" class="node">
<title>Node32</title>
<g id="a_node32"><a xlink:title=" ">
<polygon fill="none" stroke="#bfbfbf" points="1008.07,-168.5 1008.07,-187.5 1145.07,-187.5 1145.07,-168.5 1008.07,-168.5"/>
<text text-anchor="middle" x="1076.57" y="-175.5" font-family="Helvetica,sans-Serif" font-size="10.00">ooo_cpu_module_def.inc</text>
</a>
</g>
</g>
<!-- Node14&#45;&gt;Node32 -->
<g id="edge52" class="edge">
<title>Node14&#45;&gt;Node32</title>
<path fill="none" stroke="midnightblue" d="M783.62,-227.53C837.74,-218.56 946.1,-200.61 1014.78,-189.24"/>
<polygon fill="midnightblue" stroke="midnightblue" points="1015.73,-192.62 1025.03,-187.54 1014.59,-185.72 1015.73,-192.62"/>
</g>
<!-- Node19&#45;&gt;Node8 -->
<g id="edge26" class="edge">
<title>Node19&#45;&gt;Node8</title>
<path fill="none" stroke="midnightblue" d="M1592.55,-168.3C1617.84,-147.26 1675.7,-92.64 1644.57,-56 1614.16,-20.22 1471.75,-12.83 1404.68,-11.34"/>
<polygon fill="midnightblue" stroke="midnightblue" points="1404.65,-7.84 1394.59,-11.15 1404.52,-14.84 1404.65,-7.84"/>
</g>
<!-- Node20 -->
<g id="node20" class="node">
<title>Node20</title>
<g id="a_node20"><a xlink:title=" ">
<polygon fill="none" stroke="#bfbfbf" points="1549.07,-112.5 1549.07,-131.5 1614.07,-131.5 1614.07,-112.5 1549.07,-112.5"/>
<text text-anchor="middle" x="1581.57" y="-119.5" font-family="Helvetica,sans-Serif" font-size="10.00">exception</text>
</a>
</g>
</g>
<!-- Node19&#45;&gt;Node20 -->
<g id="edge27" class="edge">
<title>Node19&#45;&gt;Node20</title>
<path fill="none" stroke="midnightblue" d="M1581.57,-168.08C1581.57,-161.01 1581.57,-150.86 1581.57,-141.99"/>
<polygon fill="midnightblue" stroke="midnightblue" points="1585.07,-141.75 1581.57,-131.75 1578.07,-141.75 1585.07,-141.75"/>
</g>
<!-- Node22&#45;&gt;Node4 -->
<g id="edge32" class="edge">
<title>Node22&#45;&gt;Node4</title>
<path fill="none" stroke="midnightblue" d="M757.48,-118.32C647.81,-109.17 288.43,-79.17 176.3,-69.82"/>
<polygon fill="midnightblue" stroke="midnightblue" points="176.49,-66.32 166.24,-68.98 175.91,-73.3 176.49,-66.32"/>
</g>
<!-- Node22&#45;&gt;Node8 -->
<g id="edge31" class="edge">
<title>Node22&#45;&gt;Node8</title>
<path fill="none" stroke="midnightblue" d="M793.55,-112.39C800.79,-97.85 817.6,-68.8 841.57,-56 884.9,-32.85 1223.54,-17 1334.49,-12.39"/>
<polygon fill="midnightblue" stroke="midnightblue" points="1334.66,-15.89 1344.5,-11.98 1334.37,-8.89 1334.66,-15.89"/>
</g>
<!-- Node22&#45;&gt;Node11 -->
<g id="edge35" class="edge">
<title>Node22&#45;&gt;Node11</title>
<path fill="none" stroke="midnightblue" d="M821.57,-114.07C858.56,-105.97 921.47,-91.91 985.02,-76.06"/>
<polygon fill="midnightblue" stroke="midnightblue" points="985.96,-79.43 994.81,-73.6 984.25,-72.64 985.96,-79.43"/>
</g>
<!-- Node22&#45;&gt;Node13 -->
<g id="edge34" class="edge">
<title>Node22&#45;&gt;Node13</title>
<path fill="none" stroke="midnightblue" d="M764.7,-112.44C734.85,-100.89 691.21,-79.06 711.57,-56 733.07,-31.64 954.31,-17.26 1038.39,-12.64"/>
<polygon fill="midnightblue" stroke="midnightblue" points="1038.6,-16.14 1048.4,-12.1 1038.22,-9.15 1038.6,-16.14"/>
</g>
<!-- Node22&#45;&gt;Node15 -->
<g id="edge30" class="edge">
<title>Node22&#45;&gt;Node15</title>
<path fill="none" stroke="midnightblue" d="M815.87,-112.44C845.49,-102.81 893.55,-87.18 924.86,-76.99"/>
<polygon fill="midnightblue" stroke="midnightblue" points="925.96,-80.31 934.39,-73.89 923.8,-73.65 925.96,-80.31"/>
</g>
<!-- Node23 -->
<g id="node23" class="node">
<title>Node23</title>
<g id="a_node23"><a xlink:title=" ">
<polygon fill="none" stroke="#bfbfbf" points="851.07,-56.5 851.07,-75.5 916.07,-75.5 916.07,-56.5 851.07,-56.5"/>
<text text-anchor="middle" x="883.57" y="-63.5" font-family="Helvetica,sans-Serif" font-size="10.00">functional</text>
</a>
</g>
</g>
<!-- Node22&#45;&gt;Node23 -->
<g id="edge33" class="edge">
<title>Node22&#45;&gt;Node23</title>
<path fill="none" stroke="midnightblue" d="M804.67,-112.32C819.47,-103.82 842.26,-90.73 859.55,-80.8"/>
<polygon fill="midnightblue" stroke="midnightblue" points="861.57,-83.67 868.5,-75.65 858.09,-77.6 861.57,-83.67"/>
</g>
<!-- Node24 -->
<g id="node24" class="node">
<title>Node24</title>
<g id="a_node24"><a xlink:title=" ">
<polygon fill="none" stroke="#bfbfbf" points="721.07,-56.5 721.07,-75.5 794.07,-75.5 794.07,-56.5 721.07,-56.5"/>
<text text-anchor="middle" x="757.57" y="-63.5" font-family="Helvetica,sans-Serif" font-size="10.00">string_view</text>
</a>
</g>
</g>
<!-- Node22&#45;&gt;Node24 -->
<g id="edge36" class="edge">
<title>Node22&#45;&gt;Node24</title>
<path fill="none" stroke="midnightblue" d="M784.28,-112.08C779.86,-104.61 773.4,-93.72 767.95,-84.52"/>
<polygon fill="midnightblue" stroke="midnightblue" points="770.86,-82.57 762.75,-75.75 764.84,-86.14 770.86,-82.57"/>
</g>
<!-- Node25&#45;&gt;Node2 -->
<g id="edge38" class="edge">
<title>Node25&#45;&gt;Node2</title>
<path fill="none" stroke="midnightblue" d="M1269.11,-112.44C1307.49,-102.94 1369.45,-87.59 1410.59,-77.4"/>
<polygon fill="midnightblue" stroke="midnightblue" points="1411.45,-80.79 1420.32,-74.99 1409.77,-74 1411.45,-80.79"/>
</g>
<!-- Node25&#45;&gt;Node8 -->
<g id="edge40" class="edge">
<title>Node25&#45;&gt;Node8</title>
<path fill="none" stroke="midnightblue" d="M1234.76,-112.25C1235.52,-98.54 1238.94,-71.94 1253.57,-56 1274.49,-33.2 1308.33,-21.83 1334.07,-16.23"/>
<polygon fill="midnightblue" stroke="midnightblue" points="1335.06,-19.6 1344.19,-14.23 1333.7,-12.73 1335.06,-19.6"/>
</g>
<!-- Node25&#45;&gt;Node11 -->
<g id="edge43" class="edge">
<title>Node25&#45;&gt;Node11</title>
<path fill="none" stroke="midnightblue" d="M1200.34,-112.44C1159.74,-102.29 1092.5,-85.48 1052.17,-75.4"/>
<polygon fill="midnightblue" stroke="midnightblue" points="1052.84,-71.96 1042.29,-72.93 1051.14,-78.75 1052.84,-71.96"/>
</g>
<!-- Node25&#45;&gt;Node13 -->
<g id="edge42" class="edge">
<title>Node25&#45;&gt;Node13</title>
<path fill="none" stroke="midnightblue" d="M1195.98,-113.33C1158.29,-105.11 1104.49,-91.17 1089.57,-76 1077.6,-63.83 1073.09,-44.56 1071.44,-30.15"/>
<polygon fill="midnightblue" stroke="midnightblue" points="1074.9,-29.57 1070.63,-19.87 1067.92,-30.12 1074.9,-29.57"/>
</g>
<!-- Node25&#45;&gt;Node15 -->
<g id="edge39" class="edge">
<title>Node25&#45;&gt;Node15</title>
<path fill="none" stroke="midnightblue" d="M1195.9,-115.4C1148.72,-108.25 1066.37,-94.81 986.96,-76.12"/>
<polygon fill="midnightblue" stroke="midnightblue" points="987.33,-72.61 976.79,-73.69 985.71,-79.42 987.33,-72.61"/>
</g>
<!-- Node25&#45;&gt;Node23 -->
<g id="edge41" class="edge">
<title>Node25&#45;&gt;Node23</title>
<path fill="none" stroke="midnightblue" d="M1195.9,-116.21C1139.09,-108.98 1029.53,-94.36 926.08,-75.98"/>
<polygon fill="midnightblue" stroke="midnightblue" points="926.55,-72.51 916.08,-74.19 925.31,-79.4 926.55,-72.51"/>
</g>
<!-- Node26 -->
<g id="node26" class="node">
<title>Node26</title>
<g id="a_node26"><a xlink:href="trace__instruction_8h.html" target="_top" xlink:title=" ">
<polygon fill="none" stroke="black" points="1099.07,-56.5 1099.07,-75.5 1206.07,-75.5 1206.07,-56.5 1099.07,-56.5"/>
<text text-anchor="middle" x="1152.57" y="-63.5" font-family="Helvetica,sans-Serif" font-size="10.00">trace_instruction.h</text>
</a>
</g>
</g>
<!-- Node25&#45;&gt;Node26 -->
<g id="edge44" class="edge">
<title>Node25&#45;&gt;Node26</title>
<path fill="none" stroke="midnightblue" d="M1221.39,-112.32C1208.72,-103.98 1189.33,-91.21 1174.36,-81.35"/>
<polygon fill="midnightblue" stroke="midnightblue" points="1175.99,-78.23 1165.71,-75.65 1172.14,-84.08 1175.99,-78.23"/>
</g>
<!-- Node26&#45;&gt;Node13 -->
<g id="edge45" class="edge">
<title>Node26&#45;&gt;Node13</title>
<path fill="none" stroke="midnightblue" d="M1139.39,-56.32C1126.72,-47.98 1107.33,-35.21 1092.36,-25.35"/>
<polygon fill="midnightblue" stroke="midnightblue" points="1093.99,-22.23 1083.71,-19.65 1090.14,-28.08 1093.99,-22.23"/>
</g>
<!-- Node29&#45;&gt;Node6 -->
<g id="edge49" class="edge">
<title>Node29&#45;&gt;Node6</title>
<path fill="none" stroke="midnightblue" d="M1385.14,-168.32C1395.99,-160.18 1412.45,-147.84 1425.45,-138.09"/>
<polygon fill="midnightblue" stroke="midnightblue" points="1427.89,-140.63 1433.79,-131.83 1423.69,-135.03 1427.89,-140.63"/>
</g>
</g>
</svg>
