<?xml version="1.0" encoding="UTF-8" standalone="no"?>
<!DOCTYPE svg PUBLIC "-//W3C//DTD SVG 1.1//EN"
 "http://www.w3.org/Graphics/SVG/1.1/DTD/svg11.dtd">
<!-- Generated by graphviz version 2.43.0 (0)
 -->
<!-- Title: btb/basic_btb.h Pages: 1 -->
<svg width="1906pt" height="308pt"
 viewBox="0.00 0.00 1905.65 308.00" xmlns="http://www.w3.org/2000/svg" xmlns:xlink="http://www.w3.org/1999/xlink">
<g id="graph0" class="graph" transform="scale(1 1) rotate(0) translate(4 304)">
<title>btb/basic_btb.h</title>
<!-- Node1 -->
<g id="node1" class="node">
<title>Node1</title>
<g id="a_node1"><a xlink:title=" ">
<polygon fill="#bfbfbf" stroke="black" points="907.65,-280.5 907.65,-299.5 998.65,-299.5 998.65,-280.5 907.65,-280.5"/>
<text text-anchor="middle" x="953.15" y="-287.5" font-family="Helvetica,sans-Serif" font-size="10.00">btb/basic_btb.h</text>
</a>
</g>
</g>
<!-- Node2 -->
<g id="node2" class="node">
<title>Node2</title>
<g id="a_node2"><a xlink:href="ooo__cpu_8h.html" target="_top" xlink:title=" ">
<polygon fill="none" stroke="black" points="874.15,-224.5 874.15,-243.5 940.15,-243.5 940.15,-224.5 874.15,-224.5"/>
<text text-anchor="middle" x="907.15" y="-231.5" font-family="Helvetica,sans-Serif" font-size="10.00">ooo_cpu.h</text>
</a>
</g>
</g>
<!-- Node1&#45;&gt;Node2 -->
<g id="edge1" class="edge">
<title>Node1&#45;&gt;Node2</title>
<path fill="none" stroke="midnightblue" d="M945.55,-280.08C938.92,-272.3 929.13,-260.8 921.09,-251.37"/>
<polygon fill="midnightblue" stroke="midnightblue" points="923.75,-249.09 914.6,-243.75 918.42,-253.63 923.75,-249.09"/>
</g>
<!-- Node32 -->
<g id="node32" class="node">
<title>Node32</title>
<g id="a_node32"><a xlink:href="branch__info_8h.html" target="_top" xlink:title=" ">
<polygon fill="none" stroke="black" points="958.65,-224.5 958.65,-243.5 1041.65,-243.5 1041.65,-224.5 958.65,-224.5"/>
<text text-anchor="middle" x="1000.15" y="-231.5" font-family="Helvetica,sans-Serif" font-size="10.00">branch_info.h</text>
</a>
</g>
</g>
<!-- Node1&#45;&gt;Node32 -->
<g id="edge48" class="edge">
<title>Node1&#45;&gt;Node32</title>
<path fill="none" stroke="midnightblue" d="M960.91,-280.08C967.68,-272.3 977.69,-260.8 985.9,-251.37"/>
<polygon fill="midnightblue" stroke="midnightblue" points="988.6,-253.59 992.53,-243.75 983.32,-249 988.6,-253.59"/>
</g>
<!-- Node3 -->
<g id="node3" class="node">
<title>Node3</title>
<g id="a_node3"><a xlink:title=" ">
<polygon fill="none" stroke="#bfbfbf" points="247.15,-56.5 247.15,-75.5 289.15,-75.5 289.15,-56.5 247.15,-56.5"/>
<text text-anchor="middle" x="268.15" y="-63.5" font-family="Helvetica,sans-Serif" font-size="10.00">array</text>
</a>
</g>
</g>
<!-- Node2&#45;&gt;Node3 -->
<g id="edge2" class="edge">
<title>Node2&#45;&gt;Node3</title>
<path fill="none" stroke="midnightblue" d="M873.71,-231.26C812.7,-227.48 679.59,-216.45 571.15,-188 465.11,-160.19 346.24,-105.28 294.53,-80.13"/>
<polygon fill="midnightblue" stroke="midnightblue" points="295.91,-76.91 285.39,-75.66 292.83,-83.2 295.91,-76.91"/>
</g>
<!-- Node4 -->
<g id="node4" class="node">
<title>Node4</title>
<g id="a_node4"><a xlink:title=" ">
<polygon fill="none" stroke="#bfbfbf" points="885.15,-168.5 885.15,-187.5 929.15,-187.5 929.15,-168.5 885.15,-168.5"/>
<text text-anchor="middle" x="907.15" y="-175.5" font-family="Helvetica,sans-Serif" font-size="10.00">bitset</text>
</a>
</g>
</g>
<!-- Node2&#45;&gt;Node4 -->
<g id="edge3" class="edge">
<title>Node2&#45;&gt;Node4</title>
<path fill="none" stroke="midnightblue" d="M907.15,-224.08C907.15,-217.01 907.15,-206.86 907.15,-197.99"/>
<polygon fill="midnightblue" stroke="midnightblue" points="910.65,-197.75 907.15,-187.75 903.65,-197.75 910.65,-197.75"/>
</g>
<!-- Node5 -->
<g id="node5" class="node">
<title>Node5</title>
<g id="a_node5"><a xlink:title=" ">
<polygon fill="none" stroke="#bfbfbf" points="13.65,-56.5 13.65,-75.5 60.65,-75.5 60.65,-56.5 13.65,-56.5"/>
<text text-anchor="middle" x="37.15" y="-63.5" font-family="Helvetica,sans-Serif" font-size="10.00">deque</text>
</a>
</g>
</g>
<!-- Node2&#45;&gt;Node5 -->
<g id="edge4" class="edge">
<title>Node2&#45;&gt;Node5</title>
<path fill="none" stroke="midnightblue" d="M873.84,-232.03C764.16,-228.58 415.04,-215.66 306.15,-188 210,-163.58 105.33,-106.83 60.09,-80.66"/>
<polygon fill="midnightblue" stroke="midnightblue" points="61.76,-77.59 51.36,-75.57 58.23,-83.63 61.76,-77.59"/>
</g>
<!-- Node6 -->
<g id="node6" class="node">
<title>Node6</title>
<g id="a_node6"><a xlink:title=" ">
<polygon fill="none" stroke="#bfbfbf" points="422.15,-0.5 422.15,-19.5 466.15,-19.5 466.15,-0.5 422.15,-0.5"/>
<text text-anchor="middle" x="444.15" y="-7.5" font-family="Helvetica,sans-Serif" font-size="10.00">limits</text>
</a>
</g>
</g>
<!-- Node2&#45;&gt;Node6 -->
<g id="edge5" class="edge">
<title>Node2&#45;&gt;Node6</title>
<path fill="none" stroke="midnightblue" d="M874.03,-232.29C757.09,-229.53 364.01,-218.2 242.15,-188 128.67,-159.88 65.61,-175.45 4.15,-76 -0.53,-68.44 -1.81,-62.6 4.15,-56 31.4,-25.82 314.76,-14.78 411.78,-11.86"/>
<polygon fill="midnightblue" stroke="midnightblue" points="411.98,-15.36 421.88,-11.57 411.78,-8.36 411.98,-15.36"/>
</g>
<!-- Node7 -->
<g id="node7" class="node">
<title>Node7</title>
<g id="a_node7"><a xlink:title=" ">
<polygon fill="none" stroke="#bfbfbf" points="947.15,-168.5 947.15,-187.5 1005.15,-187.5 1005.15,-168.5 947.15,-168.5"/>
<text text-anchor="middle" x="976.15" y="-175.5" font-family="Helvetica,sans-Serif" font-size="10.00">memory</text>
</a>
</g>
</g>
<!-- Node2&#45;&gt;Node7 -->
<g id="edge6" class="edge">
<title>Node2&#45;&gt;Node7</title>
<path fill="none" stroke="midnightblue" d="M918.23,-224.32C928.63,-216.18 944.41,-203.84 956.87,-194.09"/>
<polygon fill="midnightblue" stroke="midnightblue" points="959.14,-196.75 964.86,-187.83 954.83,-191.24 959.14,-196.75"/>
</g>
<!-- Node8 -->
<g id="node8" class="node">
<title>Node8</title>
<g id="a_node8"><a xlink:title=" ">
<polygon fill="none" stroke="#bfbfbf" points="995.15,-56.5 995.15,-75.5 1051.15,-75.5 1051.15,-56.5 995.15,-56.5"/>
<text text-anchor="middle" x="1023.15" y="-63.5" font-family="Helvetica,sans-Serif" font-size="10.00">optional</text>
</a>
</g>
</g>
<!-- Node2&#45;&gt;Node8 -->
<g id="edge7" class="edge">
<title>Node2&#45;&gt;Node8</title>
<path fill="none" stroke="midnightblue" d="M874.04,-231.32C844.24,-227.85 802.02,-217.62 781.15,-188 770.97,-173.55 767.43,-133.4 787.15,-112 793.84,-104.74 919.77,-83.6 984.87,-73.08"/>
<polygon fill="midnightblue" stroke="midnightblue" points="985.45,-76.53 994.76,-71.49 984.34,-69.62 985.45,-76.53"/>
</g>
<!-- Node9 -->
<g id="node9" class="node">
<title>Node9</title>
<g id="a_node9"><a xlink:title=" ">
<polygon fill="none" stroke="#bfbfbf" points="1023.65,-168.5 1023.65,-187.5 1070.65,-187.5 1070.65,-168.5 1023.65,-168.5"/>
<text text-anchor="middle" x="1047.15" y="-175.5" font-family="Helvetica,sans-Serif" font-size="10.00">queue</text>
</a>
</g>
</g>
<!-- Node2&#45;&gt;Node9 -->
<g id="edge8" class="edge">
<title>Node2&#45;&gt;Node9</title>
<path fill="none" stroke="midnightblue" d="M929.33,-224.44C952.58,-215.48 989.3,-201.31 1015.56,-191.18"/>
<polygon fill="midnightblue" stroke="midnightblue" points="1017,-194.38 1025.07,-187.52 1014.48,-187.85 1017,-194.38"/>
</g>
<!-- Node10 -->
<g id="node10" class="node">
<title>Node10</title>
<g id="a_node10"><a xlink:title=" ">
<polygon fill="none" stroke="#bfbfbf" points="1088.65,-168.5 1088.65,-187.5 1153.65,-187.5 1153.65,-168.5 1088.65,-168.5"/>
<text text-anchor="middle" x="1121.15" y="-175.5" font-family="Helvetica,sans-Serif" font-size="10.00">stdexcept</text>
</a>
</g>
</g>
<!-- Node2&#45;&gt;Node10 -->
<g id="edge9" class="edge">
<title>Node2&#45;&gt;Node10</title>
<path fill="none" stroke="midnightblue" d="M940.58,-224.56C977.86,-215.16 1038.23,-199.92 1078.79,-189.69"/>
<polygon fill="midnightblue" stroke="midnightblue" points="1079.81,-193.04 1088.64,-187.2 1078.09,-186.25 1079.81,-193.04"/>
</g>
<!-- Node11 -->
<g id="node11" class="node">
<title>Node11</title>
<g id="a_node11"><a xlink:title=" ">
<polygon fill="none" stroke="#bfbfbf" points="592.65,-56.5 592.65,-75.5 639.65,-75.5 639.65,-56.5 592.65,-56.5"/>
<text text-anchor="middle" x="616.15" y="-63.5" font-family="Helvetica,sans-Serif" font-size="10.00">vector</text>
</a>
</g>
</g>
<!-- Node2&#45;&gt;Node11 -->
<g id="edge10" class="edge">
<title>Node2&#45;&gt;Node11</title>
<path fill="none" stroke="midnightblue" d="M874.06,-232.11C809.47,-229.67 670.02,-220.65 637.15,-188 610,-161.04 610.59,-112.42 613.38,-85.76"/>
<polygon fill="midnightblue" stroke="midnightblue" points="616.89,-85.86 614.67,-75.5 609.95,-84.98 616.89,-85.86"/>
</g>
<!-- Node12 -->
<g id="node12" class="node">
<title>Node12</title>
<g id="a_node12"><a xlink:href="champsim_8h.html" target="_top" xlink:title=" ">
<polygon fill="none" stroke="black" points="789.65,-168.5 789.65,-187.5 866.65,-187.5 866.65,-168.5 789.65,-168.5"/>
<text text-anchor="middle" x="828.15" y="-175.5" font-family="Helvetica,sans-Serif" font-size="10.00">champsim.h</text>
</a>
</g>
</g>
<!-- Node2&#45;&gt;Node12 -->
<g id="edge11" class="edge">
<title>Node2&#45;&gt;Node12</title>
<path fill="none" stroke="midnightblue" d="M894.45,-224.32C882.25,-215.98 863.57,-203.21 849.14,-193.35"/>
<polygon fill="midnightblue" stroke="midnightblue" points="851.04,-190.41 840.81,-187.65 847.09,-196.19 851.04,-190.41"/>
</g>
<!-- Node15 -->
<g id="node15" class="node">
<title>Node15</title>
<g id="a_node15"><a xlink:title=" ">
<polygon fill="none" stroke="#bfbfbf" points="1171.65,-168.5 1171.65,-187.5 1300.65,-187.5 1300.65,-168.5 1171.65,-168.5"/>
<text text-anchor="middle" x="1236.15" y="-175.5" font-family="Helvetica,sans-Serif" font-size="10.00">champsim_constants.h</text>
</a>
</g>
</g>
<!-- Node2&#45;&gt;Node15 -->
<g id="edge14" class="edge">
<title>Node2&#45;&gt;Node15</title>
<path fill="none" stroke="midnightblue" d="M940.45,-225.86C943.72,-225.21 947,-224.58 950.15,-224 1023.61,-210.54 1108.13,-197.55 1166.14,-189.01"/>
<polygon fill="midnightblue" stroke="midnightblue" points="1166.9,-192.44 1176.29,-187.52 1165.89,-185.51 1166.9,-192.44"/>
</g>
<!-- Node16 -->
<g id="node16" class="node">
<title>Node16</title>
<g id="a_node16"><a xlink:href="channel_8h.html" target="_top" xlink:title=" ">
<polygon fill="none" stroke="black" points="193.15,-112.5 193.15,-131.5 257.15,-131.5 257.15,-112.5 193.15,-112.5"/>
<text text-anchor="middle" x="225.15" y="-119.5" font-family="Helvetica,sans-Serif" font-size="10.00">channel.h</text>
</a>
</g>
</g>
<!-- Node2&#45;&gt;Node16 -->
<g id="edge15" class="edge">
<title>Node2&#45;&gt;Node16</title>
<path fill="none" stroke="midnightblue" d="M874.02,-231.84C771.24,-228 458.82,-214.41 361.15,-188 318.85,-176.56 273.7,-152.28 247.53,-136.85"/>
<polygon fill="midnightblue" stroke="midnightblue" points="249.16,-133.75 238.78,-131.6 245.56,-139.75 249.16,-133.75"/>
</g>
<!-- Node19 -->
<g id="node19" class="node">
<title>Node19</title>
<g id="a_node19"><a xlink:href="instruction_8h.html" target="_top" xlink:title=" ">
<polygon fill="none" stroke="black" points="498.65,-112.5 498.65,-131.5 575.65,-131.5 575.65,-112.5 498.65,-112.5"/>
<text text-anchor="middle" x="537.15" y="-119.5" font-family="Helvetica,sans-Serif" font-size="10.00">instruction.h</text>
</a>
</g>
</g>
<!-- Node2&#45;&gt;Node19 -->
<g id="edge23" class="edge">
<title>Node2&#45;&gt;Node19</title>
<path fill="none" stroke="midnightblue" d="M874.04,-230.74C805.26,-225.64 649.37,-211.75 602.15,-188 579.98,-176.85 560.76,-155.27 549.09,-140.04"/>
<polygon fill="midnightblue" stroke="midnightblue" points="551.87,-137.91 543.12,-131.93 546.23,-142.06 551.87,-137.91"/>
</g>
<!-- Node22 -->
<g id="node22" class="node">
<title>Node22</title>
<g id="a_node22"><a xlink:href="module__impl_8h.html" target="_top" xlink:title=" ">
<polygon fill="none" stroke="black" points="1318.65,-168.5 1318.65,-187.5 1407.65,-187.5 1407.65,-168.5 1318.65,-168.5"/>
<text text-anchor="middle" x="1363.15" y="-175.5" font-family="Helvetica,sans-Serif" font-size="10.00">module_impl.h</text>
</a>
</g>
</g>
<!-- Node2&#45;&gt;Node22 -->
<g id="edge32" class="edge">
<title>Node2&#45;&gt;Node22</title>
<path fill="none" stroke="midnightblue" d="M940.42,-225.67C943.7,-225.06 946.98,-224.49 950.15,-224 1105.81,-200 1149.03,-209.08 1308.21,-188.18"/>
<polygon fill="midnightblue" stroke="midnightblue" points="1308.91,-191.62 1318.36,-186.83 1307.99,-184.68 1308.91,-191.62"/>
</g>
<!-- Node23 -->
<g id="node23" class="node">
<title>Node23</title>
<g id="a_node23"><a xlink:href="operable_8h.html" target="_top" xlink:title=" ">
<polygon fill="none" stroke="black" points="1426.15,-168.5 1426.15,-187.5 1494.15,-187.5 1494.15,-168.5 1426.15,-168.5"/>
<text text-anchor="middle" x="1460.15" y="-175.5" font-family="Helvetica,sans-Serif" font-size="10.00">operable.h</text>
</a>
</g>
</g>
<!-- Node2&#45;&gt;Node23 -->
<g id="edge33" class="edge">
<title>Node2&#45;&gt;Node23</title>
<path fill="none" stroke="midnightblue" d="M940.41,-225.6C943.69,-225 946.98,-224.45 950.15,-224 1153.01,-195.07 1209.31,-216.69 1415.99,-187.98"/>
<polygon fill="midnightblue" stroke="midnightblue" points="1416.54,-191.44 1425.95,-186.57 1415.56,-184.51 1416.54,-191.44"/>
</g>
<!-- Node24 -->
<g id="node24" class="node">
<title>Node24</title>
<g id="a_node24"><a xlink:href="util_2lru__table_8h.html" target="_top" xlink:title=" ">
<polygon fill="none" stroke="black" points="645.65,-168.5 645.65,-187.5 732.65,-187.5 732.65,-168.5 645.65,-168.5"/>
<text text-anchor="middle" x="689.15" y="-175.5" font-family="Helvetica,sans-Serif" font-size="10.00">util/lru_table.h</text>
</a>
</g>
</g>
<!-- Node2&#45;&gt;Node24 -->
<g id="edge34" class="edge">
<title>Node2&#45;&gt;Node24</title>
<path fill="none" stroke="midnightblue" d="M874.04,-224.8C836.51,-215.5 775.17,-200.31 733.53,-189.99"/>
<polygon fill="midnightblue" stroke="midnightblue" points="734.2,-186.55 723.65,-187.55 732.52,-193.35 734.2,-186.55"/>
</g>
<!-- Node29 -->
<g id="node29" class="node">
<title>Node29</title>
<g id="a_node29"><a xlink:title=" ">
<polygon fill="none" stroke="#bfbfbf" points="1512.65,-168.5 1512.65,-187.5 1581.65,-187.5 1581.65,-168.5 1512.65,-168.5"/>
<text text-anchor="middle" x="1547.15" y="-175.5" font-family="Helvetica,sans-Serif" font-size="10.00">type_traits</text>
</a>
</g>
</g>
<!-- Node2&#45;&gt;Node29 -->
<g id="edge45" class="edge">
<title>Node2&#45;&gt;Node29</title>
<path fill="none" stroke="midnightblue" d="M940.4,-225.56C943.68,-224.97 946.97,-224.43 950.15,-224 1190.96,-191.13 1257.3,-219.97 1502.7,-187.84"/>
<polygon fill="midnightblue" stroke="midnightblue" points="1503.18,-191.31 1512.64,-186.52 1502.26,-184.37 1503.18,-191.31"/>
</g>
<!-- Node30 -->
<g id="node30" class="node">
<title>Node30</title>
<g id="a_node30"><a xlink:title=" ">
<polygon fill="none" stroke="#bfbfbf" points="1600.15,-168.5 1600.15,-187.5 1742.15,-187.5 1742.15,-168.5 1600.15,-168.5"/>
<text text-anchor="middle" x="1671.15" y="-175.5" font-family="Helvetica,sans-Serif" font-size="10.00">ooo_cpu_module_decl.inc</text>
</a>
</g>
</g>
<!-- Node2&#45;&gt;Node30 -->
<g id="edge46" class="edge">
<title>Node2&#45;&gt;Node30</title>
<path fill="none" stroke="midnightblue" d="M940.4,-225.53C943.68,-224.94 946.97,-224.42 950.15,-224 1229.72,-187.1 1305.06,-211.37 1589.85,-188.06"/>
<polygon fill="midnightblue" stroke="midnightblue" points="1590.39,-191.52 1600.07,-187.21 1589.81,-184.55 1590.39,-191.52"/>
</g>
<!-- Node31 -->
<g id="node31" class="node">
<title>Node31</title>
<g id="a_node31"><a xlink:title=" ">
<polygon fill="none" stroke="#bfbfbf" points="1760.65,-168.5 1760.65,-187.5 1897.65,-187.5 1897.65,-168.5 1760.65,-168.5"/>
<text text-anchor="middle" x="1829.15" y="-175.5" font-family="Helvetica,sans-Serif" font-size="10.00">ooo_cpu_module_def.inc</text>
</a>
</g>
</g>
<!-- Node2&#45;&gt;Node31 -->
<g id="edge47" class="edge">
<title>Node2&#45;&gt;Node31</title>
<path fill="none" stroke="midnightblue" d="M940.39,-225.49C943.68,-224.91 946.97,-224.4 950.15,-224 1300.42,-179.77 1394.19,-215.76 1750.2,-188.01"/>
<polygon fill="midnightblue" stroke="midnightblue" points="1750.58,-191.49 1760.27,-187.21 1750.02,-184.51 1750.58,-191.49"/>
</g>
<!-- Node13 -->
<g id="node13" class="node">
<title>Node13</title>
<g id="a_node13"><a xlink:title=" ">
<polygon fill="none" stroke="#bfbfbf" points="881.15,-0.5 881.15,-19.5 931.15,-19.5 931.15,-0.5 881.15,-0.5"/>
<text text-anchor="middle" x="906.15" y="-7.5" font-family="Helvetica,sans-Serif" font-size="10.00">cstdint</text>
</a>
</g>
</g>
<!-- Node12&#45;&gt;Node13 -->
<g id="edge12" class="edge">
<title>Node12&#45;&gt;Node13</title>
<path fill="none" stroke="midnightblue" d="M858.27,-168.37C915.6,-151.27 1036.79,-111.64 1060.15,-76 1089.6,-31.06 995.89,-17.12 941.77,-12.85"/>
<polygon fill="midnightblue" stroke="midnightblue" points="941.74,-9.34 931.52,-12.12 941.24,-16.32 941.74,-9.34"/>
</g>
<!-- Node14 -->
<g id="node14" class="node">
<title>Node14</title>
<g id="a_node14"><a xlink:title=" ">
<polygon fill="none" stroke="#bfbfbf" points="795.65,-112.5 795.65,-131.5 860.65,-131.5 860.65,-112.5 795.65,-112.5"/>
<text text-anchor="middle" x="828.15" y="-119.5" font-family="Helvetica,sans-Serif" font-size="10.00">exception</text>
</a>
</g>
</g>
<!-- Node12&#45;&gt;Node14 -->
<g id="edge13" class="edge">
<title>Node12&#45;&gt;Node14</title>
<path fill="none" stroke="midnightblue" d="M828.15,-168.08C828.15,-161.01 828.15,-150.86 828.15,-141.99"/>
<polygon fill="midnightblue" stroke="midnightblue" points="831.65,-141.75 828.15,-131.75 824.65,-141.75 831.65,-141.75"/>
</g>
<!-- Node16&#45;&gt;Node3 -->
<g id="edge16" class="edge">
<title>Node16&#45;&gt;Node3</title>
<path fill="none" stroke="midnightblue" d="M232.25,-112.08C238.38,-104.38 247.42,-93.03 254.89,-83.65"/>
<polygon fill="midnightblue" stroke="midnightblue" points="257.69,-85.75 261.18,-75.75 252.21,-81.39 257.69,-85.75"/>
</g>
<!-- Node16&#45;&gt;Node5 -->
<g id="edge18" class="edge">
<title>Node16&#45;&gt;Node5</title>
<path fill="none" stroke="midnightblue" d="M195.36,-112.44C161.43,-102.7 106.14,-86.82 70.71,-76.64"/>
<polygon fill="midnightblue" stroke="midnightblue" points="71.42,-73.2 60.84,-73.81 69.49,-79.93 71.42,-73.2"/>
</g>
<!-- Node16&#45;&gt;Node6 -->
<g id="edge20" class="edge">
<title>Node16&#45;&gt;Node6</title>
<path fill="none" stroke="midnightblue" d="M192.96,-114.97C151.25,-105.79 86.82,-86.14 113.15,-56 151.69,-11.87 335.6,-9.37 411.39,-10.27"/>
<polygon fill="midnightblue" stroke="midnightblue" points="411.71,-13.78 421.76,-10.43 411.81,-6.78 411.71,-13.78"/>
</g>
<!-- Node16&#45;&gt;Node11 -->
<g id="edge21" class="edge">
<title>Node16&#45;&gt;Node11</title>
<path fill="none" stroke="midnightblue" d="M257.48,-116.54C330.55,-106.44 507.84,-81.96 582.32,-71.67"/>
<polygon fill="midnightblue" stroke="midnightblue" points="583.11,-75.1 592.53,-70.26 582.15,-68.16 583.11,-75.1"/>
</g>
<!-- Node16&#45;&gt;Node13 -->
<g id="edge17" class="edge">
<title>Node16&#45;&gt;Node13</title>
<path fill="none" stroke="midnightblue" d="M200.28,-112.49C169.83,-100.81 124.77,-78.68 146.15,-56 171.3,-29.32 724.09,-15.08 870.71,-11.76"/>
<polygon fill="midnightblue" stroke="midnightblue" points="871.03,-15.25 880.94,-11.53 870.87,-8.26 871.03,-15.25"/>
</g>
<!-- Node17 -->
<g id="node17" class="node">
<title>Node17</title>
<g id="a_node17"><a xlink:title=" ">
<polygon fill="none" stroke="#bfbfbf" points="307.65,-56.5 307.65,-75.5 372.65,-75.5 372.65,-56.5 307.65,-56.5"/>
<text text-anchor="middle" x="340.15" y="-63.5" font-family="Helvetica,sans-Serif" font-size="10.00">functional</text>
</a>
</g>
</g>
<!-- Node16&#45;&gt;Node17 -->
<g id="edge19" class="edge">
<title>Node16&#45;&gt;Node17</title>
<path fill="none" stroke="midnightblue" d="M243.37,-112.44C262.04,-103.68 291.3,-89.94 312.76,-79.86"/>
<polygon fill="midnightblue" stroke="midnightblue" points="314.45,-82.93 322.01,-75.52 311.47,-76.6 314.45,-82.93"/>
</g>
<!-- Node18 -->
<g id="node18" class="node">
<title>Node18</title>
<g id="a_node18"><a xlink:title=" ">
<polygon fill="none" stroke="#bfbfbf" points="155.65,-56.5 155.65,-75.5 228.65,-75.5 228.65,-56.5 155.65,-56.5"/>
<text text-anchor="middle" x="192.15" y="-63.5" font-family="Helvetica,sans-Serif" font-size="10.00">string_view</text>
</a>
</g>
</g>
<!-- Node16&#45;&gt;Node18 -->
<g id="edge22" class="edge">
<title>Node16&#45;&gt;Node18</title>
<path fill="none" stroke="midnightblue" d="M219.7,-112.08C215.13,-104.61 208.48,-93.72 202.85,-84.52"/>
<polygon fill="midnightblue" stroke="midnightblue" points="205.7,-82.46 197.49,-75.75 199.72,-86.11 205.7,-82.46"/>
</g>
<!-- Node19&#45;&gt;Node3 -->
<g id="edge25" class="edge">
<title>Node19&#45;&gt;Node3</title>
<path fill="none" stroke="midnightblue" d="M498.38,-114.99C452.92,-107.66 375.14,-94.24 299.54,-76.14"/>
<polygon fill="midnightblue" stroke="midnightblue" points="299.92,-72.63 289.38,-73.67 298.27,-79.43 299.92,-72.63"/>
</g>
<!-- Node19&#45;&gt;Node6 -->
<g id="edge28" class="edge">
<title>Node19&#45;&gt;Node6</title>
<path fill="none" stroke="midnightblue" d="M534.69,-112.21C530.65,-98.93 521.57,-73.42 507.15,-56 496.73,-43.42 482.01,-32.64 469.42,-24.79"/>
<polygon fill="midnightblue" stroke="midnightblue" points="471.1,-21.72 460.72,-19.61 467.52,-27.73 471.1,-21.72"/>
</g>
<!-- Node19&#45;&gt;Node11 -->
<g id="edge29" class="edge">
<title>Node19&#45;&gt;Node11</title>
<path fill="none" stroke="midnightblue" d="M549.84,-112.32C562.05,-103.98 580.73,-91.21 595.15,-81.35"/>
<polygon fill="midnightblue" stroke="midnightblue" points="597.21,-84.19 603.49,-75.65 593.25,-78.41 597.21,-84.19"/>
</g>
<!-- Node19&#45;&gt;Node13 -->
<g id="edge26" class="edge">
<title>Node19&#45;&gt;Node13</title>
<path fill="none" stroke="midnightblue" d="M540.79,-112.07C547.2,-97.62 561.95,-69.36 584.15,-56 631.86,-27.29 797.28,-16.1 870.64,-12.48"/>
<polygon fill="midnightblue" stroke="midnightblue" points="870.95,-15.97 880.77,-12 870.62,-8.98 870.95,-15.97"/>
</g>
<!-- Node19&#45;&gt;Node17 -->
<g id="edge27" class="edge">
<title>Node19&#45;&gt;Node17</title>
<path fill="none" stroke="midnightblue" d="M505.93,-112.44C472.21,-103.2 418.35,-88.44 381.21,-78.26"/>
<polygon fill="midnightblue" stroke="midnightblue" points="381.79,-74.78 371.22,-75.52 379.93,-81.54 381.79,-74.78"/>
</g>
<!-- Node20 -->
<g id="node20" class="node">
<title>Node20</title>
<g id="a_node20"><a xlink:title=" ">
<polygon fill="none" stroke="#bfbfbf" points="658.15,-56.5 658.15,-75.5 722.15,-75.5 722.15,-56.5 658.15,-56.5"/>
<text text-anchor="middle" x="690.15" y="-63.5" font-family="Helvetica,sans-Serif" font-size="10.00">algorithm</text>
</a>
</g>
</g>
<!-- Node19&#45;&gt;Node20 -->
<g id="edge24" class="edge">
<title>Node19&#45;&gt;Node20</title>
<path fill="none" stroke="midnightblue" d="M561.39,-112.44C587.02,-103.4 627.63,-89.06 656.39,-78.92"/>
<polygon fill="midnightblue" stroke="midnightblue" points="657.75,-82.15 666.02,-75.52 655.42,-75.54 657.75,-82.15"/>
</g>
<!-- Node21 -->
<g id="node21" class="node">
<title>Node21</title>
<g id="a_node21"><a xlink:href="trace__instruction_8h.html" target="_top" xlink:title=" ">
<polygon fill="none" stroke="black" points="390.65,-56.5 390.65,-75.5 497.65,-75.5 497.65,-56.5 390.65,-56.5"/>
<text text-anchor="middle" x="444.15" y="-63.5" font-family="Helvetica,sans-Serif" font-size="10.00">trace_instruction.h</text>
</a>
</g>
</g>
<!-- Node19&#45;&gt;Node21 -->
<g id="edge30" class="edge">
<title>Node19&#45;&gt;Node21</title>
<path fill="none" stroke="midnightblue" d="M522.2,-112.32C507.56,-103.82 485.01,-90.73 467.91,-80.8"/>
<polygon fill="midnightblue" stroke="midnightblue" points="469.46,-77.65 459.05,-75.65 465.94,-83.7 469.46,-77.65"/>
</g>
<!-- Node21&#45;&gt;Node6 -->
<g id="edge31" class="edge">
<title>Node21&#45;&gt;Node6</title>
<path fill="none" stroke="midnightblue" d="M444.15,-56.08C444.15,-49.01 444.15,-38.86 444.15,-29.99"/>
<polygon fill="midnightblue" stroke="midnightblue" points="447.65,-29.75 444.15,-19.75 440.65,-29.75 447.65,-29.75"/>
</g>
<!-- Node25 -->
<g id="node25" class="node">
<title>Node25</title>
<g id="a_node25"><a xlink:href="msl_2lru__table_8h.html" target="_top" xlink:title=" ">
<polygon fill="none" stroke="black" points="645.65,-112.5 645.65,-131.5 734.65,-131.5 734.65,-112.5 645.65,-112.5"/>
<text text-anchor="middle" x="690.15" y="-119.5" font-family="Helvetica,sans-Serif" font-size="10.00">msl/lru_table.h</text>
</a>
</g>
</g>
<!-- Node24&#45;&gt;Node25 -->
<g id="edge35" class="edge">
<title>Node24&#45;&gt;Node25</title>
<path fill="none" stroke="midnightblue" d="M689.31,-168.08C689.44,-161.01 689.63,-150.86 689.8,-141.99"/>
<polygon fill="midnightblue" stroke="midnightblue" points="693.3,-141.81 689.98,-131.75 686.3,-141.68 693.3,-141.81"/>
</g>
<!-- Node25&#45;&gt;Node8 -->
<g id="edge39" class="edge">
<title>Node25&#45;&gt;Node8</title>
<path fill="none" stroke="midnightblue" d="M734.89,-114.15C813.47,-102.11 969.16,-78.21 981.15,-76 982.38,-75.77 983.64,-75.53 984.91,-75.29"/>
<polygon fill="midnightblue" stroke="midnightblue" points="985.61,-78.72 994.72,-73.32 984.23,-71.86 985.61,-78.72"/>
</g>
<!-- Node25&#45;&gt;Node11 -->
<g id="edge41" class="edge">
<title>Node25&#45;&gt;Node11</title>
<path fill="none" stroke="midnightblue" d="M678.26,-112.32C667,-104.11 649.86,-91.6 636.44,-81.81"/>
<polygon fill="midnightblue" stroke="midnightblue" points="638.39,-78.9 628.25,-75.83 634.27,-84.56 638.39,-78.9"/>
</g>
<!-- Node25&#45;&gt;Node13 -->
<g id="edge38" class="edge">
<title>Node25&#45;&gt;Node13</title>
<path fill="none" stroke="midnightblue" d="M734.65,-113.98C807.54,-102.38 944.71,-80.08 948.15,-76 961.47,-60.15 943.53,-39.82 927.14,-26.16"/>
<polygon fill="midnightblue" stroke="midnightblue" points="928.91,-23.1 918.88,-19.67 924.58,-28.6 928.91,-23.1"/>
</g>
<!-- Node25&#45;&gt;Node20 -->
<g id="edge36" class="edge">
<title>Node25&#45;&gt;Node20</title>
<path fill="none" stroke="midnightblue" d="M690.15,-112.08C690.15,-105.01 690.15,-94.86 690.15,-85.99"/>
<polygon fill="midnightblue" stroke="midnightblue" points="693.65,-85.75 690.15,-75.75 686.65,-85.75 693.65,-85.75"/>
</g>
<!-- Node26 -->
<g id="node26" class="node">
<title>Node26</title>
<g id="a_node26"><a xlink:title=" ">
<polygon fill="none" stroke="#bfbfbf" points="740.15,-56.5 740.15,-75.5 792.15,-75.5 792.15,-56.5 740.15,-56.5"/>
<text text-anchor="middle" x="766.15" y="-63.5" font-family="Helvetica,sans-Serif" font-size="10.00">cassert</text>
</a>
</g>
</g>
<!-- Node25&#45;&gt;Node26 -->
<g id="edge37" class="edge">
<title>Node25&#45;&gt;Node26</title>
<path fill="none" stroke="midnightblue" d="M702.36,-112.32C713.92,-104.11 731.52,-91.6 745.31,-81.81"/>
<polygon fill="midnightblue" stroke="midnightblue" points="747.59,-84.48 753.71,-75.83 743.53,-78.77 747.59,-84.48"/>
</g>
<!-- Node27 -->
<g id="node27" class="node">
<title>Node27</title>
<g id="a_node27"><a xlink:title=" ">
<polygon fill="none" stroke="#bfbfbf" points="810.65,-56.5 810.65,-75.5 855.65,-75.5 855.65,-56.5 810.65,-56.5"/>
<text text-anchor="middle" x="833.15" y="-63.5" font-family="Helvetica,sans-Serif" font-size="10.00">utility</text>
</a>
</g>
</g>
<!-- Node25&#45;&gt;Node27 -->
<g id="edge40" class="edge">
<title>Node25&#45;&gt;Node27</title>
<path fill="none" stroke="midnightblue" d="M712.81,-112.44C736.55,-103.48 774.06,-89.31 800.89,-79.18"/>
<polygon fill="midnightblue" stroke="midnightblue" points="802.48,-82.32 810.59,-75.52 800,-75.77 802.48,-82.32"/>
</g>
<!-- Node28 -->
<g id="node28" class="node">
<title>Node28</title>
<g id="a_node28"><a xlink:href="msl_2bits_8h.html" target="_top" xlink:title=" ">
<polygon fill="none" stroke="black" points="873.65,-56.5 873.65,-75.5 938.65,-75.5 938.65,-56.5 873.65,-56.5"/>
<text text-anchor="middle" x="906.15" y="-63.5" font-family="Helvetica,sans-Serif" font-size="10.00">msl/bits.h</text>
</a>
</g>
</g>
<!-- Node25&#45;&gt;Node28 -->
<g id="edge42" class="edge">
<title>Node25&#45;&gt;Node28</title>
<path fill="none" stroke="midnightblue" d="M724.37,-112.44C762.1,-103.01 822.82,-87.83 863.59,-77.64"/>
<polygon fill="midnightblue" stroke="midnightblue" points="864.64,-80.98 873.5,-75.16 862.94,-74.19 864.64,-80.98"/>
</g>
<!-- Node28&#45;&gt;Node6 -->
<g id="edge44" class="edge">
<title>Node28&#45;&gt;Node6</title>
<path fill="none" stroke="midnightblue" d="M873.54,-57.5C870.71,-56.96 867.88,-56.44 865.15,-56 720.92,-32.53 546.82,-18.38 476.21,-13.22"/>
<polygon fill="midnightblue" stroke="midnightblue" points="476.4,-9.73 466.17,-12.5 475.9,-16.71 476.4,-9.73"/>
</g>
<!-- Node28&#45;&gt;Node13 -->
<g id="edge43" class="edge">
<title>Node28&#45;&gt;Node13</title>
<path fill="none" stroke="midnightblue" d="M906.15,-56.08C906.15,-49.01 906.15,-38.86 906.15,-29.99"/>
<polygon fill="midnightblue" stroke="midnightblue" points="909.65,-29.75 906.15,-19.75 902.65,-29.75 909.65,-29.75"/>
</g>
</g>
</svg>
