<?xml version="1.0" encoding="UTF-8" standalone="no"?>
<!DOCTYPE svg PUBLIC "-//W3C//DTD SVG 1.1//EN"
 "http://www.w3.org/Graphics/SVG/1.1/DTD/svg11.dtd">
<!-- Generated by graphviz version 2.43.0 (0)
 -->
<!-- Title: branch/bimodal/bimodal.cc Pages: 1 -->
<svg width="1740pt" height="308pt"
 viewBox="0.00 0.00 1739.50 308.00" xmlns="http://www.w3.org/2000/svg" xmlns:xlink="http://www.w3.org/1999/xlink">
<g id="graph0" class="graph" transform="scale(1 1) rotate(0) translate(4 304)">
<title>branch/bimodal/bimodal.cc</title>
<!-- Node1 -->
<g id="node1" class="node">
<title>Node1</title>
<g id="a_node1"><a xlink:title=" ">
<polygon fill="#bfbfbf" stroke="black" points="262,-280.5 262,-299.5 411,-299.5 411,-280.5 262,-280.5"/>
<text text-anchor="middle" x="336.5" y="-287.5" font-family="Helvetica,sans-Serif" font-size="10.00">branch/bimodal/bimodal.cc</text>
</a>
</g>
</g>
<!-- Node2 -->
<g id="node2" class="node">
<title>Node2</title>
<g id="a_node2"><a xlink:title=" ">
<polygon fill="none" stroke="#bfbfbf" points="233.5,-224.5 233.5,-243.5 271.5,-243.5 271.5,-224.5 233.5,-224.5"/>
<text text-anchor="middle" x="252.5" y="-231.5" font-family="Helvetica,sans-Serif" font-size="10.00">map</text>
</a>
</g>
</g>
<!-- Node1&#45;&gt;Node2 -->
<g id="edge1" class="edge">
<title>Node1&#45;&gt;Node2</title>
<path fill="none" stroke="midnightblue" d="M323,-280.32C309.9,-271.9 289.79,-258.97 274.39,-249.07"/>
<polygon fill="midnightblue" stroke="midnightblue" points="276.27,-246.12 265.96,-243.65 272.48,-252.01 276.27,-246.12"/>
</g>
<!-- Node3 -->
<g id="node3" class="node">
<title>Node3</title>
<g id="a_node3"><a xlink:href="fwcounter_8h.html" target="_top" xlink:title=" ">
<polygon fill="none" stroke="black" points="289.5,-224.5 289.5,-243.5 383.5,-243.5 383.5,-224.5 289.5,-224.5"/>
<text text-anchor="middle" x="336.5" y="-231.5" font-family="Helvetica,sans-Serif" font-size="10.00">msl/fwcounter.h</text>
</a>
</g>
</g>
<!-- Node1&#45;&gt;Node3 -->
<g id="edge2" class="edge">
<title>Node1&#45;&gt;Node3</title>
<path fill="none" stroke="midnightblue" d="M336.5,-280.08C336.5,-273.01 336.5,-262.86 336.5,-253.99"/>
<polygon fill="midnightblue" stroke="midnightblue" points="340,-253.75 336.5,-243.75 333,-253.75 340,-253.75"/>
</g>
<!-- Node6 -->
<g id="node6" class="node">
<title>Node6</title>
<g id="a_node6"><a xlink:href="ooo__cpu_8h.html" target="_top" xlink:title=" ">
<polygon fill="none" stroke="black" points="688.5,-224.5 688.5,-243.5 754.5,-243.5 754.5,-224.5 688.5,-224.5"/>
<text text-anchor="middle" x="721.5" y="-231.5" font-family="Helvetica,sans-Serif" font-size="10.00">ooo_cpu.h</text>
</a>
</g>
</g>
<!-- Node1&#45;&gt;Node6 -->
<g id="edge5" class="edge">
<title>Node1&#45;&gt;Node6</title>
<path fill="none" stroke="midnightblue" d="M397.5,-280.44C475.76,-269.47 609.54,-250.7 678.14,-241.08"/>
<polygon fill="midnightblue" stroke="midnightblue" points="678.75,-244.53 688.17,-239.67 677.78,-237.6 678.75,-244.53"/>
</g>
<!-- Node4 -->
<g id="node4" class="node">
<title>Node4</title>
<g id="a_node4"><a xlink:title=" ">
<polygon fill="none" stroke="#bfbfbf" points="751.5,-56.5 751.5,-75.5 815.5,-75.5 815.5,-56.5 751.5,-56.5"/>
<text text-anchor="middle" x="783.5" y="-63.5" font-family="Helvetica,sans-Serif" font-size="10.00">algorithm</text>
</a>
</g>
</g>
<!-- Node3&#45;&gt;Node4 -->
<g id="edge3" class="edge">
<title>Node3&#45;&gt;Node4</title>
<path fill="none" stroke="midnightblue" d="M341.52,-224.19C350.16,-209.89 369.27,-181.86 393.5,-168 467.73,-125.55 499.66,-153.2 582.5,-132 642.64,-116.61 711.12,-93.16 750.63,-79.03"/>
<polygon fill="midnightblue" stroke="midnightblue" points="752.03,-82.24 760.26,-75.56 749.66,-75.66 752.03,-82.24"/>
</g>
<!-- Node5 -->
<g id="node5" class="node">
<title>Node5</title>
<g id="a_node5"><a xlink:title=" ">
<polygon fill="none" stroke="#bfbfbf" points="0,-168.5 0,-187.5 49,-187.5 49,-168.5 0,-168.5"/>
<text text-anchor="middle" x="24.5" y="-175.5" font-family="Helvetica,sans-Serif" font-size="10.00">cstdlib</text>
</a>
</g>
</g>
<!-- Node3&#45;&gt;Node5 -->
<g id="edge4" class="edge">
<title>Node3&#45;&gt;Node5</title>
<path fill="none" stroke="midnightblue" d="M289.3,-225.39C217.08,-213.71 85.21,-192.29 63.5,-188 62.05,-187.71 60.57,-187.41 59.08,-187.1"/>
<polygon fill="midnightblue" stroke="midnightblue" points="59.72,-183.66 49.21,-184.95 58.23,-190.5 59.72,-183.66"/>
</g>
<!-- Node7 -->
<g id="node7" class="node">
<title>Node7</title>
<g id="a_node7"><a xlink:title=" ">
<polygon fill="none" stroke="#bfbfbf" points="423.5,-56.5 423.5,-75.5 465.5,-75.5 465.5,-56.5 423.5,-56.5"/>
<text text-anchor="middle" x="444.5" y="-63.5" font-family="Helvetica,sans-Serif" font-size="10.00">array</text>
</a>
</g>
</g>
<!-- Node6&#45;&gt;Node7 -->
<g id="edge6" class="edge">
<title>Node6&#45;&gt;Node7</title>
<path fill="none" stroke="midnightblue" d="M688.41,-233.68C612.92,-234.46 431.56,-231.64 393.5,-188 365.92,-156.37 404.37,-107.67 428.15,-82.8"/>
<polygon fill="midnightblue" stroke="midnightblue" points="430.72,-85.18 435.26,-75.61 425.74,-80.26 430.72,-85.18"/>
</g>
<!-- Node8 -->
<g id="node8" class="node">
<title>Node8</title>
<g id="a_node8"><a xlink:title=" ">
<polygon fill="none" stroke="#bfbfbf" points="1687.5,-168.5 1687.5,-187.5 1731.5,-187.5 1731.5,-168.5 1687.5,-168.5"/>
<text text-anchor="middle" x="1709.5" y="-175.5" font-family="Helvetica,sans-Serif" font-size="10.00">bitset</text>
</a>
</g>
</g>
<!-- Node6&#45;&gt;Node8 -->
<g id="edge7" class="edge">
<title>Node6&#45;&gt;Node8</title>
<path fill="none" stroke="midnightblue" d="M754.99,-232.48C900.06,-230.08 1475.59,-218.87 1677.4,-187.72"/>
<polygon fill="midnightblue" stroke="midnightblue" points="1677.98,-191.17 1687.29,-186.13 1676.86,-184.26 1677.98,-191.17"/>
</g>
<!-- Node9 -->
<g id="node9" class="node">
<title>Node9</title>
<g id="a_node9"><a xlink:title=" ">
<polygon fill="none" stroke="#bfbfbf" points="106,-56.5 106,-75.5 153,-75.5 153,-56.5 106,-56.5"/>
<text text-anchor="middle" x="129.5" y="-63.5" font-family="Helvetica,sans-Serif" font-size="10.00">deque</text>
</a>
</g>
</g>
<!-- Node6&#45;&gt;Node9 -->
<g id="edge8" class="edge">
<title>Node6&#45;&gt;Node9</title>
<path fill="none" stroke="midnightblue" d="M688.3,-233.75C619.97,-234.3 459.44,-230.49 333.5,-188 259.36,-162.98 182.89,-108.44 148.39,-81.98"/>
<polygon fill="midnightblue" stroke="midnightblue" points="150.23,-78.98 140.18,-75.61 145.93,-84.51 150.23,-78.98"/>
</g>
<!-- Node10 -->
<g id="node10" class="node">
<title>Node10</title>
<g id="a_node10"><a xlink:title=" ">
<polygon fill="none" stroke="#bfbfbf" points="471.5,-0.5 471.5,-19.5 515.5,-19.5 515.5,-0.5 471.5,-0.5"/>
<text text-anchor="middle" x="493.5" y="-7.5" font-family="Helvetica,sans-Serif" font-size="10.00">limits</text>
</a>
</g>
</g>
<!-- Node6&#45;&gt;Node10 -->
<g id="edge9" class="edge">
<title>Node6&#45;&gt;Node10</title>
<path fill="none" stroke="midnightblue" d="M688.41,-231.41C599.83,-226.88 358.9,-212.59 283.5,-188 191.4,-157.96 143.76,-160.57 96.5,-76 60.14,-10.93 360.47,-9.18 461.26,-10.4"/>
<polygon fill="midnightblue" stroke="midnightblue" points="461.41,-13.9 471.46,-10.54 461.51,-6.9 461.41,-13.9"/>
</g>
<!-- Node11 -->
<g id="node11" class="node">
<title>Node11</title>
<g id="a_node11"><a xlink:title=" ">
<polygon fill="none" stroke="#bfbfbf" points="402.5,-168.5 402.5,-187.5 460.5,-187.5 460.5,-168.5 402.5,-168.5"/>
<text text-anchor="middle" x="431.5" y="-175.5" font-family="Helvetica,sans-Serif" font-size="10.00">memory</text>
</a>
</g>
</g>
<!-- Node6&#45;&gt;Node11 -->
<g id="edge10" class="edge">
<title>Node6&#45;&gt;Node11</title>
<path fill="none" stroke="midnightblue" d="M688.29,-227.23C640.82,-218.93 550.86,-202.94 474.5,-188 473.24,-187.75 471.95,-187.5 470.66,-187.24"/>
<polygon fill="midnightblue" stroke="midnightblue" points="471.12,-183.76 460.62,-185.2 469.73,-190.62 471.12,-183.76"/>
</g>
<!-- Node12 -->
<g id="node12" class="node">
<title>Node12</title>
<g id="a_node12"><a xlink:title=" ">
<polygon fill="none" stroke="#bfbfbf" points="833.5,-56.5 833.5,-75.5 889.5,-75.5 889.5,-56.5 833.5,-56.5"/>
<text text-anchor="middle" x="861.5" y="-63.5" font-family="Helvetica,sans-Serif" font-size="10.00">optional</text>
</a>
</g>
</g>
<!-- Node6&#45;&gt;Node12 -->
<g id="edge11" class="edge">
<title>Node6&#45;&gt;Node12</title>
<path fill="none" stroke="midnightblue" d="M754.51,-229.81C782.33,-225.3 820.94,-214.38 842.5,-188 866.41,-158.74 866.28,-111.8 863.97,-85.82"/>
<polygon fill="midnightblue" stroke="midnightblue" points="867.44,-85.35 862.86,-75.79 860.48,-86.11 867.44,-85.35"/>
</g>
<!-- Node13 -->
<g id="node13" class="node">
<title>Node13</title>
<g id="a_node13"><a xlink:title=" ">
<polygon fill="none" stroke="#bfbfbf" points="517,-168.5 517,-187.5 564,-187.5 564,-168.5 517,-168.5"/>
<text text-anchor="middle" x="540.5" y="-175.5" font-family="Helvetica,sans-Serif" font-size="10.00">queue</text>
</a>
</g>
</g>
<!-- Node6&#45;&gt;Node13 -->
<g id="edge12" class="edge">
<title>Node6&#45;&gt;Node13</title>
<path fill="none" stroke="midnightblue" d="M692.82,-224.44C660.57,-214.82 608.26,-199.21 574.11,-189.03"/>
<polygon fill="midnightblue" stroke="midnightblue" points="574.73,-185.56 564.14,-186.05 572.72,-192.27 574.73,-185.56"/>
</g>
<!-- Node14 -->
<g id="node14" class="node">
<title>Node14</title>
<g id="a_node14"><a xlink:title=" ">
<polygon fill="none" stroke="#bfbfbf" points="582,-168.5 582,-187.5 647,-187.5 647,-168.5 582,-168.5"/>
<text text-anchor="middle" x="614.5" y="-175.5" font-family="Helvetica,sans-Serif" font-size="10.00">stdexcept</text>
</a>
</g>
</g>
<!-- Node6&#45;&gt;Node14 -->
<g id="edge13" class="edge">
<title>Node6&#45;&gt;Node14</title>
<path fill="none" stroke="midnightblue" d="M704.31,-224.32C687.15,-215.66 660.55,-202.24 640.75,-192.25"/>
<polygon fill="midnightblue" stroke="midnightblue" points="642.15,-189.04 631.65,-187.65 639,-195.28 642.15,-189.04"/>
</g>
<!-- Node15 -->
<g id="node15" class="node">
<title>Node15</title>
<g id="a_node15"><a xlink:title=" ">
<polygon fill="none" stroke="#bfbfbf" points="686,-56.5 686,-75.5 733,-75.5 733,-56.5 686,-56.5"/>
<text text-anchor="middle" x="709.5" y="-63.5" font-family="Helvetica,sans-Serif" font-size="10.00">vector</text>
</a>
</g>
</g>
<!-- Node6&#45;&gt;Node15 -->
<g id="edge14" class="edge">
<title>Node6&#45;&gt;Node15</title>
<path fill="none" stroke="midnightblue" d="M714.61,-224.32C708.23,-215.68 699.19,-201.77 695.5,-188 685.95,-152.4 695.9,-109.18 703.22,-85.23"/>
<polygon fill="midnightblue" stroke="midnightblue" points="706.56,-86.26 706.31,-75.67 699.9,-84.1 706.56,-86.26"/>
</g>
<!-- Node16 -->
<g id="node16" class="node">
<title>Node16</title>
<g id="a_node16"><a xlink:href="champsim_8h.html" target="_top" xlink:title=" ">
<polygon fill="none" stroke="black" points="890,-168.5 890,-187.5 967,-187.5 967,-168.5 890,-168.5"/>
<text text-anchor="middle" x="928.5" y="-175.5" font-family="Helvetica,sans-Serif" font-size="10.00">champsim.h</text>
</a>
</g>
</g>
<!-- Node6&#45;&gt;Node16 -->
<g id="edge15" class="edge">
<title>Node6&#45;&gt;Node16</title>
<path fill="none" stroke="midnightblue" d="M754.3,-224.44C789.88,-215.16 846.81,-200.31 885.85,-190.13"/>
<polygon fill="midnightblue" stroke="midnightblue" points="887.06,-193.43 895.85,-187.52 885.29,-186.65 887.06,-193.43"/>
</g>
<!-- Node19 -->
<g id="node19" class="node">
<title>Node19</title>
<g id="a_node19"><a xlink:title=" ">
<polygon fill="none" stroke="#bfbfbf" points="704,-168.5 704,-187.5 833,-187.5 833,-168.5 704,-168.5"/>
<text text-anchor="middle" x="768.5" y="-175.5" font-family="Helvetica,sans-Serif" font-size="10.00">champsim_constants.h</text>
</a>
</g>
</g>
<!-- Node6&#45;&gt;Node19 -->
<g id="edge18" class="edge">
<title>Node6&#45;&gt;Node19</title>
<path fill="none" stroke="midnightblue" d="M729.26,-224.08C736.04,-216.3 746.04,-204.8 754.26,-195.37"/>
<polygon fill="midnightblue" stroke="midnightblue" points="756.96,-197.59 760.88,-187.75 751.68,-193 756.96,-197.59"/>
</g>
<!-- Node20 -->
<g id="node20" class="node">
<title>Node20</title>
<g id="a_node20"><a xlink:href="channel_8h.html" target="_top" xlink:title=" ">
<polygon fill="none" stroke="black" points="272.5,-112.5 272.5,-131.5 336.5,-131.5 336.5,-112.5 272.5,-112.5"/>
<text text-anchor="middle" x="304.5" y="-119.5" font-family="Helvetica,sans-Serif" font-size="10.00">channel.h</text>
</a>
</g>
</g>
<!-- Node6&#45;&gt;Node20 -->
<g id="edge19" class="edge">
<title>Node6&#45;&gt;Node20</title>
<path fill="none" stroke="midnightblue" d="M688.47,-231.89C610.42,-228.8 416.94,-218.24 360.5,-188 340.25,-177.15 324.08,-155.79 314.42,-140.51"/>
<polygon fill="midnightblue" stroke="midnightblue" points="317.17,-138.3 309.03,-131.52 311.17,-141.9 317.17,-138.3"/>
</g>
<!-- Node23 -->
<g id="node23" class="node">
<title>Node23</title>
<g id="a_node23"><a xlink:href="instruction_8h.html" target="_top" xlink:title=" ">
<polygon fill="none" stroke="black" points="496,-112.5 496,-131.5 573,-131.5 573,-112.5 496,-112.5"/>
<text text-anchor="middle" x="534.5" y="-119.5" font-family="Helvetica,sans-Serif" font-size="10.00">instruction.h</text>
</a>
</g>
</g>
<!-- Node6&#45;&gt;Node23 -->
<g id="edge27" class="edge">
<title>Node6&#45;&gt;Node23</title>
<path fill="none" stroke="midnightblue" d="M688.27,-230.94C634.15,-226.81 530.76,-215.45 508.5,-188 496.96,-173.77 508.02,-153.77 519.07,-139.72"/>
<polygon fill="midnightblue" stroke="midnightblue" points="521.95,-141.74 525.75,-131.85 516.61,-137.21 521.95,-141.74"/>
</g>
<!-- Node25 -->
<g id="node25" class="node">
<title>Node25</title>
<g id="a_node25"><a xlink:href="module__impl_8h.html" target="_top" xlink:title=" ">
<polygon fill="none" stroke="black" points="985,-168.5 985,-187.5 1074,-187.5 1074,-168.5 985,-168.5"/>
<text text-anchor="middle" x="1029.5" y="-175.5" font-family="Helvetica,sans-Serif" font-size="10.00">module_impl.h</text>
</a>
</g>
</g>
<!-- Node6&#45;&gt;Node25 -->
<g id="edge36" class="edge">
<title>Node6&#45;&gt;Node25</title>
<path fill="none" stroke="midnightblue" d="M754.75,-227.17C807.61,-217.9 911.34,-199.72 975.12,-188.53"/>
<polygon fill="midnightblue" stroke="midnightblue" points="975.75,-191.98 985,-186.8 974.54,-185.08 975.75,-191.98"/>
</g>
<!-- Node26 -->
<g id="node26" class="node">
<title>Node26</title>
<g id="a_node26"><a xlink:href="operable_8h.html" target="_top" xlink:title=" ">
<polygon fill="none" stroke="black" points="1092.5,-168.5 1092.5,-187.5 1160.5,-187.5 1160.5,-168.5 1092.5,-168.5"/>
<text text-anchor="middle" x="1126.5" y="-175.5" font-family="Helvetica,sans-Serif" font-size="10.00">operable.h</text>
</a>
</g>
</g>
<!-- Node6&#45;&gt;Node26 -->
<g id="edge37" class="edge">
<title>Node6&#45;&gt;Node26</title>
<path fill="none" stroke="midnightblue" d="M754.57,-229.81C816.79,-223.62 955.64,-208.85 1082.4,-188.07"/>
<polygon fill="midnightblue" stroke="midnightblue" points="1082.99,-191.52 1092.28,-186.43 1081.84,-184.61 1082.99,-191.52"/>
</g>
<!-- Node27 -->
<g id="node27" class="node">
<title>Node27</title>
<g id="a_node27"><a xlink:href="util_2lru__table_8h.html" target="_top" xlink:title=" ">
<polygon fill="none" stroke="black" points="1582,-168.5 1582,-187.5 1669,-187.5 1669,-168.5 1582,-168.5"/>
<text text-anchor="middle" x="1625.5" y="-175.5" font-family="Helvetica,sans-Serif" font-size="10.00">util/lru_table.h</text>
</a>
</g>
</g>
<!-- Node6&#45;&gt;Node27 -->
<g id="edge38" class="edge">
<title>Node6&#45;&gt;Node27</title>
<path fill="none" stroke="midnightblue" d="M754.51,-232.66C867.32,-231.22 1248.01,-223.89 1571.82,-188.06"/>
<polygon fill="midnightblue" stroke="midnightblue" points="1572.31,-191.53 1581.86,-186.94 1571.53,-184.57 1572.31,-191.53"/>
</g>
<!-- Node32 -->
<g id="node32" class="node">
<title>Node32</title>
<g id="a_node32"><a xlink:title=" ">
<polygon fill="none" stroke="#bfbfbf" points="1179,-168.5 1179,-187.5 1248,-187.5 1248,-168.5 1179,-168.5"/>
<text text-anchor="middle" x="1213.5" y="-175.5" font-family="Helvetica,sans-Serif" font-size="10.00">type_traits</text>
</a>
</g>
</g>
<!-- Node6&#45;&gt;Node32 -->
<g id="edge49" class="edge">
<title>Node6&#45;&gt;Node32</title>
<path fill="none" stroke="midnightblue" d="M754.52,-230.84C827.38,-225.82 1007.54,-212.06 1168.87,-187.94"/>
<polygon fill="midnightblue" stroke="midnightblue" points="1169.61,-191.36 1178.97,-186.41 1168.56,-184.44 1169.61,-191.36"/>
</g>
<!-- Node33 -->
<g id="node33" class="node">
<title>Node33</title>
<g id="a_node33"><a xlink:title=" ">
<polygon fill="none" stroke="#bfbfbf" points="1266.5,-168.5 1266.5,-187.5 1408.5,-187.5 1408.5,-168.5 1266.5,-168.5"/>
<text text-anchor="middle" x="1337.5" y="-175.5" font-family="Helvetica,sans-Serif" font-size="10.00">ooo_cpu_module_decl.inc</text>
</a>
</g>
</g>
<!-- Node6&#45;&gt;Node33 -->
<g id="edge50" class="edge">
<title>Node6&#45;&gt;Node33</title>
<path fill="none" stroke="midnightblue" d="M754.77,-230.54C837.56,-224.33 1059.68,-207.26 1256.19,-188.1"/>
<polygon fill="midnightblue" stroke="midnightblue" points="1256.8,-191.56 1266.41,-187.1 1256.12,-184.59 1256.8,-191.56"/>
</g>
<!-- Node34 -->
<g id="node34" class="node">
<title>Node34</title>
<g id="a_node34"><a xlink:title=" ">
<polygon fill="none" stroke="#bfbfbf" points="1427,-168.5 1427,-187.5 1564,-187.5 1564,-168.5 1427,-168.5"/>
<text text-anchor="middle" x="1495.5" y="-175.5" font-family="Helvetica,sans-Serif" font-size="10.00">ooo_cpu_module_def.inc</text>
</a>
</g>
</g>
<!-- Node6&#45;&gt;Node34 -->
<g id="edge51" class="edge">
<title>Node6&#45;&gt;Node34</title>
<path fill="none" stroke="midnightblue" d="M754.51,-231.46C853.22,-226.72 1154.94,-211.32 1416.54,-188.04"/>
<polygon fill="midnightblue" stroke="midnightblue" points="1416.97,-191.52 1426.62,-187.14 1416.34,-184.54 1416.97,-191.52"/>
</g>
<!-- Node17 -->
<g id="node17" class="node">
<title>Node17</title>
<g id="a_node17"><a xlink:title=" ">
<polygon fill="none" stroke="#bfbfbf" points="915.5,-0.5 915.5,-19.5 965.5,-19.5 965.5,-0.5 915.5,-0.5"/>
<text text-anchor="middle" x="940.5" y="-7.5" font-family="Helvetica,sans-Serif" font-size="10.00">cstdint</text>
</a>
</g>
</g>
<!-- Node16&#45;&gt;Node17 -->
<g id="edge16" class="edge">
<title>Node16&#45;&gt;Node17</title>
<path fill="none" stroke="midnightblue" d="M965.76,-168.43C995.29,-160.9 1037.15,-148.56 1071.5,-132 1116.56,-110.28 1186.02,-94.84 1154.5,-56 1132.36,-28.72 1030.39,-17.37 975.58,-13.17"/>
<polygon fill="midnightblue" stroke="midnightblue" points="975.83,-9.68 965.61,-12.44 975.33,-16.66 975.83,-9.68"/>
</g>
<!-- Node18 -->
<g id="node18" class="node">
<title>Node18</title>
<g id="a_node18"><a xlink:title=" ">
<polygon fill="none" stroke="#bfbfbf" points="890,-112.5 890,-131.5 955,-131.5 955,-112.5 890,-112.5"/>
<text text-anchor="middle" x="922.5" y="-119.5" font-family="Helvetica,sans-Serif" font-size="10.00">exception</text>
</a>
</g>
</g>
<!-- Node16&#45;&gt;Node18 -->
<g id="edge17" class="edge">
<title>Node16&#45;&gt;Node18</title>
<path fill="none" stroke="midnightblue" d="M927.51,-168.08C926.71,-160.93 925.57,-150.64 924.58,-141.69"/>
<polygon fill="midnightblue" stroke="midnightblue" points="928.06,-141.3 923.47,-131.75 921.1,-142.08 928.06,-141.3"/>
</g>
<!-- Node20&#45;&gt;Node7 -->
<g id="edge20" class="edge">
<title>Node20&#45;&gt;Node7</title>
<path fill="none" stroke="midnightblue" d="M326.68,-112.44C350.2,-103.37 387.51,-88.98 413.84,-78.83"/>
<polygon fill="midnightblue" stroke="midnightblue" points="415.27,-82.03 423.34,-75.16 412.75,-75.5 415.27,-82.03"/>
</g>
<!-- Node20&#45;&gt;Node9 -->
<g id="edge22" class="edge">
<title>Node20&#45;&gt;Node9</title>
<path fill="none" stroke="midnightblue" d="M276.77,-112.44C245.85,-102.9 195.86,-87.48 162.84,-77.29"/>
<polygon fill="midnightblue" stroke="midnightblue" points="163.76,-73.91 153.17,-74.3 161.69,-80.6 163.76,-73.91"/>
</g>
<!-- Node20&#45;&gt;Node10 -->
<g id="edge24" class="edge">
<title>Node20&#45;&gt;Node10</title>
<path fill="none" stroke="midnightblue" d="M272.23,-114C233.42,-104.15 176.3,-84.2 200.5,-56 233.82,-17.17 392.18,-11.51 461.21,-10.92"/>
<polygon fill="midnightblue" stroke="midnightblue" points="461.5,-14.42 471.49,-10.87 461.47,-7.42 461.5,-14.42"/>
</g>
<!-- Node20&#45;&gt;Node15 -->
<g id="edge25" class="edge">
<title>Node20&#45;&gt;Node15</title>
<path fill="none" stroke="midnightblue" d="M336.62,-116.72C411.85,-106.69 598.89,-81.75 675.73,-71.5"/>
<polygon fill="midnightblue" stroke="midnightblue" points="676.36,-74.95 685.81,-70.16 675.44,-68.01 676.36,-74.95"/>
</g>
<!-- Node20&#45;&gt;Node17 -->
<g id="edge21" class="edge">
<title>Node20&#45;&gt;Node17</title>
<path fill="none" stroke="midnightblue" d="M305.18,-112.07C306.8,-97.62 312.26,-69.35 330.5,-56 376.92,-22.01 781.87,-13.32 905.08,-11.45"/>
<polygon fill="midnightblue" stroke="midnightblue" points="905.5,-14.95 915.45,-11.3 905.4,-7.95 905.5,-14.95"/>
</g>
<!-- Node21 -->
<g id="node21" class="node">
<title>Node21</title>
<g id="a_node21"><a xlink:title=" ">
<polygon fill="none" stroke="#bfbfbf" points="340,-56.5 340,-75.5 405,-75.5 405,-56.5 340,-56.5"/>
<text text-anchor="middle" x="372.5" y="-63.5" font-family="Helvetica,sans-Serif" font-size="10.00">functional</text>
</a>
</g>
</g>
<!-- Node20&#45;&gt;Node21 -->
<g id="edge23" class="edge">
<title>Node20&#45;&gt;Node21</title>
<path fill="none" stroke="midnightblue" d="M315.43,-112.32C325.67,-104.18 341.22,-91.84 353.5,-82.09"/>
<polygon fill="midnightblue" stroke="midnightblue" points="355.72,-84.79 361.38,-75.83 351.37,-79.31 355.72,-84.79"/>
</g>
<!-- Node22 -->
<g id="node22" class="node">
<title>Node22</title>
<g id="a_node22"><a xlink:title=" ">
<polygon fill="none" stroke="#bfbfbf" points="210,-56.5 210,-75.5 283,-75.5 283,-56.5 210,-56.5"/>
<text text-anchor="middle" x="246.5" y="-63.5" font-family="Helvetica,sans-Serif" font-size="10.00">string_view</text>
</a>
</g>
</g>
<!-- Node20&#45;&gt;Node22 -->
<g id="edge26" class="edge">
<title>Node20&#45;&gt;Node22</title>
<path fill="none" stroke="midnightblue" d="M295.18,-112.32C286.61,-104.34 273.69,-92.31 263.31,-82.65"/>
<polygon fill="midnightblue" stroke="midnightblue" points="265.69,-80.09 255.99,-75.83 260.92,-85.21 265.69,-80.09"/>
</g>
<!-- Node23&#45;&gt;Node4 -->
<g id="edge28" class="edge">
<title>Node23&#45;&gt;Node4</title>
<path fill="none" stroke="midnightblue" d="M573.23,-112.66C612.96,-104.09 676.85,-90.29 741.34,-76.25"/>
<polygon fill="midnightblue" stroke="midnightblue" points="742.25,-79.63 751.27,-74.08 740.76,-72.79 742.25,-79.63"/>
</g>
<!-- Node23&#45;&gt;Node7 -->
<g id="edge29" class="edge">
<title>Node23&#45;&gt;Node7</title>
<path fill="none" stroke="midnightblue" d="M520.04,-112.32C506,-103.9 484.45,-90.97 467.96,-81.07"/>
<polygon fill="midnightblue" stroke="midnightblue" points="469.3,-77.8 458.92,-75.65 465.7,-83.8 469.3,-77.8"/>
</g>
<!-- Node23&#45;&gt;Node10 -->
<g id="edge32" class="edge">
<title>Node23&#45;&gt;Node10</title>
<path fill="none" stroke="midnightblue" d="M529.95,-112.19C525.42,-103.23 518.46,-88.87 513.5,-76 507.53,-60.51 502.09,-42.42 498.39,-29.27"/>
<polygon fill="midnightblue" stroke="midnightblue" points="501.74,-28.26 495.72,-19.54 494.99,-30.11 501.74,-28.26"/>
</g>
<!-- Node23&#45;&gt;Node15 -->
<g id="edge33" class="edge">
<title>Node23&#45;&gt;Node15</title>
<path fill="none" stroke="midnightblue" d="M562.23,-112.44C593.15,-102.9 643.14,-87.48 676.16,-77.29"/>
<polygon fill="midnightblue" stroke="midnightblue" points="677.31,-80.6 685.83,-74.3 675.24,-73.91 677.31,-80.6"/>
</g>
<!-- Node23&#45;&gt;Node17 -->
<g id="edge30" class="edge">
<title>Node23&#45;&gt;Node17</title>
<path fill="none" stroke="midnightblue" d="M555.4,-112.43C576.53,-103.66 610.04,-89.44 638.5,-76 656.12,-67.68 659.02,-62.16 677.5,-56 756.28,-29.75 853.68,-18.2 905,-13.63"/>
<polygon fill="midnightblue" stroke="midnightblue" points="905.56,-17.1 915.23,-12.76 904.97,-10.12 905.56,-17.1"/>
</g>
<!-- Node23&#45;&gt;Node21 -->
<g id="edge31" class="edge">
<title>Node23&#45;&gt;Node21</title>
<path fill="none" stroke="midnightblue" d="M508.83,-112.44C481.58,-103.36 438.32,-88.94 407.85,-78.78"/>
<polygon fill="midnightblue" stroke="midnightblue" points="408.64,-75.36 398.05,-75.52 406.43,-82 408.64,-75.36"/>
</g>
<!-- Node24 -->
<g id="node24" class="node">
<title>Node24</title>
<g id="a_node24"><a xlink:href="trace__instruction_8h.html" target="_top" xlink:title=" ">
<polygon fill="none" stroke="black" points="522,-56.5 522,-75.5 629,-75.5 629,-56.5 522,-56.5"/>
<text text-anchor="middle" x="575.5" y="-63.5" font-family="Helvetica,sans-Serif" font-size="10.00">trace_instruction.h</text>
</a>
</g>
</g>
<!-- Node23&#45;&gt;Node24 -->
<g id="edge34" class="edge">
<title>Node23&#45;&gt;Node24</title>
<path fill="none" stroke="midnightblue" d="M541.27,-112.08C547.06,-104.46 555.56,-93.26 562.64,-83.94"/>
<polygon fill="midnightblue" stroke="midnightblue" points="565.6,-85.83 568.86,-75.75 560.02,-81.6 565.6,-85.83"/>
</g>
<!-- Node24&#45;&gt;Node10 -->
<g id="edge35" class="edge">
<title>Node24&#45;&gt;Node10</title>
<path fill="none" stroke="midnightblue" d="M562.33,-56.32C549.65,-47.98 530.27,-35.21 515.29,-25.35"/>
<polygon fill="midnightblue" stroke="midnightblue" points="516.92,-22.23 506.64,-19.65 513.07,-28.08 516.92,-22.23"/>
</g>
<!-- Node28 -->
<g id="node28" class="node">
<title>Node28</title>
<g id="a_node28"><a xlink:href="msl_2lru__table_8h.html" target="_top" xlink:title=" ">
<polygon fill="none" stroke="black" points="973,-112.5 973,-131.5 1062,-131.5 1062,-112.5 973,-112.5"/>
<text text-anchor="middle" x="1017.5" y="-119.5" font-family="Helvetica,sans-Serif" font-size="10.00">msl/lru_table.h</text>
</a>
</g>
</g>
<!-- Node27&#45;&gt;Node28 -->
<g id="edge39" class="edge">
<title>Node27&#45;&gt;Node28</title>
<path fill="none" stroke="midnightblue" d="M1581.85,-169.15C1579.03,-168.73 1576.23,-168.35 1573.5,-168 1390.7,-144.83 1172.5,-131.24 1072.49,-125.79"/>
<polygon fill="midnightblue" stroke="midnightblue" points="1072.5,-122.29 1062.33,-125.25 1072.12,-129.28 1072.5,-122.29"/>
</g>
<!-- Node28&#45;&gt;Node4 -->
<g id="edge40" class="edge">
<title>Node28&#45;&gt;Node4</title>
<path fill="none" stroke="midnightblue" d="M980.42,-112.44C938.22,-102.7 869.44,-86.83 825.35,-76.66"/>
<polygon fill="midnightblue" stroke="midnightblue" points="826.05,-73.23 815.52,-74.39 824.47,-80.05 826.05,-73.23"/>
</g>
<!-- Node28&#45;&gt;Node12 -->
<g id="edge43" class="edge">
<title>Node28&#45;&gt;Node12</title>
<path fill="none" stroke="midnightblue" d="M992.78,-112.44C966.65,-103.4 925.24,-89.06 895.92,-78.92"/>
<polygon fill="midnightblue" stroke="midnightblue" points="896.7,-75.48 886.1,-75.52 894.41,-82.1 896.7,-75.48"/>
</g>
<!-- Node28&#45;&gt;Node15 -->
<g id="edge45" class="edge">
<title>Node28&#45;&gt;Node15</title>
<path fill="none" stroke="midnightblue" d="M972.97,-113.41C970.1,-112.93 967.26,-112.46 964.5,-112 868.98,-96.14 841.86,-97.1 743.01,-75.91"/>
<polygon fill="midnightblue" stroke="midnightblue" points="743.73,-72.49 733.22,-73.79 742.25,-79.33 743.73,-72.49"/>
</g>
<!-- Node28&#45;&gt;Node17 -->
<g id="edge42" class="edge">
<title>Node28&#45;&gt;Node17</title>
<path fill="none" stroke="midnightblue" d="M1013.63,-112.17C1007.79,-99.26 995.95,-74.74 982.5,-56 975.04,-45.6 965.37,-35.09 957.19,-26.84"/>
<polygon fill="midnightblue" stroke="midnightblue" points="959.51,-24.21 949.92,-19.7 954.61,-29.21 959.51,-24.21"/>
</g>
<!-- Node29 -->
<g id="node29" class="node">
<title>Node29</title>
<g id="a_node29"><a xlink:title=" ">
<polygon fill="none" stroke="#bfbfbf" points="1093.5,-56.5 1093.5,-75.5 1145.5,-75.5 1145.5,-56.5 1093.5,-56.5"/>
<text text-anchor="middle" x="1119.5" y="-63.5" font-family="Helvetica,sans-Serif" font-size="10.00">cassert</text>
</a>
</g>
</g>
<!-- Node28&#45;&gt;Node29 -->
<g id="edge41" class="edge">
<title>Node28&#45;&gt;Node29</title>
<path fill="none" stroke="midnightblue" d="M1033.89,-112.32C1050.17,-103.7 1075.37,-90.36 1094.22,-80.39"/>
<polygon fill="midnightblue" stroke="midnightblue" points="1095.95,-83.43 1103.15,-75.65 1092.68,-77.24 1095.95,-83.43"/>
</g>
<!-- Node30 -->
<g id="node30" class="node">
<title>Node30</title>
<g id="a_node30"><a xlink:title=" ">
<polygon fill="none" stroke="#bfbfbf" points="1030,-56.5 1030,-75.5 1075,-75.5 1075,-56.5 1030,-56.5"/>
<text text-anchor="middle" x="1052.5" y="-63.5" font-family="Helvetica,sans-Serif" font-size="10.00">utility</text>
</a>
</g>
</g>
<!-- Node28&#45;&gt;Node30 -->
<g id="edge44" class="edge">
<title>Node28&#45;&gt;Node30</title>
<path fill="none" stroke="midnightblue" d="M1023.28,-112.08C1028.17,-104.53 1035.33,-93.49 1041.33,-84.23"/>
<polygon fill="midnightblue" stroke="midnightblue" points="1044.33,-86.05 1046.83,-75.75 1038.45,-82.24 1044.33,-86.05"/>
</g>
<!-- Node31 -->
<g id="node31" class="node">
<title>Node31</title>
<g id="a_node31"><a xlink:href="msl_2bits_8h.html" target="_top" xlink:title=" ">
<polygon fill="none" stroke="black" points="908,-56.5 908,-75.5 973,-75.5 973,-56.5 908,-56.5"/>
<text text-anchor="middle" x="940.5" y="-63.5" font-family="Helvetica,sans-Serif" font-size="10.00">msl/bits.h</text>
</a>
</g>
</g>
<!-- Node28&#45;&gt;Node31 -->
<g id="edge46" class="edge">
<title>Node28&#45;&gt;Node31</title>
<path fill="none" stroke="midnightblue" d="M1005.13,-112.32C993.34,-104.06 975.37,-91.45 961.36,-81.63"/>
<polygon fill="midnightblue" stroke="midnightblue" points="963.04,-78.53 952.84,-75.65 959.02,-84.26 963.04,-78.53"/>
</g>
<!-- Node31&#45;&gt;Node10 -->
<g id="edge48" class="edge">
<title>Node31&#45;&gt;Node10</title>
<path fill="none" stroke="midnightblue" d="M907.54,-57.61C904.49,-57.03 901.44,-56.48 898.5,-56 760.63,-33.63 594.52,-19 525.74,-13.47"/>
<polygon fill="midnightblue" stroke="midnightblue" points="525.8,-9.97 515.56,-12.67 525.25,-16.95 525.8,-9.97"/>
</g>
<!-- Node31&#45;&gt;Node17 -->
<g id="edge47" class="edge">
<title>Node31&#45;&gt;Node17</title>
<path fill="none" stroke="midnightblue" d="M940.5,-56.08C940.5,-49.01 940.5,-38.86 940.5,-29.99"/>
<polygon fill="midnightblue" stroke="midnightblue" points="944,-29.75 940.5,-19.75 937,-29.75 944,-29.75"/>
</g>
</g>
</svg>
