<?xml version="1.0" encoding="UTF-8" standalone="no"?>
<!DOCTYPE svg PUBLIC "-//W3C//DTD SVG 1.1//EN"
 "http://www.w3.org/Graphics/SVG/1.1/DTD/svg11.dtd">
<!-- Generated by graphviz version 2.43.0 (0)
 -->
<!-- Title: src/cache.cc Pages: 1 -->
<svg width="2103pt" height="252pt"
 viewBox="0.00 0.00 2102.50 252.00" xmlns="http://www.w3.org/2000/svg" xmlns:xlink="http://www.w3.org/1999/xlink">
<g id="graph0" class="graph" transform="scale(1 1) rotate(0) translate(4 248)">
<title>src/cache.cc</title>
<!-- Node1 -->
<g id="node1" class="node">
<title>Node1</title>
<g id="a_node1"><a xlink:title=" ">
<polygon fill="#bfbfbf" stroke="black" points="1246,-224.5 1246,-243.5 1322,-243.5 1322,-224.5 1246,-224.5"/>
<text text-anchor="middle" x="1284" y="-231.5" font-family="Helvetica,sans-Serif" font-size="10.00">src/cache.cc</text>
</a>
</g>
</g>
<!-- Node2 -->
<g id="node2" class="node">
<title>Node2</title>
<g id="a_node2"><a xlink:href="cache_8h.html" target="_top" xlink:title=" ">
<polygon fill="none" stroke="black" points="949,-168.5 949,-187.5 1003,-187.5 1003,-168.5 949,-168.5"/>
<text text-anchor="middle" x="976" y="-175.5" font-family="Helvetica,sans-Serif" font-size="10.00">cache.h</text>
</a>
</g>
</g>
<!-- Node1&#45;&gt;Node2 -->
<g id="edge1" class="edge">
<title>Node1&#45;&gt;Node2</title>
<path fill="none" stroke="midnightblue" d="M1245.92,-226.32C1186.41,-215.89 1072.05,-195.84 1013.13,-185.51"/>
<polygon fill="midnightblue" stroke="midnightblue" points="1013.59,-182.04 1003.13,-183.76 1012.38,-188.93 1013.59,-182.04"/>
</g>
<!-- Node10 -->
<g id="node10" class="node">
<title>Node10</title>
<g id="a_node10"><a xlink:href="champsim_8h.html" target="_top" xlink:title=" ">
<polygon fill="none" stroke="black" points="345.5,-112.5 345.5,-131.5 422.5,-131.5 422.5,-112.5 345.5,-112.5"/>
<text text-anchor="middle" x="384" y="-119.5" font-family="Helvetica,sans-Serif" font-size="10.00">champsim.h</text>
</a>
</g>
</g>
<!-- Node1&#45;&gt;Node10 -->
<g id="edge33" class="edge">
<title>Node1&#45;&gt;Node10</title>
<path fill="none" stroke="midnightblue" d="M1245.72,-230.24C1163.91,-224.17 966.06,-208.53 801,-188 667.22,-171.36 510.34,-145.06 432.67,-131.59"/>
<polygon fill="midnightblue" stroke="midnightblue" points="433.15,-128.12 422.69,-129.85 431.95,-135.01 433.15,-128.12"/>
</g>
<!-- Node13 -->
<g id="node13" class="node">
<title>Node13</title>
<g id="a_node13"><a xlink:title=" ">
<polygon fill="none" stroke="#bfbfbf" points="1492.5,-112.5 1492.5,-131.5 1621.5,-131.5 1621.5,-112.5 1492.5,-112.5"/>
<text text-anchor="middle" x="1557" y="-119.5" font-family="Helvetica,sans-Serif" font-size="10.00">champsim_constants.h</text>
</a>
</g>
</g>
<!-- Node1&#45;&gt;Node13 -->
<g id="edge34" class="edge">
<title>Node1&#45;&gt;Node13</title>
<path fill="none" stroke="midnightblue" d="M1305.42,-224.37C1353.56,-204.97 1470.46,-157.87 1526.31,-135.37"/>
<polygon fill="midnightblue" stroke="midnightblue" points="1527.71,-138.58 1535.68,-131.59 1525.09,-132.08 1527.71,-138.58"/>
</g>
<!-- Node23 -->
<g id="node23" class="node">
<title>Node23</title>
<g id="a_node23"><a xlink:title=" ">
<polygon fill="none" stroke="#bfbfbf" points="0,-56.5 0,-75.5 64,-75.5 64,-56.5 0,-56.5"/>
<text text-anchor="middle" x="32" y="-63.5" font-family="Helvetica,sans-Serif" font-size="10.00">algorithm</text>
</a>
</g>
</g>
<!-- Node1&#45;&gt;Node23 -->
<g id="edge26" class="edge">
<title>Node1&#45;&gt;Node23</title>
<path fill="none" stroke="midnightblue" d="M1245.75,-232.53C1049.13,-229.99 159.37,-216.92 109,-188 69.54,-165.34 47.18,-113.38 37.61,-85.49"/>
<polygon fill="midnightblue" stroke="midnightblue" points="40.88,-84.22 34.47,-75.78 34.22,-86.37 40.88,-84.22"/>
</g>
<!-- Node24 -->
<g id="node24" class="node">
<title>Node24</title>
<g id="a_node24"><a xlink:title=" ">
<polygon fill="none" stroke="#bfbfbf" points="192,-56.5 192,-75.5 244,-75.5 244,-56.5 192,-56.5"/>
<text text-anchor="middle" x="218" y="-63.5" font-family="Helvetica,sans-Serif" font-size="10.00">cassert</text>
</a>
</g>
</g>
<!-- Node1&#45;&gt;Node24 -->
<g id="edge27" class="edge">
<title>Node1&#45;&gt;Node24</title>
<path fill="none" stroke="midnightblue" d="M1245.89,-231.27C1091.01,-223.89 508.78,-192.6 336,-132 299.92,-119.35 261.8,-96.35 238.96,-81.38"/>
<polygon fill="midnightblue" stroke="midnightblue" points="240.7,-78.33 230.44,-75.69 236.81,-84.15 240.7,-78.33"/>
</g>
<!-- Node25 -->
<g id="node25" class="node">
<title>Node25</title>
<g id="a_node25"><a xlink:title=" ">
<polygon fill="none" stroke="#bfbfbf" points="1835.5,-168.5 1835.5,-187.5 1882.5,-187.5 1882.5,-168.5 1835.5,-168.5"/>
<text text-anchor="middle" x="1859" y="-175.5" font-family="Helvetica,sans-Serif" font-size="10.00">cmath</text>
</a>
</g>
</g>
<!-- Node1&#45;&gt;Node25 -->
<g id="edge28" class="edge">
<title>Node1&#45;&gt;Node25</title>
<path fill="none" stroke="midnightblue" d="M1322.32,-231.75C1410.72,-228.43 1635.53,-217.57 1821,-188 1822.46,-187.77 1823.96,-187.51 1825.46,-187.23"/>
<polygon fill="midnightblue" stroke="midnightblue" points="1826.31,-190.63 1835.39,-185.17 1824.89,-183.77 1826.31,-190.63"/>
</g>
<!-- Node26 -->
<g id="node26" class="node">
<title>Node26</title>
<g id="a_node26"><a xlink:title=" ">
<polygon fill="none" stroke="#bfbfbf" points="1901,-168.5 1901,-187.5 1957,-187.5 1957,-168.5 1901,-168.5"/>
<text text-anchor="middle" x="1929" y="-175.5" font-family="Helvetica,sans-Serif" font-size="10.00">iomanip</text>
</a>
</g>
</g>
<!-- Node1&#45;&gt;Node26 -->
<g id="edge29" class="edge">
<title>Node1&#45;&gt;Node26</title>
<path fill="none" stroke="midnightblue" d="M1322.31,-232.35C1417.17,-230.28 1670.62,-221.9 1890.69,-187.95"/>
<polygon fill="midnightblue" stroke="midnightblue" points="1891.48,-191.37 1900.81,-186.36 1890.39,-184.45 1891.48,-191.37"/>
</g>
<!-- Node27 -->
<g id="node27" class="node">
<title>Node27</title>
<g id="a_node27"><a xlink:title=" ">
<polygon fill="none" stroke="#bfbfbf" points="1975,-168.5 1975,-187.5 2031,-187.5 2031,-168.5 1975,-168.5"/>
<text text-anchor="middle" x="2003" y="-175.5" font-family="Helvetica,sans-Serif" font-size="10.00">numeric</text>
</a>
</g>
</g>
<!-- Node1&#45;&gt;Node27 -->
<g id="edge30" class="edge">
<title>Node1&#45;&gt;Node27</title>
<path fill="none" stroke="midnightblue" d="M1322.33,-232.78C1425.06,-231.71 1715.14,-225.46 1964.83,-187.91"/>
<polygon fill="midnightblue" stroke="midnightblue" points="1965.46,-191.35 1974.82,-186.39 1964.41,-184.43 1965.46,-191.35"/>
</g>
<!-- Node28 -->
<g id="node28" class="node">
<title>Node28</title>
<g id="a_node28"><a xlink:title=" ">
<polygon fill="none" stroke="#bfbfbf" points="1930.5,-112.5 1930.5,-131.5 1997.5,-131.5 1997.5,-112.5 1930.5,-112.5"/>
<text text-anchor="middle" x="1964" y="-119.5" font-family="Helvetica,sans-Serif" font-size="10.00">fmt/core.h</text>
</a>
</g>
</g>
<!-- Node1&#45;&gt;Node28 -->
<g id="edge31" class="edge">
<title>Node1&#45;&gt;Node28</title>
<path fill="none" stroke="midnightblue" d="M1322.23,-233.63C1402.83,-234.04 1595.5,-230.06 1750,-188 1770.34,-182.46 1773.17,-175.15 1793,-168 1835.44,-152.68 1885.52,-140.12 1920.48,-132.2"/>
<polygon fill="midnightblue" stroke="midnightblue" points="1921.37,-135.58 1930.36,-129.99 1919.84,-128.75 1921.37,-135.58"/>
</g>
<!-- Node29 -->
<g id="node29" class="node">
<title>Node29</title>
<g id="a_node29"><a xlink:title=" ">
<polygon fill="none" stroke="#bfbfbf" points="2015.5,-112.5 2015.5,-131.5 2094.5,-131.5 2094.5,-112.5 2015.5,-112.5"/>
<text text-anchor="middle" x="2055" y="-119.5" font-family="Helvetica,sans-Serif" font-size="10.00">fmt/ranges.h</text>
</a>
</g>
</g>
<!-- Node1&#45;&gt;Node29 -->
<g id="edge32" class="edge">
<title>Node1&#45;&gt;Node29</title>
<path fill="none" stroke="midnightblue" d="M1322.09,-231.32C1423.4,-226.59 1697.71,-211.88 1785,-188 1804.94,-182.55 1807.37,-174.5 1827,-168 1835.46,-165.2 1940.98,-144.8 2005.46,-132.45"/>
<polygon fill="midnightblue" stroke="midnightblue" points="2006.27,-135.86 2015.43,-130.54 2004.95,-128.99 2006.27,-135.86"/>
</g>
<!-- Node30 -->
<g id="node30" class="node">
<title>Node30</title>
<g id="a_node30"><a xlink:href="deadlock_8h.html" target="_top" xlink:title=" ">
<polygon fill="none" stroke="black" points="1671,-168.5 1671,-187.5 1741,-187.5 1741,-168.5 1671,-168.5"/>
<text text-anchor="middle" x="1706" y="-175.5" font-family="Helvetica,sans-Serif" font-size="10.00">deadlock.h</text>
</a>
</g>
</g>
<!-- Node1&#45;&gt;Node30 -->
<g id="edge35" class="edge">
<title>Node1&#45;&gt;Node30</title>
<path fill="none" stroke="midnightblue" d="M1322.19,-228.11C1400.2,-218.13 1577.47,-195.45 1660.94,-184.77"/>
<polygon fill="midnightblue" stroke="midnightblue" points="1661.41,-188.23 1670.88,-183.49 1660.52,-181.29 1661.41,-188.23"/>
</g>
<!-- Node33 -->
<g id="node33" class="node">
<title>Node33</title>
<g id="a_node33"><a xlink:href="instruction_8h.html" target="_top" xlink:title=" ">
<polygon fill="none" stroke="black" points="454.5,-112.5 454.5,-131.5 531.5,-131.5 531.5,-112.5 454.5,-112.5"/>
<text text-anchor="middle" x="493" y="-119.5" font-family="Helvetica,sans-Serif" font-size="10.00">instruction.h</text>
</a>
</g>
</g>
<!-- Node1&#45;&gt;Node33 -->
<g id="edge43" class="edge">
<title>Node1&#45;&gt;Node33</title>
<path fill="none" stroke="midnightblue" d="M1245.8,-228.18C1182.29,-220.14 1050.98,-203.33 940,-188 794.92,-167.96 623.62,-142.57 541.57,-130.3"/>
<polygon fill="midnightblue" stroke="midnightblue" points="541.95,-126.81 531.54,-128.79 540.91,-133.74 541.95,-126.81"/>
</g>
<!-- Node35 -->
<g id="node35" class="node">
<title>Node35</title>
<g id="a_node35"><a xlink:href="algorithm_8h.html" target="_top" xlink:title=" ">
<polygon fill="none" stroke="black" points="118,-168.5 118,-187.5 210,-187.5 210,-168.5 118,-168.5"/>
<text text-anchor="middle" x="164" y="-175.5" font-family="Helvetica,sans-Serif" font-size="10.00">util/algorithm.h</text>
</a>
</g>
</g>
<!-- Node1&#45;&gt;Node35 -->
<g id="edge52" class="edge">
<title>Node1&#45;&gt;Node35</title>
<path fill="none" stroke="midnightblue" d="M1245.7,-232.29C1109.3,-229.58 634.54,-218.38 244,-188 236.26,-187.4 228.11,-186.63 220.1,-185.81"/>
<polygon fill="midnightblue" stroke="midnightblue" points="220.38,-182.31 210.06,-184.73 219.63,-189.28 220.38,-182.31"/>
</g>
<!-- Node36 -->
<g id="node36" class="node">
<title>Node36</title>
<g id="a_node36"><a xlink:href="span_8h.html" target="_top" xlink:title=" ">
<polygon fill="none" stroke="black" points="130,-112.5 130,-131.5 198,-131.5 198,-112.5 130,-112.5"/>
<text text-anchor="middle" x="164" y="-119.5" font-family="Helvetica,sans-Serif" font-size="10.00">util/span.h</text>
</a>
</g>
</g>
<!-- Node1&#45;&gt;Node36 -->
<g id="edge59" class="edge">
<title>Node1&#45;&gt;Node36</title>
<path fill="none" stroke="midnightblue" d="M1245.85,-233.34C1087.34,-234.44 480.49,-235.41 296,-188 254.54,-177.34 210.79,-152.78 185.52,-137.09"/>
<polygon fill="midnightblue" stroke="midnightblue" points="187.1,-133.95 176.78,-131.56 183.36,-139.86 187.1,-133.95"/>
</g>
<!-- Node3 -->
<g id="node3" class="node">
<title>Node3</title>
<g id="a_node3"><a xlink:title=" ">
<polygon fill="none" stroke="#bfbfbf" points="578,-56.5 578,-75.5 620,-75.5 620,-56.5 578,-56.5"/>
<text text-anchor="middle" x="599" y="-63.5" font-family="Helvetica,sans-Serif" font-size="10.00">array</text>
</a>
</g>
</g>
<!-- Node2&#45;&gt;Node3 -->
<g id="edge2" class="edge">
<title>Node2&#45;&gt;Node3</title>
<path fill="none" stroke="midnightblue" d="M948.85,-175.97C863.31,-172.47 603.66,-159.61 579,-132 567.13,-118.71 576.21,-98.49 585.66,-84.14"/>
<polygon fill="midnightblue" stroke="midnightblue" points="588.74,-85.86 591.71,-75.69 583.04,-81.78 588.74,-85.86"/>
</g>
<!-- Node4 -->
<g id="node4" class="node">
<title>Node4</title>
<g id="a_node4"><a xlink:title=" ">
<polygon fill="none" stroke="#bfbfbf" points="708,-112.5 708,-131.5 752,-131.5 752,-112.5 708,-112.5"/>
<text text-anchor="middle" x="730" y="-119.5" font-family="Helvetica,sans-Serif" font-size="10.00">bitset</text>
</a>
</g>
</g>
<!-- Node2&#45;&gt;Node4 -->
<g id="edge3" class="edge">
<title>Node2&#45;&gt;Node4</title>
<path fill="none" stroke="midnightblue" d="M948.7,-171.98C909.48,-164.61 834.75,-150.03 762.07,-132.12"/>
<polygon fill="midnightblue" stroke="midnightblue" points="762.85,-128.71 752.3,-129.69 761.16,-135.5 762.85,-128.71"/>
</g>
<!-- Node5 -->
<g id="node5" class="node">
<title>Node5</title>
<g id="a_node5"><a xlink:title=" ">
<polygon fill="none" stroke="#bfbfbf" points="916.5,-56.5 916.5,-75.5 963.5,-75.5 963.5,-56.5 916.5,-56.5"/>
<text text-anchor="middle" x="940" y="-63.5" font-family="Helvetica,sans-Serif" font-size="10.00">deque</text>
</a>
</g>
</g>
<!-- Node2&#45;&gt;Node5 -->
<g id="edge4" class="edge">
<title>Node2&#45;&gt;Node5</title>
<path fill="none" stroke="midnightblue" d="M972.54,-168.44C968.96,-159.44 963.29,-144.83 959,-132 953.81,-116.49 948.66,-98.65 945.03,-85.59"/>
<polygon fill="midnightblue" stroke="midnightblue" points="948.39,-84.62 942.37,-75.9 941.64,-86.47 948.39,-84.62"/>
</g>
<!-- Node6 -->
<g id="node6" class="node">
<title>Node6</title>
<g id="a_node6"><a xlink:title=" ">
<polygon fill="none" stroke="#bfbfbf" points="770,-112.5 770,-131.5 828,-131.5 828,-112.5 770,-112.5"/>
<text text-anchor="middle" x="799" y="-119.5" font-family="Helvetica,sans-Serif" font-size="10.00">memory</text>
</a>
</g>
</g>
<!-- Node2&#45;&gt;Node6 -->
<g id="edge5" class="edge">
<title>Node2&#45;&gt;Node6</title>
<path fill="none" stroke="midnightblue" d="M948.73,-168.68C918.76,-159.54 870.42,-144.79 836.81,-134.53"/>
<polygon fill="midnightblue" stroke="midnightblue" points="837.47,-131.08 826.88,-131.51 835.43,-137.77 837.47,-131.08"/>
</g>
<!-- Node7 -->
<g id="node7" class="node">
<title>Node7</title>
<g id="a_node7"><a xlink:title=" ">
<polygon fill="none" stroke="#bfbfbf" points="846.5,-112.5 846.5,-131.5 911.5,-131.5 911.5,-112.5 846.5,-112.5"/>
<text text-anchor="middle" x="879" y="-119.5" font-family="Helvetica,sans-Serif" font-size="10.00">stdexcept</text>
</a>
</g>
</g>
<!-- Node2&#45;&gt;Node7 -->
<g id="edge6" class="edge">
<title>Node2&#45;&gt;Node7</title>
<path fill="none" stroke="midnightblue" d="M960.42,-168.32C945,-159.74 921.19,-146.49 903.29,-136.52"/>
<polygon fill="midnightblue" stroke="midnightblue" points="904.99,-133.46 894.55,-131.65 901.58,-139.58 904.99,-133.46"/>
</g>
<!-- Node8 -->
<g id="node8" class="node">
<title>Node8</title>
<g id="a_node8"><a xlink:title=" ">
<polygon fill="none" stroke="#bfbfbf" points="1640,-112.5 1640,-131.5 1684,-131.5 1684,-112.5 1640,-112.5"/>
<text text-anchor="middle" x="1662" y="-119.5" font-family="Helvetica,sans-Serif" font-size="10.00">string</text>
</a>
</g>
</g>
<!-- Node2&#45;&gt;Node8 -->
<g id="edge7" class="edge">
<title>Node2&#45;&gt;Node8</title>
<path fill="none" stroke="midnightblue" d="M1003.08,-177.2C1091.91,-177.44 1382.47,-174.78 1629.89,-131.81"/>
<polygon fill="midnightblue" stroke="midnightblue" points="1630.54,-135.25 1639.78,-130.07 1629.33,-128.36 1630.54,-135.25"/>
</g>
<!-- Node9 -->
<g id="node9" class="node">
<title>Node9</title>
<g id="a_node9"><a xlink:title=" ">
<polygon fill="none" stroke="#bfbfbf" points="851.5,-56.5 851.5,-75.5 898.5,-75.5 898.5,-56.5 851.5,-56.5"/>
<text text-anchor="middle" x="875" y="-63.5" font-family="Helvetica,sans-Serif" font-size="10.00">vector</text>
</a>
</g>
</g>
<!-- Node2&#45;&gt;Node9 -->
<g id="edge8" class="edge">
<title>Node2&#45;&gt;Node9</title>
<path fill="none" stroke="midnightblue" d="M948.95,-176.85C885.68,-175.86 730.96,-169.57 699,-132 635.43,-57.27 568.58,-145.98 841.37,-76.1"/>
<polygon fill="midnightblue" stroke="midnightblue" points="842.42,-79.44 851.22,-73.54 840.66,-72.67 842.42,-79.44"/>
</g>
<!-- Node2&#45;&gt;Node10 -->
<g id="edge9" class="edge">
<title>Node2&#45;&gt;Node10</title>
<path fill="none" stroke="midnightblue" d="M948.86,-175.3C870.56,-170.25 637.53,-154.34 445,-132 441.05,-131.54 436.95,-131.03 432.85,-130.48"/>
<polygon fill="midnightblue" stroke="midnightblue" points="433.06,-126.98 422.68,-129.07 432.1,-133.91 433.06,-126.98"/>
</g>
<!-- Node2&#45;&gt;Node13 -->
<g id="edge12" class="edge">
<title>Node2&#45;&gt;Node13</title>
<path fill="none" stroke="midnightblue" d="M1003.23,-174.79C1078.7,-168.62 1296.93,-150.43 1478,-132 1479.31,-131.87 1480.64,-131.73 1481.97,-131.59"/>
<polygon fill="midnightblue" stroke="midnightblue" points="1482.77,-135.03 1492.34,-130.49 1482.03,-128.07 1482.77,-135.03"/>
</g>
<!-- Node14 -->
<g id="node14" class="node">
<title>Node14</title>
<g id="a_node14"><a xlink:href="channel_8h.html" target="_top" xlink:title=" ">
<polygon fill="none" stroke="black" points="588,-112.5 588,-131.5 652,-131.5 652,-112.5 588,-112.5"/>
<text text-anchor="middle" x="620" y="-119.5" font-family="Helvetica,sans-Serif" font-size="10.00">channel.h</text>
</a>
</g>
</g>
<!-- Node2&#45;&gt;Node14 -->
<g id="edge13" class="edge">
<title>Node2&#45;&gt;Node14</title>
<path fill="none" stroke="midnightblue" d="M948.98,-173.53C895.05,-166.51 770.27,-149.76 666,-132 664.74,-131.78 663.45,-131.56 662.16,-131.33"/>
<polygon fill="midnightblue" stroke="midnightblue" points="662.6,-127.86 652.13,-129.5 661.34,-134.74 662.6,-127.86"/>
</g>
<!-- Node18 -->
<g id="node18" class="node">
<title>Node18</title>
<g id="a_node18"><a xlink:href="module__impl_8h.html" target="_top" xlink:title=" ">
<polygon fill="none" stroke="black" points="968.5,-112.5 968.5,-131.5 1057.5,-131.5 1057.5,-112.5 968.5,-112.5"/>
<text text-anchor="middle" x="1013" y="-119.5" font-family="Helvetica,sans-Serif" font-size="10.00">module_impl.h</text>
</a>
</g>
</g>
<!-- Node2&#45;&gt;Node18 -->
<g id="edge21" class="edge">
<title>Node2&#45;&gt;Node18</title>
<path fill="none" stroke="midnightblue" d="M982.11,-168.08C987.28,-160.53 994.85,-149.49 1001.19,-140.23"/>
<polygon fill="midnightblue" stroke="midnightblue" points="1004.24,-141.98 1007,-131.75 998.46,-138.02 1004.24,-141.98"/>
</g>
<!-- Node19 -->
<g id="node19" class="node">
<title>Node19</title>
<g id="a_node19"><a xlink:href="operable_8h.html" target="_top" xlink:title=" ">
<polygon fill="none" stroke="black" points="1076,-112.5 1076,-131.5 1144,-131.5 1144,-112.5 1076,-112.5"/>
<text text-anchor="middle" x="1110" y="-119.5" font-family="Helvetica,sans-Serif" font-size="10.00">operable.h</text>
</a>
</g>
</g>
<!-- Node2&#45;&gt;Node19 -->
<g id="edge22" class="edge">
<title>Node2&#45;&gt;Node19</title>
<path fill="none" stroke="midnightblue" d="M997.23,-168.44C1019.38,-159.52 1054.32,-145.44 1079.44,-135.32"/>
<polygon fill="midnightblue" stroke="midnightblue" points="1080.9,-138.5 1088.87,-131.52 1078.28,-132.01 1080.9,-138.5"/>
</g>
<!-- Node20 -->
<g id="node20" class="node">
<title>Node20</title>
<g id="a_node20"><a xlink:title=" ">
<polygon fill="none" stroke="#bfbfbf" points="1716.5,-56.5 1716.5,-75.5 1785.5,-75.5 1785.5,-56.5 1716.5,-56.5"/>
<text text-anchor="middle" x="1751" y="-63.5" font-family="Helvetica,sans-Serif" font-size="10.00">type_traits</text>
</a>
</g>
</g>
<!-- Node2&#45;&gt;Node20 -->
<g id="edge23" class="edge">
<title>Node2&#45;&gt;Node20</title>
<path fill="none" stroke="midnightblue" d="M1003.19,-175.73C1090.09,-171.46 1360.28,-156.52 1444,-132 1462.69,-126.53 1464.51,-118.13 1483,-112 1558.99,-86.81 1651.99,-75.24 1706.06,-70.31"/>
<polygon fill="midnightblue" stroke="midnightblue" points="1706.69,-73.76 1716.34,-69.41 1706.07,-66.79 1706.69,-73.76"/>
</g>
<!-- Node21 -->
<g id="node21" class="node">
<title>Node21</title>
<g id="a_node21"><a xlink:title=" ">
<polygon fill="none" stroke="#bfbfbf" points="1162,-112.5 1162,-131.5 1292,-131.5 1292,-112.5 1162,-112.5"/>
<text text-anchor="middle" x="1227" y="-119.5" font-family="Helvetica,sans-Serif" font-size="10.00">cache_module_decl.inc</text>
</a>
</g>
</g>
<!-- Node2&#45;&gt;Node21 -->
<g id="edge24" class="edge">
<title>Node2&#45;&gt;Node21</title>
<path fill="none" stroke="midnightblue" d="M1003.34,-171.12C1045.03,-162.15 1125.14,-144.91 1177.31,-133.69"/>
<polygon fill="midnightblue" stroke="midnightblue" points="1178.31,-137.05 1187.35,-131.53 1176.84,-130.21 1178.31,-137.05"/>
</g>
<!-- Node22 -->
<g id="node22" class="node">
<title>Node22</title>
<g id="a_node22"><a xlink:title=" ">
<polygon fill="none" stroke="#bfbfbf" points="1310.5,-112.5 1310.5,-131.5 1435.5,-131.5 1435.5,-112.5 1310.5,-112.5"/>
<text text-anchor="middle" x="1373" y="-119.5" font-family="Helvetica,sans-Serif" font-size="10.00">cache_module_def.inc</text>
</a>
</g>
</g>
<!-- Node2&#45;&gt;Node22 -->
<g id="edge25" class="edge">
<title>Node2&#45;&gt;Node22</title>
<path fill="none" stroke="midnightblue" d="M1003.29,-173.29C1063.76,-165.06 1210.75,-145.07 1300.1,-132.92"/>
<polygon fill="midnightblue" stroke="midnightblue" points="1300.73,-136.36 1310.17,-131.55 1299.79,-129.43 1300.73,-136.36"/>
</g>
<!-- Node11 -->
<g id="node11" class="node">
<title>Node11</title>
<g id="a_node11"><a xlink:title=" ">
<polygon fill="none" stroke="#bfbfbf" points="346,-56.5 346,-75.5 396,-75.5 396,-56.5 346,-56.5"/>
<text text-anchor="middle" x="371" y="-63.5" font-family="Helvetica,sans-Serif" font-size="10.00">cstdint</text>
</a>
</g>
</g>
<!-- Node10&#45;&gt;Node11 -->
<g id="edge10" class="edge">
<title>Node10&#45;&gt;Node11</title>
<path fill="none" stroke="midnightblue" d="M381.85,-112.08C380.13,-104.93 377.65,-94.64 375.5,-85.69"/>
<polygon fill="midnightblue" stroke="midnightblue" points="378.85,-84.65 373.11,-75.75 372.04,-86.29 378.85,-84.65"/>
</g>
<!-- Node12 -->
<g id="node12" class="node">
<title>Node12</title>
<g id="a_node12"><a xlink:title=" ">
<polygon fill="none" stroke="#bfbfbf" points="262.5,-56.5 262.5,-75.5 327.5,-75.5 327.5,-56.5 262.5,-56.5"/>
<text text-anchor="middle" x="295" y="-63.5" font-family="Helvetica,sans-Serif" font-size="10.00">exception</text>
</a>
</g>
</g>
<!-- Node10&#45;&gt;Node12 -->
<g id="edge11" class="edge">
<title>Node10&#45;&gt;Node12</title>
<path fill="none" stroke="midnightblue" d="M369.7,-112.32C355.82,-103.9 334.51,-90.97 318.2,-81.07"/>
<polygon fill="midnightblue" stroke="midnightblue" points="319.63,-77.85 309.26,-75.65 316,-83.83 319.63,-77.85"/>
</g>
<!-- Node14&#45;&gt;Node3 -->
<g id="edge14" class="edge">
<title>Node14&#45;&gt;Node3</title>
<path fill="none" stroke="midnightblue" d="M616.53,-112.08C613.69,-104.77 609.57,-94.18 606.04,-85.1"/>
<polygon fill="midnightblue" stroke="midnightblue" points="609.29,-83.8 602.4,-75.75 602.77,-86.34 609.29,-83.8"/>
</g>
<!-- Node14&#45;&gt;Node5 -->
<g id="edge16" class="edge">
<title>Node14&#45;&gt;Node5</title>
<path fill="none" stroke="midnightblue" d="M652.06,-117.15C703.61,-110.71 808.24,-96.59 906.49,-75.89"/>
<polygon fill="midnightblue" stroke="midnightblue" points="907.23,-79.31 916.28,-73.81 905.77,-72.47 907.23,-79.31"/>
</g>
<!-- Node14&#45;&gt;Node9 -->
<g id="edge19" class="edge">
<title>Node14&#45;&gt;Node9</title>
<path fill="none" stroke="midnightblue" d="M652.13,-114.61C703.8,-104.32 802.75,-84.53 841.34,-75.96"/>
<polygon fill="midnightblue" stroke="midnightblue" points="842.29,-79.33 851.26,-73.68 840.73,-72.51 842.29,-79.33"/>
</g>
<!-- Node14&#45;&gt;Node11 -->
<g id="edge15" class="edge">
<title>Node14&#45;&gt;Node11</title>
<path fill="none" stroke="midnightblue" d="M587.83,-114.81C547.58,-106.95 476.34,-92.65 406.11,-76.17"/>
<polygon fill="midnightblue" stroke="midnightblue" points="406.75,-72.73 396.21,-73.83 405.14,-79.54 406.75,-72.73"/>
</g>
<!-- Node15 -->
<g id="node15" class="node">
<title>Node15</title>
<g id="a_node15"><a xlink:title=" ">
<polygon fill="none" stroke="#bfbfbf" points="638.5,-56.5 638.5,-75.5 703.5,-75.5 703.5,-56.5 638.5,-56.5"/>
<text text-anchor="middle" x="671" y="-63.5" font-family="Helvetica,sans-Serif" font-size="10.00">functional</text>
</a>
</g>
</g>
<!-- Node14&#45;&gt;Node15 -->
<g id="edge17" class="edge">
<title>Node14&#45;&gt;Node15</title>
<path fill="none" stroke="midnightblue" d="M628.42,-112.08C635.85,-104.22 646.85,-92.57 655.81,-83.08"/>
<polygon fill="midnightblue" stroke="midnightblue" points="658.41,-85.42 662.74,-75.75 653.32,-80.62 658.41,-85.42"/>
</g>
<!-- Node16 -->
<g id="node16" class="node">
<title>Node16</title>
<g id="a_node16"><a xlink:title=" ">
<polygon fill="none" stroke="#bfbfbf" points="487,-0.5 487,-19.5 531,-19.5 531,-0.5 487,-0.5"/>
<text text-anchor="middle" x="509" y="-7.5" font-family="Helvetica,sans-Serif" font-size="10.00">limits</text>
</a>
</g>
</g>
<!-- Node14&#45;&gt;Node16 -->
<g id="edge18" class="edge">
<title>Node14&#45;&gt;Node16</title>
<path fill="none" stroke="midnightblue" d="M652.13,-112.42C686.24,-101.73 732.63,-81.7 712,-56 690.91,-29.73 592.67,-17.84 540.99,-13.33"/>
<polygon fill="midnightblue" stroke="midnightblue" points="541.26,-9.85 531.01,-12.5 540.68,-16.82 541.26,-9.85"/>
</g>
<!-- Node17 -->
<g id="node17" class="node">
<title>Node17</title>
<g id="a_node17"><a xlink:title=" ">
<polygon fill="none" stroke="#bfbfbf" points="760.5,-56.5 760.5,-75.5 833.5,-75.5 833.5,-56.5 760.5,-56.5"/>
<text text-anchor="middle" x="797" y="-63.5" font-family="Helvetica,sans-Serif" font-size="10.00">string_view</text>
</a>
</g>
</g>
<!-- Node14&#45;&gt;Node17 -->
<g id="edge20" class="edge">
<title>Node14&#45;&gt;Node17</title>
<path fill="none" stroke="midnightblue" d="M648.05,-112.44C678.08,-103.28 725.91,-88.69 759.24,-78.52"/>
<polygon fill="midnightblue" stroke="midnightblue" points="760.54,-81.78 769.09,-75.52 758.5,-75.09 760.54,-81.78"/>
</g>
<!-- Node30&#45;&gt;Node8 -->
<g id="edge37" class="edge">
<title>Node30&#45;&gt;Node8</title>
<path fill="none" stroke="midnightblue" d="M1698.73,-168.08C1692.46,-160.38 1683.21,-149.03 1675.57,-139.65"/>
<polygon fill="midnightblue" stroke="midnightblue" points="1678.16,-137.29 1669.13,-131.75 1672.73,-141.71 1678.16,-137.29"/>
</g>
<!-- Node30&#45;&gt;Node20 -->
<g id="edge38" class="edge">
<title>Node30&#45;&gt;Node20</title>
<path fill="none" stroke="midnightblue" d="M1741.06,-171.74C1764.64,-166.18 1794.04,-154.86 1809,-132 1821.7,-112.6 1798.38,-93.12 1777.64,-80.62"/>
<polygon fill="midnightblue" stroke="midnightblue" points="1779.15,-77.45 1768.72,-75.55 1775.69,-83.54 1779.15,-77.45"/>
</g>
<!-- Node30&#45;&gt;Node28 -->
<g id="edge39" class="edge">
<title>Node30&#45;&gt;Node28</title>
<path fill="none" stroke="midnightblue" d="M1741.06,-169.66C1787.6,-159.92 1869.74,-142.73 1920.27,-132.15"/>
<polygon fill="midnightblue" stroke="midnightblue" points="1921.17,-135.54 1930.24,-130.07 1919.74,-128.69 1921.17,-135.54"/>
</g>
<!-- Node30&#45;&gt;Node29 -->
<g id="edge40" class="edge">
<title>Node30&#45;&gt;Node29</title>
<path fill="none" stroke="midnightblue" d="M1741.29,-172.16C1795.76,-164.58 1903.87,-149.18 2005.35,-132.23"/>
<polygon fill="midnightblue" stroke="midnightblue" points="2006.19,-135.64 2015.47,-130.53 2005.03,-128.74 2006.19,-135.64"/>
</g>
<!-- Node31 -->
<g id="node31" class="node">
<title>Node31</title>
<g id="a_node31"><a xlink:title=" ">
<polygon fill="none" stroke="#bfbfbf" points="1856,-112.5 1856,-131.5 1912,-131.5 1912,-112.5 1856,-112.5"/>
<text text-anchor="middle" x="1884" y="-119.5" font-family="Helvetica,sans-Serif" font-size="10.00">optional</text>
</a>
</g>
</g>
<!-- Node30&#45;&gt;Node31 -->
<g id="edge36" class="edge">
<title>Node30&#45;&gt;Node31</title>
<path fill="none" stroke="midnightblue" d="M1734.2,-168.44C1764.41,-159.28 1812.51,-144.69 1846.03,-134.52"/>
<polygon fill="midnightblue" stroke="midnightblue" points="1847.37,-137.77 1855.93,-131.52 1845.34,-131.07 1847.37,-137.77"/>
</g>
<!-- Node32 -->
<g id="node32" class="node">
<title>Node32</title>
<g id="a_node32"><a xlink:href="type__traits_8h.html" target="_top" xlink:title=" ">
<polygon fill="none" stroke="black" points="1702.5,-112.5 1702.5,-131.5 1799.5,-131.5 1799.5,-112.5 1702.5,-112.5"/>
<text text-anchor="middle" x="1751" y="-119.5" font-family="Helvetica,sans-Serif" font-size="10.00">util/type_traits.h</text>
</a>
</g>
</g>
<!-- Node30&#45;&gt;Node32 -->
<g id="edge41" class="edge">
<title>Node30&#45;&gt;Node32</title>
<path fill="none" stroke="midnightblue" d="M1713.43,-168.08C1719.85,-160.38 1729.31,-149.03 1737.12,-139.65"/>
<polygon fill="midnightblue" stroke="midnightblue" points="1739.99,-141.67 1743.71,-131.75 1734.62,-137.19 1739.99,-141.67"/>
</g>
<!-- Node32&#45;&gt;Node20 -->
<g id="edge42" class="edge">
<title>Node32&#45;&gt;Node20</title>
<path fill="none" stroke="midnightblue" d="M1751,-112.08C1751,-105.01 1751,-94.86 1751,-85.99"/>
<polygon fill="midnightblue" stroke="midnightblue" points="1754.5,-85.75 1751,-75.75 1747.5,-85.75 1754.5,-85.75"/>
</g>
<!-- Node33&#45;&gt;Node3 -->
<g id="edge45" class="edge">
<title>Node33&#45;&gt;Node3</title>
<path fill="none" stroke="midnightblue" d="M510.03,-112.32C527.03,-103.66 553.38,-90.24 572.99,-80.25"/>
<polygon fill="midnightblue" stroke="midnightblue" points="574.69,-83.31 582.01,-75.65 571.51,-77.08 574.69,-83.31"/>
</g>
<!-- Node33&#45;&gt;Node9 -->
<g id="edge49" class="edge">
<title>Node33&#45;&gt;Node9</title>
<path fill="none" stroke="midnightblue" d="M531.55,-116.71C605.81,-108.34 767.14,-89.61 841.05,-75.87"/>
<polygon fill="midnightblue" stroke="midnightblue" points="842.15,-79.23 851.3,-73.88 840.82,-72.35 842.15,-79.23"/>
</g>
<!-- Node33&#45;&gt;Node11 -->
<g id="edge46" class="edge">
<title>Node33&#45;&gt;Node11</title>
<path fill="none" stroke="midnightblue" d="M473.67,-112.44C453.68,-103.6 422.26,-89.69 399.44,-79.59"/>
<polygon fill="midnightblue" stroke="midnightblue" points="400.8,-76.36 390.24,-75.52 397.97,-82.76 400.8,-76.36"/>
</g>
<!-- Node33&#45;&gt;Node15 -->
<g id="edge47" class="edge">
<title>Node33&#45;&gt;Node15</title>
<path fill="none" stroke="midnightblue" d="M521.2,-112.44C551.41,-103.28 599.51,-88.69 633.03,-78.52"/>
<polygon fill="midnightblue" stroke="midnightblue" points="634.37,-81.77 642.93,-75.52 632.34,-75.07 634.37,-81.77"/>
</g>
<!-- Node33&#45;&gt;Node16 -->
<g id="edge48" class="edge">
<title>Node33&#45;&gt;Node16</title>
<path fill="none" stroke="midnightblue" d="M503.44,-112.24C512.42,-103.97 524.75,-90.66 530,-76 535.73,-60.01 528.47,-41.56 520.97,-28.42"/>
<polygon fill="midnightblue" stroke="midnightblue" points="523.91,-26.52 515.64,-19.89 517.97,-30.23 523.91,-26.52"/>
</g>
<!-- Node33&#45;&gt;Node23 -->
<g id="edge44" class="edge">
<title>Node33&#45;&gt;Node23</title>
<path fill="none" stroke="midnightblue" d="M454.34,-115.12C446.62,-114.02 438.56,-112.93 431,-112 275.53,-92.91 232.66,-100.84 74.27,-76.03"/>
<polygon fill="midnightblue" stroke="midnightblue" points="74.59,-72.54 64.16,-74.43 73.49,-79.45 74.59,-72.54"/>
</g>
<!-- Node34 -->
<g id="node34" class="node">
<title>Node34</title>
<g id="a_node34"><a xlink:href="trace__instruction_8h.html" target="_top" xlink:title=" ">
<polygon fill="none" stroke="black" points="414.5,-56.5 414.5,-75.5 521.5,-75.5 521.5,-56.5 414.5,-56.5"/>
<text text-anchor="middle" x="468" y="-63.5" font-family="Helvetica,sans-Serif" font-size="10.00">trace_instruction.h</text>
</a>
</g>
</g>
<!-- Node33&#45;&gt;Node34 -->
<g id="edge50" class="edge">
<title>Node33&#45;&gt;Node34</title>
<path fill="none" stroke="midnightblue" d="M488.87,-112.08C485.49,-104.77 480.58,-94.18 476.38,-85.1"/>
<polygon fill="midnightblue" stroke="midnightblue" points="479.43,-83.36 472.05,-75.75 473.08,-86.3 479.43,-83.36"/>
</g>
<!-- Node34&#45;&gt;Node16 -->
<g id="edge51" class="edge">
<title>Node34&#45;&gt;Node16</title>
<path fill="none" stroke="midnightblue" d="M474.77,-56.08C480.56,-48.46 489.06,-37.26 496.14,-27.94"/>
<polygon fill="midnightblue" stroke="midnightblue" points="499.1,-29.83 502.36,-19.75 493.52,-25.6 499.1,-29.83"/>
</g>
<!-- Node35&#45;&gt;Node23 -->
<g id="edge53" class="edge">
<title>Node35&#45;&gt;Node23</title>
<path fill="none" stroke="midnightblue" d="M153.64,-168.37C131.28,-149.73 78.24,-105.53 50.16,-82.13"/>
<polygon fill="midnightblue" stroke="midnightblue" points="52.23,-79.3 42.31,-75.59 47.75,-84.68 52.23,-79.3"/>
</g>
<!-- Node35&#45;&gt;Node36 -->
<g id="edge54" class="edge">
<title>Node35&#45;&gt;Node36</title>
<path fill="none" stroke="midnightblue" d="M164,-168.08C164,-161.01 164,-150.86 164,-141.99"/>
<polygon fill="midnightblue" stroke="midnightblue" points="167.5,-141.75 164,-131.75 160.5,-141.75 167.5,-141.75"/>
</g>
<!-- Node36&#45;&gt;Node16 -->
<g id="edge58" class="edge">
<title>Node36&#45;&gt;Node16</title>
<path fill="none" stroke="midnightblue" d="M163.77,-112.28C163.91,-98.12 166.44,-70.28 183,-56 226.5,-18.47 402.84,-12.14 476.46,-11.14"/>
<polygon fill="midnightblue" stroke="midnightblue" points="476.59,-14.64 486.55,-11.03 476.51,-7.64 476.59,-14.64"/>
</g>
<!-- Node36&#45;&gt;Node23 -->
<g id="edge55" class="edge">
<title>Node36&#45;&gt;Node23</title>
<path fill="none" stroke="midnightblue" d="M143.08,-112.44C121.26,-103.52 86.85,-89.44 62.11,-79.32"/>
<polygon fill="midnightblue" stroke="midnightblue" points="63.4,-76.06 52.82,-75.52 60.75,-82.54 63.4,-76.06"/>
</g>
<!-- Node36&#45;&gt;Node24 -->
<g id="edge56" class="edge">
<title>Node36&#45;&gt;Node24</title>
<path fill="none" stroke="midnightblue" d="M172.92,-112.08C180.78,-104.22 192.43,-92.57 201.92,-83.08"/>
<polygon fill="midnightblue" stroke="midnightblue" points="204.65,-85.3 209.25,-75.75 199.7,-80.35 204.65,-85.3"/>
</g>
<!-- Node37 -->
<g id="node37" class="node">
<title>Node37</title>
<g id="a_node37"><a xlink:title=" ">
<polygon fill="none" stroke="#bfbfbf" points="82.5,-56.5 82.5,-75.5 135.5,-75.5 135.5,-56.5 82.5,-56.5"/>
<text text-anchor="middle" x="109" y="-63.5" font-family="Helvetica,sans-Serif" font-size="10.00">iterator</text>
</a>
</g>
</g>
<!-- Node36&#45;&gt;Node37 -->
<g id="edge57" class="edge">
<title>Node36&#45;&gt;Node37</title>
<path fill="none" stroke="midnightblue" d="M154.92,-112.08C146.83,-104.14 134.8,-92.34 125.09,-82.8"/>
<polygon fill="midnightblue" stroke="midnightblue" points="127.5,-80.26 117.91,-75.75 122.6,-85.25 127.5,-80.26"/>
</g>
</g>
</svg>
