<?xml version="1.0" encoding="UTF-8" standalone="no"?>
<!DOCTYPE svg PUBLIC "-//W3C//DTD SVG 1.1//EN"
 "http://www.w3.org/Graphics/SVG/1.1/DTD/svg11.dtd">
<!-- Generated by graphviz version 2.43.0 (0)
 -->
<!-- Title: src/channel.cc Pages: 1 -->
<svg width="1574pt" height="252pt"
 viewBox="0.00 0.00 1574.00 252.00" xmlns="http://www.w3.org/2000/svg" xmlns:xlink="http://www.w3.org/1999/xlink">
<g id="graph0" class="graph" transform="scale(1 1) rotate(0) translate(4 248)">
<title>src/channel.cc</title>
<!-- Node1 -->
<g id="node1" class="node">
<title>Node1</title>
<g id="a_node1"><a xlink:title=" ">
<polygon fill="#bfbfbf" stroke="black" points="1133.5,-224.5 1133.5,-243.5 1219.5,-243.5 1219.5,-224.5 1133.5,-224.5"/>
<text text-anchor="middle" x="1176.5" y="-231.5" font-family="Helvetica,sans-Serif" font-size="10.00">src/channel.cc</text>
</a>
</g>
</g>
<!-- Node2 -->
<g id="node2" class="node">
<title>Node2</title>
<g id="a_node2"><a xlink:href="channel_8h.html" target="_top" xlink:title=" ">
<polygon fill="none" stroke="black" points="1081.5,-112.5 1081.5,-131.5 1145.5,-131.5 1145.5,-112.5 1081.5,-112.5"/>
<text text-anchor="middle" x="1113.5" y="-119.5" font-family="Helvetica,sans-Serif" font-size="10.00">channel.h</text>
</a>
</g>
</g>
<!-- Node1&#45;&gt;Node2 -->
<g id="edge1" class="edge">
<title>Node1&#45;&gt;Node2</title>
<path fill="none" stroke="midnightblue" d="M1171.56,-224.37C1161.21,-206.3 1137.08,-164.18 1123.41,-140.31"/>
<polygon fill="midnightblue" stroke="midnightblue" points="1126.43,-138.53 1118.42,-131.59 1120.35,-142.01 1126.43,-138.53"/>
</g>
<!-- Node10 -->
<g id="node10" class="node">
<title>Node10</title>
<g id="a_node10"><a xlink:title=" ">
<polygon fill="none" stroke="#bfbfbf" points="1077.5,-168.5 1077.5,-187.5 1129.5,-187.5 1129.5,-168.5 1077.5,-168.5"/>
<text text-anchor="middle" x="1103.5" y="-175.5" font-family="Helvetica,sans-Serif" font-size="10.00">cassert</text>
</a>
</g>
</g>
<!-- Node1&#45;&gt;Node10 -->
<g id="edge9" class="edge">
<title>Node1&#45;&gt;Node10</title>
<path fill="none" stroke="midnightblue" d="M1164.77,-224.32C1153.66,-216.11 1136.76,-203.6 1123.52,-193.81"/>
<polygon fill="midnightblue" stroke="midnightblue" points="1125.56,-190.97 1115.44,-187.83 1121.4,-196.59 1125.56,-190.97"/>
</g>
<!-- Node11 -->
<g id="node11" class="node">
<title>Node11</title>
<g id="a_node11"><a xlink:href="cache_8h.html" target="_top" xlink:title=" ">
<polygon fill="none" stroke="black" points="679.5,-168.5 679.5,-187.5 733.5,-187.5 733.5,-168.5 679.5,-168.5"/>
<text text-anchor="middle" x="706.5" y="-175.5" font-family="Helvetica,sans-Serif" font-size="10.00">cache.h</text>
</a>
</g>
</g>
<!-- Node1&#45;&gt;Node11 -->
<g id="edge10" class="edge">
<title>Node1&#45;&gt;Node11</title>
<path fill="none" stroke="midnightblue" d="M1133.13,-228.02C1041.5,-217.49 829.63,-193.15 743.7,-183.27"/>
<polygon fill="midnightblue" stroke="midnightblue" points="743.96,-179.78 733.63,-182.12 743.16,-186.74 743.96,-179.78"/>
</g>
<!-- Node16 -->
<g id="node16" class="node">
<title>Node16</title>
<g id="a_node16"><a xlink:href="champsim_8h.html" target="_top" xlink:title=" ">
<polygon fill="none" stroke="black" points="1358,-112.5 1358,-131.5 1435,-131.5 1435,-112.5 1358,-112.5"/>
<text text-anchor="middle" x="1396.5" y="-119.5" font-family="Helvetica,sans-Serif" font-size="10.00">champsim.h</text>
</a>
</g>
</g>
<!-- Node1&#45;&gt;Node16 -->
<g id="edge28" class="edge">
<title>Node1&#45;&gt;Node16</title>
<path fill="none" stroke="midnightblue" d="M1184.52,-224.14C1197.51,-210.28 1224.54,-183.46 1252.5,-168 1282.33,-151.5 1319.05,-140.15 1347.94,-132.97"/>
<polygon fill="midnightblue" stroke="midnightblue" points="1348.9,-136.34 1357.81,-130.6 1347.27,-129.53 1348.9,-136.34"/>
</g>
<!-- Node24 -->
<g id="node24" class="node">
<title>Node24</title>
<g id="a_node24"><a xlink:href="instruction_8h.html" target="_top" xlink:title=" ">
<polygon fill="none" stroke="black" points="1202,-112.5 1202,-131.5 1279,-131.5 1279,-112.5 1202,-112.5"/>
<text text-anchor="middle" x="1240.5" y="-119.5" font-family="Helvetica,sans-Serif" font-size="10.00">instruction.h</text>
</a>
</g>
</g>
<!-- Node1&#45;&gt;Node24 -->
<g id="edge29" class="edge">
<title>Node1&#45;&gt;Node24</title>
<path fill="none" stroke="midnightblue" d="M1181.52,-224.37C1192.04,-206.3 1216.54,-164.18 1230.43,-140.31"/>
<polygon fill="midnightblue" stroke="midnightblue" points="1233.5,-142 1235.5,-131.59 1227.45,-138.47 1233.5,-142"/>
</g>
<!-- Node27 -->
<g id="node27" class="node">
<title>Node27</title>
<g id="a_node27"><a xlink:title=" ">
<polygon fill="none" stroke="#bfbfbf" points="1262,-168.5 1262,-187.5 1329,-187.5 1329,-168.5 1262,-168.5"/>
<text text-anchor="middle" x="1295.5" y="-175.5" font-family="Helvetica,sans-Serif" font-size="10.00">fmt/core.h</text>
</a>
</g>
</g>
<!-- Node1&#45;&gt;Node27 -->
<g id="edge38" class="edge">
<title>Node1&#45;&gt;Node27</title>
<path fill="none" stroke="midnightblue" d="M1195.36,-224.44C1214.77,-215.64 1245.23,-201.81 1267.46,-191.72"/>
<polygon fill="midnightblue" stroke="midnightblue" points="1269.07,-194.84 1276.73,-187.52 1266.18,-188.46 1269.07,-194.84"/>
</g>
<!-- Node3 -->
<g id="node3" class="node">
<title>Node3</title>
<g id="a_node3"><a xlink:title=" ">
<polygon fill="none" stroke="#bfbfbf" points="978.5,-56.5 978.5,-75.5 1020.5,-75.5 1020.5,-56.5 978.5,-56.5"/>
<text text-anchor="middle" x="999.5" y="-63.5" font-family="Helvetica,sans-Serif" font-size="10.00">array</text>
</a>
</g>
</g>
<!-- Node2&#45;&gt;Node3 -->
<g id="edge2" class="edge">
<title>Node2&#45;&gt;Node3</title>
<path fill="none" stroke="midnightblue" d="M1095.44,-112.44C1076.93,-103.68 1047.92,-89.94 1026.64,-79.86"/>
<polygon fill="midnightblue" stroke="midnightblue" points="1028.01,-76.63 1017.48,-75.52 1025.02,-82.96 1028.01,-76.63"/>
</g>
<!-- Node4 -->
<g id="node4" class="node">
<title>Node4</title>
<g id="a_node4"><a xlink:title=" ">
<polygon fill="none" stroke="#bfbfbf" points="1432.5,-56.5 1432.5,-75.5 1482.5,-75.5 1482.5,-56.5 1432.5,-56.5"/>
<text text-anchor="middle" x="1457.5" y="-63.5" font-family="Helvetica,sans-Serif" font-size="10.00">cstdint</text>
</a>
</g>
</g>
<!-- Node2&#45;&gt;Node4 -->
<g id="edge3" class="edge">
<title>Node2&#45;&gt;Node4</title>
<path fill="none" stroke="midnightblue" d="M1145.65,-116.81C1210.3,-108.31 1354.97,-88.9 1422.22,-76.02"/>
<polygon fill="midnightblue" stroke="midnightblue" points="1423.2,-79.39 1432.32,-74.01 1421.83,-72.52 1423.2,-79.39"/>
</g>
<!-- Node5 -->
<g id="node5" class="node">
<title>Node5</title>
<g id="a_node5"><a xlink:title=" ">
<polygon fill="none" stroke="#bfbfbf" points="672,-56.5 672,-75.5 719,-75.5 719,-56.5 672,-56.5"/>
<text text-anchor="middle" x="695.5" y="-63.5" font-family="Helvetica,sans-Serif" font-size="10.00">deque</text>
</a>
</g>
</g>
<!-- Node2&#45;&gt;Node5 -->
<g id="edge4" class="edge">
<title>Node2&#45;&gt;Node5</title>
<path fill="none" stroke="midnightblue" d="M1081.45,-113.82C1078.1,-113.16 1074.74,-112.54 1071.5,-112 946.18,-91.12 795.81,-76.12 729.62,-70.02"/>
<polygon fill="midnightblue" stroke="midnightblue" points="729.64,-66.51 719.36,-69.09 729,-73.48 729.64,-66.51"/>
</g>
<!-- Node6 -->
<g id="node6" class="node">
<title>Node6</title>
<g id="a_node6"><a xlink:title=" ">
<polygon fill="none" stroke="#bfbfbf" points="1104,-56.5 1104,-75.5 1169,-75.5 1169,-56.5 1104,-56.5"/>
<text text-anchor="middle" x="1136.5" y="-63.5" font-family="Helvetica,sans-Serif" font-size="10.00">functional</text>
</a>
</g>
</g>
<!-- Node2&#45;&gt;Node6 -->
<g id="edge5" class="edge">
<title>Node2&#45;&gt;Node6</title>
<path fill="none" stroke="midnightblue" d="M1117.3,-112.08C1120.41,-104.77 1124.92,-94.18 1128.79,-85.1"/>
<polygon fill="midnightblue" stroke="midnightblue" points="1132.07,-86.32 1132.77,-75.75 1125.63,-83.58 1132.07,-86.32"/>
</g>
<!-- Node7 -->
<g id="node7" class="node">
<title>Node7</title>
<g id="a_node7"><a xlink:title=" ">
<polygon fill="none" stroke="#bfbfbf" points="1218.5,-0.5 1218.5,-19.5 1262.5,-19.5 1262.5,-0.5 1218.5,-0.5"/>
<text text-anchor="middle" x="1240.5" y="-7.5" font-family="Helvetica,sans-Serif" font-size="10.00">limits</text>
</a>
</g>
</g>
<!-- Node2&#45;&gt;Node7 -->
<g id="edge6" class="edge">
<title>Node2&#45;&gt;Node7</title>
<path fill="none" stroke="midnightblue" d="M1081.41,-113.11C1041.09,-102.87 976.29,-85.23 969.5,-76 964.23,-68.84 963.75,-62.78 969.5,-56 999.81,-20.24 1143.34,-12.87 1208.35,-11.37"/>
<polygon fill="midnightblue" stroke="midnightblue" points="1208.52,-14.87 1218.45,-11.17 1208.38,-7.87 1208.52,-14.87"/>
</g>
<!-- Node8 -->
<g id="node8" class="node">
<title>Node8</title>
<g id="a_node8"><a xlink:title=" ">
<polygon fill="none" stroke="#bfbfbf" points="1039,-56.5 1039,-75.5 1086,-75.5 1086,-56.5 1039,-56.5"/>
<text text-anchor="middle" x="1062.5" y="-63.5" font-family="Helvetica,sans-Serif" font-size="10.00">vector</text>
</a>
</g>
</g>
<!-- Node2&#45;&gt;Node8 -->
<g id="edge7" class="edge">
<title>Node2&#45;&gt;Node8</title>
<path fill="none" stroke="midnightblue" d="M1105.08,-112.08C1097.65,-104.22 1086.65,-92.57 1077.69,-83.08"/>
<polygon fill="midnightblue" stroke="midnightblue" points="1080.18,-80.62 1070.76,-75.75 1075.09,-85.42 1080.18,-80.62"/>
</g>
<!-- Node9 -->
<g id="node9" class="node">
<title>Node9</title>
<g id="a_node9"><a xlink:title=" ">
<polygon fill="none" stroke="#bfbfbf" points="849,-56.5 849,-75.5 922,-75.5 922,-56.5 849,-56.5"/>
<text text-anchor="middle" x="885.5" y="-63.5" font-family="Helvetica,sans-Serif" font-size="10.00">string_view</text>
</a>
</g>
</g>
<!-- Node2&#45;&gt;Node9 -->
<g id="edge8" class="edge">
<title>Node2&#45;&gt;Node9</title>
<path fill="none" stroke="midnightblue" d="M1081.32,-113.38C1042.26,-104.13 976.11,-88.46 931.63,-77.93"/>
<polygon fill="midnightblue" stroke="midnightblue" points="932.2,-74.46 921.66,-75.56 930.58,-81.27 932.2,-74.46"/>
</g>
<!-- Node11&#45;&gt;Node2 -->
<g id="edge22" class="edge">
<title>Node11&#45;&gt;Node2</title>
<path fill="none" stroke="midnightblue" d="M733.63,-174.48C794.39,-168.67 945.89,-153.16 1071.5,-132 1071.6,-131.98 1071.7,-131.97 1071.8,-131.95"/>
<polygon fill="midnightblue" stroke="midnightblue" points="1072.25,-135.43 1081.45,-130.17 1070.98,-128.54 1072.25,-135.43"/>
</g>
<!-- Node11&#45;&gt;Node3 -->
<g id="edge11" class="edge">
<title>Node11&#45;&gt;Node3</title>
<path fill="none" stroke="midnightblue" d="M686.14,-168.34C660.42,-156.24 621.65,-133.33 640.5,-112 683.5,-63.33 866.08,-84.2 930.5,-76 942.79,-74.44 956.32,-72.68 968.11,-71.14"/>
<polygon fill="midnightblue" stroke="midnightblue" points="968.91,-74.56 978.37,-69.79 967.99,-67.62 968.91,-74.56"/>
</g>
<!-- Node11&#45;&gt;Node5 -->
<g id="edge13" class="edge">
<title>Node11&#45;&gt;Node5</title>
<path fill="none" stroke="midnightblue" d="M679.37,-172.9C655.87,-167.76 623.24,-156.45 607.5,-132 590.8,-106.06 630.71,-86.87 662.13,-76.31"/>
<polygon fill="midnightblue" stroke="midnightblue" points="663.48,-79.55 671.94,-73.18 661.35,-72.88 663.48,-79.55"/>
</g>
<!-- Node11&#45;&gt;Node8 -->
<g id="edge17" class="edge">
<title>Node11&#45;&gt;Node8</title>
<path fill="none" stroke="midnightblue" d="M733.82,-176.34C826.71,-173.82 1126.18,-163.3 1154.5,-132 1160.46,-125.41 1159.21,-119.54 1154.5,-112 1147.67,-101.06 1119.06,-88.08 1095.53,-78.87"/>
<polygon fill="midnightblue" stroke="midnightblue" points="1096.76,-75.59 1086.17,-75.3 1094.26,-82.13 1096.76,-75.59"/>
</g>
<!-- Node12 -->
<g id="node12" class="node">
<title>Node12</title>
<g id="a_node12"><a xlink:title=" ">
<polygon fill="none" stroke="#bfbfbf" points="649.5,-112.5 649.5,-131.5 693.5,-131.5 693.5,-112.5 649.5,-112.5"/>
<text text-anchor="middle" x="671.5" y="-119.5" font-family="Helvetica,sans-Serif" font-size="10.00">bitset</text>
</a>
</g>
</g>
<!-- Node11&#45;&gt;Node12 -->
<g id="edge12" class="edge">
<title>Node11&#45;&gt;Node12</title>
<path fill="none" stroke="midnightblue" d="M700.72,-168.08C695.83,-160.53 688.67,-149.49 682.67,-140.23"/>
<polygon fill="midnightblue" stroke="midnightblue" points="685.55,-138.24 677.17,-131.75 679.67,-142.05 685.55,-138.24"/>
</g>
<!-- Node13 -->
<g id="node13" class="node">
<title>Node13</title>
<g id="a_node13"><a xlink:title=" ">
<polygon fill="none" stroke="#bfbfbf" points="711.5,-112.5 711.5,-131.5 769.5,-131.5 769.5,-112.5 711.5,-112.5"/>
<text text-anchor="middle" x="740.5" y="-119.5" font-family="Helvetica,sans-Serif" font-size="10.00">memory</text>
</a>
</g>
</g>
<!-- Node11&#45;&gt;Node13 -->
<g id="edge14" class="edge">
<title>Node11&#45;&gt;Node13</title>
<path fill="none" stroke="midnightblue" d="M712.11,-168.08C716.87,-160.53 723.82,-149.49 729.65,-140.23"/>
<polygon fill="midnightblue" stroke="midnightblue" points="732.62,-142.08 734.99,-131.75 726.7,-138.35 732.62,-142.08"/>
</g>
<!-- Node14 -->
<g id="node14" class="node">
<title>Node14</title>
<g id="a_node14"><a xlink:title=" ">
<polygon fill="none" stroke="#bfbfbf" points="788,-112.5 788,-131.5 853,-131.5 853,-112.5 788,-112.5"/>
<text text-anchor="middle" x="820.5" y="-119.5" font-family="Helvetica,sans-Serif" font-size="10.00">stdexcept</text>
</a>
</g>
</g>
<!-- Node11&#45;&gt;Node14 -->
<g id="edge15" class="edge">
<title>Node11&#45;&gt;Node14</title>
<path fill="none" stroke="midnightblue" d="M724.56,-168.44C743.07,-159.68 772.08,-145.94 793.36,-135.86"/>
<polygon fill="midnightblue" stroke="midnightblue" points="794.98,-138.96 802.52,-131.52 791.99,-132.63 794.98,-138.96"/>
</g>
<!-- Node15 -->
<g id="node15" class="node">
<title>Node15</title>
<g id="a_node15"><a xlink:title=" ">
<polygon fill="none" stroke="#bfbfbf" points="871.5,-112.5 871.5,-131.5 915.5,-131.5 915.5,-112.5 871.5,-112.5"/>
<text text-anchor="middle" x="893.5" y="-119.5" font-family="Helvetica,sans-Serif" font-size="10.00">string</text>
</a>
</g>
</g>
<!-- Node11&#45;&gt;Node15 -->
<g id="edge16" class="edge">
<title>Node11&#45;&gt;Node15</title>
<path fill="none" stroke="midnightblue" d="M733.69,-169.15C767.53,-159.38 825.23,-142.71 861.26,-132.31"/>
<polygon fill="midnightblue" stroke="midnightblue" points="862.62,-135.56 871.25,-129.42 860.67,-128.84 862.62,-135.56"/>
</g>
<!-- Node11&#45;&gt;Node16 -->
<g id="edge18" class="edge">
<title>Node11&#45;&gt;Node16</title>
<path fill="none" stroke="midnightblue" d="M733.73,-174.94C816.78,-168.65 1074.21,-149.07 1287.5,-132 1307.22,-130.42 1328.95,-128.64 1347.78,-127.08"/>
<polygon fill="midnightblue" stroke="midnightblue" points="1348.24,-130.55 1357.91,-126.23 1347.66,-123.57 1348.24,-130.55"/>
</g>
<!-- Node18 -->
<g id="node18" class="node">
<title>Node18</title>
<g id="a_node18"><a xlink:title=" ">
<polygon fill="none" stroke="#bfbfbf" points="934,-112.5 934,-131.5 1063,-131.5 1063,-112.5 934,-112.5"/>
<text text-anchor="middle" x="998.5" y="-119.5" font-family="Helvetica,sans-Serif" font-size="10.00">champsim_constants.h</text>
</a>
</g>
</g>
<!-- Node11&#45;&gt;Node18 -->
<g id="edge21" class="edge">
<title>Node11&#45;&gt;Node18</title>
<path fill="none" stroke="midnightblue" d="M733.71,-171.97C781.12,-163.2 879.78,-144.96 942.37,-133.38"/>
<polygon fill="midnightblue" stroke="midnightblue" points="943.28,-136.77 952.47,-131.51 942,-129.89 943.28,-136.77"/>
</g>
<!-- Node19 -->
<g id="node19" class="node">
<title>Node19</title>
<g id="a_node19"><a xlink:href="module__impl_8h.html" target="_top" xlink:title=" ">
<polygon fill="none" stroke="black" points="0,-112.5 0,-131.5 89,-131.5 89,-112.5 0,-112.5"/>
<text text-anchor="middle" x="44.5" y="-119.5" font-family="Helvetica,sans-Serif" font-size="10.00">module_impl.h</text>
</a>
</g>
</g>
<!-- Node11&#45;&gt;Node19 -->
<g id="edge23" class="edge">
<title>Node11&#45;&gt;Node19</title>
<path fill="none" stroke="midnightblue" d="M679.45,-175.88C595.21,-172.21 330,-159.24 99.5,-132"/>
<polygon fill="midnightblue" stroke="midnightblue" points="99.59,-128.49 89.24,-130.78 98.76,-135.44 99.59,-128.49"/>
</g>
<!-- Node20 -->
<g id="node20" class="node">
<title>Node20</title>
<g id="a_node20"><a xlink:href="operable_8h.html" target="_top" xlink:title=" ">
<polygon fill="none" stroke="black" points="107.5,-112.5 107.5,-131.5 175.5,-131.5 175.5,-112.5 107.5,-112.5"/>
<text text-anchor="middle" x="141.5" y="-119.5" font-family="Helvetica,sans-Serif" font-size="10.00">operable.h</text>
</a>
</g>
</g>
<!-- Node11&#45;&gt;Node20 -->
<g id="edge24" class="edge">
<title>Node11&#45;&gt;Node20</title>
<path fill="none" stroke="midnightblue" d="M679.47,-175.82C603.36,-172.25 380.6,-160.14 185.83,-132.03"/>
<polygon fill="midnightblue" stroke="midnightblue" points="186.1,-128.53 175.7,-130.55 185.09,-135.46 186.1,-128.53"/>
</g>
<!-- Node21 -->
<g id="node21" class="node">
<title>Node21</title>
<g id="a_node21"><a xlink:title=" ">
<polygon fill="none" stroke="#bfbfbf" points="194,-112.5 194,-131.5 263,-131.5 263,-112.5 194,-112.5"/>
<text text-anchor="middle" x="228.5" y="-119.5" font-family="Helvetica,sans-Serif" font-size="10.00">type_traits</text>
</a>
</g>
</g>
<!-- Node11&#45;&gt;Node21 -->
<g id="edge25" class="edge">
<title>Node11&#45;&gt;Node21</title>
<path fill="none" stroke="midnightblue" d="M679.46,-175.13C612.45,-170.29 433.17,-156.14 273.06,-131.93"/>
<polygon fill="midnightblue" stroke="midnightblue" points="273.44,-128.45 263.03,-130.4 272.39,-135.37 273.44,-128.45"/>
</g>
<!-- Node22 -->
<g id="node22" class="node">
<title>Node22</title>
<g id="a_node22"><a xlink:title=" ">
<polygon fill="none" stroke="#bfbfbf" points="281.5,-112.5 281.5,-131.5 411.5,-131.5 411.5,-112.5 281.5,-112.5"/>
<text text-anchor="middle" x="346.5" y="-119.5" font-family="Helvetica,sans-Serif" font-size="10.00">cache_module_decl.inc</text>
</a>
</g>
</g>
<!-- Node11&#45;&gt;Node22 -->
<g id="edge26" class="edge">
<title>Node11&#45;&gt;Node22</title>
<path fill="none" stroke="midnightblue" d="M679.44,-172.94C623.38,-164.53 493.12,-144.99 413.16,-133"/>
<polygon fill="midnightblue" stroke="midnightblue" points="413.59,-129.52 403.18,-131.5 412.55,-136.45 413.59,-129.52"/>
</g>
<!-- Node23 -->
<g id="node23" class="node">
<title>Node23</title>
<g id="a_node23"><a xlink:title=" ">
<polygon fill="none" stroke="#bfbfbf" points="430,-112.5 430,-131.5 555,-131.5 555,-112.5 430,-112.5"/>
<text text-anchor="middle" x="492.5" y="-119.5" font-family="Helvetica,sans-Serif" font-size="10.00">cache_module_def.inc</text>
</a>
</g>
</g>
<!-- Node11&#45;&gt;Node23 -->
<g id="edge27" class="edge">
<title>Node11&#45;&gt;Node23</title>
<path fill="none" stroke="midnightblue" d="M679.4,-170.16C643.37,-161.07 579.27,-144.9 536.32,-134.06"/>
<polygon fill="midnightblue" stroke="midnightblue" points="536.98,-130.61 526.43,-131.56 535.27,-137.4 536.98,-130.61"/>
</g>
<!-- Node16&#45;&gt;Node4 -->
<g id="edge19" class="edge">
<title>Node16&#45;&gt;Node4</title>
<path fill="none" stroke="midnightblue" d="M1406.3,-112.32C1415.32,-104.34 1428.91,-92.31 1439.82,-82.65"/>
<polygon fill="midnightblue" stroke="midnightblue" points="1442.35,-85.08 1447.52,-75.83 1437.71,-79.84 1442.35,-85.08"/>
</g>
<!-- Node17 -->
<g id="node17" class="node">
<title>Node17</title>
<g id="a_node17"><a xlink:title=" ">
<polygon fill="none" stroke="#bfbfbf" points="1501,-56.5 1501,-75.5 1566,-75.5 1566,-56.5 1501,-56.5"/>
<text text-anchor="middle" x="1533.5" y="-63.5" font-family="Helvetica,sans-Serif" font-size="10.00">exception</text>
</a>
</g>
</g>
<!-- Node16&#45;&gt;Node17 -->
<g id="edge20" class="edge">
<title>Node16&#45;&gt;Node17</title>
<path fill="none" stroke="midnightblue" d="M1418.21,-112.44C1440.85,-103.52 1476.57,-89.44 1502.25,-79.32"/>
<polygon fill="midnightblue" stroke="midnightblue" points="1503.87,-82.44 1511.89,-75.52 1501.31,-75.93 1503.87,-82.44"/>
</g>
<!-- Node24&#45;&gt;Node3 -->
<g id="edge31" class="edge">
<title>Node24&#45;&gt;Node3</title>
<path fill="none" stroke="midnightblue" d="M1201.78,-113.72C1161.36,-105.91 1095.97,-92.67 1030.78,-76.17"/>
<polygon fill="midnightblue" stroke="midnightblue" points="1031.3,-72.69 1020.75,-73.61 1029.57,-79.47 1031.3,-72.69"/>
</g>
<!-- Node24&#45;&gt;Node4 -->
<g id="edge32" class="edge">
<title>Node24&#45;&gt;Node4</title>
<path fill="none" stroke="midnightblue" d="M1275.97,-112.47C1310.85,-104.05 1365.87,-90.64 1422.43,-76.24"/>
<polygon fill="midnightblue" stroke="midnightblue" points="1423.44,-79.6 1432.26,-73.73 1421.71,-72.81 1423.44,-79.6"/>
</g>
<!-- Node24&#45;&gt;Node6 -->
<g id="edge33" class="edge">
<title>Node24&#45;&gt;Node6</title>
<path fill="none" stroke="midnightblue" d="M1223.79,-112.32C1207.19,-103.7 1181.5,-90.36 1162.28,-80.39"/>
<polygon fill="midnightblue" stroke="midnightblue" points="1163.66,-77.16 1153.17,-75.65 1160.43,-83.37 1163.66,-77.16"/>
</g>
<!-- Node24&#45;&gt;Node7 -->
<g id="edge34" class="edge">
<title>Node24&#45;&gt;Node7</title>
<path fill="none" stroke="midnightblue" d="M1260.08,-112.32C1282.51,-101.02 1314.68,-79.9 1302.5,-56 1295.5,-42.27 1282.13,-31.75 1269.6,-24.35"/>
<polygon fill="midnightblue" stroke="midnightblue" points="1271.18,-21.22 1260.72,-19.51 1267.83,-27.37 1271.18,-21.22"/>
</g>
<!-- Node24&#45;&gt;Node8 -->
<g id="edge35" class="edge">
<title>Node24&#45;&gt;Node8</title>
<path fill="none" stroke="midnightblue" d="M1212.3,-112.44C1180.67,-102.85 1129.42,-87.3 1095.84,-77.11"/>
<polygon fill="midnightblue" stroke="midnightblue" points="1096.61,-73.69 1086.03,-74.14 1094.58,-80.39 1096.61,-73.69"/>
</g>
<!-- Node25 -->
<g id="node25" class="node">
<title>Node25</title>
<g id="a_node25"><a xlink:title=" ">
<polygon fill="none" stroke="#bfbfbf" points="1350.5,-56.5 1350.5,-75.5 1414.5,-75.5 1414.5,-56.5 1350.5,-56.5"/>
<text text-anchor="middle" x="1382.5" y="-63.5" font-family="Helvetica,sans-Serif" font-size="10.00">algorithm</text>
</a>
</g>
</g>
<!-- Node24&#45;&gt;Node25 -->
<g id="edge30" class="edge">
<title>Node24&#45;&gt;Node25</title>
<path fill="none" stroke="midnightblue" d="M1263,-112.44C1286.58,-103.48 1323.82,-89.31 1350.46,-79.18"/>
<polygon fill="midnightblue" stroke="midnightblue" points="1352,-82.34 1360.1,-75.52 1349.51,-75.8 1352,-82.34"/>
</g>
<!-- Node26 -->
<g id="node26" class="node">
<title>Node26</title>
<g id="a_node26"><a xlink:href="trace__instruction_8h.html" target="_top" xlink:title=" ">
<polygon fill="none" stroke="black" points="1187,-56.5 1187,-75.5 1294,-75.5 1294,-56.5 1187,-56.5"/>
<text text-anchor="middle" x="1240.5" y="-63.5" font-family="Helvetica,sans-Serif" font-size="10.00">trace_instruction.h</text>
</a>
</g>
</g>
<!-- Node24&#45;&gt;Node26 -->
<g id="edge36" class="edge">
<title>Node24&#45;&gt;Node26</title>
<path fill="none" stroke="midnightblue" d="M1240.5,-112.08C1240.5,-105.01 1240.5,-94.86 1240.5,-85.99"/>
<polygon fill="midnightblue" stroke="midnightblue" points="1244,-85.75 1240.5,-75.75 1237,-85.75 1244,-85.75"/>
</g>
<!-- Node26&#45;&gt;Node7 -->
<g id="edge37" class="edge">
<title>Node26&#45;&gt;Node7</title>
<path fill="none" stroke="midnightblue" d="M1240.5,-56.08C1240.5,-49.01 1240.5,-38.86 1240.5,-29.99"/>
<polygon fill="midnightblue" stroke="midnightblue" points="1244,-29.75 1240.5,-19.75 1237,-29.75 1244,-29.75"/>
</g>
</g>
</svg>
