<?xml version="1.0" encoding="UTF-8" standalone="no"?>
<!DOCTYPE svg PUBLIC "-//W3C//DTD SVG 1.1//EN"
 "http://www.w3.org/Graphics/SVG/1.1/DTD/svg11.dtd">
<!-- Generated by graphviz version 2.43.0 (0)
 -->
<!-- Title: O3_CPU::Builder&lt; B_FLAG, T_FLAG &gt; Pages: 1 -->
<svg width="404pt" height="275pt"
 viewBox="0.00 0.00 404.00 275.00" xmlns="http://www.w3.org/2000/svg" xmlns:xlink="http://www.w3.org/1999/xlink">
<g id="graph0" class="graph" transform="scale(1 1) rotate(0) translate(4 271)">
<title>O3_CPU::Builder&lt; B_FLAG, T_FLAG &gt;</title>
<!-- Node1 -->
<g id="node1" class="node">
<title>Node1</title>
<g id="a_node1"><a xlink:title=" ">
<polygon fill="#bfbfbf" stroke="black" points="231,-0.5 231,-30.5 345,-30.5 345,-0.5 231,-0.5"/>
<text text-anchor="start" x="239" y="-18.5" font-family="Helvetica,sans-Serif" font-size="10.00">O3_CPU::Builder&lt; B</text>
<text text-anchor="middle" x="288" y="-7.5" font-family="Helvetica,sans-Serif" font-size="10.00">_FLAG, T_FLAG &gt;</text>
</a>
</g>
</g>
<!-- Node2 -->
<g id="node2" class="node">
<title>Node2</title>
<g id="a_node2"><a xlink:href="classchampsim_1_1channel.html" target="_top" xlink:title=" ">
<polygon fill="none" stroke="black" points="252,-158.5 252,-177.5 364,-177.5 364,-158.5 252,-158.5"/>
<text text-anchor="middle" x="308" y="-165.5" font-family="Helvetica,sans-Serif" font-size="10.00">champsim::channel</text>
</a>
</g>
</g>
<!-- Node2&#45;&gt;Node1 -->
<g id="edge1" class="edge">
<title>Node2&#45;&gt;Node1</title>
<path fill="none" stroke="#9a32cd" stroke-dasharray="5,2" d="M316.44,-149C317.5,-146.05 318.42,-142.98 319,-140 320.88,-130.4 320.44,-127.67 319,-118 314.21,-85.93 301.35,-49.98 293.79,-30.64"/>
<polygon fill="#9a32cd" stroke="#9a32cd" points="313.2,-147.69 312.57,-158.27 319.65,-150.39 313.2,-147.69"/>
<text text-anchor="middle" x="355.5" y="-92" font-family="Helvetica,sans-Serif" font-size="10.00"> m_data_queues</text>
<text text-anchor="middle" x="355.5" y="-81" font-family="Helvetica,sans-Serif" font-size="10.00">m_fetch_queues</text>
</g>
<!-- Node4 -->
<g id="node4" class="node">
<title>Node4</title>
<g id="a_node4"><a xlink:href="classCACHE.html" target="_top" xlink:title=" ">
<polygon fill="none" stroke="black" points="182,-79.5 182,-98.5 232,-98.5 232,-79.5 182,-79.5"/>
<text text-anchor="middle" x="207" y="-86.5" font-family="Helvetica,sans-Serif" font-size="10.00">CACHE</text>
</a>
</g>
</g>
<!-- Node2&#45;&gt;Node4 -->
<g id="edge6" class="edge">
<title>Node2&#45;&gt;Node4</title>
<path fill="none" stroke="#9a32cd" stroke-dasharray="5,2" d="M268.46,-154.66C259.55,-150.81 250.52,-145.96 243,-140 228.41,-128.44 217.02,-109.49 211.23,-98.55"/>
<polygon fill="#9a32cd" stroke="#9a32cd" points="267.4,-158.01 277.99,-158.46 269.99,-151.51 267.4,-158.01"/>
<text text-anchor="middle" x="281" y="-132" font-family="Helvetica,sans-Serif" font-size="10.00"> lower_level</text>
<text text-anchor="middle" x="281" y="-121" font-family="Helvetica,sans-Serif" font-size="10.00">lower_translate</text>
</g>
<!-- Node3 -->
<g id="node3" class="node">
<title>Node3</title>
<g id="a_node3"><a xlink:href="structchampsim_1_1cache__queue__stats.html" target="_top" xlink:title=" ">
<polygon fill="none" stroke="black" points="239.5,-236.5 239.5,-266.5 376.5,-266.5 376.5,-236.5 239.5,-236.5"/>
<text text-anchor="start" x="247.5" y="-254.5" font-family="Helvetica,sans-Serif" font-size="10.00">champsim::cache_queue</text>
<text text-anchor="middle" x="308" y="-243.5" font-family="Helvetica,sans-Serif" font-size="10.00">_stats</text>
</a>
</g>
</g>
<!-- Node3&#45;&gt;Node2 -->
<g id="edge2" class="edge">
<title>Node3&#45;&gt;Node2</title>
<path fill="none" stroke="#9a32cd" stroke-dasharray="5,2" d="M308,-226.25C308,-209.78 308,-188.99 308,-177.54"/>
<polygon fill="#9a32cd" stroke="#9a32cd" points="304.5,-226.3 308,-236.3 311.5,-226.3 304.5,-226.3"/>
<text text-anchor="middle" x="332" y="-210" font-family="Helvetica,sans-Serif" font-size="10.00"> roi_stats</text>
<text text-anchor="middle" x="332" y="-199" font-family="Helvetica,sans-Serif" font-size="10.00">sim_stats</text>
</g>
<!-- Node4&#45;&gt;Node1 -->
<g id="edge3" class="edge">
<title>Node4&#45;&gt;Node1</title>
<path fill="none" stroke="#9a32cd" stroke-dasharray="5,2" d="M224.53,-72.52C238.69,-60.03 258.44,-42.6 272.13,-30.51"/>
<polygon fill="#9a32cd" stroke="#9a32cd" points="222.11,-69.99 216.93,-79.23 226.75,-75.24 222.11,-69.99"/>
<text text-anchor="middle" x="264.5" y="-52" font-family="Helvetica,sans-Serif" font-size="10.00"> m_l1i</text>
</g>
<!-- Node5 -->
<g id="node5" class="node">
<title>Node5</title>
<g id="a_node5"><a xlink:href="classchampsim_1_1operable.html" target="_top" xlink:title=" ">
<polygon fill="none" stroke="black" points="0,-158.5 0,-177.5 116,-177.5 116,-158.5 0,-158.5"/>
<text text-anchor="middle" x="58" y="-165.5" font-family="Helvetica,sans-Serif" font-size="10.00">champsim::operable</text>
</a>
</g>
</g>
<!-- Node5&#45;&gt;Node4 -->
<g id="edge4" class="edge">
<title>Node5&#45;&gt;Node4</title>
<path fill="none" stroke="midnightblue" d="M83.71,-153.72C114.31,-137.9 164.52,-111.95 190.41,-98.57"/>
<polygon fill="midnightblue" stroke="midnightblue" points="81.79,-150.77 74.51,-158.47 85.01,-156.98 81.79,-150.77"/>
</g>
<!-- Node6 -->
<g id="node6" class="node">
<title>Node6</title>
<g id="a_node6"><a xlink:href="structcache__stats.html" target="_top" xlink:title=" ">
<polygon fill="none" stroke="black" points="134,-158.5 134,-177.5 208,-177.5 208,-158.5 134,-158.5"/>
<text text-anchor="middle" x="171" y="-165.5" font-family="Helvetica,sans-Serif" font-size="10.00">cache_stats</text>
</a>
</g>
</g>
<!-- Node6&#45;&gt;Node4 -->
<g id="edge5" class="edge">
<title>Node6&#45;&gt;Node4</title>
<path fill="none" stroke="#9a32cd" stroke-dasharray="5,2" d="M167.74,-148.14C166.98,-138.64 167.46,-127.21 172,-118 175.99,-109.9 183.55,-103.4 190.63,-98.7"/>
<polygon fill="#9a32cd" stroke="#9a32cd" points="164.28,-148.69 169.03,-158.16 171.22,-147.79 164.28,-148.69"/>
<text text-anchor="middle" x="196" y="-132" font-family="Helvetica,sans-Serif" font-size="10.00"> roi_stats</text>
<text text-anchor="middle" x="196" y="-121" font-family="Helvetica,sans-Serif" font-size="10.00">sim_stats</text>
</g>
</g>
</svg>
