<?xml version="1.0" encoding="UTF-8" standalone="no"?>
<!DOCTYPE svg PUBLIC "-//W3C//DTD SVG 1.1//EN"
 "http://www.w3.org/Graphics/SVG/1.1/DTD/svg11.dtd">
<!-- Generated by graphviz version 2.43.0 (0)
 -->
<!-- Title: O3_CPU Pages: 1 -->
<svg width="716pt" height="247pt"
 viewBox="0.00 0.00 716.00 247.00" xmlns="http://www.w3.org/2000/svg" xmlns:xlink="http://www.w3.org/1999/xlink">
<g id="graph0" class="graph" transform="scale(1 1) rotate(0) translate(4 243)">
<title>O3_CPU</title>
<!-- Node1 -->
<g id="node1" class="node">
<title>Node1</title>
<g id="a_node1"><a xlink:title=" ">
<polygon fill="#bfbfbf" stroke="black" points="652,-98.5 652,-117.5 708,-117.5 708,-98.5 652,-98.5"/>
<text text-anchor="middle" x="680" y="-105.5" font-family="Helvetica,sans-Serif" font-size="10.00">O3_CPU</text>
</a>
</g>
</g>
<!-- Node2 -->
<g id="node2" class="node">
<title>Node2</title>
<g id="a_node2"><a xlink:href="classchampsim_1_1operable.html" target="_top" xlink:title=" ">
<polygon fill="none" stroke="black" points="221,-219.5 221,-238.5 337,-238.5 337,-219.5 221,-219.5"/>
<text text-anchor="middle" x="279" y="-226.5" font-family="Helvetica,sans-Serif" font-size="10.00">champsim::operable</text>
</a>
</g>
</g>
<!-- Node2&#45;&gt;Node1 -->
<g id="edge1" class="edge">
<title>Node2&#45;&gt;Node1</title>
<path fill="none" stroke="midnightblue" d="M347.39,-228.75C373.57,-228.02 403.76,-226.4 431,-223 492.76,-215.29 508.51,-212.3 568,-194 598.29,-184.68 608.84,-186.27 634,-167 652,-153.21 666.52,-130.5 673.84,-117.64"/>
<polygon fill="midnightblue" stroke="midnightblue" points="347.1,-225.26 337.19,-229 347.27,-232.26 347.1,-225.26"/>
</g>
<!-- Node9 -->
<g id="node9" class="node">
<title>Node9</title>
<g id="a_node9"><a xlink:href="classCACHE.html" target="_top" xlink:title=" ">
<polygon fill="none" stroke="black" points="483.5,-165.5 483.5,-184.5 533.5,-184.5 533.5,-165.5 483.5,-165.5"/>
<text text-anchor="middle" x="508.5" y="-172.5" font-family="Helvetica,sans-Serif" font-size="10.00">CACHE</text>
</a>
</g>
</g>
<!-- Node2&#45;&gt;Node9 -->
<g id="edge9" class="edge">
<title>Node2&#45;&gt;Node9</title>
<path fill="none" stroke="midnightblue" d="M347.02,-219.42C373.4,-215.02 403.83,-209.17 431,-202 448.98,-197.25 468.75,-190.22 483.69,-184.53"/>
<polygon fill="midnightblue" stroke="midnightblue" points="346.43,-215.97 337.12,-221.03 347.56,-222.87 346.43,-215.97"/>
</g>
<!-- Node3 -->
<g id="node3" class="node">
<title>Node3</title>
<g id="a_node3"><a xlink:href="classchampsim_1_1msl_1_1lru__table.html" target="_top" xlink:title=" ">
<polygon fill="none" stroke="black" points="449,-38.5 449,-79.5 568,-79.5 568,-38.5 449,-38.5"/>
<text text-anchor="start" x="457" y="-67.5" font-family="Helvetica,sans-Serif" font-size="10.00">champsim::msl::lru</text>
<text text-anchor="start" x="457" y="-56.5" font-family="Helvetica,sans-Serif" font-size="10.00">_table&lt; uint64_t, dib</text>
<text text-anchor="middle" x="508.5" y="-45.5" font-family="Helvetica,sans-Serif" font-size="10.00">_shift, dib_shift &gt;</text>
</a>
</g>
</g>
<!-- Node3&#45;&gt;Node1 -->
<g id="edge2" class="edge">
<title>Node3&#45;&gt;Node1</title>
<path fill="none" stroke="#9a32cd" stroke-dasharray="5,2" d="M577.97,-76.97C596.23,-81.96 615.91,-87.52 634,-93 639.83,-94.77 646.05,-96.77 651.95,-98.71"/>
<polygon fill="#9a32cd" stroke="#9a32cd" points="578.84,-73.58 568.28,-74.34 577.01,-80.34 578.84,-73.58"/>
<text text-anchor="middle" x="610" y="-96" font-family="Helvetica,sans-Serif" font-size="10.00"> DIB</text>
</g>
<!-- Node4 -->
<g id="node4" class="node">
<title>Node4</title>
<g id="a_node4"><a xlink:href="structO3__CPU_1_1dib__shift.html" target="_top" xlink:title=" ">
<polygon fill="none" stroke="black" points="227.5,-45.5 227.5,-64.5 330.5,-64.5 330.5,-45.5 227.5,-45.5"/>
<text text-anchor="middle" x="279" y="-52.5" font-family="Helvetica,sans-Serif" font-size="10.00">O3_CPU::dib_shift</text>
</a>
</g>
</g>
<!-- Node4&#45;&gt;Node3 -->
<g id="edge3" class="edge">
<title>Node4&#45;&gt;Node3</title>
<path fill="none" stroke="#9a32cd" stroke-dasharray="5,2" d="M340.95,-54.95C368.46,-55.05 401.37,-55.32 431,-56 436.71,-56.13 442.67,-56.3 448.62,-56.5"/>
<polygon fill="#9a32cd" stroke="#9a32cd" points="340.69,-51.45 330.68,-54.92 340.67,-58.45 340.69,-51.45"/>
<text text-anchor="middle" x="393" y="-70" font-family="Helvetica,sans-Serif" font-size="10.00"> set_projection</text>
<text text-anchor="middle" x="393" y="-59" font-family="Helvetica,sans-Serif" font-size="10.00">tag_projection</text>
</g>
<!-- Node5 -->
<g id="node5" class="node">
<title>Node5</title>
<g id="a_node5"><a xlink:href="structcpu__stats.html" target="_top" xlink:title=" ">
<polygon fill="none" stroke="black" points="477,-0.5 477,-19.5 540,-19.5 540,-0.5 477,-0.5"/>
<text text-anchor="middle" x="508.5" y="-7.5" font-family="Helvetica,sans-Serif" font-size="10.00">cpu_stats</text>
</a>
</g>
</g>
<!-- Node5&#45;&gt;Node1 -->
<g id="edge4" class="edge">
<title>Node5&#45;&gt;Node1</title>
<path fill="none" stroke="#9a32cd" stroke-dasharray="5,2" d="M549.99,-17.82C575.76,-24.22 608.89,-35.19 634,-53 651.31,-65.28 665.67,-85.88 673.24,-98.09"/>
<polygon fill="#9a32cd" stroke="#9a32cd" points="550.68,-14.39 540.15,-15.51 549.08,-21.2 550.68,-14.39"/>
<text text-anchor="middle" x="610" y="-67" font-family="Helvetica,sans-Serif" font-size="10.00"> roi_stats</text>
<text text-anchor="middle" x="610" y="-56" font-family="Helvetica,sans-Serif" font-size="10.00">sim_stats</text>
</g>
<!-- Node6 -->
<g id="node6" class="node">
<title>Node6</title>
<g id="a_node6"><a xlink:href="classCacheBus.html" target="_top" xlink:title=" ">
<polygon fill="none" stroke="black" points="476,-98.5 476,-117.5 541,-117.5 541,-98.5 476,-98.5"/>
<text text-anchor="middle" x="508.5" y="-105.5" font-family="Helvetica,sans-Serif" font-size="10.00">CacheBus</text>
</a>
</g>
</g>
<!-- Node6&#45;&gt;Node1 -->
<g id="edge5" class="edge">
<title>Node6&#45;&gt;Node1</title>
<path fill="none" stroke="#9a32cd" stroke-dasharray="5,2" d="M551.56,-108C582.86,-108 624.69,-108 651.74,-108"/>
<polygon fill="#9a32cd" stroke="#9a32cd" points="551.38,-104.5 541.38,-108 551.38,-111.5 551.38,-104.5"/>
<text text-anchor="middle" x="610" y="-122" font-family="Helvetica,sans-Serif" font-size="10.00"> L1D_bus</text>
<text text-anchor="middle" x="610" y="-111" font-family="Helvetica,sans-Serif" font-size="10.00">L1I_bus</text>
</g>
<!-- Node7 -->
<g id="node7" class="node">
<title>Node7</title>
<g id="a_node7"><a xlink:href="classchampsim_1_1channel.html" target="_top" xlink:title=" ">
<polygon fill="none" stroke="black" points="223,-107.5 223,-126.5 335,-126.5 335,-107.5 223,-107.5"/>
<text text-anchor="middle" x="279" y="-114.5" font-family="Helvetica,sans-Serif" font-size="10.00">champsim::channel</text>
</a>
</g>
</g>
<!-- Node7&#45;&gt;Node6 -->
<g id="edge6" class="edge">
<title>Node7&#45;&gt;Node6</title>
<path fill="none" stroke="#9a32cd" stroke-dasharray="5,2" d="M326.95,-105.41C336.2,-103.57 345.86,-101.96 355,-101 396.64,-96.61 444.97,-100.3 475.87,-103.78"/>
<polygon fill="#9a32cd" stroke="#9a32cd" points="326.21,-101.99 317.14,-107.46 327.64,-108.84 326.21,-101.99"/>
<text text-anchor="middle" x="393" y="-104" font-family="Helvetica,sans-Serif" font-size="10.00"> lower_level</text>
</g>
<!-- Node7&#45;&gt;Node9 -->
<g id="edge11" class="edge">
<title>Node7&#45;&gt;Node9</title>
<path fill="none" stroke="#9a32cd" stroke-dasharray="5,2" d="M339.62,-128.59C367.53,-134.38 401.14,-141.88 431,-150 448.66,-154.8 468.28,-161.24 483.23,-166.37"/>
<polygon fill="#9a32cd" stroke="#9a32cd" points="340.11,-125.11 329.61,-126.53 338.7,-131.97 340.11,-125.11"/>
<text text-anchor="middle" x="393" y="-164" font-family="Helvetica,sans-Serif" font-size="10.00"> lower_level</text>
<text text-anchor="middle" x="393" y="-153" font-family="Helvetica,sans-Serif" font-size="10.00">lower_translate</text>
</g>
<!-- Node8 -->
<g id="node8" class="node">
<title>Node8</title>
<g id="a_node8"><a xlink:href="structchampsim_1_1cache__queue__stats.html" target="_top" xlink:title=" ">
<polygon fill="none" stroke="black" points="0,-102 0,-132 137,-132 137,-102 0,-102"/>
<text text-anchor="start" x="8" y="-120" font-family="Helvetica,sans-Serif" font-size="10.00">champsim::cache_queue</text>
<text text-anchor="middle" x="68.5" y="-109" font-family="Helvetica,sans-Serif" font-size="10.00">_stats</text>
</a>
</g>
</g>
<!-- Node8&#45;&gt;Node7 -->
<g id="edge7" class="edge">
<title>Node8&#45;&gt;Node7</title>
<path fill="none" stroke="#9a32cd" stroke-dasharray="5,2" d="M147.42,-117C172.49,-117 199.73,-117 222.82,-117"/>
<polygon fill="#9a32cd" stroke="#9a32cd" points="147.19,-113.5 137.19,-117 147.19,-120.5 147.19,-113.5"/>
<text text-anchor="middle" x="179" y="-131" font-family="Helvetica,sans-Serif" font-size="10.00"> roi_stats</text>
<text text-anchor="middle" x="179" y="-120" font-family="Helvetica,sans-Serif" font-size="10.00">sim_stats</text>
</g>
<!-- Node9&#45;&gt;Node1 -->
<g id="edge8" class="edge">
<title>Node9&#45;&gt;Node1</title>
<path fill="none" stroke="#9a32cd" stroke-dasharray="5,2" d="M543.83,-165.77C569.24,-158.44 604.43,-147.24 634,-134 644.38,-129.35 655.44,-122.98 664,-117.71"/>
<polygon fill="#9a32cd" stroke="#9a32cd" points="542.59,-162.48 533.92,-168.57 544.5,-169.21 542.59,-162.48"/>
<text text-anchor="middle" x="610" y="-155" font-family="Helvetica,sans-Serif" font-size="10.00"> l1i</text>
</g>
<!-- Node10 -->
<g id="node10" class="node">
<title>Node10</title>
<g id="a_node10"><a xlink:href="structcache__stats.html" target="_top" xlink:title=" ">
<polygon fill="none" stroke="black" points="242,-169.5 242,-188.5 316,-188.5 316,-169.5 242,-169.5"/>
<text text-anchor="middle" x="279" y="-176.5" font-family="Helvetica,sans-Serif" font-size="10.00">cache_stats</text>
</a>
</g>
</g>
<!-- Node10&#45;&gt;Node9 -->
<g id="edge10" class="edge">
<title>Node10&#45;&gt;Node9</title>
<path fill="none" stroke="#9a32cd" stroke-dasharray="5,2" d="M326.11,-178.19C373.73,-177.35 446.2,-176.08 483.48,-175.42"/>
<polygon fill="#9a32cd" stroke="#9a32cd" points="325.98,-174.69 316.05,-178.37 326.11,-181.69 325.98,-174.69"/>
<text text-anchor="middle" x="393" y="-191" font-family="Helvetica,sans-Serif" font-size="10.00"> roi_stats</text>
<text text-anchor="middle" x="393" y="-180" font-family="Helvetica,sans-Serif" font-size="10.00">sim_stats</text>
</g>
</g>
</svg>
