<?xml version="1.0" encoding="UTF-8" standalone="no"?>
<!DOCTYPE svg PUBLIC "-//W3C//DTD SVG 1.1//EN"
 "http://www.w3.org/Graphics/SVG/1.1/DTD/svg11.dtd">
<!-- Generated by graphviz version 2.43.0 (0)
 -->
<!-- Title: my_predictor Pages: 1 -->
<svg width="323pt" height="160pt"
 viewBox="0.00 0.00 323.00 160.00" xmlns="http://www.w3.org/2000/svg" xmlns:xlink="http://www.w3.org/1999/xlink">
<g id="graph0" class="graph" transform="scale(1 1) rotate(0) translate(4 156)">
<title>my_predictor</title>
<!-- Node1 -->
<g id="node1" class="node">
<title>Node1</title>
<g id="a_node1"><a xlink:title=" ">
<polygon fill="#bfbfbf" stroke="black" points="234,-57.5 234,-76.5 315,-76.5 315,-57.5 234,-57.5"/>
<text text-anchor="middle" x="274.5" y="-64.5" font-family="Helvetica,sans-Serif" font-size="10.00">my_predictor</text>
</a>
</g>
</g>
<!-- Node2 -->
<g id="node2" class="node">
<title>Node2</title>
<g id="a_node2"><a xlink:href="classmy__predictor_1_1folded__history.html" target="_top" xlink:title=" ">
<polygon fill="none" stroke="black" points="12.5,-115 12.5,-145 130.5,-145 130.5,-115 12.5,-115"/>
<text text-anchor="start" x="20.5" y="-133" font-family="Helvetica,sans-Serif" font-size="10.00">my_predictor::folded</text>
<text text-anchor="middle" x="71.5" y="-122" font-family="Helvetica,sans-Serif" font-size="10.00">_history</text>
</a>
</g>
</g>
<!-- Node2&#45;&gt;Node1 -->
<g id="edge1" class="edge">
<title>Node2&#45;&gt;Node1</title>
<path fill="none" stroke="#9a32cd" stroke-dasharray="5,2" d="M140.48,-114.25C164.57,-108.07 191.72,-100.44 216,-92 228.75,-87.57 242.64,-81.56 253.57,-76.55"/>
<polygon fill="#9a32cd" stroke="#9a32cd" points="139.55,-110.87 130.71,-116.71 141.26,-117.66 139.55,-110.87"/>
<text text-anchor="middle" x="188.5" y="-144" font-family="Helvetica,sans-Serif" font-size="10.00"> Fetch_ch_i</text>
<text text-anchor="middle" x="188.5" y="-133" font-family="Helvetica,sans-Serif" font-size="10.00">Fetch_ch_t</text>
<text text-anchor="middle" x="188.5" y="-122" font-family="Helvetica,sans-Serif" font-size="10.00">Retire_ch_i</text>
<text text-anchor="middle" x="188.5" y="-111" font-family="Helvetica,sans-Serif" font-size="10.00">Retire_ch_t</text>
</g>
<!-- Node3 -->
<g id="node3" class="node">
<title>Node3</title>
<g id="a_node3"><a xlink:href="classmy__predictor_1_1specentry.html" target="_top" xlink:title=" ">
<polygon fill="none" stroke="black" points="4,-76.5 4,-95.5 139,-95.5 139,-76.5 4,-76.5"/>
<text text-anchor="middle" x="71.5" y="-83.5" font-family="Helvetica,sans-Serif" font-size="10.00">my_predictor::specentry</text>
</a>
</g>
</g>
<!-- Node3&#45;&gt;Node1 -->
<g id="edge2" class="edge">
<title>Node3&#45;&gt;Node1</title>
<path fill="none" stroke="#9a32cd" stroke-dasharray="5,2" d="M149.24,-78.75C178.16,-76.01 209.85,-73.02 233.99,-70.73"/>
<polygon fill="#9a32cd" stroke="#9a32cd" points="148.78,-75.27 139.15,-79.7 149.44,-82.24 148.78,-75.27"/>
<text text-anchor="middle" x="188.5" y="-80" font-family="Helvetica,sans-Serif" font-size="10.00"> IUMPred</text>
</g>
<!-- Node4 -->
<g id="node4" class="node">
<title>Node4</title>
<g id="a_node4"><a xlink:href="classmy__predictor_1_1gentry.html" target="_top" xlink:title=" ">
<polygon fill="none" stroke="black" points="12,-38.5 12,-57.5 131,-57.5 131,-38.5 12,-38.5"/>
<text text-anchor="middle" x="71.5" y="-45.5" font-family="Helvetica,sans-Serif" font-size="10.00">my_predictor::gentry</text>
</a>
</g>
</g>
<!-- Node4&#45;&gt;Node1 -->
<g id="edge3" class="edge">
<title>Node4&#45;&gt;Node1</title>
<path fill="none" stroke="#9a32cd" stroke-dasharray="5,2" d="M141.57,-50.8C165.22,-52.16 191.81,-54.15 216,-57 221.84,-57.69 227.98,-58.58 233.99,-59.54"/>
<polygon fill="#9a32cd" stroke="#9a32cd" points="141.46,-47.29 131.28,-50.23 141.07,-54.27 141.46,-47.29"/>
<text text-anchor="middle" x="188.5" y="-60" font-family="Helvetica,sans-Serif" font-size="10.00"> gtable</text>
</g>
<!-- Node5 -->
<g id="node5" class="node">
<title>Node5</title>
<g id="a_node5"><a xlink:href="classmy__predictor_1_1regionentry.html" target="_top" xlink:title=" ">
<polygon fill="none" stroke="black" points="0,-0.5 0,-19.5 143,-19.5 143,-0.5 0,-0.5"/>
<text text-anchor="middle" x="71.5" y="-7.5" font-family="Helvetica,sans-Serif" font-size="10.00">my_predictor::regionentry</text>
</a>
</g>
</g>
<!-- Node5&#45;&gt;Node1 -->
<g id="edge4" class="edge">
<title>Node5&#45;&gt;Node1</title>
<path fill="none" stroke="#9a32cd" stroke-dasharray="5,2" d="M153.34,-20.9C174.08,-24.86 196.13,-30.12 216,-37 230.9,-42.16 246.7,-50.65 257.96,-57.28"/>
<polygon fill="#9a32cd" stroke="#9a32cd" points="153.75,-17.42 143.28,-19.06 152.49,-24.3 153.75,-17.42"/>
<text text-anchor="middle" x="188.5" y="-40" font-family="Helvetica,sans-Serif" font-size="10.00"> rtable</text>
</g>
</g>
</svg>
