<?xml version="1.0" encoding="UTF-8" standalone="no"?>
<!DOCTYPE svg PUBLIC "-//W3C//DTD SVG 1.1//EN"
 "http://www.w3.org/Graphics/SVG/1.1/DTD/svg11.dtd">
<!-- Generated by graphviz version 2.43.0 (0)
 -->
<!-- Title: PageTableWalker::Builder Pages: 1 -->
<svg width="239pt" height="184pt"
 viewBox="0.00 0.00 239.00 184.00" xmlns="http://www.w3.org/2000/svg" xmlns:xlink="http://www.w3.org/1999/xlink">
<g id="graph0" class="graph" transform="scale(1 1) rotate(0) translate(4 180)">
<title>PageTableWalker::Builder</title>
<!-- Node1 -->
<g id="node1" class="node">
<title>Node1</title>
<g id="a_node1"><a xlink:title=" ">
<polygon fill="#bfbfbf" stroke="black" points="22,-0.5 22,-19.5 161,-19.5 161,-0.5 22,-0.5"/>
<text text-anchor="middle" x="91.5" y="-7.5" font-family="Helvetica,sans-Serif" font-size="10.00">PageTableWalker::Builder</text>
</a>
</g>
</g>
<!-- Node2 -->
<g id="node2" class="node">
<title>Node2</title>
<g id="a_node2"><a xlink:href="classVirtualMemory.html" target="_top" xlink:title=" ">
<polygon fill="none" stroke="black" points="0,-67.5 0,-86.5 89,-86.5 89,-67.5 0,-67.5"/>
<text text-anchor="middle" x="44.5" y="-74.5" font-family="Helvetica,sans-Serif" font-size="10.00">VirtualMemory</text>
</a>
</g>
</g>
<!-- Node2&#45;&gt;Node1 -->
<g id="edge1" class="edge">
<title>Node2&#45;&gt;Node1</title>
<path fill="none" stroke="#9a32cd" stroke-dasharray="5,2" d="M54.22,-58.44C58.1,-51.86 62.76,-44.42 67.5,-38 72.26,-31.54 78.26,-24.79 83.07,-19.65"/>
<polygon fill="#9a32cd" stroke="#9a32cd" points="51.11,-56.84 49.19,-67.26 57.19,-60.31 51.11,-56.84"/>
<text text-anchor="middle" x="92.5" y="-41" font-family="Helvetica,sans-Serif" font-size="10.00"> m_vmem</text>
</g>
<!-- Node3 -->
<g id="node3" class="node">
<title>Node3</title>
<g id="a_node3"><a xlink:href="classchampsim_1_1channel.html" target="_top" xlink:title=" ">
<polygon fill="none" stroke="black" points="106.5,-67.5 106.5,-86.5 218.5,-86.5 218.5,-67.5 106.5,-67.5"/>
<text text-anchor="middle" x="162.5" y="-74.5" font-family="Helvetica,sans-Serif" font-size="10.00">champsim::channel</text>
</a>
</g>
</g>
<!-- Node3&#45;&gt;Node1 -->
<g id="edge2" class="edge">
<title>Node3&#45;&gt;Node1</title>
<path fill="none" stroke="#9a32cd" stroke-dasharray="5,2" d="M145.41,-60.36C131.45,-47.58 112.24,-29.99 100.92,-19.63"/>
<polygon fill="#9a32cd" stroke="#9a32cd" points="143.19,-63.06 152.92,-67.23 147.91,-57.9 143.19,-63.06"/>
<text text-anchor="middle" x="143" y="-41" font-family="Helvetica,sans-Serif" font-size="10.00"> m_ll</text>
</g>
<!-- Node4 -->
<g id="node4" class="node">
<title>Node4</title>
<g id="a_node4"><a xlink:href="structchampsim_1_1cache__queue__stats.html" target="_top" xlink:title=" ">
<polygon fill="none" stroke="black" points="94,-145.5 94,-175.5 231,-175.5 231,-145.5 94,-145.5"/>
<text text-anchor="start" x="102" y="-163.5" font-family="Helvetica,sans-Serif" font-size="10.00">champsim::cache_queue</text>
<text text-anchor="middle" x="162.5" y="-152.5" font-family="Helvetica,sans-Serif" font-size="10.00">_stats</text>
</a>
</g>
</g>
<!-- Node4&#45;&gt;Node3 -->
<g id="edge3" class="edge">
<title>Node4&#45;&gt;Node3</title>
<path fill="none" stroke="#9a32cd" stroke-dasharray="5,2" d="M162.5,-135.25C162.5,-118.78 162.5,-97.99 162.5,-86.54"/>
<polygon fill="#9a32cd" stroke="#9a32cd" points="159,-135.3 162.5,-145.3 166,-135.3 159,-135.3"/>
<text text-anchor="middle" x="186.5" y="-119" font-family="Helvetica,sans-Serif" font-size="10.00"> roi_stats</text>
<text text-anchor="middle" x="186.5" y="-108" font-family="Helvetica,sans-Serif" font-size="10.00">sim_stats</text>
</g>
</g>
</svg>
