<?xml version="1.0" encoding="UTF-8" standalone="no"?>
<!DOCTYPE svg PUBLIC "-//W3C//DTD SVG 1.1//EN"
 "http://www.w3.org/Graphics/SVG/1.1/DTD/svg11.dtd">
<!-- Generated by graphviz version 2.43.0 (0)
 -->
<!-- Title: CacheBus Pages: 1 -->
<svg width="145pt" height="184pt"
 viewBox="0.00 0.00 145.00 184.00" xmlns="http://www.w3.org/2000/svg" xmlns:xlink="http://www.w3.org/1999/xlink">
<g id="graph0" class="graph" transform="scale(1 1) rotate(0) translate(4 180)">
<title>CacheBus</title>
<!-- Node1 -->
<g id="node1" class="node">
<title>Node1</title>
<g id="a_node1"><a xlink:title=" ">
<polygon fill="#bfbfbf" stroke="black" points="36,-0.5 36,-19.5 101,-19.5 101,-0.5 36,-0.5"/>
<text text-anchor="middle" x="68.5" y="-7.5" font-family="Helvetica,sans-Serif" font-size="10.00">CacheBus</text>
</a>
</g>
</g>
<!-- Node2 -->
<g id="node2" class="node">
<title>Node2</title>
<g id="a_node2"><a xlink:href="classchampsim_1_1channel.html" target="_top" xlink:title=" ">
<polygon fill="none" stroke="black" points="12.5,-67.5 12.5,-86.5 124.5,-86.5 124.5,-67.5 12.5,-67.5"/>
<text text-anchor="middle" x="68.5" y="-74.5" font-family="Helvetica,sans-Serif" font-size="10.00">champsim::channel</text>
</a>
</g>
</g>
<!-- Node2&#45;&gt;Node1 -->
<g id="edge1" class="edge">
<title>Node2&#45;&gt;Node1</title>
<path fill="none" stroke="#9a32cd" stroke-dasharray="5,2" d="M68.5,-57.04C68.5,-44.67 68.5,-29.12 68.5,-19.63"/>
<polygon fill="#9a32cd" stroke="#9a32cd" points="65,-57.23 68.5,-67.23 72,-57.23 65,-57.23"/>
<text text-anchor="middle" x="98.5" y="-41" font-family="Helvetica,sans-Serif" font-size="10.00"> lower_level</text>
</g>
<!-- Node3 -->
<g id="node3" class="node">
<title>Node3</title>
<g id="a_node3"><a xlink:href="structchampsim_1_1cache__queue__stats.html" target="_top" xlink:title=" ">
<polygon fill="none" stroke="black" points="0,-145.5 0,-175.5 137,-175.5 137,-145.5 0,-145.5"/>
<text text-anchor="start" x="8" y="-163.5" font-family="Helvetica,sans-Serif" font-size="10.00">champsim::cache_queue</text>
<text text-anchor="middle" x="68.5" y="-152.5" font-family="Helvetica,sans-Serif" font-size="10.00">_stats</text>
</a>
</g>
</g>
<!-- Node3&#45;&gt;Node2 -->
<g id="edge2" class="edge">
<title>Node3&#45;&gt;Node2</title>
<path fill="none" stroke="#9a32cd" stroke-dasharray="5,2" d="M68.5,-135.25C68.5,-118.78 68.5,-97.99 68.5,-86.54"/>
<polygon fill="#9a32cd" stroke="#9a32cd" points="65,-135.3 68.5,-145.3 72,-135.3 65,-135.3"/>
<text text-anchor="middle" x="92.5" y="-119" font-family="Helvetica,sans-Serif" font-size="10.00"> roi_stats</text>
<text text-anchor="middle" x="92.5" y="-108" font-family="Helvetica,sans-Serif" font-size="10.00">sim_stats</text>
</g>
</g>
</svg>
