<?xml version="1.0" encoding="UTF-8" standalone="no"?>
<!DOCTYPE svg PUBLIC "-//W3C//DTD SVG 1.1//EN"
 "http://www.w3.org/Graphics/SVG/1.1/DTD/svg11.dtd">
<!-- Generated by graphviz version 2.43.0 (0)
 -->
<!-- Title: PageTableWalker Pages: 1 -->
<svg width="374pt" height="184pt"
 viewBox="0.00 0.00 373.50 184.00" xmlns="http://www.w3.org/2000/svg" xmlns:xlink="http://www.w3.org/1999/xlink">
<g id="graph0" class="graph" transform="scale(1 1) rotate(0) translate(4 180)">
<title>PageTableWalker</title>
<!-- Node1 -->
<g id="node1" class="node">
<title>Node1</title>
<g id="a_node1"><a xlink:title=" ">
<polygon fill="#bfbfbf" stroke="black" points="130,-0.5 130,-19.5 228,-19.5 228,-0.5 130,-0.5"/>
<text text-anchor="middle" x="179" y="-7.5" font-family="Helvetica,sans-Serif" font-size="10.00">PageTableWalker</text>
</a>
</g>
</g>
<!-- Node2 -->
<g id="node2" class="node">
<title>Node2</title>
<g id="a_node2"><a xlink:href="classchampsim_1_1operable.html" target="_top" xlink:title=" ">
<polygon fill="none" stroke="black" points="0,-67.5 0,-86.5 116,-86.5 116,-67.5 0,-67.5"/>
<text text-anchor="middle" x="58" y="-74.5" font-family="Helvetica,sans-Serif" font-size="10.00">champsim::operable</text>
</a>
</g>
</g>
<!-- Node2&#45;&gt;Node1 -->
<g id="edge1" class="edge">
<title>Node2&#45;&gt;Node1</title>
<path fill="none" stroke="midnightblue" d="M83.21,-62.46C107.2,-49.57 142.56,-30.57 162.94,-19.63"/>
<polygon fill="midnightblue" stroke="midnightblue" points="81.47,-59.42 74.32,-67.23 84.78,-65.58 81.47,-59.42"/>
</g>
<!-- Node3 -->
<g id="node3" class="node">
<title>Node3</title>
<g id="a_node3"><a xlink:href="classVirtualMemory.html" target="_top" xlink:title=" ">
<polygon fill="none" stroke="black" points="134.5,-67.5 134.5,-86.5 223.5,-86.5 223.5,-67.5 134.5,-67.5"/>
<text text-anchor="middle" x="179" y="-74.5" font-family="Helvetica,sans-Serif" font-size="10.00">VirtualMemory</text>
</a>
</g>
</g>
<!-- Node3&#45;&gt;Node1 -->
<g id="edge2" class="edge">
<title>Node3&#45;&gt;Node1</title>
<path fill="none" stroke="#9a32cd" stroke-dasharray="5,2" d="M179,-57.04C179,-44.67 179,-29.12 179,-19.63"/>
<polygon fill="#9a32cd" stroke="#9a32cd" points="175.5,-57.23 179,-67.23 182.5,-57.23 175.5,-57.23"/>
<text text-anchor="middle" x="196.5" y="-41" font-family="Helvetica,sans-Serif" font-size="10.00"> vmem</text>
</g>
<!-- Node4 -->
<g id="node4" class="node">
<title>Node4</title>
<g id="a_node4"><a xlink:href="classchampsim_1_1channel.html" target="_top" xlink:title=" ">
<polygon fill="none" stroke="black" points="241,-67.5 241,-86.5 353,-86.5 353,-67.5 241,-67.5"/>
<text text-anchor="middle" x="297" y="-74.5" font-family="Helvetica,sans-Serif" font-size="10.00">champsim::channel</text>
</a>
</g>
</g>
<!-- Node4&#45;&gt;Node1 -->
<g id="edge3" class="edge">
<title>Node4&#45;&gt;Node1</title>
<path fill="none" stroke="#9a32cd" stroke-dasharray="5,2" d="M272.11,-62.29C248.72,-49.4 214.44,-30.52 194.66,-19.63"/>
<polygon fill="#9a32cd" stroke="#9a32cd" points="270.64,-65.47 281.09,-67.23 274.02,-59.34 270.64,-65.47"/>
<text text-anchor="middle" x="275" y="-41" font-family="Helvetica,sans-Serif" font-size="10.00"> lower_level</text>
</g>
<!-- Node5 -->
<g id="node5" class="node">
<title>Node5</title>
<g id="a_node5"><a xlink:href="structchampsim_1_1cache__queue__stats.html" target="_top" xlink:title=" ">
<polygon fill="none" stroke="black" points="228.5,-145.5 228.5,-175.5 365.5,-175.5 365.5,-145.5 228.5,-145.5"/>
<text text-anchor="start" x="236.5" y="-163.5" font-family="Helvetica,sans-Serif" font-size="10.00">champsim::cache_queue</text>
<text text-anchor="middle" x="297" y="-152.5" font-family="Helvetica,sans-Serif" font-size="10.00">_stats</text>
</a>
</g>
</g>
<!-- Node5&#45;&gt;Node4 -->
<g id="edge4" class="edge">
<title>Node5&#45;&gt;Node4</title>
<path fill="none" stroke="#9a32cd" stroke-dasharray="5,2" d="M297,-135.25C297,-118.78 297,-97.99 297,-86.54"/>
<polygon fill="#9a32cd" stroke="#9a32cd" points="293.5,-135.3 297,-145.3 300.5,-135.3 293.5,-135.3"/>
<text text-anchor="middle" x="321" y="-119" font-family="Helvetica,sans-Serif" font-size="10.00"> roi_stats</text>
<text text-anchor="middle" x="321" y="-108" font-family="Helvetica,sans-Serif" font-size="10.00">sim_stats</text>
</g>
</g>
</svg>
