<?xml version="1.0" encoding="UTF-8" standalone="no"?>
<!DOCTYPE svg PUBLIC "-//W3C//DTD SVG 1.1//EN"
 "http://www.w3.org/Graphics/SVG/1.1/DTD/svg11.dtd">
<!-- Generated by graphviz version 2.43.0 (0)
 -->
<!-- Title: CACHE Pages: 1 -->
<svg width="359pt" height="195pt"
 viewBox="0.00 0.00 358.50 195.00" xmlns="http://www.w3.org/2000/svg" xmlns:xlink="http://www.w3.org/1999/xlink">
<g id="graph0" class="graph" transform="scale(1 1) rotate(0) translate(4 191)">
<title>CACHE</title>
<!-- Node1 -->
<g id="node1" class="node">
<title>Node1</title>
<g id="a_node1"><a xlink:title=" ">
<polygon fill="#bfbfbf" stroke="black" points="146,-0.5 146,-19.5 196,-19.5 196,-0.5 146,-0.5"/>
<text text-anchor="middle" x="171" y="-7.5" font-family="Helvetica,sans-Serif" font-size="10.00">CACHE</text>
</a>
</g>
</g>
<!-- Node2 -->
<g id="node2" class="node">
<title>Node2</title>
<g id="a_node2"><a xlink:href="classchampsim_1_1operable.html" target="_top" xlink:title=" ">
<polygon fill="none" stroke="black" points="0,-78.5 0,-97.5 116,-97.5 116,-78.5 0,-78.5"/>
<text text-anchor="middle" x="58" y="-85.5" font-family="Helvetica,sans-Serif" font-size="10.00">champsim::operable</text>
</a>
</g>
</g>
<!-- Node2&#45;&gt;Node1 -->
<g id="edge1" class="edge">
<title>Node2&#45;&gt;Node1</title>
<path fill="none" stroke="midnightblue" d="M79.46,-72.57C102.71,-56.93 139.04,-32.5 158.19,-19.62"/>
<polygon fill="midnightblue" stroke="midnightblue" points="77.31,-69.8 70.96,-78.28 81.21,-75.61 77.31,-69.8"/>
</g>
<!-- Node3 -->
<g id="node3" class="node">
<title>Node3</title>
<g id="a_node3"><a xlink:href="structcache__stats.html" target="_top" xlink:title=" ">
<polygon fill="none" stroke="black" points="134,-78.5 134,-97.5 208,-97.5 208,-78.5 134,-78.5"/>
<text text-anchor="middle" x="171" y="-85.5" font-family="Helvetica,sans-Serif" font-size="10.00">cache_stats</text>
</a>
</g>
</g>
<!-- Node3&#45;&gt;Node1 -->
<g id="edge2" class="edge">
<title>Node3&#45;&gt;Node1</title>
<path fill="none" stroke="#9a32cd" stroke-dasharray="5,2" d="M171,-68.22C171,-52.7 171,-31.36 171,-19.62"/>
<polygon fill="#9a32cd" stroke="#9a32cd" points="167.5,-68.28 171,-78.28 174.5,-68.28 167.5,-68.28"/>
<text text-anchor="middle" x="195" y="-52" font-family="Helvetica,sans-Serif" font-size="10.00"> roi_stats</text>
<text text-anchor="middle" x="195" y="-41" font-family="Helvetica,sans-Serif" font-size="10.00">sim_stats</text>
</g>
<!-- Node4 -->
<g id="node4" class="node">
<title>Node4</title>
<g id="a_node4"><a xlink:href="classchampsim_1_1channel.html" target="_top" xlink:title=" ">
<polygon fill="none" stroke="black" points="226,-78.5 226,-97.5 338,-97.5 338,-78.5 226,-78.5"/>
<text text-anchor="middle" x="282" y="-85.5" font-family="Helvetica,sans-Serif" font-size="10.00">champsim::channel</text>
</a>
</g>
</g>
<!-- Node4&#45;&gt;Node1 -->
<g id="edge3" class="edge">
<title>Node4&#45;&gt;Node1</title>
<path fill="none" stroke="#9a32cd" stroke-dasharray="5,2" d="M265.41,-71.57C253.98,-61.37 238.18,-48.07 223,-38 212.49,-31.02 199.96,-24.47 189.84,-19.57"/>
<polygon fill="#9a32cd" stroke="#9a32cd" points="263.13,-74.23 272.88,-78.36 267.83,-69.05 263.13,-74.23"/>
<text text-anchor="middle" x="289" y="-52" font-family="Helvetica,sans-Serif" font-size="10.00"> lower_level</text>
<text text-anchor="middle" x="289" y="-41" font-family="Helvetica,sans-Serif" font-size="10.00">lower_translate</text>
</g>
<!-- Node5 -->
<g id="node5" class="node">
<title>Node5</title>
<g id="a_node5"><a xlink:href="structchampsim_1_1cache__queue__stats.html" target="_top" xlink:title=" ">
<polygon fill="none" stroke="black" points="213.5,-156.5 213.5,-186.5 350.5,-186.5 350.5,-156.5 213.5,-156.5"/>
<text text-anchor="start" x="221.5" y="-174.5" font-family="Helvetica,sans-Serif" font-size="10.00">champsim::cache_queue</text>
<text text-anchor="middle" x="282" y="-163.5" font-family="Helvetica,sans-Serif" font-size="10.00">_stats</text>
</a>
</g>
</g>
<!-- Node5&#45;&gt;Node4 -->
<g id="edge4" class="edge">
<title>Node5&#45;&gt;Node4</title>
<path fill="none" stroke="#9a32cd" stroke-dasharray="5,2" d="M282,-146.25C282,-129.78 282,-108.99 282,-97.54"/>
<polygon fill="#9a32cd" stroke="#9a32cd" points="278.5,-146.3 282,-156.3 285.5,-146.3 278.5,-146.3"/>
<text text-anchor="middle" x="306" y="-130" font-family="Helvetica,sans-Serif" font-size="10.00"> roi_stats</text>
<text text-anchor="middle" x="306" y="-119" font-family="Helvetica,sans-Serif" font-size="10.00">sim_stats</text>
</g>
</g>
</svg>
