<?xml version="1.0" encoding="UTF-8" standalone="no"?>
<!DOCTYPE svg PUBLIC "-//W3C//DTD SVG 1.1//EN"
 "http://www.w3.org/Graphics/SVG/1.1/DTD/svg11.dtd">
<!-- Generated by graphviz version 2.43.0 (0)
 -->
<!-- Title: inc/defaults.hpp Pages: 1 -->
<svg width="5220pt" height="106pt"
 viewBox="0.00 0.00 5220.00 106.00" xmlns="http://www.w3.org/2000/svg" xmlns:xlink="http://www.w3.org/1999/xlink">
<g id="graph0" class="graph" transform="scale(1 1) rotate(0) translate(4 102)">
<title>inc/defaults.hpp</title>
<!-- Node1 -->
<g id="node1" class="node">
<title>Node1</title>
<g id="a_node1"><a xlink:title=" ">
<polygon fill="#bfbfbf" stroke="black" points="2464,-78.5 2464,-97.5 2559,-97.5 2559,-78.5 2464,-78.5"/>
<text text-anchor="middle" x="2511.5" y="-85.5" font-family="Helvetica,sans-Serif" font-size="10.00">inc/defaults.hpp</text>
</a>
</g>
</g>
<!-- Node2 -->
<g id="node2" class="node">
<title>Node2</title>
<g id="a_node2"><a xlink:href="140-single-dib-lookup_8cc.html" target="_top" xlink:title=" ">
<polygon fill="none" stroke="black" points="0,-6 0,-36 127,-36 127,-6 0,-6"/>
<text text-anchor="start" x="8" y="-24" font-family="Helvetica,sans-Serif" font-size="10.00">test/cpp/src/140&#45;single</text>
<text text-anchor="middle" x="63.5" y="-13" font-family="Helvetica,sans-Serif" font-size="10.00">&#45;dib&#45;lookup.cc</text>
</a>
</g>
</g>
<!-- Node1&#45;&gt;Node2 -->
<g id="edge1" class="edge">
<title>Node1&#45;&gt;Node2</title>
<path fill="none" stroke="midnightblue" d="M2453.82,-86.76C2113.25,-85.26 372.02,-75.95 136.5,-42 127.14,-40.65 117.26,-38.48 107.91,-36.05"/>
<polygon fill="midnightblue" stroke="midnightblue" points="2453.94,-90.27 2463.95,-86.81 2453.97,-83.27 2453.94,-90.27"/>
</g>
<!-- Node3 -->
<g id="node3" class="node">
<title>Node3</title>
<g id="a_node3"><a xlink:href="150-fetch-bandwidth_8cc.html" target="_top" xlink:title=" ">
<polygon fill="none" stroke="black" points="145.5,-6 145.5,-36 267.5,-36 267.5,-6 145.5,-6"/>
<text text-anchor="start" x="153.5" y="-24" font-family="Helvetica,sans-Serif" font-size="10.00">test/cpp/src/150&#45;fetch</text>
<text text-anchor="middle" x="206.5" y="-13" font-family="Helvetica,sans-Serif" font-size="10.00">&#45;bandwidth.cc</text>
</a>
</g>
</g>
<!-- Node1&#45;&gt;Node3 -->
<g id="edge2" class="edge">
<title>Node1&#45;&gt;Node3</title>
<path fill="none" stroke="midnightblue" d="M2453.33,-86.73C2123.68,-85.05 497.06,-75.16 276.5,-42 267.5,-40.65 258.03,-38.47 249.06,-36.05"/>
<polygon fill="midnightblue" stroke="midnightblue" points="2453.59,-90.23 2463.61,-86.78 2453.62,-83.23 2453.59,-90.23"/>
</g>
<!-- Node4 -->
<g id="node4" class="node">
<title>Node4</title>
<g id="a_node4"><a xlink:href="165-basic-btb-no-evict-on-unknown-target_8cc.html" target="_top" xlink:title=" ">
<polygon fill="none" stroke="black" points="286,-0.5 286,-41.5 429,-41.5 429,-0.5 286,-0.5"/>
<text text-anchor="start" x="294" y="-29.5" font-family="Helvetica,sans-Serif" font-size="10.00">test/cpp/src/165&#45;basic</text>
<text text-anchor="start" x="294" y="-18.5" font-family="Helvetica,sans-Serif" font-size="10.00">&#45;btb&#45;no&#45;evict&#45;on&#45;unknown</text>
<text text-anchor="middle" x="357.5" y="-7.5" font-family="Helvetica,sans-Serif" font-size="10.00">&#45;target.cc</text>
</a>
</g>
</g>
<!-- Node1&#45;&gt;Node4 -->
<g id="edge3" class="edge">
<title>Node1&#45;&gt;Node4</title>
<path fill="none" stroke="midnightblue" d="M2453.56,-86.52C2138.89,-83.78 641.77,-69.4 437.5,-42 434.8,-41.64 432.07,-41.22 429.31,-40.76"/>
<polygon fill="midnightblue" stroke="midnightblue" points="2453.79,-90.02 2463.82,-86.6 2453.86,-83.02 2453.79,-90.02"/>
</g>
<!-- Node5 -->
<g id="node5" class="node">
<title>Node5</title>
<g id="a_node5"><a xlink:href="166-issue296-basic-btb-no-mispredict-on-not-taken_8cc.html" target="_top" xlink:title=" ">
<polygon fill="none" stroke="black" points="447,-0.5 447,-41.5 588,-41.5 588,-0.5 447,-0.5"/>
<text text-anchor="start" x="455" y="-29.5" font-family="Helvetica,sans-Serif" font-size="10.00">test/cpp/src/166&#45;issue296</text>
<text text-anchor="start" x="455" y="-18.5" font-family="Helvetica,sans-Serif" font-size="10.00">&#45;basic&#45;btb&#45;no&#45;mispredict</text>
<text text-anchor="middle" x="517.5" y="-7.5" font-family="Helvetica,sans-Serif" font-size="10.00">&#45;on&#45;not&#45;taken.cc</text>
</a>
</g>
</g>
<!-- Node1&#45;&gt;Node5 -->
<g id="edge4" class="edge">
<title>Node1&#45;&gt;Node5</title>
<path fill="none" stroke="midnightblue" d="M2453.73,-86.41C2154.17,-83.28 784.15,-67.63 596.5,-42 593.84,-41.64 591.13,-41.22 588.41,-40.75"/>
<polygon fill="midnightblue" stroke="midnightblue" points="2453.9,-89.92 2463.94,-86.52 2453.97,-82.92 2453.9,-89.92"/>
</g>
<!-- Node6 -->
<g id="node6" class="node">
<title>Node6</title>
<g id="a_node6"><a xlink:href="200-rob-scheduling_8cc.html" target="_top" xlink:title=" ">
<polygon fill="none" stroke="black" points="606,-6 606,-36 719,-36 719,-6 606,-6"/>
<text text-anchor="start" x="614" y="-24" font-family="Helvetica,sans-Serif" font-size="10.00">test/cpp/src/200&#45;rob</text>
<text text-anchor="middle" x="662.5" y="-13" font-family="Helvetica,sans-Serif" font-size="10.00">&#45;scheduling.cc</text>
</a>
</g>
</g>
<!-- Node1&#45;&gt;Node6 -->
<g id="edge5" class="edge">
<title>Node1&#45;&gt;Node6</title>
<path fill="none" stroke="midnightblue" d="M2453.58,-86.46C2166.36,-83.68 901.76,-69.91 728.5,-42 719.99,-40.63 711.05,-38.45 702.58,-36.02"/>
<polygon fill="midnightblue" stroke="midnightblue" points="2453.74,-89.97 2463.78,-86.56 2453.81,-82.97 2453.74,-89.97"/>
</g>
<!-- Node7 -->
<g id="node7" class="node">
<title>Node7</title>
<g id="a_node7"><a xlink:href="300-retire-from-rob_8cc.html" target="_top" xlink:title=" ">
<polygon fill="none" stroke="black" points="737.5,-6 737.5,-36 861.5,-36 861.5,-6 737.5,-6"/>
<text text-anchor="start" x="745.5" y="-24" font-family="Helvetica,sans-Serif" font-size="10.00">test/cpp/src/300&#45;retire</text>
<text text-anchor="middle" x="799.5" y="-13" font-family="Helvetica,sans-Serif" font-size="10.00">&#45;from&#45;rob.cc</text>
</a>
</g>
</g>
<!-- Node1&#45;&gt;Node7 -->
<g id="edge6" class="edge">
<title>Node1&#45;&gt;Node7</title>
<path fill="none" stroke="midnightblue" d="M2453.77,-87.33C2200.36,-88.46 1185.23,-89.89 870.5,-42 861.51,-40.63 852.05,-38.48 843.06,-36.1"/>
<polygon fill="midnightblue" stroke="midnightblue" points="2453.88,-90.83 2463.86,-87.28 2453.85,-83.83 2453.88,-90.83"/>
</g>
<!-- Node8 -->
<g id="node8" class="node">
<title>Node8</title>
<g id="a_node8"><a xlink:href="400-cache-occupancy-size_8cc.html" target="_top" xlink:title=" ">
<polygon fill="none" stroke="black" points="879.5,-6 879.5,-36 1005.5,-36 1005.5,-6 879.5,-6"/>
<text text-anchor="start" x="887.5" y="-24" font-family="Helvetica,sans-Serif" font-size="10.00">test/cpp/src/400&#45;cache</text>
<text text-anchor="middle" x="942.5" y="-13" font-family="Helvetica,sans-Serif" font-size="10.00">&#45;occupancy&#45;size.cc</text>
</a>
</g>
</g>
<!-- Node1&#45;&gt;Node8 -->
<g id="edge7" class="edge">
<title>Node1&#45;&gt;Node8</title>
<path fill="none" stroke="midnightblue" d="M2453.44,-87.12C2213.62,-87.33 1299.47,-85.21 1014.5,-42 1005.39,-40.62 995.8,-38.47 986.69,-36.07"/>
<polygon fill="midnightblue" stroke="midnightblue" points="2453.69,-90.62 2463.68,-87.11 2453.68,-83.62 2453.69,-90.62"/>
</g>
<!-- Node9 -->
<g id="node9" class="node">
<title>Node9</title>
<g id="a_node9"><a xlink:href="401-hit-latency_8cc.html" target="_top" xlink:title=" ">
<polygon fill="none" stroke="black" points="1023.5,-6 1023.5,-36 1133.5,-36 1133.5,-6 1023.5,-6"/>
<text text-anchor="start" x="1031.5" y="-24" font-family="Helvetica,sans-Serif" font-size="10.00">test/cpp/src/401&#45;hit</text>
<text text-anchor="middle" x="1078.5" y="-13" font-family="Helvetica,sans-Serif" font-size="10.00">&#45;latency.cc</text>
</a>
</g>
</g>
<!-- Node1&#45;&gt;Node9 -->
<g id="edge8" class="edge">
<title>Node1&#45;&gt;Node9</title>
<path fill="none" stroke="midnightblue" d="M2453.6,-87.17C2227.06,-87.53 1400.56,-85.73 1142.5,-42 1134.35,-40.62 1125.8,-38.47 1117.7,-36.07"/>
<polygon fill="midnightblue" stroke="midnightblue" points="2453.94,-90.67 2463.93,-87.15 2453.93,-83.67 2453.94,-90.67"/>
</g>
<!-- Node10 -->
<g id="node10" class="node">
<title>Node10</title>
<g id="a_node10"><a xlink:href="402-miss-latency_8cc.html" target="_top" xlink:title=" ">
<polygon fill="none" stroke="black" points="1152,-6 1152,-36 1273,-36 1273,-6 1152,-6"/>
<text text-anchor="start" x="1160" y="-24" font-family="Helvetica,sans-Serif" font-size="10.00">test/cpp/src/402&#45;miss</text>
<text text-anchor="middle" x="1212.5" y="-13" font-family="Helvetica,sans-Serif" font-size="10.00">&#45;latency.cc</text>
</a>
</g>
</g>
<!-- Node1&#45;&gt;Node10 -->
<g id="edge9" class="edge">
<title>Node1&#45;&gt;Node10</title>
<path fill="none" stroke="midnightblue" d="M2453.64,-86.76C2242.18,-85.61 1511.54,-78.97 1281.5,-42 1272.76,-40.59 1263.56,-38.43 1254.82,-36.04"/>
<polygon fill="midnightblue" stroke="midnightblue" points="2453.88,-90.27 2463.9,-86.82 2453.92,-83.27 2453.88,-90.27"/>
</g>
<!-- Node11 -->
<g id="node11" class="node">
<title>Node11</title>
<g id="a_node11"><a xlink:href="403-read-bandwidth_8cc.html" target="_top" xlink:title=" ">
<polygon fill="none" stroke="black" points="1291,-6 1291,-36 1410,-36 1410,-6 1291,-6"/>
<text text-anchor="start" x="1299" y="-24" font-family="Helvetica,sans-Serif" font-size="10.00">test/cpp/src/403&#45;read</text>
<text text-anchor="middle" x="1350.5" y="-13" font-family="Helvetica,sans-Serif" font-size="10.00">&#45;bandwidth.cc</text>
</a>
</g>
</g>
<!-- Node1&#45;&gt;Node11 -->
<g id="edge10" class="edge">
<title>Node1&#45;&gt;Node11</title>
<path fill="none" stroke="midnightblue" d="M2453.69,-86.45C2258,-84.31 1621.42,-74.93 1419.5,-42 1410.76,-40.57 1401.56,-38.4 1392.83,-36.01"/>
<polygon fill="midnightblue" stroke="midnightblue" points="2453.73,-89.95 2463.77,-86.56 2453.81,-82.95 2453.73,-89.95"/>
</g>
<!-- Node12 -->
<g id="node12" class="node">
<title>Node12</title>
<g id="a_node12"><a xlink:href="404-fill-bandwidth_8cc.html" target="_top" xlink:title=" ">
<polygon fill="none" stroke="black" points="1428.5,-6 1428.5,-36 1538.5,-36 1538.5,-6 1428.5,-6"/>
<text text-anchor="start" x="1436.5" y="-24" font-family="Helvetica,sans-Serif" font-size="10.00">test/cpp/src/404&#45;fill</text>
<text text-anchor="middle" x="1483.5" y="-13" font-family="Helvetica,sans-Serif" font-size="10.00">&#45;bandwidth.cc</text>
</a>
</g>
</g>
<!-- Node1&#45;&gt;Node12 -->
<g id="edge11" class="edge">
<title>Node1&#45;&gt;Node12</title>
<path fill="none" stroke="midnightblue" d="M2453.89,-86.24C2273.83,-83.57 1723.21,-73.02 1547.5,-42 1539.48,-40.58 1531.05,-38.45 1523.05,-36.09"/>
<polygon fill="midnightblue" stroke="midnightblue" points="2453.9,-89.74 2463.95,-86.39 2454.01,-82.74 2453.9,-89.74"/>
</g>
<!-- Node13 -->
<g id="node13" class="node">
<title>Node13</title>
<g id="a_node13"><a xlink:href="405-fill-eviction_8cc.html" target="_top" xlink:title=" ">
<polygon fill="none" stroke="black" points="1556.5,-6 1556.5,-36 1666.5,-36 1666.5,-6 1556.5,-6"/>
<text text-anchor="start" x="1564.5" y="-24" font-family="Helvetica,sans-Serif" font-size="10.00">test/cpp/src/405&#45;fill</text>
<text text-anchor="middle" x="1611.5" y="-13" font-family="Helvetica,sans-Serif" font-size="10.00">&#45;eviction.cc</text>
</a>
</g>
</g>
<!-- Node1&#45;&gt;Node13 -->
<g id="edge12" class="edge">
<title>Node1&#45;&gt;Node13</title>
<path fill="none" stroke="midnightblue" d="M2453.37,-85.75C2289.38,-81.94 1825.27,-69 1675.5,-42 1667.48,-40.55 1659.06,-38.4 1651.06,-36.04"/>
<polygon fill="midnightblue" stroke="midnightblue" points="2453.66,-89.26 2463.74,-85.99 2453.82,-82.26 2453.66,-89.26"/>
</g>
<!-- Node14 -->
<g id="node14" class="node">
<title>Node14</title>
<g id="a_node14"><a xlink:href="406-mshr-merge_8cc.html" target="_top" xlink:title=" ">
<polygon fill="none" stroke="black" points="1684.5,-6 1684.5,-36 1806.5,-36 1806.5,-6 1684.5,-6"/>
<text text-anchor="start" x="1692.5" y="-24" font-family="Helvetica,sans-Serif" font-size="10.00">test/cpp/src/406&#45;mshr</text>
<text text-anchor="middle" x="1745.5" y="-13" font-family="Helvetica,sans-Serif" font-size="10.00">&#45;merge.cc</text>
</a>
</g>
</g>
<!-- Node1&#45;&gt;Node14 -->
<g id="edge13" class="edge">
<title>Node1&#45;&gt;Node14</title>
<path fill="none" stroke="midnightblue" d="M2453.77,-87.42C2333.91,-87.37 2049.68,-82.54 1815.5,-42 1806.91,-40.51 1797.86,-38.37 1789.23,-36.04"/>
<polygon fill="midnightblue" stroke="midnightblue" points="2453.83,-90.92 2463.83,-87.41 2453.83,-83.92 2453.83,-90.92"/>
</g>
<!-- Node15 -->
<g id="node15" class="node">
<title>Node15</title>
<g id="a_node15"><a xlink:href="411-queue-translation-hit_8cc.html" target="_top" xlink:title=" ">
<polygon fill="none" stroke="black" points="1824.5,-6 1824.5,-36 1952.5,-36 1952.5,-6 1824.5,-6"/>
<text text-anchor="start" x="1832.5" y="-24" font-family="Helvetica,sans-Serif" font-size="10.00">test/cpp/src/411&#45;queue</text>
<text text-anchor="middle" x="1888.5" y="-13" font-family="Helvetica,sans-Serif" font-size="10.00">&#45;translation&#45;hit.cc</text>
</a>
</g>
</g>
<!-- Node1&#45;&gt;Node15 -->
<g id="edge14" class="edge">
<title>Node1&#45;&gt;Node15</title>
<path fill="none" stroke="midnightblue" d="M2453.39,-85.79C2352.56,-82.89 2138.97,-73.29 1961.5,-42 1952.7,-40.45 1943.42,-38.31 1934.55,-36.01"/>
<polygon fill="midnightblue" stroke="midnightblue" points="2453.58,-89.29 2463.67,-86.07 2453.77,-82.29 2453.58,-89.29"/>
</g>
<!-- Node16 -->
<g id="node16" class="node">
<title>Node16</title>
<g id="a_node16"><a xlink:href="412-queue-translation-miss_8cc.html" target="_top" xlink:title=" ">
<polygon fill="none" stroke="black" points="1970.5,-6 1970.5,-36 2098.5,-36 2098.5,-6 1970.5,-6"/>
<text text-anchor="start" x="1978.5" y="-24" font-family="Helvetica,sans-Serif" font-size="10.00">test/cpp/src/412&#45;queue</text>
<text text-anchor="middle" x="2034.5" y="-13" font-family="Helvetica,sans-Serif" font-size="10.00">&#45;translation&#45;miss.cc</text>
</a>
</g>
</g>
<!-- Node1&#45;&gt;Node16 -->
<g id="edge15" class="edge">
<title>Node1&#45;&gt;Node16</title>
<path fill="none" stroke="midnightblue" d="M2453.66,-83.41C2374.85,-77.88 2229.56,-65.37 2107.5,-42 2098.98,-40.37 2090,-38.25 2081.37,-36"/>
<polygon fill="midnightblue" stroke="midnightblue" points="2453.65,-86.92 2463.87,-84.12 2454.13,-79.94 2453.65,-86.92"/>
</g>
<!-- Node17 -->
<g id="node17" class="node">
<title>Node17</title>
<g id="a_node17"><a xlink:href="413-hit-under-miss_8cc.html" target="_top" xlink:title=" ">
<polygon fill="none" stroke="black" points="2116.5,-6 2116.5,-36 2226.5,-36 2226.5,-6 2116.5,-6"/>
<text text-anchor="start" x="2124.5" y="-24" font-family="Helvetica,sans-Serif" font-size="10.00">test/cpp/src/413&#45;hit</text>
<text text-anchor="middle" x="2171.5" y="-13" font-family="Helvetica,sans-Serif" font-size="10.00">&#45;under&#45;miss.cc</text>
</a>
</g>
</g>
<!-- Node1&#45;&gt;Node17 -->
<g id="edge16" class="edge">
<title>Node1&#45;&gt;Node17</title>
<path fill="none" stroke="midnightblue" d="M2453.61,-79.98C2397.44,-72.61 2310,-59.62 2235.5,-42 2228.36,-40.31 2220.86,-38.24 2213.61,-36.08"/>
<polygon fill="midnightblue" stroke="midnightblue" points="2453.36,-83.48 2463.72,-81.3 2454.26,-76.54 2453.36,-83.48"/>
</g>
<!-- Node18 -->
<g id="node18" class="node">
<title>Node18</title>
<g id="a_node18"><a xlink:href="414-tag-check-bound_8cc.html" target="_top" xlink:title=" ">
<polygon fill="none" stroke="black" points="2245,-6 2245,-36 2358,-36 2358,-6 2245,-6"/>
<text text-anchor="start" x="2253" y="-24" font-family="Helvetica,sans-Serif" font-size="10.00">test/cpp/src/414&#45;tag</text>
<text text-anchor="middle" x="2301.5" y="-13" font-family="Helvetica,sans-Serif" font-size="10.00">&#45;check&#45;bound.cc</text>
</a>
</g>
</g>
<!-- Node1&#45;&gt;Node18 -->
<g id="edge17" class="edge">
<title>Node1&#45;&gt;Node18</title>
<path fill="none" stroke="midnightblue" d="M2473.62,-75.27C2438.01,-64.25 2384.67,-47.74 2346.82,-36.03"/>
<polygon fill="midnightblue" stroke="midnightblue" points="2473.03,-78.76 2483.61,-78.37 2475.1,-72.07 2473.03,-78.76"/>
</g>
<!-- Node19 -->
<g id="node19" class="node">
<title>Node19</title>
<g id="a_node19"><a xlink:href="420-issue-prefetch_8cc.html" target="_top" xlink:title=" ">
<polygon fill="none" stroke="black" points="2376,-6 2376,-36 2499,-36 2499,-6 2376,-6"/>
<text text-anchor="start" x="2384" y="-24" font-family="Helvetica,sans-Serif" font-size="10.00">test/cpp/src/420&#45;issue</text>
<text text-anchor="middle" x="2437.5" y="-13" font-family="Helvetica,sans-Serif" font-size="10.00">&#45;prefetch.cc</text>
</a>
</g>
</g>
<!-- Node1&#45;&gt;Node19 -->
<g id="edge18" class="edge">
<title>Node1&#45;&gt;Node19</title>
<path fill="none" stroke="midnightblue" d="M2493.77,-71.43C2481.53,-60.68 2465.4,-46.5 2453.54,-36.09"/>
<polygon fill="midnightblue" stroke="midnightblue" points="2491.7,-74.26 2501.52,-78.23 2496.32,-69 2491.7,-74.26"/>
</g>
<!-- Node20 -->
<g id="node20" class="node">
<title>Node20</title>
<g id="a_node20"><a xlink:href="421-prefetch-fill-level_8cc.html" target="_top" xlink:title=" ">
<polygon fill="none" stroke="black" points="2517.5,-6 2517.5,-36 2655.5,-36 2655.5,-6 2517.5,-6"/>
<text text-anchor="start" x="2525.5" y="-24" font-family="Helvetica,sans-Serif" font-size="10.00">test/cpp/src/421&#45;prefetch</text>
<text text-anchor="middle" x="2586.5" y="-13" font-family="Helvetica,sans-Serif" font-size="10.00">&#45;fill&#45;level.cc</text>
</a>
</g>
</g>
<!-- Node1&#45;&gt;Node20 -->
<g id="edge19" class="edge">
<title>Node1&#45;&gt;Node20</title>
<path fill="none" stroke="midnightblue" d="M2529.47,-71.43C2541.87,-60.68 2558.23,-46.5 2570.24,-36.09"/>
<polygon fill="midnightblue" stroke="midnightblue" points="2526.88,-69.04 2521.61,-78.23 2531.46,-74.33 2526.88,-69.04"/>
</g>
<!-- Node21 -->
<g id="node21" class="node">
<title>Node21</title>
<g id="a_node21"><a xlink:href="422-prefetch-hit_8cc.html" target="_top" xlink:title=" ">
<polygon fill="none" stroke="black" points="2673.5,-6 2673.5,-36 2811.5,-36 2811.5,-6 2673.5,-6"/>
<text text-anchor="start" x="2681.5" y="-24" font-family="Helvetica,sans-Serif" font-size="10.00">test/cpp/src/422&#45;prefetch</text>
<text text-anchor="middle" x="2742.5" y="-13" font-family="Helvetica,sans-Serif" font-size="10.00">&#45;hit.cc</text>
</a>
</g>
</g>
<!-- Node1&#45;&gt;Node21 -->
<g id="edge20" class="edge">
<title>Node1&#45;&gt;Node21</title>
<path fill="none" stroke="midnightblue" d="M2551.92,-75.63C2591.08,-64.61 2650.56,-47.87 2692.65,-36.03"/>
<polygon fill="midnightblue" stroke="midnightblue" points="2550.85,-72.29 2542.18,-78.37 2552.75,-79.03 2550.85,-72.29"/>
</g>
<!-- Node22 -->
<g id="node22" class="node">
<title>Node22</title>
<g id="a_node22"><a xlink:href="423-prefetcher-activate_8cc.html" target="_top" xlink:title=" ">
<polygon fill="none" stroke="black" points="2829.5,-6 2829.5,-36 2977.5,-36 2977.5,-6 2829.5,-6"/>
<text text-anchor="start" x="2837.5" y="-24" font-family="Helvetica,sans-Serif" font-size="10.00">test/cpp/src/423&#45;prefetcher</text>
<text text-anchor="middle" x="2903.5" y="-13" font-family="Helvetica,sans-Serif" font-size="10.00">&#45;activate.cc</text>
</a>
</g>
</g>
<!-- Node1&#45;&gt;Node22 -->
<g id="edge21" class="edge">
<title>Node1&#45;&gt;Node22</title>
<path fill="none" stroke="midnightblue" d="M2569.13,-80.21C2631.39,-72.51 2733.39,-58.8 2820.5,-42 2829.52,-40.26 2839.04,-38.19 2848.29,-36.05"/>
<polygon fill="midnightblue" stroke="midnightblue" points="2568.6,-76.75 2559.11,-81.45 2569.46,-83.7 2568.6,-76.75"/>
</g>
<!-- Node23 -->
<g id="node23" class="node">
<title>Node23</title>
<g id="a_node23"><a xlink:href="424-duplicate-prefetch_8cc.html" target="_top" xlink:title=" ">
<polygon fill="none" stroke="black" points="2996,-6 2996,-36 3139,-36 3139,-6 2996,-6"/>
<text text-anchor="start" x="3004" y="-24" font-family="Helvetica,sans-Serif" font-size="10.00">test/cpp/src/424&#45;duplicate</text>
<text text-anchor="middle" x="3067.5" y="-13" font-family="Helvetica,sans-Serif" font-size="10.00">&#45;prefetch.cc</text>
</a>
</g>
</g>
<!-- Node1&#45;&gt;Node23 -->
<g id="edge22" class="edge">
<title>Node1&#45;&gt;Node23</title>
<path fill="none" stroke="midnightblue" d="M2569.59,-84.26C2659.47,-79.41 2837.44,-67.32 2986.5,-42 2995.92,-40.4 3005.87,-38.29 3015.45,-36.05"/>
<polygon fill="midnightblue" stroke="midnightblue" points="2569.14,-80.78 2559.34,-84.81 2569.51,-87.77 2569.14,-80.78"/>
</g>
<!-- Node24 -->
<g id="node24" class="node">
<title>Node24</title>
<g id="a_node24"><a xlink:href="425-useless-prefetch_8cc.html" target="_top" xlink:title=" ">
<polygon fill="none" stroke="black" points="3157.5,-6 3157.5,-36 3291.5,-36 3291.5,-6 3157.5,-6"/>
<text text-anchor="start" x="3165.5" y="-24" font-family="Helvetica,sans-Serif" font-size="10.00">test/cpp/src/425&#45;useless</text>
<text text-anchor="middle" x="3224.5" y="-13" font-family="Helvetica,sans-Serif" font-size="10.00">&#45;prefetch.cc</text>
</a>
</g>
</g>
<!-- Node1&#45;&gt;Node24 -->
<g id="edge23" class="edge">
<title>Node1&#45;&gt;Node24</title>
<path fill="none" stroke="midnightblue" d="M2569.09,-86.52C2681.33,-84.8 2936.89,-77 3148.5,-42 3157.65,-40.49 3167.31,-38.37 3176.55,-36.07"/>
<polygon fill="midnightblue" stroke="midnightblue" points="2568.95,-83.02 2559,-86.67 2569.05,-90.02 2568.95,-83.02"/>
</g>
<!-- Node25 -->
<g id="node25" class="node">
<title>Node25</title>
<g id="a_node25"><a xlink:href="426-internal-pq-size_8cc.html" target="_top" xlink:title=" ">
<polygon fill="none" stroke="black" points="3310,-6 3310,-36 3445,-36 3445,-6 3310,-6"/>
<text text-anchor="start" x="3318" y="-24" font-family="Helvetica,sans-Serif" font-size="10.00">test/cpp/src/426&#45;internal</text>
<text text-anchor="middle" x="3377.5" y="-13" font-family="Helvetica,sans-Serif" font-size="10.00">&#45;pq&#45;size.cc</text>
</a>
</g>
</g>
<!-- Node1&#45;&gt;Node25 -->
<g id="edge24" class="edge">
<title>Node1&#45;&gt;Node25</title>
<path fill="none" stroke="midnightblue" d="M2569.65,-87.59C2700.86,-88.06 3029.63,-84.48 3300.5,-42 3309.91,-40.52 3319.85,-38.39 3329.34,-36.06"/>
<polygon fill="midnightblue" stroke="midnightblue" points="2569.44,-84.09 2559.43,-87.54 2569.41,-91.09 2569.44,-84.09"/>
</g>
<!-- Node26 -->
<g id="node26" class="node">
<title>Node26</title>
<g id="a_node26"><a xlink:href="431-merge-prefetch_8cc.html" target="_top" xlink:title=" ">
<polygon fill="none" stroke="black" points="3463,-6 3463,-36 3592,-36 3592,-6 3463,-6"/>
<text text-anchor="start" x="3471" y="-24" font-family="Helvetica,sans-Serif" font-size="10.00">test/cpp/src/431&#45;merge</text>
<text text-anchor="middle" x="3527.5" y="-13" font-family="Helvetica,sans-Serif" font-size="10.00">&#45;prefetch.cc</text>
</a>
</g>
</g>
<!-- Node1&#45;&gt;Node26 -->
<g id="edge25" class="edge">
<title>Node1&#45;&gt;Node26</title>
<path fill="none" stroke="midnightblue" d="M2569.3,-85.9C2746.83,-82.28 3282.6,-69.31 3454.5,-42 3463.58,-40.56 3473.16,-38.41 3482.28,-36.05"/>
<polygon fill="midnightblue" stroke="midnightblue" points="2569.05,-82.41 2559.12,-86.11 2569.19,-89.41 2569.05,-82.41"/>
</g>
<!-- Node27 -->
<g id="node27" class="node">
<title>Node27</title>
<g id="a_node27"><a xlink:href="432-prefetch-metadata_8cc.html" target="_top" xlink:title=" ">
<polygon fill="none" stroke="black" points="3610.5,-6 3610.5,-36 3748.5,-36 3748.5,-6 3610.5,-6"/>
<text text-anchor="start" x="3618.5" y="-24" font-family="Helvetica,sans-Serif" font-size="10.00">test/cpp/src/432&#45;prefetch</text>
<text text-anchor="middle" x="3679.5" y="-13" font-family="Helvetica,sans-Serif" font-size="10.00">&#45;metadata.cc</text>
</a>
</g>
</g>
<!-- Node1&#45;&gt;Node27 -->
<g id="edge26" class="edge">
<title>Node1&#45;&gt;Node27</title>
<path fill="none" stroke="midnightblue" d="M2569.17,-86.21C2764.39,-83.31 3399.47,-71.74 3601.5,-42 3611.18,-40.58 3621.4,-38.43 3631.14,-36.08"/>
<polygon fill="midnightblue" stroke="midnightblue" points="2569.06,-82.72 2559.11,-86.36 2569.16,-89.71 2569.06,-82.72"/>
</g>
<!-- Node28 -->
<g id="node28" class="node">
<title>Node28</title>
<g id="a_node28"><a xlink:href="441-replacement-bypass_8cc.html" target="_top" xlink:title=" ">
<polygon fill="none" stroke="black" points="3767,-6 3767,-36 3926,-36 3926,-6 3767,-6"/>
<text text-anchor="start" x="3775" y="-24" font-family="Helvetica,sans-Serif" font-size="10.00">test/cpp/src/441&#45;replacement</text>
<text text-anchor="middle" x="3846.5" y="-13" font-family="Helvetica,sans-Serif" font-size="10.00">&#45;bypass.cc</text>
</a>
</g>
</g>
<!-- Node1&#45;&gt;Node28 -->
<g id="edge27" class="edge">
<title>Node1&#45;&gt;Node28</title>
<path fill="none" stroke="midnightblue" d="M2569.36,-86.33C2782.45,-83.64 3523.18,-72.29 3757.5,-42 3768.49,-40.58 3780.13,-38.44 3791.24,-36.08"/>
<polygon fill="midnightblue" stroke="midnightblue" points="2569.28,-82.83 2559.32,-86.46 2569.37,-89.83 2569.28,-82.83"/>
</g>
<!-- Node29 -->
<g id="node29" class="node">
<title>Node29</title>
<g id="a_node29"><a xlink:href="442-replacement-interface_8cc.html" target="_top" xlink:title=" ">
<polygon fill="none" stroke="black" points="3944,-6 3944,-36 4103,-36 4103,-6 3944,-6"/>
<text text-anchor="start" x="3952" y="-24" font-family="Helvetica,sans-Serif" font-size="10.00">test/cpp/src/442&#45;replacement</text>
<text text-anchor="middle" x="4023.5" y="-13" font-family="Helvetica,sans-Serif" font-size="10.00">&#45;interface.cc</text>
</a>
</g>
</g>
<!-- Node1&#45;&gt;Node29 -->
<g id="edge28" class="edge">
<title>Node1&#45;&gt;Node29</title>
<path fill="none" stroke="midnightblue" d="M2569.33,-86.65C2801.26,-85.03 3664.58,-76.74 3935.5,-42 3946.53,-40.59 3958.22,-38.42 3969.34,-36.02"/>
<polygon fill="midnightblue" stroke="midnightblue" points="2569.06,-83.15 2559.08,-86.72 2569.11,-90.15 2569.06,-83.15"/>
</g>
<!-- Node30 -->
<g id="node30" class="node">
<title>Node30</title>
<g id="a_node30"><a xlink:href="451-next-line-behavior_8cc.html" target="_top" xlink:title=" ">
<polygon fill="none" stroke="black" points="4121,-6 4121,-36 4240,-36 4240,-6 4121,-6"/>
<text text-anchor="start" x="4129" y="-24" font-family="Helvetica,sans-Serif" font-size="10.00">test/cpp/src/451&#45;next</text>
<text text-anchor="middle" x="4180.5" y="-13" font-family="Helvetica,sans-Serif" font-size="10.00">&#45;line&#45;behavior.cc</text>
</a>
</g>
</g>
<!-- Node1&#45;&gt;Node30 -->
<g id="edge29" class="edge">
<title>Node1&#45;&gt;Node30</title>
<path fill="none" stroke="midnightblue" d="M2569.45,-87.37C2819.39,-88.65 3806.38,-90.48 4112.5,-42 4121.13,-40.63 4130.2,-38.49 4138.81,-36.1"/>
<polygon fill="midnightblue" stroke="midnightblue" points="2569.15,-83.87 2559.14,-87.31 2569.12,-90.87 2569.15,-83.87"/>
</g>
<!-- Node31 -->
<g id="node31" class="node">
<title>Node31</title>
<g id="a_node31"><a xlink:href="452-ip-stride-behavior_8cc.html" target="_top" xlink:title=" ">
<polygon fill="none" stroke="black" points="4258,-6 4258,-36 4365,-36 4365,-6 4258,-6"/>
<text text-anchor="start" x="4266" y="-24" font-family="Helvetica,sans-Serif" font-size="10.00">test/cpp/src/452&#45;ip</text>
<text text-anchor="middle" x="4311.5" y="-13" font-family="Helvetica,sans-Serif" font-size="10.00">&#45;stride&#45;behavior.cc</text>
</a>
</g>
</g>
<!-- Node1&#45;&gt;Node31 -->
<g id="edge30" class="edge">
<title>Node1&#45;&gt;Node31</title>
<path fill="none" stroke="midnightblue" d="M2569.35,-86.48C2852.01,-83.83 4081.15,-70.72 4249.5,-42 4257.53,-40.63 4265.94,-38.45 4273.89,-36.02"/>
<polygon fill="midnightblue" stroke="midnightblue" points="2569.27,-82.98 2559.31,-86.58 2569.34,-89.98 2569.27,-82.98"/>
</g>
<!-- Node32 -->
<g id="node32" class="node">
<title>Node32</title>
<g id="a_node32"><a xlink:href="453-va-ampm-lite-behavior_8cc.html" target="_top" xlink:title=" ">
<polygon fill="none" stroke="black" points="4383,-6 4383,-36 4514,-36 4514,-6 4383,-6"/>
<text text-anchor="start" x="4391" y="-24" font-family="Helvetica,sans-Serif" font-size="10.00">test/cpp/src/453&#45;va</text>
<text text-anchor="middle" x="4448.5" y="-13" font-family="Helvetica,sans-Serif" font-size="10.00">&#45;ampm&#45;lite&#45;behavior.cc</text>
</a>
</g>
</g>
<!-- Node1&#45;&gt;Node32 -->
<g id="edge31" class="edge">
<title>Node1&#45;&gt;Node32</title>
<path fill="none" stroke="midnightblue" d="M2569.14,-86.43C2863.51,-83.41 4192.45,-68.41 4374.5,-42 4383.98,-40.62 4393.98,-38.44 4403.46,-36.01"/>
<polygon fill="midnightblue" stroke="midnightblue" points="2569.07,-82.93 2559.1,-86.53 2569.14,-89.93 2569.07,-82.93"/>
</g>
<!-- Node33 -->
<g id="node33" class="node">
<title>Node33</title>
<g id="a_node33"><a xlink:href="600-ptw-path_8cc.html" target="_top" xlink:title=" ">
<polygon fill="none" stroke="black" points="4532.5,-6 4532.5,-36 4648.5,-36 4648.5,-6 4532.5,-6"/>
<text text-anchor="start" x="4540.5" y="-24" font-family="Helvetica,sans-Serif" font-size="10.00">test/cpp/src/600&#45;ptw</text>
<text text-anchor="middle" x="4590.5" y="-13" font-family="Helvetica,sans-Serif" font-size="10.00">&#45;path.cc</text>
</a>
</g>
</g>
<!-- Node1&#45;&gt;Node33 -->
<g id="edge32" class="edge">
<title>Node1&#45;&gt;Node33</title>
<path fill="none" stroke="midnightblue" d="M2569.22,-86.63C2877.82,-84.53 4326.31,-73.06 4523.5,-42 4532.13,-40.64 4541.21,-38.46 4549.8,-36.04"/>
<polygon fill="midnightblue" stroke="midnightblue" points="2569.13,-83.13 2559.15,-86.7 2569.17,-90.13 2569.13,-83.13"/>
</g>
<!-- Node34 -->
<g id="node34" class="node">
<title>Node34</title>
<g id="a_node34"><a xlink:href="601-multiple-inflight-walks_8cc.html" target="_top" xlink:title=" ">
<polygon fill="none" stroke="black" points="4666.5,-6 4666.5,-36 4804.5,-36 4804.5,-6 4666.5,-6"/>
<text text-anchor="start" x="4674.5" y="-24" font-family="Helvetica,sans-Serif" font-size="10.00">test/cpp/src/601&#45;multiple</text>
<text text-anchor="middle" x="4735.5" y="-13" font-family="Helvetica,sans-Serif" font-size="10.00">&#45;inflight&#45;walks.cc</text>
</a>
</g>
</g>
<!-- Node1&#45;&gt;Node34 -->
<g id="edge33" class="edge">
<title>Node1&#45;&gt;Node34</title>
<path fill="none" stroke="midnightblue" d="M2569.4,-86.58C2890.51,-84.15 4445.77,-70.97 4657.5,-42 4667.47,-40.64 4678.01,-38.46 4687.99,-36.03"/>
<polygon fill="midnightblue" stroke="midnightblue" points="2569.35,-83.08 2559.38,-86.66 2569.41,-90.08 2569.35,-83.08"/>
</g>
<!-- Node35 -->
<g id="node35" class="node">
<title>Node35</title>
<g id="a_node35"><a xlink:href="602-walk-latency_8cc.html" target="_top" xlink:title=" ">
<polygon fill="none" stroke="black" points="4823,-6 4823,-36 4944,-36 4944,-6 4823,-6"/>
<text text-anchor="start" x="4831" y="-24" font-family="Helvetica,sans-Serif" font-size="10.00">test/cpp/src/602&#45;walk</text>
<text text-anchor="middle" x="4883.5" y="-13" font-family="Helvetica,sans-Serif" font-size="10.00">&#45;latency.cc</text>
</a>
</g>
</g>
<!-- Node1&#45;&gt;Node35 -->
<g id="edge34" class="edge">
<title>Node1&#45;&gt;Node35</title>
<path fill="none" stroke="midnightblue" d="M2569.78,-86.76C2905.53,-85.27 4585.95,-76.14 4813.5,-42 4822.5,-40.65 4831.97,-38.48 4840.94,-36.05"/>
<polygon fill="midnightblue" stroke="midnightblue" points="2569.31,-83.26 2559.32,-86.81 2569.34,-90.26 2569.31,-83.26"/>
</g>
<!-- Node36 -->
<g id="node36" class="node">
<title>Node36</title>
<g id="a_node36"><a xlink:href="603-pte-page-correctness_8cc.html" target="_top" xlink:title=" ">
<polygon fill="none" stroke="black" points="4962.5,-6 4962.5,-36 5080.5,-36 5080.5,-6 4962.5,-6"/>
<text text-anchor="start" x="4970.5" y="-24" font-family="Helvetica,sans-Serif" font-size="10.00">test/cpp/src/603&#45;pte</text>
<text text-anchor="middle" x="5021.5" y="-13" font-family="Helvetica,sans-Serif" font-size="10.00">&#45;page&#45;correctness.cc</text>
</a>
</g>
</g>
<!-- Node1&#45;&gt;Node36 -->
<g id="edge35" class="edge">
<title>Node1&#45;&gt;Node36</title>
<path fill="none" stroke="midnightblue" d="M2569.16,-86.86C2915.36,-85.9 4711.28,-79.16 4953.5,-42 4962.26,-40.66 4971.47,-38.49 4980.18,-36.06"/>
<polygon fill="midnightblue" stroke="midnightblue" points="2569.1,-83.36 2559.11,-86.89 2569.12,-90.36 2569.1,-83.36"/>
</g>
<!-- Node37 -->
<g id="node37" class="node">
<title>Node37</title>
<g id="a_node37"><a xlink:href="900-btb-bounds-check_8cc.html" target="_top" xlink:title=" ">
<polygon fill="none" stroke="black" points="5099,-6 5099,-36 5212,-36 5212,-6 5099,-6"/>
<text text-anchor="start" x="5107" y="-24" font-family="Helvetica,sans-Serif" font-size="10.00">test/cpp/src/900&#45;btb</text>
<text text-anchor="middle" x="5155.5" y="-13" font-family="Helvetica,sans-Serif" font-size="10.00">&#45;bounds&#45;check.cc</text>
</a>
</g>
</g>
<!-- Node1&#45;&gt;Node37 -->
<g id="edge36" class="edge">
<title>Node1&#45;&gt;Node37</title>
<path fill="none" stroke="midnightblue" d="M2569.21,-86.95C2926.78,-86.51 4833.2,-82.27 5089.5,-42 5098.02,-40.66 5106.96,-38.49 5115.42,-36.07"/>
<polygon fill="midnightblue" stroke="midnightblue" points="2569.08,-83.45 2559.08,-86.96 2569.09,-90.45 2569.08,-83.45"/>
</g>
</g>
</svg>
