<?xml version="1.0" encoding="UTF-8" standalone="no"?>
<!DOCTYPE svg PUBLIC "-//W3C//DTD SVG 1.1//EN"
 "http://www.w3.org/Graphics/SVG/1.1/DTD/svg11.dtd">
<!-- Generated by graphviz version 2.43.0 (0)
 -->
<!-- Title: inc/defaults.hpp Pages: 1 -->
<svg width="2097pt" height="308pt"
 viewBox="0.00 0.00 2097.45 308.00" xmlns="http://www.w3.org/2000/svg" xmlns:xlink="http://www.w3.org/1999/xlink">
<g id="graph0" class="graph" transform="scale(1 1) rotate(0) translate(4 304)">
<title>inc/defaults.hpp</title>
<!-- Node1 -->
<g id="node1" class="node">
<title>Node1</title>
<g id="a_node1"><a xlink:title=" ">
<polygon fill="#bfbfbf" stroke="black" points="976.8,-280.5 976.8,-299.5 1071.8,-299.5 1071.8,-280.5 976.8,-280.5"/>
<text text-anchor="middle" x="1024.3" y="-287.5" font-family="Helvetica,sans-Serif" font-size="10.00">inc/defaults.hpp</text>
</a>
</g>
</g>
<!-- Node2 -->
<g id="node2" class="node">
<title>Node2</title>
<g id="a_node2"><a xlink:href="cache_8h.html" target="_top" xlink:title=" ">
<polygon fill="none" stroke="black" points="800.3,-224.5 800.3,-243.5 854.3,-243.5 854.3,-224.5 800.3,-224.5"/>
<text text-anchor="middle" x="827.3" y="-231.5" font-family="Helvetica,sans-Serif" font-size="10.00">cache.h</text>
</a>
</g>
</g>
<!-- Node1&#45;&gt;Node2 -->
<g id="edge1" class="edge">
<title>Node1&#45;&gt;Node2</title>
<path fill="none" stroke="midnightblue" d="M993.09,-280.44C958.18,-270.87 901.67,-255.39 864.5,-245.2"/>
<polygon fill="midnightblue" stroke="midnightblue" points="865.13,-241.74 854.56,-242.47 863.28,-248.49 865.13,-241.74"/>
</g>
<!-- Node13 -->
<g id="node13" class="node">
<title>Node13</title>
<g id="a_node13"><a xlink:title=" ">
<polygon fill="none" stroke="#bfbfbf" points="1483.8,-168.5 1483.8,-187.5 1612.8,-187.5 1612.8,-168.5 1483.8,-168.5"/>
<text text-anchor="middle" x="1548.3" y="-175.5" font-family="Helvetica,sans-Serif" font-size="10.00">champsim_constants.h</text>
</a>
</g>
</g>
<!-- Node1&#45;&gt;Node13 -->
<g id="edge26" class="edge">
<title>Node1&#45;&gt;Node13</title>
<path fill="none" stroke="midnightblue" d="M1072.12,-280.85C1121.4,-272.29 1200.4,-258.13 1268.3,-244 1352.01,-226.57 1449.09,-203.36 1504.15,-189.91"/>
<polygon fill="midnightblue" stroke="midnightblue" points="1505.05,-193.29 1513.93,-187.51 1503.38,-186.49 1505.05,-193.29"/>
</g>
<!-- Node23 -->
<g id="node23" class="node">
<title>Node23</title>
<g id="a_node23"><a xlink:href="ooo__cpu_8h.html" target="_top" xlink:title=" ">
<polygon fill="none" stroke="black" points="1193.3,-224.5 1193.3,-243.5 1259.3,-243.5 1259.3,-224.5 1193.3,-224.5"/>
<text text-anchor="middle" x="1226.3" y="-231.5" font-family="Helvetica,sans-Serif" font-size="10.00">ooo_cpu.h</text>
</a>
</g>
</g>
<!-- Node1&#45;&gt;Node23 -->
<g id="edge27" class="edge">
<title>Node1&#45;&gt;Node23</title>
<path fill="none" stroke="midnightblue" d="M1056.31,-280.44C1091.03,-271.16 1146.59,-256.31 1184.68,-246.13"/>
<polygon fill="midnightblue" stroke="midnightblue" points="1185.69,-249.48 1194.44,-243.52 1183.88,-242.72 1185.69,-249.48"/>
</g>
<!-- Node36 -->
<g id="node36" class="node">
<title>Node36</title>
<g id="a_node36"><a xlink:href="ptw_8h.html" target="_top" xlink:title=" ">
<polygon fill="none" stroke="black" points="134.8,-224.5 134.8,-243.5 177.8,-243.5 177.8,-224.5 134.8,-224.5"/>
<text text-anchor="middle" x="156.3" y="-231.5" font-family="Helvetica,sans-Serif" font-size="10.00">ptw.h</text>
</a>
</g>
</g>
<!-- Node1&#45;&gt;Node36 -->
<g id="edge65" class="edge">
<title>Node1&#45;&gt;Node36</title>
<path fill="none" stroke="midnightblue" d="M976.71,-286.04C819.61,-276.27 320.09,-245.19 188.39,-237"/>
<polygon fill="midnightblue" stroke="midnightblue" points="188.36,-233.49 178.17,-236.36 187.93,-240.47 188.36,-233.49"/>
</g>
<!-- Node3 -->
<g id="node3" class="node">
<title>Node3</title>
<g id="a_node3"><a xlink:title=" ">
<polygon fill="none" stroke="#bfbfbf" points="1148.3,-112.5 1148.3,-131.5 1190.3,-131.5 1190.3,-112.5 1148.3,-112.5"/>
<text text-anchor="middle" x="1169.3" y="-119.5" font-family="Helvetica,sans-Serif" font-size="10.00">array</text>
</a>
</g>
</g>
<!-- Node2&#45;&gt;Node3 -->
<g id="edge2" class="edge">
<title>Node2&#45;&gt;Node3</title>
<path fill="none" stroke="midnightblue" d="M822.85,-224.16C816.59,-210.33 807.42,-183.56 821.3,-168 867.89,-115.74 1065.46,-144.75 1134.3,-132 1135.55,-131.77 1136.82,-131.52 1138.1,-131.25"/>
<polygon fill="midnightblue" stroke="midnightblue" points="1138.97,-134.64 1147.93,-128.99 1137.4,-127.82 1138.97,-134.64"/>
</g>
<!-- Node4 -->
<g id="node4" class="node">
<title>Node4</title>
<g id="a_node4"><a xlink:title=" ">
<polygon fill="none" stroke="#bfbfbf" points="830.3,-168.5 830.3,-187.5 874.3,-187.5 874.3,-168.5 830.3,-168.5"/>
<text text-anchor="middle" x="852.3" y="-175.5" font-family="Helvetica,sans-Serif" font-size="10.00">bitset</text>
</a>
</g>
</g>
<!-- Node2&#45;&gt;Node4 -->
<g id="edge3" class="edge">
<title>Node2&#45;&gt;Node4</title>
<path fill="none" stroke="midnightblue" d="M831.43,-224.08C834.81,-216.77 839.72,-206.18 843.92,-197.1"/>
<polygon fill="midnightblue" stroke="midnightblue" points="847.22,-198.3 848.25,-187.75 840.87,-195.36 847.22,-198.3"/>
</g>
<!-- Node5 -->
<g id="node5" class="node">
<title>Node5</title>
<g id="a_node5"><a xlink:title=" ">
<polygon fill="none" stroke="#bfbfbf" points="672.8,-112.5 672.8,-131.5 719.8,-131.5 719.8,-112.5 672.8,-112.5"/>
<text text-anchor="middle" x="696.3" y="-119.5" font-family="Helvetica,sans-Serif" font-size="10.00">deque</text>
</a>
</g>
</g>
<!-- Node2&#45;&gt;Node5 -->
<g id="edge4" class="edge">
<title>Node2&#45;&gt;Node5</title>
<path fill="none" stroke="midnightblue" d="M800.24,-233C690.83,-232.74 285.24,-229 247.3,-188 189.77,-125.84 540.11,-141.28 624.3,-132 636.79,-130.62 650.49,-128.95 662.54,-127.43"/>
<polygon fill="midnightblue" stroke="midnightblue" points="663.17,-130.87 672.65,-126.13 662.29,-123.93 663.17,-130.87"/>
</g>
<!-- Node6 -->
<g id="node6" class="node">
<title>Node6</title>
<g id="a_node6"><a xlink:title=" ">
<polygon fill="none" stroke="#bfbfbf" points="1087.3,-168.5 1087.3,-187.5 1145.3,-187.5 1145.3,-168.5 1087.3,-168.5"/>
<text text-anchor="middle" x="1116.3" y="-175.5" font-family="Helvetica,sans-Serif" font-size="10.00">memory</text>
</a>
</g>
</g>
<!-- Node2&#45;&gt;Node6 -->
<g id="edge5" class="edge">
<title>Node2&#45;&gt;Node6</title>
<path fill="none" stroke="midnightblue" d="M854.39,-228.57C898.7,-221.23 989.63,-205.75 1077.12,-187.95"/>
<polygon fill="midnightblue" stroke="midnightblue" points="1077.85,-191.37 1086.95,-185.94 1076.45,-184.51 1077.85,-191.37"/>
</g>
<!-- Node7 -->
<g id="node7" class="node">
<title>Node7</title>
<g id="a_node7"><a xlink:title=" ">
<polygon fill="none" stroke="#bfbfbf" points="1163.8,-168.5 1163.8,-187.5 1228.8,-187.5 1228.8,-168.5 1163.8,-168.5"/>
<text text-anchor="middle" x="1196.3" y="-175.5" font-family="Helvetica,sans-Serif" font-size="10.00">stdexcept</text>
</a>
</g>
</g>
<!-- Node2&#45;&gt;Node7 -->
<g id="edge6" class="edge">
<title>Node2&#45;&gt;Node7</title>
<path fill="none" stroke="midnightblue" d="M854.54,-229.95C909.23,-223.67 1036.46,-208.31 1153.91,-187.95"/>
<polygon fill="midnightblue" stroke="midnightblue" points="1154.54,-191.39 1163.79,-186.22 1153.33,-184.49 1154.54,-191.39"/>
</g>
<!-- Node8 -->
<g id="node8" class="node">
<title>Node8</title>
<g id="a_node8"><a xlink:title=" ">
<polygon fill="none" stroke="#bfbfbf" points="50.3,-168.5 50.3,-187.5 94.3,-187.5 94.3,-168.5 50.3,-168.5"/>
<text text-anchor="middle" x="72.3" y="-175.5" font-family="Helvetica,sans-Serif" font-size="10.00">string</text>
</a>
</g>
</g>
<!-- Node2&#45;&gt;Node8 -->
<g id="edge7" class="edge">
<title>Node2&#45;&gt;Node8</title>
<path fill="none" stroke="midnightblue" d="M800.1,-233.46C705.18,-234.6 379.99,-234.75 104.7,-187.85"/>
<polygon fill="midnightblue" stroke="midnightblue" points="104.96,-184.34 94.51,-186.08 103.77,-191.24 104.96,-184.34"/>
</g>
<!-- Node9 -->
<g id="node9" class="node">
<title>Node9</title>
<g id="a_node9"><a xlink:title=" ">
<polygon fill="none" stroke="#bfbfbf" points="866.8,-56.5 866.8,-75.5 913.8,-75.5 913.8,-56.5 866.8,-56.5"/>
<text text-anchor="middle" x="890.3" y="-63.5" font-family="Helvetica,sans-Serif" font-size="10.00">vector</text>
</a>
</g>
</g>
<!-- Node2&#45;&gt;Node9 -->
<g id="edge8" class="edge">
<title>Node2&#45;&gt;Node9</title>
<path fill="none" stroke="midnightblue" d="M800.28,-230.77C769.66,-226.9 719.9,-216.4 688.3,-188 661.85,-164.23 640.73,-139.48 663.3,-112 687.36,-82.7 799.35,-72.14 856.52,-68.62"/>
<polygon fill="midnightblue" stroke="midnightblue" points="856.74,-72.11 866.52,-68.04 856.34,-65.12 856.74,-72.11"/>
</g>
<!-- Node10 -->
<g id="node10" class="node">
<title>Node10</title>
<g id="a_node10"><a xlink:href="champsim_8h.html" target="_top" xlink:title=" ">
<polygon fill="none" stroke="black" points="1323.8,-168.5 1323.8,-187.5 1400.8,-187.5 1400.8,-168.5 1323.8,-168.5"/>
<text text-anchor="middle" x="1362.3" y="-175.5" font-family="Helvetica,sans-Serif" font-size="10.00">champsim.h</text>
</a>
</g>
</g>
<!-- Node2&#45;&gt;Node10 -->
<g id="edge9" class="edge">
<title>Node2&#45;&gt;Node10</title>
<path fill="none" stroke="midnightblue" d="M854.57,-230.25C940.07,-221.62 1203.76,-195 1313.55,-183.92"/>
<polygon fill="midnightblue" stroke="midnightblue" points="1314.08,-187.38 1323.68,-182.9 1313.38,-180.42 1314.08,-187.38"/>
</g>
<!-- Node2&#45;&gt;Node13 -->
<g id="edge12" class="edge">
<title>Node2&#45;&gt;Node13</title>
<path fill="none" stroke="midnightblue" d="M854.46,-231.61C942.26,-227.03 1226.52,-211.35 1473.5,-188.02"/>
<polygon fill="midnightblue" stroke="midnightblue" points="1474.12,-191.48 1483.75,-187.05 1473.46,-184.51 1474.12,-191.48"/>
</g>
<!-- Node14 -->
<g id="node14" class="node">
<title>Node14</title>
<g id="a_node14"><a xlink:href="channel_8h.html" target="_top" xlink:title=" ">
<polygon fill="none" stroke="black" points="710.3,-168.5 710.3,-187.5 774.3,-187.5 774.3,-168.5 710.3,-168.5"/>
<text text-anchor="middle" x="742.3" y="-175.5" font-family="Helvetica,sans-Serif" font-size="10.00">channel.h</text>
</a>
</g>
</g>
<!-- Node2&#45;&gt;Node14 -->
<g id="edge13" class="edge">
<title>Node2&#45;&gt;Node14</title>
<path fill="none" stroke="midnightblue" d="M813.64,-224.32C800.38,-215.9 780.03,-202.97 764.45,-193.07"/>
<polygon fill="midnightblue" stroke="midnightblue" points="766.24,-190.06 755.92,-187.65 762.49,-195.97 766.24,-190.06"/>
</g>
<!-- Node18 -->
<g id="node18" class="node">
<title>Node18</title>
<g id="a_node18"><a xlink:href="module__impl_8h.html" target="_top" xlink:title=" ">
<polygon fill="none" stroke="black" points="892.8,-168.5 892.8,-187.5 981.8,-187.5 981.8,-168.5 892.8,-168.5"/>
<text text-anchor="middle" x="937.3" y="-175.5" font-family="Helvetica,sans-Serif" font-size="10.00">module_impl.h</text>
</a>
</g>
</g>
<!-- Node2&#45;&gt;Node18 -->
<g id="edge21" class="edge">
<title>Node2&#45;&gt;Node18</title>
<path fill="none" stroke="midnightblue" d="M844.97,-224.32C862.7,-215.62 890.2,-202.12 910.59,-192.11"/>
<polygon fill="midnightblue" stroke="midnightblue" points="912.24,-195.2 919.67,-187.65 909.15,-188.92 912.24,-195.2"/>
</g>
<!-- Node19 -->
<g id="node19" class="node">
<title>Node19</title>
<g id="a_node19"><a xlink:href="operable_8h.html" target="_top" xlink:title=" ">
<polygon fill="none" stroke="black" points="404.3,-168.5 404.3,-187.5 472.3,-187.5 472.3,-168.5 404.3,-168.5"/>
<text text-anchor="middle" x="438.3" y="-175.5" font-family="Helvetica,sans-Serif" font-size="10.00">operable.h</text>
</a>
</g>
</g>
<!-- Node2&#45;&gt;Node19 -->
<g id="edge22" class="edge">
<title>Node2&#45;&gt;Node19</title>
<path fill="none" stroke="midnightblue" d="M800.28,-230.2C743.4,-224.16 607,-208.87 482.6,-188.11"/>
<polygon fill="midnightblue" stroke="midnightblue" points="482.97,-184.62 472.52,-186.41 481.8,-191.52 482.97,-184.62"/>
</g>
<!-- Node20 -->
<g id="node20" class="node">
<title>Node20</title>
<g id="a_node20"><a xlink:title=" ">
<polygon fill="none" stroke="#bfbfbf" points="999.8,-168.5 999.8,-187.5 1068.8,-187.5 1068.8,-168.5 999.8,-168.5"/>
<text text-anchor="middle" x="1034.3" y="-175.5" font-family="Helvetica,sans-Serif" font-size="10.00">type_traits</text>
</a>
</g>
</g>
<!-- Node2&#45;&gt;Node20 -->
<g id="edge23" class="edge">
<title>Node2&#45;&gt;Node20</title>
<path fill="none" stroke="midnightblue" d="M854.36,-225.94C889.29,-216.83 950.46,-200.87 991.67,-190.12"/>
<polygon fill="midnightblue" stroke="midnightblue" points="992.63,-193.49 1001.43,-187.58 990.87,-186.71 992.63,-193.49"/>
</g>
<!-- Node21 -->
<g id="node21" class="node">
<title>Node21</title>
<g id="a_node21"><a xlink:title=" ">
<polygon fill="none" stroke="#bfbfbf" points="256.3,-168.5 256.3,-187.5 386.3,-187.5 386.3,-168.5 256.3,-168.5"/>
<text text-anchor="middle" x="321.3" y="-175.5" font-family="Helvetica,sans-Serif" font-size="10.00">cache_module_decl.inc</text>
</a>
</g>
</g>
<!-- Node2&#45;&gt;Node21 -->
<g id="edge24" class="edge">
<title>Node2&#45;&gt;Node21</title>
<path fill="none" stroke="midnightblue" d="M799.99,-230.32C733.12,-223.72 555.64,-206 396.63,-188.13"/>
<polygon fill="midnightblue" stroke="midnightblue" points="396.99,-184.65 386.66,-187.01 396.21,-191.61 396.99,-184.65"/>
</g>
<!-- Node22 -->
<g id="node22" class="node">
<title>Node22</title>
<g id="a_node22"><a xlink:title=" ">
<polygon fill="none" stroke="#bfbfbf" points="490.8,-168.5 490.8,-187.5 615.8,-187.5 615.8,-168.5 490.8,-168.5"/>
<text text-anchor="middle" x="553.3" y="-175.5" font-family="Helvetica,sans-Serif" font-size="10.00">cache_module_def.inc</text>
</a>
</g>
</g>
<!-- Node2&#45;&gt;Node22 -->
<g id="edge25" class="edge">
<title>Node2&#45;&gt;Node22</title>
<path fill="none" stroke="midnightblue" d="M800.03,-227.62C755.08,-218.77 664.65,-200.95 606.65,-189.51"/>
<polygon fill="midnightblue" stroke="midnightblue" points="607.05,-186.03 596.57,-187.53 605.7,-192.89 607.05,-186.03"/>
</g>
<!-- Node11 -->
<g id="node11" class="node">
<title>Node11</title>
<g id="a_node11"><a xlink:title=" ">
<polygon fill="none" stroke="#bfbfbf" points="735.3,-0.5 735.3,-19.5 785.3,-19.5 785.3,-0.5 735.3,-0.5"/>
<text text-anchor="middle" x="760.3" y="-7.5" font-family="Helvetica,sans-Serif" font-size="10.00">cstdint</text>
</a>
</g>
</g>
<!-- Node10&#45;&gt;Node11 -->
<g id="edge10" class="edge">
<title>Node10&#45;&gt;Node11</title>
<path fill="none" stroke="midnightblue" d="M1374.81,-168.3C1391.59,-155.54 1417.71,-131.21 1403.3,-112 1329.76,-13.95 919.15,-9.55 795.53,-10.49"/>
<polygon fill="midnightblue" stroke="midnightblue" points="795.43,-6.99 785.46,-10.58 795.49,-13.99 795.43,-6.99"/>
</g>
<!-- Node12 -->
<g id="node12" class="node">
<title>Node12</title>
<g id="a_node12"><a xlink:title=" ">
<polygon fill="none" stroke="#bfbfbf" points="1329.8,-112.5 1329.8,-131.5 1394.8,-131.5 1394.8,-112.5 1329.8,-112.5"/>
<text text-anchor="middle" x="1362.3" y="-119.5" font-family="Helvetica,sans-Serif" font-size="10.00">exception</text>
</a>
</g>
</g>
<!-- Node10&#45;&gt;Node12 -->
<g id="edge11" class="edge">
<title>Node10&#45;&gt;Node12</title>
<path fill="none" stroke="midnightblue" d="M1362.3,-168.08C1362.3,-161.01 1362.3,-150.86 1362.3,-141.99"/>
<polygon fill="midnightblue" stroke="midnightblue" points="1365.8,-141.75 1362.3,-131.75 1358.8,-141.75 1365.8,-141.75"/>
</g>
<!-- Node14&#45;&gt;Node3 -->
<g id="edge14" class="edge">
<title>Node14&#45;&gt;Node3</title>
<path fill="none" stroke="midnightblue" d="M774.41,-170.34C779.06,-169.48 783.79,-168.67 788.3,-168 941.21,-145.13 982.13,-159.33 1134.3,-132 1135.55,-131.78 1136.82,-131.53 1138.1,-131.27"/>
<polygon fill="midnightblue" stroke="midnightblue" points="1138.97,-134.66 1147.94,-129.03 1137.41,-127.84 1138.97,-134.66"/>
</g>
<!-- Node14&#45;&gt;Node5 -->
<g id="edge16" class="edge">
<title>Node14&#45;&gt;Node5</title>
<path fill="none" stroke="midnightblue" d="M734.7,-168.08C728.07,-160.3 718.28,-148.8 710.24,-139.37"/>
<polygon fill="midnightblue" stroke="midnightblue" points="712.9,-137.09 703.76,-131.75 707.58,-141.63 712.9,-137.09"/>
</g>
<!-- Node14&#45;&gt;Node9 -->
<g id="edge19" class="edge">
<title>Node14&#45;&gt;Node9</title>
<path fill="none" stroke="midnightblue" d="M774.52,-169.22C807.85,-160.57 856.87,-145.97 870.3,-132 882.18,-119.64 887.02,-100.39 888.98,-86.05"/>
<polygon fill="midnightblue" stroke="midnightblue" points="892.49,-86.12 890.02,-75.82 885.53,-85.41 892.49,-86.12"/>
</g>
<!-- Node14&#45;&gt;Node11 -->
<g id="edge15" class="edge">
<title>Node14&#45;&gt;Node11</title>
<path fill="none" stroke="midnightblue" d="M743.27,-168.08C746.1,-141.95 754.42,-65.21 758.29,-29.58"/>
<polygon fill="midnightblue" stroke="midnightblue" points="761.77,-29.89 759.37,-19.57 754.81,-29.13 761.77,-29.89"/>
</g>
<!-- Node15 -->
<g id="node15" class="node">
<title>Node15</title>
<g id="a_node15"><a xlink:title=" ">
<polygon fill="none" stroke="#bfbfbf" points="1246.8,-112.5 1246.8,-131.5 1311.8,-131.5 1311.8,-112.5 1246.8,-112.5"/>
<text text-anchor="middle" x="1279.3" y="-119.5" font-family="Helvetica,sans-Serif" font-size="10.00">functional</text>
</a>
</g>
</g>
<!-- Node14&#45;&gt;Node15 -->
<g id="edge17" class="edge">
<title>Node14&#45;&gt;Node15</title>
<path fill="none" stroke="midnightblue" d="M774.57,-173.19C788.88,-171.53 805.92,-169.61 821.3,-168 989.15,-150.45 1031.44,-149.43 1199.3,-132 1211.34,-130.75 1224.4,-129.31 1236.4,-127.96"/>
<polygon fill="midnightblue" stroke="midnightblue" points="1237.08,-131.41 1246.62,-126.8 1236.29,-124.45 1237.08,-131.41"/>
</g>
<!-- Node16 -->
<g id="node16" class="node">
<title>Node16</title>
<g id="a_node16"><a xlink:title=" ">
<polygon fill="none" stroke="#bfbfbf" points="1933.3,-0.5 1933.3,-19.5 1977.3,-19.5 1977.3,-0.5 1933.3,-0.5"/>
<text text-anchor="middle" x="1955.3" y="-7.5" font-family="Helvetica,sans-Serif" font-size="10.00">limits</text>
</a>
</g>
</g>
<!-- Node14&#45;&gt;Node16 -->
<g id="edge18" class="edge">
<title>Node14&#45;&gt;Node16</title>
<path fill="none" stroke="midnightblue" d="M774.36,-171C841.72,-158.55 1003.02,-129.63 1139.3,-112 1306.67,-90.35 1349.78,-96.39 1517.3,-76 1669.37,-57.49 1850.08,-28.41 1922.71,-16.43"/>
<polygon fill="midnightblue" stroke="midnightblue" points="1923.73,-19.81 1933.02,-14.73 1922.58,-12.91 1923.73,-19.81"/>
</g>
<!-- Node17 -->
<g id="node17" class="node">
<title>Node17</title>
<g id="a_node17"><a xlink:title=" ">
<polygon fill="none" stroke="#bfbfbf" points="788.8,-112.5 788.8,-131.5 861.8,-131.5 861.8,-112.5 788.8,-112.5"/>
<text text-anchor="middle" x="825.3" y="-119.5" font-family="Helvetica,sans-Serif" font-size="10.00">string_view</text>
</a>
</g>
</g>
<!-- Node14&#45;&gt;Node17 -->
<g id="edge20" class="edge">
<title>Node14&#45;&gt;Node17</title>
<path fill="none" stroke="midnightblue" d="M755.64,-168.32C768.46,-159.98 788.09,-147.21 803.24,-137.35"/>
<polygon fill="midnightblue" stroke="midnightblue" points="805.53,-140.04 812,-131.65 801.71,-134.17 805.53,-140.04"/>
</g>
<!-- Node23&#45;&gt;Node3 -->
<g id="edge28" class="edge">
<title>Node23&#45;&gt;Node3</title>
<path fill="none" stroke="midnightblue" d="M1231,-224.45C1237.44,-211.46 1247.16,-186.35 1237.3,-168 1229.3,-153.11 1213.96,-142.31 1199.87,-135.04"/>
<polygon fill="midnightblue" stroke="midnightblue" points="1200.96,-131.68 1190.43,-130.56 1197.96,-138.01 1200.96,-131.68"/>
</g>
<!-- Node23&#45;&gt;Node4 -->
<g id="edge29" class="edge">
<title>Node23&#45;&gt;Node4</title>
<path fill="none" stroke="midnightblue" d="M1192.91,-230.32C1132.93,-225.14 1002.94,-212.25 884.51,-187.97"/>
<polygon fill="midnightblue" stroke="midnightblue" points="885.05,-184.51 874.55,-185.9 883.63,-191.36 885.05,-184.51"/>
</g>
<!-- Node23&#45;&gt;Node5 -->
<g id="edge30" class="edge">
<title>Node23&#45;&gt;Node5</title>
<path fill="none" stroke="midnightblue" d="M1193.26,-232.6C1083.5,-230.94 735.96,-222.96 701.3,-188 689.49,-176.09 689.68,-156.18 691.93,-141.53"/>
<polygon fill="midnightblue" stroke="midnightblue" points="695.4,-142.06 693.89,-131.57 688.53,-140.7 695.4,-142.06"/>
</g>
<!-- Node23&#45;&gt;Node6 -->
<g id="edge32" class="edge">
<title>Node23&#45;&gt;Node6</title>
<path fill="none" stroke="midnightblue" d="M1208.63,-224.32C1190.91,-215.62 1163.4,-202.12 1143.01,-192.11"/>
<polygon fill="midnightblue" stroke="midnightblue" points="1144.45,-188.92 1133.93,-187.65 1141.36,-195.2 1144.45,-188.92"/>
</g>
<!-- Node23&#45;&gt;Node7 -->
<g id="edge35" class="edge">
<title>Node23&#45;&gt;Node7</title>
<path fill="none" stroke="midnightblue" d="M1221.35,-224.08C1217.2,-216.61 1211.15,-205.72 1206.03,-196.52"/>
<polygon fill="midnightblue" stroke="midnightblue" points="1209.08,-194.79 1201.16,-187.75 1202.96,-198.19 1209.08,-194.79"/>
</g>
<!-- Node23&#45;&gt;Node9 -->
<g id="edge36" class="edge">
<title>Node23&#45;&gt;Node9</title>
<path fill="none" stroke="midnightblue" d="M1234.82,-224.21C1245.81,-211.76 1262.58,-188.24 1254.3,-168 1241.1,-135.71 1230.41,-127.78 1199.3,-112 1151.59,-87.79 993.78,-74.16 923.99,-69.19"/>
<polygon fill="midnightblue" stroke="midnightblue" points="924.19,-65.7 913.97,-68.49 923.7,-72.68 924.19,-65.7"/>
</g>
<!-- Node23&#45;&gt;Node10 -->
<g id="edge37" class="edge">
<title>Node23&#45;&gt;Node10</title>
<path fill="none" stroke="midnightblue" d="M1247.85,-224.44C1270.33,-215.52 1305.79,-201.44 1331.28,-191.32"/>
<polygon fill="midnightblue" stroke="midnightblue" points="1332.85,-194.46 1340.85,-187.52 1330.27,-187.95 1332.85,-194.46"/>
</g>
<!-- Node23&#45;&gt;Node13 -->
<g id="edge38" class="edge">
<title>Node23&#45;&gt;Node13</title>
<path fill="none" stroke="midnightblue" d="M1259.55,-227.42C1313.19,-218.43 1419.66,-200.57 1487.24,-189.24"/>
<polygon fill="midnightblue" stroke="midnightblue" points="1488.05,-192.65 1497.33,-187.55 1486.89,-185.75 1488.05,-192.65"/>
</g>
<!-- Node23&#45;&gt;Node14 -->
<g id="edge39" class="edge">
<title>Node23&#45;&gt;Node14</title>
<path fill="none" stroke="midnightblue" d="M1193.22,-229.36C1124.13,-221.74 959.44,-203.54 821.3,-188 809.42,-186.66 796.53,-185.2 784.68,-183.85"/>
<polygon fill="midnightblue" stroke="midnightblue" points="784.92,-180.35 774.59,-182.7 784.12,-187.31 784.92,-180.35"/>
</g>
<!-- Node23&#45;&gt;Node16 -->
<g id="edge31" class="edge">
<title>Node23&#45;&gt;Node16</title>
<path fill="none" stroke="midnightblue" d="M1259.4,-232.45C1409.8,-229.79 2022.66,-217.19 2050.3,-188 2072.24,-164.83 2133.57,-202.86 2033.3,-56 2022.25,-39.81 2003.31,-28.68 1986.86,-21.55"/>
<polygon fill="midnightblue" stroke="midnightblue" points="1988.13,-18.28 1977.54,-17.8 1985.51,-24.78 1988.13,-18.28"/>
</g>
<!-- Node23&#45;&gt;Node18 -->
<g id="edge49" class="edge">
<title>Node23&#45;&gt;Node18</title>
<path fill="none" stroke="midnightblue" d="M1193.15,-226.81C1143.95,-217.61 1051.07,-200.26 991.79,-189.18"/>
<polygon fill="midnightblue" stroke="midnightblue" points="992.32,-185.72 981.85,-187.32 991.04,-192.6 992.32,-185.72"/>
</g>
<!-- Node23&#45;&gt;Node19 -->
<g id="edge50" class="edge">
<title>Node23&#45;&gt;Node19</title>
<path fill="none" stroke="midnightblue" d="M1193.09,-232.72C1089.39,-231.48 762.32,-224.8 482.43,-187.95"/>
<polygon fill="midnightblue" stroke="midnightblue" points="482.87,-184.48 472.49,-186.63 481.94,-191.42 482.87,-184.48"/>
</g>
<!-- Node23&#45;&gt;Node20 -->
<g id="edge62" class="edge">
<title>Node23&#45;&gt;Node20</title>
<path fill="none" stroke="midnightblue" d="M1195.88,-224.44C1163.02,-215.2 1110.52,-200.44 1074.33,-190.26"/>
<polygon fill="midnightblue" stroke="midnightblue" points="1075.16,-186.85 1064.58,-187.52 1073.26,-193.59 1075.16,-186.85"/>
</g>
<!-- Node24 -->
<g id="node24" class="node">
<title>Node24</title>
<g id="a_node24"><a xlink:title=" ">
<polygon fill="none" stroke="#bfbfbf" points="1452.3,-56.5 1452.3,-75.5 1508.3,-75.5 1508.3,-56.5 1452.3,-56.5"/>
<text text-anchor="middle" x="1480.3" y="-63.5" font-family="Helvetica,sans-Serif" font-size="10.00">optional</text>
</a>
</g>
</g>
<!-- Node23&#45;&gt;Node24 -->
<g id="edge33" class="edge">
<title>Node23&#45;&gt;Node24</title>
<path fill="none" stroke="midnightblue" d="M1259.71,-232.4C1408.69,-229.59 2006.3,-216.55 2033.3,-188 2106.85,-110.23 1654.87,-77.2 1518.43,-69.08"/>
<polygon fill="midnightblue" stroke="midnightblue" points="1518.61,-65.59 1508.43,-68.5 1518.2,-72.57 1518.61,-65.59"/>
</g>
<!-- Node25 -->
<g id="node25" class="node">
<title>Node25</title>
<g id="a_node25"><a xlink:title=" ">
<polygon fill="none" stroke="#bfbfbf" points="1418.8,-168.5 1418.8,-187.5 1465.8,-187.5 1465.8,-168.5 1418.8,-168.5"/>
<text text-anchor="middle" x="1442.3" y="-175.5" font-family="Helvetica,sans-Serif" font-size="10.00">queue</text>
</a>
</g>
</g>
<!-- Node23&#45;&gt;Node25 -->
<g id="edge34" class="edge">
<title>Node23&#45;&gt;Node25</title>
<path fill="none" stroke="midnightblue" d="M1259.42,-225.12C1294.19,-216.79 1350.69,-203.09 1408.81,-188.08"/>
<polygon fill="midnightblue" stroke="midnightblue" points="1409.72,-191.46 1418.53,-185.56 1407.97,-184.68 1409.72,-191.46"/>
</g>
<!-- Node26 -->
<g id="node26" class="node">
<title>Node26</title>
<g id="a_node26"><a xlink:href="instruction_8h.html" target="_top" xlink:title=" ">
<polygon fill="none" stroke="black" points="1946.8,-168.5 1946.8,-187.5 2023.8,-187.5 2023.8,-168.5 1946.8,-168.5"/>
<text text-anchor="middle" x="1985.3" y="-175.5" font-family="Helvetica,sans-Serif" font-size="10.00">instruction.h</text>
</a>
</g>
</g>
<!-- Node23&#45;&gt;Node26 -->
<g id="edge40" class="edge">
<title>Node23&#45;&gt;Node26</title>
<path fill="none" stroke="midnightblue" d="M1259.39,-232.34C1359.72,-230.04 1669.42,-220.71 1936.32,-187.95"/>
<polygon fill="midnightblue" stroke="midnightblue" points="1937.1,-191.38 1946.59,-186.68 1936.24,-184.44 1937.1,-191.38"/>
</g>
<!-- Node29 -->
<g id="node29" class="node">
<title>Node29</title>
<g id="a_node29"><a xlink:href="util_2lru__table_8h.html" target="_top" xlink:title=" ">
<polygon fill="none" stroke="black" points="112.8,-168.5 112.8,-187.5 199.8,-187.5 199.8,-168.5 112.8,-168.5"/>
<text text-anchor="middle" x="156.3" y="-175.5" font-family="Helvetica,sans-Serif" font-size="10.00">util/lru_table.h</text>
</a>
</g>
</g>
<!-- Node23&#45;&gt;Node29 -->
<g id="edge51" class="edge">
<title>Node23&#45;&gt;Node29</title>
<path fill="none" stroke="midnightblue" d="M1192.88,-232.1C1068.09,-228.61 617.67,-214.81 247.3,-188 235.3,-187.13 222.43,-185.99 210.26,-184.81"/>
<polygon fill="midnightblue" stroke="midnightblue" points="210.53,-181.32 200.23,-183.82 209.84,-188.29 210.53,-181.32"/>
</g>
<!-- Node34 -->
<g id="node34" class="node">
<title>Node34</title>
<g id="a_node34"><a xlink:title=" ">
<polygon fill="none" stroke="#bfbfbf" points="1631.3,-168.5 1631.3,-187.5 1773.3,-187.5 1773.3,-168.5 1631.3,-168.5"/>
<text text-anchor="middle" x="1702.3" y="-175.5" font-family="Helvetica,sans-Serif" font-size="10.00">ooo_cpu_module_decl.inc</text>
</a>
</g>
</g>
<!-- Node23&#45;&gt;Node34 -->
<g id="edge63" class="edge">
<title>Node23&#45;&gt;Node34</title>
<path fill="none" stroke="midnightblue" d="M1259.39,-229.25C1333.53,-220.83 1514.77,-200.28 1621.01,-188.22"/>
<polygon fill="midnightblue" stroke="midnightblue" points="1621.51,-191.69 1631.05,-187.08 1620.72,-184.73 1621.51,-191.69"/>
</g>
<!-- Node35 -->
<g id="node35" class="node">
<title>Node35</title>
<g id="a_node35"><a xlink:title=" ">
<polygon fill="none" stroke="#bfbfbf" points="1791.8,-168.5 1791.8,-187.5 1928.8,-187.5 1928.8,-168.5 1791.8,-168.5"/>
<text text-anchor="middle" x="1860.3" y="-175.5" font-family="Helvetica,sans-Serif" font-size="10.00">ooo_cpu_module_def.inc</text>
</a>
</g>
</g>
<!-- Node23&#45;&gt;Node35 -->
<g id="edge64" class="edge">
<title>Node23&#45;&gt;Node35</title>
<path fill="none" stroke="midnightblue" d="M1259.55,-230.71C1344.49,-224.76 1576.6,-207.99 1781.37,-188.06"/>
<polygon fill="midnightblue" stroke="midnightblue" points="1781.8,-191.53 1791.41,-187.08 1781.12,-184.57 1781.8,-191.53"/>
</g>
<!-- Node26&#45;&gt;Node3 -->
<g id="edge42" class="edge">
<title>Node26&#45;&gt;Node3</title>
<path fill="none" stroke="midnightblue" d="M1946.6,-169.28C1943.46,-168.8 1940.33,-168.36 1937.3,-168 1627.96,-131.21 1547.52,-160.46 1237.3,-132 1225.23,-130.89 1212,-129.24 1200.44,-127.66"/>
<polygon fill="midnightblue" stroke="midnightblue" points="1200.78,-124.17 1190.39,-126.23 1199.8,-131.1 1200.78,-124.17"/>
</g>
<!-- Node26&#45;&gt;Node9 -->
<g id="edge46" class="edge">
<title>Node26&#45;&gt;Node9</title>
<path fill="none" stroke="midnightblue" d="M1946.59,-169.37C1943.45,-168.87 1940.33,-168.4 1937.3,-168 1733.12,-140.98 1678.13,-167.73 1475.3,-132 1442.59,-126.24 1435.98,-117.92 1403.3,-112 1224.63,-79.63 1006.57,-70.3 924.08,-67.82"/>
<polygon fill="midnightblue" stroke="midnightblue" points="924.12,-64.32 914.03,-67.54 923.92,-71.32 924.12,-64.32"/>
</g>
<!-- Node26&#45;&gt;Node11 -->
<g id="edge43" class="edge">
<title>Node26&#45;&gt;Node11</title>
<path fill="none" stroke="midnightblue" d="M1959.54,-168.45C1889.47,-145.61 1689.11,-83.06 1517.3,-56 1241.66,-12.59 903.56,-10.22 795.36,-10.68"/>
<polygon fill="midnightblue" stroke="midnightblue" points="795.3,-7.18 785.32,-10.74 795.34,-14.18 795.3,-7.18"/>
</g>
<!-- Node26&#45;&gt;Node15 -->
<g id="edge44" class="edge">
<title>Node26&#45;&gt;Node15</title>
<path fill="none" stroke="midnightblue" d="M1946.59,-169.31C1943.46,-168.82 1940.33,-168.37 1937.3,-168 1667.98,-135.03 1594.2,-168.72 1322.07,-132.03"/>
<polygon fill="midnightblue" stroke="midnightblue" points="1322.27,-128.53 1311.89,-130.64 1321.32,-135.46 1322.27,-128.53"/>
</g>
<!-- Node26&#45;&gt;Node16 -->
<g id="edge45" class="edge">
<title>Node26&#45;&gt;Node16</title>
<path fill="none" stroke="midnightblue" d="M1991.63,-168.34C2005.79,-147.83 2037.24,-95.1 2017.3,-56 2010.3,-42.27 1996.94,-31.75 1984.4,-24.35"/>
<polygon fill="midnightblue" stroke="midnightblue" points="1985.98,-21.22 1975.52,-19.51 1982.63,-27.37 1985.98,-21.22"/>
</g>
<!-- Node27 -->
<g id="node27" class="node">
<title>Node27</title>
<g id="a_node27"><a xlink:title=" ">
<polygon fill="none" stroke="#bfbfbf" points="1138.3,-56.5 1138.3,-75.5 1202.3,-75.5 1202.3,-56.5 1138.3,-56.5"/>
<text text-anchor="middle" x="1170.3" y="-63.5" font-family="Helvetica,sans-Serif" font-size="10.00">algorithm</text>
</a>
</g>
</g>
<!-- Node26&#45;&gt;Node27 -->
<g id="edge41" class="edge">
<title>Node26&#45;&gt;Node27</title>
<path fill="none" stroke="midnightblue" d="M1946.58,-169.4C1943.45,-168.89 1940.32,-168.41 1937.3,-168 1754.31,-142.95 1702.67,-176.04 1523.3,-132 1500.86,-126.49 1497.57,-118.18 1475.3,-112 1383.59,-86.55 1272.12,-74.75 1212.6,-69.91"/>
<polygon fill="midnightblue" stroke="midnightblue" points="1212.7,-66.4 1202.45,-69.11 1212.15,-73.38 1212.7,-66.4"/>
</g>
<!-- Node28 -->
<g id="node28" class="node">
<title>Node28</title>
<g id="a_node28"><a xlink:href="trace__instruction_8h.html" target="_top" xlink:title=" ">
<polygon fill="none" stroke="black" points="1901.8,-56.5 1901.8,-75.5 2008.8,-75.5 2008.8,-56.5 1901.8,-56.5"/>
<text text-anchor="middle" x="1955.3" y="-63.5" font-family="Helvetica,sans-Serif" font-size="10.00">trace_instruction.h</text>
</a>
</g>
</g>
<!-- Node26&#45;&gt;Node28 -->
<g id="edge47" class="edge">
<title>Node26&#45;&gt;Node28</title>
<path fill="none" stroke="midnightblue" d="M1982.95,-168.37C1978.08,-150.54 1966.84,-109.3 1960.28,-85.27"/>
<polygon fill="midnightblue" stroke="midnightblue" points="1963.65,-84.32 1957.64,-75.59 1956.9,-86.16 1963.65,-84.32"/>
</g>
<!-- Node28&#45;&gt;Node16 -->
<g id="edge48" class="edge">
<title>Node28&#45;&gt;Node16</title>
<path fill="none" stroke="midnightblue" d="M1955.3,-56.08C1955.3,-49.01 1955.3,-38.86 1955.3,-29.99"/>
<polygon fill="midnightblue" stroke="midnightblue" points="1958.8,-29.75 1955.3,-19.75 1951.8,-29.75 1958.8,-29.75"/>
</g>
<!-- Node30 -->
<g id="node30" class="node">
<title>Node30</title>
<g id="a_node30"><a xlink:href="msl_2lru__table_8h.html" target="_top" xlink:title=" ">
<polygon fill="none" stroke="black" points="526.8,-112.5 526.8,-131.5 615.8,-131.5 615.8,-112.5 526.8,-112.5"/>
<text text-anchor="middle" x="571.3" y="-119.5" font-family="Helvetica,sans-Serif" font-size="10.00">msl/lru_table.h</text>
</a>
</g>
</g>
<!-- Node29&#45;&gt;Node30 -->
<g id="edge52" class="edge">
<title>Node29&#45;&gt;Node30</title>
<path fill="none" stroke="midnightblue" d="M199.99,-170.08C204.81,-169.36 209.66,-168.65 214.3,-168 321.1,-152.99 446.21,-137.76 516.36,-129.43"/>
<polygon fill="midnightblue" stroke="midnightblue" points="517.2,-132.86 526.72,-128.2 516.38,-125.9 517.2,-132.86"/>
</g>
<!-- Node30&#45;&gt;Node9 -->
<g id="edge58" class="edge">
<title>Node30&#45;&gt;Node9</title>
<path fill="none" stroke="midnightblue" d="M615.99,-113.43C680.56,-102.5 798.53,-82.53 856.43,-72.73"/>
<polygon fill="midnightblue" stroke="midnightblue" points="857.24,-76.15 866.51,-71.03 856.07,-69.25 857.24,-76.15"/>
</g>
<!-- Node30&#45;&gt;Node11 -->
<g id="edge55" class="edge">
<title>Node30&#45;&gt;Node11</title>
<path fill="none" stroke="midnightblue" d="M557.11,-112.32C538.05,-99.6 508.32,-75.31 524.3,-56 549.38,-25.68 665.68,-15.61 725.12,-12.41"/>
<polygon fill="midnightblue" stroke="midnightblue" points="725.37,-15.9 735.18,-11.9 725.02,-8.91 725.37,-15.9"/>
</g>
<!-- Node30&#45;&gt;Node24 -->
<g id="edge56" class="edge">
<title>Node30&#45;&gt;Node24</title>
<path fill="none" stroke="midnightblue" d="M616.19,-116.22C631.16,-114.73 647.94,-113.17 663.3,-112 962.73,-89.12 1324.76,-73.34 1441.81,-68.54"/>
<polygon fill="midnightblue" stroke="midnightblue" points="1442.2,-72.03 1452.05,-68.12 1441.92,-65.03 1442.2,-72.03"/>
</g>
<!-- Node30&#45;&gt;Node27 -->
<g id="edge53" class="edge">
<title>Node30&#45;&gt;Node27</title>
<path fill="none" stroke="midnightblue" d="M616.22,-116.52C631.19,-115.05 647.96,-113.43 663.3,-112 835.78,-95.91 1041.4,-78.07 1128.27,-70.6"/>
<polygon fill="midnightblue" stroke="midnightblue" points="1128.6,-74.09 1138.26,-69.74 1128,-67.11 1128.6,-74.09"/>
</g>
<!-- Node31 -->
<g id="node31" class="node">
<title>Node31</title>
<g id="a_node31"><a xlink:title=" ">
<polygon fill="none" stroke="#bfbfbf" points="533.3,-56.5 533.3,-75.5 585.3,-75.5 585.3,-56.5 533.3,-56.5"/>
<text text-anchor="middle" x="559.3" y="-63.5" font-family="Helvetica,sans-Serif" font-size="10.00">cassert</text>
</a>
</g>
</g>
<!-- Node30&#45;&gt;Node31 -->
<g id="edge54" class="edge">
<title>Node30&#45;&gt;Node31</title>
<path fill="none" stroke="midnightblue" d="M569.32,-112.08C567.73,-104.93 565.44,-94.64 563.45,-85.69"/>
<polygon fill="midnightblue" stroke="midnightblue" points="566.83,-84.75 561.25,-75.75 560,-86.27 566.83,-84.75"/>
</g>
<!-- Node32 -->
<g id="node32" class="node">
<title>Node32</title>
<g id="a_node32"><a xlink:title=" ">
<polygon fill="none" stroke="#bfbfbf" points="603.8,-56.5 603.8,-75.5 648.8,-75.5 648.8,-56.5 603.8,-56.5"/>
<text text-anchor="middle" x="626.3" y="-63.5" font-family="Helvetica,sans-Serif" font-size="10.00">utility</text>
</a>
</g>
</g>
<!-- Node30&#45;&gt;Node32 -->
<g id="edge57" class="edge">
<title>Node30&#45;&gt;Node32</title>
<path fill="none" stroke="midnightblue" d="M580.38,-112.08C588.47,-104.14 600.5,-92.34 610.21,-82.8"/>
<polygon fill="midnightblue" stroke="midnightblue" points="612.7,-85.25 617.39,-75.75 607.8,-80.26 612.7,-85.25"/>
</g>
<!-- Node33 -->
<g id="node33" class="node">
<title>Node33</title>
<g id="a_node33"><a xlink:href="msl_2bits_8h.html" target="_top" xlink:title=" ">
<polygon fill="none" stroke="black" points="666.8,-56.5 666.8,-75.5 731.8,-75.5 731.8,-56.5 666.8,-56.5"/>
<text text-anchor="middle" x="699.3" y="-63.5" font-family="Helvetica,sans-Serif" font-size="10.00">msl/bits.h</text>
</a>
</g>
</g>
<!-- Node30&#45;&gt;Node33 -->
<g id="edge59" class="edge">
<title>Node30&#45;&gt;Node33</title>
<path fill="none" stroke="midnightblue" d="M591.58,-112.44C612.65,-103.56 645.82,-89.56 669.79,-79.45"/>
<polygon fill="midnightblue" stroke="midnightblue" points="671.26,-82.63 679.11,-75.52 668.54,-76.18 671.26,-82.63"/>
</g>
<!-- Node33&#45;&gt;Node11 -->
<g id="edge60" class="edge">
<title>Node33&#45;&gt;Node11</title>
<path fill="none" stroke="midnightblue" d="M709.1,-56.32C718.12,-48.34 731.71,-36.31 742.62,-26.65"/>
<polygon fill="midnightblue" stroke="midnightblue" points="745.15,-29.08 750.32,-19.83 740.51,-23.84 745.15,-29.08"/>
</g>
<!-- Node33&#45;&gt;Node16 -->
<g id="edge61" class="edge">
<title>Node33&#45;&gt;Node16</title>
<path fill="none" stroke="midnightblue" d="M731.97,-62.99C763.92,-61.05 813.94,-58.12 857.3,-56 1278.5,-35.37 1790.91,-16.82 1923.02,-12.13"/>
<polygon fill="midnightblue" stroke="midnightblue" points="1923.38,-15.62 1933.25,-11.77 1923.13,-8.63 1923.38,-15.62"/>
</g>
<!-- Node36&#45;&gt;Node3 -->
<g id="edge66" class="edge">
<title>Node36&#45;&gt;Node3</title>
<path fill="none" stroke="midnightblue" d="M134.55,-229.18C93.26,-221.08 10.32,-200.25 41.3,-168 51.07,-157.83 956.11,-129.54 1137.76,-123.96"/>
<polygon fill="midnightblue" stroke="midnightblue" points="1138.09,-127.45 1147.98,-123.65 1137.87,-120.46 1138.09,-127.45"/>
</g>
<!-- Node36&#45;&gt;Node5 -->
<g id="edge67" class="edge">
<title>Node36&#45;&gt;Node5</title>
<path fill="none" stroke="midnightblue" d="M134.5,-231.09C84.61,-225.95 -30.69,-209.34 8.3,-168 55.35,-118.13 556.03,-138.26 624.3,-132 636.82,-130.85 650.51,-129.23 662.57,-127.68"/>
<polygon fill="midnightblue" stroke="midnightblue" points="663.21,-131.13 672.67,-126.35 662.3,-124.19 663.21,-131.13"/>
</g>
<!-- Node36&#45;&gt;Node8 -->
<g id="edge68" class="edge">
<title>Node36&#45;&gt;Node8</title>
<path fill="none" stroke="midnightblue" d="M142.8,-224.32C129.7,-215.9 109.59,-202.97 94.19,-193.07"/>
<polygon fill="midnightblue" stroke="midnightblue" points="96.07,-190.12 85.76,-187.65 92.28,-196.01 96.07,-190.12"/>
</g>
<!-- Node36&#45;&gt;Node14 -->
<g id="edge69" class="edge">
<title>Node36&#45;&gt;Node14</title>
<path fill="none" stroke="midnightblue" d="M177.85,-231.01C263.85,-223.09 583.45,-193.64 699.69,-182.93"/>
<polygon fill="midnightblue" stroke="midnightblue" points="700.33,-186.38 709.97,-181.98 699.69,-179.41 700.33,-186.38"/>
</g>
<!-- Node36&#45;&gt;Node19 -->
<g id="edge70" class="edge">
<title>Node36&#45;&gt;Node19</title>
<path fill="none" stroke="midnightblue" d="M178.08,-229.05C218.56,-221.68 308.38,-205.17 394.15,-188.2"/>
<polygon fill="midnightblue" stroke="midnightblue" points="394.92,-191.61 404.05,-186.23 393.56,-184.75 394.92,-191.61"/>
</g>
<!-- Node36&#45;&gt;Node29 -->
<g id="edge71" class="edge">
<title>Node36&#45;&gt;Node29</title>
<path fill="none" stroke="midnightblue" d="M156.3,-224.08C156.3,-217.01 156.3,-206.86 156.3,-197.99"/>
<polygon fill="midnightblue" stroke="midnightblue" points="159.8,-197.75 156.3,-187.75 152.8,-197.75 159.8,-197.75"/>
</g>
</g>
</svg>
