<?xml version="1.0" encoding="UTF-8" standalone="no"?>
<!DOCTYPE svg PUBLIC "-//W3C//DTD SVG 1.1//EN"
 "http://www.w3.org/Graphics/SVG/1.1/DTD/svg11.dtd">
<!-- Generated by graphviz version 2.43.0 (0)
 -->
<!-- Title: branch/tage_sc_l Pages: 1 -->
<svg width="102pt" height="151pt"
 viewBox="0.00 0.00 102.00 151.00" xmlns="http://www.w3.org/2000/svg" xmlns:xlink="http://www.w3.org/1999/xlink">
<g id="graph0" class="graph" transform="scale(1 1) rotate(0) translate(4 147)">
<title>branch/tage_sc_l</title>
<g id="clust1" class="cluster">
<title>clusterdir_adbfc39968258094b6504d03d76a585f</title>
<g id="a_clust1"><a xlink:href="dir_adbfc39968258094b6504d03d76a585f.html" target="_top" xlink:title="branch">
<polygon fill="#ddddee" stroke="black" points="8,-64 8,-135 86,-135 86,-64 8,-64"/>
<text text-anchor="middle" x="47" y="-123" font-family="Helvetica,sans-Serif" font-size="10.00">branch</text>
</a>
</g>
</g>
<!-- dir_aa9f1c5c2000e34f568aa7937f03efcc -->
<g id="node1" class="node">
<title>dir_aa9f1c5c2000e34f568aa7937f03efcc</title>
<g id="a_node1"><a xlink:href="dir_aa9f1c5c2000e34f568aa7937f03efcc.html" target="_top" xlink:title="tage_sc_l">
<polygon fill="#eeeeff" stroke="black" points="78,-108 16,-108 16,-72 78,-72 78,-108"/>
<text text-anchor="middle" x="47" y="-87.5" font-family="Helvetica,sans-Serif" font-size="10.00">tage_sc_l</text>
</a>
</g>
</g>
<!-- dir_bfccd401955b95cf8c75461437045ac0 -->
<g id="node2" class="node">
<title>dir_bfccd401955b95cf8c75461437045ac0</title>
<g id="a_node2"><a xlink:href="dir_bfccd401955b95cf8c75461437045ac0.html" target="_top" xlink:title="inc">
<polygon fill="none" stroke="red" points="74,-36 20,-36 20,0 74,0 74,-36"/>
<text text-anchor="middle" x="47" y="-15.5" font-family="Helvetica,sans-Serif" font-size="10.00">inc</text>
</a>
</g>
</g>
<!-- dir_aa9f1c5c2000e34f568aa7937f03efcc&#45;&gt;dir_bfccd401955b95cf8c75461437045ac0 -->
<g id="edge1" class="edge">
<title>dir_aa9f1c5c2000e34f568aa7937f03efcc&#45;&gt;dir_bfccd401955b95cf8c75461437045ac0</title>
<path fill="none" stroke="black" d="M47,-71.7C47,-63.98 47,-54.71 47,-46.11"/>
<polygon fill="black" stroke="black" points="50.5,-46.1 47,-36.1 43.5,-46.1 50.5,-46.1"/>
<g id="a_edge1&#45;headlabel"><a xlink:href="dir_000005_000012.html" target="_top" xlink:title="1">
<text text-anchor="middle" x="53.34" y="-47.2" font-family="Helvetica,sans-Serif" font-size="10.00">1</text>
</a>
</g>
</g>
</g>
</svg>
