<?xml version="1.0" encoding="UTF-8" standalone="no"?>
<!DOCTYPE svg PUBLIC "-//W3C//DTD SVG 1.1//EN"
 "http://www.w3.org/Graphics/SVG/1.1/DTD/svg11.dtd">
<!-- Generated by graphviz version 2.43.0 (0)
 -->
<!-- Title: test/cpp Pages: 1 -->
<svg width="188pt" height="231pt"
 viewBox="0.00 0.00 188.00 231.00" xmlns="http://www.w3.org/2000/svg" xmlns:xlink="http://www.w3.org/1999/xlink">
<g id="graph0" class="graph" transform="scale(1 1) rotate(0) translate(4 227)">
<title>test/cpp</title>
<g id="clust1" class="cluster">
<title>clusterdir_13e138d54eb8818da29c3992edef070a</title>
<g id="a_clust1"><a xlink:href="dir_13e138d54eb8818da29c3992edef070a.html" target="_top" xlink:title="test">
<polygon fill="#ddddee" stroke="black" points="8,-56 8,-215 172,-215 172,-56 8,-56"/>
<text text-anchor="middle" x="90" y="-203" font-family="Helvetica,sans-Serif" font-size="10.00">test</text>
</a>
</g>
</g>
<g id="clust2" class="cluster">
<title>clusterdir_397f70d4556818ac16abc7ec4d1b6970</title>
<g id="a_clust2"><a xlink:href="dir_397f70d4556818ac16abc7ec4d1b6970.html" target="_top">
<polygon fill="#eeeeff" stroke="black" points="16,-64 16,-188 164,-188 164,-64 16,-64"/>
</a>
</g>
</g>
<!-- dir_397f70d4556818ac16abc7ec4d1b6970 -->
<g id="node1" class="node">
<title>dir_397f70d4556818ac16abc7ec4d1b6970</title>
<text text-anchor="middle" x="129" y="-159.5" font-family="Helvetica,sans-Serif" font-size="10.00">cpp</text>
</g>
<!-- dir_5af99df572ed9737c30e134e5ba83e3d -->
<g id="node2" class="node">
<title>dir_5af99df572ed9737c30e134e5ba83e3d</title>
<g id="a_node2"><a xlink:href="dir_5af99df572ed9737c30e134e5ba83e3d.html" target="_top" xlink:title="modules">
<polygon fill="white" stroke="red" points="83.5,-180 24.5,-180 24.5,-144 83.5,-144 83.5,-180"/>
<text text-anchor="middle" x="54" y="-159.5" font-family="Helvetica,sans-Serif" font-size="10.00">modules</text>
</a>
</g>
</g>
<!-- dir_ec8f0bfa7fdadfcc06ea5c771d837a1c -->
<g id="node3" class="node">
<title>dir_ec8f0bfa7fdadfcc06ea5c771d837a1c</title>
<g id="a_node3"><a xlink:href="dir_ec8f0bfa7fdadfcc06ea5c771d837a1c.html" target="_top" xlink:title="src">
<polygon fill="white" stroke="black" points="79,-108 25,-108 25,-72 79,-72 79,-108"/>
<text text-anchor="middle" x="52" y="-87.5" font-family="Helvetica,sans-Serif" font-size="10.00">src</text>
</a>
</g>
</g>
<!-- dir_5af99df572ed9737c30e134e5ba83e3d&#45;&gt;dir_ec8f0bfa7fdadfcc06ea5c771d837a1c -->
<g id="edge3" class="edge">
<title>dir_5af99df572ed9737c30e134e5ba83e3d&#45;&gt;dir_ec8f0bfa7fdadfcc06ea5c771d837a1c</title>
<path fill="none" stroke="black" d="M53.51,-143.7C53.29,-135.98 53.02,-126.71 52.77,-118.11"/>
<polygon fill="black" stroke="black" points="56.27,-118 52.49,-108.1 49.28,-118.2 56.27,-118"/>
<g id="a_edge3&#45;headlabel"><a xlink:href="dir_000027_000039.html" target="_top" xlink:title="3">
<text text-anchor="middle" x="59.21" y="-119.01" font-family="Helvetica,sans-Serif" font-size="10.00">3</text>
</a>
</g>
</g>
<!-- dir_bfccd401955b95cf8c75461437045ac0 -->
<g id="node4" class="node">
<title>dir_bfccd401955b95cf8c75461437045ac0</title>
<g id="a_node4"><a xlink:href="dir_bfccd401955b95cf8c75461437045ac0.html" target="_top" xlink:title="inc">
<polygon fill="none" stroke="red" points="106,-36 52,-36 52,0 106,0 106,-36"/>
<text text-anchor="middle" x="79" y="-15.5" font-family="Helvetica,sans-Serif" font-size="10.00">inc</text>
</a>
</g>
</g>
<!-- dir_5af99df572ed9737c30e134e5ba83e3d&#45;&gt;dir_bfccd401955b95cf8c75461437045ac0 -->
<g id="edge2" class="edge">
<title>dir_5af99df572ed9737c30e134e5ba83e3d&#45;&gt;dir_bfccd401955b95cf8c75461437045ac0</title>
<path fill="none" stroke="black" d="M68.75,-143.63C76.09,-133.85 84.19,-121.01 88,-108 93.95,-87.69 91.02,-63.79 86.97,-45.87"/>
<polygon fill="black" stroke="black" points="90.35,-44.93 84.52,-36.09 83.56,-46.64 90.35,-44.93"/>
<g id="a_edge2&#45;headlabel"><a xlink:href="dir_000027_000012.html" target="_top" xlink:title="6">
<text text-anchor="middle" x="93.97" y="-45.23" font-family="Helvetica,sans-Serif" font-size="10.00">6</text>
</a>
</g>
</g>
<!-- dir_ec8f0bfa7fdadfcc06ea5c771d837a1c&#45;&gt;dir_bfccd401955b95cf8c75461437045ac0 -->
<g id="edge1" class="edge">
<title>dir_ec8f0bfa7fdadfcc06ea5c771d837a1c&#45;&gt;dir_bfccd401955b95cf8c75461437045ac0</title>
<path fill="none" stroke="black" d="M58.67,-71.7C61.71,-63.81 65.38,-54.3 68.76,-45.55"/>
<polygon fill="black" stroke="black" points="72.07,-46.69 72.4,-36.1 65.54,-44.17 72.07,-46.69"/>
<g id="a_edge1&#45;headlabel"><a xlink:href="dir_000039_000012.html" target="_top" xlink:title="106">
<text text-anchor="middle" x="73.42" y="-48.57" font-family="Helvetica,sans-Serif" font-size="10.00">106</text>
</a>
</g>
</g>
</g>
</svg>
