<?xml version="1.0" encoding="UTF-8" standalone="no"?>
<!DOCTYPE svg PUBLIC "-//W3C//DTD SVG 1.1//EN"
 "http://www.w3.org/Graphics/SVG/1.1/DTD/svg11.dtd">
<!-- Generated by graphviz version 2.43.0 (0)
 -->
<!-- Title: test/cpp/modules/prefetcher Pages: 1 -->
<svg width="637pt" height="231pt"
 viewBox="0.00 0.00 637.00 231.00" xmlns="http://www.w3.org/2000/svg" xmlns:xlink="http://www.w3.org/1999/xlink">
<g id="graph0" class="graph" transform="scale(1 1) rotate(0) translate(4 227)">
<title>test/cpp/modules/prefetcher</title>
<g id="clust1" class="cluster">
<title>clusterdir_5af99df572ed9737c30e134e5ba83e3d</title>
<g id="a_clust1"><a xlink:href="dir_5af99df572ed9737c30e134e5ba83e3d.html" target="_top" xlink:title="modules">
<polygon fill="#ddddee" stroke="black" points="8,-128 8,-215 621,-215 621,-128 8,-128"/>
<text text-anchor="middle" x="314.5" y="-203" font-family="Helvetica,sans-Serif" font-size="10.00">modules</text>
</a>
</g>
</g>
<g id="clust2" class="cluster">
<title>clusterdir_ccd2b2abe54d4610fe3c9cca542ce809</title>
<g id="a_clust2"><a xlink:href="dir_ccd2b2abe54d4610fe3c9cca542ce809.html" target="_top">
<polygon fill="#eeeeff" stroke="black" points="16,-136 16,-188 613,-188 613,-136 16,-136"/>
</a>
</g>
</g>
<!-- dir_ccd2b2abe54d4610fe3c9cca542ce809 -->
<g id="node1" class="node">
<title>dir_ccd2b2abe54d4610fe3c9cca542ce809</title>
<text text-anchor="middle" x="571" y="-159.5" font-family="Helvetica,sans-Serif" font-size="10.00">prefetcher</text>
</g>
<!-- dir_b3a1c5ed342e21991ba45f43e2db076b -->
<g id="node2" class="node">
<title>dir_b3a1c5ed342e21991ba45f43e2db076b</title>
<g id="a_node2"><a xlink:href="dir_b3a1c5ed342e21991ba45f43e2db076b.html" target="_top" xlink:title="address_collector">
<polygon fill="white" stroke="black" points="126,-180 24,-180 24,-144 126,-144 126,-180"/>
<text text-anchor="middle" x="75" y="-159.5" font-family="Helvetica,sans-Serif" font-size="10.00">address_collector</text>
</a>
</g>
</g>
<!-- dir_bfccd401955b95cf8c75461437045ac0 -->
<g id="node6" class="node">
<title>dir_bfccd401955b95cf8c75461437045ac0</title>
<g id="a_node6"><a xlink:href="dir_bfccd401955b95cf8c75461437045ac0.html" target="_top" xlink:title="inc">
<polygon fill="none" stroke="red" points="353,-36 299,-36 299,0 353,0 353,-36"/>
<text text-anchor="middle" x="326" y="-15.5" font-family="Helvetica,sans-Serif" font-size="10.00">inc</text>
</a>
</g>
</g>
<!-- dir_b3a1c5ed342e21991ba45f43e2db076b&#45;&gt;dir_bfccd401955b95cf8c75461437045ac0 -->
<g id="edge6" class="edge">
<title>dir_b3a1c5ed342e21991ba45f43e2db076b&#45;&gt;dir_bfccd401955b95cf8c75461437045ac0</title>
<path fill="none" stroke="black" d="M105.28,-143.87C151.68,-117.62 240.2,-67.54 289.88,-39.43"/>
<polygon fill="black" stroke="black" points="291.7,-42.42 298.69,-34.45 288.26,-36.33 291.7,-42.42"/>
<g id="a_edge6&#45;headlabel"><a xlink:href="dir_000034_000012.html" target="_top" xlink:title="1">
<text text-anchor="middle" x="289.97" y="-44.16" font-family="Helvetica,sans-Serif" font-size="10.00">1</text>
</a>
</g>
</g>
<!-- dir_e39416a3c3972f1b0b61301a25e99521 -->
<g id="node3" class="node">
<title>dir_e39416a3c3972f1b0b61301a25e99521</title>
<g id="a_node3"><a xlink:href="dir_e39416a3c3972f1b0b61301a25e99521.html" target="_top" xlink:title="metadata_collector">
<polygon fill="white" stroke="black" points="255.5,-180 144.5,-180 144.5,-144 255.5,-144 255.5,-180"/>
<text text-anchor="middle" x="200" y="-159.5" font-family="Helvetica,sans-Serif" font-size="10.00">metadata_collector</text>
</a>
</g>
</g>
<!-- dir_e39416a3c3972f1b0b61301a25e99521&#45;&gt;dir_bfccd401955b95cf8c75461437045ac0 -->
<g id="edge4" class="edge">
<title>dir_e39416a3c3972f1b0b61301a25e99521&#45;&gt;dir_bfccd401955b95cf8c75461437045ac0</title>
<path fill="none" stroke="black" d="M215.2,-143.87C237.34,-118.92 278.57,-72.45 304.02,-43.77"/>
<polygon fill="black" stroke="black" points="306.73,-45.99 310.75,-36.19 301.49,-41.35 306.73,-45.99"/>
<g id="a_edge4&#45;headlabel"><a xlink:href="dir_000035_000012.html" target="_top" xlink:title="1">
<text text-anchor="middle" x="306.47" y="-48.07" font-family="Helvetica,sans-Serif" font-size="10.00">1</text>
</a>
</g>
</g>
<!-- dir_2eaf443b58cda38bc1c3d35833ec650b -->
<g id="node4" class="node">
<title>dir_2eaf443b58cda38bc1c3d35833ec650b</title>
<g id="a_node4"><a xlink:href="dir_2eaf443b58cda38bc1c3d35833ec650b.html" target="_top" xlink:title="metadata_emitter">
<polygon fill="white" stroke="black" points="378.5,-180 273.5,-180 273.5,-144 378.5,-144 378.5,-180"/>
<text text-anchor="middle" x="326" y="-159.5" font-family="Helvetica,sans-Serif" font-size="10.00">metadata_emitter</text>
</a>
</g>
</g>
<!-- dir_2eaf443b58cda38bc1c3d35833ec650b&#45;&gt;dir_bfccd401955b95cf8c75461437045ac0 -->
<g id="edge5" class="edge">
<title>dir_2eaf443b58cda38bc1c3d35833ec650b&#45;&gt;dir_bfccd401955b95cf8c75461437045ac0</title>
<path fill="none" stroke="black" d="M326,-143.87C326,-119.67 326,-75.21 326,-46.39"/>
<polygon fill="black" stroke="black" points="329.5,-46.19 326,-36.19 322.5,-46.19 329.5,-46.19"/>
<g id="a_edge5&#45;headlabel"><a xlink:href="dir_000036_000012.html" target="_top" xlink:title="1">
<text text-anchor="middle" x="332.34" y="-47.28" font-family="Helvetica,sans-Serif" font-size="10.00">1</text>
</a>
</g>
</g>
<!-- dir_9ec394f8838111b867b364f7364d1e9b -->
<g id="node5" class="node">
<title>dir_9ec394f8838111b867b364f7364d1e9b</title>
<g id="a_node5"><a xlink:href="dir_9ec394f8838111b867b364f7364d1e9b.html" target="_top" xlink:title="prefetch_hit_collector">
<polygon fill="white" stroke="black" points="519,-180 397,-180 397,-144 519,-144 519,-180"/>
<text text-anchor="middle" x="458" y="-159.5" font-family="Helvetica,sans-Serif" font-size="10.00">prefetch_hit_collector</text>
</a>
</g>
</g>
<!-- dir_9ec394f8838111b867b364f7364d1e9b&#45;&gt;dir_bfccd401955b95cf8c75461437045ac0 -->
<g id="edge1" class="edge">
<title>dir_9ec394f8838111b867b364f7364d1e9b&#45;&gt;dir_bfccd401955b95cf8c75461437045ac0</title>
<path fill="none" stroke="black" d="M442.08,-143.87C418.89,-118.92 375.69,-72.45 349.03,-43.77"/>
<polygon fill="black" stroke="black" points="351.35,-41.13 341.98,-36.19 346.22,-45.9 351.35,-41.13"/>
<g id="a_edge1&#45;headlabel"><a xlink:href="dir_000037_000012.html" target="_top" xlink:title="1">
<text text-anchor="middle" x="355.88" y="-39.33" font-family="Helvetica,sans-Serif" font-size="10.00">1</text>
</a>
</g>
</g>
<!-- dir_ec8f0bfa7fdadfcc06ea5c771d837a1c -->
<g id="node7" class="node">
<title>dir_ec8f0bfa7fdadfcc06ea5c771d837a1c</title>
<g id="a_node7"><a xlink:href="dir_ec8f0bfa7fdadfcc06ea5c771d837a1c.html" target="_top" xlink:title="src">
<polygon fill="none" stroke="black" points="475,-108 421,-108 421,-72 475,-72 475,-108"/>
<text text-anchor="middle" x="448" y="-87.5" font-family="Helvetica,sans-Serif" font-size="10.00">src</text>
</a>
</g>
</g>
<!-- dir_9ec394f8838111b867b364f7364d1e9b&#45;&gt;dir_ec8f0bfa7fdadfcc06ea5c771d837a1c -->
<g id="edge2" class="edge">
<title>dir_9ec394f8838111b867b364f7364d1e9b&#45;&gt;dir_ec8f0bfa7fdadfcc06ea5c771d837a1c</title>
<path fill="none" stroke="black" d="M455.53,-143.7C454.43,-135.98 453.1,-126.71 451.87,-118.11"/>
<polygon fill="black" stroke="black" points="455.32,-117.51 450.44,-108.1 448.39,-118.5 455.32,-117.51"/>
<g id="a_edge2&#45;headlabel"><a xlink:href="dir_000037_000039.html" target="_top" xlink:title="1">
<text text-anchor="middle" x="458.64" y="-118.17" font-family="Helvetica,sans-Serif" font-size="10.00">1</text>
</a>
</g>
</g>
<!-- dir_ec8f0bfa7fdadfcc06ea5c771d837a1c&#45;&gt;dir_bfccd401955b95cf8c75461437045ac0 -->
<g id="edge3" class="edge">
<title>dir_ec8f0bfa7fdadfcc06ea5c771d837a1c&#45;&gt;dir_bfccd401955b95cf8c75461437045ac0</title>
<path fill="none" stroke="black" d="M420.92,-73.46C403.55,-63.5 380.79,-50.44 361.91,-39.61"/>
<polygon fill="black" stroke="black" points="363.42,-36.43 353,-34.49 359.93,-42.5 363.42,-36.43"/>
<g id="a_edge3&#45;headlabel"><a xlink:href="dir_000039_000012.html" target="_top" xlink:title="106">
<text text-anchor="middle" x="367.95" y="-33.26" font-family="Helvetica,sans-Serif" font-size="10.00">106</text>
</a>
</g>
</g>
</g>
</svg>
