<?xml version="1.0" encoding="UTF-8" standalone="no"?>
<!DOCTYPE svg PUBLIC "-//W3C//DTD SVG 1.1//EN"
 "http://www.w3.org/Graphics/SVG/1.1/DTD/svg11.dtd">
<!-- Generated by graphviz version 2.43.0 (0)
 -->
<!-- Title: test/cpp/modules/replacement/lru_collect Pages: 1 -->
<svg width="112pt" height="223pt"
 viewBox="0.00 0.00 112.00 223.00" xmlns="http://www.w3.org/2000/svg" xmlns:xlink="http://www.w3.org/1999/xlink">
<g id="graph0" class="graph" transform="scale(1 1) rotate(0) translate(4 219)">
<title>test/cpp/modules/replacement/lru_collect</title>
<g id="clust1" class="cluster">
<title>clusterdir_bc62a0603ffc4ba482094e459902a6e2</title>
<g id="a_clust1"><a xlink:href="dir_bc62a0603ffc4ba482094e459902a6e2.html" target="_top" xlink:title="replacement">
<polygon fill="#ddddee" stroke="black" points="8,-136 8,-207 92,-207 92,-136 8,-136"/>
<text text-anchor="middle" x="50" y="-195" font-family="Helvetica,sans-Serif" font-size="10.00">replacement</text>
</a>
</g>
</g>
<!-- dir_a8df4788ecd5bfb1ae88b2817667cb78 -->
<g id="node1" class="node">
<title>dir_a8df4788ecd5bfb1ae88b2817667cb78</title>
<g id="a_node1"><a xlink:href="dir_a8df4788ecd5bfb1ae88b2817667cb78.html" target="_top" xlink:title="lru_collect">
<polygon fill="#eeeeff" stroke="black" points="83.5,-180 16.5,-180 16.5,-144 83.5,-144 83.5,-180"/>
<text text-anchor="middle" x="50" y="-159.5" font-family="Helvetica,sans-Serif" font-size="10.00">lru_collect</text>
</a>
</g>
</g>
<!-- dir_bfccd401955b95cf8c75461437045ac0 -->
<g id="node2" class="node">
<title>dir_bfccd401955b95cf8c75461437045ac0</title>
<g id="a_node2"><a xlink:href="dir_bfccd401955b95cf8c75461437045ac0.html" target="_top" xlink:title="inc">
<polygon fill="none" stroke="red" points="76,-36 22,-36 22,0 76,0 76,-36"/>
<text text-anchor="middle" x="49" y="-15.5" font-family="Helvetica,sans-Serif" font-size="10.00">inc</text>
</a>
</g>
</g>
<!-- dir_a8df4788ecd5bfb1ae88b2817667cb78&#45;&gt;dir_bfccd401955b95cf8c75461437045ac0 -->
<g id="edge1" class="edge">
<title>dir_a8df4788ecd5bfb1ae88b2817667cb78&#45;&gt;dir_bfccd401955b95cf8c75461437045ac0</title>
<path fill="none" stroke="black" d="M46.35,-143.91C44.32,-133.57 42.02,-120.09 41,-108 39.66,-92.06 39.8,-87.96 41,-72 41.64,-63.52 42.84,-54.34 44.12,-46.04"/>
<polygon fill="black" stroke="black" points="47.58,-46.55 45.75,-36.11 40.68,-45.41 47.58,-46.55"/>
<g id="a_edge1&#45;headlabel"><a xlink:href="dir_000029_000012.html" target="_top" xlink:title="1">
<text text-anchor="middle" x="49.8" y="-48.05" font-family="Helvetica,sans-Serif" font-size="10.00">1</text>
</a>
</g>
</g>
<!-- dir_ec8f0bfa7fdadfcc06ea5c771d837a1c -->
<g id="node3" class="node">
<title>dir_ec8f0bfa7fdadfcc06ea5c771d837a1c</title>
<g id="a_node3"><a xlink:href="dir_ec8f0bfa7fdadfcc06ea5c771d837a1c.html" target="_top" xlink:title="src">
<polygon fill="none" stroke="black" points="104,-108 50,-108 50,-72 104,-72 104,-108"/>
<text text-anchor="middle" x="77" y="-87.5" font-family="Helvetica,sans-Serif" font-size="10.00">src</text>
</a>
</g>
</g>
<!-- dir_a8df4788ecd5bfb1ae88b2817667cb78&#45;&gt;dir_ec8f0bfa7fdadfcc06ea5c771d837a1c -->
<g id="edge2" class="edge">
<title>dir_a8df4788ecd5bfb1ae88b2817667cb78&#45;&gt;dir_ec8f0bfa7fdadfcc06ea5c771d837a1c</title>
<path fill="none" stroke="black" d="M56.67,-143.7C59.71,-135.81 63.38,-126.3 66.76,-117.55"/>
<polygon fill="black" stroke="black" points="70.07,-118.69 70.4,-108.1 63.54,-116.17 70.07,-118.69"/>
<g id="a_edge2&#45;headlabel"><a xlink:href="dir_000029_000039.html" target="_top" xlink:title="1">
<text text-anchor="middle" x="71.42" y="-120.57" font-family="Helvetica,sans-Serif" font-size="10.00">1</text>
</a>
</g>
</g>
<!-- dir_ec8f0bfa7fdadfcc06ea5c771d837a1c&#45;&gt;dir_bfccd401955b95cf8c75461437045ac0 -->
<g id="edge3" class="edge">
<title>dir_ec8f0bfa7fdadfcc06ea5c771d837a1c&#45;&gt;dir_bfccd401955b95cf8c75461437045ac0</title>
<path fill="none" stroke="black" d="M70.08,-71.7C66.93,-63.81 63.12,-54.3 59.62,-45.55"/>
<polygon fill="black" stroke="black" points="62.81,-44.09 55.84,-36.1 56.31,-46.69 62.81,-44.09"/>
<g id="a_edge3&#45;headlabel"><a xlink:href="dir_000039_000012.html" target="_top" xlink:title="106">
<text text-anchor="middle" x="66.78" y="-43.87" font-family="Helvetica,sans-Serif" font-size="10.00">106</text>
</a>
</g>
</g>
</g>
</svg>
