<?xml version="1.0" encoding="UTF-8" standalone="no"?>
<!DOCTYPE svg PUBLIC "-//W3C//DTD SVG 1.1//EN"
 "http://www.w3.org/Graphics/SVG/1.1/DTD/svg11.dtd">
<!-- Generated by graphviz version 2.43.0 (0)
 -->
<!-- Title: prefetcher Pages: 1 -->
<svg width="698pt" height="132pt"
 viewBox="0.00 0.00 698.00 132.00" xmlns="http://www.w3.org/2000/svg" xmlns:xlink="http://www.w3.org/1999/xlink">
<g id="graph0" class="graph" transform="scale(1 1) rotate(0) translate(4 128)">
<title>prefetcher</title>
<g id="clust1" class="cluster">
<title>clusterdir_5a35e41e3293b3ab612eda123e6bedb1</title>
<g id="a_clust1"><a xlink:href="dir_5a35e41e3293b3ab612eda123e6bedb1.html" target="_top">
<polygon fill="#eeeeff" stroke="black" points="8,-64 8,-116 682,-116 682,-64 8,-64"/>
</a>
</g>
</g>
<!-- dir_5a35e41e3293b3ab612eda123e6bedb1 -->
<g id="node1" class="node">
<title>dir_5a35e41e3293b3ab612eda123e6bedb1</title>
<text text-anchor="middle" x="640" y="-87.5" font-family="Helvetica,sans-Serif" font-size="10.00">prefetcher</text>
</g>
<!-- dir_ec8d15e735f45b9dcecf500e2c777099 -->
<g id="node2" class="node">
<title>dir_ec8d15e735f45b9dcecf500e2c777099</title>
<g id="a_node2"><a xlink:href="dir_ec8d15e735f45b9dcecf500e2c777099.html" target="_top" xlink:title="ip_stride">
<polygon fill="white" stroke="black" points="588.5,-108 529.5,-108 529.5,-72 588.5,-72 588.5,-108"/>
<text text-anchor="middle" x="559" y="-87.5" font-family="Helvetica,sans-Serif" font-size="10.00">ip_stride</text>
</a>
</g>
</g>
<!-- dir_bfccd401955b95cf8c75461437045ac0 -->
<g id="node9" class="node">
<title>dir_bfccd401955b95cf8c75461437045ac0</title>
<g id="a_node9"><a xlink:href="dir_bfccd401955b95cf8c75461437045ac0.html" target="_top" xlink:title="inc">
<polygon fill="none" stroke="red" points="324,-36 270,-36 270,0 324,0 324,-36"/>
<text text-anchor="middle" x="297" y="-15.5" font-family="Helvetica,sans-Serif" font-size="10.00">inc</text>
</a>
</g>
</g>
<!-- dir_ec8d15e735f45b9dcecf500e2c777099&#45;&gt;dir_bfccd401955b95cf8c75461437045ac0 -->
<g id="edge2" class="edge">
<title>dir_ec8d15e735f45b9dcecf500e2c777099&#45;&gt;dir_bfccd401955b95cf8c75461437045ac0</title>
<path fill="none" stroke="black" d="M535.42,-71.93C530.5,-68.94 525.22,-66.11 520,-64 457.5,-38.71 379.2,-27.14 333.96,-22.23"/>
<polygon fill="black" stroke="black" points="334.32,-18.75 324.01,-21.21 333.6,-25.72 334.32,-18.75"/>
<g id="a_edge2&#45;headlabel"><a xlink:href="dir_000016_000012.html" target="_top" xlink:title="2">
<text text-anchor="middle" x="338.18" y="-13.8" font-family="Helvetica,sans-Serif" font-size="10.00">2</text>
</a>
</g>
</g>
<!-- dir_ee0a3a698da08db3b86dd15a41fb40e7 -->
<g id="node3" class="node">
<title>dir_ee0a3a698da08db3b86dd15a41fb40e7</title>
<g id="a_node3"><a xlink:href="dir_ee0a3a698da08db3b86dd15a41fb40e7.html" target="_top" xlink:title="next_line">
<polygon fill="white" stroke="black" points="511,-108 449,-108 449,-72 511,-72 511,-108"/>
<text text-anchor="middle" x="480" y="-87.5" font-family="Helvetica,sans-Serif" font-size="10.00">next_line</text>
</a>
</g>
</g>
<!-- dir_ee0a3a698da08db3b86dd15a41fb40e7&#45;&gt;dir_bfccd401955b95cf8c75461437045ac0 -->
<g id="edge7" class="edge">
<title>dir_ee0a3a698da08db3b86dd15a41fb40e7&#45;&gt;dir_bfccd401955b95cf8c75461437045ac0</title>
<path fill="none" stroke="black" d="M455.39,-71.84C450.73,-68.99 445.81,-66.24 441,-64 406.07,-47.71 363.72,-35.28 334.02,-27.65"/>
<polygon fill="black" stroke="black" points="334.62,-24.2 324.07,-25.16 332.92,-30.98 334.62,-24.2"/>
<g id="a_edge7&#45;headlabel"><a xlink:href="dir_000017_000012.html" target="_top" xlink:title="1">
<text text-anchor="middle" x="338.8" y="-19.82" font-family="Helvetica,sans-Serif" font-size="10.00">1</text>
</a>
</g>
</g>
<!-- dir_eea87e3e1e38851f53aa655465338b73 -->
<g id="node4" class="node">
<title>dir_eea87e3e1e38851f53aa655465338b73</title>
<g id="a_node4"><a xlink:href="dir_eea87e3e1e38851f53aa655465338b73.html" target="_top" xlink:title="next_line_instr">
<polygon fill="white" stroke="black" points="431.5,-108 342.5,-108 342.5,-72 431.5,-72 431.5,-108"/>
<text text-anchor="middle" x="387" y="-87.5" font-family="Helvetica,sans-Serif" font-size="10.00">next_line_instr</text>
</a>
</g>
</g>
<!-- dir_eea87e3e1e38851f53aa655465338b73&#45;&gt;dir_bfccd401955b95cf8c75461437045ac0 -->
<g id="edge6" class="edge">
<title>dir_eea87e3e1e38851f53aa655465338b73&#45;&gt;dir_bfccd401955b95cf8c75461437045ac0</title>
<path fill="none" stroke="black" d="M364.75,-71.7C353.42,-62.88 339.47,-52.03 327.18,-42.47"/>
<polygon fill="black" stroke="black" points="329.03,-39.48 318.99,-36.1 324.74,-45.01 329.03,-39.48"/>
<g id="a_edge6&#45;headlabel"><a xlink:href="dir_000018_000012.html" target="_top" xlink:title="1">
<text text-anchor="middle" x="333.61" y="-36.95" font-family="Helvetica,sans-Serif" font-size="10.00">1</text>
</a>
</g>
</g>
<!-- dir_e8097cf218d4ebec5177921c51fe4f7b -->
<g id="node5" class="node">
<title>dir_e8097cf218d4ebec5177921c51fe4f7b</title>
<g id="a_node5"><a xlink:href="dir_e8097cf218d4ebec5177921c51fe4f7b.html" target="_top" xlink:title="no">
<polygon fill="white" stroke="black" points="324,-108 270,-108 270,-72 324,-72 324,-108"/>
<text text-anchor="middle" x="297" y="-87.5" font-family="Helvetica,sans-Serif" font-size="10.00">no</text>
</a>
</g>
</g>
<!-- dir_e8097cf218d4ebec5177921c51fe4f7b&#45;&gt;dir_bfccd401955b95cf8c75461437045ac0 -->
<g id="edge4" class="edge">
<title>dir_e8097cf218d4ebec5177921c51fe4f7b&#45;&gt;dir_bfccd401955b95cf8c75461437045ac0</title>
<path fill="none" stroke="black" d="M297,-71.7C297,-63.98 297,-54.71 297,-46.11"/>
<polygon fill="black" stroke="black" points="300.5,-46.1 297,-36.1 293.5,-46.1 300.5,-46.1"/>
<g id="a_edge4&#45;headlabel"><a xlink:href="dir_000019_000012.html" target="_top" xlink:title="1">
<text text-anchor="middle" x="303.34" y="-47.2" font-family="Helvetica,sans-Serif" font-size="10.00">1</text>
</a>
</g>
</g>
<!-- dir_a0c68b667ce17182e9a4a72c66048415 -->
<g id="node6" class="node">
<title>dir_a0c68b667ce17182e9a4a72c66048415</title>
<g id="a_node6"><a xlink:href="dir_a0c68b667ce17182e9a4a72c66048415.html" target="_top" xlink:title="no_instr">
<polygon fill="white" stroke="black" points="252,-108 196,-108 196,-72 252,-72 252,-108"/>
<text text-anchor="middle" x="224" y="-87.5" font-family="Helvetica,sans-Serif" font-size="10.00">no_instr</text>
</a>
</g>
</g>
<!-- dir_a0c68b667ce17182e9a4a72c66048415&#45;&gt;dir_bfccd401955b95cf8c75461437045ac0 -->
<g id="edge3" class="edge">
<title>dir_a0c68b667ce17182e9a4a72c66048415&#45;&gt;dir_bfccd401955b95cf8c75461437045ac0</title>
<path fill="none" stroke="black" d="M242.04,-71.7C251.06,-63.05 262.12,-52.45 271.94,-43.03"/>
<polygon fill="black" stroke="black" points="274.37,-45.55 279.16,-36.1 269.52,-40.5 274.37,-45.55"/>
<g id="a_edge3&#45;headlabel"><a xlink:href="dir_000020_000012.html" target="_top" xlink:title="1">
<text text-anchor="middle" x="273.74" y="-47.59" font-family="Helvetica,sans-Serif" font-size="10.00">1</text>
</a>
</g>
</g>
<!-- dir_f78961c61c6a0858d168d2032937e110 -->
<g id="node7" class="node">
<title>dir_f78961c61c6a0858d168d2032937e110</title>
<g id="a_node7"><a xlink:href="dir_f78961c61c6a0858d168d2032937e110.html" target="_top" xlink:title="spp_dev">
<polygon fill="white" stroke="black" points="177.5,-108 120.5,-108 120.5,-72 177.5,-72 177.5,-108"/>
<text text-anchor="middle" x="149" y="-87.5" font-family="Helvetica,sans-Serif" font-size="10.00">spp_dev</text>
</a>
</g>
</g>
<!-- dir_f78961c61c6a0858d168d2032937e110&#45;&gt;dir_bfccd401955b95cf8c75461437045ac0 -->
<g id="edge1" class="edge">
<title>dir_f78961c61c6a0858d168d2032937e110&#45;&gt;dir_bfccd401955b95cf8c75461437045ac0</title>
<path fill="none" stroke="black" d="M173.52,-71.88C177.92,-69.1 182.53,-66.36 187,-64 210.58,-51.57 238.38,-40.22 260.14,-32.03"/>
<polygon fill="black" stroke="black" points="261.51,-35.26 269.67,-28.5 259.07,-28.69 261.51,-35.26"/>
<g id="a_edge1&#45;headlabel"><a xlink:href="dir_000021_000012.html" target="_top" xlink:title="1">
<text text-anchor="middle" x="259.12" y="-36.67" font-family="Helvetica,sans-Serif" font-size="10.00">1</text>
</a>
</g>
</g>
<!-- dir_873163e862fe352eba78fd1e68c93f5c -->
<g id="node8" class="node">
<title>dir_873163e862fe352eba78fd1e68c93f5c</title>
<g id="a_node8"><a xlink:href="dir_873163e862fe352eba78fd1e68c93f5c.html" target="_top" xlink:title="va_ampm_lite">
<polygon fill="white" stroke="black" points="102,-108 16,-108 16,-72 102,-72 102,-108"/>
<text text-anchor="middle" x="59" y="-87.5" font-family="Helvetica,sans-Serif" font-size="10.00">va_ampm_lite</text>
</a>
</g>
</g>
<!-- dir_873163e862fe352eba78fd1e68c93f5c&#45;&gt;dir_bfccd401955b95cf8c75461437045ac0 -->
<g id="edge5" class="edge">
<title>dir_873163e862fe352eba78fd1e68c93f5c&#45;&gt;dir_bfccd401955b95cf8c75461437045ac0</title>
<path fill="none" stroke="black" d="M92.5,-71.95C98.88,-69.07 105.57,-66.27 112,-64 162,-46.33 221.98,-33.14 259.8,-25.75"/>
<polygon fill="black" stroke="black" points="260.69,-29.14 269.85,-23.82 259.37,-22.26 260.69,-29.14"/>
<g id="a_edge5&#45;headlabel"><a xlink:href="dir_000022_000012.html" target="_top" xlink:title="1">
<text text-anchor="middle" x="257.69" y="-30.11" font-family="Helvetica,sans-Serif" font-size="10.00">1</text>
</a>
</g>
</g>
</g>
</svg>
