<?xml version="1.0" encoding="UTF-8" standalone="no"?>
<!DOCTYPE svg PUBLIC "-//W3C//DTD SVG 1.1//EN"
 "http://www.w3.org/Graphics/SVG/1.1/DTD/svg11.dtd">
<!-- Generated by graphviz version 2.43.0 (0)
 -->
<!-- Title: prefetcher/no_instr Pages: 1 -->
<svg width="96pt" height="151pt"
 viewBox="0.00 0.00 96.00 151.00" xmlns="http://www.w3.org/2000/svg" xmlns:xlink="http://www.w3.org/1999/xlink">
<g id="graph0" class="graph" transform="scale(1 1) rotate(0) translate(4 147)">
<title>prefetcher/no_instr</title>
<g id="clust1" class="cluster">
<title>clusterdir_5a35e41e3293b3ab612eda123e6bedb1</title>
<g id="a_clust1"><a xlink:href="dir_5a35e41e3293b3ab612eda123e6bedb1.html" target="_top" xlink:title="prefetcher">
<polygon fill="#ddddee" stroke="black" points="8,-64 8,-135 80,-135 80,-64 8,-64"/>
<text text-anchor="middle" x="44" y="-123" font-family="Helvetica,sans-Serif" font-size="10.00">prefetcher</text>
</a>
</g>
</g>
<!-- dir_a0c68b667ce17182e9a4a72c66048415 -->
<g id="node1" class="node">
<title>dir_a0c68b667ce17182e9a4a72c66048415</title>
<g id="a_node1"><a xlink:href="dir_a0c68b667ce17182e9a4a72c66048415.html" target="_top" xlink:title="no_instr">
<polygon fill="#eeeeff" stroke="black" points="72,-108 16,-108 16,-72 72,-72 72,-108"/>
<text text-anchor="middle" x="44" y="-87.5" font-family="Helvetica,sans-Serif" font-size="10.00">no_instr</text>
</a>
</g>
</g>
<!-- dir_bfccd401955b95cf8c75461437045ac0 -->
<g id="node2" class="node">
<title>dir_bfccd401955b95cf8c75461437045ac0</title>
<g id="a_node2"><a xlink:href="dir_bfccd401955b95cf8c75461437045ac0.html" target="_top" xlink:title="inc">
<polygon fill="none" stroke="red" points="71,-36 17,-36 17,0 71,0 71,-36"/>
<text text-anchor="middle" x="44" y="-15.5" font-family="Helvetica,sans-Serif" font-size="10.00">inc</text>
</a>
</g>
</g>
<!-- dir_a0c68b667ce17182e9a4a72c66048415&#45;&gt;dir_bfccd401955b95cf8c75461437045ac0 -->
<g id="edge1" class="edge">
<title>dir_a0c68b667ce17182e9a4a72c66048415&#45;&gt;dir_bfccd401955b95cf8c75461437045ac0</title>
<path fill="none" stroke="black" d="M44,-71.7C44,-63.98 44,-54.71 44,-46.11"/>
<polygon fill="black" stroke="black" points="47.5,-46.1 44,-36.1 40.5,-46.1 47.5,-46.1"/>
<g id="a_edge1&#45;headlabel"><a xlink:href="dir_000020_000012.html" target="_top" xlink:title="1">
<text text-anchor="middle" x="50.34" y="-47.2" font-family="Helvetica,sans-Serif" font-size="10.00">1</text>
</a>
</g>
</g>
</g>
</svg>
