<?xml version="1.0" encoding="UTF-8" standalone="no"?>
<!DOCTYPE svg PUBLIC "-//W3C//DTD SVG 1.1//EN"
 "http://www.w3.org/Graphics/SVG/1.1/DTD/svg11.dtd">
<!-- Generated by graphviz version 2.43.0 (0)
 -->
<!-- Title: test/cpp/modules/replacement Pages: 1 -->
<svg width="348pt" height="231pt"
 viewBox="0.00 0.00 348.00 231.00" xmlns="http://www.w3.org/2000/svg" xmlns:xlink="http://www.w3.org/1999/xlink">
<g id="graph0" class="graph" transform="scale(1 1) rotate(0) translate(4 227)">
<title>test/cpp/modules/replacement</title>
<g id="clust1" class="cluster">
<title>clusterdir_5af99df572ed9737c30e134e5ba83e3d</title>
<g id="a_clust1"><a xlink:href="dir_5af99df572ed9737c30e134e5ba83e3d.html" target="_top" xlink:title="modules">
<polygon fill="#ddddee" stroke="black" points="8,-128 8,-215 332,-215 332,-128 8,-128"/>
<text text-anchor="middle" x="170" y="-203" font-family="Helvetica,sans-Serif" font-size="10.00">modules</text>
</a>
</g>
</g>
<g id="clust2" class="cluster">
<title>clusterdir_bc62a0603ffc4ba482094e459902a6e2</title>
<g id="a_clust2"><a xlink:href="dir_bc62a0603ffc4ba482094e459902a6e2.html" target="_top">
<polygon fill="#eeeeff" stroke="black" points="16,-136 16,-188 324,-188 324,-136 16,-136"/>
</a>
</g>
</g>
<!-- dir_bc62a0603ffc4ba482094e459902a6e2 -->
<g id="node1" class="node">
<title>dir_bc62a0603ffc4ba482094e459902a6e2</title>
<text text-anchor="middle" x="277" y="-159.5" font-family="Helvetica,sans-Serif" font-size="10.00">replacement</text>
</g>
<!-- dir_a8df4788ecd5bfb1ae88b2817667cb78 -->
<g id="node2" class="node">
<title>dir_a8df4788ecd5bfb1ae88b2817667cb78</title>
<g id="a_node2"><a xlink:href="dir_a8df4788ecd5bfb1ae88b2817667cb78.html" target="_top" xlink:title="lru_collect">
<polygon fill="white" stroke="black" points="91.5,-180 24.5,-180 24.5,-144 91.5,-144 91.5,-180"/>
<text text-anchor="middle" x="58" y="-159.5" font-family="Helvetica,sans-Serif" font-size="10.00">lru_collect</text>
</a>
</g>
</g>
<!-- dir_bfccd401955b95cf8c75461437045ac0 -->
<g id="node4" class="node">
<title>dir_bfccd401955b95cf8c75461437045ac0</title>
<g id="a_node4"><a xlink:href="dir_bfccd401955b95cf8c75461437045ac0.html" target="_top" xlink:title="inc">
<polygon fill="none" stroke="red" points="138,-36 84,-36 84,0 138,0 138,-36"/>
<text text-anchor="middle" x="111" y="-15.5" font-family="Helvetica,sans-Serif" font-size="10.00">inc</text>
</a>
</g>
</g>
<!-- dir_a8df4788ecd5bfb1ae88b2817667cb78&#45;&gt;dir_bfccd401955b95cf8c75461437045ac0 -->
<g id="edge1" class="edge">
<title>dir_a8df4788ecd5bfb1ae88b2817667cb78&#45;&gt;dir_bfccd401955b95cf8c75461437045ac0</title>
<path fill="none" stroke="black" d="M59.22,-143.68C60.98,-125.29 65.19,-95.69 75,-72 78.98,-62.39 84.86,-52.73 90.71,-44.34"/>
<polygon fill="black" stroke="black" points="93.65,-46.24 96.73,-36.1 88,-42.11 93.65,-46.24"/>
<g id="a_edge1&#45;headlabel"><a xlink:href="dir_000029_000012.html" target="_top" xlink:title="1">
<text text-anchor="middle" x="93.83" y="-48.32" font-family="Helvetica,sans-Serif" font-size="10.00">1</text>
</a>
</g>
</g>
<!-- dir_ec8f0bfa7fdadfcc06ea5c771d837a1c -->
<g id="node5" class="node">
<title>dir_ec8f0bfa7fdadfcc06ea5c771d837a1c</title>
<g id="a_node5"><a xlink:href="dir_ec8f0bfa7fdadfcc06ea5c771d837a1c.html" target="_top" xlink:title="src">
<polygon fill="none" stroke="black" points="138,-108 84,-108 84,-72 138,-72 138,-108"/>
<text text-anchor="middle" x="111" y="-87.5" font-family="Helvetica,sans-Serif" font-size="10.00">src</text>
</a>
</g>
</g>
<!-- dir_a8df4788ecd5bfb1ae88b2817667cb78&#45;&gt;dir_ec8f0bfa7fdadfcc06ea5c771d837a1c -->
<g id="edge2" class="edge">
<title>dir_a8df4788ecd5bfb1ae88b2817667cb78&#45;&gt;dir_ec8f0bfa7fdadfcc06ea5c771d837a1c</title>
<path fill="none" stroke="black" d="M71.1,-143.7C77.39,-135.39 85.05,-125.28 91.96,-116.14"/>
<polygon fill="black" stroke="black" points="94.8,-118.19 98.05,-108.1 89.22,-113.96 94.8,-118.19"/>
<g id="a_edge2&#45;headlabel"><a xlink:href="dir_000029_000039.html" target="_top" xlink:title="1">
<text text-anchor="middle" x="94.9" y="-120.27" font-family="Helvetica,sans-Serif" font-size="10.00">1</text>
</a>
</g>
</g>
<!-- dir_996b11b4e4c3d40531c27fa3860d5439 -->
<g id="node3" class="node">
<title>dir_996b11b4e4c3d40531c27fa3860d5439</title>
<g id="a_node3"><a xlink:href="dir_996b11b4e4c3d40531c27fa3860d5439.html" target="_top" xlink:title="mock_replacement">
<polygon fill="white" stroke="black" points="220,-180 110,-180 110,-144 220,-144 220,-180"/>
<text text-anchor="middle" x="165" y="-159.5" font-family="Helvetica,sans-Serif" font-size="10.00">mock_replacement</text>
</a>
</g>
</g>
<!-- dir_996b11b4e4c3d40531c27fa3860d5439&#45;&gt;dir_bfccd401955b95cf8c75461437045ac0 -->
<g id="edge4" class="edge">
<title>dir_996b11b4e4c3d40531c27fa3860d5439&#45;&gt;dir_bfccd401955b95cf8c75461437045ac0</title>
<path fill="none" stroke="black" d="M163.54,-143.67C161.54,-125.29 156.96,-95.69 147,-72 142.97,-62.41 137.08,-52.76 131.22,-44.36"/>
<polygon fill="black" stroke="black" points="133.94,-42.14 125.22,-36.13 128.28,-46.27 133.94,-42.14"/>
<g id="a_edge4&#45;headlabel"><a xlink:href="dir_000038_000012.html" target="_top" xlink:title="1">
<text text-anchor="middle" x="138.35" y="-40.87" font-family="Helvetica,sans-Serif" font-size="10.00">1</text>
</a>
</g>
</g>
<!-- dir_996b11b4e4c3d40531c27fa3860d5439&#45;&gt;dir_ec8f0bfa7fdadfcc06ea5c771d837a1c -->
<g id="edge5" class="edge">
<title>dir_996b11b4e4c3d40531c27fa3860d5439&#45;&gt;dir_ec8f0bfa7fdadfcc06ea5c771d837a1c</title>
<path fill="none" stroke="black" d="M151.65,-143.7C145.24,-135.39 137.44,-125.28 130.39,-116.14"/>
<polygon fill="black" stroke="black" points="133.07,-113.88 124.19,-108.1 127.53,-118.16 133.07,-113.88"/>
<g id="a_edge5&#45;headlabel"><a xlink:href="dir_000038_000039.html" target="_top" xlink:title="1">
<text text-anchor="middle" x="137.52" y="-112.5" font-family="Helvetica,sans-Serif" font-size="10.00">1</text>
</a>
</g>
</g>
<!-- dir_ec8f0bfa7fdadfcc06ea5c771d837a1c&#45;&gt;dir_bfccd401955b95cf8c75461437045ac0 -->
<g id="edge3" class="edge">
<title>dir_ec8f0bfa7fdadfcc06ea5c771d837a1c&#45;&gt;dir_bfccd401955b95cf8c75461437045ac0</title>
<path fill="none" stroke="black" d="M111,-71.7C111,-63.98 111,-54.71 111,-46.11"/>
<polygon fill="black" stroke="black" points="114.5,-46.1 111,-36.1 107.5,-46.1 114.5,-46.1"/>
<g id="a_edge3&#45;headlabel"><a xlink:href="dir_000039_000012.html" target="_top" xlink:title="106">
<text text-anchor="middle" x="117.34" y="-47.2" font-family="Helvetica,sans-Serif" font-size="10.00">106</text>
</a>
</g>
</g>
</g>
</svg>
