<?xml version="1.0" encoding="UTF-8" standalone="no"?>
<!DOCTYPE svg PUBLIC "-//W3C//DTD SVG 1.1//EN"
 "http://www.w3.org/Graphics/SVG/1.1/DTD/svg11.dtd">
<!-- Generated by graphviz version 2.43.0 (0)
 -->
<!-- Title: test/cpp/modules/prefetcher/prefetch_hit_collector Pages: 1 -->
<svg width="162pt" height="223pt"
 viewBox="0.00 0.00 162.00 223.00" xmlns="http://www.w3.org/2000/svg" xmlns:xlink="http://www.w3.org/1999/xlink">
<g id="graph0" class="graph" transform="scale(1 1) rotate(0) translate(4 219)">
<title>test/cpp/modules/prefetcher/prefetch_hit_collector</title>
<g id="clust1" class="cluster">
<title>clusterdir_ccd2b2abe54d4610fe3c9cca542ce809</title>
<g id="a_clust1"><a xlink:href="dir_ccd2b2abe54d4610fe3c9cca542ce809.html" target="_top" xlink:title="prefetcher">
<polygon fill="#ddddee" stroke="black" points="8,-136 8,-207 146,-207 146,-136 8,-136"/>
<text text-anchor="middle" x="77" y="-195" font-family="Helvetica,sans-Serif" font-size="10.00">prefetcher</text>
</a>
</g>
</g>
<!-- dir_9ec394f8838111b867b364f7364d1e9b -->
<g id="node1" class="node">
<title>dir_9ec394f8838111b867b364f7364d1e9b</title>
<g id="a_node1"><a xlink:href="dir_9ec394f8838111b867b364f7364d1e9b.html" target="_top" xlink:title="prefetch_hit_collector">
<polygon fill="#eeeeff" stroke="black" points="138,-180 16,-180 16,-144 138,-144 138,-180"/>
<text text-anchor="middle" x="77" y="-159.5" font-family="Helvetica,sans-Serif" font-size="10.00">prefetch_hit_collector</text>
</a>
</g>
</g>
<!-- dir_bfccd401955b95cf8c75461437045ac0 -->
<g id="node2" class="node">
<title>dir_bfccd401955b95cf8c75461437045ac0</title>
<g id="a_node2"><a xlink:href="dir_bfccd401955b95cf8c75461437045ac0.html" target="_top" xlink:title="inc">
<polygon fill="none" stroke="red" points="103,-36 49,-36 49,0 103,0 103,-36"/>
<text text-anchor="middle" x="76" y="-15.5" font-family="Helvetica,sans-Serif" font-size="10.00">inc</text>
</a>
</g>
</g>
<!-- dir_9ec394f8838111b867b364f7364d1e9b&#45;&gt;dir_bfccd401955b95cf8c75461437045ac0 -->
<g id="edge1" class="edge">
<title>dir_9ec394f8838111b867b364f7364d1e9b&#45;&gt;dir_bfccd401955b95cf8c75461437045ac0</title>
<path fill="none" stroke="black" d="M73.35,-143.91C71.32,-133.57 69.02,-120.09 68,-108 66.66,-92.06 66.8,-87.96 68,-72 68.64,-63.52 69.84,-54.34 71.12,-46.04"/>
<polygon fill="black" stroke="black" points="74.58,-46.55 72.75,-36.11 67.68,-45.41 74.58,-46.55"/>
<g id="a_edge1&#45;headlabel"><a xlink:href="dir_000037_000012.html" target="_top" xlink:title="1">
<text text-anchor="middle" x="76.8" y="-48.05" font-family="Helvetica,sans-Serif" font-size="10.00">1</text>
</a>
</g>
</g>
<!-- dir_ec8f0bfa7fdadfcc06ea5c771d837a1c -->
<g id="node3" class="node">
<title>dir_ec8f0bfa7fdadfcc06ea5c771d837a1c</title>
<g id="a_node3"><a xlink:href="dir_ec8f0bfa7fdadfcc06ea5c771d837a1c.html" target="_top" xlink:title="src">
<polygon fill="none" stroke="black" points="131,-108 77,-108 77,-72 131,-72 131,-108"/>
<text text-anchor="middle" x="104" y="-87.5" font-family="Helvetica,sans-Serif" font-size="10.00">src</text>
</a>
</g>
</g>
<!-- dir_9ec394f8838111b867b364f7364d1e9b&#45;&gt;dir_ec8f0bfa7fdadfcc06ea5c771d837a1c -->
<g id="edge2" class="edge">
<title>dir_9ec394f8838111b867b364f7364d1e9b&#45;&gt;dir_ec8f0bfa7fdadfcc06ea5c771d837a1c</title>
<path fill="none" stroke="black" d="M83.67,-143.7C86.71,-135.81 90.38,-126.3 93.76,-117.55"/>
<polygon fill="black" stroke="black" points="97.07,-118.69 97.4,-108.1 90.54,-116.17 97.07,-118.69"/>
<g id="a_edge2&#45;headlabel"><a xlink:href="dir_000037_000039.html" target="_top" xlink:title="1">
<text text-anchor="middle" x="98.42" y="-120.57" font-family="Helvetica,sans-Serif" font-size="10.00">1</text>
</a>
</g>
</g>
<!-- dir_ec8f0bfa7fdadfcc06ea5c771d837a1c&#45;&gt;dir_bfccd401955b95cf8c75461437045ac0 -->
<g id="edge3" class="edge">
<title>dir_ec8f0bfa7fdadfcc06ea5c771d837a1c&#45;&gt;dir_bfccd401955b95cf8c75461437045ac0</title>
<path fill="none" stroke="black" d="M97.08,-71.7C93.93,-63.81 90.12,-54.3 86.62,-45.55"/>
<polygon fill="black" stroke="black" points="89.81,-44.09 82.84,-36.1 83.31,-46.69 89.81,-44.09"/>
<g id="a_edge3&#45;headlabel"><a xlink:href="dir_000039_000012.html" target="_top" xlink:title="106">
<text text-anchor="middle" x="93.78" y="-43.87" font-family="Helvetica,sans-Serif" font-size="10.00">106</text>
</a>
</g>
</g>
</g>
</svg>
