<?xml version="1.0" encoding="UTF-8" standalone="no"?>
<!DOCTYPE svg PUBLIC "-//W3C//DTD SVG 1.1//EN"
 "http://www.w3.org/Graphics/SVG/1.1/DTD/svg11.dtd">
<!-- Generated by graphviz version 2.43.0 (0)
 -->
<!-- Title: test/cpp/modules/replacement/mock_replacement Pages: 1 -->
<svg width="150pt" height="223pt"
 viewBox="0.00 0.00 150.00 223.00" xmlns="http://www.w3.org/2000/svg" xmlns:xlink="http://www.w3.org/1999/xlink">
<g id="graph0" class="graph" transform="scale(1 1) rotate(0) translate(4 219)">
<title>test/cpp/modules/replacement/mock_replacement</title>
<g id="clust1" class="cluster">
<title>clusterdir_bc62a0603ffc4ba482094e459902a6e2</title>
<g id="a_clust1"><a xlink:href="dir_bc62a0603ffc4ba482094e459902a6e2.html" target="_top" xlink:title="replacement">
<polygon fill="#ddddee" stroke="black" points="8,-136 8,-207 134,-207 134,-136 8,-136"/>
<text text-anchor="middle" x="71" y="-195" font-family="Helvetica,sans-Serif" font-size="10.00">replacement</text>
</a>
</g>
</g>
<!-- dir_996b11b4e4c3d40531c27fa3860d5439 -->
<g id="node1" class="node">
<title>dir_996b11b4e4c3d40531c27fa3860d5439</title>
<g id="a_node1"><a xlink:href="dir_996b11b4e4c3d40531c27fa3860d5439.html" target="_top" xlink:title="mock_replacement">
<polygon fill="#eeeeff" stroke="black" points="126,-180 16,-180 16,-144 126,-144 126,-180"/>
<text text-anchor="middle" x="71" y="-159.5" font-family="Helvetica,sans-Serif" font-size="10.00">mock_replacement</text>
</a>
</g>
</g>
<!-- dir_bfccd401955b95cf8c75461437045ac0 -->
<g id="node2" class="node">
<title>dir_bfccd401955b95cf8c75461437045ac0</title>
<g id="a_node2"><a xlink:href="dir_bfccd401955b95cf8c75461437045ac0.html" target="_top" xlink:title="inc">
<polygon fill="none" stroke="red" points="97,-36 43,-36 43,0 97,0 97,-36"/>
<text text-anchor="middle" x="70" y="-15.5" font-family="Helvetica,sans-Serif" font-size="10.00">inc</text>
</a>
</g>
</g>
<!-- dir_996b11b4e4c3d40531c27fa3860d5439&#45;&gt;dir_bfccd401955b95cf8c75461437045ac0 -->
<g id="edge2" class="edge">
<title>dir_996b11b4e4c3d40531c27fa3860d5439&#45;&gt;dir_bfccd401955b95cf8c75461437045ac0</title>
<path fill="none" stroke="black" d="M67.35,-143.91C65.32,-133.57 63.02,-120.09 62,-108 60.66,-92.06 60.8,-87.96 62,-72 62.64,-63.52 63.84,-54.34 65.12,-46.04"/>
<polygon fill="black" stroke="black" points="68.58,-46.55 66.75,-36.11 61.68,-45.41 68.58,-46.55"/>
<g id="a_edge2&#45;headlabel"><a xlink:href="dir_000038_000012.html" target="_top" xlink:title="1">
<text text-anchor="middle" x="70.8" y="-48.05" font-family="Helvetica,sans-Serif" font-size="10.00">1</text>
</a>
</g>
</g>
<!-- dir_ec8f0bfa7fdadfcc06ea5c771d837a1c -->
<g id="node3" class="node">
<title>dir_ec8f0bfa7fdadfcc06ea5c771d837a1c</title>
<g id="a_node3"><a xlink:href="dir_ec8f0bfa7fdadfcc06ea5c771d837a1c.html" target="_top" xlink:title="src">
<polygon fill="none" stroke="black" points="125,-108 71,-108 71,-72 125,-72 125,-108"/>
<text text-anchor="middle" x="98" y="-87.5" font-family="Helvetica,sans-Serif" font-size="10.00">src</text>
</a>
</g>
</g>
<!-- dir_996b11b4e4c3d40531c27fa3860d5439&#45;&gt;dir_ec8f0bfa7fdadfcc06ea5c771d837a1c -->
<g id="edge3" class="edge">
<title>dir_996b11b4e4c3d40531c27fa3860d5439&#45;&gt;dir_ec8f0bfa7fdadfcc06ea5c771d837a1c</title>
<path fill="none" stroke="black" d="M77.67,-143.7C80.71,-135.81 84.38,-126.3 87.76,-117.55"/>
<polygon fill="black" stroke="black" points="91.07,-118.69 91.4,-108.1 84.54,-116.17 91.07,-118.69"/>
<g id="a_edge3&#45;headlabel"><a xlink:href="dir_000038_000039.html" target="_top" xlink:title="1">
<text text-anchor="middle" x="92.42" y="-120.57" font-family="Helvetica,sans-Serif" font-size="10.00">1</text>
</a>
</g>
</g>
<!-- dir_ec8f0bfa7fdadfcc06ea5c771d837a1c&#45;&gt;dir_bfccd401955b95cf8c75461437045ac0 -->
<g id="edge1" class="edge">
<title>dir_ec8f0bfa7fdadfcc06ea5c771d837a1c&#45;&gt;dir_bfccd401955b95cf8c75461437045ac0</title>
<path fill="none" stroke="black" d="M91.08,-71.7C87.93,-63.81 84.12,-54.3 80.62,-45.55"/>
<polygon fill="black" stroke="black" points="83.81,-44.09 76.84,-36.1 77.31,-46.69 83.81,-44.09"/>
<g id="a_edge1&#45;headlabel"><a xlink:href="dir_000039_000012.html" target="_top" xlink:title="106">
<text text-anchor="middle" x="87.78" y="-43.87" font-family="Helvetica,sans-Serif" font-size="10.00">106</text>
</a>
</g>
</g>
</g>
</svg>
