<?xml version="1.0" encoding="UTF-8" standalone="no"?>
<!DOCTYPE svg PUBLIC "-//W3C//DTD SVG 1.1//EN"
 "http://www.w3.org/Graphics/SVG/1.1/DTD/svg11.dtd">
<!-- Generated by graphviz version 2.43.0 (0)
 -->
<!-- Title: branch Pages: 1 -->
<svg width="536pt" height="132pt"
 viewBox="0.00 0.00 536.00 132.00" xmlns="http://www.w3.org/2000/svg" xmlns:xlink="http://www.w3.org/1999/xlink">
<g id="graph0" class="graph" transform="scale(1 1) rotate(0) translate(4 128)">
<title>branch</title>
<g id="clust1" class="cluster">
<title>clusterdir_adbfc39968258094b6504d03d76a585f</title>
<g id="a_clust1"><a xlink:href="dir_adbfc39968258094b6504d03d76a585f.html" target="_top">
<polygon fill="#eeeeff" stroke="black" points="8,-64 8,-116 520,-116 520,-64 8,-64"/>
</a>
</g>
</g>
<!-- dir_adbfc39968258094b6504d03d76a585f -->
<g id="node1" class="node">
<title>dir_adbfc39968258094b6504d03d76a585f</title>
<text text-anchor="middle" x="485" y="-87.5" font-family="Helvetica,sans-Serif" font-size="10.00">branch</text>
</g>
<!-- dir_6515896ae4e2b45b999e4b88fd948c28 -->
<g id="node2" class="node">
<title>dir_6515896ae4e2b45b999e4b88fd948c28</title>
<g id="a_node2"><a xlink:href="dir_6515896ae4e2b45b999e4b88fd948c28.html" target="_top" xlink:title="bimodal">
<polygon fill="white" stroke="black" points="440,-108 384,-108 384,-72 440,-72 440,-108"/>
<text text-anchor="middle" x="412" y="-87.5" font-family="Helvetica,sans-Serif" font-size="10.00">bimodal</text>
</a>
</g>
</g>
<!-- dir_bfccd401955b95cf8c75461437045ac0 -->
<g id="node7" class="node">
<title>dir_bfccd401955b95cf8c75461437045ac0</title>
<g id="a_node7"><a xlink:href="dir_bfccd401955b95cf8c75461437045ac0.html" target="_top" xlink:title="inc">
<polygon fill="none" stroke="red" points="266,-36 212,-36 212,0 266,0 266,-36"/>
<text text-anchor="middle" x="239" y="-15.5" font-family="Helvetica,sans-Serif" font-size="10.00">inc</text>
</a>
</g>
</g>
<!-- dir_6515896ae4e2b45b999e4b88fd948c28&#45;&gt;dir_bfccd401955b95cf8c75461437045ac0 -->
<g id="edge4" class="edge">
<title>dir_6515896ae4e2b45b999e4b88fd948c28&#45;&gt;dir_bfccd401955b95cf8c75461437045ac0</title>
<path fill="none" stroke="black" d="M388.7,-71.86C384.28,-69.01 379.59,-66.26 375,-64 342.9,-48.22 303.94,-35.97 275.96,-28.26"/>
<polygon fill="black" stroke="black" points="276.75,-24.85 266.18,-25.63 274.93,-31.6 276.75,-24.85"/>
<g id="a_edge4&#45;headlabel"><a xlink:href="dir_000001_000012.html" target="_top" xlink:title="2">
<text text-anchor="middle" x="280.95" y="-20.54" font-family="Helvetica,sans-Serif" font-size="10.00">2</text>
</a>
</g>
</g>
<!-- dir_c81033f3af13872ffc4e397c6c513884 -->
<g id="node3" class="node">
<title>dir_c81033f3af13872ffc4e397c6c513884</title>
<g id="a_node3"><a xlink:href="dir_c81033f3af13872ffc4e397c6c513884.html" target="_top" xlink:title="gshare">
<polygon fill="white" stroke="black" points="366,-108 312,-108 312,-72 366,-72 366,-108"/>
<text text-anchor="middle" x="339" y="-87.5" font-family="Helvetica,sans-Serif" font-size="10.00">gshare</text>
</a>
</g>
</g>
<!-- dir_c81033f3af13872ffc4e397c6c513884&#45;&gt;dir_bfccd401955b95cf8c75461437045ac0 -->
<g id="edge2" class="edge">
<title>dir_c81033f3af13872ffc4e397c6c513884&#45;&gt;dir_bfccd401955b95cf8c75461437045ac0</title>
<path fill="none" stroke="black" d="M314.54,-71.88C301.7,-62.89 285.8,-51.76 271.91,-42.03"/>
<polygon fill="black" stroke="black" points="273.76,-39.06 263.56,-36.19 269.74,-44.79 273.76,-39.06"/>
<g id="a_edge2&#45;headlabel"><a xlink:href="dir_000002_000012.html" target="_top" xlink:title="2">
<text text-anchor="middle" x="278.33" y="-36.29" font-family="Helvetica,sans-Serif" font-size="10.00">2</text>
</a>
</g>
</g>
<!-- dir_0197e61d7c792fa47573c87057c5f488 -->
<g id="node4" class="node">
<title>dir_0197e61d7c792fa47573c87057c5f488</title>
<g id="a_node4"><a xlink:href="dir_0197e61d7c792fa47573c87057c5f488.html" target="_top" xlink:title="hashed_perceptron">
<polygon fill="white" stroke="black" points="294,-108 184,-108 184,-72 294,-72 294,-108"/>
<text text-anchor="middle" x="239" y="-87.5" font-family="Helvetica,sans-Serif" font-size="10.00">hashed_perceptron</text>
</a>
</g>
</g>
<!-- dir_0197e61d7c792fa47573c87057c5f488&#45;&gt;dir_bfccd401955b95cf8c75461437045ac0 -->
<g id="edge5" class="edge">
<title>dir_0197e61d7c792fa47573c87057c5f488&#45;&gt;dir_bfccd401955b95cf8c75461437045ac0</title>
<path fill="none" stroke="black" d="M239,-71.7C239,-63.98 239,-54.71 239,-46.11"/>
<polygon fill="black" stroke="black" points="242.5,-46.1 239,-36.1 235.5,-46.1 242.5,-46.1"/>
<g id="a_edge5&#45;headlabel"><a xlink:href="dir_000003_000012.html" target="_top" xlink:title="1">
<text text-anchor="middle" x="245.34" y="-47.2" font-family="Helvetica,sans-Serif" font-size="10.00">1</text>
</a>
</g>
</g>
<!-- dir_56ff7afbca048f4e6457fcfbc9c57e82 -->
<g id="node5" class="node">
<title>dir_56ff7afbca048f4e6457fcfbc9c57e82</title>
<g id="a_node5"><a xlink:href="dir_56ff7afbca048f4e6457fcfbc9c57e82.html" target="_top" xlink:title="perceptron">
<polygon fill="white" stroke="black" points="165.5,-108 96.5,-108 96.5,-72 165.5,-72 165.5,-108"/>
<text text-anchor="middle" x="131" y="-87.5" font-family="Helvetica,sans-Serif" font-size="10.00">perceptron</text>
</a>
</g>
</g>
<!-- dir_56ff7afbca048f4e6457fcfbc9c57e82&#45;&gt;dir_bfccd401955b95cf8c75461437045ac0 -->
<g id="edge3" class="edge">
<title>dir_56ff7afbca048f4e6457fcfbc9c57e82&#45;&gt;dir_bfccd401955b95cf8c75461437045ac0</title>
<path fill="none" stroke="black" d="M157.42,-71.88C171.41,-62.81 188.78,-51.55 203.89,-41.76"/>
<polygon fill="black" stroke="black" points="205.99,-44.57 212.48,-36.19 202.18,-38.69 205.99,-44.57"/>
<g id="a_edge3&#45;headlabel"><a xlink:href="dir_000004_000012.html" target="_top" xlink:title="2">
<text text-anchor="middle" x="204.52" y="-46.4" font-family="Helvetica,sans-Serif" font-size="10.00">2</text>
</a>
</g>
</g>
<!-- dir_aa9f1c5c2000e34f568aa7937f03efcc -->
<g id="node6" class="node">
<title>dir_aa9f1c5c2000e34f568aa7937f03efcc</title>
<g id="a_node6"><a xlink:href="dir_aa9f1c5c2000e34f568aa7937f03efcc.html" target="_top" xlink:title="tage_sc_l">
<polygon fill="white" stroke="black" points="78,-108 16,-108 16,-72 78,-72 78,-108"/>
<text text-anchor="middle" x="47" y="-87.5" font-family="Helvetica,sans-Serif" font-size="10.00">tage_sc_l</text>
</a>
</g>
</g>
<!-- dir_aa9f1c5c2000e34f568aa7937f03efcc&#45;&gt;dir_bfccd401955b95cf8c75461437045ac0 -->
<g id="edge1" class="edge">
<title>dir_aa9f1c5c2000e34f568aa7937f03efcc&#45;&gt;dir_bfccd401955b95cf8c75461437045ac0</title>
<path fill="none" stroke="black" d="M72.92,-71.82C77.81,-68.98 82.97,-66.24 88,-64 125.39,-47.37 170.64,-34.81 201.8,-27.24"/>
<polygon fill="black" stroke="black" points="202.87,-30.58 211.79,-24.87 201.26,-23.77 202.87,-30.58"/>
<g id="a_edge1&#45;headlabel"><a xlink:href="dir_000005_000012.html" target="_top" xlink:title="1">
<text text-anchor="middle" x="200.03" y="-31.68" font-family="Helvetica,sans-Serif" font-size="10.00">1</text>
</a>
</g>
</g>
</g>
</svg>
