<?xml version="1.0" encoding="UTF-8" standalone="no"?>
<!DOCTYPE svg PUBLIC "-//W3C//DTD SVG 1.1//EN"
 "http://www.w3.org/Graphics/SVG/1.1/DTD/svg11.dtd">
<!-- Generated by graphviz version 2.43.0 (0)
 -->
<!-- Title: test/cpp/modules Pages: 1 -->
<svg width="298pt" height="231pt"
 viewBox="0.00 0.00 298.00 231.00" xmlns="http://www.w3.org/2000/svg" xmlns:xlink="http://www.w3.org/1999/xlink">
<g id="graph0" class="graph" transform="scale(1 1) rotate(0) translate(4 227)">
<title>test/cpp/modules</title>
<g id="clust1" class="cluster">
<title>clusterdir_397f70d4556818ac16abc7ec4d1b6970</title>
<g id="a_clust1"><a xlink:href="dir_397f70d4556818ac16abc7ec4d1b6970.html" target="_top" xlink:title="cpp">
<polygon fill="#ddddee" stroke="black" points="8,-64 8,-215 282,-215 282,-64 8,-64"/>
<text text-anchor="middle" x="145" y="-203" font-family="Helvetica,sans-Serif" font-size="10.00">cpp</text>
</a>
</g>
</g>
<g id="clust2" class="cluster">
<title>clusterdir_5af99df572ed9737c30e134e5ba83e3d</title>
<g id="a_clust2"><a xlink:href="dir_5af99df572ed9737c30e134e5ba83e3d.html" target="_top">
<polygon fill="#eeeeff" stroke="black" points="16,-136 16,-188 274,-188 274,-136 16,-136"/>
</a>
</g>
</g>
<!-- dir_ec8f0bfa7fdadfcc06ea5c771d837a1c -->
<g id="node1" class="node">
<title>dir_ec8f0bfa7fdadfcc06ea5c771d837a1c</title>
<g id="a_node1"><a xlink:href="dir_ec8f0bfa7fdadfcc06ea5c771d837a1c.html" target="_top" xlink:title="src">
<polygon fill="none" stroke="black" points="84,-108 30,-108 30,-72 84,-72 84,-108"/>
<text text-anchor="middle" x="57" y="-87.5" font-family="Helvetica,sans-Serif" font-size="10.00">src</text>
</a>
</g>
</g>
<!-- dir_bfccd401955b95cf8c75461437045ac0 -->
<g id="node5" class="node">
<title>dir_bfccd401955b95cf8c75461437045ac0</title>
<g id="a_node5"><a xlink:href="dir_bfccd401955b95cf8c75461437045ac0.html" target="_top" xlink:title="inc">
<polygon fill="none" stroke="red" points="139,-36 85,-36 85,0 139,0 139,-36"/>
<text text-anchor="middle" x="112" y="-15.5" font-family="Helvetica,sans-Serif" font-size="10.00">inc</text>
</a>
</g>
</g>
<!-- dir_ec8f0bfa7fdadfcc06ea5c771d837a1c&#45;&gt;dir_bfccd401955b95cf8c75461437045ac0 -->
<g id="edge1" class="edge">
<title>dir_ec8f0bfa7fdadfcc06ea5c771d837a1c&#45;&gt;dir_bfccd401955b95cf8c75461437045ac0</title>
<path fill="none" stroke="black" d="M70.6,-71.7C77.12,-63.39 85.07,-53.28 92.25,-44.14"/>
<polygon fill="black" stroke="black" points="95.13,-46.13 98.56,-36.1 89.63,-41.81 95.13,-46.13"/>
<g id="a_edge1&#45;headlabel"><a xlink:href="dir_000039_000012.html" target="_top" xlink:title="106">
<text text-anchor="middle" x="95.15" y="-48.21" font-family="Helvetica,sans-Serif" font-size="10.00">106</text>
</a>
</g>
</g>
<!-- dir_5af99df572ed9737c30e134e5ba83e3d -->
<g id="node2" class="node">
<title>dir_5af99df572ed9737c30e134e5ba83e3d</title>
<text text-anchor="middle" x="236" y="-159.5" font-family="Helvetica,sans-Serif" font-size="10.00">modules</text>
</g>
<!-- dir_ccd2b2abe54d4610fe3c9cca542ce809 -->
<g id="node3" class="node">
<title>dir_ccd2b2abe54d4610fe3c9cca542ce809</title>
<g id="a_node3"><a xlink:href="dir_ccd2b2abe54d4610fe3c9cca542ce809.html" target="_top" xlink:title="prefetcher">
<polygon fill="white" stroke="red" points="91.5,-180 24.5,-180 24.5,-144 91.5,-144 91.5,-180"/>
<text text-anchor="middle" x="58" y="-159.5" font-family="Helvetica,sans-Serif" font-size="10.00">prefetcher</text>
</a>
</g>
</g>
<!-- dir_ccd2b2abe54d4610fe3c9cca542ce809&#45;&gt;dir_ec8f0bfa7fdadfcc06ea5c771d837a1c -->
<g id="edge3" class="edge">
<title>dir_ccd2b2abe54d4610fe3c9cca542ce809&#45;&gt;dir_ec8f0bfa7fdadfcc06ea5c771d837a1c</title>
<path fill="none" stroke="black" d="M57.75,-143.7C57.64,-135.98 57.51,-126.71 57.39,-118.11"/>
<polygon fill="black" stroke="black" points="60.89,-118.05 57.24,-108.1 53.89,-118.15 60.89,-118.05"/>
<g id="a_edge3&#45;headlabel"><a xlink:href="dir_000033_000039.html" target="_top" xlink:title="1">
<text text-anchor="middle" x="63.78" y="-119.11" font-family="Helvetica,sans-Serif" font-size="10.00">1</text>
</a>
</g>
</g>
<!-- dir_ccd2b2abe54d4610fe3c9cca542ce809&#45;&gt;dir_bfccd401955b95cf8c75461437045ac0 -->
<g id="edge2" class="edge">
<title>dir_ccd2b2abe54d4610fe3c9cca542ce809&#45;&gt;dir_bfccd401955b95cf8c75461437045ac0</title>
<path fill="none" stroke="black" d="M74.48,-143.75C82.86,-134.01 92.42,-121.16 98,-108 106.34,-88.35 109.76,-64.36 111.15,-46.24"/>
<polygon fill="black" stroke="black" points="114.65,-46.26 111.76,-36.07 107.66,-45.84 114.65,-46.26"/>
<g id="a_edge2&#45;headlabel"><a xlink:href="dir_000033_000012.html" target="_top" xlink:title="4">
<text text-anchor="middle" x="117.27" y="-47.52" font-family="Helvetica,sans-Serif" font-size="10.00">4</text>
</a>
</g>
</g>
<!-- dir_bc62a0603ffc4ba482094e459902a6e2 -->
<g id="node4" class="node">
<title>dir_bc62a0603ffc4ba482094e459902a6e2</title>
<g id="a_node4"><a xlink:href="dir_bc62a0603ffc4ba482094e459902a6e2.html" target="_top" xlink:title="replacement">
<polygon fill="white" stroke="red" points="188,-180 110,-180 110,-144 188,-144 188,-180"/>
<text text-anchor="middle" x="149" y="-159.5" font-family="Helvetica,sans-Serif" font-size="10.00">replacement</text>
</a>
</g>
</g>
<!-- dir_bc62a0603ffc4ba482094e459902a6e2&#45;&gt;dir_ec8f0bfa7fdadfcc06ea5c771d837a1c -->
<g id="edge5" class="edge">
<title>dir_bc62a0603ffc4ba482094e459902a6e2&#45;&gt;dir_ec8f0bfa7fdadfcc06ea5c771d837a1c</title>
<path fill="none" stroke="black" d="M126.26,-143.7C114.56,-134.8 100.14,-123.82 87.49,-114.2"/>
<polygon fill="black" stroke="black" points="89.56,-111.37 79.48,-108.1 85.32,-116.94 89.56,-111.37"/>
<g id="a_edge5&#45;headlabel"><a xlink:href="dir_000028_000039.html" target="_top" xlink:title="2">
<text text-anchor="middle" x="94.14" y="-108.79" font-family="Helvetica,sans-Serif" font-size="10.00">2</text>
</a>
</g>
</g>
<!-- dir_bc62a0603ffc4ba482094e459902a6e2&#45;&gt;dir_bfccd401955b95cf8c75461437045ac0 -->
<g id="edge4" class="edge">
<title>dir_bc62a0603ffc4ba482094e459902a6e2&#45;&gt;dir_bfccd401955b95cf8c75461437045ac0</title>
<path fill="none" stroke="black" d="M145.28,-143.74C141,-124.27 133.59,-91.71 126,-64 124.37,-58.03 122.48,-51.67 120.63,-45.66"/>
<polygon fill="black" stroke="black" points="123.93,-44.51 117.6,-36.01 117.25,-46.6 123.93,-44.51"/>
<g id="a_edge4&#45;headlabel"><a xlink:href="dir_000028_000012.html" target="_top" xlink:title="2">
<text text-anchor="middle" x="127.72" y="-44.58" font-family="Helvetica,sans-Serif" font-size="10.00">2</text>
</a>
</g>
</g>
</g>
</svg>
