<?xml version="1.0" encoding="UTF-8" standalone="no"?>
<!DOCTYPE svg PUBLIC "-//W3C//DTD SVG 1.1//EN"
 "http://www.w3.org/Graphics/SVG/1.1/DTD/svg11.dtd">
<!-- Generated by graphviz version 2.43.0 (0)
 -->
<!-- Title: inc/dram_controller.h Pages: 1 -->
<svg width="1495pt" height="207pt"
 viewBox="0.00 0.00 1494.50 207.00" xmlns="http://www.w3.org/2000/svg" xmlns:xlink="http://www.w3.org/1999/xlink">
<g id="graph0" class="graph" transform="scale(1 1) rotate(0) translate(4 203)">
<title>inc/dram_controller.h</title>
<!-- Node1 -->
<g id="node1" class="node">
<title>Node1</title>
<g id="a_node1"><a xlink:title=" ">
<polygon fill="#bfbfbf" stroke="black" points="585,-179.5 585,-198.5 704,-198.5 704,-179.5 585,-179.5"/>
<text text-anchor="middle" x="644.5" y="-186.5" font-family="Helvetica,sans-Serif" font-size="10.00">inc/dram_controller.h</text>
</a>
</g>
</g>
<!-- Node2 -->
<g id="node2" class="node">
<title>Node2</title>
<g id="a_node2"><a xlink:href="environment_8h.html" target="_top" xlink:title=" ">
<polygon fill="none" stroke="black" points="0,-118 0,-137 105,-137 105,-118 0,-118"/>
<text text-anchor="middle" x="52.5" y="-125" font-family="Helvetica,sans-Serif" font-size="10.00">inc/environment.h</text>
</a>
</g>
</g>
<!-- Node1&#45;&gt;Node2 -->
<g id="edge1" class="edge">
<title>Node1&#45;&gt;Node2</title>
<path fill="none" stroke="midnightblue" d="M574.8,-185.31C473.09,-180.65 278.29,-168.97 114.5,-143 104.89,-141.48 94.56,-139.29 85.14,-137.07"/>
<polygon fill="midnightblue" stroke="midnightblue" points="574.8,-188.81 584.94,-185.76 575.11,-181.82 574.8,-188.81"/>
</g>
<!-- Node4 -->
<g id="node4" class="node">
<title>Node4</title>
<g id="a_node4"><a xlink:href="phase__info_8h.html" target="_top" xlink:title=" ">
<polygon fill="none" stroke="black" points="123.5,-118 123.5,-137 219.5,-137 219.5,-118 123.5,-118"/>
<text text-anchor="middle" x="171.5" y="-125" font-family="Helvetica,sans-Serif" font-size="10.00">inc/phase_info.h</text>
</a>
</g>
</g>
<!-- Node1&#45;&gt;Node4 -->
<g id="edge3" class="edge">
<title>Node1&#45;&gt;Node4</title>
<path fill="none" stroke="midnightblue" d="M574.77,-182.95C492.73,-176.4 352.58,-163.37 233.5,-143 224.13,-141.4 214.06,-139.23 204.81,-137.07"/>
<polygon fill="midnightblue" stroke="midnightblue" points="574.73,-186.45 584.97,-183.75 575.28,-179.47 574.73,-186.45"/>
</g>
<!-- Node5 -->
<g id="node5" class="node">
<title>Node5</title>
<g id="a_node5"><a xlink:href="stats__printer_8h.html" target="_top" xlink:title=" ">
<polygon fill="none" stroke="black" points="195.5,-56.5 195.5,-75.5 299.5,-75.5 299.5,-56.5 195.5,-56.5"/>
<text text-anchor="middle" x="247.5" y="-63.5" font-family="Helvetica,sans-Serif" font-size="10.00">inc/stats_printer.h</text>
</a>
</g>
</g>
<!-- Node1&#45;&gt;Node5 -->
<g id="edge10" class="edge">
<title>Node1&#45;&gt;Node5</title>
<path fill="none" stroke="midnightblue" d="M574.49,-188.85C477.97,-188.52 310.88,-182.09 266.5,-143 246.91,-125.74 246.02,-91.62 246.79,-75.64"/>
<polygon fill="midnightblue" stroke="midnightblue" points="574.75,-192.35 584.75,-188.86 574.76,-185.35 574.75,-192.35"/>
</g>
<!-- Node9 -->
<g id="node9" class="node">
<title>Node9</title>
<g id="a_node9"><a xlink:href="dram__controller_8cc.html" target="_top" xlink:title=" ">
<polygon fill="none" stroke="black" points="275.5,-118 275.5,-137 399.5,-137 399.5,-118 275.5,-118"/>
<text text-anchor="middle" x="337.5" y="-125" font-family="Helvetica,sans-Serif" font-size="10.00">src/dram_controller.cc</text>
</a>
</g>
</g>
<!-- Node1&#45;&gt;Node9 -->
<g id="edge11" class="edge">
<title>Node1&#45;&gt;Node9</title>
<path fill="none" stroke="midnightblue" d="M588.88,-177.5C541.24,-168.48 470.83,-155.05 409.5,-143 399.74,-141.08 389.24,-138.99 379.37,-137"/>
<polygon fill="midnightblue" stroke="midnightblue" points="588.51,-181 598.99,-179.42 589.81,-174.12 588.51,-181"/>
</g>
<!-- Node10 -->
<g id="node10" class="node">
<title>Node10</title>
<g id="a_node10"><a xlink:href="vmem_8cc.html" target="_top" xlink:title=" ">
<polygon fill="none" stroke="black" points="418,-118 418,-137 497,-137 497,-118 418,-118"/>
<text text-anchor="middle" x="457.5" y="-125" font-family="Helvetica,sans-Serif" font-size="10.00">src/vmem.cc</text>
</a>
</g>
</g>
<!-- Node1&#45;&gt;Node10 -->
<g id="edge12" class="edge">
<title>Node1&#45;&gt;Node10</title>
<path fill="none" stroke="midnightblue" d="M607.98,-176.38C571.63,-164.82 516.71,-147.34 484.24,-137.01"/>
<polygon fill="midnightblue" stroke="midnightblue" points="607.12,-179.78 617.71,-179.48 609.24,-173.11 607.12,-179.78"/>
</g>
<!-- Node11 -->
<g id="node11" class="node">
<title>Node11</title>
<g id="a_node11"><a xlink:href="600-ptw-path_8cc.html" target="_top" xlink:title=" ">
<polygon fill="none" stroke="black" points="514.5,-112.5 514.5,-142.5 630.5,-142.5 630.5,-112.5 514.5,-112.5"/>
<text text-anchor="start" x="522.5" y="-130.5" font-family="Helvetica,sans-Serif" font-size="10.00">test/cpp/src/600&#45;ptw</text>
<text text-anchor="middle" x="572.5" y="-119.5" font-family="Helvetica,sans-Serif" font-size="10.00">&#45;path.cc</text>
</a>
</g>
</g>
<!-- Node1&#45;&gt;Node11 -->
<g id="edge13" class="edge">
<title>Node1&#45;&gt;Node11</title>
<path fill="none" stroke="midnightblue" d="M626.25,-172.92C614.95,-163.58 600.53,-151.66 589.47,-142.52"/>
<polygon fill="midnightblue" stroke="midnightblue" points="624.25,-175.8 634.18,-179.48 628.71,-170.41 624.25,-175.8"/>
</g>
<!-- Node12 -->
<g id="node12" class="node">
<title>Node12</title>
<g id="a_node12"><a xlink:href="601-multiple-inflight-walks_8cc.html" target="_top" xlink:title=" ">
<polygon fill="none" stroke="black" points="648.5,-112.5 648.5,-142.5 786.5,-142.5 786.5,-112.5 648.5,-112.5"/>
<text text-anchor="start" x="656.5" y="-130.5" font-family="Helvetica,sans-Serif" font-size="10.00">test/cpp/src/601&#45;multiple</text>
<text text-anchor="middle" x="717.5" y="-119.5" font-family="Helvetica,sans-Serif" font-size="10.00">&#45;inflight&#45;walks.cc</text>
</a>
</g>
</g>
<!-- Node1&#45;&gt;Node12 -->
<g id="edge14" class="edge">
<title>Node1&#45;&gt;Node12</title>
<path fill="none" stroke="midnightblue" d="M663,-172.92C674.46,-163.58 689.08,-151.66 700.3,-142.52"/>
<polygon fill="midnightblue" stroke="midnightblue" points="660.5,-170.44 654.96,-179.48 664.92,-175.87 660.5,-170.44"/>
</g>
<!-- Node13 -->
<g id="node13" class="node">
<title>Node13</title>
<g id="a_node13"><a xlink:href="602-walk-latency_8cc.html" target="_top" xlink:title=" ">
<polygon fill="none" stroke="black" points="805,-112.5 805,-142.5 926,-142.5 926,-112.5 805,-112.5"/>
<text text-anchor="start" x="813" y="-130.5" font-family="Helvetica,sans-Serif" font-size="10.00">test/cpp/src/602&#45;walk</text>
<text text-anchor="middle" x="865.5" y="-119.5" font-family="Helvetica,sans-Serif" font-size="10.00">&#45;latency.cc</text>
</a>
</g>
</g>
<!-- Node1&#45;&gt;Node13 -->
<g id="edge15" class="edge">
<title>Node1&#45;&gt;Node13</title>
<path fill="none" stroke="midnightblue" d="M685.88,-176.86C721.96,-167.14 774.48,-153.01 813.41,-142.52"/>
<polygon fill="midnightblue" stroke="midnightblue" points="684.91,-173.5 676.16,-179.48 686.73,-180.25 684.91,-173.5"/>
</g>
<!-- Node14 -->
<g id="node14" class="node">
<title>Node14</title>
<g id="a_node14"><a xlink:href="603-pte-page-correctness_8cc.html" target="_top" xlink:title=" ">
<polygon fill="none" stroke="black" points="944.5,-112.5 944.5,-142.5 1062.5,-142.5 1062.5,-112.5 944.5,-112.5"/>
<text text-anchor="start" x="952.5" y="-130.5" font-family="Helvetica,sans-Serif" font-size="10.00">test/cpp/src/603&#45;pte</text>
<text text-anchor="middle" x="1003.5" y="-119.5" font-family="Helvetica,sans-Serif" font-size="10.00">&#45;page&#45;correctness.cc</text>
</a>
</g>
</g>
<!-- Node1&#45;&gt;Node14 -->
<g id="edge16" class="edge">
<title>Node1&#45;&gt;Node14</title>
<path fill="none" stroke="midnightblue" d="M713.99,-178.38C773.06,-169.94 860.05,-156.87 935.5,-143 938.35,-142.48 941.26,-141.92 944.2,-141.35"/>
<polygon fill="midnightblue" stroke="midnightblue" points="713.43,-174.93 704.02,-179.8 714.42,-181.86 713.43,-174.93"/>
</g>
<!-- Node15 -->
<g id="node15" class="node">
<title>Node15</title>
<g id="a_node15"><a xlink:href="801-vmem-duplicated_8cc.html" target="_top" xlink:title=" ">
<polygon fill="none" stroke="black" points="1080.5,-112.5 1080.5,-142.5 1208.5,-142.5 1208.5,-112.5 1080.5,-112.5"/>
<text text-anchor="start" x="1088.5" y="-130.5" font-family="Helvetica,sans-Serif" font-size="10.00">test/cpp/src/801&#45;vmem</text>
<text text-anchor="middle" x="1144.5" y="-119.5" font-family="Helvetica,sans-Serif" font-size="10.00">&#45;duplicated.cc</text>
</a>
</g>
</g>
<!-- Node1&#45;&gt;Node15 -->
<g id="edge17" class="edge">
<title>Node1&#45;&gt;Node15</title>
<path fill="none" stroke="midnightblue" d="M714.14,-182.62C798.87,-175.63 946.15,-162.01 1071.5,-143 1074.44,-142.55 1077.44,-142.07 1080.46,-141.56"/>
<polygon fill="midnightblue" stroke="midnightblue" points="713.81,-179.14 704.13,-183.44 714.38,-186.11 713.81,-179.14"/>
</g>
<!-- Node16 -->
<g id="node16" class="node">
<title>Node16</title>
<g id="a_node16"><a xlink:href="802-pte-page_8cc.html" target="_top" xlink:title=" ">
<polygon fill="none" stroke="black" points="1227,-112.5 1227,-142.5 1340,-142.5 1340,-112.5 1227,-112.5"/>
<text text-anchor="start" x="1235" y="-130.5" font-family="Helvetica,sans-Serif" font-size="10.00">test/cpp/src/802&#45;pte</text>
<text text-anchor="middle" x="1283.5" y="-119.5" font-family="Helvetica,sans-Serif" font-size="10.00">&#45;page.cc</text>
</a>
</g>
</g>
<!-- Node1&#45;&gt;Node16 -->
<g id="edge18" class="edge">
<title>Node1&#45;&gt;Node16</title>
<path fill="none" stroke="midnightblue" d="M714.34,-185.62C822.6,-181.23 1037.26,-169.75 1217.5,-143 1220.52,-142.55 1223.6,-142.05 1226.71,-141.5"/>
<polygon fill="midnightblue" stroke="midnightblue" points="714.05,-182.13 704.2,-186.02 714.33,-189.12 714.05,-182.13"/>
</g>
<!-- Node17 -->
<g id="node17" class="node">
<title>Node17</title>
<g id="a_node17"><a xlink:href="803-vmem-offset_8cc.html" target="_top" xlink:title=" ">
<polygon fill="none" stroke="black" points="1358.5,-112.5 1358.5,-142.5 1486.5,-142.5 1486.5,-112.5 1358.5,-112.5"/>
<text text-anchor="start" x="1366.5" y="-130.5" font-family="Helvetica,sans-Serif" font-size="10.00">test/cpp/src/803&#45;vmem</text>
<text text-anchor="middle" x="1422.5" y="-119.5" font-family="Helvetica,sans-Serif" font-size="10.00">&#45;offset.cc</text>
</a>
</g>
</g>
<!-- Node1&#45;&gt;Node17 -->
<g id="edge19" class="edge">
<title>Node1&#45;&gt;Node17</title>
<path fill="none" stroke="midnightblue" d="M714.53,-186.6C841.57,-183.37 1118.25,-173.21 1349.5,-143 1352.45,-142.62 1355.45,-142.18 1358.49,-141.71"/>
<polygon fill="midnightblue" stroke="midnightblue" points="714.09,-183.11 704.18,-186.85 714.26,-190.1 714.09,-183.11"/>
</g>
<!-- Node3 -->
<g id="node3" class="node">
<title>Node3</title>
<g id="a_node3"><a xlink:href="champsim_8cc.html" target="_top" xlink:title=" ">
<polygon fill="none" stroke="black" points="13.5,-56.5 13.5,-75.5 111.5,-75.5 111.5,-56.5 13.5,-56.5"/>
<text text-anchor="middle" x="62.5" y="-63.5" font-family="Helvetica,sans-Serif" font-size="10.00">src/champsim.cc</text>
</a>
</g>
</g>
<!-- Node2&#45;&gt;Node3 -->
<g id="edge2" class="edge">
<title>Node2&#45;&gt;Node3</title>
<path fill="none" stroke="midnightblue" d="M55.64,-107.82C57.46,-97 59.66,-83.9 61.07,-75.51"/>
<polygon fill="midnightblue" stroke="midnightblue" points="52.14,-107.53 53.93,-117.98 59.04,-108.69 52.14,-107.53"/>
</g>
<!-- Node4&#45;&gt;Node3 -->
<g id="edge8" class="edge">
<title>Node4&#45;&gt;Node3</title>
<path fill="none" stroke="midnightblue" d="M146.87,-113.06C125.78,-101.54 96.04,-85.31 78.09,-75.51"/>
<polygon fill="midnightblue" stroke="midnightblue" points="145.43,-116.26 155.88,-117.98 148.78,-110.11 145.43,-116.26"/>
</g>
<!-- Node4&#45;&gt;Node5 -->
<g id="edge4" class="edge">
<title>Node4&#45;&gt;Node5</title>
<path fill="none" stroke="midnightblue" d="M190.28,-111.79C204.86,-100.38 224.56,-84.96 236.63,-75.51"/>
<polygon fill="midnightblue" stroke="midnightblue" points="188.11,-109.05 182.39,-117.98 192.42,-114.57 188.11,-109.05"/>
</g>
<!-- Node7 -->
<g id="node7" class="node">
<title>Node7</title>
<g id="a_node7"><a xlink:href="main_8cc.html" target="_top" xlink:title=" ">
<polygon fill="none" stroke="black" points="113.5,-0.5 113.5,-19.5 185.5,-19.5 185.5,-0.5 113.5,-0.5"/>
<text text-anchor="middle" x="149.5" y="-7.5" font-family="Helvetica,sans-Serif" font-size="10.00">src/main.cc</text>
</a>
</g>
</g>
<!-- Node4&#45;&gt;Node7 -->
<g id="edge9" class="edge">
<title>Node4&#45;&gt;Node7</title>
<path fill="none" stroke="midnightblue" d="M167.91,-107.66C163.09,-82.37 154.73,-38.44 151.17,-19.78"/>
<polygon fill="midnightblue" stroke="midnightblue" points="164.54,-108.65 169.85,-117.82 171.41,-107.34 164.54,-108.65"/>
</g>
<!-- Node6 -->
<g id="node6" class="node">
<title>Node6</title>
<g id="a_node6"><a xlink:href="json__printer_8cc.html" target="_top" xlink:title=" ">
<polygon fill="none" stroke="black" points="203.5,-0.5 203.5,-19.5 307.5,-19.5 307.5,-0.5 203.5,-0.5"/>
<text text-anchor="middle" x="255.5" y="-7.5" font-family="Helvetica,sans-Serif" font-size="10.00">src/json_printer.cc</text>
</a>
</g>
</g>
<!-- Node5&#45;&gt;Node6 -->
<g id="edge5" class="edge">
<title>Node5&#45;&gt;Node6</title>
<path fill="none" stroke="midnightblue" d="M250.3,-46.1C251.63,-37.14 253.15,-26.86 254.2,-19.75"/>
<polygon fill="midnightblue" stroke="midnightblue" points="246.82,-45.68 248.82,-56.08 253.75,-46.7 246.82,-45.68"/>
</g>
<!-- Node5&#45;&gt;Node7 -->
<g id="edge6" class="edge">
<title>Node5&#45;&gt;Node7</title>
<path fill="none" stroke="midnightblue" d="M222.91,-51.45C204.82,-41.48 180.77,-28.23 165.21,-19.65"/>
<polygon fill="midnightblue" stroke="midnightblue" points="221.31,-54.56 231.75,-56.32 224.69,-48.43 221.31,-54.56"/>
</g>
<!-- Node8 -->
<g id="node8" class="node">
<title>Node8</title>
<g id="a_node8"><a xlink:href="plain__printer_8cc.html" target="_top" xlink:title=" ">
<polygon fill="none" stroke="black" points="325.5,-0.5 325.5,-19.5 433.5,-19.5 433.5,-0.5 325.5,-0.5"/>
<text text-anchor="middle" x="379.5" y="-7.5" font-family="Helvetica,sans-Serif" font-size="10.00">src/plain_printer.cc</text>
</a>
</g>
</g>
<!-- Node5&#45;&gt;Node8 -->
<g id="edge7" class="edge">
<title>Node5&#45;&gt;Node8</title>
<path fill="none" stroke="midnightblue" d="M277.72,-52.64C302.49,-42.5 336.9,-28.43 358.68,-19.52"/>
<polygon fill="midnightblue" stroke="midnightblue" points="276.35,-49.42 268.42,-56.44 279,-55.9 276.35,-49.42"/>
</g>
</g>
</svg>
