<?xml version="1.0" encoding="UTF-8" standalone="no"?>
<!DOCTYPE svg PUBLIC "-//W3C//DTD SVG 1.1//EN"
 "http://www.w3.org/Graphics/SVG/1.1/DTD/svg11.dtd">
<!-- Generated by graphviz version 2.43.0 (0)
 -->
<!-- Title: src/dram_controller.cc Pages: 1 -->
<svg width="1469pt" height="196pt"
 viewBox="0.00 0.00 1469.33 196.00" xmlns="http://www.w3.org/2000/svg" xmlns:xlink="http://www.w3.org/1999/xlink">
<g id="graph0" class="graph" transform="scale(1 1) rotate(0) translate(4 192)">
<title>src/dram_controller.cc</title>
<!-- Node1 -->
<g id="node1" class="node">
<title>Node1</title>
<g id="a_node1"><a xlink:title=" ">
<polygon fill="#bfbfbf" stroke="black" points="726.83,-168.5 726.83,-187.5 850.83,-187.5 850.83,-168.5 726.83,-168.5"/>
<text text-anchor="middle" x="788.83" y="-175.5" font-family="Helvetica,sans-Serif" font-size="10.00">src/dram_controller.cc</text>
</a>
</g>
</g>
<!-- Node2 -->
<g id="node2" class="node">
<title>Node2</title>
<g id="a_node2"><a xlink:href="dram__controller_8h.html" target="_top" xlink:title=" ">
<polygon fill="none" stroke="black" points="737.83,-112.5 737.83,-131.5 839.83,-131.5 839.83,-112.5 737.83,-112.5"/>
<text text-anchor="middle" x="788.83" y="-119.5" font-family="Helvetica,sans-Serif" font-size="10.00">dram_controller.h</text>
</a>
</g>
</g>
<!-- Node1&#45;&gt;Node2 -->
<g id="edge1" class="edge">
<title>Node1&#45;&gt;Node2</title>
<path fill="none" stroke="midnightblue" d="M788.83,-168.08C788.83,-161.01 788.83,-150.86 788.83,-141.99"/>
<polygon fill="midnightblue" stroke="midnightblue" points="792.33,-141.75 788.83,-131.75 785.33,-141.75 792.33,-141.75"/>
</g>
<!-- Node4 -->
<g id="node4" class="node">
<title>Node4</title>
<g id="a_node4"><a xlink:title=" ">
<polygon fill="none" stroke="#bfbfbf" points="549.33,-56.5 549.33,-75.5 596.33,-75.5 596.33,-56.5 549.33,-56.5"/>
<text text-anchor="middle" x="572.83" y="-63.5" font-family="Helvetica,sans-Serif" font-size="10.00">cmath</text>
</a>
</g>
</g>
<!-- Node1&#45;&gt;Node4 -->
<g id="edge19" class="edge">
<title>Node1&#45;&gt;Node4</title>
<path fill="none" stroke="midnightblue" d="M771.88,-168.37C734.27,-149.21 643.59,-103.04 598.79,-80.22"/>
<polygon fill="midnightblue" stroke="midnightblue" points="600.2,-77.01 589.7,-75.59 597.03,-83.25 600.2,-77.01"/>
</g>
<!-- Node8 -->
<g id="node8" class="node">
<title>Node8</title>
<g id="a_node8"><a xlink:title=" ">
<polygon fill="none" stroke="#bfbfbf" points="859.33,-56.5 859.33,-75.5 988.33,-75.5 988.33,-56.5 859.33,-56.5"/>
<text text-anchor="middle" x="923.83" y="-63.5" font-family="Helvetica,sans-Serif" font-size="10.00">champsim_constants.h</text>
</a>
</g>
</g>
<!-- Node1&#45;&gt;Node8 -->
<g id="edge20" class="edge">
<title>Node1&#45;&gt;Node8</title>
<path fill="none" stroke="midnightblue" d="M800.98,-168.28C813.23,-159.39 832.62,-145.08 848.83,-132 869.2,-115.57 891.8,-95.76 906.81,-82.36"/>
<polygon fill="midnightblue" stroke="midnightblue" points="909.2,-84.92 914.31,-75.64 904.53,-79.71 909.2,-84.92"/>
</g>
<!-- Node16 -->
<g id="node16" class="node">
<title>Node16</title>
<g id="a_node16"><a xlink:title=" ">
<polygon fill="none" stroke="#bfbfbf" points="286.83,-56.5 286.83,-75.5 350.83,-75.5 350.83,-56.5 286.83,-56.5"/>
<text text-anchor="middle" x="318.83" y="-63.5" font-family="Helvetica,sans-Serif" font-size="10.00">algorithm</text>
</a>
</g>
</g>
<!-- Node1&#45;&gt;Node16 -->
<g id="edge17" class="edge">
<title>Node1&#45;&gt;Node16</title>
<path fill="none" stroke="midnightblue" d="M726.75,-177.47C652.41,-176.22 525.12,-168.24 422.83,-132 390.14,-120.42 356.94,-97.26 337.12,-81.94"/>
<polygon fill="midnightblue" stroke="midnightblue" points="339.26,-79.17 329.25,-75.72 334.92,-84.67 339.26,-79.17"/>
</g>
<!-- Node17 -->
<g id="node17" class="node">
<title>Node17</title>
<g id="a_node17"><a xlink:title=" ">
<polygon fill="none" stroke="#bfbfbf" points="1234.83,-112.5 1234.83,-131.5 1278.83,-131.5 1278.83,-112.5 1234.83,-112.5"/>
<text text-anchor="middle" x="1256.83" y="-119.5" font-family="Helvetica,sans-Serif" font-size="10.00">cfenv</text>
</a>
</g>
</g>
<!-- Node1&#45;&gt;Node17 -->
<g id="edge18" class="edge">
<title>Node1&#45;&gt;Node17</title>
<path fill="none" stroke="midnightblue" d="M851.1,-173.28C935.4,-167.63 1090.32,-154.99 1220.83,-132 1222.08,-131.78 1223.35,-131.54 1224.63,-131.29"/>
<polygon fill="midnightblue" stroke="midnightblue" points="1225.46,-134.69 1234.47,-129.11 1223.95,-127.85 1225.46,-134.69"/>
</g>
<!-- Node18 -->
<g id="node18" class="node">
<title>Node18</title>
<g id="a_node18"><a xlink:href="deadlock_8h.html" target="_top" xlink:title=" ">
<polygon fill="none" stroke="black" points="1108.83,-112.5 1108.83,-131.5 1178.83,-131.5 1178.83,-112.5 1108.83,-112.5"/>
<text text-anchor="middle" x="1143.83" y="-119.5" font-family="Helvetica,sans-Serif" font-size="10.00">deadlock.h</text>
</a>
</g>
</g>
<!-- Node1&#45;&gt;Node18 -->
<g id="edge21" class="edge">
<title>Node1&#45;&gt;Node18</title>
<path fill="none" stroke="midnightblue" d="M845.08,-168.44C915.27,-157.77 1033.92,-139.72 1098.55,-129.89"/>
<polygon fill="midnightblue" stroke="midnightblue" points="1099.47,-133.29 1108.83,-128.32 1098.42,-126.37 1099.47,-133.29"/>
</g>
<!-- Node20 -->
<g id="node20" class="node">
<title>Node20</title>
<g id="a_node20"><a xlink:title=" ">
<polygon fill="none" stroke="#bfbfbf" points="1394.33,-56.5 1394.33,-75.5 1461.33,-75.5 1461.33,-56.5 1394.33,-56.5"/>
<text text-anchor="middle" x="1427.83" y="-63.5" font-family="Helvetica,sans-Serif" font-size="10.00">fmt/core.h</text>
</a>
</g>
</g>
<!-- Node1&#45;&gt;Node20 -->
<g id="edge43" class="edge">
<title>Node1&#45;&gt;Node20</title>
<path fill="none" stroke="midnightblue" d="M851.11,-177.06C930.87,-175.54 1072.56,-167.45 1187.83,-132 1206.07,-126.39 1207.92,-118.58 1225.83,-112 1278.69,-92.6 1342.53,-80.08 1384.1,-73.3"/>
<polygon fill="midnightblue" stroke="midnightblue" points="1384.85,-76.73 1394.17,-71.7 1383.75,-69.81 1384.85,-76.73"/>
</g>
<!-- Node23 -->
<g id="node23" class="node">
<title>Node23</title>
<g id="a_node23"><a xlink:href="instruction_8h.html" target="_top" xlink:title=" ">
<polygon fill="none" stroke="black" points="163.33,-112.5 163.33,-131.5 240.33,-131.5 240.33,-112.5 163.33,-112.5"/>
<text text-anchor="middle" x="201.83" y="-119.5" font-family="Helvetica,sans-Serif" font-size="10.00">instruction.h</text>
</a>
</g>
</g>
<!-- Node1&#45;&gt;Node23 -->
<g id="edge29" class="edge">
<title>Node1&#45;&gt;Node23</title>
<path fill="none" stroke="midnightblue" d="M726.57,-171.27C609.06,-160.46 356.89,-137.26 250.63,-127.49"/>
<polygon fill="midnightblue" stroke="midnightblue" points="250.79,-123.99 240.51,-126.56 250.15,-130.96 250.79,-123.99"/>
</g>
<!-- Node25 -->
<g id="node25" class="node">
<title>Node25</title>
<g id="a_node25"><a xlink:href="span_8h.html" target="_top" xlink:title=" ">
<polygon fill="none" stroke="black" points="431.83,-112.5 431.83,-131.5 499.83,-131.5 499.83,-112.5 431.83,-112.5"/>
<text text-anchor="middle" x="465.83" y="-119.5" font-family="Helvetica,sans-Serif" font-size="10.00">util/span.h</text>
</a>
</g>
</g>
<!-- Node1&#45;&gt;Node25 -->
<g id="edge38" class="edge">
<title>Node1&#45;&gt;Node25</title>
<path fill="none" stroke="midnightblue" d="M737.65,-168.44C674.89,-157.95 569.55,-140.34 510.12,-130.4"/>
<polygon fill="midnightblue" stroke="midnightblue" points="510.37,-126.9 499.93,-128.7 509.21,-133.8 510.37,-126.9"/>
</g>
<!-- Node3 -->
<g id="node3" class="node">
<title>Node3</title>
<g id="a_node3"><a xlink:title=" ">
<polygon fill="none" stroke="#bfbfbf" points="673.83,-0.5 673.83,-19.5 715.83,-19.5 715.83,-0.5 673.83,-0.5"/>
<text text-anchor="middle" x="694.83" y="-7.5" font-family="Helvetica,sans-Serif" font-size="10.00">array</text>
</a>
</g>
</g>
<!-- Node2&#45;&gt;Node3 -->
<g id="edge2" class="edge">
<title>Node2&#45;&gt;Node3</title>
<path fill="none" stroke="midnightblue" d="M796.58,-112.35C807.34,-99.24 824.17,-73.96 811.83,-56 806.7,-48.52 758.61,-31.69 725.71,-20.87"/>
<polygon fill="midnightblue" stroke="midnightblue" points="726.64,-17.49 716.05,-17.72 724.47,-24.15 726.64,-17.49"/>
</g>
<!-- Node2&#45;&gt;Node4 -->
<g id="edge3" class="edge">
<title>Node2&#45;&gt;Node4</title>
<path fill="none" stroke="midnightblue" d="M753,-112.47C718.08,-104.09 663.23,-90.78 606.47,-76.12"/>
<polygon fill="midnightblue" stroke="midnightblue" points="607.16,-72.68 596.61,-73.56 605.41,-79.46 607.16,-72.68"/>
</g>
<!-- Node5 -->
<g id="node5" class="node">
<title>Node5</title>
<g id="a_node5"><a xlink:title=" ">
<polygon fill="none" stroke="#bfbfbf" points="498.83,-0.5 498.83,-19.5 542.83,-19.5 542.83,-0.5 498.83,-0.5"/>
<text text-anchor="middle" x="520.83" y="-7.5" font-family="Helvetica,sans-Serif" font-size="10.00">limits</text>
</a>
</g>
</g>
<!-- Node2&#45;&gt;Node5 -->
<g id="edge4" class="edge">
<title>Node2&#45;&gt;Node5</title>
<path fill="none" stroke="midnightblue" d="M778.48,-112.33C761.45,-98.5 726.02,-71.42 691.83,-56 645.81,-35.23 588.33,-22.58 553.12,-16.18"/>
<polygon fill="midnightblue" stroke="midnightblue" points="553.4,-12.67 542.95,-14.39 552.19,-19.57 553.4,-12.67"/>
</g>
<!-- Node6 -->
<g id="node6" class="node">
<title>Node6</title>
<g id="a_node6"><a xlink:title=" ">
<polygon fill="none" stroke="#bfbfbf" points="1068.83,-56.5 1068.83,-75.5 1124.83,-75.5 1124.83,-56.5 1068.83,-56.5"/>
<text text-anchor="middle" x="1096.83" y="-63.5" font-family="Helvetica,sans-Serif" font-size="10.00">optional</text>
</a>
</g>
</g>
<!-- Node2&#45;&gt;Node6 -->
<g id="edge5" class="edge">
<title>Node2&#45;&gt;Node6</title>
<path fill="none" stroke="midnightblue" d="M839.99,-113.66C892.49,-105.87 976.76,-92.65 1058.63,-76.13"/>
<polygon fill="midnightblue" stroke="midnightblue" points="1059.5,-79.52 1068.6,-74.1 1058.1,-72.66 1059.5,-79.52"/>
</g>
<!-- Node7 -->
<g id="node7" class="node">
<title>Node7</title>
<g id="a_node7"><a xlink:title=" ">
<polygon fill="none" stroke="#bfbfbf" points="1006.83,-56.5 1006.83,-75.5 1050.83,-75.5 1050.83,-56.5 1006.83,-56.5"/>
<text text-anchor="middle" x="1028.83" y="-63.5" font-family="Helvetica,sans-Serif" font-size="10.00">string</text>
</a>
</g>
</g>
<!-- Node2&#45;&gt;Node7 -->
<g id="edge6" class="edge">
<title>Node2&#45;&gt;Node7</title>
<path fill="none" stroke="midnightblue" d="M832.03,-112.46C872.17,-104.34 933.8,-91.42 996.79,-75.88"/>
<polygon fill="midnightblue" stroke="midnightblue" points="997.64,-79.28 1006.5,-73.47 995.95,-72.48 997.64,-79.28"/>
</g>
<!-- Node2&#45;&gt;Node8 -->
<g id="edge7" class="edge">
<title>Node2&#45;&gt;Node8</title>
<path fill="none" stroke="midnightblue" d="M810.22,-112.44C832.54,-103.52 867.74,-89.44 893.04,-79.32"/>
<polygon fill="midnightblue" stroke="midnightblue" points="894.56,-82.48 902.54,-75.52 891.96,-75.98 894.56,-82.48"/>
</g>
<!-- Node9 -->
<g id="node9" class="node">
<title>Node9</title>
<g id="a_node9"><a xlink:href="channel_8h.html" target="_top" xlink:title=" ">
<polygon fill="none" stroke="black" points="738.83,-56.5 738.83,-75.5 802.83,-75.5 802.83,-56.5 738.83,-56.5"/>
<text text-anchor="middle" x="770.83" y="-63.5" font-family="Helvetica,sans-Serif" font-size="10.00">channel.h</text>
</a>
</g>
</g>
<!-- Node2&#45;&gt;Node9 -->
<g id="edge8" class="edge">
<title>Node2&#45;&gt;Node9</title>
<path fill="none" stroke="midnightblue" d="M785.86,-112.08C783.45,-104.85 779.97,-94.41 776.96,-85.4"/>
<polygon fill="midnightblue" stroke="midnightblue" points="780.23,-84.13 773.75,-75.75 773.59,-86.34 780.23,-84.13"/>
</g>
<!-- Node15 -->
<g id="node15" class="node">
<title>Node15</title>
<g id="a_node15"><a xlink:href="operable_8h.html" target="_top" xlink:title=" ">
<polygon fill="none" stroke="black" points="614.83,-56.5 614.83,-75.5 682.83,-75.5 682.83,-56.5 614.83,-56.5"/>
<text text-anchor="middle" x="648.83" y="-63.5" font-family="Helvetica,sans-Serif" font-size="10.00">operable.h</text>
</a>
</g>
</g>
<!-- Node2&#45;&gt;Node15 -->
<g id="edge16" class="edge">
<title>Node2&#45;&gt;Node15</title>
<path fill="none" stroke="midnightblue" d="M766.65,-112.44C743.4,-103.48 706.68,-89.31 680.42,-79.18"/>
<polygon fill="midnightblue" stroke="midnightblue" points="681.5,-75.85 670.91,-75.52 678.98,-82.38 681.5,-75.85"/>
</g>
<!-- Node9&#45;&gt;Node3 -->
<g id="edge9" class="edge">
<title>Node9&#45;&gt;Node3</title>
<path fill="none" stroke="midnightblue" d="M758.62,-56.32C747.06,-48.11 729.46,-35.6 715.67,-25.81"/>
<polygon fill="midnightblue" stroke="midnightblue" points="717.44,-22.77 707.27,-19.83 713.39,-28.48 717.44,-22.77"/>
</g>
<!-- Node9&#45;&gt;Node5 -->
<g id="edge13" class="edge">
<title>Node9&#45;&gt;Node5</title>
<path fill="none" stroke="midnightblue" d="M738.66,-58.05C690.62,-47.67 600.68,-28.25 552.77,-17.9"/>
<polygon fill="midnightblue" stroke="midnightblue" points="553.45,-14.47 542.94,-15.78 551.98,-21.31 553.45,-14.47"/>
</g>
<!-- Node10 -->
<g id="node10" class="node">
<title>Node10</title>
<g id="a_node10"><a xlink:title=" ">
<polygon fill="none" stroke="#bfbfbf" points="53.83,-0.5 53.83,-19.5 103.83,-19.5 103.83,-0.5 53.83,-0.5"/>
<text text-anchor="middle" x="78.83" y="-7.5" font-family="Helvetica,sans-Serif" font-size="10.00">cstdint</text>
</a>
</g>
</g>
<!-- Node9&#45;&gt;Node10 -->
<g id="edge10" class="edge">
<title>Node9&#45;&gt;Node10</title>
<path fill="none" stroke="midnightblue" d="M738.58,-61.03C724.27,-59.34 707.23,-57.44 691.83,-56 472.39,-35.45 208.03,-18.77 114.06,-13.09"/>
<polygon fill="midnightblue" stroke="midnightblue" points="114.16,-9.59 103.97,-12.48 113.74,-16.58 114.16,-9.59"/>
</g>
<!-- Node11 -->
<g id="node11" class="node">
<title>Node11</title>
<g id="a_node11"><a xlink:title=" ">
<polygon fill="none" stroke="#bfbfbf" points="825.33,-0.5 825.33,-19.5 872.33,-19.5 872.33,-0.5 825.33,-0.5"/>
<text text-anchor="middle" x="848.83" y="-7.5" font-family="Helvetica,sans-Serif" font-size="10.00">deque</text>
</a>
</g>
</g>
<!-- Node9&#45;&gt;Node11 -->
<g id="edge11" class="edge">
<title>Node9&#45;&gt;Node11</title>
<path fill="none" stroke="midnightblue" d="M783.36,-56.32C795.42,-47.98 813.86,-35.21 828.1,-25.35"/>
<polygon fill="midnightblue" stroke="midnightblue" points="830.1,-28.22 836.33,-19.65 826.12,-22.47 830.1,-28.22"/>
</g>
<!-- Node12 -->
<g id="node12" class="node">
<title>Node12</title>
<g id="a_node12"><a xlink:title=" ">
<polygon fill="none" stroke="#bfbfbf" points="317.33,-0.5 317.33,-19.5 382.33,-19.5 382.33,-0.5 317.33,-0.5"/>
<text text-anchor="middle" x="349.83" y="-7.5" font-family="Helvetica,sans-Serif" font-size="10.00">functional</text>
</a>
</g>
</g>
<!-- Node9&#45;&gt;Node12 -->
<g id="edge12" class="edge">
<title>Node9&#45;&gt;Node12</title>
<path fill="none" stroke="midnightblue" d="M738.5,-60.85C663.36,-51.22 476.99,-27.31 392.58,-16.48"/>
<polygon fill="midnightblue" stroke="midnightblue" points="392.93,-13 382.57,-15.2 392.04,-19.94 392.93,-13"/>
</g>
<!-- Node13 -->
<g id="node13" class="node">
<title>Node13</title>
<g id="a_node13"><a xlink:title=" ">
<polygon fill="none" stroke="#bfbfbf" points="585.33,-0.5 585.33,-19.5 632.33,-19.5 632.33,-0.5 585.33,-0.5"/>
<text text-anchor="middle" x="608.83" y="-7.5" font-family="Helvetica,sans-Serif" font-size="10.00">vector</text>
</a>
</g>
</g>
<!-- Node9&#45;&gt;Node13 -->
<g id="edge14" class="edge">
<title>Node9&#45;&gt;Node13</title>
<path fill="none" stroke="midnightblue" d="M745.16,-56.44C717.35,-47.17 672.86,-32.34 642.32,-22.16"/>
<polygon fill="midnightblue" stroke="midnightblue" points="643.13,-18.74 632.54,-18.9 640.92,-25.38 643.13,-18.74"/>
</g>
<!-- Node14 -->
<g id="node14" class="node">
<title>Node14</title>
<g id="a_node14"><a xlink:title=" ">
<polygon fill="none" stroke="#bfbfbf" points="734.33,-0.5 734.33,-19.5 807.33,-19.5 807.33,-0.5 734.33,-0.5"/>
<text text-anchor="middle" x="770.83" y="-7.5" font-family="Helvetica,sans-Serif" font-size="10.00">string_view</text>
</a>
</g>
</g>
<!-- Node9&#45;&gt;Node14 -->
<g id="edge15" class="edge">
<title>Node9&#45;&gt;Node14</title>
<path fill="none" stroke="midnightblue" d="M770.83,-56.08C770.83,-49.01 770.83,-38.86 770.83,-29.99"/>
<polygon fill="midnightblue" stroke="midnightblue" points="774.33,-29.75 770.83,-19.75 767.33,-29.75 774.33,-29.75"/>
</g>
<!-- Node18&#45;&gt;Node6 -->
<g id="edge22" class="edge">
<title>Node18&#45;&gt;Node6</title>
<path fill="none" stroke="midnightblue" d="M1136.07,-112.08C1129.3,-104.3 1119.29,-92.8 1111.08,-83.37"/>
<polygon fill="midnightblue" stroke="midnightblue" points="1113.65,-81 1104.45,-75.75 1108.37,-85.59 1113.65,-81"/>
</g>
<!-- Node18&#45;&gt;Node7 -->
<g id="edge23" class="edge">
<title>Node18&#45;&gt;Node7</title>
<path fill="none" stroke="midnightblue" d="M1125.61,-112.44C1106.94,-103.68 1077.68,-89.94 1056.22,-79.86"/>
<polygon fill="midnightblue" stroke="midnightblue" points="1057.51,-76.6 1046.97,-75.52 1054.53,-82.93 1057.51,-76.6"/>
</g>
<!-- Node19 -->
<g id="node19" class="node">
<title>Node19</title>
<g id="a_node19"><a xlink:title=" ">
<polygon fill="none" stroke="#bfbfbf" points="1244.33,-0.5 1244.33,-19.5 1313.33,-19.5 1313.33,-0.5 1244.33,-0.5"/>
<text text-anchor="middle" x="1278.83" y="-7.5" font-family="Helvetica,sans-Serif" font-size="10.00">type_traits</text>
</a>
</g>
</g>
<!-- Node18&#45;&gt;Node19 -->
<g id="edge24" class="edge">
<title>Node18&#45;&gt;Node19</title>
<path fill="none" stroke="midnightblue" d="M1178.97,-114.39C1235.67,-103.56 1341.55,-82.58 1346.83,-76 1362.79,-56.12 1334.02,-36.32 1309.12,-23.9"/>
<polygon fill="midnightblue" stroke="midnightblue" points="1310.41,-20.63 1299.87,-19.51 1307.41,-26.96 1310.41,-20.63"/>
</g>
<!-- Node18&#45;&gt;Node20 -->
<g id="edge25" class="edge">
<title>Node18&#45;&gt;Node20</title>
<path fill="none" stroke="midnightblue" d="M1178.94,-114.32C1230.77,-104.47 1327.71,-86.04 1384.09,-75.32"/>
<polygon fill="midnightblue" stroke="midnightblue" points="1384.96,-78.71 1394.13,-73.41 1383.65,-71.84 1384.96,-78.71"/>
</g>
<!-- Node21 -->
<g id="node21" class="node">
<title>Node21</title>
<g id="a_node21"><a xlink:title=" ">
<polygon fill="none" stroke="#bfbfbf" points="1258.33,-56.5 1258.33,-75.5 1337.33,-75.5 1337.33,-56.5 1258.33,-56.5"/>
<text text-anchor="middle" x="1297.83" y="-63.5" font-family="Helvetica,sans-Serif" font-size="10.00">fmt/ranges.h</text>
</a>
</g>
</g>
<!-- Node18&#45;&gt;Node21 -->
<g id="edge26" class="edge">
<title>Node18&#45;&gt;Node21</title>
<path fill="none" stroke="midnightblue" d="M1168.23,-112.44C1194.03,-103.4 1234.91,-89.06 1263.85,-78.92"/>
<polygon fill="midnightblue" stroke="midnightblue" points="1265.27,-82.13 1273.54,-75.52 1262.95,-75.52 1265.27,-82.13"/>
</g>
<!-- Node22 -->
<g id="node22" class="node">
<title>Node22</title>
<g id="a_node22"><a xlink:href="type__traits_8h.html" target="_top" xlink:title=" ">
<polygon fill="none" stroke="black" points="1143.33,-56.5 1143.33,-75.5 1240.33,-75.5 1240.33,-56.5 1143.33,-56.5"/>
<text text-anchor="middle" x="1191.83" y="-63.5" font-family="Helvetica,sans-Serif" font-size="10.00">util/type_traits.h</text>
</a>
</g>
</g>
<!-- Node18&#45;&gt;Node22 -->
<g id="edge27" class="edge">
<title>Node18&#45;&gt;Node22</title>
<path fill="none" stroke="midnightblue" d="M1151.76,-112.08C1158.68,-104.3 1168.9,-92.8 1177.28,-83.37"/>
<polygon fill="midnightblue" stroke="midnightblue" points="1180.03,-85.55 1184.05,-75.75 1174.79,-80.9 1180.03,-85.55"/>
</g>
<!-- Node22&#45;&gt;Node19 -->
<g id="edge28" class="edge">
<title>Node22&#45;&gt;Node19</title>
<path fill="none" stroke="midnightblue" d="M1205.81,-56.32C1219.38,-47.9 1240.21,-34.97 1256.16,-25.07"/>
<polygon fill="midnightblue" stroke="midnightblue" points="1258.24,-27.9 1264.89,-19.65 1254.55,-21.95 1258.24,-27.9"/>
</g>
<!-- Node23&#45;&gt;Node3 -->
<g id="edge31" class="edge">
<title>Node23&#45;&gt;Node3</title>
<path fill="none" stroke="midnightblue" d="M208.72,-112.39C220.9,-97.86 247.81,-68.81 277.83,-56 426.96,7.61 480.12,-41.34 640.83,-20 648.2,-19.02 656.1,-17.8 663.52,-16.58"/>
<polygon fill="midnightblue" stroke="midnightblue" points="664.32,-19.99 673.59,-14.87 663.15,-13.09 664.32,-19.99"/>
</g>
<!-- Node23&#45;&gt;Node5 -->
<g id="edge34" class="edge">
<title>Node23&#45;&gt;Node5</title>
<path fill="none" stroke="midnightblue" d="M199.42,-112.07C196.24,-98.13 192.6,-71.2 206.83,-56 225.93,-35.6 412.1,-19.26 488.43,-13.37"/>
<polygon fill="midnightblue" stroke="midnightblue" points="488.74,-16.86 498.45,-12.61 488.21,-9.88 488.74,-16.86"/>
</g>
<!-- Node23&#45;&gt;Node10 -->
<g id="edge32" class="edge">
<title>Node23&#45;&gt;Node10</title>
<path fill="none" stroke="midnightblue" d="M163.1,-117.77C111.44,-112.56 24.24,-100.34 4.83,-76 -11.76,-55.19 19.18,-35.66 45.99,-23.54"/>
<polygon fill="midnightblue" stroke="midnightblue" points="47.41,-26.74 55.21,-19.57 44.64,-20.31 47.41,-26.74"/>
</g>
<!-- Node23&#45;&gt;Node12 -->
<g id="edge33" class="edge">
<title>Node23&#45;&gt;Node12</title>
<path fill="none" stroke="midnightblue" d="M162.91,-118.7C103.46,-113.78 0.64,-98.94 37.83,-56 72.14,-16.39 229.7,-10.86 306.92,-10.59"/>
<polygon fill="midnightblue" stroke="midnightblue" points="307.26,-14.09 317.26,-10.58 307.26,-7.09 307.26,-14.09"/>
</g>
<!-- Node23&#45;&gt;Node13 -->
<g id="edge35" class="edge">
<title>Node23&#45;&gt;Node13</title>
<path fill="none" stroke="midnightblue" d="M204.74,-112.5C210.13,-98.14 223.17,-69.33 244.83,-56 303.34,-20.01 483.78,-29.36 551.83,-20 559.41,-18.96 567.53,-17.74 575.2,-16.54"/>
<polygon fill="midnightblue" stroke="midnightblue" points="575.97,-19.96 585.29,-14.93 574.87,-13.05 575.97,-19.96"/>
</g>
<!-- Node23&#45;&gt;Node16 -->
<g id="edge30" class="edge">
<title>Node23&#45;&gt;Node16</title>
<path fill="none" stroke="midnightblue" d="M220.37,-112.44C239.46,-103.64 269.41,-89.81 291.27,-79.72"/>
<polygon fill="midnightblue" stroke="midnightblue" points="292.77,-82.88 300.38,-75.52 289.83,-76.53 292.77,-82.88"/>
</g>
<!-- Node24 -->
<g id="node24" class="node">
<title>Node24</title>
<g id="a_node24"><a xlink:href="trace__instruction_8h.html" target="_top" xlink:title=" ">
<polygon fill="none" stroke="black" points="47.33,-56.5 47.33,-75.5 154.33,-75.5 154.33,-56.5 47.33,-56.5"/>
<text text-anchor="middle" x="100.83" y="-63.5" font-family="Helvetica,sans-Serif" font-size="10.00">trace_instruction.h</text>
</a>
</g>
</g>
<!-- Node23&#45;&gt;Node24 -->
<g id="edge36" class="edge">
<title>Node23&#45;&gt;Node24</title>
<path fill="none" stroke="midnightblue" d="M185.61,-112.32C169.48,-103.7 144.53,-90.36 125.87,-80.39"/>
<polygon fill="midnightblue" stroke="midnightblue" points="127.49,-77.28 117.02,-75.65 124.19,-83.46 127.49,-77.28"/>
</g>
<!-- Node24&#45;&gt;Node5 -->
<g id="edge37" class="edge">
<title>Node24&#45;&gt;Node5</title>
<path fill="none" stroke="midnightblue" d="M154.65,-57.85C159.45,-57.22 164.23,-56.6 168.83,-56 286.65,-40.67 426.71,-22.9 488.64,-15.07"/>
<polygon fill="midnightblue" stroke="midnightblue" points="489.11,-18.54 498.59,-13.81 488.23,-11.59 489.11,-18.54"/>
</g>
<!-- Node25&#45;&gt;Node5 -->
<g id="edge42" class="edge">
<title>Node25&#45;&gt;Node5</title>
<path fill="none" stroke="midnightblue" d="M474.12,-112.36C481.97,-103.76 493.61,-89.87 500.83,-76 508.5,-61.27 513.78,-43.11 516.98,-29.73"/>
<polygon fill="midnightblue" stroke="midnightblue" points="520.43,-30.32 519.18,-19.8 513.6,-28.8 520.43,-30.32"/>
</g>
<!-- Node25&#45;&gt;Node16 -->
<g id="edge39" class="edge">
<title>Node25&#45;&gt;Node16</title>
<path fill="none" stroke="midnightblue" d="M442.54,-112.44C418.03,-103.44 379.24,-89.19 351.63,-79.05"/>
<polygon fill="midnightblue" stroke="midnightblue" points="352.61,-75.68 342.02,-75.52 350.2,-82.25 352.61,-75.68"/>
</g>
<!-- Node26 -->
<g id="node26" class="node">
<title>Node26</title>
<g id="a_node26"><a xlink:title=" ">
<polygon fill="none" stroke="#bfbfbf" points="368.83,-56.5 368.83,-75.5 420.83,-75.5 420.83,-56.5 368.83,-56.5"/>
<text text-anchor="middle" x="394.83" y="-63.5" font-family="Helvetica,sans-Serif" font-size="10.00">cassert</text>
</a>
</g>
</g>
<!-- Node25&#45;&gt;Node26 -->
<g id="edge40" class="edge">
<title>Node25&#45;&gt;Node26</title>
<path fill="none" stroke="midnightblue" d="M454.43,-112.32C443.72,-104.18 427.49,-91.84 414.67,-82.09"/>
<polygon fill="midnightblue" stroke="midnightblue" points="416.53,-79.1 406.45,-75.83 412.29,-84.67 416.53,-79.1"/>
</g>
<!-- Node27 -->
<g id="node27" class="node">
<title>Node27</title>
<g id="a_node27"><a xlink:title=" ">
<polygon fill="none" stroke="#bfbfbf" points="439.33,-56.5 439.33,-75.5 492.33,-75.5 492.33,-56.5 439.33,-56.5"/>
<text text-anchor="middle" x="465.83" y="-63.5" font-family="Helvetica,sans-Serif" font-size="10.00">iterator</text>
</a>
</g>
</g>
<!-- Node25&#45;&gt;Node27 -->
<g id="edge41" class="edge">
<title>Node25&#45;&gt;Node27</title>
<path fill="none" stroke="midnightblue" d="M465.83,-112.08C465.83,-105.01 465.83,-94.86 465.83,-85.99"/>
<polygon fill="midnightblue" stroke="midnightblue" points="469.33,-85.75 465.83,-75.75 462.33,-85.75 469.33,-85.75"/>
</g>
</g>
</svg>
