<?xml version="1.0" encoding="UTF-8" standalone="no"?>
<!DOCTYPE svg PUBLIC "-//W3C//DTD SVG 1.1//EN"
 "http://www.w3.org/Graphics/SVG/1.1/DTD/svg11.dtd">
<!-- Generated by graphviz version 2.43.0 (0)
 -->
<!-- Title: replacement/drrip/drrip.cc Pages: 1 -->
<svg width="1436pt" height="196pt"
 viewBox="0.00 0.00 1435.50 196.00" xmlns="http://www.w3.org/2000/svg" xmlns:xlink="http://www.w3.org/1999/xlink">
<g id="graph0" class="graph" transform="scale(1 1) rotate(0) translate(4 192)">
<title>replacement/drrip/drrip.cc</title>
<!-- Node1 -->
<g id="node1" class="node">
<title>Node1</title>
<g id="a_node1"><a xlink:title=" ">
<polygon fill="#bfbfbf" stroke="black" points="157.5,-168.5 157.5,-187.5 300.5,-187.5 300.5,-168.5 157.5,-168.5"/>
<text text-anchor="middle" x="229" y="-175.5" font-family="Helvetica,sans-Serif" font-size="10.00">replacement/drrip/drrip.cc</text>
</a>
</g>
</g>
<!-- Node2 -->
<g id="node2" class="node">
<title>Node2</title>
<g id="a_node2"><a xlink:title=" ">
<polygon fill="none" stroke="#bfbfbf" points="0,-56.5 0,-75.5 64,-75.5 64,-56.5 0,-56.5"/>
<text text-anchor="middle" x="32" y="-63.5" font-family="Helvetica,sans-Serif" font-size="10.00">algorithm</text>
</a>
</g>
</g>
<!-- Node1&#45;&gt;Node2 -->
<g id="edge1" class="edge">
<title>Node1&#45;&gt;Node2</title>
<path fill="none" stroke="midnightblue" d="M157.2,-175.16C121.08,-170.57 79.11,-159.1 51,-132 38.58,-120.03 34.15,-100.42 32.64,-85.86"/>
<polygon fill="midnightblue" stroke="midnightblue" points="36.11,-85.26 31.95,-75.52 29.12,-85.73 36.11,-85.26"/>
</g>
<!-- Node3 -->
<g id="node3" class="node">
<title>Node3</title>
<g id="a_node3"><a xlink:title=" ">
<polygon fill="none" stroke="#bfbfbf" points="172,-112.5 172,-131.5 224,-131.5 224,-112.5 172,-112.5"/>
<text text-anchor="middle" x="198" y="-119.5" font-family="Helvetica,sans-Serif" font-size="10.00">cassert</text>
</a>
</g>
</g>
<!-- Node1&#45;&gt;Node3 -->
<g id="edge2" class="edge">
<title>Node1&#45;&gt;Node3</title>
<path fill="none" stroke="midnightblue" d="M223.88,-168.08C219.59,-160.61 213.34,-149.72 208.06,-140.52"/>
<polygon fill="midnightblue" stroke="midnightblue" points="211.04,-138.68 203.02,-131.75 204.97,-142.17 211.04,-138.68"/>
</g>
<!-- Node4 -->
<g id="node4" class="node">
<title>Node4</title>
<g id="a_node4"><a xlink:title=" ">
<polygon fill="none" stroke="#bfbfbf" points="242,-112.5 242,-131.5 280,-131.5 280,-112.5 242,-112.5"/>
<text text-anchor="middle" x="261" y="-119.5" font-family="Helvetica,sans-Serif" font-size="10.00">map</text>
</a>
</g>
</g>
<!-- Node1&#45;&gt;Node4 -->
<g id="edge3" class="edge">
<title>Node1&#45;&gt;Node4</title>
<path fill="none" stroke="midnightblue" d="M234.28,-168.08C238.71,-160.61 245.16,-149.72 250.62,-140.52"/>
<polygon fill="midnightblue" stroke="midnightblue" points="253.73,-142.14 255.81,-131.75 247.71,-138.57 253.73,-142.14"/>
</g>
<!-- Node5 -->
<g id="node5" class="node">
<title>Node5</title>
<g id="a_node5"><a xlink:title=" ">
<polygon fill="none" stroke="#bfbfbf" points="298.5,-112.5 298.5,-131.5 343.5,-131.5 343.5,-112.5 298.5,-112.5"/>
<text text-anchor="middle" x="321" y="-119.5" font-family="Helvetica,sans-Serif" font-size="10.00">utility</text>
</a>
</g>
</g>
<!-- Node1&#45;&gt;Node5 -->
<g id="edge4" class="edge">
<title>Node1&#45;&gt;Node5</title>
<path fill="none" stroke="midnightblue" d="M243.78,-168.32C258.27,-159.82 280.57,-146.73 297.49,-136.8"/>
<polygon fill="midnightblue" stroke="midnightblue" points="299.4,-139.74 306.26,-131.65 295.86,-133.7 299.4,-139.74"/>
</g>
<!-- Node6 -->
<g id="node6" class="node">
<title>Node6</title>
<g id="a_node6"><a xlink:href="cache_8h.html" target="_top" xlink:title=" ">
<polygon fill="none" stroke="black" points="831,-112.5 831,-131.5 885,-131.5 885,-112.5 831,-112.5"/>
<text text-anchor="middle" x="858" y="-119.5" font-family="Helvetica,sans-Serif" font-size="10.00">cache.h</text>
</a>
</g>
</g>
<!-- Node1&#45;&gt;Node6 -->
<g id="edge5" class="edge">
<title>Node1&#45;&gt;Node6</title>
<path fill="none" stroke="midnightblue" d="M300.54,-170.86C434.58,-159.35 719.15,-134.92 820.88,-126.19"/>
<polygon fill="midnightblue" stroke="midnightblue" points="821.31,-129.66 830.98,-125.32 820.72,-122.69 821.31,-129.66"/>
</g>
<!-- Node27 -->
<g id="node27" class="node">
<title>Node27</title>
<g id="a_node27"><a xlink:href="fwcounter_8h.html" target="_top" xlink:title=" ">
<polygon fill="none" stroke="black" points="60,-112.5 60,-131.5 154,-131.5 154,-112.5 60,-112.5"/>
<text text-anchor="middle" x="107" y="-119.5" font-family="Helvetica,sans-Serif" font-size="10.00">msl/fwcounter.h</text>
</a>
</g>
</g>
<!-- Node1&#45;&gt;Node27 -->
<g id="edge30" class="edge">
<title>Node1&#45;&gt;Node27</title>
<path fill="none" stroke="midnightblue" d="M209.67,-168.44C189.68,-159.6 158.26,-145.69 135.44,-135.59"/>
<polygon fill="midnightblue" stroke="midnightblue" points="136.8,-132.36 126.24,-131.52 133.97,-138.76 136.8,-132.36"/>
</g>
<!-- Node7 -->
<g id="node7" class="node">
<title>Node7</title>
<g id="a_node7"><a xlink:title=" ">
<polygon fill="none" stroke="#bfbfbf" points="1130,-0.5 1130,-19.5 1172,-19.5 1172,-0.5 1130,-0.5"/>
<text text-anchor="middle" x="1151" y="-7.5" font-family="Helvetica,sans-Serif" font-size="10.00">array</text>
</a>
</g>
</g>
<!-- Node6&#45;&gt;Node7 -->
<g id="edge6" class="edge">
<title>Node6&#45;&gt;Node7</title>
<path fill="none" stroke="midnightblue" d="M880.15,-112.37C902.14,-103.66 936.7,-89.59 966,-76 983.67,-67.8 986.96,-63.34 1005,-56 1010.48,-53.77 1079.15,-32.82 1120.33,-20.3"/>
<polygon fill="midnightblue" stroke="midnightblue" points="1121.35,-23.65 1129.9,-17.4 1119.32,-16.95 1121.35,-23.65"/>
</g>
<!-- Node8 -->
<g id="node8" class="node">
<title>Node8</title>
<g id="a_node8"><a xlink:title=" ">
<polygon fill="none" stroke="#bfbfbf" points="1014,-56.5 1014,-75.5 1058,-75.5 1058,-56.5 1014,-56.5"/>
<text text-anchor="middle" x="1036" y="-63.5" font-family="Helvetica,sans-Serif" font-size="10.00">bitset</text>
</a>
</g>
</g>
<!-- Node6&#45;&gt;Node8 -->
<g id="edge7" class="edge">
<title>Node6&#45;&gt;Node8</title>
<path fill="none" stroke="midnightblue" d="M885.03,-112.8C916.94,-103.12 969.94,-87.04 1003.9,-76.74"/>
<polygon fill="midnightblue" stroke="midnightblue" points="1005.23,-79.99 1013.79,-73.74 1003.2,-73.29 1005.23,-79.99"/>
</g>
<!-- Node9 -->
<g id="node9" class="node">
<title>Node9</title>
<g id="a_node9"><a xlink:title=" ">
<polygon fill="none" stroke="#bfbfbf" points="762.5,-0.5 762.5,-19.5 809.5,-19.5 809.5,-0.5 762.5,-0.5"/>
<text text-anchor="middle" x="786" y="-7.5" font-family="Helvetica,sans-Serif" font-size="10.00">deque</text>
</a>
</g>
</g>
<!-- Node6&#45;&gt;Node9 -->
<g id="edge8" class="edge">
<title>Node6&#45;&gt;Node9</title>
<path fill="none" stroke="midnightblue" d="M852.35,-112.37C840.47,-94.22 812.71,-51.8 797.12,-27.99"/>
<polygon fill="midnightblue" stroke="midnightblue" points="800.03,-26.04 791.62,-19.59 794.17,-29.88 800.03,-26.04"/>
</g>
<!-- Node10 -->
<g id="node10" class="node">
<title>Node10</title>
<g id="a_node10"><a xlink:title=" ">
<polygon fill="none" stroke="#bfbfbf" points="1076,-56.5 1076,-75.5 1134,-75.5 1134,-56.5 1076,-56.5"/>
<text text-anchor="middle" x="1105" y="-63.5" font-family="Helvetica,sans-Serif" font-size="10.00">memory</text>
</a>
</g>
</g>
<!-- Node6&#45;&gt;Node10 -->
<g id="edge9" class="edge">
<title>Node6&#45;&gt;Node10</title>
<path fill="none" stroke="midnightblue" d="M885.09,-115.35C923.19,-107.37 995,-92.18 1065.96,-76.2"/>
<polygon fill="midnightblue" stroke="midnightblue" points="1066.98,-79.56 1075.97,-73.94 1065.44,-72.73 1066.98,-79.56"/>
</g>
<!-- Node11 -->
<g id="node11" class="node">
<title>Node11</title>
<g id="a_node11"><a xlink:title=" ">
<polygon fill="none" stroke="#bfbfbf" points="1152.5,-56.5 1152.5,-75.5 1217.5,-75.5 1217.5,-56.5 1152.5,-56.5"/>
<text text-anchor="middle" x="1185" y="-63.5" font-family="Helvetica,sans-Serif" font-size="10.00">stdexcept</text>
</a>
</g>
</g>
<!-- Node6&#45;&gt;Node11 -->
<g id="edge10" class="edge">
<title>Node6&#45;&gt;Node11</title>
<path fill="none" stroke="midnightblue" d="M885.2,-117.21C934.36,-110.25 1041.49,-94.59 1142.42,-76.02"/>
<polygon fill="midnightblue" stroke="midnightblue" points="1143.28,-79.42 1152.48,-74.15 1142.01,-72.53 1143.28,-79.42"/>
</g>
<!-- Node12 -->
<g id="node12" class="node">
<title>Node12</title>
<g id="a_node12"><a xlink:title=" ">
<polygon fill="none" stroke="#bfbfbf" points="1236,-56.5 1236,-75.5 1280,-75.5 1280,-56.5 1236,-56.5"/>
<text text-anchor="middle" x="1258" y="-63.5" font-family="Helvetica,sans-Serif" font-size="10.00">string</text>
</a>
</g>
</g>
<!-- Node6&#45;&gt;Node12 -->
<g id="edge11" class="edge">
<title>Node6&#45;&gt;Node12</title>
<path fill="none" stroke="midnightblue" d="M885.09,-119.2C944.96,-114.9 1093.08,-102.52 1225.82,-75.94"/>
<polygon fill="midnightblue" stroke="midnightblue" points="1226.65,-79.35 1235.76,-73.92 1225.26,-72.49 1226.65,-79.35"/>
</g>
<!-- Node13 -->
<g id="node13" class="node">
<title>Node13</title>
<g id="a_node13"><a xlink:title=" ">
<polygon fill="none" stroke="#bfbfbf" points="1064.5,-0.5 1064.5,-19.5 1111.5,-19.5 1111.5,-0.5 1064.5,-0.5"/>
<text text-anchor="middle" x="1088" y="-7.5" font-family="Helvetica,sans-Serif" font-size="10.00">vector</text>
</a>
</g>
</g>
<!-- Node6&#45;&gt;Node13 -->
<g id="edge12" class="edge">
<title>Node6&#45;&gt;Node13</title>
<path fill="none" stroke="midnightblue" d="M871.68,-112.31C892.73,-99.15 934.56,-73.82 972,-56 999.31,-43.01 1031.44,-30.77 1054.95,-22.34"/>
<polygon fill="midnightblue" stroke="midnightblue" points="1056.21,-25.61 1064.46,-18.97 1053.87,-19.01 1056.21,-25.61"/>
</g>
<!-- Node14 -->
<g id="node14" class="node">
<title>Node14</title>
<g id="a_node14"><a xlink:href="champsim_8h.html" target="_top" xlink:title=" ">
<polygon fill="none" stroke="black" points="722.5,-56.5 722.5,-75.5 799.5,-75.5 799.5,-56.5 722.5,-56.5"/>
<text text-anchor="middle" x="761" y="-63.5" font-family="Helvetica,sans-Serif" font-size="10.00">champsim.h</text>
</a>
</g>
</g>
<!-- Node6&#45;&gt;Node14 -->
<g id="edge13" class="edge">
<title>Node6&#45;&gt;Node14</title>
<path fill="none" stroke="midnightblue" d="M842.42,-112.32C827,-103.74 803.19,-90.49 785.29,-80.52"/>
<polygon fill="midnightblue" stroke="midnightblue" points="786.99,-77.46 776.55,-75.65 783.58,-83.58 786.99,-77.46"/>
</g>
<!-- Node17 -->
<g id="node17" class="node">
<title>Node17</title>
<g id="a_node17"><a xlink:title=" ">
<polygon fill="none" stroke="#bfbfbf" points="1298.5,-56.5 1298.5,-75.5 1427.5,-75.5 1427.5,-56.5 1298.5,-56.5"/>
<text text-anchor="middle" x="1363" y="-63.5" font-family="Helvetica,sans-Serif" font-size="10.00">champsim_constants.h</text>
</a>
</g>
</g>
<!-- Node6&#45;&gt;Node17 -->
<g id="edge16" class="edge">
<title>Node6&#45;&gt;Node17</title>
<path fill="none" stroke="midnightblue" d="M885.25,-118.32C951.96,-111.72 1129.03,-93.98 1288.45,-76.04"/>
<polygon fill="midnightblue" stroke="midnightblue" points="1288.89,-79.52 1298.43,-74.92 1288.1,-72.56 1288.89,-79.52"/>
</g>
<!-- Node18 -->
<g id="node18" class="node">
<title>Node18</title>
<g id="a_node18"><a xlink:href="channel_8h.html" target="_top" xlink:title=" ">
<polygon fill="none" stroke="black" points="856,-56.5 856,-75.5 920,-75.5 920,-56.5 856,-56.5"/>
<text text-anchor="middle" x="888" y="-63.5" font-family="Helvetica,sans-Serif" font-size="10.00">channel.h</text>
</a>
</g>
</g>
<!-- Node6&#45;&gt;Node18 -->
<g id="edge17" class="edge">
<title>Node6&#45;&gt;Node18</title>
<path fill="none" stroke="midnightblue" d="M862.95,-112.08C867.1,-104.61 873.15,-93.72 878.27,-84.52"/>
<polygon fill="midnightblue" stroke="midnightblue" points="881.34,-86.19 883.14,-75.75 875.22,-82.79 881.34,-86.19"/>
</g>
<!-- Node22 -->
<g id="node22" class="node">
<title>Node22</title>
<g id="a_node22"><a xlink:href="module__impl_8h.html" target="_top" xlink:title=" ">
<polygon fill="none" stroke="black" points="149.5,-56.5 149.5,-75.5 238.5,-75.5 238.5,-56.5 149.5,-56.5"/>
<text text-anchor="middle" x="194" y="-63.5" font-family="Helvetica,sans-Serif" font-size="10.00">module_impl.h</text>
</a>
</g>
</g>
<!-- Node6&#45;&gt;Node22 -->
<g id="edge25" class="edge">
<title>Node6&#45;&gt;Node22</title>
<path fill="none" stroke="midnightblue" d="M830.86,-119.88C746.31,-116.22 480,-103.28 248.69,-75.97"/>
<polygon fill="midnightblue" stroke="midnightblue" points="249.09,-72.49 238.74,-74.78 248.26,-79.44 249.09,-72.49"/>
</g>
<!-- Node23 -->
<g id="node23" class="node">
<title>Node23</title>
<g id="a_node23"><a xlink:href="operable_8h.html" target="_top" xlink:title=" ">
<polygon fill="none" stroke="black" points="257,-56.5 257,-75.5 325,-75.5 325,-56.5 257,-56.5"/>
<text text-anchor="middle" x="291" y="-63.5" font-family="Helvetica,sans-Serif" font-size="10.00">operable.h</text>
</a>
</g>
</g>
<!-- Node6&#45;&gt;Node23 -->
<g id="edge26" class="edge">
<title>Node6&#45;&gt;Node23</title>
<path fill="none" stroke="midnightblue" d="M830.87,-119.83C754.46,-116.28 530.85,-104.22 335.37,-76.03"/>
<polygon fill="midnightblue" stroke="midnightblue" points="335.6,-72.53 325.2,-74.55 334.59,-79.45 335.6,-72.53"/>
</g>
<!-- Node24 -->
<g id="node24" class="node">
<title>Node24</title>
<g id="a_node24"><a xlink:title=" ">
<polygon fill="none" stroke="#bfbfbf" points="343.5,-56.5 343.5,-75.5 412.5,-75.5 412.5,-56.5 343.5,-56.5"/>
<text text-anchor="middle" x="378" y="-63.5" font-family="Helvetica,sans-Serif" font-size="10.00">type_traits</text>
</a>
</g>
</g>
<!-- Node6&#45;&gt;Node24 -->
<g id="edge27" class="edge">
<title>Node6&#45;&gt;Node24</title>
<path fill="none" stroke="midnightblue" d="M830.84,-119.14C763.52,-114.32 583.41,-100.2 422.6,-75.94"/>
<polygon fill="midnightblue" stroke="midnightblue" points="422.94,-72.45 412.53,-74.4 421.89,-79.37 422.94,-72.45"/>
</g>
<!-- Node25 -->
<g id="node25" class="node">
<title>Node25</title>
<g id="a_node25"><a xlink:title=" ">
<polygon fill="none" stroke="#bfbfbf" points="431,-56.5 431,-75.5 561,-75.5 561,-56.5 431,-56.5"/>
<text text-anchor="middle" x="496" y="-63.5" font-family="Helvetica,sans-Serif" font-size="10.00">cache_module_decl.inc</text>
</a>
</g>
</g>
<!-- Node6&#45;&gt;Node25 -->
<g id="edge28" class="edge">
<title>Node6&#45;&gt;Node25</title>
<path fill="none" stroke="midnightblue" d="M830.79,-116.94C774.42,-108.53 643.43,-88.99 563.03,-77"/>
<polygon fill="midnightblue" stroke="midnightblue" points="563.41,-73.52 553,-75.5 562.37,-80.44 563.41,-73.52"/>
</g>
<!-- Node26 -->
<g id="node26" class="node">
<title>Node26</title>
<g id="a_node26"><a xlink:title=" ">
<polygon fill="none" stroke="#bfbfbf" points="579.5,-56.5 579.5,-75.5 704.5,-75.5 704.5,-56.5 579.5,-56.5"/>
<text text-anchor="middle" x="642" y="-63.5" font-family="Helvetica,sans-Serif" font-size="10.00">cache_module_def.inc</text>
</a>
</g>
</g>
<!-- Node6&#45;&gt;Node26 -->
<g id="edge29" class="edge">
<title>Node6&#45;&gt;Node26</title>
<path fill="none" stroke="midnightblue" d="M830.64,-114.16C794.2,-105.05 729.31,-88.83 685.96,-77.99"/>
<polygon fill="midnightblue" stroke="midnightblue" points="686.79,-74.59 676.24,-75.56 685.1,-81.38 686.79,-74.59"/>
</g>
<!-- Node15 -->
<g id="node15" class="node">
<title>Node15</title>
<g id="a_node15"><a xlink:title=" ">
<polygon fill="none" stroke="#bfbfbf" points="694,-0.5 694,-19.5 744,-19.5 744,-0.5 694,-0.5"/>
<text text-anchor="middle" x="719" y="-7.5" font-family="Helvetica,sans-Serif" font-size="10.00">cstdint</text>
</a>
</g>
</g>
<!-- Node14&#45;&gt;Node15 -->
<g id="edge14" class="edge">
<title>Node14&#45;&gt;Node15</title>
<path fill="none" stroke="midnightblue" d="M754.06,-56.08C748.07,-48.38 739.25,-37.03 731.95,-27.65"/>
<polygon fill="midnightblue" stroke="midnightblue" points="734.71,-25.5 725.81,-19.75 729.18,-29.79 734.71,-25.5"/>
</g>
<!-- Node16 -->
<g id="node16" class="node">
<title>Node16</title>
<g id="a_node16"><a xlink:title=" ">
<polygon fill="none" stroke="#bfbfbf" points="610.5,-0.5 610.5,-19.5 675.5,-19.5 675.5,-0.5 610.5,-0.5"/>
<text text-anchor="middle" x="643" y="-7.5" font-family="Helvetica,sans-Serif" font-size="10.00">exception</text>
</a>
</g>
</g>
<!-- Node14&#45;&gt;Node16 -->
<g id="edge15" class="edge">
<title>Node14&#45;&gt;Node16</title>
<path fill="none" stroke="midnightblue" d="M742.3,-56.44C723.06,-47.64 692.85,-33.81 670.8,-23.72"/>
<polygon fill="midnightblue" stroke="midnightblue" points="672.16,-20.5 661.61,-19.52 669.25,-26.86 672.16,-20.5"/>
</g>
<!-- Node18&#45;&gt;Node7 -->
<g id="edge18" class="edge">
<title>Node18&#45;&gt;Node7</title>
<path fill="none" stroke="midnightblue" d="M920.26,-59.83C963.58,-52.65 1043.12,-38.67 1119.93,-20.07"/>
<polygon fill="midnightblue" stroke="midnightblue" points="1120.89,-23.44 1129.77,-17.66 1119.22,-16.64 1120.89,-23.44"/>
</g>
<!-- Node18&#45;&gt;Node9 -->
<g id="edge20" class="edge">
<title>Node18&#45;&gt;Node9</title>
<path fill="none" stroke="midnightblue" d="M871.61,-56.32C855.33,-47.7 830.13,-34.36 811.28,-24.39"/>
<polygon fill="midnightblue" stroke="midnightblue" points="812.82,-21.24 802.35,-19.65 809.55,-27.43 812.82,-21.24"/>
</g>
<!-- Node18&#45;&gt;Node13 -->
<g id="edge23" class="edge">
<title>Node18&#45;&gt;Node13</title>
<path fill="none" stroke="midnightblue" d="M920.24,-56.49C952.1,-48.06 1002.49,-34.64 1054.51,-20.39"/>
<polygon fill="midnightblue" stroke="midnightblue" points="1055.53,-23.74 1064.24,-17.72 1053.67,-16.99 1055.53,-23.74"/>
</g>
<!-- Node18&#45;&gt;Node15 -->
<g id="edge19" class="edge">
<title>Node18&#45;&gt;Node15</title>
<path fill="none" stroke="midnightblue" d="M861.22,-56.44C832.16,-47.16 785.66,-32.3 753.79,-22.12"/>
<polygon fill="midnightblue" stroke="midnightblue" points="754.59,-18.7 744,-18.99 752.46,-25.37 754.59,-18.7"/>
</g>
<!-- Node19 -->
<g id="node19" class="node">
<title>Node19</title>
<g id="a_node19"><a xlink:title=" ">
<polygon fill="none" stroke="#bfbfbf" points="981.5,-0.5 981.5,-19.5 1046.5,-19.5 1046.5,-0.5 981.5,-0.5"/>
<text text-anchor="middle" x="1014" y="-7.5" font-family="Helvetica,sans-Serif" font-size="10.00">functional</text>
</a>
</g>
</g>
<!-- Node18&#45;&gt;Node19 -->
<g id="edge21" class="edge">
<title>Node18&#45;&gt;Node19</title>
<path fill="none" stroke="midnightblue" d="M907.97,-56.44C928.61,-47.6 961.06,-33.69 984.63,-23.59"/>
<polygon fill="midnightblue" stroke="midnightblue" points="986.32,-26.67 994.13,-19.52 983.56,-20.24 986.32,-26.67"/>
</g>
<!-- Node20 -->
<g id="node20" class="node">
<title>Node20</title>
<g id="a_node20"><a xlink:title=" ">
<polygon fill="none" stroke="#bfbfbf" points="828,-0.5 828,-19.5 872,-19.5 872,-0.5 828,-0.5"/>
<text text-anchor="middle" x="850" y="-7.5" font-family="Helvetica,sans-Serif" font-size="10.00">limits</text>
</a>
</g>
</g>
<!-- Node18&#45;&gt;Node20 -->
<g id="edge22" class="edge">
<title>Node18&#45;&gt;Node20</title>
<path fill="none" stroke="midnightblue" d="M881.73,-56.08C876.36,-48.46 868.48,-37.26 861.92,-27.94"/>
<polygon fill="midnightblue" stroke="midnightblue" points="864.78,-25.91 856.16,-19.75 859.05,-29.94 864.78,-25.91"/>
</g>
<!-- Node21 -->
<g id="node21" class="node">
<title>Node21</title>
<g id="a_node21"><a xlink:title=" ">
<polygon fill="none" stroke="#bfbfbf" points="890.5,-0.5 890.5,-19.5 963.5,-19.5 963.5,-0.5 890.5,-0.5"/>
<text text-anchor="middle" x="927" y="-7.5" font-family="Helvetica,sans-Serif" font-size="10.00">string_view</text>
</a>
</g>
</g>
<!-- Node18&#45;&gt;Node21 -->
<g id="edge24" class="edge">
<title>Node18&#45;&gt;Node21</title>
<path fill="none" stroke="midnightblue" d="M894.44,-56.08C899.95,-48.46 908.03,-37.26 914.76,-27.94"/>
<polygon fill="midnightblue" stroke="midnightblue" points="917.66,-29.91 920.68,-19.75 911.99,-25.81 917.66,-29.91"/>
</g>
<!-- Node27&#45;&gt;Node2 -->
<g id="edge31" class="edge">
<title>Node27&#45;&gt;Node2</title>
<path fill="none" stroke="midnightblue" d="M94.95,-112.32C83.54,-104.11 66.17,-91.6 52.57,-81.81"/>
<polygon fill="midnightblue" stroke="midnightblue" points="54.43,-78.84 44.27,-75.83 50.34,-84.52 54.43,-78.84"/>
</g>
<!-- Node28 -->
<g id="node28" class="node">
<title>Node28</title>
<g id="a_node28"><a xlink:title=" ">
<polygon fill="none" stroke="#bfbfbf" points="82.5,-56.5 82.5,-75.5 131.5,-75.5 131.5,-56.5 82.5,-56.5"/>
<text text-anchor="middle" x="107" y="-63.5" font-family="Helvetica,sans-Serif" font-size="10.00">cstdlib</text>
</a>
</g>
</g>
<!-- Node27&#45;&gt;Node28 -->
<g id="edge32" class="edge">
<title>Node27&#45;&gt;Node28</title>
<path fill="none" stroke="midnightblue" d="M107,-112.08C107,-105.01 107,-94.86 107,-85.99"/>
<polygon fill="midnightblue" stroke="midnightblue" points="110.5,-85.75 107,-75.75 103.5,-85.75 110.5,-85.75"/>
</g>
</g>
</svg>
