<?xml version="1.0" encoding="UTF-8" standalone="no"?>
<!DOCTYPE svg PUBLIC "-//W3C//DTD SVG 1.1//EN"
 "http://www.w3.org/Graphics/SVG/1.1/DTD/svg11.dtd">
<!-- Generated by graphviz version 2.43.0 (0)
 -->
<!-- Title: inc/environment.h Pages: 1 -->
<svg width="2401pt" height="308pt"
 viewBox="0.00 0.00 2400.94 308.00" xmlns="http://www.w3.org/2000/svg" xmlns:xlink="http://www.w3.org/1999/xlink">
<g id="graph0" class="graph" transform="scale(1 1) rotate(0) translate(4 304)">
<title>inc/environment.h</title>
<!-- Node1 -->
<g id="node1" class="node">
<title>Node1</title>
<g id="a_node1"><a xlink:title=" ">
<polygon fill="#bfbfbf" stroke="black" points="469.46,-280.5 469.46,-299.5 574.46,-299.5 574.46,-280.5 469.46,-280.5"/>
<text text-anchor="middle" x="521.96" y="-287.5" font-family="Helvetica,sans-Serif" font-size="10.00">inc/environment.h</text>
</a>
</g>
</g>
<!-- Node2 -->
<g id="node2" class="node">
<title>Node2</title>
<g id="a_node2"><a xlink:title=" ">
<polygon fill="none" stroke="#bfbfbf" points="599.46,-112.5 599.46,-131.5 664.46,-131.5 664.46,-112.5 599.46,-112.5"/>
<text text-anchor="middle" x="631.96" y="-119.5" font-family="Helvetica,sans-Serif" font-size="10.00">functional</text>
</a>
</g>
</g>
<!-- Node1&#45;&gt;Node2 -->
<g id="edge1" class="edge">
<title>Node1&#45;&gt;Node2</title>
<path fill="none" stroke="midnightblue" d="M469.45,-285.3C325.99,-274.23 -57.62,-237.76 7.96,-168 50.72,-122.52 491.18,-139.54 589.36,-131.69"/>
<polygon fill="midnightblue" stroke="midnightblue" points="589.79,-135.16 599.37,-130.63 589.05,-128.2 589.79,-135.16"/>
</g>
<!-- Node3 -->
<g id="node3" class="node">
<title>Node3</title>
<g id="a_node3"><a xlink:title=" ">
<polygon fill="none" stroke="#bfbfbf" points="1463.46,-56.5 1463.46,-75.5 1510.46,-75.5 1510.46,-56.5 1463.46,-56.5"/>
<text text-anchor="middle" x="1486.96" y="-63.5" font-family="Helvetica,sans-Serif" font-size="10.00">vector</text>
</a>
</g>
</g>
<!-- Node1&#45;&gt;Node3 -->
<g id="edge2" class="edge">
<title>Node1&#45;&gt;Node3</title>
<path fill="none" stroke="midnightblue" d="M574.88,-287.97C859.99,-282.18 2202.34,-251.57 2260.96,-188 2365.06,-75.11 1683.29,-67.23 1521.05,-66.94"/>
<polygon fill="midnightblue" stroke="midnightblue" points="1520.71,-63.44 1510.71,-66.93 1520.7,-70.44 1520.71,-63.44"/>
</g>
<!-- Node4 -->
<g id="node4" class="node">
<title>Node4</title>
<g id="a_node4"><a xlink:href="cache_8h.html" target="_top" xlink:title=" ">
<polygon fill="none" stroke="black" points="905.96,-224.5 905.96,-243.5 959.96,-243.5 959.96,-224.5 905.96,-224.5"/>
<text text-anchor="middle" x="932.96" y="-231.5" font-family="Helvetica,sans-Serif" font-size="10.00">cache.h</text>
</a>
</g>
</g>
<!-- Node1&#45;&gt;Node4 -->
<g id="edge3" class="edge">
<title>Node1&#45;&gt;Node4</title>
<path fill="none" stroke="midnightblue" d="M574.85,-282.05C659.16,-270.97 821.98,-249.58 895.42,-239.93"/>
<polygon fill="midnightblue" stroke="midnightblue" points="896.12,-243.37 905.58,-238.6 895.21,-236.43 896.12,-243.37"/>
</g>
<!-- Node19 -->
<g id="node19" class="node">
<title>Node19</title>
<g id="a_node19"><a xlink:href="operable_8h.html" target="_top" xlink:title=" ">
<polygon fill="none" stroke="black" points="487.96,-168.5 487.96,-187.5 555.96,-187.5 555.96,-168.5 487.96,-168.5"/>
<text text-anchor="middle" x="521.96" y="-175.5" font-family="Helvetica,sans-Serif" font-size="10.00">operable.h</text>
</a>
</g>
</g>
<!-- Node1&#45;&gt;Node19 -->
<g id="edge75" class="edge">
<title>Node1&#45;&gt;Node19</title>
<path fill="none" stroke="midnightblue" d="M521.96,-280.37C521.96,-262.62 521.96,-221.67 521.96,-197.6"/>
<polygon fill="midnightblue" stroke="midnightblue" points="525.46,-197.59 521.96,-187.59 518.46,-197.59 525.46,-197.59"/>
</g>
<!-- Node23 -->
<g id="node23" class="node">
<title>Node23</title>
<g id="a_node23"><a xlink:href="dram__controller_8h.html" target="_top" xlink:title=" ">
<polygon fill="none" stroke="black" points="348.96,-224.5 348.96,-243.5 450.96,-243.5 450.96,-224.5 348.96,-224.5"/>
<text text-anchor="middle" x="399.96" y="-231.5" font-family="Helvetica,sans-Serif" font-size="10.00">dram_controller.h</text>
</a>
</g>
</g>
<!-- Node1&#45;&gt;Node23 -->
<g id="edge28" class="edge">
<title>Node1&#45;&gt;Node23</title>
<path fill="none" stroke="midnightblue" d="M502.63,-280.44C482.64,-271.6 451.22,-257.69 428.39,-247.59"/>
<polygon fill="midnightblue" stroke="midnightblue" points="429.76,-244.36 419.2,-243.52 426.93,-250.76 429.76,-244.36"/>
</g>
<!-- Node26 -->
<g id="node26" class="node">
<title>Node26</title>
<g id="a_node26"><a xlink:href="ooo__cpu_8h.html" target="_top" xlink:title=" ">
<polygon fill="none" stroke="black" points="1495.96,-224.5 1495.96,-243.5 1561.96,-243.5 1561.96,-224.5 1495.96,-224.5"/>
<text text-anchor="middle" x="1528.96" y="-231.5" font-family="Helvetica,sans-Serif" font-size="10.00">ooo_cpu.h</text>
</a>
</g>
</g>
<!-- Node1&#45;&gt;Node26 -->
<g id="edge37" class="edge">
<title>Node1&#45;&gt;Node26</title>
<path fill="none" stroke="midnightblue" d="M574.68,-286.17C751.69,-276.68 1322.71,-246.06 1485.36,-237.34"/>
<polygon fill="midnightblue" stroke="midnightblue" points="1485.67,-240.83 1495.47,-236.8 1485.3,-233.84 1485.67,-240.83"/>
</g>
<!-- Node38 -->
<g id="node38" class="node">
<title>Node38</title>
<g id="a_node38"><a xlink:href="ptw_8h.html" target="_top" xlink:title=" ">
<polygon fill="none" stroke="black" points="284.46,-224.5 284.46,-243.5 327.46,-243.5 327.46,-224.5 284.46,-224.5"/>
<text text-anchor="middle" x="305.96" y="-231.5" font-family="Helvetica,sans-Serif" font-size="10.00">ptw.h</text>
</a>
</g>
</g>
<!-- Node1&#45;&gt;Node38 -->
<g id="edge76" class="edge">
<title>Node1&#45;&gt;Node38</title>
<path fill="none" stroke="midnightblue" d="M486.69,-280.46C449.99,-271.53 390.88,-257.03 339.96,-244 339.08,-243.77 338.19,-243.55 337.29,-243.31"/>
<polygon fill="midnightblue" stroke="midnightblue" points="338.09,-239.91 327.53,-240.77 336.32,-246.68 338.09,-239.91"/>
</g>
<!-- Node4&#45;&gt;Node3 -->
<g id="edge10" class="edge">
<title>Node4&#45;&gt;Node3</title>
<path fill="none" stroke="midnightblue" d="M935.62,-224.23C940.41,-210 951.92,-182.06 971.96,-168 1050.92,-112.58 1351.62,-79.74 1453.2,-70.04"/>
<polygon fill="midnightblue" stroke="midnightblue" points="1453.59,-73.52 1463.22,-69.1 1452.94,-66.55 1453.59,-73.52"/>
</g>
<!-- Node5 -->
<g id="node5" class="node">
<title>Node5</title>
<g id="a_node5"><a xlink:title=" ">
<polygon fill="none" stroke="#bfbfbf" points="881.96,-112.5 881.96,-131.5 923.96,-131.5 923.96,-112.5 881.96,-112.5"/>
<text text-anchor="middle" x="902.96" y="-119.5" font-family="Helvetica,sans-Serif" font-size="10.00">array</text>
</a>
</g>
</g>
<!-- Node4&#45;&gt;Node5 -->
<g id="edge4" class="edge">
<title>Node4&#45;&gt;Node5</title>
<path fill="none" stroke="midnightblue" d="M930.6,-224.37C925.74,-206.54 914.49,-165.3 907.94,-141.27"/>
<polygon fill="midnightblue" stroke="midnightblue" points="911.31,-140.32 905.3,-131.59 904.56,-142.16 911.31,-140.32"/>
</g>
<!-- Node6 -->
<g id="node6" class="node">
<title>Node6</title>
<g id="a_node6"><a xlink:title=" ">
<polygon fill="none" stroke="#bfbfbf" points="1214.96,-168.5 1214.96,-187.5 1258.96,-187.5 1258.96,-168.5 1214.96,-168.5"/>
<text text-anchor="middle" x="1236.96" y="-175.5" font-family="Helvetica,sans-Serif" font-size="10.00">bitset</text>
</a>
</g>
</g>
<!-- Node4&#45;&gt;Node6 -->
<g id="edge5" class="edge">
<title>Node4&#45;&gt;Node6</title>
<path fill="none" stroke="midnightblue" d="M960.29,-229.59C1008.04,-223.41 1109.89,-209.17 1204.93,-188.01"/>
<polygon fill="midnightblue" stroke="midnightblue" points="1205.71,-191.43 1214.69,-185.81 1204.16,-184.6 1205.71,-191.43"/>
</g>
<!-- Node7 -->
<g id="node7" class="node">
<title>Node7</title>
<g id="a_node7"><a xlink:title=" ">
<polygon fill="none" stroke="#bfbfbf" points="816.46,-112.5 816.46,-131.5 863.46,-131.5 863.46,-112.5 816.46,-112.5"/>
<text text-anchor="middle" x="839.96" y="-119.5" font-family="Helvetica,sans-Serif" font-size="10.00">deque</text>
</a>
</g>
</g>
<!-- Node4&#45;&gt;Node7 -->
<g id="edge6" class="edge">
<title>Node4&#45;&gt;Node7</title>
<path fill="none" stroke="midnightblue" d="M905.72,-233.63C834.08,-234.63 643.19,-232.96 603.96,-188 560.85,-138.59 504.55,-194.21 801.96,-132 803.41,-131.7 804.89,-131.38 806.39,-131.05"/>
<polygon fill="midnightblue" stroke="midnightblue" points="807.3,-134.43 816.28,-128.81 805.76,-127.61 807.3,-134.43"/>
</g>
<!-- Node8 -->
<g id="node8" class="node">
<title>Node8</title>
<g id="a_node8"><a xlink:title=" ">
<polygon fill="none" stroke="#bfbfbf" points="1372.96,-168.5 1372.96,-187.5 1430.96,-187.5 1430.96,-168.5 1372.96,-168.5"/>
<text text-anchor="middle" x="1401.96" y="-175.5" font-family="Helvetica,sans-Serif" font-size="10.00">memory</text>
</a>
</g>
</g>
<!-- Node4&#45;&gt;Node8 -->
<g id="edge7" class="edge">
<title>Node4&#45;&gt;Node8</title>
<path fill="none" stroke="midnightblue" d="M960.35,-231.37C1027.4,-227.11 1205.16,-214.25 1362.71,-188.02"/>
<polygon fill="midnightblue" stroke="midnightblue" points="1363.3,-191.47 1372.58,-186.35 1362.13,-184.57 1363.3,-191.47"/>
</g>
<!-- Node9 -->
<g id="node9" class="node">
<title>Node9</title>
<g id="a_node9"><a xlink:title=" ">
<polygon fill="none" stroke="#bfbfbf" points="1449.46,-168.5 1449.46,-187.5 1514.46,-187.5 1514.46,-168.5 1449.46,-168.5"/>
<text text-anchor="middle" x="1481.96" y="-175.5" font-family="Helvetica,sans-Serif" font-size="10.00">stdexcept</text>
</a>
</g>
</g>
<!-- Node4&#45;&gt;Node9 -->
<g id="edge8" class="edge">
<title>Node4&#45;&gt;Node9</title>
<path fill="none" stroke="midnightblue" d="M960.03,-231.77C1034.71,-228.12 1250.03,-215.94 1438.9,-187.97"/>
<polygon fill="midnightblue" stroke="midnightblue" points="1439.64,-191.4 1449.01,-186.46 1438.61,-184.48 1439.64,-191.4"/>
</g>
<!-- Node10 -->
<g id="node10" class="node">
<title>Node10</title>
<g id="a_node10"><a xlink:title=" ">
<polygon fill="none" stroke="#bfbfbf" points="161.96,-168.5 161.96,-187.5 205.96,-187.5 205.96,-168.5 161.96,-168.5"/>
<text text-anchor="middle" x="183.96" y="-175.5" font-family="Helvetica,sans-Serif" font-size="10.00">string</text>
</a>
</g>
</g>
<!-- Node4&#45;&gt;Node10 -->
<g id="edge9" class="edge">
<title>Node4&#45;&gt;Node10</title>
<path fill="none" stroke="midnightblue" d="M905.7,-231.82C813.68,-227.7 506.12,-212.86 252.96,-188 240.9,-186.82 227.7,-185.18 216.1,-183.62"/>
<polygon fill="midnightblue" stroke="midnightblue" points="216.36,-180.13 205.98,-182.24 215.41,-187.06 216.36,-180.13"/>
</g>
<!-- Node11 -->
<g id="node11" class="node">
<title>Node11</title>
<g id="a_node11"><a xlink:href="champsim_8h.html" target="_top" xlink:title=" ">
<polygon fill="none" stroke="black" points="1277.46,-168.5 1277.46,-187.5 1354.46,-187.5 1354.46,-168.5 1277.46,-168.5"/>
<text text-anchor="middle" x="1315.96" y="-175.5" font-family="Helvetica,sans-Serif" font-size="10.00">champsim.h</text>
</a>
</g>
</g>
<!-- Node4&#45;&gt;Node11 -->
<g id="edge11" class="edge">
<title>Node4&#45;&gt;Node11</title>
<path fill="none" stroke="midnightblue" d="M960.39,-229.8C1016.1,-223.21 1146.71,-207.21 1267.09,-188.06"/>
<polygon fill="midnightblue" stroke="midnightblue" points="1267.9,-191.48 1277.22,-186.44 1266.79,-184.57 1267.9,-191.48"/>
</g>
<!-- Node14 -->
<g id="node14" class="node">
<title>Node14</title>
<g id="a_node14"><a xlink:title=" ">
<polygon fill="none" stroke="#bfbfbf" points="980.46,-168.5 980.46,-187.5 1109.46,-187.5 1109.46,-168.5 980.46,-168.5"/>
<text text-anchor="middle" x="1044.96" y="-175.5" font-family="Helvetica,sans-Serif" font-size="10.00">champsim_constants.h</text>
</a>
</g>
</g>
<!-- Node4&#45;&gt;Node14 -->
<g id="edge14" class="edge">
<title>Node4&#45;&gt;Node14</title>
<path fill="none" stroke="midnightblue" d="M950.95,-224.32C969,-215.62 997.01,-202.12 1017.76,-192.11"/>
<polygon fill="midnightblue" stroke="midnightblue" points="1019.52,-195.15 1027.01,-187.65 1016.48,-188.84 1019.52,-195.15"/>
</g>
<!-- Node15 -->
<g id="node15" class="node">
<title>Node15</title>
<g id="a_node15"><a xlink:href="channel_8h.html" target="_top" xlink:title=" ">
<polygon fill="none" stroke="black" points="367.96,-168.5 367.96,-187.5 431.96,-187.5 431.96,-168.5 367.96,-168.5"/>
<text text-anchor="middle" x="399.96" y="-175.5" font-family="Helvetica,sans-Serif" font-size="10.00">channel.h</text>
</a>
</g>
</g>
<!-- Node4&#45;&gt;Node15 -->
<g id="edge15" class="edge">
<title>Node4&#45;&gt;Node15</title>
<path fill="none" stroke="midnightblue" d="M905.82,-230.45C835.36,-223.8 640.81,-205.24 478.96,-188 467.07,-186.73 454.18,-185.29 442.33,-183.94"/>
<polygon fill="midnightblue" stroke="midnightblue" points="442.57,-180.45 432.23,-182.78 441.77,-187.4 442.57,-180.45"/>
</g>
<!-- Node18 -->
<g id="node18" class="node">
<title>Node18</title>
<g id="a_node18"><a xlink:href="module__impl_8h.html" target="_top" xlink:title=" ">
<polygon fill="none" stroke="black" points="1532.46,-168.5 1532.46,-187.5 1621.46,-187.5 1621.46,-168.5 1532.46,-168.5"/>
<text text-anchor="middle" x="1576.96" y="-175.5" font-family="Helvetica,sans-Serif" font-size="10.00">module_impl.h</text>
</a>
</g>
</g>
<!-- Node4&#45;&gt;Node18 -->
<g id="edge23" class="edge">
<title>Node4&#45;&gt;Node18</title>
<path fill="none" stroke="midnightblue" d="M960.14,-231.82C1042.95,-228.05 1299.51,-214.97 1521.95,-188.15"/>
<polygon fill="midnightblue" stroke="midnightblue" points="1522.68,-191.59 1532.18,-186.9 1521.83,-184.64 1522.68,-191.59"/>
</g>
<!-- Node4&#45;&gt;Node19 -->
<g id="edge24" class="edge">
<title>Node4&#45;&gt;Node19</title>
<path fill="none" stroke="midnightblue" d="M905.56,-230.19C844.91,-223.84 694.83,-207.43 569.96,-188 568.69,-187.8 567.4,-187.6 566.09,-187.38"/>
<polygon fill="midnightblue" stroke="midnightblue" points="566.45,-183.89 556,-185.65 565.27,-190.79 566.45,-183.89"/>
</g>
<!-- Node20 -->
<g id="node20" class="node">
<title>Node20</title>
<g id="a_node20"><a xlink:title=" ">
<polygon fill="none" stroke="#bfbfbf" points="1127.46,-168.5 1127.46,-187.5 1196.46,-187.5 1196.46,-168.5 1127.46,-168.5"/>
<text text-anchor="middle" x="1161.96" y="-175.5" font-family="Helvetica,sans-Serif" font-size="10.00">type_traits</text>
</a>
</g>
</g>
<!-- Node4&#45;&gt;Node20 -->
<g id="edge25" class="edge">
<title>Node4&#45;&gt;Node20</title>
<path fill="none" stroke="midnightblue" d="M960.13,-226.59C998.98,-217.43 1070.86,-200.48 1117.52,-189.48"/>
<polygon fill="midnightblue" stroke="midnightblue" points="1118.44,-192.86 1127.36,-187.16 1116.83,-186.05 1118.44,-192.86"/>
</g>
<!-- Node21 -->
<g id="node21" class="node">
<title>Node21</title>
<g id="a_node21"><a xlink:title=" ">
<polygon fill="none" stroke="#bfbfbf" points="755.96,-168.5 755.96,-187.5 885.96,-187.5 885.96,-168.5 755.96,-168.5"/>
<text text-anchor="middle" x="820.96" y="-175.5" font-family="Helvetica,sans-Serif" font-size="10.00">cache_module_decl.inc</text>
</a>
</g>
</g>
<!-- Node4&#45;&gt;Node21 -->
<g id="edge26" class="edge">
<title>Node4&#45;&gt;Node21</title>
<path fill="none" stroke="midnightblue" d="M914.96,-224.32C896.92,-215.62 868.91,-202.12 848.16,-192.11"/>
<polygon fill="midnightblue" stroke="midnightblue" points="849.44,-188.84 838.91,-187.65 846.4,-195.15 849.44,-188.84"/>
</g>
<!-- Node22 -->
<g id="node22" class="node">
<title>Node22</title>
<g id="a_node22"><a xlink:title=" ">
<polygon fill="none" stroke="#bfbfbf" points="612.46,-168.5 612.46,-187.5 737.46,-187.5 737.46,-168.5 612.46,-168.5"/>
<text text-anchor="middle" x="674.96" y="-175.5" font-family="Helvetica,sans-Serif" font-size="10.00">cache_module_def.inc</text>
</a>
</g>
</g>
<!-- Node4&#45;&gt;Node22 -->
<g id="edge27" class="edge">
<title>Node4&#45;&gt;Node22</title>
<path fill="none" stroke="midnightblue" d="M905.84,-227.32C863.17,-218.39 779.7,-200.92 725.68,-189.62"/>
<polygon fill="midnightblue" stroke="midnightblue" points="726.12,-186.13 715.62,-187.51 724.69,-192.98 726.12,-186.13"/>
</g>
<!-- Node12 -->
<g id="node12" class="node">
<title>Node12</title>
<g id="a_node12"><a xlink:title=" ">
<polygon fill="none" stroke="#bfbfbf" points="541.96,-0.5 541.96,-19.5 591.96,-19.5 591.96,-0.5 541.96,-0.5"/>
<text text-anchor="middle" x="566.96" y="-7.5" font-family="Helvetica,sans-Serif" font-size="10.00">cstdint</text>
</a>
</g>
</g>
<!-- Node11&#45;&gt;Node12 -->
<g id="edge12" class="edge">
<title>Node11&#45;&gt;Node12</title>
<path fill="none" stroke="midnightblue" d="M1277.53,-168.48C1147.75,-139.72 726.89,-46.45 602.13,-18.79"/>
<polygon fill="midnightblue" stroke="midnightblue" points="602.84,-15.37 592.32,-16.62 601.33,-22.2 602.84,-15.37"/>
</g>
<!-- Node13 -->
<g id="node13" class="node">
<title>Node13</title>
<g id="a_node13"><a xlink:title=" ">
<polygon fill="none" stroke="#bfbfbf" points="1283.46,-112.5 1283.46,-131.5 1348.46,-131.5 1348.46,-112.5 1283.46,-112.5"/>
<text text-anchor="middle" x="1315.96" y="-119.5" font-family="Helvetica,sans-Serif" font-size="10.00">exception</text>
</a>
</g>
</g>
<!-- Node11&#45;&gt;Node13 -->
<g id="edge13" class="edge">
<title>Node11&#45;&gt;Node13</title>
<path fill="none" stroke="midnightblue" d="M1315.96,-168.08C1315.96,-161.01 1315.96,-150.86 1315.96,-141.99"/>
<polygon fill="midnightblue" stroke="midnightblue" points="1319.46,-141.75 1315.96,-131.75 1312.46,-141.75 1319.46,-141.75"/>
</g>
<!-- Node15&#45;&gt;Node2 -->
<g id="edge19" class="edge">
<title>Node15&#45;&gt;Node2</title>
<path fill="none" stroke="midnightblue" d="M432.22,-169.49C473.19,-159.95 544.02,-143.47 589.39,-132.91"/>
<polygon fill="midnightblue" stroke="midnightblue" points="590.28,-136.29 599.23,-130.62 588.69,-129.48 590.28,-136.29"/>
</g>
<!-- Node15&#45;&gt;Node3 -->
<g id="edge21" class="edge">
<title>Node15&#45;&gt;Node3</title>
<path fill="none" stroke="midnightblue" d="M432,-169.79C435.35,-169.14 438.72,-168.53 441.96,-168 584.09,-144.88 625.13,-170.27 763.96,-132 784.67,-126.29 787.13,-117.24 807.96,-112 932.26,-80.74 1333.62,-70.14 1453.1,-67.64"/>
<polygon fill="midnightblue" stroke="midnightblue" points="1453.52,-71.13 1463.45,-67.43 1453.38,-64.13 1453.52,-71.13"/>
</g>
<!-- Node15&#45;&gt;Node5 -->
<g id="edge16" class="edge">
<title>Node15&#45;&gt;Node5</title>
<path fill="none" stroke="midnightblue" d="M432.05,-170.26C436.71,-169.41 441.45,-168.63 445.96,-168 631.36,-142.13 684.06,-166.68 871.87,-131.82"/>
<polygon fill="midnightblue" stroke="midnightblue" points="872.61,-135.24 881.79,-129.94 871.31,-128.36 872.61,-135.24"/>
</g>
<!-- Node15&#45;&gt;Node7 -->
<g id="edge18" class="edge">
<title>Node15&#45;&gt;Node7</title>
<path fill="none" stroke="midnightblue" d="M432.06,-170.33C436.71,-169.47 441.45,-168.67 445.96,-168 603.27,-144.71 645.13,-158.38 801.96,-132 803.42,-131.75 804.91,-131.48 806.41,-131.2"/>
<polygon fill="midnightblue" stroke="midnightblue" points="807.28,-134.59 816.34,-129.1 805.83,-127.74 807.28,-134.59"/>
</g>
<!-- Node15&#45;&gt;Node12 -->
<g id="edge17" class="edge">
<title>Node15&#45;&gt;Node12</title>
<path fill="none" stroke="midnightblue" d="M408.94,-168.08C435.91,-141.27 516.47,-61.19 550.98,-26.89"/>
<polygon fill="midnightblue" stroke="midnightblue" points="553.71,-29.1 558.34,-19.57 548.78,-24.14 553.71,-29.1"/>
</g>
<!-- Node16 -->
<g id="node16" class="node">
<title>Node16</title>
<g id="a_node16"><a xlink:title=" ">
<polygon fill="none" stroke="#bfbfbf" points="1505.96,-0.5 1505.96,-19.5 1549.96,-19.5 1549.96,-0.5 1505.96,-0.5"/>
<text text-anchor="middle" x="1527.96" y="-7.5" font-family="Helvetica,sans-Serif" font-size="10.00">limits</text>
</a>
</g>
</g>
<!-- Node15&#45;&gt;Node16 -->
<g id="edge20" class="edge">
<title>Node15&#45;&gt;Node16</title>
<path fill="none" stroke="midnightblue" d="M432.02,-169.93C435.37,-169.25 438.73,-168.6 441.96,-168 544.57,-149.06 571.42,-151.33 673.96,-132 714.23,-124.41 723.61,-119.14 763.96,-112 1045.77,-62.16 1390.04,-25.09 1495.64,-14.25"/>
<polygon fill="midnightblue" stroke="midnightblue" points="1496.07,-17.73 1505.66,-13.23 1495.36,-10.76 1496.07,-17.73"/>
</g>
<!-- Node17 -->
<g id="node17" class="node">
<title>Node17</title>
<g id="a_node17"><a xlink:title=" ">
<polygon fill="none" stroke="#bfbfbf" points="508.46,-112.5 508.46,-131.5 581.46,-131.5 581.46,-112.5 508.46,-112.5"/>
<text text-anchor="middle" x="544.96" y="-119.5" font-family="Helvetica,sans-Serif" font-size="10.00">string_view</text>
</a>
</g>
</g>
<!-- Node15&#45;&gt;Node17 -->
<g id="edge22" class="edge">
<title>Node15&#45;&gt;Node17</title>
<path fill="none" stroke="midnightblue" d="M422.93,-168.44C447.12,-159.44 485.38,-145.19 512.6,-135.05"/>
<polygon fill="midnightblue" stroke="midnightblue" points="513.94,-138.29 522.09,-131.52 511.5,-131.73 513.94,-138.29"/>
</g>
<!-- Node23&#45;&gt;Node5 -->
<g id="edge29" class="edge">
<title>Node23&#45;&gt;Node5</title>
<path fill="none" stroke="midnightblue" d="M407.18,-224.36C419.95,-209.8 448.07,-180.69 478.96,-168 638.59,-102.42 698.11,-163.09 871.81,-131.8"/>
<polygon fill="midnightblue" stroke="midnightblue" points="872.6,-135.21 881.78,-129.92 871.31,-128.33 872.6,-135.21"/>
</g>
<!-- Node23&#45;&gt;Node10 -->
<g id="edge33" class="edge">
<title>Node23&#45;&gt;Node10</title>
<path fill="none" stroke="midnightblue" d="M365.73,-224.44C324.59,-214.16 256.07,-197.03 215.95,-187"/>
<polygon fill="midnightblue" stroke="midnightblue" points="216.7,-183.58 206.15,-184.55 215.01,-190.37 216.7,-183.58"/>
</g>
<!-- Node23&#45;&gt;Node14 -->
<g id="edge34" class="edge">
<title>Node23&#45;&gt;Node14</title>
<path fill="none" stroke="midnightblue" d="M451.11,-228.72C564.51,-219.22 837.45,-196.37 970.09,-185.27"/>
<polygon fill="midnightblue" stroke="midnightblue" points="970.49,-188.75 980.16,-184.42 969.9,-181.77 970.49,-188.75"/>
</g>
<!-- Node23&#45;&gt;Node15 -->
<g id="edge35" class="edge">
<title>Node23&#45;&gt;Node15</title>
<path fill="none" stroke="midnightblue" d="M399.96,-224.08C399.96,-217.01 399.96,-206.86 399.96,-197.99"/>
<polygon fill="midnightblue" stroke="midnightblue" points="403.46,-197.75 399.96,-187.75 396.46,-197.75 403.46,-197.75"/>
</g>
<!-- Node23&#45;&gt;Node16 -->
<g id="edge31" class="edge">
<title>Node23&#45;&gt;Node16</title>
<path fill="none" stroke="midnightblue" d="M350.96,-224.44C312.96,-216.69 264.82,-204.04 252.96,-188 218.07,-140.83 212.21,-98.21 252.96,-56 297.43,-9.94 1301.97,-10.37 1495.77,-10.89"/>
<polygon fill="midnightblue" stroke="midnightblue" points="1495.87,-14.39 1505.88,-10.92 1495.89,-7.39 1495.87,-14.39"/>
</g>
<!-- Node23&#45;&gt;Node19 -->
<g id="edge36" class="edge">
<title>Node23&#45;&gt;Node19</title>
<path fill="none" stroke="midnightblue" d="M419.29,-224.44C439.28,-215.6 470.7,-201.69 493.52,-191.59"/>
<polygon fill="midnightblue" stroke="midnightblue" points="494.99,-194.76 502.72,-187.52 492.16,-188.36 494.99,-194.76"/>
</g>
<!-- Node24 -->
<g id="node24" class="node">
<title>Node24</title>
<g id="a_node24"><a xlink:title=" ">
<polygon fill="none" stroke="#bfbfbf" points="96.46,-168.5 96.46,-187.5 143.46,-187.5 143.46,-168.5 96.46,-168.5"/>
<text text-anchor="middle" x="119.96" y="-175.5" font-family="Helvetica,sans-Serif" font-size="10.00">cmath</text>
</a>
</g>
</g>
<!-- Node23&#45;&gt;Node24 -->
<g id="edge30" class="edge">
<title>Node23&#45;&gt;Node24</title>
<path fill="none" stroke="midnightblue" d="M348.61,-224.97C300.62,-217.16 226.8,-204.4 153.55,-187.97"/>
<polygon fill="midnightblue" stroke="midnightblue" points="154.22,-184.53 143.69,-185.73 152.67,-191.36 154.22,-184.53"/>
</g>
<!-- Node25 -->
<g id="node25" class="node">
<title>Node25</title>
<g id="a_node25"><a xlink:title=" ">
<polygon fill="none" stroke="#bfbfbf" points="261.96,-56.5 261.96,-75.5 317.96,-75.5 317.96,-56.5 261.96,-56.5"/>
<text text-anchor="middle" x="289.96" y="-63.5" font-family="Helvetica,sans-Serif" font-size="10.00">optional</text>
</a>
</g>
</g>
<!-- Node23&#45;&gt;Node25 -->
<g id="edge32" class="edge">
<title>Node23&#45;&gt;Node25</title>
<path fill="none" stroke="midnightblue" d="M348.73,-225.74C260.1,-213.17 87.49,-188.62 86.96,-188 34.59,-127.56 179.65,-89.01 251.85,-74.06"/>
<polygon fill="midnightblue" stroke="midnightblue" points="252.84,-77.43 261.95,-72.02 251.45,-70.57 252.84,-77.43"/>
</g>
<!-- Node26&#45;&gt;Node3 -->
<g id="edge46" class="edge">
<title>Node26&#45;&gt;Node3</title>
<path fill="none" stroke="midnightblue" d="M1562.02,-233.07C1681.86,-232.98 2088.37,-229.6 2126.96,-188 2133,-181.48 2132.73,-174.76 2126.96,-168 2047.51,-75.03 1641.31,-67.13 1520.74,-66.86"/>
<polygon fill="midnightblue" stroke="midnightblue" points="1520.62,-63.36 1510.62,-66.85 1520.62,-70.36 1520.62,-63.36"/>
</g>
<!-- Node26&#45;&gt;Node5 -->
<g id="edge38" class="edge">
<title>Node26&#45;&gt;Node5</title>
<path fill="none" stroke="midnightblue" d="M1561.97,-228.85C1611.77,-221.37 1696.97,-203.02 1663.96,-168 1638.52,-141.01 1074.16,-126.79 934.17,-123.66"/>
<polygon fill="midnightblue" stroke="midnightblue" points="934.18,-120.16 924.11,-123.44 934.03,-127.16 934.18,-120.16"/>
</g>
<!-- Node26&#45;&gt;Node6 -->
<g id="edge39" class="edge">
<title>Node26&#45;&gt;Node6</title>
<path fill="none" stroke="midnightblue" d="M1495.91,-228.39C1448.11,-221.49 1356.74,-207.39 1269.1,-187.81"/>
<polygon fill="midnightblue" stroke="midnightblue" points="1269.79,-184.38 1259.26,-185.59 1268.25,-191.21 1269.79,-184.38"/>
</g>
<!-- Node26&#45;&gt;Node7 -->
<g id="edge40" class="edge">
<title>Node26&#45;&gt;Node7</title>
<path fill="none" stroke="midnightblue" d="M1562.08,-225.22C1600.63,-214.73 1656.03,-194.29 1630.96,-168 1574.59,-108.89 994.23,-142.88 873.8,-131.38"/>
<polygon fill="midnightblue" stroke="midnightblue" points="873.97,-127.87 863.62,-130.12 873.11,-134.82 873.97,-127.87"/>
</g>
<!-- Node26&#45;&gt;Node8 -->
<g id="edge42" class="edge">
<title>Node26&#45;&gt;Node8</title>
<path fill="none" stroke="midnightblue" d="M1508.84,-224.44C1487.93,-215.56 1455.02,-201.56 1431.24,-191.45"/>
<polygon fill="midnightblue" stroke="midnightblue" points="1432.56,-188.21 1421.99,-187.52 1429.82,-194.65 1432.56,-188.21"/>
</g>
<!-- Node26&#45;&gt;Node9 -->
<g id="edge45" class="edge">
<title>Node26&#45;&gt;Node9</title>
<path fill="none" stroke="midnightblue" d="M1521.2,-224.08C1514.42,-216.3 1504.42,-204.8 1496.2,-195.37"/>
<polygon fill="midnightblue" stroke="midnightblue" points="1498.78,-193 1489.58,-187.75 1493.5,-197.59 1498.78,-193"/>
</g>
<!-- Node26&#45;&gt;Node11 -->
<g id="edge47" class="edge">
<title>Node26&#45;&gt;Node11</title>
<path fill="none" stroke="midnightblue" d="M1495.68,-224.56C1459,-215.26 1399.88,-200.28 1359.54,-190.05"/>
<polygon fill="midnightblue" stroke="midnightblue" points="1360.26,-186.62 1349.71,-187.56 1358.54,-193.41 1360.26,-186.62"/>
</g>
<!-- Node26&#45;&gt;Node14 -->
<g id="edge48" class="edge">
<title>Node26&#45;&gt;Node14</title>
<path fill="none" stroke="midnightblue" d="M1495.73,-229.49C1427.49,-222.24 1266.37,-204.99 1119.62,-188.06"/>
<polygon fill="midnightblue" stroke="midnightblue" points="1119.86,-184.57 1109.53,-186.9 1119.06,-191.52 1119.86,-184.57"/>
</g>
<!-- Node26&#45;&gt;Node15 -->
<g id="edge49" class="edge">
<title>Node26&#45;&gt;Node15</title>
<path fill="none" stroke="midnightblue" d="M1495.81,-232.43C1365.85,-230.02 878.69,-219.3 478.96,-188 467.04,-187.07 454.14,-185.73 442.29,-184.38"/>
<polygon fill="midnightblue" stroke="midnightblue" points="442.54,-180.89 432.2,-183.19 441.72,-187.84 442.54,-180.89"/>
</g>
<!-- Node26&#45;&gt;Node16 -->
<g id="edge41" class="edge">
<title>Node26&#45;&gt;Node16</title>
<path fill="none" stroke="midnightblue" d="M1562.2,-232.31C1696.7,-229.31 2196.5,-216.37 2260.96,-188 2332.44,-156.54 2430.7,-112.67 2376.96,-56 2348.35,-25.83 1712.28,-13.91 1560.34,-11.48"/>
<polygon fill="midnightblue" stroke="midnightblue" points="1560.31,-7.98 1550.25,-11.33 1560.2,-14.98 1560.31,-7.98"/>
</g>
<!-- Node26&#45;&gt;Node18 -->
<g id="edge59" class="edge">
<title>Node26&#45;&gt;Node18</title>
<path fill="none" stroke="midnightblue" d="M1536.88,-224.08C1543.8,-216.3 1554.02,-204.8 1562.41,-195.37"/>
<polygon fill="midnightblue" stroke="midnightblue" points="1565.15,-197.55 1569.18,-187.75 1559.92,-192.9 1565.15,-197.55"/>
</g>
<!-- Node26&#45;&gt;Node19 -->
<g id="edge60" class="edge">
<title>Node26&#45;&gt;Node19</title>
<path fill="none" stroke="midnightblue" d="M1495.73,-232.11C1375.54,-228.75 952.17,-215.55 603.96,-188 591.69,-187.03 578.42,-185.7 566.2,-184.35"/>
<polygon fill="midnightblue" stroke="midnightblue" points="566.55,-180.87 556.23,-183.23 565.77,-187.83 566.55,-180.87"/>
</g>
<!-- Node26&#45;&gt;Node20 -->
<g id="edge72" class="edge">
<title>Node26&#45;&gt;Node20</title>
<path fill="none" stroke="midnightblue" d="M1495.84,-229.09C1438.93,-222.22 1318.74,-207.04 1206.63,-188.01"/>
<polygon fill="midnightblue" stroke="midnightblue" points="1206.95,-184.52 1196.51,-186.28 1205.77,-191.42 1206.95,-184.52"/>
</g>
<!-- Node26&#45;&gt;Node25 -->
<g id="edge43" class="edge">
<title>Node26&#45;&gt;Node25</title>
<path fill="none" stroke="midnightblue" d="M1562.35,-230.46C1616.92,-225.07 1715.79,-209.39 1680.96,-168 1587.15,-56.52 1502.88,-127.02 1357.96,-112 905.24,-65.07 782.97,-137.43 328.25,-75.86"/>
<polygon fill="midnightblue" stroke="midnightblue" points="328.51,-72.37 318.13,-74.48 327.56,-79.3 328.51,-72.37"/>
</g>
<!-- Node27 -->
<g id="node27" class="node">
<title>Node27</title>
<g id="a_node27"><a xlink:title=" ">
<polygon fill="none" stroke="#bfbfbf" points="1754.46,-168.5 1754.46,-187.5 1801.46,-187.5 1801.46,-168.5 1754.46,-168.5"/>
<text text-anchor="middle" x="1777.96" y="-175.5" font-family="Helvetica,sans-Serif" font-size="10.00">queue</text>
</a>
</g>
</g>
<!-- Node26&#45;&gt;Node27 -->
<g id="edge44" class="edge">
<title>Node26&#45;&gt;Node27</title>
<path fill="none" stroke="midnightblue" d="M1562.26,-226.14C1603.89,-217.51 1677.29,-202.1 1739.96,-188 1741.41,-187.67 1742.88,-187.34 1744.37,-187"/>
<polygon fill="midnightblue" stroke="midnightblue" points="1745.31,-190.37 1754.26,-184.7 1743.73,-183.55 1745.31,-190.37"/>
</g>
<!-- Node28 -->
<g id="node28" class="node">
<title>Node28</title>
<g id="a_node28"><a xlink:href="instruction_8h.html" target="_top" xlink:title=" ">
<polygon fill="none" stroke="black" points="2174.46,-168.5 2174.46,-187.5 2251.46,-187.5 2251.46,-168.5 2174.46,-168.5"/>
<text text-anchor="middle" x="2212.96" y="-175.5" font-family="Helvetica,sans-Serif" font-size="10.00">instruction.h</text>
</a>
</g>
</g>
<!-- Node26&#45;&gt;Node28 -->
<g id="edge50" class="edge">
<title>Node26&#45;&gt;Node28</title>
<path fill="none" stroke="midnightblue" d="M1562.25,-231.76C1656.37,-228.03 1932.34,-215.38 2159.96,-188 2161.26,-187.84 2162.58,-187.68 2163.91,-187.5"/>
<polygon fill="midnightblue" stroke="midnightblue" points="2164.83,-190.91 2174.23,-186.02 2163.84,-183.98 2164.83,-190.91"/>
</g>
<!-- Node31 -->
<g id="node31" class="node">
<title>Node31</title>
<g id="a_node31"><a xlink:href="util_2lru__table_8h.html" target="_top" xlink:title=" ">
<polygon fill="none" stroke="black" points="262.46,-168.5 262.46,-187.5 349.46,-187.5 349.46,-168.5 262.46,-168.5"/>
<text text-anchor="middle" x="305.96" y="-175.5" font-family="Helvetica,sans-Serif" font-size="10.00">util/lru_table.h</text>
</a>
</g>
</g>
<!-- Node26&#45;&gt;Node31 -->
<g id="edge61" class="edge">
<title>Node26&#45;&gt;Node31</title>
<path fill="none" stroke="midnightblue" d="M1495.88,-232.31C1332.34,-228.8 608.49,-212.24 359.64,-187.88"/>
<polygon fill="midnightblue" stroke="midnightblue" points="359.87,-184.39 349.57,-186.87 359.17,-191.35 359.87,-184.39"/>
</g>
<!-- Node36 -->
<g id="node36" class="node">
<title>Node36</title>
<g id="a_node36"><a xlink:title=" ">
<polygon fill="none" stroke="#bfbfbf" points="1819.96,-168.5 1819.96,-187.5 1961.96,-187.5 1961.96,-168.5 1819.96,-168.5"/>
<text text-anchor="middle" x="1890.96" y="-175.5" font-family="Helvetica,sans-Serif" font-size="10.00">ooo_cpu_module_decl.inc</text>
</a>
</g>
</g>
<!-- Node26&#45;&gt;Node36 -->
<g id="edge73" class="edge">
<title>Node26&#45;&gt;Node36</title>
<path fill="none" stroke="midnightblue" d="M1562.04,-228.06C1621.18,-219.24 1746.07,-200.61 1823.8,-189.02"/>
<polygon fill="midnightblue" stroke="midnightblue" points="1824.6,-192.44 1833.97,-187.5 1823.57,-185.51 1824.6,-192.44"/>
</g>
<!-- Node37 -->
<g id="node37" class="node">
<title>Node37</title>
<g id="a_node37"><a xlink:title=" ">
<polygon fill="none" stroke="#bfbfbf" points="1980.46,-168.5 1980.46,-187.5 2117.46,-187.5 2117.46,-168.5 1980.46,-168.5"/>
<text text-anchor="middle" x="2048.96" y="-175.5" font-family="Helvetica,sans-Serif" font-size="10.00">ooo_cpu_module_def.inc</text>
</a>
</g>
</g>
<!-- Node26&#45;&gt;Node37 -->
<g id="edge74" class="edge">
<title>Node26&#45;&gt;Node37</title>
<path fill="none" stroke="midnightblue" d="M1561.97,-229.79C1633.96,-222.76 1810.72,-205.33 1970.08,-188.08"/>
<polygon fill="midnightblue" stroke="midnightblue" points="1970.5,-191.56 1980.06,-187 1969.74,-184.6 1970.5,-191.56"/>
</g>
<!-- Node28&#45;&gt;Node2 -->
<g id="edge54" class="edge">
<title>Node28&#45;&gt;Node2</title>
<path fill="none" stroke="midnightblue" d="M2174.05,-172.29C2159.32,-170.67 2142.39,-169.02 2126.96,-168 1541.79,-129.45 1393.95,-154.98 807.96,-132 762.46,-130.22 710.39,-127.47 674.76,-125.47"/>
<polygon fill="midnightblue" stroke="midnightblue" points="674.89,-121.98 664.71,-124.91 674.5,-128.96 674.89,-121.98"/>
</g>
<!-- Node28&#45;&gt;Node3 -->
<g id="edge56" class="edge">
<title>Node28&#45;&gt;Node3</title>
<path fill="none" stroke="midnightblue" d="M2198.84,-168.3C2172.32,-152.11 2115.75,-118.43 2093.96,-112 1985.21,-79.91 1632.22,-70 1520.91,-67.63"/>
<polygon fill="midnightblue" stroke="midnightblue" points="1520.68,-64.13 1510.61,-67.42 1520.54,-71.13 1520.68,-64.13"/>
</g>
<!-- Node28&#45;&gt;Node5 -->
<g id="edge52" class="edge">
<title>Node28&#45;&gt;Node5</title>
<path fill="none" stroke="midnightblue" d="M2174.05,-172.37C2159.32,-170.76 2142.38,-169.09 2126.96,-168 1884.89,-150.9 1101.53,-128.52 934.48,-123.87"/>
<polygon fill="midnightblue" stroke="midnightblue" points="934.47,-120.37 924.38,-123.59 934.28,-127.37 934.47,-120.37"/>
</g>
<!-- Node28&#45;&gt;Node12 -->
<g id="edge53" class="edge">
<title>Node28&#45;&gt;Node12</title>
<path fill="none" stroke="midnightblue" d="M2205.04,-168.37C2191.08,-153.8 2160.49,-124.71 2127.96,-112 1981.42,-54.77 821.29,-18.4 602.48,-12.01"/>
<polygon fill="midnightblue" stroke="midnightblue" points="602.31,-8.5 592.22,-11.71 602.11,-15.5 602.31,-8.5"/>
</g>
<!-- Node28&#45;&gt;Node16 -->
<g id="edge55" class="edge">
<title>Node28&#45;&gt;Node16</title>
<path fill="none" stroke="midnightblue" d="M2216.03,-168.18C2223.16,-145.88 2238.06,-86.85 2207.96,-56 2162.3,-9.2 1688.55,-9.67 1559.99,-10.67"/>
<polygon fill="midnightblue" stroke="midnightblue" points="1559.96,-7.17 1549.99,-10.75 1560.01,-14.17 1559.96,-7.17"/>
</g>
<!-- Node29 -->
<g id="node29" class="node">
<title>Node29</title>
<g id="a_node29"><a xlink:title=" ">
<polygon fill="none" stroke="#bfbfbf" points="668.96,-56.5 668.96,-75.5 732.96,-75.5 732.96,-56.5 668.96,-56.5"/>
<text text-anchor="middle" x="700.96" y="-63.5" font-family="Helvetica,sans-Serif" font-size="10.00">algorithm</text>
</a>
</g>
</g>
<!-- Node28&#45;&gt;Node29 -->
<g id="edge51" class="edge">
<title>Node28&#45;&gt;Node29</title>
<path fill="none" stroke="midnightblue" d="M2174.16,-170.42C2093.56,-157.02 1901.97,-126.61 1739.96,-112 1354.01,-77.2 884.9,-69.12 743.35,-67.42"/>
<polygon fill="midnightblue" stroke="midnightblue" points="743.39,-63.92 733.35,-67.3 743.31,-70.92 743.39,-63.92"/>
</g>
<!-- Node30 -->
<g id="node30" class="node">
<title>Node30</title>
<g id="a_node30"><a xlink:href="trace__instruction_8h.html" target="_top" xlink:title=" ">
<polygon fill="none" stroke="black" points="2260.46,-56.5 2260.46,-75.5 2367.46,-75.5 2367.46,-56.5 2260.46,-56.5"/>
<text text-anchor="middle" x="2313.96" y="-63.5" font-family="Helvetica,sans-Serif" font-size="10.00">trace_instruction.h</text>
</a>
</g>
</g>
<!-- Node28&#45;&gt;Node30 -->
<g id="edge57" class="edge">
<title>Node28&#45;&gt;Node30</title>
<path fill="none" stroke="midnightblue" d="M2220.88,-168.37C2237.77,-149.97 2277.53,-106.67 2299.22,-83.05"/>
<polygon fill="midnightblue" stroke="midnightblue" points="2301.88,-85.32 2306.07,-75.59 2296.73,-80.59 2301.88,-85.32"/>
</g>
<!-- Node30&#45;&gt;Node16 -->
<g id="edge58" class="edge">
<title>Node30&#45;&gt;Node16</title>
<path fill="none" stroke="midnightblue" d="M2260.18,-57.53C2255.37,-56.97 2250.58,-56.45 2245.96,-56 1981.79,-30.27 1661.44,-16.25 1560.22,-12.23"/>
<polygon fill="midnightblue" stroke="midnightblue" points="1560.17,-8.72 1550.04,-11.83 1559.89,-15.72 1560.17,-8.72"/>
</g>
<!-- Node32 -->
<g id="node32" class="node">
<title>Node32</title>
<g id="a_node32"><a xlink:href="msl_2lru__table_8h.html" target="_top" xlink:title=" ">
<polygon fill="none" stroke="black" points="340.46,-112.5 340.46,-131.5 429.46,-131.5 429.46,-112.5 340.46,-112.5"/>
<text text-anchor="middle" x="384.96" y="-119.5" font-family="Helvetica,sans-Serif" font-size="10.00">msl/lru_table.h</text>
</a>
</g>
</g>
<!-- Node31&#45;&gt;Node32 -->
<g id="edge62" class="edge">
<title>Node31&#45;&gt;Node32</title>
<path fill="none" stroke="midnightblue" d="M318.65,-168.32C330.86,-159.98 349.54,-147.21 363.96,-137.35"/>
<polygon fill="midnightblue" stroke="midnightblue" points="366.02,-140.19 372.3,-131.65 362.07,-134.41 366.02,-140.19"/>
</g>
<!-- Node32&#45;&gt;Node3 -->
<g id="edge68" class="edge">
<title>Node32&#45;&gt;Node3</title>
<path fill="none" stroke="midnightblue" d="M429.72,-117.16C450.99,-115.42 476.77,-113.44 499.96,-112 873.43,-88.88 1327.08,-72.49 1453.09,-68.14"/>
<polygon fill="midnightblue" stroke="midnightblue" points="1453.39,-71.64 1463.26,-67.8 1453.15,-64.64 1453.39,-71.64"/>
</g>
<!-- Node32&#45;&gt;Node12 -->
<g id="edge65" class="edge">
<title>Node32&#45;&gt;Node12</title>
<path fill="none" stroke="midnightblue" d="M340.22,-114.96C291.66,-106.6 224.6,-88.72 252.96,-56 288.72,-14.75 457.4,-10.4 531.69,-10.54"/>
<polygon fill="midnightblue" stroke="midnightblue" points="531.92,-14.04 541.94,-10.59 531.95,-7.04 531.92,-14.04"/>
</g>
<!-- Node32&#45;&gt;Node25 -->
<g id="edge66" class="edge">
<title>Node32&#45;&gt;Node25</title>
<path fill="none" stroke="midnightblue" d="M369.7,-112.32C354.74,-103.82 331.7,-90.73 314.23,-80.8"/>
<polygon fill="midnightblue" stroke="midnightblue" points="315.61,-77.55 305.18,-75.65 312.15,-83.64 315.61,-77.55"/>
</g>
<!-- Node32&#45;&gt;Node29 -->
<g id="edge63" class="edge">
<title>Node32&#45;&gt;Node29</title>
<path fill="none" stroke="midnightblue" d="M429.56,-113.38C490.39,-102.98 598.61,-84.49 658.37,-74.28"/>
<polygon fill="midnightblue" stroke="midnightblue" points="659.32,-77.67 668.59,-72.53 658.14,-70.77 659.32,-77.67"/>
</g>
<!-- Node33 -->
<g id="node33" class="node">
<title>Node33</title>
<g id="a_node33"><a xlink:title=" ">
<polygon fill="none" stroke="#bfbfbf" points="335.96,-56.5 335.96,-75.5 387.96,-75.5 387.96,-56.5 335.96,-56.5"/>
<text text-anchor="middle" x="361.96" y="-63.5" font-family="Helvetica,sans-Serif" font-size="10.00">cassert</text>
</a>
</g>
</g>
<!-- Node32&#45;&gt;Node33 -->
<g id="edge64" class="edge">
<title>Node32&#45;&gt;Node33</title>
<path fill="none" stroke="midnightblue" d="M381.16,-112.08C378.05,-104.77 373.54,-94.18 369.67,-85.1"/>
<polygon fill="midnightblue" stroke="midnightblue" points="372.82,-83.58 365.69,-75.75 366.38,-86.32 372.82,-83.58"/>
</g>
<!-- Node34 -->
<g id="node34" class="node">
<title>Node34</title>
<g id="a_node34"><a xlink:title=" ">
<polygon fill="none" stroke="#bfbfbf" points="406.46,-56.5 406.46,-75.5 451.46,-75.5 451.46,-56.5 406.46,-56.5"/>
<text text-anchor="middle" x="428.96" y="-63.5" font-family="Helvetica,sans-Serif" font-size="10.00">utility</text>
</a>
</g>
</g>
<!-- Node32&#45;&gt;Node34 -->
<g id="edge67" class="edge">
<title>Node32&#45;&gt;Node34</title>
<path fill="none" stroke="midnightblue" d="M392.22,-112.08C398.5,-104.38 407.75,-93.03 415.39,-83.65"/>
<polygon fill="midnightblue" stroke="midnightblue" points="418.22,-85.71 421.83,-75.75 412.8,-81.29 418.22,-85.71"/>
</g>
<!-- Node35 -->
<g id="node35" class="node">
<title>Node35</title>
<g id="a_node35"><a xlink:href="msl_2bits_8h.html" target="_top" xlink:title=" ">
<polygon fill="none" stroke="black" points="534.46,-56.5 534.46,-75.5 599.46,-75.5 599.46,-56.5 534.46,-56.5"/>
<text text-anchor="middle" x="566.96" y="-63.5" font-family="Helvetica,sans-Serif" font-size="10.00">msl/bits.h</text>
</a>
</g>
</g>
<!-- Node32&#45;&gt;Node35 -->
<g id="edge69" class="edge">
<title>Node32&#45;&gt;Node35</title>
<path fill="none" stroke="midnightblue" d="M413.8,-112.44C444.81,-103.24 494.29,-88.56 528.58,-78.39"/>
<polygon fill="midnightblue" stroke="midnightblue" points="529.66,-81.72 538.26,-75.52 527.67,-75.01 529.66,-81.72"/>
</g>
<!-- Node35&#45;&gt;Node12 -->
<g id="edge70" class="edge">
<title>Node35&#45;&gt;Node12</title>
<path fill="none" stroke="midnightblue" d="M566.96,-56.08C566.96,-49.01 566.96,-38.86 566.96,-29.99"/>
<polygon fill="midnightblue" stroke="midnightblue" points="570.46,-29.75 566.96,-19.75 563.46,-29.75 570.46,-29.75"/>
</g>
<!-- Node35&#45;&gt;Node16 -->
<g id="edge71" class="edge">
<title>Node35&#45;&gt;Node16</title>
<path fill="none" stroke="midnightblue" d="M599.64,-61.48C617.45,-59.65 639.9,-57.49 659.96,-56 985.78,-31.8 1381.36,-16.35 1495.63,-12.15"/>
<polygon fill="midnightblue" stroke="midnightblue" points="1495.94,-15.65 1505.8,-11.78 1495.68,-8.65 1495.94,-15.65"/>
</g>
<!-- Node38&#45;&gt;Node5 -->
<g id="edge77" class="edge">
<title>Node38&#45;&gt;Node5</title>
<path fill="none" stroke="midnightblue" d="M284.1,-233.29C218.07,-233.5 28.74,-228.94 86.96,-168 115.88,-137.72 771.21,-139.15 871.87,-131.16"/>
<polygon fill="midnightblue" stroke="midnightblue" points="872.26,-134.63 881.81,-130.05 871.48,-127.68 872.26,-134.63"/>
</g>
<!-- Node38&#45;&gt;Node7 -->
<g id="edge78" class="edge">
<title>Node38&#45;&gt;Node7</title>
<path fill="none" stroke="midnightblue" d="M284.17,-233.1C222.79,-232.86 50.68,-228.53 15.96,-188 10.18,-181.25 9.85,-174.45 15.96,-168 15.96,-168 650.27,-133.36 805.83,-124.86"/>
<polygon fill="midnightblue" stroke="midnightblue" points="806.39,-128.34 816.19,-124.3 806.01,-121.35 806.39,-128.34"/>
</g>
<!-- Node38&#45;&gt;Node10 -->
<g id="edge79" class="edge">
<title>Node38&#45;&gt;Node10</title>
<path fill="none" stroke="midnightblue" d="M286.63,-224.44C266.64,-215.6 235.22,-201.69 212.39,-191.59"/>
<polygon fill="midnightblue" stroke="midnightblue" points="213.76,-188.36 203.2,-187.52 210.93,-194.76 213.76,-188.36"/>
</g>
<!-- Node38&#45;&gt;Node15 -->
<g id="edge80" class="edge">
<title>Node38&#45;&gt;Node15</title>
<path fill="none" stroke="midnightblue" d="M321.06,-224.32C335.86,-215.82 358.65,-202.73 375.94,-192.8"/>
<polygon fill="midnightblue" stroke="midnightblue" points="377.97,-195.67 384.89,-187.65 374.48,-189.6 377.97,-195.67"/>
</g>
<!-- Node38&#45;&gt;Node19 -->
<g id="edge81" class="edge">
<title>Node38&#45;&gt;Node19</title>
<path fill="none" stroke="midnightblue" d="M327.53,-227.23C331.65,-226.15 335.94,-225.03 339.96,-224 386.94,-211.97 440.88,-198.7 477.77,-189.71"/>
<polygon fill="midnightblue" stroke="midnightblue" points="478.81,-193.06 487.7,-187.29 477.16,-186.26 478.81,-193.06"/>
</g>
<!-- Node38&#45;&gt;Node31 -->
<g id="edge82" class="edge">
<title>Node38&#45;&gt;Node31</title>
<path fill="none" stroke="midnightblue" d="M305.96,-224.08C305.96,-217.01 305.96,-206.86 305.96,-197.99"/>
<polygon fill="midnightblue" stroke="midnightblue" points="309.46,-197.75 305.96,-187.75 302.46,-197.75 309.46,-197.75"/>
</g>
</g>
</svg>
