<?xml version="1.0" encoding="UTF-8" standalone="no"?>
<!DOCTYPE svg PUBLIC "-//W3C//DTD SVG 1.1//EN"
 "http://www.w3.org/Graphics/SVG/1.1/DTD/svg11.dtd">
<!-- Generated by graphviz version 2.43.0 (0)
 -->
<!-- Title: inc/msl/fwcounter.h Pages: 1 -->
<svg width="841pt" height="84pt"
 viewBox="0.00 0.00 840.50 84.00" xmlns="http://www.w3.org/2000/svg" xmlns:xlink="http://www.w3.org/1999/xlink">
<g id="graph0" class="graph" transform="scale(1 1) rotate(0) translate(4 80)">
<title>inc/msl/fwcounter.h</title>
<!-- Node1 -->
<g id="node1" class="node">
<title>Node1</title>
<g id="a_node1"><a xlink:title=" ">
<polygon fill="#bfbfbf" stroke="black" points="352,-56.5 352,-75.5 463,-75.5 463,-56.5 352,-56.5"/>
<text text-anchor="middle" x="407.5" y="-63.5" font-family="Helvetica,sans-Serif" font-size="10.00">inc/msl/fwcounter.h</text>
</a>
</g>
</g>
<!-- Node2 -->
<g id="node2" class="node">
<title>Node2</title>
<g id="a_node2"><a xlink:href="bimodal_8cc.html" target="_top" xlink:title=" ">
<polygon fill="none" stroke="black" points="0,-0.5 0,-19.5 149,-19.5 149,-0.5 0,-0.5"/>
<text text-anchor="middle" x="74.5" y="-7.5" font-family="Helvetica,sans-Serif" font-size="10.00">branch/bimodal/bimodal.cc</text>
</a>
</g>
</g>
<!-- Node1&#45;&gt;Node2 -->
<g id="edge1" class="edge">
<title>Node1&#45;&gt;Node2</title>
<path fill="none" stroke="midnightblue" d="M344.54,-54.79C281.62,-44.59 185.98,-29.08 127.02,-19.52"/>
<polygon fill="midnightblue" stroke="midnightblue" points="344.3,-58.3 354.74,-56.44 345.42,-51.39 344.3,-58.3"/>
</g>
<!-- Node3 -->
<g id="node3" class="node">
<title>Node3</title>
<g id="a_node3"><a xlink:href="gshare_8cc.html" target="_top" xlink:title=" ">
<polygon fill="none" stroke="black" points="167,-0.5 167,-19.5 302,-19.5 302,-0.5 167,-0.5"/>
<text text-anchor="middle" x="234.5" y="-7.5" font-family="Helvetica,sans-Serif" font-size="10.00">branch/gshare/gshare.cc</text>
</a>
</g>
</g>
<!-- Node1&#45;&gt;Node3 -->
<g id="edge2" class="edge">
<title>Node1&#45;&gt;Node3</title>
<path fill="none" stroke="midnightblue" d="M370.45,-53.44C337.84,-43.26 291.09,-28.66 261.78,-19.52"/>
<polygon fill="midnightblue" stroke="midnightblue" points="369.5,-56.8 380.09,-56.44 371.58,-50.12 369.5,-56.8"/>
</g>
<!-- Node4 -->
<g id="node4" class="node">
<title>Node4</title>
<g id="a_node4"><a xlink:href="perceptron_8cc.html" target="_top" xlink:title=" ">
<polygon fill="none" stroke="black" points="320.5,-0.5 320.5,-19.5 494.5,-19.5 494.5,-0.5 320.5,-0.5"/>
<text text-anchor="middle" x="407.5" y="-7.5" font-family="Helvetica,sans-Serif" font-size="10.00">branch/perceptron/perceptron.cc</text>
</a>
</g>
</g>
<!-- Node1&#45;&gt;Node4 -->
<g id="edge3" class="edge">
<title>Node1&#45;&gt;Node4</title>
<path fill="none" stroke="midnightblue" d="M407.5,-45.8C407.5,-36.91 407.5,-26.78 407.5,-19.75"/>
<polygon fill="midnightblue" stroke="midnightblue" points="404,-46.08 407.5,-56.08 411,-46.08 404,-46.08"/>
</g>
<!-- Node5 -->
<g id="node5" class="node">
<title>Node5</title>
<g id="a_node5"><a xlink:href="drrip_8cc.html" target="_top" xlink:title=" ">
<polygon fill="none" stroke="black" points="513,-0.5 513,-19.5 656,-19.5 656,-0.5 513,-0.5"/>
<text text-anchor="middle" x="584.5" y="-7.5" font-family="Helvetica,sans-Serif" font-size="10.00">replacement/drrip/drrip.cc</text>
</a>
</g>
</g>
<!-- Node1&#45;&gt;Node5 -->
<g id="edge4" class="edge">
<title>Node1&#45;&gt;Node5</title>
<path fill="none" stroke="midnightblue" d="M445.4,-53.44C478.78,-43.26 526.6,-28.66 556.59,-19.52"/>
<polygon fill="midnightblue" stroke="midnightblue" points="444.09,-50.18 435.55,-56.44 446.13,-56.87 444.09,-50.18"/>
</g>
<!-- Node6 -->
<g id="node6" class="node">
<title>Node6</title>
<g id="a_node6"><a xlink:href="043-fwcounter_8cc.html" target="_top" xlink:title=" ">
<polygon fill="none" stroke="black" points="674.5,-0.5 674.5,-19.5 832.5,-19.5 832.5,-0.5 674.5,-0.5"/>
<text text-anchor="middle" x="753.5" y="-7.5" font-family="Helvetica,sans-Serif" font-size="10.00">test/cpp/src/043&#45;fwcounter.cc</text>
</a>
</g>
</g>
<!-- Node1&#45;&gt;Node6 -->
<g id="edge5" class="edge">
<title>Node1&#45;&gt;Node6</title>
<path fill="none" stroke="midnightblue" d="M472.51,-54.85C537.88,-44.65 637.54,-29.1 698.93,-19.52"/>
<polygon fill="midnightblue" stroke="midnightblue" points="471.67,-51.44 462.32,-56.44 472.74,-58.36 471.67,-51.44"/>
</g>
</g>
</svg>
