<?xml version="1.0" encoding="UTF-8" standalone="no"?>
<!DOCTYPE svg PUBLIC "-//W3C//DTD SVG 1.1//EN"
 "http://www.w3.org/Graphics/SVG/1.1/DTD/svg11.dtd">
<!-- Generated by graphviz version 2.43.0 (0)
 -->
<!-- Title: branch/gshare/gshare.cc Pages: 1 -->
<svg width="1733pt" height="308pt"
 viewBox="0.00 0.00 1733.00 308.00" xmlns="http://www.w3.org/2000/svg" xmlns:xlink="http://www.w3.org/1999/xlink">
<g id="graph0" class="graph" transform="scale(1 1) rotate(0) translate(4 304)">
<title>branch/gshare/gshare.cc</title>
<!-- Node1 -->
<g id="node1" class="node">
<title>Node1</title>
<g id="a_node1"><a xlink:title=" ">
<polygon fill="#bfbfbf" stroke="black" points="530.5,-280.5 530.5,-299.5 665.5,-299.5 665.5,-280.5 530.5,-280.5"/>
<text text-anchor="middle" x="598" y="-287.5" font-family="Helvetica,sans-Serif" font-size="10.00">branch/gshare/gshare.cc</text>
</a>
</g>
</g>
<!-- Node2 -->
<g id="node2" class="node">
<title>Node2</title>
<g id="a_node2"><a xlink:title=" ">
<polygon fill="none" stroke="#bfbfbf" points="29,-56.5 29,-75.5 93,-75.5 93,-56.5 29,-56.5"/>
<text text-anchor="middle" x="61" y="-63.5" font-family="Helvetica,sans-Serif" font-size="10.00">algorithm</text>
</a>
</g>
</g>
<!-- Node1&#45;&gt;Node2 -->
<g id="edge1" class="edge">
<title>Node1&#45;&gt;Node2</title>
<path fill="none" stroke="midnightblue" d="M530.12,-280.76C418.51,-266.12 202.45,-232.85 141,-188 104.17,-161.12 79.42,-111.74 68.09,-85.13"/>
<polygon fill="midnightblue" stroke="midnightblue" points="71.19,-83.48 64.17,-75.54 64.71,-86.13 71.19,-83.48"/>
</g>
<!-- Node3 -->
<g id="node3" class="node">
<title>Node3</title>
<g id="a_node3"><a xlink:title=" ">
<polygon fill="none" stroke="#bfbfbf" points="1234,-56.5 1234,-75.5 1276,-75.5 1276,-56.5 1234,-56.5"/>
<text text-anchor="middle" x="1255" y="-63.5" font-family="Helvetica,sans-Serif" font-size="10.00">array</text>
</a>
</g>
</g>
<!-- Node1&#45;&gt;Node3 -->
<g id="edge2" class="edge">
<title>Node1&#45;&gt;Node3</title>
<path fill="none" stroke="midnightblue" d="M665.55,-286.56C866.2,-278.62 1448.2,-250.36 1504,-188 1549.26,-137.41 1525.48,-161.67 1412,-112 1358.65,-88.65 1341.97,-92.12 1286,-76 1285.9,-75.97 1285.8,-75.94 1285.7,-75.91"/>
<polygon fill="midnightblue" stroke="midnightblue" points="1286.59,-72.53 1276.01,-73.11 1284.64,-79.25 1286.59,-72.53"/>
</g>
<!-- Node4 -->
<g id="node4" class="node">
<title>Node4</title>
<g id="a_node4"><a xlink:title=" ">
<polygon fill="none" stroke="#bfbfbf" points="150,-168.5 150,-187.5 194,-187.5 194,-168.5 150,-168.5"/>
<text text-anchor="middle" x="172" y="-175.5" font-family="Helvetica,sans-Serif" font-size="10.00">bitset</text>
</a>
</g>
</g>
<!-- Node1&#45;&gt;Node4 -->
<g id="edge3" class="edge">
<title>Node1&#45;&gt;Node4</title>
<path fill="none" stroke="midnightblue" d="M563.03,-280.46C495.62,-263.91 342.86,-225.99 204.28,-188.29"/>
<polygon fill="midnightblue" stroke="midnightblue" points="204.9,-184.83 194.33,-185.58 203.05,-191.58 204.9,-184.83"/>
</g>
<!-- Node5 -->
<g id="node5" class="node">
<title>Node5</title>
<g id="a_node5"><a xlink:title=" ">
<polygon fill="none" stroke="#bfbfbf" points="1687,-224.5 1687,-243.5 1725,-243.5 1725,-224.5 1687,-224.5"/>
<text text-anchor="middle" x="1706" y="-231.5" font-family="Helvetica,sans-Serif" font-size="10.00">map</text>
</a>
</g>
</g>
<!-- Node1&#45;&gt;Node5 -->
<g id="edge4" class="edge">
<title>Node1&#45;&gt;Node5</title>
<path fill="none" stroke="midnightblue" d="M665.74,-288.15C869.95,-285.28 1477.57,-274.34 1673,-244 1674.29,-243.8 1675.6,-243.57 1676.91,-243.31"/>
<polygon fill="midnightblue" stroke="midnightblue" points="1678.02,-246.65 1686.96,-240.97 1676.43,-239.83 1678.02,-246.65"/>
</g>
<!-- Node6 -->
<g id="node6" class="node">
<title>Node6</title>
<g id="a_node6"><a xlink:href="fwcounter_8h.html" target="_top" xlink:title=" ">
<polygon fill="none" stroke="black" points="0,-224.5 0,-243.5 94,-243.5 94,-224.5 0,-224.5"/>
<text text-anchor="middle" x="47" y="-231.5" font-family="Helvetica,sans-Serif" font-size="10.00">msl/fwcounter.h</text>
</a>
</g>
</g>
<!-- Node1&#45;&gt;Node6 -->
<g id="edge5" class="edge">
<title>Node1&#45;&gt;Node6</title>
<path fill="none" stroke="midnightblue" d="M530.11,-283.95C435.4,-276.64 258.35,-261.98 108,-244 106.74,-243.85 105.47,-243.69 104.2,-243.53"/>
<polygon fill="midnightblue" stroke="midnightblue" points="104.62,-240.06 94.25,-242.23 103.72,-247 104.62,-240.06"/>
</g>
<!-- Node8 -->
<g id="node8" class="node">
<title>Node8</title>
<g id="a_node8"><a xlink:href="ooo__cpu_8h.html" target="_top" xlink:title=" ">
<polygon fill="none" stroke="black" points="726,-224.5 726,-243.5 792,-243.5 792,-224.5 726,-224.5"/>
<text text-anchor="middle" x="759" y="-231.5" font-family="Helvetica,sans-Serif" font-size="10.00">ooo_cpu.h</text>
</a>
</g>
</g>
<!-- Node1&#45;&gt;Node8 -->
<g id="edge8" class="edge">
<title>Node1&#45;&gt;Node8</title>
<path fill="none" stroke="midnightblue" d="M623.51,-280.44C650.6,-271.36 693.59,-256.94 723.87,-246.78"/>
<polygon fill="midnightblue" stroke="midnightblue" points="725.24,-250.01 733.61,-243.52 723.01,-243.38 725.24,-250.01"/>
</g>
<!-- Node6&#45;&gt;Node2 -->
<g id="edge6" class="edge">
<title>Node6&#45;&gt;Node2</title>
<path fill="none" stroke="midnightblue" d="M43.91,-224.17C40.95,-215.2 36.68,-200.83 35,-188 30.16,-151.05 43.81,-108.63 53.12,-85.11"/>
<polygon fill="midnightblue" stroke="midnightblue" points="56.42,-86.3 57.01,-75.72 49.95,-83.62 56.42,-86.3"/>
</g>
<!-- Node7 -->
<g id="node7" class="node">
<title>Node7</title>
<g id="a_node7"><a xlink:title=" ">
<polygon fill="none" stroke="#bfbfbf" points="44.5,-168.5 44.5,-187.5 93.5,-187.5 93.5,-168.5 44.5,-168.5"/>
<text text-anchor="middle" x="69" y="-175.5" font-family="Helvetica,sans-Serif" font-size="10.00">cstdlib</text>
</a>
</g>
</g>
<!-- Node6&#45;&gt;Node7 -->
<g id="edge7" class="edge">
<title>Node6&#45;&gt;Node7</title>
<path fill="none" stroke="midnightblue" d="M50.63,-224.08C53.61,-216.77 57.93,-206.18 61.62,-197.1"/>
<polygon fill="midnightblue" stroke="midnightblue" points="64.9,-198.33 65.43,-187.75 58.42,-195.69 64.9,-198.33"/>
</g>
<!-- Node8&#45;&gt;Node3 -->
<g id="edge9" class="edge">
<title>Node8&#45;&gt;Node3</title>
<path fill="none" stroke="midnightblue" d="M792.41,-232.2C932.18,-228.68 1463.87,-213.67 1488,-188 1494.09,-181.52 1492.88,-175.43 1488,-168 1476.17,-149.98 1346.38,-100.53 1285.81,-78.2"/>
<polygon fill="midnightblue" stroke="midnightblue" points="1286.96,-74.9 1276.36,-74.73 1284.55,-81.47 1286.96,-74.9"/>
</g>
<!-- Node8&#45;&gt;Node4 -->
<g id="edge10" class="edge">
<title>Node8&#45;&gt;Node4</title>
<path fill="none" stroke="midnightblue" d="M725.8,-232.64C640.48,-231.22 406.67,-224.23 204.15,-187.85"/>
<polygon fill="midnightblue" stroke="midnightblue" points="204.69,-184.39 194.22,-186.03 203.43,-191.27 204.69,-184.39"/>
</g>
<!-- Node9 -->
<g id="node9" class="node">
<title>Node9</title>
<g id="a_node9"><a xlink:title=" ">
<polygon fill="none" stroke="#bfbfbf" points="1545.5,-56.5 1545.5,-75.5 1592.5,-75.5 1592.5,-56.5 1545.5,-56.5"/>
<text text-anchor="middle" x="1569" y="-63.5" font-family="Helvetica,sans-Serif" font-size="10.00">deque</text>
</a>
</g>
</g>
<!-- Node8&#45;&gt;Node9 -->
<g id="edge11" class="edge">
<title>Node8&#45;&gt;Node9</title>
<path fill="none" stroke="midnightblue" d="M792.39,-233.09C933.53,-233.21 1476.91,-230.87 1539,-188 1571.4,-165.63 1572.9,-113.94 1571.06,-85.91"/>
<polygon fill="midnightblue" stroke="midnightblue" points="1574.53,-85.46 1570.18,-75.8 1567.56,-86.07 1574.53,-85.46"/>
</g>
<!-- Node10 -->
<g id="node10" class="node">
<title>Node10</title>
<g id="a_node10"><a xlink:title=" ">
<polygon fill="none" stroke="#bfbfbf" points="704,-0.5 704,-19.5 748,-19.5 748,-0.5 704,-0.5"/>
<text text-anchor="middle" x="726" y="-7.5" font-family="Helvetica,sans-Serif" font-size="10.00">limits</text>
</a>
</g>
</g>
<!-- Node8&#45;&gt;Node10 -->
<g id="edge12" class="edge">
<title>Node8&#45;&gt;Node10</title>
<path fill="none" stroke="midnightblue" d="M792.39,-233.2C936.11,-233.77 1497.66,-233.08 1561,-188 1611.05,-152.38 1644.31,-100.54 1602,-56 1572.39,-24.83 913.33,-13.64 758.4,-11.43"/>
<polygon fill="midnightblue" stroke="midnightblue" points="758.18,-7.93 748.13,-11.29 758.08,-14.93 758.18,-7.93"/>
</g>
<!-- Node11 -->
<g id="node11" class="node">
<title>Node11</title>
<g id="a_node11"><a xlink:title=" ">
<polygon fill="none" stroke="#bfbfbf" points="528,-168.5 528,-187.5 586,-187.5 586,-168.5 528,-168.5"/>
<text text-anchor="middle" x="557" y="-175.5" font-family="Helvetica,sans-Serif" font-size="10.00">memory</text>
</a>
</g>
</g>
<!-- Node8&#45;&gt;Node11 -->
<g id="edge13" class="edge">
<title>Node8&#45;&gt;Node11</title>
<path fill="none" stroke="midnightblue" d="M726.99,-224.44C691.45,-214.94 634.09,-199.61 595.96,-189.42"/>
<polygon fill="midnightblue" stroke="midnightblue" points="596.8,-186.02 586.23,-186.82 594.99,-192.78 596.8,-186.02"/>
</g>
<!-- Node12 -->
<g id="node12" class="node">
<title>Node12</title>
<g id="a_node12"><a xlink:title=" ">
<polygon fill="none" stroke="#bfbfbf" points="367,-56.5 367,-75.5 423,-75.5 423,-56.5 367,-56.5"/>
<text text-anchor="middle" x="395" y="-63.5" font-family="Helvetica,sans-Serif" font-size="10.00">optional</text>
</a>
</g>
</g>
<!-- Node8&#45;&gt;Node12 -->
<g id="edge14" class="edge">
<title>Node8&#45;&gt;Node12</title>
<path fill="none" stroke="midnightblue" d="M725.98,-231.87C632.68,-228.36 372.19,-216.09 347,-188 319.35,-157.16 355.89,-108.46 378.89,-83.28"/>
<polygon fill="midnightblue" stroke="midnightblue" points="381.73,-85.37 386.05,-75.7 376.64,-80.56 381.73,-85.37"/>
</g>
<!-- Node13 -->
<g id="node13" class="node">
<title>Node13</title>
<g id="a_node13"><a xlink:title=" ">
<polygon fill="none" stroke="#bfbfbf" points="604.5,-168.5 604.5,-187.5 651.5,-187.5 651.5,-168.5 604.5,-168.5"/>
<text text-anchor="middle" x="628" y="-175.5" font-family="Helvetica,sans-Serif" font-size="10.00">queue</text>
</a>
</g>
</g>
<!-- Node8&#45;&gt;Node13 -->
<g id="edge15" class="edge">
<title>Node8&#45;&gt;Node13</title>
<path fill="none" stroke="midnightblue" d="M738.24,-224.44C716.68,-215.56 682.74,-201.56 658.21,-191.45"/>
<polygon fill="midnightblue" stroke="midnightblue" points="659.24,-188.09 648.66,-187.52 656.57,-194.56 659.24,-188.09"/>
</g>
<!-- Node14 -->
<g id="node14" class="node">
<title>Node14</title>
<g id="a_node14"><a xlink:title=" ">
<polygon fill="none" stroke="#bfbfbf" points="669.5,-168.5 669.5,-187.5 734.5,-187.5 734.5,-168.5 669.5,-168.5"/>
<text text-anchor="middle" x="702" y="-175.5" font-family="Helvetica,sans-Serif" font-size="10.00">stdexcept</text>
</a>
</g>
</g>
<!-- Node8&#45;&gt;Node14 -->
<g id="edge16" class="edge">
<title>Node8&#45;&gt;Node14</title>
<path fill="none" stroke="midnightblue" d="M749.84,-224.32C741.5,-216.42 728.97,-204.55 718.82,-194.94"/>
<polygon fill="midnightblue" stroke="midnightblue" points="720.99,-192.17 711.32,-187.83 716.18,-197.25 720.99,-192.17"/>
</g>
<!-- Node15 -->
<g id="node15" class="node">
<title>Node15</title>
<g id="a_node15"><a xlink:title=" ">
<polygon fill="none" stroke="#bfbfbf" points="486.5,-56.5 486.5,-75.5 533.5,-75.5 533.5,-56.5 486.5,-56.5"/>
<text text-anchor="middle" x="510" y="-63.5" font-family="Helvetica,sans-Serif" font-size="10.00">vector</text>
</a>
</g>
</g>
<!-- Node8&#45;&gt;Node15 -->
<g id="edge17" class="edge">
<title>Node8&#45;&gt;Node15</title>
<path fill="none" stroke="midnightblue" d="M725.64,-232.06C664.24,-229.54 537.11,-220.45 510,-188 485.84,-159.08 495.54,-111.28 503.51,-85.26"/>
<polygon fill="midnightblue" stroke="midnightblue" points="506.9,-86.15 506.71,-75.56 500.25,-83.96 506.9,-86.15"/>
</g>
<!-- Node16 -->
<g id="node16" class="node">
<title>Node16</title>
<g id="a_node16"><a xlink:href="champsim_8h.html" target="_top" xlink:title=" ">
<polygon fill="none" stroke="black" points="356.5,-168.5 356.5,-187.5 433.5,-187.5 433.5,-168.5 356.5,-168.5"/>
<text text-anchor="middle" x="395" y="-175.5" font-family="Helvetica,sans-Serif" font-size="10.00">champsim.h</text>
</a>
</g>
</g>
<!-- Node8&#45;&gt;Node16 -->
<g id="edge18" class="edge">
<title>Node8&#45;&gt;Node16</title>
<path fill="none" stroke="midnightblue" d="M725.82,-228.47C668.91,-220.64 549.05,-203.89 448,-188 446.7,-187.8 445.39,-187.59 444.06,-187.38"/>
<polygon fill="midnightblue" stroke="midnightblue" points="444.2,-183.85 433.77,-185.7 443.08,-190.76 444.2,-183.85"/>
</g>
<!-- Node19 -->
<g id="node19" class="node">
<title>Node19</title>
<g id="a_node19"><a xlink:title=" ">
<polygon fill="none" stroke="#bfbfbf" points="752.5,-168.5 752.5,-187.5 881.5,-187.5 881.5,-168.5 752.5,-168.5"/>
<text text-anchor="middle" x="817" y="-175.5" font-family="Helvetica,sans-Serif" font-size="10.00">champsim_constants.h</text>
</a>
</g>
</g>
<!-- Node8&#45;&gt;Node19 -->
<g id="edge21" class="edge">
<title>Node8&#45;&gt;Node19</title>
<path fill="none" stroke="midnightblue" d="M768.32,-224.32C776.89,-216.34 789.81,-204.31 800.19,-194.65"/>
<polygon fill="midnightblue" stroke="midnightblue" points="802.58,-197.21 807.51,-187.83 797.81,-192.09 802.58,-197.21"/>
</g>
<!-- Node20 -->
<g id="node20" class="node">
<title>Node20</title>
<g id="a_node20"><a xlink:href="channel_8h.html" target="_top" xlink:title=" ">
<polygon fill="none" stroke="black" points="1491,-112.5 1491,-131.5 1555,-131.5 1555,-112.5 1491,-112.5"/>
<text text-anchor="middle" x="1523" y="-119.5" font-family="Helvetica,sans-Serif" font-size="10.00">channel.h</text>
</a>
</g>
</g>
<!-- Node8&#45;&gt;Node20 -->
<g id="edge22" class="edge">
<title>Node8&#45;&gt;Node20</title>
<path fill="none" stroke="midnightblue" d="M792.44,-232.27C936.15,-228.97 1495.25,-214.49 1521,-188 1532.66,-176 1531.49,-156.11 1528.44,-141.48"/>
<polygon fill="midnightblue" stroke="midnightblue" points="1531.77,-140.38 1525.92,-131.54 1524.98,-142.1 1531.77,-140.38"/>
</g>
<!-- Node23 -->
<g id="node23" class="node">
<title>Node23</title>
<g id="a_node23"><a xlink:href="instruction_8h.html" target="_top" xlink:title=" ">
<polygon fill="none" stroke="black" points="572.5,-112.5 572.5,-131.5 649.5,-131.5 649.5,-112.5 572.5,-112.5"/>
<text text-anchor="middle" x="611" y="-119.5" font-family="Helvetica,sans-Serif" font-size="10.00">instruction.h</text>
</a>
</g>
</g>
<!-- Node8&#45;&gt;Node23 -->
<g id="edge30" class="edge">
<title>Node8&#45;&gt;Node23</title>
<path fill="none" stroke="midnightblue" d="M725.91,-231.82C666.36,-228.92 544.92,-219.24 519,-188 499.73,-164.78 537.1,-145.94 569.84,-134.64"/>
<polygon fill="midnightblue" stroke="midnightblue" points="570.93,-137.96 579.34,-131.51 568.74,-131.31 570.93,-137.96"/>
</g>
<!-- Node25 -->
<g id="node25" class="node">
<title>Node25</title>
<g id="a_node25"><a xlink:href="module__impl_8h.html" target="_top" xlink:title=" ">
<polygon fill="none" stroke="black" points="899.5,-168.5 899.5,-187.5 988.5,-187.5 988.5,-168.5 899.5,-168.5"/>
<text text-anchor="middle" x="944" y="-175.5" font-family="Helvetica,sans-Serif" font-size="10.00">module_impl.h</text>
</a>
</g>
</g>
<!-- Node8&#45;&gt;Node25 -->
<g id="edge39" class="edge">
<title>Node8&#45;&gt;Node25</title>
<path fill="none" stroke="midnightblue" d="M788.31,-224.44C819.84,-215.24 870.13,-200.56 904.99,-190.39"/>
<polygon fill="midnightblue" stroke="midnightblue" points="906.2,-193.68 914.82,-187.52 904.24,-186.96 906.2,-193.68"/>
</g>
<!-- Node26 -->
<g id="node26" class="node">
<title>Node26</title>
<g id="a_node26"><a xlink:href="operable_8h.html" target="_top" xlink:title=" ">
<polygon fill="none" stroke="black" points="1007,-168.5 1007,-187.5 1075,-187.5 1075,-168.5 1007,-168.5"/>
<text text-anchor="middle" x="1041" y="-175.5" font-family="Helvetica,sans-Serif" font-size="10.00">operable.h</text>
</a>
</g>
</g>
<!-- Node8&#45;&gt;Node26 -->
<g id="edge40" class="edge">
<title>Node8&#45;&gt;Node26</title>
<path fill="none" stroke="midnightblue" d="M792.29,-226.95C836.61,-218.85 917.7,-203.86 996.63,-188.24"/>
<polygon fill="midnightblue" stroke="midnightblue" points="997.62,-191.61 1006.75,-186.23 996.26,-184.75 997.62,-191.61"/>
</g>
<!-- Node27 -->
<g id="node27" class="node">
<title>Node27</title>
<g id="a_node27"><a xlink:href="util_2lru__table_8h.html" target="_top" xlink:title=" ">
<polygon fill="none" stroke="black" points="212.5,-168.5 212.5,-187.5 299.5,-187.5 299.5,-168.5 212.5,-168.5"/>
<text text-anchor="middle" x="256" y="-175.5" font-family="Helvetica,sans-Serif" font-size="10.00">util/lru_table.h</text>
</a>
</g>
</g>
<!-- Node8&#45;&gt;Node27 -->
<g id="edge41" class="edge">
<title>Node8&#45;&gt;Node27</title>
<path fill="none" stroke="midnightblue" d="M725.99,-230.27C652.08,-224.01 467.66,-207.68 314,-188 312.55,-187.81 311.07,-187.62 309.59,-187.42"/>
<polygon fill="midnightblue" stroke="midnightblue" points="310.06,-183.95 299.67,-186.03 309.09,-190.88 310.06,-183.95"/>
</g>
<!-- Node32 -->
<g id="node32" class="node">
<title>Node32</title>
<g id="a_node32"><a xlink:title=" ">
<polygon fill="none" stroke="#bfbfbf" points="1093.5,-168.5 1093.5,-187.5 1162.5,-187.5 1162.5,-168.5 1093.5,-168.5"/>
<text text-anchor="middle" x="1128" y="-175.5" font-family="Helvetica,sans-Serif" font-size="10.00">type_traits</text>
</a>
</g>
</g>
<!-- Node8&#45;&gt;Node32 -->
<g id="edge52" class="edge">
<title>Node8&#45;&gt;Node32</title>
<path fill="none" stroke="midnightblue" d="M792.33,-229.1C849.58,-222.25 970.53,-207.1 1083.27,-188.02"/>
<polygon fill="midnightblue" stroke="midnightblue" points="1084.18,-191.42 1093.45,-186.28 1083.01,-184.52 1084.18,-191.42"/>
</g>
<!-- Node33 -->
<g id="node33" class="node">
<title>Node33</title>
<g id="a_node33"><a xlink:title=" ">
<polygon fill="none" stroke="#bfbfbf" points="1181,-168.5 1181,-187.5 1323,-187.5 1323,-168.5 1181,-168.5"/>
<text text-anchor="middle" x="1252" y="-175.5" font-family="Helvetica,sans-Serif" font-size="10.00">ooo_cpu_module_decl.inc</text>
</a>
</g>
</g>
<!-- Node8&#45;&gt;Node33 -->
<g id="edge53" class="edge">
<title>Node8&#45;&gt;Node33</title>
<path fill="none" stroke="midnightblue" d="M792.2,-229.42C860.76,-222.03 1023.26,-204.45 1170.76,-188.13"/>
<polygon fill="midnightblue" stroke="midnightblue" points="1171.35,-191.59 1180.9,-187.01 1170.58,-184.63 1171.35,-191.59"/>
</g>
<!-- Node34 -->
<g id="node34" class="node">
<title>Node34</title>
<g id="a_node34"><a xlink:title=" ">
<polygon fill="none" stroke="#bfbfbf" points="1341.5,-168.5 1341.5,-187.5 1478.5,-187.5 1478.5,-168.5 1341.5,-168.5"/>
<text text-anchor="middle" x="1410" y="-175.5" font-family="Helvetica,sans-Serif" font-size="10.00">ooo_cpu_module_def.inc</text>
</a>
</g>
</g>
<!-- Node8&#45;&gt;Node34 -->
<g id="edge54" class="edge">
<title>Node8&#45;&gt;Node34</title>
<path fill="none" stroke="midnightblue" d="M792.3,-230.81C879.07,-225.02 1119.48,-208.39 1331.06,-188.06"/>
<polygon fill="midnightblue" stroke="midnightblue" points="1331.49,-191.53 1341.11,-187.09 1330.82,-184.56 1331.49,-191.53"/>
</g>
<!-- Node17 -->
<g id="node17" class="node">
<title>Node17</title>
<g id="a_node17"><a xlink:title=" ">
<polygon fill="none" stroke="#bfbfbf" points="426,-0.5 426,-19.5 476,-19.5 476,-0.5 426,-0.5"/>
<text text-anchor="middle" x="451" y="-7.5" font-family="Helvetica,sans-Serif" font-size="10.00">cstdint</text>
</a>
</g>
</g>
<!-- Node16&#45;&gt;Node17 -->
<g id="edge19" class="edge">
<title>Node16&#45;&gt;Node17</title>
<path fill="none" stroke="midnightblue" d="M395.44,-168.26C396.35,-155.46 399.06,-131.07 407,-112 414.49,-94.02 423.6,-93.58 432,-76 439.13,-61.08 444.16,-42.94 447.24,-29.62"/>
<polygon fill="midnightblue" stroke="midnightblue" points="450.69,-30.25 449.38,-19.74 443.85,-28.77 450.69,-30.25"/>
</g>
<!-- Node18 -->
<g id="node18" class="node">
<title>Node18</title>
<g id="a_node18"><a xlink:title=" ">
<polygon fill="none" stroke="#bfbfbf" points="416.5,-112.5 416.5,-131.5 481.5,-131.5 481.5,-112.5 416.5,-112.5"/>
<text text-anchor="middle" x="449" y="-119.5" font-family="Helvetica,sans-Serif" font-size="10.00">exception</text>
</a>
</g>
</g>
<!-- Node16&#45;&gt;Node18 -->
<g id="edge20" class="edge">
<title>Node16&#45;&gt;Node18</title>
<path fill="none" stroke="midnightblue" d="M403.92,-168.08C411.78,-160.22 423.43,-148.57 432.92,-139.08"/>
<polygon fill="midnightblue" stroke="midnightblue" points="435.65,-141.3 440.25,-131.75 430.7,-136.35 435.65,-141.3"/>
</g>
<!-- Node20&#45;&gt;Node3 -->
<g id="edge23" class="edge">
<title>Node20&#45;&gt;Node3</title>
<path fill="none" stroke="midnightblue" d="M1490.83,-114.68C1486.19,-113.77 1481.48,-112.86 1477,-112 1392.17,-95.71 1370.02,-96.07 1286,-76 1285.9,-75.98 1285.8,-75.95 1285.7,-75.93"/>
<polygon fill="midnightblue" stroke="midnightblue" points="1286.83,-72.61 1276.27,-73.47 1285.07,-79.38 1286.83,-72.61"/>
</g>
<!-- Node20&#45;&gt;Node9 -->
<g id="edge25" class="edge">
<title>Node20&#45;&gt;Node9</title>
<path fill="none" stroke="midnightblue" d="M1530.6,-112.08C1537.23,-104.3 1547.02,-92.8 1555.06,-83.37"/>
<polygon fill="midnightblue" stroke="midnightblue" points="1557.73,-85.63 1561.55,-75.75 1552.4,-81.09 1557.73,-85.63"/>
</g>
<!-- Node20&#45;&gt;Node10 -->
<g id="edge27" class="edge">
<title>Node20&#45;&gt;Node10</title>
<path fill="none" stroke="midnightblue" d="M1508.64,-112.28C1481.66,-96.07 1424.12,-62.35 1402,-56 1278.81,-20.61 875.41,-12.86 758.2,-11.34"/>
<polygon fill="midnightblue" stroke="midnightblue" points="758.12,-7.84 748.08,-11.22 758.04,-14.84 758.12,-7.84"/>
</g>
<!-- Node20&#45;&gt;Node15 -->
<g id="edge28" class="edge">
<title>Node20&#45;&gt;Node15</title>
<path fill="none" stroke="midnightblue" d="M1490.81,-120.38C1370.66,-117.85 936.99,-107.02 581,-76 568.75,-74.93 555.35,-73.34 543.53,-71.8"/>
<polygon fill="midnightblue" stroke="midnightblue" points="543.99,-68.33 533.62,-70.46 543.06,-75.27 543.99,-68.33"/>
</g>
<!-- Node20&#45;&gt;Node17 -->
<g id="edge24" class="edge">
<title>Node20&#45;&gt;Node17</title>
<path fill="none" stroke="midnightblue" d="M1495.48,-112.42C1470.55,-104.26 1433.07,-91.03 1402,-76 1386.56,-68.53 1385.4,-61.02 1369,-56 1347.51,-49.43 652.8,-19.57 486.51,-12.5"/>
<polygon fill="midnightblue" stroke="midnightblue" points="486.47,-9 476.33,-12.07 486.17,-15.99 486.47,-9"/>
</g>
<!-- Node21 -->
<g id="node21" class="node">
<title>Node21</title>
<g id="a_node21"><a xlink:title=" ">
<polygon fill="none" stroke="#bfbfbf" points="1294.5,-56.5 1294.5,-75.5 1359.5,-75.5 1359.5,-56.5 1294.5,-56.5"/>
<text text-anchor="middle" x="1327" y="-63.5" font-family="Helvetica,sans-Serif" font-size="10.00">functional</text>
</a>
</g>
</g>
<!-- Node20&#45;&gt;Node21 -->
<g id="edge26" class="edge">
<title>Node20&#45;&gt;Node21</title>
<path fill="none" stroke="midnightblue" d="M1491.94,-112.44C1458.4,-103.2 1404.8,-88.44 1367.86,-78.26"/>
<polygon fill="midnightblue" stroke="midnightblue" points="1368.48,-74.8 1357.91,-75.52 1366.62,-81.55 1368.48,-74.8"/>
</g>
<!-- Node22 -->
<g id="node22" class="node">
<title>Node22</title>
<g id="a_node22"><a xlink:title=" ">
<polygon fill="none" stroke="#bfbfbf" points="1454.5,-56.5 1454.5,-75.5 1527.5,-75.5 1527.5,-56.5 1454.5,-56.5"/>
<text text-anchor="middle" x="1491" y="-63.5" font-family="Helvetica,sans-Serif" font-size="10.00">string_view</text>
</a>
</g>
</g>
<!-- Node20&#45;&gt;Node22 -->
<g id="edge29" class="edge">
<title>Node20&#45;&gt;Node22</title>
<path fill="none" stroke="midnightblue" d="M1517.72,-112.08C1513.29,-104.61 1506.84,-93.72 1501.38,-84.52"/>
<polygon fill="midnightblue" stroke="midnightblue" points="1504.29,-82.57 1496.19,-75.75 1498.27,-86.14 1504.29,-82.57"/>
</g>
<!-- Node23&#45;&gt;Node2 -->
<g id="edge31" class="edge">
<title>Node23&#45;&gt;Node2</title>
<path fill="none" stroke="midnightblue" d="M572.46,-117.88C467.42,-109.34 179.43,-85.64 103.47,-75.9"/>
<polygon fill="midnightblue" stroke="midnightblue" points="103.54,-72.38 93.16,-74.47 102.58,-79.31 103.54,-72.38"/>
</g>
<!-- Node23&#45;&gt;Node3 -->
<g id="edge32" class="edge">
<title>Node23&#45;&gt;Node3</title>
<path fill="none" stroke="midnightblue" d="M649.83,-117.74C767.22,-107.9 1116.85,-78.58 1223.66,-69.63"/>
<polygon fill="midnightblue" stroke="midnightblue" points="1224.11,-73.1 1233.78,-68.78 1223.53,-66.13 1224.11,-73.1"/>
</g>
<!-- Node23&#45;&gt;Node10 -->
<g id="edge35" class="edge">
<title>Node23&#45;&gt;Node10</title>
<path fill="none" stroke="midnightblue" d="M645.18,-112.37C665.47,-105.61 690.23,-94.21 706,-76 717.22,-63.04 722.15,-43.87 724.31,-29.71"/>
<polygon fill="midnightblue" stroke="midnightblue" points="727.8,-29.98 725.52,-19.63 720.85,-29.15 727.8,-29.98"/>
</g>
<!-- Node23&#45;&gt;Node15 -->
<g id="edge36" class="edge">
<title>Node23&#45;&gt;Node15</title>
<path fill="none" stroke="midnightblue" d="M594.77,-112.32C578.65,-103.7 553.7,-90.36 535.04,-80.39"/>
<polygon fill="midnightblue" stroke="midnightblue" points="536.66,-77.28 526.19,-75.65 533.36,-83.46 536.66,-77.28"/>
</g>
<!-- Node23&#45;&gt;Node17 -->
<g id="edge33" class="edge">
<title>Node23&#45;&gt;Node17</title>
<path fill="none" stroke="midnightblue" d="M603.2,-112.13C591.09,-98.74 566.59,-73.09 542,-56 523.23,-42.95 500.12,-31.58 481.89,-23.53"/>
<polygon fill="midnightblue" stroke="midnightblue" points="483.15,-20.26 472.59,-19.52 480.39,-26.69 483.15,-20.26"/>
</g>
<!-- Node23&#45;&gt;Node21 -->
<g id="edge34" class="edge">
<title>Node23&#45;&gt;Node21</title>
<path fill="none" stroke="midnightblue" d="M649.58,-120.37C751.58,-118.29 1036.92,-109.8 1283.82,-75.95"/>
<polygon fill="midnightblue" stroke="midnightblue" points="1284.64,-79.37 1294.07,-74.53 1283.68,-72.44 1284.64,-79.37"/>
</g>
<!-- Node24 -->
<g id="node24" class="node">
<title>Node24</title>
<g id="a_node24"><a xlink:href="trace__instruction_8h.html" target="_top" xlink:title=" ">
<polygon fill="none" stroke="black" points="590.5,-56.5 590.5,-75.5 697.5,-75.5 697.5,-56.5 590.5,-56.5"/>
<text text-anchor="middle" x="644" y="-63.5" font-family="Helvetica,sans-Serif" font-size="10.00">trace_instruction.h</text>
</a>
</g>
</g>
<!-- Node23&#45;&gt;Node24 -->
<g id="edge37" class="edge">
<title>Node23&#45;&gt;Node24</title>
<path fill="none" stroke="midnightblue" d="M616.45,-112.08C621.01,-104.61 627.67,-93.72 633.29,-84.52"/>
<polygon fill="midnightblue" stroke="midnightblue" points="636.42,-86.11 638.65,-75.75 630.45,-82.46 636.42,-86.11"/>
</g>
<!-- Node24&#45;&gt;Node10 -->
<g id="edge38" class="edge">
<title>Node24&#45;&gt;Node10</title>
<path fill="none" stroke="midnightblue" d="M657.17,-56.32C669.85,-47.98 689.23,-35.21 704.21,-25.35"/>
<polygon fill="midnightblue" stroke="midnightblue" points="706.43,-28.08 712.86,-19.65 702.58,-22.23 706.43,-28.08"/>
</g>
<!-- Node28 -->
<g id="node28" class="node">
<title>Node28</title>
<g id="a_node28"><a xlink:href="msl_2lru__table_8h.html" target="_top" xlink:title=" ">
<polygon fill="none" stroke="black" points="210.5,-112.5 210.5,-131.5 299.5,-131.5 299.5,-112.5 210.5,-112.5"/>
<text text-anchor="middle" x="255" y="-119.5" font-family="Helvetica,sans-Serif" font-size="10.00">msl/lru_table.h</text>
</a>
</g>
</g>
<!-- Node27&#45;&gt;Node28 -->
<g id="edge42" class="edge">
<title>Node27&#45;&gt;Node28</title>
<path fill="none" stroke="midnightblue" d="M255.83,-168.08C255.7,-161.01 255.52,-150.86 255.35,-141.99"/>
<polygon fill="midnightblue" stroke="midnightblue" points="258.85,-141.68 255.16,-131.75 251.85,-141.81 258.85,-141.68"/>
</g>
<!-- Node28&#45;&gt;Node2 -->
<g id="edge43" class="edge">
<title>Node28&#45;&gt;Node2</title>
<path fill="none" stroke="midnightblue" d="M224.26,-112.44C191.06,-103.2 138.01,-88.44 101.44,-78.26"/>
<polygon fill="midnightblue" stroke="midnightblue" points="102.17,-74.83 91.6,-75.52 100.29,-81.57 102.17,-74.83"/>
</g>
<!-- Node28&#45;&gt;Node12 -->
<g id="edge46" class="edge">
<title>Node28&#45;&gt;Node12</title>
<path fill="none" stroke="midnightblue" d="M277.18,-112.44C300.43,-103.48 337.15,-89.31 363.42,-79.18"/>
<polygon fill="midnightblue" stroke="midnightblue" points="364.85,-82.38 372.92,-75.52 362.33,-75.85 364.85,-82.38"/>
</g>
<!-- Node28&#45;&gt;Node15 -->
<g id="edge48" class="edge">
<title>Node28&#45;&gt;Node15</title>
<path fill="none" stroke="midnightblue" d="M295.41,-112.44C345.41,-101.85 429.65,-84.01 476.33,-74.13"/>
<polygon fill="midnightblue" stroke="midnightblue" points="477.18,-77.53 486.24,-72.03 475.73,-70.68 477.18,-77.53"/>
</g>
<!-- Node28&#45;&gt;Node17 -->
<g id="edge45" class="edge">
<title>Node28&#45;&gt;Node17</title>
<path fill="none" stroke="midnightblue" d="M254.96,-112.48C255.37,-98.62 258.27,-71.19 274,-56 312.22,-19.11 376.22,-11.23 415.89,-10.19"/>
<polygon fill="midnightblue" stroke="midnightblue" points="415.95,-13.69 425.9,-10.06 415.86,-6.69 415.95,-13.69"/>
</g>
<!-- Node29 -->
<g id="node29" class="node">
<title>Node29</title>
<g id="a_node29"><a xlink:title=" ">
<polygon fill="none" stroke="#bfbfbf" points="111,-56.5 111,-75.5 163,-75.5 163,-56.5 111,-56.5"/>
<text text-anchor="middle" x="137" y="-63.5" font-family="Helvetica,sans-Serif" font-size="10.00">cassert</text>
</a>
</g>
</g>
<!-- Node28&#45;&gt;Node29 -->
<g id="edge44" class="edge">
<title>Node28&#45;&gt;Node29</title>
<path fill="none" stroke="midnightblue" d="M236.3,-112.44C217.06,-103.64 186.85,-89.81 164.8,-79.72"/>
<polygon fill="midnightblue" stroke="midnightblue" points="166.16,-76.5 155.61,-75.52 163.25,-82.86 166.16,-76.5"/>
</g>
<!-- Node30 -->
<g id="node30" class="node">
<title>Node30</title>
<g id="a_node30"><a xlink:title=" ">
<polygon fill="none" stroke="#bfbfbf" points="181.5,-56.5 181.5,-75.5 226.5,-75.5 226.5,-56.5 181.5,-56.5"/>
<text text-anchor="middle" x="204" y="-63.5" font-family="Helvetica,sans-Serif" font-size="10.00">utility</text>
</a>
</g>
</g>
<!-- Node28&#45;&gt;Node30 -->
<g id="edge47" class="edge">
<title>Node28&#45;&gt;Node30</title>
<path fill="none" stroke="midnightblue" d="M246.58,-112.08C239.15,-104.22 228.15,-92.57 219.19,-83.08"/>
<polygon fill="midnightblue" stroke="midnightblue" points="221.68,-80.62 212.26,-75.75 216.59,-85.42 221.68,-80.62"/>
</g>
<!-- Node31 -->
<g id="node31" class="node">
<title>Node31</title>
<g id="a_node31"><a xlink:href="msl_2bits_8h.html" target="_top" xlink:title=" ">
<polygon fill="none" stroke="black" points="283.5,-56.5 283.5,-75.5 348.5,-75.5 348.5,-56.5 283.5,-56.5"/>
<text text-anchor="middle" x="316" y="-63.5" font-family="Helvetica,sans-Serif" font-size="10.00">msl/bits.h</text>
</a>
</g>
</g>
<!-- Node28&#45;&gt;Node31 -->
<g id="edge49" class="edge">
<title>Node28&#45;&gt;Node31</title>
<path fill="none" stroke="midnightblue" d="M264.8,-112.32C273.82,-104.34 287.41,-92.31 298.32,-82.65"/>
<polygon fill="midnightblue" stroke="midnightblue" points="300.85,-85.08 306.02,-75.83 296.21,-79.84 300.85,-85.08"/>
</g>
<!-- Node31&#45;&gt;Node10 -->
<g id="edge51" class="edge">
<title>Node31&#45;&gt;Node10</title>
<path fill="none" stroke="midnightblue" d="M348.5,-57.73C351.71,-57.11 354.91,-56.52 358,-56 481.31,-35.29 629.38,-20.1 693.63,-13.98"/>
<polygon fill="midnightblue" stroke="midnightblue" points="694.29,-17.43 703.92,-13.01 693.63,-10.46 694.29,-17.43"/>
</g>
<!-- Node31&#45;&gt;Node17 -->
<g id="edge50" class="edge">
<title>Node31&#45;&gt;Node17</title>
<path fill="none" stroke="midnightblue" d="M337.39,-56.44C359.71,-47.52 394.9,-33.44 420.21,-23.32"/>
<polygon fill="midnightblue" stroke="midnightblue" points="421.72,-26.48 429.71,-19.52 419.12,-19.98 421.72,-26.48"/>
</g>
</g>
</svg>
