<?xml version="1.0" encoding="UTF-8" standalone="no"?>
<!DOCTYPE svg PUBLIC "-//W3C//DTD SVG 1.1//EN"
 "http://www.w3.org/Graphics/SVG/1.1/DTD/svg11.dtd">
<!-- Generated by graphviz version 2.43.0 (0)
 -->
<!-- Title: branch/hashed_perceptron/hashed_perceptron.cc Pages: 1 -->
<svg width="1906pt" height="319pt"
 viewBox="0.00 0.00 1905.69 319.00" xmlns="http://www.w3.org/2000/svg" xmlns:xlink="http://www.w3.org/1999/xlink">
<g id="graph0" class="graph" transform="scale(1 1) rotate(0) translate(4 315)">
<title>branch/hashed_perceptron/hashed_perceptron.cc</title>
<!-- Node1 -->
<g id="node1" class="node">
<title>Node1</title>
<g id="a_node1"><a xlink:title=" ">
<polygon fill="#bfbfbf" stroke="black" points="685.19,-280.5 685.19,-310.5 831.19,-310.5 831.19,-280.5 685.19,-280.5"/>
<text text-anchor="start" x="693.19" y="-298.5" font-family="Helvetica,sans-Serif" font-size="10.00">branch/hashed_perceptron</text>
<text text-anchor="middle" x="758.19" y="-287.5" font-family="Helvetica,sans-Serif" font-size="10.00">/hashed_perceptron.cc</text>
</a>
</g>
</g>
<!-- Node2 -->
<g id="node2" class="node">
<title>Node2</title>
<g id="a_node2"><a xlink:title=" ">
<polygon fill="none" stroke="#bfbfbf" points="593.69,-224.5 593.69,-243.5 644.69,-243.5 644.69,-224.5 593.69,-224.5"/>
<text text-anchor="middle" x="619.19" y="-231.5" font-family="Helvetica,sans-Serif" font-size="10.00">math.h</text>
</a>
</g>
</g>
<!-- Node1&#45;&gt;Node2 -->
<g id="edge1" class="edge">
<title>Node1&#45;&gt;Node2</title>
<path fill="none" stroke="midnightblue" d="M725.25,-280.4C702.03,-270.46 671.21,-257.26 648.77,-247.66"/>
<polygon fill="midnightblue" stroke="midnightblue" points="649.99,-244.38 639.42,-243.66 647.23,-250.81 649.99,-244.38"/>
</g>
<!-- Node3 -->
<g id="node3" class="node">
<title>Node3</title>
<g id="a_node3"><a xlink:title=" ">
<polygon fill="none" stroke="#bfbfbf" points="663.19,-224.5 663.19,-243.5 713.19,-243.5 713.19,-224.5 663.19,-224.5"/>
<text text-anchor="middle" x="688.19" y="-231.5" font-family="Helvetica,sans-Serif" font-size="10.00">stdio.h</text>
</a>
</g>
</g>
<!-- Node1&#45;&gt;Node3 -->
<g id="edge2" class="edge">
<title>Node1&#45;&gt;Node3</title>
<path fill="none" stroke="midnightblue" d="M741.6,-280.4C730.91,-271.31 717,-259.49 706.06,-250.19"/>
<polygon fill="midnightblue" stroke="midnightblue" points="708.26,-247.47 698.38,-243.66 703.73,-252.8 708.26,-247.47"/>
</g>
<!-- Node4 -->
<g id="node4" class="node">
<title>Node4</title>
<g id="a_node4"><a xlink:title=" ">
<polygon fill="none" stroke="#bfbfbf" points="731.69,-224.5 731.69,-243.5 784.69,-243.5 784.69,-224.5 731.69,-224.5"/>
<text text-anchor="middle" x="758.19" y="-231.5" font-family="Helvetica,sans-Serif" font-size="10.00">stdlib.h</text>
</a>
</g>
</g>
<!-- Node1&#45;&gt;Node4 -->
<g id="edge3" class="edge">
<title>Node1&#45;&gt;Node4</title>
<path fill="none" stroke="midnightblue" d="M758.19,-280.4C758.19,-272.47 758.19,-262.46 758.19,-253.86"/>
<polygon fill="midnightblue" stroke="midnightblue" points="761.69,-253.66 758.19,-243.66 754.69,-253.66 761.69,-253.66"/>
</g>
<!-- Node5 -->
<g id="node5" class="node">
<title>Node5</title>
<g id="a_node5"><a xlink:title=" ">
<polygon fill="none" stroke="#bfbfbf" points="802.69,-224.5 802.69,-243.5 855.69,-243.5 855.69,-224.5 802.69,-224.5"/>
<text text-anchor="middle" x="829.19" y="-231.5" font-family="Helvetica,sans-Serif" font-size="10.00">string.h</text>
</a>
</g>
</g>
<!-- Node1&#45;&gt;Node5 -->
<g id="edge4" class="edge">
<title>Node1&#45;&gt;Node5</title>
<path fill="none" stroke="midnightblue" d="M775.02,-280.4C785.87,-271.31 799.97,-259.49 811.07,-250.19"/>
<polygon fill="midnightblue" stroke="midnightblue" points="813.44,-252.76 818.86,-243.66 808.95,-247.4 813.44,-252.76"/>
</g>
<!-- Node6 -->
<g id="node6" class="node">
<title>Node6</title>
<g id="a_node6"><a xlink:href="ooo__cpu_8h.html" target="_top" xlink:title=" ">
<polygon fill="none" stroke="black" points="874.19,-224.5 874.19,-243.5 940.19,-243.5 940.19,-224.5 874.19,-224.5"/>
<text text-anchor="middle" x="907.19" y="-231.5" font-family="Helvetica,sans-Serif" font-size="10.00">ooo_cpu.h</text>
</a>
</g>
</g>
<!-- Node1&#45;&gt;Node6 -->
<g id="edge5" class="edge">
<title>Node1&#45;&gt;Node6</title>
<path fill="none" stroke="midnightblue" d="M793.5,-280.4C818.61,-270.37 852.03,-257.03 876.13,-247.4"/>
<polygon fill="midnightblue" stroke="midnightblue" points="877.52,-250.62 885.51,-243.66 874.93,-244.12 877.52,-250.62"/>
</g>
<!-- Node7 -->
<g id="node7" class="node">
<title>Node7</title>
<g id="a_node7"><a xlink:title=" ">
<polygon fill="none" stroke="#bfbfbf" points="247.19,-56.5 247.19,-75.5 289.19,-75.5 289.19,-56.5 247.19,-56.5"/>
<text text-anchor="middle" x="268.19" y="-63.5" font-family="Helvetica,sans-Serif" font-size="10.00">array</text>
</a>
</g>
</g>
<!-- Node6&#45;&gt;Node7 -->
<g id="edge6" class="edge">
<title>Node6&#45;&gt;Node7</title>
<path fill="none" stroke="midnightblue" d="M873.77,-225.56C870.88,-225 867.99,-224.47 865.19,-224 735.37,-202.19 698.71,-220.68 571.19,-188 464.75,-160.72 345.63,-105.3 294.17,-80.05"/>
<polygon fill="midnightblue" stroke="midnightblue" points="295.6,-76.86 285.09,-75.57 292.5,-83.13 295.6,-76.86"/>
</g>
<!-- Node8 -->
<g id="node8" class="node">
<title>Node8</title>
<g id="a_node8"><a xlink:title=" ">
<polygon fill="none" stroke="#bfbfbf" points="885.19,-168.5 885.19,-187.5 929.19,-187.5 929.19,-168.5 885.19,-168.5"/>
<text text-anchor="middle" x="907.19" y="-175.5" font-family="Helvetica,sans-Serif" font-size="10.00">bitset</text>
</a>
</g>
</g>
<!-- Node6&#45;&gt;Node8 -->
<g id="edge7" class="edge">
<title>Node6&#45;&gt;Node8</title>
<path fill="none" stroke="midnightblue" d="M907.19,-224.08C907.19,-217.01 907.19,-206.86 907.19,-197.99"/>
<polygon fill="midnightblue" stroke="midnightblue" points="910.69,-197.75 907.19,-187.75 903.69,-197.75 910.69,-197.75"/>
</g>
<!-- Node9 -->
<g id="node9" class="node">
<title>Node9</title>
<g id="a_node9"><a xlink:title=" ">
<polygon fill="none" stroke="#bfbfbf" points="13.69,-56.5 13.69,-75.5 60.69,-75.5 60.69,-56.5 13.69,-56.5"/>
<text text-anchor="middle" x="37.19" y="-63.5" font-family="Helvetica,sans-Serif" font-size="10.00">deque</text>
</a>
</g>
</g>
<!-- Node6&#45;&gt;Node9 -->
<g id="edge8" class="edge">
<title>Node6&#45;&gt;Node9</title>
<path fill="none" stroke="midnightblue" d="M873.8,-225.39C870.9,-224.87 868,-224.39 865.19,-224 629.18,-190.95 563.16,-238.2 330.19,-188 260.63,-173.01 245.96,-159.18 180.19,-132 139.39,-115.13 93,-93.6 64.41,-80.05"/>
<polygon fill="midnightblue" stroke="midnightblue" points="65.61,-76.75 55.08,-75.61 62.6,-83.07 65.61,-76.75"/>
</g>
<!-- Node10 -->
<g id="node10" class="node">
<title>Node10</title>
<g id="a_node10"><a xlink:title=" ">
<polygon fill="none" stroke="#bfbfbf" points="422.19,-0.5 422.19,-19.5 466.19,-19.5 466.19,-0.5 422.19,-0.5"/>
<text text-anchor="middle" x="444.19" y="-7.5" font-family="Helvetica,sans-Serif" font-size="10.00">limits</text>
</a>
</g>
</g>
<!-- Node6&#45;&gt;Node10 -->
<g id="edge9" class="edge">
<title>Node6&#45;&gt;Node10</title>
<path fill="none" stroke="midnightblue" d="M873.8,-225.37C870.9,-224.85 868,-224.38 865.19,-224 597.85,-187.63 521.53,-251.05 259.19,-188 198.82,-173.49 188.05,-156.97 131.19,-132 74.71,-107.19 37.88,-127.68 4.19,-76 -0.66,-68.55 -1.76,-62.6 4.19,-56 31.44,-25.82 314.81,-14.78 411.82,-11.86"/>
<polygon fill="midnightblue" stroke="midnightblue" points="412.03,-15.36 421.92,-11.57 411.83,-8.36 412.03,-15.36"/>
</g>
<!-- Node11 -->
<g id="node11" class="node">
<title>Node11</title>
<g id="a_node11"><a xlink:title=" ">
<polygon fill="none" stroke="#bfbfbf" points="947.19,-168.5 947.19,-187.5 1005.19,-187.5 1005.19,-168.5 947.19,-168.5"/>
<text text-anchor="middle" x="976.19" y="-175.5" font-family="Helvetica,sans-Serif" font-size="10.00">memory</text>
</a>
</g>
</g>
<!-- Node6&#45;&gt;Node11 -->
<g id="edge10" class="edge">
<title>Node6&#45;&gt;Node11</title>
<path fill="none" stroke="midnightblue" d="M918.28,-224.32C928.68,-216.18 944.45,-203.84 956.91,-194.09"/>
<polygon fill="midnightblue" stroke="midnightblue" points="959.19,-196.75 964.9,-187.83 954.87,-191.24 959.19,-196.75"/>
</g>
<!-- Node12 -->
<g id="node12" class="node">
<title>Node12</title>
<g id="a_node12"><a xlink:title=" ">
<polygon fill="none" stroke="#bfbfbf" points="995.19,-56.5 995.19,-75.5 1051.19,-75.5 1051.19,-56.5 995.19,-56.5"/>
<text text-anchor="middle" x="1023.19" y="-63.5" font-family="Helvetica,sans-Serif" font-size="10.00">optional</text>
</a>
</g>
</g>
<!-- Node6&#45;&gt;Node12 -->
<g id="edge11" class="edge">
<title>Node6&#45;&gt;Node12</title>
<path fill="none" stroke="midnightblue" d="M874.01,-225.7C840.49,-217.57 792.13,-203.52 781.19,-188 771.01,-173.55 767.47,-133.4 787.19,-112 793.88,-104.74 919.81,-83.6 984.91,-73.08"/>
<polygon fill="midnightblue" stroke="midnightblue" points="985.49,-76.53 994.81,-71.49 984.38,-69.62 985.49,-76.53"/>
</g>
<!-- Node13 -->
<g id="node13" class="node">
<title>Node13</title>
<g id="a_node13"><a xlink:title=" ">
<polygon fill="none" stroke="#bfbfbf" points="1023.69,-168.5 1023.69,-187.5 1070.69,-187.5 1070.69,-168.5 1023.69,-168.5"/>
<text text-anchor="middle" x="1047.19" y="-175.5" font-family="Helvetica,sans-Serif" font-size="10.00">queue</text>
</a>
</g>
</g>
<!-- Node6&#45;&gt;Node13 -->
<g id="edge12" class="edge">
<title>Node6&#45;&gt;Node13</title>
<path fill="none" stroke="midnightblue" d="M929.38,-224.44C952.62,-215.48 989.34,-201.31 1015.61,-191.18"/>
<polygon fill="midnightblue" stroke="midnightblue" points="1017.04,-194.38 1025.11,-187.52 1014.52,-187.85 1017.04,-194.38"/>
</g>
<!-- Node14 -->
<g id="node14" class="node">
<title>Node14</title>
<g id="a_node14"><a xlink:title=" ">
<polygon fill="none" stroke="#bfbfbf" points="1088.69,-168.5 1088.69,-187.5 1153.69,-187.5 1153.69,-168.5 1088.69,-168.5"/>
<text text-anchor="middle" x="1121.19" y="-175.5" font-family="Helvetica,sans-Serif" font-size="10.00">stdexcept</text>
</a>
</g>
</g>
<!-- Node6&#45;&gt;Node14 -->
<g id="edge13" class="edge">
<title>Node6&#45;&gt;Node14</title>
<path fill="none" stroke="midnightblue" d="M940.63,-224.56C977.91,-215.16 1038.28,-199.92 1078.83,-189.69"/>
<polygon fill="midnightblue" stroke="midnightblue" points="1079.85,-193.04 1088.69,-187.2 1078.14,-186.25 1079.85,-193.04"/>
</g>
<!-- Node15 -->
<g id="node15" class="node">
<title>Node15</title>
<g id="a_node15"><a xlink:title=" ">
<polygon fill="none" stroke="#bfbfbf" points="592.69,-56.5 592.69,-75.5 639.69,-75.5 639.69,-56.5 592.69,-56.5"/>
<text text-anchor="middle" x="616.19" y="-63.5" font-family="Helvetica,sans-Serif" font-size="10.00">vector</text>
</a>
</g>
</g>
<!-- Node6&#45;&gt;Node15 -->
<g id="edge14" class="edge">
<title>Node6&#45;&gt;Node15</title>
<path fill="none" stroke="midnightblue" d="M873.75,-225.66C870.86,-225.08 867.98,-224.52 865.19,-224 814.76,-214.62 673.74,-223.99 637.19,-188 609.93,-161.15 610.57,-112.49 613.39,-85.79"/>
<polygon fill="midnightblue" stroke="midnightblue" points="616.91,-85.88 614.7,-75.52 609.96,-84.99 616.91,-85.88"/>
</g>
<!-- Node16 -->
<g id="node16" class="node">
<title>Node16</title>
<g id="a_node16"><a xlink:href="champsim_8h.html" target="_top" xlink:title=" ">
<polygon fill="none" stroke="black" points="789.69,-168.5 789.69,-187.5 866.69,-187.5 866.69,-168.5 789.69,-168.5"/>
<text text-anchor="middle" x="828.19" y="-175.5" font-family="Helvetica,sans-Serif" font-size="10.00">champsim.h</text>
</a>
</g>
</g>
<!-- Node6&#45;&gt;Node16 -->
<g id="edge15" class="edge">
<title>Node6&#45;&gt;Node16</title>
<path fill="none" stroke="midnightblue" d="M894.5,-224.32C882.29,-215.98 863.61,-203.21 849.19,-193.35"/>
<polygon fill="midnightblue" stroke="midnightblue" points="851.08,-190.41 840.85,-187.65 847.13,-196.19 851.08,-190.41"/>
</g>
<!-- Node19 -->
<g id="node19" class="node">
<title>Node19</title>
<g id="a_node19"><a xlink:title=" ">
<polygon fill="none" stroke="#bfbfbf" points="1171.69,-168.5 1171.69,-187.5 1300.69,-187.5 1300.69,-168.5 1171.69,-168.5"/>
<text text-anchor="middle" x="1236.19" y="-175.5" font-family="Helvetica,sans-Serif" font-size="10.00">champsim_constants.h</text>
</a>
</g>
</g>
<!-- Node6&#45;&gt;Node19 -->
<g id="edge18" class="edge">
<title>Node6&#45;&gt;Node19</title>
<path fill="none" stroke="midnightblue" d="M940.24,-227.58C994.91,-218.6 1105.01,-200.53 1174.42,-189.14"/>
<polygon fill="midnightblue" stroke="midnightblue" points="1175.05,-192.58 1184.36,-187.51 1173.92,-185.67 1175.05,-192.58"/>
</g>
<!-- Node20 -->
<g id="node20" class="node">
<title>Node20</title>
<g id="a_node20"><a xlink:href="channel_8h.html" target="_top" xlink:title=" ">
<polygon fill="none" stroke="black" points="189.19,-112.5 189.19,-131.5 253.19,-131.5 253.19,-112.5 189.19,-112.5"/>
<text text-anchor="middle" x="221.19" y="-119.5" font-family="Helvetica,sans-Serif" font-size="10.00">channel.h</text>
</a>
</g>
</g>
<!-- Node6&#45;&gt;Node20 -->
<g id="edge19" class="edge">
<title>Node6&#45;&gt;Node20</title>
<path fill="none" stroke="midnightblue" d="M873.79,-225.42C870.89,-224.89 868,-224.41 865.19,-224 659.62,-194.17 602.2,-232.04 399.19,-188 344.18,-176.07 283.18,-151.05 248.78,-135.77"/>
<polygon fill="midnightblue" stroke="midnightblue" points="249.96,-132.46 239.4,-131.55 247.09,-138.84 249.96,-132.46"/>
</g>
<!-- Node23 -->
<g id="node23" class="node">
<title>Node23</title>
<g id="a_node23"><a xlink:href="instruction_8h.html" target="_top" xlink:title=" ">
<polygon fill="none" stroke="black" points="498.69,-112.5 498.69,-131.5 575.69,-131.5 575.69,-112.5 498.69,-112.5"/>
<text text-anchor="middle" x="537.19" y="-119.5" font-family="Helvetica,sans-Serif" font-size="10.00">instruction.h</text>
</a>
</g>
</g>
<!-- Node6&#45;&gt;Node23 -->
<g id="edge27" class="edge">
<title>Node6&#45;&gt;Node23</title>
<path fill="none" stroke="midnightblue" d="M873.77,-225.6C870.87,-225.03 867.98,-224.49 865.19,-224 748.99,-203.63 707.87,-240.45 602.19,-188 579.97,-176.97 560.76,-155.36 549.11,-140.09"/>
<polygon fill="midnightblue" stroke="midnightblue" points="551.88,-137.96 543.15,-131.96 546.24,-142.1 551.88,-137.96"/>
</g>
<!-- Node26 -->
<g id="node26" class="node">
<title>Node26</title>
<g id="a_node26"><a xlink:href="module__impl_8h.html" target="_top" xlink:title=" ">
<polygon fill="none" stroke="black" points="1318.69,-168.5 1318.69,-187.5 1407.69,-187.5 1407.69,-168.5 1318.69,-168.5"/>
<text text-anchor="middle" x="1363.19" y="-175.5" font-family="Helvetica,sans-Serif" font-size="10.00">module_impl.h</text>
</a>
</g>
</g>
<!-- Node6&#45;&gt;Node26 -->
<g id="edge36" class="edge">
<title>Node6&#45;&gt;Node26</title>
<path fill="none" stroke="midnightblue" d="M940.45,-229.93C1007.88,-223.58 1165.75,-207.99 1308.44,-188.18"/>
<polygon fill="midnightblue" stroke="midnightblue" points="1309.27,-191.6 1318.69,-186.75 1308.3,-184.67 1309.27,-191.6"/>
</g>
<!-- Node27 -->
<g id="node27" class="node">
<title>Node27</title>
<g id="a_node27"><a xlink:href="operable_8h.html" target="_top" xlink:title=" ">
<polygon fill="none" stroke="black" points="1426.19,-168.5 1426.19,-187.5 1494.19,-187.5 1494.19,-168.5 1426.19,-168.5"/>
<text text-anchor="middle" x="1460.19" y="-175.5" font-family="Helvetica,sans-Serif" font-size="10.00">operable.h</text>
</a>
</g>
</g>
<!-- Node6&#45;&gt;Node27 -->
<g id="edge37" class="edge">
<title>Node6&#45;&gt;Node27</title>
<path fill="none" stroke="midnightblue" d="M940.47,-231.43C1020.63,-227.36 1230.92,-214.94 1416.08,-188"/>
<polygon fill="midnightblue" stroke="midnightblue" points="1416.61,-191.46 1425.99,-186.54 1415.59,-184.53 1416.61,-191.46"/>
</g>
<!-- Node28 -->
<g id="node28" class="node">
<title>Node28</title>
<g id="a_node28"><a xlink:href="util_2lru__table_8h.html" target="_top" xlink:title=" ">
<polygon fill="none" stroke="black" points="645.69,-168.5 645.69,-187.5 732.69,-187.5 732.69,-168.5 645.69,-168.5"/>
<text text-anchor="middle" x="689.19" y="-175.5" font-family="Helvetica,sans-Serif" font-size="10.00">util/lru_table.h</text>
</a>
</g>
</g>
<!-- Node6&#45;&gt;Node28 -->
<g id="edge38" class="edge">
<title>Node6&#45;&gt;Node28</title>
<path fill="none" stroke="midnightblue" d="M874.08,-224.8C836.56,-215.5 775.22,-200.31 733.57,-189.99"/>
<polygon fill="midnightblue" stroke="midnightblue" points="734.24,-186.55 723.7,-187.55 732.56,-193.35 734.24,-186.55"/>
</g>
<!-- Node33 -->
<g id="node33" class="node">
<title>Node33</title>
<g id="a_node33"><a xlink:title=" ">
<polygon fill="none" stroke="#bfbfbf" points="1512.69,-168.5 1512.69,-187.5 1581.69,-187.5 1581.69,-168.5 1512.69,-168.5"/>
<text text-anchor="middle" x="1547.19" y="-175.5" font-family="Helvetica,sans-Serif" font-size="10.00">type_traits</text>
</a>
</g>
</g>
<!-- Node6&#45;&gt;Node33 -->
<g id="edge49" class="edge">
<title>Node6&#45;&gt;Node33</title>
<path fill="none" stroke="midnightblue" d="M940.3,-231.97C1029.46,-228.88 1282.13,-218.07 1502.54,-187.89"/>
<polygon fill="midnightblue" stroke="midnightblue" points="1503.25,-191.33 1512.68,-186.49 1502.29,-184.4 1503.25,-191.33"/>
</g>
<!-- Node34 -->
<g id="node34" class="node">
<title>Node34</title>
<g id="a_node34"><a xlink:title=" ">
<polygon fill="none" stroke="#bfbfbf" points="1600.19,-168.5 1600.19,-187.5 1742.19,-187.5 1742.19,-168.5 1600.19,-168.5"/>
<text text-anchor="middle" x="1671.19" y="-175.5" font-family="Helvetica,sans-Serif" font-size="10.00">ooo_cpu_module_decl.inc</text>
</a>
</g>
</g>
<!-- Node6&#45;&gt;Node34 -->
<g id="edge50" class="edge">
<title>Node6&#45;&gt;Node34</title>
<path fill="none" stroke="midnightblue" d="M940.33,-231.37C1038.01,-226.43 1333.45,-210.68 1589.85,-188.08"/>
<polygon fill="midnightblue" stroke="midnightblue" points="1590.46,-191.54 1600.11,-187.17 1589.84,-184.57 1590.46,-191.54"/>
</g>
<!-- Node35 -->
<g id="node35" class="node">
<title>Node35</title>
<g id="a_node35"><a xlink:title=" ">
<polygon fill="none" stroke="#bfbfbf" points="1760.69,-168.5 1760.69,-187.5 1897.69,-187.5 1897.69,-168.5 1760.69,-168.5"/>
<text text-anchor="middle" x="1829.19" y="-175.5" font-family="Helvetica,sans-Serif" font-size="10.00">ooo_cpu_module_def.inc</text>
</a>
</g>
</g>
<!-- Node6&#45;&gt;Node35 -->
<g id="edge51" class="edge">
<title>Node6&#45;&gt;Node35</title>
<path fill="none" stroke="midnightblue" d="M940.22,-231.97C1052.26,-228.33 1428.27,-214.83 1750.32,-188.02"/>
<polygon fill="midnightblue" stroke="midnightblue" points="1750.64,-191.5 1760.31,-187.18 1750.05,-184.53 1750.64,-191.5"/>
</g>
<!-- Node17 -->
<g id="node17" class="node">
<title>Node17</title>
<g id="a_node17"><a xlink:title=" ">
<polygon fill="none" stroke="#bfbfbf" points="881.19,-0.5 881.19,-19.5 931.19,-19.5 931.19,-0.5 881.19,-0.5"/>
<text text-anchor="middle" x="906.19" y="-7.5" font-family="Helvetica,sans-Serif" font-size="10.00">cstdint</text>
</a>
</g>
</g>
<!-- Node16&#45;&gt;Node17 -->
<g id="edge16" class="edge">
<title>Node16&#45;&gt;Node17</title>
<path fill="none" stroke="midnightblue" d="M858.31,-168.37C915.65,-151.27 1036.84,-111.64 1060.19,-76 1089.64,-31.06 995.93,-17.12 941.81,-12.85"/>
<polygon fill="midnightblue" stroke="midnightblue" points="941.79,-9.34 931.56,-12.12 941.29,-16.32 941.79,-9.34"/>
</g>
<!-- Node18 -->
<g id="node18" class="node">
<title>Node18</title>
<g id="a_node18"><a xlink:title=" ">
<polygon fill="none" stroke="#bfbfbf" points="795.69,-112.5 795.69,-131.5 860.69,-131.5 860.69,-112.5 795.69,-112.5"/>
<text text-anchor="middle" x="828.19" y="-119.5" font-family="Helvetica,sans-Serif" font-size="10.00">exception</text>
</a>
</g>
</g>
<!-- Node16&#45;&gt;Node18 -->
<g id="edge17" class="edge">
<title>Node16&#45;&gt;Node18</title>
<path fill="none" stroke="midnightblue" d="M828.19,-168.08C828.19,-161.01 828.19,-150.86 828.19,-141.99"/>
<polygon fill="midnightblue" stroke="midnightblue" points="831.69,-141.75 828.19,-131.75 824.69,-141.75 831.69,-141.75"/>
</g>
<!-- Node20&#45;&gt;Node7 -->
<g id="edge20" class="edge">
<title>Node20&#45;&gt;Node7</title>
<path fill="none" stroke="midnightblue" d="M228.95,-112.08C235.73,-104.3 245.74,-92.8 253.95,-83.37"/>
<polygon fill="midnightblue" stroke="midnightblue" points="256.65,-85.59 260.58,-75.75 251.37,-81 256.65,-85.59"/>
</g>
<!-- Node20&#45;&gt;Node9 -->
<g id="edge22" class="edge">
<title>Node20&#45;&gt;Node9</title>
<path fill="none" stroke="midnightblue" d="M192.04,-112.44C159.02,-102.75 105.31,-86.99 70.62,-76.81"/>
<polygon fill="midnightblue" stroke="midnightblue" points="71.53,-73.43 60.95,-73.97 69.55,-80.15 71.53,-73.43"/>
</g>
<!-- Node20&#45;&gt;Node10 -->
<g id="edge24" class="edge">
<title>Node20&#45;&gt;Node10</title>
<path fill="none" stroke="midnightblue" d="M189.06,-114.51C148.75,-104.97 87.79,-85.09 113.19,-56 151.73,-11.87 335.65,-9.37 411.44,-10.27"/>
<polygon fill="midnightblue" stroke="midnightblue" points="411.75,-13.78 421.8,-10.43 411.86,-6.78 411.75,-13.78"/>
</g>
<!-- Node20&#45;&gt;Node15 -->
<g id="edge25" class="edge">
<title>Node20&#45;&gt;Node15</title>
<path fill="none" stroke="midnightblue" d="M253.52,-116.58C327.1,-106.52 506.54,-81.99 581.94,-71.68"/>
<polygon fill="midnightblue" stroke="midnightblue" points="582.85,-75.09 592.28,-70.27 581.9,-68.16 582.85,-75.09"/>
</g>
<!-- Node20&#45;&gt;Node17 -->
<g id="edge21" class="edge">
<title>Node20&#45;&gt;Node17</title>
<path fill="none" stroke="midnightblue" d="M197.7,-112.39C168.64,-100.52 125.39,-78.07 146.19,-56 171.34,-29.32 724.14,-15.08 870.76,-11.76"/>
<polygon fill="midnightblue" stroke="midnightblue" points="871.07,-15.25 880.99,-11.53 870.91,-8.26 871.07,-15.25"/>
</g>
<!-- Node21 -->
<g id="node21" class="node">
<title>Node21</title>
<g id="a_node21"><a xlink:title=" ">
<polygon fill="none" stroke="#bfbfbf" points="307.69,-56.5 307.69,-75.5 372.69,-75.5 372.69,-56.5 307.69,-56.5"/>
<text text-anchor="middle" x="340.19" y="-63.5" font-family="Helvetica,sans-Serif" font-size="10.00">functional</text>
</a>
</g>
</g>
<!-- Node20&#45;&gt;Node21 -->
<g id="edge23" class="edge">
<title>Node20&#45;&gt;Node21</title>
<path fill="none" stroke="midnightblue" d="M240.05,-112.44C259.46,-103.64 289.92,-89.81 312.16,-79.72"/>
<polygon fill="midnightblue" stroke="midnightblue" points="313.76,-82.84 321.42,-75.52 310.87,-76.46 313.76,-82.84"/>
</g>
<!-- Node22 -->
<g id="node22" class="node">
<title>Node22</title>
<g id="a_node22"><a xlink:title=" ">
<polygon fill="none" stroke="#bfbfbf" points="155.69,-56.5 155.69,-75.5 228.69,-75.5 228.69,-56.5 155.69,-56.5"/>
<text text-anchor="middle" x="192.19" y="-63.5" font-family="Helvetica,sans-Serif" font-size="10.00">string_view</text>
</a>
</g>
</g>
<!-- Node20&#45;&gt;Node22 -->
<g id="edge26" class="edge">
<title>Node20&#45;&gt;Node22</title>
<path fill="none" stroke="midnightblue" d="M216.4,-112.08C212.43,-104.69 206.67,-93.95 201.76,-84.81"/>
<polygon fill="midnightblue" stroke="midnightblue" points="204.71,-82.91 196.89,-75.75 198.54,-86.22 204.71,-82.91"/>
</g>
<!-- Node23&#45;&gt;Node7 -->
<g id="edge29" class="edge">
<title>Node23&#45;&gt;Node7</title>
<path fill="none" stroke="midnightblue" d="M498.62,-114.87C451.34,-107.1 368.92,-92.67 299.19,-76 299.09,-75.98 298.99,-75.95 298.9,-75.93"/>
<polygon fill="midnightblue" stroke="midnightblue" points="300.03,-72.61 289.47,-73.47 298.26,-79.38 300.03,-72.61"/>
</g>
<!-- Node23&#45;&gt;Node10 -->
<g id="edge32" class="edge">
<title>Node23&#45;&gt;Node10</title>
<path fill="none" stroke="midnightblue" d="M534.74,-112.21C530.69,-98.93 521.62,-73.42 507.19,-56 496.78,-43.42 482.06,-32.64 469.46,-24.79"/>
<polygon fill="midnightblue" stroke="midnightblue" points="471.14,-21.72 460.76,-19.61 467.56,-27.73 471.14,-21.72"/>
</g>
<!-- Node23&#45;&gt;Node15 -->
<g id="edge33" class="edge">
<title>Node23&#45;&gt;Node15</title>
<path fill="none" stroke="midnightblue" d="M549.88,-112.32C562.09,-103.98 580.77,-91.21 595.2,-81.35"/>
<polygon fill="midnightblue" stroke="midnightblue" points="597.25,-84.19 603.53,-75.65 593.3,-78.41 597.25,-84.19"/>
</g>
<!-- Node23&#45;&gt;Node17 -->
<g id="edge30" class="edge">
<title>Node23&#45;&gt;Node17</title>
<path fill="none" stroke="midnightblue" d="M540.83,-112.07C547.24,-97.62 562,-69.36 584.19,-56 631.9,-27.29 797.33,-16.1 870.69,-12.48"/>
<polygon fill="midnightblue" stroke="midnightblue" points="871,-15.97 880.82,-12 870.66,-8.98 871,-15.97"/>
</g>
<!-- Node23&#45;&gt;Node21 -->
<g id="edge31" class="edge">
<title>Node23&#45;&gt;Node21</title>
<path fill="none" stroke="midnightblue" d="M505.98,-112.44C472.26,-103.2 418.39,-88.44 381.26,-78.26"/>
<polygon fill="midnightblue" stroke="midnightblue" points="381.83,-74.78 371.26,-75.52 379.98,-81.54 381.83,-74.78"/>
</g>
<!-- Node24 -->
<g id="node24" class="node">
<title>Node24</title>
<g id="a_node24"><a xlink:title=" ">
<polygon fill="none" stroke="#bfbfbf" points="658.19,-56.5 658.19,-75.5 722.19,-75.5 722.19,-56.5 658.19,-56.5"/>
<text text-anchor="middle" x="690.19" y="-63.5" font-family="Helvetica,sans-Serif" font-size="10.00">algorithm</text>
</a>
</g>
</g>
<!-- Node23&#45;&gt;Node24 -->
<g id="edge28" class="edge">
<title>Node23&#45;&gt;Node24</title>
<path fill="none" stroke="midnightblue" d="M561.44,-112.44C587.06,-103.4 627.68,-89.06 656.43,-78.92"/>
<polygon fill="midnightblue" stroke="midnightblue" points="657.8,-82.15 666.06,-75.52 655.47,-75.54 657.8,-82.15"/>
</g>
<!-- Node25 -->
<g id="node25" class="node">
<title>Node25</title>
<g id="a_node25"><a xlink:href="trace__instruction_8h.html" target="_top" xlink:title=" ">
<polygon fill="none" stroke="black" points="390.69,-56.5 390.69,-75.5 497.69,-75.5 497.69,-56.5 390.69,-56.5"/>
<text text-anchor="middle" x="444.19" y="-63.5" font-family="Helvetica,sans-Serif" font-size="10.00">trace_instruction.h</text>
</a>
</g>
</g>
<!-- Node23&#45;&gt;Node25 -->
<g id="edge34" class="edge">
<title>Node23&#45;&gt;Node25</title>
<path fill="none" stroke="midnightblue" d="M522.25,-112.32C507.61,-103.82 485.06,-90.73 467.95,-80.8"/>
<polygon fill="midnightblue" stroke="midnightblue" points="469.5,-77.65 459.1,-75.65 465.99,-83.7 469.5,-77.65"/>
</g>
<!-- Node25&#45;&gt;Node10 -->
<g id="edge35" class="edge">
<title>Node25&#45;&gt;Node10</title>
<path fill="none" stroke="midnightblue" d="M444.19,-56.08C444.19,-49.01 444.19,-38.86 444.19,-29.99"/>
<polygon fill="midnightblue" stroke="midnightblue" points="447.69,-29.75 444.19,-19.75 440.69,-29.75 447.69,-29.75"/>
</g>
<!-- Node29 -->
<g id="node29" class="node">
<title>Node29</title>
<g id="a_node29"><a xlink:href="msl_2lru__table_8h.html" target="_top" xlink:title=" ">
<polygon fill="none" stroke="black" points="645.69,-112.5 645.69,-131.5 734.69,-131.5 734.69,-112.5 645.69,-112.5"/>
<text text-anchor="middle" x="690.19" y="-119.5" font-family="Helvetica,sans-Serif" font-size="10.00">msl/lru_table.h</text>
</a>
</g>
</g>
<!-- Node28&#45;&gt;Node29 -->
<g id="edge39" class="edge">
<title>Node28&#45;&gt;Node29</title>
<path fill="none" stroke="midnightblue" d="M689.36,-168.08C689.49,-161.01 689.68,-150.86 689.84,-141.99"/>
<polygon fill="midnightblue" stroke="midnightblue" points="693.34,-141.81 690.03,-131.75 686.35,-141.68 693.34,-141.81"/>
</g>
<!-- Node29&#45;&gt;Node12 -->
<g id="edge43" class="edge">
<title>Node29&#45;&gt;Node12</title>
<path fill="none" stroke="midnightblue" d="M734.93,-114.15C813.52,-102.11 969.2,-78.21 981.19,-76 982.43,-75.77 983.69,-75.53 984.95,-75.29"/>
<polygon fill="midnightblue" stroke="midnightblue" points="985.65,-78.72 994.77,-73.32 984.28,-71.86 985.65,-78.72"/>
</g>
<!-- Node29&#45;&gt;Node15 -->
<g id="edge45" class="edge">
<title>Node29&#45;&gt;Node15</title>
<path fill="none" stroke="midnightblue" d="M678.3,-112.32C667.04,-104.11 649.91,-91.6 636.48,-81.81"/>
<polygon fill="midnightblue" stroke="midnightblue" points="638.44,-78.9 628.3,-75.83 634.31,-84.56 638.44,-78.9"/>
</g>
<!-- Node29&#45;&gt;Node17 -->
<g id="edge42" class="edge">
<title>Node29&#45;&gt;Node17</title>
<path fill="none" stroke="midnightblue" d="M734.7,-113.98C807.59,-102.38 944.76,-80.08 948.19,-76 961.52,-60.15 943.57,-39.82 927.18,-26.16"/>
<polygon fill="midnightblue" stroke="midnightblue" points="928.95,-23.1 918.92,-19.67 924.63,-28.6 928.95,-23.1"/>
</g>
<!-- Node29&#45;&gt;Node24 -->
<g id="edge40" class="edge">
<title>Node29&#45;&gt;Node24</title>
<path fill="none" stroke="midnightblue" d="M690.19,-112.08C690.19,-105.01 690.19,-94.86 690.19,-85.99"/>
<polygon fill="midnightblue" stroke="midnightblue" points="693.69,-85.75 690.19,-75.75 686.69,-85.75 693.69,-85.75"/>
</g>
<!-- Node30 -->
<g id="node30" class="node">
<title>Node30</title>
<g id="a_node30"><a xlink:title=" ">
<polygon fill="none" stroke="#bfbfbf" points="740.19,-56.5 740.19,-75.5 792.19,-75.5 792.19,-56.5 740.19,-56.5"/>
<text text-anchor="middle" x="766.19" y="-63.5" font-family="Helvetica,sans-Serif" font-size="10.00">cassert</text>
</a>
</g>
</g>
<!-- Node29&#45;&gt;Node30 -->
<g id="edge41" class="edge">
<title>Node29&#45;&gt;Node30</title>
<path fill="none" stroke="midnightblue" d="M702.4,-112.32C713.97,-104.11 731.57,-91.6 745.35,-81.81"/>
<polygon fill="midnightblue" stroke="midnightblue" points="747.63,-84.48 753.76,-75.83 743.58,-78.77 747.63,-84.48"/>
</g>
<!-- Node31 -->
<g id="node31" class="node">
<title>Node31</title>
<g id="a_node31"><a xlink:title=" ">
<polygon fill="none" stroke="#bfbfbf" points="810.69,-56.5 810.69,-75.5 855.69,-75.5 855.69,-56.5 810.69,-56.5"/>
<text text-anchor="middle" x="833.19" y="-63.5" font-family="Helvetica,sans-Serif" font-size="10.00">utility</text>
</a>
</g>
</g>
<!-- Node29&#45;&gt;Node31 -->
<g id="edge44" class="edge">
<title>Node29&#45;&gt;Node31</title>
<path fill="none" stroke="midnightblue" d="M712.85,-112.44C736.59,-103.48 774.1,-89.31 800.93,-79.18"/>
<polygon fill="midnightblue" stroke="midnightblue" points="802.52,-82.32 810.64,-75.52 800.05,-75.77 802.52,-82.32"/>
</g>
<!-- Node32 -->
<g id="node32" class="node">
<title>Node32</title>
<g id="a_node32"><a xlink:href="msl_2bits_8h.html" target="_top" xlink:title=" ">
<polygon fill="none" stroke="black" points="873.69,-56.5 873.69,-75.5 938.69,-75.5 938.69,-56.5 873.69,-56.5"/>
<text text-anchor="middle" x="906.19" y="-63.5" font-family="Helvetica,sans-Serif" font-size="10.00">msl/bits.h</text>
</a>
</g>
</g>
<!-- Node29&#45;&gt;Node32 -->
<g id="edge46" class="edge">
<title>Node29&#45;&gt;Node32</title>
<path fill="none" stroke="midnightblue" d="M724.42,-112.44C762.14,-103.01 822.87,-87.83 863.63,-77.64"/>
<polygon fill="midnightblue" stroke="midnightblue" points="864.69,-80.98 873.54,-75.16 862.99,-74.19 864.69,-80.98"/>
</g>
<!-- Node32&#45;&gt;Node10 -->
<g id="edge48" class="edge">
<title>Node32&#45;&gt;Node10</title>
<path fill="none" stroke="midnightblue" d="M873.58,-57.5C870.75,-56.96 867.93,-56.44 865.19,-56 720.96,-32.53 546.86,-18.38 476.26,-13.22"/>
<polygon fill="midnightblue" stroke="midnightblue" points="476.45,-9.73 466.22,-12.5 475.94,-16.71 476.45,-9.73"/>
</g>
<!-- Node32&#45;&gt;Node17 -->
<g id="edge47" class="edge">
<title>Node32&#45;&gt;Node17</title>
<path fill="none" stroke="midnightblue" d="M906.19,-56.08C906.19,-49.01 906.19,-38.86 906.19,-29.99"/>
<polygon fill="midnightblue" stroke="midnightblue" points="909.69,-29.75 906.19,-19.75 902.69,-29.75 909.69,-29.75"/>
</g>
</g>
</svg>
