<?xml version="1.0" encoding="UTF-8" standalone="no"?>
<!DOCTYPE svg PUBLIC "-//W3C//DTD SVG 1.1//EN"
 "http://www.w3.org/Graphics/SVG/1.1/DTD/svg11.dtd">
<!-- Generated by graphviz version 2.43.0 (0)
 -->
<!-- Title: inc/inf_stream.h Pages: 1 -->
<svg width="286pt" height="95pt"
 viewBox="0.00 0.00 286.00 95.00" xmlns="http://www.w3.org/2000/svg" xmlns:xlink="http://www.w3.org/1999/xlink">
<g id="graph0" class="graph" transform="scale(1 1) rotate(0) translate(4 91)">
<title>inc/inf_stream.h</title>
<!-- Node1 -->
<g id="node1" class="node">
<title>Node1</title>
<g id="a_node1"><a xlink:title=" ">
<polygon fill="#bfbfbf" stroke="black" points="78,-67.5 78,-86.5 173,-86.5 173,-67.5 78,-67.5"/>
<text text-anchor="middle" x="125.5" y="-74.5" font-family="Helvetica,sans-Serif" font-size="10.00">inc/inf_stream.h</text>
</a>
</g>
</g>
<!-- Node2 -->
<g id="node2" class="node">
<title>Node2</title>
<g id="a_node2"><a xlink:href="tracereader_8cc.html" target="_top" xlink:title=" ">
<polygon fill="none" stroke="black" points="0,-6 0,-25 103,-25 103,-6 0,-6"/>
<text text-anchor="middle" x="51.5" y="-13" font-family="Helvetica,sans-Serif" font-size="10.00">src/tracereader.cc</text>
</a>
</g>
</g>
<!-- Node1&#45;&gt;Node2 -->
<g id="edge1" class="edge">
<title>Node1&#45;&gt;Node2</title>
<path fill="none" stroke="midnightblue" d="M106.81,-60.97C92.66,-49.59 73.72,-34.37 62.08,-25.01"/>
<polygon fill="midnightblue" stroke="midnightblue" points="104.91,-63.94 114.9,-67.48 109.3,-58.48 104.91,-63.94"/>
</g>
<!-- Node3 -->
<g id="node3" class="node">
<title>Node3</title>
<g id="a_node3"><a xlink:href="083-decompress-stream_8cc.html" target="_top" xlink:title=" ">
<polygon fill="none" stroke="black" points="121,-0.5 121,-30.5 278,-30.5 278,-0.5 121,-0.5"/>
<text text-anchor="start" x="129" y="-18.5" font-family="Helvetica,sans-Serif" font-size="10.00">test/cpp/src/083&#45;decompress</text>
<text text-anchor="middle" x="199.5" y="-7.5" font-family="Helvetica,sans-Serif" font-size="10.00">&#45;stream.cc</text>
</a>
</g>
</g>
<!-- Node1&#45;&gt;Node3 -->
<g id="edge2" class="edge">
<title>Node1&#45;&gt;Node3</title>
<path fill="none" stroke="midnightblue" d="M143.91,-61.2C155.58,-51.81 170.58,-39.75 182.06,-30.52"/>
<polygon fill="midnightblue" stroke="midnightblue" points="141.7,-58.48 136.1,-67.48 146.09,-63.94 141.7,-58.48"/>
</g>
</g>
</svg>
