<?xml version="1.0" encoding="UTF-8" standalone="no"?>
<!DOCTYPE svg PUBLIC "-//W3C//DTD SVG 1.1//EN"
 "http://www.w3.org/Graphics/SVG/1.1/DTD/svg11.dtd">
<!-- Generated by graphviz version 2.43.0 (0)
 -->
<!-- Title: Graphical Class Hierarchy Pages: 1 -->
<svg width="361pt" height="104pt"
 viewBox="0.00 0.00 361.00 104.00" xmlns="http://www.w3.org/2000/svg" xmlns:xlink="http://www.w3.org/1999/xlink">
<g id="graph0" class="graph" transform="scale(1 1) rotate(0) translate(4 100)">
<title>Graphical Class Hierarchy</title>
<!-- Node53 -->
<g id="node1" class="node">
<title>Node53</title>
<g id="a_node1"><a xlink:title=" ">
<polygon fill="none" stroke="#bfbfbf" points="0,-33 0,-63 141,-63 141,-33 0,-33"/>
<text text-anchor="start" x="8" y="-51" font-family="Helvetica,sans-Serif" font-size="10.00">Catch::Matchers::Matcher</text>
<text text-anchor="middle" x="70.5" y="-40" font-family="Helvetica,sans-Serif" font-size="10.00">GenericBase</text>
</a>
</g>
</g>
<!-- Node0 -->
<g id="node2" class="node">
<title>Node0</title>
<g id="a_node2"><a xlink:href="structAdjDiffMatcher.html" target="_top" xlink:title=" ">
<polygon fill="none" stroke="black" points="220.5,-76.5 220.5,-95.5 309.5,-95.5 309.5,-76.5 220.5,-76.5"/>
<text text-anchor="middle" x="265" y="-83.5" font-family="Helvetica,sans-Serif" font-size="10.00">AdjDiffMatcher</text>
</a>
</g>
</g>
<!-- Node53&#45;&gt;Node0 -->
<g id="edge1" class="edge">
<title>Node53&#45;&gt;Node0</title>
<path fill="none" stroke="midnightblue" d="M151.31,-63.76C174.99,-68.43 200.03,-73.37 220.47,-77.41"/>
<polygon fill="midnightblue" stroke="midnightblue" points="151.76,-60.28 141.27,-61.77 150.4,-67.14 151.76,-60.28"/>
</g>
<!-- Node55 -->
<g id="node3" class="node">
<title>Node55</title>
<g id="a_node3"><a xlink:href="structMonotonicallyIncreasingMatcher.html" target="_top" xlink:title=" ">
<polygon fill="none" stroke="black" points="177,-38.5 177,-57.5 353,-57.5 353,-38.5 177,-38.5"/>
<text text-anchor="middle" x="265" y="-45.5" font-family="Helvetica,sans-Serif" font-size="10.00">MonotonicallyIncreasingMatcher</text>
</a>
</g>
</g>
<!-- Node53&#45;&gt;Node55 -->
<g id="edge2" class="edge">
<title>Node53&#45;&gt;Node55</title>
<path fill="none" stroke="midnightblue" d="M151.37,-48C159.74,-48 168.28,-48 176.72,-48"/>
<polygon fill="midnightblue" stroke="midnightblue" points="151.27,-44.5 141.27,-48 151.27,-51.5 151.27,-44.5"/>
</g>
<!-- Node56 -->
<g id="node4" class="node">
<title>Node56</title>
<g id="a_node4"><a xlink:href="structStrideMatcher.html" target="_top" xlink:title=" ">
<polygon fill="none" stroke="black" points="222.5,-0.5 222.5,-19.5 307.5,-19.5 307.5,-0.5 222.5,-0.5"/>
<text text-anchor="middle" x="265" y="-7.5" font-family="Helvetica,sans-Serif" font-size="10.00">StrideMatcher</text>
</a>
</g>
</g>
<!-- Node53&#45;&gt;Node56 -->
<g id="edge3" class="edge">
<title>Node53&#45;&gt;Node56</title>
<path fill="none" stroke="midnightblue" d="M151.28,-32.25C175.73,-27.42 201.65,-22.31 222.45,-18.2"/>
<polygon fill="midnightblue" stroke="midnightblue" points="150.4,-28.86 141.27,-34.23 151.76,-35.72 150.4,-28.86"/>
</g>
</g>
</svg>
