<?xml version="1.0" encoding="UTF-8" standalone="no"?>
<!DOCTYPE svg PUBLIC "-//W3C//DTD SVG 1.1//EN"
 "http://www.w3.org/Graphics/SVG/1.1/DTD/svg11.dtd">
<!-- Generated by graphviz version 2.43.0 (0)
 -->
<!-- Title: Graphical Class Hierarchy Pages: 1 -->
<svg width="299pt" height="66pt"
 viewBox="0.00 0.00 299.00 66.00" xmlns="http://www.w3.org/2000/svg" xmlns:xlink="http://www.w3.org/1999/xlink">
<g id="graph0" class="graph" transform="scale(1 1) rotate(0) translate(4 62)">
<title>Graphical Class Hierarchy</title>
<!-- Node0 -->
<g id="node1" class="node">
<title>Node0</title>
<g id="a_node1"><a xlink:href="structchampsim_1_1channel_1_1request.html" target="_top" xlink:title=" ">
<polygon fill="none" stroke="black" points="0,-14 0,-44 118,-44 118,-14 0,-14"/>
<text text-anchor="start" x="8" y="-32" font-family="Helvetica,sans-Serif" font-size="10.00">champsim::channel::</text>
<text text-anchor="middle" x="59" y="-21" font-family="Helvetica,sans-Serif" font-size="10.00">request</text>
</a>
</g>
</g>
<!-- Node1 -->
<g id="node2" class="node">
<title>Node1</title>
<g id="a_node2"><a xlink:href="structdo__nothing__MRC_1_1packet.html" target="_top" xlink:title=" ">
<polygon fill="none" stroke="black" points="154,-38.5 154,-57.5 291,-57.5 291,-38.5 154,-38.5"/>
<text text-anchor="middle" x="222.5" y="-45.5" font-family="Helvetica,sans-Serif" font-size="10.00">do_nothing_MRC::packet</text>
</a>
</g>
</g>
<!-- Node0&#45;&gt;Node1 -->
<g id="edge1" class="edge">
<title>Node0&#45;&gt;Node1</title>
<path fill="none" stroke="midnightblue" d="M128.48,-37.06C136.91,-38.05 145.53,-39.06 153.95,-40.05"/>
<polygon fill="midnightblue" stroke="midnightblue" points="128.65,-33.55 118.31,-35.86 127.83,-40.5 128.65,-33.55"/>
</g>
<!-- Node2 -->
<g id="node3" class="node">
<title>Node2</title>
<g id="a_node3"><a xlink:href="structfilter__MRC_1_1packet.html" target="_top" xlink:title=" ">
<polygon fill="none" stroke="black" points="170,-0.5 170,-19.5 275,-19.5 275,-0.5 170,-0.5"/>
<text text-anchor="middle" x="222.5" y="-7.5" font-family="Helvetica,sans-Serif" font-size="10.00">filter_MRC::packet</text>
</a>
</g>
</g>
<!-- Node0&#45;&gt;Node2 -->
<g id="edge2" class="edge">
<title>Node0&#45;&gt;Node2</title>
<path fill="none" stroke="midnightblue" d="M128.34,-20.96C142.29,-19.32 156.73,-17.62 169.97,-16.06"/>
<polygon fill="midnightblue" stroke="midnightblue" points="127.83,-17.5 118.31,-22.14 128.65,-24.45 127.83,-17.5"/>
</g>
</g>
</svg>
