<?xml version="1.0" encoding="UTF-8" standalone="no"?>
<!DOCTYPE svg PUBLIC "-//W3C//DTD SVG 1.1//EN"
 "http://www.w3.org/Graphics/SVG/1.1/DTD/svg11.dtd">
<!-- Generated by graphviz version 2.43.0 (0)
 -->
<!-- Title: Graphical Class Hierarchy Pages: 1 -->
<svg width="335pt" height="1107pt"
 viewBox="0.00 0.00 335.00 1107.00" xmlns="http://www.w3.org/2000/svg" xmlns:xlink="http://www.w3.org/1999/xlink">
<g id="graph0" class="graph" transform="scale(1 1) rotate(0) translate(4 1103)">
<title>Graphical Class Hierarchy</title>
<!-- Node108 -->
<g id="node1" class="node">
<title>Node108</title>
<g id="a_node1"><a xlink:title=" ">
<polygon fill="none" stroke="#bfbfbf" points="0,-535 0,-554 101,-554 101,-535 0,-535"/>
<text text-anchor="middle" x="50.5" y="-542" font-family="Helvetica,sans-Serif" font-size="10.00">unittest.TestCase</text>
</a>
</g>
</g>
<!-- Node0 -->
<g id="node2" class="node">
<title>Node0</title>
<g id="a_node2"><a xlink:href="classpython_1_1test__defaults_1_1DTLBPathTests.html" target="_top" xlink:title=" ">
<polygon fill="none" stroke="black" points="148.5,-1068.5 148.5,-1098.5 315.5,-1098.5 315.5,-1068.5 148.5,-1068.5"/>
<text text-anchor="start" x="156.5" y="-1086.5" font-family="Helvetica,sans-Serif" font-size="10.00">python.test_defaults.DTLBPath</text>
<text text-anchor="middle" x="232" y="-1075.5" font-family="Helvetica,sans-Serif" font-size="10.00">Tests</text>
</a>
</g>
</g>
<!-- Node108&#45;&gt;Node0 -->
<g id="edge1" class="edge">
<title>Node108&#45;&gt;Node0</title>
<path fill="none" stroke="midnightblue" d="M52,-564.53C54.53,-650.24 68.73,-985.14 137,-1059.5 140.3,-1063.1 144.06,-1066.19 148.14,-1068.84"/>
<polygon fill="midnightblue" stroke="midnightblue" points="55.49,-564.24 51.72,-554.34 48.49,-564.43 55.49,-564.24"/>
</g>
<!-- Node110 -->
<g id="node3" class="node">
<title>Node110</title>
<g id="a_node3"><a xlink:href="classpython_1_1test__defaults_1_1ITLBPathTests.html" target="_top" xlink:title=" ">
<polygon fill="none" stroke="black" points="151,-1019.5 151,-1049.5 313,-1049.5 313,-1019.5 151,-1019.5"/>
<text text-anchor="start" x="159" y="-1037.5" font-family="Helvetica,sans-Serif" font-size="10.00">python.test_defaults.ITLBPath</text>
<text text-anchor="middle" x="232" y="-1026.5" font-family="Helvetica,sans-Serif" font-size="10.00">Tests</text>
</a>
</g>
</g>
<!-- Node108&#45;&gt;Node110 -->
<g id="edge2" class="edge">
<title>Node108&#45;&gt;Node110</title>
<path fill="none" stroke="midnightblue" d="M52.37,-564.39C56.3,-644.71 74.94,-944.03 137,-1010.5 141.02,-1014.81 145.7,-1018.39 150.79,-1021.36"/>
<polygon fill="midnightblue" stroke="midnightblue" points="55.86,-564.01 51.9,-554.18 48.87,-564.33 55.86,-564.01"/>
</g>
<!-- Node111 -->
<g id="node4" class="node">
<title>Node111</title>
<g id="a_node4"><a xlink:href="classpython_1_1test__defaults_1_1L1DPathTests.html" target="_top" xlink:title=" ">
<polygon fill="none" stroke="black" points="152,-970.5 152,-1000.5 312,-1000.5 312,-970.5 152,-970.5"/>
<text text-anchor="start" x="160" y="-988.5" font-family="Helvetica,sans-Serif" font-size="10.00">python.test_defaults.L1DPath</text>
<text text-anchor="middle" x="232" y="-977.5" font-family="Helvetica,sans-Serif" font-size="10.00">Tests</text>
</a>
</g>
</g>
<!-- Node108&#45;&gt;Node111 -->
<g id="edge3" class="edge">
<title>Node108&#45;&gt;Node111</title>
<path fill="none" stroke="midnightblue" d="M52.86,-564.66C58.33,-639.89 81.21,-902.98 137,-961.5 141.3,-966.01 146.32,-969.72 151.76,-972.76"/>
<polygon fill="midnightblue" stroke="midnightblue" points="56.32,-563.98 52.13,-554.25 49.34,-564.47 56.32,-563.98"/>
</g>
<!-- Node112 -->
<g id="node5" class="node">
<title>Node112</title>
<g id="a_node5"><a xlink:href="classpython_1_1test__defaults_1_1L1IPathTests.html" target="_top" xlink:title=" ">
<polygon fill="none" stroke="black" points="154.5,-921.5 154.5,-951.5 309.5,-951.5 309.5,-921.5 154.5,-921.5"/>
<text text-anchor="start" x="162.5" y="-939.5" font-family="Helvetica,sans-Serif" font-size="10.00">python.test_defaults.L1IPath</text>
<text text-anchor="middle" x="232" y="-928.5" font-family="Helvetica,sans-Serif" font-size="10.00">Tests</text>
</a>
</g>
</g>
<!-- Node108&#45;&gt;Node112 -->
<g id="edge4" class="edge">
<title>Node108&#45;&gt;Node112</title>
<path fill="none" stroke="midnightblue" d="M53.43,-564.48C60.53,-633.69 87.35,-861.76 137,-912.5 141.95,-917.56 147.8,-921.6 154.13,-924.83"/>
<polygon fill="midnightblue" stroke="midnightblue" points="56.88,-563.73 52.4,-554.13 49.91,-564.42 56.88,-563.73"/>
</g>
<!-- Node113 -->
<g id="node6" class="node">
<title>Node113</title>
<g id="a_node6"><a xlink:href="classpython_1_1test__filewrite_1_1FilesAreDifferentTests.html" target="_top" xlink:title=" ">
<polygon fill="none" stroke="black" points="160.5,-872.5 160.5,-902.5 303.5,-902.5 303.5,-872.5 160.5,-872.5"/>
<text text-anchor="start" x="168.5" y="-890.5" font-family="Helvetica,sans-Serif" font-size="10.00">python.test_filewrite.Files</text>
<text text-anchor="middle" x="232" y="-879.5" font-family="Helvetica,sans-Serif" font-size="10.00">AreDifferentTests</text>
</a>
</g>
</g>
<!-- Node108&#45;&gt;Node113 -->
<g id="edge5" class="edge">
<title>Node108&#45;&gt;Node113</title>
<path fill="none" stroke="midnightblue" d="M54.16,-564.22C63.02,-626.98 93.42,-820.44 137,-863.5 143.59,-870.01 151.69,-874.83 160.34,-878.39"/>
<polygon fill="midnightblue" stroke="midnightblue" points="57.6,-563.52 52.76,-554.09 50.66,-564.48 57.6,-563.52"/>
</g>
<!-- Node114 -->
<g id="node7" class="node">
<title>Node114</title>
<g id="a_node7"><a xlink:href="classpython_1_1test__instantiation__file_1_1VectorStringgTest.html" target="_top" xlink:title=" ">
<polygon fill="none" stroke="black" points="162.5,-823.5 162.5,-853.5 301.5,-853.5 301.5,-823.5 162.5,-823.5"/>
<text text-anchor="start" x="170.5" y="-841.5" font-family="Helvetica,sans-Serif" font-size="10.00">python.test_instantiation</text>
<text text-anchor="middle" x="232" y="-830.5" font-family="Helvetica,sans-Serif" font-size="10.00">_file.VectorStringgTest</text>
</a>
</g>
</g>
<!-- Node108&#45;&gt;Node114 -->
<g id="edge6" class="edge">
<title>Node108&#45;&gt;Node114</title>
<path fill="none" stroke="midnightblue" d="M51.6,-564.11C52.98,-613.74 63.72,-745.26 137,-814.5 144.1,-821.21 152.81,-826.11 162.03,-829.68"/>
<polygon fill="midnightblue" stroke="midnightblue" points="55.1,-564.01 51.43,-554.08 48.1,-564.14 55.1,-564.01"/>
</g>
<!-- Node115 -->
<g id="node8" class="node">
<title>Node115</title>
<g id="a_node8"><a xlink:href="classpython_1_1test__makefile_1_1EachInDictListTests.html" target="_top" xlink:title=" ">
<polygon fill="none" stroke="black" points="159,-774.5 159,-804.5 305,-804.5 305,-774.5 159,-774.5"/>
<text text-anchor="start" x="167" y="-792.5" font-family="Helvetica,sans-Serif" font-size="10.00">python.test_makefile.Each</text>
<text text-anchor="middle" x="232" y="-781.5" font-family="Helvetica,sans-Serif" font-size="10.00">InDictListTests</text>
</a>
</g>
</g>
<!-- Node108&#45;&gt;Node115 -->
<g id="edge7" class="edge">
<title>Node108&#45;&gt;Node115</title>
<path fill="none" stroke="midnightblue" d="M53.21,-564.28C58.03,-607.55 75.71,-711.11 137,-765.5 143.3,-771.09 150.72,-775.41 158.59,-778.75"/>
<polygon fill="midnightblue" stroke="midnightblue" points="56.68,-563.8 52.2,-554.2 49.71,-564.5 56.68,-563.8"/>
</g>
<!-- Node116 -->
<g id="node9" class="node">
<title>Node116</title>
<g id="a_node9"><a xlink:href="classpython_1_1test__parse_1_1CompileAllModulesTests.html" target="_top" xlink:title=" ">
<polygon fill="none" stroke="black" points="158,-725.5 158,-755.5 306,-755.5 306,-725.5 158,-725.5"/>
<text text-anchor="start" x="166" y="-743.5" font-family="Helvetica,sans-Serif" font-size="10.00">python.test_parse.Compile</text>
<text text-anchor="middle" x="232" y="-732.5" font-family="Helvetica,sans-Serif" font-size="10.00">AllModulesTests</text>
</a>
</g>
</g>
<!-- Node108&#45;&gt;Node116 -->
<g id="edge8" class="edge">
<title>Node108&#45;&gt;Node116</title>
<path fill="none" stroke="midnightblue" d="M55.62,-564.22C64.18,-600.19 87.39,-676.4 137,-716.5 143.16,-721.48 150.22,-725.43 157.65,-728.58"/>
<polygon fill="midnightblue" stroke="midnightblue" points="58.94,-563.05 53.34,-554.06 52.11,-564.58 58.94,-563.05"/>
</g>
<!-- Node117 -->
<g id="node10" class="node">
<title>Node117</title>
<g id="a_node10"><a xlink:href="classpython_1_1test__parse_1_1ConfigRootPassthroughParseTests.html" target="_top" xlink:title=" ">
<polygon fill="none" stroke="black" points="157.5,-676.5 157.5,-706.5 306.5,-706.5 306.5,-676.5 157.5,-676.5"/>
<text text-anchor="start" x="165.5" y="-694.5" font-family="Helvetica,sans-Serif" font-size="10.00">python.test_parse.Config</text>
<text text-anchor="middle" x="232" y="-683.5" font-family="Helvetica,sans-Serif" font-size="10.00">RootPassthroughParseTests</text>
</a>
</g>
</g>
<!-- Node108&#45;&gt;Node117 -->
<g id="edge9" class="edge">
<title>Node108&#45;&gt;Node117</title>
<path fill="none" stroke="midnightblue" d="M59.46,-563.53C71.89,-590.84 98.54,-640.81 137,-667.5 143.23,-671.82 150.17,-675.36 157.38,-678.27"/>
<polygon fill="midnightblue" stroke="midnightblue" points="62.62,-562.01 55.4,-554.26 56.21,-564.83 62.62,-562.01"/>
</g>
<!-- Node118 -->
<g id="node11" class="node">
<title>Node118</title>
<g id="a_node11"><a xlink:href="classpython_1_1test__parse_1_1DuplicateToLengthTests.html" target="_top" xlink:title=" ">
<polygon fill="none" stroke="black" points="155,-627.5 155,-657.5 309,-657.5 309,-627.5 155,-627.5"/>
<text text-anchor="start" x="163" y="-645.5" font-family="Helvetica,sans-Serif" font-size="10.00">python.test_parse.Duplicate</text>
<text text-anchor="middle" x="232" y="-634.5" font-family="Helvetica,sans-Serif" font-size="10.00">ToLengthTests</text>
</a>
</g>
</g>
<!-- Node108&#45;&gt;Node118 -->
<g id="edge10" class="edge">
<title>Node108&#45;&gt;Node118</title>
<path fill="none" stroke="midnightblue" d="M66.6,-561.55C82.49,-578.46 109.04,-603.88 137,-618.5 143.57,-621.93 150.65,-624.9 157.89,-627.45"/>
<polygon fill="midnightblue" stroke="midnightblue" points="69.03,-559.03 59.7,-554.02 63.87,-563.76 69.03,-559.03"/>
</g>
<!-- Node119 -->
<g id="node12" class="node">
<title>Node119</title>
<g id="a_node12"><a xlink:href="classpython_1_1test__parse_1_1EnvironmentParseTests.html" target="_top" xlink:title=" ">
<polygon fill="none" stroke="black" points="147,-578.5 147,-608.5 317,-608.5 317,-578.5 147,-578.5"/>
<text text-anchor="start" x="155" y="-596.5" font-family="Helvetica,sans-Serif" font-size="10.00">python.test_parse.Environment</text>
<text text-anchor="middle" x="232" y="-585.5" font-family="Helvetica,sans-Serif" font-size="10.00">ParseTests</text>
</a>
</g>
</g>
<!-- Node108&#45;&gt;Node119 -->
<g id="edge11" class="edge">
<title>Node108&#45;&gt;Node119</title>
<path fill="none" stroke="midnightblue" d="M92.92,-556.92C106.89,-561.03 122.6,-565.56 137,-569.5 147.88,-572.48 159.51,-575.54 170.74,-578.44"/>
<polygon fill="midnightblue" stroke="midnightblue" points="93.68,-553.5 83.1,-554.02 91.7,-560.21 93.68,-553.5"/>
</g>
<!-- Node120 -->
<g id="node13" class="node">
<title>Node120</title>
<g id="a_node13"><a xlink:href="classpython_1_1test__parse_1_1ExecutableNameTests.html" target="_top" xlink:title=" ">
<polygon fill="none" stroke="black" points="151.5,-529.5 151.5,-559.5 312.5,-559.5 312.5,-529.5 151.5,-529.5"/>
<text text-anchor="start" x="159.5" y="-547.5" font-family="Helvetica,sans-Serif" font-size="10.00">python.test_parse.Executable</text>
<text text-anchor="middle" x="232" y="-536.5" font-family="Helvetica,sans-Serif" font-size="10.00">NameTests</text>
</a>
</g>
</g>
<!-- Node108&#45;&gt;Node120 -->
<g id="edge12" class="edge">
<title>Node108&#45;&gt;Node120</title>
<path fill="none" stroke="midnightblue" d="M111.12,-544.5C123.99,-544.5 137.8,-544.5 151.3,-544.5"/>
<polygon fill="midnightblue" stroke="midnightblue" points="111.02,-541 101.02,-544.5 111.02,-548 111.02,-541"/>
</g>
<!-- Node121 -->
<g id="node14" class="node">
<title>Node121</title>
<g id="a_node14"><a xlink:href="classpython_1_1test__parse_1_1FilterInaccessibleTests.html" target="_top" xlink:title=" ">
<polygon fill="none" stroke="black" points="166,-480.5 166,-510.5 298,-510.5 298,-480.5 166,-480.5"/>
<text text-anchor="start" x="174" y="-498.5" font-family="Helvetica,sans-Serif" font-size="10.00">python.test_parse.Filter</text>
<text text-anchor="middle" x="232" y="-487.5" font-family="Helvetica,sans-Serif" font-size="10.00">InaccessibleTests</text>
</a>
</g>
</g>
<!-- Node108&#45;&gt;Node121 -->
<g id="edge13" class="edge">
<title>Node108&#45;&gt;Node121</title>
<path fill="none" stroke="midnightblue" d="M95.12,-532.13C108.54,-528.36 123.37,-524.22 137,-520.5 148.89,-517.25 161.64,-513.82 173.8,-510.58"/>
<polygon fill="midnightblue" stroke="midnightblue" points="93.85,-528.85 85.18,-534.93 95.75,-535.59 93.85,-528.85"/>
</g>
<!-- Node122 -->
<g id="node15" class="node">
<title>Node122</title>
<g id="a_node15"><a xlink:href="classpython_1_1test__parse_1_1NormalizeConfigTest.html" target="_top" xlink:title=" ">
<polygon fill="none" stroke="black" points="153,-431.5 153,-461.5 311,-461.5 311,-431.5 153,-431.5"/>
<text text-anchor="start" x="161" y="-449.5" font-family="Helvetica,sans-Serif" font-size="10.00">python.test_parse.Normalize</text>
<text text-anchor="middle" x="232" y="-438.5" font-family="Helvetica,sans-Serif" font-size="10.00">ConfigTest</text>
</a>
</g>
</g>
<!-- Node108&#45;&gt;Node122 -->
<g id="edge14" class="edge">
<title>Node108&#45;&gt;Node122</title>
<path fill="none" stroke="midnightblue" d="M66.93,-527.48C82.91,-510.85 109.38,-486 137,-471.5 144.33,-467.65 152.29,-464.37 160.38,-461.56"/>
<polygon fill="midnightblue" stroke="midnightblue" points="64.26,-525.21 59.97,-534.89 69.37,-530 64.26,-525.21"/>
</g>
<!-- Node123 -->
<g id="node16" class="node">
<title>Node123</title>
<g id="a_node16"><a xlink:href="classpython_1_1test__parse_1_1ParseNormalizedTests.html" target="_top" xlink:title=" ">
<polygon fill="none" stroke="black" points="137,-382.5 137,-412.5 327,-412.5 327,-382.5 137,-382.5"/>
<text text-anchor="start" x="145" y="-400.5" font-family="Helvetica,sans-Serif" font-size="10.00">python.test_parse.ParseNormalized</text>
<text text-anchor="middle" x="232" y="-389.5" font-family="Helvetica,sans-Serif" font-size="10.00">Tests</text>
</a>
</g>
</g>
<!-- Node108&#45;&gt;Node123 -->
<g id="edge15" class="edge">
<title>Node108&#45;&gt;Node123</title>
<path fill="none" stroke="midnightblue" d="M59.54,-525.68C72.07,-498.65 98.83,-449.16 137,-422.5 142.54,-418.63 148.64,-415.36 154.99,-412.6"/>
<polygon fill="midnightblue" stroke="midnightblue" points="56.33,-524.29 55.44,-534.84 62.72,-527.14 56.33,-524.29"/>
</g>
<!-- Node124 -->
<g id="node17" class="node">
<title>Node124</title>
<g id="a_node17"><a xlink:href="classpython_1_1test__parse_1_1SplitStringOrListTests.html" target="_top" xlink:title=" ">
<polygon fill="none" stroke="black" points="153,-333.5 153,-363.5 311,-363.5 311,-333.5 153,-333.5"/>
<text text-anchor="start" x="161" y="-351.5" font-family="Helvetica,sans-Serif" font-size="10.00">python.test_parse.SplitString</text>
<text text-anchor="middle" x="232" y="-340.5" font-family="Helvetica,sans-Serif" font-size="10.00">OrListTests</text>
</a>
</g>
</g>
<!-- Node108&#45;&gt;Node124 -->
<g id="edge16" class="edge">
<title>Node108&#45;&gt;Node124</title>
<path fill="none" stroke="midnightblue" d="M55.81,-524.43C64.59,-488.54 88,-413.41 137,-373.5 141.84,-369.55 147.25,-366.23 152.96,-363.42"/>
<polygon fill="midnightblue" stroke="midnightblue" points="52.3,-524.08 53.46,-534.61 59.12,-525.65 52.3,-524.08"/>
</g>
<!-- Node125 -->
<g id="node18" class="node">
<title>Node125</title>
<g id="a_node18"><a xlink:href="classpython_1_1test__util_1_1ChainTests.html" target="_top" xlink:title=" ">
<polygon fill="none" stroke="black" points="157.5,-295 157.5,-314 306.5,-314 306.5,-295 157.5,-295"/>
<text text-anchor="middle" x="232" y="-302" font-family="Helvetica,sans-Serif" font-size="10.00">python.test_util.ChainTests</text>
</a>
</g>
</g>
<!-- Node108&#45;&gt;Node125 -->
<g id="edge17" class="edge">
<title>Node108&#45;&gt;Node125</title>
<path fill="none" stroke="midnightblue" d="M53.08,-524.63C57.64,-481.17 74.83,-377.39 137,-324.5 142.97,-319.42 149.92,-315.53 157.29,-312.57"/>
<polygon fill="midnightblue" stroke="midnightblue" points="49.58,-524.47 52.13,-534.75 56.55,-525.12 49.58,-524.47"/>
</g>
<!-- Node126 -->
<g id="node19" class="node">
<title>Node126</title>
<g id="a_node19"><a xlink:href="classpython_1_1test__util_1_1CombineNamedTests.html" target="_top" xlink:title=" ">
<polygon fill="none" stroke="black" points="162,-245.5 162,-275.5 302,-275.5 302,-245.5 162,-245.5"/>
<text text-anchor="start" x="170" y="-263.5" font-family="Helvetica,sans-Serif" font-size="10.00">python.test_util.Combine</text>
<text text-anchor="middle" x="232" y="-252.5" font-family="Helvetica,sans-Serif" font-size="10.00">NamedTests</text>
</a>
</g>
</g>
<!-- Node108&#45;&gt;Node126 -->
<g id="edge18" class="edge">
<title>Node108&#45;&gt;Node126</title>
<path fill="none" stroke="midnightblue" d="M51.96,-524.75C54.19,-476.48 66.83,-351.66 137,-285.5 144,-278.9 152.55,-274 161.6,-270.36"/>
<polygon fill="midnightblue" stroke="midnightblue" points="48.46,-524.7 51.6,-534.81 55.46,-524.95 48.46,-524.7"/>
</g>
<!-- Node127 -->
<g id="node20" class="node">
<title>Node127</title>
<g id="a_node20"><a xlink:href="classpython_1_1test__util_1_1ExtendEachTests.html" target="_top" xlink:title=" ">
<polygon fill="none" stroke="black" points="155.5,-196.5 155.5,-226.5 308.5,-226.5 308.5,-196.5 155.5,-196.5"/>
<text text-anchor="start" x="163.5" y="-214.5" font-family="Helvetica,sans-Serif" font-size="10.00">python.test_util.ExtendEach</text>
<text text-anchor="middle" x="232" y="-203.5" font-family="Helvetica,sans-Serif" font-size="10.00">Tests</text>
</a>
</g>
</g>
<!-- Node108&#45;&gt;Node127 -->
<g id="edge19" class="edge">
<title>Node108&#45;&gt;Node127</title>
<path fill="none" stroke="midnightblue" d="M50.74,-524.79C49.77,-470.55 54.86,-317.75 137,-236.5 142.28,-231.27 148.53,-227.11 155.24,-223.79"/>
<polygon fill="midnightblue" stroke="midnightblue" points="47.24,-524.9 51.01,-534.8 54.24,-524.71 47.24,-524.9"/>
</g>
<!-- Node128 -->
<g id="node21" class="node">
<title>Node128</title>
<g id="a_node21"><a xlink:href="classpython_1_1test__util_1_1IterSystemTests.html" target="_top" xlink:title=" ">
<polygon fill="none" stroke="black" points="157.5,-147.5 157.5,-177.5 306.5,-177.5 306.5,-147.5 157.5,-147.5"/>
<text text-anchor="start" x="165.5" y="-165.5" font-family="Helvetica,sans-Serif" font-size="10.00">python.test_util.IterSystem</text>
<text text-anchor="middle" x="232" y="-154.5" font-family="Helvetica,sans-Serif" font-size="10.00">Tests</text>
</a>
</g>
</g>
<!-- Node108&#45;&gt;Node128 -->
<g id="edge20" class="edge">
<title>Node108&#45;&gt;Node128</title>
<path fill="none" stroke="midnightblue" d="M53.59,-524.69C61.11,-457.06 88.94,-236.77 137,-187.5 142.78,-181.58 149.79,-177.01 157.35,-173.48"/>
<polygon fill="midnightblue" stroke="midnightblue" points="50.09,-524.51 52.49,-534.83 57.05,-525.27 50.09,-524.51"/>
</g>
<!-- Node129 -->
<g id="node22" class="node">
<title>Node129</title>
<g id="a_node22"><a xlink:href="classpython_1_1test__util_1_1SubdictTests.html" target="_top" xlink:title=" ">
<polygon fill="none" stroke="black" points="166,-98.5 166,-128.5 298,-128.5 298,-98.5 166,-98.5"/>
<text text-anchor="start" x="174" y="-116.5" font-family="Helvetica,sans-Serif" font-size="10.00">python.test_util.Subdict</text>
<text text-anchor="middle" x="232" y="-105.5" font-family="Helvetica,sans-Serif" font-size="10.00">Tests</text>
</a>
</g>
</g>
<!-- Node108&#45;&gt;Node129 -->
<g id="edge21" class="edge">
<title>Node108&#45;&gt;Node129</title>
<path fill="none" stroke="midnightblue" d="M52.99,-524.41C58.88,-450.57 82.88,-195.54 137,-138.5 144.79,-130.29 154.94,-124.67 165.68,-120.84"/>
<polygon fill="midnightblue" stroke="midnightblue" points="49.48,-524.41 52.2,-534.65 56.46,-524.95 49.48,-524.41"/>
</g>
<!-- Node130 -->
<g id="node23" class="node">
<title>Node130</title>
<g id="a_node23"><a xlink:href="classpython_1_1test__util_1_1UpperLevelsForTests.html" target="_top" xlink:title=" ">
<polygon fill="none" stroke="black" points="153.5,-49.5 153.5,-79.5 310.5,-79.5 310.5,-49.5 153.5,-49.5"/>
<text text-anchor="start" x="161.5" y="-67.5" font-family="Helvetica,sans-Serif" font-size="10.00">python.test_util.UpperLevels</text>
<text text-anchor="middle" x="232" y="-56.5" font-family="Helvetica,sans-Serif" font-size="10.00">ForTests</text>
</a>
</g>
</g>
<!-- Node108&#45;&gt;Node130 -->
<g id="edge22" class="edge">
<title>Node108&#45;&gt;Node130</title>
<path fill="none" stroke="midnightblue" d="M52.49,-524.58C56.82,-445.46 76.67,-154.48 137,-89.5 141.71,-84.43 147.32,-80.34 153.43,-77.05"/>
<polygon fill="midnightblue" stroke="midnightblue" points="48.99,-524.5 51.96,-534.67 55.98,-524.87 48.99,-524.5"/>
</g>
<!-- Node131 -->
<g id="node24" class="node">
<title>Node131</title>
<g id="a_node24"><a xlink:href="classpython_1_1test__util_1_1WrapListTests.html" target="_top" xlink:title=" ">
<polygon fill="none" stroke="black" points="162.5,-0.5 162.5,-30.5 301.5,-30.5 301.5,-0.5 162.5,-0.5"/>
<text text-anchor="start" x="170.5" y="-18.5" font-family="Helvetica,sans-Serif" font-size="10.00">python.test_util.WrapList</text>
<text text-anchor="middle" x="232" y="-7.5" font-family="Helvetica,sans-Serif" font-size="10.00">Tests</text>
</a>
</g>
</g>
<!-- Node108&#45;&gt;Node131 -->
<g id="edge23" class="edge">
<title>Node108&#45;&gt;Node131</title>
<path fill="none" stroke="midnightblue" d="M52.09,-524.65C54.99,-440.41 70.45,-113.46 137,-40.5 143.83,-33.01 152.62,-27.66 162.08,-23.86"/>
<polygon fill="midnightblue" stroke="midnightblue" points="48.58,-524.77 51.76,-534.88 55.58,-524.99 48.58,-524.77"/>
</g>
</g>
</svg>
