<?xml version="1.0" encoding="UTF-8" standalone="no"?>
<!DOCTYPE svg PUBLIC "-//W3C//DTD SVG 1.1//EN"
 "http://www.w3.org/Graphics/SVG/1.1/DTD/svg11.dtd">
<!-- Generated by graphviz version 2.43.0 (0)
 -->
<!-- Title: Graphical Class Hierarchy Pages: 1 -->
<svg width="400pt" height="294pt"
 viewBox="0.00 0.00 400.00 294.00" xmlns="http://www.w3.org/2000/svg" xmlns:xlink="http://www.w3.org/1999/xlink">
<g id="graph0" class="graph" transform="scale(1 1) rotate(0) translate(4 290)">
<title>Graphical Class Hierarchy</title>
<!-- Node0 -->
<g id="node1" class="node">
<title>Node0</title>
<g id="a_node1"><a xlink:href="classchampsim_1_1operable.html" target="_top" xlink:title=" ">
<polygon fill="none" stroke="black" points="0,-133.5 0,-152.5 116,-152.5 116,-133.5 0,-133.5"/>
<text text-anchor="middle" x="58" y="-140.5" font-family="Helvetica,sans-Serif" font-size="10.00">champsim::operable</text>
</a>
</g>
</g>
<!-- Node1 -->
<g id="node2" class="node">
<title>Node1</title>
<g id="a_node2"><a xlink:href="classCACHE.html" target="_top" xlink:title=" ">
<polygon fill="none" stroke="black" points="192.5,-266.5 192.5,-285.5 242.5,-285.5 242.5,-266.5 192.5,-266.5"/>
<text text-anchor="middle" x="217.5" y="-273.5" font-family="Helvetica,sans-Serif" font-size="10.00">CACHE</text>
</a>
</g>
</g>
<!-- Node0&#45;&gt;Node1 -->
<g id="edge1" class="edge">
<title>Node0&#45;&gt;Node1</title>
<path fill="none" stroke="midnightblue" d="M69.23,-161.53C84.15,-186.83 114.25,-231.92 152,-257 164.06,-265.01 179.57,-269.72 192.36,-272.44"/>
<polygon fill="midnightblue" stroke="midnightblue" points="72.12,-159.53 64.11,-152.59 66.05,-163.01 72.12,-159.53"/>
</g>
<!-- Node2 -->
<g id="node3" class="node">
<title>Node2</title>
<g id="a_node3"><a xlink:href="classMEMORY__CONTROLLER.html" target="_top" xlink:title=" ">
<polygon fill="none" stroke="black" points="152,-228.5 152,-247.5 283,-247.5 283,-228.5 152,-228.5"/>
<text text-anchor="middle" x="217.5" y="-235.5" font-family="Helvetica,sans-Serif" font-size="10.00">MEMORY_CONTROLLER</text>
</a>
</g>
</g>
<!-- Node0&#45;&gt;Node2 -->
<g id="edge2" class="edge">
<title>Node0&#45;&gt;Node2</title>
<path fill="none" stroke="midnightblue" d="M75.27,-159.78C92.76,-176.93 122.1,-203.21 152,-219 159.12,-222.76 167.09,-225.87 174.93,-228.42"/>
<polygon fill="midnightblue" stroke="midnightblue" points="77.66,-157.22 68.11,-152.62 72.71,-162.17 77.66,-157.22"/>
</g>
<!-- Node3 -->
<g id="node4" class="node">
<title>Node3</title>
<g id="a_node4"><a xlink:href="classO3__CPU.html" target="_top" xlink:title=" ">
<polygon fill="none" stroke="black" points="189.5,-190.5 189.5,-209.5 245.5,-209.5 245.5,-190.5 189.5,-190.5"/>
<text text-anchor="middle" x="217.5" y="-197.5" font-family="Helvetica,sans-Serif" font-size="10.00">O3_CPU</text>
</a>
</g>
</g>
<!-- Node0&#45;&gt;Node3 -->
<g id="edge3" class="edge">
<title>Node0&#45;&gt;Node3</title>
<path fill="none" stroke="midnightblue" d="M89.95,-156.57C107.9,-164.2 131.03,-173.65 152,-181 164.12,-185.25 177.73,-189.35 189.32,-192.65"/>
<polygon fill="midnightblue" stroke="midnightblue" points="91.13,-153.26 80.56,-152.54 88.37,-159.7 91.13,-153.26"/>
</g>
<!-- Node4 -->
<g id="node5" class="node">
<title>Node4</title>
<g id="a_node5"><a xlink:href="classPageTableWalker.html" target="_top" xlink:title=" ">
<polygon fill="none" stroke="black" points="168.5,-152.5 168.5,-171.5 266.5,-171.5 266.5,-152.5 168.5,-152.5"/>
<text text-anchor="middle" x="217.5" y="-159.5" font-family="Helvetica,sans-Serif" font-size="10.00">PageTableWalker</text>
</a>
</g>
</g>
<!-- Node0&#45;&gt;Node4 -->
<g id="edge4" class="edge">
<title>Node0&#45;&gt;Node4</title>
<path fill="none" stroke="midnightblue" d="M126.44,-151.14C140.52,-152.83 155.09,-154.59 168.31,-156.19"/>
<polygon fill="midnightblue" stroke="midnightblue" points="126.65,-147.64 116.31,-149.91 125.82,-154.59 126.65,-147.64"/>
</g>
<!-- Node5 -->
<g id="node6" class="node">
<title>Node5</title>
<g id="a_node6"><a xlink:href="classdo__nothing__MRC.html" target="_top" xlink:title=" ">
<polygon fill="none" stroke="black" points="168.5,-114.5 168.5,-133.5 266.5,-133.5 266.5,-114.5 168.5,-114.5"/>
<text text-anchor="middle" x="217.5" y="-121.5" font-family="Helvetica,sans-Serif" font-size="10.00">do_nothing_MRC</text>
</a>
</g>
</g>
<!-- Node0&#45;&gt;Node5 -->
<g id="edge5" class="edge">
<title>Node0&#45;&gt;Node5</title>
<path fill="none" stroke="midnightblue" d="M126.44,-134.86C140.52,-133.17 155.09,-131.41 168.31,-129.81"/>
<polygon fill="midnightblue" stroke="midnightblue" points="125.82,-131.41 116.31,-136.09 126.65,-138.36 125.82,-131.41"/>
</g>
<!-- Node6 -->
<g id="node7" class="node">
<title>Node6</title>
<g id="a_node7"><a xlink:href="classfilter__MRC.html" target="_top" xlink:title=" ">
<polygon fill="none" stroke="black" points="184,-76.5 184,-95.5 251,-95.5 251,-76.5 184,-76.5"/>
<text text-anchor="middle" x="217.5" y="-83.5" font-family="Helvetica,sans-Serif" font-size="10.00">filter_MRC</text>
</a>
</g>
</g>
<!-- Node0&#45;&gt;Node6 -->
<g id="edge6" class="edge">
<title>Node0&#45;&gt;Node6</title>
<path fill="none" stroke="midnightblue" d="M89.95,-129.43C107.9,-121.8 131.03,-112.35 152,-105 162.25,-101.41 173.56,-97.92 183.81,-94.93"/>
<polygon fill="midnightblue" stroke="midnightblue" points="88.37,-126.3 80.56,-133.46 91.13,-132.74 88.37,-126.3"/>
</g>
<!-- Node7 -->
<g id="node8" class="node">
<title>Node7</title>
<g id="a_node8"><a xlink:href="structqueue__issue__MRP.html" target="_top" xlink:title=" ">
<polygon fill="none" stroke="black" points="165.5,-38.5 165.5,-57.5 269.5,-57.5 269.5,-38.5 165.5,-38.5"/>
<text text-anchor="middle" x="217.5" y="-45.5" font-family="Helvetica,sans-Serif" font-size="10.00">queue_issue_MRP</text>
</a>
</g>
</g>
<!-- Node0&#45;&gt;Node7 -->
<g id="edge7" class="edge">
<title>Node0&#45;&gt;Node7</title>
<path fill="none" stroke="midnightblue" d="M75.27,-126.22C92.76,-109.07 122.1,-82.79 152,-67 159.12,-63.24 167.09,-60.13 174.93,-57.58"/>
<polygon fill="midnightblue" stroke="midnightblue" points="72.71,-123.83 68.11,-133.38 77.66,-128.78 72.71,-123.83"/>
</g>
<!-- Node11 -->
<g id="node12" class="node">
<title>Node11</title>
<g id="a_node12"><a xlink:href="classrelease__MRC.html" target="_top" xlink:title=" ">
<polygon fill="none" stroke="black" points="177.5,-0.5 177.5,-19.5 257.5,-19.5 257.5,-0.5 177.5,-0.5"/>
<text text-anchor="middle" x="217.5" y="-7.5" font-family="Helvetica,sans-Serif" font-size="10.00">release_MRC</text>
</a>
</g>
</g>
<!-- Node0&#45;&gt;Node11 -->
<g id="edge11" class="edge">
<title>Node0&#45;&gt;Node11</title>
<path fill="none" stroke="midnightblue" d="M69.23,-124.47C84.15,-99.17 114.25,-54.08 152,-29 159.58,-23.96 168.53,-20.23 177.31,-17.47"/>
<polygon fill="midnightblue" stroke="midnightblue" points="66.05,-122.99 64.11,-133.41 72.12,-126.47 66.05,-122.99"/>
</g>
<!-- Node8 -->
<g id="node9" class="node">
<title>Node8</title>
<g id="a_node9"><a xlink:href="structto__pq__MRP.html" target="_top" xlink:title=" ">
<polygon fill="none" stroke="black" points="320,-76.5 320,-95.5 391,-95.5 391,-76.5 320,-76.5"/>
<text text-anchor="middle" x="355.5" y="-83.5" font-family="Helvetica,sans-Serif" font-size="10.00">to_pq_MRP</text>
</a>
</g>
</g>
<!-- Node7&#45;&gt;Node8 -->
<g id="edge8" class="edge">
<title>Node7&#45;&gt;Node8</title>
<path fill="none" stroke="midnightblue" d="M262.59,-60.32C281.27,-65.54 302.72,-71.53 320.19,-76.41"/>
<polygon fill="midnightblue" stroke="midnightblue" points="263.39,-56.91 252.82,-57.59 261.51,-63.65 263.39,-56.91"/>
</g>
<!-- Node9 -->
<g id="node10" class="node">
<title>Node9</title>
<g id="a_node10"><a xlink:href="structto__rq__MRP.html" target="_top" xlink:title=" ">
<polygon fill="none" stroke="black" points="321.5,-38.5 321.5,-57.5 389.5,-57.5 389.5,-38.5 321.5,-38.5"/>
<text text-anchor="middle" x="355.5" y="-45.5" font-family="Helvetica,sans-Serif" font-size="10.00">to_rq_MRP</text>
</a>
</g>
</g>
<!-- Node7&#45;&gt;Node9 -->
<g id="edge9" class="edge">
<title>Node7&#45;&gt;Node9</title>
<path fill="none" stroke="midnightblue" d="M279.83,-48C294.12,-48 308.81,-48 321.34,-48"/>
<polygon fill="midnightblue" stroke="midnightblue" points="279.53,-44.5 269.53,-48 279.53,-51.5 279.53,-44.5"/>
</g>
<!-- Node10 -->
<g id="node11" class="node">
<title>Node10</title>
<g id="a_node11"><a xlink:href="structto__wq__MRP.html" target="_top" xlink:title=" ">
<polygon fill="none" stroke="black" points="319,-0.5 319,-19.5 392,-19.5 392,-0.5 319,-0.5"/>
<text text-anchor="middle" x="355.5" y="-7.5" font-family="Helvetica,sans-Serif" font-size="10.00">to_wq_MRP</text>
</a>
</g>
</g>
<!-- Node7&#45;&gt;Node10 -->
<g id="edge10" class="edge">
<title>Node7&#45;&gt;Node10</title>
<path fill="none" stroke="midnightblue" d="M262.59,-35.68C281.27,-30.46 302.72,-24.47 320.19,-19.59"/>
<polygon fill="midnightblue" stroke="midnightblue" points="261.51,-32.35 252.82,-38.41 263.39,-39.09 261.51,-32.35"/>
</g>
</g>
</svg>
