<?xml version="1.0" encoding="UTF-8" standalone="no"?>
<!DOCTYPE svg PUBLIC "-//W3C//DTD SVG 1.1//EN"
 "http://www.w3.org/Graphics/SVG/1.1/DTD/svg11.dtd">
<!-- Generated by graphviz version 2.43.0 (0)
 -->
<!-- Title: test/cpp/src/instr.h Pages: 1 -->
<svg width="827pt" height="95pt"
 viewBox="0.00 0.00 826.50 95.00" xmlns="http://www.w3.org/2000/svg" xmlns:xlink="http://www.w3.org/1999/xlink">
<g id="graph0" class="graph" transform="scale(1 1) rotate(0) translate(4 91)">
<title>test/cpp/src/instr.h</title>
<!-- Node1 -->
<g id="node1" class="node">
<title>Node1</title>
<g id="a_node1"><a xlink:title=" ">
<polygon fill="#bfbfbf" stroke="black" points="370.5,-67.5 370.5,-86.5 476.5,-86.5 476.5,-67.5 370.5,-67.5"/>
<text text-anchor="middle" x="423.5" y="-74.5" font-family="Helvetica,sans-Serif" font-size="10.00">test/cpp/src/instr.h</text>
</a>
</g>
</g>
<!-- Node2 -->
<g id="node2" class="node">
<title>Node2</title>
<g id="a_node2"><a xlink:href="082-branch-targets_8cc.html" target="_top" xlink:title=" ">
<polygon fill="none" stroke="black" points="0,-0.5 0,-30.5 131,-30.5 131,-0.5 0,-0.5"/>
<text text-anchor="start" x="8" y="-18.5" font-family="Helvetica,sans-Serif" font-size="10.00">test/cpp/src/082&#45;branch</text>
<text text-anchor="middle" x="65.5" y="-7.5" font-family="Helvetica,sans-Serif" font-size="10.00">&#45;targets.cc</text>
</a>
</g>
</g>
<!-- Node1&#45;&gt;Node2 -->
<g id="edge1" class="edge">
<title>Node1&#45;&gt;Node2</title>
<path fill="none" stroke="midnightblue" d="M360.23,-66.65C302.6,-57.97 215.2,-44.41 139.5,-31 136.79,-30.52 134.03,-30.02 131.24,-29.51"/>
<polygon fill="midnightblue" stroke="midnightblue" points="359.87,-70.13 370.28,-68.16 360.91,-63.21 359.87,-70.13"/>
</g>
<!-- Node3 -->
<g id="node3" class="node">
<title>Node3</title>
<g id="a_node3"><a xlink:href="140-single-dib-lookup_8cc.html" target="_top" xlink:title=" ">
<polygon fill="none" stroke="black" points="149,-0.5 149,-30.5 276,-30.5 276,-0.5 149,-0.5"/>
<text text-anchor="start" x="157" y="-18.5" font-family="Helvetica,sans-Serif" font-size="10.00">test/cpp/src/140&#45;single</text>
<text text-anchor="middle" x="212.5" y="-7.5" font-family="Helvetica,sans-Serif" font-size="10.00">&#45;dib&#45;lookup.cc</text>
</a>
</g>
</g>
<!-- Node1&#45;&gt;Node3 -->
<g id="edge2" class="edge">
<title>Node1&#45;&gt;Node3</title>
<path fill="none" stroke="midnightblue" d="M383.55,-64.73C349.11,-55.02 299.24,-40.96 262.23,-30.52"/>
<polygon fill="midnightblue" stroke="midnightblue" points="382.69,-68.13 393.27,-67.48 384.59,-61.39 382.69,-68.13"/>
</g>
<!-- Node4 -->
<g id="node4" class="node">
<title>Node4</title>
<g id="a_node4"><a xlink:href="150-fetch-bandwidth_8cc.html" target="_top" xlink:title=" ">
<polygon fill="none" stroke="black" points="294.5,-0.5 294.5,-30.5 416.5,-30.5 416.5,-0.5 294.5,-0.5"/>
<text text-anchor="start" x="302.5" y="-18.5" font-family="Helvetica,sans-Serif" font-size="10.00">test/cpp/src/150&#45;fetch</text>
<text text-anchor="middle" x="355.5" y="-7.5" font-family="Helvetica,sans-Serif" font-size="10.00">&#45;bandwidth.cc</text>
</a>
</g>
</g>
<!-- Node1&#45;&gt;Node4 -->
<g id="edge3" class="edge">
<title>Node1&#45;&gt;Node4</title>
<path fill="none" stroke="midnightblue" d="M405.95,-60.65C395.32,-51.35 381.87,-39.57 371.53,-30.52"/>
<polygon fill="midnightblue" stroke="midnightblue" points="403.93,-63.52 413.76,-67.48 408.54,-58.26 403.93,-63.52"/>
</g>
<!-- Node5 -->
<g id="node5" class="node">
<title>Node5</title>
<g id="a_node5"><a xlink:href="200-rob-scheduling_8cc.html" target="_top" xlink:title=" ">
<polygon fill="none" stroke="black" points="435,-0.5 435,-30.5 548,-30.5 548,-0.5 435,-0.5"/>
<text text-anchor="start" x="443" y="-18.5" font-family="Helvetica,sans-Serif" font-size="10.00">test/cpp/src/200&#45;rob</text>
<text text-anchor="middle" x="491.5" y="-7.5" font-family="Helvetica,sans-Serif" font-size="10.00">&#45;scheduling.cc</text>
</a>
</g>
</g>
<!-- Node1&#45;&gt;Node5 -->
<g id="edge4" class="edge">
<title>Node1&#45;&gt;Node5</title>
<path fill="none" stroke="midnightblue" d="M441.05,-60.65C451.68,-51.35 465.13,-39.57 475.47,-30.52"/>
<polygon fill="midnightblue" stroke="midnightblue" points="438.46,-58.26 433.24,-67.48 443.07,-63.52 438.46,-58.26"/>
</g>
<!-- Node6 -->
<g id="node6" class="node">
<title>Node6</title>
<g id="a_node6"><a xlink:href="300-retire-from-rob_8cc.html" target="_top" xlink:title=" ">
<polygon fill="none" stroke="black" points="566.5,-0.5 566.5,-30.5 690.5,-30.5 690.5,-0.5 566.5,-0.5"/>
<text text-anchor="start" x="574.5" y="-18.5" font-family="Helvetica,sans-Serif" font-size="10.00">test/cpp/src/300&#45;retire</text>
<text text-anchor="middle" x="628.5" y="-7.5" font-family="Helvetica,sans-Serif" font-size="10.00">&#45;from&#45;rob.cc</text>
</a>
</g>
</g>
<!-- Node1&#45;&gt;Node6 -->
<g id="edge5" class="edge">
<title>Node1&#45;&gt;Node6</title>
<path fill="none" stroke="midnightblue" d="M462.75,-64.61C496.19,-54.9 544.38,-40.92 580.19,-30.52"/>
<polygon fill="midnightblue" stroke="midnightblue" points="461.5,-61.33 452.87,-67.48 463.45,-68.05 461.5,-61.33"/>
</g>
<!-- Node7 -->
<g id="node7" class="node">
<title>Node7</title>
<g id="a_node7"><a xlink:href="instr_8cc.html" target="_top" xlink:title=" ">
<polygon fill="none" stroke="black" points="708.5,-6 708.5,-25 818.5,-25 818.5,-6 708.5,-6"/>
<text text-anchor="middle" x="763.5" y="-13" font-family="Helvetica,sans-Serif" font-size="10.00">test/cpp/src/instr.cc</text>
</a>
</g>
</g>
<!-- Node1&#45;&gt;Node7 -->
<g id="edge6" class="edge">
<title>Node1&#45;&gt;Node7</title>
<path fill="none" stroke="midnightblue" d="M486.72,-66.82C542.79,-58.41 626.82,-45.14 699.5,-31 708.67,-29.22 718.53,-27.09 727.7,-25.02"/>
<polygon fill="midnightblue" stroke="midnightblue" points="485.96,-63.39 476.58,-68.33 486.99,-70.32 485.96,-63.39"/>
</g>
</g>
</svg>
