<?xml version="1.0" encoding="UTF-8" standalone="no"?>
<!DOCTYPE svg PUBLIC "-//W3C//DTD SVG 1.1//EN"
 "http://www.w3.org/Graphics/SVG/1.1/DTD/svg11.dtd">
<!-- Generated by graphviz version 2.43.0 (0)
 -->
<!-- Title: prefetcher/ip_stride/ip_stride.cc Pages: 1 -->
<svg width="1749pt" height="207pt"
 viewBox="0.00 0.00 1748.60 207.00" xmlns="http://www.w3.org/2000/svg" xmlns:xlink="http://www.w3.org/1999/xlink">
<g id="graph0" class="graph" transform="scale(1 1) rotate(0) translate(4 203)">
<title>prefetcher/ip_stride/ip_stride.cc</title>
<!-- Node1 -->
<g id="node1" class="node">
<title>Node1</title>
<g id="a_node1"><a xlink:title=" ">
<polygon fill="#bfbfbf" stroke="black" points="443,-168.5 443,-198.5 555,-198.5 555,-168.5 443,-168.5"/>
<text text-anchor="start" x="451" y="-186.5" font-family="Helvetica,sans-Serif" font-size="10.00">prefetcher/ip_stride</text>
<text text-anchor="middle" x="499" y="-175.5" font-family="Helvetica,sans-Serif" font-size="10.00">/ip_stride.cc</text>
</a>
</g>
</g>
<!-- Node2 -->
<g id="node2" class="node">
<title>Node2</title>
<g id="a_node2"><a xlink:title=" ">
<polygon fill="none" stroke="#bfbfbf" points="0,-56.5 0,-75.5 64,-75.5 64,-56.5 0,-56.5"/>
<text text-anchor="middle" x="32" y="-63.5" font-family="Helvetica,sans-Serif" font-size="10.00">algorithm</text>
</a>
</g>
</g>
<!-- Node1&#45;&gt;Node2 -->
<g id="edge1" class="edge">
<title>Node1&#45;&gt;Node2</title>
<path fill="none" stroke="midnightblue" d="M442.92,-179.5C375.04,-174.64 257.89,-162.32 162,-132 122.11,-119.39 79.35,-95.84 54.18,-80.82"/>
<polygon fill="midnightblue" stroke="midnightblue" points="55.8,-77.71 45.44,-75.52 52.17,-83.7 55.8,-77.71"/>
</g>
<!-- Node3 -->
<g id="node3" class="node">
<title>Node3</title>
<g id="a_node3"><a xlink:title=" ">
<polygon fill="none" stroke="#bfbfbf" points="817,-0.5 817,-19.5 859,-19.5 859,-0.5 817,-0.5"/>
<text text-anchor="middle" x="838" y="-7.5" font-family="Helvetica,sans-Serif" font-size="10.00">array</text>
</a>
</g>
</g>
<!-- Node1&#45;&gt;Node3 -->
<g id="edge2" class="edge">
<title>Node1&#45;&gt;Node3</title>
<path fill="none" stroke="midnightblue" d="M522.96,-168.38C564.6,-144.1 653.29,-93.41 731,-56 756.35,-43.8 785.88,-31.52 807.48,-22.88"/>
<polygon fill="midnightblue" stroke="midnightblue" points="808.8,-26.12 816.81,-19.18 806.22,-19.61 808.8,-26.12"/>
</g>
<!-- Node4 -->
<g id="node4" class="node">
<title>Node4</title>
<g id="a_node4"><a xlink:title=" ">
<polygon fill="none" stroke="#bfbfbf" points="956,-112.5 956,-131.5 994,-131.5 994,-112.5 956,-112.5"/>
<text text-anchor="middle" x="975" y="-119.5" font-family="Helvetica,sans-Serif" font-size="10.00">map</text>
</a>
</g>
</g>
<!-- Node1&#45;&gt;Node4 -->
<g id="edge3" class="edge">
<title>Node1&#45;&gt;Node4</title>
<path fill="none" stroke="midnightblue" d="M555.1,-179.76C638.59,-174.9 800.44,-162.46 945.86,-131.85"/>
<polygon fill="midnightblue" stroke="midnightblue" points="946.81,-135.22 955.86,-129.71 945.35,-128.38 946.81,-135.22"/>
</g>
<!-- Node5 -->
<g id="node5" class="node">
<title>Node5</title>
<g id="a_node5"><a xlink:title=" ">
<polygon fill="none" stroke="#bfbfbf" points="82,-56.5 82,-75.5 138,-75.5 138,-56.5 82,-56.5"/>
<text text-anchor="middle" x="110" y="-63.5" font-family="Helvetica,sans-Serif" font-size="10.00">optional</text>
</a>
</g>
</g>
<!-- Node1&#45;&gt;Node5 -->
<g id="edge4" class="edge">
<title>Node1&#45;&gt;Node5</title>
<path fill="none" stroke="midnightblue" d="M442.89,-180.61C381.18,-176.82 280.13,-165.54 200,-132 171.58,-120.1 143.56,-97.72 126.53,-82.59"/>
<polygon fill="midnightblue" stroke="midnightblue" points="128.84,-79.96 119.09,-75.82 124.13,-85.14 128.84,-79.96"/>
</g>
<!-- Node6 -->
<g id="node6" class="node">
<title>Node6</title>
<g id="a_node6"><a xlink:href="cache_8h.html" target="_top" xlink:title=" ">
<polygon fill="none" stroke="black" points="884,-112.5 884,-131.5 938,-131.5 938,-112.5 884,-112.5"/>
<text text-anchor="middle" x="911" y="-119.5" font-family="Helvetica,sans-Serif" font-size="10.00">cache.h</text>
</a>
</g>
</g>
<!-- Node1&#45;&gt;Node6 -->
<g id="edge5" class="edge">
<title>Node1&#45;&gt;Node6</title>
<path fill="none" stroke="midnightblue" d="M555.42,-174.35C640.91,-162.01 800.98,-138.89 873.54,-128.41"/>
<polygon fill="midnightblue" stroke="midnightblue" points="874.19,-131.85 883.59,-126.96 873.19,-124.92 874.19,-131.85"/>
</g>
<!-- Node26 -->
<g id="node26" class="node">
<title>Node26</title>
<g id="a_node26"><a xlink:href="msl_2lru__table_8h.html" target="_top" xlink:title=" ">
<polygon fill="none" stroke="black" points="208.5,-112.5 208.5,-131.5 297.5,-131.5 297.5,-112.5 208.5,-112.5"/>
<text text-anchor="middle" x="253" y="-119.5" font-family="Helvetica,sans-Serif" font-size="10.00">msl/lru_table.h</text>
</a>
</g>
</g>
<!-- Node1&#45;&gt;Node26 -->
<g id="edge30" class="edge">
<title>Node1&#45;&gt;Node26</title>
<path fill="none" stroke="midnightblue" d="M442.87,-168.92C399.08,-158.33 339.03,-143.81 298.28,-133.95"/>
<polygon fill="midnightblue" stroke="midnightblue" points="298.9,-130.5 288.35,-131.55 297.25,-137.3 298.9,-130.5"/>
</g>
<!-- Node6&#45;&gt;Node3 -->
<g id="edge6" class="edge">
<title>Node6&#45;&gt;Node3</title>
<path fill="none" stroke="midnightblue" d="M938.01,-113.63C941.03,-112.99 944.07,-112.43 947,-112 990.42,-105.65 1705.69,-107.73 1736,-76 1742.14,-69.57 1742.13,-62.44 1736,-56 1705.53,-23.97 1025.64,-13.39 869.68,-11.38"/>
<polygon fill="midnightblue" stroke="midnightblue" points="869.42,-7.87 859.38,-11.25 869.33,-14.87 869.42,-7.87"/>
</g>
<!-- Node7 -->
<g id="node7" class="node">
<title>Node7</title>
<g id="a_node7"><a xlink:title=" ">
<polygon fill="none" stroke="#bfbfbf" points="740,-56.5 740,-75.5 784,-75.5 784,-56.5 740,-56.5"/>
<text text-anchor="middle" x="762" y="-63.5" font-family="Helvetica,sans-Serif" font-size="10.00">bitset</text>
</a>
</g>
</g>
<!-- Node6&#45;&gt;Node7 -->
<g id="edge7" class="edge">
<title>Node6&#45;&gt;Node7</title>
<path fill="none" stroke="midnightblue" d="M887.39,-112.44C862.1,-103.28 821.83,-88.68 793.78,-78.52"/>
<polygon fill="midnightblue" stroke="midnightblue" points="794.64,-75.11 784.04,-74.99 792.25,-81.69 794.64,-75.11"/>
</g>
<!-- Node8 -->
<g id="node8" class="node">
<title>Node8</title>
<g id="a_node8"><a xlink:title=" ">
<polygon fill="none" stroke="#bfbfbf" points="751.5,-0.5 751.5,-19.5 798.5,-19.5 798.5,-0.5 751.5,-0.5"/>
<text text-anchor="middle" x="775" y="-7.5" font-family="Helvetica,sans-Serif" font-size="10.00">deque</text>
</a>
</g>
</g>
<!-- Node6&#45;&gt;Node8 -->
<g id="edge8" class="edge">
<title>Node6&#45;&gt;Node8</title>
<path fill="none" stroke="midnightblue" d="M883.95,-118.26C838.44,-113.02 749.68,-99.93 731,-76 718.15,-59.54 736.46,-39.48 753.22,-26.04"/>
<polygon fill="midnightblue" stroke="midnightblue" points="755.8,-28.49 761.68,-19.67 751.59,-22.9 755.8,-28.49"/>
</g>
<!-- Node9 -->
<g id="node9" class="node">
<title>Node9</title>
<g id="a_node9"><a xlink:title=" ">
<polygon fill="none" stroke="#bfbfbf" points="802,-56.5 802,-75.5 860,-75.5 860,-56.5 802,-56.5"/>
<text text-anchor="middle" x="831" y="-63.5" font-family="Helvetica,sans-Serif" font-size="10.00">memory</text>
</a>
</g>
</g>
<!-- Node6&#45;&gt;Node9 -->
<g id="edge9" class="edge">
<title>Node6&#45;&gt;Node9</title>
<path fill="none" stroke="midnightblue" d="M898.15,-112.32C885.78,-103.98 866.87,-91.21 852.26,-81.35"/>
<polygon fill="midnightblue" stroke="midnightblue" points="854.07,-78.35 843.82,-75.65 850.15,-84.15 854.07,-78.35"/>
</g>
<!-- Node10 -->
<g id="node10" class="node">
<title>Node10</title>
<g id="a_node10"><a xlink:title=" ">
<polygon fill="none" stroke="#bfbfbf" points="878.5,-56.5 878.5,-75.5 943.5,-75.5 943.5,-56.5 878.5,-56.5"/>
<text text-anchor="middle" x="911" y="-63.5" font-family="Helvetica,sans-Serif" font-size="10.00">stdexcept</text>
</a>
</g>
</g>
<!-- Node6&#45;&gt;Node10 -->
<g id="edge10" class="edge">
<title>Node6&#45;&gt;Node10</title>
<path fill="none" stroke="midnightblue" d="M911,-112.08C911,-105.01 911,-94.86 911,-85.99"/>
<polygon fill="midnightblue" stroke="midnightblue" points="914.5,-85.75 911,-75.75 907.5,-85.75 914.5,-85.75"/>
</g>
<!-- Node11 -->
<g id="node11" class="node">
<title>Node11</title>
<g id="a_node11"><a xlink:title=" ">
<polygon fill="none" stroke="#bfbfbf" points="962,-56.5 962,-75.5 1006,-75.5 1006,-56.5 962,-56.5"/>
<text text-anchor="middle" x="984" y="-63.5" font-family="Helvetica,sans-Serif" font-size="10.00">string</text>
</a>
</g>
</g>
<!-- Node6&#45;&gt;Node11 -->
<g id="edge11" class="edge">
<title>Node6&#45;&gt;Node11</title>
<path fill="none" stroke="midnightblue" d="M922.73,-112.32C933.84,-104.11 950.74,-91.6 963.98,-81.81"/>
<polygon fill="midnightblue" stroke="midnightblue" points="966.1,-84.59 972.06,-75.83 961.94,-78.97 966.1,-84.59"/>
</g>
<!-- Node12 -->
<g id="node12" class="node">
<title>Node12</title>
<g id="a_node12"><a xlink:title=" ">
<polygon fill="none" stroke="#bfbfbf" points="512.5,-0.5 512.5,-19.5 559.5,-19.5 559.5,-0.5 512.5,-0.5"/>
<text text-anchor="middle" x="536" y="-7.5" font-family="Helvetica,sans-Serif" font-size="10.00">vector</text>
</a>
</g>
</g>
<!-- Node6&#45;&gt;Node12 -->
<g id="edge12" class="edge">
<title>Node6&#45;&gt;Node12</title>
<path fill="none" stroke="midnightblue" d="M883.92,-120.44C812.99,-118.51 623.75,-110.19 573,-76 556.88,-65.14 546.96,-44.76 541.5,-29.71"/>
<polygon fill="midnightblue" stroke="midnightblue" points="544.73,-28.31 538.29,-19.9 538.08,-30.49 544.73,-28.31"/>
</g>
<!-- Node13 -->
<g id="node13" class="node">
<title>Node13</title>
<g id="a_node13"><a xlink:href="champsim_8h.html" target="_top" xlink:title=" ">
<polygon fill="none" stroke="black" points="410.5,-56.5 410.5,-75.5 487.5,-75.5 487.5,-56.5 410.5,-56.5"/>
<text text-anchor="middle" x="449" y="-63.5" font-family="Helvetica,sans-Serif" font-size="10.00">champsim.h</text>
</a>
</g>
</g>
<!-- Node6&#45;&gt;Node13 -->
<g id="edge13" class="edge">
<title>Node6&#45;&gt;Node13</title>
<path fill="none" stroke="midnightblue" d="M883.82,-117.82C808.24,-108.99 594.75,-84.04 497.88,-72.71"/>
<polygon fill="midnightblue" stroke="midnightblue" points="498.11,-69.22 487.77,-71.53 497.3,-76.17 498.11,-69.22"/>
</g>
<!-- Node16 -->
<g id="node16" class="node">
<title>Node16</title>
<g id="a_node16"><a xlink:title=" ">
<polygon fill="none" stroke="#bfbfbf" points="1024.5,-56.5 1024.5,-75.5 1153.5,-75.5 1153.5,-56.5 1024.5,-56.5"/>
<text text-anchor="middle" x="1089" y="-63.5" font-family="Helvetica,sans-Serif" font-size="10.00">champsim_constants.h</text>
</a>
</g>
</g>
<!-- Node6&#45;&gt;Node16 -->
<g id="edge16" class="edge">
<title>Node6&#45;&gt;Node16</title>
<path fill="none" stroke="midnightblue" d="M938.03,-112.8C968.22,-103.64 1017.28,-88.76 1051.24,-78.45"/>
<polygon fill="midnightblue" stroke="midnightblue" points="1052.27,-81.8 1060.83,-75.55 1050.24,-75.1 1052.27,-81.8"/>
</g>
<!-- Node17 -->
<g id="node17" class="node">
<title>Node17</title>
<g id="a_node17"><a xlink:href="channel_8h.html" target="_top" xlink:title=" ">
<polygon fill="none" stroke="black" points="582,-56.5 582,-75.5 646,-75.5 646,-56.5 582,-56.5"/>
<text text-anchor="middle" x="614" y="-63.5" font-family="Helvetica,sans-Serif" font-size="10.00">channel.h</text>
</a>
</g>
</g>
<!-- Node6&#45;&gt;Node17 -->
<g id="edge17" class="edge">
<title>Node6&#45;&gt;Node17</title>
<path fill="none" stroke="midnightblue" d="M883.86,-116.28C837.79,-108.23 741.37,-91.25 660,-76 658.74,-75.76 657.46,-75.52 656.17,-75.28"/>
<polygon fill="midnightblue" stroke="midnightblue" points="656.64,-71.8 646.16,-73.36 655.32,-78.68 656.64,-71.8"/>
</g>
<!-- Node21 -->
<g id="node21" class="node">
<title>Node21</title>
<g id="a_node21"><a xlink:href="module__impl_8h.html" target="_top" xlink:title=" ">
<polygon fill="none" stroke="black" points="1171.5,-56.5 1171.5,-75.5 1260.5,-75.5 1260.5,-56.5 1171.5,-56.5"/>
<text text-anchor="middle" x="1216" y="-63.5" font-family="Helvetica,sans-Serif" font-size="10.00">module_impl.h</text>
</a>
</g>
</g>
<!-- Node6&#45;&gt;Node21 -->
<g id="edge25" class="edge">
<title>Node6&#45;&gt;Node21</title>
<path fill="none" stroke="midnightblue" d="M938.07,-113.99C941.08,-113.28 944.1,-112.6 947,-112 1039.12,-92.84 1065.3,-92.17 1161.32,-76.27"/>
<polygon fill="midnightblue" stroke="midnightblue" points="1162.18,-79.67 1171.47,-74.57 1161.03,-72.77 1162.18,-79.67"/>
</g>
<!-- Node22 -->
<g id="node22" class="node">
<title>Node22</title>
<g id="a_node22"><a xlink:href="operable_8h.html" target="_top" xlink:title=" ">
<polygon fill="none" stroke="black" points="1279,-56.5 1279,-75.5 1347,-75.5 1347,-56.5 1279,-56.5"/>
<text text-anchor="middle" x="1313" y="-63.5" font-family="Helvetica,sans-Serif" font-size="10.00">operable.h</text>
</a>
</g>
</g>
<!-- Node6&#45;&gt;Node22 -->
<g id="edge26" class="edge">
<title>Node6&#45;&gt;Node22</title>
<path fill="none" stroke="midnightblue" d="M938.04,-113.83C941.05,-113.15 944.08,-112.52 947,-112 1085.97,-87 1125.6,-98.28 1268.75,-76.05"/>
<polygon fill="midnightblue" stroke="midnightblue" points="1269.46,-79.49 1278.79,-74.47 1268.36,-72.57 1269.46,-79.49"/>
</g>
<!-- Node23 -->
<g id="node23" class="node">
<title>Node23</title>
<g id="a_node23"><a xlink:title=" ">
<polygon fill="none" stroke="#bfbfbf" points="1365.5,-56.5 1365.5,-75.5 1434.5,-75.5 1434.5,-56.5 1365.5,-56.5"/>
<text text-anchor="middle" x="1400" y="-63.5" font-family="Helvetica,sans-Serif" font-size="10.00">type_traits</text>
</a>
</g>
</g>
<!-- Node6&#45;&gt;Node23 -->
<g id="edge27" class="edge">
<title>Node6&#45;&gt;Node23</title>
<path fill="none" stroke="midnightblue" d="M938.03,-113.76C941.04,-113.1 944.08,-112.49 947,-112 1123.71,-82.32 1173.63,-101.6 1355.31,-75.91"/>
<polygon fill="midnightblue" stroke="midnightblue" points="1356.08,-79.34 1365.48,-74.45 1355.08,-72.41 1356.08,-79.34"/>
</g>
<!-- Node24 -->
<g id="node24" class="node">
<title>Node24</title>
<g id="a_node24"><a xlink:title=" ">
<polygon fill="none" stroke="#bfbfbf" points="1453,-56.5 1453,-75.5 1583,-75.5 1583,-56.5 1453,-56.5"/>
<text text-anchor="middle" x="1518" y="-63.5" font-family="Helvetica,sans-Serif" font-size="10.00">cache_module_decl.inc</text>
</a>
</g>
</g>
<!-- Node6&#45;&gt;Node24 -->
<g id="edge28" class="edge">
<title>Node6&#45;&gt;Node24</title>
<path fill="none" stroke="midnightblue" d="M938.02,-113.71C941.04,-113.06 944.07,-112.47 947,-112 1162.48,-77.53 1221.84,-96.79 1442.69,-76.07"/>
<polygon fill="midnightblue" stroke="midnightblue" points="1443.03,-79.56 1452.65,-75.12 1442.36,-72.59 1443.03,-79.56"/>
</g>
<!-- Node25 -->
<g id="node25" class="node">
<title>Node25</title>
<g id="a_node25"><a xlink:title=" ">
<polygon fill="none" stroke="#bfbfbf" points="1601.5,-56.5 1601.5,-75.5 1726.5,-75.5 1726.5,-56.5 1601.5,-56.5"/>
<text text-anchor="middle" x="1664" y="-63.5" font-family="Helvetica,sans-Serif" font-size="10.00">cache_module_def.inc</text>
</a>
</g>
</g>
<!-- Node6&#45;&gt;Node25 -->
<g id="edge29" class="edge">
<title>Node6&#45;&gt;Node25</title>
<path fill="none" stroke="midnightblue" d="M938.02,-113.66C941.03,-113.02 944.07,-112.44 947,-112 1227.55,-69.49 1304.26,-101.06 1590.91,-76.02"/>
<polygon fill="midnightblue" stroke="midnightblue" points="1591.55,-79.48 1601.2,-75.11 1590.93,-72.51 1591.55,-79.48"/>
</g>
<!-- Node14 -->
<g id="node14" class="node">
<title>Node14</title>
<g id="a_node14"><a xlink:title=" ">
<polygon fill="none" stroke="#bfbfbf" points="298,-0.5 298,-19.5 348,-19.5 348,-0.5 298,-0.5"/>
<text text-anchor="middle" x="323" y="-7.5" font-family="Helvetica,sans-Serif" font-size="10.00">cstdint</text>
</a>
</g>
</g>
<!-- Node13&#45;&gt;Node14 -->
<g id="edge14" class="edge">
<title>Node13&#45;&gt;Node14</title>
<path fill="none" stroke="midnightblue" d="M429.03,-56.44C408.39,-47.6 375.94,-33.69 352.37,-23.59"/>
<polygon fill="midnightblue" stroke="midnightblue" points="353.44,-20.24 342.87,-19.52 350.68,-26.67 353.44,-20.24"/>
</g>
<!-- Node15 -->
<g id="node15" class="node">
<title>Node15</title>
<g id="a_node15"><a xlink:title=" ">
<polygon fill="none" stroke="#bfbfbf" points="366.5,-0.5 366.5,-19.5 431.5,-19.5 431.5,-0.5 366.5,-0.5"/>
<text text-anchor="middle" x="399" y="-7.5" font-family="Helvetica,sans-Serif" font-size="10.00">exception</text>
</a>
</g>
</g>
<!-- Node13&#45;&gt;Node15 -->
<g id="edge15" class="edge">
<title>Node13&#45;&gt;Node15</title>
<path fill="none" stroke="midnightblue" d="M440.74,-56.08C433.54,-48.3 422.89,-36.8 414.15,-27.37"/>
<polygon fill="midnightblue" stroke="midnightblue" points="416.47,-24.71 407.1,-19.75 411.33,-29.47 416.47,-24.71"/>
</g>
<!-- Node17&#45;&gt;Node3 -->
<g id="edge18" class="edge">
<title>Node17&#45;&gt;Node3</title>
<path fill="none" stroke="midnightblue" d="M646.08,-58.21C682.72,-50.32 744.66,-36.54 806.78,-20.2"/>
<polygon fill="midnightblue" stroke="midnightblue" points="807.97,-23.51 816.74,-17.56 806.18,-16.74 807.97,-23.51"/>
</g>
<!-- Node17&#45;&gt;Node8 -->
<g id="edge20" class="edge">
<title>Node17&#45;&gt;Node8</title>
<path fill="none" stroke="midnightblue" d="M639.51,-56.44C667.15,-47.17 711.37,-32.34 741.72,-22.16"/>
<polygon fill="midnightblue" stroke="midnightblue" points="743.07,-25.4 751.44,-18.9 740.85,-18.76 743.07,-25.4"/>
</g>
<!-- Node17&#45;&gt;Node12 -->
<g id="edge23" class="edge">
<title>Node17&#45;&gt;Node12</title>
<path fill="none" stroke="midnightblue" d="M601.47,-56.32C589.41,-47.98 570.97,-35.21 556.73,-25.35"/>
<polygon fill="midnightblue" stroke="midnightblue" points="558.72,-22.47 548.5,-19.65 554.73,-28.22 558.72,-22.47"/>
</g>
<!-- Node17&#45;&gt;Node14 -->
<g id="edge19" class="edge">
<title>Node17&#45;&gt;Node14</title>
<path fill="none" stroke="midnightblue" d="M581.92,-60.18C533.28,-52.69 438.06,-37.3 358,-20 357.9,-19.98 357.8,-19.96 357.7,-19.94"/>
<polygon fill="midnightblue" stroke="midnightblue" points="358.71,-16.58 348.18,-17.72 357.13,-23.4 358.71,-16.58"/>
</g>
<!-- Node18 -->
<g id="node18" class="node">
<title>Node18</title>
<g id="a_node18"><a xlink:title=" ">
<polygon fill="none" stroke="#bfbfbf" points="668.5,-0.5 668.5,-19.5 733.5,-19.5 733.5,-0.5 668.5,-0.5"/>
<text text-anchor="middle" x="701" y="-7.5" font-family="Helvetica,sans-Serif" font-size="10.00">functional</text>
</a>
</g>
</g>
<!-- Node17&#45;&gt;Node18 -->
<g id="edge21" class="edge">
<title>Node17&#45;&gt;Node18</title>
<path fill="none" stroke="midnightblue" d="M627.98,-56.32C641.55,-47.9 662.38,-34.97 678.32,-25.07"/>
<polygon fill="midnightblue" stroke="midnightblue" points="680.41,-27.9 687.06,-19.65 676.71,-21.95 680.41,-27.9"/>
</g>
<!-- Node19 -->
<g id="node19" class="node">
<title>Node19</title>
<g id="a_node19"><a xlink:title=" ">
<polygon fill="none" stroke="#bfbfbf" points="450,-0.5 450,-19.5 494,-19.5 494,-0.5 450,-0.5"/>
<text text-anchor="middle" x="472" y="-7.5" font-family="Helvetica,sans-Serif" font-size="10.00">limits</text>
</a>
</g>
</g>
<!-- Node17&#45;&gt;Node19 -->
<g id="edge22" class="edge">
<title>Node17&#45;&gt;Node19</title>
<path fill="none" stroke="midnightblue" d="M591.5,-56.44C567.92,-47.48 530.68,-33.31 504.04,-23.18"/>
<polygon fill="midnightblue" stroke="midnightblue" points="504.99,-19.8 494.4,-19.52 502.5,-26.34 504.99,-19.8"/>
</g>
<!-- Node20 -->
<g id="node20" class="node">
<title>Node20</title>
<g id="a_node20"><a xlink:title=" ">
<polygon fill="none" stroke="#bfbfbf" points="577.5,-0.5 577.5,-19.5 650.5,-19.5 650.5,-0.5 577.5,-0.5"/>
<text text-anchor="middle" x="614" y="-7.5" font-family="Helvetica,sans-Serif" font-size="10.00">string_view</text>
</a>
</g>
</g>
<!-- Node17&#45;&gt;Node20 -->
<g id="edge24" class="edge">
<title>Node17&#45;&gt;Node20</title>
<path fill="none" stroke="midnightblue" d="M614,-56.08C614,-49.01 614,-38.86 614,-29.99"/>
<polygon fill="midnightblue" stroke="midnightblue" points="617.5,-29.75 614,-19.75 610.5,-29.75 617.5,-29.75"/>
</g>
<!-- Node26&#45;&gt;Node2 -->
<g id="edge31" class="edge">
<title>Node26&#45;&gt;Node2</title>
<path fill="none" stroke="midnightblue" d="M217.98,-112.44C178.97,-102.91 115.9,-87.5 74.19,-77.31"/>
<polygon fill="midnightblue" stroke="midnightblue" points="74.88,-73.88 64.34,-74.9 73.22,-80.68 74.88,-73.88"/>
</g>
<!-- Node26&#45;&gt;Node5 -->
<g id="edge34" class="edge">
<title>Node26&#45;&gt;Node5</title>
<path fill="none" stroke="midnightblue" d="M230.34,-112.44C206.6,-103.48 169.09,-89.31 142.26,-79.18"/>
<polygon fill="midnightblue" stroke="midnightblue" points="143.14,-75.77 132.55,-75.52 140.67,-82.32 143.14,-75.77"/>
</g>
<!-- Node26&#45;&gt;Node12 -->
<g id="edge36" class="edge">
<title>Node26&#45;&gt;Node12</title>
<path fill="none" stroke="midnightblue" d="M297.6,-117.17C358.95,-111.18 465.36,-97.94 497,-76 513.19,-64.77 523.78,-44.46 529.78,-29.52"/>
<polygon fill="midnightblue" stroke="midnightblue" points="533.19,-30.39 533.36,-19.79 526.62,-27.97 533.19,-30.39"/>
</g>
<!-- Node26&#45;&gt;Node14 -->
<g id="edge33" class="edge">
<title>Node26&#45;&gt;Node14</title>
<path fill="none" stroke="midnightblue" d="M231.4,-112.34C205.72,-100.76 168.31,-79 185,-56 208.31,-23.89 255.15,-14.25 287.76,-11.59"/>
<polygon fill="midnightblue" stroke="midnightblue" points="288.04,-15.08 297.8,-10.96 287.6,-8.1 288.04,-15.08"/>
</g>
<!-- Node27 -->
<g id="node27" class="node">
<title>Node27</title>
<g id="a_node27"><a xlink:title=" ">
<polygon fill="none" stroke="#bfbfbf" points="194,-56.5 194,-75.5 246,-75.5 246,-56.5 194,-56.5"/>
<text text-anchor="middle" x="220" y="-63.5" font-family="Helvetica,sans-Serif" font-size="10.00">cassert</text>
</a>
</g>
</g>
<!-- Node26&#45;&gt;Node27 -->
<g id="edge32" class="edge">
<title>Node26&#45;&gt;Node27</title>
<path fill="none" stroke="midnightblue" d="M247.55,-112.08C242.99,-104.61 236.33,-93.72 230.71,-84.52"/>
<polygon fill="midnightblue" stroke="midnightblue" points="233.55,-82.46 225.35,-75.75 227.58,-86.11 233.55,-82.46"/>
</g>
<!-- Node28 -->
<g id="node28" class="node">
<title>Node28</title>
<g id="a_node28"><a xlink:title=" ">
<polygon fill="none" stroke="#bfbfbf" points="264.5,-56.5 264.5,-75.5 309.5,-75.5 309.5,-56.5 264.5,-56.5"/>
<text text-anchor="middle" x="287" y="-63.5" font-family="Helvetica,sans-Serif" font-size="10.00">utility</text>
</a>
</g>
</g>
<!-- Node26&#45;&gt;Node28 -->
<g id="edge35" class="edge">
<title>Node26&#45;&gt;Node28</title>
<path fill="none" stroke="midnightblue" d="M258.61,-112.08C263.37,-104.53 270.32,-93.49 276.15,-84.23"/>
<polygon fill="midnightblue" stroke="midnightblue" points="279.12,-86.08 281.49,-75.75 273.2,-82.35 279.12,-86.08"/>
</g>
<!-- Node29 -->
<g id="node29" class="node">
<title>Node29</title>
<g id="a_node29"><a xlink:href="msl_2bits_8h.html" target="_top" xlink:title=" ">
<polygon fill="none" stroke="black" points="327.5,-56.5 327.5,-75.5 392.5,-75.5 392.5,-56.5 327.5,-56.5"/>
<text text-anchor="middle" x="360" y="-63.5" font-family="Helvetica,sans-Serif" font-size="10.00">msl/bits.h</text>
</a>
</g>
</g>
<!-- Node26&#45;&gt;Node29 -->
<g id="edge37" class="edge">
<title>Node26&#45;&gt;Node29</title>
<path fill="none" stroke="midnightblue" d="M270.19,-112.32C287.35,-103.66 313.95,-90.24 333.75,-80.25"/>
<polygon fill="midnightblue" stroke="midnightblue" points="335.5,-83.28 342.85,-75.65 332.35,-77.04 335.5,-83.28"/>
</g>
<!-- Node29&#45;&gt;Node14 -->
<g id="edge38" class="edge">
<title>Node29&#45;&gt;Node14</title>
<path fill="none" stroke="midnightblue" d="M353.89,-56.08C348.72,-48.53 341.15,-37.49 334.81,-28.23"/>
<polygon fill="midnightblue" stroke="midnightblue" points="337.54,-26.02 329,-19.75 331.76,-29.98 337.54,-26.02"/>
</g>
<!-- Node29&#45;&gt;Node19 -->
<g id="edge39" class="edge">
<title>Node29&#45;&gt;Node19</title>
<path fill="none" stroke="midnightblue" d="M377.99,-56.32C396.04,-47.62 424.05,-34.12 444.8,-24.11"/>
<polygon fill="midnightblue" stroke="midnightblue" points="446.56,-27.15 454.05,-19.65 443.52,-20.84 446.56,-27.15"/>
</g>
</g>
</svg>
