<?xml version="1.0" encoding="UTF-8" standalone="no"?>
<!DOCTYPE svg PUBLIC "-//W3C//DTD SVG 1.1//EN"
 "http://www.w3.org/Graphics/SVG/1.1/DTD/svg11.dtd">
<!-- Generated by graphviz version 2.43.0 (0)
 -->
<!-- Title: src/json_printer.cc Pages: 1 -->
<svg width="2510pt" height="420pt"
 viewBox="0.00 0.00 2510.00 420.00" xmlns="http://www.w3.org/2000/svg" xmlns:xlink="http://www.w3.org/1999/xlink">
<g id="graph0" class="graph" transform="scale(1 1) rotate(0) translate(4 416)">
<title>src/json_printer.cc</title>
<!-- Node1 -->
<g id="node1" class="node">
<title>Node1</title>
<g id="a_node1"><a xlink:title=" ">
<polygon fill="#bfbfbf" stroke="black" points="2293,-392.5 2293,-411.5 2397,-411.5 2397,-392.5 2293,-392.5"/>
<text text-anchor="middle" x="2345" y="-399.5" font-family="Helvetica,sans-Serif" font-size="10.00">src/json_printer.cc</text>
</a>
</g>
</g>
<!-- Node2 -->
<g id="node2" class="node">
<title>Node2</title>
<g id="a_node2"><a xlink:title=" ">
<polygon fill="none" stroke="#bfbfbf" points="2092,-56.5 2092,-75.5 2156,-75.5 2156,-56.5 2092,-56.5"/>
<text text-anchor="middle" x="2124" y="-63.5" font-family="Helvetica,sans-Serif" font-size="10.00">algorithm</text>
</a>
</g>
</g>
<!-- Node1&#45;&gt;Node2 -->
<g id="edge1" class="edge">
<title>Node1&#45;&gt;Node2</title>
<path fill="none" stroke="midnightblue" d="M2347.56,-392.25C2352.75,-373.74 2364,-329.18 2364,-291 2364,-291 2364,-291 2364,-177 2364,-133.97 2234.89,-94.89 2166.06,-77.11"/>
<polygon fill="midnightblue" stroke="midnightblue" points="2166.92,-73.71 2156.37,-74.64 2165.2,-80.5 2166.92,-73.71"/>
</g>
<!-- Node3 -->
<g id="node3" class="node">
<title>Node3</title>
<g id="a_node3"><a xlink:title=" ">
<polygon fill="none" stroke="#bfbfbf" points="1672.5,-56.5 1672.5,-75.5 1717.5,-75.5 1717.5,-56.5 1672.5,-56.5"/>
<text text-anchor="middle" x="1695" y="-63.5" font-family="Helvetica,sans-Serif" font-size="10.00">utility</text>
</a>
</g>
</g>
<!-- Node1&#45;&gt;Node3 -->
<g id="edge2" class="edge">
<title>Node1&#45;&gt;Node3</title>
<path fill="none" stroke="midnightblue" d="M2342.44,-392.25C2337.25,-373.74 2326,-329.18 2326,-291 2326,-291 2326,-291 2326,-233 2326,-202.9 2330.35,-187 2307,-168 2229.01,-104.54 1953.85,-155.09 1856,-132 1806.23,-120.26 1751.72,-95.54 1720.61,-80.19"/>
<polygon fill="midnightblue" stroke="midnightblue" points="1721.88,-76.91 1711.37,-75.57 1718.75,-83.17 1721.88,-76.91"/>
</g>
<!-- Node4 -->
<g id="node4" class="node">
<title>Node4</title>
<g id="a_node4"><a xlink:href="stats__printer_8h.html" target="_top" xlink:title=" ">
<polygon fill="none" stroke="black" points="985,-336.5 985,-355.5 1071,-355.5 1071,-336.5 985,-336.5"/>
<text text-anchor="middle" x="1028" y="-343.5" font-family="Helvetica,sans-Serif" font-size="10.00">stats_printer.h</text>
</a>
</g>
</g>
<!-- Node1&#45;&gt;Node4 -->
<g id="edge3" class="edge">
<title>Node1&#45;&gt;Node4</title>
<path fill="none" stroke="midnightblue" d="M2292.97,-398.87C2082.35,-390.23 1294.22,-357.92 1081.3,-349.19"/>
<polygon fill="midnightblue" stroke="midnightblue" points="1081.15,-345.68 1071.02,-348.76 1080.86,-352.67 1081.15,-345.68"/>
</g>
<!-- Node41 -->
<g id="node41" class="node">
<title>Node41</title>
<g id="a_node41"><a xlink:title=" ">
<polygon fill="none" stroke="#bfbfbf" points="2392,-336.5 2392,-355.5 2502,-355.5 2502,-336.5 2392,-336.5"/>
<text text-anchor="middle" x="2447" y="-343.5" font-family="Helvetica,sans-Serif" font-size="10.00">nlohmann/json.hpp</text>
</a>
</g>
</g>
<!-- Node1&#45;&gt;Node41 -->
<g id="edge87" class="edge">
<title>Node1&#45;&gt;Node41</title>
<path fill="none" stroke="midnightblue" d="M2361.39,-392.32C2377.67,-383.7 2402.87,-370.36 2421.72,-360.39"/>
<polygon fill="midnightblue" stroke="midnightblue" points="2423.45,-363.43 2430.65,-355.65 2420.18,-357.24 2423.45,-363.43"/>
</g>
<!-- Node5 -->
<g id="node5" class="node">
<title>Node5</title>
<g id="a_node5"><a xlink:title=" ">
<polygon fill="none" stroke="#bfbfbf" points="1094,-280.5 1094,-299.5 1154,-299.5 1154,-280.5 1094,-280.5"/>
<text text-anchor="middle" x="1124" y="-287.5" font-family="Helvetica,sans-Serif" font-size="10.00">iostream</text>
</a>
</g>
</g>
<!-- Node4&#45;&gt;Node5 -->
<g id="edge4" class="edge">
<title>Node4&#45;&gt;Node5</title>
<path fill="none" stroke="midnightblue" d="M1043.42,-336.32C1058.54,-327.82 1081.82,-314.73 1099.47,-304.8"/>
<polygon fill="midnightblue" stroke="midnightblue" points="1101.61,-307.61 1108.61,-299.65 1098.18,-301.51 1101.61,-307.61"/>
</g>
<!-- Node6 -->
<g id="node6" class="node">
<title>Node6</title>
<g id="a_node6"><a xlink:title=" ">
<polygon fill="none" stroke="#bfbfbf" points="1109.5,-56.5 1109.5,-75.5 1156.5,-75.5 1156.5,-56.5 1109.5,-56.5"/>
<text text-anchor="middle" x="1133" y="-63.5" font-family="Helvetica,sans-Serif" font-size="10.00">vector</text>
</a>
</g>
</g>
<!-- Node4&#45;&gt;Node6 -->
<g id="edge5" class="edge">
<title>Node4&#45;&gt;Node6</title>
<path fill="none" stroke="midnightblue" d="M984.82,-344.81C794.28,-343.4 38,-331.73 38,-235 38,-235 38,-235 38,-177 38,-67.59 914.68,-65.91 1099.18,-66.76"/>
<polygon fill="midnightblue" stroke="midnightblue" points="1099.35,-70.26 1109.37,-66.82 1099.39,-63.26 1099.35,-70.26"/>
</g>
<!-- Node7 -->
<g id="node7" class="node">
<title>Node7</title>
<g id="a_node7"><a xlink:href="cache_8h.html" target="_top" xlink:title=" ">
<polygon fill="none" stroke="black" points="727,-224.5 727,-243.5 781,-243.5 781,-224.5 727,-224.5"/>
<text text-anchor="middle" x="754" y="-231.5" font-family="Helvetica,sans-Serif" font-size="10.00">cache.h</text>
</a>
</g>
</g>
<!-- Node4&#45;&gt;Node7 -->
<g id="edge6" class="edge">
<title>Node4&#45;&gt;Node7</title>
<path fill="none" stroke="midnightblue" d="M1006.5,-336.37C958.18,-316.97 840.86,-269.87 784.81,-247.37"/>
<polygon fill="midnightblue" stroke="midnightblue" points="785.98,-244.07 775.4,-243.59 783.38,-250.57 785.98,-244.07"/>
</g>
<!-- Node27 -->
<g id="node27" class="node">
<title>Node27</title>
<g id="a_node27"><a xlink:href="dram__controller_8h.html" target="_top" xlink:title=" ">
<polygon fill="none" stroke="black" points="1422,-224.5 1422,-243.5 1524,-243.5 1524,-224.5 1422,-224.5"/>
<text text-anchor="middle" x="1473" y="-231.5" font-family="Helvetica,sans-Serif" font-size="10.00">dram_controller.h</text>
</a>
</g>
</g>
<!-- Node4&#45;&gt;Node27 -->
<g id="edge31" class="edge">
<title>Node4&#45;&gt;Node27</title>
<path fill="none" stroke="midnightblue" d="M1032.64,-336.45C1040.99,-322.02 1060.01,-293.11 1085,-280 1113.23,-265.19 1309.33,-247.86 1411.46,-239.7"/>
<polygon fill="midnightblue" stroke="midnightblue" points="1411.95,-243.17 1421.64,-238.89 1411.39,-236.19 1411.95,-243.17"/>
</g>
<!-- Node30 -->
<g id="node30" class="node">
<title>Node30</title>
<g id="a_node30"><a xlink:href="ooo__cpu_8h.html" target="_top" xlink:title=" ">
<polygon fill="none" stroke="black" points="1231,-224.5 1231,-243.5 1297,-243.5 1297,-224.5 1231,-224.5"/>
<text text-anchor="middle" x="1264" y="-231.5" font-family="Helvetica,sans-Serif" font-size="10.00">ooo_cpu.h</text>
</a>
</g>
</g>
<!-- Node4&#45;&gt;Node30 -->
<g id="edge40" class="edge">
<title>Node4&#45;&gt;Node30</title>
<path fill="none" stroke="midnightblue" d="M1028.61,-336.36C1030.08,-322.32 1035.08,-294.64 1052,-280 1076.8,-258.55 1166.07,-245.45 1220.55,-239.27"/>
<polygon fill="midnightblue" stroke="midnightblue" points="1221.07,-242.74 1230.63,-238.16 1220.3,-235.78 1221.07,-242.74"/>
</g>
<!-- Node40 -->
<g id="node40" class="node">
<title>Node40</title>
<g id="a_node40"><a xlink:href="phase__info_8h.html" target="_top" xlink:title=" ">
<polygon fill="none" stroke="black" points="530.5,-280.5 530.5,-299.5 609.5,-299.5 609.5,-280.5 530.5,-280.5"/>
<text text-anchor="middle" x="570" y="-287.5" font-family="Helvetica,sans-Serif" font-size="10.00">phase_info.h</text>
</a>
</g>
</g>
<!-- Node4&#45;&gt;Node40 -->
<g id="edge78" class="edge">
<title>Node4&#45;&gt;Node40</title>
<path fill="none" stroke="midnightblue" d="M984.91,-339.92C899.68,-329.87 710.01,-307.51 619.68,-296.86"/>
<polygon fill="midnightblue" stroke="midnightblue" points="620.03,-293.37 609.69,-295.68 619.21,-300.33 620.03,-293.37"/>
</g>
<!-- Node7&#45;&gt;Node6 -->
<g id="edge13" class="edge">
<title>Node7&#45;&gt;Node6</title>
<path fill="none" stroke="midnightblue" d="M726.8,-233.02C616.82,-232.8 209.15,-229.2 171,-188 164.96,-181.48 165.13,-174.67 171,-168 233.62,-96.82 934.26,-72.63 1098.63,-67.91"/>
<polygon fill="midnightblue" stroke="midnightblue" points="1099.2,-71.4 1109.1,-67.62 1099.01,-64.4 1099.2,-71.4"/>
</g>
<!-- Node8 -->
<g id="node8" class="node">
<title>Node8</title>
<g id="a_node8"><a xlink:title=" ">
<polygon fill="none" stroke="#bfbfbf" points="1452,-112.5 1452,-131.5 1494,-131.5 1494,-112.5 1452,-112.5"/>
<text text-anchor="middle" x="1473" y="-119.5" font-family="Helvetica,sans-Serif" font-size="10.00">array</text>
</a>
</g>
</g>
<!-- Node7&#45;&gt;Node8 -->
<g id="edge7" class="edge">
<title>Node7&#45;&gt;Node8</title>
<path fill="none" stroke="midnightblue" d="M753.66,-224.14C753.64,-209.79 755.93,-181.67 773,-168 779.63,-162.69 1306.84,-132.43 1441.81,-124.76"/>
<polygon fill="midnightblue" stroke="midnightblue" points="1442.11,-128.25 1451.89,-124.19 1441.71,-121.26 1442.11,-128.25"/>
</g>
<!-- Node9 -->
<g id="node9" class="node">
<title>Node9</title>
<g id="a_node9"><a xlink:title=" ">
<polygon fill="none" stroke="#bfbfbf" points="953,-168.5 953,-187.5 997,-187.5 997,-168.5 953,-168.5"/>
<text text-anchor="middle" x="975" y="-175.5" font-family="Helvetica,sans-Serif" font-size="10.00">bitset</text>
</a>
</g>
</g>
<!-- Node7&#45;&gt;Node9 -->
<g id="edge8" class="edge">
<title>Node7&#45;&gt;Node9</title>
<path fill="none" stroke="midnightblue" d="M781.16,-227.02C816.33,-219.17 879.72,-204.7 942.95,-188.18"/>
<polygon fill="midnightblue" stroke="midnightblue" points="943.9,-191.55 952.69,-185.62 942.12,-184.78 943.9,-191.55"/>
</g>
<!-- Node10 -->
<g id="node10" class="node">
<title>Node10</title>
<g id="a_node10"><a xlink:title=" ">
<polygon fill="none" stroke="#bfbfbf" points="1252.5,-112.5 1252.5,-131.5 1299.5,-131.5 1299.5,-112.5 1252.5,-112.5"/>
<text text-anchor="middle" x="1276" y="-119.5" font-family="Helvetica,sans-Serif" font-size="10.00">deque</text>
</a>
</g>
</g>
<!-- Node7&#45;&gt;Node10 -->
<g id="edge9" class="edge">
<title>Node7&#45;&gt;Node10</title>
<path fill="none" stroke="midnightblue" d="M747.87,-224.16C739.09,-210.32 725.53,-183.54 740,-168 776.61,-128.68 1154.11,-140.49 1242.29,-131.56"/>
<polygon fill="midnightblue" stroke="midnightblue" points="1242.9,-135.01 1252.36,-130.23 1241.98,-128.07 1242.9,-135.01"/>
</g>
<!-- Node11 -->
<g id="node11" class="node">
<title>Node11</title>
<g id="a_node11"><a xlink:title=" ">
<polygon fill="none" stroke="#bfbfbf" points="472,-168.5 472,-187.5 530,-187.5 530,-168.5 472,-168.5"/>
<text text-anchor="middle" x="501" y="-175.5" font-family="Helvetica,sans-Serif" font-size="10.00">memory</text>
</a>
</g>
</g>
<!-- Node7&#45;&gt;Node11 -->
<g id="edge10" class="edge">
<title>Node7&#45;&gt;Node11</title>
<path fill="none" stroke="midnightblue" d="M726.8,-227.54C687.71,-219.65 613.14,-204.41 539.88,-188.15"/>
<polygon fill="midnightblue" stroke="midnightblue" points="540.55,-184.72 530.03,-185.96 539.03,-191.55 540.55,-184.72"/>
</g>
<!-- Node12 -->
<g id="node12" class="node">
<title>Node12</title>
<g id="a_node12"><a xlink:title=" ">
<polygon fill="none" stroke="#bfbfbf" points="869.5,-168.5 869.5,-187.5 934.5,-187.5 934.5,-168.5 869.5,-168.5"/>
<text text-anchor="middle" x="902" y="-175.5" font-family="Helvetica,sans-Serif" font-size="10.00">stdexcept</text>
</a>
</g>
</g>
<!-- Node7&#45;&gt;Node12 -->
<g id="edge11" class="edge">
<title>Node7&#45;&gt;Node12</title>
<path fill="none" stroke="midnightblue" d="M777.45,-224.44C802.13,-215.44 841.19,-201.19 868.98,-191.05"/>
<polygon fill="midnightblue" stroke="midnightblue" points="870.46,-194.23 878.66,-187.52 868.06,-187.66 870.46,-194.23"/>
</g>
<!-- Node13 -->
<g id="node13" class="node">
<title>Node13</title>
<g id="a_node13"><a xlink:title=" ">
<polygon fill="none" stroke="#bfbfbf" points="548,-168.5 548,-187.5 592,-187.5 592,-168.5 548,-168.5"/>
<text text-anchor="middle" x="570" y="-175.5" font-family="Helvetica,sans-Serif" font-size="10.00">string</text>
</a>
</g>
</g>
<!-- Node7&#45;&gt;Node13 -->
<g id="edge12" class="edge">
<title>Node7&#45;&gt;Node13</title>
<path fill="none" stroke="midnightblue" d="M726.85,-225.03C693.55,-215.26 637.19,-198.72 601.87,-188.35"/>
<polygon fill="midnightblue" stroke="midnightblue" points="602.64,-184.93 592.06,-185.48 600.67,-191.65 602.64,-184.93"/>
</g>
<!-- Node14 -->
<g id="node14" class="node">
<title>Node14</title>
<g id="a_node14"><a xlink:href="champsim_8h.html" target="_top" xlink:title=" ">
<polygon fill="none" stroke="black" points="610.5,-168.5 610.5,-187.5 687.5,-187.5 687.5,-168.5 610.5,-168.5"/>
<text text-anchor="middle" x="649" y="-175.5" font-family="Helvetica,sans-Serif" font-size="10.00">champsim.h</text>
</a>
</g>
</g>
<!-- Node7&#45;&gt;Node14 -->
<g id="edge14" class="edge">
<title>Node7&#45;&gt;Node14</title>
<path fill="none" stroke="midnightblue" d="M737.13,-224.32C720.29,-215.66 694.19,-202.24 674.76,-192.25"/>
<polygon fill="midnightblue" stroke="midnightblue" points="676.32,-189.12 665.83,-187.65 673.12,-195.34 676.32,-189.12"/>
</g>
<!-- Node17 -->
<g id="node17" class="node">
<title>Node17</title>
<g id="a_node17"><a xlink:title=" ">
<polygon fill="none" stroke="#bfbfbf" points="1199.5,-168.5 1199.5,-187.5 1328.5,-187.5 1328.5,-168.5 1199.5,-168.5"/>
<text text-anchor="middle" x="1264" y="-175.5" font-family="Helvetica,sans-Serif" font-size="10.00">champsim_constants.h</text>
</a>
</g>
</g>
<!-- Node7&#45;&gt;Node17 -->
<g id="edge17" class="edge">
<title>Node7&#45;&gt;Node17</title>
<path fill="none" stroke="midnightblue" d="M781.06,-230.13C856.92,-222.1 1073.62,-199.16 1189.23,-186.92"/>
<polygon fill="midnightblue" stroke="midnightblue" points="1189.84,-190.37 1199.41,-185.84 1189.1,-183.41 1189.84,-190.37"/>
</g>
<!-- Node18 -->
<g id="node18" class="node">
<title>Node18</title>
<g id="a_node18"><a xlink:href="channel_8h.html" target="_top" xlink:title=" ">
<polygon fill="none" stroke="black" points="1347,-168.5 1347,-187.5 1411,-187.5 1411,-168.5 1347,-168.5"/>
<text text-anchor="middle" x="1379" y="-175.5" font-family="Helvetica,sans-Serif" font-size="10.00">channel.h</text>
</a>
</g>
</g>
<!-- Node7&#45;&gt;Node18 -->
<g id="edge18" class="edge">
<title>Node7&#45;&gt;Node18</title>
<path fill="none" stroke="midnightblue" d="M781.22,-232.25C863.53,-229.69 1117.14,-219.74 1336.75,-187.98"/>
<polygon fill="midnightblue" stroke="midnightblue" points="1337.46,-191.41 1346.85,-186.5 1336.45,-184.49 1337.46,-191.41"/>
</g>
<!-- Node22 -->
<g id="node22" class="node">
<title>Node22</title>
<g id="a_node22"><a xlink:href="module__impl_8h.html" target="_top" xlink:title=" ">
<polygon fill="none" stroke="black" points="1015.5,-168.5 1015.5,-187.5 1104.5,-187.5 1104.5,-168.5 1015.5,-168.5"/>
<text text-anchor="middle" x="1060" y="-175.5" font-family="Helvetica,sans-Serif" font-size="10.00">module_impl.h</text>
</a>
</g>
</g>
<!-- Node7&#45;&gt;Node22 -->
<g id="edge26" class="edge">
<title>Node7&#45;&gt;Node22</title>
<path fill="none" stroke="midnightblue" d="M781.16,-228.21C831.28,-219.36 939.21,-200.32 1005.12,-188.68"/>
<polygon fill="midnightblue" stroke="midnightblue" points="1006.08,-192.07 1015.32,-186.88 1004.87,-185.18 1006.08,-192.07"/>
</g>
<!-- Node23 -->
<g id="node23" class="node">
<title>Node23</title>
<g id="a_node23"><a xlink:href="operable_8h.html" target="_top" xlink:title=" ">
<polygon fill="none" stroke="black" points="1533,-168.5 1533,-187.5 1601,-187.5 1601,-168.5 1533,-168.5"/>
<text text-anchor="middle" x="1567" y="-175.5" font-family="Helvetica,sans-Serif" font-size="10.00">operable.h</text>
</a>
</g>
</g>
<!-- Node7&#45;&gt;Node23 -->
<g id="edge27" class="edge">
<title>Node7&#45;&gt;Node23</title>
<path fill="none" stroke="midnightblue" d="M781.29,-231.81C877.71,-227.49 1211.36,-211.68 1486,-188 1497.88,-186.98 1510.73,-185.65 1522.6,-184.33"/>
<polygon fill="midnightblue" stroke="midnightblue" points="1523.2,-187.79 1532.75,-183.18 1522.42,-180.83 1523.2,-187.79"/>
</g>
<!-- Node24 -->
<g id="node24" class="node">
<title>Node24</title>
<g id="a_node24"><a xlink:title=" ">
<polygon fill="none" stroke="#bfbfbf" points="782.5,-168.5 782.5,-187.5 851.5,-187.5 851.5,-168.5 782.5,-168.5"/>
<text text-anchor="middle" x="817" y="-175.5" font-family="Helvetica,sans-Serif" font-size="10.00">type_traits</text>
</a>
</g>
</g>
<!-- Node7&#45;&gt;Node24 -->
<g id="edge28" class="edge">
<title>Node7&#45;&gt;Node24</title>
<path fill="none" stroke="midnightblue" d="M764.12,-224.32C773.53,-216.26 787.74,-204.08 799.07,-194.37"/>
<polygon fill="midnightblue" stroke="midnightblue" points="801.38,-197 806.69,-187.83 796.82,-191.68 801.38,-197"/>
</g>
<!-- Node25 -->
<g id="node25" class="node">
<title>Node25</title>
<g id="a_node25"><a xlink:title=" ">
<polygon fill="none" stroke="#bfbfbf" points="180,-168.5 180,-187.5 310,-187.5 310,-168.5 180,-168.5"/>
<text text-anchor="middle" x="245" y="-175.5" font-family="Helvetica,sans-Serif" font-size="10.00">cache_module_decl.inc</text>
</a>
</g>
</g>
<!-- Node7&#45;&gt;Node25 -->
<g id="edge29" class="edge">
<title>Node7&#45;&gt;Node25</title>
<path fill="none" stroke="midnightblue" d="M726.5,-230.33C659.17,-223.75 480.45,-206.06 320.39,-188.14"/>
<polygon fill="midnightblue" stroke="midnightblue" points="320.69,-184.65 310.36,-187.01 319.91,-191.61 320.69,-184.65"/>
</g>
<!-- Node26 -->
<g id="node26" class="node">
<title>Node26</title>
<g id="a_node26"><a xlink:title=" ">
<polygon fill="none" stroke="#bfbfbf" points="328.5,-168.5 328.5,-187.5 453.5,-187.5 453.5,-168.5 328.5,-168.5"/>
<text text-anchor="middle" x="391" y="-175.5" font-family="Helvetica,sans-Serif" font-size="10.00">cache_module_def.inc</text>
</a>
</g>
</g>
<!-- Node7&#45;&gt;Node26 -->
<g id="edge30" class="edge">
<title>Node7&#45;&gt;Node26</title>
<path fill="none" stroke="midnightblue" d="M726.72,-228.94C670.19,-220.53 538.84,-200.99 458.21,-189"/>
<polygon fill="midnightblue" stroke="midnightblue" points="458.56,-185.51 448.16,-187.5 457.53,-192.44 458.56,-185.51"/>
</g>
<!-- Node15 -->
<g id="node15" class="node">
<title>Node15</title>
<g id="a_node15"><a xlink:title=" ">
<polygon fill="none" stroke="#bfbfbf" points="1490,-0.5 1490,-19.5 1540,-19.5 1540,-0.5 1490,-0.5"/>
<text text-anchor="middle" x="1515" y="-7.5" font-family="Helvetica,sans-Serif" font-size="10.00">cstdint</text>
</a>
</g>
</g>
<!-- Node14&#45;&gt;Node15 -->
<g id="edge15" class="edge">
<title>Node14&#45;&gt;Node15</title>
<path fill="none" stroke="midnightblue" d="M636.42,-168.42C618.81,-155.4 590.71,-130.24 607,-112 754.18,52.81 881.39,-80.38 1101,-56 1241.11,-40.44 1407.97,-22.48 1479.54,-14.8"/>
<polygon fill="midnightblue" stroke="midnightblue" points="1480.22,-18.25 1489.79,-13.7 1479.48,-11.29 1480.22,-18.25"/>
</g>
<!-- Node16 -->
<g id="node16" class="node">
<title>Node16</title>
<g id="a_node16"><a xlink:title=" ">
<polygon fill="none" stroke="#bfbfbf" points="616.5,-112.5 616.5,-131.5 681.5,-131.5 681.5,-112.5 616.5,-112.5"/>
<text text-anchor="middle" x="649" y="-119.5" font-family="Helvetica,sans-Serif" font-size="10.00">exception</text>
</a>
</g>
</g>
<!-- Node14&#45;&gt;Node16 -->
<g id="edge16" class="edge">
<title>Node14&#45;&gt;Node16</title>
<path fill="none" stroke="midnightblue" d="M649,-168.08C649,-161.01 649,-150.86 649,-141.99"/>
<polygon fill="midnightblue" stroke="midnightblue" points="652.5,-141.75 649,-131.75 645.5,-141.75 652.5,-141.75"/>
</g>
<!-- Node18&#45;&gt;Node6 -->
<g id="edge24" class="edge">
<title>Node18&#45;&gt;Node6</title>
<path fill="none" stroke="midnightblue" d="M1372.24,-168.39C1360.76,-154.39 1336.08,-126.77 1309,-112 1263.39,-87.12 1203.6,-75.63 1166.76,-70.59"/>
<polygon fill="midnightblue" stroke="midnightblue" points="1166.93,-67.09 1156.56,-69.29 1166.04,-74.03 1166.93,-67.09"/>
</g>
<!-- Node18&#45;&gt;Node8 -->
<g id="edge19" class="edge">
<title>Node18&#45;&gt;Node8</title>
<path fill="none" stroke="midnightblue" d="M1394.1,-168.32C1408.9,-159.82 1431.69,-146.73 1448.98,-136.8"/>
<polygon fill="midnightblue" stroke="midnightblue" points="1451.01,-139.67 1457.93,-131.65 1447.52,-133.6 1451.01,-139.67"/>
</g>
<!-- Node18&#45;&gt;Node10 -->
<g id="edge21" class="edge">
<title>Node18&#45;&gt;Node10</title>
<path fill="none" stroke="midnightblue" d="M1362.45,-168.32C1346.01,-159.7 1320.57,-146.36 1301.53,-136.39"/>
<polygon fill="midnightblue" stroke="midnightblue" points="1302.99,-133.2 1292.51,-131.65 1299.74,-139.4 1302.99,-133.2"/>
</g>
<!-- Node18&#45;&gt;Node15 -->
<g id="edge20" class="edge">
<title>Node18&#45;&gt;Node15</title>
<path fill="none" stroke="midnightblue" d="M1378.57,-168.21C1378,-146.48 1379.48,-89.59 1408,-56 1426.18,-34.59 1456.28,-23.15 1479.93,-17.18"/>
<polygon fill="midnightblue" stroke="midnightblue" points="1480.99,-20.53 1489.95,-14.87 1479.42,-13.7 1480.99,-20.53"/>
</g>
<!-- Node19 -->
<g id="node19" class="node">
<title>Node19</title>
<g id="a_node19"><a xlink:title=" ">
<polygon fill="none" stroke="#bfbfbf" points="1512.5,-112.5 1512.5,-131.5 1577.5,-131.5 1577.5,-112.5 1512.5,-112.5"/>
<text text-anchor="middle" x="1545" y="-119.5" font-family="Helvetica,sans-Serif" font-size="10.00">functional</text>
</a>
</g>
</g>
<!-- Node18&#45;&gt;Node19 -->
<g id="edge22" class="edge">
<title>Node18&#45;&gt;Node19</title>
<path fill="none" stroke="midnightblue" d="M1405.3,-168.44C1433.35,-159.32 1477.94,-144.81 1509.18,-134.65"/>
<polygon fill="midnightblue" stroke="midnightblue" points="1510.39,-137.94 1518.82,-131.52 1508.23,-131.28 1510.39,-137.94"/>
</g>
<!-- Node20 -->
<g id="node20" class="node">
<title>Node20</title>
<g id="a_node20"><a xlink:title=" ">
<polygon fill="none" stroke="#bfbfbf" points="2001,-0.5 2001,-19.5 2045,-19.5 2045,-0.5 2001,-0.5"/>
<text text-anchor="middle" x="2023" y="-7.5" font-family="Helvetica,sans-Serif" font-size="10.00">limits</text>
</a>
</g>
</g>
<!-- Node18&#45;&gt;Node20 -->
<g id="edge23" class="edge">
<title>Node18&#45;&gt;Node20</title>
<path fill="none" stroke="midnightblue" d="M1385.01,-168.36C1395.24,-154.33 1417.45,-126.65 1443,-112 1538.37,-57.31 1882.99,-23.22 1990.64,-13.72"/>
<polygon fill="midnightblue" stroke="midnightblue" points="1991.21,-17.18 2000.87,-12.83 1990.6,-10.21 1991.21,-17.18"/>
</g>
<!-- Node21 -->
<g id="node21" class="node">
<title>Node21</title>
<g id="a_node21"><a xlink:title=" ">
<polygon fill="none" stroke="#bfbfbf" points="1161.5,-112.5 1161.5,-131.5 1234.5,-131.5 1234.5,-112.5 1161.5,-112.5"/>
<text text-anchor="middle" x="1198" y="-119.5" font-family="Helvetica,sans-Serif" font-size="10.00">string_view</text>
</a>
</g>
</g>
<!-- Node18&#45;&gt;Node21 -->
<g id="edge25" class="edge">
<title>Node18&#45;&gt;Node21</title>
<path fill="none" stroke="midnightblue" d="M1350.32,-168.44C1319.47,-159.24 1270.27,-144.56 1236.17,-134.39"/>
<polygon fill="midnightblue" stroke="midnightblue" points="1237.13,-131.02 1226.55,-131.52 1235.13,-137.73 1237.13,-131.02"/>
</g>
<!-- Node27&#45;&gt;Node8 -->
<g id="edge32" class="edge">
<title>Node27&#45;&gt;Node8</title>
<path fill="none" stroke="midnightblue" d="M1524.31,-230.44C1554.53,-225.98 1590.55,-214.87 1610,-188 1615.21,-180.8 1615.21,-175.2 1610,-168 1606.77,-163.53 1543.11,-143.91 1503.72,-132.1"/>
<polygon fill="midnightblue" stroke="midnightblue" points="1504.62,-128.71 1494.04,-129.21 1502.62,-135.42 1504.62,-128.71"/>
</g>
<!-- Node27&#45;&gt;Node13 -->
<g id="edge36" class="edge">
<title>Node27&#45;&gt;Node13</title>
<path fill="none" stroke="midnightblue" d="M1421.84,-230.21C1388.79,-228.41 1344.85,-226.04 1306,-224 996.06,-207.73 912.18,-239.39 602.38,-187.82"/>
<polygon fill="midnightblue" stroke="midnightblue" points="602.65,-184.32 592.21,-186.12 601.49,-191.22 602.65,-184.32"/>
</g>
<!-- Node27&#45;&gt;Node17 -->
<g id="edge37" class="edge">
<title>Node27&#45;&gt;Node17</title>
<path fill="none" stroke="midnightblue" d="M1439.88,-224.44C1403.88,-215.14 1346.23,-200.25 1306.81,-190.06"/>
<polygon fill="midnightblue" stroke="midnightblue" points="1307.52,-186.63 1296.96,-187.52 1305.77,-193.41 1307.52,-186.63"/>
</g>
<!-- Node27&#45;&gt;Node18 -->
<g id="edge38" class="edge">
<title>Node27&#45;&gt;Node18</title>
<path fill="none" stroke="midnightblue" d="M1457.9,-224.32C1443.1,-215.82 1420.31,-202.73 1403.02,-192.8"/>
<polygon fill="midnightblue" stroke="midnightblue" points="1404.48,-189.6 1394.07,-187.65 1400.99,-195.67 1404.48,-189.6"/>
</g>
<!-- Node27&#45;&gt;Node20 -->
<g id="edge34" class="edge">
<title>Node27&#45;&gt;Node20</title>
<path fill="none" stroke="midnightblue" d="M1524.06,-232.22C1703.71,-229.23 2297.33,-217.17 2325,-188 2367.96,-142.71 2328.51,-91.26 2277,-56 2241.35,-31.6 2115.19,-18.42 2055.18,-13.41"/>
<polygon fill="midnightblue" stroke="midnightblue" points="2055.36,-9.91 2045.11,-12.59 2054.8,-16.89 2055.36,-9.91"/>
</g>
<!-- Node27&#45;&gt;Node23 -->
<g id="edge39" class="edge">
<title>Node27&#45;&gt;Node23</title>
<path fill="none" stroke="midnightblue" d="M1488.1,-224.32C1502.9,-215.82 1525.69,-202.73 1542.98,-192.8"/>
<polygon fill="midnightblue" stroke="midnightblue" points="1545.01,-195.67 1551.93,-187.65 1541.52,-189.6 1545.01,-195.67"/>
</g>
<!-- Node28 -->
<g id="node28" class="node">
<title>Node28</title>
<g id="a_node28"><a xlink:title=" ">
<polygon fill="none" stroke="#bfbfbf" points="2250.5,-168.5 2250.5,-187.5 2297.5,-187.5 2297.5,-168.5 2250.5,-168.5"/>
<text text-anchor="middle" x="2274" y="-175.5" font-family="Helvetica,sans-Serif" font-size="10.00">cmath</text>
</a>
</g>
</g>
<!-- Node27&#45;&gt;Node28 -->
<g id="edge33" class="edge">
<title>Node27&#45;&gt;Node28</title>
<path fill="none" stroke="midnightblue" d="M1524.21,-233.04C1647.47,-232.47 1970.14,-227.02 2236,-188 2237.47,-187.78 2238.96,-187.54 2240.47,-187.27"/>
<polygon fill="midnightblue" stroke="midnightblue" points="2241.3,-190.68 2250.41,-185.26 2239.91,-183.82 2241.3,-190.68"/>
</g>
<!-- Node29 -->
<g id="node29" class="node">
<title>Node29</title>
<g id="a_node29"><a xlink:title=" ">
<polygon fill="none" stroke="#bfbfbf" points="2212,-56.5 2212,-75.5 2268,-75.5 2268,-56.5 2212,-56.5"/>
<text text-anchor="middle" x="2240" y="-63.5" font-family="Helvetica,sans-Serif" font-size="10.00">optional</text>
</a>
</g>
</g>
<!-- Node27&#45;&gt;Node29 -->
<g id="edge35" class="edge">
<title>Node27&#45;&gt;Node29</title>
<path fill="none" stroke="midnightblue" d="M1524.2,-232.16C1701.52,-228.99 2279.99,-216.5 2307,-188 2337.66,-155.64 2288.6,-106.57 2259.33,-82.05"/>
<polygon fill="midnightblue" stroke="midnightblue" points="2261.31,-79.14 2251.34,-75.55 2256.89,-84.57 2261.31,-79.14"/>
</g>
<!-- Node30&#45;&gt;Node6 -->
<g id="edge49" class="edge">
<title>Node30&#45;&gt;Node6</title>
<path fill="none" stroke="midnightblue" d="M1241.11,-224.48C1223.51,-217.02 1199.48,-204.73 1183,-188 1154.52,-159.08 1141.44,-111.63 1136.14,-85.57"/>
<polygon fill="midnightblue" stroke="midnightblue" points="1139.54,-84.73 1134.27,-75.54 1132.66,-86.01 1139.54,-84.73"/>
</g>
<!-- Node30&#45;&gt;Node8 -->
<g id="edge41" class="edge">
<title>Node30&#45;&gt;Node8</title>
<path fill="none" stroke="midnightblue" d="M1297.27,-231.25C1353.26,-227.53 1462.54,-216.69 1486,-188 1496.89,-174.68 1490.63,-154.75 1483.53,-140.47"/>
<polygon fill="midnightblue" stroke="midnightblue" points="1486.57,-138.73 1478.69,-131.64 1480.43,-142.09 1486.57,-138.73"/>
</g>
<!-- Node30&#45;&gt;Node9 -->
<g id="edge42" class="edge">
<title>Node30&#45;&gt;Node9</title>
<path fill="none" stroke="midnightblue" d="M1230.93,-228.3C1183.61,-221.34 1093.72,-207.24 1007.28,-187.85"/>
<polygon fill="midnightblue" stroke="midnightblue" points="1007.83,-184.38 997.31,-185.58 1006.28,-191.21 1007.83,-184.38"/>
</g>
<!-- Node30&#45;&gt;Node10 -->
<g id="edge43" class="edge">
<title>Node30&#45;&gt;Node10</title>
<path fill="none" stroke="midnightblue" d="M1240.25,-224.48C1213.63,-213.51 1176.03,-192.86 1191,-168 1197.19,-157.72 1223.22,-144.8 1244.87,-135.44"/>
<polygon fill="midnightblue" stroke="midnightblue" points="1246.26,-138.65 1254.11,-131.54 1243.53,-132.21 1246.26,-138.65"/>
</g>
<!-- Node30&#45;&gt;Node11 -->
<g id="edge45" class="edge">
<title>Node30&#45;&gt;Node11</title>
<path fill="none" stroke="midnightblue" d="M1230.91,-232.95C1129.13,-232.37 811.65,-227.4 540.4,-187.96"/>
<polygon fill="midnightblue" stroke="midnightblue" points="540.77,-184.47 530.36,-186.48 539.75,-191.4 540.77,-184.47"/>
</g>
<!-- Node30&#45;&gt;Node12 -->
<g id="edge48" class="edge">
<title>Node30&#45;&gt;Node12</title>
<path fill="none" stroke="midnightblue" d="M1230.71,-229.11C1174.12,-222.33 1055.36,-207.37 944.53,-187.97"/>
<polygon fill="midnightblue" stroke="midnightblue" points="944.97,-184.5 934.51,-186.21 943.75,-191.39 944.97,-184.5"/>
</g>
<!-- Node30&#45;&gt;Node14 -->
<g id="edge50" class="edge">
<title>Node30&#45;&gt;Node14</title>
<path fill="none" stroke="midnightblue" d="M1230.93,-230.1C1128.87,-221.14 818.41,-193.88 697.72,-183.28"/>
<polygon fill="midnightblue" stroke="midnightblue" points="697.93,-179.78 687.66,-182.39 697.32,-186.76 697.93,-179.78"/>
</g>
<!-- Node30&#45;&gt;Node17 -->
<g id="edge51" class="edge">
<title>Node30&#45;&gt;Node17</title>
<path fill="none" stroke="midnightblue" d="M1264,-224.08C1264,-217.01 1264,-206.86 1264,-197.99"/>
<polygon fill="midnightblue" stroke="midnightblue" points="1267.5,-197.75 1264,-187.75 1260.5,-197.75 1267.5,-197.75"/>
</g>
<!-- Node30&#45;&gt;Node18 -->
<g id="edge52" class="edge">
<title>Node30&#45;&gt;Node18</title>
<path fill="none" stroke="midnightblue" d="M1282.22,-224.44C1300.9,-215.68 1330.16,-201.94 1351.62,-191.86"/>
<polygon fill="midnightblue" stroke="midnightblue" points="1353.3,-194.93 1360.86,-187.52 1350.32,-188.6 1353.3,-194.93"/>
</g>
<!-- Node30&#45;&gt;Node20 -->
<g id="edge44" class="edge">
<title>Node30&#45;&gt;Node20</title>
<path fill="none" stroke="midnightblue" d="M1297.13,-230.88C1327.32,-228.98 1373.15,-226.16 1413,-224 1454.76,-221.74 2136.14,-218.27 2165,-188 2205.48,-145.54 2199.66,-103.34 2165,-56 2139.98,-21.83 2088.86,-12.96 2055.27,-11.01"/>
<polygon fill="midnightblue" stroke="midnightblue" points="2055.17,-7.5 2045.03,-10.59 2054.88,-14.49 2055.17,-7.5"/>
</g>
<!-- Node30&#45;&gt;Node22 -->
<g id="edge62" class="edge">
<title>Node30&#45;&gt;Node22</title>
<path fill="none" stroke="midnightblue" d="M1231.68,-224.44C1196.61,-215.16 1140.5,-200.31 1102.04,-190.13"/>
<polygon fill="midnightblue" stroke="midnightblue" points="1102.74,-186.69 1092.17,-187.52 1100.94,-193.46 1102.74,-186.69"/>
</g>
<!-- Node30&#45;&gt;Node23 -->
<g id="edge63" class="edge">
<title>Node30&#45;&gt;Node23</title>
<path fill="none" stroke="midnightblue" d="M1297.03,-227.29C1345.66,-218.85 1439.39,-202.49 1519,-188 1520.27,-187.77 1521.55,-187.53 1522.85,-187.3"/>
<polygon fill="midnightblue" stroke="midnightblue" points="1523.72,-190.69 1532.92,-185.44 1522.45,-183.81 1523.72,-190.69"/>
</g>
<!-- Node30&#45;&gt;Node24 -->
<g id="edge75" class="edge">
<title>Node30&#45;&gt;Node24</title>
<path fill="none" stroke="midnightblue" d="M1230.86,-230.39C1163.3,-224.83 1004.6,-210.59 861.92,-188.18"/>
<polygon fill="midnightblue" stroke="midnightblue" points="862.11,-184.67 851.68,-186.56 861.01,-191.58 862.11,-184.67"/>
</g>
<!-- Node30&#45;&gt;Node29 -->
<g id="edge46" class="edge">
<title>Node30&#45;&gt;Node29</title>
<path fill="none" stroke="midnightblue" d="M1297.13,-230.86C1327.32,-228.94 1373.15,-226.12 1413,-224 1456.6,-221.68 2163.02,-214.12 2198,-188 2230.27,-163.91 2237.9,-113.34 2239.61,-85.81"/>
<polygon fill="midnightblue" stroke="midnightblue" points="2243.11,-85.71 2240.03,-75.58 2236.12,-85.42 2243.11,-85.71"/>
</g>
<!-- Node31 -->
<g id="node31" class="node">
<title>Node31</title>
<g id="a_node31"><a xlink:title=" ">
<polygon fill="none" stroke="#bfbfbf" points="1429.5,-168.5 1429.5,-187.5 1476.5,-187.5 1476.5,-168.5 1429.5,-168.5"/>
<text text-anchor="middle" x="1453" y="-175.5" font-family="Helvetica,sans-Serif" font-size="10.00">queue</text>
</a>
</g>
</g>
<!-- Node30&#45;&gt;Node31 -->
<g id="edge47" class="edge">
<title>Node30&#45;&gt;Node31</title>
<path fill="none" stroke="midnightblue" d="M1293.95,-224.44C1328.15,-214.67 1383.95,-198.73 1419.55,-188.56"/>
<polygon fill="midnightblue" stroke="midnightblue" points="1420.81,-191.84 1429.46,-185.73 1418.89,-185.11 1420.81,-191.84"/>
</g>
<!-- Node32 -->
<g id="node32" class="node">
<title>Node32</title>
<g id="a_node32"><a xlink:href="instruction_8h.html" target="_top" xlink:title=" ">
<polygon fill="none" stroke="black" points="1657.5,-168.5 1657.5,-187.5 1734.5,-187.5 1734.5,-168.5 1657.5,-168.5"/>
<text text-anchor="middle" x="1696" y="-175.5" font-family="Helvetica,sans-Serif" font-size="10.00">instruction.h</text>
</a>
</g>
</g>
<!-- Node30&#45;&gt;Node32 -->
<g id="edge53" class="edge">
<title>Node30&#45;&gt;Node32</title>
<path fill="none" stroke="midnightblue" d="M1297.18,-228.85C1372.82,-219.4 1558.33,-196.21 1647.11,-185.11"/>
<polygon fill="midnightblue" stroke="midnightblue" points="1647.7,-188.57 1657.18,-183.85 1646.83,-181.62 1647.7,-188.57"/>
</g>
<!-- Node34 -->
<g id="node34" class="node">
<title>Node34</title>
<g id="a_node34"><a xlink:href="util_2lru__table_8h.html" target="_top" xlink:title=" ">
<polygon fill="none" stroke="black" points="2068.5,-168.5 2068.5,-187.5 2155.5,-187.5 2155.5,-168.5 2068.5,-168.5"/>
<text text-anchor="middle" x="2112" y="-175.5" font-family="Helvetica,sans-Serif" font-size="10.00">util/lru_table.h</text>
</a>
</g>
</g>
<!-- Node30&#45;&gt;Node34 -->
<g id="edge64" class="edge">
<title>Node30&#45;&gt;Node34</title>
<path fill="none" stroke="midnightblue" d="M1297.14,-230.95C1327.33,-229.1 1373.16,-226.31 1413,-224 1697.15,-207.51 1772.1,-220.31 2058.1,-188.1"/>
<polygon fill="midnightblue" stroke="midnightblue" points="2058.82,-191.54 2068.36,-186.93 2058.03,-184.58 2058.82,-191.54"/>
</g>
<!-- Node38 -->
<g id="node38" class="node">
<title>Node38</title>
<g id="a_node38"><a xlink:title=" ">
<polygon fill="none" stroke="#bfbfbf" points="1753,-168.5 1753,-187.5 1895,-187.5 1895,-168.5 1753,-168.5"/>
<text text-anchor="middle" x="1824" y="-175.5" font-family="Helvetica,sans-Serif" font-size="10.00">ooo_cpu_module_decl.inc</text>
</a>
</g>
</g>
<!-- Node30&#45;&gt;Node38 -->
<g id="edge76" class="edge">
<title>Node30&#45;&gt;Node38</title>
<path fill="none" stroke="midnightblue" d="M1297.19,-230.1C1373.7,-223.38 1568.62,-205.98 1742.79,-188.11"/>
<polygon fill="midnightblue" stroke="midnightblue" points="1743.32,-191.57 1752.91,-187.07 1742.6,-184.61 1743.32,-191.57"/>
</g>
<!-- Node39 -->
<g id="node39" class="node">
<title>Node39</title>
<g id="a_node39"><a xlink:title=" ">
<polygon fill="none" stroke="#bfbfbf" points="1913.5,-168.5 1913.5,-187.5 2050.5,-187.5 2050.5,-168.5 1913.5,-168.5"/>
<text text-anchor="middle" x="1982" y="-175.5" font-family="Helvetica,sans-Serif" font-size="10.00">ooo_cpu_module_def.inc</text>
</a>
</g>
</g>
<!-- Node30&#45;&gt;Node39 -->
<g id="edge77" class="edge">
<title>Node30&#45;&gt;Node39</title>
<path fill="none" stroke="midnightblue" d="M1297.22,-230.86C1408.06,-223.7 1765.43,-200.34 1902.83,-188.05"/>
<polygon fill="midnightblue" stroke="midnightblue" points="1903.47,-191.51 1913.11,-187.12 1902.84,-184.54 1903.47,-191.51"/>
</g>
<!-- Node32&#45;&gt;Node2 -->
<g id="edge54" class="edge">
<title>Node32&#45;&gt;Node2</title>
<path fill="none" stroke="midnightblue" d="M1734.73,-169.47C1737.86,-168.94 1740.98,-168.45 1744,-168 1817.85,-157.11 2013.63,-169.81 2078,-132 2096.21,-121.3 2109.06,-100.23 2116.47,-84.97"/>
<polygon fill="midnightblue" stroke="midnightblue" points="2119.81,-86.09 2120.73,-75.54 2113.43,-83.21 2119.81,-86.09"/>
</g>
<!-- Node32&#45;&gt;Node6 -->
<g id="edge59" class="edge">
<title>Node32&#45;&gt;Node6</title>
<path fill="none" stroke="midnightblue" d="M1683.11,-168.34C1658.89,-152.22 1607.19,-118.65 1587,-112 1508.76,-86.22 1257.92,-72.63 1166.63,-68.43"/>
<polygon fill="midnightblue" stroke="midnightblue" points="1166.7,-64.93 1156.56,-67.98 1166.39,-71.93 1166.7,-64.93"/>
</g>
<!-- Node32&#45;&gt;Node8 -->
<g id="edge55" class="edge">
<title>Node32&#45;&gt;Node8</title>
<path fill="none" stroke="midnightblue" d="M1657.24,-168.54C1618.36,-159.91 1556.82,-145.85 1504,-132 1503.9,-131.97 1503.8,-131.95 1503.7,-131.92"/>
<polygon fill="midnightblue" stroke="midnightblue" points="1504.87,-128.61 1494.3,-129.34 1503.02,-135.36 1504.87,-128.61"/>
</g>
<!-- Node32&#45;&gt;Node15 -->
<g id="edge56" class="edge">
<title>Node32&#45;&gt;Node15</title>
<path fill="none" stroke="midnightblue" d="M1686.27,-168.08C1656.91,-141.15 1568.99,-60.51 1531.85,-26.45"/>
<polygon fill="midnightblue" stroke="midnightblue" points="1534.08,-23.75 1524.34,-19.57 1529.35,-28.91 1534.08,-23.75"/>
</g>
<!-- Node32&#45;&gt;Node19 -->
<g id="edge57" class="edge">
<title>Node32&#45;&gt;Node19</title>
<path fill="none" stroke="midnightblue" d="M1672.07,-168.44C1646.78,-159.4 1606.7,-145.06 1578.32,-134.92"/>
<polygon fill="midnightblue" stroke="midnightblue" points="1579.41,-131.59 1568.81,-131.52 1577.05,-138.18 1579.41,-131.59"/>
</g>
<!-- Node32&#45;&gt;Node20 -->
<g id="edge58" class="edge">
<title>Node32&#45;&gt;Node20</title>
<path fill="none" stroke="midnightblue" d="M1734.75,-169.61C1737.88,-169.05 1740.99,-168.51 1744,-168 1849.92,-150.1 1885.91,-177.95 1983,-132 2016.56,-116.12 2029.92,-109.93 2045,-76 2052.01,-60.23 2044.04,-41.5 2035.8,-28.2"/>
<polygon fill="midnightblue" stroke="midnightblue" points="2038.48,-25.91 2029.97,-19.6 2032.69,-29.84 2038.48,-25.91"/>
</g>
<!-- Node33 -->
<g id="node33" class="node">
<title>Node33</title>
<g id="a_node33"><a xlink:href="trace__instruction_8h.html" target="_top" xlink:title=" ">
<polygon fill="none" stroke="black" points="1928.5,-56.5 1928.5,-75.5 2035.5,-75.5 2035.5,-56.5 1928.5,-56.5"/>
<text text-anchor="middle" x="1982" y="-63.5" font-family="Helvetica,sans-Serif" font-size="10.00">trace_instruction.h</text>
</a>
</g>
</g>
<!-- Node32&#45;&gt;Node33 -->
<g id="edge60" class="edge">
<title>Node32&#45;&gt;Node33</title>
<path fill="none" stroke="midnightblue" d="M1734.76,-169.66C1737.88,-169.09 1740.99,-168.53 1744,-168 1792.57,-159.45 1926.07,-164.69 1963,-132 1976.05,-120.45 1980.36,-100.48 1981.67,-85.72"/>
<polygon fill="midnightblue" stroke="midnightblue" points="1985.17,-85.84 1982.19,-75.67 1978.18,-85.48 1985.17,-85.84"/>
</g>
<!-- Node33&#45;&gt;Node20 -->
<g id="edge61" class="edge">
<title>Node33&#45;&gt;Node20</title>
<path fill="none" stroke="midnightblue" d="M1988.77,-56.08C1994.56,-48.46 2003.06,-37.26 2010.14,-27.94"/>
<polygon fill="midnightblue" stroke="midnightblue" points="2013.1,-29.83 2016.36,-19.75 2007.52,-25.6 2013.1,-29.83"/>
</g>
<!-- Node35 -->
<g id="node35" class="node">
<title>Node35</title>
<g id="a_node35"><a xlink:href="msl_2lru__table_8h.html" target="_top" xlink:title=" ">
<polygon fill="none" stroke="black" points="1864.5,-112.5 1864.5,-131.5 1953.5,-131.5 1953.5,-112.5 1864.5,-112.5"/>
<text text-anchor="middle" x="1909" y="-119.5" font-family="Helvetica,sans-Serif" font-size="10.00">msl/lru_table.h</text>
</a>
</g>
</g>
<!-- Node34&#45;&gt;Node35 -->
<g id="edge65" class="edge">
<title>Node34&#45;&gt;Node35</title>
<path fill="none" stroke="midnightblue" d="M2079.83,-168.44C2044.94,-159.16 1989.11,-144.31 1950.83,-134.13"/>
<polygon fill="midnightblue" stroke="midnightblue" points="1951.58,-130.7 1941.02,-131.52 1949.78,-137.47 1951.58,-130.7"/>
</g>
<!-- Node35&#45;&gt;Node2 -->
<g id="edge66" class="edge">
<title>Node35&#45;&gt;Node2</title>
<path fill="none" stroke="midnightblue" d="M1943.07,-112.44C1980.73,-102.99 2041.42,-87.74 2081.99,-77.55"/>
<polygon fill="midnightblue" stroke="midnightblue" points="2083,-80.91 2091.85,-75.08 2081.3,-74.12 2083,-80.91"/>
</g>
<!-- Node35&#45;&gt;Node3 -->
<g id="edge70" class="edge">
<title>Node35&#45;&gt;Node3</title>
<path fill="none" stroke="midnightblue" d="M1875.09,-112.44C1834.54,-102.21 1767.17,-85.21 1727.33,-75.16"/>
<polygon fill="midnightblue" stroke="midnightblue" points="1728.14,-71.75 1717.59,-72.7 1726.43,-78.54 1728.14,-71.75"/>
</g>
<!-- Node35&#45;&gt;Node6 -->
<g id="edge71" class="edge">
<title>Node35&#45;&gt;Node6</title>
<path fill="none" stroke="midnightblue" d="M1864.49,-117.9C1723.83,-108.11 1290.83,-77.98 1166.63,-69.34"/>
<polygon fill="midnightblue" stroke="midnightblue" points="1166.79,-65.84 1156.57,-68.64 1166.3,-72.83 1166.79,-65.84"/>
</g>
<!-- Node35&#45;&gt;Node15 -->
<g id="edge68" class="edge">
<title>Node35&#45;&gt;Node15</title>
<path fill="none" stroke="midnightblue" d="M1876.36,-112.43C1847.01,-104.32 1802.96,-91.17 1766,-76 1747.98,-68.61 1745.35,-62.52 1727,-56 1666.7,-34.57 1592.94,-21.75 1550.23,-15.56"/>
<polygon fill="midnightblue" stroke="midnightblue" points="1550.46,-12.06 1540.07,-14.13 1549.48,-18.99 1550.46,-12.06"/>
</g>
<!-- Node35&#45;&gt;Node29 -->
<g id="edge69" class="edge">
<title>Node35&#45;&gt;Node29</title>
<path fill="none" stroke="midnightblue" d="M1953.64,-113.72C2019.03,-103.05 2139.77,-83.35 2201.49,-73.28"/>
<polygon fill="midnightblue" stroke="midnightblue" points="2202.28,-76.7 2211.58,-71.64 2201.15,-69.79 2202.28,-76.7"/>
</g>
<!-- Node36 -->
<g id="node36" class="node">
<title>Node36</title>
<g id="a_node36"><a xlink:title=" ">
<polygon fill="none" stroke="#bfbfbf" points="1858,-56.5 1858,-75.5 1910,-75.5 1910,-56.5 1858,-56.5"/>
<text text-anchor="middle" x="1884" y="-63.5" font-family="Helvetica,sans-Serif" font-size="10.00">cassert</text>
</a>
</g>
</g>
<!-- Node35&#45;&gt;Node36 -->
<g id="edge67" class="edge">
<title>Node35&#45;&gt;Node36</title>
<path fill="none" stroke="midnightblue" d="M1904.87,-112.08C1901.49,-104.77 1896.58,-94.18 1892.38,-85.1"/>
<polygon fill="midnightblue" stroke="midnightblue" points="1895.43,-83.36 1888.05,-75.75 1889.08,-86.3 1895.43,-83.36"/>
</g>
<!-- Node37 -->
<g id="node37" class="node">
<title>Node37</title>
<g id="a_node37"><a xlink:href="msl_2bits_8h.html" target="_top" xlink:title=" ">
<polygon fill="none" stroke="black" points="1774.5,-56.5 1774.5,-75.5 1839.5,-75.5 1839.5,-56.5 1774.5,-56.5"/>
<text text-anchor="middle" x="1807" y="-63.5" font-family="Helvetica,sans-Serif" font-size="10.00">msl/bits.h</text>
</a>
</g>
</g>
<!-- Node35&#45;&gt;Node37 -->
<g id="edge72" class="edge">
<title>Node35&#45;&gt;Node37</title>
<path fill="none" stroke="midnightblue" d="M1892.61,-112.32C1876.33,-103.7 1851.13,-90.36 1832.28,-80.39"/>
<polygon fill="midnightblue" stroke="midnightblue" points="1833.82,-77.24 1823.35,-75.65 1830.55,-83.43 1833.82,-77.24"/>
</g>
<!-- Node37&#45;&gt;Node15 -->
<g id="edge73" class="edge">
<title>Node37&#45;&gt;Node15</title>
<path fill="none" stroke="midnightblue" d="M1774.39,-58.72C1769.57,-57.8 1764.65,-56.87 1760,-56 1685.31,-41.99 1597.73,-26.01 1550.14,-17.37"/>
<polygon fill="midnightblue" stroke="midnightblue" points="1550.52,-13.88 1540.05,-15.54 1549.27,-20.77 1550.52,-13.88"/>
</g>
<!-- Node37&#45;&gt;Node20 -->
<g id="edge74" class="edge">
<title>Node37&#45;&gt;Node20</title>
<path fill="none" stroke="midnightblue" d="M1839.81,-56.8C1880.74,-46.57 1950.27,-29.18 1990.88,-19.03"/>
<polygon fill="midnightblue" stroke="midnightblue" points="1991.94,-22.37 2000.79,-16.55 1990.24,-15.58 1991.94,-22.37"/>
</g>
<!-- Node40&#45;&gt;Node6 -->
<g id="edge82" class="edge">
<title>Node40&#45;&gt;Node6</title>
<path fill="none" stroke="midnightblue" d="M530.28,-287.67C430.95,-283.95 177.96,-271.8 153,-244 144.21,-234.21 133.36,-201.52 155,-168 185.4,-120.91 213.78,-126.19 268,-112 429.28,-69.78 960.06,-66.94 1099.31,-66.93"/>
<polygon fill="midnightblue" stroke="midnightblue" points="1099.38,-70.43 1109.38,-66.94 1099.38,-63.43 1099.38,-70.43"/>
</g>
<!-- Node40&#45;&gt;Node7 -->
<g id="edge83" class="edge">
<title>Node40&#45;&gt;Node7</title>
<path fill="none" stroke="midnightblue" d="M599.16,-280.44C631.07,-271.08 682.3,-256.04 717.02,-245.85"/>
<polygon fill="midnightblue" stroke="midnightblue" points="718.17,-249.16 726.78,-242.99 716.2,-242.45 718.17,-249.16"/>
</g>
<!-- Node40&#45;&gt;Node11 -->
<g id="edge80" class="edge">
<title>Node40&#45;&gt;Node11</title>
<path fill="none" stroke="midnightblue" d="M564.59,-280.37C553.25,-262.3 526.83,-220.18 511.86,-196.31"/>
<polygon fill="midnightblue" stroke="midnightblue" points="514.67,-194.2 506.39,-187.59 508.74,-197.92 514.67,-194.2"/>
</g>
<!-- Node40&#45;&gt;Node13 -->
<g id="edge81" class="edge">
<title>Node40&#45;&gt;Node13</title>
<path fill="none" stroke="midnightblue" d="M570,-280.37C570,-262.62 570,-221.67 570,-197.6"/>
<polygon fill="midnightblue" stroke="midnightblue" points="573.5,-197.59 570,-187.59 566.5,-197.59 573.5,-197.59"/>
</g>
<!-- Node40&#45;&gt;Node15 -->
<g id="edge79" class="edge">
<title>Node40&#45;&gt;Node15</title>
<path fill="none" stroke="midnightblue" d="M530.37,-289.78C401.11,-291.28 0,-287.22 0,-179 0,-179 0,-179 0,-121 0,-44.26 1252.9,-16.12 1479.94,-11.66"/>
<polygon fill="midnightblue" stroke="midnightblue" points="1480.04,-15.15 1489.97,-11.46 1479.9,-8.16 1480.04,-15.15"/>
</g>
<!-- Node40&#45;&gt;Node21 -->
<g id="edge86" class="edge">
<title>Node40&#45;&gt;Node21</title>
<path fill="none" stroke="midnightblue" d="M530.14,-289.33C409.78,-289.14 64.64,-279.12 171,-168 188.17,-150.06 952.26,-129.29 1151.1,-124.18"/>
<polygon fill="midnightblue" stroke="midnightblue" points="1151.32,-127.67 1161.23,-123.92 1151.14,-120.68 1151.32,-127.67"/>
</g>
<!-- Node40&#45;&gt;Node27 -->
<g id="edge84" class="edge">
<title>Node40&#45;&gt;Node27</title>
<path fill="none" stroke="midnightblue" d="M609.67,-286.63C752.19,-278.1 1238.96,-249 1411.64,-238.67"/>
<polygon fill="midnightblue" stroke="midnightblue" points="1412.05,-242.15 1421.82,-238.06 1411.63,-235.16 1412.05,-242.15"/>
</g>
<!-- Node40&#45;&gt;Node30 -->
<g id="edge85" class="edge">
<title>Node40&#45;&gt;Node30</title>
<path fill="none" stroke="midnightblue" d="M609.55,-285.92C730.59,-276.5 1095.32,-248.12 1220.94,-238.35"/>
<polygon fill="midnightblue" stroke="midnightblue" points="1221.26,-241.84 1230.95,-237.57 1220.71,-234.86 1221.26,-241.84"/>
</g>
</g>
</svg>
