<?xml version="1.0" encoding="UTF-8" standalone="no"?>
<!DOCTYPE svg PUBLIC "-//W3C//DTD SVG 1.1//EN"
 "http://www.w3.org/Graphics/SVG/1.1/DTD/svg11.dtd">
<!-- Generated by graphviz version 2.43.0 (0)
 -->
<!-- Title: test/cpp/modules/replacement/mock_replacement/mock.cc Pages: 1 -->
<svg width="1407pt" height="207pt"
 viewBox="0.00 0.00 1407.00 207.00" xmlns="http://www.w3.org/2000/svg" xmlns:xlink="http://www.w3.org/1999/xlink">
<g id="graph0" class="graph" transform="scale(1 1) rotate(0) translate(4 203)">
<title>test/cpp/modules/replacement/mock_replacement/mock.cc</title>
<!-- Node1 -->
<g id="node1" class="node">
<title>Node1</title>
<g id="a_node1"><a xlink:title=" ">
<polygon fill="#bfbfbf" stroke="black" points="729,-168.5 729,-198.5 894,-198.5 894,-168.5 729,-168.5"/>
<text text-anchor="start" x="737" y="-186.5" font-family="Helvetica,sans-Serif" font-size="10.00">test/cpp/modules/replacement</text>
<text text-anchor="middle" x="811.5" y="-175.5" font-family="Helvetica,sans-Serif" font-size="10.00">/mock_replacement/mock.cc</text>
</a>
</g>
</g>
<!-- Node2 -->
<g id="node2" class="node">
<title>Node2</title>
<g id="a_node2"><a xlink:title=" ">
<polygon fill="none" stroke="#bfbfbf" points="646.5,-112.5 646.5,-131.5 710.5,-131.5 710.5,-112.5 646.5,-112.5"/>
<text text-anchor="middle" x="678.5" y="-119.5" font-family="Helvetica,sans-Serif" font-size="10.00">algorithm</text>
</a>
</g>
</g>
<!-- Node1&#45;&gt;Node2 -->
<g id="edge1" class="edge">
<title>Node1&#45;&gt;Node2</title>
<path fill="none" stroke="midnightblue" d="M779.98,-168.4C757.86,-158.51 728.53,-145.38 707.09,-135.79"/>
<polygon fill="midnightblue" stroke="midnightblue" points="708.41,-132.55 697.85,-131.66 705.55,-138.94 708.41,-132.55"/>
</g>
<!-- Node3 -->
<g id="node3" class="node">
<title>Node3</title>
<g id="a_node3"><a xlink:title=" ">
<polygon fill="none" stroke="#bfbfbf" points="728.5,-112.5 728.5,-131.5 766.5,-131.5 766.5,-112.5 728.5,-112.5"/>
<text text-anchor="middle" x="747.5" y="-119.5" font-family="Helvetica,sans-Serif" font-size="10.00">map</text>
</a>
</g>
</g>
<!-- Node1&#45;&gt;Node3 -->
<g id="edge2" class="edge">
<title>Node1&#45;&gt;Node3</title>
<path fill="none" stroke="midnightblue" d="M796.33,-168.4C786.75,-159.49 774.34,-147.95 764.43,-138.74"/>
<polygon fill="midnightblue" stroke="midnightblue" points="766.52,-135.9 756.81,-131.66 761.75,-141.03 766.52,-135.9"/>
</g>
<!-- Node4 -->
<g id="node4" class="node">
<title>Node4</title>
<g id="a_node4"><a xlink:title=" ">
<polygon fill="none" stroke="#bfbfbf" points="1352,-0.5 1352,-19.5 1399,-19.5 1399,-0.5 1352,-0.5"/>
<text text-anchor="middle" x="1375.5" y="-7.5" font-family="Helvetica,sans-Serif" font-size="10.00">vector</text>
</a>
</g>
</g>
<!-- Node1&#45;&gt;Node4 -->
<g id="edge3" class="edge">
<title>Node1&#45;&gt;Node4</title>
<path fill="none" stroke="midnightblue" d="M894.15,-177.99C993.02,-169.55 1160.91,-145.34 1286.5,-76 1312.6,-61.59 1339.91,-40.64 1357.28,-26.45"/>
<polygon fill="midnightblue" stroke="midnightblue" points="1359.93,-28.79 1365.39,-19.71 1355.46,-23.4 1359.93,-28.79"/>
</g>
<!-- Node5 -->
<g id="node5" class="node">
<title>Node5</title>
<g id="a_node5"><a xlink:href="cache_8h.html" target="_top" xlink:title=" ">
<polygon fill="none" stroke="black" points="784.5,-112.5 784.5,-131.5 838.5,-131.5 838.5,-112.5 784.5,-112.5"/>
<text text-anchor="middle" x="811.5" y="-119.5" font-family="Helvetica,sans-Serif" font-size="10.00">cache.h</text>
</a>
</g>
</g>
<!-- Node1&#45;&gt;Node5 -->
<g id="edge4" class="edge">
<title>Node1&#45;&gt;Node5</title>
<path fill="none" stroke="midnightblue" d="M811.5,-168.4C811.5,-160.47 811.5,-150.46 811.5,-141.86"/>
<polygon fill="midnightblue" stroke="midnightblue" points="815,-141.66 811.5,-131.66 808,-141.66 815,-141.66"/>
</g>
<!-- Node25 -->
<g id="node25" class="node">
<title>Node25</title>
<g id="a_node25"><a xlink:href="repl__interface_8h.html" target="_top" xlink:title=" ">
<polygon fill="none" stroke="black" points="999,-112.5 999,-131.5 1136,-131.5 1136,-112.5 999,-112.5"/>
<text text-anchor="middle" x="1067.5" y="-119.5" font-family="Helvetica,sans-Serif" font-size="10.00">../../../src/repl_interface.h</text>
</a>
</g>
</g>
<!-- Node1&#45;&gt;Node25 -->
<g id="edge29" class="edge">
<title>Node1&#45;&gt;Node25</title>
<path fill="none" stroke="midnightblue" d="M871.84,-168.47C917.46,-157.87 979.15,-143.53 1020.98,-133.81"/>
<polygon fill="midnightblue" stroke="midnightblue" points="1021.95,-137.18 1030.9,-131.51 1020.37,-130.36 1021.95,-137.18"/>
</g>
<!-- Node5&#45;&gt;Node4 -->
<g id="edge11" class="edge">
<title>Node5&#45;&gt;Node4</title>
<path fill="none" stroke="midnightblue" d="M838.69,-119.53C921.84,-114.84 1171.75,-99.14 1249.5,-76 1288.65,-64.34 1330,-40.48 1354.24,-25.14"/>
<polygon fill="midnightblue" stroke="midnightblue" points="1356.43,-27.89 1362.94,-19.53 1352.64,-22 1356.43,-27.89"/>
</g>
<!-- Node6 -->
<g id="node6" class="node">
<title>Node6</title>
<g id="a_node6"><a xlink:title=" ">
<polygon fill="none" stroke="#bfbfbf" points="989.5,-0.5 989.5,-19.5 1031.5,-19.5 1031.5,-0.5 989.5,-0.5"/>
<text text-anchor="middle" x="1010.5" y="-7.5" font-family="Helvetica,sans-Serif" font-size="10.00">array</text>
</a>
</g>
</g>
<!-- Node5&#45;&gt;Node6 -->
<g id="edge5" class="edge">
<title>Node5&#45;&gt;Node6</title>
<path fill="none" stroke="midnightblue" d="M838.68,-119.53C891.67,-116.03 1005.7,-105.21 1029.5,-76 1040.71,-62.24 1032.09,-42.11 1023.14,-27.91"/>
<polygon fill="midnightblue" stroke="midnightblue" points="1025.95,-25.82 1017.41,-19.55 1020.18,-29.78 1025.95,-25.82"/>
</g>
<!-- Node7 -->
<g id="node7" class="node">
<title>Node7</title>
<g id="a_node7"><a xlink:title=" ">
<polygon fill="none" stroke="#bfbfbf" points="1114.5,-56.5 1114.5,-75.5 1158.5,-75.5 1158.5,-56.5 1114.5,-56.5"/>
<text text-anchor="middle" x="1136.5" y="-63.5" font-family="Helvetica,sans-Serif" font-size="10.00">bitset</text>
</a>
</g>
</g>
<!-- Node5&#45;&gt;Node7 -->
<g id="edge6" class="edge">
<title>Node5&#45;&gt;Node7</title>
<path fill="none" stroke="midnightblue" d="M838.74,-117.6C890.16,-110.98 1004.94,-95.34 1100.5,-76 1101.78,-75.74 1103.08,-75.47 1104.39,-75.18"/>
<polygon fill="midnightblue" stroke="midnightblue" points="1105.54,-78.51 1114.49,-72.84 1103.95,-71.69 1105.54,-78.51"/>
</g>
<!-- Node8 -->
<g id="node8" class="node">
<title>Node8</title>
<g id="a_node8"><a xlink:title=" ">
<polygon fill="none" stroke="#bfbfbf" points="1050,-0.5 1050,-19.5 1097,-19.5 1097,-0.5 1050,-0.5"/>
<text text-anchor="middle" x="1073.5" y="-7.5" font-family="Helvetica,sans-Serif" font-size="10.00">deque</text>
</a>
</g>
</g>
<!-- Node5&#45;&gt;Node8 -->
<g id="edge7" class="edge">
<title>Node5&#45;&gt;Node8</title>
<path fill="none" stroke="midnightblue" d="M838.83,-118.93C893.52,-114.28 1013.9,-101.4 1045.5,-76 1059.7,-64.59 1066.84,-44.6 1070.34,-29.8"/>
<polygon fill="midnightblue" stroke="midnightblue" points="1073.83,-30.2 1072.36,-19.71 1066.96,-28.83 1073.83,-30.2"/>
</g>
<!-- Node9 -->
<g id="node9" class="node">
<title>Node9</title>
<g id="a_node9"><a xlink:title=" ">
<polygon fill="none" stroke="#bfbfbf" points="95.5,-56.5 95.5,-75.5 153.5,-75.5 153.5,-56.5 95.5,-56.5"/>
<text text-anchor="middle" x="124.5" y="-63.5" font-family="Helvetica,sans-Serif" font-size="10.00">memory</text>
</a>
</g>
</g>
<!-- Node5&#45;&gt;Node9 -->
<g id="edge8" class="edge">
<title>Node5&#45;&gt;Node9</title>
<path fill="none" stroke="midnightblue" d="M784.48,-113.67C781.47,-113.03 778.43,-112.45 775.5,-112 509.02,-71.23 434.34,-114.52 163.97,-75.95"/>
<polygon fill="midnightblue" stroke="midnightblue" points="164.26,-72.46 153.86,-74.49 163.25,-79.39 164.26,-72.46"/>
</g>
<!-- Node10 -->
<g id="node10" class="node">
<title>Node10</title>
<g id="a_node10"><a xlink:title=" ">
<polygon fill="none" stroke="#bfbfbf" points="172,-56.5 172,-75.5 237,-75.5 237,-56.5 172,-56.5"/>
<text text-anchor="middle" x="204.5" y="-63.5" font-family="Helvetica,sans-Serif" font-size="10.00">stdexcept</text>
</a>
</g>
</g>
<!-- Node5&#45;&gt;Node10 -->
<g id="edge9" class="edge">
<title>Node5&#45;&gt;Node10</title>
<path fill="none" stroke="midnightblue" d="M784.48,-113.7C781.46,-113.05 778.43,-112.46 775.5,-112 546.02,-75.8 481.68,-107.84 247.63,-75.94"/>
<polygon fill="midnightblue" stroke="midnightblue" points="247.82,-72.43 237.44,-74.52 246.86,-79.37 247.82,-72.43"/>
</g>
<!-- Node11 -->
<g id="node11" class="node">
<title>Node11</title>
<g id="a_node11"><a xlink:title=" ">
<polygon fill="none" stroke="#bfbfbf" points="255.5,-56.5 255.5,-75.5 299.5,-75.5 299.5,-56.5 255.5,-56.5"/>
<text text-anchor="middle" x="277.5" y="-63.5" font-family="Helvetica,sans-Serif" font-size="10.00">string</text>
</a>
</g>
</g>
<!-- Node5&#45;&gt;Node11 -->
<g id="edge10" class="edge">
<title>Node5&#45;&gt;Node11</title>
<path fill="none" stroke="midnightblue" d="M784.47,-113.73C781.46,-113.07 778.43,-112.47 775.5,-112 573.23,-79.16 515.13,-112.15 309.62,-75.83"/>
<polygon fill="midnightblue" stroke="midnightblue" points="310.18,-72.37 299.72,-74.04 308.94,-79.26 310.18,-72.37"/>
</g>
<!-- Node12 -->
<g id="node12" class="node">
<title>Node12</title>
<g id="a_node12"><a xlink:href="champsim_8h.html" target="_top" xlink:title=" ">
<polygon fill="none" stroke="black" points="0,-56.5 0,-75.5 77,-75.5 77,-56.5 0,-56.5"/>
<text text-anchor="middle" x="38.5" y="-63.5" font-family="Helvetica,sans-Serif" font-size="10.00">champsim.h</text>
</a>
</g>
</g>
<!-- Node5&#45;&gt;Node12 -->
<g id="edge12" class="edge">
<title>Node5&#45;&gt;Node12</title>
<path fill="none" stroke="midnightblue" d="M784.49,-113.65C781.47,-113.01 778.43,-112.44 775.5,-112 475.5,-67.09 392.75,-111.36 87.24,-75.9"/>
<polygon fill="midnightblue" stroke="midnightblue" points="87.55,-72.41 77.2,-74.71 86.73,-79.36 87.55,-72.41"/>
</g>
<!-- Node15 -->
<g id="node15" class="node">
<title>Node15</title>
<g id="a_node15"><a xlink:title=" ">
<polygon fill="none" stroke="#bfbfbf" points="318,-56.5 318,-75.5 447,-75.5 447,-56.5 318,-56.5"/>
<text text-anchor="middle" x="382.5" y="-63.5" font-family="Helvetica,sans-Serif" font-size="10.00">champsim_constants.h</text>
</a>
</g>
</g>
<!-- Node5&#45;&gt;Node15 -->
<g id="edge15" class="edge">
<title>Node5&#45;&gt;Node15</title>
<path fill="none" stroke="midnightblue" d="M784.46,-113.83C781.45,-113.15 778.42,-112.53 775.5,-112 637.82,-87.16 599.35,-92.5 457.33,-76.19"/>
<polygon fill="midnightblue" stroke="midnightblue" points="457.71,-72.71 447.37,-75.03 456.9,-79.67 457.71,-72.71"/>
</g>
<!-- Node16 -->
<g id="node16" class="node">
<title>Node16</title>
<g id="a_node16"><a xlink:href="channel_8h.html" target="_top" xlink:title=" ">
<polygon fill="none" stroke="black" points="1176.5,-56.5 1176.5,-75.5 1240.5,-75.5 1240.5,-56.5 1176.5,-56.5"/>
<text text-anchor="middle" x="1208.5" y="-63.5" font-family="Helvetica,sans-Serif" font-size="10.00">channel.h</text>
</a>
</g>
</g>
<!-- Node5&#45;&gt;Node16 -->
<g id="edge16" class="edge">
<title>Node5&#45;&gt;Node16</title>
<path fill="none" stroke="midnightblue" d="M838.87,-118.39C897.2,-112.65 1038.24,-97.81 1166.34,-76.06"/>
<polygon fill="midnightblue" stroke="midnightblue" points="1167.06,-79.49 1176.33,-74.35 1165.88,-72.59 1167.06,-79.49"/>
</g>
<!-- Node20 -->
<g id="node20" class="node">
<title>Node20</title>
<g id="a_node20"><a xlink:href="module__impl_8h.html" target="_top" xlink:title=" ">
<polygon fill="none" stroke="black" points="465,-56.5 465,-75.5 554,-75.5 554,-56.5 465,-56.5"/>
<text text-anchor="middle" x="509.5" y="-63.5" font-family="Helvetica,sans-Serif" font-size="10.00">module_impl.h</text>
</a>
</g>
</g>
<!-- Node5&#45;&gt;Node20 -->
<g id="edge24" class="edge">
<title>Node5&#45;&gt;Node20</title>
<path fill="none" stroke="midnightblue" d="M784.42,-113.99C781.42,-113.29 778.4,-112.61 775.5,-112 765.24,-109.85 639.17,-88.69 564.34,-76.17"/>
<polygon fill="midnightblue" stroke="midnightblue" points="564.58,-72.66 554.14,-74.46 563.42,-79.56 564.58,-72.66"/>
</g>
<!-- Node21 -->
<g id="node21" class="node">
<title>Node21</title>
<g id="a_node21"><a xlink:href="operable_8h.html" target="_top" xlink:title=" ">
<polygon fill="none" stroke="black" points="572.5,-56.5 572.5,-75.5 640.5,-75.5 640.5,-56.5 572.5,-56.5"/>
<text text-anchor="middle" x="606.5" y="-63.5" font-family="Helvetica,sans-Serif" font-size="10.00">operable.h</text>
</a>
</g>
</g>
<!-- Node5&#45;&gt;Node21 -->
<g id="edge25" class="edge">
<title>Node5&#45;&gt;Node21</title>
<path fill="none" stroke="midnightblue" d="M784.28,-113.83C749.64,-104.7 689.43,-88.85 648.79,-78.14"/>
<polygon fill="midnightblue" stroke="midnightblue" points="649.47,-74.7 638.91,-75.54 647.69,-81.47 649.47,-74.7"/>
</g>
<!-- Node22 -->
<g id="node22" class="node">
<title>Node22</title>
<g id="a_node22"><a xlink:title=" ">
<polygon fill="none" stroke="#bfbfbf" points="659,-56.5 659,-75.5 728,-75.5 728,-56.5 659,-56.5"/>
<text text-anchor="middle" x="693.5" y="-63.5" font-family="Helvetica,sans-Serif" font-size="10.00">type_traits</text>
</a>
</g>
</g>
<!-- Node5&#45;&gt;Node22 -->
<g id="edge26" class="edge">
<title>Node5&#45;&gt;Node22</title>
<path fill="none" stroke="midnightblue" d="M792.8,-112.44C773.56,-103.64 743.35,-89.81 721.3,-79.72"/>
<polygon fill="midnightblue" stroke="midnightblue" points="722.66,-76.5 712.11,-75.52 719.75,-82.86 722.66,-76.5"/>
</g>
<!-- Node23 -->
<g id="node23" class="node">
<title>Node23</title>
<g id="a_node23"><a xlink:title=" ">
<polygon fill="none" stroke="#bfbfbf" points="746.5,-56.5 746.5,-75.5 876.5,-75.5 876.5,-56.5 746.5,-56.5"/>
<text text-anchor="middle" x="811.5" y="-63.5" font-family="Helvetica,sans-Serif" font-size="10.00">cache_module_decl.inc</text>
</a>
</g>
</g>
<!-- Node5&#45;&gt;Node23 -->
<g id="edge27" class="edge">
<title>Node5&#45;&gt;Node23</title>
<path fill="none" stroke="midnightblue" d="M811.5,-112.08C811.5,-105.01 811.5,-94.86 811.5,-85.99"/>
<polygon fill="midnightblue" stroke="midnightblue" points="815,-85.75 811.5,-75.75 808,-85.75 815,-85.75"/>
</g>
<!-- Node24 -->
<g id="node24" class="node">
<title>Node24</title>
<g id="a_node24"><a xlink:title=" ">
<polygon fill="none" stroke="#bfbfbf" points="895,-56.5 895,-75.5 1020,-75.5 1020,-56.5 895,-56.5"/>
<text text-anchor="middle" x="957.5" y="-63.5" font-family="Helvetica,sans-Serif" font-size="10.00">cache_module_def.inc</text>
</a>
</g>
</g>
<!-- Node5&#45;&gt;Node24 -->
<g id="edge28" class="edge">
<title>Node5&#45;&gt;Node24</title>
<path fill="none" stroke="midnightblue" d="M834.63,-112.44C858.98,-103.44 897.51,-89.19 924.92,-79.05"/>
<polygon fill="midnightblue" stroke="midnightblue" points="926.31,-82.27 934.47,-75.52 923.88,-75.7 926.31,-82.27"/>
</g>
<!-- Node13 -->
<g id="node13" class="node">
<title>Node13</title>
<g id="a_node13"><a xlink:title=" ">
<polygon fill="none" stroke="#bfbfbf" points="511.5,-0.5 511.5,-19.5 561.5,-19.5 561.5,-0.5 511.5,-0.5"/>
<text text-anchor="middle" x="536.5" y="-7.5" font-family="Helvetica,sans-Serif" font-size="10.00">cstdint</text>
</a>
</g>
</g>
<!-- Node12&#45;&gt;Node13 -->
<g id="edge13" class="edge">
<title>Node12&#45;&gt;Node13</title>
<path fill="none" stroke="midnightblue" d="M77.23,-57.44C80.36,-56.92 83.48,-56.43 86.5,-56 240.15,-33.95 424.86,-19.12 501.02,-13.51"/>
<polygon fill="midnightblue" stroke="midnightblue" points="501.32,-17 511.03,-12.78 500.81,-10.01 501.32,-17"/>
</g>
<!-- Node14 -->
<g id="node14" class="node">
<title>Node14</title>
<g id="a_node14"><a xlink:title=" ">
<polygon fill="none" stroke="#bfbfbf" points="6,-0.5 6,-19.5 71,-19.5 71,-0.5 6,-0.5"/>
<text text-anchor="middle" x="38.5" y="-7.5" font-family="Helvetica,sans-Serif" font-size="10.00">exception</text>
</a>
</g>
</g>
<!-- Node12&#45;&gt;Node14 -->
<g id="edge14" class="edge">
<title>Node12&#45;&gt;Node14</title>
<path fill="none" stroke="midnightblue" d="M38.5,-56.08C38.5,-49.01 38.5,-38.86 38.5,-29.99"/>
<polygon fill="midnightblue" stroke="midnightblue" points="42,-29.75 38.5,-19.75 35,-29.75 42,-29.75"/>
</g>
<!-- Node16&#45;&gt;Node4 -->
<g id="edge22" class="edge">
<title>Node16&#45;&gt;Node4</title>
<path fill="none" stroke="midnightblue" d="M1234.96,-56.44C1264.01,-47.05 1310.69,-31.96 1342.21,-21.77"/>
<polygon fill="midnightblue" stroke="midnightblue" points="1343.42,-25.05 1351.86,-18.64 1341.27,-18.39 1343.42,-25.05"/>
</g>
<!-- Node16&#45;&gt;Node6 -->
<g id="edge17" class="edge">
<title>Node16&#45;&gt;Node6</title>
<path fill="none" stroke="midnightblue" d="M1176.43,-56.56C1142.78,-47.65 1088.34,-33.11 1041.5,-20 1041.4,-19.97 1041.3,-19.95 1041.21,-19.92"/>
<polygon fill="midnightblue" stroke="midnightblue" points="1042.41,-16.62 1031.83,-17.25 1040.49,-23.35 1042.41,-16.62"/>
</g>
<!-- Node16&#45;&gt;Node8 -->
<g id="edge19" class="edge">
<title>Node16&#45;&gt;Node8</title>
<path fill="none" stroke="midnightblue" d="M1187.11,-56.44C1164.79,-47.52 1129.6,-33.44 1104.29,-23.32"/>
<polygon fill="midnightblue" stroke="midnightblue" points="1105.38,-19.98 1094.79,-19.52 1102.78,-26.48 1105.38,-19.98"/>
</g>
<!-- Node16&#45;&gt;Node13 -->
<g id="edge18" class="edge">
<title>Node16&#45;&gt;Node13</title>
<path fill="none" stroke="midnightblue" d="M1176.35,-57.48C1173.37,-56.92 1170.38,-56.42 1167.5,-56 941.99,-23.38 667.55,-14.08 571.62,-11.72"/>
<polygon fill="midnightblue" stroke="midnightblue" points="571.67,-8.22 561.59,-11.49 571.5,-15.22 571.67,-8.22"/>
</g>
<!-- Node17 -->
<g id="node17" class="node">
<title>Node17</title>
<g id="a_node17"><a xlink:title=" ">
<polygon fill="none" stroke="#bfbfbf" points="1115,-0.5 1115,-19.5 1180,-19.5 1180,-0.5 1115,-0.5"/>
<text text-anchor="middle" x="1147.5" y="-7.5" font-family="Helvetica,sans-Serif" font-size="10.00">functional</text>
</a>
</g>
</g>
<!-- Node16&#45;&gt;Node17 -->
<g id="edge20" class="edge">
<title>Node16&#45;&gt;Node17</title>
<path fill="none" stroke="midnightblue" d="M1198.7,-56.32C1189.68,-48.34 1176.09,-36.31 1165.18,-26.65"/>
<polygon fill="midnightblue" stroke="midnightblue" points="1167.29,-23.84 1157.48,-19.83 1162.65,-29.08 1167.29,-23.84"/>
</g>
<!-- Node18 -->
<g id="node18" class="node">
<title>Node18</title>
<g id="a_node18"><a xlink:title=" ">
<polygon fill="none" stroke="#bfbfbf" points="1198.5,-0.5 1198.5,-19.5 1242.5,-19.5 1242.5,-0.5 1198.5,-0.5"/>
<text text-anchor="middle" x="1220.5" y="-7.5" font-family="Helvetica,sans-Serif" font-size="10.00">limits</text>
</a>
</g>
</g>
<!-- Node16&#45;&gt;Node18 -->
<g id="edge21" class="edge">
<title>Node16&#45;&gt;Node18</title>
<path fill="none" stroke="midnightblue" d="M1210.48,-56.08C1212.07,-48.93 1214.36,-38.64 1216.35,-29.69"/>
<polygon fill="midnightblue" stroke="midnightblue" points="1219.8,-30.27 1218.56,-19.75 1212.97,-28.75 1219.8,-30.27"/>
</g>
<!-- Node19 -->
<g id="node19" class="node">
<title>Node19</title>
<g id="a_node19"><a xlink:title=" ">
<polygon fill="none" stroke="#bfbfbf" points="1261,-0.5 1261,-19.5 1334,-19.5 1334,-0.5 1261,-0.5"/>
<text text-anchor="middle" x="1297.5" y="-7.5" font-family="Helvetica,sans-Serif" font-size="10.00">string_view</text>
</a>
</g>
</g>
<!-- Node16&#45;&gt;Node19 -->
<g id="edge23" class="edge">
<title>Node16&#45;&gt;Node19</title>
<path fill="none" stroke="midnightblue" d="M1222.8,-56.32C1236.68,-47.9 1257.99,-34.97 1274.3,-25.07"/>
<polygon fill="midnightblue" stroke="midnightblue" points="1276.5,-27.83 1283.24,-19.65 1272.87,-21.85 1276.5,-27.83"/>
</g>
<!-- Node25&#45;&gt;Node16 -->
<g id="edge30" class="edge">
<title>Node25&#45;&gt;Node16</title>
<path fill="none" stroke="midnightblue" d="M1089.84,-112.44C1113.25,-103.48 1150.24,-89.31 1176.69,-79.18"/>
<polygon fill="midnightblue" stroke="midnightblue" points="1178.18,-82.36 1186.26,-75.52 1175.67,-75.82 1178.18,-82.36"/>
</g>
</g>
</svg>
