<?xml version="1.0" encoding="UTF-8" standalone="no"?>
<!DOCTYPE svg PUBLIC "-//W3C//DTD SVG 1.1//EN"
 "http://www.w3.org/Graphics/SVG/1.1/DTD/svg11.dtd">
<!-- Generated by graphviz version 2.43.0 (0)
 -->
<!-- Title: test/cpp/src/mocks.hpp Pages: 1 -->
<svg width="5366pt" height="106pt"
 viewBox="0.00 0.00 5366.00 106.00" xmlns="http://www.w3.org/2000/svg" xmlns:xlink="http://www.w3.org/1999/xlink">
<g id="graph0" class="graph" transform="scale(1 1) rotate(0) translate(4 102)">
<title>test/cpp/src/mocks.hpp</title>
<!-- Node1 -->
<g id="node1" class="node">
<title>Node1</title>
<g id="a_node1"><a xlink:title=" ">
<polygon fill="#bfbfbf" stroke="black" points="2519,-78.5 2519,-97.5 2648,-97.5 2648,-78.5 2519,-78.5"/>
<text text-anchor="middle" x="2583.5" y="-85.5" font-family="Helvetica,sans-Serif" font-size="10.00">test/cpp/src/mocks.hpp</text>
</a>
</g>
</g>
<!-- Node2 -->
<g id="node2" class="node">
<title>Node2</title>
<g id="a_node2"><a xlink:href="140-single-dib-lookup_8cc.html" target="_top" xlink:title=" ">
<polygon fill="none" stroke="black" points="0,-6 0,-36 127,-36 127,-6 0,-6"/>
<text text-anchor="start" x="8" y="-24" font-family="Helvetica,sans-Serif" font-size="10.00">test/cpp/src/140&#45;single</text>
<text text-anchor="middle" x="63.5" y="-13" font-family="Helvetica,sans-Serif" font-size="10.00">&#45;dib&#45;lookup.cc</text>
</a>
</g>
</g>
<!-- Node1&#45;&gt;Node2 -->
<g id="edge1" class="edge">
<title>Node1&#45;&gt;Node2</title>
<path fill="none" stroke="midnightblue" d="M2508.73,-86.73C2123.98,-85.21 375.82,-76.43 136.5,-42 127.14,-40.65 117.26,-38.48 107.91,-36.06"/>
<polygon fill="midnightblue" stroke="midnightblue" points="2508.9,-90.23 2518.91,-86.77 2508.93,-83.23 2508.9,-90.23"/>
</g>
<!-- Node3 -->
<g id="node3" class="node">
<title>Node3</title>
<g id="a_node3"><a xlink:href="150-fetch-bandwidth_8cc.html" target="_top" xlink:title=" ">
<polygon fill="none" stroke="black" points="145.5,-6 145.5,-36 267.5,-36 267.5,-6 145.5,-6"/>
<text text-anchor="start" x="153.5" y="-24" font-family="Helvetica,sans-Serif" font-size="10.00">test/cpp/src/150&#45;fetch</text>
<text text-anchor="middle" x="206.5" y="-13" font-family="Helvetica,sans-Serif" font-size="10.00">&#45;bandwidth.cc</text>
</a>
</g>
</g>
<!-- Node1&#45;&gt;Node3 -->
<g id="edge2" class="edge">
<title>Node1&#45;&gt;Node3</title>
<path fill="none" stroke="midnightblue" d="M2508.83,-86.69C2137.77,-85 501.08,-75.69 276.5,-42 267.5,-40.65 258.03,-38.48 249.06,-36.05"/>
<polygon fill="midnightblue" stroke="midnightblue" points="2508.91,-90.19 2518.92,-86.74 2508.94,-83.19 2508.91,-90.19"/>
</g>
<!-- Node4 -->
<g id="node4" class="node">
<title>Node4</title>
<g id="a_node4"><a xlink:href="165-basic-btb-no-evict-on-unknown-target_8cc.html" target="_top" xlink:title=" ">
<polygon fill="none" stroke="black" points="286,-0.5 286,-41.5 429,-41.5 429,-0.5 286,-0.5"/>
<text text-anchor="start" x="294" y="-29.5" font-family="Helvetica,sans-Serif" font-size="10.00">test/cpp/src/165&#45;basic</text>
<text text-anchor="start" x="294" y="-18.5" font-family="Helvetica,sans-Serif" font-size="10.00">&#45;btb&#45;no&#45;evict&#45;on&#45;unknown</text>
<text text-anchor="middle" x="357.5" y="-7.5" font-family="Helvetica,sans-Serif" font-size="10.00">&#45;target.cc</text>
</a>
</g>
</g>
<!-- Node1&#45;&gt;Node4 -->
<g id="edge3" class="edge">
<title>Node1&#45;&gt;Node4</title>
<path fill="none" stroke="midnightblue" d="M2508.66,-86.43C2153.4,-83.56 645.81,-69.86 437.5,-42 434.8,-41.64 432.07,-41.22 429.31,-40.76"/>
<polygon fill="midnightblue" stroke="midnightblue" points="2508.8,-89.93 2518.83,-86.51 2508.86,-82.93 2508.8,-89.93"/>
</g>
<!-- Node5 -->
<g id="node5" class="node">
<title>Node5</title>
<g id="a_node5"><a xlink:href="166-issue296-basic-btb-no-mispredict-on-not-taken_8cc.html" target="_top" xlink:title=" ">
<polygon fill="none" stroke="black" points="447,-0.5 447,-41.5 588,-41.5 588,-0.5 447,-0.5"/>
<text text-anchor="start" x="455" y="-29.5" font-family="Helvetica,sans-Serif" font-size="10.00">test/cpp/src/166&#45;issue296</text>
<text text-anchor="start" x="455" y="-18.5" font-family="Helvetica,sans-Serif" font-size="10.00">&#45;basic&#45;btb&#45;no&#45;mispredict</text>
<text text-anchor="middle" x="517.5" y="-7.5" font-family="Helvetica,sans-Serif" font-size="10.00">&#45;on&#45;not&#45;taken.cc</text>
</a>
</g>
</g>
<!-- Node1&#45;&gt;Node5 -->
<g id="edge4" class="edge">
<title>Node1&#45;&gt;Node5</title>
<path fill="none" stroke="midnightblue" d="M2508.75,-86.3C2170.13,-83.02 788.27,-68.11 596.5,-42 593.84,-41.64 591.13,-41.22 588.41,-40.75"/>
<polygon fill="midnightblue" stroke="midnightblue" points="2508.9,-89.81 2518.93,-86.4 2508.97,-82.81 2508.9,-89.81"/>
</g>
<!-- Node6 -->
<g id="node6" class="node">
<title>Node6</title>
<g id="a_node6"><a xlink:href="200-rob-scheduling_8cc.html" target="_top" xlink:title=" ">
<polygon fill="none" stroke="black" points="606,-6 606,-36 719,-36 719,-6 606,-6"/>
<text text-anchor="start" x="614" y="-24" font-family="Helvetica,sans-Serif" font-size="10.00">test/cpp/src/200&#45;rob</text>
<text text-anchor="middle" x="662.5" y="-13" font-family="Helvetica,sans-Serif" font-size="10.00">&#45;scheduling.cc</text>
</a>
</g>
</g>
<!-- Node1&#45;&gt;Node6 -->
<g id="edge5" class="edge">
<title>Node1&#45;&gt;Node6</title>
<path fill="none" stroke="midnightblue" d="M2508.69,-86.38C2184.1,-83.51 905.98,-70.5 728.5,-42 719.99,-40.63 711.04,-38.45 702.58,-36.03"/>
<polygon fill="midnightblue" stroke="midnightblue" points="2508.9,-89.88 2518.93,-86.47 2508.96,-82.88 2508.9,-89.88"/>
</g>
<!-- Node7 -->
<g id="node7" class="node">
<title>Node7</title>
<g id="a_node7"><a xlink:href="300-retire-from-rob_8cc.html" target="_top" xlink:title=" ">
<polygon fill="none" stroke="black" points="737.5,-6 737.5,-36 861.5,-36 861.5,-6 737.5,-6"/>
<text text-anchor="start" x="745.5" y="-24" font-family="Helvetica,sans-Serif" font-size="10.00">test/cpp/src/300&#45;retire</text>
<text text-anchor="middle" x="799.5" y="-13" font-family="Helvetica,sans-Serif" font-size="10.00">&#45;from&#45;rob.cc</text>
</a>
</g>
</g>
<!-- Node1&#45;&gt;Node7 -->
<g id="edge6" class="edge">
<title>Node1&#45;&gt;Node7</title>
<path fill="none" stroke="midnightblue" d="M2508.4,-86.13C2199.24,-82.37 1033.55,-66.71 870.5,-42 861.38,-40.62 851.78,-38.43 842.68,-36"/>
<polygon fill="midnightblue" stroke="midnightblue" points="2508.56,-89.63 2518.6,-86.25 2508.64,-82.63 2508.56,-89.63"/>
</g>
<!-- Node8 -->
<g id="node8" class="node">
<title>Node8</title>
<g id="a_node8"><a xlink:href="400-cache-occupancy-size_8cc.html" target="_top" xlink:title=" ">
<polygon fill="none" stroke="black" points="879.5,-6 879.5,-36 1005.5,-36 1005.5,-6 879.5,-6"/>
<text text-anchor="start" x="887.5" y="-24" font-family="Helvetica,sans-Serif" font-size="10.00">test/cpp/src/400&#45;cache</text>
<text text-anchor="middle" x="942.5" y="-13" font-family="Helvetica,sans-Serif" font-size="10.00">&#45;occupancy&#45;size.cc</text>
</a>
</g>
</g>
<!-- Node1&#45;&gt;Node8 -->
<g id="edge7" class="edge">
<title>Node1&#45;&gt;Node8</title>
<path fill="none" stroke="midnightblue" d="M2508.81,-87.25C2237.97,-87.79 1307.97,-86.3 1014.5,-42 1005.39,-40.63 995.8,-38.47 986.69,-36.08"/>
<polygon fill="midnightblue" stroke="midnightblue" points="2508.94,-90.75 2518.93,-87.23 2508.92,-83.75 2508.94,-90.75"/>
</g>
<!-- Node9 -->
<g id="node9" class="node">
<title>Node9</title>
<g id="a_node9"><a xlink:href="401-hit-latency_8cc.html" target="_top" xlink:title=" ">
<polygon fill="none" stroke="black" points="1023.5,-6 1023.5,-36 1133.5,-36 1133.5,-6 1023.5,-6"/>
<text text-anchor="start" x="1031.5" y="-24" font-family="Helvetica,sans-Serif" font-size="10.00">test/cpp/src/401&#45;hit</text>
<text text-anchor="middle" x="1078.5" y="-13" font-family="Helvetica,sans-Serif" font-size="10.00">&#45;latency.cc</text>
</a>
</g>
</g>
<!-- Node1&#45;&gt;Node9 -->
<g id="edge8" class="edge">
<title>Node1&#45;&gt;Node9</title>
<path fill="none" stroke="midnightblue" d="M2508.5,-87.34C2251.71,-88.08 1409.06,-86.95 1142.5,-42 1134.35,-40.63 1125.8,-38.48 1117.69,-36.09"/>
<polygon fill="midnightblue" stroke="midnightblue" points="2508.84,-90.84 2518.83,-87.31 2508.82,-83.84 2508.84,-90.84"/>
</g>
<!-- Node10 -->
<g id="node10" class="node">
<title>Node10</title>
<g id="a_node10"><a xlink:href="402-miss-latency_8cc.html" target="_top" xlink:title=" ">
<polygon fill="none" stroke="black" points="1152,-6 1152,-36 1273,-36 1273,-6 1152,-6"/>
<text text-anchor="start" x="1160" y="-24" font-family="Helvetica,sans-Serif" font-size="10.00">test/cpp/src/402&#45;miss</text>
<text text-anchor="middle" x="1212.5" y="-13" font-family="Helvetica,sans-Serif" font-size="10.00">&#45;latency.cc</text>
</a>
</g>
</g>
<!-- Node1&#45;&gt;Node10 -->
<g id="edge9" class="edge">
<title>Node1&#45;&gt;Node10</title>
<path fill="none" stroke="midnightblue" d="M2508.92,-86.84C2269.23,-85.96 1520.4,-80.15 1281.5,-42 1272.76,-40.6 1263.55,-38.44 1254.82,-36.05"/>
<polygon fill="midnightblue" stroke="midnightblue" points="2508.91,-90.34 2518.93,-86.88 2508.94,-83.34 2508.91,-90.34"/>
</g>
<!-- Node11 -->
<g id="node11" class="node">
<title>Node11</title>
<g id="a_node11"><a xlink:href="403-read-bandwidth_8cc.html" target="_top" xlink:title=" ">
<polygon fill="none" stroke="black" points="1291,-6 1291,-36 1410,-36 1410,-6 1291,-6"/>
<text text-anchor="start" x="1299" y="-24" font-family="Helvetica,sans-Serif" font-size="10.00">test/cpp/src/403&#45;read</text>
<text text-anchor="middle" x="1350.5" y="-13" font-family="Helvetica,sans-Serif" font-size="10.00">&#45;bandwidth.cc</text>
</a>
</g>
</g>
<!-- Node1&#45;&gt;Node11 -->
<g id="edge10" class="edge">
<title>Node1&#45;&gt;Node11</title>
<path fill="none" stroke="midnightblue" d="M2508.63,-86.48C2285.98,-84.57 1630.39,-76.12 1419.5,-42 1410.76,-40.59 1401.56,-38.42 1392.83,-36.02"/>
<polygon fill="midnightblue" stroke="midnightblue" points="2508.87,-89.99 2518.9,-86.57 2508.93,-82.99 2508.87,-89.99"/>
</g>
<!-- Node12 -->
<g id="node12" class="node">
<title>Node12</title>
<g id="a_node12"><a xlink:href="404-fill-bandwidth_8cc.html" target="_top" xlink:title=" ">
<polygon fill="none" stroke="black" points="1428.5,-6 1428.5,-36 1538.5,-36 1538.5,-6 1428.5,-6"/>
<text text-anchor="start" x="1436.5" y="-24" font-family="Helvetica,sans-Serif" font-size="10.00">test/cpp/src/404&#45;fill</text>
<text text-anchor="middle" x="1483.5" y="-13" font-family="Helvetica,sans-Serif" font-size="10.00">&#45;bandwidth.cc</text>
</a>
</g>
</g>
<!-- Node1&#45;&gt;Node12 -->
<g id="edge11" class="edge">
<title>Node1&#45;&gt;Node12</title>
<path fill="none" stroke="midnightblue" d="M2508.77,-86.27C2303.21,-83.85 1732.36,-74.33 1547.5,-42 1539.36,-40.58 1530.81,-38.4 1522.71,-36.01"/>
<polygon fill="midnightblue" stroke="midnightblue" points="2508.83,-89.77 2518.87,-86.38 2508.91,-82.77 2508.83,-89.77"/>
</g>
<!-- Node13 -->
<g id="node13" class="node">
<title>Node13</title>
<g id="a_node13"><a xlink:href="405-fill-eviction_8cc.html" target="_top" xlink:title=" ">
<polygon fill="none" stroke="black" points="1556.5,-6 1556.5,-36 1666.5,-36 1666.5,-6 1556.5,-6"/>
<text text-anchor="start" x="1564.5" y="-24" font-family="Helvetica,sans-Serif" font-size="10.00">test/cpp/src/405&#45;fill</text>
<text text-anchor="middle" x="1611.5" y="-13" font-family="Helvetica,sans-Serif" font-size="10.00">&#45;eviction.cc</text>
</a>
</g>
</g>
<!-- Node1&#45;&gt;Node13 -->
<g id="edge12" class="edge">
<title>Node1&#45;&gt;Node13</title>
<path fill="none" stroke="midnightblue" d="M2508.65,-85.73C2321.11,-82.15 1834.76,-70.36 1675.5,-42 1667.48,-40.57 1659.06,-38.43 1651.06,-36.07"/>
<polygon fill="midnightblue" stroke="midnightblue" points="2508.63,-89.23 2518.7,-85.92 2508.76,-82.23 2508.63,-89.23"/>
</g>
<!-- Node14 -->
<g id="node14" class="node">
<title>Node14</title>
<g id="a_node14"><a xlink:href="406-mshr-merge_8cc.html" target="_top" xlink:title=" ">
<polygon fill="none" stroke="black" points="1684.5,-6 1684.5,-36 1806.5,-36 1806.5,-6 1684.5,-6"/>
<text text-anchor="start" x="1692.5" y="-24" font-family="Helvetica,sans-Serif" font-size="10.00">test/cpp/src/406&#45;mshr</text>
<text text-anchor="middle" x="1745.5" y="-13" font-family="Helvetica,sans-Serif" font-size="10.00">&#45;merge.cc</text>
</a>
</g>
</g>
<!-- Node1&#45;&gt;Node14 -->
<g id="edge13" class="edge">
<title>Node1&#45;&gt;Node14</title>
<path fill="none" stroke="midnightblue" d="M2508.69,-84.71C2342.58,-79.29 1947.29,-64.41 1815.5,-42 1806.9,-40.54 1797.85,-38.41 1789.22,-36.08"/>
<polygon fill="midnightblue" stroke="midnightblue" points="2508.71,-88.21 2518.82,-85.04 2508.93,-81.22 2508.71,-88.21"/>
</g>
<!-- Node15 -->
<g id="node15" class="node">
<title>Node15</title>
<g id="a_node15"><a xlink:href="410-queue-collision_8cc.html" target="_top" xlink:title=" ">
<polygon fill="none" stroke="black" points="1824.5,-6 1824.5,-36 1952.5,-36 1952.5,-6 1824.5,-6"/>
<text text-anchor="start" x="1832.5" y="-24" font-family="Helvetica,sans-Serif" font-size="10.00">test/cpp/src/410&#45;queue</text>
<text text-anchor="middle" x="1888.5" y="-13" font-family="Helvetica,sans-Serif" font-size="10.00">&#45;collision.cc</text>
</a>
</g>
</g>
<!-- Node1&#45;&gt;Node15 -->
<g id="edge14" class="edge">
<title>Node1&#45;&gt;Node15</title>
<path fill="none" stroke="midnightblue" d="M2508.67,-86.29C2391.28,-84.11 2157.02,-75.52 1961.5,-42 1952.69,-40.49 1943.41,-38.37 1934.54,-36.07"/>
<polygon fill="midnightblue" stroke="midnightblue" points="2508.92,-89.79 2518.98,-86.47 2509.04,-82.79 2508.92,-89.79"/>
</g>
<!-- Node16 -->
<g id="node16" class="node">
<title>Node16</title>
<g id="a_node16"><a xlink:href="411-queue-translation-hit_8cc.html" target="_top" xlink:title=" ">
<polygon fill="none" stroke="black" points="1970.5,-6 1970.5,-36 2098.5,-36 2098.5,-6 1970.5,-6"/>
<text text-anchor="start" x="1978.5" y="-24" font-family="Helvetica,sans-Serif" font-size="10.00">test/cpp/src/411&#45;queue</text>
<text text-anchor="middle" x="2034.5" y="-13" font-family="Helvetica,sans-Serif" font-size="10.00">&#45;translation&#45;hit.cc</text>
</a>
</g>
</g>
<!-- Node1&#45;&gt;Node16 -->
<g id="edge15" class="edge">
<title>Node1&#45;&gt;Node16</title>
<path fill="none" stroke="midnightblue" d="M2508.72,-83.94C2414.51,-79.16 2247.93,-67.68 2107.5,-42 2098.84,-40.42 2089.71,-38.29 2080.95,-36.02"/>
<polygon fill="midnightblue" stroke="midnightblue" points="2508.57,-87.43 2518.73,-84.43 2508.91,-80.44 2508.57,-87.43"/>
</g>
<!-- Node17 -->
<g id="node17" class="node">
<title>Node17</title>
<g id="a_node17"><a xlink:href="412-queue-translation-miss_8cc.html" target="_top" xlink:title=" ">
<polygon fill="none" stroke="black" points="2116.5,-6 2116.5,-36 2244.5,-36 2244.5,-6 2116.5,-6"/>
<text text-anchor="start" x="2124.5" y="-24" font-family="Helvetica,sans-Serif" font-size="10.00">test/cpp/src/412&#45;queue</text>
<text text-anchor="middle" x="2180.5" y="-13" font-family="Helvetica,sans-Serif" font-size="10.00">&#45;translation&#45;miss.cc</text>
</a>
</g>
</g>
<!-- Node1&#45;&gt;Node17 -->
<g id="edge16" class="edge">
<title>Node1&#45;&gt;Node17</title>
<path fill="none" stroke="midnightblue" d="M2508.82,-79.66C2441.62,-72.38 2340.39,-59.75 2253.5,-42 2245.26,-40.32 2236.58,-38.23 2228.19,-36.04"/>
<polygon fill="midnightblue" stroke="midnightblue" points="2508.57,-83.15 2518.89,-80.74 2509.32,-76.19 2508.57,-83.15"/>
</g>
<!-- Node18 -->
<g id="node18" class="node">
<title>Node18</title>
<g id="a_node18"><a xlink:href="413-hit-under-miss_8cc.html" target="_top" xlink:title=" ">
<polygon fill="none" stroke="black" points="2262.5,-6 2262.5,-36 2372.5,-36 2372.5,-6 2262.5,-6"/>
<text text-anchor="start" x="2270.5" y="-24" font-family="Helvetica,sans-Serif" font-size="10.00">test/cpp/src/413&#45;hit</text>
<text text-anchor="middle" x="2317.5" y="-13" font-family="Helvetica,sans-Serif" font-size="10.00">&#45;under&#45;miss.cc</text>
</a>
</g>
</g>
<!-- Node1&#45;&gt;Node18 -->
<g id="edge17" class="edge">
<title>Node1&#45;&gt;Node18</title>
<path fill="none" stroke="midnightblue" d="M2530.27,-76.41C2489.37,-67.97 2431.58,-55.38 2381.5,-42 2374.75,-40.2 2367.65,-38.14 2360.73,-36.05"/>
<polygon fill="midnightblue" stroke="midnightblue" points="2529.8,-79.89 2540.29,-78.47 2531.2,-73.03 2529.8,-79.89"/>
</g>
<!-- Node19 -->
<g id="node19" class="node">
<title>Node19</title>
<g id="a_node19"><a xlink:href="414-tag-check-bound_8cc.html" target="_top" xlink:title=" ">
<polygon fill="none" stroke="black" points="2391,-6 2391,-36 2504,-36 2504,-6 2391,-6"/>
<text text-anchor="start" x="2399" y="-24" font-family="Helvetica,sans-Serif" font-size="10.00">test/cpp/src/414&#45;tag</text>
<text text-anchor="middle" x="2447.5" y="-13" font-family="Helvetica,sans-Serif" font-size="10.00">&#45;check&#45;bound.cc</text>
</a>
</g>
</g>
<!-- Node1&#45;&gt;Node19 -->
<g id="edge18" class="edge">
<title>Node1&#45;&gt;Node19</title>
<path fill="none" stroke="midnightblue" d="M2556.25,-73.97C2533.25,-62.99 2500.42,-47.29 2476.85,-36.03"/>
<polygon fill="midnightblue" stroke="midnightblue" points="2554.91,-77.21 2565.44,-78.37 2557.93,-70.9 2554.91,-77.21"/>
</g>
<!-- Node20 -->
<g id="node20" class="node">
<title>Node20</title>
<g id="a_node20"><a xlink:href="420-issue-prefetch_8cc.html" target="_top" xlink:title=" ">
<polygon fill="none" stroke="black" points="2522,-6 2522,-36 2645,-36 2645,-6 2522,-6"/>
<text text-anchor="start" x="2530" y="-24" font-family="Helvetica,sans-Serif" font-size="10.00">test/cpp/src/420&#45;issue</text>
<text text-anchor="middle" x="2583.5" y="-13" font-family="Helvetica,sans-Serif" font-size="10.00">&#45;prefetch.cc</text>
</a>
</g>
</g>
<!-- Node1&#45;&gt;Node20 -->
<g id="edge19" class="edge">
<title>Node1&#45;&gt;Node20</title>
<path fill="none" stroke="midnightblue" d="M2583.5,-67.91C2583.5,-57.72 2583.5,-45.4 2583.5,-36.09"/>
<polygon fill="midnightblue" stroke="midnightblue" points="2580,-68.23 2583.5,-78.23 2587,-68.23 2580,-68.23"/>
</g>
<!-- Node21 -->
<g id="node21" class="node">
<title>Node21</title>
<g id="a_node21"><a xlink:href="421-prefetch-fill-level_8cc.html" target="_top" xlink:title=" ">
<polygon fill="none" stroke="black" points="2663.5,-6 2663.5,-36 2801.5,-36 2801.5,-6 2663.5,-6"/>
<text text-anchor="start" x="2671.5" y="-24" font-family="Helvetica,sans-Serif" font-size="10.00">test/cpp/src/421&#45;prefetch</text>
<text text-anchor="middle" x="2732.5" y="-13" font-family="Helvetica,sans-Serif" font-size="10.00">&#45;fill&#45;level.cc</text>
</a>
</g>
</g>
<!-- Node1&#45;&gt;Node21 -->
<g id="edge20" class="edge">
<title>Node1&#45;&gt;Node21</title>
<path fill="none" stroke="midnightblue" d="M2612.69,-74.27C2637.91,-63.27 2674.29,-47.39 2700.34,-36.03"/>
<polygon fill="midnightblue" stroke="midnightblue" points="2611.05,-71.16 2603.29,-78.37 2613.85,-77.58 2611.05,-71.16"/>
</g>
<!-- Node22 -->
<g id="node22" class="node">
<title>Node22</title>
<g id="a_node22"><a xlink:href="422-prefetch-hit_8cc.html" target="_top" xlink:title=" ">
<polygon fill="none" stroke="black" points="2819.5,-6 2819.5,-36 2957.5,-36 2957.5,-6 2819.5,-6"/>
<text text-anchor="start" x="2827.5" y="-24" font-family="Helvetica,sans-Serif" font-size="10.00">test/cpp/src/422&#45;prefetch</text>
<text text-anchor="middle" x="2888.5" y="-13" font-family="Helvetica,sans-Serif" font-size="10.00">&#45;hit.cc</text>
</a>
</g>
</g>
<!-- Node1&#45;&gt;Node22 -->
<g id="edge21" class="edge">
<title>Node1&#45;&gt;Node22</title>
<path fill="none" stroke="midnightblue" d="M2640.69,-76.57C2686.71,-67.96 2752.95,-55.07 2810.5,-42 2818.54,-40.17 2827.02,-38.13 2835.31,-36.06"/>
<polygon fill="midnightblue" stroke="midnightblue" points="2639.8,-73.17 2630.61,-78.45 2641.09,-80.06 2639.8,-73.17"/>
</g>
<!-- Node23 -->
<g id="node23" class="node">
<title>Node23</title>
<g id="a_node23"><a xlink:href="423-prefetcher-activate_8cc.html" target="_top" xlink:title=" ">
<polygon fill="none" stroke="black" points="2975.5,-6 2975.5,-36 3123.5,-36 3123.5,-6 2975.5,-6"/>
<text text-anchor="start" x="2983.5" y="-24" font-family="Helvetica,sans-Serif" font-size="10.00">test/cpp/src/423&#45;prefetcher</text>
<text text-anchor="middle" x="3049.5" y="-13" font-family="Helvetica,sans-Serif" font-size="10.00">&#45;activate.cc</text>
</a>
</g>
</g>
<!-- Node1&#45;&gt;Node23 -->
<g id="edge22" class="edge">
<title>Node1&#45;&gt;Node23</title>
<path fill="none" stroke="midnightblue" d="M2658.37,-80.87C2735.86,-73.9 2860.22,-60.98 2966.5,-42 2975.84,-40.33 2985.7,-38.25 2995.23,-36.06"/>
<polygon fill="midnightblue" stroke="midnightblue" points="2657.87,-77.4 2648.22,-81.77 2658.49,-84.37 2657.87,-77.4"/>
</g>
<!-- Node24 -->
<g id="node24" class="node">
<title>Node24</title>
<g id="a_node24"><a xlink:href="424-duplicate-prefetch_8cc.html" target="_top" xlink:title=" ">
<polygon fill="none" stroke="black" points="3142,-6 3142,-36 3285,-36 3285,-6 3142,-6"/>
<text text-anchor="start" x="3150" y="-24" font-family="Helvetica,sans-Serif" font-size="10.00">test/cpp/src/424&#45;duplicate</text>
<text text-anchor="middle" x="3213.5" y="-13" font-family="Helvetica,sans-Serif" font-size="10.00">&#45;prefetch.cc</text>
</a>
</g>
</g>
<!-- Node1&#45;&gt;Node24 -->
<g id="edge23" class="edge">
<title>Node1&#45;&gt;Node24</title>
<path fill="none" stroke="midnightblue" d="M2658.43,-84.66C2764.55,-80.49 2964.44,-69.45 3132.5,-42 3142.08,-40.44 3152.19,-38.32 3161.9,-36.05"/>
<polygon fill="midnightblue" stroke="midnightblue" points="2658,-81.17 2648.14,-85.06 2658.27,-88.17 2658,-81.17"/>
</g>
<!-- Node25 -->
<g id="node25" class="node">
<title>Node25</title>
<g id="a_node25"><a xlink:href="425-useless-prefetch_8cc.html" target="_top" xlink:title=" ">
<polygon fill="none" stroke="black" points="3303.5,-6 3303.5,-36 3437.5,-36 3437.5,-6 3303.5,-6"/>
<text text-anchor="start" x="3311.5" y="-24" font-family="Helvetica,sans-Serif" font-size="10.00">test/cpp/src/425&#45;useless</text>
<text text-anchor="middle" x="3370.5" y="-13" font-family="Helvetica,sans-Serif" font-size="10.00">&#45;prefetch.cc</text>
</a>
</g>
</g>
<!-- Node1&#45;&gt;Node25 -->
<g id="edge24" class="edge">
<title>Node1&#45;&gt;Node25</title>
<path fill="none" stroke="midnightblue" d="M2658.44,-87.02C2788.65,-85.99 3064.76,-79.14 3294.5,-42 3303.79,-40.5 3313.6,-38.35 3322.96,-36.02"/>
<polygon fill="midnightblue" stroke="midnightblue" points="2658.16,-83.52 2648.18,-87.09 2658.21,-90.52 2658.16,-83.52"/>
</g>
<!-- Node26 -->
<g id="node26" class="node">
<title>Node26</title>
<g id="a_node26"><a xlink:href="426-internal-pq-size_8cc.html" target="_top" xlink:title=" ">
<polygon fill="none" stroke="black" points="3456,-6 3456,-36 3591,-36 3591,-6 3456,-6"/>
<text text-anchor="start" x="3464" y="-24" font-family="Helvetica,sans-Serif" font-size="10.00">test/cpp/src/426&#45;internal</text>
<text text-anchor="middle" x="3523.5" y="-13" font-family="Helvetica,sans-Serif" font-size="10.00">&#45;pq&#45;size.cc</text>
</a>
</g>
</g>
<!-- Node1&#45;&gt;Node26 -->
<g id="edge25" class="edge">
<title>Node1&#45;&gt;Node26</title>
<path fill="none" stroke="midnightblue" d="M2658.33,-85.04C2839.07,-79.99 3295.59,-65.29 3446.5,-42 3455.92,-40.55 3465.85,-38.42 3475.34,-36.1"/>
<polygon fill="midnightblue" stroke="midnightblue" points="2658.02,-81.55 2648.12,-85.32 2658.22,-88.54 2658.02,-81.55"/>
</g>
<!-- Node27 -->
<g id="node27" class="node">
<title>Node27</title>
<g id="a_node27"><a xlink:href="431-merge-prefetch_8cc.html" target="_top" xlink:title=" ">
<polygon fill="none" stroke="black" points="3609,-6 3609,-36 3738,-36 3738,-6 3609,-6"/>
<text text-anchor="start" x="3617" y="-24" font-family="Helvetica,sans-Serif" font-size="10.00">test/cpp/src/431&#45;merge</text>
<text text-anchor="middle" x="3673.5" y="-13" font-family="Helvetica,sans-Serif" font-size="10.00">&#45;prefetch.cc</text>
</a>
</g>
</g>
<!-- Node1&#45;&gt;Node27 -->
<g id="edge26" class="edge">
<title>Node1&#45;&gt;Node27</title>
<path fill="none" stroke="midnightblue" d="M2658.54,-85.85C2861.64,-82.39 3419.02,-70.51 3600.5,-42 3609.59,-40.57 3619.16,-38.43 3628.28,-36.07"/>
<polygon fill="midnightblue" stroke="midnightblue" points="2658.21,-82.35 2648.27,-86.02 2658.33,-89.35 2658.21,-82.35"/>
</g>
<!-- Node28 -->
<g id="node28" class="node">
<title>Node28</title>
<g id="a_node28"><a xlink:href="432-prefetch-metadata_8cc.html" target="_top" xlink:title=" ">
<polygon fill="none" stroke="black" points="3756.5,-6 3756.5,-36 3894.5,-36 3894.5,-6 3756.5,-6"/>
<text text-anchor="start" x="3764.5" y="-24" font-family="Helvetica,sans-Serif" font-size="10.00">test/cpp/src/432&#45;prefetch</text>
<text text-anchor="middle" x="3825.5" y="-13" font-family="Helvetica,sans-Serif" font-size="10.00">&#45;metadata.cc</text>
</a>
</g>
</g>
<!-- Node1&#45;&gt;Node28 -->
<g id="edge27" class="edge">
<title>Node1&#45;&gt;Node28</title>
<path fill="none" stroke="midnightblue" d="M2658.32,-86.18C2880.85,-83.42 3536.1,-72.83 3747.5,-42 3757.18,-40.59 3767.4,-38.45 3777.14,-36.1"/>
<polygon fill="midnightblue" stroke="midnightblue" points="2658.02,-82.69 2648.06,-86.31 2658.1,-89.69 2658.02,-82.69"/>
</g>
<!-- Node29 -->
<g id="node29" class="node">
<title>Node29</title>
<g id="a_node29"><a xlink:href="441-replacement-bypass_8cc.html" target="_top" xlink:title=" ">
<polygon fill="none" stroke="black" points="3913,-6 3913,-36 4072,-36 4072,-6 3913,-6"/>
<text text-anchor="start" x="3921" y="-24" font-family="Helvetica,sans-Serif" font-size="10.00">test/cpp/src/441&#45;replacement</text>
<text text-anchor="middle" x="3992.5" y="-13" font-family="Helvetica,sans-Serif" font-size="10.00">&#45;bypass.cc</text>
</a>
</g>
</g>
<!-- Node1&#45;&gt;Node29 -->
<g id="edge28" class="edge">
<title>Node1&#45;&gt;Node29</title>
<path fill="none" stroke="midnightblue" d="M2658.19,-86.29C2900.01,-83.7 3659.95,-73.24 3903.5,-42 3914.5,-40.59 3926.13,-38.46 3937.24,-36.1"/>
<polygon fill="midnightblue" stroke="midnightblue" points="2658.06,-82.79 2648.09,-86.4 2658.13,-89.79 2658.06,-82.79"/>
</g>
<!-- Node30 -->
<g id="node30" class="node">
<title>Node30</title>
<g id="a_node30"><a xlink:href="442-replacement-interface_8cc.html" target="_top" xlink:title=" ">
<polygon fill="none" stroke="black" points="4090,-6 4090,-36 4249,-36 4249,-6 4090,-6"/>
<text text-anchor="start" x="4098" y="-24" font-family="Helvetica,sans-Serif" font-size="10.00">test/cpp/src/442&#45;replacement</text>
<text text-anchor="middle" x="4169.5" y="-13" font-family="Helvetica,sans-Serif" font-size="10.00">&#45;interface.cc</text>
</a>
</g>
</g>
<!-- Node1&#45;&gt;Node30 -->
<g id="edge29" class="edge">
<title>Node1&#45;&gt;Node30</title>
<path fill="none" stroke="midnightblue" d="M2658.24,-86.67C2921.03,-85.2 3801.65,-77.66 4081.5,-42 4092.53,-40.59 4104.22,-38.43 4115.34,-36.04"/>
<polygon fill="midnightblue" stroke="midnightblue" points="2658.02,-83.17 2648.04,-86.72 2658.06,-90.17 2658.02,-83.17"/>
</g>
<!-- Node31 -->
<g id="node31" class="node">
<title>Node31</title>
<g id="a_node31"><a xlink:href="451-next-line-behavior_8cc.html" target="_top" xlink:title=" ">
<polygon fill="none" stroke="black" points="4267,-6 4267,-36 4386,-36 4386,-6 4267,-6"/>
<text text-anchor="start" x="4275" y="-24" font-family="Helvetica,sans-Serif" font-size="10.00">test/cpp/src/451&#45;next</text>
<text text-anchor="middle" x="4326.5" y="-13" font-family="Helvetica,sans-Serif" font-size="10.00">&#45;line&#45;behavior.cc</text>
</a>
</g>
</g>
<!-- Node1&#45;&gt;Node31 -->
<g id="edge30" class="edge">
<title>Node1&#45;&gt;Node31</title>
<path fill="none" stroke="midnightblue" d="M2658.47,-86.13C2963.09,-82.43 4099.48,-67.08 4258.5,-42 4267.25,-40.62 4276.46,-38.43 4285.17,-36"/>
<polygon fill="midnightblue" stroke="midnightblue" points="2658.37,-82.63 2648.41,-86.25 2658.45,-89.63 2658.37,-82.63"/>
</g>
<!-- Node32 -->
<g id="node32" class="node">
<title>Node32</title>
<g id="a_node32"><a xlink:href="452-ip-stride-behavior_8cc.html" target="_top" xlink:title=" ">
<polygon fill="none" stroke="black" points="4404,-6 4404,-36 4511,-36 4511,-6 4404,-6"/>
<text text-anchor="start" x="4412" y="-24" font-family="Helvetica,sans-Serif" font-size="10.00">test/cpp/src/452&#45;ip</text>
<text text-anchor="middle" x="4457.5" y="-13" font-family="Helvetica,sans-Serif" font-size="10.00">&#45;stride&#45;behavior.cc</text>
</a>
</g>
</g>
<!-- Node1&#45;&gt;Node32 -->
<g id="edge31" class="edge">
<title>Node1&#45;&gt;Node32</title>
<path fill="none" stroke="midnightblue" d="M2658.17,-86.41C2977.85,-83.71 4222.68,-71.39 4395.5,-42 4403.53,-40.63 4411.94,-38.46 4419.9,-36.03"/>
<polygon fill="midnightblue" stroke="midnightblue" points="2658.06,-82.91 2648.09,-86.49 2658.12,-89.91 2658.06,-82.91"/>
</g>
<!-- Node33 -->
<g id="node33" class="node">
<title>Node33</title>
<g id="a_node33"><a xlink:href="453-va-ampm-lite-behavior_8cc.html" target="_top" xlink:title=" ">
<polygon fill="none" stroke="black" points="4529,-6 4529,-36 4660,-36 4660,-6 4529,-6"/>
<text text-anchor="start" x="4537" y="-24" font-family="Helvetica,sans-Serif" font-size="10.00">test/cpp/src/453&#45;va</text>
<text text-anchor="middle" x="4594.5" y="-13" font-family="Helvetica,sans-Serif" font-size="10.00">&#45;ampm&#45;lite&#45;behavior.cc</text>
</a>
</g>
</g>
<!-- Node1&#45;&gt;Node33 -->
<g id="edge32" class="edge">
<title>Node1&#45;&gt;Node33</title>
<path fill="none" stroke="midnightblue" d="M2658.03,-86.33C2990.97,-83.19 4334.08,-68.96 4520.5,-42 4529.98,-40.63 4539.99,-38.45 4549.47,-36.02"/>
<polygon fill="midnightblue" stroke="midnightblue" points="2657.97,-82.83 2648.01,-86.42 2658.04,-89.83 2657.97,-82.83"/>
</g>
<!-- Node34 -->
<g id="node34" class="node">
<title>Node34</title>
<g id="a_node34"><a xlink:href="600-ptw-path_8cc.html" target="_top" xlink:title=" ">
<polygon fill="none" stroke="black" points="4678.5,-6 4678.5,-36 4794.5,-36 4794.5,-6 4678.5,-6"/>
<text text-anchor="start" x="4686.5" y="-24" font-family="Helvetica,sans-Serif" font-size="10.00">test/cpp/src/600&#45;ptw</text>
<text text-anchor="middle" x="4736.5" y="-13" font-family="Helvetica,sans-Serif" font-size="10.00">&#45;path.cc</text>
</a>
</g>
</g>
<!-- Node1&#45;&gt;Node34 -->
<g id="edge33" class="edge">
<title>Node1&#45;&gt;Node34</title>
<path fill="none" stroke="midnightblue" d="M2658.25,-86.58C3007.28,-84.44 4468.07,-73.65 4669.5,-42 4678.13,-40.64 4687.21,-38.47 4695.8,-36.04"/>
<polygon fill="midnightblue" stroke="midnightblue" points="2657.99,-83.08 2648.01,-86.64 2658.03,-90.08 2657.99,-83.08"/>
</g>
<!-- Node35 -->
<g id="node35" class="node">
<title>Node35</title>
<g id="a_node35"><a xlink:href="601-multiple-inflight-walks_8cc.html" target="_top" xlink:title=" ">
<polygon fill="none" stroke="black" points="4812.5,-6 4812.5,-36 4950.5,-36 4950.5,-6 4812.5,-6"/>
<text text-anchor="start" x="4820.5" y="-24" font-family="Helvetica,sans-Serif" font-size="10.00">test/cpp/src/601&#45;multiple</text>
<text text-anchor="middle" x="4881.5" y="-13" font-family="Helvetica,sans-Serif" font-size="10.00">&#45;inflight&#45;walks.cc</text>
</a>
</g>
</g>
<!-- Node1&#45;&gt;Node35 -->
<g id="edge34" class="edge">
<title>Node1&#45;&gt;Node35</title>
<path fill="none" stroke="midnightblue" d="M2658.26,-86.51C3020.83,-83.99 4587.56,-71.47 4803.5,-42 4813.47,-40.64 4824.01,-38.46 4834,-36.03"/>
<polygon fill="midnightblue" stroke="midnightblue" points="2658.11,-83.01 2648.14,-86.58 2658.16,-90.01 2658.11,-83.01"/>
</g>
<!-- Node36 -->
<g id="node36" class="node">
<title>Node36</title>
<g id="a_node36"><a xlink:href="602-walk-latency_8cc.html" target="_top" xlink:title=" ">
<polygon fill="none" stroke="black" points="4969,-6 4969,-36 5090,-36 5090,-6 4969,-6"/>
<text text-anchor="start" x="4977" y="-24" font-family="Helvetica,sans-Serif" font-size="10.00">test/cpp/src/602&#45;walk</text>
<text text-anchor="middle" x="5029.5" y="-13" font-family="Helvetica,sans-Serif" font-size="10.00">&#45;latency.cc</text>
</a>
</g>
</g>
<!-- Node1&#45;&gt;Node36 -->
<g id="edge35" class="edge">
<title>Node1&#45;&gt;Node36</title>
<path fill="none" stroke="midnightblue" d="M2658.25,-86.74C3036.19,-85.25 4727.76,-76.7 4959.5,-42 4968.5,-40.65 4977.97,-38.48 4986.94,-36.06"/>
<polygon fill="midnightblue" stroke="midnightblue" points="2658.23,-83.24 2648.25,-86.78 2658.26,-90.24 2658.23,-83.24"/>
</g>
<!-- Node37 -->
<g id="node37" class="node">
<title>Node37</title>
<g id="a_node37"><a xlink:href="603-pte-page-correctness_8cc.html" target="_top" xlink:title=" ">
<polygon fill="none" stroke="black" points="5108.5,-6 5108.5,-36 5226.5,-36 5226.5,-6 5108.5,-6"/>
<text text-anchor="start" x="5116.5" y="-24" font-family="Helvetica,sans-Serif" font-size="10.00">test/cpp/src/603&#45;pte</text>
<text text-anchor="middle" x="5167.5" y="-13" font-family="Helvetica,sans-Serif" font-size="10.00">&#45;page&#45;correctness.cc</text>
</a>
</g>
</g>
<!-- Node1&#45;&gt;Node37 -->
<g id="edge36" class="edge">
<title>Node1&#45;&gt;Node37</title>
<path fill="none" stroke="midnightblue" d="M2658.17,-86.86C3049.29,-85.94 4853.31,-79.7 5099.5,-42 5108.26,-40.66 5117.47,-38.49 5126.18,-36.07"/>
<polygon fill="midnightblue" stroke="midnightblue" points="2658.09,-83.36 2648.1,-86.88 2658.11,-90.36 2658.09,-83.36"/>
</g>
<!-- Node38 -->
<g id="node38" class="node">
<title>Node38</title>
<g id="a_node38"><a xlink:href="900-btb-bounds-check_8cc.html" target="_top" xlink:title=" ">
<polygon fill="none" stroke="black" points="5245,-6 5245,-36 5358,-36 5358,-6 5245,-6"/>
<text text-anchor="start" x="5253" y="-24" font-family="Helvetica,sans-Serif" font-size="10.00">test/cpp/src/900&#45;btb</text>
<text text-anchor="middle" x="5301.5" y="-13" font-family="Helvetica,sans-Serif" font-size="10.00">&#45;bounds&#45;check.cc</text>
</a>
</g>
</g>
<!-- Node1&#45;&gt;Node38 -->
<g id="edge37" class="edge">
<title>Node1&#45;&gt;Node38</title>
<path fill="none" stroke="midnightblue" d="M2658.26,-86.97C3062.18,-86.62 4975.31,-82.82 5235.5,-42 5244.02,-40.66 5252.96,-38.5 5261.42,-36.07"/>
<polygon fill="midnightblue" stroke="midnightblue" points="2658.15,-83.47 2648.15,-86.97 2658.15,-90.47 2658.15,-83.47"/>
</g>
</g>
</svg>
