<?xml version="1.0" encoding="UTF-8" standalone="no"?>
<!DOCTYPE svg PUBLIC "-//W3C//DTD SVG 1.1//EN"
 "http://www.w3.org/Graphics/SVG/1.1/DTD/svg11.dtd">
<!-- Generated by graphviz version 2.43.0 (0)
 -->
<!-- Title: test/cpp/src/mocks.hpp Pages: 1 -->
<svg width="1435pt" height="196pt"
 viewBox="0.00 0.00 1434.97 196.00" xmlns="http://www.w3.org/2000/svg" xmlns:xlink="http://www.w3.org/1999/xlink">
<g id="graph0" class="graph" transform="scale(1 1) rotate(0) translate(4 192)">
<title>test/cpp/src/mocks.hpp</title>
<!-- Node1 -->
<g id="node1" class="node">
<title>Node1</title>
<g id="a_node1"><a xlink:title=" ">
<polygon fill="#bfbfbf" stroke="black" points="273,-168.5 273,-187.5 402,-187.5 402,-168.5 273,-168.5"/>
<text text-anchor="middle" x="337.5" y="-175.5" font-family="Helvetica,sans-Serif" font-size="10.00">test/cpp/src/mocks.hpp</text>
</a>
</g>
</g>
<!-- Node2 -->
<g id="node2" class="node">
<title>Node2</title>
<g id="a_node2"><a xlink:title=" ">
<polygon fill="none" stroke="#bfbfbf" points="146,-0.5 146,-19.5 193,-19.5 193,-0.5 146,-0.5"/>
<text text-anchor="middle" x="169.5" y="-7.5" font-family="Helvetica,sans-Serif" font-size="10.00">deque</text>
</a>
</g>
</g>
<!-- Node1&#45;&gt;Node2 -->
<g id="edge1" class="edge">
<title>Node1&#45;&gt;Node2</title>
<path fill="none" stroke="midnightblue" d="M300.04,-168.45C256.27,-156.23 185.86,-129.13 154.5,-76 145.88,-61.39 152.03,-42.23 158.87,-28.5"/>
<polygon fill="midnightblue" stroke="midnightblue" points="162.01,-30.05 163.78,-19.6 155.88,-26.67 162.01,-30.05"/>
</g>
<!-- Node3 -->
<g id="node3" class="node">
<title>Node3</title>
<g id="a_node3"><a xlink:title=" ">
<polygon fill="none" stroke="#bfbfbf" points="857,-0.5 857,-19.5 922,-19.5 922,-0.5 857,-0.5"/>
<text text-anchor="middle" x="889.5" y="-7.5" font-family="Helvetica,sans-Serif" font-size="10.00">exception</text>
</a>
</g>
</g>
<!-- Node1&#45;&gt;Node3 -->
<g id="edge2" class="edge">
<title>Node1&#45;&gt;Node3</title>
<path fill="none" stroke="midnightblue" d="M402.2,-176.03C625.65,-171.99 1354.97,-152.97 1422.5,-76 1428.36,-69.32 1428.52,-62.54 1422.5,-56 1389.6,-20.2 1053.81,-12.86 932.73,-11.37"/>
<polygon fill="midnightblue" stroke="midnightblue" points="932.41,-7.87 922.37,-11.25 932.33,-14.87 932.41,-7.87"/>
</g>
<!-- Node4 -->
<g id="node4" class="node">
<title>Node4</title>
<g id="a_node4"><a xlink:title=" ">
<polygon fill="none" stroke="#bfbfbf" points="0,-0.5 0,-19.5 65,-19.5 65,-0.5 0,-0.5"/>
<text text-anchor="middle" x="32.5" y="-7.5" font-family="Helvetica,sans-Serif" font-size="10.00">functional</text>
</a>
</g>
</g>
<!-- Node1&#45;&gt;Node4 -->
<g id="edge3" class="edge">
<title>Node1&#45;&gt;Node4</title>
<path fill="none" stroke="midnightblue" d="M272.84,-169.22C237.14,-162.92 192.98,-151.71 157.5,-132 108.85,-104.97 65.47,-54.16 44.98,-27.81"/>
<polygon fill="midnightblue" stroke="midnightblue" points="47.56,-25.42 38.72,-19.59 41.99,-29.66 47.56,-25.42"/>
</g>
<!-- Node5 -->
<g id="node5" class="node">
<title>Node5</title>
<g id="a_node5"><a xlink:title=" ">
<polygon fill="none" stroke="#bfbfbf" points="83.5,-0.5 83.5,-19.5 127.5,-19.5 127.5,-0.5 83.5,-0.5"/>
<text text-anchor="middle" x="105.5" y="-7.5" font-family="Helvetica,sans-Serif" font-size="10.00">limits</text>
</a>
</g>
</g>
<!-- Node1&#45;&gt;Node5 -->
<g id="edge4" class="edge">
<title>Node1&#45;&gt;Node5</title>
<path fill="none" stroke="midnightblue" d="M272.77,-169.15C242.69,-162.94 207.85,-151.84 181.5,-132 145.62,-104.98 122.48,-55.66 112,-29.09"/>
<polygon fill="midnightblue" stroke="midnightblue" points="115.2,-27.65 108.39,-19.53 108.65,-30.12 115.2,-27.65"/>
</g>
<!-- Node6 -->
<g id="node6" class="node">
<title>Node6</title>
<g id="a_node6"><a xlink:href="cache_8h.html" target="_top" xlink:title=" ">
<polygon fill="none" stroke="black" points="580.5,-112.5 580.5,-131.5 634.5,-131.5 634.5,-112.5 580.5,-112.5"/>
<text text-anchor="middle" x="607.5" y="-119.5" font-family="Helvetica,sans-Serif" font-size="10.00">cache.h</text>
</a>
</g>
</g>
<!-- Node1&#45;&gt;Node6 -->
<g id="edge5" class="edge">
<title>Node1&#45;&gt;Node6</title>
<path fill="none" stroke="midnightblue" d="M380.28,-168.44C432.62,-157.98 520.37,-140.43 570.12,-130.48"/>
<polygon fill="midnightblue" stroke="midnightblue" points="571.01,-133.87 580.13,-128.47 569.64,-127 571.01,-133.87"/>
</g>
<!-- Node19 -->
<g id="node19" class="node">
<title>Node19</title>
<g id="a_node19"><a xlink:href="operable_8h.html" target="_top" xlink:title=" ">
<polygon fill="none" stroke="black" points="1345.5,-56.5 1345.5,-75.5 1413.5,-75.5 1413.5,-56.5 1345.5,-56.5"/>
<text text-anchor="middle" x="1379.5" y="-63.5" font-family="Helvetica,sans-Serif" font-size="10.00">operable.h</text>
</a>
</g>
</g>
<!-- Node1&#45;&gt;Node19 -->
<g id="edge30" class="edge">
<title>Node1&#45;&gt;Node19</title>
<path fill="none" stroke="midnightblue" d="M402.08,-172.84C559.96,-162.17 978.08,-130.84 1335.27,-76.05"/>
<polygon fill="midnightblue" stroke="midnightblue" points="1335.94,-79.48 1345.29,-74.5 1334.88,-72.57 1335.94,-79.48"/>
</g>
<!-- Node6&#45;&gt;Node2 -->
<g id="edge8" class="edge">
<title>Node6&#45;&gt;Node2</title>
<path fill="none" stroke="midnightblue" d="M580.23,-120.3C488.21,-117.67 193.39,-106.87 165.5,-76 154.28,-63.58 157.38,-43.78 161.98,-29.3"/>
<polygon fill="midnightblue" stroke="midnightblue" points="165.28,-30.46 165.42,-19.87 158.71,-28.07 165.28,-30.46"/>
</g>
<!-- Node7 -->
<g id="node7" class="node">
<title>Node7</title>
<g id="a_node7"><a xlink:title=" ">
<polygon fill="none" stroke="#bfbfbf" points="364.5,-0.5 364.5,-19.5 406.5,-19.5 406.5,-0.5 364.5,-0.5"/>
<text text-anchor="middle" x="385.5" y="-7.5" font-family="Helvetica,sans-Serif" font-size="10.00">array</text>
</a>
</g>
</g>
<!-- Node6&#45;&gt;Node7 -->
<g id="edge6" class="edge">
<title>Node6&#45;&gt;Node7</title>
<path fill="none" stroke="midnightblue" d="M580.44,-117.23C548.2,-111.85 493.57,-99.86 452.5,-76 430.71,-63.34 410.68,-42.08 398.3,-27.34"/>
<polygon fill="midnightblue" stroke="midnightblue" points="400.97,-25.07 391.94,-19.52 395.54,-29.49 400.97,-25.07"/>
</g>
<!-- Node8 -->
<g id="node8" class="node">
<title>Node8</title>
<g id="a_node8"><a xlink:title=" ">
<polygon fill="none" stroke="#bfbfbf" points="476.5,-56.5 476.5,-75.5 520.5,-75.5 520.5,-56.5 476.5,-56.5"/>
<text text-anchor="middle" x="498.5" y="-63.5" font-family="Helvetica,sans-Serif" font-size="10.00">bitset</text>
</a>
</g>
</g>
<!-- Node6&#45;&gt;Node8 -->
<g id="edge7" class="edge">
<title>Node6&#45;&gt;Node8</title>
<path fill="none" stroke="midnightblue" d="M589.99,-112.32C572.43,-103.62 545.17,-90.12 524.97,-80.11"/>
<polygon fill="midnightblue" stroke="midnightblue" points="526.48,-76.96 515.97,-75.65 523.38,-83.23 526.48,-76.96"/>
</g>
<!-- Node9 -->
<g id="node9" class="node">
<title>Node9</title>
<g id="a_node9"><a xlink:title=" ">
<polygon fill="none" stroke="#bfbfbf" points="538.5,-56.5 538.5,-75.5 596.5,-75.5 596.5,-56.5 538.5,-56.5"/>
<text text-anchor="middle" x="567.5" y="-63.5" font-family="Helvetica,sans-Serif" font-size="10.00">memory</text>
</a>
</g>
</g>
<!-- Node6&#45;&gt;Node9 -->
<g id="edge9" class="edge">
<title>Node6&#45;&gt;Node9</title>
<path fill="none" stroke="midnightblue" d="M600.89,-112.08C595.24,-104.46 586.96,-93.26 580.05,-83.94"/>
<polygon fill="midnightblue" stroke="midnightblue" points="582.75,-81.7 573.98,-75.75 577.12,-85.87 582.75,-81.7"/>
</g>
<!-- Node10 -->
<g id="node10" class="node">
<title>Node10</title>
<g id="a_node10"><a xlink:title=" ">
<polygon fill="none" stroke="#bfbfbf" points="615,-56.5 615,-75.5 680,-75.5 680,-56.5 615,-56.5"/>
<text text-anchor="middle" x="647.5" y="-63.5" font-family="Helvetica,sans-Serif" font-size="10.00">stdexcept</text>
</a>
</g>
</g>
<!-- Node6&#45;&gt;Node10 -->
<g id="edge10" class="edge">
<title>Node6&#45;&gt;Node10</title>
<path fill="none" stroke="midnightblue" d="M614.11,-112.08C619.76,-104.46 628.04,-93.26 634.95,-83.94"/>
<polygon fill="midnightblue" stroke="midnightblue" points="637.88,-85.87 641.02,-75.75 632.25,-81.7 637.88,-85.87"/>
</g>
<!-- Node11 -->
<g id="node11" class="node">
<title>Node11</title>
<g id="a_node11"><a xlink:title=" ">
<polygon fill="none" stroke="#bfbfbf" points="698.5,-56.5 698.5,-75.5 742.5,-75.5 742.5,-56.5 698.5,-56.5"/>
<text text-anchor="middle" x="720.5" y="-63.5" font-family="Helvetica,sans-Serif" font-size="10.00">string</text>
</a>
</g>
</g>
<!-- Node6&#45;&gt;Node11 -->
<g id="edge11" class="edge">
<title>Node6&#45;&gt;Node11</title>
<path fill="none" stroke="midnightblue" d="M625.41,-112.44C643.75,-103.68 672.51,-89.94 693.59,-79.86"/>
<polygon fill="midnightblue" stroke="midnightblue" points="695.17,-82.99 702.68,-75.52 692.15,-76.67 695.17,-82.99"/>
</g>
<!-- Node12 -->
<g id="node12" class="node">
<title>Node12</title>
<g id="a_node12"><a xlink:title=" ">
<polygon fill="none" stroke="#bfbfbf" points="425,-0.5 425,-19.5 472,-19.5 472,-0.5 425,-0.5"/>
<text text-anchor="middle" x="448.5" y="-7.5" font-family="Helvetica,sans-Serif" font-size="10.00">vector</text>
</a>
</g>
</g>
<!-- Node6&#45;&gt;Node12 -->
<g id="edge12" class="edge">
<title>Node6&#45;&gt;Node12</title>
<path fill="none" stroke="midnightblue" d="M580.41,-119.65C548.97,-116.62 497.6,-106.91 467.5,-76 455.59,-63.77 451.08,-44.51 449.4,-30.12"/>
<polygon fill="midnightblue" stroke="midnightblue" points="452.87,-29.54 448.58,-19.85 445.89,-30.1 452.87,-29.54"/>
</g>
<!-- Node13 -->
<g id="node13" class="node">
<title>Node13</title>
<g id="a_node13"><a xlink:href="champsim_8h.html" target="_top" xlink:title=" ">
<polygon fill="none" stroke="black" points="761,-56.5 761,-75.5 838,-75.5 838,-56.5 761,-56.5"/>
<text text-anchor="middle" x="799.5" y="-63.5" font-family="Helvetica,sans-Serif" font-size="10.00">champsim.h</text>
</a>
</g>
</g>
<!-- Node6&#45;&gt;Node13 -->
<g id="edge13" class="edge">
<title>Node6&#45;&gt;Node13</title>
<path fill="none" stroke="midnightblue" d="M634.6,-113.38C667.01,-104.26 721.56,-88.92 758.98,-78.4"/>
<polygon fill="midnightblue" stroke="midnightblue" points="760.37,-81.64 769.05,-75.56 758.48,-74.9 760.37,-81.64"/>
</g>
<!-- Node15 -->
<g id="node15" class="node">
<title>Node15</title>
<g id="a_node15"><a xlink:title=" ">
<polygon fill="none" stroke="#bfbfbf" points="856,-56.5 856,-75.5 985,-75.5 985,-56.5 856,-56.5"/>
<text text-anchor="middle" x="920.5" y="-63.5" font-family="Helvetica,sans-Serif" font-size="10.00">champsim_constants.h</text>
</a>
</g>
</g>
<!-- Node6&#45;&gt;Node15 -->
<g id="edge16" class="edge">
<title>Node6&#45;&gt;Node15</title>
<path fill="none" stroke="midnightblue" d="M634.73,-116.3C684.88,-107.65 792.92,-89.01 860.85,-77.29"/>
<polygon fill="midnightblue" stroke="midnightblue" points="861.72,-80.69 870.98,-75.54 860.53,-73.79 861.72,-80.69"/>
</g>
<!-- Node16 -->
<g id="node16" class="node">
<title>Node16</title>
<g id="a_node16"><a xlink:href="channel_8h.html" target="_top" xlink:title=" ">
<polygon fill="none" stroke="black" points="318.5,-56.5 318.5,-75.5 382.5,-75.5 382.5,-56.5 318.5,-56.5"/>
<text text-anchor="middle" x="350.5" y="-63.5" font-family="Helvetica,sans-Serif" font-size="10.00">channel.h</text>
</a>
</g>
</g>
<!-- Node6&#45;&gt;Node16 -->
<g id="edge17" class="edge">
<title>Node6&#45;&gt;Node16</title>
<path fill="none" stroke="midnightblue" d="M580.48,-115.32C535.69,-105.91 445.71,-87.01 392.55,-75.84"/>
<polygon fill="midnightblue" stroke="midnightblue" points="393.26,-72.41 382.75,-73.78 391.82,-79.26 393.26,-72.41"/>
</g>
<!-- Node18 -->
<g id="node18" class="node">
<title>Node18</title>
<g id="a_node18"><a xlink:href="module__impl_8h.html" target="_top" xlink:title=" ">
<polygon fill="none" stroke="black" points="1003,-56.5 1003,-75.5 1092,-75.5 1092,-56.5 1003,-56.5"/>
<text text-anchor="middle" x="1047.5" y="-63.5" font-family="Helvetica,sans-Serif" font-size="10.00">module_impl.h</text>
</a>
</g>
</g>
<!-- Node6&#45;&gt;Node18 -->
<g id="edge25" class="edge">
<title>Node6&#45;&gt;Node18</title>
<path fill="none" stroke="midnightblue" d="M634.7,-118.29C696.37,-112.06 851.72,-95.79 992.62,-76.06"/>
<polygon fill="midnightblue" stroke="midnightblue" points="993.32,-79.5 1002.74,-74.63 992.35,-72.56 993.32,-79.5"/>
</g>
<!-- Node6&#45;&gt;Node19 -->
<g id="edge26" class="edge">
<title>Node6&#45;&gt;Node19</title>
<path fill="none" stroke="midnightblue" d="M634.78,-120.74C729.97,-119.52 1056.33,-112.84 1335,-76"/>
<polygon fill="midnightblue" stroke="midnightblue" points="1335.86,-79.42 1345.31,-74.62 1334.93,-72.48 1335.86,-79.42"/>
</g>
<!-- Node20 -->
<g id="node20" class="node">
<title>Node20</title>
<g id="a_node20"><a xlink:title=" ">
<polygon fill="none" stroke="#bfbfbf" points="1110,-56.5 1110,-75.5 1179,-75.5 1179,-56.5 1110,-56.5"/>
<text text-anchor="middle" x="1144.5" y="-63.5" font-family="Helvetica,sans-Serif" font-size="10.00">type_traits</text>
</a>
</g>
</g>
<!-- Node6&#45;&gt;Node20 -->
<g id="edge27" class="edge">
<title>Node6&#45;&gt;Node20</title>
<path fill="none" stroke="midnightblue" d="M634.61,-119.58C707.89,-115.53 916.15,-102.53 1099.86,-75.92"/>
<polygon fill="midnightblue" stroke="midnightblue" points="1100.59,-79.35 1109.98,-74.44 1099.57,-72.43 1100.59,-79.35"/>
</g>
<!-- Node21 -->
<g id="node21" class="node">
<title>Node21</title>
<g id="a_node21"><a xlink:title=" ">
<polygon fill="none" stroke="#bfbfbf" points="1197.5,-56.5 1197.5,-75.5 1327.5,-75.5 1327.5,-56.5 1197.5,-56.5"/>
<text text-anchor="middle" x="1262.5" y="-63.5" font-family="Helvetica,sans-Serif" font-size="10.00">cache_module_decl.inc</text>
</a>
</g>
</g>
<!-- Node6&#45;&gt;Node21 -->
<g id="edge28" class="edge">
<title>Node6&#45;&gt;Node21</title>
<path fill="none" stroke="midnightblue" d="M634.76,-119.31C716.65,-114.16 967.82,-97.69 1187.06,-76.1"/>
<polygon fill="midnightblue" stroke="midnightblue" points="1187.54,-79.57 1197.15,-75.11 1186.85,-72.61 1187.54,-79.57"/>
</g>
<!-- Node22 -->
<g id="node22" class="node">
<title>Node22</title>
<g id="a_node22"><a xlink:title=" ">
<polygon fill="none" stroke="#bfbfbf" points="175,-56.5 175,-75.5 300,-75.5 300,-56.5 175,-56.5"/>
<text text-anchor="middle" x="237.5" y="-63.5" font-family="Helvetica,sans-Serif" font-size="10.00">cache_module_def.inc</text>
</a>
</g>
</g>
<!-- Node6&#45;&gt;Node22 -->
<g id="edge29" class="edge">
<title>Node6&#45;&gt;Node22</title>
<path fill="none" stroke="midnightblue" d="M580.29,-117.03C523.02,-108.67 388.51,-89.04 306.04,-77"/>
<polygon fill="midnightblue" stroke="midnightblue" points="306.41,-73.52 296.01,-75.54 305.4,-80.45 306.41,-73.52"/>
</g>
<!-- Node13&#45;&gt;Node3 -->
<g id="edge15" class="edge">
<title>Node13&#45;&gt;Node3</title>
<path fill="none" stroke="midnightblue" d="M813.96,-56.32C828,-47.9 849.55,-34.97 866.04,-25.07"/>
<polygon fill="midnightblue" stroke="midnightblue" points="868.3,-27.8 875.08,-19.65 864.7,-21.8 868.3,-27.8"/>
</g>
<!-- Node14 -->
<g id="node14" class="node">
<title>Node14</title>
<g id="a_node14"><a xlink:title=" ">
<polygon fill="none" stroke="#bfbfbf" points="684.5,-0.5 684.5,-19.5 734.5,-19.5 734.5,-0.5 684.5,-0.5"/>
<text text-anchor="middle" x="709.5" y="-7.5" font-family="Helvetica,sans-Serif" font-size="10.00">cstdint</text>
</a>
</g>
</g>
<!-- Node13&#45;&gt;Node14 -->
<g id="edge14" class="edge">
<title>Node13&#45;&gt;Node14</title>
<path fill="none" stroke="midnightblue" d="M785.04,-56.32C771,-47.9 749.45,-34.97 732.96,-25.07"/>
<polygon fill="midnightblue" stroke="midnightblue" points="734.3,-21.8 723.92,-19.65 730.7,-27.8 734.3,-21.8"/>
</g>
<!-- Node16&#45;&gt;Node2 -->
<g id="edge20" class="edge">
<title>Node16&#45;&gt;Node2</title>
<path fill="none" stroke="midnightblue" d="M321.82,-56.44C289.57,-46.82 237.26,-31.21 203.11,-21.03"/>
<polygon fill="midnightblue" stroke="midnightblue" points="203.73,-17.56 193.14,-18.05 201.72,-24.27 203.73,-17.56"/>
</g>
<!-- Node16&#45;&gt;Node4 -->
<g id="edge21" class="edge">
<title>Node16&#45;&gt;Node4</title>
<path fill="none" stroke="midnightblue" d="M318.43,-57.93C315.09,-57.25 311.73,-56.59 308.5,-56 208.14,-37.54 179.69,-38.93 75.05,-20"/>
<polygon fill="midnightblue" stroke="midnightblue" points="75.49,-16.52 65.02,-18.17 74.23,-23.41 75.49,-16.52"/>
</g>
<!-- Node16&#45;&gt;Node5 -->
<g id="edge22" class="edge">
<title>Node16&#45;&gt;Node5</title>
<path fill="none" stroke="midnightblue" d="M318.4,-58.1C315.06,-57.39 311.71,-56.68 308.5,-56 235.23,-40.48 214,-39 137.87,-20.2"/>
<polygon fill="midnightblue" stroke="midnightblue" points="138.35,-16.71 127.8,-17.69 136.65,-23.51 138.35,-16.71"/>
</g>
<!-- Node16&#45;&gt;Node7 -->
<g id="edge18" class="edge">
<title>Node16&#45;&gt;Node7</title>
<path fill="none" stroke="midnightblue" d="M356.28,-56.08C361.17,-48.53 368.33,-37.49 374.33,-28.23"/>
<polygon fill="midnightblue" stroke="midnightblue" points="377.33,-30.05 379.83,-19.75 371.45,-26.24 377.33,-30.05"/>
</g>
<!-- Node16&#45;&gt;Node12 -->
<g id="edge23" class="edge">
<title>Node16&#45;&gt;Node12</title>
<path fill="none" stroke="midnightblue" d="M366.25,-56.32C381.82,-47.74 405.88,-34.49 423.96,-24.52"/>
<polygon fill="midnightblue" stroke="midnightblue" points="425.72,-27.55 432.79,-19.65 422.35,-21.42 425.72,-27.55"/>
</g>
<!-- Node16&#45;&gt;Node14 -->
<g id="edge19" class="edge">
<title>Node16&#45;&gt;Node14</title>
<path fill="none" stroke="midnightblue" d="M382.67,-60.16C449.79,-50.06 604.28,-26.83 674.1,-16.33"/>
<polygon fill="midnightblue" stroke="midnightblue" points="674.79,-19.76 684.16,-14.81 673.75,-12.84 674.79,-19.76"/>
</g>
<!-- Node17 -->
<g id="node17" class="node">
<title>Node17</title>
<g id="a_node17"><a xlink:title=" ">
<polygon fill="none" stroke="#bfbfbf" points="273,-0.5 273,-19.5 346,-19.5 346,-0.5 273,-0.5"/>
<text text-anchor="middle" x="309.5" y="-7.5" font-family="Helvetica,sans-Serif" font-size="10.00">string_view</text>
</a>
</g>
</g>
<!-- Node16&#45;&gt;Node17 -->
<g id="edge24" class="edge">
<title>Node16&#45;&gt;Node17</title>
<path fill="none" stroke="midnightblue" d="M343.73,-56.08C337.94,-48.46 329.44,-37.26 322.36,-27.94"/>
<polygon fill="midnightblue" stroke="midnightblue" points="324.98,-25.6 316.14,-19.75 319.4,-29.83 324.98,-25.6"/>
</g>
</g>
</svg>
