<?xml version="1.0" encoding="UTF-8" standalone="no"?>
<!DOCTYPE svg PUBLIC "-//W3C//DTD SVG 1.1//EN"
 "http://www.w3.org/Graphics/SVG/1.1/DTD/svg11.dtd">
<!-- Generated by graphviz version 2.43.0 (0)
 -->
<!-- Title: inc/msl/lru_table.h Pages: 1 -->
<svg width="5213pt" height="307pt"
 viewBox="0.00 0.00 5213.00 307.00" xmlns="http://www.w3.org/2000/svg" xmlns:xlink="http://www.w3.org/1999/xlink">
<g id="graph0" class="graph" transform="scale(1 1) rotate(0) translate(4 303)">
<title>inc/msl/lru_table.h</title>
<!-- Node1 -->
<g id="node1" class="node">
<title>Node1</title>
<g id="a_node1"><a xlink:title=" ">
<polygon fill="#bfbfbf" stroke="black" points="1767.5,-279.5 1767.5,-298.5 1874.5,-298.5 1874.5,-279.5 1767.5,-279.5"/>
<text text-anchor="middle" x="1821" y="-286.5" font-family="Helvetica,sans-Serif" font-size="10.00">inc/msl/lru_table.h</text>
</a>
</g>
</g>
<!-- Node2 -->
<g id="node2" class="node">
<title>Node2</title>
<g id="a_node2"><a xlink:href="basic__btb_8cc.html" target="_top" xlink:title=" ">
<polygon fill="none" stroke="black" points="0,-78.5 0,-108.5 110,-108.5 110,-78.5 0,-78.5"/>
<text text-anchor="start" x="8" y="-96.5" font-family="Helvetica,sans-Serif" font-size="10.00">btb/basic_btb/basic</text>
<text text-anchor="middle" x="55" y="-85.5" font-family="Helvetica,sans-Serif" font-size="10.00">_btb.cc</text>
</a>
</g>
</g>
<!-- Node1&#45;&gt;Node2 -->
<g id="edge1" class="edge">
<title>Node1&#45;&gt;Node2</title>
<path fill="none" stroke="midnightblue" d="M1757.08,-284.01C1531.71,-269.36 753.47,-213.86 119,-109 116.08,-108.52 113.09,-107.98 110.08,-107.41"/>
<polygon fill="midnightblue" stroke="midnightblue" points="1757.19,-287.52 1767.39,-284.68 1757.64,-280.54 1757.19,-287.52"/>
</g>
<!-- Node3 -->
<g id="node3" class="node">
<title>Node3</title>
<g id="a_node3"><a xlink:href="util_2lru__table_8h.html" target="_top" xlink:title=" ">
<polygon fill="none" stroke="black" points="1769,-218 1769,-237 1873,-237 1873,-218 1769,-218"/>
<text text-anchor="middle" x="1821" y="-225" font-family="Helvetica,sans-Serif" font-size="10.00">inc/util/lru_table.h</text>
</a>
</g>
</g>
<!-- Node1&#45;&gt;Node3 -->
<g id="edge2" class="edge">
<title>Node1&#45;&gt;Node3</title>
<path fill="none" stroke="midnightblue" d="M1821,-269.32C1821,-258.5 1821,-245.4 1821,-237.01"/>
<polygon fill="midnightblue" stroke="midnightblue" points="1817.5,-269.48 1821,-279.48 1824.5,-269.48 1817.5,-269.48"/>
</g>
<!-- Node61 -->
<g id="node50" class="node">
<title>Node61</title>
<g id="a_node50"><a xlink:href="ip__stride_8cc.html" target="_top" xlink:title=" ">
<polygon fill="none" stroke="black" points="1891,-212.5 1891,-242.5 2003,-242.5 2003,-212.5 1891,-212.5"/>
<text text-anchor="start" x="1899" y="-230.5" font-family="Helvetica,sans-Serif" font-size="10.00">prefetcher/ip_stride</text>
<text text-anchor="middle" x="1947" y="-219.5" font-family="Helvetica,sans-Serif" font-size="10.00">/ip_stride.cc</text>
</a>
</g>
</g>
<!-- Node1&#45;&gt;Node61 -->
<g id="edge68" class="edge">
<title>Node1&#45;&gt;Node61</title>
<path fill="none" stroke="midnightblue" d="M1848.11,-275.2C1868.47,-265.58 1896.34,-252.42 1917.3,-242.52"/>
<polygon fill="midnightblue" stroke="midnightblue" points="1846.6,-272.04 1839.05,-279.48 1849.59,-278.37 1846.6,-272.04"/>
</g>
<!-- Node4 -->
<g id="node4" class="node">
<title>Node4</title>
<g id="a_node4"><a xlink:href="ooo__cpu_8h.html" target="_top" xlink:title=" ">
<polygon fill="none" stroke="black" points="1291.5,-151 1291.5,-170 1374.5,-170 1374.5,-151 1291.5,-151"/>
<text text-anchor="middle" x="1333" y="-158" font-family="Helvetica,sans-Serif" font-size="10.00">inc/ooo_cpu.h</text>
</a>
</g>
</g>
<!-- Node3&#45;&gt;Node4 -->
<g id="edge3" class="edge">
<title>Node3&#45;&gt;Node4</title>
<path fill="none" stroke="midnightblue" d="M1758.71,-218.2C1657.61,-204.74 1460.5,-178.48 1374.64,-167.05"/>
<polygon fill="midnightblue" stroke="midnightblue" points="1758.4,-221.69 1768.78,-219.54 1759.33,-214.75 1758.4,-221.69"/>
</g>
<!-- Node58 -->
<g id="node47" class="node">
<title>Node58</title>
<g id="a_node47"><a xlink:href="ptw_8h.html" target="_top" xlink:title=" ">
<polygon fill="none" stroke="black" points="4002,-151 4002,-170 4062,-170 4062,-151 4002,-151"/>
<text text-anchor="middle" x="4032" y="-158" font-family="Helvetica,sans-Serif" font-size="10.00">inc/ptw.h</text>
</a>
</g>
</g>
<!-- Node3&#45;&gt;Node58 -->
<g id="edge59" class="edge">
<title>Node3&#45;&gt;Node58</title>
<path fill="none" stroke="midnightblue" d="M1861.31,-215.66C1868.17,-214.18 1875.25,-212.87 1882,-212 2318.48,-155.63 3774.37,-160.26 4001.96,-161.34"/>
<polygon fill="midnightblue" stroke="midnightblue" points="1860.45,-212.27 1851.49,-217.93 1862.02,-219.09 1860.45,-212.27"/>
</g>
<!-- Node60 -->
<g id="node49" class="node">
<title>Node60</title>
<g id="a_node49"><a xlink:href="040-lru-table_8cc.html" target="_top" xlink:title=" ">
<polygon fill="none" stroke="black" points="4080,-145.5 4080,-175.5 4190,-175.5 4190,-145.5 4080,-145.5"/>
<text text-anchor="start" x="4088" y="-163.5" font-family="Helvetica,sans-Serif" font-size="10.00">test/cpp/src/040&#45;lru</text>
<text text-anchor="middle" x="4135" y="-152.5" font-family="Helvetica,sans-Serif" font-size="10.00">&#45;table.cc</text>
</a>
</g>
</g>
<!-- Node3&#45;&gt;Node60 -->
<g id="edge67" class="edge">
<title>Node3&#45;&gt;Node60</title>
<path fill="none" stroke="midnightblue" d="M1861.08,-215.67C1868.01,-214.17 1875.18,-212.86 1882,-212 2364.72,-151.39 3587.97,-234.06 4071,-176 4073.94,-175.65 4076.94,-175.22 4079.97,-174.73"/>
<polygon fill="midnightblue" stroke="midnightblue" points="1860.12,-212.3 1851.17,-217.96 1861.7,-219.12 1860.12,-212.3"/>
</g>
<!-- Node4&#45;&gt;Node2 -->
<g id="edge10" class="edge">
<title>Node4&#45;&gt;Node2</title>
<path fill="none" stroke="midnightblue" d="M1281.28,-157.9C1064.53,-151.13 235.18,-124.45 119,-109 116.06,-108.61 113.06,-108.15 110.04,-107.64"/>
<polygon fill="midnightblue" stroke="midnightblue" points="1281.32,-161.41 1291.43,-158.22 1281.54,-154.41 1281.32,-161.41"/>
</g>
<!-- Node5 -->
<g id="node5" class="node">
<title>Node5</title>
<g id="a_node5"><a xlink:href="bimodal_8cc.html" target="_top" xlink:title=" ">
<polygon fill="none" stroke="black" points="128.5,-84 128.5,-103 277.5,-103 277.5,-84 128.5,-84"/>
<text text-anchor="middle" x="203" y="-91" font-family="Helvetica,sans-Serif" font-size="10.00">branch/bimodal/bimodal.cc</text>
</a>
</g>
</g>
<!-- Node4&#45;&gt;Node5 -->
<g id="edge4" class="edge">
<title>Node4&#45;&gt;Node5</title>
<path fill="none" stroke="midnightblue" d="M1281.26,-157.86C1098.29,-151.93 482.28,-130.79 286,-109 272.92,-107.55 258.77,-105.32 245.93,-103.05"/>
<polygon fill="midnightblue" stroke="midnightblue" points="1281.31,-161.36 1291.42,-158.19 1281.54,-154.37 1281.31,-161.36"/>
</g>
<!-- Node6 -->
<g id="node6" class="node">
<title>Node6</title>
<g id="a_node6"><a xlink:href="gshare_8cc.html" target="_top" xlink:title=" ">
<polygon fill="none" stroke="black" points="295.5,-84 295.5,-103 430.5,-103 430.5,-84 295.5,-84"/>
<text text-anchor="middle" x="363" y="-91" font-family="Helvetica,sans-Serif" font-size="10.00">branch/gshare/gshare.cc</text>
</a>
</g>
</g>
<!-- Node4&#45;&gt;Node6 -->
<g id="edge5" class="edge">
<title>Node4&#45;&gt;Node6</title>
<path fill="none" stroke="midnightblue" d="M1281.2,-158.91C1143.67,-156.85 758.11,-147.78 440,-109 427.85,-107.52 414.72,-105.29 402.81,-103.01"/>
<polygon fill="midnightblue" stroke="midnightblue" points="1281.39,-162.42 1291.44,-159.06 1281.49,-155.42 1281.39,-162.42"/>
</g>
<!-- Node7 -->
<g id="node7" class="node">
<title>Node7</title>
<g id="a_node7"><a xlink:href="hashed__perceptron_8cc.html" target="_top" xlink:title=" ">
<polygon fill="none" stroke="black" points="449,-78.5 449,-108.5 595,-108.5 595,-78.5 449,-78.5"/>
<text text-anchor="start" x="457" y="-96.5" font-family="Helvetica,sans-Serif" font-size="10.00">branch/hashed_perceptron</text>
<text text-anchor="middle" x="522" y="-85.5" font-family="Helvetica,sans-Serif" font-size="10.00">/hashed_perceptron.cc</text>
</a>
</g>
</g>
<!-- Node4&#45;&gt;Node7 -->
<g id="edge6" class="edge">
<title>Node4&#45;&gt;Node7</title>
<path fill="none" stroke="midnightblue" d="M1281.01,-157.79C1161.23,-153.44 856.72,-140.01 604,-109 601.13,-108.65 598.21,-108.26 595.26,-107.85"/>
<polygon fill="midnightblue" stroke="midnightblue" points="1281.23,-161.3 1291.34,-158.16 1281.48,-154.3 1281.23,-161.3"/>
</g>
<!-- Node8 -->
<g id="node8" class="node">
<title>Node8</title>
<g id="a_node8"><a xlink:href="perceptron_8cc.html" target="_top" xlink:title=" ">
<polygon fill="none" stroke="black" points="613,-84 613,-103 787,-103 787,-84 613,-84"/>
<text text-anchor="middle" x="700" y="-91" font-family="Helvetica,sans-Serif" font-size="10.00">branch/perceptron/perceptron.cc</text>
</a>
</g>
</g>
<!-- Node4&#45;&gt;Node8 -->
<g id="edge7" class="edge">
<title>Node4&#45;&gt;Node8</title>
<path fill="none" stroke="midnightblue" d="M1281.48,-155.62C1185.7,-148.2 973.79,-130.77 796,-109 781.95,-107.28 766.78,-105.13 752.74,-103.01"/>
<polygon fill="midnightblue" stroke="midnightblue" points="1281.24,-159.11 1291.48,-156.39 1281.78,-152.14 1281.24,-159.11"/>
</g>
<!-- Node9 -->
<g id="node9" class="node">
<title>Node9</title>
<g id="a_node9"><a xlink:href="tage__sc__l_8cc.html" target="_top" xlink:title=" ">
<polygon fill="none" stroke="black" points="805.5,-78.5 805.5,-108.5 928.5,-108.5 928.5,-78.5 805.5,-78.5"/>
<text text-anchor="start" x="813.5" y="-96.5" font-family="Helvetica,sans-Serif" font-size="10.00">branch/tage_sc_l/tage</text>
<text text-anchor="middle" x="867" y="-85.5" font-family="Helvetica,sans-Serif" font-size="10.00">_sc_l.cc</text>
</a>
</g>
</g>
<!-- Node4&#45;&gt;Node9 -->
<g id="edge8" class="edge">
<title>Node4&#45;&gt;Node9</title>
<path fill="none" stroke="midnightblue" d="M1281.13,-154.11C1205.46,-145.97 1060.46,-129.3 938,-109 934.9,-108.49 931.72,-107.93 928.52,-107.36"/>
<polygon fill="midnightblue" stroke="midnightblue" points="1281.02,-157.62 1291.34,-155.2 1281.77,-150.66 1281.02,-157.62"/>
</g>
<!-- Node10 -->
<g id="node10" class="node">
<title>Node10</title>
<g id="a_node10"><a xlink:href="target__predictor_8cc.html" target="_top" xlink:title=" ">
<polygon fill="none" stroke="black" points="823,-6 823,-36 959,-36 959,-6 823,-6"/>
<text text-anchor="start" x="831" y="-24" font-family="Helvetica,sans-Serif" font-size="10.00">btb/advanced_btb/target</text>
<text text-anchor="middle" x="891" y="-13" font-family="Helvetica,sans-Serif" font-size="10.00">_predictor.cc</text>
</a>
</g>
</g>
<!-- Node4&#45;&gt;Node10 -->
<g id="edge9" class="edge">
<title>Node4&#45;&gt;Node10</title>
<path fill="none" stroke="midnightblue" d="M1281.41,-151.38C1244.92,-144.09 1195.78,-131.04 1157,-109 1139.5,-99.06 1141.75,-87.48 1124,-78 1061.23,-44.48 1037.11,-58.95 968,-42 960.35,-40.13 952.3,-38.09 944.39,-36.07"/>
<polygon fill="midnightblue" stroke="midnightblue" points="1280.87,-154.84 1291.35,-153.29 1282.19,-147.97 1280.87,-154.84"/>
</g>
<!-- Node11 -->
<g id="node11" class="node">
<title>Node11</title>
<g id="a_node11"><a xlink:href="basic__btb_8h.html" target="_top" xlink:title=" ">
<polygon fill="none" stroke="black" points="946.5,-84 946.5,-103 1037.5,-103 1037.5,-84 946.5,-84"/>
<text text-anchor="middle" x="992" y="-91" font-family="Helvetica,sans-Serif" font-size="10.00">btb/basic_btb.h</text>
</a>
</g>
</g>
<!-- Node4&#45;&gt;Node11 -->
<g id="edge11" class="edge">
<title>Node4&#45;&gt;Node11</title>
<path fill="none" stroke="midnightblue" d="M1281.17,-151.68C1223.68,-142.69 1128.3,-126.86 1047,-109 1038.99,-107.24 1030.4,-105.1 1022.44,-103.01"/>
<polygon fill="midnightblue" stroke="midnightblue" points="1280.69,-155.14 1291.11,-153.22 1281.76,-148.22 1280.69,-155.14"/>
</g>
<!-- Node12 -->
<g id="node12" class="node">
<title>Node12</title>
<g id="a_node12"><a xlink:href="ras_8h.html" target="_top" xlink:title=" ">
<polygon fill="none" stroke="black" points="1055.5,-84 1055.5,-103 1114.5,-103 1114.5,-84 1055.5,-84"/>
<text text-anchor="middle" x="1085" y="-91" font-family="Helvetica,sans-Serif" font-size="10.00">btb/ras.h</text>
</a>
</g>
</g>
<!-- Node4&#45;&gt;Node12 -->
<g id="edge13" class="edge">
<title>Node4&#45;&gt;Node12</title>
<path fill="none" stroke="midnightblue" d="M1284.95,-148.69C1243.44,-139.09 1181.96,-124.26 1129,-109 1122.82,-107.22 1116.2,-105.13 1110.03,-103.11"/>
<polygon fill="midnightblue" stroke="midnightblue" points="1284.27,-152.12 1294.8,-150.95 1285.84,-145.3 1284.27,-152.12"/>
</g>
<!-- Node13 -->
<g id="node13" class="node">
<title>Node13</title>
<g id="a_node13"><a xlink:href="defaults_8hpp.html" target="_top" xlink:title=" ">
<polygon fill="none" stroke="red" points="3196.5,-84 3196.5,-103 3291.5,-103 3291.5,-84 3196.5,-84"/>
<text text-anchor="middle" x="3244" y="-91" font-family="Helvetica,sans-Serif" font-size="10.00">inc/defaults.hpp</text>
</a>
</g>
</g>
<!-- Node4&#45;&gt;Node13 -->
<g id="edge15" class="edge">
<title>Node4&#45;&gt;Node13</title>
<path fill="none" stroke="midnightblue" d="M1384.74,-157.74C1658.16,-148.44 2932.29,-105.1 3196.11,-96.13"/>
<polygon fill="midnightblue" stroke="midnightblue" points="1384.57,-154.24 1374.69,-158.08 1384.8,-161.24 1384.57,-154.24"/>
</g>
<!-- Node14 -->
<g id="node14" class="node">
<title>Node14</title>
<g id="a_node14"><a xlink:href="140-single-dib-lookup_8cc.html" target="_top" xlink:title=" ">
<polygon fill="none" stroke="black" points="1620.5,-6 1620.5,-36 1747.5,-36 1747.5,-6 1620.5,-6"/>
<text text-anchor="start" x="1628.5" y="-24" font-family="Helvetica,sans-Serif" font-size="10.00">test/cpp/src/140&#45;single</text>
<text text-anchor="middle" x="1684" y="-13" font-family="Helvetica,sans-Serif" font-size="10.00">&#45;dib&#45;lookup.cc</text>
</a>
</g>
</g>
<!-- Node4&#45;&gt;Node14 -->
<g id="edge52" class="edge">
<title>Node4&#45;&gt;Node14</title>
<path fill="none" stroke="midnightblue" d="M1363.9,-146.92C1387.65,-137.07 1421.18,-122.77 1450,-109 1476.73,-96.23 1481.68,-89.45 1509,-78 1532.24,-68.26 1593.46,-49.21 1636.92,-36.06"/>
<polygon fill="midnightblue" stroke="midnightblue" points="1362.26,-143.81 1354.35,-150.86 1364.93,-150.28 1362.26,-143.81"/>
</g>
<!-- Node15 -->
<g id="node15" class="node">
<title>Node15</title>
<g id="a_node15"><a xlink:href="150-fetch-bandwidth_8cc.html" target="_top" xlink:title=" ">
<polygon fill="none" stroke="black" points="1766,-6 1766,-36 1888,-36 1888,-6 1766,-6"/>
<text text-anchor="start" x="1774" y="-24" font-family="Helvetica,sans-Serif" font-size="10.00">test/cpp/src/150&#45;fetch</text>
<text text-anchor="middle" x="1827" y="-13" font-family="Helvetica,sans-Serif" font-size="10.00">&#45;bandwidth.cc</text>
</a>
</g>
</g>
<!-- Node4&#45;&gt;Node15 -->
<g id="edge53" class="edge">
<title>Node4&#45;&gt;Node15</title>
<path fill="none" stroke="midnightblue" d="M1378.99,-148.38C1411.62,-139.68 1456.01,-126.18 1493,-109 1516.37,-98.14 1517.93,-87.2 1542,-78 1632.5,-43.42 1662.49,-63.34 1757,-42 1764.64,-40.27 1772.69,-38.21 1780.5,-36.08"/>
<polygon fill="midnightblue" stroke="midnightblue" points="1378.05,-145 1369.26,-150.92 1379.82,-151.78 1378.05,-145"/>
</g>
<!-- Node16 -->
<g id="node16" class="node">
<title>Node16</title>
<g id="a_node16"><a xlink:href="165-basic-btb-no-evict-on-unknown-target_8cc.html" target="_top" xlink:title=" ">
<polygon fill="none" stroke="black" points="1906.5,-0.5 1906.5,-41.5 2049.5,-41.5 2049.5,-0.5 1906.5,-0.5"/>
<text text-anchor="start" x="1914.5" y="-29.5" font-family="Helvetica,sans-Serif" font-size="10.00">test/cpp/src/165&#45;basic</text>
<text text-anchor="start" x="1914.5" y="-18.5" font-family="Helvetica,sans-Serif" font-size="10.00">&#45;btb&#45;no&#45;evict&#45;on&#45;unknown</text>
<text text-anchor="middle" x="1978" y="-7.5" font-family="Helvetica,sans-Serif" font-size="10.00">&#45;target.cc</text>
</a>
</g>
</g>
<!-- Node4&#45;&gt;Node16 -->
<g id="edge54" class="edge">
<title>Node4&#45;&gt;Node16</title>
<path fill="none" stroke="midnightblue" d="M1384.95,-159.15C1449.31,-156.96 1561.11,-147.31 1648,-109 1668.26,-100.07 1666.79,-87.04 1687,-78 1773.44,-39.33 1804.31,-61.36 1897,-42 1899.98,-41.38 1903.01,-40.72 1906.07,-40.05"/>
<polygon fill="midnightblue" stroke="midnightblue" points="1384.54,-155.66 1374.65,-159.45 1384.75,-162.66 1384.54,-155.66"/>
</g>
<!-- Node17 -->
<g id="node17" class="node">
<title>Node17</title>
<g id="a_node17"><a xlink:href="166-issue296-basic-btb-no-mispredict-on-not-taken_8cc.html" target="_top" xlink:title=" ">
<polygon fill="none" stroke="black" points="2067.5,-0.5 2067.5,-41.5 2208.5,-41.5 2208.5,-0.5 2067.5,-0.5"/>
<text text-anchor="start" x="2075.5" y="-29.5" font-family="Helvetica,sans-Serif" font-size="10.00">test/cpp/src/166&#45;issue296</text>
<text text-anchor="start" x="2075.5" y="-18.5" font-family="Helvetica,sans-Serif" font-size="10.00">&#45;basic&#45;btb&#45;no&#45;mispredict</text>
<text text-anchor="middle" x="2138" y="-7.5" font-family="Helvetica,sans-Serif" font-size="10.00">&#45;on&#45;not&#45;taken.cc</text>
</a>
</g>
</g>
<!-- Node4&#45;&gt;Node17 -->
<g id="edge55" class="edge">
<title>Node4&#45;&gt;Node17</title>
<path fill="none" stroke="midnightblue" d="M1384.77,-156.64C1472.75,-151.18 1656.78,-137.26 1810,-109 1903.86,-91.69 2010.27,-61.45 2075.77,-41.57"/>
<polygon fill="midnightblue" stroke="midnightblue" points="1384.55,-153.14 1374.78,-157.24 1384.98,-160.13 1384.55,-153.14"/>
</g>
<!-- Node18 -->
<g id="node18" class="node">
<title>Node18</title>
<g id="a_node18"><a xlink:href="200-rob-scheduling_8cc.html" target="_top" xlink:title=" ">
<polygon fill="none" stroke="black" points="1215.5,-6 1215.5,-36 1328.5,-36 1328.5,-6 1215.5,-6"/>
<text text-anchor="start" x="1223.5" y="-24" font-family="Helvetica,sans-Serif" font-size="10.00">test/cpp/src/200&#45;rob</text>
<text text-anchor="middle" x="1272" y="-13" font-family="Helvetica,sans-Serif" font-size="10.00">&#45;scheduling.cc</text>
</a>
</g>
</g>
<!-- Node4&#45;&gt;Node18 -->
<g id="edge56" class="edge">
<title>Node4&#45;&gt;Node18</title>
<path fill="none" stroke="midnightblue" d="M1342.15,-141.51C1349.51,-124.35 1357.12,-98.19 1347,-78 1337.68,-59.41 1318.93,-45.41 1302.51,-36.05"/>
<polygon fill="midnightblue" stroke="midnightblue" points="1338.82,-140.36 1337.75,-150.9 1345.16,-143.33 1338.82,-140.36"/>
</g>
<!-- Node19 -->
<g id="node19" class="node">
<title>Node19</title>
<g id="a_node19"><a xlink:href="300-retire-from-rob_8cc.html" target="_top" xlink:title=" ">
<polygon fill="none" stroke="black" points="1347,-6 1347,-36 1471,-36 1471,-6 1347,-6"/>
<text text-anchor="start" x="1355" y="-24" font-family="Helvetica,sans-Serif" font-size="10.00">test/cpp/src/300&#45;retire</text>
<text text-anchor="middle" x="1409" y="-13" font-family="Helvetica,sans-Serif" font-size="10.00">&#45;from&#45;rob.cc</text>
</a>
</g>
</g>
<!-- Node4&#45;&gt;Node19 -->
<g id="edge57" class="edge">
<title>Node4&#45;&gt;Node19</title>
<path fill="none" stroke="midnightblue" d="M1343.49,-142.33C1349.35,-132.62 1356.71,-120.21 1363,-109 1377.21,-83.67 1392.83,-53.61 1401.72,-36.28"/>
<polygon fill="midnightblue" stroke="midnightblue" points="1340.42,-140.63 1338.23,-151 1346.41,-144.26 1340.42,-140.63"/>
</g>
<!-- Node49 -->
<g id="node41" class="node">
<title>Node49</title>
<g id="a_node41"><a xlink:href="900-btb-bounds-check_8cc.html" target="_top" xlink:title=" ">
<polygon fill="none" stroke="black" points="1489.5,-6 1489.5,-36 1602.5,-36 1602.5,-6 1489.5,-6"/>
<text text-anchor="start" x="1497.5" y="-24" font-family="Helvetica,sans-Serif" font-size="10.00">test/cpp/src/900&#45;btb</text>
<text text-anchor="middle" x="1546" y="-13" font-family="Helvetica,sans-Serif" font-size="10.00">&#45;bounds&#45;check.cc</text>
</a>
</g>
</g>
<!-- Node4&#45;&gt;Node49 -->
<g id="edge58" class="edge">
<title>Node4&#45;&gt;Node49</title>
<path fill="none" stroke="midnightblue" d="M1354.74,-145.47C1395.55,-119.12 1483.2,-62.54 1524.12,-36.12"/>
<polygon fill="midnightblue" stroke="midnightblue" points="1352.83,-142.53 1346.32,-150.9 1356.62,-148.42 1352.83,-142.53"/>
</g>
<!-- Node50 -->
<g id="node42" class="node">
<title>Node50</title>
<g id="a_node42"><a xlink:href="environment_8h.html" target="_top" xlink:title=" ">
<polygon fill="none" stroke="black" points="1695.5,-84 1695.5,-103 1800.5,-103 1800.5,-84 1695.5,-84"/>
<text text-anchor="middle" x="1748" y="-91" font-family="Helvetica,sans-Serif" font-size="10.00">inc/environment.h</text>
</a>
</g>
</g>
<!-- Node4&#45;&gt;Node50 -->
<g id="edge44" class="edge">
<title>Node4&#45;&gt;Node50</title>
<path fill="none" stroke="midnightblue" d="M1384.71,-153.13C1452.84,-144.48 1576.28,-127.91 1681,-109 1690.72,-107.24 1701.18,-105.1 1710.88,-103.01"/>
<polygon fill="midnightblue" stroke="midnightblue" points="1384.15,-149.67 1374.67,-154.4 1385.03,-156.62 1384.15,-149.67"/>
</g>
<!-- Node51 -->
<g id="node43" class="node">
<title>Node51</title>
<g id="a_node43"><a xlink:href="champsim_8cc.html" target="_top" xlink:title=" ">
<polygon fill="none" stroke="black" points="977,-11.5 977,-30.5 1075,-30.5 1075,-11.5 977,-11.5"/>
<text text-anchor="middle" x="1026" y="-18.5" font-family="Helvetica,sans-Serif" font-size="10.00">src/champsim.cc</text>
</a>
</g>
</g>
<!-- Node4&#45;&gt;Node51 -->
<g id="edge50" class="edge">
<title>Node4&#45;&gt;Node51</title>
<path fill="none" stroke="midnightblue" d="M1294.48,-147.85C1267.28,-138.92 1230.41,-125.37 1200,-109 1179.25,-97.83 1177.51,-89.59 1157,-78 1121.47,-57.92 1077.32,-40.46 1050.42,-30.59"/>
<polygon fill="midnightblue" stroke="midnightblue" points="1293.44,-151.19 1304.03,-150.93 1295.59,-144.53 1293.44,-151.19"/>
</g>
<!-- Node52 -->
<g id="node44" class="node">
<title>Node52</title>
<g id="a_node44"><a xlink:href="phase__info_8h.html" target="_top" xlink:title=" ">
<polygon fill="none" stroke="red" points="1209,-84 1209,-103 1305,-103 1305,-84 1209,-84"/>
<text text-anchor="middle" x="1257" y="-91" font-family="Helvetica,sans-Serif" font-size="10.00">inc/phase_info.h</text>
</a>
</g>
</g>
<!-- Node4&#45;&gt;Node52 -->
<g id="edge46" class="edge">
<title>Node4&#45;&gt;Node52</title>
<path fill="none" stroke="midnightblue" d="M1315.13,-144.21C1300.15,-131.41 1279.32,-113.59 1267.09,-103.13"/>
<polygon fill="midnightblue" stroke="midnightblue" points="1312.88,-146.89 1322.75,-150.73 1317.43,-141.57 1312.88,-146.89"/>
</g>
<!-- Node53 -->
<g id="node45" class="node">
<title>Node53</title>
<g id="a_node45"><a xlink:href="stats__printer_8h.html" target="_top" xlink:title=" ">
<polygon fill="none" stroke="red" points="1093,-11.5 1093,-30.5 1197,-30.5 1197,-11.5 1093,-11.5"/>
<text text-anchor="middle" x="1145" y="-18.5" font-family="Helvetica,sans-Serif" font-size="10.00">inc/stats_printer.h</text>
</a>
</g>
</g>
<!-- Node4&#45;&gt;Node53 -->
<g id="edge49" class="edge">
<title>Node4&#45;&gt;Node53</title>
<path fill="none" stroke="midnightblue" d="M1333.59,-140.61C1333.13,-122.37 1329.58,-95.06 1314,-78 1312.75,-76.63 1218.8,-45.98 1171.54,-30.61"/>
<polygon fill="midnightblue" stroke="midnightblue" points="1330.09,-140.62 1333.56,-150.63 1337.09,-140.64 1330.09,-140.62"/>
</g>
<!-- Node57 -->
<g id="node46" class="node">
<title>Node57</title>
<g id="a_node46"><a xlink:href="ooo__cpu_8cc.html" target="_top" xlink:title=" ">
<polygon fill="none" stroke="black" points="1551,-84 1551,-103 1639,-103 1639,-84 1551,-84"/>
<text text-anchor="middle" x="1595" y="-91" font-family="Helvetica,sans-Serif" font-size="10.00">src/ooo_cpu.cc</text>
</a>
</g>
</g>
<!-- Node4&#45;&gt;Node57 -->
<g id="edge51" class="edge">
<title>Node4&#45;&gt;Node57</title>
<path fill="none" stroke="midnightblue" d="M1377.42,-148.54C1418.75,-138.33 1482.05,-122.67 1537,-109 1544.76,-107.07 1553.09,-104.99 1560.96,-103.02"/>
<polygon fill="midnightblue" stroke="midnightblue" points="1376.53,-145.15 1367.66,-150.95 1378.21,-151.95 1376.53,-145.15"/>
</g>
<!-- Node11&#45;&gt;Node10 -->
<g id="edge12" class="edge">
<title>Node11&#45;&gt;Node10</title>
<path fill="none" stroke="midnightblue" d="M971.18,-77.97C953.59,-65.69 928.56,-48.22 911.17,-36.08"/>
<polygon fill="midnightblue" stroke="midnightblue" points="969.41,-81 979.62,-83.86 973.42,-75.26 969.41,-81"/>
</g>
<!-- Node12&#45;&gt;Node10 -->
<g id="edge14" class="edge">
<title>Node12&#45;&gt;Node10</title>
<path fill="none" stroke="midnightblue" d="M1053.44,-80.4C1051.26,-79.58 1049.1,-78.78 1047,-78 1007.6,-63.41 962.4,-47.25 930.83,-36.05"/>
<polygon fill="midnightblue" stroke="midnightblue" points="1052.33,-83.73 1062.92,-83.99 1054.81,-77.18 1052.33,-83.73"/>
</g>
<!-- Node13&#45;&gt;Node14 -->
<g id="edge16" class="edge">
<title>Node13&#45;&gt;Node14</title>
<path fill="none" stroke="midnightblue" d="M3185.93,-92.34C2947.11,-91.39 2039.94,-84.96 1757,-42 1747.78,-40.6 1738.05,-38.44 1728.82,-36.04"/>
<polygon fill="midnightblue" stroke="midnightblue" points="3186.12,-95.84 3196.14,-92.38 3186.15,-88.84 3186.12,-95.84"/>
</g>
<!-- Node13&#45;&gt;Node15 -->
<g id="edge17" class="edge">
<title>Node13&#45;&gt;Node15</title>
<path fill="none" stroke="midnightblue" d="M3185.98,-92.15C2961.76,-90.52 2151.83,-81.93 1898,-42 1889.02,-40.59 1879.56,-38.42 1870.57,-36.02"/>
<polygon fill="midnightblue" stroke="midnightblue" points="3186.19,-95.65 3196.21,-92.22 3186.24,-88.65 3186.19,-95.65"/>
</g>
<!-- Node13&#45;&gt;Node16 -->
<g id="edge18" class="edge">
<title>Node13&#45;&gt;Node16</title>
<path fill="none" stroke="midnightblue" d="M3186.22,-91.56C2979.96,-87.98 2280.5,-73.74 2059,-42 2055.99,-41.57 2052.93,-41.07 2049.84,-40.53"/>
<polygon fill="midnightblue" stroke="midnightblue" points="3186.18,-95.06 3196.24,-91.74 3186.3,-88.06 3186.18,-95.06"/>
</g>
<!-- Node13&#45;&gt;Node17 -->
<g id="edge19" class="edge">
<title>Node13&#45;&gt;Node17</title>
<path fill="none" stroke="midnightblue" d="M3185.98,-91.14C2998,-86.5 2406.94,-69.99 2218,-42 2214.88,-41.54 2211.71,-41.01 2208.52,-40.43"/>
<polygon fill="midnightblue" stroke="midnightblue" points="3186.13,-94.64 3196.21,-91.39 3186.3,-87.65 3186.13,-94.64"/>
</g>
<!-- Node13&#45;&gt;Node18 -->
<g id="edge20" class="edge">
<title>Node13&#45;&gt;Node18</title>
<path fill="none" stroke="midnightblue" d="M3185.99,-91.89C2886.72,-88.6 1523.99,-72.08 1338,-42 1329.49,-40.62 1320.55,-38.44 1312.09,-36.01"/>
<polygon fill="midnightblue" stroke="midnightblue" points="3186.15,-95.39 3196.19,-92 3186.23,-88.39 3186.15,-95.39"/>
</g>
<!-- Node13&#45;&gt;Node19 -->
<g id="edge21" class="edge">
<title>Node13&#45;&gt;Node19</title>
<path fill="none" stroke="midnightblue" d="M3185.93,-92.72C2920.47,-93.46 1820.86,-93.29 1481,-42 1471.89,-40.63 1462.3,-38.47 1453.19,-36.08"/>
<polygon fill="midnightblue" stroke="midnightblue" points="3186.13,-96.22 3196.12,-92.69 3186.11,-89.22 3186.13,-96.22"/>
</g>
<!-- Node20 -->
<g id="node20" class="node">
<title>Node20</title>
<g id="a_node20"><a xlink:href="400-cache-occupancy-size_8cc.html" target="_top" xlink:title=" ">
<polygon fill="none" stroke="black" points="2707,-6 2707,-36 2833,-36 2833,-6 2707,-6"/>
<text text-anchor="start" x="2715" y="-24" font-family="Helvetica,sans-Serif" font-size="10.00">test/cpp/src/400&#45;cache</text>
<text text-anchor="middle" x="2770" y="-13" font-family="Helvetica,sans-Serif" font-size="10.00">&#45;occupancy&#45;size.cc</text>
</a>
</g>
</g>
<!-- Node13&#45;&gt;Node20 -->
<g id="edge22" class="edge">
<title>Node13&#45;&gt;Node20</title>
<path fill="none" stroke="midnightblue" d="M3186.13,-87.9C3107.63,-81.06 2963.28,-66.33 2842,-42 2833.73,-40.34 2825.02,-38.24 2816.62,-36.02"/>
<polygon fill="midnightblue" stroke="midnightblue" points="3186.03,-91.41 3196.3,-88.78 3186.63,-84.43 3186.03,-91.41"/>
</g>
<!-- Node21 -->
<g id="node21" class="node">
<title>Node21</title>
<g id="a_node21"><a xlink:href="401-hit-latency_8cc.html" target="_top" xlink:title=" ">
<polygon fill="none" stroke="black" points="2851,-6 2851,-36 2961,-36 2961,-6 2851,-6"/>
<text text-anchor="start" x="2859" y="-24" font-family="Helvetica,sans-Serif" font-size="10.00">test/cpp/src/401&#45;hit</text>
<text text-anchor="middle" x="2906" y="-13" font-family="Helvetica,sans-Serif" font-size="10.00">&#45;latency.cc</text>
</a>
</g>
</g>
<!-- Node13&#45;&gt;Node21 -->
<g id="edge23" class="edge">
<title>Node13&#45;&gt;Node21</title>
<path fill="none" stroke="midnightblue" d="M3186.3,-83.81C3130.76,-74.99 3044.59,-60.06 2971,-42 2963.89,-40.25 2956.41,-38.18 2949.16,-36.04"/>
<polygon fill="midnightblue" stroke="midnightblue" points="3185.88,-87.29 3196.3,-85.39 3186.97,-80.38 3185.88,-87.29"/>
</g>
<!-- Node22 -->
<g id="node22" class="node">
<title>Node22</title>
<g id="a_node22"><a xlink:href="402-miss-latency_8cc.html" target="_top" xlink:title=" ">
<polygon fill="none" stroke="black" points="2979.5,-6 2979.5,-36 3100.5,-36 3100.5,-6 2979.5,-6"/>
<text text-anchor="start" x="2987.5" y="-24" font-family="Helvetica,sans-Serif" font-size="10.00">test/cpp/src/402&#45;miss</text>
<text text-anchor="middle" x="3040" y="-13" font-family="Helvetica,sans-Serif" font-size="10.00">&#45;latency.cc</text>
</a>
</g>
</g>
<!-- Node13&#45;&gt;Node22 -->
<g id="edge24" class="edge">
<title>Node13&#45;&gt;Node22</title>
<path fill="none" stroke="midnightblue" d="M3209.91,-80.72C3174.28,-68.41 3118.39,-49.09 3080.53,-36.01"/>
<polygon fill="midnightblue" stroke="midnightblue" points="3208.8,-84.04 3219.39,-84 3211.08,-77.42 3208.8,-84.04"/>
</g>
<!-- Node23 -->
<g id="node23" class="node">
<title>Node23</title>
<g id="a_node23"><a xlink:href="403-read-bandwidth_8cc.html" target="_top" xlink:title=" ">
<polygon fill="none" stroke="black" points="3118.5,-6 3118.5,-36 3237.5,-36 3237.5,-6 3118.5,-6"/>
<text text-anchor="start" x="3126.5" y="-24" font-family="Helvetica,sans-Serif" font-size="10.00">test/cpp/src/403&#45;read</text>
<text text-anchor="middle" x="3178" y="-13" font-family="Helvetica,sans-Serif" font-size="10.00">&#45;bandwidth.cc</text>
</a>
</g>
</g>
<!-- Node13&#45;&gt;Node23 -->
<g id="edge25" class="edge">
<title>Node13&#45;&gt;Node23</title>
<path fill="none" stroke="midnightblue" d="M3228.78,-76.24C3217.41,-64.1 3202.02,-47.66 3191.18,-36.08"/>
<polygon fill="midnightblue" stroke="midnightblue" points="3226.52,-78.95 3235.91,-83.86 3231.63,-74.16 3226.52,-78.95"/>
</g>
<!-- Node24 -->
<g id="node24" class="node">
<title>Node24</title>
<g id="a_node24"><a xlink:href="404-fill-bandwidth_8cc.html" target="_top" xlink:title=" ">
<polygon fill="none" stroke="black" points="3256,-6 3256,-36 3366,-36 3366,-6 3256,-6"/>
<text text-anchor="start" x="3264" y="-24" font-family="Helvetica,sans-Serif" font-size="10.00">test/cpp/src/404&#45;fill</text>
<text text-anchor="middle" x="3311" y="-13" font-family="Helvetica,sans-Serif" font-size="10.00">&#45;bandwidth.cc</text>
</a>
</g>
</g>
<!-- Node13&#45;&gt;Node24 -->
<g id="edge26" class="edge">
<title>Node13&#45;&gt;Node24</title>
<path fill="none" stroke="midnightblue" d="M3259.12,-76.59C3270.69,-64.41 3286.51,-47.77 3297.62,-36.08"/>
<polygon fill="midnightblue" stroke="midnightblue" points="3256.57,-74.2 3252.22,-83.86 3261.64,-79.02 3256.57,-74.2"/>
</g>
<!-- Node25 -->
<g id="node25" class="node">
<title>Node25</title>
<g id="a_node25"><a xlink:href="405-fill-eviction_8cc.html" target="_top" xlink:title=" ">
<polygon fill="none" stroke="black" points="3384,-6 3384,-36 3494,-36 3494,-6 3384,-6"/>
<text text-anchor="start" x="3392" y="-24" font-family="Helvetica,sans-Serif" font-size="10.00">test/cpp/src/405&#45;fill</text>
<text text-anchor="middle" x="3439" y="-13" font-family="Helvetica,sans-Serif" font-size="10.00">&#45;eviction.cc</text>
</a>
</g>
</g>
<!-- Node13&#45;&gt;Node25 -->
<g id="edge27" class="edge">
<title>Node13&#45;&gt;Node25</title>
<path fill="none" stroke="midnightblue" d="M3277.02,-80.56C3311.1,-68.24 3364.22,-49.04 3400.26,-36.01"/>
<polygon fill="midnightblue" stroke="midnightblue" points="3275.74,-77.3 3267.52,-84 3278.12,-83.89 3275.74,-77.3"/>
</g>
<!-- Node26 -->
<g id="node26" class="node">
<title>Node26</title>
<g id="a_node26"><a xlink:href="406-mshr-merge_8cc.html" target="_top" xlink:title=" ">
<polygon fill="none" stroke="black" points="3512,-6 3512,-36 3634,-36 3634,-6 3512,-6"/>
<text text-anchor="start" x="3520" y="-24" font-family="Helvetica,sans-Serif" font-size="10.00">test/cpp/src/406&#45;mshr</text>
<text text-anchor="middle" x="3573" y="-13" font-family="Helvetica,sans-Serif" font-size="10.00">&#45;merge.cc</text>
</a>
</g>
</g>
<!-- Node13&#45;&gt;Node26 -->
<g id="edge28" class="edge">
<title>Node13&#45;&gt;Node26</title>
<path fill="none" stroke="midnightblue" d="M3301.69,-82.71C3354.38,-73.43 3434.3,-58.48 3503,-42 3510.5,-40.2 3518.4,-38.12 3526.08,-36"/>
<polygon fill="midnightblue" stroke="midnightblue" points="3300.77,-79.32 3291.52,-84.49 3301.98,-86.22 3300.77,-79.32"/>
</g>
<!-- Node27 -->
<g id="node27" class="node">
<title>Node27</title>
<g id="a_node27"><a xlink:href="411-queue-translation-hit_8cc.html" target="_top" xlink:title=" ">
<polygon fill="none" stroke="black" points="3652,-6 3652,-36 3780,-36 3780,-6 3652,-6"/>
<text text-anchor="start" x="3660" y="-24" font-family="Helvetica,sans-Serif" font-size="10.00">test/cpp/src/411&#45;queue</text>
<text text-anchor="middle" x="3716" y="-13" font-family="Helvetica,sans-Serif" font-size="10.00">&#45;translation&#45;hit.cc</text>
</a>
</g>
</g>
<!-- Node13&#45;&gt;Node27 -->
<g id="edge29" class="edge">
<title>Node13&#45;&gt;Node27</title>
<path fill="none" stroke="midnightblue" d="M3301.74,-87.78C3379.71,-80.81 3522.74,-65.96 3643,-42 3651.25,-40.36 3659.93,-38.29 3668.32,-36.1"/>
<polygon fill="midnightblue" stroke="midnightblue" points="3301.3,-84.3 3291.64,-88.67 3301.91,-91.27 3301.3,-84.3"/>
</g>
<!-- Node28 -->
<g id="node28" class="node">
<title>Node28</title>
<g id="a_node28"><a xlink:href="412-queue-translation-miss_8cc.html" target="_top" xlink:title=" ">
<polygon fill="none" stroke="black" points="3798,-6 3798,-36 3926,-36 3926,-6 3798,-6"/>
<text text-anchor="start" x="3806" y="-24" font-family="Helvetica,sans-Serif" font-size="10.00">test/cpp/src/412&#45;queue</text>
<text text-anchor="middle" x="3862" y="-13" font-family="Helvetica,sans-Serif" font-size="10.00">&#45;translation&#45;miss.cc</text>
</a>
</g>
</g>
<!-- Node13&#45;&gt;Node28 -->
<g id="edge30" class="edge">
<title>Node13&#45;&gt;Node28</title>
<path fill="none" stroke="midnightblue" d="M3301.96,-90.46C3402.04,-86.2 3613.38,-73.94 3789,-42 3797.66,-40.42 3806.79,-38.3 3815.55,-36.03"/>
<polygon fill="midnightblue" stroke="midnightblue" points="3301.61,-86.97 3291.76,-90.88 3301.9,-93.97 3301.61,-86.97"/>
</g>
<!-- Node29 -->
<g id="node29" class="node">
<title>Node29</title>
<g id="a_node29"><a xlink:href="413-hit-under-miss_8cc.html" target="_top" xlink:title=" ">
<polygon fill="none" stroke="black" points="3944,-6 3944,-36 4054,-36 4054,-6 3944,-6"/>
<text text-anchor="start" x="3952" y="-24" font-family="Helvetica,sans-Serif" font-size="10.00">test/cpp/src/413&#45;hit</text>
<text text-anchor="middle" x="3999" y="-13" font-family="Helvetica,sans-Serif" font-size="10.00">&#45;under&#45;miss.cc</text>
</a>
</g>
</g>
<!-- Node13&#45;&gt;Node29 -->
<g id="edge31" class="edge">
<title>Node13&#45;&gt;Node29</title>
<path fill="none" stroke="midnightblue" d="M3301.85,-92.74C3421.28,-92.25 3703.35,-86.05 3935,-42 3942.89,-40.5 3951.18,-38.35 3959.07,-36.02"/>
<polygon fill="midnightblue" stroke="midnightblue" points="3301.81,-89.24 3291.82,-92.77 3301.83,-96.24 3301.81,-89.24"/>
</g>
<!-- Node30 -->
<g id="node30" class="node">
<title>Node30</title>
<g id="a_node30"><a xlink:href="414-tag-check-bound_8cc.html" target="_top" xlink:title=" ">
<polygon fill="none" stroke="black" points="4072.5,-6 4072.5,-36 4185.5,-36 4185.5,-6 4072.5,-6"/>
<text text-anchor="start" x="4080.5" y="-24" font-family="Helvetica,sans-Serif" font-size="10.00">test/cpp/src/414&#45;tag</text>
<text text-anchor="middle" x="4129" y="-13" font-family="Helvetica,sans-Serif" font-size="10.00">&#45;check&#45;bound.cc</text>
</a>
</g>
</g>
<!-- Node13&#45;&gt;Node30 -->
<g id="edge32" class="edge">
<title>Node13&#45;&gt;Node30</title>
<path fill="none" stroke="midnightblue" d="M3301.78,-90.69C3463.17,-85.34 3916.46,-68.35 4063,-42 4071.13,-40.54 4079.67,-38.41 4087.82,-36.08"/>
<polygon fill="midnightblue" stroke="midnightblue" points="3301.46,-87.19 3291.58,-91.02 3301.69,-94.19 3301.46,-87.19"/>
</g>
<!-- Node31 -->
<g id="node31" class="node">
<title>Node31</title>
<g id="a_node31"><a xlink:href="420-issue-prefetch_8cc.html" target="_top" xlink:title=" ">
<polygon fill="none" stroke="black" points="4203.5,-6 4203.5,-36 4326.5,-36 4326.5,-6 4203.5,-6"/>
<text text-anchor="start" x="4211.5" y="-24" font-family="Helvetica,sans-Serif" font-size="10.00">test/cpp/src/420&#45;issue</text>
<text text-anchor="middle" x="4265" y="-13" font-family="Helvetica,sans-Serif" font-size="10.00">&#45;prefetch.cc</text>
</a>
</g>
</g>
<!-- Node13&#45;&gt;Node31 -->
<g id="edge33" class="edge">
<title>Node13&#45;&gt;Node31</title>
<path fill="none" stroke="midnightblue" d="M3301.99,-91.13C3480.77,-86.64 4021.72,-70.97 4195,-42 4203.73,-40.54 4212.91,-38.38 4221.66,-36.02"/>
<polygon fill="midnightblue" stroke="midnightblue" points="3301.66,-87.64 3291.75,-91.39 3301.83,-94.64 3301.66,-87.64"/>
</g>
<!-- Node32 -->
<g id="node32" class="node">
<title>Node32</title>
<g id="a_node32"><a xlink:href="421-prefetch-fill-level_8cc.html" target="_top" xlink:title=" ">
<polygon fill="none" stroke="black" points="4345,-6 4345,-36 4483,-36 4483,-6 4345,-6"/>
<text text-anchor="start" x="4353" y="-24" font-family="Helvetica,sans-Serif" font-size="10.00">test/cpp/src/421&#45;prefetch</text>
<text text-anchor="middle" x="4414" y="-13" font-family="Helvetica,sans-Serif" font-size="10.00">&#45;fill&#45;level.cc</text>
</a>
</g>
</g>
<!-- Node13&#45;&gt;Node32 -->
<g id="edge34" class="edge">
<title>Node13&#45;&gt;Node32</title>
<path fill="none" stroke="midnightblue" d="M3301.77,-91.39C3497.36,-87.39 4133.63,-72.3 4336,-42 4345.68,-40.55 4355.9,-38.4 4365.63,-36.04"/>
<polygon fill="midnightblue" stroke="midnightblue" points="3301.63,-87.89 3291.7,-91.59 3301.77,-94.89 3301.63,-87.89"/>
</g>
<!-- Node33 -->
<g id="node33" class="node">
<title>Node33</title>
<g id="a_node33"><a xlink:href="422-prefetch-hit_8cc.html" target="_top" xlink:title=" ">
<polygon fill="none" stroke="black" points="4501,-6 4501,-36 4639,-36 4639,-6 4501,-6"/>
<text text-anchor="start" x="4509" y="-24" font-family="Helvetica,sans-Serif" font-size="10.00">test/cpp/src/422&#45;prefetch</text>
<text text-anchor="middle" x="4570" y="-13" font-family="Helvetica,sans-Serif" font-size="10.00">&#45;hit.cc</text>
</a>
</g>
</g>
<!-- Node13&#45;&gt;Node33 -->
<g id="edge35" class="edge">
<title>Node13&#45;&gt;Node33</title>
<path fill="none" stroke="midnightblue" d="M3301.63,-91.78C3514.7,-88.86 4257.69,-76.39 4492,-42 4501.68,-40.58 4511.9,-38.44 4521.64,-36.08"/>
<polygon fill="midnightblue" stroke="midnightblue" points="3301.54,-88.28 3291.59,-91.91 3301.64,-95.28 3301.54,-88.28"/>
</g>
<!-- Node34 -->
<g id="node34" class="node">
<title>Node34</title>
<g id="a_node34"><a xlink:href="423-prefetcher-activate_8cc.html" target="_top" xlink:title=" ">
<polygon fill="none" stroke="black" points="2227,-6 2227,-36 2375,-36 2375,-6 2227,-6"/>
<text text-anchor="start" x="2235" y="-24" font-family="Helvetica,sans-Serif" font-size="10.00">test/cpp/src/423&#45;prefetcher</text>
<text text-anchor="middle" x="2301" y="-13" font-family="Helvetica,sans-Serif" font-size="10.00">&#45;activate.cc</text>
</a>
</g>
</g>
<!-- Node13&#45;&gt;Node34 -->
<g id="edge36" class="edge">
<title>Node13&#45;&gt;Node34</title>
<path fill="none" stroke="midnightblue" d="M3186.21,-92.58C3047.34,-92.02 2684.19,-86.07 2385,-42 2374.77,-40.49 2363.95,-38.35 2353.6,-36.01"/>
<polygon fill="midnightblue" stroke="midnightblue" points="3186.2,-96.08 3196.21,-92.61 3186.22,-89.08 3186.2,-96.08"/>
</g>
<!-- Node35 -->
<g id="node35" class="node">
<title>Node35</title>
<g id="a_node35"><a xlink:href="424-duplicate-prefetch_8cc.html" target="_top" xlink:title=" ">
<polygon fill="none" stroke="black" points="2393.5,-6 2393.5,-36 2536.5,-36 2536.5,-6 2393.5,-6"/>
<text text-anchor="start" x="2401.5" y="-24" font-family="Helvetica,sans-Serif" font-size="10.00">test/cpp/src/424&#45;duplicate</text>
<text text-anchor="middle" x="2465" y="-13" font-family="Helvetica,sans-Serif" font-size="10.00">&#45;prefetch.cc</text>
</a>
</g>
</g>
<!-- Node13&#45;&gt;Node35 -->
<g id="edge37" class="edge">
<title>Node13&#45;&gt;Node35</title>
<path fill="none" stroke="midnightblue" d="M3186.22,-91.63C3066.22,-89.1 2781.54,-79.32 2546,-42 2536.27,-40.46 2526,-38.32 2516.15,-36.02"/>
<polygon fill="midnightblue" stroke="midnightblue" points="3186.22,-95.13 3196.29,-91.83 3186.36,-88.13 3186.22,-95.13"/>
</g>
<!-- Node36 -->
<g id="node36" class="node">
<title>Node36</title>
<g id="a_node36"><a xlink:href="425-useless-prefetch_8cc.html" target="_top" xlink:title=" ">
<polygon fill="none" stroke="black" points="2555,-6 2555,-36 2689,-36 2689,-6 2555,-6"/>
<text text-anchor="start" x="2563" y="-24" font-family="Helvetica,sans-Serif" font-size="10.00">test/cpp/src/425&#45;useless</text>
<text text-anchor="middle" x="2622" y="-13" font-family="Helvetica,sans-Serif" font-size="10.00">&#45;prefetch.cc</text>
</a>
</g>
</g>
<!-- Node13&#45;&gt;Node36 -->
<g id="edge38" class="edge">
<title>Node13&#45;&gt;Node36</title>
<path fill="none" stroke="midnightblue" d="M3185.96,-90.28C3085.76,-85.75 2874.1,-73.1 2698,-42 2689,-40.41 2679.5,-38.28 2670.39,-36.01"/>
<polygon fill="midnightblue" stroke="midnightblue" points="3186.03,-93.79 3196.18,-90.73 3186.34,-86.79 3186.03,-93.79"/>
</g>
<!-- Node45 -->
<g id="node37" class="node">
<title>Node45</title>
<g id="a_node37"><a xlink:href="600-ptw-path_8cc.html" target="_top" xlink:title=" ">
<polygon fill="none" stroke="black" points="4933,-6 4933,-36 5049,-36 5049,-6 4933,-6"/>
<text text-anchor="start" x="4941" y="-24" font-family="Helvetica,sans-Serif" font-size="10.00">test/cpp/src/600&#45;ptw</text>
<text text-anchor="middle" x="4991" y="-13" font-family="Helvetica,sans-Serif" font-size="10.00">&#45;path.cc</text>
</a>
</g>
</g>
<!-- Node13&#45;&gt;Node45 -->
<g id="edge39" class="edge">
<title>Node13&#45;&gt;Node45</title>
<path fill="none" stroke="midnightblue" d="M3301.78,-91.18C3587.89,-84.62 4842.37,-55.18 4924,-42 4932.51,-40.63 4941.45,-38.48 4949.93,-36.09"/>
<polygon fill="midnightblue" stroke="midnightblue" points="3301.54,-87.69 3291.62,-91.42 3301.7,-94.69 3301.54,-87.69"/>
</g>
<!-- Node46 -->
<g id="node38" class="node">
<title>Node46</title>
<g id="a_node38"><a xlink:href="601-multiple-inflight-walks_8cc.html" target="_top" xlink:title=" ">
<polygon fill="none" stroke="black" points="5067,-6 5067,-36 5205,-36 5205,-6 5067,-6"/>
<text text-anchor="start" x="5075" y="-24" font-family="Helvetica,sans-Serif" font-size="10.00">test/cpp/src/601&#45;multiple</text>
<text text-anchor="middle" x="5136" y="-13" font-family="Helvetica,sans-Serif" font-size="10.00">&#45;inflight&#45;walks.cc</text>
</a>
</g>
</g>
<!-- Node13&#45;&gt;Node46 -->
<g id="edge40" class="edge">
<title>Node13&#45;&gt;Node46</title>
<path fill="none" stroke="midnightblue" d="M3301.96,-91.25C3602.08,-84.73 4969.16,-54.47 5058,-42 5067.83,-40.62 5078.21,-38.47 5088.07,-36.08"/>
<polygon fill="midnightblue" stroke="midnightblue" points="3301.66,-87.76 3291.73,-91.47 3301.81,-94.75 3301.66,-87.76"/>
</g>
<!-- Node47 -->
<g id="node39" class="node">
<title>Node47</title>
<g id="a_node39"><a xlink:href="602-walk-latency_8cc.html" target="_top" xlink:title=" ">
<polygon fill="none" stroke="black" points="4657.5,-6 4657.5,-36 4778.5,-36 4778.5,-6 4657.5,-6"/>
<text text-anchor="start" x="4665.5" y="-24" font-family="Helvetica,sans-Serif" font-size="10.00">test/cpp/src/602&#45;walk</text>
<text text-anchor="middle" x="4718" y="-13" font-family="Helvetica,sans-Serif" font-size="10.00">&#45;latency.cc</text>
</a>
</g>
</g>
<!-- Node13&#45;&gt;Node47 -->
<g id="edge41" class="edge">
<title>Node13&#45;&gt;Node47</title>
<path fill="none" stroke="midnightblue" d="M3301.95,-91.24C3549.75,-85.76 4513.82,-63.26 4648,-42 4656.86,-40.6 4666.19,-38.43 4675.05,-36.04"/>
<polygon fill="midnightblue" stroke="midnightblue" points="3301.64,-87.75 3291.72,-91.47 3301.79,-94.75 3301.64,-87.75"/>
</g>
<!-- Node48 -->
<g id="node40" class="node">
<title>Node48</title>
<g id="a_node40"><a xlink:href="603-pte-page-correctness_8cc.html" target="_top" xlink:title=" ">
<polygon fill="none" stroke="black" points="4797,-6 4797,-36 4915,-36 4915,-6 4797,-6"/>
<text text-anchor="start" x="4805" y="-24" font-family="Helvetica,sans-Serif" font-size="10.00">test/cpp/src/603&#45;pte</text>
<text text-anchor="middle" x="4856" y="-13" font-family="Helvetica,sans-Serif" font-size="10.00">&#45;page&#45;correctness.cc</text>
</a>
</g>
</g>
<!-- Node13&#45;&gt;Node48 -->
<g id="edge42" class="edge">
<title>Node13&#45;&gt;Node48</title>
<path fill="none" stroke="midnightblue" d="M3301.62,-91.48C3564.01,-86.72 4639.38,-65.89 4788,-42 4796.63,-40.61 4805.7,-38.46 4814.3,-36.07"/>
<polygon fill="midnightblue" stroke="midnightblue" points="3301.48,-87.98 3291.55,-91.66 3301.61,-94.98 3301.48,-87.98"/>
</g>
<!-- Node13&#45;&gt;Node49 -->
<g id="edge43" class="edge">
<title>Node13&#45;&gt;Node49</title>
<path fill="none" stroke="midnightblue" d="M3186.14,-92.75C2933.31,-93.51 1924.29,-93.23 1612,-42 1603.61,-40.62 1594.8,-38.47 1586.44,-36.08"/>
<polygon fill="midnightblue" stroke="midnightblue" points="3186.22,-96.25 3196.21,-92.71 3186.2,-89.25 3186.22,-96.25"/>
</g>
<!-- Node50&#45;&gt;Node51 -->
<g id="edge45" class="edge">
<title>Node50&#45;&gt;Node51</title>
<path fill="none" stroke="midnightblue" d="M1685.22,-82.61C1672.91,-80.89 1660.06,-79.26 1648,-78 1398.18,-51.96 1330.27,-91.38 1084,-42 1071.26,-39.45 1057.49,-34.78 1046.57,-30.6"/>
<polygon fill="midnightblue" stroke="midnightblue" points="1685.03,-86.12 1695.42,-84.07 1686.02,-79.19 1685.03,-86.12"/>
</g>
<!-- Node52&#45;&gt;Node51 -->
<g id="edge48" class="edge">
<title>Node52&#45;&gt;Node51</title>
<path fill="none" stroke="midnightblue" d="M1216.03,-81.14C1180.87,-71.25 1128.91,-56.29 1084,-42 1072.73,-38.42 1060.33,-34.18 1049.9,-30.53"/>
<polygon fill="midnightblue" stroke="midnightblue" points="1215.35,-84.58 1225.93,-83.91 1217.24,-77.84 1215.35,-84.58"/>
</g>
<!-- Node52&#45;&gt;Node53 -->
<g id="edge47" class="edge">
<title>Node52&#45;&gt;Node53</title>
<path fill="none" stroke="midnightblue" d="M1234.65,-78.43C1212.04,-64.2 1177.8,-42.65 1158.85,-30.72"/>
<polygon fill="midnightblue" stroke="midnightblue" points="1232.94,-81.49 1243.27,-83.86 1236.67,-75.57 1232.94,-81.49"/>
</g>
<!-- Node58&#45;&gt;Node13 -->
<g id="edge60" class="edge">
<title>Node58&#45;&gt;Node13</title>
<path fill="none" stroke="midnightblue" d="M3991.42,-156.15C3858.15,-145.16 3434.35,-110.2 3291.52,-98.42"/>
<polygon fill="midnightblue" stroke="midnightblue" points="3991.34,-159.66 4001.59,-156.99 3991.91,-152.68 3991.34,-159.66"/>
</g>
<!-- Node58&#45;&gt;Node45 -->
<g id="edge63" class="edge">
<title>Node58&#45;&gt;Node45</title>
<path fill="none" stroke="midnightblue" d="M4061.65,-147.54C4064.77,-146.57 4067.93,-145.69 4071,-145 4252.93,-104.14 4303.86,-131.21 4489,-109 4683.22,-85.71 4733.16,-84.97 4924,-42 4931.46,-40.32 4939.31,-38.26 4946.9,-36.1"/>
<polygon fill="midnightblue" stroke="midnightblue" points="4060.23,-144.33 4051.93,-150.91 4062.52,-150.94 4060.23,-144.33"/>
</g>
<!-- Node58&#45;&gt;Node46 -->
<g id="edge64" class="edge">
<title>Node58&#45;&gt;Node46</title>
<path fill="none" stroke="midnightblue" d="M4061.11,-147.64C4064.41,-146.61 4067.75,-145.69 4071,-145 4312.74,-93.38 4380.29,-135.97 4626,-109 4819.14,-87.8 4867.67,-81.06 5058,-42 5066.49,-40.26 5075.44,-38.19 5084.14,-36.05"/>
<polygon fill="midnightblue" stroke="midnightblue" points="4059.8,-144.39 4051.51,-150.98 4062.1,-151 4059.8,-144.39"/>
</g>
<!-- Node58&#45;&gt;Node47 -->
<g id="edge65" class="edge">
<title>Node58&#45;&gt;Node47</title>
<path fill="none" stroke="midnightblue" d="M4062.42,-147.6C4065.3,-146.65 4068.19,-145.77 4071,-145 4322.32,-76.45 4394.21,-100.75 4648,-42 4655.63,-40.23 4663.68,-38.15 4671.48,-36"/>
<polygon fill="midnightblue" stroke="midnightblue" points="4061.1,-144.35 4052.82,-150.97 4063.42,-150.96 4061.1,-144.35"/>
</g>
<!-- Node58&#45;&gt;Node48 -->
<g id="edge66" class="edge">
<title>Node58&#45;&gt;Node48</title>
<path fill="none" stroke="midnightblue" d="M4061.88,-147.6C4064.93,-146.63 4068.01,-145.73 4071,-145 4194.99,-114.55 4229.57,-126.79 4356,-109 4548.4,-81.93 4598.39,-84.39 4788,-42 4795.57,-40.31 4803.53,-38.24 4811.23,-36.08"/>
<polygon fill="midnightblue" stroke="midnightblue" points="4060.66,-144.32 4052.37,-150.92 4062.96,-150.93 4060.66,-144.32"/>
</g>
<!-- Node58&#45;&gt;Node50 -->
<g id="edge61" class="edge">
<title>Node58&#45;&gt;Node50</title>
<path fill="none" stroke="midnightblue" d="M3991.52,-158.35C3715.53,-150.49 2112.41,-104.87 1800.56,-96"/>
<polygon fill="midnightblue" stroke="midnightblue" points="3991.77,-161.86 4001.86,-158.64 3991.97,-154.86 3991.77,-161.86"/>
</g>
<!-- Node59 -->
<g id="node48" class="node">
<title>Node59</title>
<g id="a_node48"><a xlink:href="ptw_8cc.html" target="_top" xlink:title=" ">
<polygon fill="none" stroke="black" points="3999.5,-84 3999.5,-103 4064.5,-103 4064.5,-84 3999.5,-84"/>
<text text-anchor="middle" x="4032" y="-91" font-family="Helvetica,sans-Serif" font-size="10.00">src/ptw.cc</text>
</a>
</g>
</g>
<!-- Node58&#45;&gt;Node59 -->
<g id="edge62" class="edge">
<title>Node58&#45;&gt;Node59</title>
<path fill="none" stroke="midnightblue" d="M4032,-140.54C4032,-128.17 4032,-112.62 4032,-103.13"/>
<polygon fill="midnightblue" stroke="midnightblue" points="4028.5,-140.73 4032,-150.73 4035.5,-140.73 4028.5,-140.73"/>
</g>
</g>
</svg>
