<?xml version="1.0" encoding="UTF-8" standalone="no"?>
<!DOCTYPE svg PUBLIC "-//W3C//DTD SVG 1.1//EN"
 "http://www.w3.org/Graphics/SVG/1.1/DTD/svg11.dtd">
<!-- Generated by graphviz version 2.43.0 (0)
 -->
<!-- Title: inc/msl/lru_table.h Pages: 1 -->
<svg width="466pt" height="140pt"
 viewBox="0.00 0.00 465.50 140.00" xmlns="http://www.w3.org/2000/svg" xmlns:xlink="http://www.w3.org/1999/xlink">
<g id="graph0" class="graph" transform="scale(1 1) rotate(0) translate(4 136)">
<title>inc/msl/lru_table.h</title>
<!-- Node1 -->
<g id="node1" class="node">
<title>Node1</title>
<g id="a_node1"><a xlink:title=" ">
<polygon fill="#bfbfbf" stroke="black" points="164.5,-112.5 164.5,-131.5 271.5,-131.5 271.5,-112.5 164.5,-112.5"/>
<text text-anchor="middle" x="218" y="-119.5" font-family="Helvetica,sans-Serif" font-size="10.00">inc/msl/lru_table.h</text>
</a>
</g>
</g>
<!-- Node2 -->
<g id="node2" class="node">
<title>Node2</title>
<g id="a_node2"><a xlink:title=" ">
<polygon fill="none" stroke="#bfbfbf" points="0,-56.5 0,-75.5 64,-75.5 64,-56.5 0,-56.5"/>
<text text-anchor="middle" x="32" y="-63.5" font-family="Helvetica,sans-Serif" font-size="10.00">algorithm</text>
</a>
</g>
</g>
<!-- Node1&#45;&gt;Node2 -->
<g id="edge1" class="edge">
<title>Node1&#45;&gt;Node2</title>
<path fill="none" stroke="midnightblue" d="M188.53,-112.44C156.83,-103.24 106.27,-88.56 71.23,-78.39"/>
<polygon fill="midnightblue" stroke="midnightblue" points="71.91,-74.94 61.33,-75.52 69.96,-81.67 71.91,-74.94"/>
</g>
<!-- Node3 -->
<g id="node3" class="node">
<title>Node3</title>
<g id="a_node3"><a xlink:title=" ">
<polygon fill="none" stroke="#bfbfbf" points="82,-56.5 82,-75.5 134,-75.5 134,-56.5 82,-56.5"/>
<text text-anchor="middle" x="108" y="-63.5" font-family="Helvetica,sans-Serif" font-size="10.00">cassert</text>
</a>
</g>
</g>
<!-- Node1&#45;&gt;Node3 -->
<g id="edge2" class="edge">
<title>Node1&#45;&gt;Node3</title>
<path fill="none" stroke="midnightblue" d="M200.33,-112.32C182.61,-103.62 155.1,-90.12 134.71,-80.11"/>
<polygon fill="midnightblue" stroke="midnightblue" points="136.15,-76.92 125.63,-75.65 133.06,-83.2 136.15,-76.92"/>
</g>
<!-- Node4 -->
<g id="node4" class="node">
<title>Node4</title>
<g id="a_node4"><a xlink:title=" ">
<polygon fill="none" stroke="#bfbfbf" points="236,-0.5 236,-19.5 286,-19.5 286,-0.5 236,-0.5"/>
<text text-anchor="middle" x="261" y="-7.5" font-family="Helvetica,sans-Serif" font-size="10.00">cstdint</text>
</a>
</g>
</g>
<!-- Node1&#45;&gt;Node4 -->
<g id="edge3" class="edge">
<title>Node1&#45;&gt;Node4</title>
<path fill="none" stroke="midnightblue" d="M206.54,-112.13C191.78,-99.58 169.33,-75.95 181,-56 190.82,-39.21 209.46,-28.2 226.28,-21.28"/>
<polygon fill="midnightblue" stroke="midnightblue" points="227.76,-24.46 235.89,-17.66 225.3,-17.91 227.76,-24.46"/>
</g>
<!-- Node5 -->
<g id="node5" class="node">
<title>Node5</title>
<g id="a_node5"><a xlink:title=" ">
<polygon fill="none" stroke="#bfbfbf" points="190,-56.5 190,-75.5 246,-75.5 246,-56.5 190,-56.5"/>
<text text-anchor="middle" x="218" y="-63.5" font-family="Helvetica,sans-Serif" font-size="10.00">optional</text>
</a>
</g>
</g>
<!-- Node1&#45;&gt;Node5 -->
<g id="edge4" class="edge">
<title>Node1&#45;&gt;Node5</title>
<path fill="none" stroke="midnightblue" d="M218,-112.08C218,-105.01 218,-94.86 218,-85.99"/>
<polygon fill="midnightblue" stroke="midnightblue" points="221.5,-85.75 218,-75.75 214.5,-85.75 221.5,-85.75"/>
</g>
<!-- Node6 -->
<g id="node6" class="node">
<title>Node6</title>
<g id="a_node6"><a xlink:title=" ">
<polygon fill="none" stroke="#bfbfbf" points="264.5,-56.5 264.5,-75.5 309.5,-75.5 309.5,-56.5 264.5,-56.5"/>
<text text-anchor="middle" x="287" y="-63.5" font-family="Helvetica,sans-Serif" font-size="10.00">utility</text>
</a>
</g>
</g>
<!-- Node1&#45;&gt;Node6 -->
<g id="edge5" class="edge">
<title>Node1&#45;&gt;Node6</title>
<path fill="none" stroke="midnightblue" d="M229.09,-112.32C239.49,-104.18 255.26,-91.84 267.72,-82.09"/>
<polygon fill="midnightblue" stroke="midnightblue" points="269.99,-84.75 275.71,-75.83 265.68,-79.24 269.99,-84.75"/>
</g>
<!-- Node7 -->
<g id="node7" class="node">
<title>Node7</title>
<g id="a_node7"><a xlink:title=" ">
<polygon fill="none" stroke="#bfbfbf" points="327.5,-56.5 327.5,-75.5 374.5,-75.5 374.5,-56.5 327.5,-56.5"/>
<text text-anchor="middle" x="351" y="-63.5" font-family="Helvetica,sans-Serif" font-size="10.00">vector</text>
</a>
</g>
</g>
<!-- Node1&#45;&gt;Node7 -->
<g id="edge6" class="edge">
<title>Node1&#45;&gt;Node7</title>
<path fill="none" stroke="midnightblue" d="M239.07,-112.44C261.06,-103.52 295.73,-89.44 320.66,-79.32"/>
<polygon fill="midnightblue" stroke="midnightblue" points="322.08,-82.52 330.02,-75.52 319.44,-76.04 322.08,-82.52"/>
</g>
<!-- Node8 -->
<g id="node8" class="node">
<title>Node8</title>
<g id="a_node8"><a xlink:href="msl_2bits_8h.html" target="_top" xlink:title=" ">
<polygon fill="none" stroke="black" points="392.5,-56.5 392.5,-75.5 457.5,-75.5 457.5,-56.5 392.5,-56.5"/>
<text text-anchor="middle" x="425" y="-63.5" font-family="Helvetica,sans-Serif" font-size="10.00">msl/bits.h</text>
</a>
</g>
</g>
<!-- Node1&#45;&gt;Node8 -->
<g id="edge7" class="edge">
<title>Node1&#45;&gt;Node8</title>
<path fill="none" stroke="midnightblue" d="M250.8,-112.44C286.38,-103.16 343.31,-88.31 382.35,-78.13"/>
<polygon fill="midnightblue" stroke="midnightblue" points="383.56,-81.43 392.35,-75.52 381.79,-74.65 383.56,-81.43"/>
</g>
<!-- Node8&#45;&gt;Node4 -->
<g id="edge8" class="edge">
<title>Node8&#45;&gt;Node4</title>
<path fill="none" stroke="midnightblue" d="M399.01,-56.44C371.06,-47.24 326.47,-32.56 295.57,-22.38"/>
<polygon fill="midnightblue" stroke="midnightblue" points="296.65,-19.05 286.06,-19.25 294.46,-25.7 296.65,-19.05"/>
</g>
<!-- Node9 -->
<g id="node9" class="node">
<title>Node9</title>
<g id="a_node9"><a xlink:title=" ">
<polygon fill="none" stroke="#bfbfbf" points="403,-0.5 403,-19.5 447,-19.5 447,-0.5 403,-0.5"/>
<text text-anchor="middle" x="425" y="-7.5" font-family="Helvetica,sans-Serif" font-size="10.00">limits</text>
</a>
</g>
</g>
<!-- Node8&#45;&gt;Node9 -->
<g id="edge9" class="edge">
<title>Node8&#45;&gt;Node9</title>
<path fill="none" stroke="midnightblue" d="M425,-56.08C425,-49.01 425,-38.86 425,-29.99"/>
<polygon fill="midnightblue" stroke="midnightblue" points="428.5,-29.75 425,-19.75 421.5,-29.75 428.5,-29.75"/>
</g>
</g>
</svg>
