<?xml version="1.0" encoding="UTF-8" standalone="no"?>
<!DOCTYPE svg PUBLIC "-//W3C//DTD SVG 1.1//EN"
 "http://www.w3.org/Graphics/SVG/1.1/DTD/svg11.dtd">
<!-- Generated by graphviz version 2.43.0 (0)
 -->
<!-- Title: inc/msl/bits.h Pages: 1 -->
<svg width="4235pt" height="363pt"
 viewBox="0.00 0.00 4235.00 363.00" xmlns="http://www.w3.org/2000/svg" xmlns:xlink="http://www.w3.org/1999/xlink">
<g id="graph0" class="graph" transform="scale(1 1) rotate(0) translate(4 359)">
<title>inc/msl/bits.h</title>
<!-- Node1 -->
<g id="node1" class="node">
<title>Node1</title>
<g id="a_node1"><a xlink:title=" ">
<polygon fill="#bfbfbf" stroke="black" points="3517,-335.5 3517,-354.5 3599,-354.5 3599,-335.5 3517,-335.5"/>
<text text-anchor="middle" x="3558" y="-342.5" font-family="Helvetica,sans-Serif" font-size="10.00">inc/msl/bits.h</text>
</a>
</g>
</g>
<!-- Node2 -->
<g id="node2" class="node">
<title>Node2</title>
<g id="a_node2"><a xlink:href="msl_2lru__table_8h.html" target="_top" xlink:title=" ">
<polygon fill="none" stroke="black" points="3357.5,-279.5 3357.5,-298.5 3464.5,-298.5 3464.5,-279.5 3357.5,-279.5"/>
<text text-anchor="middle" x="3411" y="-286.5" font-family="Helvetica,sans-Serif" font-size="10.00">inc/msl/lru_table.h</text>
</a>
</g>
</g>
<!-- Node1&#45;&gt;Node2 -->
<g id="edge1" class="edge">
<title>Node1&#45;&gt;Node2</title>
<path fill="none" stroke="midnightblue" d="M3525.08,-331.91C3497.44,-321.75 3458.66,-307.51 3434.18,-298.52"/>
<polygon fill="midnightblue" stroke="midnightblue" points="3524.11,-335.28 3534.71,-335.44 3526.53,-328.71 3524.11,-335.28"/>
</g>
<!-- Node63 -->
<g id="node48" class="node">
<title>Node63</title>
<g id="a_node48"><a xlink:href="util_2bits_8h.html" target="_top" xlink:title=" ">
<polygon fill="none" stroke="black" points="3518,-279.5 3518,-298.5 3598,-298.5 3598,-279.5 3518,-279.5"/>
<text text-anchor="middle" x="3558" y="-286.5" font-family="Helvetica,sans-Serif" font-size="10.00">inc/util/bits.h</text>
</a>
</g>
</g>
<!-- Node1&#45;&gt;Node63 -->
<g id="edge66" class="edge">
<title>Node1&#45;&gt;Node63</title>
<path fill="none" stroke="midnightblue" d="M3558,-324.8C3558,-315.91 3558,-305.78 3558,-298.75"/>
<polygon fill="midnightblue" stroke="midnightblue" points="3554.5,-325.08 3558,-335.08 3561.5,-325.08 3554.5,-325.08"/>
</g>
<!-- Node65 -->
<g id="node50" class="node">
<title>Node65</title>
<g id="a_node50"><a xlink:href="ship_8cc.html" target="_top" xlink:title=" ">
<polygon fill="none" stroke="black" points="3616,-279.5 3616,-298.5 3754,-298.5 3754,-279.5 3616,-279.5"/>
<text text-anchor="middle" x="3685" y="-286.5" font-family="Helvetica,sans-Serif" font-size="10.00">replacement/ship/ship.cc</text>
</a>
</g>
</g>
<!-- Node1&#45;&gt;Node65 -->
<g id="edge68" class="edge">
<title>Node1&#45;&gt;Node65</title>
<path fill="none" stroke="midnightblue" d="M3587.39,-331.5C3611.2,-321.38 3644.11,-307.39 3664.97,-298.52"/>
<polygon fill="midnightblue" stroke="midnightblue" points="3585.96,-328.31 3578.12,-335.44 3588.7,-334.75 3585.96,-328.31"/>
</g>
<!-- Node3 -->
<g id="node3" class="node">
<title>Node3</title>
<g id="a_node3"><a xlink:href="basic__btb_8cc.html" target="_top" xlink:title=" ">
<polygon fill="none" stroke="black" points="4117,-78.5 4117,-108.5 4227,-108.5 4227,-78.5 4117,-78.5"/>
<text text-anchor="start" x="4125" y="-96.5" font-family="Helvetica,sans-Serif" font-size="10.00">btb/basic_btb/basic</text>
<text text-anchor="middle" x="4172" y="-85.5" font-family="Helvetica,sans-Serif" font-size="10.00">_btb.cc</text>
</a>
</g>
</g>
<!-- Node2&#45;&gt;Node3 -->
<g id="edge2" class="edge">
<title>Node2&#45;&gt;Node3</title>
<path fill="none" stroke="midnightblue" d="M3397.69,-271.08C3386.2,-254.29 3373.52,-228.7 3388,-212 3493.73,-90.04 3948.22,-138.04 4107,-109 4110.18,-108.42 4113.45,-107.79 4116.74,-107.13"/>
<polygon fill="midnightblue" stroke="midnightblue" points="3395.05,-273.39 3403.78,-279.4 3400.7,-269.26 3395.05,-273.39"/>
</g>
<!-- Node4 -->
<g id="node4" class="node">
<title>Node4</title>
<g id="a_node4"><a xlink:href="util_2lru__table_8h.html" target="_top" xlink:title=" ">
<polygon fill="none" stroke="black" points="3182,-218 3182,-237 3286,-237 3286,-218 3182,-218"/>
<text text-anchor="middle" x="3234" y="-225" font-family="Helvetica,sans-Serif" font-size="10.00">inc/util/lru_table.h</text>
</a>
</g>
</g>
<!-- Node2&#45;&gt;Node4 -->
<g id="edge3" class="edge">
<title>Node2&#45;&gt;Node4</title>
<path fill="none" stroke="midnightblue" d="M3375.99,-276.23C3341.59,-264.67 3289.92,-247.3 3259.31,-237.01"/>
<polygon fill="midnightblue" stroke="midnightblue" points="3375.05,-279.61 3385.64,-279.48 3377.28,-272.97 3375.05,-279.61"/>
</g>
<!-- Node62 -->
<g id="node47" class="node">
<title>Node62</title>
<g id="a_node47"><a xlink:href="ip__stride_8cc.html" target="_top" xlink:title=" ">
<polygon fill="none" stroke="black" points="3397,-212.5 3397,-242.5 3509,-242.5 3509,-212.5 3397,-212.5"/>
<text text-anchor="start" x="3405" y="-230.5" font-family="Helvetica,sans-Serif" font-size="10.00">prefetcher/ip_stride</text>
<text text-anchor="middle" x="3453" y="-219.5" font-family="Helvetica,sans-Serif" font-size="10.00">/ip_stride.cc</text>
</a>
</g>
</g>
<!-- Node2&#45;&gt;Node62 -->
<g id="edge65" class="edge">
<title>Node2&#45;&gt;Node62</title>
<path fill="none" stroke="midnightblue" d="M3422.83,-271.25C3429.22,-262.19 3437.03,-251.12 3443.1,-242.52"/>
<polygon fill="midnightblue" stroke="midnightblue" points="3419.93,-269.29 3417.02,-279.48 3425.64,-273.32 3419.93,-269.29"/>
</g>
<!-- Node5 -->
<g id="node5" class="node">
<title>Node5</title>
<g id="a_node5"><a xlink:href="ooo__cpu_8h.html" target="_top" xlink:title=" ">
<polygon fill="none" stroke="black" points="3252.5,-151 3252.5,-170 3335.5,-170 3335.5,-151 3252.5,-151"/>
<text text-anchor="middle" x="3294" y="-158" font-family="Helvetica,sans-Serif" font-size="10.00">inc/ooo_cpu.h</text>
</a>
</g>
</g>
<!-- Node4&#45;&gt;Node5 -->
<g id="edge4" class="edge">
<title>Node4&#45;&gt;Node5</title>
<path fill="none" stroke="midnightblue" d="M3249.11,-210.13C3260.84,-197.42 3276.65,-180.3 3286.04,-170.13"/>
<polygon fill="midnightblue" stroke="midnightblue" points="3246.3,-208.01 3242.09,-217.73 3251.45,-212.76 3246.3,-208.01"/>
</g>
<!-- Node59 -->
<g id="node44" class="node">
<title>Node59</title>
<g id="a_node44"><a xlink:href="ptw_8h.html" target="_top" xlink:title=" ">
<polygon fill="none" stroke="black" points="438,-151 438,-170 498,-170 498,-151 438,-151"/>
<text text-anchor="middle" x="468" y="-158" font-family="Helvetica,sans-Serif" font-size="10.00">inc/ptw.h</text>
</a>
</g>
</g>
<!-- Node4&#45;&gt;Node59 -->
<g id="edge56" class="edge">
<title>Node4&#45;&gt;Node59</title>
<path fill="none" stroke="midnightblue" d="M3171.79,-225.04C2789.76,-216.06 768.96,-168.57 498.04,-162.21"/>
<polygon fill="midnightblue" stroke="midnightblue" points="3171.74,-228.54 3181.82,-225.27 3171.91,-221.54 3171.74,-228.54"/>
</g>
<!-- Node61 -->
<g id="node46" class="node">
<title>Node61</title>
<g id="a_node46"><a xlink:href="040-lru-table_8cc.html" target="_top" xlink:title=" ">
<polygon fill="none" stroke="black" points="3124,-145.5 3124,-175.5 3234,-175.5 3234,-145.5 3124,-145.5"/>
<text text-anchor="start" x="3132" y="-163.5" font-family="Helvetica,sans-Serif" font-size="10.00">test/cpp/src/040&#45;lru</text>
<text text-anchor="middle" x="3179" y="-152.5" font-family="Helvetica,sans-Serif" font-size="10.00">&#45;table.cc</text>
</a>
</g>
</g>
<!-- Node4&#45;&gt;Node61 -->
<g id="edge64" class="edge">
<title>Node4&#45;&gt;Node61</title>
<path fill="none" stroke="midnightblue" d="M3220.03,-209.99C3211.04,-199.36 3199.48,-185.7 3190.92,-175.59"/>
<polygon fill="midnightblue" stroke="midnightblue" points="3217.45,-212.36 3226.58,-217.73 3222.79,-207.84 3217.45,-212.36"/>
</g>
<!-- Node5&#45;&gt;Node3 -->
<g id="edge11" class="edge">
<title>Node5&#45;&gt;Node3</title>
<path fill="none" stroke="midnightblue" d="M3335.02,-148.65C3341.66,-147.21 3348.49,-145.92 3355,-145 3686.3,-98.11 3775.38,-153.59 4107,-109 4110.21,-108.57 4113.49,-108.06 4116.8,-107.49"/>
<polygon fill="midnightblue" stroke="midnightblue" points="3333.78,-145.35 3324.82,-151 3335.35,-152.17 3333.78,-145.35"/>
</g>
<!-- Node6 -->
<g id="node6" class="node">
<title>Node6</title>
<g id="a_node6"><a xlink:href="bimodal_8cc.html" target="_top" xlink:title=" ">
<polygon fill="none" stroke="black" points="3949.5,-84 3949.5,-103 4098.5,-103 4098.5,-84 3949.5,-84"/>
<text text-anchor="middle" x="4024" y="-91" font-family="Helvetica,sans-Serif" font-size="10.00">branch/bimodal/bimodal.cc</text>
</a>
</g>
</g>
<!-- Node5&#45;&gt;Node6 -->
<g id="edge5" class="edge">
<title>Node5&#45;&gt;Node6</title>
<path fill="none" stroke="midnightblue" d="M3335.47,-148.64C3341.97,-147.23 3348.64,-145.95 3355,-145 3610.9,-106.94 3678.92,-138.07 3936,-109 3949.54,-107.47 3964.17,-105.28 3977.54,-103.06"/>
<polygon fill="midnightblue" stroke="midnightblue" points="3334.42,-145.29 3325.46,-150.93 3335.99,-152.11 3334.42,-145.29"/>
</g>
<!-- Node7 -->
<g id="node7" class="node">
<title>Node7</title>
<g id="a_node7"><a xlink:href="gshare_8cc.html" target="_top" xlink:title=" ">
<polygon fill="none" stroke="black" points="2700.5,-84 2700.5,-103 2835.5,-103 2835.5,-84 2700.5,-84"/>
<text text-anchor="middle" x="2768" y="-91" font-family="Helvetica,sans-Serif" font-size="10.00">branch/gshare/gshare.cc</text>
</a>
</g>
</g>
<!-- Node5&#45;&gt;Node7 -->
<g id="edge6" class="edge">
<title>Node5&#45;&gt;Node7</title>
<path fill="none" stroke="midnightblue" d="M3257.66,-148.28C3252.76,-147.03 3247.78,-145.89 3243,-145 3068.37,-112.57 3020.92,-133.46 2845,-109 2833.41,-107.39 2820.92,-105.22 2809.44,-103.06"/>
<polygon fill="midnightblue" stroke="midnightblue" points="3256.92,-151.7 3267.49,-150.95 3258.76,-144.95 3256.92,-151.7"/>
</g>
<!-- Node8 -->
<g id="node8" class="node">
<title>Node8</title>
<g id="a_node8"><a xlink:href="hashed__perceptron_8cc.html" target="_top" xlink:title=" ">
<polygon fill="none" stroke="black" points="2960,-78.5 2960,-108.5 3106,-108.5 3106,-78.5 2960,-78.5"/>
<text text-anchor="start" x="2968" y="-96.5" font-family="Helvetica,sans-Serif" font-size="10.00">branch/hashed_perceptron</text>
<text text-anchor="middle" x="3033" y="-85.5" font-family="Helvetica,sans-Serif" font-size="10.00">/hashed_perceptron.cc</text>
</a>
</g>
</g>
<!-- Node5&#45;&gt;Node8 -->
<g id="edge7" class="edge">
<title>Node5&#45;&gt;Node8</title>
<path fill="none" stroke="midnightblue" d="M3254.84,-148.19C3250.85,-147.09 3246.85,-146.01 3243,-145 3193.13,-131.92 3136.25,-118.32 3094.27,-108.54"/>
<polygon fill="midnightblue" stroke="midnightblue" points="3254.09,-151.61 3264.66,-150.94 3255.97,-144.87 3254.09,-151.61"/>
</g>
<!-- Node9 -->
<g id="node9" class="node">
<title>Node9</title>
<g id="a_node9"><a xlink:href="perceptron_8cc.html" target="_top" xlink:title=" ">
<polygon fill="none" stroke="black" points="3124,-84 3124,-103 3298,-103 3298,-84 3124,-84"/>
<text text-anchor="middle" x="3211" y="-91" font-family="Helvetica,sans-Serif" font-size="10.00">branch/perceptron/perceptron.cc</text>
</a>
</g>
</g>
<!-- Node5&#45;&gt;Node9 -->
<g id="edge8" class="edge">
<title>Node5&#45;&gt;Node9</title>
<path fill="none" stroke="midnightblue" d="M3274.93,-144.57C3258.55,-131.74 3235.5,-113.69 3222.02,-103.13"/>
<polygon fill="midnightblue" stroke="midnightblue" points="3272.78,-147.32 3282.81,-150.73 3277.09,-141.81 3272.78,-147.32"/>
</g>
<!-- Node10 -->
<g id="node10" class="node">
<title>Node10</title>
<g id="a_node10"><a xlink:href="tage__sc__l_8cc.html" target="_top" xlink:title=" ">
<polygon fill="none" stroke="black" points="3316.5,-78.5 3316.5,-108.5 3439.5,-108.5 3439.5,-78.5 3316.5,-78.5"/>
<text text-anchor="start" x="3324.5" y="-96.5" font-family="Helvetica,sans-Serif" font-size="10.00">branch/tage_sc_l/tage</text>
<text text-anchor="middle" x="3378" y="-85.5" font-family="Helvetica,sans-Serif" font-size="10.00">_sc_l.cc</text>
</a>
</g>
</g>
<!-- Node5&#45;&gt;Node10 -->
<g id="edge9" class="edge">
<title>Node5&#45;&gt;Node10</title>
<path fill="none" stroke="midnightblue" d="M3313.33,-144.54C3327.31,-133.73 3346.08,-119.2 3359.79,-108.59"/>
<polygon fill="midnightblue" stroke="midnightblue" points="3311.1,-141.85 3305.33,-150.73 3315.38,-147.38 3311.1,-141.85"/>
</g>
<!-- Node11 -->
<g id="node11" class="node">
<title>Node11</title>
<g id="a_node11"><a xlink:href="target__predictor_8cc.html" target="_top" xlink:title=" ">
<polygon fill="none" stroke="black" points="3554,-6 3554,-36 3690,-36 3690,-6 3554,-6"/>
<text text-anchor="start" x="3562" y="-24" font-family="Helvetica,sans-Serif" font-size="10.00">btb/advanced_btb/target</text>
<text text-anchor="middle" x="3622" y="-13" font-family="Helvetica,sans-Serif" font-size="10.00">_predictor.cc</text>
</a>
</g>
</g>
<!-- Node5&#45;&gt;Node11 -->
<g id="edge10" class="edge">
<title>Node5&#45;&gt;Node11</title>
<path fill="none" stroke="midnightblue" d="M3337.28,-148.71C3343.22,-147.38 3349.25,-146.1 3355,-145 3409.48,-134.58 3561.22,-146.6 3602,-109 3622.28,-90.3 3624.03,-55.54 3623.21,-36.1"/>
<polygon fill="midnightblue" stroke="midnightblue" points="3336.4,-145.32 3327.44,-150.99 3337.98,-152.14 3336.4,-145.32"/>
</g>
<!-- Node12 -->
<g id="node12" class="node">
<title>Node12</title>
<g id="a_node12"><a xlink:href="basic__btb_8h.html" target="_top" xlink:title=" ">
<polygon fill="none" stroke="black" points="3650.5,-84 3650.5,-103 3741.5,-103 3741.5,-84 3650.5,-84"/>
<text text-anchor="middle" x="3696" y="-91" font-family="Helvetica,sans-Serif" font-size="10.00">btb/basic_btb.h</text>
</a>
</g>
</g>
<!-- Node5&#45;&gt;Node12 -->
<g id="edge12" class="edge">
<title>Node5&#45;&gt;Node12</title>
<path fill="none" stroke="midnightblue" d="M3337.05,-148.67C3343.06,-147.33 3349.17,-146.06 3355,-145 3478.87,-122.41 3512.18,-131.82 3636,-109 3644.96,-107.35 3654.58,-105.2 3663.44,-103.06"/>
<polygon fill="midnightblue" stroke="midnightblue" points="3336.07,-145.3 3327.11,-150.96 3337.64,-152.12 3336.07,-145.3"/>
</g>
<!-- Node13 -->
<g id="node13" class="node">
<title>Node13</title>
<g id="a_node13"><a xlink:href="ras_8h.html" target="_top" xlink:title=" ">
<polygon fill="none" stroke="black" points="3534.5,-84 3534.5,-103 3593.5,-103 3593.5,-84 3534.5,-84"/>
<text text-anchor="middle" x="3564" y="-91" font-family="Helvetica,sans-Serif" font-size="10.00">btb/ras.h</text>
</a>
</g>
</g>
<!-- Node5&#45;&gt;Node13 -->
<g id="edge14" class="edge">
<title>Node5&#45;&gt;Node13</title>
<path fill="none" stroke="midnightblue" d="M3339.44,-148.6C3344.68,-147.37 3349.96,-146.15 3355,-145 3428.18,-128.32 3447.59,-128.77 3520,-109 3526.36,-107.26 3533.16,-105.15 3539.47,-103.08"/>
<polygon fill="midnightblue" stroke="midnightblue" points="3338.39,-145.25 3329.46,-150.95 3339.99,-152.07 3338.39,-145.25"/>
</g>
<!-- Node14 -->
<g id="node14" class="node">
<title>Node14</title>
<g id="a_node14"><a xlink:href="defaults_8hpp.html" target="_top" xlink:title=" ">
<polygon fill="none" stroke="red" points="1613.5,-84 1613.5,-103 1708.5,-103 1708.5,-84 1613.5,-84"/>
<text text-anchor="middle" x="1661" y="-91" font-family="Helvetica,sans-Serif" font-size="10.00">inc/defaults.hpp</text>
</a>
</g>
</g>
<!-- Node5&#45;&gt;Node14 -->
<g id="edge16" class="edge">
<title>Node5&#45;&gt;Node14</title>
<path fill="none" stroke="midnightblue" d="M3258.77,-148.28C3253.53,-146.96 3248.15,-145.8 3243,-145 3088.4,-120.93 1956.77,-99.72 1708.89,-95.33"/>
<polygon fill="midnightblue" stroke="midnightblue" points="3258.02,-151.7 3268.59,-150.95 3259.86,-144.95 3258.02,-151.7"/>
</g>
<!-- Node15 -->
<g id="node15" class="node">
<title>Node15</title>
<g id="a_node15"><a xlink:href="140-single-dib-lookup_8cc.html" target="_top" xlink:title=" ">
<polygon fill="none" stroke="black" points="2360.5,-6 2360.5,-36 2487.5,-36 2487.5,-6 2360.5,-6"/>
<text text-anchor="start" x="2368.5" y="-24" font-family="Helvetica,sans-Serif" font-size="10.00">test/cpp/src/140&#45;single</text>
<text text-anchor="middle" x="2424" y="-13" font-family="Helvetica,sans-Serif" font-size="10.00">&#45;dib&#45;lookup.cc</text>
</a>
</g>
</g>
<!-- Node5&#45;&gt;Node15 -->
<g id="edge49" class="edge">
<title>Node5&#45;&gt;Node15</title>
<path fill="none" stroke="midnightblue" d="M3258.59,-148.31C3253.4,-147 3248.09,-145.84 3243,-145 3080.1,-118.25 2649.84,-180.42 2501,-109 2468.27,-93.29 2443.5,-56.66 2431.67,-36.3"/>
<polygon fill="midnightblue" stroke="midnightblue" points="3257.75,-151.71 3268.31,-150.96 3259.59,-144.96 3257.75,-151.71"/>
</g>
<!-- Node16 -->
<g id="node16" class="node">
<title>Node16</title>
<g id="a_node16"><a xlink:href="150-fetch-bandwidth_8cc.html" target="_top" xlink:title=" ">
<polygon fill="none" stroke="black" points="2506,-6 2506,-36 2628,-36 2628,-6 2506,-6"/>
<text text-anchor="start" x="2514" y="-24" font-family="Helvetica,sans-Serif" font-size="10.00">test/cpp/src/150&#45;fetch</text>
<text text-anchor="middle" x="2567" y="-13" font-family="Helvetica,sans-Serif" font-size="10.00">&#45;bandwidth.cc</text>
</a>
</g>
</g>
<!-- Node5&#45;&gt;Node16 -->
<g id="edge50" class="edge">
<title>Node5&#45;&gt;Node16</title>
<path fill="none" stroke="midnightblue" d="M3258.58,-148.31C3253.4,-147 3248.09,-145.84 3243,-145 3162.65,-131.78 2567.15,-167.98 2511,-109 2489.45,-86.36 2523.06,-54.31 2546.81,-36.09"/>
<polygon fill="midnightblue" stroke="midnightblue" points="3257.75,-151.71 3268.31,-150.96 3259.59,-144.96 3257.75,-151.71"/>
</g>
<!-- Node17 -->
<g id="node17" class="node">
<title>Node17</title>
<g id="a_node17"><a xlink:href="165-basic-btb-no-evict-on-unknown-target_8cc.html" target="_top" xlink:title=" ">
<polygon fill="none" stroke="black" points="2646.5,-0.5 2646.5,-41.5 2789.5,-41.5 2789.5,-0.5 2646.5,-0.5"/>
<text text-anchor="start" x="2654.5" y="-29.5" font-family="Helvetica,sans-Serif" font-size="10.00">test/cpp/src/165&#45;basic</text>
<text text-anchor="start" x="2654.5" y="-18.5" font-family="Helvetica,sans-Serif" font-size="10.00">&#45;btb&#45;no&#45;evict&#45;on&#45;unknown</text>
<text text-anchor="middle" x="2718" y="-7.5" font-family="Helvetica,sans-Serif" font-size="10.00">&#45;target.cc</text>
</a>
</g>
</g>
<!-- Node5&#45;&gt;Node17 -->
<g id="edge51" class="edge">
<title>Node5&#45;&gt;Node17</title>
<path fill="none" stroke="midnightblue" d="M3258.58,-148.32C3253.4,-147.01 3248.09,-145.84 3243,-145 3163.75,-131.93 2576.36,-167.19 2521,-109 2511.5,-99.02 2512.7,-88.99 2521,-78 2525.01,-72.69 2591.74,-54.43 2646.44,-40.19"/>
<polygon fill="midnightblue" stroke="midnightblue" points="3257.75,-151.72 3268.31,-150.97 3259.59,-144.96 3257.75,-151.72"/>
</g>
<!-- Node18 -->
<g id="node18" class="node">
<title>Node18</title>
<g id="a_node18"><a xlink:href="166-issue296-basic-btb-no-mispredict-on-not-taken_8cc.html" target="_top" xlink:title=" ">
<polygon fill="none" stroke="black" points="2807.5,-0.5 2807.5,-41.5 2948.5,-41.5 2948.5,-0.5 2807.5,-0.5"/>
<text text-anchor="start" x="2815.5" y="-29.5" font-family="Helvetica,sans-Serif" font-size="10.00">test/cpp/src/166&#45;issue296</text>
<text text-anchor="start" x="2815.5" y="-18.5" font-family="Helvetica,sans-Serif" font-size="10.00">&#45;basic&#45;btb&#45;no&#45;mispredict</text>
<text text-anchor="middle" x="2878" y="-7.5" font-family="Helvetica,sans-Serif" font-size="10.00">&#45;on&#45;not&#45;taken.cc</text>
</a>
</g>
</g>
<!-- Node5&#45;&gt;Node18 -->
<g id="edge52" class="edge">
<title>Node5&#45;&gt;Node18</title>
<path fill="none" stroke="midnightblue" d="M3258.58,-148.33C3253.4,-147.02 3248.09,-145.85 3243,-145 3167.71,-132.48 2609.54,-164.37 2557,-109 2496.45,-45.18 2489.5,-103.46 2798,-42 2801.09,-41.38 2804.24,-40.73 2807.41,-40.04"/>
<polygon fill="midnightblue" stroke="midnightblue" points="3257.74,-151.73 3268.31,-150.98 3259.58,-144.98 3257.74,-151.73"/>
</g>
<!-- Node19 -->
<g id="node19" class="node">
<title>Node19</title>
<g id="a_node19"><a xlink:href="200-rob-scheduling_8cc.html" target="_top" xlink:title=" ">
<polygon fill="none" stroke="black" points="2966.5,-6 2966.5,-36 3079.5,-36 3079.5,-6 2966.5,-6"/>
<text text-anchor="start" x="2974.5" y="-24" font-family="Helvetica,sans-Serif" font-size="10.00">test/cpp/src/200&#45;rob</text>
<text text-anchor="middle" x="3023" y="-13" font-family="Helvetica,sans-Serif" font-size="10.00">&#45;scheduling.cc</text>
</a>
</g>
</g>
<!-- Node5&#45;&gt;Node19 -->
<g id="edge53" class="edge">
<title>Node5&#45;&gt;Node19</title>
<path fill="none" stroke="midnightblue" d="M3258.58,-148.33C3253.4,-147.02 3248.09,-145.85 3243,-145 3168.92,-132.65 2619.67,-163.5 2568,-109 2558.52,-99 2558.72,-88.18 2568,-78 2626.49,-13.85 2871.8,-58.67 2957,-42 2964.87,-40.46 2973.15,-38.36 2981.07,-36.09"/>
<polygon fill="midnightblue" stroke="midnightblue" points="3257.74,-151.73 3268.31,-150.99 3259.58,-144.98 3257.74,-151.73"/>
</g>
<!-- Node20 -->
<g id="node20" class="node">
<title>Node20</title>
<g id="a_node20"><a xlink:href="300-retire-from-rob_8cc.html" target="_top" xlink:title=" ">
<polygon fill="none" stroke="black" points="3202,-6 3202,-36 3326,-36 3326,-6 3202,-6"/>
<text text-anchor="start" x="3210" y="-24" font-family="Helvetica,sans-Serif" font-size="10.00">test/cpp/src/300&#45;retire</text>
<text text-anchor="middle" x="3264" y="-13" font-family="Helvetica,sans-Serif" font-size="10.00">&#45;from&#45;rob.cc</text>
</a>
</g>
</g>
<!-- Node5&#45;&gt;Node20 -->
<g id="edge54" class="edge">
<title>Node5&#45;&gt;Node20</title>
<path fill="none" stroke="midnightblue" d="M3336.58,-148.29C3379.78,-136.49 3441.22,-118.35 3448,-109 3456.08,-97.84 3456.2,-89.07 3448,-78 3433.24,-58.08 3373.69,-42.43 3326.28,-32.79"/>
<polygon fill="midnightblue" stroke="midnightblue" points="3335.59,-144.93 3326.86,-150.92 3337.43,-151.68 3335.59,-144.93"/>
</g>
<!-- Node50 -->
<g id="node38" class="node">
<title>Node50</title>
<g id="a_node38"><a xlink:href="900-btb-bounds-check_8cc.html" target="_top" xlink:title=" ">
<polygon fill="none" stroke="black" points="3396.5,-6 3396.5,-36 3509.5,-36 3509.5,-6 3396.5,-6"/>
<text text-anchor="start" x="3404.5" y="-24" font-family="Helvetica,sans-Serif" font-size="10.00">test/cpp/src/900&#45;btb</text>
<text text-anchor="middle" x="3453" y="-13" font-family="Helvetica,sans-Serif" font-size="10.00">&#45;bounds&#45;check.cc</text>
</a>
</g>
</g>
<!-- Node5&#45;&gt;Node50 -->
<g id="edge55" class="edge">
<title>Node5&#45;&gt;Node50</title>
<path fill="none" stroke="midnightblue" d="M3336.8,-148.3C3386.43,-135.12 3462.01,-114.33 3466,-109 3482.02,-87.61 3470.06,-54.81 3460.89,-36.19"/>
<polygon fill="midnightblue" stroke="midnightblue" points="3335.71,-144.97 3326.94,-150.91 3337.5,-151.74 3335.71,-144.97"/>
</g>
<!-- Node51 -->
<g id="node39" class="node">
<title>Node51</title>
<g id="a_node39"><a xlink:href="environment_8h.html" target="_top" xlink:title=" ">
<polygon fill="none" stroke="black" points="2577.5,-84 2577.5,-103 2682.5,-103 2682.5,-84 2577.5,-84"/>
<text text-anchor="middle" x="2630" y="-91" font-family="Helvetica,sans-Serif" font-size="10.00">inc/environment.h</text>
</a>
</g>
</g>
<!-- Node5&#45;&gt;Node51 -->
<g id="edge41" class="edge">
<title>Node5&#45;&gt;Node51</title>
<path fill="none" stroke="midnightblue" d="M3258.01,-148.25C3253.01,-146.98 3247.9,-145.85 3243,-145 3000.73,-103.15 2934.12,-145.56 2691,-109 2681.31,-107.54 2670.9,-105.32 2661.46,-103.05"/>
<polygon fill="midnightblue" stroke="midnightblue" points="3257.47,-151.73 3268.04,-150.97 3259.31,-144.97 3257.47,-151.73"/>
</g>
<!-- Node52 -->
<g id="node40" class="node">
<title>Node52</title>
<g id="a_node40"><a xlink:href="champsim_8cc.html" target="_top" xlink:title=" ">
<polygon fill="none" stroke="black" points="3840,-11.5 3840,-30.5 3938,-30.5 3938,-11.5 3840,-11.5"/>
<text text-anchor="middle" x="3889" y="-18.5" font-family="Helvetica,sans-Serif" font-size="10.00">src/champsim.cc</text>
</a>
</g>
</g>
<!-- Node5&#45;&gt;Node52 -->
<g id="edge47" class="edge">
<title>Node5&#45;&gt;Node52</title>
<path fill="none" stroke="midnightblue" d="M3335.47,-148.66C3341.97,-147.24 3348.64,-145.96 3355,-145 3415.34,-135.91 3861.29,-153.54 3903,-109 3923.39,-87.23 3904.59,-48.14 3894.48,-30.76"/>
<polygon fill="midnightblue" stroke="midnightblue" points="3334.43,-145.31 3325.46,-150.96 3335.99,-152.13 3334.43,-145.31"/>
</g>
<!-- Node53 -->
<g id="node41" class="node">
<title>Node53</title>
<g id="a_node41"><a xlink:href="phase__info_8h.html" target="_top" xlink:title=" ">
<polygon fill="none" stroke="red" points="3798,-84 3798,-103 3894,-103 3894,-84 3798,-84"/>
<text text-anchor="middle" x="3846" y="-91" font-family="Helvetica,sans-Serif" font-size="10.00">inc/phase_info.h</text>
</a>
</g>
</g>
<!-- Node5&#45;&gt;Node53 -->
<g id="edge43" class="edge">
<title>Node5&#45;&gt;Node53</title>
<path fill="none" stroke="midnightblue" d="M3335.7,-148.71C3342.13,-147.3 3348.72,-146 3355,-145 3543.94,-114.79 3595.01,-138.87 3784,-109 3793.72,-107.46 3804.17,-105.24 3813.68,-103"/>
<polygon fill="midnightblue" stroke="midnightblue" points="3334.76,-145.34 3325.8,-150.99 3336.33,-152.16 3334.76,-145.34"/>
</g>
<!-- Node54 -->
<g id="node42" class="node">
<title>Node54</title>
<g id="a_node42"><a xlink:href="stats__printer_8h.html" target="_top" xlink:title=" ">
<polygon fill="none" stroke="red" points="3718,-11.5 3718,-30.5 3822,-30.5 3822,-11.5 3718,-11.5"/>
<text text-anchor="middle" x="3770" y="-18.5" font-family="Helvetica,sans-Serif" font-size="10.00">inc/stats_printer.h</text>
</a>
</g>
</g>
<!-- Node5&#45;&gt;Node54 -->
<g id="edge46" class="edge">
<title>Node5&#45;&gt;Node54</title>
<path fill="none" stroke="midnightblue" d="M3335.93,-148.71C3342.29,-147.31 3348.8,-146.01 3355,-145 3441.99,-130.77 3683.61,-166.98 3750,-109 3773,-88.92 3772.44,-48.22 3770.97,-30.53"/>
<polygon fill="midnightblue" stroke="midnightblue" points="3335.08,-145.31 3326.12,-150.96 3336.65,-152.13 3335.08,-145.31"/>
</g>
<!-- Node58 -->
<g id="node43" class="node">
<title>Node58</title>
<g id="a_node43"><a xlink:href="ooo__cpu_8cc.html" target="_top" xlink:title=" ">
<polygon fill="none" stroke="black" points="2854,-84 2854,-103 2942,-103 2942,-84 2854,-84"/>
<text text-anchor="middle" x="2898" y="-91" font-family="Helvetica,sans-Serif" font-size="10.00">src/ooo_cpu.cc</text>
</a>
</g>
</g>
<!-- Node5&#45;&gt;Node58 -->
<g id="edge48" class="edge">
<title>Node5&#45;&gt;Node58</title>
<path fill="none" stroke="midnightblue" d="M3256.92,-148.24C3252.26,-147.04 3247.54,-145.92 3243,-145 3114.84,-119.04 3079.29,-134.32 2951,-109 2942.86,-107.39 2934.13,-105.2 2926.15,-103.01"/>
<polygon fill="midnightblue" stroke="midnightblue" points="3256.36,-151.71 3266.93,-150.96 3258.2,-144.96 3256.36,-151.71"/>
</g>
<!-- Node12&#45;&gt;Node11 -->
<g id="edge13" class="edge">
<title>Node12&#45;&gt;Node11</title>
<path fill="none" stroke="midnightblue" d="M3679.67,-76.94C3666.85,-64.73 3649.17,-47.89 3636.77,-36.08"/>
<polygon fill="midnightblue" stroke="midnightblue" points="3677.27,-79.49 3686.93,-83.86 3682.1,-74.42 3677.27,-79.49"/>
</g>
<!-- Node13&#45;&gt;Node11 -->
<g id="edge15" class="edge">
<title>Node13&#45;&gt;Node11</title>
<path fill="none" stroke="midnightblue" d="M3577.66,-75.89C3587.63,-63.78 3600.98,-47.55 3610.42,-36.08"/>
<polygon fill="midnightblue" stroke="midnightblue" points="3574.76,-73.91 3571.11,-83.86 3580.17,-78.36 3574.76,-73.91"/>
</g>
<!-- Node14&#45;&gt;Node15 -->
<g id="edge17" class="edge">
<title>Node14&#45;&gt;Node15</title>
<path fill="none" stroke="midnightblue" d="M1719,-92.05C1838.24,-90.28 2119.17,-81.85 2351,-42 2359.81,-40.49 2369.09,-38.37 2377.96,-36.07"/>
<polygon fill="midnightblue" stroke="midnightblue" points="1718.6,-88.55 1708.65,-92.19 1718.7,-95.55 1718.6,-88.55"/>
</g>
<!-- Node14&#45;&gt;Node16 -->
<g id="edge18" class="edge">
<title>Node14&#45;&gt;Node16</title>
<path fill="none" stroke="midnightblue" d="M1719.19,-93.24C1855.82,-94.06 2207.46,-90.79 2496,-42 2504.71,-40.53 2513.89,-38.39 2522.64,-36.07"/>
<polygon fill="midnightblue" stroke="midnightblue" points="1718.97,-89.74 1708.95,-93.17 1718.92,-96.74 1718.97,-89.74"/>
</g>
<!-- Node14&#45;&gt;Node17 -->
<g id="edge19" class="edge">
<title>Node14&#45;&gt;Node17</title>
<path fill="none" stroke="midnightblue" d="M1718.94,-90.95C1900.7,-85.86 2458.15,-68.46 2637,-42 2640.01,-41.55 2643.07,-41.05 2646.15,-40.49"/>
<polygon fill="midnightblue" stroke="midnightblue" points="1718.68,-87.46 1708.78,-91.23 1718.88,-94.45 1718.68,-87.46"/>
</g>
<!-- Node14&#45;&gt;Node18 -->
<g id="edge20" class="edge">
<title>Node14&#45;&gt;Node18</title>
<path fill="none" stroke="midnightblue" d="M1718.78,-91.47C1919.57,-87.63 2586.36,-72.84 2798,-42 2801.12,-41.55 2804.29,-41.02 2807.48,-40.44"/>
<polygon fill="midnightblue" stroke="midnightblue" points="1718.66,-87.97 1708.73,-91.66 1718.79,-94.97 1718.66,-87.97"/>
</g>
<!-- Node14&#45;&gt;Node19 -->
<g id="edge21" class="edge">
<title>Node14&#45;&gt;Node19</title>
<path fill="none" stroke="midnightblue" d="M1719.04,-92.2C1938,-90.78 2713.81,-82.89 2957,-42 2965.38,-40.59 2974.19,-38.42 2982.55,-36.03"/>
<polygon fill="midnightblue" stroke="midnightblue" points="1718.71,-88.71 1708.74,-92.27 1718.76,-95.7 1718.71,-88.71"/>
</g>
<!-- Node14&#45;&gt;Node20 -->
<g id="edge22" class="edge">
<title>Node14&#45;&gt;Node20</title>
<path fill="none" stroke="midnightblue" d="M1719.06,-92.06C1913.18,-90.26 2557.29,-81.48 3088,-42 3125.87,-39.18 3168.17,-34.43 3201.8,-30.26"/>
<polygon fill="midnightblue" stroke="midnightblue" points="1718.78,-88.57 1708.81,-92.16 1718.84,-95.57 1718.78,-88.57"/>
</g>
<!-- Node21 -->
<g id="node21" class="node">
<title>Node21</title>
<g id="a_node21"><a xlink:href="400-cache-occupancy-size_8cc.html" target="_top" xlink:title=" ">
<polygon fill="none" stroke="black" points="1123,-6 1123,-36 1249,-36 1249,-6 1123,-6"/>
<text text-anchor="start" x="1131" y="-24" font-family="Helvetica,sans-Serif" font-size="10.00">test/cpp/src/400&#45;cache</text>
<text text-anchor="middle" x="1186" y="-13" font-family="Helvetica,sans-Serif" font-size="10.00">&#45;occupancy&#45;size.cc</text>
</a>
</g>
</g>
<!-- Node14&#45;&gt;Node21 -->
<g id="edge23" class="edge">
<title>Node14&#45;&gt;Node21</title>
<path fill="none" stroke="midnightblue" d="M1603.31,-87.94C1524.69,-81.13 1379.75,-66.4 1258,-42 1249.73,-40.34 1241.02,-38.24 1232.62,-36.02"/>
<polygon fill="midnightblue" stroke="midnightblue" points="1603.22,-91.45 1613.49,-88.81 1603.82,-84.47 1603.22,-91.45"/>
</g>
<!-- Node22 -->
<g id="node22" class="node">
<title>Node22</title>
<g id="a_node22"><a xlink:href="401-hit-latency_8cc.html" target="_top" xlink:title=" ">
<polygon fill="none" stroke="black" points="1267,-6 1267,-36 1377,-36 1377,-6 1267,-6"/>
<text text-anchor="start" x="1275" y="-24" font-family="Helvetica,sans-Serif" font-size="10.00">test/cpp/src/401&#45;hit</text>
<text text-anchor="middle" x="1322" y="-13" font-family="Helvetica,sans-Serif" font-size="10.00">&#45;latency.cc</text>
</a>
</g>
</g>
<!-- Node14&#45;&gt;Node22 -->
<g id="edge24" class="edge">
<title>Node14&#45;&gt;Node22</title>
<path fill="none" stroke="midnightblue" d="M1603.35,-84C1547.41,-75.26 1460.31,-60.36 1386,-42 1378.99,-40.27 1371.63,-38.2 1364.49,-36.07"/>
<polygon fill="midnightblue" stroke="midnightblue" points="1603.01,-87.49 1613.43,-85.56 1604.08,-80.57 1603.01,-87.49"/>
</g>
<!-- Node23 -->
<g id="node23" class="node">
<title>Node23</title>
<g id="a_node23"><a xlink:href="402-miss-latency_8cc.html" target="_top" xlink:title=" ">
<polygon fill="none" stroke="black" points="1395.5,-6 1395.5,-36 1516.5,-36 1516.5,-6 1395.5,-6"/>
<text text-anchor="start" x="1403.5" y="-24" font-family="Helvetica,sans-Serif" font-size="10.00">test/cpp/src/402&#45;miss</text>
<text text-anchor="middle" x="1456" y="-13" font-family="Helvetica,sans-Serif" font-size="10.00">&#45;latency.cc</text>
</a>
</g>
</g>
<!-- Node14&#45;&gt;Node23 -->
<g id="edge25" class="edge">
<title>Node14&#45;&gt;Node23</title>
<path fill="none" stroke="midnightblue" d="M1626.75,-80.72C1590.94,-68.41 1534.78,-49.09 1496.73,-36.01"/>
<polygon fill="midnightblue" stroke="midnightblue" points="1625.68,-84.05 1636.27,-84 1627.95,-77.43 1625.68,-84.05"/>
</g>
<!-- Node24 -->
<g id="node24" class="node">
<title>Node24</title>
<g id="a_node24"><a xlink:href="403-read-bandwidth_8cc.html" target="_top" xlink:title=" ">
<polygon fill="none" stroke="black" points="1534.5,-6 1534.5,-36 1653.5,-36 1653.5,-6 1534.5,-6"/>
<text text-anchor="start" x="1542.5" y="-24" font-family="Helvetica,sans-Serif" font-size="10.00">test/cpp/src/403&#45;read</text>
<text text-anchor="middle" x="1594" y="-13" font-family="Helvetica,sans-Serif" font-size="10.00">&#45;bandwidth.cc</text>
</a>
</g>
</g>
<!-- Node14&#45;&gt;Node24 -->
<g id="edge26" class="edge">
<title>Node14&#45;&gt;Node24</title>
<path fill="none" stroke="midnightblue" d="M1645.88,-76.59C1634.31,-64.41 1618.49,-47.77 1607.38,-36.08"/>
<polygon fill="midnightblue" stroke="midnightblue" points="1643.36,-79.02 1652.78,-83.86 1648.43,-74.2 1643.36,-79.02"/>
</g>
<!-- Node25 -->
<g id="node25" class="node">
<title>Node25</title>
<g id="a_node25"><a xlink:href="404-fill-bandwidth_8cc.html" target="_top" xlink:title=" ">
<polygon fill="none" stroke="black" points="1672,-6 1672,-36 1782,-36 1782,-6 1672,-6"/>
<text text-anchor="start" x="1680" y="-24" font-family="Helvetica,sans-Serif" font-size="10.00">test/cpp/src/404&#45;fill</text>
<text text-anchor="middle" x="1727" y="-13" font-family="Helvetica,sans-Serif" font-size="10.00">&#45;bandwidth.cc</text>
</a>
</g>
</g>
<!-- Node14&#45;&gt;Node25 -->
<g id="edge27" class="edge">
<title>Node14&#45;&gt;Node25</title>
<path fill="none" stroke="midnightblue" d="M1676.22,-76.24C1687.59,-64.1 1702.98,-47.66 1713.82,-36.08"/>
<polygon fill="midnightblue" stroke="midnightblue" points="1673.37,-74.16 1669.09,-83.86 1678.48,-78.95 1673.37,-74.16"/>
</g>
<!-- Node26 -->
<g id="node26" class="node">
<title>Node26</title>
<g id="a_node26"><a xlink:href="405-fill-eviction_8cc.html" target="_top" xlink:title=" ">
<polygon fill="none" stroke="black" points="1800,-6 1800,-36 1910,-36 1910,-6 1800,-6"/>
<text text-anchor="start" x="1808" y="-24" font-family="Helvetica,sans-Serif" font-size="10.00">test/cpp/src/405&#45;fill</text>
<text text-anchor="middle" x="1855" y="-13" font-family="Helvetica,sans-Serif" font-size="10.00">&#45;eviction.cc</text>
</a>
</g>
</g>
<!-- Node14&#45;&gt;Node26 -->
<g id="edge28" class="edge">
<title>Node14&#45;&gt;Node26</title>
<path fill="none" stroke="midnightblue" d="M1693.85,-80.56C1727.75,-68.24 1780.6,-49.04 1816.46,-36.01"/>
<polygon fill="midnightblue" stroke="midnightblue" points="1692.6,-77.29 1684.4,-84 1695,-83.87 1692.6,-77.29"/>
</g>
<!-- Node27 -->
<g id="node27" class="node">
<title>Node27</title>
<g id="a_node27"><a xlink:href="406-mshr-merge_8cc.html" target="_top" xlink:title=" ">
<polygon fill="none" stroke="black" points="1928,-6 1928,-36 2050,-36 2050,-6 1928,-6"/>
<text text-anchor="start" x="1936" y="-24" font-family="Helvetica,sans-Serif" font-size="10.00">test/cpp/src/406&#45;mshr</text>
<text text-anchor="middle" x="1989" y="-13" font-family="Helvetica,sans-Serif" font-size="10.00">&#45;merge.cc</text>
</a>
</g>
</g>
<!-- Node14&#45;&gt;Node27 -->
<g id="edge29" class="edge">
<title>Node14&#45;&gt;Node27</title>
<path fill="none" stroke="midnightblue" d="M1718.94,-82.61C1771.43,-73.31 1850.77,-58.39 1919,-42 1926.37,-40.23 1934.14,-38.19 1941.7,-36.1"/>
<polygon fill="midnightblue" stroke="midnightblue" points="1718.06,-79.21 1708.81,-84.4 1719.27,-86.11 1718.06,-79.21"/>
</g>
<!-- Node28 -->
<g id="node28" class="node">
<title>Node28</title>
<g id="a_node28"><a xlink:href="411-queue-translation-hit_8cc.html" target="_top" xlink:title=" ">
<polygon fill="none" stroke="black" points="2068,-6 2068,-36 2196,-36 2196,-6 2068,-6"/>
<text text-anchor="start" x="2076" y="-24" font-family="Helvetica,sans-Serif" font-size="10.00">test/cpp/src/411&#45;queue</text>
<text text-anchor="middle" x="2132" y="-13" font-family="Helvetica,sans-Serif" font-size="10.00">&#45;translation&#45;hit.cc</text>
</a>
</g>
</g>
<!-- Node14&#45;&gt;Node28 -->
<g id="edge30" class="edge">
<title>Node14&#45;&gt;Node28</title>
<path fill="none" stroke="midnightblue" d="M1718.6,-87.76C1796.37,-80.79 1939.04,-65.92 2059,-42 2067.25,-40.36 2075.93,-38.28 2084.32,-36.1"/>
<polygon fill="midnightblue" stroke="midnightblue" points="1718.18,-84.29 1708.52,-88.66 1718.79,-91.26 1718.18,-84.29"/>
</g>
<!-- Node29 -->
<g id="node29" class="node">
<title>Node29</title>
<g id="a_node29"><a xlink:href="412-queue-translation-miss_8cc.html" target="_top" xlink:title=" ">
<polygon fill="none" stroke="black" points="2214,-6 2214,-36 2342,-36 2342,-6 2214,-6"/>
<text text-anchor="start" x="2222" y="-24" font-family="Helvetica,sans-Serif" font-size="10.00">test/cpp/src/412&#45;queue</text>
<text text-anchor="middle" x="2278" y="-13" font-family="Helvetica,sans-Serif" font-size="10.00">&#45;translation&#45;miss.cc</text>
</a>
</g>
</g>
<!-- Node14&#45;&gt;Node29 -->
<g id="edge31" class="edge">
<title>Node14&#45;&gt;Node29</title>
<path fill="none" stroke="midnightblue" d="M1718.86,-90.45C1818.75,-86.17 2029.7,-73.9 2205,-42 2213.66,-40.42 2222.79,-38.3 2231.55,-36.03"/>
<polygon fill="midnightblue" stroke="midnightblue" points="1718.52,-86.96 1708.68,-90.87 1718.81,-93.96 1718.52,-86.96"/>
</g>
<!-- Node30 -->
<g id="node30" class="node">
<title>Node30</title>
<g id="a_node30"><a xlink:href="413-hit-under-miss_8cc.html" target="_top" xlink:title=" ">
<polygon fill="none" stroke="black" points="566,-6 566,-36 676,-36 676,-6 566,-6"/>
<text text-anchor="start" x="574" y="-24" font-family="Helvetica,sans-Serif" font-size="10.00">test/cpp/src/413&#45;hit</text>
<text text-anchor="middle" x="621" y="-13" font-family="Helvetica,sans-Serif" font-size="10.00">&#45;under&#45;miss.cc</text>
</a>
</g>
</g>
<!-- Node14&#45;&gt;Node30 -->
<g id="edge32" class="edge">
<title>Node14&#45;&gt;Node30</title>
<path fill="none" stroke="midnightblue" d="M1603.3,-91.41C1421.65,-87.7 863.06,-73.9 685,-42 676.98,-40.56 668.56,-38.42 660.56,-36.06"/>
<polygon fill="midnightblue" stroke="midnightblue" points="1603.38,-94.92 1613.45,-91.62 1603.52,-87.92 1603.38,-94.92"/>
</g>
<!-- Node31 -->
<g id="node31" class="node">
<title>Node31</title>
<g id="a_node31"><a xlink:href="414-tag-check-bound_8cc.html" target="_top" xlink:title=" ">
<polygon fill="none" stroke="black" points="694.5,-6 694.5,-36 807.5,-36 807.5,-6 694.5,-6"/>
<text text-anchor="start" x="702.5" y="-24" font-family="Helvetica,sans-Serif" font-size="10.00">test/cpp/src/414&#45;tag</text>
<text text-anchor="middle" x="751" y="-13" font-family="Helvetica,sans-Serif" font-size="10.00">&#45;check&#45;bound.cc</text>
</a>
</g>
</g>
<!-- Node14&#45;&gt;Node31 -->
<g id="edge33" class="edge">
<title>Node14&#45;&gt;Node31</title>
<path fill="none" stroke="midnightblue" d="M1602.83,-90.83C1437.6,-85.81 967.59,-69.44 816,-42 807.87,-40.53 799.32,-38.37 791.2,-36"/>
<polygon fill="midnightblue" stroke="midnightblue" points="1603.17,-94.34 1613.27,-91.15 1603.38,-87.35 1603.17,-94.34"/>
</g>
<!-- Node32 -->
<g id="node32" class="node">
<title>Node32</title>
<g id="a_node32"><a xlink:href="420-issue-prefetch_8cc.html" target="_top" xlink:title=" ">
<polygon fill="none" stroke="black" points="825.5,-6 825.5,-36 948.5,-36 948.5,-6 825.5,-6"/>
<text text-anchor="start" x="833.5" y="-24" font-family="Helvetica,sans-Serif" font-size="10.00">test/cpp/src/420&#45;issue</text>
<text text-anchor="middle" x="887" y="-13" font-family="Helvetica,sans-Serif" font-size="10.00">&#45;prefetch.cc</text>
</a>
</g>
</g>
<!-- Node14&#45;&gt;Node32 -->
<g id="edge34" class="edge">
<title>Node14&#45;&gt;Node32</title>
<path fill="none" stroke="midnightblue" d="M1603.15,-92.3C1482.35,-91.01 1194.88,-83.43 958,-42 949.42,-40.5 940.39,-38.39 931.75,-36.09"/>
<polygon fill="midnightblue" stroke="midnightblue" points="1603.25,-95.8 1613.28,-92.39 1603.32,-88.8 1603.25,-95.8"/>
</g>
<!-- Node33 -->
<g id="node33" class="node">
<title>Node33</title>
<g id="a_node33"><a xlink:href="421-prefetch-fill-level_8cc.html" target="_top" xlink:title=" ">
<polygon fill="none" stroke="black" points="967,-6 967,-36 1105,-36 1105,-6 967,-6"/>
<text text-anchor="start" x="975" y="-24" font-family="Helvetica,sans-Serif" font-size="10.00">test/cpp/src/421&#45;prefetch</text>
<text text-anchor="middle" x="1036" y="-13" font-family="Helvetica,sans-Serif" font-size="10.00">&#45;fill&#45;level.cc</text>
</a>
</g>
</g>
<!-- Node14&#45;&gt;Node33 -->
<g id="edge35" class="edge">
<title>Node14&#45;&gt;Node33</title>
<path fill="none" stroke="midnightblue" d="M1603.26,-90.19C1503.06,-85.51 1290.75,-72.62 1114,-42 1104.91,-40.43 1095.32,-38.33 1086.1,-36.09"/>
<polygon fill="midnightblue" stroke="midnightblue" points="1603.32,-93.69 1613.47,-90.66 1603.64,-86.7 1603.32,-93.69"/>
</g>
<!-- Node46 -->
<g id="node34" class="node">
<title>Node46</title>
<g id="a_node34"><a xlink:href="600-ptw-path_8cc.html" target="_top" xlink:title=" ">
<polygon fill="none" stroke="black" points="136,-6 136,-36 252,-36 252,-6 136,-6"/>
<text text-anchor="start" x="144" y="-24" font-family="Helvetica,sans-Serif" font-size="10.00">test/cpp/src/600&#45;ptw</text>
<text text-anchor="middle" x="194" y="-13" font-family="Helvetica,sans-Serif" font-size="10.00">&#45;path.cc</text>
</a>
</g>
</g>
<!-- Node14&#45;&gt;Node46 -->
<g id="edge36" class="edge">
<title>Node14&#45;&gt;Node46</title>
<path fill="none" stroke="midnightblue" d="M1603.31,-92.37C1373.86,-91.54 525.72,-85.55 261,-42 252.5,-40.6 243.55,-38.44 235.07,-36.05"/>
<polygon fill="midnightblue" stroke="midnightblue" points="1603.43,-95.87 1613.44,-92.4 1603.46,-88.87 1603.43,-95.87"/>
</g>
<!-- Node47 -->
<g id="node35" class="node">
<title>Node47</title>
<g id="a_node35"><a xlink:href="601-multiple-inflight-walks_8cc.html" target="_top" xlink:title=" ">
<polygon fill="none" stroke="black" points="270,-6 270,-36 408,-36 408,-6 270,-6"/>
<text text-anchor="start" x="278" y="-24" font-family="Helvetica,sans-Serif" font-size="10.00">test/cpp/src/601&#45;multiple</text>
<text text-anchor="middle" x="339" y="-13" font-family="Helvetica,sans-Serif" font-size="10.00">&#45;inflight&#45;walks.cc</text>
</a>
</g>
</g>
<!-- Node14&#45;&gt;Node47 -->
<g id="edge37" class="edge">
<title>Node14&#45;&gt;Node47</title>
<path fill="none" stroke="midnightblue" d="M1603.2,-91.77C1390.33,-88.82 650.42,-76.27 417,-42 407.32,-40.58 397.1,-38.44 387.36,-36.08"/>
<polygon fill="midnightblue" stroke="midnightblue" points="1603.18,-95.27 1613.23,-91.9 1603.27,-88.27 1603.18,-95.27"/>
</g>
<!-- Node48 -->
<g id="node36" class="node">
<title>Node48</title>
<g id="a_node36"><a xlink:href="602-walk-latency_8cc.html" target="_top" xlink:title=" ">
<polygon fill="none" stroke="black" points="426.5,-6 426.5,-36 547.5,-36 547.5,-6 426.5,-6"/>
<text text-anchor="start" x="434.5" y="-24" font-family="Helvetica,sans-Serif" font-size="10.00">test/cpp/src/602&#45;walk</text>
<text text-anchor="middle" x="487" y="-13" font-family="Helvetica,sans-Serif" font-size="10.00">&#45;latency.cc</text>
</a>
</g>
</g>
<!-- Node14&#45;&gt;Node48 -->
<g id="edge38" class="edge">
<title>Node14&#45;&gt;Node48</title>
<path fill="none" stroke="midnightblue" d="M1603.23,-91.63C1406.19,-88.38 761.4,-75.41 557,-42 548.27,-40.57 539.08,-38.43 530.33,-36.07"/>
<polygon fill="midnightblue" stroke="midnightblue" points="1603.32,-95.13 1613.38,-91.79 1603.43,-88.13 1603.32,-95.13"/>
</g>
<!-- Node49 -->
<g id="node37" class="node">
<title>Node49</title>
<g id="a_node37"><a xlink:href="603-pte-page-correctness_8cc.html" target="_top" xlink:title=" ">
<polygon fill="none" stroke="black" points="0,-6 0,-36 118,-36 118,-6 0,-6"/>
<text text-anchor="start" x="8" y="-24" font-family="Helvetica,sans-Serif" font-size="10.00">test/cpp/src/603&#45;pte</text>
<text text-anchor="middle" x="59" y="-13" font-family="Helvetica,sans-Serif" font-size="10.00">&#45;page&#45;correctness.cc</text>
</a>
</g>
</g>
<!-- Node14&#45;&gt;Node49 -->
<g id="edge39" class="edge">
<title>Node14&#45;&gt;Node49</title>
<path fill="none" stroke="midnightblue" d="M1603.47,-92.55C1360.76,-92.46 419.43,-89.04 127,-42 118.37,-40.61 109.3,-38.46 100.7,-36.06"/>
<polygon fill="midnightblue" stroke="midnightblue" points="1603.5,-96.05 1613.5,-92.55 1603.5,-89.05 1603.5,-96.05"/>
</g>
<!-- Node14&#45;&gt;Node50 -->
<g id="edge40" class="edge">
<title>Node14&#45;&gt;Node50</title>
<path fill="none" stroke="midnightblue" d="M1718.94,-91.82C1975.58,-88.67 3011.45,-74.14 3335,-42 3355.16,-40 3377.08,-36.62 3396.49,-33.2"/>
<polygon fill="midnightblue" stroke="midnightblue" points="1718.68,-88.33 1708.72,-91.95 1718.76,-95.33 1718.68,-88.33"/>
</g>
<!-- Node51&#45;&gt;Node52 -->
<g id="edge42" class="edge">
<title>Node51&#45;&gt;Node52</title>
<path fill="none" stroke="midnightblue" d="M2670.31,-81.71C2677.17,-80.22 2684.26,-78.9 2691,-78 3193.48,-11.04 3332.44,-133.66 3831,-42 3843.99,-39.61 3858,-34.84 3869,-30.56"/>
<polygon fill="midnightblue" stroke="midnightblue" points="2669.45,-78.32 2660.49,-83.98 2671.02,-85.14 2669.45,-78.32"/>
</g>
<!-- Node53&#45;&gt;Node52 -->
<g id="edge45" class="edge">
<title>Node53&#45;&gt;Node52</title>
<path fill="none" stroke="midnightblue" d="M3856.62,-75.09C3865.21,-61 3876.96,-41.74 3883.68,-30.72"/>
<polygon fill="midnightblue" stroke="midnightblue" points="3853.49,-73.5 3851.27,-83.86 3859.47,-77.14 3853.49,-73.5"/>
</g>
<!-- Node53&#45;&gt;Node54 -->
<g id="edge44" class="edge">
<title>Node53&#45;&gt;Node54</title>
<path fill="none" stroke="midnightblue" d="M3828.96,-76.69C3813.65,-62.49 3791.74,-42.17 3779.4,-30.72"/>
<polygon fill="midnightblue" stroke="midnightblue" points="3826.97,-79.62 3836.68,-83.86 3831.73,-74.49 3826.97,-79.62"/>
</g>
<!-- Node59&#45;&gt;Node14 -->
<g id="edge57" class="edge">
<title>Node59&#45;&gt;Node14</title>
<path fill="none" stroke="midnightblue" d="M508.17,-157.31C688.05,-147.51 1419.15,-107.68 1613.41,-97.09"/>
<polygon fill="midnightblue" stroke="midnightblue" points="507.88,-153.82 498.09,-157.86 508.26,-160.81 507.88,-153.82"/>
</g>
<!-- Node59&#45;&gt;Node46 -->
<g id="edge60" class="edge">
<title>Node59&#45;&gt;Node46</title>
<path fill="none" stroke="midnightblue" d="M454.37,-143.11C436.49,-121.96 405.66,-86.82 391,-78 339.64,-47.08 318.62,-58.58 261,-42 254.47,-40.12 247.59,-38.11 240.82,-36.11"/>
<polygon fill="midnightblue" stroke="midnightblue" points="451.84,-145.54 460.95,-150.95 457.21,-141.04 451.84,-145.54"/>
</g>
<!-- Node59&#45;&gt;Node47 -->
<g id="edge61" class="edge">
<title>Node59&#45;&gt;Node47</title>
<path fill="none" stroke="midnightblue" d="M461.43,-141.08C454.45,-123.4 442.05,-96.69 425,-78 408.91,-60.36 386.1,-45.85 368.02,-36.02"/>
<polygon fill="midnightblue" stroke="midnightblue" points="458.28,-142.64 465.07,-150.77 464.83,-140.18 458.28,-142.64"/>
</g>
<!-- Node59&#45;&gt;Node48 -->
<g id="edge62" class="edge">
<title>Node59&#45;&gt;Node48</title>
<path fill="none" stroke="midnightblue" d="M470.57,-140.89C474.42,-113.03 481.6,-61.1 485.05,-36.12"/>
<polygon fill="midnightblue" stroke="midnightblue" points="467.09,-140.51 469.19,-150.9 474.02,-141.47 467.09,-140.51"/>
</g>
<!-- Node59&#45;&gt;Node49 -->
<g id="edge63" class="edge">
<title>Node59&#45;&gt;Node49</title>
<path fill="none" stroke="midnightblue" d="M430.2,-147.92C397.71,-137.89 349.65,-122.85 308,-109 233.48,-84.23 147.05,-53.6 98.12,-36.08"/>
<polygon fill="midnightblue" stroke="midnightblue" points="429.58,-151.4 440.17,-151 431.64,-144.71 429.58,-151.4"/>
</g>
<!-- Node59&#45;&gt;Node51 -->
<g id="edge58" class="edge">
<title>Node59&#45;&gt;Node51</title>
<path fill="none" stroke="midnightblue" d="M508.52,-158.28C775.07,-150.27 2275.81,-105.15 2577.26,-96.09"/>
<polygon fill="midnightblue" stroke="midnightblue" points="508.04,-154.79 498.15,-158.59 508.25,-161.79 508.04,-154.79"/>
</g>
<!-- Node60 -->
<g id="node45" class="node">
<title>Node60</title>
<g id="a_node45"><a xlink:href="ptw_8cc.html" target="_top" xlink:title=" ">
<polygon fill="none" stroke="black" points="317.5,-84 317.5,-103 382.5,-103 382.5,-84 317.5,-84"/>
<text text-anchor="middle" x="350" y="-91" font-family="Helvetica,sans-Serif" font-size="10.00">src/ptw.cc</text>
</a>
</g>
</g>
<!-- Node59&#45;&gt;Node60 -->
<g id="edge59" class="edge">
<title>Node59&#45;&gt;Node60</title>
<path fill="none" stroke="midnightblue" d="M443.11,-145.79C419.72,-132.9 385.44,-114.02 365.66,-103.13"/>
<polygon fill="midnightblue" stroke="midnightblue" points="441.64,-148.97 452.09,-150.73 445.02,-142.84 441.64,-148.97"/>
</g>
<!-- Node64 -->
<g id="node49" class="node">
<title>Node64</title>
<g id="a_node49"><a xlink:href="041-bitwise__ops_8cc.html" target="_top" xlink:title=" ">
<polygon fill="none" stroke="black" points="3527.5,-212.5 3527.5,-242.5 3660.5,-242.5 3660.5,-212.5 3527.5,-212.5"/>
<text text-anchor="start" x="3535.5" y="-230.5" font-family="Helvetica,sans-Serif" font-size="10.00">test/cpp/src/041&#45;bitwise</text>
<text text-anchor="middle" x="3594" y="-219.5" font-family="Helvetica,sans-Serif" font-size="10.00">_ops.cc</text>
</a>
</g>
</g>
<!-- Node63&#45;&gt;Node64 -->
<g id="edge67" class="edge">
<title>Node63&#45;&gt;Node64</title>
<path fill="none" stroke="midnightblue" d="M3568.48,-270.68C3573.9,-261.73 3580.42,-250.94 3585.52,-242.52"/>
<polygon fill="midnightblue" stroke="midnightblue" points="3565.34,-269.11 3563.16,-279.48 3571.33,-272.73 3565.34,-269.11"/>
</g>
</g>
</svg>
