<?xml version="1.0" encoding="UTF-8" standalone="no"?>
<!DOCTYPE svg PUBLIC "-//W3C//DTD SVG 1.1//EN"
 "http://www.w3.org/Graphics/SVG/1.1/DTD/svg11.dtd">
<!-- Generated by graphviz version 2.43.0 (0)
 -->
<!-- Title: prefetcher/no_instr/no.cc Pages: 1 -->
<svg width="1360pt" height="207pt"
 viewBox="0.00 0.00 1359.50 207.00" xmlns="http://www.w3.org/2000/svg" xmlns:xlink="http://www.w3.org/1999/xlink">
<g id="graph0" class="graph" transform="scale(1 1) rotate(0) translate(4 203)">
<title>prefetcher/no_instr/no.cc</title>
<!-- Node1 -->
<g id="node1" class="node">
<title>Node1</title>
<g id="a_node1"><a xlink:title=" ">
<polygon fill="#bfbfbf" stroke="black" points="445.5,-168.5 445.5,-198.5 554.5,-198.5 554.5,-168.5 445.5,-168.5"/>
<text text-anchor="start" x="453.5" y="-186.5" font-family="Helvetica,sans-Serif" font-size="10.00">prefetcher/no_instr</text>
<text text-anchor="middle" x="500" y="-175.5" font-family="Helvetica,sans-Serif" font-size="10.00">/no.cc</text>
</a>
</g>
</g>
<!-- Node2 -->
<g id="node2" class="node">
<title>Node2</title>
<g id="a_node2"><a xlink:title=" ">
<polygon fill="none" stroke="#bfbfbf" points="439,-112.5 439,-131.5 491,-131.5 491,-112.5 439,-112.5"/>
<text text-anchor="middle" x="465" y="-119.5" font-family="Helvetica,sans-Serif" font-size="10.00">cassert</text>
</a>
</g>
</g>
<!-- Node1&#45;&gt;Node2 -->
<g id="edge1" class="edge">
<title>Node1&#45;&gt;Node2</title>
<path fill="none" stroke="midnightblue" d="M491.71,-168.4C486.78,-160.02 480.49,-149.33 475.25,-140.42"/>
<polygon fill="midnightblue" stroke="midnightblue" points="478.18,-138.5 470.09,-131.66 472.15,-142.05 478.18,-138.5"/>
</g>
<!-- Node3 -->
<g id="node3" class="node">
<title>Node3</title>
<g id="a_node3"><a xlink:href="cache_8h.html" target="_top" xlink:title=" ">
<polygon fill="none" stroke="black" points="509,-112.5 509,-131.5 563,-131.5 563,-112.5 509,-112.5"/>
<text text-anchor="middle" x="536" y="-119.5" font-family="Helvetica,sans-Serif" font-size="10.00">cache.h</text>
</a>
</g>
</g>
<!-- Node1&#45;&gt;Node3 -->
<g id="edge2" class="edge">
<title>Node1&#45;&gt;Node3</title>
<path fill="none" stroke="midnightblue" d="M508.53,-168.4C513.6,-160.02 520.07,-149.33 525.46,-140.42"/>
<polygon fill="midnightblue" stroke="midnightblue" points="528.58,-142.03 530.76,-131.66 522.59,-138.4 528.58,-142.03"/>
</g>
<!-- Node4 -->
<g id="node4" class="node">
<title>Node4</title>
<g id="a_node4"><a xlink:title=" ">
<polygon fill="none" stroke="#bfbfbf" points="0,-0.5 0,-19.5 42,-19.5 42,-0.5 0,-0.5"/>
<text text-anchor="middle" x="21" y="-7.5" font-family="Helvetica,sans-Serif" font-size="10.00">array</text>
</a>
</g>
</g>
<!-- Node3&#45;&gt;Node4 -->
<g id="edge3" class="edge">
<title>Node3&#45;&gt;Node4</title>
<path fill="none" stroke="midnightblue" d="M508.97,-113.78C505.95,-113.12 502.92,-112.5 500,-112 335.43,-83.67 284.24,-129.34 126,-76 92.73,-64.78 59.06,-41.32 39.11,-25.87"/>
<polygon fill="midnightblue" stroke="midnightblue" points="41.22,-23.07 31.21,-19.6 36.87,-28.55 41.22,-23.07"/>
</g>
<!-- Node5 -->
<g id="node5" class="node">
<title>Node5</title>
<g id="a_node5"><a xlink:title=" ">
<polygon fill="none" stroke="#bfbfbf" points="365,-56.5 365,-75.5 409,-75.5 409,-56.5 365,-56.5"/>
<text text-anchor="middle" x="387" y="-63.5" font-family="Helvetica,sans-Serif" font-size="10.00">bitset</text>
</a>
</g>
</g>
<!-- Node3&#45;&gt;Node5 -->
<g id="edge4" class="edge">
<title>Node3&#45;&gt;Node5</title>
<path fill="none" stroke="midnightblue" d="M512.39,-112.44C487.1,-103.28 446.83,-88.68 418.78,-78.52"/>
<polygon fill="midnightblue" stroke="midnightblue" points="419.64,-75.11 409.04,-74.99 417.25,-81.69 419.64,-75.11"/>
</g>
<!-- Node6 -->
<g id="node6" class="node">
<title>Node6</title>
<g id="a_node6"><a xlink:title=" ">
<polygon fill="none" stroke="#bfbfbf" points="60.5,-0.5 60.5,-19.5 107.5,-19.5 107.5,-0.5 60.5,-0.5"/>
<text text-anchor="middle" x="84" y="-7.5" font-family="Helvetica,sans-Serif" font-size="10.00">deque</text>
</a>
</g>
</g>
<!-- Node3&#45;&gt;Node6 -->
<g id="edge5" class="edge">
<title>Node3&#45;&gt;Node6</title>
<path fill="none" stroke="midnightblue" d="M508.96,-113.81C505.95,-113.14 502.92,-112.52 500,-112 349.93,-85.45 298.79,-136.7 159,-76 133.93,-65.11 111.13,-42.76 97.42,-27.33"/>
<polygon fill="midnightblue" stroke="midnightblue" points="99.94,-24.9 90.77,-19.59 94.63,-29.46 99.94,-24.9"/>
</g>
<!-- Node7 -->
<g id="node7" class="node">
<title>Node7</title>
<g id="a_node7"><a xlink:title=" ">
<polygon fill="none" stroke="#bfbfbf" points="427,-56.5 427,-75.5 485,-75.5 485,-56.5 427,-56.5"/>
<text text-anchor="middle" x="456" y="-63.5" font-family="Helvetica,sans-Serif" font-size="10.00">memory</text>
</a>
</g>
</g>
<!-- Node3&#45;&gt;Node7 -->
<g id="edge6" class="edge">
<title>Node3&#45;&gt;Node7</title>
<path fill="none" stroke="midnightblue" d="M523.15,-112.32C510.78,-103.98 491.87,-91.21 477.26,-81.35"/>
<polygon fill="midnightblue" stroke="midnightblue" points="479.07,-78.35 468.82,-75.65 475.15,-84.15 479.07,-78.35"/>
</g>
<!-- Node8 -->
<g id="node8" class="node">
<title>Node8</title>
<g id="a_node8"><a xlink:title=" ">
<polygon fill="none" stroke="#bfbfbf" points="503.5,-56.5 503.5,-75.5 568.5,-75.5 568.5,-56.5 503.5,-56.5"/>
<text text-anchor="middle" x="536" y="-63.5" font-family="Helvetica,sans-Serif" font-size="10.00">stdexcept</text>
</a>
</g>
</g>
<!-- Node3&#45;&gt;Node8 -->
<g id="edge7" class="edge">
<title>Node3&#45;&gt;Node8</title>
<path fill="none" stroke="midnightblue" d="M536,-112.08C536,-105.01 536,-94.86 536,-85.99"/>
<polygon fill="midnightblue" stroke="midnightblue" points="539.5,-85.75 536,-75.75 532.5,-85.75 539.5,-85.75"/>
</g>
<!-- Node9 -->
<g id="node9" class="node">
<title>Node9</title>
<g id="a_node9"><a xlink:title=" ">
<polygon fill="none" stroke="#bfbfbf" points="587,-56.5 587,-75.5 631,-75.5 631,-56.5 587,-56.5"/>
<text text-anchor="middle" x="609" y="-63.5" font-family="Helvetica,sans-Serif" font-size="10.00">string</text>
</a>
</g>
</g>
<!-- Node3&#45;&gt;Node9 -->
<g id="edge8" class="edge">
<title>Node3&#45;&gt;Node9</title>
<path fill="none" stroke="midnightblue" d="M547.73,-112.32C558.84,-104.11 575.74,-91.6 588.98,-81.81"/>
<polygon fill="midnightblue" stroke="midnightblue" points="591.1,-84.59 597.06,-75.83 586.94,-78.97 591.1,-84.59"/>
</g>
<!-- Node10 -->
<g id="node10" class="node">
<title>Node10</title>
<g id="a_node10"><a xlink:title=" ">
<polygon fill="none" stroke="#bfbfbf" points="125.5,-0.5 125.5,-19.5 172.5,-19.5 172.5,-0.5 125.5,-0.5"/>
<text text-anchor="middle" x="149" y="-7.5" font-family="Helvetica,sans-Serif" font-size="10.00">vector</text>
</a>
</g>
</g>
<!-- Node3&#45;&gt;Node10 -->
<g id="edge9" class="edge">
<title>Node3&#45;&gt;Node10</title>
<path fill="none" stroke="midnightblue" d="M508.96,-113.83C505.95,-113.15 502.92,-112.53 500,-112 429.14,-99.24 236.13,-118.49 178,-76 163.21,-65.19 155.83,-45.11 152.23,-30.12"/>
<polygon fill="midnightblue" stroke="midnightblue" points="155.57,-28.99 150.16,-19.88 148.71,-30.38 155.57,-28.99"/>
</g>
<!-- Node11 -->
<g id="node11" class="node">
<title>Node11</title>
<g id="a_node11"><a xlink:href="champsim_8h.html" target="_top" xlink:title=" ">
<polygon fill="none" stroke="black" points="269.5,-56.5 269.5,-75.5 346.5,-75.5 346.5,-56.5 269.5,-56.5"/>
<text text-anchor="middle" x="308" y="-63.5" font-family="Helvetica,sans-Serif" font-size="10.00">champsim.h</text>
</a>
</g>
</g>
<!-- Node3&#45;&gt;Node11 -->
<g id="edge10" class="edge">
<title>Node3&#45;&gt;Node11</title>
<path fill="none" stroke="midnightblue" d="M508.88,-114.18C505.89,-113.43 502.88,-112.7 500,-112 450.67,-100.05 394.08,-86.85 355.19,-77.86"/>
<polygon fill="midnightblue" stroke="midnightblue" points="355.74,-74.39 345.2,-75.55 354.16,-81.21 355.74,-74.39"/>
</g>
<!-- Node14 -->
<g id="node14" class="node">
<title>Node14</title>
<g id="a_node14"><a xlink:title=" ">
<polygon fill="none" stroke="#bfbfbf" points="649.5,-56.5 649.5,-75.5 778.5,-75.5 778.5,-56.5 649.5,-56.5"/>
<text text-anchor="middle" x="714" y="-63.5" font-family="Helvetica,sans-Serif" font-size="10.00">champsim_constants.h</text>
</a>
</g>
</g>
<!-- Node3&#45;&gt;Node14 -->
<g id="edge13" class="edge">
<title>Node3&#45;&gt;Node14</title>
<path fill="none" stroke="midnightblue" d="M563.03,-112.8C593.22,-103.64 642.28,-88.76 676.24,-78.45"/>
<polygon fill="midnightblue" stroke="midnightblue" points="677.27,-81.8 685.83,-75.55 675.24,-75.1 677.27,-81.8"/>
</g>
<!-- Node15 -->
<g id="node15" class="node">
<title>Node15</title>
<g id="a_node15"><a xlink:href="channel_8h.html" target="_top" xlink:title=" ">
<polygon fill="none" stroke="black" points="187,-56.5 187,-75.5 251,-75.5 251,-56.5 187,-56.5"/>
<text text-anchor="middle" x="219" y="-63.5" font-family="Helvetica,sans-Serif" font-size="10.00">channel.h</text>
</a>
</g>
</g>
<!-- Node3&#45;&gt;Node15 -->
<g id="edge14" class="edge">
<title>Node3&#45;&gt;Node15</title>
<path fill="none" stroke="midnightblue" d="M508.94,-113.94C505.93,-113.24 502.91,-112.58 500,-112 397.32,-91.51 367.79,-95.32 261.07,-76.09"/>
<polygon fill="midnightblue" stroke="midnightblue" points="261.65,-72.64 251.19,-74.28 260.39,-79.52 261.65,-72.64"/>
</g>
<!-- Node19 -->
<g id="node19" class="node">
<title>Node19</title>
<g id="a_node19"><a xlink:href="module__impl_8h.html" target="_top" xlink:title=" ">
<polygon fill="none" stroke="black" points="796.5,-56.5 796.5,-75.5 885.5,-75.5 885.5,-56.5 796.5,-56.5"/>
<text text-anchor="middle" x="841" y="-63.5" font-family="Helvetica,sans-Serif" font-size="10.00">module_impl.h</text>
</a>
</g>
</g>
<!-- Node3&#45;&gt;Node19 -->
<g id="edge22" class="edge">
<title>Node3&#45;&gt;Node19</title>
<path fill="none" stroke="midnightblue" d="M563.07,-116.21C613.02,-107.36 720.61,-88.32 786.3,-76.68"/>
<polygon fill="midnightblue" stroke="midnightblue" points="787.23,-80.07 796.47,-74.88 786.01,-73.18 787.23,-80.07"/>
</g>
<!-- Node20 -->
<g id="node20" class="node">
<title>Node20</title>
<g id="a_node20"><a xlink:href="operable_8h.html" target="_top" xlink:title=" ">
<polygon fill="none" stroke="black" points="904,-56.5 904,-75.5 972,-75.5 972,-56.5 904,-56.5"/>
<text text-anchor="middle" x="938" y="-63.5" font-family="Helvetica,sans-Serif" font-size="10.00">operable.h</text>
</a>
</g>
</g>
<!-- Node3&#45;&gt;Node20 -->
<g id="edge23" class="edge">
<title>Node3&#45;&gt;Node20</title>
<path fill="none" stroke="midnightblue" d="M563.13,-118.36C621.64,-112.52 764.22,-97.39 893.69,-76.1"/>
<polygon fill="midnightblue" stroke="midnightblue" points="894.49,-79.52 903.78,-74.43 893.34,-72.61 894.49,-79.52"/>
</g>
<!-- Node21 -->
<g id="node21" class="node">
<title>Node21</title>
<g id="a_node21"><a xlink:title=" ">
<polygon fill="none" stroke="#bfbfbf" points="990.5,-56.5 990.5,-75.5 1059.5,-75.5 1059.5,-56.5 990.5,-56.5"/>
<text text-anchor="middle" x="1025" y="-63.5" font-family="Helvetica,sans-Serif" font-size="10.00">type_traits</text>
</a>
</g>
</g>
<!-- Node3&#45;&gt;Node21 -->
<g id="edge24" class="edge">
<title>Node3&#45;&gt;Node21</title>
<path fill="none" stroke="midnightblue" d="M563.21,-119.21C631.51,-114.51 815.86,-100.58 980.18,-75.97"/>
<polygon fill="midnightblue" stroke="midnightblue" points="981.11,-79.36 990.47,-74.41 980.06,-72.44 981.11,-79.36"/>
</g>
<!-- Node22 -->
<g id="node22" class="node">
<title>Node22</title>
<g id="a_node22"><a xlink:title=" ">
<polygon fill="none" stroke="#bfbfbf" points="1078,-56.5 1078,-75.5 1208,-75.5 1208,-56.5 1078,-56.5"/>
<text text-anchor="middle" x="1143" y="-63.5" font-family="Helvetica,sans-Serif" font-size="10.00">cache_module_decl.inc</text>
</a>
</g>
</g>
<!-- Node3&#45;&gt;Node22 -->
<g id="edge25" class="edge">
<title>Node3&#45;&gt;Node22</title>
<path fill="none" stroke="midnightblue" d="M563.21,-119.06C640.44,-113.47 867.76,-96.51 1067.55,-76.12"/>
<polygon fill="midnightblue" stroke="midnightblue" points="1068.05,-79.58 1077.64,-75.08 1067.34,-72.62 1068.05,-79.58"/>
</g>
<!-- Node23 -->
<g id="node23" class="node">
<title>Node23</title>
<g id="a_node23"><a xlink:title=" ">
<polygon fill="none" stroke="#bfbfbf" points="1226.5,-56.5 1226.5,-75.5 1351.5,-75.5 1351.5,-56.5 1226.5,-56.5"/>
<text text-anchor="middle" x="1289" y="-63.5" font-family="Helvetica,sans-Serif" font-size="10.00">cache_module_def.inc</text>
</a>
</g>
</g>
<!-- Node3&#45;&gt;Node23 -->
<g id="edge26" class="edge">
<title>Node3&#45;&gt;Node23</title>
<path fill="none" stroke="midnightblue" d="M563.29,-119.77C654.27,-115.55 955.62,-100.59 1216.17,-76.02"/>
<polygon fill="midnightblue" stroke="midnightblue" points="1216.57,-79.5 1226.2,-75.07 1215.91,-72.53 1216.57,-79.5"/>
</g>
<!-- Node12 -->
<g id="node12" class="node">
<title>Node12</title>
<g id="a_node12"><a xlink:title=" ">
<polygon fill="none" stroke="#bfbfbf" points="428,-0.5 428,-19.5 478,-19.5 478,-0.5 428,-0.5"/>
<text text-anchor="middle" x="453" y="-7.5" font-family="Helvetica,sans-Serif" font-size="10.00">cstdint</text>
</a>
</g>
</g>
<!-- Node11&#45;&gt;Node12 -->
<g id="edge11" class="edge">
<title>Node11&#45;&gt;Node12</title>
<path fill="none" stroke="midnightblue" d="M330.98,-56.44C355.16,-47.44 393.42,-33.19 420.65,-23.05"/>
<polygon fill="midnightblue" stroke="midnightblue" points="421.98,-26.29 430.13,-19.52 419.54,-19.73 421.98,-26.29"/>
</g>
<!-- Node13 -->
<g id="node13" class="node">
<title>Node13</title>
<g id="a_node13"><a xlink:title=" ">
<polygon fill="none" stroke="#bfbfbf" points="496.5,-0.5 496.5,-19.5 561.5,-19.5 561.5,-0.5 496.5,-0.5"/>
<text text-anchor="middle" x="529" y="-7.5" font-family="Helvetica,sans-Serif" font-size="10.00">exception</text>
</a>
</g>
</g>
<!-- Node11&#45;&gt;Node13 -->
<g id="edge12" class="edge">
<title>Node11&#45;&gt;Node13</title>
<path fill="none" stroke="midnightblue" d="M343.02,-56.44C381.92,-46.94 444.74,-31.59 486.45,-21.4"/>
<polygon fill="midnightblue" stroke="midnightblue" points="487.42,-24.76 496.31,-18.99 485.76,-17.96 487.42,-24.76"/>
</g>
<!-- Node15&#45;&gt;Node4 -->
<g id="edge15" class="edge">
<title>Node15&#45;&gt;Node4</title>
<path fill="none" stroke="midnightblue" d="M186.72,-56.66C154.82,-48.35 104.4,-35.03 52.07,-20.25"/>
<polygon fill="midnightblue" stroke="midnightblue" points="52.86,-16.83 42.28,-17.47 50.95,-23.57 52.86,-16.83"/>
</g>
<!-- Node15&#45;&gt;Node6 -->
<g id="edge17" class="edge">
<title>Node15&#45;&gt;Node6</title>
<path fill="none" stroke="midnightblue" d="M197.61,-56.44C175.29,-47.52 140.1,-33.44 114.79,-23.32"/>
<polygon fill="midnightblue" stroke="midnightblue" points="115.88,-19.98 105.29,-19.52 113.28,-26.48 115.88,-19.98"/>
</g>
<!-- Node15&#45;&gt;Node10 -->
<g id="edge20" class="edge">
<title>Node15&#45;&gt;Node10</title>
<path fill="none" stroke="midnightblue" d="M207.75,-56.32C197.2,-48.18 181.2,-35.84 168.56,-26.09"/>
<polygon fill="midnightblue" stroke="midnightblue" points="170.51,-23.17 160.45,-19.83 166.23,-28.71 170.51,-23.17"/>
</g>
<!-- Node15&#45;&gt;Node12 -->
<g id="edge16" class="edge">
<title>Node15&#45;&gt;Node12</title>
<path fill="none" stroke="midnightblue" d="M251.19,-57.91C295.68,-48.09 374.58,-30.58 418.04,-20.15"/>
<polygon fill="midnightblue" stroke="midnightblue" points="418.88,-23.55 427.78,-17.79 417.23,-16.75 418.88,-23.55"/>
</g>
<!-- Node16 -->
<g id="node16" class="node">
<title>Node16</title>
<g id="a_node16"><a xlink:title=" ">
<polygon fill="none" stroke="#bfbfbf" points="190.5,-0.5 190.5,-19.5 255.5,-19.5 255.5,-0.5 190.5,-0.5"/>
<text text-anchor="middle" x="223" y="-7.5" font-family="Helvetica,sans-Serif" font-size="10.00">functional</text>
</a>
</g>
</g>
<!-- Node15&#45;&gt;Node16 -->
<g id="edge18" class="edge">
<title>Node15&#45;&gt;Node16</title>
<path fill="none" stroke="midnightblue" d="M219.66,-56.08C220.18,-49.01 220.94,-38.86 221.59,-29.99"/>
<polygon fill="midnightblue" stroke="midnightblue" points="225.1,-29.98 222.35,-19.75 218.12,-29.47 225.1,-29.98"/>
</g>
<!-- Node17 -->
<g id="node17" class="node">
<title>Node17</title>
<g id="a_node17"><a xlink:title=" ">
<polygon fill="none" stroke="#bfbfbf" points="274,-0.5 274,-19.5 318,-19.5 318,-0.5 274,-0.5"/>
<text text-anchor="middle" x="296" y="-7.5" font-family="Helvetica,sans-Serif" font-size="10.00">limits</text>
</a>
</g>
</g>
<!-- Node15&#45;&gt;Node17 -->
<g id="edge19" class="edge">
<title>Node15&#45;&gt;Node17</title>
<path fill="none" stroke="midnightblue" d="M231.37,-56.32C243.16,-48.06 261.13,-35.45 275.14,-25.63"/>
<polygon fill="midnightblue" stroke="midnightblue" points="277.48,-28.26 283.66,-19.65 273.46,-22.53 277.48,-28.26"/>
</g>
<!-- Node18 -->
<g id="node18" class="node">
<title>Node18</title>
<g id="a_node18"><a xlink:title=" ">
<polygon fill="none" stroke="#bfbfbf" points="336.5,-0.5 336.5,-19.5 409.5,-19.5 409.5,-0.5 336.5,-0.5"/>
<text text-anchor="middle" x="373" y="-7.5" font-family="Helvetica,sans-Serif" font-size="10.00">string_view</text>
</a>
</g>
</g>
<!-- Node15&#45;&gt;Node18 -->
<g id="edge21" class="edge">
<title>Node15&#45;&gt;Node18</title>
<path fill="none" stroke="midnightblue" d="M243.4,-56.44C269.2,-47.4 310.08,-33.06 339.02,-22.92"/>
<polygon fill="midnightblue" stroke="midnightblue" points="340.43,-26.13 348.71,-19.52 338.12,-19.52 340.43,-26.13"/>
</g>
</g>
</svg>
