<?xml version="1.0" encoding="UTF-8" standalone="no"?>
<!DOCTYPE svg PUBLIC "-//W3C//DTD SVG 1.1//EN"
 "http://www.w3.org/Graphics/SVG/1.1/DTD/svg11.dtd">
<!-- Generated by graphviz version 2.43.0 (0)
 -->
<!-- Title: inc/ooo_cpu.h Pages: 1 -->
<svg width="5829pt" height="173pt"
 viewBox="0.00 0.00 5828.50 173.00" xmlns="http://www.w3.org/2000/svg" xmlns:xlink="http://www.w3.org/1999/xlink">
<g id="graph0" class="graph" transform="scale(1 1) rotate(0) translate(4 169)">
<title>inc/ooo_cpu.h</title>
<!-- Node1 -->
<g id="node1" class="node">
<title>Node1</title>
<g id="a_node1"><a xlink:title=" ">
<polygon fill="#bfbfbf" stroke="black" points="1197,-145.5 1197,-164.5 1280,-164.5 1280,-145.5 1197,-145.5"/>
<text text-anchor="middle" x="1238.5" y="-152.5" font-family="Helvetica,sans-Serif" font-size="10.00">inc/ooo_cpu.h</text>
</a>
</g>
</g>
<!-- Node2 -->
<g id="node2" class="node">
<title>Node2</title>
<g id="a_node2"><a xlink:href="bimodal_8cc.html" target="_top" xlink:title=" ">
<polygon fill="none" stroke="black" points="0,-84 0,-103 149,-103 149,-84 0,-84"/>
<text text-anchor="middle" x="74.5" y="-91" font-family="Helvetica,sans-Serif" font-size="10.00">branch/bimodal/bimodal.cc</text>
</a>
</g>
</g>
<!-- Node1&#45;&gt;Node2 -->
<g id="edge1" class="edge">
<title>Node1&#45;&gt;Node2</title>
<path fill="none" stroke="midnightblue" d="M1186.62,-154.25C1030.52,-154.49 551.6,-151.44 157.5,-109 144.27,-107.57 129.95,-105.33 117,-103.03"/>
<polygon fill="midnightblue" stroke="midnightblue" points="1186.88,-157.75 1196.87,-154.23 1186.86,-150.75 1186.88,-157.75"/>
</g>
<!-- Node3 -->
<g id="node3" class="node">
<title>Node3</title>
<g id="a_node3"><a xlink:href="gshare_8cc.html" target="_top" xlink:title=" ">
<polygon fill="none" stroke="black" points="167,-84 167,-103 302,-103 302,-84 167,-84"/>
<text text-anchor="middle" x="234.5" y="-91" font-family="Helvetica,sans-Serif" font-size="10.00">branch/gshare/gshare.cc</text>
</a>
</g>
</g>
<!-- Node1&#45;&gt;Node3 -->
<g id="edge2" class="edge">
<title>Node1&#45;&gt;Node3</title>
<path fill="none" stroke="midnightblue" d="M1186.66,-153.98C1045.61,-153.38 643.24,-148.1 311.5,-109 299.21,-107.55 285.92,-105.3 273.91,-103"/>
<polygon fill="midnightblue" stroke="midnightblue" points="1186.74,-157.48 1196.75,-154.02 1186.77,-150.48 1186.74,-157.48"/>
</g>
<!-- Node4 -->
<g id="node4" class="node">
<title>Node4</title>
<g id="a_node4"><a xlink:href="hashed__perceptron_8cc.html" target="_top" xlink:title=" ">
<polygon fill="none" stroke="black" points="320.5,-78.5 320.5,-108.5 466.5,-108.5 466.5,-78.5 320.5,-78.5"/>
<text text-anchor="start" x="328.5" y="-96.5" font-family="Helvetica,sans-Serif" font-size="10.00">branch/hashed_perceptron</text>
<text text-anchor="middle" x="393.5" y="-85.5" font-family="Helvetica,sans-Serif" font-size="10.00">/hashed_perceptron.cc</text>
</a>
</g>
</g>
<!-- Node1&#45;&gt;Node4 -->
<g id="edge3" class="edge">
<title>Node1&#45;&gt;Node4</title>
<path fill="none" stroke="midnightblue" d="M1186.71,-153.02C1063.22,-150.23 741.86,-140.3 475.5,-109 472.63,-108.66 469.7,-108.29 466.76,-107.89"/>
<polygon fill="midnightblue" stroke="midnightblue" points="1186.92,-156.52 1197,-153.24 1187.08,-149.53 1186.92,-156.52"/>
</g>
<!-- Node5 -->
<g id="node5" class="node">
<title>Node5</title>
<g id="a_node5"><a xlink:href="perceptron_8cc.html" target="_top" xlink:title=" ">
<polygon fill="none" stroke="black" points="484.5,-84 484.5,-103 658.5,-103 658.5,-84 484.5,-84"/>
<text text-anchor="middle" x="571.5" y="-91" font-family="Helvetica,sans-Serif" font-size="10.00">branch/perceptron/perceptron.cc</text>
</a>
</g>
</g>
<!-- Node1&#45;&gt;Node5 -->
<g id="edge4" class="edge">
<title>Node1&#45;&gt;Node5</title>
<path fill="none" stroke="midnightblue" d="M1186.67,-151.16C1086.27,-145.37 858.33,-130.9 667.5,-109 653.1,-107.35 637.54,-105.17 623.23,-103"/>
<polygon fill="midnightblue" stroke="midnightblue" points="1186.66,-154.66 1196.85,-151.74 1187.06,-147.67 1186.66,-154.66"/>
</g>
<!-- Node6 -->
<g id="node6" class="node">
<title>Node6</title>
<g id="a_node6"><a xlink:href="tage__sc__l_8cc.html" target="_top" xlink:title=" ">
<polygon fill="none" stroke="black" points="677,-78.5 677,-108.5 800,-108.5 800,-78.5 677,-78.5"/>
<text text-anchor="start" x="685" y="-96.5" font-family="Helvetica,sans-Serif" font-size="10.00">branch/tage_sc_l/tage</text>
<text text-anchor="middle" x="738.5" y="-85.5" font-family="Helvetica,sans-Serif" font-size="10.00">_sc_l.cc</text>
</a>
</g>
</g>
<!-- Node1&#45;&gt;Node6 -->
<g id="edge5" class="edge">
<title>Node1&#45;&gt;Node6</title>
<path fill="none" stroke="midnightblue" d="M1186.52,-149.88C1106.4,-143.21 948,-128.78 814.5,-109 809.85,-108.31 805.05,-107.54 800.23,-106.72"/>
<polygon fill="midnightblue" stroke="midnightblue" points="1186.57,-153.4 1196.83,-150.73 1187.15,-146.42 1186.57,-153.4"/>
</g>
<!-- Node7 -->
<g id="node7" class="node">
<title>Node7</title>
<g id="a_node7"><a xlink:href="target__predictor_8cc.html" target="_top" xlink:title=" ">
<polygon fill="none" stroke="black" points="491.5,-6 491.5,-36 627.5,-36 627.5,-6 491.5,-6"/>
<text text-anchor="start" x="499.5" y="-24" font-family="Helvetica,sans-Serif" font-size="10.00">btb/advanced_btb/target</text>
<text text-anchor="middle" x="559.5" y="-13" font-family="Helvetica,sans-Serif" font-size="10.00">_predictor.cc</text>
</a>
</g>
</g>
<!-- Node1&#45;&gt;Node7 -->
<g id="edge6" class="edge">
<title>Node1&#45;&gt;Node7</title>
<path fill="none" stroke="midnightblue" d="M1186.49,-151.56C1094.61,-146.66 907.59,-133.92 847.5,-109 827.05,-100.52 828.54,-87.41 808.5,-78 737.8,-44.81 712.54,-59.82 636.5,-42 628.7,-40.17 620.48,-38.15 612.44,-36.1"/>
<polygon fill="midnightblue" stroke="midnightblue" points="1186.51,-155.06 1196.67,-152.09 1186.87,-148.07 1186.51,-155.06"/>
</g>
<!-- Node8 -->
<g id="node8" class="node">
<title>Node8</title>
<g id="a_node8"><a xlink:href="basic__btb_8cc.html" target="_top" xlink:title=" ">
<polygon fill="none" stroke="black" points="1043.5,-78.5 1043.5,-108.5 1153.5,-108.5 1153.5,-78.5 1043.5,-78.5"/>
<text text-anchor="start" x="1051.5" y="-96.5" font-family="Helvetica,sans-Serif" font-size="10.00">btb/basic_btb/basic</text>
<text text-anchor="middle" x="1098.5" y="-85.5" font-family="Helvetica,sans-Serif" font-size="10.00">_btb.cc</text>
</a>
</g>
</g>
<!-- Node1&#45;&gt;Node8 -->
<g id="edge7" class="edge">
<title>Node1&#45;&gt;Node8</title>
<path fill="none" stroke="midnightblue" d="M1209,-141.46C1186.32,-131.82 1155,-118.51 1131.5,-108.52"/>
<polygon fill="midnightblue" stroke="midnightblue" points="1207.87,-144.78 1218.44,-145.48 1210.61,-138.34 1207.87,-144.78"/>
</g>
<!-- Node9 -->
<g id="node9" class="node">
<title>Node9</title>
<g id="a_node9"><a xlink:href="basic__btb_8h.html" target="_top" xlink:title=" ">
<polygon fill="none" stroke="black" points="857,-84 857,-103 948,-103 948,-84 857,-84"/>
<text text-anchor="middle" x="902.5" y="-91" font-family="Helvetica,sans-Serif" font-size="10.00">btb/basic_btb.h</text>
</a>
</g>
</g>
<!-- Node1&#45;&gt;Node9 -->
<g id="edge8" class="edge">
<title>Node1&#45;&gt;Node9</title>
<path fill="none" stroke="midnightblue" d="M1186.51,-147.36C1129.7,-139.71 1036.15,-126 956.5,-109 948.53,-107.3 939.97,-105.15 932.07,-103.04"/>
<polygon fill="midnightblue" stroke="midnightblue" points="1186.3,-150.86 1196.68,-148.71 1187.23,-143.92 1186.3,-150.86"/>
</g>
<!-- Node10 -->
<g id="node10" class="node">
<title>Node10</title>
<g id="a_node10"><a xlink:href="ras_8h.html" target="_top" xlink:title=" ">
<polygon fill="none" stroke="black" points="966,-84 966,-103 1025,-103 1025,-84 966,-84"/>
<text text-anchor="middle" x="995.5" y="-91" font-family="Helvetica,sans-Serif" font-size="10.00">btb/ras.h</text>
</a>
</g>
</g>
<!-- Node1&#45;&gt;Node10 -->
<g id="edge10" class="edge">
<title>Node1&#45;&gt;Node10</title>
<path fill="none" stroke="midnightblue" d="M1186.76,-144.65C1145.22,-136.65 1085.6,-124.06 1034.5,-109 1028.68,-107.29 1022.48,-105.13 1016.78,-103.02"/>
<polygon fill="midnightblue" stroke="midnightblue" points="1186.18,-148.1 1196.66,-146.53 1187.49,-141.22 1186.18,-148.1"/>
</g>
<!-- Node11 -->
<g id="node11" class="node">
<title>Node11</title>
<g id="a_node11"><a xlink:href="defaults_8hpp.html" target="_top" xlink:title=" ">
<polygon fill="none" stroke="red" points="2930,-84 2930,-103 3025,-103 3025,-84 2930,-84"/>
<text text-anchor="middle" x="2977.5" y="-91" font-family="Helvetica,sans-Serif" font-size="10.00">inc/defaults.hpp</text>
</a>
</g>
</g>
<!-- Node1&#45;&gt;Node11 -->
<g id="edge12" class="edge">
<title>Node1&#45;&gt;Node11</title>
<path fill="none" stroke="midnightblue" d="M1290.38,-152.22C1547.5,-143.43 2682.74,-104.59 2929.89,-96.13"/>
<polygon fill="midnightblue" stroke="midnightblue" points="1290.07,-148.73 1280.2,-152.57 1290.31,-155.73 1290.07,-148.73"/>
</g>
<!-- Node12 -->
<g id="node12" class="node">
<title>Node12</title>
<g id="a_node12"><a xlink:href="140-single-dib-lookup_8cc.html" target="_top" xlink:title=" ">
<polygon fill="none" stroke="black" points="646,-6 646,-36 773,-36 773,-6 646,-6"/>
<text text-anchor="start" x="654" y="-24" font-family="Helvetica,sans-Serif" font-size="10.00">test/cpp/src/140&#45;single</text>
<text text-anchor="middle" x="709.5" y="-13" font-family="Helvetica,sans-Serif" font-size="10.00">&#45;dib&#45;lookup.cc</text>
</a>
</g>
</g>
<!-- Node1&#45;&gt;Node12 -->
<g id="edge55" class="edge">
<title>Node1&#45;&gt;Node12</title>
<path fill="none" stroke="midnightblue" d="M1223.04,-138C1201.94,-116.23 1166.28,-79.78 1162.5,-78 1009.01,-5.75 949.38,-72.53 782.5,-42 773.84,-40.42 764.71,-38.29 755.96,-36.02"/>
<polygon fill="midnightblue" stroke="midnightblue" points="1220.6,-140.51 1230.07,-145.26 1225.63,-135.64 1220.6,-140.51"/>
</g>
<!-- Node13 -->
<g id="node13" class="node">
<title>Node13</title>
<g id="a_node13"><a xlink:href="150-fetch-bandwidth_8cc.html" target="_top" xlink:title=" ">
<polygon fill="none" stroke="black" points="791.5,-6 791.5,-36 913.5,-36 913.5,-6 791.5,-6"/>
<text text-anchor="start" x="799.5" y="-24" font-family="Helvetica,sans-Serif" font-size="10.00">test/cpp/src/150&#45;fetch</text>
<text text-anchor="middle" x="852.5" y="-13" font-family="Helvetica,sans-Serif" font-size="10.00">&#45;bandwidth.cc</text>
</a>
</g>
</g>
<!-- Node1&#45;&gt;Node13 -->
<g id="edge56" class="edge">
<title>Node1&#45;&gt;Node13</title>
<path fill="none" stroke="midnightblue" d="M1233.35,-135.59C1227.34,-117.78 1215.58,-91.54 1195.5,-78 1094.05,-9.55 1042.33,-66.88 922.5,-42 914.58,-40.36 906.24,-38.28 898.2,-36.1"/>
<polygon fill="midnightblue" stroke="midnightblue" points="1230.01,-136.65 1236.31,-145.18 1236.7,-134.59 1230.01,-136.65"/>
</g>
<!-- Node14 -->
<g id="node14" class="node">
<title>Node14</title>
<g id="a_node14"><a xlink:href="165-basic-btb-no-evict-on-unknown-target_8cc.html" target="_top" xlink:title=" ">
<polygon fill="none" stroke="black" points="932,-0.5 932,-41.5 1075,-41.5 1075,-0.5 932,-0.5"/>
<text text-anchor="start" x="940" y="-29.5" font-family="Helvetica,sans-Serif" font-size="10.00">test/cpp/src/165&#45;basic</text>
<text text-anchor="start" x="940" y="-18.5" font-family="Helvetica,sans-Serif" font-size="10.00">&#45;btb&#45;no&#45;evict&#45;on&#45;unknown</text>
<text text-anchor="middle" x="1003.5" y="-7.5" font-family="Helvetica,sans-Serif" font-size="10.00">&#45;target.cc</text>
</a>
</g>
</g>
<!-- Node1&#45;&gt;Node14 -->
<g id="edge57" class="edge">
<title>Node1&#45;&gt;Node14</title>
<path fill="none" stroke="midnightblue" d="M1242.9,-135.44C1245.75,-118.5 1246.78,-93.76 1233.5,-78 1189.31,-25.58 1150.09,-58.31 1083.5,-42 1080.72,-41.32 1077.88,-40.62 1075.02,-39.92"/>
<polygon fill="midnightblue" stroke="midnightblue" points="1239.46,-134.78 1240.9,-145.28 1246.32,-136.18 1239.46,-134.78"/>
</g>
<!-- Node15 -->
<g id="node15" class="node">
<title>Node15</title>
<g id="a_node15"><a xlink:href="166-issue296-basic-btb-no-mispredict-on-not-taken_8cc.html" target="_top" xlink:title=" ">
<polygon fill="none" stroke="black" points="1093,-0.5 1093,-41.5 1234,-41.5 1234,-0.5 1093,-0.5"/>
<text text-anchor="start" x="1101" y="-29.5" font-family="Helvetica,sans-Serif" font-size="10.00">test/cpp/src/166&#45;issue296</text>
<text text-anchor="start" x="1101" y="-18.5" font-family="Helvetica,sans-Serif" font-size="10.00">&#45;basic&#45;btb&#45;no&#45;mispredict</text>
<text text-anchor="middle" x="1163.5" y="-7.5" font-family="Helvetica,sans-Serif" font-size="10.00">&#45;on&#45;not&#45;taken.cc</text>
</a>
</g>
</g>
<!-- Node1&#45;&gt;Node15 -->
<g id="edge58" class="edge">
<title>Node1&#45;&gt;Node15</title>
<path fill="none" stroke="midnightblue" d="M1254.4,-137.77C1267.89,-121.94 1283.34,-97.47 1271.5,-78 1261.63,-61.76 1245.35,-50.01 1228.38,-41.61"/>
<polygon fill="midnightblue" stroke="midnightblue" points="1251.79,-135.43 1247.67,-145.19 1256.98,-140.13 1251.79,-135.43"/>
</g>
<!-- Node16 -->
<g id="node16" class="node">
<title>Node16</title>
<g id="a_node16"><a xlink:href="200-rob-scheduling_8cc.html" target="_top" xlink:title=" ">
<polygon fill="none" stroke="black" points="1252,-6 1252,-36 1365,-36 1365,-6 1252,-6"/>
<text text-anchor="start" x="1260" y="-24" font-family="Helvetica,sans-Serif" font-size="10.00">test/cpp/src/200&#45;rob</text>
<text text-anchor="middle" x="1308.5" y="-13" font-family="Helvetica,sans-Serif" font-size="10.00">&#45;scheduling.cc</text>
</a>
</g>
</g>
<!-- Node1&#45;&gt;Node16 -->
<g id="edge59" class="edge">
<title>Node1&#45;&gt;Node16</title>
<path fill="none" stroke="midnightblue" d="M1273.1,-140.92C1287.01,-133.75 1301.61,-123.34 1309.5,-109 1322.1,-86.1 1317.21,-54.42 1312.72,-36.29"/>
<polygon fill="midnightblue" stroke="midnightblue" points="1271.21,-137.94 1263.66,-145.38 1274.2,-144.27 1271.21,-137.94"/>
</g>
<!-- Node17 -->
<g id="node17" class="node">
<title>Node17</title>
<g id="a_node17"><a xlink:href="300-retire-from-rob_8cc.html" target="_top" xlink:title=" ">
<polygon fill="none" stroke="black" points="1383.5,-6 1383.5,-36 1507.5,-36 1507.5,-6 1383.5,-6"/>
<text text-anchor="start" x="1391.5" y="-24" font-family="Helvetica,sans-Serif" font-size="10.00">test/cpp/src/300&#45;retire</text>
<text text-anchor="middle" x="1445.5" y="-13" font-family="Helvetica,sans-Serif" font-size="10.00">&#45;from&#45;rob.cc</text>
</a>
</g>
</g>
<!-- Node1&#45;&gt;Node17 -->
<g id="edge60" class="edge">
<title>Node1&#45;&gt;Node17</title>
<path fill="none" stroke="midnightblue" d="M1267.03,-141.08C1284.82,-132.65 1307.97,-121.02 1327.5,-109 1365,-85.92 1405.7,-54.3 1428.16,-36.23"/>
<polygon fill="midnightblue" stroke="midnightblue" points="1265.33,-138.01 1257.75,-145.41 1268.29,-144.35 1265.33,-138.01"/>
</g>
<!-- Node47 -->
<g id="node45" class="node">
<title>Node47</title>
<g id="a_node45"><a xlink:href="900-btb-bounds-check_8cc.html" target="_top" xlink:title=" ">
<polygon fill="none" stroke="black" points="5469,-6 5469,-36 5582,-36 5582,-6 5469,-6"/>
<text text-anchor="start" x="5477" y="-24" font-family="Helvetica,sans-Serif" font-size="10.00">test/cpp/src/900&#45;btb</text>
<text text-anchor="middle" x="5525.5" y="-13" font-family="Helvetica,sans-Serif" font-size="10.00">&#45;bounds&#45;check.cc</text>
</a>
</g>
</g>
<!-- Node1&#45;&gt;Node47 -->
<g id="edge61" class="edge">
<title>Node1&#45;&gt;Node47</title>
<path fill="none" stroke="midnightblue" d="M1290.27,-152.75C1504.62,-147.57 2343.65,-127.17 3033.5,-109 3303.06,-101.9 5193.33,-85.21 5459.5,-42 5468.01,-40.62 5476.95,-38.43 5485.41,-36"/>
<polygon fill="midnightblue" stroke="midnightblue" points="1290.16,-149.25 1280.25,-152.99 1290.33,-156.25 1290.16,-149.25"/>
</g>
<!-- Node48 -->
<g id="node46" class="node">
<title>Node48</title>
<g id="a_node46"><a xlink:href="environment_8h.html" target="_top" xlink:title=" ">
<polygon fill="none" stroke="black" points="5183,-84 5183,-103 5288,-103 5288,-84 5183,-84"/>
<text text-anchor="middle" x="5235.5" y="-91" font-family="Helvetica,sans-Serif" font-size="10.00">inc/environment.h</text>
</a>
</g>
</g>
<!-- Node1&#45;&gt;Node48 -->
<g id="edge47" class="edge">
<title>Node1&#45;&gt;Node48</title>
<path fill="none" stroke="midnightblue" d="M1290.36,-153.9C1615.88,-153.14 3410.69,-147.34 4873.5,-109 4983.53,-106.12 5112.29,-100.4 5182.76,-97.07"/>
<polygon fill="midnightblue" stroke="midnightblue" points="1290.27,-150.4 1280.28,-153.92 1290.29,-157.4 1290.27,-150.4"/>
</g>
<!-- Node49 -->
<g id="node47" class="node">
<title>Node49</title>
<g id="a_node47"><a xlink:href="champsim_8cc.html" target="_top" xlink:title=" ">
<polygon fill="none" stroke="black" points="5600.5,-11.5 5600.5,-30.5 5698.5,-30.5 5698.5,-11.5 5600.5,-11.5"/>
<text text-anchor="middle" x="5649.5" y="-18.5" font-family="Helvetica,sans-Serif" font-size="10.00">src/champsim.cc</text>
</a>
</g>
</g>
<!-- Node1&#45;&gt;Node49 -->
<g id="edge53" class="edge">
<title>Node1&#45;&gt;Node49</title>
<path fill="none" stroke="midnightblue" d="M1290.29,-153.54C1560.42,-151.06 2835.06,-138.26 3877.5,-109 4068.01,-103.65 5404.18,-77.16 5591.5,-42 5604.48,-39.56 5618.49,-34.79 5629.49,-30.52"/>
<polygon fill="midnightblue" stroke="midnightblue" points="1289.98,-150.04 1280.01,-153.64 1290.04,-157.04 1289.98,-150.04"/>
</g>
<!-- Node50 -->
<g id="node48" class="node">
<title>Node50</title>
<g id="a_node48"><a xlink:href="phase__info_8h.html" target="_top" xlink:title=" ">
<polygon fill="none" stroke="red" points="5453.5,-84 5453.5,-103 5549.5,-103 5549.5,-84 5453.5,-84"/>
<text text-anchor="middle" x="5501.5" y="-91" font-family="Helvetica,sans-Serif" font-size="10.00">inc/phase_info.h</text>
</a>
</g>
</g>
<!-- Node1&#45;&gt;Node50 -->
<g id="edge49" class="edge">
<title>Node1&#45;&gt;Node50</title>
<path fill="none" stroke="midnightblue" d="M1290.28,-153.85C1702.9,-152.6 4463.54,-143.05 5296.5,-109 5350.33,-106.8 5411.98,-102.15 5453.5,-98.71"/>
<polygon fill="midnightblue" stroke="midnightblue" points="1290.13,-150.35 1280.14,-153.88 1290.15,-157.35 1290.13,-150.35"/>
</g>
<!-- Node51 -->
<g id="node49" class="node">
<title>Node51</title>
<g id="a_node49"><a xlink:href="stats__printer_8h.html" target="_top" xlink:title=" ">
<polygon fill="none" stroke="red" points="5716.5,-11.5 5716.5,-30.5 5820.5,-30.5 5820.5,-11.5 5716.5,-11.5"/>
<text text-anchor="middle" x="5768.5" y="-18.5" font-family="Helvetica,sans-Serif" font-size="10.00">inc/stats_printer.h</text>
</a>
</g>
</g>
<!-- Node1&#45;&gt;Node51 -->
<g id="edge52" class="edge">
<title>Node1&#45;&gt;Node51</title>
<path fill="none" stroke="midnightblue" d="M1290.3,-153.94C1771.98,-153.3 5453.05,-147.18 5558.5,-109 5578.99,-101.58 5577.36,-88.43 5596.5,-78 5642.04,-53.18 5658.19,-58.08 5707.5,-42 5718.94,-38.27 5731.59,-34.13 5742.38,-30.58"/>
<polygon fill="midnightblue" stroke="midnightblue" points="1290.16,-150.44 1280.16,-153.95 1290.17,-157.44 1290.16,-150.44"/>
</g>
<!-- Node55 -->
<g id="node50" class="node">
<title>Node55</title>
<g id="a_node50"><a xlink:href="ooo__cpu_8cc.html" target="_top" xlink:title=" ">
<polygon fill="none" stroke="black" points="5605.5,-84 5605.5,-103 5693.5,-103 5693.5,-84 5605.5,-84"/>
<text text-anchor="middle" x="5649.5" y="-91" font-family="Helvetica,sans-Serif" font-size="10.00">src/ooo_cpu.cc</text>
</a>
</g>
</g>
<!-- Node1&#45;&gt;Node55 -->
<g id="edge54" class="edge">
<title>Node1&#45;&gt;Node55</title>
<path fill="none" stroke="midnightblue" d="M1290.28,-153.81C1766.23,-152.05 5367.51,-137.75 5591.5,-109 5601.28,-107.74 5611.79,-105.42 5621.14,-103"/>
<polygon fill="midnightblue" stroke="midnightblue" points="1290.25,-150.31 1280.26,-153.85 1290.27,-157.31 1290.25,-150.31"/>
</g>
<!-- Node9&#45;&gt;Node7 -->
<g id="edge9" class="edge">
<title>Node9&#45;&gt;Node7</title>
<path fill="none" stroke="midnightblue" d="M859.07,-81.66C853.51,-80.37 847.88,-79.12 842.5,-78 751.5,-59.07 727.33,-61.7 636.5,-42 628.27,-40.21 619.58,-38.14 611.14,-36.03"/>
<polygon fill="midnightblue" stroke="midnightblue" points="858.41,-85.1 868.95,-83.99 860.02,-78.28 858.41,-85.1"/>
</g>
<!-- Node10&#45;&gt;Node7 -->
<g id="edge11" class="edge">
<title>Node10&#45;&gt;Node7</title>
<path fill="none" stroke="midnightblue" d="M965.63,-80.56C962.57,-79.59 959.5,-78.71 956.5,-78 817.28,-44.82 777.23,-68.06 636.5,-42 627.67,-40.37 618.36,-38.27 609.39,-36.06"/>
<polygon fill="midnightblue" stroke="midnightblue" points="964.55,-83.89 975.15,-83.87 966.85,-77.28 964.55,-83.89"/>
</g>
<!-- Node11&#45;&gt;Node12 -->
<g id="edge13" class="edge">
<title>Node11&#45;&gt;Node12</title>
<path fill="none" stroke="midnightblue" d="M2919.85,-92.02C2594.93,-89.17 999.14,-73.68 782.5,-42 773.14,-40.63 763.27,-38.45 753.92,-36.02"/>
<polygon fill="midnightblue" stroke="midnightblue" points="2919.95,-95.52 2929.98,-92.1 2920.01,-88.52 2919.95,-95.52"/>
</g>
<!-- Node11&#45;&gt;Node13 -->
<g id="edge14" class="edge">
<title>Node11&#45;&gt;Node13</title>
<path fill="none" stroke="midnightblue" d="M2919.57,-91.95C2606.59,-88.88 1124.28,-72.79 922.5,-42 913.5,-40.63 904.03,-38.44 895.06,-36.02"/>
<polygon fill="midnightblue" stroke="midnightblue" points="2919.75,-95.45 2929.78,-92.05 2919.81,-88.45 2919.75,-95.45"/>
</g>
<!-- Node11&#45;&gt;Node14 -->
<g id="edge15" class="edge">
<title>Node11&#45;&gt;Node14</title>
<path fill="none" stroke="midnightblue" d="M2919.72,-92.66C2642.99,-93.15 1451.32,-92.27 1083.5,-42 1080.8,-41.63 1078.07,-41.21 1075.31,-40.74"/>
<polygon fill="midnightblue" stroke="midnightblue" points="2919.95,-96.16 2929.94,-92.64 2919.93,-89.16 2919.95,-96.16"/>
</g>
<!-- Node11&#45;&gt;Node15 -->
<g id="edge16" class="edge">
<title>Node11&#45;&gt;Node15</title>
<path fill="none" stroke="midnightblue" d="M2919.51,-92.52C2656.87,-92.32 1577.15,-88.66 1242.5,-42 1239.84,-41.63 1237.14,-41.2 1234.41,-40.73"/>
<polygon fill="midnightblue" stroke="midnightblue" points="2919.6,-96.02 2929.6,-92.52 2919.6,-89.02 2919.6,-96.02"/>
</g>
<!-- Node11&#45;&gt;Node16 -->
<g id="edge17" class="edge">
<title>Node11&#45;&gt;Node16</title>
<path fill="none" stroke="midnightblue" d="M2919.47,-92.71C2669.16,-93.3 1680.74,-92.32 1374.5,-42 1366.11,-40.62 1357.3,-38.47 1348.94,-36.08"/>
<polygon fill="midnightblue" stroke="midnightblue" points="2919.8,-96.21 2929.79,-92.68 2919.79,-89.21 2919.8,-96.21"/>
</g>
<!-- Node11&#45;&gt;Node17 -->
<g id="edge18" class="edge">
<title>Node11&#45;&gt;Node17</title>
<path fill="none" stroke="midnightblue" d="M2919.65,-92.35C2683.78,-91.46 1794.02,-85.24 1516.5,-42 1507.52,-40.6 1498.05,-38.44 1489.07,-36.05"/>
<polygon fill="midnightblue" stroke="midnightblue" points="2919.72,-95.85 2929.74,-92.39 2919.75,-88.85 2919.72,-95.85"/>
</g>
<!-- Node18 -->
<g id="node18" class="node">
<title>Node18</title>
<g id="a_node18"><a xlink:href="400-cache-occupancy-size_8cc.html" target="_top" xlink:title=" ">
<polygon fill="none" stroke="black" points="5057.5,-6 5057.5,-36 5183.5,-36 5183.5,-6 5057.5,-6"/>
<text text-anchor="start" x="5065.5" y="-24" font-family="Helvetica,sans-Serif" font-size="10.00">test/cpp/src/400&#45;cache</text>
<text text-anchor="middle" x="5120.5" y="-13" font-family="Helvetica,sans-Serif" font-size="10.00">&#45;occupancy&#45;size.cc</text>
</a>
</g>
</g>
<!-- Node11&#45;&gt;Node18 -->
<g id="edge19" class="edge">
<title>Node11&#45;&gt;Node18</title>
<path fill="none" stroke="midnightblue" d="M3035.37,-91.94C3349.66,-88.79 4844.93,-72.28 5048.5,-42 5057.74,-40.63 5067.48,-38.44 5076.7,-36.01"/>
<polygon fill="midnightblue" stroke="midnightblue" points="3035.08,-88.44 3025.12,-92.04 3035.15,-95.44 3035.08,-88.44"/>
</g>
<!-- Node19 -->
<g id="node19" class="node">
<title>Node19</title>
<g id="a_node19"><a xlink:href="401-hit-latency_8cc.html" target="_top" xlink:title=" ">
<polygon fill="none" stroke="black" points="5201.5,-6 5201.5,-36 5311.5,-36 5311.5,-6 5201.5,-6"/>
<text text-anchor="start" x="5209.5" y="-24" font-family="Helvetica,sans-Serif" font-size="10.00">test/cpp/src/401&#45;hit</text>
<text text-anchor="middle" x="5256.5" y="-13" font-family="Helvetica,sans-Serif" font-size="10.00">&#45;latency.cc</text>
</a>
</g>
</g>
<!-- Node11&#45;&gt;Node19 -->
<g id="edge20" class="edge">
<title>Node11&#45;&gt;Node19</title>
<path fill="none" stroke="midnightblue" d="M3035.31,-91.64C3373.36,-86.55 5083.09,-59.98 5192.5,-42 5200.77,-40.64 5209.45,-38.46 5217.66,-36.04"/>
<polygon fill="midnightblue" stroke="midnightblue" points="3035.19,-88.14 3025.25,-91.79 3035.3,-95.14 3035.19,-88.14"/>
</g>
<!-- Node20 -->
<g id="node20" class="node">
<title>Node20</title>
<g id="a_node20"><a xlink:href="402-miss-latency_8cc.html" target="_top" xlink:title=" ">
<polygon fill="none" stroke="black" points="5330,-6 5330,-36 5451,-36 5451,-6 5330,-6"/>
<text text-anchor="start" x="5338" y="-24" font-family="Helvetica,sans-Serif" font-size="10.00">test/cpp/src/402&#45;miss</text>
<text text-anchor="middle" x="5390.5" y="-13" font-family="Helvetica,sans-Serif" font-size="10.00">&#45;latency.cc</text>
</a>
</g>
</g>
<!-- Node11&#45;&gt;Node20 -->
<g id="edge21" class="edge">
<title>Node11&#45;&gt;Node20</title>
<path fill="none" stroke="midnightblue" d="M3035.26,-91.67C3384.61,-86.63 5204.16,-59.57 5320.5,-42 5329.5,-40.64 5338.97,-38.46 5347.94,-36.04"/>
<polygon fill="midnightblue" stroke="midnightblue" points="3035.06,-88.18 3025.12,-91.82 3035.16,-95.18 3035.06,-88.18"/>
</g>
<!-- Node21 -->
<g id="node21" class="node">
<title>Node21</title>
<g id="a_node21"><a xlink:href="403-read-bandwidth_8cc.html" target="_top" xlink:title=" ">
<polygon fill="none" stroke="black" points="1526,-6 1526,-36 1645,-36 1645,-6 1526,-6"/>
<text text-anchor="start" x="1534" y="-24" font-family="Helvetica,sans-Serif" font-size="10.00">test/cpp/src/403&#45;read</text>
<text text-anchor="middle" x="1585.5" y="-13" font-family="Helvetica,sans-Serif" font-size="10.00">&#45;bandwidth.cc</text>
</a>
</g>
</g>
<!-- Node11&#45;&gt;Node21 -->
<g id="edge22" class="edge">
<title>Node11&#45;&gt;Node21</title>
<path fill="none" stroke="midnightblue" d="M2919.72,-92.17C2698.26,-90.6 1903.56,-82.23 1654.5,-42 1645.76,-40.59 1636.56,-38.42 1627.83,-36.03"/>
<polygon fill="midnightblue" stroke="midnightblue" points="2919.8,-95.67 2929.83,-92.24 2919.85,-88.67 2919.8,-95.67"/>
</g>
<!-- Node22 -->
<g id="node22" class="node">
<title>Node22</title>
<g id="a_node22"><a xlink:href="404-fill-bandwidth_8cc.html" target="_top" xlink:title=" ">
<polygon fill="none" stroke="black" points="1663.5,-6 1663.5,-36 1773.5,-36 1773.5,-6 1663.5,-6"/>
<text text-anchor="start" x="1671.5" y="-24" font-family="Helvetica,sans-Serif" font-size="10.00">test/cpp/src/404&#45;fill</text>
<text text-anchor="middle" x="1718.5" y="-13" font-family="Helvetica,sans-Serif" font-size="10.00">&#45;bandwidth.cc</text>
</a>
</g>
</g>
<!-- Node11&#45;&gt;Node22 -->
<g id="edge23" class="edge">
<title>Node11&#45;&gt;Node22</title>
<path fill="none" stroke="midnightblue" d="M2919.86,-92.05C2712.51,-90.12 2005.04,-80.79 1782.5,-42 1774.36,-40.58 1765.81,-38.41 1757.71,-36.01"/>
<polygon fill="midnightblue" stroke="midnightblue" points="2919.9,-95.55 2929.93,-92.14 2919.96,-88.55 2919.9,-95.55"/>
</g>
<!-- Node23 -->
<g id="node23" class="node">
<title>Node23</title>
<g id="a_node23"><a xlink:href="405-fill-eviction_8cc.html" target="_top" xlink:title=" ">
<polygon fill="none" stroke="black" points="1791.5,-6 1791.5,-36 1901.5,-36 1901.5,-6 1791.5,-6"/>
<text text-anchor="start" x="1799.5" y="-24" font-family="Helvetica,sans-Serif" font-size="10.00">test/cpp/src/405&#45;fill</text>
<text text-anchor="middle" x="1846.5" y="-13" font-family="Helvetica,sans-Serif" font-size="10.00">&#45;eviction.cc</text>
</a>
</g>
</g>
<!-- Node11&#45;&gt;Node23 -->
<g id="edge24" class="edge">
<title>Node11&#45;&gt;Node23</title>
<path fill="none" stroke="midnightblue" d="M2919.71,-91.71C2726.93,-88.76 2106.96,-76.75 1910.5,-42 1902.48,-40.58 1894.05,-38.44 1886.05,-36.08"/>
<polygon fill="midnightblue" stroke="midnightblue" points="2919.86,-95.21 2929.92,-91.86 2919.97,-88.21 2919.86,-95.21"/>
</g>
<!-- Node24 -->
<g id="node24" class="node">
<title>Node24</title>
<g id="a_node24"><a xlink:href="406-mshr-merge_8cc.html" target="_top" xlink:title=" ">
<polygon fill="none" stroke="black" points="1919.5,-6 1919.5,-36 2041.5,-36 2041.5,-6 1919.5,-6"/>
<text text-anchor="start" x="1927.5" y="-24" font-family="Helvetica,sans-Serif" font-size="10.00">test/cpp/src/406&#45;mshr</text>
<text text-anchor="middle" x="1980.5" y="-13" font-family="Helvetica,sans-Serif" font-size="10.00">&#45;merge.cc</text>
</a>
</g>
</g>
<!-- Node11&#45;&gt;Node24 -->
<g id="edge25" class="edge">
<title>Node11&#45;&gt;Node24</title>
<path fill="none" stroke="midnightblue" d="M2919.76,-91.05C2744.28,-86.36 2219.01,-70.29 2050.5,-42 2041.77,-40.53 2032.59,-38.38 2023.84,-36.01"/>
<polygon fill="midnightblue" stroke="midnightblue" points="2919.73,-94.55 2929.82,-91.31 2919.92,-87.55 2919.73,-94.55"/>
</g>
<!-- Node25 -->
<g id="node25" class="node">
<title>Node25</title>
<g id="a_node25"><a xlink:href="411-queue-translation-hit_8cc.html" target="_top" xlink:title=" ">
<polygon fill="none" stroke="black" points="2059.5,-6 2059.5,-36 2187.5,-36 2187.5,-6 2059.5,-6"/>
<text text-anchor="start" x="2067.5" y="-24" font-family="Helvetica,sans-Serif" font-size="10.00">test/cpp/src/411&#45;queue</text>
<text text-anchor="middle" x="2123.5" y="-13" font-family="Helvetica,sans-Serif" font-size="10.00">&#45;translation&#45;hit.cc</text>
</a>
</g>
</g>
<!-- Node11&#45;&gt;Node25 -->
<g id="edge26" class="edge">
<title>Node11&#45;&gt;Node25</title>
<path fill="none" stroke="midnightblue" d="M2919.42,-92.75C2789.12,-92.44 2463.97,-86.81 2196.5,-42 2187.56,-40.5 2178.13,-38.36 2169.13,-36.03"/>
<polygon fill="midnightblue" stroke="midnightblue" points="2919.56,-96.25 2929.57,-92.77 2919.57,-89.25 2919.56,-96.25"/>
</g>
<!-- Node26 -->
<g id="node26" class="node">
<title>Node26</title>
<g id="a_node26"><a xlink:href="412-queue-translation-miss_8cc.html" target="_top" xlink:title=" ">
<polygon fill="none" stroke="black" points="2205.5,-6 2205.5,-36 2333.5,-36 2333.5,-6 2205.5,-6"/>
<text text-anchor="start" x="2213.5" y="-24" font-family="Helvetica,sans-Serif" font-size="10.00">test/cpp/src/412&#45;queue</text>
<text text-anchor="middle" x="2269.5" y="-13" font-family="Helvetica,sans-Serif" font-size="10.00">&#45;translation&#45;miss.cc</text>
</a>
</g>
</g>
<!-- Node11&#45;&gt;Node26 -->
<g id="edge27" class="edge">
<title>Node11&#45;&gt;Node26</title>
<path fill="none" stroke="midnightblue" d="M2919.64,-91.53C2807.47,-88.85 2552.98,-78.86 2342.5,-42 2333.7,-40.46 2324.42,-38.32 2315.54,-36.02"/>
<polygon fill="midnightblue" stroke="midnightblue" points="2919.64,-95.03 2929.72,-91.76 2919.8,-88.03 2919.64,-95.03"/>
</g>
<!-- Node27 -->
<g id="node27" class="node">
<title>Node27</title>
<g id="a_node27"><a xlink:href="413-hit-under-miss_8cc.html" target="_top" xlink:title=" ">
<polygon fill="none" stroke="black" points="2351.5,-6 2351.5,-36 2461.5,-36 2461.5,-6 2351.5,-6"/>
<text text-anchor="start" x="2359.5" y="-24" font-family="Helvetica,sans-Serif" font-size="10.00">test/cpp/src/413&#45;hit</text>
<text text-anchor="middle" x="2406.5" y="-13" font-family="Helvetica,sans-Serif" font-size="10.00">&#45;under&#45;miss.cc</text>
</a>
</g>
</g>
<!-- Node11&#45;&gt;Node27 -->
<g id="edge28" class="edge">
<title>Node11&#45;&gt;Node27</title>
<path fill="none" stroke="midnightblue" d="M2919.6,-90.56C2824.85,-86.54 2631.11,-74.74 2470.5,-42 2462.86,-40.44 2454.83,-38.33 2447.15,-36.06"/>
<polygon fill="midnightblue" stroke="midnightblue" points="2919.7,-94.07 2929.84,-90.98 2919.99,-87.08 2919.7,-94.07"/>
</g>
<!-- Node28 -->
<g id="node28" class="node">
<title>Node28</title>
<g id="a_node28"><a xlink:href="414-tag-check-bound_8cc.html" target="_top" xlink:title=" ">
<polygon fill="none" stroke="black" points="2480,-6 2480,-36 2593,-36 2593,-6 2480,-6"/>
<text text-anchor="start" x="2488" y="-24" font-family="Helvetica,sans-Serif" font-size="10.00">test/cpp/src/414&#45;tag</text>
<text text-anchor="middle" x="2536.5" y="-13" font-family="Helvetica,sans-Serif" font-size="10.00">&#45;check&#45;bound.cc</text>
</a>
</g>
</g>
<!-- Node11&#45;&gt;Node28 -->
<g id="edge29" class="edge">
<title>Node11&#45;&gt;Node28</title>
<path fill="none" stroke="midnightblue" d="M2919.79,-87.73C2845.55,-80.92 2712.87,-66.44 2601.5,-42 2594,-40.36 2586.12,-38.26 2578.54,-36.04"/>
<polygon fill="midnightblue" stroke="midnightblue" points="2919.6,-91.23 2929.87,-88.64 2920.23,-84.26 2919.6,-91.23"/>
</g>
<!-- Node29 -->
<g id="node29" class="node">
<title>Node29</title>
<g id="a_node29"><a xlink:href="420-issue-prefetch_8cc.html" target="_top" xlink:title=" ">
<polygon fill="none" stroke="black" points="2611,-6 2611,-36 2734,-36 2734,-6 2611,-6"/>
<text text-anchor="start" x="2619" y="-24" font-family="Helvetica,sans-Serif" font-size="10.00">test/cpp/src/420&#45;issue</text>
<text text-anchor="middle" x="2672.5" y="-13" font-family="Helvetica,sans-Serif" font-size="10.00">&#45;prefetch.cc</text>
</a>
</g>
</g>
<!-- Node11&#45;&gt;Node29 -->
<g id="edge30" class="edge">
<title>Node11&#45;&gt;Node29</title>
<path fill="none" stroke="midnightblue" d="M2924.11,-81.96C2876.54,-72.34 2805.13,-57.31 2743.5,-42 2736.17,-40.18 2728.44,-38.13 2720.9,-36.07"/>
<polygon fill="midnightblue" stroke="midnightblue" points="2923.69,-85.45 2934.19,-83.99 2925.07,-78.58 2923.69,-85.45"/>
</g>
<!-- Node30 -->
<g id="node30" class="node">
<title>Node30</title>
<g id="a_node30"><a xlink:href="421-prefetch-fill-level_8cc.html" target="_top" xlink:title=" ">
<polygon fill="none" stroke="black" points="2752.5,-6 2752.5,-36 2890.5,-36 2890.5,-6 2752.5,-6"/>
<text text-anchor="start" x="2760.5" y="-24" font-family="Helvetica,sans-Serif" font-size="10.00">test/cpp/src/421&#45;prefetch</text>
<text text-anchor="middle" x="2821.5" y="-13" font-family="Helvetica,sans-Serif" font-size="10.00">&#45;fill&#45;level.cc</text>
</a>
</g>
</g>
<!-- Node11&#45;&gt;Node30 -->
<g id="edge31" class="edge">
<title>Node11&#45;&gt;Node30</title>
<path fill="none" stroke="midnightblue" d="M2949.31,-79.76C2922,-67.42 2880.7,-48.76 2852.49,-36.01"/>
<polygon fill="midnightblue" stroke="midnightblue" points="2948.13,-83.07 2958.68,-84 2951.01,-76.69 2948.13,-83.07"/>
</g>
<!-- Node31 -->
<g id="node31" class="node">
<title>Node31</title>
<g id="a_node31"><a xlink:href="422-prefetch-hit_8cc.html" target="_top" xlink:title=" ">
<polygon fill="none" stroke="black" points="2908.5,-6 2908.5,-36 3046.5,-36 3046.5,-6 2908.5,-6"/>
<text text-anchor="start" x="2916.5" y="-24" font-family="Helvetica,sans-Serif" font-size="10.00">test/cpp/src/422&#45;prefetch</text>
<text text-anchor="middle" x="2977.5" y="-13" font-family="Helvetica,sans-Serif" font-size="10.00">&#45;hit.cc</text>
</a>
</g>
</g>
<!-- Node11&#45;&gt;Node31 -->
<g id="edge32" class="edge">
<title>Node11&#45;&gt;Node31</title>
<path fill="none" stroke="midnightblue" d="M2977.5,-73.74C2977.5,-61.91 2977.5,-46.88 2977.5,-36.08"/>
<polygon fill="midnightblue" stroke="midnightblue" points="2974,-73.86 2977.5,-83.86 2981,-73.86 2974,-73.86"/>
</g>
<!-- Node32 -->
<g id="node32" class="node">
<title>Node32</title>
<g id="a_node32"><a xlink:href="423-prefetcher-activate_8cc.html" target="_top" xlink:title=" ">
<polygon fill="none" stroke="black" points="3064.5,-6 3064.5,-36 3212.5,-36 3212.5,-6 3064.5,-6"/>
<text text-anchor="start" x="3072.5" y="-24" font-family="Helvetica,sans-Serif" font-size="10.00">test/cpp/src/423&#45;prefetcher</text>
<text text-anchor="middle" x="3138.5" y="-13" font-family="Helvetica,sans-Serif" font-size="10.00">&#45;activate.cc</text>
</a>
</g>
</g>
<!-- Node11&#45;&gt;Node32 -->
<g id="edge33" class="edge">
<title>Node11&#45;&gt;Node32</title>
<path fill="none" stroke="midnightblue" d="M3006.23,-79.92C3034.4,-67.58 3077.27,-48.81 3106.51,-36.01"/>
<polygon fill="midnightblue" stroke="midnightblue" points="3004.68,-76.78 2996.92,-84 3007.48,-83.19 3004.68,-76.78"/>
</g>
<!-- Node33 -->
<g id="node33" class="node">
<title>Node33</title>
<g id="a_node33"><a xlink:href="424-duplicate-prefetch_8cc.html" target="_top" xlink:title=" ">
<polygon fill="none" stroke="black" points="3231,-6 3231,-36 3374,-36 3374,-6 3231,-6"/>
<text text-anchor="start" x="3239" y="-24" font-family="Helvetica,sans-Serif" font-size="10.00">test/cpp/src/424&#45;duplicate</text>
<text text-anchor="middle" x="3302.5" y="-13" font-family="Helvetica,sans-Serif" font-size="10.00">&#45;prefetch.cc</text>
</a>
</g>
</g>
<!-- Node11&#45;&gt;Node33 -->
<g id="edge34" class="edge">
<title>Node11&#45;&gt;Node33</title>
<path fill="none" stroke="midnightblue" d="M3031.1,-82.02C3080.62,-72.18 3156.18,-56.82 3221.5,-42 3229.69,-40.14 3238.33,-38.1 3246.79,-36.05"/>
<polygon fill="midnightblue" stroke="midnightblue" points="3030.37,-78.59 3021.24,-83.97 3031.73,-85.46 3030.37,-78.59"/>
</g>
<!-- Node34 -->
<g id="node34" class="node">
<title>Node34</title>
<g id="a_node34"><a xlink:href="425-useless-prefetch_8cc.html" target="_top" xlink:title=" ">
<polygon fill="none" stroke="black" points="3392.5,-6 3392.5,-36 3526.5,-36 3526.5,-6 3392.5,-6"/>
<text text-anchor="start" x="3400.5" y="-24" font-family="Helvetica,sans-Serif" font-size="10.00">test/cpp/src/425&#45;useless</text>
<text text-anchor="middle" x="3459.5" y="-13" font-family="Helvetica,sans-Serif" font-size="10.00">&#45;prefetch.cc</text>
</a>
</g>
</g>
<!-- Node11&#45;&gt;Node34 -->
<g id="edge35" class="edge">
<title>Node11&#45;&gt;Node34</title>
<path fill="none" stroke="midnightblue" d="M3035.42,-87.67C3114.37,-80.54 3259.95,-65.45 3382.5,-42 3391.18,-40.34 3400.34,-38.26 3409.18,-36.07"/>
<polygon fill="midnightblue" stroke="midnightblue" points="3034.85,-84.2 3025.2,-88.58 3035.47,-91.18 3034.85,-84.2"/>
</g>
<!-- Node35 -->
<g id="node35" class="node">
<title>Node35</title>
<g id="a_node35"><a xlink:href="426-internal-pq-size_8cc.html" target="_top" xlink:title=" ">
<polygon fill="none" stroke="black" points="3545,-6 3545,-36 3680,-36 3680,-6 3545,-6"/>
<text text-anchor="start" x="3553" y="-24" font-family="Helvetica,sans-Serif" font-size="10.00">test/cpp/src/426&#45;internal</text>
<text text-anchor="middle" x="3612.5" y="-13" font-family="Helvetica,sans-Serif" font-size="10.00">&#45;pq&#45;size.cc</text>
</a>
</g>
</g>
<!-- Node11&#45;&gt;Node35 -->
<g id="edge36" class="edge">
<title>Node11&#45;&gt;Node35</title>
<path fill="none" stroke="midnightblue" d="M3035.31,-90.39C3137.09,-85.98 3354.6,-73.46 3535.5,-42 3544.62,-40.41 3554.24,-38.29 3563.47,-36.01"/>
<polygon fill="midnightblue" stroke="midnightblue" points="3035.09,-86.9 3025.24,-90.82 3035.38,-93.89 3035.09,-86.9"/>
</g>
<!-- Node36 -->
<g id="node36" class="node">
<title>Node36</title>
<g id="a_node36"><a xlink:href="431-merge-prefetch_8cc.html" target="_top" xlink:title=" ">
<polygon fill="none" stroke="black" points="3698,-6 3698,-36 3827,-36 3827,-6 3698,-6"/>
<text text-anchor="start" x="3706" y="-24" font-family="Helvetica,sans-Serif" font-size="10.00">test/cpp/src/431&#45;merge</text>
<text text-anchor="middle" x="3762.5" y="-13" font-family="Helvetica,sans-Serif" font-size="10.00">&#45;prefetch.cc</text>
</a>
</g>
</g>
<!-- Node11&#45;&gt;Node36 -->
<g id="edge37" class="edge">
<title>Node11&#45;&gt;Node36</title>
<path fill="none" stroke="midnightblue" d="M3035.52,-92.16C3157.36,-90.61 3448.41,-82.58 3688.5,-42 3697.42,-40.49 3706.83,-38.37 3715.83,-36.08"/>
<polygon fill="midnightblue" stroke="midnightblue" points="3035.26,-88.66 3025.3,-92.28 3035.34,-95.66 3035.26,-88.66"/>
</g>
<!-- Node37 -->
<g id="node37" class="node">
<title>Node37</title>
<g id="a_node37"><a xlink:href="432-prefetch-metadata_8cc.html" target="_top" xlink:title=" ">
<polygon fill="none" stroke="black" points="3845.5,-6 3845.5,-36 3983.5,-36 3983.5,-6 3845.5,-6"/>
<text text-anchor="start" x="3853.5" y="-24" font-family="Helvetica,sans-Serif" font-size="10.00">test/cpp/src/432&#45;prefetch</text>
<text text-anchor="middle" x="3914.5" y="-13" font-family="Helvetica,sans-Serif" font-size="10.00">&#45;metadata.cc</text>
</a>
</g>
</g>
<!-- Node11&#45;&gt;Node37 -->
<g id="edge38" class="edge">
<title>Node11&#45;&gt;Node37</title>
<path fill="none" stroke="midnightblue" d="M3035.68,-92.85C3174.8,-92.88 3537.28,-88.1 3835.5,-42 3845.15,-40.51 3855.33,-38.37 3865.07,-36.04"/>
<polygon fill="midnightblue" stroke="midnightblue" points="3035.27,-89.35 3025.27,-92.84 3035.27,-96.35 3035.27,-89.35"/>
</g>
<!-- Node38 -->
<g id="node38" class="node">
<title>Node38</title>
<g id="a_node38"><a xlink:href="441-replacement-bypass_8cc.html" target="_top" xlink:title=" ">
<polygon fill="none" stroke="black" points="4002,-6 4002,-36 4161,-36 4161,-6 4002,-6"/>
<text text-anchor="start" x="4010" y="-24" font-family="Helvetica,sans-Serif" font-size="10.00">test/cpp/src/441&#45;replacement</text>
<text text-anchor="middle" x="4081.5" y="-13" font-family="Helvetica,sans-Serif" font-size="10.00">&#45;bypass.cc</text>
</a>
</g>
</g>
<!-- Node11&#45;&gt;Node38 -->
<g id="edge39" class="edge">
<title>Node11&#45;&gt;Node38</title>
<path fill="none" stroke="midnightblue" d="M3035.34,-93.08C3190.88,-93.88 3630.85,-91.26 3992.5,-42 4003.33,-40.53 4014.78,-38.39 4025.74,-36.06"/>
<polygon fill="midnightblue" stroke="midnightblue" points="3035.09,-89.58 3025.07,-93.02 3035.05,-96.58 3035.09,-89.58"/>
</g>
<!-- Node39 -->
<g id="node39" class="node">
<title>Node39</title>
<g id="a_node39"><a xlink:href="442-replacement-interface_8cc.html" target="_top" xlink:title=" ">
<polygon fill="none" stroke="black" points="4179,-6 4179,-36 4338,-36 4338,-6 4179,-6"/>
<text text-anchor="start" x="4187" y="-24" font-family="Helvetica,sans-Serif" font-size="10.00">test/cpp/src/442&#45;replacement</text>
<text text-anchor="middle" x="4258.5" y="-13" font-family="Helvetica,sans-Serif" font-size="10.00">&#45;interface.cc</text>
</a>
</g>
</g>
<!-- Node11&#45;&gt;Node39 -->
<g id="edge40" class="edge">
<title>Node11&#45;&gt;Node39</title>
<path fill="none" stroke="midnightblue" d="M3035.25,-91.42C3242.2,-87.34 3946.24,-71.57 4169.5,-42 4180.49,-40.54 4192.12,-38.39 4203.23,-36.03"/>
<polygon fill="midnightblue" stroke="midnightblue" points="3035.13,-87.92 3025.2,-91.62 3035.27,-94.92 3035.13,-87.92"/>
</g>
<!-- Node40 -->
<g id="node40" class="node">
<title>Node40</title>
<g id="a_node40"><a xlink:href="451-next-line-behavior_8cc.html" target="_top" xlink:title=" ">
<polygon fill="none" stroke="black" points="4356,-6 4356,-36 4475,-36 4475,-6 4356,-6"/>
<text text-anchor="start" x="4364" y="-24" font-family="Helvetica,sans-Serif" font-size="10.00">test/cpp/src/451&#45;next</text>
<text text-anchor="middle" x="4415.5" y="-13" font-family="Helvetica,sans-Serif" font-size="10.00">&#45;line&#45;behavior.cc</text>
</a>
</g>
</g>
<!-- Node11&#45;&gt;Node40 -->
<g id="edge41" class="edge">
<title>Node11&#45;&gt;Node40</title>
<path fill="none" stroke="midnightblue" d="M3035.38,-92.25C3261.83,-90.99 4088.05,-83.58 4346.5,-42 4355.24,-40.59 4364.44,-38.43 4373.18,-36.03"/>
<polygon fill="midnightblue" stroke="midnightblue" points="3035.03,-88.75 3025.05,-92.31 3035.07,-95.75 3035.03,-88.75"/>
</g>
<!-- Node41 -->
<g id="node41" class="node">
<title>Node41</title>
<g id="a_node41"><a xlink:href="452-ip-stride-behavior_8cc.html" target="_top" xlink:title=" ">
<polygon fill="none" stroke="black" points="4493,-6 4493,-36 4600,-36 4600,-6 4493,-6"/>
<text text-anchor="start" x="4501" y="-24" font-family="Helvetica,sans-Serif" font-size="10.00">test/cpp/src/452&#45;ip</text>
<text text-anchor="middle" x="4546.5" y="-13" font-family="Helvetica,sans-Serif" font-size="10.00">&#45;stride&#45;behavior.cc</text>
</a>
</g>
</g>
<!-- Node11&#45;&gt;Node41 -->
<g id="edge42" class="edge">
<title>Node11&#45;&gt;Node41</title>
<path fill="none" stroke="midnightblue" d="M3035.56,-92.67C3276.39,-93.06 4197.55,-91.22 4483.5,-42 4491.53,-40.62 4499.95,-38.46 4507.93,-36.07"/>
<polygon fill="midnightblue" stroke="midnightblue" points="3035.28,-89.17 3025.27,-92.65 3035.26,-96.17 3035.28,-89.17"/>
</g>
<!-- Node42 -->
<g id="node42" class="node">
<title>Node42</title>
<g id="a_node42"><a xlink:href="453-va-ampm-lite-behavior_8cc.html" target="_top" xlink:title=" ">
<polygon fill="none" stroke="black" points="4618,-6 4618,-36 4749,-36 4749,-6 4618,-6"/>
<text text-anchor="start" x="4626" y="-24" font-family="Helvetica,sans-Serif" font-size="10.00">test/cpp/src/453&#45;va</text>
<text text-anchor="middle" x="4683.5" y="-13" font-family="Helvetica,sans-Serif" font-size="10.00">&#45;ampm&#45;lite&#45;behavior.cc</text>
</a>
</g>
</g>
<!-- Node11&#45;&gt;Node42 -->
<g id="edge43" class="edge">
<title>Node11&#45;&gt;Node42</title>
<path fill="none" stroke="midnightblue" d="M3035.29,-92.49C3287.79,-92.16 4295.58,-87.94 4608.5,-42 4617.97,-40.61 4627.95,-38.45 4637.44,-36.06"/>
<polygon fill="midnightblue" stroke="midnightblue" points="3035.22,-88.99 3025.22,-92.5 3035.23,-95.99 3035.22,-88.99"/>
</g>
<!-- Node43 -->
<g id="node43" class="node">
<title>Node43</title>
<g id="a_node43"><a xlink:href="600-ptw-path_8cc.html" target="_top" xlink:title=" ">
<polygon fill="none" stroke="black" points="4767.5,-6 4767.5,-36 4883.5,-36 4883.5,-6 4767.5,-6"/>
<text text-anchor="start" x="4775.5" y="-24" font-family="Helvetica,sans-Serif" font-size="10.00">test/cpp/src/600&#45;ptw</text>
<text text-anchor="middle" x="4825.5" y="-13" font-family="Helvetica,sans-Serif" font-size="10.00">&#45;path.cc</text>
</a>
</g>
</g>
<!-- Node11&#45;&gt;Node43 -->
<g id="edge44" class="edge">
<title>Node11&#45;&gt;Node43</title>
<path fill="none" stroke="midnightblue" d="M3035.32,-91.74C3322.04,-87.88 4584.45,-69.43 4757.5,-42 4766.13,-40.63 4775.2,-38.48 4783.81,-36.1"/>
<polygon fill="midnightblue" stroke="midnightblue" points="3035.09,-88.25 3025.14,-91.88 3035.19,-95.25 3035.09,-88.25"/>
</g>
<!-- Node44 -->
<g id="node44" class="node">
<title>Node44</title>
<g id="a_node44"><a xlink:href="601-multiple-inflight-walks_8cc.html" target="_top" xlink:title=" ">
<polygon fill="none" stroke="black" points="4901.5,-6 4901.5,-36 5039.5,-36 5039.5,-6 4901.5,-6"/>
<text text-anchor="start" x="4909.5" y="-24" font-family="Helvetica,sans-Serif" font-size="10.00">test/cpp/src/601&#45;multiple</text>
<text text-anchor="middle" x="4970.5" y="-13" font-family="Helvetica,sans-Serif" font-size="10.00">&#45;inflight&#45;walks.cc</text>
</a>
</g>
</g>
<!-- Node11&#45;&gt;Node44 -->
<g id="edge45" class="edge">
<title>Node11&#45;&gt;Node44</title>
<path fill="none" stroke="midnightblue" d="M3035.27,-91.75C3334.85,-87.76 4704.91,-68.18 4892.5,-42 4902.33,-40.63 4912.71,-38.48 4922.57,-36.09"/>
<polygon fill="midnightblue" stroke="midnightblue" points="3035.02,-88.25 3025.07,-91.89 3035.11,-95.25 3035.02,-88.25"/>
</g>
<!-- Node11&#45;&gt;Node47 -->
<g id="edge46" class="edge">
<title>Node11&#45;&gt;Node47</title>
<path fill="none" stroke="midnightblue" d="M3035.48,-91.77C3397.51,-87.15 5336.04,-61.58 5459.5,-42 5468.01,-40.65 5476.96,-38.48 5485.42,-36.05"/>
<polygon fill="midnightblue" stroke="midnightblue" points="3035.19,-88.27 3025.24,-91.9 3035.28,-95.27 3035.19,-88.27"/>
</g>
<!-- Node48&#45;&gt;Node49 -->
<g id="edge48" class="edge">
<title>Node48&#45;&gt;Node49</title>
<path fill="none" stroke="midnightblue" d="M5298.49,-87.23C5370.17,-80.4 5490.42,-66.36 5591.5,-42 5603.82,-39.03 5617.22,-34.5 5628.03,-30.5"/>
<polygon fill="midnightblue" stroke="midnightblue" points="5297.9,-83.77 5288.27,-88.19 5298.55,-90.74 5297.9,-83.77"/>
</g>
<!-- Node50&#45;&gt;Node49 -->
<g id="edge51" class="edge">
<title>Node50&#45;&gt;Node49</title>
<path fill="none" stroke="midnightblue" d="M5528.4,-79.68C5558.34,-65.42 5605.88,-42.78 5631.58,-30.53"/>
<polygon fill="midnightblue" stroke="midnightblue" points="5526.88,-76.54 5519.35,-84 5529.89,-82.86 5526.88,-76.54"/>
</g>
<!-- Node50&#45;&gt;Node51 -->
<g id="edge50" class="edge">
<title>Node50&#45;&gt;Node51</title>
<path fill="none" stroke="midnightblue" d="M5547.85,-81.57C5598.96,-69.45 5677.88,-50.47 5707.5,-42 5719.61,-38.54 5732.91,-34.23 5744,-30.51"/>
<polygon fill="midnightblue" stroke="midnightblue" points="5546.94,-78.19 5538.02,-83.9 5548.56,-85 5546.94,-78.19"/>
</g>
</g>
</svg>
