<?xml version="1.0" encoding="UTF-8" standalone="no"?>
<!DOCTYPE svg PUBLIC "-//W3C//DTD SVG 1.1//EN"
 "http://www.w3.org/Graphics/SVG/1.1/DTD/svg11.dtd">
<!-- Generated by graphviz version 2.43.0 (0)
 -->
<!-- Title: src/ooo_cpu.cc Pages: 1 -->
<svg width="2814pt" height="308pt"
 viewBox="0.00 0.00 2813.81 308.00" xmlns="http://www.w3.org/2000/svg" xmlns:xlink="http://www.w3.org/1999/xlink">
<g id="graph0" class="graph" transform="scale(1 1) rotate(0) translate(4 304)">
<title>src/ooo_cpu.cc</title>
<!-- Node1 -->
<g id="node1" class="node">
<title>Node1</title>
<g id="a_node1"><a xlink:title=" ">
<polygon fill="#bfbfbf" stroke="black" points="2340.31,-280.5 2340.31,-299.5 2428.31,-299.5 2428.31,-280.5 2340.31,-280.5"/>
<text text-anchor="middle" x="2384.31" y="-287.5" font-family="Helvetica,sans-Serif" font-size="10.00">src/ooo_cpu.cc</text>
</a>
</g>
</g>
<!-- Node2 -->
<g id="node2" class="node">
<title>Node2</title>
<g id="a_node2"><a xlink:href="ooo__cpu_8h.html" target="_top" xlink:title=" ">
<polygon fill="none" stroke="black" points="774.31,-224.5 774.31,-243.5 840.31,-243.5 840.31,-224.5 774.31,-224.5"/>
<text text-anchor="middle" x="807.31" y="-231.5" font-family="Helvetica,sans-Serif" font-size="10.00">ooo_cpu.h</text>
</a>
</g>
</g>
<!-- Node1&#45;&gt;Node2 -->
<g id="edge1" class="edge">
<title>Node1&#45;&gt;Node2</title>
<path fill="none" stroke="midnightblue" d="M2340.08,-287.49C2112.49,-279.69 1075.53,-244.18 850.49,-236.48"/>
<polygon fill="midnightblue" stroke="midnightblue" points="850.51,-232.98 840.39,-236.13 850.27,-239.97 850.51,-232.98"/>
</g>
<!-- Node12 -->
<g id="node12" class="node">
<title>Node12</title>
<g id="a_node12"><a xlink:href="champsim_8h.html" target="_top" xlink:title=" ">
<polygon fill="none" stroke="black" points="1871.81,-168.5 1871.81,-187.5 1948.81,-187.5 1948.81,-168.5 1871.81,-168.5"/>
<text text-anchor="middle" x="1910.31" y="-175.5" font-family="Helvetica,sans-Serif" font-size="10.00">champsim.h</text>
</a>
</g>
</g>
<!-- Node1&#45;&gt;Node12 -->
<g id="edge68" class="edge">
<title>Node1&#45;&gt;Node12</title>
<path fill="none" stroke="midnightblue" d="M2346.53,-280.44C2306.87,-271.44 2242.68,-256.82 2187.31,-244 2105.99,-225.17 2011.34,-202.88 1956.38,-189.9"/>
<polygon fill="midnightblue" stroke="midnightblue" points="1957.13,-186.48 1946.6,-187.59 1955.52,-193.29 1957.13,-186.48"/>
</g>
<!-- Node19 -->
<g id="node19" class="node">
<title>Node19</title>
<g id="a_node19"><a xlink:href="instruction_8h.html" target="_top" xlink:title=" ">
<polygon fill="none" stroke="black" points="48.81,-168.5 48.81,-187.5 125.81,-187.5 125.81,-168.5 48.81,-168.5"/>
<text text-anchor="middle" x="87.31" y="-175.5" font-family="Helvetica,sans-Serif" font-size="10.00">instruction.h</text>
</a>
</g>
</g>
<!-- Node1&#45;&gt;Node19 -->
<g id="edge77" class="edge">
<title>Node1&#45;&gt;Node19</title>
<path fill="none" stroke="midnightblue" d="M2340.17,-288.77C2150.92,-287.57 1389.53,-280.6 765.31,-244 486.9,-227.67 416.9,-223.82 140.31,-188 139.01,-187.83 137.69,-187.65 136.37,-187.47"/>
<polygon fill="midnightblue" stroke="midnightblue" points="136.45,-183.94 126.05,-185.94 135.43,-190.87 136.45,-183.94"/>
</g>
<!-- Node20 -->
<g id="node20" class="node">
<title>Node20</title>
<g id="a_node20"><a xlink:title=" ">
<polygon fill="none" stroke="#bfbfbf" points="788.31,-56.5 788.31,-75.5 852.31,-75.5 852.31,-56.5 788.31,-56.5"/>
<text text-anchor="middle" x="820.31" y="-63.5" font-family="Helvetica,sans-Serif" font-size="10.00">algorithm</text>
</a>
</g>
</g>
<!-- Node1&#45;&gt;Node20 -->
<g id="edge48" class="edge">
<title>Node1&#45;&gt;Node20</title>
<path fill="none" stroke="midnightblue" d="M2393.22,-280.45C2414.21,-259.28 2462.88,-203.55 2433.31,-168 2346.03,-63.04 2267.02,-126.83 2131.31,-112 1876.78,-84.19 1057.92,-70.52 862.48,-67.6"/>
<polygon fill="midnightblue" stroke="midnightblue" points="862.39,-64.1 852.34,-67.45 862.28,-71.1 862.39,-64.1"/>
</g>
<!-- Node32 -->
<g id="node32" class="node">
<title>Node32</title>
<g id="a_node32"><a xlink:title=" ">
<polygon fill="none" stroke="#bfbfbf" points="2518.31,-224.5 2518.31,-243.5 2568.31,-243.5 2568.31,-224.5 2518.31,-224.5"/>
<text text-anchor="middle" x="2543.31" y="-231.5" font-family="Helvetica,sans-Serif" font-size="10.00">chrono</text>
</a>
</g>
</g>
<!-- Node1&#45;&gt;Node32 -->
<g id="edge49" class="edge">
<title>Node1&#45;&gt;Node32</title>
<path fill="none" stroke="midnightblue" d="M2409.51,-280.44C2436.26,-271.36 2478.72,-256.94 2508.62,-246.78"/>
<polygon fill="midnightblue" stroke="midnightblue" points="2509.9,-250.05 2518.24,-243.52 2507.64,-243.42 2509.9,-250.05"/>
</g>
<!-- Node33 -->
<g id="node33" class="node">
<title>Node33</title>
<g id="a_node33"><a xlink:title=" ">
<polygon fill="none" stroke="#bfbfbf" points="2586.81,-224.5 2586.81,-243.5 2633.81,-243.5 2633.81,-224.5 2586.81,-224.5"/>
<text text-anchor="middle" x="2610.31" y="-231.5" font-family="Helvetica,sans-Serif" font-size="10.00">cmath</text>
</a>
</g>
</g>
<!-- Node1&#45;&gt;Node33 -->
<g id="edge50" class="edge">
<title>Node1&#45;&gt;Node33</title>
<path fill="none" stroke="midnightblue" d="M2422.87,-280.45C2459.84,-272.16 2517.47,-258.98 2576.65,-244.1"/>
<polygon fill="midnightblue" stroke="midnightblue" points="2577.71,-247.44 2586.55,-241.59 2576,-240.65 2577.71,-247.44"/>
</g>
<!-- Node34 -->
<g id="node34" class="node">
<title>Node34</title>
<g id="a_node34"><a xlink:title=" ">
<polygon fill="none" stroke="#bfbfbf" points="2652.31,-224.5 2652.31,-243.5 2708.31,-243.5 2708.31,-224.5 2652.31,-224.5"/>
<text text-anchor="middle" x="2680.31" y="-231.5" font-family="Helvetica,sans-Serif" font-size="10.00">numeric</text>
</a>
</g>
</g>
<!-- Node1&#45;&gt;Node34 -->
<g id="edge51" class="edge">
<title>Node1&#45;&gt;Node34</title>
<path fill="none" stroke="midnightblue" d="M2428.48,-282.25C2478.15,-274.44 2561.43,-260.75 2642.24,-244.12"/>
<polygon fill="midnightblue" stroke="midnightblue" points="2643,-247.53 2652.08,-242.07 2641.57,-240.68 2643,-247.53"/>
</g>
<!-- Node35 -->
<g id="node35" class="node">
<title>Node35</title>
<g id="a_node35"><a xlink:href="cache_8h.html" target="_top" xlink:title=" ">
<polygon fill="none" stroke="black" points="1468.31,-224.5 1468.31,-243.5 1522.31,-243.5 1522.31,-224.5 1468.31,-224.5"/>
<text text-anchor="middle" x="1495.31" y="-231.5" font-family="Helvetica,sans-Serif" font-size="10.00">cache.h</text>
</a>
</g>
</g>
<!-- Node1&#45;&gt;Node35 -->
<g id="edge52" class="edge">
<title>Node1&#45;&gt;Node35</title>
<path fill="none" stroke="midnightblue" d="M2340.23,-286.32C2186.42,-276.98 1675.18,-245.93 1532.55,-237.26"/>
<polygon fill="midnightblue" stroke="midnightblue" points="1532.74,-233.77 1522.55,-236.65 1532.32,-240.75 1532.74,-233.77"/>
</g>
<!-- Node39 -->
<g id="node39" class="node">
<title>Node39</title>
<g id="a_node39"><a xlink:href="deadlock_8h.html" target="_top" xlink:title=" ">
<polygon fill="none" stroke="black" points="2196.31,-224.5 2196.31,-243.5 2266.31,-243.5 2266.31,-224.5 2196.31,-224.5"/>
<text text-anchor="middle" x="2231.31" y="-231.5" font-family="Helvetica,sans-Serif" font-size="10.00">deadlock.h</text>
</a>
</g>
</g>
<!-- Node1&#45;&gt;Node39 -->
<g id="edge69" class="edge">
<title>Node1&#45;&gt;Node39</title>
<path fill="none" stroke="midnightblue" d="M2360.07,-280.44C2334.44,-271.4 2293.83,-257.06 2265.08,-246.92"/>
<polygon fill="midnightblue" stroke="midnightblue" points="2266.04,-243.54 2255.44,-243.52 2263.71,-250.15 2266.04,-243.54"/>
</g>
<!-- Node40 -->
<g id="node40" class="node">
<title>Node40</title>
<g id="a_node40"><a xlink:title=" ">
<polygon fill="none" stroke="#bfbfbf" points="2259.81,-168.5 2259.81,-187.5 2326.81,-187.5 2326.81,-168.5 2259.81,-168.5"/>
<text text-anchor="middle" x="2293.31" y="-175.5" font-family="Helvetica,sans-Serif" font-size="10.00">fmt/core.h</text>
</a>
</g>
</g>
<!-- Node1&#45;&gt;Node40 -->
<g id="edge84" class="edge">
<title>Node1&#45;&gt;Node40</title>
<path fill="none" stroke="midnightblue" d="M2377.17,-280.37C2362.02,-262.05 2326.45,-219.05 2306.85,-195.36"/>
<polygon fill="midnightblue" stroke="midnightblue" points="2309.49,-193.07 2300.42,-187.59 2304.1,-197.53 2309.49,-193.07"/>
</g>
<!-- Node41 -->
<g id="node41" class="node">
<title>Node41</title>
<g id="a_node41"><a xlink:title=" ">
<polygon fill="none" stroke="#bfbfbf" points="2344.81,-168.5 2344.81,-187.5 2423.81,-187.5 2423.81,-168.5 2344.81,-168.5"/>
<text text-anchor="middle" x="2384.31" y="-175.5" font-family="Helvetica,sans-Serif" font-size="10.00">fmt/ranges.h</text>
</a>
</g>
</g>
<!-- Node1&#45;&gt;Node41 -->
<g id="edge85" class="edge">
<title>Node1&#45;&gt;Node41</title>
<path fill="none" stroke="midnightblue" d="M2384.31,-280.37C2384.31,-262.62 2384.31,-221.67 2384.31,-197.6"/>
<polygon fill="midnightblue" stroke="midnightblue" points="2387.81,-197.59 2384.31,-187.59 2380.81,-197.59 2387.81,-197.59"/>
</g>
<!-- Node43 -->
<g id="node43" class="node">
<title>Node43</title>
<g id="a_node43"><a xlink:href="span_8h.html" target="_top" xlink:title=" ">
<polygon fill="none" stroke="black" points="2456.31,-112.5 2456.31,-131.5 2524.31,-131.5 2524.31,-112.5 2456.31,-112.5"/>
<text text-anchor="middle" x="2490.31" y="-119.5" font-family="Helvetica,sans-Serif" font-size="10.00">util/span.h</text>
</a>
</g>
</g>
<!-- Node1&#45;&gt;Node43 -->
<g id="edge78" class="edge">
<title>Node1&#45;&gt;Node43</title>
<path fill="none" stroke="midnightblue" d="M2412.87,-280.35C2430.94,-273.4 2453.26,-261.81 2466.31,-244 2488.71,-213.44 2491.61,-167.33 2491.27,-141.76"/>
<polygon fill="midnightblue" stroke="midnightblue" points="2494.76,-141.47 2490.94,-131.59 2487.77,-141.69 2494.76,-141.47"/>
</g>
<!-- Node45 -->
<g id="node45" class="node">
<title>Node45</title>
<g id="a_node45"><a xlink:title=" ">
<polygon fill="none" stroke="#bfbfbf" points="2726.81,-224.5 2726.81,-243.5 2805.81,-243.5 2805.81,-224.5 2726.81,-224.5"/>
<text text-anchor="middle" x="2766.31" y="-231.5" font-family="Helvetica,sans-Serif" font-size="10.00">fmt/chrono.h</text>
</a>
</g>
</g>
<!-- Node1&#45;&gt;Node45 -->
<g id="edge83" class="edge">
<title>Node1&#45;&gt;Node45</title>
<path fill="none" stroke="midnightblue" d="M2428.58,-283.69C2490.6,-276.11 2607.11,-261.33 2716.85,-244.01"/>
<polygon fill="midnightblue" stroke="midnightblue" points="2717.44,-247.46 2726.76,-242.43 2716.34,-240.54 2717.44,-247.46"/>
</g>
<!-- Node3 -->
<g id="node3" class="node">
<title>Node3</title>
<g id="a_node3"><a xlink:title=" ">
<polygon fill="none" stroke="#bfbfbf" points="442.31,-112.5 442.31,-131.5 484.31,-131.5 484.31,-112.5 442.31,-112.5"/>
<text text-anchor="middle" x="463.31" y="-119.5" font-family="Helvetica,sans-Serif" font-size="10.00">array</text>
</a>
</g>
</g>
<!-- Node2&#45;&gt;Node3 -->
<g id="edge2" class="edge">
<title>Node2&#45;&gt;Node3</title>
<path fill="none" stroke="midnightblue" d="M774.24,-232.73C663.53,-231.48 310.97,-224.64 277.31,-188 271.3,-181.45 271.82,-174.99 277.31,-168 282.14,-161.86 380.24,-140.46 431.98,-129.53"/>
<polygon fill="midnightblue" stroke="midnightblue" points="432.9,-132.91 441.96,-127.43 431.46,-126.06 432.9,-132.91"/>
</g>
<!-- Node4 -->
<g id="node4" class="node">
<title>Node4</title>
<g id="a_node4"><a xlink:title=" ">
<polygon fill="none" stroke="#bfbfbf" points="1328.31,-168.5 1328.31,-187.5 1372.31,-187.5 1372.31,-168.5 1328.31,-168.5"/>
<text text-anchor="middle" x="1350.31" y="-175.5" font-family="Helvetica,sans-Serif" font-size="10.00">bitset</text>
</a>
</g>
</g>
<!-- Node2&#45;&gt;Node4 -->
<g id="edge3" class="edge">
<title>Node2&#45;&gt;Node4</title>
<path fill="none" stroke="midnightblue" d="M840.56,-232.32C921.13,-230.18 1133.2,-221.73 1318.19,-187.86"/>
<polygon fill="midnightblue" stroke="midnightblue" points="1318.9,-191.29 1328.09,-186.02 1317.62,-184.4 1318.9,-191.29"/>
</g>
<!-- Node5 -->
<g id="node5" class="node">
<title>Node5</title>
<g id="a_node5"><a xlink:title=" ">
<polygon fill="none" stroke="#bfbfbf" points="913.81,-112.5 913.81,-131.5 960.81,-131.5 960.81,-112.5 913.81,-112.5"/>
<text text-anchor="middle" x="937.31" y="-119.5" font-family="Helvetica,sans-Serif" font-size="10.00">deque</text>
</a>
</g>
</g>
<!-- Node2&#45;&gt;Node5 -->
<g id="edge4" class="edge">
<title>Node2&#45;&gt;Node5</title>
<path fill="none" stroke="midnightblue" d="M813.15,-224.19C822.28,-210.87 841,-185.33 861.31,-168 876.1,-155.39 894.86,-144.24 910.05,-136.19"/>
<polygon fill="midnightblue" stroke="midnightblue" points="911.69,-139.29 918.98,-131.6 908.48,-133.07 911.69,-139.29"/>
</g>
<!-- Node6 -->
<g id="node6" class="node">
<title>Node6</title>
<g id="a_node6"><a xlink:title=" ">
<polygon fill="none" stroke="#bfbfbf" points="351.31,-0.5 351.31,-19.5 395.31,-19.5 395.31,-0.5 351.31,-0.5"/>
<text text-anchor="middle" x="373.31" y="-7.5" font-family="Helvetica,sans-Serif" font-size="10.00">limits</text>
</a>
</g>
</g>
<!-- Node2&#45;&gt;Node6 -->
<g id="edge5" class="edge">
<title>Node2&#45;&gt;Node6</title>
<path fill="none" stroke="midnightblue" d="M774.16,-232.22C630.37,-228.71 66.63,-213.35 39.31,-188 -3.96,-147.84 -14.67,-100.34 24.31,-56 45.11,-32.35 258.85,-17.6 341.21,-12.76"/>
<polygon fill="midnightblue" stroke="midnightblue" points="341.47,-16.25 351.25,-12.18 341.07,-9.26 341.47,-16.25"/>
</g>
<!-- Node7 -->
<g id="node7" class="node">
<title>Node7</title>
<g id="a_node7"><a xlink:title=" ">
<polygon fill="none" stroke="#bfbfbf" points="1390.31,-168.5 1390.31,-187.5 1448.31,-187.5 1448.31,-168.5 1390.31,-168.5"/>
<text text-anchor="middle" x="1419.31" y="-175.5" font-family="Helvetica,sans-Serif" font-size="10.00">memory</text>
</a>
</g>
</g>
<!-- Node2&#45;&gt;Node7 -->
<g id="edge6" class="edge">
<title>Node2&#45;&gt;Node7</title>
<path fill="none" stroke="midnightblue" d="M840.52,-232.19C927.59,-229.67 1169.66,-220.25 1379.96,-187.98"/>
<polygon fill="midnightblue" stroke="midnightblue" points="1380.6,-191.42 1389.95,-186.43 1379.53,-184.51 1380.6,-191.42"/>
</g>
<!-- Node8 -->
<g id="node8" class="node">
<title>Node8</title>
<g id="a_node8"><a xlink:title=" ">
<polygon fill="none" stroke="#bfbfbf" points="671.31,-56.5 671.31,-75.5 727.31,-75.5 727.31,-56.5 671.31,-56.5"/>
<text text-anchor="middle" x="699.31" y="-63.5" font-family="Helvetica,sans-Serif" font-size="10.00">optional</text>
</a>
</g>
</g>
<!-- Node2&#45;&gt;Node8 -->
<g id="edge7" class="edge">
<title>Node2&#45;&gt;Node8</title>
<path fill="none" stroke="midnightblue" d="M786.08,-224.45C770.22,-217.03 749.14,-204.83 736.31,-188 712.76,-157.09 704.09,-111.12 700.98,-85.66"/>
<polygon fill="midnightblue" stroke="midnightblue" points="704.44,-85.11 699.91,-75.54 697.48,-85.85 704.44,-85.11"/>
</g>
<!-- Node9 -->
<g id="node9" class="node">
<title>Node9</title>
<g id="a_node9"><a xlink:title=" ">
<polygon fill="none" stroke="#bfbfbf" points="182.81,-168.5 182.81,-187.5 229.81,-187.5 229.81,-168.5 182.81,-168.5"/>
<text text-anchor="middle" x="206.31" y="-175.5" font-family="Helvetica,sans-Serif" font-size="10.00">queue</text>
</a>
</g>
</g>
<!-- Node2&#45;&gt;Node9 -->
<g id="edge8" class="edge">
<title>Node2&#45;&gt;Node9</title>
<path fill="none" stroke="midnightblue" d="M774.11,-232.12C686.81,-229.41 443.85,-219.41 244.31,-188 242.85,-187.77 241.36,-187.51 239.85,-187.24"/>
<polygon fill="midnightblue" stroke="midnightblue" points="240.42,-183.78 229.92,-185.18 239,-190.63 240.42,-183.78"/>
</g>
<!-- Node10 -->
<g id="node10" class="node">
<title>Node10</title>
<g id="a_node10"><a xlink:title=" ">
<polygon fill="none" stroke="#bfbfbf" points="1244.81,-168.5 1244.81,-187.5 1309.81,-187.5 1309.81,-168.5 1244.81,-168.5"/>
<text text-anchor="middle" x="1277.31" y="-175.5" font-family="Helvetica,sans-Serif" font-size="10.00">stdexcept</text>
</a>
</g>
</g>
<!-- Node2&#45;&gt;Node10 -->
<g id="edge9" class="edge">
<title>Node2&#45;&gt;Node10</title>
<path fill="none" stroke="midnightblue" d="M840.5,-230.72C911.09,-225.61 1081.5,-211.9 1234.32,-188"/>
<polygon fill="midnightblue" stroke="midnightblue" points="1235.03,-191.43 1244.36,-186.41 1233.94,-184.51 1235.03,-191.43"/>
</g>
<!-- Node11 -->
<g id="node11" class="node">
<title>Node11</title>
<g id="a_node11"><a xlink:title=" ">
<polygon fill="none" stroke="#bfbfbf" points="421.81,-56.5 421.81,-75.5 468.81,-75.5 468.81,-56.5 421.81,-56.5"/>
<text text-anchor="middle" x="445.31" y="-63.5" font-family="Helvetica,sans-Serif" font-size="10.00">vector</text>
</a>
</g>
</g>
<!-- Node2&#45;&gt;Node11 -->
<g id="edge10" class="edge">
<title>Node2&#45;&gt;Node11</title>
<path fill="none" stroke="midnightblue" d="M774.28,-231.26C645.5,-224.41 183.67,-199.11 173.31,-188 167.26,-181.5 167.58,-174.79 173.31,-168 234.98,-94.98 301.3,-177.55 385.31,-132 406.11,-120.73 423.6,-99.49 434.24,-84.36"/>
<polygon fill="midnightblue" stroke="midnightblue" points="437.27,-86.12 439.94,-75.87 431.46,-82.22 437.27,-86.12"/>
</g>
<!-- Node2&#45;&gt;Node12 -->
<g id="edge11" class="edge">
<title>Node2&#45;&gt;Node12</title>
<path fill="none" stroke="midnightblue" d="M840.75,-233.35C970.68,-234.36 1454.65,-234.62 1861.46,-188.05"/>
<polygon fill="midnightblue" stroke="midnightblue" points="1862.12,-191.49 1871.66,-186.87 1861.32,-184.54 1862.12,-191.49"/>
</g>
<!-- Node15 -->
<g id="node15" class="node">
<title>Node15</title>
<g id="a_node15"><a xlink:title=" ">
<polygon fill="none" stroke="#bfbfbf" points="903.81,-168.5 903.81,-187.5 1032.81,-187.5 1032.81,-168.5 903.81,-168.5"/>
<text text-anchor="middle" x="968.31" y="-175.5" font-family="Helvetica,sans-Serif" font-size="10.00">champsim_constants.h</text>
</a>
</g>
</g>
<!-- Node2&#45;&gt;Node15 -->
<g id="edge14" class="edge">
<title>Node2&#45;&gt;Node15</title>
<path fill="none" stroke="midnightblue" d="M832.83,-224.44C859.91,-215.36 902.9,-200.94 933.18,-190.78"/>
<polygon fill="midnightblue" stroke="midnightblue" points="934.56,-194.01 942.92,-187.52 932.33,-187.38 934.56,-194.01"/>
</g>
<!-- Node16 -->
<g id="node16" class="node">
<title>Node16</title>
<g id="a_node16"><a xlink:href="channel_8h.html" target="_top" xlink:title=" ">
<polygon fill="none" stroke="black" points="745.31,-168.5 745.31,-187.5 809.31,-187.5 809.31,-168.5 745.31,-168.5"/>
<text text-anchor="middle" x="777.31" y="-175.5" font-family="Helvetica,sans-Serif" font-size="10.00">channel.h</text>
</a>
</g>
</g>
<!-- Node2&#45;&gt;Node16 -->
<g id="edge15" class="edge">
<title>Node2&#45;&gt;Node16</title>
<path fill="none" stroke="midnightblue" d="M802.36,-224.08C798.21,-216.61 792.16,-205.72 787.05,-196.52"/>
<polygon fill="midnightblue" stroke="midnightblue" points="790.09,-194.79 782.18,-187.75 783.97,-198.19 790.09,-194.79"/>
</g>
<!-- Node2&#45;&gt;Node19 -->
<g id="edge23" class="edge">
<title>Node2&#45;&gt;Node19</title>
<path fill="none" stroke="midnightblue" d="M774.24,-231.95C676.83,-228.6 382.64,-216.68 140.31,-188 139.01,-187.85 137.69,-187.68 136.36,-187.51"/>
<polygon fill="midnightblue" stroke="midnightblue" points="136.43,-183.98 126.04,-186.04 135.44,-190.91 136.43,-183.98"/>
</g>
<!-- Node22 -->
<g id="node22" class="node">
<title>Node22</title>
<g id="a_node22"><a xlink:href="module__impl_8h.html" target="_top" xlink:title=" ">
<polygon fill="none" stroke="black" points="1050.81,-168.5 1050.81,-187.5 1139.81,-187.5 1139.81,-168.5 1050.81,-168.5"/>
<text text-anchor="middle" x="1095.31" y="-175.5" font-family="Helvetica,sans-Serif" font-size="10.00">module_impl.h</text>
</a>
</g>
</g>
<!-- Node2&#45;&gt;Node22 -->
<g id="edge32" class="edge">
<title>Node2&#45;&gt;Node22</title>
<path fill="none" stroke="midnightblue" d="M840.35,-226.81C889.24,-217.64 981.41,-200.36 1040.51,-189.28"/>
<polygon fill="midnightblue" stroke="midnightblue" points="1041.24,-192.7 1050.42,-187.42 1039.95,-185.82 1041.24,-192.7"/>
</g>
<!-- Node23 -->
<g id="node23" class="node">
<title>Node23</title>
<g id="a_node23"><a xlink:href="operable_8h.html" target="_top" xlink:title=" ">
<polygon fill="none" stroke="black" points="1158.31,-168.5 1158.31,-187.5 1226.31,-187.5 1226.31,-168.5 1158.31,-168.5"/>
<text text-anchor="middle" x="1192.31" y="-175.5" font-family="Helvetica,sans-Serif" font-size="10.00">operable.h</text>
</a>
</g>
</g>
<!-- Node2&#45;&gt;Node23 -->
<g id="edge33" class="edge">
<title>Node2&#45;&gt;Node23</title>
<path fill="none" stroke="midnightblue" d="M840.45,-229.48C900,-222.98 1029.23,-208.04 1148.09,-188.1"/>
<polygon fill="midnightblue" stroke="midnightblue" points="1148.82,-191.53 1158.09,-186.41 1147.65,-184.63 1148.82,-191.53"/>
</g>
<!-- Node24 -->
<g id="node24" class="node">
<title>Node24</title>
<g id="a_node24"><a xlink:href="util_2lru__table_8h.html" target="_top" xlink:title=" ">
<polygon fill="none" stroke="black" points="446.81,-168.5 446.81,-187.5 533.81,-187.5 533.81,-168.5 446.81,-168.5"/>
<text text-anchor="middle" x="490.31" y="-175.5" font-family="Helvetica,sans-Serif" font-size="10.00">util/lru_table.h</text>
</a>
</g>
</g>
<!-- Node2&#45;&gt;Node24 -->
<g id="edge34" class="edge">
<title>Node2&#45;&gt;Node24</title>
<path fill="none" stroke="midnightblue" d="M774.26,-227.42C725.92,-219.26 632.84,-203.5 543.98,-188.28"/>
<polygon fill="midnightblue" stroke="midnightblue" points="544.45,-184.81 534.01,-186.57 543.27,-191.71 544.45,-184.81"/>
</g>
<!-- Node29 -->
<g id="node29" class="node">
<title>Node29</title>
<g id="a_node29"><a xlink:title=" ">
<polygon fill="none" stroke="#bfbfbf" points="1992.81,-112.5 1992.81,-131.5 2061.81,-131.5 2061.81,-112.5 1992.81,-112.5"/>
<text text-anchor="middle" x="2027.31" y="-119.5" font-family="Helvetica,sans-Serif" font-size="10.00">type_traits</text>
</a>
</g>
</g>
<!-- Node2&#45;&gt;Node29 -->
<g id="edge45" class="edge">
<title>Node2&#45;&gt;Node29</title>
<path fill="none" stroke="midnightblue" d="M817.24,-224.48C836.35,-208.27 877.92,-174.08 895.31,-168 999.86,-131.47 1780.72,-137.66 1891.31,-132 1921.77,-130.44 1956.04,-128.17 1982.55,-126.3"/>
<polygon fill="midnightblue" stroke="midnightblue" points="1982.95,-129.78 1992.67,-125.58 1982.45,-122.8 1982.95,-129.78"/>
</g>
<!-- Node30 -->
<g id="node30" class="node">
<title>Node30</title>
<g id="a_node30"><a xlink:title=" ">
<polygon fill="none" stroke="#bfbfbf" points="286.31,-168.5 286.31,-187.5 428.31,-187.5 428.31,-168.5 286.31,-168.5"/>
<text text-anchor="middle" x="357.31" y="-175.5" font-family="Helvetica,sans-Serif" font-size="10.00">ooo_cpu_module_decl.inc</text>
</a>
</g>
</g>
<!-- Node2&#45;&gt;Node30 -->
<g id="edge46" class="edge">
<title>Node2&#45;&gt;Node30</title>
<path fill="none" stroke="midnightblue" d="M774.23,-229.03C704.07,-220.61 538.65,-200.76 438.55,-188.75"/>
<polygon fill="midnightblue" stroke="midnightblue" points="438.82,-185.26 428.47,-187.54 437.98,-192.21 438.82,-185.26"/>
</g>
<!-- Node31 -->
<g id="node31" class="node">
<title>Node31</title>
<g id="a_node31"><a xlink:title=" ">
<polygon fill="none" stroke="#bfbfbf" points="551.81,-168.5 551.81,-187.5 688.81,-187.5 688.81,-168.5 551.81,-168.5"/>
<text text-anchor="middle" x="620.31" y="-175.5" font-family="Helvetica,sans-Serif" font-size="10.00">ooo_cpu_module_def.inc</text>
</a>
</g>
</g>
<!-- Node2&#45;&gt;Node31 -->
<g id="edge47" class="edge">
<title>Node2&#45;&gt;Node31</title>
<path fill="none" stroke="midnightblue" d="M777.68,-224.44C745.81,-215.24 694.98,-200.56 659.75,-190.39"/>
<polygon fill="midnightblue" stroke="midnightblue" points="660.39,-186.93 649.81,-187.52 658.44,-193.65 660.39,-186.93"/>
</g>
<!-- Node13 -->
<g id="node13" class="node">
<title>Node13</title>
<g id="a_node13"><a xlink:title=" ">
<polygon fill="none" stroke="#bfbfbf" points="618.31,-0.5 618.31,-19.5 668.31,-19.5 668.31,-0.5 618.31,-0.5"/>
<text text-anchor="middle" x="643.31" y="-7.5" font-family="Helvetica,sans-Serif" font-size="10.00">cstdint</text>
</a>
</g>
</g>
<!-- Node12&#45;&gt;Node13 -->
<g id="edge12" class="edge">
<title>Node12&#45;&gt;Node13</title>
<path fill="none" stroke="midnightblue" d="M1910.57,-168.25C1910.46,-154.05 1907.98,-126.16 1891.31,-112 1735,20.74 1637.57,-74.29 1433.31,-56 1142.66,-29.98 790.41,-16.16 678.92,-12.21"/>
<polygon fill="midnightblue" stroke="midnightblue" points="678.71,-8.7 668.6,-11.84 678.47,-15.69 678.71,-8.7"/>
</g>
<!-- Node14 -->
<g id="node14" class="node">
<title>Node14</title>
<g id="a_node14"><a xlink:title=" ">
<polygon fill="none" stroke="#bfbfbf" points="1816.81,-112.5 1816.81,-131.5 1881.81,-131.5 1881.81,-112.5 1816.81,-112.5"/>
<text text-anchor="middle" x="1849.31" y="-119.5" font-family="Helvetica,sans-Serif" font-size="10.00">exception</text>
</a>
</g>
</g>
<!-- Node12&#45;&gt;Node14 -->
<g id="edge13" class="edge">
<title>Node12&#45;&gt;Node14</title>
<path fill="none" stroke="midnightblue" d="M1900.51,-168.32C1891.5,-160.34 1877.91,-148.31 1867,-138.65"/>
<polygon fill="midnightblue" stroke="midnightblue" points="1869.1,-135.84 1859.29,-131.83 1864.46,-141.08 1869.1,-135.84"/>
</g>
<!-- Node16&#45;&gt;Node3 -->
<g id="edge16" class="edge">
<title>Node16&#45;&gt;Node3</title>
<path fill="none" stroke="midnightblue" d="M745.19,-171.47C684.58,-161.05 554.13,-138.62 494.36,-128.34"/>
<polygon fill="midnightblue" stroke="midnightblue" points="494.84,-124.87 484.39,-126.63 493.66,-131.77 494.84,-124.87"/>
</g>
<!-- Node16&#45;&gt;Node5 -->
<g id="edge18" class="edge">
<title>Node16&#45;&gt;Node5</title>
<path fill="none" stroke="midnightblue" d="M802.67,-168.44C830.06,-159.2 873.82,-144.43 903.98,-134.25"/>
<polygon fill="midnightblue" stroke="midnightblue" points="905.29,-137.5 913.65,-130.99 903.05,-130.87 905.29,-137.5"/>
</g>
<!-- Node16&#45;&gt;Node6 -->
<g id="edge20" class="edge">
<title>Node16&#45;&gt;Node6</title>
<path fill="none" stroke="midnightblue" d="M777.29,-168.26C776.7,-145.62 771.74,-84.86 736.31,-56 686.12,-15.1 485.59,-10.81 406.05,-10.75"/>
<polygon fill="midnightblue" stroke="midnightblue" points="405.66,-7.25 395.66,-10.77 405.67,-14.25 405.66,-7.25"/>
</g>
<!-- Node16&#45;&gt;Node11 -->
<g id="edge21" class="edge">
<title>Node16&#45;&gt;Node11</title>
<path fill="none" stroke="midnightblue" d="M745.31,-171.81C706.18,-164.97 638.26,-151.47 582.31,-132 541.35,-117.74 496.36,-94.91 469.5,-80.45"/>
<polygon fill="midnightblue" stroke="midnightblue" points="470.93,-77.24 460.47,-75.53 467.58,-83.39 470.93,-77.24"/>
</g>
<!-- Node16&#45;&gt;Node13 -->
<g id="edge17" class="edge">
<title>Node16&#45;&gt;Node13</title>
<path fill="none" stroke="midnightblue" d="M809.52,-169.83C829.63,-163.5 853.98,-152.06 866.31,-132 875.38,-117.25 879.35,-76.23 861.31,-56 837.52,-29.31 734.19,-17.69 678.76,-13.3"/>
<polygon fill="midnightblue" stroke="midnightblue" points="678.91,-9.8 668.68,-12.54 678.39,-16.78 678.91,-9.8"/>
</g>
<!-- Node17 -->
<g id="node17" class="node">
<title>Node17</title>
<g id="a_node17"><a xlink:title=" ">
<polygon fill="none" stroke="#bfbfbf" points="311.81,-112.5 311.81,-131.5 376.81,-131.5 376.81,-112.5 311.81,-112.5"/>
<text text-anchor="middle" x="344.31" y="-119.5" font-family="Helvetica,sans-Serif" font-size="10.00">functional</text>
</a>
</g>
</g>
<!-- Node16&#45;&gt;Node17 -->
<g id="edge19" class="edge">
<title>Node16&#45;&gt;Node17</title>
<path fill="none" stroke="midnightblue" d="M745.12,-172.99C668.19,-163.39 473.62,-139.13 387.02,-128.33"/>
<polygon fill="midnightblue" stroke="midnightblue" points="387.37,-124.84 377.01,-127.08 386.5,-131.79 387.37,-124.84"/>
</g>
<!-- Node18 -->
<g id="node18" class="node">
<title>Node18</title>
<g id="a_node18"><a xlink:title=" ">
<polygon fill="none" stroke="#bfbfbf" points="783.81,-112.5 783.81,-131.5 856.81,-131.5 856.81,-112.5 783.81,-112.5"/>
<text text-anchor="middle" x="820.31" y="-119.5" font-family="Helvetica,sans-Serif" font-size="10.00">string_view</text>
</a>
</g>
</g>
<!-- Node16&#45;&gt;Node18 -->
<g id="edge22" class="edge">
<title>Node16&#45;&gt;Node18</title>
<path fill="none" stroke="midnightblue" d="M784.42,-168.08C790.55,-160.38 799.58,-149.03 807.05,-139.65"/>
<polygon fill="midnightblue" stroke="midnightblue" points="809.86,-141.75 813.35,-131.75 804.38,-137.39 809.86,-141.75"/>
</g>
<!-- Node19&#45;&gt;Node3 -->
<g id="edge25" class="edge">
<title>Node19&#45;&gt;Node3</title>
<path fill="none" stroke="midnightblue" d="M126.14,-171.42C200.94,-160.68 363.68,-137.31 432.06,-127.49"/>
<polygon fill="midnightblue" stroke="midnightblue" points="432.8,-130.92 442.2,-126.03 431.8,-123.99 432.8,-130.92"/>
</g>
<!-- Node19&#45;&gt;Node6 -->
<g id="edge28" class="edge">
<title>Node19&#45;&gt;Node6</title>
<path fill="none" stroke="midnightblue" d="M92.25,-168.39C105.5,-146.06 144.21,-85.98 193.31,-56 239.61,-27.73 302.87,-17.18 340.76,-13.27"/>
<polygon fill="midnightblue" stroke="midnightblue" points="341.56,-16.71 351.19,-12.3 340.91,-9.74 341.56,-16.71"/>
</g>
<!-- Node19&#45;&gt;Node11 -->
<g id="edge29" class="edge">
<title>Node19&#45;&gt;Node11</title>
<path fill="none" stroke="midnightblue" d="M114.72,-168.42C141.94,-159.76 184.79,-145.72 221.31,-132 242.95,-123.87 247.4,-119.33 269.31,-112 318.05,-95.71 376.03,-81.93 411.76,-74.06"/>
<polygon fill="midnightblue" stroke="midnightblue" points="412.63,-77.45 421.66,-71.91 411.14,-70.61 412.63,-77.45"/>
</g>
<!-- Node19&#45;&gt;Node13 -->
<g id="edge26" class="edge">
<title>Node19&#45;&gt;Node13</title>
<path fill="none" stroke="midnightblue" d="M103.02,-168.32C127.67,-154.93 177.17,-129.04 221.31,-112 359.3,-58.73 533.86,-27.76 607.73,-16.22"/>
<polygon fill="midnightblue" stroke="midnightblue" points="608.53,-19.64 617.88,-14.66 607.46,-12.72 608.53,-19.64"/>
</g>
<!-- Node19&#45;&gt;Node17 -->
<g id="edge27" class="edge">
<title>Node19&#45;&gt;Node17</title>
<path fill="none" stroke="midnightblue" d="M126.07,-168.86C173.33,-158.93 252.94,-142.2 301.83,-131.93"/>
<polygon fill="midnightblue" stroke="midnightblue" points="302.71,-135.32 311.77,-129.84 301.27,-128.47 302.71,-135.32"/>
</g>
<!-- Node19&#45;&gt;Node20 -->
<g id="edge24" class="edge">
<title>Node19&#45;&gt;Node20</title>
<path fill="none" stroke="midnightblue" d="M125.83,-169.01C161.09,-161.2 214.45,-148.16 259.31,-132 279.15,-124.86 281.94,-117.4 302.31,-112 489.41,-62.42 543.63,-94.31 736.31,-76 749.79,-74.72 764.48,-73.19 777.74,-71.76"/>
<polygon fill="midnightblue" stroke="midnightblue" points="778.46,-75.2 788.02,-70.64 777.7,-68.25 778.46,-75.2"/>
</g>
<!-- Node21 -->
<g id="node21" class="node">
<title>Node21</title>
<g id="a_node21"><a xlink:href="trace__instruction_8h.html" target="_top" xlink:title=" ">
<polygon fill="none" stroke="black" points="33.81,-56.5 33.81,-75.5 140.81,-75.5 140.81,-56.5 33.81,-56.5"/>
<text text-anchor="middle" x="87.31" y="-63.5" font-family="Helvetica,sans-Serif" font-size="10.00">trace_instruction.h</text>
</a>
</g>
</g>
<!-- Node19&#45;&gt;Node21 -->
<g id="edge30" class="edge">
<title>Node19&#45;&gt;Node21</title>
<path fill="none" stroke="midnightblue" d="M87.31,-168.37C87.31,-150.62 87.31,-109.67 87.31,-85.6"/>
<polygon fill="midnightblue" stroke="midnightblue" points="90.81,-85.59 87.31,-75.59 83.81,-85.59 90.81,-85.59"/>
</g>
<!-- Node21&#45;&gt;Node6 -->
<g id="edge31" class="edge">
<title>Node21&#45;&gt;Node6</title>
<path fill="none" stroke="midnightblue" d="M132.63,-56.44C190.72,-45.48 289.99,-26.73 340.98,-17.1"/>
<polygon fill="midnightblue" stroke="midnightblue" points="341.92,-20.49 351.1,-15.19 340.62,-13.61 341.92,-20.49"/>
</g>
<!-- Node25 -->
<g id="node25" class="node">
<title>Node25</title>
<g id="a_node25"><a xlink:href="msl_2lru__table_8h.html" target="_top" xlink:title=" ">
<polygon fill="none" stroke="black" points="590.81,-112.5 590.81,-131.5 679.81,-131.5 679.81,-112.5 590.81,-112.5"/>
<text text-anchor="middle" x="635.31" y="-119.5" font-family="Helvetica,sans-Serif" font-size="10.00">msl/lru_table.h</text>
</a>
</g>
</g>
<!-- Node24&#45;&gt;Node25 -->
<g id="edge35" class="edge">
<title>Node24&#45;&gt;Node25</title>
<path fill="none" stroke="midnightblue" d="M513.29,-168.44C537.47,-159.44 575.73,-145.19 602.96,-135.05"/>
<polygon fill="midnightblue" stroke="midnightblue" points="604.3,-138.29 612.45,-131.52 601.85,-131.73 604.3,-138.29"/>
</g>
<!-- Node25&#45;&gt;Node8 -->
<g id="edge39" class="edge">
<title>Node25&#45;&gt;Node8</title>
<path fill="none" stroke="midnightblue" d="M645.6,-112.32C655.15,-104.26 669.59,-92.08 681.1,-82.37"/>
<polygon fill="midnightblue" stroke="midnightblue" points="683.46,-84.96 688.85,-75.83 678.95,-79.61 683.46,-84.96"/>
</g>
<!-- Node25&#45;&gt;Node11 -->
<g id="edge41" class="edge">
<title>Node25&#45;&gt;Node11</title>
<path fill="none" stroke="midnightblue" d="M605.21,-112.44C570.83,-102.67 514.73,-86.73 478.94,-76.56"/>
<polygon fill="midnightblue" stroke="midnightblue" points="479.55,-73.09 468.98,-73.73 477.64,-79.83 479.55,-73.09"/>
</g>
<!-- Node25&#45;&gt;Node13 -->
<g id="edge38" class="edge">
<title>Node25&#45;&gt;Node13</title>
<path fill="none" stroke="midnightblue" d="M635.94,-112.37C637.23,-94.62 640.21,-53.67 641.96,-29.6"/>
<polygon fill="midnightblue" stroke="midnightblue" points="645.46,-29.82 642.69,-19.59 638.47,-29.31 645.46,-29.82"/>
</g>
<!-- Node25&#45;&gt;Node20 -->
<g id="edge36" class="edge">
<title>Node25&#45;&gt;Node20</title>
<path fill="none" stroke="midnightblue" d="M664.63,-112.44C696.16,-103.24 746.45,-88.56 781.3,-78.39"/>
<polygon fill="midnightblue" stroke="midnightblue" points="782.52,-81.68 791.14,-75.52 780.56,-74.96 782.52,-81.68"/>
</g>
<!-- Node26 -->
<g id="node26" class="node">
<title>Node26</title>
<g id="a_node26"><a xlink:title=" ">
<polygon fill="none" stroke="#bfbfbf" points="1372.31,-56.5 1372.31,-75.5 1424.31,-75.5 1424.31,-56.5 1372.31,-56.5"/>
<text text-anchor="middle" x="1398.31" y="-63.5" font-family="Helvetica,sans-Serif" font-size="10.00">cassert</text>
</a>
</g>
</g>
<!-- Node25&#45;&gt;Node26 -->
<g id="edge37" class="edge">
<title>Node25&#45;&gt;Node26</title>
<path fill="none" stroke="midnightblue" d="M679.91,-117.84C817.9,-108.08 1236.09,-78.48 1362.04,-69.57"/>
<polygon fill="midnightblue" stroke="midnightblue" points="1362.56,-73.04 1372.29,-68.84 1362.07,-66.06 1362.56,-73.04"/>
</g>
<!-- Node27 -->
<g id="node27" class="node">
<title>Node27</title>
<g id="a_node27"><a xlink:title=" ">
<polygon fill="none" stroke="#bfbfbf" points="486.81,-56.5 486.81,-75.5 531.81,-75.5 531.81,-56.5 486.81,-56.5"/>
<text text-anchor="middle" x="509.31" y="-63.5" font-family="Helvetica,sans-Serif" font-size="10.00">utility</text>
</a>
</g>
</g>
<!-- Node25&#45;&gt;Node27 -->
<g id="edge40" class="edge">
<title>Node25&#45;&gt;Node27</title>
<path fill="none" stroke="midnightblue" d="M615.35,-112.44C594.71,-103.6 562.25,-89.69 538.68,-79.59"/>
<polygon fill="midnightblue" stroke="midnightblue" points="539.76,-76.24 529.19,-75.52 537,-82.67 539.76,-76.24"/>
</g>
<!-- Node28 -->
<g id="node28" class="node">
<title>Node28</title>
<g id="a_node28"><a xlink:href="msl_2bits_8h.html" target="_top" xlink:title=" ">
<polygon fill="none" stroke="black" points="549.81,-56.5 549.81,-75.5 614.81,-75.5 614.81,-56.5 549.81,-56.5"/>
<text text-anchor="middle" x="582.31" y="-63.5" font-family="Helvetica,sans-Serif" font-size="10.00">msl/bits.h</text>
</a>
</g>
</g>
<!-- Node25&#45;&gt;Node28 -->
<g id="edge42" class="edge">
<title>Node25&#45;&gt;Node28</title>
<path fill="none" stroke="midnightblue" d="M626.56,-112.08C618.85,-104.22 607.41,-92.57 598.1,-83.08"/>
<polygon fill="midnightblue" stroke="midnightblue" points="600.41,-80.44 590.9,-75.75 595.41,-85.34 600.41,-80.44"/>
</g>
<!-- Node28&#45;&gt;Node6 -->
<g id="edge44" class="edge">
<title>Node28&#45;&gt;Node6</title>
<path fill="none" stroke="midnightblue" d="M549.66,-56.56C510.24,-46.38 444.4,-29.37 405.29,-19.26"/>
<polygon fill="midnightblue" stroke="midnightblue" points="406.04,-15.84 395.48,-16.73 404.29,-22.62 406.04,-15.84"/>
</g>
<!-- Node28&#45;&gt;Node13 -->
<g id="edge43" class="edge">
<title>Node28&#45;&gt;Node13</title>
<path fill="none" stroke="midnightblue" d="M592.12,-56.32C601.13,-48.34 614.72,-36.31 625.63,-26.65"/>
<polygon fill="midnightblue" stroke="midnightblue" points="628.17,-29.08 633.34,-19.83 623.53,-23.84 628.17,-29.08"/>
</g>
<!-- Node35&#45;&gt;Node3 -->
<g id="edge53" class="edge">
<title>Node35&#45;&gt;Node3</title>
<path fill="none" stroke="midnightblue" d="M1493.15,-224.36C1489,-209.78 1478.37,-180.67 1457.31,-168 1373.93,-117.85 679.45,-137.67 582.31,-132 552.54,-130.26 518.62,-127.63 494.64,-125.66"/>
<polygon fill="midnightblue" stroke="midnightblue" points="494.62,-122.15 484.37,-124.81 494.04,-129.13 494.62,-122.15"/>
</g>
<!-- Node35&#45;&gt;Node4 -->
<g id="edge54" class="edge">
<title>Node35&#45;&gt;Node4</title>
<path fill="none" stroke="midnightblue" d="M1472.34,-224.44C1448.02,-215.39 1409.45,-201.02 1382.19,-190.87"/>
<polygon fill="midnightblue" stroke="midnightblue" points="1383.3,-187.55 1372.71,-187.34 1380.86,-194.11 1383.3,-187.55"/>
</g>
<!-- Node35&#45;&gt;Node5 -->
<g id="edge55" class="edge">
<title>Node35&#45;&gt;Node5</title>
<path fill="none" stroke="midnightblue" d="M1497.73,-224.42C1501.08,-210.47 1505.17,-182.92 1490.31,-168 1453.65,-131.17 1085.88,-124.46 971.25,-123.26"/>
<polygon fill="midnightblue" stroke="midnightblue" points="971,-119.75 960.96,-123.16 970.93,-126.75 971,-119.75"/>
</g>
<!-- Node35&#45;&gt;Node7 -->
<g id="edge56" class="edge">
<title>Node35&#45;&gt;Node7</title>
<path fill="none" stroke="midnightblue" d="M1483.1,-224.32C1471.54,-216.11 1453.94,-203.6 1440.15,-193.81"/>
<polygon fill="midnightblue" stroke="midnightblue" points="1441.93,-190.77 1431.75,-187.83 1437.87,-196.48 1441.93,-190.77"/>
</g>
<!-- Node35&#45;&gt;Node10 -->
<g id="edge57" class="edge">
<title>Node35&#45;&gt;Node10</title>
<path fill="none" stroke="midnightblue" d="M1468.15,-226.27C1430.98,-217.06 1363.9,-200.45 1319.99,-189.57"/>
<polygon fill="midnightblue" stroke="midnightblue" points="1320.72,-186.15 1310.17,-187.14 1319.04,-192.94 1320.72,-186.15"/>
</g>
<!-- Node35&#45;&gt;Node11 -->
<g id="edge59" class="edge">
<title>Node35&#45;&gt;Node11</title>
<path fill="none" stroke="midnightblue" d="M1501.19,-224.2C1509.57,-210.43 1522.49,-183.73 1508.31,-168 1347.36,10.57 1209.78,-133.2 970.31,-112 754.79,-92.92 695.5,-113.3 479.05,-75.98"/>
<polygon fill="midnightblue" stroke="midnightblue" points="479.41,-72.49 468.96,-74.22 478.21,-79.39 479.41,-72.49"/>
</g>
<!-- Node35&#45;&gt;Node12 -->
<g id="edge60" class="edge">
<title>Node35&#45;&gt;Node12</title>
<path fill="none" stroke="midnightblue" d="M1522.64,-230.3C1582.34,-224.25 1729.06,-208.67 1861.69,-188.17"/>
<polygon fill="midnightblue" stroke="midnightblue" points="1862.28,-191.62 1871.62,-186.62 1861.2,-184.71 1862.28,-191.62"/>
</g>
<!-- Node35&#45;&gt;Node15 -->
<g id="edge61" class="edge">
<title>Node35&#45;&gt;Node15</title>
<path fill="none" stroke="midnightblue" d="M1468.23,-230.52C1399.28,-224.16 1211.28,-206.54 1042.92,-188.04"/>
<polygon fill="midnightblue" stroke="midnightblue" points="1043.2,-184.55 1032.88,-186.94 1042.44,-191.51 1043.2,-184.55"/>
</g>
<!-- Node35&#45;&gt;Node16 -->
<g id="edge62" class="edge">
<title>Node35&#45;&gt;Node16</title>
<path fill="none" stroke="midnightblue" d="M1468.1,-230.97C1383.33,-224.65 1116.4,-204.72 895.31,-188 870.2,-186.1 842.08,-183.96 819.59,-182.24"/>
<polygon fill="midnightblue" stroke="midnightblue" points="819.6,-178.73 809.37,-181.46 819.07,-185.71 819.6,-178.73"/>
</g>
<!-- Node35&#45;&gt;Node22 -->
<g id="edge63" class="edge">
<title>Node35&#45;&gt;Node22</title>
<path fill="none" stroke="midnightblue" d="M1467.91,-229.77C1410.88,-222.99 1275.07,-206.45 1150.2,-188.08"/>
<polygon fill="midnightblue" stroke="midnightblue" points="1150.49,-184.59 1140.08,-186.59 1149.46,-191.51 1150.49,-184.59"/>
</g>
<!-- Node35&#45;&gt;Node23 -->
<g id="edge64" class="edge">
<title>Node35&#45;&gt;Node23</title>
<path fill="none" stroke="midnightblue" d="M1468.05,-228.54C1420.78,-220.74 1320.62,-203.94 1236.31,-188 1236.21,-187.98 1236.11,-187.96 1236.01,-187.94"/>
<polygon fill="midnightblue" stroke="midnightblue" points="1236.89,-184.55 1226.4,-186.08 1235.55,-191.42 1236.89,-184.55"/>
</g>
<!-- Node35&#45;&gt;Node29 -->
<g id="edge65" class="edge">
<title>Node35&#45;&gt;Node29</title>
<path fill="none" stroke="midnightblue" d="M1522.56,-232.64C1609.59,-231.15 1879.72,-223.68 1958.31,-188 1981.86,-177.31 2002.5,-155.25 2014.93,-139.81"/>
<polygon fill="midnightblue" stroke="midnightblue" points="2017.92,-141.67 2021.26,-131.61 2012.38,-137.39 2017.92,-141.67"/>
</g>
<!-- Node36 -->
<g id="node36" class="node">
<title>Node36</title>
<g id="a_node36"><a xlink:title=" ">
<polygon fill="none" stroke="#bfbfbf" points="2005.31,-168.5 2005.31,-187.5 2049.31,-187.5 2049.31,-168.5 2005.31,-168.5"/>
<text text-anchor="middle" x="2027.31" y="-175.5" font-family="Helvetica,sans-Serif" font-size="10.00">string</text>
</a>
</g>
</g>
<!-- Node35&#45;&gt;Node36 -->
<g id="edge58" class="edge">
<title>Node35&#45;&gt;Node36</title>
<path fill="none" stroke="midnightblue" d="M1522.39,-232.01C1597.38,-228.97 1813.99,-218.02 1991.31,-188 1992.57,-187.79 1993.84,-187.56 1995.12,-187.31"/>
<polygon fill="midnightblue" stroke="midnightblue" points="1995.94,-190.71 2004.96,-185.16 1994.44,-183.87 1995.94,-190.71"/>
</g>
<!-- Node37 -->
<g id="node37" class="node">
<title>Node37</title>
<g id="a_node37"><a xlink:title=" ">
<polygon fill="none" stroke="#bfbfbf" points="1580.31,-168.5 1580.31,-187.5 1710.31,-187.5 1710.31,-168.5 1580.31,-168.5"/>
<text text-anchor="middle" x="1645.31" y="-175.5" font-family="Helvetica,sans-Serif" font-size="10.00">cache_module_decl.inc</text>
</a>
</g>
</g>
<!-- Node35&#45;&gt;Node37 -->
<g id="edge66" class="edge">
<title>Node35&#45;&gt;Node37</title>
<path fill="none" stroke="midnightblue" d="M1519.08,-224.44C1544.21,-215.4 1584.03,-201.06 1612.22,-190.92"/>
<polygon fill="midnightblue" stroke="midnightblue" points="1613.43,-194.2 1621.66,-187.52 1611.06,-187.61 1613.43,-194.2"/>
</g>
<!-- Node38 -->
<g id="node38" class="node">
<title>Node38</title>
<g id="a_node38"><a xlink:title=" ">
<polygon fill="none" stroke="#bfbfbf" points="1728.81,-168.5 1728.81,-187.5 1853.81,-187.5 1853.81,-168.5 1728.81,-168.5"/>
<text text-anchor="middle" x="1791.31" y="-175.5" font-family="Helvetica,sans-Serif" font-size="10.00">cache_module_def.inc</text>
</a>
</g>
</g>
<!-- Node35&#45;&gt;Node38 -->
<g id="edge67" class="edge">
<title>Node35&#45;&gt;Node38</title>
<path fill="none" stroke="midnightblue" d="M1522.37,-228.06C1570.32,-219.32 1671.18,-200.92 1734.84,-189.3"/>
<polygon fill="midnightblue" stroke="midnightblue" points="1735.51,-192.74 1744.72,-187.5 1734.25,-185.85 1735.51,-192.74"/>
</g>
<!-- Node39&#45;&gt;Node8 -->
<g id="edge70" class="edge">
<title>Node39&#45;&gt;Node8</title>
<path fill="none" stroke="midnightblue" d="M2231.11,-224.26C2230.32,-210.58 2226.88,-184 2212.31,-168 2166.92,-118.14 2137.36,-125.59 2071.31,-112 1789.99,-54.11 1065.84,-96.07 779.31,-76 765.67,-75.04 750.77,-73.5 737.57,-71.97"/>
<polygon fill="midnightblue" stroke="midnightblue" points="737.75,-68.46 727.4,-70.74 736.91,-75.41 737.75,-68.46"/>
</g>
<!-- Node39&#45;&gt;Node29 -->
<g id="edge72" class="edge">
<title>Node39&#45;&gt;Node29</title>
<path fill="none" stroke="midnightblue" d="M2196.28,-225.57C2168.18,-218.61 2128.43,-206.49 2097.31,-188 2075.39,-174.97 2054.54,-154.13 2041.39,-139.57"/>
<polygon fill="midnightblue" stroke="midnightblue" points="2043.82,-137.03 2034.59,-131.83 2038.56,-141.66 2043.82,-137.03"/>
</g>
<!-- Node39&#45;&gt;Node36 -->
<g id="edge71" class="edge">
<title>Node39&#45;&gt;Node36</title>
<path fill="none" stroke="midnightblue" d="M2198.99,-224.44C2160.79,-214.33 2097.61,-197.61 2059.48,-187.51"/>
<polygon fill="midnightblue" stroke="midnightblue" points="2059.99,-184.03 2049.43,-184.85 2058.2,-190.8 2059.99,-184.03"/>
</g>
<!-- Node39&#45;&gt;Node40 -->
<g id="edge73" class="edge">
<title>Node39&#45;&gt;Node40</title>
<path fill="none" stroke="midnightblue" d="M2241.28,-224.32C2250.44,-216.34 2264.25,-204.31 2275.34,-194.65"/>
<polygon fill="midnightblue" stroke="midnightblue" points="2277.93,-197.04 2283.17,-187.83 2273.33,-191.76 2277.93,-197.04"/>
</g>
<!-- Node39&#45;&gt;Node41 -->
<g id="edge74" class="edge">
<title>Node39&#45;&gt;Node41</title>
<path fill="none" stroke="midnightblue" d="M2255.56,-224.44C2281.19,-215.4 2321.8,-201.06 2350.55,-190.92"/>
<polygon fill="midnightblue" stroke="midnightblue" points="2351.92,-194.15 2360.18,-187.52 2349.59,-187.54 2351.92,-194.15"/>
</g>
<!-- Node42 -->
<g id="node42" class="node">
<title>Node42</title>
<g id="a_node42"><a xlink:href="type__traits_8h.html" target="_top" xlink:title=" ">
<polygon fill="none" stroke="black" points="2105.81,-168.5 2105.81,-187.5 2202.81,-187.5 2202.81,-168.5 2105.81,-168.5"/>
<text text-anchor="middle" x="2154.31" y="-175.5" font-family="Helvetica,sans-Serif" font-size="10.00">util/type_traits.h</text>
</a>
</g>
</g>
<!-- Node39&#45;&gt;Node42 -->
<g id="edge75" class="edge">
<title>Node39&#45;&gt;Node42</title>
<path fill="none" stroke="midnightblue" d="M2218.94,-224.32C2207.16,-216.06 2189.18,-203.45 2175.18,-193.63"/>
<polygon fill="midnightblue" stroke="midnightblue" points="2176.85,-190.53 2166.66,-187.65 2172.83,-196.26 2176.85,-190.53"/>
</g>
<!-- Node42&#45;&gt;Node29 -->
<g id="edge76" class="edge">
<title>Node42&#45;&gt;Node29</title>
<path fill="none" stroke="midnightblue" d="M2134.19,-168.44C2113.29,-159.56 2080.38,-145.56 2056.6,-135.45"/>
<polygon fill="midnightblue" stroke="midnightblue" points="2057.92,-132.21 2047.34,-131.52 2055.18,-138.65 2057.92,-132.21"/>
</g>
<!-- Node43&#45;&gt;Node6 -->
<g id="edge82" class="edge">
<title>Node43&#45;&gt;Node6</title>
<path fill="none" stroke="midnightblue" d="M2456.31,-114.06C2451.62,-113.27 2446.86,-112.55 2442.31,-112 1996.43,-58.06 1881.91,-77.97 1433.31,-56 1027.56,-36.13 534.19,-17.1 405.32,-12.21"/>
<polygon fill="midnightblue" stroke="midnightblue" points="405.45,-8.71 395.33,-11.83 405.19,-15.7 405.45,-8.71"/>
</g>
<!-- Node43&#45;&gt;Node20 -->
<g id="edge79" class="edge">
<title>Node43&#45;&gt;Node20</title>
<path fill="none" stroke="midnightblue" d="M2456.06,-113.9C2451.46,-113.14 2446.78,-112.48 2442.31,-112 2281.37,-94.79 1102.05,-72.21 862.64,-67.77"/>
<polygon fill="midnightblue" stroke="midnightblue" points="862.66,-64.27 852.6,-67.59 862.53,-71.27 862.66,-64.27"/>
</g>
<!-- Node43&#45;&gt;Node26 -->
<g id="edge80" class="edge">
<title>Node43&#45;&gt;Node26</title>
<path fill="none" stroke="midnightblue" d="M2456.06,-113.96C2451.45,-113.2 2446.78,-112.51 2442.31,-112 2049.67,-66.96 1569.26,-65.99 1434.8,-66.7"/>
<polygon fill="midnightblue" stroke="midnightblue" points="1434.62,-63.2 1424.65,-66.76 1434.67,-70.2 1434.62,-63.2"/>
</g>
<!-- Node44 -->
<g id="node44" class="node">
<title>Node44</title>
<g id="a_node44"><a xlink:title=" ">
<polygon fill="none" stroke="#bfbfbf" points="2463.81,-56.5 2463.81,-75.5 2516.81,-75.5 2516.81,-56.5 2463.81,-56.5"/>
<text text-anchor="middle" x="2490.31" y="-63.5" font-family="Helvetica,sans-Serif" font-size="10.00">iterator</text>
</a>
</g>
</g>
<!-- Node43&#45;&gt;Node44 -->
<g id="edge81" class="edge">
<title>Node43&#45;&gt;Node44</title>
<path fill="none" stroke="midnightblue" d="M2490.31,-112.08C2490.31,-105.01 2490.31,-94.86 2490.31,-85.99"/>
<polygon fill="midnightblue" stroke="midnightblue" points="2493.81,-85.75 2490.31,-75.75 2486.81,-85.75 2493.81,-85.75"/>
</g>
</g>
</svg>
