<?xml version="1.0" encoding="UTF-8" standalone="no"?>
<!DOCTYPE svg PUBLIC "-//W3C//DTD SVG 1.1//EN"
 "http://www.w3.org/Graphics/SVG/1.1/DTD/svg11.dtd">
<!-- Generated by graphviz version 2.43.0 (0)
 -->
<!-- Title: branch/perceptron/perceptron.cc Pages: 1 -->
<svg width="1631pt" height="308pt"
 viewBox="0.00 0.00 1631.40 308.00" xmlns="http://www.w3.org/2000/svg" xmlns:xlink="http://www.w3.org/1999/xlink">
<g id="graph0" class="graph" transform="scale(1 1) rotate(0) translate(4 304)">
<title>branch/perceptron/perceptron.cc</title>
<!-- Node1 -->
<g id="node1" class="node">
<title>Node1</title>
<g id="a_node1"><a xlink:title=" ">
<polygon fill="#bfbfbf" stroke="black" points="851.02,-280.5 851.02,-299.5 1025.02,-299.5 1025.02,-280.5 851.02,-280.5"/>
<text text-anchor="middle" x="938.02" y="-287.5" font-family="Helvetica,sans-Serif" font-size="10.00">branch/perceptron/perceptron.cc</text>
</a>
</g>
</g>
<!-- Node2 -->
<g id="node2" class="node">
<title>Node2</title>
<g id="a_node2"><a xlink:title=" ">
<polygon fill="none" stroke="#bfbfbf" points="32.02,-56.5 32.02,-75.5 96.02,-75.5 96.02,-56.5 32.02,-56.5"/>
<text text-anchor="middle" x="64.02" y="-63.5" font-family="Helvetica,sans-Serif" font-size="10.00">algorithm</text>
</a>
</g>
</g>
<!-- Node1&#45;&gt;Node2 -->
<g id="edge1" class="edge">
<title>Node1&#45;&gt;Node2</title>
<path fill="none" stroke="midnightblue" d="M850.83,-287.95C626.61,-284.84 45.5,-273.91 17.02,-244 -26.05,-198.77 24.66,-118.73 50.58,-83.94"/>
<polygon fill="midnightblue" stroke="midnightblue" points="53.55,-85.82 56.85,-75.75 47.99,-81.56 53.55,-85.82"/>
</g>
<!-- Node3 -->
<g id="node3" class="node">
<title>Node3</title>
<g id="a_node3"><a xlink:title=" ">
<polygon fill="none" stroke="#bfbfbf" points="1556.02,-56.5 1556.02,-75.5 1598.02,-75.5 1598.02,-56.5 1556.02,-56.5"/>
<text text-anchor="middle" x="1577.02" y="-63.5" font-family="Helvetica,sans-Serif" font-size="10.00">array</text>
</a>
</g>
</g>
<!-- Node1&#45;&gt;Node3 -->
<g id="edge2" class="edge">
<title>Node1&#45;&gt;Node3</title>
<path fill="none" stroke="midnightblue" d="M1025.19,-286.22C1151.18,-281.38 1377.54,-269.4 1455.02,-244 1500.51,-229.09 1514.86,-223.46 1547.02,-188 1565.58,-167.53 1567.25,-158.79 1574.02,-132 1577.88,-116.75 1578.43,-98.87 1578.13,-85.72"/>
<polygon fill="midnightblue" stroke="midnightblue" points="1581.62,-85.42 1577.7,-75.57 1574.62,-85.71 1581.62,-85.42"/>
</g>
<!-- Node4 -->
<g id="node4" class="node">
<title>Node4</title>
<g id="a_node4"><a xlink:title=" ">
<polygon fill="none" stroke="#bfbfbf" points="116.02,-168.5 116.02,-187.5 160.02,-187.5 160.02,-168.5 116.02,-168.5"/>
<text text-anchor="middle" x="138.02" y="-175.5" font-family="Helvetica,sans-Serif" font-size="10.00">bitset</text>
</a>
</g>
</g>
<!-- Node1&#45;&gt;Node4 -->
<g id="edge3" class="edge">
<title>Node1&#45;&gt;Node4</title>
<path fill="none" stroke="midnightblue" d="M850.8,-281.9C709.33,-269.42 421.22,-240.02 170.31,-188"/>
<polygon fill="midnightblue" stroke="midnightblue" points="170.78,-184.52 160.27,-185.9 169.34,-191.37 170.78,-184.52"/>
</g>
<!-- Node5 -->
<g id="node5" class="node">
<title>Node5</title>
<g id="a_node5"><a xlink:title=" ">
<polygon fill="none" stroke="#bfbfbf" points="877.52,-224.5 877.52,-243.5 924.52,-243.5 924.52,-224.5 877.52,-224.5"/>
<text text-anchor="middle" x="901.02" y="-231.5" font-family="Helvetica,sans-Serif" font-size="10.00">cmath</text>
</a>
</g>
</g>
<!-- Node1&#45;&gt;Node5 -->
<g id="edge4" class="edge">
<title>Node1&#45;&gt;Node5</title>
<path fill="none" stroke="midnightblue" d="M931.91,-280.08C926.74,-272.53 919.18,-261.49 912.83,-252.23"/>
<polygon fill="midnightblue" stroke="midnightblue" points="915.56,-250.02 907.02,-243.75 909.78,-253.98 915.56,-250.02"/>
</g>
<!-- Node6 -->
<g id="node6" class="node">
<title>Node6</title>
<g id="a_node6"><a xlink:title=" ">
<polygon fill="none" stroke="#bfbfbf" points="1036.52,-56.5 1036.52,-75.5 1083.52,-75.5 1083.52,-56.5 1036.52,-56.5"/>
<text text-anchor="middle" x="1060.02" y="-63.5" font-family="Helvetica,sans-Serif" font-size="10.00">deque</text>
</a>
</g>
</g>
<!-- Node1&#45;&gt;Node6 -->
<g id="edge5" class="edge">
<title>Node1&#45;&gt;Node6</title>
<path fill="none" stroke="midnightblue" d="M1025.24,-287.37C1174.09,-282.55 1467.32,-263.47 1531.02,-188 1536.76,-181.21 1536.96,-174.62 1531.02,-168 1481.77,-113.08 1272.11,-151.7 1201.02,-132 1157.57,-119.96 1110.7,-95.9 1083.43,-80.67"/>
<polygon fill="midnightblue" stroke="midnightblue" points="1085.07,-77.58 1074.64,-75.69 1081.62,-83.66 1085.07,-77.58"/>
</g>
<!-- Node7 -->
<g id="node7" class="node">
<title>Node7</title>
<g id="a_node7"><a xlink:title=" ">
<polygon fill="none" stroke="#bfbfbf" points="1027.02,-224.5 1027.02,-243.5 1065.02,-243.5 1065.02,-224.5 1027.02,-224.5"/>
<text text-anchor="middle" x="1046.02" y="-231.5" font-family="Helvetica,sans-Serif" font-size="10.00">map</text>
</a>
</g>
</g>
<!-- Node1&#45;&gt;Node7 -->
<g id="edge6" class="edge">
<title>Node1&#45;&gt;Node7</title>
<path fill="none" stroke="midnightblue" d="M955.37,-280.32C972.69,-271.66 999.54,-258.24 1019.52,-248.25"/>
<polygon fill="midnightblue" stroke="midnightblue" points="1021.33,-251.26 1028.71,-243.65 1018.2,-245 1021.33,-251.26"/>
</g>
<!-- Node8 -->
<g id="node8" class="node">
<title>Node8</title>
<g id="a_node8"><a xlink:href="fwcounter_8h.html" target="_top" xlink:title=" ">
<polygon fill="none" stroke="black" points="26.02,-224.5 26.02,-243.5 120.02,-243.5 120.02,-224.5 26.02,-224.5"/>
<text text-anchor="middle" x="73.02" y="-231.5" font-family="Helvetica,sans-Serif" font-size="10.00">msl/fwcounter.h</text>
</a>
</g>
</g>
<!-- Node1&#45;&gt;Node8 -->
<g id="edge7" class="edge">
<title>Node1&#45;&gt;Node8</title>
<path fill="none" stroke="midnightblue" d="M850.72,-283.55C674.15,-272.53 278.84,-247.85 130.62,-238.6"/>
<polygon fill="midnightblue" stroke="midnightblue" points="130.58,-235.09 120.38,-237.96 130.14,-242.07 130.58,-235.09"/>
</g>
<!-- Node10 -->
<g id="node10" class="node">
<title>Node10</title>
<g id="a_node10"><a xlink:href="ooo__cpu_8h.html" target="_top" xlink:title=" ">
<polygon fill="none" stroke="black" points="943.02,-224.5 943.02,-243.5 1009.02,-243.5 1009.02,-224.5 943.02,-224.5"/>
<text text-anchor="middle" x="976.02" y="-231.5" font-family="Helvetica,sans-Serif" font-size="10.00">ooo_cpu.h</text>
</a>
</g>
</g>
<!-- Node1&#45;&gt;Node10 -->
<g id="edge10" class="edge">
<title>Node1&#45;&gt;Node10</title>
<path fill="none" stroke="midnightblue" d="M944.3,-280.08C949.67,-272.46 957.54,-261.26 964.1,-251.94"/>
<polygon fill="midnightblue" stroke="midnightblue" points="966.97,-253.94 969.86,-243.75 961.25,-249.91 966.97,-253.94"/>
</g>
<!-- Node8&#45;&gt;Node2 -->
<g id="edge8" class="edge">
<title>Node8&#45;&gt;Node2</title>
<path fill="none" stroke="midnightblue" d="M63.73,-224.39C55.44,-216.02 43.88,-202.48 39.02,-188 27.08,-152.39 43.17,-108.89 54.53,-84.95"/>
<polygon fill="midnightblue" stroke="midnightblue" points="57.82,-86.2 59.16,-75.69 51.56,-83.07 57.82,-86.2"/>
</g>
<!-- Node9 -->
<g id="node9" class="node">
<title>Node9</title>
<g id="a_node9"><a xlink:title=" ">
<polygon fill="none" stroke="#bfbfbf" points="48.52,-168.5 48.52,-187.5 97.52,-187.5 97.52,-168.5 48.52,-168.5"/>
<text text-anchor="middle" x="73.02" y="-175.5" font-family="Helvetica,sans-Serif" font-size="10.00">cstdlib</text>
</a>
</g>
</g>
<!-- Node8&#45;&gt;Node9 -->
<g id="edge9" class="edge">
<title>Node8&#45;&gt;Node9</title>
<path fill="none" stroke="midnightblue" d="M73.02,-224.08C73.02,-217.01 73.02,-206.86 73.02,-197.99"/>
<polygon fill="midnightblue" stroke="midnightblue" points="76.52,-197.75 73.02,-187.75 69.52,-197.75 76.52,-197.75"/>
</g>
<!-- Node10&#45;&gt;Node3 -->
<g id="edge11" class="edge">
<title>Node10&#45;&gt;Node3</title>
<path fill="none" stroke="midnightblue" d="M1009.42,-225.4C1012.32,-224.87 1015.22,-224.4 1018.02,-224 1074.6,-215.99 1485.15,-222.07 1531.02,-188 1563.7,-163.73 1573.17,-113.23 1575.91,-85.77"/>
<polygon fill="midnightblue" stroke="midnightblue" points="1579.41,-85.8 1576.72,-75.55 1572.44,-85.25 1579.41,-85.8"/>
</g>
<!-- Node10&#45;&gt;Node4 -->
<g id="edge12" class="edge">
<title>Node10&#45;&gt;Node4</title>
<path fill="none" stroke="midnightblue" d="M942.78,-225.5C939.49,-224.92 936.2,-224.4 933.02,-224 599.11,-181.46 506.16,-242.56 170.24,-187.78"/>
<polygon fill="midnightblue" stroke="midnightblue" points="170.67,-184.3 160.23,-186.13 169.52,-191.21 170.67,-184.3"/>
</g>
<!-- Node10&#45;&gt;Node6 -->
<g id="edge13" class="edge">
<title>Node10&#45;&gt;Node6</title>
<path fill="none" stroke="midnightblue" d="M987.14,-224.5C997.29,-216.2 1012.03,-202.71 1021.02,-188 1041.18,-155.01 1052.01,-110.51 1056.84,-85.7"/>
<polygon fill="midnightblue" stroke="midnightblue" points="1060.3,-86.27 1058.65,-75.8 1053.41,-85.01 1060.3,-86.27"/>
</g>
<!-- Node11 -->
<g id="node11" class="node">
<title>Node11</title>
<g id="a_node11"><a xlink:title=" ">
<polygon fill="none" stroke="#bfbfbf" points="1380.02,-0.5 1380.02,-19.5 1424.02,-19.5 1424.02,-0.5 1380.02,-0.5"/>
<text text-anchor="middle" x="1402.02" y="-7.5" font-family="Helvetica,sans-Serif" font-size="10.00">limits</text>
</a>
</g>
</g>
<!-- Node10&#45;&gt;Node11 -->
<g id="edge14" class="edge">
<title>Node10&#45;&gt;Node11</title>
<path fill="none" stroke="midnightblue" d="M1009.42,-225.39C1012.32,-224.87 1015.22,-224.39 1018.02,-224 1077.14,-215.73 1504.09,-220.71 1554.02,-188 1606.9,-153.35 1646.64,-105.26 1607.02,-56 1585.71,-29.5 1486.51,-17.72 1434.32,-13.28"/>
<polygon fill="midnightblue" stroke="midnightblue" points="1434.49,-9.79 1424.24,-12.47 1433.93,-16.76 1434.49,-9.79"/>
</g>
<!-- Node12 -->
<g id="node12" class="node">
<title>Node12</title>
<g id="a_node12"><a xlink:title=" ">
<polygon fill="none" stroke="#bfbfbf" points="1091.02,-168.5 1091.02,-187.5 1149.02,-187.5 1149.02,-168.5 1091.02,-168.5"/>
<text text-anchor="middle" x="1120.02" y="-175.5" font-family="Helvetica,sans-Serif" font-size="10.00">memory</text>
</a>
</g>
</g>
<!-- Node10&#45;&gt;Node12 -->
<g id="edge15" class="edge">
<title>Node10&#45;&gt;Node12</title>
<path fill="none" stroke="midnightblue" d="M998.84,-224.44C1022.85,-215.44 1060.85,-201.19 1087.89,-191.05"/>
<polygon fill="midnightblue" stroke="midnightblue" points="1089.18,-194.3 1097.31,-187.52 1086.72,-187.75 1089.18,-194.3"/>
</g>
<!-- Node13 -->
<g id="node13" class="node">
<title>Node13</title>
<g id="a_node13"><a xlink:title=" ">
<polygon fill="none" stroke="#bfbfbf" points="413.02,-56.5 413.02,-75.5 469.02,-75.5 469.02,-56.5 413.02,-56.5"/>
<text text-anchor="middle" x="441.02" y="-63.5" font-family="Helvetica,sans-Serif" font-size="10.00">optional</text>
</a>
</g>
</g>
<!-- Node10&#45;&gt;Node13 -->
<g id="edge16" class="edge">
<title>Node10&#45;&gt;Node13</title>
<path fill="none" stroke="midnightblue" d="M942.77,-225.53C939.49,-224.95 936.2,-224.42 933.02,-224 864.62,-214.91 360.38,-238.19 313.02,-188 273.77,-146.4 360.19,-101 409.61,-79.56"/>
<polygon fill="midnightblue" stroke="midnightblue" points="411.11,-82.72 418.95,-75.6 408.38,-76.28 411.11,-82.72"/>
</g>
<!-- Node14 -->
<g id="node14" class="node">
<title>Node14</title>
<g id="a_node14"><a xlink:title=" ">
<polygon fill="none" stroke="#bfbfbf" points="1205.52,-168.5 1205.52,-187.5 1252.52,-187.5 1252.52,-168.5 1205.52,-168.5"/>
<text text-anchor="middle" x="1229.02" y="-175.5" font-family="Helvetica,sans-Serif" font-size="10.00">queue</text>
</a>
</g>
</g>
<!-- Node10&#45;&gt;Node14 -->
<g id="edge17" class="edge">
<title>Node10&#45;&gt;Node14</title>
<path fill="none" stroke="midnightblue" d="M1009.03,-225.91C1012.07,-225.26 1015.1,-224.62 1018.02,-224 1094.86,-207.77 1114.36,-205.05 1191.02,-188 1192.47,-187.68 1193.95,-187.35 1195.44,-187.01"/>
<polygon fill="midnightblue" stroke="midnightblue" points="1196.38,-190.38 1205.33,-184.72 1194.8,-183.56 1196.38,-190.38"/>
</g>
<!-- Node15 -->
<g id="node15" class="node">
<title>Node15</title>
<g id="a_node15"><a xlink:title=" ">
<polygon fill="none" stroke="#bfbfbf" points="1270.52,-168.5 1270.52,-187.5 1335.52,-187.5 1335.52,-168.5 1270.52,-168.5"/>
<text text-anchor="middle" x="1303.02" y="-175.5" font-family="Helvetica,sans-Serif" font-size="10.00">stdexcept</text>
</a>
</g>
</g>
<!-- Node10&#45;&gt;Node15 -->
<g id="edge18" class="edge">
<title>Node10&#45;&gt;Node15</title>
<path fill="none" stroke="midnightblue" d="M1009.45,-225.63C1012.35,-225.06 1015.23,-224.5 1018.02,-224 1122.31,-205.12 1151.87,-207.3 1260.45,-187.99"/>
<polygon fill="midnightblue" stroke="midnightblue" points="1261.28,-191.4 1270.5,-186.18 1260.04,-184.51 1261.28,-191.4"/>
</g>
<!-- Node16 -->
<g id="node16" class="node">
<title>Node16</title>
<g id="a_node16"><a xlink:title=" ">
<polygon fill="none" stroke="#bfbfbf" points="971.52,-56.5 971.52,-75.5 1018.52,-75.5 1018.52,-56.5 971.52,-56.5"/>
<text text-anchor="middle" x="995.02" y="-63.5" font-family="Helvetica,sans-Serif" font-size="10.00">vector</text>
</a>
</g>
</g>
<!-- Node10&#45;&gt;Node16 -->
<g id="edge19" class="edge">
<title>Node10&#45;&gt;Node16</title>
<path fill="none" stroke="midnightblue" d="M983.7,-224.46C990.8,-215.93 1000.88,-202.09 1005.02,-188 1015.35,-152.91 1007.08,-109.8 1000.68,-85.66"/>
<polygon fill="midnightblue" stroke="midnightblue" points="1003.96,-84.39 997.87,-75.73 997.23,-86.3 1003.96,-84.39"/>
</g>
<!-- Node17 -->
<g id="node17" class="node">
<title>Node17</title>
<g id="a_node17"><a xlink:href="champsim_8h.html" target="_top" xlink:title=" ">
<polygon fill="none" stroke="black" points="516.52,-168.5 516.52,-187.5 593.52,-187.5 593.52,-168.5 516.52,-168.5"/>
<text text-anchor="middle" x="555.02" y="-175.5" font-family="Helvetica,sans-Serif" font-size="10.00">champsim.h</text>
</a>
</g>
</g>
<!-- Node10&#45;&gt;Node17 -->
<g id="edge20" class="edge">
<title>Node10&#45;&gt;Node17</title>
<path fill="none" stroke="midnightblue" d="M942.75,-225.7C939.47,-225.08 936.19,-224.5 933.02,-224 790.15,-201.34 750.15,-209.54 603.96,-188.18"/>
<polygon fill="midnightblue" stroke="midnightblue" points="604.11,-184.67 593.71,-186.66 603.09,-191.59 604.11,-184.67"/>
</g>
<!-- Node20 -->
<g id="node20" class="node">
<title>Node20</title>
<g id="a_node20"><a xlink:title=" ">
<polygon fill="none" stroke="#bfbfbf" points="1392.52,-168.5 1392.52,-187.5 1521.52,-187.5 1521.52,-168.5 1392.52,-168.5"/>
<text text-anchor="middle" x="1457.02" y="-175.5" font-family="Helvetica,sans-Serif" font-size="10.00">champsim_constants.h</text>
</a>
</g>
</g>
<!-- Node10&#45;&gt;Node20 -->
<g id="edge23" class="edge">
<title>Node10&#45;&gt;Node20</title>
<path fill="none" stroke="midnightblue" d="M1009.43,-225.49C1012.33,-224.95 1015.22,-224.44 1018.02,-224 1176.88,-199.12 1218.14,-205.1 1378.02,-188 1379.34,-187.86 1380.66,-187.72 1381.99,-187.57"/>
<polygon fill="midnightblue" stroke="midnightblue" points="1382.8,-191.01 1392.36,-186.44 1382.04,-184.05 1382.8,-191.01"/>
</g>
<!-- Node21 -->
<g id="node21" class="node">
<title>Node21</title>
<g id="a_node21"><a xlink:href="channel_8h.html" target="_top" xlink:title=" ">
<polygon fill="none" stroke="black" points="1210.02,-112.5 1210.02,-131.5 1274.02,-131.5 1274.02,-112.5 1210.02,-112.5"/>
<text text-anchor="middle" x="1242.02" y="-119.5" font-family="Helvetica,sans-Serif" font-size="10.00">channel.h</text>
</a>
</g>
</g>
<!-- Node10&#45;&gt;Node21 -->
<g id="edge24" class="edge">
<title>Node10&#45;&gt;Node21</title>
<path fill="none" stroke="midnightblue" d="M1009.11,-225.6C1057.85,-214.58 1144.65,-194.47 1158.02,-188 1184.32,-175.28 1210.23,-153.42 1226.17,-138.6"/>
<polygon fill="midnightblue" stroke="midnightblue" points="1228.71,-141 1233.54,-131.57 1223.89,-135.94 1228.71,-141"/>
</g>
<!-- Node24 -->
<g id="node24" class="node">
<title>Node24</title>
<g id="a_node24"><a xlink:href="instruction_8h.html" target="_top" xlink:title=" ">
<polygon fill="none" stroke="black" points="1325.52,-112.5 1325.52,-131.5 1402.52,-131.5 1402.52,-112.5 1325.52,-112.5"/>
<text text-anchor="middle" x="1364.02" y="-119.5" font-family="Helvetica,sans-Serif" font-size="10.00">instruction.h</text>
</a>
</g>
</g>
<!-- Node10&#45;&gt;Node24 -->
<g id="edge32" class="edge">
<title>Node10&#45;&gt;Node24</title>
<path fill="none" stroke="midnightblue" d="M1009.44,-225.52C1012.33,-224.97 1015.23,-224.45 1018.02,-224 1090.19,-212.33 1289.02,-234.99 1345.02,-188 1358.37,-176.8 1362.63,-156.78 1363.85,-141.91"/>
<polygon fill="midnightblue" stroke="midnightblue" points="1367.36,-141.91 1364.3,-131.77 1360.36,-141.61 1367.36,-141.91"/>
</g>
<!-- Node26 -->
<g id="node26" class="node">
<title>Node26</title>
<g id="a_node26"><a xlink:href="module__impl_8h.html" target="_top" xlink:title=" ">
<polygon fill="none" stroke="black" points="322.52,-168.5 322.52,-187.5 411.52,-187.5 411.52,-168.5 322.52,-168.5"/>
<text text-anchor="middle" x="367.02" y="-175.5" font-family="Helvetica,sans-Serif" font-size="10.00">module_impl.h</text>
</a>
</g>
</g>
<!-- Node10&#45;&gt;Node26 -->
<g id="edge41" class="edge">
<title>Node10&#45;&gt;Node26</title>
<path fill="none" stroke="midnightblue" d="M942.77,-225.57C939.48,-224.98 936.2,-224.44 933.02,-224 710.39,-193.02 649.34,-214.14 422.01,-187.99"/>
<polygon fill="midnightblue" stroke="midnightblue" points="422.1,-184.48 411.76,-186.79 421.29,-191.43 422.1,-184.48"/>
</g>
<!-- Node27 -->
<g id="node27" class="node">
<title>Node27</title>
<g id="a_node27"><a xlink:href="operable_8h.html" target="_top" xlink:title=" ">
<polygon fill="none" stroke="black" points="430.02,-168.5 430.02,-187.5 498.02,-187.5 498.02,-168.5 430.02,-168.5"/>
<text text-anchor="middle" x="464.02" y="-175.5" font-family="Helvetica,sans-Serif" font-size="10.00">operable.h</text>
</a>
</g>
</g>
<!-- Node10&#45;&gt;Node27 -->
<g id="edge42" class="edge">
<title>Node10&#45;&gt;Node27</title>
<path fill="none" stroke="midnightblue" d="M942.76,-225.62C939.48,-225.02 936.19,-224.46 933.02,-224 748.23,-196.96 696.78,-214.88 508.19,-187.99"/>
<polygon fill="midnightblue" stroke="midnightblue" points="508.62,-184.52 498.22,-186.55 507.62,-191.45 508.62,-184.52"/>
</g>
<!-- Node28 -->
<g id="node28" class="node">
<title>Node28</title>
<g id="a_node28"><a xlink:href="util_2lru__table_8h.html" target="_top" xlink:title=" ">
<polygon fill="none" stroke="black" points="178.52,-168.5 178.52,-187.5 265.52,-187.5 265.52,-168.5 178.52,-168.5"/>
<text text-anchor="middle" x="222.02" y="-175.5" font-family="Helvetica,sans-Serif" font-size="10.00">util/lru_table.h</text>
</a>
</g>
</g>
<!-- Node10&#45;&gt;Node28 -->
<g id="edge43" class="edge">
<title>Node10&#45;&gt;Node28</title>
<path fill="none" stroke="midnightblue" d="M942.77,-225.52C939.49,-224.94 936.2,-224.42 933.02,-224 644.84,-186.12 569.1,-218.32 280.02,-188 278.57,-187.85 277.09,-187.68 275.6,-187.51"/>
<polygon fill="midnightblue" stroke="midnightblue" points="276.03,-184.04 265.67,-186.25 275.14,-190.98 276.03,-184.04"/>
</g>
<!-- Node33 -->
<g id="node33" class="node">
<title>Node33</title>
<g id="a_node33"><a xlink:title=" ">
<polygon fill="none" stroke="#bfbfbf" points="611.52,-168.5 611.52,-187.5 680.52,-187.5 680.52,-168.5 611.52,-168.5"/>
<text text-anchor="middle" x="646.02" y="-175.5" font-family="Helvetica,sans-Serif" font-size="10.00">type_traits</text>
</a>
</g>
</g>
<!-- Node10&#45;&gt;Node33 -->
<g id="edge54" class="edge">
<title>Node10&#45;&gt;Node33</title>
<path fill="none" stroke="midnightblue" d="M942.73,-225.83C939.45,-225.18 936.18,-224.56 933.02,-224 828.69,-205.37 799.25,-206.84 690.63,-188.01"/>
<polygon fill="midnightblue" stroke="midnightblue" points="691.03,-184.53 680.58,-186.25 689.82,-191.43 691.03,-184.53"/>
</g>
<!-- Node34 -->
<g id="node34" class="node">
<title>Node34</title>
<g id="a_node34"><a xlink:title=" ">
<polygon fill="none" stroke="#bfbfbf" points="699.02,-168.5 699.02,-187.5 841.02,-187.5 841.02,-168.5 699.02,-168.5"/>
<text text-anchor="middle" x="770.02" y="-175.5" font-family="Helvetica,sans-Serif" font-size="10.00">ooo_cpu_module_decl.inc</text>
</a>
</g>
</g>
<!-- Node10&#45;&gt;Node34 -->
<g id="edge55" class="edge">
<title>Node10&#45;&gt;Node34</title>
<path fill="none" stroke="midnightblue" d="M943.38,-224.44C907.97,-215.16 851.31,-200.31 812.47,-190.13"/>
<polygon fill="midnightblue" stroke="midnightblue" points="813.07,-186.67 802.51,-187.52 811.3,-193.44 813.07,-186.67"/>
</g>
<!-- Node35 -->
<g id="node35" class="node">
<title>Node35</title>
<g id="a_node35"><a xlink:title=" ">
<polygon fill="none" stroke="#bfbfbf" points="859.52,-168.5 859.52,-187.5 996.52,-187.5 996.52,-168.5 859.52,-168.5"/>
<text text-anchor="middle" x="928.02" y="-175.5" font-family="Helvetica,sans-Serif" font-size="10.00">ooo_cpu_module_def.inc</text>
</a>
</g>
</g>
<!-- Node10&#45;&gt;Node35 -->
<g id="edge56" class="edge">
<title>Node10&#45;&gt;Node35</title>
<path fill="none" stroke="midnightblue" d="M968.1,-224.08C961.18,-216.3 950.96,-204.8 942.57,-195.37"/>
<polygon fill="midnightblue" stroke="midnightblue" points="945.06,-192.9 935.8,-187.75 939.83,-197.55 945.06,-192.9"/>
</g>
<!-- Node18 -->
<g id="node18" class="node">
<title>Node18</title>
<g id="a_node18"><a xlink:title=" ">
<polygon fill="none" stroke="#bfbfbf" points="501.02,-0.5 501.02,-19.5 551.02,-19.5 551.02,-0.5 501.02,-0.5"/>
<text text-anchor="middle" x="526.02" y="-7.5" font-family="Helvetica,sans-Serif" font-size="10.00">cstdint</text>
</a>
</g>
</g>
<!-- Node17&#45;&gt;Node18 -->
<g id="edge21" class="edge">
<title>Node17&#45;&gt;Node18</title>
<path fill="none" stroke="midnightblue" d="M552.94,-168.41C550.8,-159.38 547.44,-144.74 545.02,-132 538.19,-95.91 531.93,-53.43 528.58,-29.62"/>
<polygon fill="midnightblue" stroke="midnightblue" points="532.02,-28.96 527.18,-19.54 525.08,-29.93 532.02,-28.96"/>
</g>
<!-- Node19 -->
<g id="node19" class="node">
<title>Node19</title>
<g id="a_node19"><a xlink:title=" ">
<polygon fill="none" stroke="#bfbfbf" points="554.52,-112.5 554.52,-131.5 619.52,-131.5 619.52,-112.5 554.52,-112.5"/>
<text text-anchor="middle" x="587.02" y="-119.5" font-family="Helvetica,sans-Serif" font-size="10.00">exception</text>
</a>
</g>
</g>
<!-- Node17&#45;&gt;Node19 -->
<g id="edge22" class="edge">
<title>Node17&#45;&gt;Node19</title>
<path fill="none" stroke="midnightblue" d="M560.31,-168.08C564.73,-160.61 571.19,-149.72 576.64,-140.52"/>
<polygon fill="midnightblue" stroke="midnightblue" points="579.75,-142.14 581.84,-131.75 573.73,-138.57 579.75,-142.14"/>
</g>
<!-- Node21&#45;&gt;Node3 -->
<g id="edge25" class="edge">
<title>Node21&#45;&gt;Node3</title>
<path fill="none" stroke="midnightblue" d="M1274.19,-116.86C1338.1,-108.53 1479.96,-89.56 1545.91,-75.92"/>
<polygon fill="midnightblue" stroke="midnightblue" points="1546.78,-79.31 1555.82,-73.78 1545.3,-72.47 1546.78,-79.31"/>
</g>
<!-- Node21&#45;&gt;Node6 -->
<g id="edge27" class="edge">
<title>Node21&#45;&gt;Node6</title>
<path fill="none" stroke="midnightblue" d="M1213.18,-112.44C1180.76,-102.82 1128.15,-87.21 1093.82,-77.03"/>
<polygon fill="midnightblue" stroke="midnightblue" points="1094.38,-73.54 1083.8,-74.05 1092.39,-80.25 1094.38,-73.54"/>
</g>
<!-- Node21&#45;&gt;Node11 -->
<g id="edge29" class="edge">
<title>Node21&#45;&gt;Node11</title>
<path fill="none" stroke="midnightblue" d="M1242.1,-112.14C1242.71,-98.29 1245.91,-71.48 1261.02,-56 1289.8,-26.51 1337.86,-16.31 1369.74,-12.8"/>
<polygon fill="midnightblue" stroke="midnightblue" points="1370.26,-16.27 1379.89,-11.85 1369.6,-9.3 1370.26,-16.27"/>
</g>
<!-- Node21&#45;&gt;Node16 -->
<g id="edge30" class="edge">
<title>Node21&#45;&gt;Node16</title>
<path fill="none" stroke="midnightblue" d="M1209.81,-114.97C1169.53,-107.27 1098.25,-93.13 1028.56,-76.26"/>
<polygon fill="midnightblue" stroke="midnightblue" points="1029.29,-72.84 1018.74,-73.86 1027.62,-79.64 1029.29,-72.84"/>
</g>
<!-- Node21&#45;&gt;Node18 -->
<g id="edge26" class="edge">
<title>Node21&#45;&gt;Node18</title>
<path fill="none" stroke="midnightblue" d="M1219.24,-112.44C1196.62,-103.79 1161.08,-89.77 1131.02,-76 1113.31,-67.89 1110.76,-61.32 1092.02,-56 991.42,-27.44 668.75,-15.31 561.25,-11.99"/>
<polygon fill="midnightblue" stroke="midnightblue" points="561.34,-8.49 551.24,-11.69 561.13,-15.49 561.34,-8.49"/>
</g>
<!-- Node22 -->
<g id="node22" class="node">
<title>Node22</title>
<g id="a_node22"><a xlink:title=" ">
<polygon fill="none" stroke="#bfbfbf" points="1270.52,-56.5 1270.52,-75.5 1335.52,-75.5 1335.52,-56.5 1270.52,-56.5"/>
<text text-anchor="middle" x="1303.02" y="-63.5" font-family="Helvetica,sans-Serif" font-size="10.00">functional</text>
</a>
</g>
</g>
<!-- Node21&#45;&gt;Node22 -->
<g id="edge28" class="edge">
<title>Node21&#45;&gt;Node22</title>
<path fill="none" stroke="midnightblue" d="M1251.82,-112.32C1260.84,-104.34 1274.43,-92.31 1285.34,-82.65"/>
<polygon fill="midnightblue" stroke="midnightblue" points="1287.88,-85.08 1293.04,-75.83 1283.24,-79.84 1287.88,-85.08"/>
</g>
<!-- Node23 -->
<g id="node23" class="node">
<title>Node23</title>
<g id="a_node23"><a xlink:title=" ">
<polygon fill="none" stroke="#bfbfbf" points="1140.52,-56.5 1140.52,-75.5 1213.52,-75.5 1213.52,-56.5 1140.52,-56.5"/>
<text text-anchor="middle" x="1177.02" y="-63.5" font-family="Helvetica,sans-Serif" font-size="10.00">string_view</text>
</a>
</g>
</g>
<!-- Node21&#45;&gt;Node23 -->
<g id="edge31" class="edge">
<title>Node21&#45;&gt;Node23</title>
<path fill="none" stroke="midnightblue" d="M1231.58,-112.32C1221.88,-104.26 1207.21,-92.08 1195.52,-82.37"/>
<polygon fill="midnightblue" stroke="midnightblue" points="1197.58,-79.53 1187.66,-75.83 1193.11,-84.92 1197.58,-79.53"/>
</g>
<!-- Node24&#45;&gt;Node2 -->
<g id="edge33" class="edge">
<title>Node24&#45;&gt;Node2</title>
<path fill="none" stroke="midnightblue" d="M1325.35,-116.08C1311.96,-114.55 1296.85,-112.99 1283.02,-112 796.9,-77.06 673.71,-101.79 187.02,-76 160.11,-74.57 129.93,-72.37 106.19,-70.51"/>
<polygon fill="midnightblue" stroke="midnightblue" points="106.36,-67.01 96.11,-69.7 105.8,-73.99 106.36,-67.01"/>
</g>
<!-- Node24&#45;&gt;Node3 -->
<g id="edge34" class="edge">
<title>Node24&#45;&gt;Node3</title>
<path fill="none" stroke="midnightblue" d="M1400.97,-112.49C1436,-104.3 1490.33,-91.26 1546.07,-76.16"/>
<polygon fill="midnightblue" stroke="midnightblue" points="1547.03,-79.53 1555.76,-73.52 1545.19,-72.78 1547.03,-79.53"/>
</g>
<!-- Node24&#45;&gt;Node11 -->
<g id="edge37" class="edge">
<title>Node24&#45;&gt;Node11</title>
<path fill="none" stroke="midnightblue" d="M1367,-112.37C1373.16,-94.54 1387.41,-53.3 1395.71,-29.27"/>
<polygon fill="midnightblue" stroke="midnightblue" points="1399.1,-30.19 1399.05,-19.59 1392.48,-27.9 1399.1,-30.19"/>
</g>
<!-- Node24&#45;&gt;Node16 -->
<g id="edge38" class="edge">
<title>Node24&#45;&gt;Node16</title>
<path fill="none" stroke="midnightblue" d="M1325.34,-116.53C1253.12,-108.09 1099.39,-89.56 1028.88,-76.09"/>
<polygon fill="midnightblue" stroke="midnightblue" points="1029.19,-72.59 1018.7,-74.06 1027.82,-79.45 1029.19,-72.59"/>
</g>
<!-- Node24&#45;&gt;Node18 -->
<g id="edge35" class="edge">
<title>Node24&#45;&gt;Node18</title>
<path fill="none" stroke="midnightblue" d="M1364.38,-112.13C1364.42,-97.75 1362.15,-69.59 1345.02,-56 1283.05,-6.84 711.7,-9.12 561.86,-10.57"/>
<polygon fill="midnightblue" stroke="midnightblue" points="561.38,-7.08 551.42,-10.68 561.46,-14.08 561.38,-7.08"/>
</g>
<!-- Node24&#45;&gt;Node22 -->
<g id="edge36" class="edge">
<title>Node24&#45;&gt;Node22</title>
<path fill="none" stroke="midnightblue" d="M1354.22,-112.32C1345.2,-104.34 1331.62,-92.31 1320.7,-82.65"/>
<polygon fill="midnightblue" stroke="midnightblue" points="1322.81,-79.84 1313,-75.83 1318.17,-85.08 1322.81,-79.84"/>
</g>
<!-- Node25 -->
<g id="node25" class="node">
<title>Node25</title>
<g id="a_node25"><a xlink:href="trace__instruction_8h.html" target="_top" xlink:title=" ">
<polygon fill="none" stroke="black" points="1430.52,-56.5 1430.52,-75.5 1537.52,-75.5 1537.52,-56.5 1430.52,-56.5"/>
<text text-anchor="middle" x="1484.02" y="-63.5" font-family="Helvetica,sans-Serif" font-size="10.00">trace_instruction.h</text>
</a>
</g>
</g>
<!-- Node24&#45;&gt;Node25 -->
<g id="edge39" class="edge">
<title>Node24&#45;&gt;Node25</title>
<path fill="none" stroke="midnightblue" d="M1383.04,-112.44C1402.61,-103.64 1433.33,-89.81 1455.75,-79.72"/>
<polygon fill="midnightblue" stroke="midnightblue" points="1457.41,-82.81 1465.1,-75.52 1454.54,-76.43 1457.41,-82.81"/>
</g>
<!-- Node25&#45;&gt;Node11 -->
<g id="edge40" class="edge">
<title>Node25&#45;&gt;Node11</title>
<path fill="none" stroke="midnightblue" d="M1470.85,-56.32C1458.18,-47.98 1438.79,-35.21 1423.82,-25.35"/>
<polygon fill="midnightblue" stroke="midnightblue" points="1425.44,-22.23 1415.16,-19.65 1421.59,-28.08 1425.44,-22.23"/>
</g>
<!-- Node29 -->
<g id="node29" class="node">
<title>Node29</title>
<g id="a_node29"><a xlink:href="msl_2lru__table_8h.html" target="_top" xlink:title=" ">
<polygon fill="none" stroke="black" points="177.52,-112.5 177.52,-131.5 266.52,-131.5 266.52,-112.5 177.52,-112.5"/>
<text text-anchor="middle" x="222.02" y="-119.5" font-family="Helvetica,sans-Serif" font-size="10.00">msl/lru_table.h</text>
</a>
</g>
</g>
<!-- Node28&#45;&gt;Node29 -->
<g id="edge44" class="edge">
<title>Node28&#45;&gt;Node29</title>
<path fill="none" stroke="midnightblue" d="M222.02,-168.08C222.02,-161.01 222.02,-150.86 222.02,-141.99"/>
<polygon fill="midnightblue" stroke="midnightblue" points="225.52,-141.75 222.02,-131.75 218.52,-141.75 225.52,-141.75"/>
</g>
<!-- Node29&#45;&gt;Node2 -->
<g id="edge45" class="edge">
<title>Node29&#45;&gt;Node2</title>
<path fill="none" stroke="midnightblue" d="M196.99,-112.44C170.41,-103.36 128.21,-88.94 98.5,-78.78"/>
<polygon fill="midnightblue" stroke="midnightblue" points="99.54,-75.44 88.94,-75.52 97.27,-82.06 99.54,-75.44"/>
</g>
<!-- Node29&#45;&gt;Node13 -->
<g id="edge48" class="edge">
<title>Node29&#45;&gt;Node13</title>
<path fill="none" stroke="midnightblue" d="M256.72,-112.44C296.53,-102.63 361.59,-86.59 402.82,-76.42"/>
<polygon fill="midnightblue" stroke="midnightblue" points="403.88,-79.76 412.75,-73.97 402.2,-72.97 403.88,-79.76"/>
</g>
<!-- Node29&#45;&gt;Node16 -->
<g id="edge50" class="edge">
<title>Node29&#45;&gt;Node16</title>
<path fill="none" stroke="midnightblue" d="M266.64,-117.88C406.91,-108.08 837.01,-78.04 961.15,-69.37"/>
<polygon fill="midnightblue" stroke="midnightblue" points="961.48,-72.85 971.21,-68.66 960.99,-65.87 961.48,-72.85"/>
</g>
<!-- Node29&#45;&gt;Node18 -->
<g id="edge47" class="edge">
<title>Node29&#45;&gt;Node18</title>
<path fill="none" stroke="midnightblue" d="M211.34,-112.46C196.09,-99.28 171.57,-73.64 187.02,-56 206.86,-33.35 408.12,-18.34 490.83,-13.08"/>
<polygon fill="midnightblue" stroke="midnightblue" points="491.23,-16.57 500.99,-12.45 490.8,-9.58 491.23,-16.57"/>
</g>
<!-- Node30 -->
<g id="node30" class="node">
<title>Node30</title>
<g id="a_node30"><a xlink:title=" ">
<polygon fill="none" stroke="#bfbfbf" points="196.02,-56.5 196.02,-75.5 248.02,-75.5 248.02,-56.5 196.02,-56.5"/>
<text text-anchor="middle" x="222.02" y="-63.5" font-family="Helvetica,sans-Serif" font-size="10.00">cassert</text>
</a>
</g>
</g>
<!-- Node29&#45;&gt;Node30 -->
<g id="edge46" class="edge">
<title>Node29&#45;&gt;Node30</title>
<path fill="none" stroke="midnightblue" d="M222.02,-112.08C222.02,-105.01 222.02,-94.86 222.02,-85.99"/>
<polygon fill="midnightblue" stroke="midnightblue" points="225.52,-85.75 222.02,-75.75 218.52,-85.75 225.52,-85.75"/>
</g>
<!-- Node31 -->
<g id="node31" class="node">
<title>Node31</title>
<g id="a_node31"><a xlink:title=" ">
<polygon fill="none" stroke="#bfbfbf" points="266.52,-56.5 266.52,-75.5 311.52,-75.5 311.52,-56.5 266.52,-56.5"/>
<text text-anchor="middle" x="289.02" y="-63.5" font-family="Helvetica,sans-Serif" font-size="10.00">utility</text>
</a>
</g>
</g>
<!-- Node29&#45;&gt;Node31 -->
<g id="edge49" class="edge">
<title>Node29&#45;&gt;Node31</title>
<path fill="none" stroke="midnightblue" d="M232.79,-112.32C242.79,-104.26 257.91,-92.08 269.95,-82.37"/>
<polygon fill="midnightblue" stroke="midnightblue" points="272.47,-84.83 278.06,-75.83 268.08,-79.38 272.47,-84.83"/>
</g>
<!-- Node32 -->
<g id="node32" class="node">
<title>Node32</title>
<g id="a_node32"><a xlink:href="msl_2bits_8h.html" target="_top" xlink:title=" ">
<polygon fill="none" stroke="black" points="329.52,-56.5 329.52,-75.5 394.52,-75.5 394.52,-56.5 329.52,-56.5"/>
<text text-anchor="middle" x="362.02" y="-63.5" font-family="Helvetica,sans-Serif" font-size="10.00">msl/bits.h</text>
</a>
</g>
</g>
<!-- Node29&#45;&gt;Node32 -->
<g id="edge51" class="edge">
<title>Node29&#45;&gt;Node32</title>
<path fill="none" stroke="midnightblue" d="M244.21,-112.44C267.45,-103.48 304.17,-89.31 330.44,-79.18"/>
<polygon fill="midnightblue" stroke="midnightblue" points="331.87,-82.38 339.94,-75.52 329.35,-75.85 331.87,-82.38"/>
</g>
<!-- Node32&#45;&gt;Node11 -->
<g id="edge53" class="edge">
<title>Node32&#45;&gt;Node11</title>
<path fill="none" stroke="midnightblue" d="M394.95,-57.4C398,-56.86 401.06,-56.38 404.02,-56 597.22,-31.12 1219.76,-15.26 1369.44,-11.74"/>
<polygon fill="midnightblue" stroke="midnightblue" points="1369.86,-15.23 1379.77,-11.5 1369.69,-8.23 1369.86,-15.23"/>
</g>
<!-- Node32&#45;&gt;Node18 -->
<g id="edge52" class="edge">
<title>Node32&#45;&gt;Node18</title>
<path fill="none" stroke="midnightblue" d="M388.01,-56.44C415.96,-47.24 460.55,-32.56 491.45,-22.38"/>
<polygon fill="midnightblue" stroke="midnightblue" points="492.56,-25.7 500.96,-19.25 490.37,-19.05 492.56,-25.7"/>
</g>
</g>
</svg>
