<?xml version="1.0" encoding="UTF-8" standalone="no"?>
<!DOCTYPE svg PUBLIC "-//W3C//DTD SVG 1.1//EN"
 "http://www.w3.org/Graphics/SVG/1.1/DTD/svg11.dtd">
<!-- Generated by graphviz version 2.43.0 (0)
 -->
<!-- Title: inc/phase_info.h Pages: 1 -->
<svg width="2342pt" height="308pt"
 viewBox="0.00 0.00 2342.30 308.00" xmlns="http://www.w3.org/2000/svg" xmlns:xlink="http://www.w3.org/1999/xlink">
<g id="graph0" class="graph" transform="scale(1 1) rotate(0) translate(4 304)">
<title>inc/phase_info.h</title>
<!-- Node1 -->
<g id="node1" class="node">
<title>Node1</title>
<g id="a_node1"><a xlink:title=" ">
<polygon fill="#bfbfbf" stroke="black" points="384,-280.5 384,-299.5 480,-299.5 480,-280.5 384,-280.5"/>
<text text-anchor="middle" x="432" y="-287.5" font-family="Helvetica,sans-Serif" font-size="10.00">inc/phase_info.h</text>
</a>
</g>
</g>
<!-- Node2 -->
<g id="node2" class="node">
<title>Node2</title>
<g id="a_node2"><a xlink:title=" ">
<polygon fill="none" stroke="#bfbfbf" points="1277,-0.5 1277,-19.5 1327,-19.5 1327,-0.5 1277,-0.5"/>
<text text-anchor="middle" x="1302" y="-7.5" font-family="Helvetica,sans-Serif" font-size="10.00">cstdint</text>
</a>
</g>
</g>
<!-- Node1&#45;&gt;Node2 -->
<g id="edge1" class="edge">
<title>Node1&#45;&gt;Node2</title>
<path fill="none" stroke="midnightblue" d="M383.86,-286.39C299.59,-281.26 129.19,-268.18 75,-244 34.72,-226.02 0,-223.11 0,-179 0,-179 0,-179 0,-121 0,27.18 179.91,-73.91 327,-56 691.89,-11.57 1138.47,-10.13 1266.3,-10.72"/>
<polygon fill="midnightblue" stroke="midnightblue" points="1266.63,-14.22 1276.65,-10.78 1266.67,-7.22 1266.63,-14.22"/>
</g>
<!-- Node3 -->
<g id="node3" class="node">
<title>Node3</title>
<g id="a_node3"><a xlink:title=" ">
<polygon fill="none" stroke="#bfbfbf" points="104,-168.5 104,-187.5 162,-187.5 162,-168.5 104,-168.5"/>
<text text-anchor="middle" x="133" y="-175.5" font-family="Helvetica,sans-Serif" font-size="10.00">memory</text>
</a>
</g>
</g>
<!-- Node1&#45;&gt;Node3 -->
<g id="edge2" class="edge">
<title>Node1&#45;&gt;Node3</title>
<path fill="none" stroke="midnightblue" d="M408.54,-280.37C355.59,-260.89 226.72,-213.48 165.86,-191.09"/>
<polygon fill="midnightblue" stroke="midnightblue" points="166.95,-187.76 156.35,-187.59 164.53,-194.33 166.95,-187.76"/>
</g>
<!-- Node4 -->
<g id="node4" class="node">
<title>Node4</title>
<g id="a_node4"><a xlink:title=" ">
<polygon fill="none" stroke="#bfbfbf" points="510,-168.5 510,-187.5 554,-187.5 554,-168.5 510,-168.5"/>
<text text-anchor="middle" x="532" y="-175.5" font-family="Helvetica,sans-Serif" font-size="10.00">string</text>
</a>
</g>
</g>
<!-- Node1&#45;&gt;Node4 -->
<g id="edge3" class="edge">
<title>Node1&#45;&gt;Node4</title>
<path fill="none" stroke="midnightblue" d="M439.85,-280.37C456.57,-261.97 495.94,-218.67 517.41,-195.05"/>
<polygon fill="midnightblue" stroke="midnightblue" points="520.05,-197.35 524.19,-187.59 514.87,-192.64 520.05,-197.35"/>
</g>
<!-- Node5 -->
<g id="node5" class="node">
<title>Node5</title>
<g id="a_node5"><a xlink:title=" ">
<polygon fill="none" stroke="#bfbfbf" points="1260.5,-56.5 1260.5,-75.5 1307.5,-75.5 1307.5,-56.5 1260.5,-56.5"/>
<text text-anchor="middle" x="1284" y="-63.5" font-family="Helvetica,sans-Serif" font-size="10.00">vector</text>
</a>
</g>
</g>
<!-- Node1&#45;&gt;Node5 -->
<g id="edge4" class="edge">
<title>Node1&#45;&gt;Node5</title>
<path fill="none" stroke="midnightblue" d="M383.91,-289.3C272.17,-288.25 9.96,-274.67 84,-168 124.58,-109.54 164.26,-126.14 234,-112 435.02,-71.24 1092.85,-67.36 1250.04,-67.03"/>
<polygon fill="midnightblue" stroke="midnightblue" points="1250.08,-70.53 1260.07,-67.01 1250.07,-63.53 1250.08,-70.53"/>
</g>
<!-- Node6 -->
<g id="node6" class="node">
<title>Node6</title>
<g id="a_node6"><a xlink:href="cache_8h.html" target="_top" xlink:title=" ">
<polygon fill="none" stroke="black" points="670,-224.5 670,-243.5 724,-243.5 724,-224.5 670,-224.5"/>
<text text-anchor="middle" x="697" y="-231.5" font-family="Helvetica,sans-Serif" font-size="10.00">cache.h</text>
</a>
</g>
</g>
<!-- Node1&#45;&gt;Node6 -->
<g id="edge5" class="edge">
<title>Node1&#45;&gt;Node6</title>
<path fill="none" stroke="midnightblue" d="M473.99,-280.44C525.22,-270 611.03,-252.52 659.92,-242.56"/>
<polygon fill="midnightblue" stroke="midnightblue" points="660.67,-245.98 669.77,-240.55 659.27,-239.12 660.67,-245.98"/>
</g>
<!-- Node17 -->
<g id="node17" class="node">
<title>Node17</title>
<g id="a_node17"><a xlink:title=" ">
<polygon fill="none" stroke="#bfbfbf" points="242.5,-112.5 242.5,-131.5 315.5,-131.5 315.5,-112.5 242.5,-112.5"/>
<text text-anchor="middle" x="279" y="-119.5" font-family="Helvetica,sans-Serif" font-size="10.00">string_view</text>
</a>
</g>
</g>
<!-- Node1&#45;&gt;Node17 -->
<g id="edge77" class="edge">
<title>Node1&#45;&gt;Node17</title>
<path fill="none" stroke="midnightblue" d="M383.68,-281.89C298.74,-268.28 128.47,-235.58 95,-188 59.66,-137.76 166.66,-126.08 232.12,-123.54"/>
<polygon fill="midnightblue" stroke="midnightblue" points="232.36,-127.04 242.24,-123.21 232.13,-120.04 232.36,-127.04"/>
</g>
<!-- Node23 -->
<g id="node23" class="node">
<title>Node23</title>
<g id="a_node23"><a xlink:href="dram__controller_8h.html" target="_top" xlink:title=" ">
<polygon fill="none" stroke="black" points="1355,-224.5 1355,-243.5 1457,-243.5 1457,-224.5 1355,-224.5"/>
<text text-anchor="middle" x="1406" y="-231.5" font-family="Helvetica,sans-Serif" font-size="10.00">dram_controller.h</text>
</a>
</g>
</g>
<!-- Node1&#45;&gt;Node23 -->
<g id="edge30" class="edge">
<title>Node1&#45;&gt;Node23</title>
<path fill="none" stroke="midnightblue" d="M480.19,-288.32C615.04,-286.05 1007.81,-276.98 1344.53,-244.04"/>
<polygon fill="midnightblue" stroke="midnightblue" points="1345.37,-247.47 1354.98,-243.01 1344.68,-240.51 1345.37,-247.47"/>
</g>
<!-- Node26 -->
<g id="node26" class="node">
<title>Node26</title>
<g id="a_node26"><a xlink:href="ooo__cpu_8h.html" target="_top" xlink:title=" ">
<polygon fill="none" stroke="black" points="1271,-224.5 1271,-243.5 1337,-243.5 1337,-224.5 1271,-224.5"/>
<text text-anchor="middle" x="1304" y="-231.5" font-family="Helvetica,sans-Serif" font-size="10.00">ooo_cpu.h</text>
</a>
</g>
</g>
<!-- Node1&#45;&gt;Node26 -->
<g id="edge39" class="edge">
<title>Node1&#45;&gt;Node26</title>
<path fill="none" stroke="midnightblue" d="M480.12,-286.02C634.24,-276.48 1114.05,-246.76 1260.87,-237.67"/>
<polygon fill="midnightblue" stroke="midnightblue" points="1261.1,-241.16 1270.86,-237.05 1260.66,-234.18 1261.1,-241.16"/>
</g>
<!-- Node6&#45;&gt;Node3 -->
<g id="edge9" class="edge">
<title>Node6&#45;&gt;Node3</title>
<path fill="none" stroke="midnightblue" d="M669.73,-232.08C592.89,-229.2 368,-218.71 172.26,-187.98"/>
<polygon fill="midnightblue" stroke="midnightblue" points="172.8,-184.52 162.37,-186.41 171.7,-191.44 172.8,-184.52"/>
</g>
<!-- Node6&#45;&gt;Node4 -->
<g id="edge11" class="edge">
<title>Node6&#45;&gt;Node4</title>
<path fill="none" stroke="midnightblue" d="M670.86,-224.44C641.75,-214.92 594.71,-199.52 563.57,-189.33"/>
<polygon fill="midnightblue" stroke="midnightblue" points="564.65,-186 554.06,-186.22 562.48,-192.66 564.65,-186"/>
</g>
<!-- Node6&#45;&gt;Node5 -->
<g id="edge12" class="edge">
<title>Node6&#45;&gt;Node5</title>
<path fill="none" stroke="midnightblue" d="M669.91,-230.85C621.17,-226.36 521.83,-214.15 501,-188 495.46,-181.05 497.18,-176.03 501,-168 517.98,-132.34 533.21,-126.37 570,-112 633.78,-87.09 1117.52,-71.7 1250.35,-67.92"/>
<polygon fill="midnightblue" stroke="midnightblue" points="1250.45,-71.42 1260.35,-67.64 1250.26,-64.42 1250.45,-71.42"/>
</g>
<!-- Node7 -->
<g id="node7" class="node">
<title>Node7</title>
<g id="a_node7"><a xlink:title=" ">
<polygon fill="none" stroke="#bfbfbf" points="1453,-112.5 1453,-131.5 1495,-131.5 1495,-112.5 1453,-112.5"/>
<text text-anchor="middle" x="1474" y="-119.5" font-family="Helvetica,sans-Serif" font-size="10.00">array</text>
</a>
</g>
</g>
<!-- Node6&#45;&gt;Node7 -->
<g id="edge6" class="edge">
<title>Node6&#45;&gt;Node7</title>
<path fill="none" stroke="midnightblue" d="M699.3,-224.37C703.7,-209.82 714.79,-180.73 736,-168 801.29,-128.81 1329.55,-144.29 1442.69,-131.46"/>
<polygon fill="midnightblue" stroke="midnightblue" points="1443.43,-134.89 1452.85,-130.03 1442.46,-127.96 1443.43,-134.89"/>
</g>
<!-- Node8 -->
<g id="node8" class="node">
<title>Node8</title>
<g id="a_node8"><a xlink:title=" ">
<polygon fill="none" stroke="#bfbfbf" points="939,-168.5 939,-187.5 983,-187.5 983,-168.5 939,-168.5"/>
<text text-anchor="middle" x="961" y="-175.5" font-family="Helvetica,sans-Serif" font-size="10.00">bitset</text>
</a>
</g>
</g>
<!-- Node6&#45;&gt;Node8 -->
<g id="edge7" class="edge">
<title>Node6&#45;&gt;Node8</title>
<path fill="none" stroke="midnightblue" d="M724.08,-228.6C765.91,-221.63 848.93,-207.08 928.52,-188.18"/>
<polygon fill="midnightblue" stroke="midnightblue" points="929.81,-191.47 938.71,-185.74 928.17,-184.67 929.81,-191.47"/>
</g>
<!-- Node9 -->
<g id="node9" class="node">
<title>Node9</title>
<g id="a_node9"><a xlink:title=" ">
<polygon fill="none" stroke="#bfbfbf" points="1151.5,-112.5 1151.5,-131.5 1198.5,-131.5 1198.5,-112.5 1151.5,-112.5"/>
<text text-anchor="middle" x="1175" y="-119.5" font-family="Helvetica,sans-Serif" font-size="10.00">deque</text>
</a>
</g>
</g>
<!-- Node6&#45;&gt;Node9 -->
<g id="edge8" class="edge">
<title>Node6&#45;&gt;Node9</title>
<path fill="none" stroke="midnightblue" d="M694.61,-224.45C691.29,-210.53 687.25,-183.02 702,-168 732.7,-136.74 1038.29,-126.37 1141.3,-123.75"/>
<polygon fill="midnightblue" stroke="midnightblue" points="1141.54,-127.24 1151.46,-123.5 1141.37,-120.25 1141.54,-127.24"/>
</g>
<!-- Node10 -->
<g id="node10" class="node">
<title>Node10</title>
<g id="a_node10"><a xlink:title=" ">
<polygon fill="none" stroke="#bfbfbf" points="1001.5,-168.5 1001.5,-187.5 1066.5,-187.5 1066.5,-168.5 1001.5,-168.5"/>
<text text-anchor="middle" x="1034" y="-175.5" font-family="Helvetica,sans-Serif" font-size="10.00">stdexcept</text>
</a>
</g>
</g>
<!-- Node6&#45;&gt;Node10 -->
<g id="edge10" class="edge">
<title>Node6&#45;&gt;Node10</title>
<path fill="none" stroke="midnightblue" d="M724.34,-229.39C774.9,-222.58 886.63,-206.99 991.37,-188.02"/>
<polygon fill="midnightblue" stroke="midnightblue" points="992.27,-191.41 1001.48,-186.17 991.01,-184.52 992.27,-191.41"/>
</g>
<!-- Node11 -->
<g id="node11" class="node">
<title>Node11</title>
<g id="a_node11"><a xlink:href="champsim_8h.html" target="_top" xlink:title=" ">
<polygon fill="none" stroke="black" points="572.5,-168.5 572.5,-187.5 649.5,-187.5 649.5,-168.5 572.5,-168.5"/>
<text text-anchor="middle" x="611" y="-175.5" font-family="Helvetica,sans-Serif" font-size="10.00">champsim.h</text>
</a>
</g>
</g>
<!-- Node6&#45;&gt;Node11 -->
<g id="edge13" class="edge">
<title>Node6&#45;&gt;Node11</title>
<path fill="none" stroke="midnightblue" d="M683.18,-224.32C669.77,-215.9 649.18,-202.97 633.41,-193.07"/>
<polygon fill="midnightblue" stroke="midnightblue" points="635.11,-190.01 624.78,-187.65 631.39,-195.94 635.11,-190.01"/>
</g>
<!-- Node13 -->
<g id="node13" class="node">
<title>Node13</title>
<g id="a_node13"><a xlink:title=" ">
<polygon fill="none" stroke="#bfbfbf" points="1084.5,-168.5 1084.5,-187.5 1213.5,-187.5 1213.5,-168.5 1084.5,-168.5"/>
<text text-anchor="middle" x="1149" y="-175.5" font-family="Helvetica,sans-Serif" font-size="10.00">champsim_constants.h</text>
</a>
</g>
</g>
<!-- Node6&#45;&gt;Node13 -->
<g id="edge16" class="edge">
<title>Node6&#45;&gt;Node13</title>
<path fill="none" stroke="midnightblue" d="M724.12,-229.82C784.81,-222.7 936.46,-204.86 1073.84,-188.26"/>
<polygon fill="midnightblue" stroke="midnightblue" points="1074.62,-191.69 1084.12,-187.01 1073.78,-184.74 1074.62,-191.69"/>
</g>
<!-- Node14 -->
<g id="node14" class="node">
<title>Node14</title>
<g id="a_node14"><a xlink:href="channel_8h.html" target="_top" xlink:title=" ">
<polygon fill="none" stroke="black" points="1356,-168.5 1356,-187.5 1420,-187.5 1420,-168.5 1356,-168.5"/>
<text text-anchor="middle" x="1388" y="-175.5" font-family="Helvetica,sans-Serif" font-size="10.00">channel.h</text>
</a>
</g>
</g>
<!-- Node6&#45;&gt;Node14 -->
<g id="edge17" class="edge">
<title>Node6&#45;&gt;Node14</title>
<path fill="none" stroke="midnightblue" d="M724.08,-232.55C812.25,-230.78 1099.12,-222.67 1345.63,-187.98"/>
<polygon fill="midnightblue" stroke="midnightblue" points="1346.45,-191.4 1355.85,-186.52 1345.46,-184.47 1346.45,-191.4"/>
</g>
<!-- Node18 -->
<g id="node18" class="node">
<title>Node18</title>
<g id="a_node18"><a xlink:href="module__impl_8h.html" target="_top" xlink:title=" ">
<polygon fill="none" stroke="black" points="744.5,-168.5 744.5,-187.5 833.5,-187.5 833.5,-168.5 744.5,-168.5"/>
<text text-anchor="middle" x="789" y="-175.5" font-family="Helvetica,sans-Serif" font-size="10.00">module_impl.h</text>
</a>
</g>
</g>
<!-- Node6&#45;&gt;Node18 -->
<g id="edge25" class="edge">
<title>Node6&#45;&gt;Node18</title>
<path fill="none" stroke="midnightblue" d="M711.78,-224.32C726.27,-215.82 748.57,-202.73 765.49,-192.8"/>
<polygon fill="midnightblue" stroke="midnightblue" points="767.4,-195.74 774.26,-187.65 763.86,-189.7 767.4,-195.74"/>
</g>
<!-- Node19 -->
<g id="node19" class="node">
<title>Node19</title>
<g id="a_node19"><a xlink:href="operable_8h.html" target="_top" xlink:title=" ">
<polygon fill="none" stroke="black" points="1270,-168.5 1270,-187.5 1338,-187.5 1338,-168.5 1270,-168.5"/>
<text text-anchor="middle" x="1304" y="-175.5" font-family="Helvetica,sans-Serif" font-size="10.00">operable.h</text>
</a>
</g>
</g>
<!-- Node6&#45;&gt;Node19 -->
<g id="edge26" class="edge">
<title>Node6&#45;&gt;Node19</title>
<path fill="none" stroke="midnightblue" d="M724.12,-230.92C801.86,-224.92 1032.14,-206.76 1223,-188 1234.87,-186.83 1247.71,-185.46 1259.59,-184.14"/>
<polygon fill="midnightblue" stroke="midnightblue" points="1260.18,-187.59 1269.73,-183 1259.4,-180.64 1260.18,-187.59"/>
</g>
<!-- Node20 -->
<g id="node20" class="node">
<title>Node20</title>
<g id="a_node20"><a xlink:title=" ">
<polygon fill="none" stroke="#bfbfbf" points="851.5,-168.5 851.5,-187.5 920.5,-187.5 920.5,-168.5 851.5,-168.5"/>
<text text-anchor="middle" x="886" y="-175.5" font-family="Helvetica,sans-Serif" font-size="10.00">type_traits</text>
</a>
</g>
</g>
<!-- Node6&#45;&gt;Node20 -->
<g id="edge27" class="edge">
<title>Node6&#45;&gt;Node20</title>
<path fill="none" stroke="midnightblue" d="M724.08,-225.26C756.08,-216.12 809.61,-200.83 846.29,-190.34"/>
<polygon fill="midnightblue" stroke="midnightblue" points="847.51,-193.64 856.16,-187.52 845.59,-186.91 847.51,-193.64"/>
</g>
<!-- Node21 -->
<g id="node21" class="node">
<title>Node21</title>
<g id="a_node21"><a xlink:title=" ">
<polygon fill="none" stroke="#bfbfbf" points="180,-168.5 180,-187.5 310,-187.5 310,-168.5 180,-168.5"/>
<text text-anchor="middle" x="245" y="-175.5" font-family="Helvetica,sans-Serif" font-size="10.00">cache_module_decl.inc</text>
</a>
</g>
</g>
<!-- Node6&#45;&gt;Node21 -->
<g id="edge28" class="edge">
<title>Node6&#45;&gt;Node21</title>
<path fill="none" stroke="midnightblue" d="M669.56,-229.73C607.37,-222.32 450.9,-203.67 320,-188 319.9,-187.99 319.8,-187.98 319.69,-187.96"/>
<polygon fill="midnightblue" stroke="midnightblue" points="320.39,-184.52 310.04,-186.81 319.56,-191.47 320.39,-184.52"/>
</g>
<!-- Node22 -->
<g id="node22" class="node">
<title>Node22</title>
<g id="a_node22"><a xlink:title=" ">
<polygon fill="none" stroke="#bfbfbf" points="328.5,-168.5 328.5,-187.5 453.5,-187.5 453.5,-168.5 328.5,-168.5"/>
<text text-anchor="middle" x="391" y="-175.5" font-family="Helvetica,sans-Serif" font-size="10.00">cache_module_def.inc</text>
</a>
</g>
</g>
<!-- Node6&#45;&gt;Node22 -->
<g id="edge29" class="edge">
<title>Node6&#45;&gt;Node22</title>
<path fill="none" stroke="midnightblue" d="M669.84,-228.21C620.52,-219.5 515.23,-200.92 449.07,-189.25"/>
<polygon fill="midnightblue" stroke="midnightblue" points="449.66,-185.8 439.21,-187.51 448.45,-192.69 449.66,-185.8"/>
</g>
<!-- Node11&#45;&gt;Node2 -->
<g id="edge14" class="edge">
<title>Node11&#45;&gt;Node2</title>
<path fill="none" stroke="midnightblue" d="M572.27,-169.48C569.14,-168.95 566.02,-168.45 563,-168 489.64,-157.12 184.09,-166.85 234,-112 305.13,-33.83 1089.77,-14.88 1266.7,-11.59"/>
<polygon fill="midnightblue" stroke="midnightblue" points="1266.84,-15.08 1276.77,-11.4 1266.71,-8.08 1266.84,-15.08"/>
</g>
<!-- Node12 -->
<g id="node12" class="node">
<title>Node12</title>
<g id="a_node12"><a xlink:title=" ">
<polygon fill="none" stroke="#bfbfbf" points="578.5,-112.5 578.5,-131.5 643.5,-131.5 643.5,-112.5 578.5,-112.5"/>
<text text-anchor="middle" x="611" y="-119.5" font-family="Helvetica,sans-Serif" font-size="10.00">exception</text>
</a>
</g>
</g>
<!-- Node11&#45;&gt;Node12 -->
<g id="edge15" class="edge">
<title>Node11&#45;&gt;Node12</title>
<path fill="none" stroke="midnightblue" d="M611,-168.08C611,-161.01 611,-150.86 611,-141.99"/>
<polygon fill="midnightblue" stroke="midnightblue" points="614.5,-141.75 611,-131.75 607.5,-141.75 614.5,-141.75"/>
</g>
<!-- Node14&#45;&gt;Node2 -->
<g id="edge19" class="edge">
<title>Node14&#45;&gt;Node2</title>
<path fill="none" stroke="midnightblue" d="M1360.31,-168.42C1331.63,-159.07 1289.3,-143.88 1277,-132 1251.42,-107.3 1237.53,-88.48 1252,-56 1257.57,-43.5 1268.52,-33.01 1278.75,-25.32"/>
<polygon fill="midnightblue" stroke="midnightblue" points="1280.85,-28.12 1287.05,-19.53 1276.84,-22.38 1280.85,-28.12"/>
</g>
<!-- Node14&#45;&gt;Node5 -->
<g id="edge23" class="edge">
<title>Node14&#45;&gt;Node5</title>
<path fill="none" stroke="midnightblue" d="M1361.79,-168.49C1335.54,-159.4 1297.82,-144.61 1289,-132 1279.68,-118.68 1279.25,-99.85 1280.66,-85.88"/>
<polygon fill="midnightblue" stroke="midnightblue" points="1284.13,-86.31 1282.05,-75.92 1277.2,-85.34 1284.13,-86.31"/>
</g>
<!-- Node14&#45;&gt;Node7 -->
<g id="edge18" class="edge">
<title>Node14&#45;&gt;Node7</title>
<path fill="none" stroke="midnightblue" d="M1401.82,-168.32C1415.23,-159.9 1435.82,-146.97 1451.59,-137.07"/>
<polygon fill="midnightblue" stroke="midnightblue" points="1453.61,-139.94 1460.22,-131.65 1449.89,-134.01 1453.61,-139.94"/>
</g>
<!-- Node14&#45;&gt;Node9 -->
<g id="edge20" class="edge">
<title>Node14&#45;&gt;Node9</title>
<path fill="none" stroke="midnightblue" d="M1355.65,-168.8C1315.93,-158.73 1248.89,-141.73 1208.61,-131.52"/>
<polygon fill="midnightblue" stroke="midnightblue" points="1209.29,-128.08 1198.73,-129.02 1207.57,-134.87 1209.29,-128.08"/>
</g>
<!-- Node15 -->
<g id="node15" class="node">
<title>Node15</title>
<g id="a_node15"><a xlink:title=" ">
<polygon fill="none" stroke="#bfbfbf" points="1369.5,-112.5 1369.5,-131.5 1434.5,-131.5 1434.5,-112.5 1369.5,-112.5"/>
<text text-anchor="middle" x="1402" y="-119.5" font-family="Helvetica,sans-Serif" font-size="10.00">functional</text>
</a>
</g>
</g>
<!-- Node14&#45;&gt;Node15 -->
<g id="edge21" class="edge">
<title>Node14&#45;&gt;Node15</title>
<path fill="none" stroke="midnightblue" d="M1390.31,-168.08C1392.17,-160.93 1394.84,-150.64 1397.15,-141.69"/>
<polygon fill="midnightblue" stroke="midnightblue" points="1400.61,-142.31 1399.73,-131.75 1393.83,-140.55 1400.61,-142.31"/>
</g>
<!-- Node16 -->
<g id="node16" class="node">
<title>Node16</title>
<g id="a_node16"><a xlink:title=" ">
<polygon fill="none" stroke="#bfbfbf" points="1815,-0.5 1815,-19.5 1859,-19.5 1859,-0.5 1815,-0.5"/>
<text text-anchor="middle" x="1837" y="-7.5" font-family="Helvetica,sans-Serif" font-size="10.00">limits</text>
</a>
</g>
</g>
<!-- Node14&#45;&gt;Node16 -->
<g id="edge22" class="edge">
<title>Node14&#45;&gt;Node16</title>
<path fill="none" stroke="midnightblue" d="M1380.85,-168.36C1374.23,-159.76 1364.84,-145.87 1361,-132 1351.07,-96.16 1364.43,-75.66 1396,-56 1464.27,-13.49 1715.01,-10.4 1804.77,-10.69"/>
<polygon fill="midnightblue" stroke="midnightblue" points="1804.88,-14.2 1814.9,-10.75 1804.92,-7.2 1804.88,-14.2"/>
</g>
<!-- Node14&#45;&gt;Node17 -->
<g id="edge24" class="edge">
<title>Node14&#45;&gt;Node17</title>
<path fill="none" stroke="midnightblue" d="M1355.86,-169.39C1352.88,-168.85 1349.89,-168.38 1347,-168 1244.95,-154.75 518.07,-130.68 325.64,-124.49"/>
<polygon fill="midnightblue" stroke="midnightblue" points="325.68,-120.99 315.57,-124.16 325.45,-127.98 325.68,-120.99"/>
</g>
<!-- Node23&#45;&gt;Node4 -->
<g id="edge35" class="edge">
<title>Node23&#45;&gt;Node4</title>
<path fill="none" stroke="midnightblue" d="M1354.98,-224.98C1351.95,-224.62 1348.94,-224.29 1346,-224 1003.02,-190.47 909.25,-242.45 564.25,-187.57"/>
<polygon fill="midnightblue" stroke="midnightblue" points="564.66,-184.09 554.23,-185.95 563.55,-191 564.66,-184.09"/>
</g>
<!-- Node23&#45;&gt;Node7 -->
<g id="edge31" class="edge">
<title>Node23&#45;&gt;Node7</title>
<path fill="none" stroke="midnightblue" d="M1457.14,-232.12C1632.82,-228.85 2202.39,-216.1 2229,-188 2235.11,-181.55 2235.12,-174.45 2229,-168 2202.73,-140.32 1581.01,-135.47 1543,-132 1530.66,-130.87 1517.13,-129.2 1505.34,-127.61"/>
<polygon fill="midnightblue" stroke="midnightblue" points="1505.48,-124.09 1495.09,-126.18 1504.51,-131.03 1505.48,-124.09"/>
</g>
<!-- Node23&#45;&gt;Node13 -->
<g id="edge36" class="edge">
<title>Node23&#45;&gt;Node13</title>
<path fill="none" stroke="midnightblue" d="M1365.28,-224.44C1320.35,-215 1248,-199.8 1199.5,-189.61"/>
<polygon fill="midnightblue" stroke="midnightblue" points="1200.04,-186.15 1189.53,-187.52 1198.6,-193 1200.04,-186.15"/>
</g>
<!-- Node23&#45;&gt;Node14 -->
<g id="edge37" class="edge">
<title>Node23&#45;&gt;Node14</title>
<path fill="none" stroke="midnightblue" d="M1403.03,-224.08C1400.62,-216.85 1397.14,-206.41 1394.13,-197.4"/>
<polygon fill="midnightblue" stroke="midnightblue" points="1397.4,-196.13 1390.92,-187.75 1390.76,-198.34 1397.4,-196.13"/>
</g>
<!-- Node23&#45;&gt;Node16 -->
<g id="edge33" class="edge">
<title>Node23&#45;&gt;Node16</title>
<path fill="none" stroke="midnightblue" d="M1457.17,-232.24C1637.92,-229.31 2237.08,-217.42 2265,-188 2319.42,-130.65 2430.68,-195.8 2158,-56 2107.99,-30.36 1940.59,-17.33 1869.44,-12.85"/>
<polygon fill="midnightblue" stroke="midnightblue" points="1869.47,-9.34 1859.28,-12.23 1869.04,-16.33 1869.47,-9.34"/>
</g>
<!-- Node23&#45;&gt;Node19 -->
<g id="edge38" class="edge">
<title>Node23&#45;&gt;Node19</title>
<path fill="none" stroke="midnightblue" d="M1389.61,-224.32C1373.33,-215.7 1348.13,-202.36 1329.28,-192.39"/>
<polygon fill="midnightblue" stroke="midnightblue" points="1330.82,-189.24 1320.35,-187.65 1327.55,-195.43 1330.82,-189.24"/>
</g>
<!-- Node24 -->
<g id="node24" class="node">
<title>Node24</title>
<g id="a_node24"><a xlink:title=" ">
<polygon fill="none" stroke="#bfbfbf" points="2172.5,-168.5 2172.5,-187.5 2219.5,-187.5 2219.5,-168.5 2172.5,-168.5"/>
<text text-anchor="middle" x="2196" y="-175.5" font-family="Helvetica,sans-Serif" font-size="10.00">cmath</text>
</a>
</g>
</g>
<!-- Node23&#45;&gt;Node24 -->
<g id="edge32" class="edge">
<title>Node23&#45;&gt;Node24</title>
<path fill="none" stroke="midnightblue" d="M1457.37,-232.97C1579.52,-232.25 1896.62,-226.48 2158,-188 2159.47,-187.78 2160.96,-187.54 2162.47,-187.27"/>
<polygon fill="midnightblue" stroke="midnightblue" points="2163.3,-190.67 2172.41,-185.25 2161.91,-183.81 2163.3,-190.67"/>
</g>
<!-- Node25 -->
<g id="node25" class="node">
<title>Node25</title>
<g id="a_node25"><a xlink:title=" ">
<polygon fill="none" stroke="#bfbfbf" points="1906,-56.5 1906,-75.5 1962,-75.5 1962,-56.5 1906,-56.5"/>
<text text-anchor="middle" x="1934" y="-63.5" font-family="Helvetica,sans-Serif" font-size="10.00">optional</text>
</a>
</g>
</g>
<!-- Node23&#45;&gt;Node25 -->
<g id="edge34" class="edge">
<title>Node23&#45;&gt;Node25</title>
<path fill="none" stroke="midnightblue" d="M1457.2,-232.17C1635.21,-229.05 2217.81,-216.68 2245,-188 2327.66,-100.79 2072.23,-75.47 1972.29,-69"/>
<polygon fill="midnightblue" stroke="midnightblue" points="1972.49,-65.5 1962.29,-68.38 1972.05,-72.49 1972.49,-65.5"/>
</g>
<!-- Node26&#45;&gt;Node3 -->
<g id="edge44" class="edge">
<title>Node26&#45;&gt;Node3</title>
<path fill="none" stroke="midnightblue" d="M1270.86,-232.55C1110.34,-230.22 411.93,-218.57 172.39,-187.88"/>
<polygon fill="midnightblue" stroke="midnightblue" points="172.73,-184.39 162.35,-186.54 171.8,-191.33 172.73,-184.39"/>
</g>
<!-- Node26&#45;&gt;Node5 -->
<g id="edge48" class="edge">
<title>Node26&#45;&gt;Node5</title>
<path fill="none" stroke="midnightblue" d="M1337.22,-225.59C1370.47,-217.42 1418.19,-203.38 1429,-188 1434.11,-180.73 1433.58,-175.62 1429,-168 1411.36,-138.7 1389.34,-151.14 1361,-132 1338.74,-116.96 1315.48,-96.58 1300.43,-82.67"/>
<polygon fill="midnightblue" stroke="midnightblue" points="1302.66,-79.97 1292.97,-75.69 1297.87,-85.08 1302.66,-79.97"/>
</g>
<!-- Node26&#45;&gt;Node7 -->
<g id="edge40" class="edge">
<title>Node26&#45;&gt;Node7</title>
<path fill="none" stroke="midnightblue" d="M1337.06,-225.54C1380.82,-215.38 1453.49,-197.36 1462,-188 1473.21,-175.67 1475.56,-156.42 1475.5,-142.06"/>
<polygon fill="midnightblue" stroke="midnightblue" points="1478.99,-141.66 1475.06,-131.83 1471.99,-141.97 1478.99,-141.66"/>
</g>
<!-- Node26&#45;&gt;Node8 -->
<g id="edge41" class="edge">
<title>Node26&#45;&gt;Node8</title>
<path fill="none" stroke="midnightblue" d="M1270.61,-229.62C1215.12,-223.68 1100.29,-210.07 993.28,-187.78"/>
<polygon fill="midnightblue" stroke="midnightblue" points="993.79,-184.31 983.29,-185.67 992.35,-191.16 993.79,-184.31"/>
</g>
<!-- Node26&#45;&gt;Node9 -->
<g id="edge42" class="edge">
<title>Node26&#45;&gt;Node9</title>
<path fill="none" stroke="midnightblue" d="M1293.88,-224.37C1272.02,-205.73 1220.19,-161.53 1192.75,-138.13"/>
<polygon fill="midnightblue" stroke="midnightblue" points="1194.96,-135.42 1185.08,-131.59 1190.41,-140.74 1194.96,-135.42"/>
</g>
<!-- Node26&#45;&gt;Node10 -->
<g id="edge47" class="edge">
<title>Node26&#45;&gt;Node10</title>
<path fill="none" stroke="midnightblue" d="M1270.74,-226.61C1228.22,-218.4 1152.06,-203.58 1076.69,-188.12"/>
<polygon fill="midnightblue" stroke="midnightblue" points="1077.05,-184.62 1066.55,-186.03 1075.64,-191.47 1077.05,-184.62"/>
</g>
<!-- Node26&#45;&gt;Node11 -->
<g id="edge49" class="edge">
<title>Node26&#45;&gt;Node11</title>
<path fill="none" stroke="midnightblue" d="M1270.58,-230.4C1158.04,-221.63 792.57,-193.15 659.79,-182.8"/>
<polygon fill="midnightblue" stroke="midnightblue" points="659.76,-179.29 649.52,-182 659.22,-186.27 659.76,-179.29"/>
</g>
<!-- Node26&#45;&gt;Node13 -->
<g id="edge50" class="edge">
<title>Node26&#45;&gt;Node13</title>
<path fill="none" stroke="midnightblue" d="M1279.44,-224.44C1253.48,-215.4 1212.33,-201.06 1183.2,-190.92"/>
<polygon fill="midnightblue" stroke="midnightblue" points="1184.04,-187.5 1173.45,-187.52 1181.74,-194.11 1184.04,-187.5"/>
</g>
<!-- Node26&#45;&gt;Node14 -->
<g id="edge51" class="edge">
<title>Node26&#45;&gt;Node14</title>
<path fill="none" stroke="midnightblue" d="M1317.5,-224.32C1330.6,-215.9 1350.71,-202.97 1366.11,-193.07"/>
<polygon fill="midnightblue" stroke="midnightblue" points="1368.02,-196.01 1374.54,-187.65 1364.23,-190.12 1368.02,-196.01"/>
</g>
<!-- Node26&#45;&gt;Node16 -->
<g id="edge43" class="edge">
<title>Node26&#45;&gt;Node16</title>
<path fill="none" stroke="midnightblue" d="M1337.38,-225.33C1340.29,-224.82 1343.19,-224.36 1346,-224 1388.97,-218.44 2095.08,-219.33 2125,-188 2210.37,-98.6 1960.29,-36.49 1868.97,-17.28"/>
<polygon fill="midnightblue" stroke="midnightblue" points="1869.65,-13.85 1859.15,-15.25 1868.24,-20.7 1869.65,-13.85"/>
</g>
<!-- Node26&#45;&gt;Node18 -->
<g id="edge61" class="edge">
<title>Node26&#45;&gt;Node18</title>
<path fill="none" stroke="midnightblue" d="M1270.93,-230.55C1196.57,-224.86 1010.31,-209.71 843.69,-188"/>
<polygon fill="midnightblue" stroke="midnightblue" points="844.12,-184.53 833.75,-186.7 843.21,-191.47 844.12,-184.53"/>
</g>
<!-- Node26&#45;&gt;Node19 -->
<g id="edge62" class="edge">
<title>Node26&#45;&gt;Node19</title>
<path fill="none" stroke="midnightblue" d="M1304,-224.08C1304,-217.01 1304,-206.86 1304,-197.99"/>
<polygon fill="midnightblue" stroke="midnightblue" points="1307.5,-197.75 1304,-187.75 1300.5,-197.75 1307.5,-197.75"/>
</g>
<!-- Node26&#45;&gt;Node20 -->
<g id="edge74" class="edge">
<title>Node26&#45;&gt;Node20</title>
<path fill="none" stroke="midnightblue" d="M1270.85,-229.93C1207.04,-223.83 1062.52,-209.05 930.43,-187.94"/>
<polygon fill="midnightblue" stroke="midnightblue" points="930.97,-184.48 920.54,-186.34 929.85,-191.39 930.97,-184.48"/>
</g>
<!-- Node26&#45;&gt;Node25 -->
<g id="edge45" class="edge">
<title>Node26&#45;&gt;Node25</title>
<path fill="none" stroke="midnightblue" d="M1337.4,-225.44C1340.3,-224.91 1343.2,-224.42 1346,-224 1533.5,-196.08 1593.69,-255.05 1771,-188 1803.06,-175.88 1880.51,-112.32 1915.86,-82.49"/>
<polygon fill="midnightblue" stroke="midnightblue" points="1918.52,-84.82 1923.88,-75.68 1913.99,-79.48 1918.52,-84.82"/>
</g>
<!-- Node27 -->
<g id="node27" class="node">
<title>Node27</title>
<g id="a_node27"><a xlink:title=" ">
<polygon fill="none" stroke="#bfbfbf" points="1714.5,-168.5 1714.5,-187.5 1761.5,-187.5 1761.5,-168.5 1714.5,-168.5"/>
<text text-anchor="middle" x="1738" y="-175.5" font-family="Helvetica,sans-Serif" font-size="10.00">queue</text>
</a>
</g>
</g>
<!-- Node26&#45;&gt;Node27 -->
<g id="edge46" class="edge">
<title>Node26&#45;&gt;Node27</title>
<path fill="none" stroke="midnightblue" d="M1337.41,-225.49C1340.31,-224.95 1343.2,-224.44 1346,-224 1501.6,-199.63 1546.18,-217.13 1704.26,-188.04"/>
<polygon fill="midnightblue" stroke="midnightblue" points="1705.16,-191.43 1714.34,-186.15 1703.87,-184.55 1705.16,-191.43"/>
</g>
<!-- Node28 -->
<g id="node28" class="node">
<title>Node28</title>
<g id="a_node28"><a xlink:href="instruction_8h.html" target="_top" xlink:title=" ">
<polygon fill="none" stroke="black" points="1619.5,-168.5 1619.5,-187.5 1696.5,-187.5 1696.5,-168.5 1619.5,-168.5"/>
<text text-anchor="middle" x="1658" y="-175.5" font-family="Helvetica,sans-Serif" font-size="10.00">instruction.h</text>
</a>
</g>
</g>
<!-- Node26&#45;&gt;Node28 -->
<g id="edge52" class="edge">
<title>Node26&#45;&gt;Node28</title>
<path fill="none" stroke="midnightblue" d="M1337.43,-225.6C1340.32,-225.03 1343.21,-224.49 1346,-224 1459.88,-204.09 1491.96,-207 1609.21,-188.22"/>
<polygon fill="midnightblue" stroke="midnightblue" points="1609.99,-191.64 1619.3,-186.58 1608.87,-184.73 1609.99,-191.64"/>
</g>
<!-- Node31 -->
<g id="node31" class="node">
<title>Node31</title>
<g id="a_node31"><a xlink:href="util_2lru__table_8h.html" target="_top" xlink:title=" ">
<polygon fill="none" stroke="black" points="1514.5,-168.5 1514.5,-187.5 1601.5,-187.5 1601.5,-168.5 1514.5,-168.5"/>
<text text-anchor="middle" x="1558" y="-175.5" font-family="Helvetica,sans-Serif" font-size="10.00">util/lru_table.h</text>
</a>
</g>
</g>
<!-- Node26&#45;&gt;Node31 -->
<g id="edge63" class="edge">
<title>Node26&#45;&gt;Node31</title>
<path fill="none" stroke="midnightblue" d="M1337.01,-225.92C1340.05,-225.27 1343.08,-224.62 1346,-224 1401.36,-212.19 1464.87,-198.72 1507.83,-189.62"/>
<polygon fill="midnightblue" stroke="midnightblue" points="1508.69,-193.02 1517.75,-187.52 1507.24,-186.17 1508.69,-193.02"/>
</g>
<!-- Node36 -->
<g id="node36" class="node">
<title>Node36</title>
<g id="a_node36"><a xlink:title=" ">
<polygon fill="none" stroke="#bfbfbf" points="1818,-168.5 1818,-187.5 1960,-187.5 1960,-168.5 1818,-168.5"/>
<text text-anchor="middle" x="1889" y="-175.5" font-family="Helvetica,sans-Serif" font-size="10.00">ooo_cpu_module_decl.inc</text>
</a>
</g>
</g>
<!-- Node26&#45;&gt;Node36 -->
<g id="edge75" class="edge">
<title>Node26&#45;&gt;Node36</title>
<path fill="none" stroke="midnightblue" d="M1337.4,-225.43C1340.3,-224.89 1343.2,-224.41 1346,-224 1548.05,-194.54 1600.68,-206.75 1804,-188 1805.11,-187.9 1806.22,-187.79 1807.35,-187.69"/>
<polygon fill="midnightblue" stroke="midnightblue" points="1807.97,-191.14 1817.59,-186.7 1807.3,-184.18 1807.97,-191.14"/>
</g>
<!-- Node37 -->
<g id="node37" class="node">
<title>Node37</title>
<g id="a_node37"><a xlink:title=" ">
<polygon fill="none" stroke="#bfbfbf" points="1978.5,-168.5 1978.5,-187.5 2115.5,-187.5 2115.5,-168.5 1978.5,-168.5"/>
<text text-anchor="middle" x="2047" y="-175.5" font-family="Helvetica,sans-Serif" font-size="10.00">ooo_cpu_module_def.inc</text>
</a>
</g>
</g>
<!-- Node26&#45;&gt;Node37 -->
<g id="edge76" class="edge">
<title>Node26&#45;&gt;Node37</title>
<path fill="none" stroke="midnightblue" d="M1337.39,-225.36C1340.29,-224.85 1343.19,-224.38 1346,-224 1617.49,-187.29 1690.9,-211.3 1967.76,-188.05"/>
<polygon fill="midnightblue" stroke="midnightblue" points="1968.45,-191.5 1978.12,-187.16 1967.86,-184.53 1968.45,-191.5"/>
</g>
<!-- Node28&#45;&gt;Node2 -->
<g id="edge55" class="edge">
<title>Node28&#45;&gt;Node2</title>
<path fill="none" stroke="midnightblue" d="M1665.65,-168.19C1683.62,-146.42 1724.83,-89.44 1695,-56 1671.36,-29.5 1429.43,-16.45 1337.33,-12.41"/>
<polygon fill="midnightblue" stroke="midnightblue" points="1337.26,-8.9 1327.12,-11.97 1336.96,-15.9 1337.26,-8.9"/>
</g>
<!-- Node28&#45;&gt;Node5 -->
<g id="edge58" class="edge">
<title>Node28&#45;&gt;Node5</title>
<path fill="none" stroke="midnightblue" d="M1633.92,-168.38C1610.45,-159.8 1573.88,-145.92 1543,-132 1525.24,-124 1522.38,-118.46 1504,-112 1440.12,-89.56 1361.65,-76.86 1317.8,-71.01"/>
<polygon fill="midnightblue" stroke="midnightblue" points="1318.05,-67.51 1307.68,-69.7 1317.15,-74.45 1318.05,-67.51"/>
</g>
<!-- Node28&#45;&gt;Node7 -->
<g id="edge54" class="edge">
<title>Node28&#45;&gt;Node7</title>
<path fill="none" stroke="midnightblue" d="M1628.84,-168.44C1595.05,-158.53 1539.58,-142.25 1505.02,-132.1"/>
<polygon fill="midnightblue" stroke="midnightblue" points="1505.59,-128.62 1495.01,-129.16 1503.62,-135.34 1505.59,-128.62"/>
</g>
<!-- Node28&#45;&gt;Node15 -->
<g id="edge56" class="edge">
<title>Node28&#45;&gt;Node15</title>
<path fill="none" stroke="midnightblue" d="M1619.33,-168.92C1578.47,-160.36 1511.89,-146.4 1444.5,-132.1"/>
<polygon fill="midnightblue" stroke="midnightblue" points="1445.07,-128.64 1434.56,-129.99 1443.61,-135.49 1445.07,-128.64"/>
</g>
<!-- Node28&#45;&gt;Node16 -->
<g id="edge57" class="edge">
<title>Node28&#45;&gt;Node16</title>
<path fill="none" stroke="midnightblue" d="M1682.31,-168.49C1731.34,-150.77 1839.13,-108.82 1859,-76 1868.12,-60.93 1859.37,-41.58 1850.34,-27.93"/>
<polygon fill="midnightblue" stroke="midnightblue" points="1852.96,-25.57 1844.27,-19.5 1847.28,-29.66 1852.96,-25.57"/>
</g>
<!-- Node29 -->
<g id="node29" class="node">
<title>Node29</title>
<g id="a_node29"><a xlink:title=" ">
<polygon fill="none" stroke="#bfbfbf" points="1622,-56.5 1622,-75.5 1686,-75.5 1686,-56.5 1622,-56.5"/>
<text text-anchor="middle" x="1654" y="-63.5" font-family="Helvetica,sans-Serif" font-size="10.00">algorithm</text>
</a>
</g>
</g>
<!-- Node28&#45;&gt;Node29 -->
<g id="edge53" class="edge">
<title>Node28&#45;&gt;Node29</title>
<path fill="none" stroke="midnightblue" d="M1657.69,-168.37C1657.04,-150.62 1655.55,-109.67 1654.68,-85.6"/>
<polygon fill="midnightblue" stroke="midnightblue" points="1658.17,-85.46 1654.31,-75.59 1651.18,-85.71 1658.17,-85.46"/>
</g>
<!-- Node30 -->
<g id="node30" class="node">
<title>Node30</title>
<g id="a_node30"><a xlink:href="trace__instruction_8h.html" target="_top" xlink:title=" ">
<polygon fill="none" stroke="black" points="1742.5,-56.5 1742.5,-75.5 1849.5,-75.5 1849.5,-56.5 1742.5,-56.5"/>
<text text-anchor="middle" x="1796" y="-63.5" font-family="Helvetica,sans-Serif" font-size="10.00">trace_instruction.h</text>
</a>
</g>
</g>
<!-- Node28&#45;&gt;Node30 -->
<g id="edge59" class="edge">
<title>Node28&#45;&gt;Node30</title>
<path fill="none" stroke="midnightblue" d="M1673.04,-168.47C1687.61,-159.95 1710.07,-146.12 1728,-132 1747.52,-116.63 1767.86,-96.57 1781.14,-82.82"/>
<polygon fill="midnightblue" stroke="midnightblue" points="1783.72,-85.19 1788.09,-75.54 1778.66,-80.36 1783.72,-85.19"/>
</g>
<!-- Node30&#45;&gt;Node16 -->
<g id="edge60" class="edge">
<title>Node30&#45;&gt;Node16</title>
<path fill="none" stroke="midnightblue" d="M1802.77,-56.08C1808.56,-48.46 1817.06,-37.26 1824.14,-27.94"/>
<polygon fill="midnightblue" stroke="midnightblue" points="1827.1,-29.83 1830.36,-19.75 1821.52,-25.6 1827.1,-29.83"/>
</g>
<!-- Node32 -->
<g id="node32" class="node">
<title>Node32</title>
<g id="a_node32"><a xlink:href="msl_2lru__table_8h.html" target="_top" xlink:title=" ">
<polygon fill="none" stroke="black" points="1551.5,-112.5 1551.5,-131.5 1640.5,-131.5 1640.5,-112.5 1551.5,-112.5"/>
<text text-anchor="middle" x="1596" y="-119.5" font-family="Helvetica,sans-Serif" font-size="10.00">msl/lru_table.h</text>
</a>
</g>
</g>
<!-- Node31&#45;&gt;Node32 -->
<g id="edge64" class="edge">
<title>Node31&#45;&gt;Node32</title>
<path fill="none" stroke="midnightblue" d="M1564.27,-168.08C1569.64,-160.46 1577.52,-149.26 1584.08,-139.94"/>
<polygon fill="midnightblue" stroke="midnightblue" points="1586.95,-141.94 1589.84,-131.75 1581.22,-137.91 1586.95,-141.94"/>
</g>
<!-- Node32&#45;&gt;Node2 -->
<g id="edge67" class="edge">
<title>Node32&#45;&gt;Node2</title>
<path fill="none" stroke="midnightblue" d="M1551.06,-112.96C1500.96,-103.63 1423.38,-88 1396,-76 1366.95,-63.27 1337.53,-41.09 1319.53,-26.23"/>
<polygon fill="midnightblue" stroke="midnightblue" points="1321.56,-23.37 1311.66,-19.6 1317.05,-28.72 1321.56,-23.37"/>
</g>
<!-- Node32&#45;&gt;Node5 -->
<g id="edge70" class="edge">
<title>Node32&#45;&gt;Node5</title>
<path fill="none" stroke="midnightblue" d="M1551.3,-113.26C1488.17,-102.34 1374.29,-82.63 1317.74,-72.84"/>
<polygon fill="midnightblue" stroke="midnightblue" points="1318.33,-69.39 1307.88,-71.13 1317.14,-76.29 1318.33,-69.39"/>
</g>
<!-- Node32&#45;&gt;Node25 -->
<g id="edge68" class="edge">
<title>Node32&#45;&gt;Node25</title>
<path fill="none" stroke="midnightblue" d="M1640.54,-113.88C1707.44,-103.2 1832.74,-83.18 1895.75,-73.11"/>
<polygon fill="midnightblue" stroke="midnightblue" points="1896.35,-76.56 1905.68,-71.53 1895.25,-69.65 1896.35,-76.56"/>
</g>
<!-- Node32&#45;&gt;Node29 -->
<g id="edge65" class="edge">
<title>Node32&#45;&gt;Node29</title>
<path fill="none" stroke="midnightblue" d="M1605.32,-112.32C1613.89,-104.34 1626.81,-92.31 1637.19,-82.65"/>
<polygon fill="midnightblue" stroke="midnightblue" points="1639.58,-85.21 1644.51,-75.83 1634.81,-80.09 1639.58,-85.21"/>
</g>
<!-- Node33 -->
<g id="node33" class="node">
<title>Node33</title>
<g id="a_node33"><a xlink:title=" ">
<polygon fill="none" stroke="#bfbfbf" points="1488,-56.5 1488,-75.5 1540,-75.5 1540,-56.5 1488,-56.5"/>
<text text-anchor="middle" x="1514" y="-63.5" font-family="Helvetica,sans-Serif" font-size="10.00">cassert</text>
</a>
</g>
</g>
<!-- Node32&#45;&gt;Node33 -->
<g id="edge66" class="edge">
<title>Node32&#45;&gt;Node33</title>
<path fill="none" stroke="midnightblue" d="M1582.83,-112.32C1570.15,-103.98 1550.77,-91.21 1535.79,-81.35"/>
<polygon fill="midnightblue" stroke="midnightblue" points="1537.42,-78.23 1527.14,-75.65 1533.57,-84.08 1537.42,-78.23"/>
</g>
<!-- Node34 -->
<g id="node34" class="node">
<title>Node34</title>
<g id="a_node34"><a xlink:title=" ">
<polygon fill="none" stroke="#bfbfbf" points="1558.5,-56.5 1558.5,-75.5 1603.5,-75.5 1603.5,-56.5 1558.5,-56.5"/>
<text text-anchor="middle" x="1581" y="-63.5" font-family="Helvetica,sans-Serif" font-size="10.00">utility</text>
</a>
</g>
</g>
<!-- Node32&#45;&gt;Node34 -->
<g id="edge69" class="edge">
<title>Node32&#45;&gt;Node34</title>
<path fill="none" stroke="midnightblue" d="M1593.52,-112.08C1591.51,-104.85 1588.61,-94.41 1586.11,-85.4"/>
<polygon fill="midnightblue" stroke="midnightblue" points="1589.48,-84.45 1583.43,-75.75 1582.74,-86.32 1589.48,-84.45"/>
</g>
<!-- Node35 -->
<g id="node35" class="node">
<title>Node35</title>
<g id="a_node35"><a xlink:href="msl_2bits_8h.html" target="_top" xlink:title=" ">
<polygon fill="none" stroke="black" points="1404.5,-56.5 1404.5,-75.5 1469.5,-75.5 1469.5,-56.5 1404.5,-56.5"/>
<text text-anchor="middle" x="1437" y="-63.5" font-family="Helvetica,sans-Serif" font-size="10.00">msl/bits.h</text>
</a>
</g>
</g>
<!-- Node32&#45;&gt;Node35 -->
<g id="edge71" class="edge">
<title>Node32&#45;&gt;Node35</title>
<path fill="none" stroke="midnightblue" d="M1570.81,-112.44C1544.06,-103.36 1501.6,-88.94 1471.69,-78.78"/>
<polygon fill="midnightblue" stroke="midnightblue" points="1472.67,-75.42 1462.08,-75.52 1470.42,-82.05 1472.67,-75.42"/>
</g>
<!-- Node35&#45;&gt;Node2 -->
<g id="edge72" class="edge">
<title>Node35&#45;&gt;Node2</title>
<path fill="none" stroke="midnightblue" d="M1415.61,-56.44C1393.29,-47.52 1358.1,-33.44 1332.79,-23.32"/>
<polygon fill="midnightblue" stroke="midnightblue" points="1333.88,-19.98 1323.29,-19.52 1331.28,-26.48 1333.88,-19.98"/>
</g>
<!-- Node35&#45;&gt;Node16 -->
<g id="edge73" class="edge">
<title>Node35&#45;&gt;Node16</title>
<path fill="none" stroke="midnightblue" d="M1469.51,-57.75C1472.71,-57.12 1475.91,-56.52 1479,-56 1598.39,-35.74 1741.61,-20.42 1804.59,-14.13"/>
<polygon fill="midnightblue" stroke="midnightblue" points="1805.09,-17.6 1814.7,-13.13 1804.4,-10.63 1805.09,-17.6"/>
</g>
</g>
</svg>
