<?xml version="1.0" encoding="UTF-8" standalone="no"?>
<!DOCTYPE svg PUBLIC "-//W3C//DTD SVG 1.1//EN"
 "http://www.w3.org/Graphics/SVG/1.1/DTD/svg11.dtd">
<!-- Generated by graphviz version 2.43.0 (0)
 -->
<!-- Title: inc/phase_info.h Pages: 1 -->
<svg width="411pt" height="140pt"
 viewBox="0.00 0.00 411.00 140.00" xmlns="http://www.w3.org/2000/svg" xmlns:xlink="http://www.w3.org/1999/xlink">
<g id="graph0" class="graph" transform="scale(1 1) rotate(0) translate(4 136)">
<title>inc/phase_info.h</title>
<!-- Node1 -->
<g id="node1" class="node">
<title>Node1</title>
<g id="a_node1"><a xlink:title=" ">
<polygon fill="#bfbfbf" stroke="black" points="229,-112.5 229,-131.5 325,-131.5 325,-112.5 229,-112.5"/>
<text text-anchor="middle" x="277" y="-119.5" font-family="Helvetica,sans-Serif" font-size="10.00">inc/phase_info.h</text>
</a>
</g>
</g>
<!-- Node2 -->
<g id="node2" class="node">
<title>Node2</title>
<g id="a_node2"><a xlink:href="stats__printer_8h.html" target="_top" xlink:title=" ">
<polygon fill="none" stroke="black" points="131,-56.5 131,-75.5 235,-75.5 235,-56.5 131,-56.5"/>
<text text-anchor="middle" x="183" y="-63.5" font-family="Helvetica,sans-Serif" font-size="10.00">inc/stats_printer.h</text>
</a>
</g>
</g>
<!-- Node1&#45;&gt;Node2 -->
<g id="edge1" class="edge">
<title>Node1&#45;&gt;Node2</title>
<path fill="none" stroke="midnightblue" d="M252.94,-107.18C235.64,-97.24 212.85,-84.15 198.07,-75.65"/>
<polygon fill="midnightblue" stroke="midnightblue" points="251.48,-110.38 261.9,-112.32 254.97,-104.31 251.48,-110.38"/>
</g>
<!-- Node4 -->
<g id="node4" class="node">
<title>Node4</title>
<g id="a_node4"><a xlink:href="main_8cc.html" target="_top" xlink:title=" ">
<polygon fill="none" stroke="black" points="248,-0.5 248,-19.5 320,-19.5 320,-0.5 248,-0.5"/>
<text text-anchor="middle" x="284" y="-7.5" font-family="Helvetica,sans-Serif" font-size="10.00">src/main.cc</text>
</a>
</g>
</g>
<!-- Node1&#45;&gt;Node4 -->
<g id="edge6" class="edge">
<title>Node1&#45;&gt;Node4</title>
<path fill="none" stroke="midnightblue" d="M278.19,-102.35C279.72,-78.25 282.33,-37.31 283.45,-19.59"/>
<polygon fill="midnightblue" stroke="midnightblue" points="274.69,-102.17 277.55,-112.37 281.68,-102.61 274.69,-102.17"/>
</g>
<!-- Node6 -->
<g id="node6" class="node">
<title>Node6</title>
<g id="a_node6"><a xlink:href="champsim_8cc.html" target="_top" xlink:title=" ">
<polygon fill="none" stroke="black" points="305,-56.5 305,-75.5 403,-75.5 403,-56.5 305,-56.5"/>
<text text-anchor="middle" x="354" y="-63.5" font-family="Helvetica,sans-Serif" font-size="10.00">src/champsim.cc</text>
</a>
</g>
</g>
<!-- Node1&#45;&gt;Node6 -->
<g id="edge5" class="edge">
<title>Node1&#45;&gt;Node6</title>
<path fill="none" stroke="midnightblue" d="M297.9,-106.34C311.91,-96.52 329.88,-83.91 341.66,-75.65"/>
<polygon fill="midnightblue" stroke="midnightblue" points="295.55,-103.72 289.37,-112.32 299.57,-109.45 295.55,-103.72"/>
</g>
<!-- Node3 -->
<g id="node3" class="node">
<title>Node3</title>
<g id="a_node3"><a xlink:href="json__printer_8cc.html" target="_top" xlink:title=" ">
<polygon fill="none" stroke="black" points="0,-0.5 0,-19.5 104,-19.5 104,-0.5 0,-0.5"/>
<text text-anchor="middle" x="52" y="-7.5" font-family="Helvetica,sans-Serif" font-size="10.00">src/json_printer.cc</text>
</a>
</g>
</g>
<!-- Node2&#45;&gt;Node3 -->
<g id="edge2" class="edge">
<title>Node2&#45;&gt;Node3</title>
<path fill="none" stroke="midnightblue" d="M152.68,-52.5C128.12,-42.38 94.18,-28.39 72.66,-19.52"/>
<polygon fill="midnightblue" stroke="midnightblue" points="151.66,-55.87 162.24,-56.44 154.33,-49.4 151.66,-55.87"/>
</g>
<!-- Node2&#45;&gt;Node4 -->
<g id="edge3" class="edge">
<title>Node2&#45;&gt;Node4</title>
<path fill="none" stroke="midnightblue" d="M208.08,-51.59C226.76,-41.61 251.7,-28.27 267.81,-19.65"/>
<polygon fill="midnightblue" stroke="midnightblue" points="206.4,-48.52 199.23,-56.32 209.7,-54.7 206.4,-48.52"/>
</g>
<!-- Node5 -->
<g id="node5" class="node">
<title>Node5</title>
<g id="a_node5"><a xlink:href="plain__printer_8cc.html" target="_top" xlink:title=" ">
<polygon fill="none" stroke="black" points="122,-0.5 122,-19.5 230,-19.5 230,-0.5 122,-0.5"/>
<text text-anchor="middle" x="176" y="-7.5" font-family="Helvetica,sans-Serif" font-size="10.00">src/plain_printer.cc</text>
</a>
</g>
</g>
<!-- Node2&#45;&gt;Node5 -->
<g id="edge4" class="edge">
<title>Node2&#45;&gt;Node5</title>
<path fill="none" stroke="midnightblue" d="M180.55,-46.1C179.39,-37.14 178.06,-26.86 177.13,-19.75"/>
<polygon fill="midnightblue" stroke="midnightblue" points="177.09,-46.62 181.84,-56.08 184.03,-45.72 177.09,-46.62"/>
</g>
</g>
</svg>
