<?xml version="1.0" encoding="UTF-8" standalone="no"?>
<!DOCTYPE svg PUBLIC "-//W3C//DTD SVG 1.1//EN"
 "http://www.w3.org/Graphics/SVG/1.1/DTD/svg11.dtd">
<!-- Generated by graphviz version 2.43.0 (0)
 -->
<!-- Title: src/plain_printer.cc Pages: 1 -->
<svg width="2803pt" height="420pt"
 viewBox="0.00 0.00 2803.00 420.00" xmlns="http://www.w3.org/2000/svg" xmlns:xlink="http://www.w3.org/1999/xlink">
<g id="graph0" class="graph" transform="scale(1 1) rotate(0) translate(4 416)">
<title>src/plain_printer.cc</title>
<!-- Node1 -->
<g id="node1" class="node">
<title>Node1</title>
<g id="a_node1"><a xlink:title=" ">
<polygon fill="#bfbfbf" stroke="black" points="910,-392.5 910,-411.5 1018,-411.5 1018,-392.5 910,-392.5"/>
<text text-anchor="middle" x="964" y="-399.5" font-family="Helvetica,sans-Serif" font-size="10.00">src/plain_printer.cc</text>
</a>
</g>
</g>
<!-- Node2 -->
<g id="node2" class="node">
<title>Node2</title>
<g id="a_node2"><a xlink:title=" ">
<polygon fill="none" stroke="#bfbfbf" points="0,-336.5 0,-355.5 56,-355.5 56,-336.5 0,-336.5"/>
<text text-anchor="middle" x="28" y="-343.5" font-family="Helvetica,sans-Serif" font-size="10.00">numeric</text>
</a>
</g>
</g>
<!-- Node1&#45;&gt;Node2 -->
<g id="edge1" class="edge">
<title>Node1&#45;&gt;Node2</title>
<path fill="none" stroke="midnightblue" d="M909.78,-399.63C744.6,-395.24 248.39,-380.47 66.17,-355.84"/>
<polygon fill="midnightblue" stroke="midnightblue" points="66.56,-352.36 56.17,-354.43 65.59,-359.29 66.56,-352.36"/>
</g>
<!-- Node3 -->
<g id="node3" class="node">
<title>Node3</title>
<g id="a_node3"><a xlink:title=" ">
<polygon fill="none" stroke="#bfbfbf" points="74,-336.5 74,-355.5 130,-355.5 130,-336.5 74,-336.5"/>
<text text-anchor="middle" x="102" y="-343.5" font-family="Helvetica,sans-Serif" font-size="10.00">sstream</text>
</a>
</g>
</g>
<!-- Node1&#45;&gt;Node3 -->
<g id="edge2" class="edge">
<title>Node1&#45;&gt;Node3</title>
<path fill="none" stroke="midnightblue" d="M909.51,-400.94C777.54,-400.17 430.52,-394.32 144,-356 142.75,-355.83 141.49,-355.65 140.21,-355.45"/>
<polygon fill="midnightblue" stroke="midnightblue" points="140.82,-352 130.36,-353.71 139.6,-358.9 140.82,-352"/>
</g>
<!-- Node4 -->
<g id="node4" class="node">
<title>Node4</title>
<g id="a_node4"><a xlink:title=" ">
<polygon fill="none" stroke="#bfbfbf" points="2585.5,-56.5 2585.5,-75.5 2630.5,-75.5 2630.5,-56.5 2585.5,-56.5"/>
<text text-anchor="middle" x="2608" y="-63.5" font-family="Helvetica,sans-Serif" font-size="10.00">utility</text>
</a>
</g>
</g>
<!-- Node1&#45;&gt;Node4 -->
<g id="edge3" class="edge">
<title>Node1&#45;&gt;Node4</title>
<path fill="none" stroke="midnightblue" d="M1018.27,-400.24C1301.27,-395.95 2595,-371.88 2595,-291 2595,-291 2595,-291 2595,-177 2595,-144.58 2600.64,-107.15 2604.49,-85.37"/>
<polygon fill="midnightblue" stroke="midnightblue" points="2607.93,-85.99 2606.3,-75.52 2601.05,-84.72 2607.93,-85.99"/>
</g>
<!-- Node5 -->
<g id="node5" class="node">
<title>Node5</title>
<g id="a_node5"><a xlink:title=" ">
<polygon fill="none" stroke="#bfbfbf" points="1057.5,-56.5 1057.5,-75.5 1104.5,-75.5 1104.5,-56.5 1057.5,-56.5"/>
<text text-anchor="middle" x="1081" y="-63.5" font-family="Helvetica,sans-Serif" font-size="10.00">vector</text>
</a>
</g>
</g>
<!-- Node1&#45;&gt;Node5 -->
<g id="edge4" class="edge">
<title>Node1&#45;&gt;Node5</title>
<path fill="none" stroke="midnightblue" d="M909.86,-399.32C729.15,-393.02 158,-367.09 158,-291 158,-291 158,-291 158,-177 158,-85.61 880.7,-69.83 1047.11,-67.4"/>
<polygon fill="midnightblue" stroke="midnightblue" points="1047.31,-70.9 1057.26,-67.26 1047.21,-63.9 1047.31,-70.9"/>
</g>
<!-- Node6 -->
<g id="node6" class="node">
<title>Node6</title>
<g id="a_node6"><a xlink:href="stats__printer_8h.html" target="_top" xlink:title=" ">
<polygon fill="none" stroke="black" points="921,-336.5 921,-355.5 1007,-355.5 1007,-336.5 921,-336.5"/>
<text text-anchor="middle" x="964" y="-343.5" font-family="Helvetica,sans-Serif" font-size="10.00">stats_printer.h</text>
</a>
</g>
</g>
<!-- Node1&#45;&gt;Node6 -->
<g id="edge5" class="edge">
<title>Node1&#45;&gt;Node6</title>
<path fill="none" stroke="midnightblue" d="M964,-392.08C964,-385.01 964,-374.86 964,-365.99"/>
<polygon fill="midnightblue" stroke="midnightblue" points="967.5,-365.75 964,-355.75 960.5,-365.75 967.5,-365.75"/>
</g>
<!-- Node43 -->
<g id="node43" class="node">
<title>Node43</title>
<g id="a_node43"><a xlink:title=" ">
<polygon fill="none" stroke="#bfbfbf" points="2623.5,-336.5 2623.5,-355.5 2690.5,-355.5 2690.5,-336.5 2623.5,-336.5"/>
<text text-anchor="middle" x="2657" y="-343.5" font-family="Helvetica,sans-Serif" font-size="10.00">fmt/core.h</text>
</a>
</g>
</g>
<!-- Node1&#45;&gt;Node43 -->
<g id="edge89" class="edge">
<title>Node1&#45;&gt;Node43</title>
<path fill="none" stroke="midnightblue" d="M1018.11,-400.67C1265.44,-398.98 2290.12,-390.04 2609,-356 2610.3,-355.86 2611.63,-355.71 2612.96,-355.54"/>
<polygon fill="midnightblue" stroke="midnightblue" points="2613.89,-358.94 2623.27,-354.02 2612.87,-352.01 2613.89,-358.94"/>
</g>
<!-- Node44 -->
<g id="node44" class="node">
<title>Node44</title>
<g id="a_node44"><a xlink:title=" ">
<polygon fill="none" stroke="#bfbfbf" points="2709,-336.5 2709,-355.5 2795,-355.5 2795,-336.5 2709,-336.5"/>
<text text-anchor="middle" x="2752" y="-343.5" font-family="Helvetica,sans-Serif" font-size="10.00">fmt/ostream.h</text>
</a>
</g>
</g>
<!-- Node1&#45;&gt;Node44 -->
<g id="edge90" class="edge">
<title>Node1&#45;&gt;Node44</title>
<path fill="none" stroke="midnightblue" d="M1018.07,-400.66C1271.18,-398.9 2341.26,-389.64 2698.82,-355.93"/>
<polygon fill="midnightblue" stroke="midnightblue" points="2699.32,-359.4 2708.94,-354.95 2698.64,-352.43 2699.32,-359.4"/>
</g>
<!-- Node6&#45;&gt;Node5 -->
<g id="edge7" class="edge">
<title>Node6&#45;&gt;Node5</title>
<path fill="none" stroke="midnightblue" d="M920.59,-342.42C800.58,-334.55 467.49,-307.36 381,-244 351.84,-222.63 345.55,-203.57 352,-168 356.74,-141.85 351.64,-127.83 373,-112 427.56,-71.57 913.51,-67.4 1047.13,-67.02"/>
<polygon fill="midnightblue" stroke="midnightblue" points="1047.2,-70.52 1057.19,-67 1047.19,-63.52 1047.2,-70.52"/>
</g>
<!-- Node7 -->
<g id="node7" class="node">
<title>Node7</title>
<g id="a_node7"><a xlink:title=" ">
<polygon fill="none" stroke="#bfbfbf" points="905,-280.5 905,-299.5 965,-299.5 965,-280.5 905,-280.5"/>
<text text-anchor="middle" x="935" y="-287.5" font-family="Helvetica,sans-Serif" font-size="10.00">iostream</text>
</a>
</g>
</g>
<!-- Node6&#45;&gt;Node7 -->
<g id="edge6" class="edge">
<title>Node6&#45;&gt;Node7</title>
<path fill="none" stroke="midnightblue" d="M959.21,-336.08C955.24,-328.69 949.47,-317.95 944.57,-308.81"/>
<polygon fill="midnightblue" stroke="midnightblue" points="947.51,-306.91 939.7,-299.75 941.35,-310.22 947.51,-306.91"/>
</g>
<!-- Node8 -->
<g id="node8" class="node">
<title>Node8</title>
<g id="a_node8"><a xlink:href="cache_8h.html" target="_top" xlink:title=" ">
<polygon fill="none" stroke="black" points="921,-224.5 921,-243.5 975,-243.5 975,-224.5 921,-224.5"/>
<text text-anchor="middle" x="948" y="-231.5" font-family="Helvetica,sans-Serif" font-size="10.00">cache.h</text>
</a>
</g>
</g>
<!-- Node6&#45;&gt;Node8 -->
<g id="edge8" class="edge">
<title>Node6&#45;&gt;Node8</title>
<path fill="none" stroke="midnightblue" d="M967.53,-336.46C972.22,-323.92 979.32,-299.85 974,-280 971.35,-270.1 965.93,-260.13 960.73,-252.1"/>
<polygon fill="midnightblue" stroke="midnightblue" points="963.46,-249.91 954.89,-243.68 957.71,-253.89 963.46,-249.91"/>
</g>
<!-- Node28 -->
<g id="node28" class="node">
<title>Node28</title>
<g id="a_node28"><a xlink:href="dram__controller_8h.html" target="_top" xlink:title=" ">
<polygon fill="none" stroke="black" points="1546,-224.5 1546,-243.5 1648,-243.5 1648,-224.5 1546,-224.5"/>
<text text-anchor="middle" x="1597" y="-231.5" font-family="Helvetica,sans-Serif" font-size="10.00">dram_controller.h</text>
</a>
</g>
</g>
<!-- Node6&#45;&gt;Node28 -->
<g id="edge33" class="edge">
<title>Node6&#45;&gt;Node28</title>
<path fill="none" stroke="midnightblue" d="M1007.01,-337.53C1117.55,-318.32 1411.71,-267.2 1538.03,-245.25"/>
<polygon fill="midnightblue" stroke="midnightblue" points="1538.66,-248.69 1547.91,-243.53 1537.46,-241.79 1538.66,-248.69"/>
</g>
<!-- Node31 -->
<g id="node31" class="node">
<title>Node31</title>
<g id="a_node31"><a xlink:href="ooo__cpu_8h.html" target="_top" xlink:title=" ">
<polygon fill="none" stroke="black" points="1394,-224.5 1394,-243.5 1460,-243.5 1460,-224.5 1394,-224.5"/>
<text text-anchor="middle" x="1427" y="-231.5" font-family="Helvetica,sans-Serif" font-size="10.00">ooo_cpu.h</text>
</a>
</g>
</g>
<!-- Node6&#45;&gt;Node31 -->
<g id="edge42" class="edge">
<title>Node6&#45;&gt;Node31</title>
<path fill="none" stroke="midnightblue" d="M999.95,-336.46C1084.03,-316.48 1293.27,-266.77 1383.95,-245.23"/>
<polygon fill="midnightblue" stroke="midnightblue" points="1384.98,-248.58 1393.9,-242.86 1383.36,-241.77 1384.98,-248.58"/>
</g>
<!-- Node42 -->
<g id="node42" class="node">
<title>Node42</title>
<g id="a_node42"><a xlink:href="phase__info_8h.html" target="_top" xlink:title=" ">
<polygon fill="none" stroke="black" points="808.5,-280.5 808.5,-299.5 887.5,-299.5 887.5,-280.5 808.5,-280.5"/>
<text text-anchor="middle" x="848" y="-287.5" font-family="Helvetica,sans-Serif" font-size="10.00">phase_info.h</text>
</a>
</g>
</g>
<!-- Node6&#45;&gt;Node42 -->
<g id="edge80" class="edge">
<title>Node6&#45;&gt;Node42</title>
<path fill="none" stroke="midnightblue" d="M945.62,-336.44C926.78,-327.68 897.27,-313.94 875.62,-303.86"/>
<polygon fill="midnightblue" stroke="midnightblue" points="876.84,-300.56 866.29,-299.52 873.88,-306.91 876.84,-300.56"/>
</g>
<!-- Node8&#45;&gt;Node5 -->
<g id="edge15" class="edge">
<title>Node8&#45;&gt;Node5</title>
<path fill="none" stroke="midnightblue" d="M920.89,-233.01C811.29,-232.76 405.01,-229.07 367,-188 360.96,-181.48 362.08,-175.41 367,-168 402.48,-114.57 437.67,-127.12 500,-112 605.04,-86.53 939.46,-72.23 1047.2,-68.2"/>
<polygon fill="midnightblue" stroke="midnightblue" points="1047.62,-71.68 1057.48,-67.82 1047.36,-64.69 1047.62,-71.68"/>
</g>
<!-- Node9 -->
<g id="node9" class="node">
<title>Node9</title>
<g id="a_node9"><a xlink:title=" ">
<polygon fill="none" stroke="#bfbfbf" points="1550,-112.5 1550,-131.5 1592,-131.5 1592,-112.5 1550,-112.5"/>
<text text-anchor="middle" x="1571" y="-119.5" font-family="Helvetica,sans-Serif" font-size="10.00">array</text>
</a>
</g>
</g>
<!-- Node8&#45;&gt;Node9 -->
<g id="edge9" class="edge">
<title>Node8&#45;&gt;Node9</title>
<path fill="none" stroke="midnightblue" d="M935.32,-224.32C917.58,-211.18 889.3,-185.86 906,-168 911.49,-162.13 1408.67,-132.53 1539.66,-124.83"/>
<polygon fill="midnightblue" stroke="midnightblue" points="1540.05,-128.32 1549.82,-124.24 1539.63,-121.33 1540.05,-128.32"/>
</g>
<!-- Node10 -->
<g id="node10" class="node">
<title>Node10</title>
<g id="a_node10"><a xlink:title=" ">
<polygon fill="none" stroke="#bfbfbf" points="1193,-168.5 1193,-187.5 1237,-187.5 1237,-168.5 1193,-168.5"/>
<text text-anchor="middle" x="1215" y="-175.5" font-family="Helvetica,sans-Serif" font-size="10.00">bitset</text>
</a>
</g>
</g>
<!-- Node8&#45;&gt;Node10 -->
<g id="edge10" class="edge">
<title>Node8&#45;&gt;Node10</title>
<path fill="none" stroke="midnightblue" d="M975.3,-228.55C1017.55,-221.49 1101.51,-206.8 1182.79,-187.87"/>
<polygon fill="midnightblue" stroke="midnightblue" points="1183.75,-191.24 1192.68,-185.54 1182.15,-184.42 1183.75,-191.24"/>
</g>
<!-- Node11 -->
<g id="node11" class="node">
<title>Node11</title>
<g id="a_node11"><a xlink:title=" ">
<polygon fill="none" stroke="#bfbfbf" points="1355.5,-112.5 1355.5,-131.5 1402.5,-131.5 1402.5,-112.5 1355.5,-112.5"/>
<text text-anchor="middle" x="1379" y="-119.5" font-family="Helvetica,sans-Serif" font-size="10.00">deque</text>
</a>
</g>
</g>
<!-- Node8&#45;&gt;Node11 -->
<g id="edge11" class="edge">
<title>Node8&#45;&gt;Node11</title>
<path fill="none" stroke="midnightblue" d="M924.61,-224.48C895.65,-212.71 852.53,-190.37 873,-168 904.87,-133.17 1237.41,-125.12 1345.36,-123.42"/>
<polygon fill="midnightblue" stroke="midnightblue" points="1345.43,-126.92 1355.38,-123.27 1345.33,-119.92 1345.43,-126.92"/>
</g>
<!-- Node12 -->
<g id="node12" class="node">
<title>Node12</title>
<g id="a_node12"><a xlink:title=" ">
<polygon fill="none" stroke="#bfbfbf" points="524,-168.5 524,-187.5 582,-187.5 582,-168.5 524,-168.5"/>
<text text-anchor="middle" x="553" y="-175.5" font-family="Helvetica,sans-Serif" font-size="10.00">memory</text>
</a>
</g>
</g>
<!-- Node8&#45;&gt;Node12 -->
<g id="edge12" class="edge">
<title>Node8&#45;&gt;Node12</title>
<path fill="none" stroke="midnightblue" d="M920.98,-230.59C862.71,-225.19 720.78,-210.88 592.4,-188.09"/>
<polygon fill="midnightblue" stroke="midnightblue" points="592.85,-184.61 582.39,-186.29 591.62,-191.5 592.85,-184.61"/>
</g>
<!-- Node13 -->
<g id="node13" class="node">
<title>Node13</title>
<g id="a_node13"><a xlink:title=" ">
<polygon fill="none" stroke="#bfbfbf" points="915.5,-168.5 915.5,-187.5 980.5,-187.5 980.5,-168.5 915.5,-168.5"/>
<text text-anchor="middle" x="948" y="-175.5" font-family="Helvetica,sans-Serif" font-size="10.00">stdexcept</text>
</a>
</g>
</g>
<!-- Node8&#45;&gt;Node13 -->
<g id="edge13" class="edge">
<title>Node8&#45;&gt;Node13</title>
<path fill="none" stroke="midnightblue" d="M948,-224.08C948,-217.01 948,-206.86 948,-197.99"/>
<polygon fill="midnightblue" stroke="midnightblue" points="951.5,-197.75 948,-187.75 944.5,-197.75 951.5,-197.75"/>
</g>
<!-- Node14 -->
<g id="node14" class="node">
<title>Node14</title>
<g id="a_node14"><a xlink:title=" ">
<polygon fill="none" stroke="#bfbfbf" points="1255,-168.5 1255,-187.5 1299,-187.5 1299,-168.5 1255,-168.5"/>
<text text-anchor="middle" x="1277" y="-175.5" font-family="Helvetica,sans-Serif" font-size="10.00">string</text>
</a>
</g>
</g>
<!-- Node8&#45;&gt;Node14 -->
<g id="edge14" class="edge">
<title>Node8&#45;&gt;Node14</title>
<path fill="none" stroke="midnightblue" d="M975.34,-230.1C1026.48,-224.42 1140.21,-210.54 1244.96,-187.98"/>
<polygon fill="midnightblue" stroke="midnightblue" points="1245.72,-191.4 1254.74,-185.85 1244.22,-184.56 1245.72,-191.4"/>
</g>
<!-- Node15 -->
<g id="node15" class="node">
<title>Node15</title>
<g id="a_node15"><a xlink:href="champsim_8h.html" target="_top" xlink:title=" ">
<polygon fill="none" stroke="black" points="743.5,-168.5 743.5,-187.5 820.5,-187.5 820.5,-168.5 743.5,-168.5"/>
<text text-anchor="middle" x="782" y="-175.5" font-family="Helvetica,sans-Serif" font-size="10.00">champsim.h</text>
</a>
</g>
</g>
<!-- Node8&#45;&gt;Node15 -->
<g id="edge16" class="edge">
<title>Node8&#45;&gt;Node15</title>
<path fill="none" stroke="midnightblue" d="M921.7,-224.44C893.65,-215.32 849.06,-200.81 817.82,-190.65"/>
<polygon fill="midnightblue" stroke="midnightblue" points="818.77,-187.28 808.18,-187.52 816.61,-193.94 818.77,-187.28"/>
</g>
<!-- Node18 -->
<g id="node18" class="node">
<title>Node18</title>
<g id="a_node18"><a xlink:title=" ">
<polygon fill="none" stroke="#bfbfbf" points="1599.5,-168.5 1599.5,-187.5 1728.5,-187.5 1728.5,-168.5 1599.5,-168.5"/>
<text text-anchor="middle" x="1664" y="-175.5" font-family="Helvetica,sans-Serif" font-size="10.00">champsim_constants.h</text>
</a>
</g>
</g>
<!-- Node8&#45;&gt;Node18 -->
<g id="edge19" class="edge">
<title>Node8&#45;&gt;Node18</title>
<path fill="none" stroke="midnightblue" d="M975.09,-231.04C1060.12,-224.87 1329.22,-205.25 1552,-188 1564,-187.07 1576.73,-186.07 1589.13,-185.08"/>
<polygon fill="midnightblue" stroke="midnightblue" points="1589.76,-188.54 1599.45,-184.25 1589.2,-181.56 1589.76,-188.54"/>
</g>
<!-- Node19 -->
<g id="node19" class="node">
<title>Node19</title>
<g id="a_node19"><a xlink:href="channel_8h.html" target="_top" xlink:title=" ">
<polygon fill="none" stroke="black" points="1479,-168.5 1479,-187.5 1543,-187.5 1543,-168.5 1479,-168.5"/>
<text text-anchor="middle" x="1511" y="-175.5" font-family="Helvetica,sans-Serif" font-size="10.00">channel.h</text>
</a>
</g>
</g>
<!-- Node8&#45;&gt;Node19 -->
<g id="edge20" class="edge">
<title>Node8&#45;&gt;Node19</title>
<path fill="none" stroke="midnightblue" d="M975.04,-231.91C1051.19,-228.58 1274.04,-217.04 1468.72,-188"/>
<polygon fill="midnightblue" stroke="midnightblue" points="1469.48,-191.43 1478.84,-186.47 1468.43,-184.51 1469.48,-191.43"/>
</g>
<!-- Node23 -->
<g id="node23" class="node">
<title>Node23</title>
<g id="a_node23"><a xlink:href="module__impl_8h.html" target="_top" xlink:title=" ">
<polygon fill="none" stroke="black" points="998.5,-168.5 998.5,-187.5 1087.5,-187.5 1087.5,-168.5 998.5,-168.5"/>
<text text-anchor="middle" x="1043" y="-175.5" font-family="Helvetica,sans-Serif" font-size="10.00">module_impl.h</text>
</a>
</g>
</g>
<!-- Node8&#45;&gt;Node23 -->
<g id="edge28" class="edge">
<title>Node8&#45;&gt;Node23</title>
<path fill="none" stroke="midnightblue" d="M963.26,-224.32C978.22,-215.82 1001.25,-202.73 1018.73,-192.8"/>
<polygon fill="midnightblue" stroke="midnightblue" points="1020.81,-195.64 1027.77,-187.65 1017.35,-189.55 1020.81,-195.64"/>
</g>
<!-- Node24 -->
<g id="node24" class="node">
<title>Node24</title>
<g id="a_node24"><a xlink:href="operable_8h.html" target="_top" xlink:title=" ">
<polygon fill="none" stroke="black" points="1393,-168.5 1393,-187.5 1461,-187.5 1461,-168.5 1393,-168.5"/>
<text text-anchor="middle" x="1427" y="-175.5" font-family="Helvetica,sans-Serif" font-size="10.00">operable.h</text>
</a>
</g>
</g>
<!-- Node8&#45;&gt;Node24 -->
<g id="edge29" class="edge">
<title>Node8&#45;&gt;Node24</title>
<path fill="none" stroke="midnightblue" d="M975.13,-229.94C1054.18,-221.03 1284.92,-195.02 1382.55,-184.01"/>
<polygon fill="midnightblue" stroke="midnightblue" points="1383.13,-187.47 1392.68,-182.87 1382.35,-180.51 1383.13,-187.47"/>
</g>
<!-- Node25 -->
<g id="node25" class="node">
<title>Node25</title>
<g id="a_node25"><a xlink:title=" ">
<polygon fill="none" stroke="#bfbfbf" points="1105.5,-168.5 1105.5,-187.5 1174.5,-187.5 1174.5,-168.5 1105.5,-168.5"/>
<text text-anchor="middle" x="1140" y="-175.5" font-family="Helvetica,sans-Serif" font-size="10.00">type_traits</text>
</a>
</g>
</g>
<!-- Node8&#45;&gt;Node25 -->
<g id="edge30" class="edge">
<title>Node8&#45;&gt;Node25</title>
<path fill="none" stroke="midnightblue" d="M975.1,-225.38C1007.51,-216.26 1062.06,-200.92 1099.48,-190.4"/>
<polygon fill="midnightblue" stroke="midnightblue" points="1100.87,-193.64 1109.55,-187.56 1098.98,-186.9 1100.87,-193.64"/>
</g>
<!-- Node26 -->
<g id="node26" class="node">
<title>Node26</title>
<g id="a_node26"><a xlink:title=" ">
<polygon fill="none" stroke="#bfbfbf" points="376,-168.5 376,-187.5 506,-187.5 506,-168.5 376,-168.5"/>
<text text-anchor="middle" x="441" y="-175.5" font-family="Helvetica,sans-Serif" font-size="10.00">cache_module_decl.inc</text>
</a>
</g>
</g>
<!-- Node8&#45;&gt;Node26 -->
<g id="edge31" class="edge">
<title>Node8&#45;&gt;Node26</title>
<path fill="none" stroke="midnightblue" d="M920.63,-230.32C853.6,-223.73 675.71,-206.02 516.35,-188.14"/>
<polygon fill="midnightblue" stroke="midnightblue" points="516.69,-184.65 506.36,-187.01 515.91,-191.61 516.69,-184.65"/>
</g>
<!-- Node27 -->
<g id="node27" class="node">
<title>Node27</title>
<g id="a_node27"><a xlink:title=" ">
<polygon fill="none" stroke="#bfbfbf" points="600.5,-168.5 600.5,-187.5 725.5,-187.5 725.5,-168.5 600.5,-168.5"/>
<text text-anchor="middle" x="663" y="-175.5" font-family="Helvetica,sans-Serif" font-size="10.00">cache_module_def.inc</text>
</a>
</g>
</g>
<!-- Node8&#45;&gt;Node27 -->
<g id="edge32" class="edge">
<title>Node8&#45;&gt;Node27</title>
<path fill="none" stroke="midnightblue" d="M920.93,-227.87C874.47,-219.07 778.68,-200.92 717.81,-189.39"/>
<polygon fill="midnightblue" stroke="midnightblue" points="718.46,-185.95 707.98,-187.52 717.16,-192.82 718.46,-185.95"/>
</g>
<!-- Node16 -->
<g id="node16" class="node">
<title>Node16</title>
<g id="a_node16"><a xlink:title=" ">
<polygon fill="none" stroke="#bfbfbf" points="1588,-0.5 1588,-19.5 1638,-19.5 1638,-0.5 1588,-0.5"/>
<text text-anchor="middle" x="1613" y="-7.5" font-family="Helvetica,sans-Serif" font-size="10.00">cstdint</text>
</a>
</g>
</g>
<!-- Node15&#45;&gt;Node16 -->
<g id="edge17" class="edge">
<title>Node15&#45;&gt;Node16</title>
<path fill="none" stroke="midnightblue" d="M781.91,-168.44C782.26,-154.51 785.07,-126.98 801,-112 883,-34.89 936.72,-72.96 1048,-56 1246.87,-25.7 1488.44,-15.09 1577.68,-12.05"/>
<polygon fill="midnightblue" stroke="midnightblue" points="1577.91,-15.55 1587.79,-11.72 1577.68,-8.55 1577.91,-15.55"/>
</g>
<!-- Node17 -->
<g id="node17" class="node">
<title>Node17</title>
<g id="a_node17"><a xlink:title=" ">
<polygon fill="none" stroke="#bfbfbf" points="810.5,-112.5 810.5,-131.5 875.5,-131.5 875.5,-112.5 810.5,-112.5"/>
<text text-anchor="middle" x="843" y="-119.5" font-family="Helvetica,sans-Serif" font-size="10.00">exception</text>
</a>
</g>
</g>
<!-- Node15&#45;&gt;Node17 -->
<g id="edge18" class="edge">
<title>Node15&#45;&gt;Node17</title>
<path fill="none" stroke="midnightblue" d="M791.8,-168.32C800.82,-160.34 814.41,-148.31 825.32,-138.65"/>
<polygon fill="midnightblue" stroke="midnightblue" points="827.85,-141.08 833.02,-131.83 823.21,-135.84 827.85,-141.08"/>
</g>
<!-- Node19&#45;&gt;Node5 -->
<g id="edge26" class="edge">
<title>Node19&#45;&gt;Node5</title>
<path fill="none" stroke="midnightblue" d="M1501.03,-168.32C1483.92,-153.96 1447.29,-125.49 1411,-112 1307.98,-73.7 1176,-67.47 1114.88,-66.8"/>
<polygon fill="midnightblue" stroke="midnightblue" points="1114.67,-63.29 1104.65,-66.73 1114.63,-70.29 1114.67,-63.29"/>
</g>
<!-- Node19&#45;&gt;Node9 -->
<g id="edge21" class="edge">
<title>Node19&#45;&gt;Node9</title>
<path fill="none" stroke="midnightblue" d="M1520.64,-168.32C1529.51,-160.34 1542.87,-148.31 1553.61,-138.65"/>
<polygon fill="midnightblue" stroke="midnightblue" points="1556.09,-141.13 1561.18,-131.83 1551.41,-135.92 1556.09,-141.13"/>
</g>
<!-- Node19&#45;&gt;Node11 -->
<g id="edge23" class="edge">
<title>Node19&#45;&gt;Node11</title>
<path fill="none" stroke="midnightblue" d="M1490.08,-168.44C1468.26,-159.52 1433.85,-145.44 1409.11,-135.32"/>
<polygon fill="midnightblue" stroke="midnightblue" points="1410.4,-132.06 1399.82,-131.52 1407.75,-138.54 1410.4,-132.06"/>
</g>
<!-- Node19&#45;&gt;Node16 -->
<g id="edge22" class="edge">
<title>Node19&#45;&gt;Node16</title>
<path fill="none" stroke="midnightblue" d="M1507.76,-168.48C1500.32,-147.37 1484.4,-91.79 1508,-56 1523.38,-32.68 1553.63,-21.39 1577.73,-15.97"/>
<polygon fill="midnightblue" stroke="midnightblue" points="1578.5,-19.38 1587.61,-13.98 1577.12,-12.52 1578.5,-19.38"/>
</g>
<!-- Node20 -->
<g id="node20" class="node">
<title>Node20</title>
<g id="a_node20"><a xlink:title=" ">
<polygon fill="none" stroke="#bfbfbf" points="1610.5,-112.5 1610.5,-131.5 1675.5,-131.5 1675.5,-112.5 1610.5,-112.5"/>
<text text-anchor="middle" x="1643" y="-119.5" font-family="Helvetica,sans-Serif" font-size="10.00">functional</text>
</a>
</g>
</g>
<!-- Node19&#45;&gt;Node20 -->
<g id="edge24" class="edge">
<title>Node19&#45;&gt;Node20</title>
<path fill="none" stroke="midnightblue" d="M1531.92,-168.44C1553.74,-159.52 1588.15,-145.44 1612.89,-135.32"/>
<polygon fill="midnightblue" stroke="midnightblue" points="1614.25,-138.54 1622.18,-131.52 1611.6,-132.06 1614.25,-138.54"/>
</g>
<!-- Node21 -->
<g id="node21" class="node">
<title>Node21</title>
<g id="a_node21"><a xlink:title=" ">
<polygon fill="none" stroke="#bfbfbf" points="1974,-0.5 1974,-19.5 2018,-19.5 2018,-0.5 1974,-0.5"/>
<text text-anchor="middle" x="1996" y="-7.5" font-family="Helvetica,sans-Serif" font-size="10.00">limits</text>
</a>
</g>
</g>
<!-- Node19&#45;&gt;Node21 -->
<g id="edge25" class="edge">
<title>Node19&#45;&gt;Node21</title>
<path fill="none" stroke="midnightblue" d="M1512.52,-168.39C1515.44,-154.4 1523.23,-126.78 1541,-112 1606.37,-57.62 1871.1,-24.45 1963.77,-14.32"/>
<polygon fill="midnightblue" stroke="midnightblue" points="1964.38,-17.78 1973.95,-13.23 1963.63,-10.82 1964.38,-17.78"/>
</g>
<!-- Node22 -->
<g id="node22" class="node">
<title>Node22</title>
<g id="a_node22"><a xlink:title=" ">
<polygon fill="none" stroke="#bfbfbf" points="509.5,-112.5 509.5,-131.5 582.5,-131.5 582.5,-112.5 509.5,-112.5"/>
<text text-anchor="middle" x="546" y="-119.5" font-family="Helvetica,sans-Serif" font-size="10.00">string_view</text>
</a>
</g>
</g>
<!-- Node19&#45;&gt;Node22 -->
<g id="edge27" class="edge">
<title>Node19&#45;&gt;Node22</title>
<path fill="none" stroke="midnightblue" d="M1478.86,-169.41C1475.88,-168.87 1472.89,-168.38 1470,-168 1382.83,-156.39 768.45,-131.71 592.8,-124.82"/>
<polygon fill="midnightblue" stroke="midnightblue" points="592.72,-121.31 582.59,-124.42 592.45,-128.31 592.72,-121.31"/>
</g>
<!-- Node28&#45;&gt;Node9 -->
<g id="edge34" class="edge">
<title>Node28&#45;&gt;Node9</title>
<path fill="none" stroke="midnightblue" d="M1648.18,-227.41C1698.41,-219.81 1763.89,-202.93 1737,-168 1700.72,-120.87 1664.86,-146.19 1602.15,-131.99"/>
<polygon fill="midnightblue" stroke="midnightblue" points="1602.83,-128.55 1592.28,-129.48 1601.11,-135.34 1602.83,-128.55"/>
</g>
<!-- Node28&#45;&gt;Node14 -->
<g id="edge38" class="edge">
<title>Node28&#45;&gt;Node14</title>
<path fill="none" stroke="midnightblue" d="M1546.3,-224.44C1479.74,-213.21 1364.85,-193.82 1309.14,-184.42"/>
<polygon fill="midnightblue" stroke="midnightblue" points="1309.58,-180.95 1299.14,-182.74 1308.42,-187.85 1309.58,-180.95"/>
</g>
<!-- Node28&#45;&gt;Node18 -->
<g id="edge39" class="edge">
<title>Node28&#45;&gt;Node18</title>
<path fill="none" stroke="midnightblue" d="M1607.76,-224.32C1617.77,-216.26 1632.89,-204.08 1644.93,-194.37"/>
<polygon fill="midnightblue" stroke="midnightblue" points="1647.45,-196.83 1653.04,-187.83 1643.06,-191.38 1647.45,-196.83"/>
</g>
<!-- Node28&#45;&gt;Node19 -->
<g id="edge40" class="edge">
<title>Node28&#45;&gt;Node19</title>
<path fill="none" stroke="midnightblue" d="M1583.18,-224.32C1569.77,-215.9 1549.18,-202.97 1533.41,-193.07"/>
<polygon fill="midnightblue" stroke="midnightblue" points="1535.11,-190.01 1524.78,-187.65 1531.39,-195.94 1535.11,-190.01"/>
</g>
<!-- Node28&#45;&gt;Node21 -->
<g id="edge36" class="edge">
<title>Node28&#45;&gt;Node21</title>
<path fill="none" stroke="midnightblue" d="M1648.02,-232.49C1839.66,-230.31 2507.09,-220.43 2538,-188 2580.79,-143.11 2651.3,-169.13 2467,-56 2393.27,-10.74 2122.01,-9.5 2028.19,-10.47"/>
<polygon fill="midnightblue" stroke="midnightblue" points="2028.11,-6.98 2018.15,-10.6 2028.19,-13.98 2028.11,-6.98"/>
</g>
<!-- Node28&#45;&gt;Node24 -->
<g id="edge41" class="edge">
<title>Node28&#45;&gt;Node24</title>
<path fill="none" stroke="midnightblue" d="M1570.06,-224.44C1541.34,-215.32 1495.67,-200.81 1463.68,-190.65"/>
<polygon fill="midnightblue" stroke="midnightblue" points="1464.4,-187.21 1453.81,-187.52 1462.28,-193.88 1464.4,-187.21"/>
</g>
<!-- Node29 -->
<g id="node29" class="node">
<title>Node29</title>
<g id="a_node29"><a xlink:title=" ">
<polygon fill="none" stroke="#bfbfbf" points="2481.5,-168.5 2481.5,-187.5 2528.5,-187.5 2528.5,-168.5 2481.5,-168.5"/>
<text text-anchor="middle" x="2505" y="-175.5" font-family="Helvetica,sans-Serif" font-size="10.00">cmath</text>
</a>
</g>
</g>
<!-- Node28&#45;&gt;Node29 -->
<g id="edge35" class="edge">
<title>Node28&#45;&gt;Node29</title>
<path fill="none" stroke="midnightblue" d="M1648.3,-233.57C1783.18,-234.38 2158.58,-232.13 2467,-188 2468.47,-187.79 2469.96,-187.55 2471.47,-187.29"/>
<polygon fill="midnightblue" stroke="midnightblue" points="2472.3,-190.69 2481.41,-185.28 2470.92,-183.83 2472.3,-190.69"/>
</g>
<!-- Node30 -->
<g id="node30" class="node">
<title>Node30</title>
<g id="a_node30"><a xlink:title=" ">
<polygon fill="none" stroke="#bfbfbf" points="2349,-56.5 2349,-75.5 2405,-75.5 2405,-56.5 2349,-56.5"/>
<text text-anchor="middle" x="2377" y="-63.5" font-family="Helvetica,sans-Serif" font-size="10.00">optional</text>
</a>
</g>
</g>
<!-- Node28&#45;&gt;Node30 -->
<g id="edge37" class="edge">
<title>Node28&#45;&gt;Node30</title>
<path fill="none" stroke="midnightblue" d="M1648.11,-232.01C1819.64,-228.46 2365.44,-215.05 2391,-188 2417.29,-160.18 2399.41,-111.22 2386.67,-84.92"/>
<polygon fill="midnightblue" stroke="midnightblue" points="2389.65,-83.06 2381.99,-75.74 2383.42,-86.24 2389.65,-83.06"/>
</g>
<!-- Node31&#45;&gt;Node5 -->
<g id="edge51" class="edge">
<title>Node31&#45;&gt;Node5</title>
<path fill="none" stroke="midnightblue" d="M1412.18,-224.4C1389.87,-211.56 1346.19,-186.89 1308,-168 1238.59,-133.67 1154.9,-97.82 1111.09,-79.47"/>
<polygon fill="midnightblue" stroke="midnightblue" points="1112.18,-76.13 1101.61,-75.5 1109.48,-82.59 1112.18,-76.13"/>
</g>
<!-- Node31&#45;&gt;Node9 -->
<g id="edge43" class="edge">
<title>Node31&#45;&gt;Node9</title>
<path fill="none" stroke="midnightblue" d="M1460.23,-229.4C1488.42,-224.61 1527.98,-213.54 1552,-188 1563.7,-175.57 1568.24,-156.33 1569.98,-142"/>
<polygon fill="midnightblue" stroke="midnightblue" points="1573.48,-142.06 1570.85,-131.79 1566.51,-141.46 1573.48,-142.06"/>
</g>
<!-- Node31&#45;&gt;Node10 -->
<g id="edge44" class="edge">
<title>Node31&#45;&gt;Node10</title>
<path fill="none" stroke="midnightblue" d="M1393.87,-225.17C1359.49,-216.96 1303.93,-203.44 1247.18,-188.25"/>
<polygon fill="midnightblue" stroke="midnightblue" points="1247.89,-184.81 1237.32,-185.59 1246.07,-191.57 1247.89,-184.81"/>
</g>
<!-- Node31&#45;&gt;Node11 -->
<g id="edge45" class="edge">
<title>Node31&#45;&gt;Node11</title>
<path fill="none" stroke="midnightblue" d="M1415.19,-224.5C1404.96,-216.39 1390.78,-203.2 1384,-188 1377.51,-173.47 1376.65,-155.29 1377.18,-141.85"/>
<polygon fill="midnightblue" stroke="midnightblue" points="1380.67,-142.08 1377.87,-131.87 1373.69,-141.6 1380.67,-142.08"/>
</g>
<!-- Node31&#45;&gt;Node12 -->
<g id="edge47" class="edge">
<title>Node31&#45;&gt;Node12</title>
<path fill="none" stroke="midnightblue" d="M1393.73,-233.34C1281.83,-234.02 908.8,-232.67 592.64,-187.97"/>
<polygon fill="midnightblue" stroke="midnightblue" points="592.75,-184.45 582.36,-186.5 591.76,-191.38 592.75,-184.45"/>
</g>
<!-- Node31&#45;&gt;Node13 -->
<g id="edge50" class="edge">
<title>Node31&#45;&gt;Node13</title>
<path fill="none" stroke="midnightblue" d="M1393.87,-230.89C1322.13,-226.04 1146.94,-212.71 990.86,-188.14"/>
<polygon fill="midnightblue" stroke="midnightblue" points="991.04,-184.63 980.61,-186.51 989.93,-191.54 991.04,-184.63"/>
</g>
<!-- Node31&#45;&gt;Node15 -->
<g id="edge52" class="edge">
<title>Node31&#45;&gt;Node15</title>
<path fill="none" stroke="midnightblue" d="M1393.68,-230.21C1287.42,-221.31 956.22,-193.59 830.8,-183.09"/>
<polygon fill="midnightblue" stroke="midnightblue" points="830.97,-179.59 820.72,-182.24 830.39,-186.56 830.97,-179.59"/>
</g>
<!-- Node31&#45;&gt;Node18 -->
<g id="edge53" class="edge">
<title>Node31&#45;&gt;Node18</title>
<path fill="none" stroke="midnightblue" d="M1460.2,-225.43C1500.91,-216.16 1570.19,-200.37 1616.52,-189.82"/>
<polygon fill="midnightblue" stroke="midnightblue" points="1617.36,-193.22 1626.33,-187.58 1615.8,-186.39 1617.36,-193.22"/>
</g>
<!-- Node31&#45;&gt;Node19 -->
<g id="edge54" class="edge">
<title>Node31&#45;&gt;Node19</title>
<path fill="none" stroke="midnightblue" d="M1440.5,-224.32C1453.6,-215.9 1473.71,-202.97 1489.11,-193.07"/>
<polygon fill="midnightblue" stroke="midnightblue" points="1491.02,-196.01 1497.54,-187.65 1487.23,-190.12 1491.02,-196.01"/>
</g>
<!-- Node31&#45;&gt;Node21 -->
<g id="edge46" class="edge">
<title>Node31&#45;&gt;Node21</title>
<path fill="none" stroke="midnightblue" d="M1460.19,-229.95C1482,-228.02 1511.18,-225.61 1537,-224 1583.67,-221.09 2340.81,-216.35 2378,-188 2426.36,-151.14 2454.63,-101.24 2414,-56 2388.32,-27.41 2121.92,-15.4 2028.31,-12.04"/>
<polygon fill="midnightblue" stroke="midnightblue" points="2028.4,-8.55 2018.28,-11.69 2028.15,-15.54 2028.4,-8.55"/>
</g>
<!-- Node31&#45;&gt;Node23 -->
<g id="edge64" class="edge">
<title>Node31&#45;&gt;Node23</title>
<path fill="none" stroke="midnightblue" d="M1393.59,-228.83C1335.5,-221.5 1211.9,-205.54 1097.49,-188.19"/>
<polygon fill="midnightblue" stroke="midnightblue" points="1097.93,-184.72 1087.52,-186.67 1096.87,-191.64 1097.93,-184.72"/>
</g>
<!-- Node31&#45;&gt;Node24 -->
<g id="edge65" class="edge">
<title>Node31&#45;&gt;Node24</title>
<path fill="none" stroke="midnightblue" d="M1427,-224.08C1427,-217.01 1427,-206.86 1427,-197.99"/>
<polygon fill="midnightblue" stroke="midnightblue" points="1430.5,-197.75 1427,-187.75 1423.5,-197.75 1430.5,-197.75"/>
</g>
<!-- Node31&#45;&gt;Node25 -->
<g id="edge77" class="edge">
<title>Node31&#45;&gt;Node25</title>
<path fill="none" stroke="midnightblue" d="M1393.95,-227.08C1348.99,-218.99 1265.79,-203.85 1184.48,-188.06"/>
<polygon fill="midnightblue" stroke="midnightblue" points="1185.06,-184.61 1174.57,-186.14 1183.72,-191.48 1185.06,-184.61"/>
</g>
<!-- Node31&#45;&gt;Node30 -->
<g id="edge48" class="edge">
<title>Node31&#45;&gt;Node30</title>
<path fill="none" stroke="midnightblue" d="M1460.19,-229.96C1482.01,-228.04 1511.18,-225.62 1537,-224 1582.57,-221.14 2323.96,-218.43 2358,-188 2386.58,-162.46 2384.33,-112.9 2380.5,-85.8"/>
<polygon fill="midnightblue" stroke="midnightblue" points="2383.92,-85.01 2378.85,-75.7 2377.01,-86.14 2383.92,-85.01"/>
</g>
<!-- Node32 -->
<g id="node32" class="node">
<title>Node32</title>
<g id="a_node32"><a xlink:title=" ">
<polygon fill="none" stroke="#bfbfbf" points="1880.5,-168.5 1880.5,-187.5 1927.5,-187.5 1927.5,-168.5 1880.5,-168.5"/>
<text text-anchor="middle" x="1904" y="-175.5" font-family="Helvetica,sans-Serif" font-size="10.00">queue</text>
</a>
</g>
</g>
<!-- Node31&#45;&gt;Node32 -->
<g id="edge49" class="edge">
<title>Node31&#45;&gt;Node32</title>
<path fill="none" stroke="midnightblue" d="M1460.26,-230.35C1546.22,-223.38 1775.1,-204.1 1870.44,-187.74"/>
<polygon fill="midnightblue" stroke="midnightblue" points="1871.09,-191.18 1880.32,-185.96 1869.85,-184.29 1871.09,-191.18"/>
</g>
<!-- Node33 -->
<g id="node33" class="node">
<title>Node33</title>
<g id="a_node33"><a xlink:href="instruction_8h.html" target="_top" xlink:title=" ">
<polygon fill="none" stroke="black" points="1785.5,-168.5 1785.5,-187.5 1862.5,-187.5 1862.5,-168.5 1785.5,-168.5"/>
<text text-anchor="middle" x="1824" y="-175.5" font-family="Helvetica,sans-Serif" font-size="10.00">instruction.h</text>
</a>
</g>
</g>
<!-- Node31&#45;&gt;Node33 -->
<g id="edge55" class="edge">
<title>Node31&#45;&gt;Node33</title>
<path fill="none" stroke="midnightblue" d="M1460.17,-228.49C1530.22,-218.96 1693.54,-196.75 1775.41,-185.61"/>
<polygon fill="midnightblue" stroke="midnightblue" points="1776.01,-189.06 1785.45,-184.24 1775.07,-182.12 1776.01,-189.06"/>
</g>
<!-- Node36 -->
<g id="node36" class="node">
<title>Node36</title>
<g id="a_node36"><a xlink:href="util_2lru__table_8h.html" target="_top" xlink:title=" ">
<polygon fill="none" stroke="black" points="2261.5,-168.5 2261.5,-187.5 2348.5,-187.5 2348.5,-168.5 2261.5,-168.5"/>
<text text-anchor="middle" x="2305" y="-175.5" font-family="Helvetica,sans-Serif" font-size="10.00">util/lru_table.h</text>
</a>
</g>
</g>
<!-- Node31&#45;&gt;Node36 -->
<g id="edge66" class="edge">
<title>Node31&#45;&gt;Node36</title>
<path fill="none" stroke="midnightblue" d="M1460.19,-230.01C1482.01,-228.11 1511.19,-225.7 1537,-224 1851.52,-203.23 1934.55,-222.8 2250.97,-188.1"/>
<polygon fill="midnightblue" stroke="midnightblue" points="2251.81,-191.53 2261.36,-186.95 2251.04,-184.57 2251.81,-191.53"/>
</g>
<!-- Node40 -->
<g id="node40" class="node">
<title>Node40</title>
<g id="a_node40"><a xlink:title=" ">
<polygon fill="none" stroke="#bfbfbf" points="1946,-168.5 1946,-187.5 2088,-187.5 2088,-168.5 1946,-168.5"/>
<text text-anchor="middle" x="2017" y="-175.5" font-family="Helvetica,sans-Serif" font-size="10.00">ooo_cpu_module_decl.inc</text>
</a>
</g>
</g>
<!-- Node31&#45;&gt;Node40 -->
<g id="edge78" class="edge">
<title>Node31&#45;&gt;Node40</title>
<path fill="none" stroke="midnightblue" d="M1460.09,-230.19C1554.68,-222.12 1826.01,-198.88 1935.8,-188.09"/>
<polygon fill="midnightblue" stroke="midnightblue" points="1936.3,-191.56 1945.91,-187.09 1935.61,-184.59 1936.3,-191.56"/>
</g>
<!-- Node41 -->
<g id="node41" class="node">
<title>Node41</title>
<g id="a_node41"><a xlink:title=" ">
<polygon fill="none" stroke="#bfbfbf" points="2106.5,-168.5 2106.5,-187.5 2243.5,-187.5 2243.5,-168.5 2106.5,-168.5"/>
<text text-anchor="middle" x="2175" y="-175.5" font-family="Helvetica,sans-Serif" font-size="10.00">ooo_cpu_module_def.inc</text>
</a>
</g>
</g>
<!-- Node31&#45;&gt;Node41 -->
<g id="edge79" class="edge">
<title>Node31&#45;&gt;Node41</title>
<path fill="none" stroke="midnightblue" d="M1460.2,-230.13C1482.02,-228.28 1511.2,-225.88 1537,-224 1782.46,-206.07 1846.91,-210.19 2096.03,-188.04"/>
<polygon fill="midnightblue" stroke="midnightblue" points="2096.47,-191.52 2106.12,-187.14 2095.84,-184.54 2096.47,-191.52"/>
</g>
<!-- Node33&#45;&gt;Node5 -->
<g id="edge61" class="edge">
<title>Node33&#45;&gt;Node5</title>
<path fill="none" stroke="midnightblue" d="M1805.91,-168.5C1768.79,-151.07 1687.2,-112.83 1684,-112 1575.11,-83.66 1225.78,-71.23 1115.03,-67.94"/>
<polygon fill="midnightblue" stroke="midnightblue" points="1114.87,-64.43 1104.77,-67.64 1114.67,-71.43 1114.87,-64.43"/>
</g>
<!-- Node33&#45;&gt;Node9 -->
<g id="edge57" class="edge">
<title>Node33&#45;&gt;Node9</title>
<path fill="none" stroke="midnightblue" d="M1785.48,-170.34C1742.84,-162.73 1671.91,-149.34 1602.08,-132.09"/>
<polygon fill="midnightblue" stroke="midnightblue" points="1602.79,-128.66 1592.24,-129.64 1601.09,-135.45 1602.79,-128.66"/>
</g>
<!-- Node33&#45;&gt;Node16 -->
<g id="edge58" class="edge">
<title>Node33&#45;&gt;Node16</title>
<path fill="none" stroke="midnightblue" d="M1812.95,-168.31C1778.84,-141.47 1674.89,-59.69 1631.91,-25.88"/>
<polygon fill="midnightblue" stroke="midnightblue" points="1633.96,-23.04 1623.94,-19.61 1629.63,-28.54 1633.96,-23.04"/>
</g>
<!-- Node33&#45;&gt;Node20 -->
<g id="edge59" class="edge">
<title>Node33&#45;&gt;Node20</title>
<path fill="none" stroke="midnightblue" d="M1795.32,-168.44C1764.47,-159.24 1715.27,-144.56 1681.17,-134.39"/>
<polygon fill="midnightblue" stroke="midnightblue" points="1682.13,-131.02 1671.55,-131.52 1680.13,-137.73 1682.13,-131.02"/>
</g>
<!-- Node33&#45;&gt;Node21 -->
<g id="edge60" class="edge">
<title>Node33&#45;&gt;Node21</title>
<path fill="none" stroke="midnightblue" d="M1829.83,-168.3C1844.2,-147.25 1883.24,-92.63 1925,-56 1938.95,-43.76 1956.56,-32.58 1970.75,-24.42"/>
<polygon fill="midnightblue" stroke="midnightblue" points="1972.49,-27.46 1979.51,-19.52 1969.07,-21.35 1972.49,-27.46"/>
</g>
<!-- Node34 -->
<g id="node34" class="node">
<title>Node34</title>
<g id="a_node34"><a xlink:title=" ">
<polygon fill="none" stroke="#bfbfbf" points="1934,-56.5 1934,-75.5 1998,-75.5 1998,-56.5 1934,-56.5"/>
<text text-anchor="middle" x="1966" y="-63.5" font-family="Helvetica,sans-Serif" font-size="10.00">algorithm</text>
</a>
</g>
</g>
<!-- Node33&#45;&gt;Node34 -->
<g id="edge56" class="edge">
<title>Node33&#45;&gt;Node34</title>
<path fill="none" stroke="midnightblue" d="M1851.37,-168.46C1871.84,-161.12 1899.67,-149.01 1920,-132 1935.85,-118.74 1948.88,-98.8 1956.97,-84.5"/>
<polygon fill="midnightblue" stroke="midnightblue" points="1960.08,-86.12 1961.76,-75.66 1953.92,-82.79 1960.08,-86.12"/>
</g>
<!-- Node35 -->
<g id="node35" class="node">
<title>Node35</title>
<g id="a_node35"><a xlink:href="trace__instruction_8h.html" target="_top" xlink:title=" ">
<polygon fill="none" stroke="black" points="1770.5,-56.5 1770.5,-75.5 1877.5,-75.5 1877.5,-56.5 1770.5,-56.5"/>
<text text-anchor="middle" x="1824" y="-63.5" font-family="Helvetica,sans-Serif" font-size="10.00">trace_instruction.h</text>
</a>
</g>
</g>
<!-- Node33&#45;&gt;Node35 -->
<g id="edge62" class="edge">
<title>Node33&#45;&gt;Node35</title>
<path fill="none" stroke="midnightblue" d="M1824,-168.37C1824,-150.62 1824,-109.67 1824,-85.6"/>
<polygon fill="midnightblue" stroke="midnightblue" points="1827.5,-85.59 1824,-75.59 1820.5,-85.59 1827.5,-85.59"/>
</g>
<!-- Node35&#45;&gt;Node21 -->
<g id="edge63" class="edge">
<title>Node35&#45;&gt;Node21</title>
<path fill="none" stroke="midnightblue" d="M1851.25,-56.44C1881.85,-46.84 1931.46,-31.26 1963.91,-21.07"/>
<polygon fill="midnightblue" stroke="midnightblue" points="1965.3,-24.31 1973.8,-17.97 1963.21,-17.63 1965.3,-24.31"/>
</g>
<!-- Node37 -->
<g id="node37" class="node">
<title>Node37</title>
<g id="a_node37"><a xlink:href="msl_2lru__table_8h.html" target="_top" xlink:title=" ">
<polygon fill="none" stroke="black" points="2081.5,-112.5 2081.5,-131.5 2170.5,-131.5 2170.5,-112.5 2081.5,-112.5"/>
<text text-anchor="middle" x="2126" y="-119.5" font-family="Helvetica,sans-Serif" font-size="10.00">msl/lru_table.h</text>
</a>
</g>
</g>
<!-- Node36&#45;&gt;Node37 -->
<g id="edge67" class="edge">
<title>Node36&#45;&gt;Node37</title>
<path fill="none" stroke="midnightblue" d="M2276.64,-168.44C2246.26,-159.28 2197.89,-144.69 2164.18,-134.52"/>
<polygon fill="midnightblue" stroke="midnightblue" points="2164.82,-131.05 2154.23,-131.52 2162.79,-137.76 2164.82,-131.05"/>
</g>
<!-- Node37&#45;&gt;Node4 -->
<g id="edge72" class="edge">
<title>Node37&#45;&gt;Node4</title>
<path fill="none" stroke="midnightblue" d="M2170.91,-115.97C2267.17,-105.18 2491.42,-80.06 2575.44,-70.65"/>
<polygon fill="midnightblue" stroke="midnightblue" points="2575.88,-74.12 2585.43,-69.53 2575.1,-67.16 2575.88,-74.12"/>
</g>
<!-- Node37&#45;&gt;Node5 -->
<g id="edge73" class="edge">
<title>Node37&#45;&gt;Node5</title>
<path fill="none" stroke="midnightblue" d="M2081.43,-118.7C1906.62,-109.66 1269.77,-76.75 1115.05,-68.76"/>
<polygon fill="midnightblue" stroke="midnightblue" points="1114.92,-65.25 1104.75,-68.23 1114.56,-72.24 1114.92,-65.25"/>
</g>
<!-- Node37&#45;&gt;Node16 -->
<g id="edge70" class="edge">
<title>Node37&#45;&gt;Node16</title>
<path fill="none" stroke="midnightblue" d="M2110.36,-112.25C2079.33,-94.92 2012.5,-57.74 2007,-56 1879.34,-15.55 1718.21,-10.59 1648.17,-10.54"/>
<polygon fill="midnightblue" stroke="midnightblue" points="1648.12,-7.04 1638.12,-10.57 1648.13,-14.04 1648.12,-7.04"/>
</g>
<!-- Node37&#45;&gt;Node30 -->
<g id="edge71" class="edge">
<title>Node37&#45;&gt;Node30</title>
<path fill="none" stroke="midnightblue" d="M2165.77,-112.44C2213.19,-102.24 2291.9,-85.31 2338.67,-75.25"/>
<polygon fill="midnightblue" stroke="midnightblue" points="2339.67,-78.61 2348.71,-73.09 2338.2,-71.77 2339.67,-78.61"/>
</g>
<!-- Node37&#45;&gt;Node34 -->
<g id="edge68" class="edge">
<title>Node37&#45;&gt;Node34</title>
<path fill="none" stroke="midnightblue" d="M2100.65,-112.44C2073.73,-103.36 2031,-88.94 2000.91,-78.78"/>
<polygon fill="midnightblue" stroke="midnightblue" points="2001.83,-75.4 1991.23,-75.52 1999.59,-82.03 2001.83,-75.4"/>
</g>
<!-- Node38 -->
<g id="node38" class="node">
<title>Node38</title>
<g id="a_node38"><a xlink:title=" ">
<polygon fill="none" stroke="#bfbfbf" points="2138,-56.5 2138,-75.5 2190,-75.5 2190,-56.5 2138,-56.5"/>
<text text-anchor="middle" x="2164" y="-63.5" font-family="Helvetica,sans-Serif" font-size="10.00">cassert</text>
</a>
</g>
</g>
<!-- Node37&#45;&gt;Node38 -->
<g id="edge69" class="edge">
<title>Node37&#45;&gt;Node38</title>
<path fill="none" stroke="midnightblue" d="M2132.27,-112.08C2137.64,-104.46 2145.52,-93.26 2152.08,-83.94"/>
<polygon fill="midnightblue" stroke="midnightblue" points="2154.95,-85.94 2157.84,-75.75 2149.22,-81.91 2154.95,-85.94"/>
</g>
<!-- Node39 -->
<g id="node39" class="node">
<title>Node39</title>
<g id="a_node39"><a xlink:href="msl_2bits_8h.html" target="_top" xlink:title=" ">
<polygon fill="none" stroke="black" points="2054.5,-56.5 2054.5,-75.5 2119.5,-75.5 2119.5,-56.5 2054.5,-56.5"/>
<text text-anchor="middle" x="2087" y="-63.5" font-family="Helvetica,sans-Serif" font-size="10.00">msl/bits.h</text>
</a>
</g>
</g>
<!-- Node37&#45;&gt;Node39 -->
<g id="edge74" class="edge">
<title>Node37&#45;&gt;Node39</title>
<path fill="none" stroke="midnightblue" d="M2119.56,-112.08C2114.05,-104.46 2105.97,-93.26 2099.24,-83.94"/>
<polygon fill="midnightblue" stroke="midnightblue" points="2102.01,-81.81 2093.32,-75.75 2096.34,-85.91 2102.01,-81.81"/>
</g>
<!-- Node39&#45;&gt;Node16 -->
<g id="edge75" class="edge">
<title>Node39&#45;&gt;Node16</title>
<path fill="none" stroke="midnightblue" d="M2054.44,-58.4C2049.61,-57.53 2044.68,-56.69 2040,-56 1895.22,-34.55 1721.35,-19.53 1648.17,-13.7"/>
<polygon fill="midnightblue" stroke="midnightblue" points="1648.36,-10.2 1638.12,-12.9 1647.81,-17.18 1648.36,-10.2"/>
</g>
<!-- Node39&#45;&gt;Node21 -->
<g id="edge76" class="edge">
<title>Node39&#45;&gt;Node21</title>
<path fill="none" stroke="midnightblue" d="M2072.38,-56.32C2058.05,-47.82 2035.99,-34.73 2019.25,-24.8"/>
<polygon fill="midnightblue" stroke="midnightblue" points="2020.97,-21.75 2010.58,-19.65 2017.4,-27.77 2020.97,-21.75"/>
</g>
<!-- Node42&#45;&gt;Node5 -->
<g id="edge84" class="edge">
<title>Node42&#45;&gt;Node5</title>
<path fill="none" stroke="midnightblue" d="M808.29,-287.75C716.74,-284.38 493.48,-273.34 425,-244 383.88,-226.38 344.38,-210.28 359,-168 369.35,-138.09 375.01,-126.77 403,-112 460.27,-81.78 918.09,-70.29 1047.21,-67.64"/>
<polygon fill="midnightblue" stroke="midnightblue" points="1047.38,-71.14 1057.3,-67.43 1047.24,-64.14 1047.38,-71.14"/>
</g>
<!-- Node42&#45;&gt;Node8 -->
<g id="edge85" class="edge">
<title>Node42&#45;&gt;Node8</title>
<path fill="none" stroke="midnightblue" d="M864.07,-280.32C879.96,-271.74 904.51,-258.49 922.96,-248.52"/>
<polygon fill="midnightblue" stroke="midnightblue" points="924.84,-251.49 931.97,-243.65 921.51,-245.33 924.84,-251.49"/>
</g>
<!-- Node42&#45;&gt;Node12 -->
<g id="edge82" class="edge">
<title>Node42&#45;&gt;Node12</title>
<path fill="none" stroke="midnightblue" d="M824.85,-280.37C772.61,-260.89 645.47,-213.48 585.42,-191.09"/>
<polygon fill="midnightblue" stroke="midnightblue" points="586.63,-187.81 576.04,-187.59 584.19,-194.36 586.63,-187.81"/>
</g>
<!-- Node42&#45;&gt;Node14 -->
<g id="edge83" class="edge">
<title>Node42&#45;&gt;Node14</title>
<path fill="none" stroke="midnightblue" d="M883.24,-280.48C951.17,-263.98 1105.11,-226.12 1244.65,-188.3"/>
<polygon fill="midnightblue" stroke="midnightblue" points="1245.94,-191.58 1254.67,-185.58 1244.11,-184.82 1245.94,-191.58"/>
</g>
<!-- Node42&#45;&gt;Node16 -->
<g id="edge81" class="edge">
<title>Node42&#45;&gt;Node16</title>
<path fill="none" stroke="midnightblue" d="M808.22,-287.33C701.76,-282.57 416.05,-267.69 381,-244 332.31,-211.08 326.73,-148.24 373,-112 470.37,-35.74 1386.12,-15.09 1577.89,-11.59"/>
<polygon fill="midnightblue" stroke="midnightblue" points="1578.04,-15.08 1587.98,-11.41 1577.92,-8.09 1578.04,-15.08"/>
</g>
<!-- Node42&#45;&gt;Node22 -->
<g id="edge88" class="edge">
<title>Node42&#45;&gt;Node22</title>
<path fill="none" stroke="midnightblue" d="M808.38,-286.88C703.47,-280.34 422.73,-256.65 367,-188 329.32,-141.59 434.18,-128.31 499.01,-124.52"/>
<polygon fill="midnightblue" stroke="midnightblue" points="499.25,-128.01 509.05,-123.98 498.87,-121.02 499.25,-128.01"/>
</g>
<!-- Node42&#45;&gt;Node28 -->
<g id="edge86" class="edge">
<title>Node42&#45;&gt;Node28</title>
<path fill="none" stroke="midnightblue" d="M887.75,-281.16C890.54,-280.73 893.31,-280.34 896,-280 1149.21,-248.43 1214.39,-260.95 1469,-244 1490.78,-242.55 1514.63,-240.89 1535.78,-239.4"/>
<polygon fill="midnightblue" stroke="midnightblue" points="1536.2,-242.88 1545.93,-238.68 1535.71,-235.89 1536.2,-242.88"/>
</g>
<!-- Node42&#45;&gt;Node31 -->
<g id="edge87" class="edge">
<title>Node42&#45;&gt;Node31</title>
<path fill="none" stroke="midnightblue" d="M887.5,-281.27C890.37,-280.81 893.23,-280.38 896,-280 1076.34,-255.52 1293.06,-242.09 1383.77,-237.18"/>
<polygon fill="midnightblue" stroke="midnightblue" points="1384.14,-240.67 1393.94,-236.64 1383.77,-233.68 1384.14,-240.67"/>
</g>
</g>
</svg>
