<?xml version="1.0" encoding="UTF-8" standalone="no"?>
<!DOCTYPE svg PUBLIC "-//W3C//DTD SVG 1.1//EN"
 "http://www.w3.org/Graphics/SVG/1.1/DTD/svg11.dtd">
<!-- Generated by graphviz version 2.43.0 (0)
 -->
<!-- Title: test/cpp/src/pref_interface.h Pages: 1 -->
<svg width="304pt" height="106pt"
 viewBox="0.00 0.00 303.50 106.00" xmlns="http://www.w3.org/2000/svg" xmlns:xlink="http://www.w3.org/1999/xlink">
<g id="graph0" class="graph" transform="scale(1 1) rotate(0) translate(4 102)">
<title>test/cpp/src/pref_interface.h</title>
<!-- Node1 -->
<g id="node1" class="node">
<title>Node1</title>
<g id="a_node1"><a xlink:title=" ">
<polygon fill="#bfbfbf" stroke="black" points="78.5,-78.5 78.5,-97.5 231.5,-97.5 231.5,-78.5 78.5,-78.5"/>
<text text-anchor="middle" x="155" y="-85.5" font-family="Helvetica,sans-Serif" font-size="10.00">test/cpp/src/pref_interface.h</text>
</a>
</g>
</g>
<!-- Node2 -->
<g id="node2" class="node">
<title>Node2</title>
<g id="a_node2"><a xlink:href="prefetch__hit__collector_8cc.html" target="_top" xlink:title=" ">
<polygon fill="none" stroke="black" points="0,-0.5 0,-41.5 154,-41.5 154,-0.5 0,-0.5"/>
<text text-anchor="start" x="8" y="-29.5" font-family="Helvetica,sans-Serif" font-size="10.00">test/cpp/modules/prefetcher</text>
<text text-anchor="start" x="8" y="-18.5" font-family="Helvetica,sans-Serif" font-size="10.00">/prefetch_hit_collector</text>
<text text-anchor="middle" x="77" y="-7.5" font-family="Helvetica,sans-Serif" font-size="10.00">/prefetch_hit_collector.cc</text>
</a>
</g>
</g>
<!-- Node1&#45;&gt;Node2 -->
<g id="edge1" class="edge">
<title>Node1&#45;&gt;Node2</title>
<path fill="none" stroke="midnightblue" d="M136.55,-71.62C125.75,-62.63 112.01,-51.18 100.45,-41.54"/>
<polygon fill="midnightblue" stroke="midnightblue" points="134.56,-74.52 144.48,-78.23 139.04,-69.14 134.56,-74.52"/>
</g>
<!-- Node3 -->
<g id="node3" class="node">
<title>Node3</title>
<g id="a_node3"><a xlink:href="420-issue-prefetch_8cc.html" target="_top" xlink:title=" ">
<polygon fill="none" stroke="black" points="172.5,-6 172.5,-36 295.5,-36 295.5,-6 172.5,-6"/>
<text text-anchor="start" x="180.5" y="-24" font-family="Helvetica,sans-Serif" font-size="10.00">test/cpp/src/420&#45;issue</text>
<text text-anchor="middle" x="234" y="-13" font-family="Helvetica,sans-Serif" font-size="10.00">&#45;prefetch.cc</text>
</a>
</g>
</g>
<!-- Node1&#45;&gt;Node3 -->
<g id="edge2" class="edge">
<title>Node1&#45;&gt;Node3</title>
<path fill="none" stroke="midnightblue" d="M173.55,-71.74C186.66,-60.95 204.1,-46.6 216.88,-36.09"/>
<polygon fill="midnightblue" stroke="midnightblue" points="171.15,-69.18 165.65,-78.23 175.6,-74.58 171.15,-69.18"/>
</g>
</g>
</svg>
