<?xml version="1.0" encoding="UTF-8" standalone="no"?>
<!DOCTYPE svg PUBLIC "-//W3C//DTD SVG 1.1//EN"
 "http://www.w3.org/Graphics/SVG/1.1/DTD/svg11.dtd">
<!-- Generated by graphviz version 2.43.0 (0)
 -->
<!-- Title: test/cpp/modules/prefetcher/prefetch_hit_collector/prefetch_hit_collector.cc Pages: 1 -->
<svg width="1379pt" height="218pt"
 viewBox="0.00 0.00 1379.00 218.00" xmlns="http://www.w3.org/2000/svg" xmlns:xlink="http://www.w3.org/1999/xlink">
<g id="graph0" class="graph" transform="scale(1 1) rotate(0) translate(4 214)">
<title>test/cpp/modules/prefetcher/prefetch_hit_collector/prefetch_hit_collector.cc</title>
<!-- Node1 -->
<g id="node1" class="node">
<title>Node1</title>
<g id="a_node1"><a xlink:title=" ">
<polygon fill="#bfbfbf" stroke="black" points="530.5,-168.5 530.5,-209.5 684.5,-209.5 684.5,-168.5 530.5,-168.5"/>
<text text-anchor="start" x="538.5" y="-197.5" font-family="Helvetica,sans-Serif" font-size="10.00">test/cpp/modules/prefetcher</text>
<text text-anchor="start" x="538.5" y="-186.5" font-family="Helvetica,sans-Serif" font-size="10.00">/prefetch_hit_collector</text>
<text text-anchor="middle" x="607.5" y="-175.5" font-family="Helvetica,sans-Serif" font-size="10.00">/prefetch_hit_collector.cc</text>
</a>
</g>
</g>
<!-- Node2 -->
<g id="node2" class="node">
<title>Node2</title>
<g id="a_node2"><a xlink:href="cache_8h.html" target="_top" xlink:title=" ">
<polygon fill="none" stroke="black" points="548.5,-112.5 548.5,-131.5 602.5,-131.5 602.5,-112.5 548.5,-112.5"/>
<text text-anchor="middle" x="575.5" y="-119.5" font-family="Helvetica,sans-Serif" font-size="10.00">cache.h</text>
</a>
</g>
</g>
<!-- Node1&#45;&gt;Node2 -->
<g id="edge1" class="edge">
<title>Node1&#45;&gt;Node2</title>
<path fill="none" stroke="midnightblue" d="M597.9,-168.5C593.56,-159.68 588.47,-149.34 584.24,-140.74"/>
<polygon fill="midnightblue" stroke="midnightblue" points="587.32,-139.08 579.76,-131.65 581.04,-142.17 587.32,-139.08"/>
</g>
<!-- Node9 -->
<g id="node9" class="node">
<title>Node9</title>
<g id="a_node9"><a xlink:title=" ">
<polygon fill="none" stroke="#bfbfbf" points="0,-0.5 0,-19.5 47,-19.5 47,-0.5 0,-0.5"/>
<text text-anchor="middle" x="23.5" y="-7.5" font-family="Helvetica,sans-Serif" font-size="10.00">vector</text>
</a>
</g>
</g>
<!-- Node1&#45;&gt;Node9 -->
<g id="edge27" class="edge">
<title>Node1&#45;&gt;Node9</title>
<path fill="none" stroke="midnightblue" d="M530.25,-184.69C387.22,-176.79 89.82,-151.48 25.5,-76 14.76,-63.4 15.67,-43.91 18.4,-29.56"/>
<polygon fill="midnightblue" stroke="midnightblue" points="21.82,-30.31 20.69,-19.78 15,-28.72 21.82,-30.31"/>
</g>
<!-- Node23 -->
<g id="node23" class="node">
<title>Node23</title>
<g id="a_node23"><a xlink:title=" ">
<polygon fill="none" stroke="#bfbfbf" points="620.5,-112.5 620.5,-131.5 658.5,-131.5 658.5,-112.5 620.5,-112.5"/>
<text text-anchor="middle" x="639.5" y="-119.5" font-family="Helvetica,sans-Serif" font-size="10.00">map</text>
</a>
</g>
</g>
<!-- Node1&#45;&gt;Node23 -->
<g id="edge26" class="edge">
<title>Node1&#45;&gt;Node23</title>
<path fill="none" stroke="midnightblue" d="M617.1,-168.5C621.44,-159.68 626.53,-149.34 630.76,-140.74"/>
<polygon fill="midnightblue" stroke="midnightblue" points="633.96,-142.17 635.24,-131.65 627.68,-139.08 633.96,-142.17"/>
</g>
<!-- Node24 -->
<g id="node24" class="node">
<title>Node24</title>
<g id="a_node24"><a xlink:href="pref__interface_8h.html" target="_top" xlink:title=" ">
<polygon fill="none" stroke="black" points="676.5,-112.5 676.5,-131.5 814.5,-131.5 814.5,-112.5 676.5,-112.5"/>
<text text-anchor="middle" x="745.5" y="-119.5" font-family="Helvetica,sans-Serif" font-size="10.00">../../../src/pref_interface.h</text>
</a>
</g>
</g>
<!-- Node1&#45;&gt;Node24 -->
<g id="edge28" class="edge">
<title>Node1&#45;&gt;Node24</title>
<path fill="none" stroke="midnightblue" d="M648.9,-168.5C671.28,-157.96 698.3,-145.23 718.06,-135.92"/>
<polygon fill="midnightblue" stroke="midnightblue" points="719.57,-139.08 727.13,-131.65 716.59,-132.75 719.57,-139.08"/>
</g>
<!-- Node3 -->
<g id="node3" class="node">
<title>Node3</title>
<g id="a_node3"><a xlink:title=" ">
<polygon fill="none" stroke="#bfbfbf" points="1177.5,-0.5 1177.5,-19.5 1219.5,-19.5 1219.5,-0.5 1177.5,-0.5"/>
<text text-anchor="middle" x="1198.5" y="-7.5" font-family="Helvetica,sans-Serif" font-size="10.00">array</text>
</a>
</g>
</g>
<!-- Node2&#45;&gt;Node3 -->
<g id="edge2" class="edge">
<title>Node2&#45;&gt;Node3</title>
<path fill="none" stroke="midnightblue" d="M602.52,-113.69C605.53,-113.04 608.57,-112.46 611.5,-112 672.67,-102.45 1116.24,-110.71 1167.5,-76 1183.16,-65.4 1191.14,-44.63 1195.04,-29.41"/>
<polygon fill="midnightblue" stroke="midnightblue" points="1198.49,-30.05 1197.22,-19.53 1191.65,-28.55 1198.49,-30.05"/>
</g>
<!-- Node4 -->
<g id="node4" class="node">
<title>Node4</title>
<g id="a_node4"><a xlink:title=" ">
<polygon fill="none" stroke="#bfbfbf" points="51.5,-56.5 51.5,-75.5 95.5,-75.5 95.5,-56.5 51.5,-56.5"/>
<text text-anchor="middle" x="73.5" y="-63.5" font-family="Helvetica,sans-Serif" font-size="10.00">bitset</text>
</a>
</g>
</g>
<!-- Node2&#45;&gt;Node4 -->
<g id="edge3" class="edge">
<title>Node2&#45;&gt;Node4</title>
<path fill="none" stroke="midnightblue" d="M548.43,-120.19C477.27,-117.67 279.05,-108.26 105.79,-75.9"/>
<polygon fill="midnightblue" stroke="midnightblue" points="106.21,-72.42 95.73,-73.99 104.9,-79.3 106.21,-72.42"/>
</g>
<!-- Node5 -->
<g id="node5" class="node">
<title>Node5</title>
<g id="a_node5"><a xlink:title=" ">
<polygon fill="none" stroke="#bfbfbf" points="875,-0.5 875,-19.5 922,-19.5 922,-0.5 875,-0.5"/>
<text text-anchor="middle" x="898.5" y="-7.5" font-family="Helvetica,sans-Serif" font-size="10.00">deque</text>
</a>
</g>
</g>
<!-- Node2&#45;&gt;Node5 -->
<g id="edge4" class="edge">
<title>Node2&#45;&gt;Node5</title>
<path fill="none" stroke="midnightblue" d="M602.53,-113.74C605.54,-113.08 608.58,-112.48 611.5,-112 659.35,-104.09 1013.65,-111.68 1046.5,-76 1052.52,-69.46 1051.79,-63.14 1046.5,-56 1044.74,-53.62 975.16,-33.16 932.05,-20.66"/>
<polygon fill="midnightblue" stroke="midnightblue" points="932.81,-17.24 922.23,-17.83 930.87,-23.97 932.81,-17.24"/>
</g>
<!-- Node6 -->
<g id="node6" class="node">
<title>Node6</title>
<g id="a_node6"><a xlink:title=" ">
<polygon fill="none" stroke="#bfbfbf" points="113.5,-56.5 113.5,-75.5 171.5,-75.5 171.5,-56.5 113.5,-56.5"/>
<text text-anchor="middle" x="142.5" y="-63.5" font-family="Helvetica,sans-Serif" font-size="10.00">memory</text>
</a>
</g>
</g>
<!-- Node2&#45;&gt;Node6 -->
<g id="edge5" class="edge">
<title>Node2&#45;&gt;Node6</title>
<path fill="none" stroke="midnightblue" d="M548.04,-119C485.06,-114.19 325.23,-100.6 182.16,-76.11"/>
<polygon fill="midnightblue" stroke="midnightblue" points="182.34,-72.59 171.89,-74.33 181.14,-79.48 182.34,-72.59"/>
</g>
<!-- Node7 -->
<g id="node7" class="node">
<title>Node7</title>
<g id="a_node7"><a xlink:title=" ">
<polygon fill="none" stroke="#bfbfbf" points="190,-56.5 190,-75.5 255,-75.5 255,-56.5 190,-56.5"/>
<text text-anchor="middle" x="222.5" y="-63.5" font-family="Helvetica,sans-Serif" font-size="10.00">stdexcept</text>
</a>
</g>
</g>
<!-- Node2&#45;&gt;Node7 -->
<g id="edge6" class="edge">
<title>Node2&#45;&gt;Node7</title>
<path fill="none" stroke="midnightblue" d="M548.36,-117.7C495.79,-111.17 376.22,-95.67 265.06,-75.99"/>
<polygon fill="midnightblue" stroke="midnightblue" points="265.48,-72.51 255.02,-74.19 264.25,-79.4 265.48,-72.51"/>
</g>
<!-- Node8 -->
<g id="node8" class="node">
<title>Node8</title>
<g id="a_node8"><a xlink:title=" ">
<polygon fill="none" stroke="#bfbfbf" points="273.5,-56.5 273.5,-75.5 317.5,-75.5 317.5,-56.5 273.5,-56.5"/>
<text text-anchor="middle" x="295.5" y="-63.5" font-family="Helvetica,sans-Serif" font-size="10.00">string</text>
</a>
</g>
</g>
<!-- Node2&#45;&gt;Node8 -->
<g id="edge7" class="edge">
<title>Node2&#45;&gt;Node8</title>
<path fill="none" stroke="midnightblue" d="M548.41,-117.05C504.18,-110.39 413.53,-95.91 327.68,-76.08"/>
<polygon fill="midnightblue" stroke="midnightblue" points="328.31,-72.64 317.78,-73.77 326.72,-79.45 328.31,-72.64"/>
</g>
<!-- Node2&#45;&gt;Node9 -->
<g id="edge8" class="edge">
<title>Node2&#45;&gt;Node9</title>
<path fill="none" stroke="midnightblue" d="M548.49,-120.48C445.6,-118.28 81.95,-108.25 42.5,-76 29.01,-64.97 24.77,-44.92 23.59,-30"/>
<polygon fill="midnightblue" stroke="midnightblue" points="27.08,-29.67 23.19,-19.82 20.09,-29.95 27.08,-29.67"/>
</g>
<!-- Node10 -->
<g id="node10" class="node">
<title>Node10</title>
<g id="a_node10"><a xlink:href="champsim_8h.html" target="_top" xlink:title=" ">
<polygon fill="none" stroke="black" points="1224,-56.5 1224,-75.5 1301,-75.5 1301,-56.5 1224,-56.5"/>
<text text-anchor="middle" x="1262.5" y="-63.5" font-family="Helvetica,sans-Serif" font-size="10.00">champsim.h</text>
</a>
</g>
</g>
<!-- Node2&#45;&gt;Node10 -->
<g id="edge9" class="edge">
<title>Node2&#45;&gt;Node10</title>
<path fill="none" stroke="midnightblue" d="M602.52,-113.68C605.53,-113.03 608.57,-112.45 611.5,-112 872.9,-71.76 942.57,-104.66 1205.5,-76 1208.21,-75.7 1210.98,-75.37 1213.78,-75.01"/>
<polygon fill="midnightblue" stroke="midnightblue" points="1214.51,-78.44 1223.93,-73.6 1213.55,-71.51 1214.51,-78.44"/>
</g>
<!-- Node13 -->
<g id="node13" class="node">
<title>Node13</title>
<g id="a_node13"><a xlink:title=" ">
<polygon fill="none" stroke="#bfbfbf" points="336,-56.5 336,-75.5 465,-75.5 465,-56.5 336,-56.5"/>
<text text-anchor="middle" x="400.5" y="-63.5" font-family="Helvetica,sans-Serif" font-size="10.00">champsim_constants.h</text>
</a>
</g>
</g>
<!-- Node2&#45;&gt;Node13 -->
<g id="edge12" class="edge">
<title>Node2&#45;&gt;Node13</title>
<path fill="none" stroke="midnightblue" d="M548.16,-112.56C518.54,-103.42 471.09,-88.78 438,-78.57"/>
<polygon fill="midnightblue" stroke="midnightblue" points="438.82,-75.16 428.23,-75.56 436.75,-81.85 438.82,-75.16"/>
</g>
<!-- Node14 -->
<g id="node14" class="node">
<title>Node14</title>
<g id="a_node14"><a xlink:href="channel_8h.html" target="_top" xlink:title=" ">
<polygon fill="none" stroke="black" points="1094.5,-56.5 1094.5,-75.5 1158.5,-75.5 1158.5,-56.5 1094.5,-56.5"/>
<text text-anchor="middle" x="1126.5" y="-63.5" font-family="Helvetica,sans-Serif" font-size="10.00">channel.h</text>
</a>
</g>
</g>
<!-- Node2&#45;&gt;Node14 -->
<g id="edge13" class="edge">
<title>Node2&#45;&gt;Node14</title>
<path fill="none" stroke="midnightblue" d="M602.53,-113.73C605.54,-113.07 608.57,-112.47 611.5,-112 817.86,-78.53 873.34,-104.12 1080.5,-76 1081.77,-75.83 1083.06,-75.64 1084.36,-75.45"/>
<polygon fill="midnightblue" stroke="midnightblue" points="1085.12,-78.87 1094.41,-73.77 1083.97,-71.96 1085.12,-78.87"/>
</g>
<!-- Node18 -->
<g id="node18" class="node">
<title>Node18</title>
<g id="a_node18"><a xlink:href="module__impl_8h.html" target="_top" xlink:title=" ">
<polygon fill="none" stroke="black" points="483,-56.5 483,-75.5 572,-75.5 572,-56.5 483,-56.5"/>
<text text-anchor="middle" x="527.5" y="-63.5" font-family="Helvetica,sans-Serif" font-size="10.00">module_impl.h</text>
</a>
</g>
</g>
<!-- Node2&#45;&gt;Node18 -->
<g id="edge21" class="edge">
<title>Node2&#45;&gt;Node18</title>
<path fill="none" stroke="midnightblue" d="M567.57,-112.08C560.65,-104.3 550.43,-92.8 542.05,-83.37"/>
<polygon fill="midnightblue" stroke="midnightblue" points="544.54,-80.9 535.28,-75.75 539.31,-85.55 544.54,-80.9"/>
</g>
<!-- Node19 -->
<g id="node19" class="node">
<title>Node19</title>
<g id="a_node19"><a xlink:href="operable_8h.html" target="_top" xlink:title=" ">
<polygon fill="none" stroke="black" points="590.5,-56.5 590.5,-75.5 658.5,-75.5 658.5,-56.5 590.5,-56.5"/>
<text text-anchor="middle" x="624.5" y="-63.5" font-family="Helvetica,sans-Serif" font-size="10.00">operable.h</text>
</a>
</g>
</g>
<!-- Node2&#45;&gt;Node19 -->
<g id="edge22" class="edge">
<title>Node2&#45;&gt;Node19</title>
<path fill="none" stroke="midnightblue" d="M583.59,-112.08C590.66,-104.3 601.09,-92.8 609.65,-83.37"/>
<polygon fill="midnightblue" stroke="midnightblue" points="612.43,-85.51 616.56,-75.75 607.25,-80.8 612.43,-85.51"/>
</g>
<!-- Node20 -->
<g id="node20" class="node">
<title>Node20</title>
<g id="a_node20"><a xlink:title=" ">
<polygon fill="none" stroke="#bfbfbf" points="677,-56.5 677,-75.5 746,-75.5 746,-56.5 677,-56.5"/>
<text text-anchor="middle" x="711.5" y="-63.5" font-family="Helvetica,sans-Serif" font-size="10.00">type_traits</text>
</a>
</g>
</g>
<!-- Node2&#45;&gt;Node20 -->
<g id="edge23" class="edge">
<title>Node2&#45;&gt;Node20</title>
<path fill="none" stroke="midnightblue" d="M597.05,-112.44C619.53,-103.52 654.99,-89.44 680.48,-79.32"/>
<polygon fill="midnightblue" stroke="midnightblue" points="682.05,-82.46 690.05,-75.52 679.47,-75.95 682.05,-82.46"/>
</g>
<!-- Node21 -->
<g id="node21" class="node">
<title>Node21</title>
<g id="a_node21"><a xlink:title=" ">
<polygon fill="none" stroke="#bfbfbf" points="764.5,-56.5 764.5,-75.5 894.5,-75.5 894.5,-56.5 764.5,-56.5"/>
<text text-anchor="middle" x="829.5" y="-63.5" font-family="Helvetica,sans-Serif" font-size="10.00">cache_module_decl.inc</text>
</a>
</g>
</g>
<!-- Node2&#45;&gt;Node21 -->
<g id="edge24" class="edge">
<title>Node2&#45;&gt;Node21</title>
<path fill="none" stroke="midnightblue" d="M602.6,-114.1C605.6,-113.37 608.61,-112.66 611.5,-112 667.25,-99.28 731.39,-86.23 775.59,-77.48"/>
<polygon fill="midnightblue" stroke="midnightblue" points="776.41,-80.89 785.54,-75.52 775.05,-74.02 776.41,-80.89"/>
</g>
<!-- Node22 -->
<g id="node22" class="node">
<title>Node22</title>
<g id="a_node22"><a xlink:title=" ">
<polygon fill="none" stroke="#bfbfbf" points="913,-56.5 913,-75.5 1038,-75.5 1038,-56.5 913,-56.5"/>
<text text-anchor="middle" x="975.5" y="-63.5" font-family="Helvetica,sans-Serif" font-size="10.00">cache_module_def.inc</text>
</a>
</g>
</g>
<!-- Node2&#45;&gt;Node22 -->
<g id="edge25" class="edge">
<title>Node2&#45;&gt;Node22</title>
<path fill="none" stroke="midnightblue" d="M602.55,-113.86C605.56,-113.18 608.59,-112.54 611.5,-112 736.92,-88.68 772.03,-91.93 902.68,-76.09"/>
<polygon fill="midnightblue" stroke="midnightblue" points="903.17,-79.55 912.67,-74.86 902.32,-72.6 903.17,-79.55"/>
</g>
<!-- Node11 -->
<g id="node11" class="node">
<title>Node11</title>
<g id="a_node11"><a xlink:title=" ">
<polygon fill="none" stroke="#bfbfbf" points="1237.5,-0.5 1237.5,-19.5 1287.5,-19.5 1287.5,-0.5 1237.5,-0.5"/>
<text text-anchor="middle" x="1262.5" y="-7.5" font-family="Helvetica,sans-Serif" font-size="10.00">cstdint</text>
</a>
</g>
</g>
<!-- Node10&#45;&gt;Node11 -->
<g id="edge10" class="edge">
<title>Node10&#45;&gt;Node11</title>
<path fill="none" stroke="midnightblue" d="M1262.5,-56.08C1262.5,-49.01 1262.5,-38.86 1262.5,-29.99"/>
<polygon fill="midnightblue" stroke="midnightblue" points="1266,-29.75 1262.5,-19.75 1259,-29.75 1266,-29.75"/>
</g>
<!-- Node12 -->
<g id="node12" class="node">
<title>Node12</title>
<g id="a_node12"><a xlink:title=" ">
<polygon fill="none" stroke="#bfbfbf" points="1306,-0.5 1306,-19.5 1371,-19.5 1371,-0.5 1306,-0.5"/>
<text text-anchor="middle" x="1338.5" y="-7.5" font-family="Helvetica,sans-Serif" font-size="10.00">exception</text>
</a>
</g>
</g>
<!-- Node10&#45;&gt;Node12 -->
<g id="edge11" class="edge">
<title>Node10&#45;&gt;Node12</title>
<path fill="none" stroke="midnightblue" d="M1274.71,-56.32C1286.28,-48.11 1303.88,-35.6 1317.66,-25.81"/>
<polygon fill="midnightblue" stroke="midnightblue" points="1319.94,-28.48 1326.07,-19.83 1315.89,-22.77 1319.94,-28.48"/>
</g>
<!-- Node14&#45;&gt;Node3 -->
<g id="edge14" class="edge">
<title>Node14&#45;&gt;Node3</title>
<path fill="none" stroke="midnightblue" d="M1138.07,-56.32C1148.92,-48.18 1165.38,-35.84 1178.38,-26.09"/>
<polygon fill="midnightblue" stroke="midnightblue" points="1180.82,-28.63 1186.72,-19.83 1176.62,-23.03 1180.82,-28.63"/>
</g>
<!-- Node14&#45;&gt;Node5 -->
<g id="edge16" class="edge">
<title>Node14&#45;&gt;Node5</title>
<path fill="none" stroke="midnightblue" d="M1094.32,-57.98C1057.47,-49.86 995.08,-35.83 931.98,-20.05"/>
<polygon fill="midnightblue" stroke="midnightblue" points="932.82,-16.65 922.26,-17.6 931.11,-23.43 932.82,-16.65"/>
</g>
<!-- Node14&#45;&gt;Node9 -->
<g id="edge19" class="edge">
<title>Node14&#45;&gt;Node9</title>
<path fill="none" stroke="midnightblue" d="M1094.24,-60.86C1079.68,-59.13 1062.25,-57.23 1046.5,-56 658.62,-25.69 186.3,-14.31 57.38,-11.65"/>
<polygon fill="midnightblue" stroke="midnightblue" points="57.4,-8.15 47.33,-11.45 57.25,-15.15 57.4,-8.15"/>
</g>
<!-- Node14&#45;&gt;Node11 -->
<g id="edge15" class="edge">
<title>Node14&#45;&gt;Node11</title>
<path fill="none" stroke="midnightblue" d="M1148.05,-56.44C1170.53,-47.52 1205.99,-33.44 1231.48,-23.32"/>
<polygon fill="midnightblue" stroke="midnightblue" points="1233.05,-26.46 1241.05,-19.52 1230.47,-19.95 1233.05,-26.46"/>
</g>
<!-- Node15 -->
<g id="node15" class="node">
<title>Node15</title>
<g id="a_node15"><a xlink:title=" ">
<polygon fill="none" stroke="#bfbfbf" points="1094,-0.5 1094,-19.5 1159,-19.5 1159,-0.5 1094,-0.5"/>
<text text-anchor="middle" x="1126.5" y="-7.5" font-family="Helvetica,sans-Serif" font-size="10.00">functional</text>
</a>
</g>
</g>
<!-- Node14&#45;&gt;Node15 -->
<g id="edge17" class="edge">
<title>Node14&#45;&gt;Node15</title>
<path fill="none" stroke="midnightblue" d="M1126.5,-56.08C1126.5,-49.01 1126.5,-38.86 1126.5,-29.99"/>
<polygon fill="midnightblue" stroke="midnightblue" points="1130,-29.75 1126.5,-19.75 1123,-29.75 1130,-29.75"/>
</g>
<!-- Node16 -->
<g id="node16" class="node">
<title>Node16</title>
<g id="a_node16"><a xlink:title=" ">
<polygon fill="none" stroke="#bfbfbf" points="940.5,-0.5 940.5,-19.5 984.5,-19.5 984.5,-0.5 940.5,-0.5"/>
<text text-anchor="middle" x="962.5" y="-7.5" font-family="Helvetica,sans-Serif" font-size="10.00">limits</text>
</a>
</g>
</g>
<!-- Node14&#45;&gt;Node16 -->
<g id="edge18" class="edge">
<title>Node14&#45;&gt;Node16</title>
<path fill="none" stroke="midnightblue" d="M1100.51,-56.44C1071.79,-46.99 1025.49,-31.74 994.54,-21.55"/>
<polygon fill="midnightblue" stroke="midnightblue" points="995.28,-18.11 984.68,-18.3 993.09,-24.76 995.28,-18.11"/>
</g>
<!-- Node17 -->
<g id="node17" class="node">
<title>Node17</title>
<g id="a_node17"><a xlink:title=" ">
<polygon fill="none" stroke="#bfbfbf" points="1003,-0.5 1003,-19.5 1076,-19.5 1076,-0.5 1003,-0.5"/>
<text text-anchor="middle" x="1039.5" y="-7.5" font-family="Helvetica,sans-Serif" font-size="10.00">string_view</text>
</a>
</g>
</g>
<!-- Node14&#45;&gt;Node17 -->
<g id="edge20" class="edge">
<title>Node14&#45;&gt;Node17</title>
<path fill="none" stroke="midnightblue" d="M1112.52,-56.32C1098.95,-47.9 1078.12,-34.97 1062.18,-25.07"/>
<polygon fill="midnightblue" stroke="midnightblue" points="1063.79,-21.95 1053.44,-19.65 1060.09,-27.9 1063.79,-21.95"/>
</g>
</g>
</svg>
