<?xml version="1.0" encoding="UTF-8" standalone="no"?>
<!DOCTYPE svg PUBLIC "-//W3C//DTD SVG 1.1//EN"
 "http://www.w3.org/Graphics/SVG/1.1/DTD/svg11.dtd">
<!-- Generated by graphviz version 2.43.0 (0)
 -->
<!-- Title: inc/ptw.h Pages: 1 -->
<svg width="736pt" height="252pt"
 viewBox="0.00 0.00 735.78 252.00" xmlns="http://www.w3.org/2000/svg" xmlns:xlink="http://www.w3.org/1999/xlink">
<g id="graph0" class="graph" transform="scale(1 1) rotate(0) translate(4 248)">
<title>inc/ptw.h</title>
<!-- Node1 -->
<g id="node1" class="node">
<title>Node1</title>
<g id="a_node1"><a xlink:title=" ">
<polygon fill="#bfbfbf" stroke="black" points="211,-224.5 211,-243.5 271,-243.5 271,-224.5 211,-224.5"/>
<text text-anchor="middle" x="241" y="-231.5" font-family="Helvetica,sans-Serif" font-size="10.00">inc/ptw.h</text>
</a>
</g>
</g>
<!-- Node2 -->
<g id="node2" class="node">
<title>Node2</title>
<g id="a_node2"><a xlink:title=" ">
<polygon fill="none" stroke="#bfbfbf" points="0,-112.5 0,-131.5 42,-131.5 42,-112.5 0,-112.5"/>
<text text-anchor="middle" x="21" y="-119.5" font-family="Helvetica,sans-Serif" font-size="10.00">array</text>
</a>
</g>
</g>
<!-- Node1&#45;&gt;Node2 -->
<g id="edge1" class="edge">
<title>Node1&#45;&gt;Node2</title>
<path fill="none" stroke="midnightblue" d="M214.35,-224.42C190.21,-216.26 153.96,-203.03 124,-188 94.01,-172.95 61.62,-151.58 41.33,-137.51"/>
<polygon fill="midnightblue" stroke="midnightblue" points="43.11,-134.48 32.91,-131.61 39.09,-140.22 43.11,-134.48"/>
</g>
<!-- Node3 -->
<g id="node3" class="node">
<title>Node3</title>
<g id="a_node3"><a xlink:title=" ">
<polygon fill="none" stroke="#bfbfbf" points="60.5,-112.5 60.5,-131.5 107.5,-131.5 107.5,-112.5 60.5,-112.5"/>
<text text-anchor="middle" x="84" y="-119.5" font-family="Helvetica,sans-Serif" font-size="10.00">deque</text>
</a>
</g>
</g>
<!-- Node1&#45;&gt;Node3 -->
<g id="edge2" class="edge">
<title>Node1&#45;&gt;Node3</title>
<path fill="none" stroke="midnightblue" d="M220.15,-224.36C201.7,-216.25 174.46,-203.13 153,-188 132.54,-173.57 112.03,-153.34 98.75,-139.29"/>
<polygon fill="midnightblue" stroke="midnightblue" points="101.19,-136.78 91.83,-131.83 96.06,-141.54 101.19,-136.78"/>
</g>
<!-- Node4 -->
<g id="node4" class="node">
<title>Node4</title>
<g id="a_node4"><a xlink:title=" ">
<polygon fill="none" stroke="#bfbfbf" points="350,-168.5 350,-187.5 394,-187.5 394,-168.5 350,-168.5"/>
<text text-anchor="middle" x="372" y="-175.5" font-family="Helvetica,sans-Serif" font-size="10.00">string</text>
</a>
</g>
</g>
<!-- Node1&#45;&gt;Node4 -->
<g id="edge3" class="edge">
<title>Node1&#45;&gt;Node4</title>
<path fill="none" stroke="midnightblue" d="M261.76,-224.44C283.32,-215.56 317.26,-201.56 341.79,-191.45"/>
<polygon fill="midnightblue" stroke="midnightblue" points="343.43,-194.56 351.34,-187.52 340.76,-188.09 343.43,-194.56"/>
</g>
<!-- Node5 -->
<g id="node5" class="node">
<title>Node5</title>
<g id="a_node5"><a xlink:href="channel_8h.html" target="_top" xlink:title=" ">
<polygon fill="none" stroke="black" points="162,-168.5 162,-187.5 226,-187.5 226,-168.5 162,-168.5"/>
<text text-anchor="middle" x="194" y="-175.5" font-family="Helvetica,sans-Serif" font-size="10.00">channel.h</text>
</a>
</g>
</g>
<!-- Node1&#45;&gt;Node5 -->
<g id="edge4" class="edge">
<title>Node1&#45;&gt;Node5</title>
<path fill="none" stroke="midnightblue" d="M233.24,-224.08C226.46,-216.3 216.46,-204.8 208.24,-195.37"/>
<polygon fill="midnightblue" stroke="midnightblue" points="210.82,-193 201.62,-187.75 205.54,-197.59 210.82,-193"/>
</g>
<!-- Node11 -->
<g id="node11" class="node">
<title>Node11</title>
<g id="a_node11"><a xlink:href="operable_8h.html" target="_top" xlink:title=" ">
<polygon fill="none" stroke="black" points="412,-168.5 412,-187.5 480,-187.5 480,-168.5 412,-168.5"/>
<text text-anchor="middle" x="446" y="-175.5" font-family="Helvetica,sans-Serif" font-size="10.00">operable.h</text>
</a>
</g>
</g>
<!-- Node1&#45;&gt;Node11 -->
<g id="edge12" class="edge">
<title>Node1&#45;&gt;Node11</title>
<path fill="none" stroke="midnightblue" d="M271.25,-225.03C306.29,-215.8 364.25,-200.53 403.73,-190.13"/>
<polygon fill="midnightblue" stroke="midnightblue" points="404.82,-193.47 413.59,-187.54 403.03,-186.7 404.82,-193.47"/>
</g>
<!-- Node12 -->
<g id="node12" class="node">
<title>Node12</title>
<g id="a_node12"><a xlink:href="util_2lru__table_8h.html" target="_top" xlink:title=" ">
<polygon fill="none" stroke="black" points="244.5,-168.5 244.5,-187.5 331.5,-187.5 331.5,-168.5 244.5,-168.5"/>
<text text-anchor="middle" x="288" y="-175.5" font-family="Helvetica,sans-Serif" font-size="10.00">util/lru_table.h</text>
</a>
</g>
</g>
<!-- Node1&#45;&gt;Node12 -->
<g id="edge13" class="edge">
<title>Node1&#45;&gt;Node12</title>
<path fill="none" stroke="midnightblue" d="M248.76,-224.08C255.54,-216.3 265.54,-204.8 273.76,-195.37"/>
<polygon fill="midnightblue" stroke="midnightblue" points="276.46,-197.59 280.38,-187.75 271.18,-193 276.46,-197.59"/>
</g>
<!-- Node5&#45;&gt;Node2 -->
<g id="edge5" class="edge">
<title>Node5&#45;&gt;Node2</title>
<path fill="none" stroke="midnightblue" d="M166.59,-168.44C135.38,-158.7 84.52,-142.83 51.92,-132.65"/>
<polygon fill="midnightblue" stroke="midnightblue" points="52.61,-129.2 42.03,-129.56 50.53,-135.88 52.61,-129.2"/>
</g>
<!-- Node5&#45;&gt;Node3 -->
<g id="edge7" class="edge">
<title>Node5&#45;&gt;Node3</title>
<path fill="none" stroke="midnightblue" d="M176.33,-168.32C158.61,-159.62 131.1,-146.12 110.71,-136.11"/>
<polygon fill="midnightblue" stroke="midnightblue" points="112.15,-132.92 101.63,-131.65 109.06,-139.2 112.15,-132.92"/>
</g>
<!-- Node6 -->
<g id="node6" class="node">
<title>Node6</title>
<g id="a_node6"><a xlink:title=" ">
<polygon fill="none" stroke="#bfbfbf" points="615,-0.5 615,-19.5 665,-19.5 665,-0.5 615,-0.5"/>
<text text-anchor="middle" x="640" y="-7.5" font-family="Helvetica,sans-Serif" font-size="10.00">cstdint</text>
</a>
</g>
</g>
<!-- Node5&#45;&gt;Node6 -->
<g id="edge6" class="edge">
<title>Node5&#45;&gt;Node6</title>
<path fill="none" stroke="midnightblue" d="M226.05,-169.83C229.4,-169.17 232.76,-168.55 236,-168 344.61,-149.71 656.74,-163.97 723,-76 740.44,-52.85 704.54,-33.47 674.62,-22.05"/>
<polygon fill="midnightblue" stroke="midnightblue" points="675.79,-18.75 665.19,-18.63 673.4,-25.33 675.79,-18.75"/>
</g>
<!-- Node7 -->
<g id="node7" class="node">
<title>Node7</title>
<g id="a_node7"><a xlink:title=" ">
<polygon fill="none" stroke="#bfbfbf" points="293.5,-112.5 293.5,-131.5 358.5,-131.5 358.5,-112.5 293.5,-112.5"/>
<text text-anchor="middle" x="326" y="-119.5" font-family="Helvetica,sans-Serif" font-size="10.00">functional</text>
</a>
</g>
</g>
<!-- Node5&#45;&gt;Node7 -->
<g id="edge8" class="edge">
<title>Node5&#45;&gt;Node7</title>
<path fill="none" stroke="midnightblue" d="M214.92,-168.44C236.74,-159.52 271.15,-145.44 295.89,-135.32"/>
<polygon fill="midnightblue" stroke="midnightblue" points="297.25,-138.54 305.18,-131.52 294.6,-132.06 297.25,-138.54"/>
</g>
<!-- Node8 -->
<g id="node8" class="node">
<title>Node8</title>
<g id="a_node8"><a xlink:title=" ">
<polygon fill="none" stroke="#bfbfbf" points="268,-0.5 268,-19.5 312,-19.5 312,-0.5 268,-0.5"/>
<text text-anchor="middle" x="290" y="-7.5" font-family="Helvetica,sans-Serif" font-size="10.00">limits</text>
</a>
</g>
</g>
<!-- Node5&#45;&gt;Node8 -->
<g id="edge9" class="edge">
<title>Node5&#45;&gt;Node8</title>
<path fill="none" stroke="midnightblue" d="M196.65,-168.27C203.16,-147.6 221.31,-94.55 247,-56 254.08,-45.37 263.79,-34.96 272.2,-26.84"/>
<polygon fill="midnightblue" stroke="midnightblue" points="274.8,-29.19 279.72,-19.81 270.02,-24.08 274.8,-29.19"/>
</g>
<!-- Node9 -->
<g id="node9" class="node">
<title>Node9</title>
<g id="a_node9"><a xlink:title=" ">
<polygon fill="none" stroke="#bfbfbf" points="255.5,-56.5 255.5,-75.5 302.5,-75.5 302.5,-56.5 255.5,-56.5"/>
<text text-anchor="middle" x="279" y="-63.5" font-family="Helvetica,sans-Serif" font-size="10.00">vector</text>
</a>
</g>
</g>
<!-- Node5&#45;&gt;Node9 -->
<g id="edge10" class="edge">
<title>Node5&#45;&gt;Node9</title>
<path fill="none" stroke="midnightblue" d="M204.53,-168.43C214.63,-159.87 229.94,-146.01 241,-132 252.62,-117.28 263.14,-98.65 270.16,-85.11"/>
<polygon fill="midnightblue" stroke="midnightblue" points="273.42,-86.41 274.8,-75.9 267.17,-83.26 273.42,-86.41"/>
</g>
<!-- Node10 -->
<g id="node10" class="node">
<title>Node10</title>
<g id="a_node10"><a xlink:title=" ">
<polygon fill="none" stroke="#bfbfbf" points="125.5,-112.5 125.5,-131.5 198.5,-131.5 198.5,-112.5 125.5,-112.5"/>
<text text-anchor="middle" x="162" y="-119.5" font-family="Helvetica,sans-Serif" font-size="10.00">string_view</text>
</a>
</g>
</g>
<!-- Node5&#45;&gt;Node10 -->
<g id="edge11" class="edge">
<title>Node5&#45;&gt;Node10</title>
<path fill="none" stroke="midnightblue" d="M188.72,-168.08C184.29,-160.61 177.84,-149.72 172.38,-140.52"/>
<polygon fill="midnightblue" stroke="midnightblue" points="175.29,-138.57 167.19,-131.75 169.27,-142.14 175.29,-138.57"/>
</g>
<!-- Node13 -->
<g id="node13" class="node">
<title>Node13</title>
<g id="a_node13"><a xlink:href="msl_2lru__table_8h.html" target="_top" xlink:title=" ">
<polygon fill="none" stroke="black" points="429.5,-112.5 429.5,-131.5 518.5,-131.5 518.5,-112.5 429.5,-112.5"/>
<text text-anchor="middle" x="474" y="-119.5" font-family="Helvetica,sans-Serif" font-size="10.00">msl/lru_table.h</text>
</a>
</g>
</g>
<!-- Node12&#45;&gt;Node13 -->
<g id="edge14" class="edge">
<title>Node12&#45;&gt;Node13</title>
<path fill="none" stroke="midnightblue" d="M317.47,-168.44C349.17,-159.24 399.73,-144.56 434.77,-134.39"/>
<polygon fill="midnightblue" stroke="midnightblue" points="436.04,-137.67 444.67,-131.52 434.09,-130.94 436.04,-137.67"/>
</g>
<!-- Node13&#45;&gt;Node6 -->
<g id="edge17" class="edge">
<title>Node13&#45;&gt;Node6</title>
<path fill="none" stroke="midnightblue" d="M518.62,-118.36C551.16,-114.09 594.09,-103.25 621,-76 632.99,-63.85 637.49,-44.58 639.14,-30.17"/>
<polygon fill="midnightblue" stroke="midnightblue" points="642.66,-30.12 639.94,-19.88 635.68,-29.58 642.66,-30.12"/>
</g>
<!-- Node13&#45;&gt;Node9 -->
<g id="edge20" class="edge">
<title>Node13&#45;&gt;Node9</title>
<path fill="none" stroke="midnightblue" d="M443.1,-112.44C407.47,-102.58 349.1,-86.41 312.43,-76.26"/>
<polygon fill="midnightblue" stroke="midnightblue" points="313.27,-72.86 302.7,-73.56 311.4,-79.6 313.27,-72.86"/>
</g>
<!-- Node14 -->
<g id="node14" class="node">
<title>Node14</title>
<g id="a_node14"><a xlink:title=" ">
<polygon fill="none" stroke="#bfbfbf" points="404,-56.5 404,-75.5 468,-75.5 468,-56.5 404,-56.5"/>
<text text-anchor="middle" x="436" y="-63.5" font-family="Helvetica,sans-Serif" font-size="10.00">algorithm</text>
</a>
</g>
</g>
<!-- Node13&#45;&gt;Node14 -->
<g id="edge15" class="edge">
<title>Node13&#45;&gt;Node14</title>
<path fill="none" stroke="midnightblue" d="M467.73,-112.08C462.36,-104.46 454.48,-93.26 447.92,-83.94"/>
<polygon fill="midnightblue" stroke="midnightblue" points="450.78,-81.91 442.16,-75.75 445.05,-85.94 450.78,-81.91"/>
</g>
<!-- Node15 -->
<g id="node15" class="node">
<title>Node15</title>
<g id="a_node15"><a xlink:title=" ">
<polygon fill="none" stroke="#bfbfbf" points="486,-56.5 486,-75.5 538,-75.5 538,-56.5 486,-56.5"/>
<text text-anchor="middle" x="512" y="-63.5" font-family="Helvetica,sans-Serif" font-size="10.00">cassert</text>
</a>
</g>
</g>
<!-- Node13&#45;&gt;Node15 -->
<g id="edge16" class="edge">
<title>Node13&#45;&gt;Node15</title>
<path fill="none" stroke="midnightblue" d="M480.27,-112.08C485.64,-104.46 493.52,-93.26 500.08,-83.94"/>
<polygon fill="midnightblue" stroke="midnightblue" points="502.95,-85.94 505.84,-75.75 497.22,-81.91 502.95,-85.94"/>
</g>
<!-- Node16 -->
<g id="node16" class="node">
<title>Node16</title>
<g id="a_node16"><a xlink:title=" ">
<polygon fill="none" stroke="#bfbfbf" points="556,-56.5 556,-75.5 612,-75.5 612,-56.5 556,-56.5"/>
<text text-anchor="middle" x="584" y="-63.5" font-family="Helvetica,sans-Serif" font-size="10.00">optional</text>
</a>
</g>
</g>
<!-- Node13&#45;&gt;Node16 -->
<g id="edge18" class="edge">
<title>Node13&#45;&gt;Node16</title>
<path fill="none" stroke="midnightblue" d="M491.67,-112.32C509.39,-103.62 536.9,-90.12 557.29,-80.11"/>
<polygon fill="midnightblue" stroke="midnightblue" points="558.94,-83.2 566.37,-75.65 555.85,-76.92 558.94,-83.2"/>
</g>
<!-- Node17 -->
<g id="node17" class="node">
<title>Node17</title>
<g id="a_node17"><a xlink:title=" ">
<polygon fill="none" stroke="#bfbfbf" points="668.5,-56.5 668.5,-75.5 713.5,-75.5 713.5,-56.5 668.5,-56.5"/>
<text text-anchor="middle" x="691" y="-63.5" font-family="Helvetica,sans-Serif" font-size="10.00">utility</text>
</a>
</g>
</g>
<!-- Node13&#45;&gt;Node17 -->
<g id="edge19" class="edge">
<title>Node13&#45;&gt;Node17</title>
<path fill="none" stroke="midnightblue" d="M508.38,-112.44C549.61,-102.18 618.18,-85.12 658.54,-75.08"/>
<polygon fill="midnightblue" stroke="midnightblue" points="659.54,-78.44 668.4,-72.62 657.85,-71.64 659.54,-78.44"/>
</g>
<!-- Node18 -->
<g id="node18" class="node">
<title>Node18</title>
<g id="a_node18"><a xlink:href="msl_2bits_8h.html" target="_top" xlink:title=" ">
<polygon fill="none" stroke="black" points="320.5,-56.5 320.5,-75.5 385.5,-75.5 385.5,-56.5 320.5,-56.5"/>
<text text-anchor="middle" x="353" y="-63.5" font-family="Helvetica,sans-Serif" font-size="10.00">msl/bits.h</text>
</a>
</g>
</g>
<!-- Node13&#45;&gt;Node18 -->
<g id="edge21" class="edge">
<title>Node13&#45;&gt;Node18</title>
<path fill="none" stroke="midnightblue" d="M454.83,-112.44C435.09,-103.64 404.11,-89.81 381.51,-79.72"/>
<polygon fill="midnightblue" stroke="midnightblue" points="382.64,-76.4 372.08,-75.52 379.79,-82.79 382.64,-76.4"/>
</g>
<!-- Node18&#45;&gt;Node6 -->
<g id="edge22" class="edge">
<title>Node18&#45;&gt;Node6</title>
<path fill="none" stroke="midnightblue" d="M385.54,-57.93C388.73,-57.26 391.93,-56.61 395,-56 469.53,-41.17 557.17,-25.5 604.81,-17.13"/>
<polygon fill="midnightblue" stroke="midnightblue" points="605.67,-20.53 614.91,-15.36 604.46,-13.64 605.67,-20.53"/>
</g>
<!-- Node18&#45;&gt;Node8 -->
<g id="edge23" class="edge">
<title>Node18&#45;&gt;Node8</title>
<path fill="none" stroke="midnightblue" d="M342.88,-56.32C333.47,-48.26 319.26,-36.08 307.93,-26.37"/>
<polygon fill="midnightblue" stroke="midnightblue" points="310.18,-23.68 300.31,-19.83 305.62,-29 310.18,-23.68"/>
</g>
</g>
</svg>
