<?xml version="1.0" encoding="UTF-8" standalone="no"?>
<!DOCTYPE svg PUBLIC "-//W3C//DTD SVG 1.1//EN"
 "http://www.w3.org/Graphics/SVG/1.1/DTD/svg11.dtd">
<!-- Generated by graphviz version 2.43.0 (0)
 -->
<!-- Title: src/ptw.cc Pages: 1 -->
<svg width="1646pt" height="308pt"
 viewBox="0.00 0.00 1645.50 308.00" xmlns="http://www.w3.org/2000/svg" xmlns:xlink="http://www.w3.org/1999/xlink">
<g id="graph0" class="graph" transform="scale(1 1) rotate(0) translate(4 304)">
<title>src/ptw.cc</title>
<!-- Node1 -->
<g id="node1" class="node">
<title>Node1</title>
<g id="a_node1"><a xlink:title=" ">
<polygon fill="#bfbfbf" stroke="black" points="1208.5,-280.5 1208.5,-299.5 1273.5,-299.5 1273.5,-280.5 1208.5,-280.5"/>
<text text-anchor="middle" x="1241" y="-287.5" font-family="Helvetica,sans-Serif" font-size="10.00">src/ptw.cc</text>
</a>
</g>
</g>
<!-- Node2 -->
<g id="node2" class="node">
<title>Node2</title>
<g id="a_node2"><a xlink:href="ptw_8h.html" target="_top" xlink:title=" ">
<polygon fill="none" stroke="black" points="638.5,-224.5 638.5,-243.5 681.5,-243.5 681.5,-224.5 638.5,-224.5"/>
<text text-anchor="middle" x="660" y="-231.5" font-family="Helvetica,sans-Serif" font-size="10.00">ptw.h</text>
</a>
</g>
</g>
<!-- Node1&#45;&gt;Node2 -->
<g id="edge1" class="edge">
<title>Node1&#45;&gt;Node2</title>
<path fill="none" stroke="midnightblue" d="M1208.1,-285.94C1105.61,-276.42 792.93,-247.35 691.87,-237.96"/>
<polygon fill="midnightblue" stroke="midnightblue" points="691.97,-234.46 681.68,-237.02 691.32,-241.43 691.97,-234.46"/>
</g>
<!-- Node20 -->
<g id="node20" class="node">
<title>Node20</title>
<g id="a_node20"><a xlink:title=" ">
<polygon fill="none" stroke="#bfbfbf" points="1509,-224.5 1509,-243.5 1565,-243.5 1565,-224.5 1509,-224.5"/>
<text text-anchor="middle" x="1537" y="-231.5" font-family="Helvetica,sans-Serif" font-size="10.00">numeric</text>
</a>
</g>
</g>
<!-- Node1&#45;&gt;Node20 -->
<g id="edge25" class="edge">
<title>Node1&#45;&gt;Node20</title>
<path fill="none" stroke="midnightblue" d="M1273.55,-283.62C1321.93,-275.53 1415.67,-259.52 1495,-244 1496.23,-243.76 1497.49,-243.51 1498.76,-243.26"/>
<polygon fill="midnightblue" stroke="midnightblue" points="1499.47,-246.68 1508.56,-241.24 1498.06,-239.82 1499.47,-246.68"/>
</g>
<!-- Node21 -->
<g id="node21" class="node">
<title>Node21</title>
<g id="a_node21"><a xlink:href="champsim_8h.html" target="_top" xlink:title=" ">
<polygon fill="none" stroke="black" points="1286.5,-224.5 1286.5,-243.5 1363.5,-243.5 1363.5,-224.5 1286.5,-224.5"/>
<text text-anchor="middle" x="1325" y="-231.5" font-family="Helvetica,sans-Serif" font-size="10.00">champsim.h</text>
</a>
</g>
</g>
<!-- Node1&#45;&gt;Node21 -->
<g id="edge26" class="edge">
<title>Node1&#45;&gt;Node21</title>
<path fill="none" stroke="midnightblue" d="M1254.5,-280.32C1267.6,-271.9 1287.71,-258.97 1303.11,-249.07"/>
<polygon fill="midnightblue" stroke="midnightblue" points="1305.02,-252.01 1311.54,-243.65 1301.23,-246.12 1305.02,-252.01"/>
</g>
<!-- Node23 -->
<g id="node23" class="node">
<title>Node23</title>
<g id="a_node23"><a xlink:title=" ">
<polygon fill="none" stroke="#bfbfbf" points="1508.5,-168.5 1508.5,-187.5 1637.5,-187.5 1637.5,-168.5 1508.5,-168.5"/>
<text text-anchor="middle" x="1573" y="-175.5" font-family="Helvetica,sans-Serif" font-size="10.00">champsim_constants.h</text>
</a>
</g>
</g>
<!-- Node1&#45;&gt;Node23 -->
<g id="edge29" class="edge">
<title>Node1&#45;&gt;Node23</title>
<path fill="none" stroke="midnightblue" d="M1273.78,-285.73C1317.77,-280.59 1397.82,-268.55 1462,-244 1471.18,-240.49 1520.18,-211.1 1549.92,-193.06"/>
<polygon fill="midnightblue" stroke="midnightblue" points="1552.1,-195.83 1558.83,-187.65 1548.46,-189.85 1552.1,-195.83"/>
</g>
<!-- Node24 -->
<g id="node24" class="node">
<title>Node24</title>
<g id="a_node24"><a xlink:href="deadlock_8h.html" target="_top" xlink:title=" ">
<polygon fill="none" stroke="black" points="1076,-224.5 1076,-243.5 1146,-243.5 1146,-224.5 1076,-224.5"/>
<text text-anchor="middle" x="1111" y="-231.5" font-family="Helvetica,sans-Serif" font-size="10.00">deadlock.h</text>
</a>
</g>
</g>
<!-- Node1&#45;&gt;Node24 -->
<g id="edge30" class="edge">
<title>Node1&#45;&gt;Node24</title>
<path fill="none" stroke="midnightblue" d="M1220.4,-280.44C1199.01,-271.56 1165.32,-257.56 1140.98,-247.45"/>
<polygon fill="midnightblue" stroke="midnightblue" points="1142.08,-244.12 1131.5,-243.52 1139.39,-250.58 1142.08,-244.12"/>
</g>
<!-- Node26 -->
<g id="node26" class="node">
<title>Node26</title>
<g id="a_node26"><a xlink:title=" ">
<polygon fill="none" stroke="#bfbfbf" points="1207.5,-168.5 1207.5,-187.5 1274.5,-187.5 1274.5,-168.5 1207.5,-168.5"/>
<text text-anchor="middle" x="1241" y="-175.5" font-family="Helvetica,sans-Serif" font-size="10.00">fmt/core.h</text>
</a>
</g>
</g>
<!-- Node1&#45;&gt;Node26 -->
<g id="edge56" class="edge">
<title>Node1&#45;&gt;Node26</title>
<path fill="none" stroke="midnightblue" d="M1241,-280.37C1241,-262.62 1241,-221.67 1241,-197.6"/>
<polygon fill="midnightblue" stroke="midnightblue" points="1244.5,-197.59 1241,-187.59 1237.5,-197.59 1244.5,-197.59"/>
</g>
<!-- Node29 -->
<g id="node29" class="node">
<title>Node29</title>
<g id="a_node29"><a xlink:href="instruction_8h.html" target="_top" xlink:title=" ">
<polygon fill="none" stroke="black" points="225.5,-112.5 225.5,-131.5 302.5,-131.5 302.5,-112.5 225.5,-112.5"/>
<text text-anchor="middle" x="264" y="-119.5" font-family="Helvetica,sans-Serif" font-size="10.00">instruction.h</text>
</a>
</g>
</g>
<!-- Node1&#45;&gt;Node29 -->
<g id="edge38" class="edge">
<title>Node1&#45;&gt;Node29</title>
<path fill="none" stroke="midnightblue" d="M1208.44,-289.41C1116.45,-289.97 847.1,-287.47 629,-244 500.62,-218.41 354.77,-161.03 293.53,-135.58"/>
<polygon fill="midnightblue" stroke="midnightblue" points="294.68,-132.26 284.1,-131.63 291.98,-138.72 294.68,-132.26"/>
</g>
<!-- Node31 -->
<g id="node31" class="node">
<title>Node31</title>
<g id="a_node31"><a xlink:href="span_8h.html" target="_top" xlink:title=" ">
<polygon fill="none" stroke="black" points="851,-112.5 851,-131.5 919,-131.5 919,-112.5 851,-112.5"/>
<text text-anchor="middle" x="885" y="-119.5" font-family="Helvetica,sans-Serif" font-size="10.00">util/span.h</text>
</a>
</g>
</g>
<!-- Node1&#45;&gt;Node31 -->
<g id="edge47" class="edge">
<title>Node1&#45;&gt;Node31</title>
<path fill="none" stroke="midnightblue" d="M1208.34,-285.32C1148.69,-277.17 1020.51,-252.88 936,-188 918.99,-174.94 904.45,-154.97 895.3,-140.61"/>
<polygon fill="midnightblue" stroke="midnightblue" points="898.07,-138.42 889.87,-131.72 892.1,-142.08 898.07,-138.42"/>
</g>
<!-- Node33 -->
<g id="node33" class="node">
<title>Node33</title>
<g id="a_node33"><a xlink:href="vmem_8h.html" target="_top" xlink:title=" ">
<polygon fill="none" stroke="black" points="1395.5,-224.5 1395.5,-243.5 1452.5,-243.5 1452.5,-224.5 1395.5,-224.5"/>
<text text-anchor="middle" x="1424" y="-231.5" font-family="Helvetica,sans-Serif" font-size="10.00">vmem.h</text>
</a>
</g>
</g>
<!-- Node1&#45;&gt;Node33 -->
<g id="edge52" class="edge">
<title>Node1&#45;&gt;Node33</title>
<path fill="none" stroke="midnightblue" d="M1270,-280.44C1301.28,-271.21 1351.22,-256.48 1385.71,-246.3"/>
<polygon fill="midnightblue" stroke="midnightblue" points="1386.84,-249.61 1395.44,-243.43 1384.86,-242.9 1386.84,-249.61"/>
</g>
<!-- Node3 -->
<g id="node3" class="node">
<title>Node3</title>
<g id="a_node3"><a xlink:title=" ">
<polygon fill="none" stroke="#bfbfbf" points="0,-56.5 0,-75.5 42,-75.5 42,-56.5 0,-56.5"/>
<text text-anchor="middle" x="21" y="-63.5" font-family="Helvetica,sans-Serif" font-size="10.00">array</text>
</a>
</g>
</g>
<!-- Node2&#45;&gt;Node3 -->
<g id="edge2" class="edge">
<title>Node2&#45;&gt;Node3</title>
<path fill="none" stroke="midnightblue" d="M638.1,-228.81C573.16,-216.22 376.26,-176.82 216,-132 157.16,-115.54 89.81,-92.03 51.65,-78.25"/>
<polygon fill="midnightblue" stroke="midnightblue" points="52.74,-74.93 42.14,-74.81 50.35,-81.51 52.74,-74.93"/>
</g>
<!-- Node4 -->
<g id="node4" class="node">
<title>Node4</title>
<g id="a_node4"><a xlink:title=" ">
<polygon fill="none" stroke="#bfbfbf" points="579.5,-56.5 579.5,-75.5 626.5,-75.5 626.5,-56.5 579.5,-56.5"/>
<text text-anchor="middle" x="603" y="-63.5" font-family="Helvetica,sans-Serif" font-size="10.00">deque</text>
</a>
</g>
</g>
<!-- Node2&#45;&gt;Node4 -->
<g id="edge3" class="edge">
<title>Node2&#45;&gt;Node4</title>
<path fill="none" stroke="midnightblue" d="M648.33,-224.44C638.2,-216.29 624.07,-203.06 617,-188 601.33,-154.62 600.51,-110.57 601.58,-85.88"/>
<polygon fill="midnightblue" stroke="midnightblue" points="605.09,-85.91 602.18,-75.72 598.1,-85.49 605.09,-85.91"/>
</g>
<!-- Node5 -->
<g id="node5" class="node">
<title>Node5</title>
<g id="a_node5"><a xlink:title=" ">
<polygon fill="none" stroke="#bfbfbf" points="818,-168.5 818,-187.5 862,-187.5 862,-168.5 818,-168.5"/>
<text text-anchor="middle" x="840" y="-175.5" font-family="Helvetica,sans-Serif" font-size="10.00">string</text>
</a>
</g>
</g>
<!-- Node2&#45;&gt;Node5 -->
<g id="edge4" class="edge">
<title>Node2&#45;&gt;Node5</title>
<path fill="none" stroke="midnightblue" d="M681.71,-226.49C713.25,-217.02 771.93,-199.42 808.3,-188.51"/>
<polygon fill="midnightblue" stroke="midnightblue" points="809.36,-191.85 817.93,-185.62 807.35,-185.14 809.36,-191.85"/>
</g>
<!-- Node6 -->
<g id="node6" class="node">
<title>Node6</title>
<g id="a_node6"><a xlink:href="channel_8h.html" target="_top" xlink:title=" ">
<polygon fill="none" stroke="black" points="424,-112.5 424,-131.5 488,-131.5 488,-112.5 424,-112.5"/>
<text text-anchor="middle" x="456" y="-119.5" font-family="Helvetica,sans-Serif" font-size="10.00">channel.h</text>
</a>
</g>
</g>
<!-- Node2&#45;&gt;Node6 -->
<g id="edge5" class="edge">
<title>Node2&#45;&gt;Node6</title>
<path fill="none" stroke="midnightblue" d="M643.99,-224.37C608.54,-205.25 523.19,-159.23 480.78,-136.36"/>
<polygon fill="midnightblue" stroke="midnightblue" points="482.4,-133.26 471.93,-131.59 479.07,-139.42 482.4,-133.26"/>
</g>
<!-- Node12 -->
<g id="node12" class="node">
<title>Node12</title>
<g id="a_node12"><a xlink:href="operable_8h.html" target="_top" xlink:title=" ">
<polygon fill="none" stroke="black" points="626,-168.5 626,-187.5 694,-187.5 694,-168.5 626,-168.5"/>
<text text-anchor="middle" x="660" y="-175.5" font-family="Helvetica,sans-Serif" font-size="10.00">operable.h</text>
</a>
</g>
</g>
<!-- Node2&#45;&gt;Node12 -->
<g id="edge13" class="edge">
<title>Node2&#45;&gt;Node12</title>
<path fill="none" stroke="midnightblue" d="M660,-224.08C660,-217.01 660,-206.86 660,-197.99"/>
<polygon fill="midnightblue" stroke="midnightblue" points="663.5,-197.75 660,-187.75 656.5,-197.75 663.5,-197.75"/>
</g>
<!-- Node13 -->
<g id="node13" class="node">
<title>Node13</title>
<g id="a_node13"><a xlink:href="util_2lru__table_8h.html" target="_top" xlink:title=" ">
<polygon fill="none" stroke="black" points="712.5,-168.5 712.5,-187.5 799.5,-187.5 799.5,-168.5 712.5,-168.5"/>
<text text-anchor="middle" x="756" y="-175.5" font-family="Helvetica,sans-Serif" font-size="10.00">util/lru_table.h</text>
</a>
</g>
</g>
<!-- Node2&#45;&gt;Node13 -->
<g id="edge14" class="edge">
<title>Node2&#45;&gt;Node13</title>
<path fill="none" stroke="midnightblue" d="M675.42,-224.32C690.54,-215.82 713.82,-202.73 731.47,-192.8"/>
<polygon fill="midnightblue" stroke="midnightblue" points="733.61,-195.61 740.61,-187.65 730.18,-189.51 733.61,-195.61"/>
</g>
<!-- Node6&#45;&gt;Node3 -->
<g id="edge6" class="edge">
<title>Node6&#45;&gt;Node3</title>
<path fill="none" stroke="midnightblue" d="M423.59,-117.13C359.6,-109.47 212.53,-91.75 89,-76 76.97,-74.47 63.75,-72.73 52.19,-71.19"/>
<polygon fill="midnightblue" stroke="midnightblue" points="52.5,-67.7 42.13,-69.85 51.58,-74.64 52.5,-67.7"/>
</g>
<!-- Node6&#45;&gt;Node4 -->
<g id="edge8" class="edge">
<title>Node6&#45;&gt;Node4</title>
<path fill="none" stroke="midnightblue" d="M479.29,-112.44C503.81,-103.44 542.6,-89.19 570.2,-79.05"/>
<polygon fill="midnightblue" stroke="midnightblue" points="571.64,-82.25 579.82,-75.52 569.22,-75.68 571.64,-82.25"/>
</g>
<!-- Node7 -->
<g id="node7" class="node">
<title>Node7</title>
<g id="a_node7"><a xlink:title=" ">
<polygon fill="none" stroke="#bfbfbf" points="755,-0.5 755,-19.5 805,-19.5 805,-0.5 755,-0.5"/>
<text text-anchor="middle" x="780" y="-7.5" font-family="Helvetica,sans-Serif" font-size="10.00">cstdint</text>
</a>
</g>
</g>
<!-- Node6&#45;&gt;Node7 -->
<g id="edge7" class="edge">
<title>Node6&#45;&gt;Node7</title>
<path fill="none" stroke="midnightblue" d="M470.57,-112.36C498.91,-95.6 559.62,-59.96 570,-56 629.09,-33.45 702.07,-21.02 744.59,-15.21"/>
<polygon fill="midnightblue" stroke="midnightblue" points="745.26,-18.65 754.72,-13.87 744.35,-11.71 745.26,-18.65"/>
</g>
<!-- Node8 -->
<g id="node8" class="node">
<title>Node8</title>
<g id="a_node8"><a xlink:title=" ">
<polygon fill="none" stroke="#bfbfbf" points="262.5,-56.5 262.5,-75.5 327.5,-75.5 327.5,-56.5 262.5,-56.5"/>
<text text-anchor="middle" x="295" y="-63.5" font-family="Helvetica,sans-Serif" font-size="10.00">functional</text>
</a>
</g>
</g>
<!-- Node6&#45;&gt;Node8 -->
<g id="edge9" class="edge">
<title>Node6&#45;&gt;Node8</title>
<path fill="none" stroke="midnightblue" d="M430.49,-112.44C403.4,-103.36 360.41,-88.94 330.13,-78.78"/>
<polygon fill="midnightblue" stroke="midnightblue" points="330.99,-75.38 320.39,-75.52 328.76,-82.01 330.99,-75.38"/>
</g>
<!-- Node9 -->
<g id="node9" class="node">
<title>Node9</title>
<g id="a_node9"><a xlink:title=" ">
<polygon fill="none" stroke="#bfbfbf" points="334,-0.5 334,-19.5 378,-19.5 378,-0.5 334,-0.5"/>
<text text-anchor="middle" x="356" y="-7.5" font-family="Helvetica,sans-Serif" font-size="10.00">limits</text>
</a>
</g>
</g>
<!-- Node6&#45;&gt;Node9 -->
<g id="edge10" class="edge">
<title>Node6&#45;&gt;Node9</title>
<path fill="none" stroke="midnightblue" d="M429.84,-112.49C411.96,-105.4 389.06,-93.6 375,-76 364.35,-62.66 359.67,-43.55 357.61,-29.5"/>
<polygon fill="midnightblue" stroke="midnightblue" points="361.08,-29.06 356.46,-19.52 354.13,-29.86 361.08,-29.06"/>
</g>
<!-- Node10 -->
<g id="node10" class="node">
<title>Node10</title>
<g id="a_node10"><a xlink:title=" ">
<polygon fill="none" stroke="#bfbfbf" points="475.5,-56.5 475.5,-75.5 522.5,-75.5 522.5,-56.5 475.5,-56.5"/>
<text text-anchor="middle" x="499" y="-63.5" font-family="Helvetica,sans-Serif" font-size="10.00">vector</text>
</a>
</g>
</g>
<!-- Node6&#45;&gt;Node10 -->
<g id="edge11" class="edge">
<title>Node6&#45;&gt;Node10</title>
<path fill="none" stroke="midnightblue" d="M463.1,-112.08C469.24,-104.38 478.27,-93.03 485.74,-83.65"/>
<polygon fill="midnightblue" stroke="midnightblue" points="488.54,-85.75 492.03,-75.75 483.06,-81.39 488.54,-85.75"/>
</g>
<!-- Node11 -->
<g id="node11" class="node">
<title>Node11</title>
<g id="a_node11"><a xlink:title=" ">
<polygon fill="none" stroke="#bfbfbf" points="384.5,-56.5 384.5,-75.5 457.5,-75.5 457.5,-56.5 384.5,-56.5"/>
<text text-anchor="middle" x="421" y="-63.5" font-family="Helvetica,sans-Serif" font-size="10.00">string_view</text>
</a>
</g>
</g>
<!-- Node6&#45;&gt;Node11 -->
<g id="edge12" class="edge">
<title>Node6&#45;&gt;Node11</title>
<path fill="none" stroke="midnightblue" d="M450.22,-112.08C445.33,-104.53 438.17,-93.49 432.17,-84.23"/>
<polygon fill="midnightblue" stroke="midnightblue" points="435.05,-82.24 426.67,-75.75 429.17,-86.05 435.05,-82.24"/>
</g>
<!-- Node14 -->
<g id="node14" class="node">
<title>Node14</title>
<g id="a_node14"><a xlink:href="msl_2lru__table_8h.html" target="_top" xlink:title=" ">
<polygon fill="none" stroke="black" points="725.5,-112.5 725.5,-131.5 814.5,-131.5 814.5,-112.5 725.5,-112.5"/>
<text text-anchor="middle" x="770" y="-119.5" font-family="Helvetica,sans-Serif" font-size="10.00">msl/lru_table.h</text>
</a>
</g>
</g>
<!-- Node13&#45;&gt;Node14 -->
<g id="edge15" class="edge">
<title>Node13&#45;&gt;Node14</title>
<path fill="none" stroke="midnightblue" d="M758.31,-168.08C760.17,-160.93 762.84,-150.64 765.15,-141.69"/>
<polygon fill="midnightblue" stroke="midnightblue" points="768.61,-142.31 767.73,-131.75 761.83,-140.55 768.61,-142.31"/>
</g>
<!-- Node14&#45;&gt;Node7 -->
<g id="edge18" class="edge">
<title>Node14&#45;&gt;Node7</title>
<path fill="none" stroke="midnightblue" d="M811.05,-112.38C830.96,-105.92 853.09,-94.81 865,-76 880.66,-51.25 844.79,-32.33 814.92,-21.45"/>
<polygon fill="midnightblue" stroke="midnightblue" points="815.7,-18.01 805.1,-18.07 813.42,-24.63 815.7,-18.01"/>
</g>
<!-- Node14&#45;&gt;Node10 -->
<g id="edge21" class="edge">
<title>Node14&#45;&gt;Node10</title>
<path fill="none" stroke="midnightblue" d="M727.06,-112.44C673.14,-101.7 581.75,-83.49 532.63,-73.7"/>
<polygon fill="midnightblue" stroke="midnightblue" points="533.31,-70.27 522.81,-71.75 531.94,-77.13 533.31,-70.27"/>
</g>
<!-- Node15 -->
<g id="node15" class="node">
<title>Node15</title>
<g id="a_node15"><a xlink:title=" ">
<polygon fill="none" stroke="#bfbfbf" points="728,-56.5 728,-75.5 792,-75.5 792,-56.5 728,-56.5"/>
<text text-anchor="middle" x="760" y="-63.5" font-family="Helvetica,sans-Serif" font-size="10.00">algorithm</text>
</a>
</g>
</g>
<!-- Node14&#45;&gt;Node15 -->
<g id="edge16" class="edge">
<title>Node14&#45;&gt;Node15</title>
<path fill="none" stroke="midnightblue" d="M768.35,-112.08C767.02,-104.93 765.12,-94.64 763.46,-85.69"/>
<polygon fill="midnightblue" stroke="midnightblue" points="766.88,-84.95 761.62,-75.75 760,-86.22 766.88,-84.95"/>
</g>
<!-- Node16 -->
<g id="node16" class="node">
<title>Node16</title>
<g id="a_node16"><a xlink:title=" ">
<polygon fill="none" stroke="#bfbfbf" points="912,-56.5 912,-75.5 964,-75.5 964,-56.5 912,-56.5"/>
<text text-anchor="middle" x="938" y="-63.5" font-family="Helvetica,sans-Serif" font-size="10.00">cassert</text>
</a>
</g>
</g>
<!-- Node14&#45;&gt;Node16 -->
<g id="edge17" class="edge">
<title>Node14&#45;&gt;Node16</title>
<path fill="none" stroke="midnightblue" d="M796.62,-112.44C825.09,-103.29 870.4,-88.73 902.03,-78.56"/>
<polygon fill="midnightblue" stroke="midnightblue" points="903.33,-81.82 911.78,-75.43 901.19,-75.16 903.33,-81.82"/>
</g>
<!-- Node17 -->
<g id="node17" class="node">
<title>Node17</title>
<g id="a_node17"><a xlink:title=" ">
<polygon fill="none" stroke="#bfbfbf" points="1020,-56.5 1020,-75.5 1076,-75.5 1076,-56.5 1020,-56.5"/>
<text text-anchor="middle" x="1048" y="-63.5" font-family="Helvetica,sans-Serif" font-size="10.00">optional</text>
</a>
</g>
</g>
<!-- Node14&#45;&gt;Node17 -->
<g id="edge19" class="edge">
<title>Node14&#45;&gt;Node17</title>
<path fill="none" stroke="midnightblue" d="M814.05,-112.44C868.05,-101.95 958.67,-84.35 1009.83,-74.41"/>
<polygon fill="midnightblue" stroke="midnightblue" points="1010.67,-77.82 1019.82,-72.47 1009.34,-70.94 1010.67,-77.82"/>
</g>
<!-- Node18 -->
<g id="node18" class="node">
<title>Node18</title>
<g id="a_node18"><a xlink:title=" ">
<polygon fill="none" stroke="#bfbfbf" points="810.5,-56.5 810.5,-75.5 855.5,-75.5 855.5,-56.5 810.5,-56.5"/>
<text text-anchor="middle" x="833" y="-63.5" font-family="Helvetica,sans-Serif" font-size="10.00">utility</text>
</a>
</g>
</g>
<!-- Node14&#45;&gt;Node18 -->
<g id="edge20" class="edge">
<title>Node14&#45;&gt;Node18</title>
<path fill="none" stroke="midnightblue" d="M780.12,-112.32C789.53,-104.26 803.74,-92.08 815.07,-82.37"/>
<polygon fill="midnightblue" stroke="midnightblue" points="817.38,-85 822.69,-75.83 812.82,-79.68 817.38,-85"/>
</g>
<!-- Node19 -->
<g id="node19" class="node">
<title>Node19</title>
<g id="a_node19"><a xlink:href="msl_2bits_8h.html" target="_top" xlink:title=" ">
<polygon fill="none" stroke="black" points="644.5,-56.5 644.5,-75.5 709.5,-75.5 709.5,-56.5 644.5,-56.5"/>
<text text-anchor="middle" x="677" y="-63.5" font-family="Helvetica,sans-Serif" font-size="10.00">msl/bits.h</text>
</a>
</g>
</g>
<!-- Node14&#45;&gt;Node19 -->
<g id="edge22" class="edge">
<title>Node14&#45;&gt;Node19</title>
<path fill="none" stroke="midnightblue" d="M755.06,-112.32C740.41,-103.82 717.87,-90.73 700.76,-80.8"/>
<polygon fill="midnightblue" stroke="midnightblue" points="702.31,-77.65 691.9,-75.65 698.8,-83.7 702.31,-77.65"/>
</g>
<!-- Node19&#45;&gt;Node7 -->
<g id="edge23" class="edge">
<title>Node19&#45;&gt;Node7</title>
<path fill="none" stroke="midnightblue" d="M693.55,-56.32C709.99,-47.7 735.43,-34.36 754.47,-24.39"/>
<polygon fill="midnightblue" stroke="midnightblue" points="756.26,-27.4 763.49,-19.65 753.01,-21.2 756.26,-27.4"/>
</g>
<!-- Node19&#45;&gt;Node9 -->
<g id="edge24" class="edge">
<title>Node19&#45;&gt;Node9</title>
<path fill="none" stroke="midnightblue" d="M644.47,-57.86C641.28,-57.21 638.08,-56.58 635,-56 545.9,-39.28 440.08,-23.25 388.09,-15.63"/>
<polygon fill="midnightblue" stroke="midnightblue" points="388.53,-12.16 378.13,-14.18 387.52,-19.08 388.53,-12.16"/>
</g>
<!-- Node21&#45;&gt;Node7 -->
<g id="edge27" class="edge">
<title>Node21&#45;&gt;Node7</title>
<path fill="none" stroke="midnightblue" d="M1337.47,-224.49C1353.91,-212.18 1379.37,-188.62 1367,-168 1312.58,-77.3 1257.92,-87.7 1157,-56 1035.82,-17.93 883.47,-11.68 815.53,-10.91"/>
<polygon fill="midnightblue" stroke="midnightblue" points="815.4,-7.41 805.37,-10.83 815.34,-14.41 815.4,-7.41"/>
</g>
<!-- Node22 -->
<g id="node22" class="node">
<title>Node22</title>
<g id="a_node22"><a xlink:title=" ">
<polygon fill="none" stroke="#bfbfbf" points="1292.5,-168.5 1292.5,-187.5 1357.5,-187.5 1357.5,-168.5 1292.5,-168.5"/>
<text text-anchor="middle" x="1325" y="-175.5" font-family="Helvetica,sans-Serif" font-size="10.00">exception</text>
</a>
</g>
</g>
<!-- Node21&#45;&gt;Node22 -->
<g id="edge28" class="edge">
<title>Node21&#45;&gt;Node22</title>
<path fill="none" stroke="midnightblue" d="M1325,-224.08C1325,-217.01 1325,-206.86 1325,-197.99"/>
<polygon fill="midnightblue" stroke="midnightblue" points="1328.5,-197.75 1325,-187.75 1321.5,-197.75 1328.5,-197.75"/>
</g>
<!-- Node24&#45;&gt;Node5 -->
<g id="edge32" class="edge">
<title>Node24&#45;&gt;Node5</title>
<path fill="none" stroke="midnightblue" d="M1075.85,-226C1022.79,-215.42 923.03,-195.55 871.94,-185.36"/>
<polygon fill="midnightblue" stroke="midnightblue" points="872.59,-181.93 862.1,-183.4 871.22,-188.79 872.59,-181.93"/>
</g>
<!-- Node24&#45;&gt;Node17 -->
<g id="edge31" class="edge">
<title>Node24&#45;&gt;Node17</title>
<path fill="none" stroke="midnightblue" d="M1075.93,-228.31C1032.81,-221.73 963.43,-208.26 948,-188 917.43,-147.85 983.39,-102.48 1022.24,-80.45"/>
<polygon fill="midnightblue" stroke="midnightblue" points="1023.94,-83.51 1031,-75.61 1020.55,-77.38 1023.94,-83.51"/>
</g>
<!-- Node25 -->
<g id="node25" class="node">
<title>Node25</title>
<g id="a_node25"><a xlink:title=" ">
<polygon fill="none" stroke="#bfbfbf" points="1062.5,-112.5 1062.5,-131.5 1131.5,-131.5 1131.5,-112.5 1062.5,-112.5"/>
<text text-anchor="middle" x="1097" y="-119.5" font-family="Helvetica,sans-Serif" font-size="10.00">type_traits</text>
</a>
</g>
</g>
<!-- Node24&#45;&gt;Node25 -->
<g id="edge33" class="edge">
<title>Node24&#45;&gt;Node25</title>
<path fill="none" stroke="midnightblue" d="M1125.7,-224.4C1143.95,-212.54 1171.38,-190.12 1160,-168 1152.92,-154.25 1139.48,-143.77 1126.82,-136.39"/>
<polygon fill="midnightblue" stroke="midnightblue" points="1128.31,-133.22 1117.85,-131.57 1125,-139.39 1128.31,-133.22"/>
</g>
<!-- Node24&#45;&gt;Node26 -->
<g id="edge34" class="edge">
<title>Node24&#45;&gt;Node26</title>
<path fill="none" stroke="midnightblue" d="M1131.6,-224.44C1152.99,-215.56 1186.68,-201.56 1211.02,-191.45"/>
<polygon fill="midnightblue" stroke="midnightblue" points="1212.61,-194.58 1220.5,-187.52 1209.92,-188.12 1212.61,-194.58"/>
</g>
<!-- Node27 -->
<g id="node27" class="node">
<title>Node27</title>
<g id="a_node27"><a xlink:title=" ">
<polygon fill="none" stroke="#bfbfbf" points="1071.5,-168.5 1071.5,-187.5 1150.5,-187.5 1150.5,-168.5 1071.5,-168.5"/>
<text text-anchor="middle" x="1111" y="-175.5" font-family="Helvetica,sans-Serif" font-size="10.00">fmt/ranges.h</text>
</a>
</g>
</g>
<!-- Node24&#45;&gt;Node27 -->
<g id="edge35" class="edge">
<title>Node24&#45;&gt;Node27</title>
<path fill="none" stroke="midnightblue" d="M1111,-224.08C1111,-217.01 1111,-206.86 1111,-197.99"/>
<polygon fill="midnightblue" stroke="midnightblue" points="1114.5,-197.75 1111,-187.75 1107.5,-197.75 1114.5,-197.75"/>
</g>
<!-- Node28 -->
<g id="node28" class="node">
<title>Node28</title>
<g id="a_node28"><a xlink:href="type__traits_8h.html" target="_top" xlink:title=" ">
<polygon fill="none" stroke="black" points="956.5,-168.5 956.5,-187.5 1053.5,-187.5 1053.5,-168.5 956.5,-168.5"/>
<text text-anchor="middle" x="1005" y="-175.5" font-family="Helvetica,sans-Serif" font-size="10.00">util/type_traits.h</text>
</a>
</g>
</g>
<!-- Node24&#45;&gt;Node28 -->
<g id="edge36" class="edge">
<title>Node24&#45;&gt;Node28</title>
<path fill="none" stroke="midnightblue" d="M1093.97,-224.32C1076.97,-215.66 1050.62,-202.24 1031.01,-192.25"/>
<polygon fill="midnightblue" stroke="midnightblue" points="1032.49,-189.08 1021.99,-187.65 1029.31,-195.31 1032.49,-189.08"/>
</g>
<!-- Node28&#45;&gt;Node25 -->
<g id="edge37" class="edge">
<title>Node28&#45;&gt;Node25</title>
<path fill="none" stroke="midnightblue" d="M1019.78,-168.32C1034.27,-159.82 1056.57,-146.73 1073.49,-136.8"/>
<polygon fill="midnightblue" stroke="midnightblue" points="1075.4,-139.74 1082.26,-131.65 1071.86,-133.7 1075.4,-139.74"/>
</g>
<!-- Node29&#45;&gt;Node3 -->
<g id="edge40" class="edge">
<title>Node29&#45;&gt;Node3</title>
<path fill="none" stroke="midnightblue" d="M225.18,-113.07C183.32,-104.41 114.78,-89.91 56,-76 54.73,-75.7 53.43,-75.39 52.13,-75.07"/>
<polygon fill="midnightblue" stroke="midnightblue" points="52.62,-71.58 42.07,-72.56 50.92,-78.38 52.62,-71.58"/>
</g>
<!-- Node29&#45;&gt;Node7 -->
<g id="edge41" class="edge">
<title>Node29&#45;&gt;Node7</title>
<path fill="none" stroke="midnightblue" d="M258.5,-112.15C250.67,-98.3 238.76,-71.51 253,-56 286.2,-19.84 631.69,-12.69 744.55,-11.32"/>
<polygon fill="midnightblue" stroke="midnightblue" points="744.77,-14.82 754.73,-11.2 744.69,-7.82 744.77,-14.82"/>
</g>
<!-- Node29&#45;&gt;Node8 -->
<g id="edge42" class="edge">
<title>Node29&#45;&gt;Node8</title>
<path fill="none" stroke="midnightblue" d="M269.12,-112.08C273.41,-104.61 279.66,-93.72 284.94,-84.52"/>
<polygon fill="midnightblue" stroke="midnightblue" points="288.03,-86.17 289.98,-75.75 281.96,-82.68 288.03,-86.17"/>
</g>
<!-- Node29&#45;&gt;Node9 -->
<g id="edge43" class="edge">
<title>Node29&#45;&gt;Node9</title>
<path fill="none" stroke="midnightblue" d="M225.19,-119.53C162.48,-115.77 49.66,-102.53 89,-56 118.7,-20.88 258.99,-13.16 323.46,-11.47"/>
<polygon fill="midnightblue" stroke="midnightblue" points="323.93,-14.96 333.85,-11.23 323.77,-7.96 323.93,-14.96"/>
</g>
<!-- Node29&#45;&gt;Node10 -->
<g id="edge44" class="edge">
<title>Node29&#45;&gt;Node10</title>
<path fill="none" stroke="midnightblue" d="M302.85,-112.91C341.55,-104.73 402.87,-91.43 465.23,-76.1"/>
<polygon fill="midnightblue" stroke="midnightblue" points="466.37,-79.42 475.24,-73.62 464.69,-72.63 466.37,-79.42"/>
</g>
<!-- Node29&#45;&gt;Node15 -->
<g id="edge39" class="edge">
<title>Node29&#45;&gt;Node15</title>
<path fill="none" stroke="midnightblue" d="M302.75,-118.63C381.39,-113.5 565.2,-99.87 718,-76 718.1,-75.98 718.2,-75.97 718.3,-75.95"/>
<polygon fill="midnightblue" stroke="midnightblue" points="718.72,-79.43 727.97,-74.25 717.51,-72.54 718.72,-79.43"/>
</g>
<!-- Node30 -->
<g id="node30" class="node">
<title>Node30</title>
<g id="a_node30"><a xlink:href="trace__instruction_8h.html" target="_top" xlink:title=" ">
<polygon fill="none" stroke="black" points="98.5,-56.5 98.5,-75.5 205.5,-75.5 205.5,-56.5 98.5,-56.5"/>
<text text-anchor="middle" x="152" y="-63.5" font-family="Helvetica,sans-Serif" font-size="10.00">trace_instruction.h</text>
</a>
</g>
</g>
<!-- Node29&#45;&gt;Node30 -->
<g id="edge45" class="edge">
<title>Node29&#45;&gt;Node30</title>
<path fill="none" stroke="midnightblue" d="M246.01,-112.32C227.96,-103.62 199.95,-90.12 179.2,-80.11"/>
<polygon fill="midnightblue" stroke="midnightblue" points="180.48,-76.84 169.95,-75.65 177.44,-83.15 180.48,-76.84"/>
</g>
<!-- Node30&#45;&gt;Node9 -->
<g id="edge46" class="edge">
<title>Node30&#45;&gt;Node9</title>
<path fill="none" stroke="midnightblue" d="M184.32,-56.44C222.53,-46.33 285.71,-29.61 323.84,-19.51"/>
<polygon fill="midnightblue" stroke="midnightblue" points="325.12,-22.8 333.89,-16.85 323.32,-16.03 325.12,-22.8"/>
</g>
<!-- Node31&#45;&gt;Node9 -->
<g id="edge51" class="edge">
<title>Node31&#45;&gt;Node9</title>
<path fill="none" stroke="midnightblue" d="M914.1,-112.42C947.6,-101.17 995.31,-80 973,-56 952.9,-34.38 512.31,-16.71 388.25,-12.15"/>
<polygon fill="midnightblue" stroke="midnightblue" points="388.34,-8.65 378.22,-11.78 388.09,-15.64 388.34,-8.65"/>
</g>
<!-- Node31&#45;&gt;Node15 -->
<g id="edge48" class="edge">
<title>Node31&#45;&gt;Node15</title>
<path fill="none" stroke="midnightblue" d="M865.19,-112.44C844.71,-103.6 812.52,-89.69 789.14,-79.59"/>
<polygon fill="midnightblue" stroke="midnightblue" points="790.28,-76.27 779.71,-75.52 787.51,-82.7 790.28,-76.27"/>
</g>
<!-- Node31&#45;&gt;Node16 -->
<g id="edge49" class="edge">
<title>Node31&#45;&gt;Node16</title>
<path fill="none" stroke="midnightblue" d="M893.75,-112.08C901.47,-104.22 912.9,-92.57 922.22,-83.08"/>
<polygon fill="midnightblue" stroke="midnightblue" points="924.9,-85.34 929.41,-75.75 919.91,-80.44 924.9,-85.34"/>
</g>
<!-- Node32 -->
<g id="node32" class="node">
<title>Node32</title>
<g id="a_node32"><a xlink:title=" ">
<polygon fill="none" stroke="#bfbfbf" points="1094.5,-56.5 1094.5,-75.5 1147.5,-75.5 1147.5,-56.5 1094.5,-56.5"/>
<text text-anchor="middle" x="1121" y="-63.5" font-family="Helvetica,sans-Serif" font-size="10.00">iterator</text>
</a>
</g>
</g>
<!-- Node31&#45;&gt;Node32 -->
<g id="edge50" class="edge">
<title>Node31&#45;&gt;Node32</title>
<path fill="none" stroke="midnightblue" d="M919.03,-113.6C956.93,-105.3 1020.26,-91.27 1084.4,-76.1"/>
<polygon fill="midnightblue" stroke="midnightblue" points="1085.36,-79.47 1094.28,-73.75 1083.74,-72.66 1085.36,-79.47"/>
</g>
<!-- Node33&#45;&gt;Node7 -->
<g id="edge53" class="edge">
<title>Node33&#45;&gt;Node7</title>
<path fill="none" stroke="midnightblue" d="M1420.51,-224.38C1411.26,-202.57 1384.06,-144.57 1344,-112 1293.28,-70.76 1271.37,-72.03 1208,-56 1065.43,-19.95 889.1,-12.73 815.19,-11.32"/>
<polygon fill="midnightblue" stroke="midnightblue" points="815.1,-7.82 805.04,-11.15 814.98,-14.82 815.1,-7.82"/>
</g>
<!-- Node33&#45;&gt;Node23 -->
<g id="edge55" class="edge">
<title>Node33&#45;&gt;Node23</title>
<path fill="none" stroke="midnightblue" d="M1447.61,-224.44C1472.46,-215.44 1511.77,-201.19 1539.75,-191.05"/>
<polygon fill="midnightblue" stroke="midnightblue" points="1541.29,-194.21 1549.5,-187.52 1538.91,-187.63 1541.29,-194.21"/>
</g>
<!-- Node34 -->
<g id="node34" class="node">
<title>Node34</title>
<g id="a_node34"><a xlink:title=" ">
<polygon fill="none" stroke="#bfbfbf" points="1452,-168.5 1452,-187.5 1490,-187.5 1490,-168.5 1452,-168.5"/>
<text text-anchor="middle" x="1471" y="-175.5" font-family="Helvetica,sans-Serif" font-size="10.00">map</text>
</a>
</g>
</g>
<!-- Node33&#45;&gt;Node34 -->
<g id="edge54" class="edge">
<title>Node33&#45;&gt;Node34</title>
<path fill="none" stroke="midnightblue" d="M1431.76,-224.08C1438.54,-216.3 1448.54,-204.8 1456.76,-195.37"/>
<polygon fill="midnightblue" stroke="midnightblue" points="1459.46,-197.59 1463.38,-187.75 1454.18,-193 1459.46,-197.59"/>
</g>
</g>
</svg>
