<?xml version="1.0" encoding="UTF-8" standalone="no"?>
<!DOCTYPE svg PUBLIC "-//W3C//DTD SVG 1.1//EN"
 "http://www.w3.org/Graphics/SVG/1.1/DTD/svg11.dtd">
<!-- Generated by graphviz version 2.43.0 (0)
 -->
<!-- Title: inc/ptw.h Pages: 1 -->
<svg width="5335pt" height="162pt"
 viewBox="0.00 0.00 5335.00 162.00" xmlns="http://www.w3.org/2000/svg" xmlns:xlink="http://www.w3.org/1999/xlink">
<g id="graph0" class="graph" transform="scale(1 1) rotate(0) translate(4 158)">
<title>inc/ptw.h</title>
<!-- Node1 -->
<g id="node1" class="node">
<title>Node1</title>
<g id="a_node1"><a xlink:title=" ">
<polygon fill="#bfbfbf" stroke="black" points="4956,-134.5 4956,-153.5 5016,-153.5 5016,-134.5 4956,-134.5"/>
<text text-anchor="middle" x="4986" y="-141.5" font-family="Helvetica,sans-Serif" font-size="10.00">inc/ptw.h</text>
</a>
</g>
</g>
<!-- Node2 -->
<g id="node2" class="node">
<title>Node2</title>
<g id="a_node2"><a xlink:href="defaults_8hpp.html" target="_top" xlink:title=" ">
<polygon fill="none" stroke="black" points="2705.5,-78.5 2705.5,-97.5 2800.5,-97.5 2800.5,-78.5 2705.5,-78.5"/>
<text text-anchor="middle" x="2753" y="-85.5" font-family="Helvetica,sans-Serif" font-size="10.00">inc/defaults.hpp</text>
</a>
</g>
</g>
<!-- Node1&#45;&gt;Node2 -->
<g id="edge1" class="edge">
<title>Node1&#45;&gt;Node2</title>
<path fill="none" stroke="midnightblue" d="M4945.43,-142.02C4671.64,-135.4 3095.67,-97.29 2800.59,-90.15"/>
<polygon fill="midnightblue" stroke="midnightblue" points="4945.62,-145.52 4955.7,-142.27 4945.79,-138.53 4945.62,-145.52"/>
</g>
<!-- Node34 -->
<g id="node34" class="node">
<title>Node34</title>
<g id="a_node34"><a xlink:href="600-ptw-path_8cc.html" target="_top" xlink:title=" ">
<polygon fill="none" stroke="black" points="4663,-6 4663,-36 4779,-36 4779,-6 4663,-6"/>
<text text-anchor="start" x="4671" y="-24" font-family="Helvetica,sans-Serif" font-size="10.00">test/cpp/src/600&#45;ptw</text>
<text text-anchor="middle" x="4721" y="-13" font-family="Helvetica,sans-Serif" font-size="10.00">&#45;path.cc</text>
</a>
</g>
</g>
<!-- Node1&#45;&gt;Node34 -->
<g id="edge41" class="edge">
<title>Node1&#45;&gt;Node34</title>
<path fill="none" stroke="midnightblue" d="M4958.14,-130.28C4908.22,-107.49 4803.9,-59.85 4751.88,-36.1"/>
<polygon fill="midnightblue" stroke="midnightblue" points="4956.82,-133.52 4967.37,-134.49 4959.72,-127.15 4956.82,-133.52"/>
</g>
<!-- Node35 -->
<g id="node35" class="node">
<title>Node35</title>
<g id="a_node35"><a xlink:href="601-multiple-inflight-walks_8cc.html" target="_top" xlink:title=" ">
<polygon fill="none" stroke="black" points="4797,-6 4797,-36 4935,-36 4935,-6 4797,-6"/>
<text text-anchor="start" x="4805" y="-24" font-family="Helvetica,sans-Serif" font-size="10.00">test/cpp/src/601&#45;multiple</text>
<text text-anchor="middle" x="4866" y="-13" font-family="Helvetica,sans-Serif" font-size="10.00">&#45;inflight&#45;walks.cc</text>
</a>
</g>
</g>
<!-- Node1&#45;&gt;Node35 -->
<g id="edge42" class="edge">
<title>Node1&#45;&gt;Node35</title>
<path fill="none" stroke="midnightblue" d="M4970.21,-127.07C4946.58,-103.25 4902.41,-58.71 4879.92,-36.04"/>
<polygon fill="midnightblue" stroke="midnightblue" points="4967.84,-129.66 4977.37,-134.3 4972.81,-124.73 4967.84,-129.66"/>
</g>
<!-- Node36 -->
<g id="node36" class="node">
<title>Node36</title>
<g id="a_node36"><a xlink:href="602-walk-latency_8cc.html" target="_top" xlink:title=" ">
<polygon fill="none" stroke="black" points="4953.5,-6 4953.5,-36 5074.5,-36 5074.5,-6 4953.5,-6"/>
<text text-anchor="start" x="4961.5" y="-24" font-family="Helvetica,sans-Serif" font-size="10.00">test/cpp/src/602&#45;walk</text>
<text text-anchor="middle" x="5014" y="-13" font-family="Helvetica,sans-Serif" font-size="10.00">&#45;latency.cc</text>
</a>
</g>
</g>
<!-- Node1&#45;&gt;Node36 -->
<g id="edge43" class="edge">
<title>Node1&#45;&gt;Node36</title>
<path fill="none" stroke="midnightblue" d="M4990.28,-124.51C4995.91,-100.18 5005.69,-57.92 5010.75,-36.04"/>
<polygon fill="midnightblue" stroke="midnightblue" points="4986.86,-123.77 4988.01,-134.3 4993.68,-125.34 4986.86,-123.77"/>
</g>
<!-- Node37 -->
<g id="node37" class="node">
<title>Node37</title>
<g id="a_node37"><a xlink:href="603-pte-page-correctness_8cc.html" target="_top" xlink:title=" ">
<polygon fill="none" stroke="black" points="5093,-6 5093,-36 5211,-36 5211,-6 5093,-6"/>
<text text-anchor="start" x="5101" y="-24" font-family="Helvetica,sans-Serif" font-size="10.00">test/cpp/src/603&#45;pte</text>
<text text-anchor="middle" x="5152" y="-13" font-family="Helvetica,sans-Serif" font-size="10.00">&#45;page&#45;correctness.cc</text>
</a>
</g>
</g>
<!-- Node1&#45;&gt;Node37 -->
<g id="edge44" class="edge">
<title>Node1&#45;&gt;Node37</title>
<path fill="none" stroke="midnightblue" d="M4998.53,-125.75C5009.41,-111.65 5026.17,-91.85 5044,-78 5066.35,-60.64 5094.9,-46.11 5117.02,-36.21"/>
<polygon fill="midnightblue" stroke="midnightblue" points="4995.49,-123.98 4992.29,-134.08 5001.09,-128.18 4995.49,-123.98"/>
</g>
<!-- Node39 -->
<g id="node39" class="node">
<title>Node39</title>
<g id="a_node39"><a xlink:href="environment_8h.html" target="_top" xlink:title=" ">
<polygon fill="none" stroke="black" points="5052.5,-78.5 5052.5,-97.5 5157.5,-97.5 5157.5,-78.5 5052.5,-78.5"/>
<text text-anchor="middle" x="5105" y="-85.5" font-family="Helvetica,sans-Serif" font-size="10.00">inc/environment.h</text>
</a>
</g>
</g>
<!-- Node1&#45;&gt;Node39 -->
<g id="edge38" class="edge">
<title>Node1&#45;&gt;Node39</title>
<path fill="none" stroke="midnightblue" d="M5014.14,-130.23C5036.4,-120.13 5066.86,-106.31 5086.23,-97.52"/>
<polygon fill="midnightblue" stroke="midnightblue" points="5012.52,-127.12 5004.86,-134.44 5015.41,-133.5 5012.52,-127.12"/>
</g>
<!-- Node41 -->
<g id="node41" class="node">
<title>Node41</title>
<g id="a_node41"><a xlink:href="ptw_8cc.html" target="_top" xlink:title=" ">
<polygon fill="none" stroke="black" points="5175.5,-78.5 5175.5,-97.5 5240.5,-97.5 5240.5,-78.5 5175.5,-78.5"/>
<text text-anchor="middle" x="5208" y="-85.5" font-family="Helvetica,sans-Serif" font-size="10.00">src/ptw.cc</text>
</a>
</g>
</g>
<!-- Node1&#45;&gt;Node41 -->
<g id="edge40" class="edge">
<title>Node1&#45;&gt;Node41</title>
<path fill="none" stroke="midnightblue" d="M5026.2,-133.22C5068.98,-122.82 5135.84,-106.55 5175.44,-96.92"/>
<polygon fill="midnightblue" stroke="midnightblue" points="5025.29,-129.84 5016.4,-135.6 5026.95,-136.64 5025.29,-129.84"/>
</g>
<!-- Node3 -->
<g id="node3" class="node">
<title>Node3</title>
<g id="a_node3"><a xlink:href="140-single-dib-lookup_8cc.html" target="_top" xlink:title=" ">
<polygon fill="none" stroke="black" points="2546.5,-6 2546.5,-36 2673.5,-36 2673.5,-6 2546.5,-6"/>
<text text-anchor="start" x="2554.5" y="-24" font-family="Helvetica,sans-Serif" font-size="10.00">test/cpp/src/140&#45;single</text>
<text text-anchor="middle" x="2610" y="-13" font-family="Helvetica,sans-Serif" font-size="10.00">&#45;dib&#45;lookup.cc</text>
</a>
</g>
</g>
<!-- Node2&#45;&gt;Node3 -->
<g id="edge2" class="edge">
<title>Node2&#45;&gt;Node3</title>
<path fill="none" stroke="midnightblue" d="M2724.67,-74.12C2700.48,-63.13 2665.75,-47.34 2640.86,-36.03"/>
<polygon fill="midnightblue" stroke="midnightblue" points="2723.46,-77.42 2734.01,-78.37 2726.36,-71.04 2723.46,-77.42"/>
</g>
<!-- Node4 -->
<g id="node4" class="node">
<title>Node4</title>
<g id="a_node4"><a xlink:href="150-fetch-bandwidth_8cc.html" target="_top" xlink:title=" ">
<polygon fill="none" stroke="black" points="2692,-6 2692,-36 2814,-36 2814,-6 2692,-6"/>
<text text-anchor="start" x="2700" y="-24" font-family="Helvetica,sans-Serif" font-size="10.00">test/cpp/src/150&#45;fetch</text>
<text text-anchor="middle" x="2753" y="-13" font-family="Helvetica,sans-Serif" font-size="10.00">&#45;bandwidth.cc</text>
</a>
</g>
</g>
<!-- Node2&#45;&gt;Node4 -->
<g id="edge3" class="edge">
<title>Node2&#45;&gt;Node4</title>
<path fill="none" stroke="midnightblue" d="M2753,-67.91C2753,-57.72 2753,-45.4 2753,-36.09"/>
<polygon fill="midnightblue" stroke="midnightblue" points="2749.5,-68.23 2753,-78.23 2756.5,-68.23 2749.5,-68.23"/>
</g>
<!-- Node5 -->
<g id="node5" class="node">
<title>Node5</title>
<g id="a_node5"><a xlink:href="165-basic-btb-no-evict-on-unknown-target_8cc.html" target="_top" xlink:title=" ">
<polygon fill="none" stroke="black" points="2832.5,-0.5 2832.5,-41.5 2975.5,-41.5 2975.5,-0.5 2832.5,-0.5"/>
<text text-anchor="start" x="2840.5" y="-29.5" font-family="Helvetica,sans-Serif" font-size="10.00">test/cpp/src/165&#45;basic</text>
<text text-anchor="start" x="2840.5" y="-18.5" font-family="Helvetica,sans-Serif" font-size="10.00">&#45;btb&#45;no&#45;evict&#45;on&#45;unknown</text>
<text text-anchor="middle" x="2904" y="-7.5" font-family="Helvetica,sans-Serif" font-size="10.00">&#45;target.cc</text>
</a>
</g>
</g>
<!-- Node2&#45;&gt;Node5 -->
<g id="edge4" class="edge">
<title>Node2&#45;&gt;Node5</title>
<path fill="none" stroke="midnightblue" d="M2782.35,-74.36C2803.95,-65.07 2833.72,-52.25 2858.41,-41.63"/>
<polygon fill="midnightblue" stroke="midnightblue" points="2780.85,-71.2 2773.05,-78.37 2783.62,-77.63 2780.85,-71.2"/>
</g>
<!-- Node6 -->
<g id="node6" class="node">
<title>Node6</title>
<g id="a_node6"><a xlink:href="166-issue296-basic-btb-no-mispredict-on-not-taken_8cc.html" target="_top" xlink:title=" ">
<polygon fill="none" stroke="black" points="2993.5,-0.5 2993.5,-41.5 3134.5,-41.5 3134.5,-0.5 2993.5,-0.5"/>
<text text-anchor="start" x="3001.5" y="-29.5" font-family="Helvetica,sans-Serif" font-size="10.00">test/cpp/src/166&#45;issue296</text>
<text text-anchor="start" x="3001.5" y="-18.5" font-family="Helvetica,sans-Serif" font-size="10.00">&#45;basic&#45;btb&#45;no&#45;mispredict</text>
<text text-anchor="middle" x="3064" y="-7.5" font-family="Helvetica,sans-Serif" font-size="10.00">&#45;on&#45;not&#45;taken.cc</text>
</a>
</g>
</g>
<!-- Node2&#45;&gt;Node6 -->
<g id="edge5" class="edge">
<title>Node2&#45;&gt;Node6</title>
<path fill="none" stroke="midnightblue" d="M2810.89,-76.59C2857.72,-67.97 2925.29,-55.05 2984,-42 2987.07,-41.32 2990.21,-40.6 2993.38,-39.87"/>
<polygon fill="midnightblue" stroke="midnightblue" points="2810.14,-73.18 2800.93,-78.42 2811.4,-80.06 2810.14,-73.18"/>
</g>
<!-- Node7 -->
<g id="node7" class="node">
<title>Node7</title>
<g id="a_node7"><a xlink:href="200-rob-scheduling_8cc.html" target="_top" xlink:title=" ">
<polygon fill="none" stroke="black" points="3152.5,-6 3152.5,-36 3265.5,-36 3265.5,-6 3152.5,-6"/>
<text text-anchor="start" x="3160.5" y="-24" font-family="Helvetica,sans-Serif" font-size="10.00">test/cpp/src/200&#45;rob</text>
<text text-anchor="middle" x="3209" y="-13" font-family="Helvetica,sans-Serif" font-size="10.00">&#45;scheduling.cc</text>
</a>
</g>
</g>
<!-- Node2&#45;&gt;Node7 -->
<g id="edge6" class="edge">
<title>Node2&#45;&gt;Node7</title>
<path fill="none" stroke="midnightblue" d="M2810.95,-83.57C2887.58,-78.3 3026.52,-66.17 3143,-42 3150.74,-40.39 3158.87,-38.29 3166.68,-36.04"/>
<polygon fill="midnightblue" stroke="midnightblue" points="2810.3,-80.11 2800.56,-84.27 2810.77,-87.09 2810.3,-80.11"/>
</g>
<!-- Node8 -->
<g id="node8" class="node">
<title>Node8</title>
<g id="a_node8"><a xlink:href="300-retire-from-rob_8cc.html" target="_top" xlink:title=" ">
<polygon fill="none" stroke="black" points="3284,-6 3284,-36 3408,-36 3408,-6 3284,-6"/>
<text text-anchor="start" x="3292" y="-24" font-family="Helvetica,sans-Serif" font-size="10.00">test/cpp/src/300&#45;retire</text>
<text text-anchor="middle" x="3346" y="-13" font-family="Helvetica,sans-Serif" font-size="10.00">&#45;from&#45;rob.cc</text>
</a>
</g>
</g>
<!-- Node2&#45;&gt;Node8 -->
<g id="edge7" class="edge">
<title>Node2&#45;&gt;Node8</title>
<path fill="none" stroke="midnightblue" d="M2810.95,-85.48C2907.63,-82.18 3107.63,-72.03 3274,-42 3282.55,-40.46 3291.56,-38.35 3300.2,-36.08"/>
<polygon fill="midnightblue" stroke="midnightblue" points="2810.68,-81.99 2800.8,-85.82 2810.91,-88.99 2810.68,-81.99"/>
</g>
<!-- Node9 -->
<g id="node9" class="node">
<title>Node9</title>
<g id="a_node9"><a xlink:href="400-cache-occupancy-size_8cc.html" target="_top" xlink:title=" ">
<polygon fill="none" stroke="black" points="3426,-6 3426,-36 3552,-36 3552,-6 3426,-6"/>
<text text-anchor="start" x="3434" y="-24" font-family="Helvetica,sans-Serif" font-size="10.00">test/cpp/src/400&#45;cache</text>
<text text-anchor="middle" x="3489" y="-13" font-family="Helvetica,sans-Serif" font-size="10.00">&#45;occupancy&#45;size.cc</text>
</a>
</g>
</g>
<!-- Node2&#45;&gt;Node9 -->
<g id="edge8" class="edge">
<title>Node2&#45;&gt;Node9</title>
<path fill="none" stroke="midnightblue" d="M2810.97,-87.01C2926.93,-86.18 3195.34,-79.89 3417,-42 3425.82,-40.49 3435.12,-38.34 3444,-36.01"/>
<polygon fill="midnightblue" stroke="midnightblue" points="2810.87,-83.51 2800.9,-87.08 2810.92,-90.51 2810.87,-83.51"/>
</g>
<!-- Node10 -->
<g id="node10" class="node">
<title>Node10</title>
<g id="a_node10"><a xlink:href="401-hit-latency_8cc.html" target="_top" xlink:title=" ">
<polygon fill="none" stroke="black" points="3570,-6 3570,-36 3680,-36 3680,-6 3570,-6"/>
<text text-anchor="start" x="3578" y="-24" font-family="Helvetica,sans-Serif" font-size="10.00">test/cpp/src/401&#45;hit</text>
<text text-anchor="middle" x="3625" y="-13" font-family="Helvetica,sans-Serif" font-size="10.00">&#45;latency.cc</text>
</a>
</g>
</g>
<!-- Node2&#45;&gt;Node10 -->
<g id="edge9" class="edge">
<title>Node2&#45;&gt;Node10</title>
<path fill="none" stroke="midnightblue" d="M2810.86,-85.63C2970.82,-81.56 3416.76,-68.14 3561,-42 3569.02,-40.55 3577.44,-38.39 3585.44,-36.03"/>
<polygon fill="midnightblue" stroke="midnightblue" points="2810.65,-82.14 2800.74,-85.89 2810.82,-89.14 2810.65,-82.14"/>
</g>
<!-- Node11 -->
<g id="node11" class="node">
<title>Node11</title>
<g id="a_node11"><a xlink:href="402-miss-latency_8cc.html" target="_top" xlink:title=" ">
<polygon fill="none" stroke="black" points="3698.5,-6 3698.5,-36 3819.5,-36 3819.5,-6 3698.5,-6"/>
<text text-anchor="start" x="3706.5" y="-24" font-family="Helvetica,sans-Serif" font-size="10.00">test/cpp/src/402&#45;miss</text>
<text text-anchor="middle" x="3759" y="-13" font-family="Helvetica,sans-Serif" font-size="10.00">&#45;latency.cc</text>
</a>
</g>
</g>
<!-- Node2&#45;&gt;Node11 -->
<g id="edge10" class="edge">
<title>Node2&#45;&gt;Node11</title>
<path fill="none" stroke="midnightblue" d="M2810.69,-85.96C2987.25,-82.52 3518.62,-70.05 3689,-42 3697.73,-40.56 3706.92,-38.42 3715.66,-36.06"/>
<polygon fill="midnightblue" stroke="midnightblue" points="2810.49,-82.47 2800.56,-86.16 2810.63,-89.47 2810.49,-82.47"/>
</g>
<!-- Node12 -->
<g id="node12" class="node">
<title>Node12</title>
<g id="a_node12"><a xlink:href="403-read-bandwidth_8cc.html" target="_top" xlink:title=" ">
<polygon fill="none" stroke="black" points="3837.5,-6 3837.5,-36 3956.5,-36 3956.5,-6 3837.5,-6"/>
<text text-anchor="start" x="3845.5" y="-24" font-family="Helvetica,sans-Serif" font-size="10.00">test/cpp/src/403&#45;read</text>
<text text-anchor="middle" x="3897" y="-13" font-family="Helvetica,sans-Serif" font-size="10.00">&#45;bandwidth.cc</text>
</a>
</g>
</g>
<!-- Node2&#45;&gt;Node12 -->
<g id="edge11" class="edge">
<title>Node2&#45;&gt;Node12</title>
<path fill="none" stroke="midnightblue" d="M2810.86,-86.41C3004.61,-84.14 3629.56,-74.43 3828,-42 3836.74,-40.57 3845.94,-38.4 3854.67,-36"/>
<polygon fill="midnightblue" stroke="midnightblue" points="2810.57,-82.91 2800.61,-86.53 2810.65,-89.91 2810.57,-82.91"/>
</g>
<!-- Node13 -->
<g id="node13" class="node">
<title>Node13</title>
<g id="a_node13"><a xlink:href="404-fill-bandwidth_8cc.html" target="_top" xlink:title=" ">
<polygon fill="none" stroke="black" points="3975,-6 3975,-36 4085,-36 4085,-6 3975,-6"/>
<text text-anchor="start" x="3983" y="-24" font-family="Helvetica,sans-Serif" font-size="10.00">test/cpp/src/404&#45;fill</text>
<text text-anchor="middle" x="4030" y="-13" font-family="Helvetica,sans-Serif" font-size="10.00">&#45;bandwidth.cc</text>
</a>
</g>
</g>
<!-- Node2&#45;&gt;Node13 -->
<g id="edge12" class="edge">
<title>Node2&#45;&gt;Node13</title>
<path fill="none" stroke="midnightblue" d="M2810.74,-86.85C3020.1,-86 3738.9,-80.3 3965,-42 3973.27,-40.6 3981.95,-38.44 3990.17,-36.04"/>
<polygon fill="midnightblue" stroke="midnightblue" points="2810.56,-83.35 2800.58,-86.89 2810.59,-90.35 2810.56,-83.35"/>
</g>
<!-- Node14 -->
<g id="node14" class="node">
<title>Node14</title>
<g id="a_node14"><a xlink:href="405-fill-eviction_8cc.html" target="_top" xlink:title=" ">
<polygon fill="none" stroke="black" points="4103,-6 4103,-36 4213,-36 4213,-6 4103,-6"/>
<text text-anchor="start" x="4111" y="-24" font-family="Helvetica,sans-Serif" font-size="10.00">test/cpp/src/405&#45;fill</text>
<text text-anchor="middle" x="4158" y="-13" font-family="Helvetica,sans-Serif" font-size="10.00">&#45;eviction.cc</text>
</a>
</g>
</g>
<!-- Node2&#45;&gt;Node14 -->
<g id="edge13" class="edge">
<title>Node2&#45;&gt;Node14</title>
<path fill="none" stroke="midnightblue" d="M2810.84,-87.13C3034.34,-87.29 3841.65,-84.85 4094,-42 4102.15,-40.62 4110.7,-38.46 4118.8,-36.07"/>
<polygon fill="midnightblue" stroke="midnightblue" points="2810.64,-83.63 2800.64,-87.12 2810.64,-90.63 2810.64,-83.63"/>
</g>
<!-- Node15 -->
<g id="node15" class="node">
<title>Node15</title>
<g id="a_node15"><a xlink:href="406-mshr-merge_8cc.html" target="_top" xlink:title=" ">
<polygon fill="none" stroke="black" points="4231,-6 4231,-36 4353,-36 4353,-6 4231,-6"/>
<text text-anchor="start" x="4239" y="-24" font-family="Helvetica,sans-Serif" font-size="10.00">test/cpp/src/406&#45;mshr</text>
<text text-anchor="middle" x="4292" y="-13" font-family="Helvetica,sans-Serif" font-size="10.00">&#45;merge.cc</text>
</a>
</g>
</g>
<!-- Node2&#45;&gt;Node15 -->
<g id="edge14" class="edge">
<title>Node2&#45;&gt;Node15</title>
<path fill="none" stroke="midnightblue" d="M2810.77,-87.14C3047.35,-87.41 3942.83,-85.47 4222,-42 4230.87,-40.62 4240.2,-38.47 4249.06,-36.08"/>
<polygon fill="midnightblue" stroke="midnightblue" points="2810.66,-83.64 2800.66,-87.12 2810.66,-90.64 2810.66,-83.64"/>
</g>
<!-- Node16 -->
<g id="node16" class="node">
<title>Node16</title>
<g id="a_node16"><a xlink:href="411-queue-translation-hit_8cc.html" target="_top" xlink:title=" ">
<polygon fill="none" stroke="black" points="4371,-6 4371,-36 4499,-36 4499,-6 4371,-6"/>
<text text-anchor="start" x="4379" y="-24" font-family="Helvetica,sans-Serif" font-size="10.00">test/cpp/src/411&#45;queue</text>
<text text-anchor="middle" x="4435" y="-13" font-family="Helvetica,sans-Serif" font-size="10.00">&#45;translation&#45;hit.cc</text>
</a>
</g>
</g>
<!-- Node2&#45;&gt;Node16 -->
<g id="edge15" class="edge">
<title>Node2&#45;&gt;Node16</title>
<path fill="none" stroke="midnightblue" d="M2811.21,-87.24C3062.31,-87.97 4053.91,-87.83 4362,-42 4371.23,-40.63 4380.95,-38.48 4390.19,-36.09"/>
<polygon fill="midnightblue" stroke="midnightblue" points="2810.87,-83.73 2800.86,-87.2 2810.84,-90.73 2810.87,-83.73"/>
</g>
<!-- Node17 -->
<g id="node17" class="node">
<title>Node17</title>
<g id="a_node17"><a xlink:href="412-queue-translation-miss_8cc.html" target="_top" xlink:title=" ">
<polygon fill="none" stroke="black" points="4517,-6 4517,-36 4645,-36 4645,-6 4517,-6"/>
<text text-anchor="start" x="4525" y="-24" font-family="Helvetica,sans-Serif" font-size="10.00">test/cpp/src/412&#45;queue</text>
<text text-anchor="middle" x="4581" y="-13" font-family="Helvetica,sans-Serif" font-size="10.00">&#45;translation&#45;miss.cc</text>
</a>
</g>
</g>
<!-- Node2&#45;&gt;Node17 -->
<g id="edge16" class="edge">
<title>Node2&#45;&gt;Node17</title>
<path fill="none" stroke="midnightblue" d="M2810.92,-86.35C3095.35,-83.03 4337.3,-67.19 4508,-42 4517.36,-40.62 4527.23,-38.43 4536.58,-36"/>
<polygon fill="midnightblue" stroke="midnightblue" points="2810.78,-82.85 2800.82,-86.46 2810.86,-89.85 2810.78,-82.85"/>
</g>
<!-- Node18 -->
<g id="node18" class="node">
<title>Node18</title>
<g id="a_node18"><a xlink:href="413-hit-under-miss_8cc.html" target="_top" xlink:title=" ">
<polygon fill="none" stroke="black" points="0,-6 0,-36 110,-36 110,-6 0,-6"/>
<text text-anchor="start" x="8" y="-24" font-family="Helvetica,sans-Serif" font-size="10.00">test/cpp/src/413&#45;hit</text>
<text text-anchor="middle" x="55" y="-13" font-family="Helvetica,sans-Serif" font-size="10.00">&#45;under&#45;miss.cc</text>
</a>
</g>
</g>
<!-- Node2&#45;&gt;Node18 -->
<g id="edge17" class="edge">
<title>Node2&#45;&gt;Node18</title>
<path fill="none" stroke="midnightblue" d="M2695.2,-87C2332.83,-86.88 380.98,-84.27 119,-42 110.73,-40.66 102.04,-38.5 93.84,-36.07"/>
<polygon fill="midnightblue" stroke="midnightblue" points="2695.45,-90.5 2705.45,-87 2695.45,-83.5 2695.45,-90.5"/>
</g>
<!-- Node19 -->
<g id="node19" class="node">
<title>Node19</title>
<g id="a_node19"><a xlink:href="414-tag-check-bound_8cc.html" target="_top" xlink:title=" ">
<polygon fill="none" stroke="black" points="128.5,-6 128.5,-36 241.5,-36 241.5,-6 128.5,-6"/>
<text text-anchor="start" x="136.5" y="-24" font-family="Helvetica,sans-Serif" font-size="10.00">test/cpp/src/414&#45;tag</text>
<text text-anchor="middle" x="185" y="-13" font-family="Helvetica,sans-Serif" font-size="10.00">&#45;check&#45;bound.cc</text>
</a>
</g>
</g>
<!-- Node2&#45;&gt;Node19 -->
<g id="edge18" class="edge">
<title>Node2&#45;&gt;Node19</title>
<path fill="none" stroke="midnightblue" d="M2695.03,-86.93C2342.95,-86.38 498.3,-81.62 250,-42 241.61,-40.66 232.79,-38.49 224.46,-36.07"/>
<polygon fill="midnightblue" stroke="midnightblue" points="2695.24,-90.43 2705.25,-86.95 2695.25,-83.43 2695.24,-90.43"/>
</g>
<!-- Node20 -->
<g id="node20" class="node">
<title>Node20</title>
<g id="a_node20"><a xlink:href="420-issue-prefetch_8cc.html" target="_top" xlink:title=" ">
<polygon fill="none" stroke="black" points="259.5,-6 259.5,-36 382.5,-36 382.5,-6 259.5,-6"/>
<text text-anchor="start" x="267.5" y="-24" font-family="Helvetica,sans-Serif" font-size="10.00">test/cpp/src/420&#45;issue</text>
<text text-anchor="middle" x="321" y="-13" font-family="Helvetica,sans-Serif" font-size="10.00">&#45;prefetch.cc</text>
</a>
</g>
</g>
<!-- Node2&#45;&gt;Node20 -->
<g id="edge19" class="edge">
<title>Node2&#45;&gt;Node20</title>
<path fill="none" stroke="midnightblue" d="M2695.38,-86.78C2356.14,-85.38 625.94,-76.6 392,-42 382.88,-40.65 373.27,-38.48 364.17,-36.05"/>
<polygon fill="midnightblue" stroke="midnightblue" points="2695.46,-90.28 2705.48,-86.82 2695.49,-83.28 2695.46,-90.28"/>
</g>
<!-- Node21 -->
<g id="node21" class="node">
<title>Node21</title>
<g id="a_node21"><a xlink:href="421-prefetch-fill-level_8cc.html" target="_top" xlink:title=" ">
<polygon fill="none" stroke="black" points="401,-6 401,-36 539,-36 539,-6 401,-6"/>
<text text-anchor="start" x="409" y="-24" font-family="Helvetica,sans-Serif" font-size="10.00">test/cpp/src/421&#45;prefetch</text>
<text text-anchor="middle" x="470" y="-13" font-family="Helvetica,sans-Serif" font-size="10.00">&#45;fill&#45;level.cc</text>
</a>
</g>
</g>
<!-- Node2&#45;&gt;Node21 -->
<g id="edge20" class="edge">
<title>Node2&#45;&gt;Node21</title>
<path fill="none" stroke="midnightblue" d="M2695.1,-86.62C2368.75,-84.35 765.91,-71.75 548,-42 538.03,-40.64 527.49,-38.46 517.5,-36.03"/>
<polygon fill="midnightblue" stroke="midnightblue" points="2695.25,-90.12 2705.27,-86.69 2695.3,-83.12 2695.25,-90.12"/>
</g>
<!-- Node22 -->
<g id="node22" class="node">
<title>Node22</title>
<g id="a_node22"><a xlink:href="422-prefetch-hit_8cc.html" target="_top" xlink:title=" ">
<polygon fill="none" stroke="black" points="557,-6 557,-36 695,-36 695,-6 557,-6"/>
<text text-anchor="start" x="565" y="-24" font-family="Helvetica,sans-Serif" font-size="10.00">test/cpp/src/422&#45;prefetch</text>
<text text-anchor="middle" x="626" y="-13" font-family="Helvetica,sans-Serif" font-size="10.00">&#45;hit.cc</text>
</a>
</g>
</g>
<!-- Node2&#45;&gt;Node22 -->
<g id="edge21" class="edge">
<title>Node2&#45;&gt;Node22</title>
<path fill="none" stroke="midnightblue" d="M2695.25,-86.52C2383.26,-83.83 905.61,-69.69 704,-42 694.03,-40.63 683.5,-38.45 673.51,-36.02"/>
<polygon fill="midnightblue" stroke="midnightblue" points="2695.4,-90.02 2705.43,-86.61 2695.46,-83.02 2695.4,-90.02"/>
</g>
<!-- Node23 -->
<g id="node23" class="node">
<title>Node23</title>
<g id="a_node23"><a xlink:href="423-prefetcher-activate_8cc.html" target="_top" xlink:title=" ">
<polygon fill="none" stroke="black" points="713,-6 713,-36 861,-36 861,-6 713,-6"/>
<text text-anchor="start" x="721" y="-24" font-family="Helvetica,sans-Serif" font-size="10.00">test/cpp/src/423&#45;prefetcher</text>
<text text-anchor="middle" x="787" y="-13" font-family="Helvetica,sans-Serif" font-size="10.00">&#45;activate.cc</text>
</a>
</g>
</g>
<!-- Node2&#45;&gt;Node23 -->
<g id="edge22" class="edge">
<title>Node2&#45;&gt;Node23</title>
<path fill="none" stroke="midnightblue" d="M2695.12,-87.27C2419.19,-88.32 1235.74,-89.88 870,-42 859.57,-40.63 848.53,-38.49 838.04,-36.1"/>
<polygon fill="midnightblue" stroke="midnightblue" points="2695.32,-90.77 2705.31,-87.23 2695.29,-83.77 2695.32,-90.77"/>
</g>
<!-- Node24 -->
<g id="node24" class="node">
<title>Node24</title>
<g id="a_node24"><a xlink:href="424-duplicate-prefetch_8cc.html" target="_top" xlink:title=" ">
<polygon fill="none" stroke="black" points="879.5,-6 879.5,-36 1022.5,-36 1022.5,-6 879.5,-6"/>
<text text-anchor="start" x="887.5" y="-24" font-family="Helvetica,sans-Serif" font-size="10.00">test/cpp/src/424&#45;duplicate</text>
<text text-anchor="middle" x="951" y="-13" font-family="Helvetica,sans-Serif" font-size="10.00">&#45;prefetch.cc</text>
</a>
</g>
</g>
<!-- Node2&#45;&gt;Node24 -->
<g id="edge23" class="edge">
<title>Node2&#45;&gt;Node24</title>
<path fill="none" stroke="midnightblue" d="M2695.49,-87.16C2435,-87.64 1364.12,-86.81 1032,-42 1021.81,-40.62 1011.04,-38.47 1000.8,-36.08"/>
<polygon fill="midnightblue" stroke="midnightblue" points="2695.5,-90.66 2705.49,-87.14 2695.49,-83.66 2695.5,-90.66"/>
</g>
<!-- Node25 -->
<g id="node25" class="node">
<title>Node25</title>
<g id="a_node25"><a xlink:href="425-useless-prefetch_8cc.html" target="_top" xlink:title=" ">
<polygon fill="none" stroke="black" points="1041,-6 1041,-36 1175,-36 1175,-6 1041,-6"/>
<text text-anchor="start" x="1049" y="-24" font-family="Helvetica,sans-Serif" font-size="10.00">test/cpp/src/425&#45;useless</text>
<text text-anchor="middle" x="1108" y="-13" font-family="Helvetica,sans-Serif" font-size="10.00">&#45;prefetch.cc</text>
</a>
</g>
</g>
<!-- Node2&#45;&gt;Node25 -->
<g id="edge24" class="edge">
<title>Node2&#45;&gt;Node25</title>
<path fill="none" stroke="midnightblue" d="M2695.02,-87.11C2448.23,-87.3 1484.14,-85.21 1184,-42 1174.41,-40.62 1164.3,-38.47 1154.68,-36.08"/>
<polygon fill="midnightblue" stroke="midnightblue" points="2695.21,-90.61 2705.21,-87.1 2695.2,-83.61 2695.21,-90.61"/>
</g>
<!-- Node26 -->
<g id="node26" class="node">
<title>Node26</title>
<g id="a_node26"><a xlink:href="426-internal-pq-size_8cc.html" target="_top" xlink:title=" ">
<polygon fill="none" stroke="black" points="1193.5,-6 1193.5,-36 1328.5,-36 1328.5,-6 1193.5,-6"/>
<text text-anchor="start" x="1201.5" y="-24" font-family="Helvetica,sans-Serif" font-size="10.00">test/cpp/src/426&#45;internal</text>
<text text-anchor="middle" x="1261" y="-13" font-family="Helvetica,sans-Serif" font-size="10.00">&#45;pq&#45;size.cc</text>
</a>
</g>
</g>
<!-- Node2&#45;&gt;Node26 -->
<g id="edge25" class="edge">
<title>Node2&#45;&gt;Node26</title>
<path fill="none" stroke="midnightblue" d="M2695.08,-86.9C2463.74,-86.23 1605.62,-81.1 1337,-42 1327.41,-40.6 1317.3,-38.44 1307.69,-36.05"/>
<polygon fill="midnightblue" stroke="midnightblue" points="2695.29,-90.4 2705.29,-86.93 2695.3,-83.4 2695.29,-90.4"/>
</g>
<!-- Node27 -->
<g id="node27" class="node">
<title>Node27</title>
<g id="a_node27"><a xlink:href="431-merge-prefetch_8cc.html" target="_top" xlink:title=" ">
<polygon fill="none" stroke="black" points="1346.5,-6 1346.5,-36 1475.5,-36 1475.5,-6 1346.5,-6"/>
<text text-anchor="start" x="1354.5" y="-24" font-family="Helvetica,sans-Serif" font-size="10.00">test/cpp/src/431&#45;merge</text>
<text text-anchor="middle" x="1411" y="-13" font-family="Helvetica,sans-Serif" font-size="10.00">&#45;prefetch.cc</text>
</a>
</g>
</g>
<!-- Node2&#45;&gt;Node27 -->
<g id="edge26" class="edge">
<title>Node2&#45;&gt;Node27</title>
<path fill="none" stroke="midnightblue" d="M2695.16,-86.7C2479.61,-85.31 1723.14,-77.92 1485,-42 1475.66,-40.59 1465.8,-38.42 1456.44,-36.03"/>
<polygon fill="midnightblue" stroke="midnightblue" points="2695.29,-90.2 2705.32,-86.76 2695.34,-83.2 2695.29,-90.2"/>
</g>
<!-- Node28 -->
<g id="node28" class="node">
<title>Node28</title>
<g id="a_node28"><a xlink:href="432-prefetch-metadata_8cc.html" target="_top" xlink:title=" ">
<polygon fill="none" stroke="black" points="1494,-6 1494,-36 1632,-36 1632,-6 1494,-6"/>
<text text-anchor="start" x="1502" y="-24" font-family="Helvetica,sans-Serif" font-size="10.00">test/cpp/src/432&#45;prefetch</text>
<text text-anchor="middle" x="1563" y="-13" font-family="Helvetica,sans-Serif" font-size="10.00">&#45;metadata.cc</text>
</a>
</g>
</g>
<!-- Node2&#45;&gt;Node28 -->
<g id="edge27" class="edge">
<title>Node2&#45;&gt;Node28</title>
<path fill="none" stroke="midnightblue" d="M2695.19,-86.27C2497.23,-83.51 1847.47,-72.3 1641,-42 1631.32,-40.58 1621.1,-38.44 1611.36,-36.08"/>
<polygon fill="midnightblue" stroke="midnightblue" points="2695.33,-89.77 2705.37,-86.41 2695.42,-82.77 2695.33,-89.77"/>
</g>
<!-- Node29 -->
<g id="node29" class="node">
<title>Node29</title>
<g id="a_node29"><a xlink:href="441-replacement-bypass_8cc.html" target="_top" xlink:title=" ">
<polygon fill="none" stroke="black" points="1650.5,-6 1650.5,-36 1809.5,-36 1809.5,-6 1650.5,-6"/>
<text text-anchor="start" x="1658.5" y="-24" font-family="Helvetica,sans-Serif" font-size="10.00">test/cpp/src/441&#45;replacement</text>
<text text-anchor="middle" x="1730" y="-13" font-family="Helvetica,sans-Serif" font-size="10.00">&#45;bypass.cc</text>
</a>
</g>
</g>
<!-- Node2&#45;&gt;Node29 -->
<g id="edge28" class="edge">
<title>Node2&#45;&gt;Node29</title>
<path fill="none" stroke="midnightblue" d="M2694.88,-87.73C2547.48,-88.82 2147.43,-87.01 1818,-42 1807.29,-40.54 1795.96,-38.41 1785.12,-36.08"/>
<polygon fill="midnightblue" stroke="midnightblue" points="2695.08,-91.23 2705.05,-87.65 2695.02,-84.23 2695.08,-91.23"/>
</g>
<!-- Node30 -->
<g id="node30" class="node">
<title>Node30</title>
<g id="a_node30"><a xlink:href="442-replacement-interface_8cc.html" target="_top" xlink:title=" ">
<polygon fill="none" stroke="black" points="1827.5,-6 1827.5,-36 1986.5,-36 1986.5,-6 1827.5,-6"/>
<text text-anchor="start" x="1835.5" y="-24" font-family="Helvetica,sans-Serif" font-size="10.00">test/cpp/src/442&#45;replacement</text>
<text text-anchor="middle" x="1907" y="-13" font-family="Helvetica,sans-Serif" font-size="10.00">&#45;interface.cc</text>
</a>
</g>
</g>
<!-- Node2&#45;&gt;Node30 -->
<g id="edge29" class="edge">
<title>Node2&#45;&gt;Node30</title>
<path fill="none" stroke="midnightblue" d="M2694.98,-86.79C2567.63,-85.63 2254.28,-78.91 1995,-42 1984.45,-40.5 1973.3,-38.38 1962.61,-36.09"/>
<polygon fill="midnightblue" stroke="midnightblue" points="2695.25,-90.3 2705.28,-86.88 2695.31,-83.3 2695.25,-90.3"/>
</g>
<!-- Node31 -->
<g id="node31" class="node">
<title>Node31</title>
<g id="a_node31"><a xlink:href="451-next-line-behavior_8cc.html" target="_top" xlink:title=" ">
<polygon fill="none" stroke="black" points="2004.5,-6 2004.5,-36 2123.5,-36 2123.5,-6 2004.5,-6"/>
<text text-anchor="start" x="2012.5" y="-24" font-family="Helvetica,sans-Serif" font-size="10.00">test/cpp/src/451&#45;next</text>
<text text-anchor="middle" x="2064" y="-13" font-family="Helvetica,sans-Serif" font-size="10.00">&#45;line&#45;behavior.cc</text>
</a>
</g>
</g>
<!-- Node2&#45;&gt;Node31 -->
<g id="edge30" class="edge">
<title>Node2&#45;&gt;Node31</title>
<path fill="none" stroke="midnightblue" d="M2695.19,-86.91C2584.81,-85.85 2336.79,-79.1 2132,-42 2123.65,-40.49 2114.85,-38.34 2106.47,-36"/>
<polygon fill="midnightblue" stroke="midnightblue" points="2695.41,-90.42 2705.44,-87 2695.47,-83.42 2695.41,-90.42"/>
</g>
<!-- Node32 -->
<g id="node32" class="node">
<title>Node32</title>
<g id="a_node32"><a xlink:href="452-ip-stride-behavior_8cc.html" target="_top" xlink:title=" ">
<polygon fill="none" stroke="black" points="2141.5,-6 2141.5,-36 2248.5,-36 2248.5,-6 2141.5,-6"/>
<text text-anchor="start" x="2149.5" y="-24" font-family="Helvetica,sans-Serif" font-size="10.00">test/cpp/src/452&#45;ip</text>
<text text-anchor="middle" x="2195" y="-13" font-family="Helvetica,sans-Serif" font-size="10.00">&#45;stride&#45;behavior.cc</text>
</a>
</g>
</g>
<!-- Node2&#45;&gt;Node32 -->
<g id="edge31" class="edge">
<title>Node2&#45;&gt;Node32</title>
<path fill="none" stroke="midnightblue" d="M2695.24,-85.9C2602.11,-83.2 2413.38,-73.9 2257,-42 2249.46,-40.46 2241.56,-38.33 2234.01,-36.03"/>
<polygon fill="midnightblue" stroke="midnightblue" points="2695.21,-89.4 2705.3,-86.17 2695.4,-82.4 2695.21,-89.4"/>
</g>
<!-- Node33 -->
<g id="node33" class="node">
<title>Node33</title>
<g id="a_node33"><a xlink:href="453-va-ampm-lite-behavior_8cc.html" target="_top" xlink:title=" ">
<polygon fill="none" stroke="black" points="2266.5,-6 2266.5,-36 2397.5,-36 2397.5,-6 2266.5,-6"/>
<text text-anchor="start" x="2274.5" y="-24" font-family="Helvetica,sans-Serif" font-size="10.00">test/cpp/src/453&#45;va</text>
<text text-anchor="middle" x="2332" y="-13" font-family="Helvetica,sans-Serif" font-size="10.00">&#45;ampm&#45;lite&#45;behavior.cc</text>
</a>
</g>
</g>
<!-- Node2&#45;&gt;Node33 -->
<g id="edge32" class="edge">
<title>Node2&#45;&gt;Node33</title>
<path fill="none" stroke="midnightblue" d="M2694.98,-81.89C2625.76,-75.24 2506.73,-62.05 2406,-42 2397.65,-40.34 2388.84,-38.26 2380.34,-36.07"/>
<polygon fill="midnightblue" stroke="midnightblue" points="2694.96,-85.41 2705.24,-82.87 2695.62,-78.44 2694.96,-85.41"/>
</g>
<!-- Node2&#45;&gt;Node34 -->
<g id="edge33" class="edge">
<title>Node2&#45;&gt;Node34</title>
<path fill="none" stroke="midnightblue" d="M2810.85,-86.55C3109.32,-84.09 4468.4,-71.36 4654,-42 4662.63,-40.63 4671.71,-38.46 4680.3,-36.03"/>
<polygon fill="midnightblue" stroke="midnightblue" points="2810.65,-83.05 2800.68,-86.63 2810.71,-90.05 2810.65,-83.05"/>
</g>
<!-- Node2&#45;&gt;Node35 -->
<g id="edge34" class="edge">
<title>Node2&#45;&gt;Node35</title>
<path fill="none" stroke="midnightblue" d="M2810.85,-86.51C3121.8,-83.77 4587.87,-69.5 4788,-42 4797.97,-40.63 4808.5,-38.45 4818.49,-36.02"/>
<polygon fill="midnightblue" stroke="midnightblue" points="2810.68,-83.01 2800.71,-86.6 2810.74,-90.01 2810.68,-83.01"/>
</g>
<!-- Node2&#45;&gt;Node36 -->
<g id="edge35" class="edge">
<title>Node2&#45;&gt;Node36</title>
<path fill="none" stroke="midnightblue" d="M2811.07,-86.7C3136.62,-84.91 4728.02,-74.51 4944,-42 4953,-40.65 4962.47,-38.47 4971.44,-36.04"/>
<polygon fill="midnightblue" stroke="midnightblue" points="2810.9,-83.2 2800.92,-86.76 2810.94,-90.2 2810.9,-83.2"/>
</g>
<!-- Node2&#45;&gt;Node37 -->
<g id="edge36" class="edge">
<title>Node2&#45;&gt;Node37</title>
<path fill="none" stroke="midnightblue" d="M2810.67,-86.79C3147.42,-85.46 4852.45,-77.01 5083,-42 5091.88,-40.65 5101.22,-38.48 5110.06,-36.05"/>
<polygon fill="midnightblue" stroke="midnightblue" points="2810.64,-83.29 2800.65,-86.83 2810.66,-90.29 2810.64,-83.29"/>
</g>
<!-- Node38 -->
<g id="node38" class="node">
<title>Node38</title>
<g id="a_node38"><a xlink:href="900-btb-bounds-check_8cc.html" target="_top" xlink:title=" ">
<polygon fill="none" stroke="black" points="2415.5,-6 2415.5,-36 2528.5,-36 2528.5,-6 2415.5,-6"/>
<text text-anchor="start" x="2423.5" y="-24" font-family="Helvetica,sans-Serif" font-size="10.00">test/cpp/src/900&#45;btb</text>
<text text-anchor="middle" x="2472" y="-13" font-family="Helvetica,sans-Serif" font-size="10.00">&#45;bounds&#45;check.cc</text>
</a>
</g>
</g>
<!-- Node2&#45;&gt;Node38 -->
<g id="edge37" class="edge">
<title>Node2&#45;&gt;Node38</title>
<path fill="none" stroke="midnightblue" d="M2695.63,-76.56C2651.91,-68.24 2590.34,-55.73 2537,-42 2530.03,-40.2 2522.68,-38.13 2515.55,-36.01"/>
<polygon fill="midnightblue" stroke="midnightblue" points="2695.04,-80.01 2705.51,-78.43 2696.34,-73.13 2695.04,-80.01"/>
</g>
<!-- Node40 -->
<g id="node40" class="node">
<title>Node40</title>
<g id="a_node40"><a xlink:href="champsim_8cc.html" target="_top" xlink:title=" ">
<polygon fill="none" stroke="black" points="5229,-11.5 5229,-30.5 5327,-30.5 5327,-11.5 5229,-11.5"/>
<text text-anchor="middle" x="5278" y="-18.5" font-family="Helvetica,sans-Serif" font-size="10.00">src/champsim.cc</text>
</a>
</g>
</g>
<!-- Node39&#45;&gt;Node40 -->
<g id="edge39" class="edge">
<title>Node39&#45;&gt;Node40</title>
<path fill="none" stroke="midnightblue" d="M5137.55,-74.77C5171.88,-61.87 5225.1,-41.88 5255.21,-30.56"/>
<polygon fill="midnightblue" stroke="midnightblue" points="5136.1,-71.57 5127.97,-78.37 5138.57,-78.13 5136.1,-71.57"/>
</g>
</g>
</svg>
