<?xml version="1.0" encoding="UTF-8" standalone="no"?>
<!DOCTYPE svg PUBLIC "-//W3C//DTD SVG 1.1//EN"
 "http://www.w3.org/Graphics/SVG/1.1/DTD/svg11.dtd">
<!-- Generated by graphviz version 2.43.0 (0)
 -->
<!-- Title: inc/repeatable.h Pages: 1 -->
<svg width="294pt" height="84pt"
 viewBox="0.00 0.00 293.50 84.00" xmlns="http://www.w3.org/2000/svg" xmlns:xlink="http://www.w3.org/1999/xlink">
<g id="graph0" class="graph" transform="scale(1 1) rotate(0) translate(4 80)">
<title>inc/repeatable.h</title>
<!-- Node1 -->
<g id="node1" class="node">
<title>Node1</title>
<g id="a_node1"><a xlink:title=" ">
<polygon fill="#bfbfbf" stroke="black" points="80,-56.5 80,-75.5 175,-75.5 175,-56.5 80,-56.5"/>
<text text-anchor="middle" x="127.5" y="-63.5" font-family="Helvetica,sans-Serif" font-size="10.00">inc/repeatable.h</text>
</a>
</g>
</g>
<!-- Node2 -->
<g id="node2" class="node">
<title>Node2</title>
<g id="a_node2"><a xlink:href="tracereader_8cc.html" target="_top" xlink:title=" ">
<polygon fill="none" stroke="black" points="0,-0.5 0,-19.5 103,-19.5 103,-0.5 0,-0.5"/>
<text text-anchor="middle" x="51.5" y="-7.5" font-family="Helvetica,sans-Serif" font-size="10.00">src/tracereader.cc</text>
</a>
</g>
</g>
<!-- Node1&#45;&gt;Node2 -->
<g id="edge1" class="edge">
<title>Node1&#45;&gt;Node2</title>
<path fill="none" stroke="midnightblue" d="M106.92,-50.38C93.19,-40.62 75.57,-28.11 63.93,-19.83"/>
<polygon fill="midnightblue" stroke="midnightblue" points="105.11,-53.38 115.29,-56.32 109.16,-47.68 105.11,-53.38"/>
</g>
<!-- Node3 -->
<g id="node3" class="node">
<title>Node3</title>
<g id="a_node3"><a xlink:href="085-repeatable_8cc.html" target="_top" xlink:title=" ">
<polygon fill="none" stroke="black" points="121.5,-0.5 121.5,-19.5 285.5,-19.5 285.5,-0.5 121.5,-0.5"/>
<text text-anchor="middle" x="203.5" y="-7.5" font-family="Helvetica,sans-Serif" font-size="10.00">test/cpp/src/085&#45;repeatable.cc</text>
</a>
</g>
</g>
<!-- Node1&#45;&gt;Node3 -->
<g id="edge2" class="edge">
<title>Node1&#45;&gt;Node3</title>
<path fill="none" stroke="midnightblue" d="M148.08,-50.38C161.81,-40.62 179.43,-28.11 191.07,-19.83"/>
<polygon fill="midnightblue" stroke="midnightblue" points="145.84,-47.68 139.71,-56.32 149.89,-53.38 145.84,-47.68"/>
</g>
</g>
</svg>
