<?xml version="1.0" encoding="UTF-8" standalone="no"?>
<!DOCTYPE svg PUBLIC "-//W3C//DTD SVG 1.1//EN"
 "http://www.w3.org/Graphics/SVG/1.1/DTD/svg11.dtd">
<!-- Generated by graphviz version 2.43.0 (0)
 -->
<!-- Title: replacement/lru/lru.cc Pages: 1 -->
<svg width="1671pt" height="196pt"
 viewBox="0.00 0.00 1670.50 196.00" xmlns="http://www.w3.org/2000/svg" xmlns:xlink="http://www.w3.org/1999/xlink">
<g id="graph0" class="graph" transform="scale(1 1) rotate(0) translate(4 192)">
<title>replacement/lru/lru.cc</title>
<!-- Node1 -->
<g id="node1" class="node">
<title>Node1</title>
<g id="a_node1"><a xlink:title=" ">
<polygon fill="#bfbfbf" stroke="black" points="109.5,-168.5 109.5,-187.5 232.5,-187.5 232.5,-168.5 109.5,-168.5"/>
<text text-anchor="middle" x="171" y="-175.5" font-family="Helvetica,sans-Serif" font-size="10.00">replacement/lru/lru.cc</text>
</a>
</g>
</g>
<!-- Node2 -->
<g id="node2" class="node">
<title>Node2</title>
<g id="a_node2"><a xlink:title=" ">
<polygon fill="none" stroke="#bfbfbf" points="0,-112.5 0,-131.5 64,-131.5 64,-112.5 0,-112.5"/>
<text text-anchor="middle" x="32" y="-119.5" font-family="Helvetica,sans-Serif" font-size="10.00">algorithm</text>
</a>
</g>
</g>
<!-- Node1&#45;&gt;Node2 -->
<g id="edge1" class="edge">
<title>Node1&#45;&gt;Node2</title>
<path fill="none" stroke="midnightblue" d="M148.98,-168.44C125.9,-159.48 89.44,-145.31 63.36,-135.18"/>
<polygon fill="midnightblue" stroke="midnightblue" points="64.51,-131.88 53.92,-131.52 61.98,-138.4 64.51,-131.88"/>
</g>
<!-- Node3 -->
<g id="node3" class="node">
<title>Node3</title>
<g id="a_node3"><a xlink:title=" ">
<polygon fill="none" stroke="#bfbfbf" points="82,-112.5 82,-131.5 134,-131.5 134,-112.5 82,-112.5"/>
<text text-anchor="middle" x="108" y="-119.5" font-family="Helvetica,sans-Serif" font-size="10.00">cassert</text>
</a>
</g>
</g>
<!-- Node1&#45;&gt;Node3 -->
<g id="edge2" class="edge">
<title>Node1&#45;&gt;Node3</title>
<path fill="none" stroke="midnightblue" d="M160.88,-168.32C151.47,-160.26 137.26,-148.08 125.93,-138.37"/>
<polygon fill="midnightblue" stroke="midnightblue" points="128.18,-135.68 118.31,-131.83 123.62,-141 128.18,-135.68"/>
</g>
<!-- Node4 -->
<g id="node4" class="node">
<title>Node4</title>
<g id="a_node4"><a xlink:title=" ">
<polygon fill="none" stroke="#bfbfbf" points="152,-112.5 152,-131.5 190,-131.5 190,-112.5 152,-112.5"/>
<text text-anchor="middle" x="171" y="-119.5" font-family="Helvetica,sans-Serif" font-size="10.00">map</text>
</a>
</g>
</g>
<!-- Node1&#45;&gt;Node4 -->
<g id="edge3" class="edge">
<title>Node1&#45;&gt;Node4</title>
<path fill="none" stroke="midnightblue" d="M171,-168.08C171,-161.01 171,-150.86 171,-141.99"/>
<polygon fill="midnightblue" stroke="midnightblue" points="174.5,-141.75 171,-131.75 167.5,-141.75 174.5,-141.75"/>
</g>
<!-- Node5 -->
<g id="node5" class="node">
<title>Node5</title>
<g id="a_node5"><a xlink:title=" ">
<polygon fill="none" stroke="#bfbfbf" points="232.5,-0.5 232.5,-19.5 279.5,-19.5 279.5,-0.5 232.5,-0.5"/>
<text text-anchor="middle" x="256" y="-7.5" font-family="Helvetica,sans-Serif" font-size="10.00">vector</text>
</a>
</g>
</g>
<!-- Node1&#45;&gt;Node5 -->
<g id="edge4" class="edge">
<title>Node1&#45;&gt;Node5</title>
<path fill="none" stroke="midnightblue" d="M176.89,-168.22C182.78,-159.28 191.96,-144.93 199,-132 218.44,-96.29 237.95,-52.83 248.34,-28.92"/>
<polygon fill="midnightblue" stroke="midnightblue" points="251.58,-30.25 252.33,-19.68 245.15,-27.47 251.58,-30.25"/>
</g>
<!-- Node6 -->
<g id="node6" class="node">
<title>Node6</title>
<g id="a_node6"><a xlink:href="cache_8h.html" target="_top" xlink:title=" ">
<polygon fill="none" stroke="black" points="707,-112.5 707,-131.5 761,-131.5 761,-112.5 707,-112.5"/>
<text text-anchor="middle" x="734" y="-119.5" font-family="Helvetica,sans-Serif" font-size="10.00">cache.h</text>
</a>
</g>
</g>
<!-- Node1&#45;&gt;Node6 -->
<g id="edge5" class="edge">
<title>Node1&#45;&gt;Node6</title>
<path fill="none" stroke="midnightblue" d="M232.59,-171.09C349.88,-159.84 602.07,-135.65 696.91,-126.56"/>
<polygon fill="midnightblue" stroke="midnightblue" points="697.28,-130.04 706.9,-125.6 696.61,-123.07 697.28,-130.04"/>
</g>
<!-- Node6&#45;&gt;Node5 -->
<g id="edge12" class="edge">
<title>Node6&#45;&gt;Node5</title>
<path fill="none" stroke="midnightblue" d="M706.97,-120.97C623.81,-120.46 373.23,-115.59 304,-76 285.4,-65.36 271.91,-44.28 264.05,-29"/>
<polygon fill="midnightblue" stroke="midnightblue" points="267,-27.05 259.52,-19.55 260.69,-30.08 267,-27.05"/>
</g>
<!-- Node7 -->
<g id="node7" class="node">
<title>Node7</title>
<g id="a_node7"><a xlink:title=" ">
<polygon fill="none" stroke="#bfbfbf" points="732,-0.5 732,-19.5 774,-19.5 774,-0.5 732,-0.5"/>
<text text-anchor="middle" x="753" y="-7.5" font-family="Helvetica,sans-Serif" font-size="10.00">array</text>
</a>
</g>
</g>
<!-- Node6&#45;&gt;Node7 -->
<g id="edge6" class="edge">
<title>Node6&#45;&gt;Node7</title>
<path fill="none" stroke="midnightblue" d="M706.76,-121.09C605.41,-120.94 258.73,-116.11 313,-56 340.35,-25.71 625.62,-14.7 721.65,-11.83"/>
<polygon fill="midnightblue" stroke="midnightblue" points="721.99,-15.32 731.89,-11.54 721.79,-8.33 721.99,-15.32"/>
</g>
<!-- Node8 -->
<g id="node8" class="node">
<title>Node8</title>
<g id="a_node8"><a xlink:title=" ">
<polygon fill="none" stroke="#bfbfbf" points="322,-56.5 322,-75.5 366,-75.5 366,-56.5 322,-56.5"/>
<text text-anchor="middle" x="344" y="-63.5" font-family="Helvetica,sans-Serif" font-size="10.00">bitset</text>
</a>
</g>
</g>
<!-- Node6&#45;&gt;Node8 -->
<g id="edge7" class="edge">
<title>Node6&#45;&gt;Node8</title>
<path fill="none" stroke="midnightblue" d="M706.74,-119.06C647.98,-114.57 504.93,-101.94 376.27,-75.97"/>
<polygon fill="midnightblue" stroke="midnightblue" points="376.75,-72.5 366.25,-73.91 375.34,-79.35 376.75,-72.5"/>
</g>
<!-- Node9 -->
<g id="node9" class="node">
<title>Node9</title>
<g id="a_node9"><a xlink:title=" ">
<polygon fill="none" stroke="#bfbfbf" points="1226.5,-0.5 1226.5,-19.5 1273.5,-19.5 1273.5,-0.5 1226.5,-0.5"/>
<text text-anchor="middle" x="1250" y="-7.5" font-family="Helvetica,sans-Serif" font-size="10.00">deque</text>
</a>
</g>
</g>
<!-- Node6&#45;&gt;Node9 -->
<g id="edge8" class="edge">
<title>Node6&#45;&gt;Node9</title>
<path fill="none" stroke="midnightblue" d="M761.2,-121.02C871.18,-120.8 1278.85,-117.2 1317,-76 1334.45,-57.15 1304.6,-36.72 1279.33,-23.89"/>
<polygon fill="midnightblue" stroke="midnightblue" points="1280.85,-20.74 1270.33,-19.53 1277.8,-27.04 1280.85,-20.74"/>
</g>
<!-- Node10 -->
<g id="node10" class="node">
<title>Node10</title>
<g id="a_node10"><a xlink:title=" ">
<polygon fill="none" stroke="#bfbfbf" points="384,-56.5 384,-75.5 442,-75.5 442,-56.5 384,-56.5"/>
<text text-anchor="middle" x="413" y="-63.5" font-family="Helvetica,sans-Serif" font-size="10.00">memory</text>
</a>
</g>
</g>
<!-- Node6&#45;&gt;Node10 -->
<g id="edge9" class="edge">
<title>Node6&#45;&gt;Node10</title>
<path fill="none" stroke="midnightblue" d="M706.96,-117.39C658.08,-110.71 551.62,-95.49 452.31,-76.14"/>
<polygon fill="midnightblue" stroke="midnightblue" points="452.9,-72.69 442.41,-74.2 451.55,-79.56 452.9,-72.69"/>
</g>
<!-- Node11 -->
<g id="node11" class="node">
<title>Node11</title>
<g id="a_node11"><a xlink:title=" ">
<polygon fill="none" stroke="#bfbfbf" points="460.5,-56.5 460.5,-75.5 525.5,-75.5 525.5,-56.5 460.5,-56.5"/>
<text text-anchor="middle" x="493" y="-63.5" font-family="Helvetica,sans-Serif" font-size="10.00">stdexcept</text>
</a>
</g>
</g>
<!-- Node6&#45;&gt;Node11 -->
<g id="edge10" class="edge">
<title>Node6&#45;&gt;Node11</title>
<path fill="none" stroke="midnightblue" d="M706.82,-114.91C665.13,-105.57 585.04,-87.62 535.59,-76.54"/>
<polygon fill="midnightblue" stroke="midnightblue" points="536.35,-73.13 525.83,-74.36 534.82,-79.96 536.35,-73.13"/>
</g>
<!-- Node12 -->
<g id="node12" class="node">
<title>Node12</title>
<g id="a_node12"><a xlink:title=" ">
<polygon fill="none" stroke="#bfbfbf" points="544,-56.5 544,-75.5 588,-75.5 588,-56.5 544,-56.5"/>
<text text-anchor="middle" x="566" y="-63.5" font-family="Helvetica,sans-Serif" font-size="10.00">string</text>
</a>
</g>
</g>
<!-- Node6&#45;&gt;Node12 -->
<g id="edge11" class="edge">
<title>Node6&#45;&gt;Node12</title>
<path fill="none" stroke="midnightblue" d="M707.38,-112.44C677.66,-102.89 629.58,-87.44 597.88,-77.25"/>
<polygon fill="midnightblue" stroke="midnightblue" points="598.79,-73.86 588.2,-74.14 596.65,-80.53 598.79,-73.86"/>
</g>
<!-- Node13 -->
<g id="node13" class="node">
<title>Node13</title>
<g id="a_node13"><a xlink:href="champsim_8h.html" target="_top" xlink:title=" ">
<polygon fill="none" stroke="black" points="1515.5,-56.5 1515.5,-75.5 1592.5,-75.5 1592.5,-56.5 1515.5,-56.5"/>
<text text-anchor="middle" x="1554" y="-63.5" font-family="Helvetica,sans-Serif" font-size="10.00">champsim.h</text>
</a>
</g>
</g>
<!-- Node6&#45;&gt;Node13 -->
<g id="edge13" class="edge">
<title>Node6&#45;&gt;Node13</title>
<path fill="none" stroke="midnightblue" d="M761.19,-119.4C855.09,-113.83 1174.43,-94.65 1438,-76 1460.06,-74.44 1484.48,-72.57 1505.19,-70.94"/>
<polygon fill="midnightblue" stroke="midnightblue" points="1505.65,-74.41 1515.34,-70.13 1505.1,-67.43 1505.65,-74.41"/>
</g>
<!-- Node16 -->
<g id="node16" class="node">
<title>Node16</title>
<g id="a_node16"><a xlink:title=" ">
<polygon fill="none" stroke="#bfbfbf" points="606.5,-56.5 606.5,-75.5 735.5,-75.5 735.5,-56.5 606.5,-56.5"/>
<text text-anchor="middle" x="671" y="-63.5" font-family="Helvetica,sans-Serif" font-size="10.00">champsim_constants.h</text>
</a>
</g>
</g>
<!-- Node6&#45;&gt;Node16 -->
<g id="edge16" class="edge">
<title>Node6&#45;&gt;Node16</title>
<path fill="none" stroke="midnightblue" d="M723.88,-112.32C714.47,-104.26 700.26,-92.08 688.93,-82.37"/>
<polygon fill="midnightblue" stroke="midnightblue" points="691.18,-79.68 681.31,-75.83 686.62,-85 691.18,-79.68"/>
</g>
<!-- Node17 -->
<g id="node17" class="node">
<title>Node17</title>
<g id="a_node17"><a xlink:href="channel_8h.html" target="_top" xlink:title=" ">
<polygon fill="none" stroke="black" points="1365,-56.5 1365,-75.5 1429,-75.5 1429,-56.5 1365,-56.5"/>
<text text-anchor="middle" x="1397" y="-63.5" font-family="Helvetica,sans-Serif" font-size="10.00">channel.h</text>
</a>
</g>
</g>
<!-- Node6&#45;&gt;Node17 -->
<g id="edge17" class="edge">
<title>Node6&#45;&gt;Node17</title>
<path fill="none" stroke="midnightblue" d="M761.18,-120.19C847.69,-117.34 1124.25,-106.34 1351,-76 1352.27,-75.83 1353.56,-75.65 1354.86,-75.45"/>
<polygon fill="midnightblue" stroke="midnightblue" points="1355.62,-78.88 1364.91,-73.79 1354.47,-71.97 1355.62,-78.88"/>
</g>
<!-- Node21 -->
<g id="node21" class="node">
<title>Node21</title>
<g id="a_node21"><a xlink:href="module__impl_8h.html" target="_top" xlink:title=" ">
<polygon fill="none" stroke="black" points="753.5,-56.5 753.5,-75.5 842.5,-75.5 842.5,-56.5 753.5,-56.5"/>
<text text-anchor="middle" x="798" y="-63.5" font-family="Helvetica,sans-Serif" font-size="10.00">module_impl.h</text>
</a>
</g>
</g>
<!-- Node6&#45;&gt;Node21 -->
<g id="edge25" class="edge">
<title>Node6&#45;&gt;Node21</title>
<path fill="none" stroke="midnightblue" d="M744.28,-112.32C753.84,-104.26 768.28,-92.08 779.78,-82.37"/>
<polygon fill="midnightblue" stroke="midnightblue" points="782.14,-84.96 787.53,-75.83 777.63,-79.61 782.14,-84.96"/>
</g>
<!-- Node22 -->
<g id="node22" class="node">
<title>Node22</title>
<g id="a_node22"><a xlink:href="operable_8h.html" target="_top" xlink:title=" ">
<polygon fill="none" stroke="black" points="861,-56.5 861,-75.5 929,-75.5 929,-56.5 861,-56.5"/>
<text text-anchor="middle" x="895" y="-63.5" font-family="Helvetica,sans-Serif" font-size="10.00">operable.h</text>
</a>
</g>
</g>
<!-- Node6&#45;&gt;Node22 -->
<g id="edge26" class="edge">
<title>Node6&#45;&gt;Node22</title>
<path fill="none" stroke="midnightblue" d="M759.51,-112.44C786.6,-103.36 829.59,-88.94 859.87,-78.78"/>
<polygon fill="midnightblue" stroke="midnightblue" points="861.24,-82.01 869.61,-75.52 859.01,-75.38 861.24,-82.01"/>
</g>
<!-- Node23 -->
<g id="node23" class="node">
<title>Node23</title>
<g id="a_node23"><a xlink:title=" ">
<polygon fill="none" stroke="#bfbfbf" points="947.5,-56.5 947.5,-75.5 1016.5,-75.5 1016.5,-56.5 947.5,-56.5"/>
<text text-anchor="middle" x="982" y="-63.5" font-family="Helvetica,sans-Serif" font-size="10.00">type_traits</text>
</a>
</g>
</g>
<!-- Node6&#45;&gt;Node23 -->
<g id="edge27" class="edge">
<title>Node6&#45;&gt;Node23</title>
<path fill="none" stroke="midnightblue" d="M761.01,-115.12C803.5,-105.87 886.38,-87.82 937.68,-76.65"/>
<polygon fill="midnightblue" stroke="midnightblue" points="938.47,-80.06 947.5,-74.51 936.98,-73.22 938.47,-80.06"/>
</g>
<!-- Node24 -->
<g id="node24" class="node">
<title>Node24</title>
<g id="a_node24"><a xlink:title=" ">
<polygon fill="none" stroke="#bfbfbf" points="1035,-56.5 1035,-75.5 1165,-75.5 1165,-56.5 1035,-56.5"/>
<text text-anchor="middle" x="1100" y="-63.5" font-family="Helvetica,sans-Serif" font-size="10.00">cache_module_decl.inc</text>
</a>
</g>
</g>
<!-- Node6&#45;&gt;Node24 -->
<g id="edge28" class="edge">
<title>Node6&#45;&gt;Node24</title>
<path fill="none" stroke="midnightblue" d="M761.21,-116.99C818.01,-108.61 950.64,-89.04 1032.09,-77.02"/>
<polygon fill="midnightblue" stroke="midnightblue" points="1032.87,-80.44 1042.25,-75.52 1031.84,-73.52 1032.87,-80.44"/>
</g>
<!-- Node25 -->
<g id="node25" class="node">
<title>Node25</title>
<g id="a_node25"><a xlink:title=" ">
<polygon fill="none" stroke="#bfbfbf" points="1183.5,-56.5 1183.5,-75.5 1308.5,-75.5 1308.5,-56.5 1183.5,-56.5"/>
<text text-anchor="middle" x="1246" y="-63.5" font-family="Helvetica,sans-Serif" font-size="10.00">cache_module_def.inc</text>
</a>
</g>
</g>
<!-- Node6&#45;&gt;Node25 -->
<g id="edge29" class="edge">
<title>Node6&#45;&gt;Node25</title>
<path fill="none" stroke="midnightblue" d="M761.06,-118.45C828.58,-112.03 1010.13,-94.49 1172.98,-76.09"/>
<polygon fill="midnightblue" stroke="midnightblue" points="1173.64,-79.54 1183.18,-74.94 1172.85,-72.59 1173.64,-79.54"/>
</g>
<!-- Node14 -->
<g id="node14" class="node">
<title>Node14</title>
<g id="a_node14"><a xlink:title=" ">
<polygon fill="none" stroke="#bfbfbf" points="1529,-0.5 1529,-19.5 1579,-19.5 1579,-0.5 1529,-0.5"/>
<text text-anchor="middle" x="1554" y="-7.5" font-family="Helvetica,sans-Serif" font-size="10.00">cstdint</text>
</a>
</g>
</g>
<!-- Node13&#45;&gt;Node14 -->
<g id="edge14" class="edge">
<title>Node13&#45;&gt;Node14</title>
<path fill="none" stroke="midnightblue" d="M1554,-56.08C1554,-49.01 1554,-38.86 1554,-29.99"/>
<polygon fill="midnightblue" stroke="midnightblue" points="1557.5,-29.75 1554,-19.75 1550.5,-29.75 1557.5,-29.75"/>
</g>
<!-- Node15 -->
<g id="node15" class="node">
<title>Node15</title>
<g id="a_node15"><a xlink:title=" ">
<polygon fill="none" stroke="#bfbfbf" points="1597.5,-0.5 1597.5,-19.5 1662.5,-19.5 1662.5,-0.5 1597.5,-0.5"/>
<text text-anchor="middle" x="1630" y="-7.5" font-family="Helvetica,sans-Serif" font-size="10.00">exception</text>
</a>
</g>
</g>
<!-- Node13&#45;&gt;Node15 -->
<g id="edge15" class="edge">
<title>Node13&#45;&gt;Node15</title>
<path fill="none" stroke="midnightblue" d="M1566.21,-56.32C1577.78,-48.11 1595.38,-35.6 1609.16,-25.81"/>
<polygon fill="midnightblue" stroke="midnightblue" points="1611.44,-28.48 1617.57,-19.83 1607.39,-22.77 1611.44,-28.48"/>
</g>
<!-- Node17&#45;&gt;Node5 -->
<g id="edge23" class="edge">
<title>Node17&#45;&gt;Node5</title>
<path fill="none" stroke="midnightblue" d="M1364.74,-60.85C1350.18,-59.11 1332.75,-57.22 1317,-56 913.38,-24.78 421.58,-14.01 289.81,-11.58"/>
<polygon fill="midnightblue" stroke="midnightblue" points="289.62,-8.07 279.56,-11.39 289.5,-15.07 289.62,-8.07"/>
</g>
<!-- Node17&#45;&gt;Node7 -->
<g id="edge18" class="edge">
<title>Node17&#45;&gt;Node7</title>
<path fill="none" stroke="midnightblue" d="M1364.72,-61.13C1350.15,-59.44 1332.72,-57.51 1317,-56 1113.99,-36.49 869.3,-19.03 784.07,-13.12"/>
<polygon fill="midnightblue" stroke="midnightblue" points="784.24,-9.63 774.02,-12.43 783.75,-16.61 784.24,-9.63"/>
</g>
<!-- Node17&#45;&gt;Node9 -->
<g id="edge20" class="edge">
<title>Node17&#45;&gt;Node9</title>
<path fill="none" stroke="midnightblue" d="M1373.71,-56.44C1349.19,-47.44 1310.4,-33.19 1282.8,-23.05"/>
<polygon fill="midnightblue" stroke="midnightblue" points="1283.78,-19.68 1273.18,-19.52 1281.36,-26.25 1283.78,-19.68"/>
</g>
<!-- Node17&#45;&gt;Node14 -->
<g id="edge19" class="edge">
<title>Node17&#45;&gt;Node14</title>
<path fill="none" stroke="midnightblue" d="M1421.88,-56.44C1448.29,-47.36 1490.22,-32.94 1519.74,-22.78"/>
<polygon fill="midnightblue" stroke="midnightblue" points="1520.92,-26.08 1529.24,-19.52 1518.64,-19.46 1520.92,-26.08"/>
</g>
<!-- Node18 -->
<g id="node18" class="node">
<title>Node18</title>
<g id="a_node18"><a xlink:title=" ">
<polygon fill="none" stroke="#bfbfbf" points="1291.5,-0.5 1291.5,-19.5 1356.5,-19.5 1356.5,-0.5 1291.5,-0.5"/>
<text text-anchor="middle" x="1324" y="-7.5" font-family="Helvetica,sans-Serif" font-size="10.00">functional</text>
</a>
</g>
</g>
<!-- Node17&#45;&gt;Node18 -->
<g id="edge21" class="edge">
<title>Node17&#45;&gt;Node18</title>
<path fill="none" stroke="midnightblue" d="M1385.27,-56.32C1374.16,-48.11 1357.26,-35.6 1344.02,-25.81"/>
<polygon fill="midnightblue" stroke="midnightblue" points="1346.06,-22.97 1335.94,-19.83 1341.9,-28.59 1346.06,-22.97"/>
</g>
<!-- Node19 -->
<g id="node19" class="node">
<title>Node19</title>
<g id="a_node19"><a xlink:title=" ">
<polygon fill="none" stroke="#bfbfbf" points="1375,-0.5 1375,-19.5 1419,-19.5 1419,-0.5 1375,-0.5"/>
<text text-anchor="middle" x="1397" y="-7.5" font-family="Helvetica,sans-Serif" font-size="10.00">limits</text>
</a>
</g>
</g>
<!-- Node17&#45;&gt;Node19 -->
<g id="edge22" class="edge">
<title>Node17&#45;&gt;Node19</title>
<path fill="none" stroke="midnightblue" d="M1397,-56.08C1397,-49.01 1397,-38.86 1397,-29.99"/>
<polygon fill="midnightblue" stroke="midnightblue" points="1400.5,-29.75 1397,-19.75 1393.5,-29.75 1400.5,-29.75"/>
</g>
<!-- Node20 -->
<g id="node20" class="node">
<title>Node20</title>
<g id="a_node20"><a xlink:title=" ">
<polygon fill="none" stroke="#bfbfbf" points="1437.5,-0.5 1437.5,-19.5 1510.5,-19.5 1510.5,-0.5 1437.5,-0.5"/>
<text text-anchor="middle" x="1474" y="-7.5" font-family="Helvetica,sans-Serif" font-size="10.00">string_view</text>
</a>
</g>
</g>
<!-- Node17&#45;&gt;Node20 -->
<g id="edge24" class="edge">
<title>Node17&#45;&gt;Node20</title>
<path fill="none" stroke="midnightblue" d="M1409.37,-56.32C1421.16,-48.06 1439.13,-35.45 1453.14,-25.63"/>
<polygon fill="midnightblue" stroke="midnightblue" points="1455.48,-28.26 1461.66,-19.65 1451.46,-22.53 1455.48,-28.26"/>
</g>
</g>
</svg>
