<?xml version="1.0" encoding="UTF-8" standalone="no"?>
<!DOCTYPE svg PUBLIC "-//W3C//DTD SVG 1.1//EN"
 "http://www.w3.org/Graphics/SVG/1.1/DTD/svg11.dtd">
<!-- Generated by graphviz version 2.43.0 (0)
 -->
<!-- Title: replacement/ship/ship.cc Pages: 1 -->
<svg width="1635pt" height="196pt"
 viewBox="0.00 0.00 1635.00 196.00" xmlns="http://www.w3.org/2000/svg" xmlns:xlink="http://www.w3.org/1999/xlink">
<g id="graph0" class="graph" transform="scale(1 1) rotate(0) translate(4 192)">
<title>replacement/ship/ship.cc</title>
<!-- Node1 -->
<g id="node1" class="node">
<title>Node1</title>
<g id="a_node1"><a xlink:title=" ">
<polygon fill="#bfbfbf" stroke="black" points="1339.5,-168.5 1339.5,-187.5 1477.5,-187.5 1477.5,-168.5 1339.5,-168.5"/>
<text text-anchor="middle" x="1408.5" y="-175.5" font-family="Helvetica,sans-Serif" font-size="10.00">replacement/ship/ship.cc</text>
</a>
</g>
</g>
<!-- Node2 -->
<g id="node2" class="node">
<title>Node2</title>
<g id="a_node2"><a xlink:title=" ">
<polygon fill="none" stroke="#bfbfbf" points="691.5,-112.5 691.5,-131.5 755.5,-131.5 755.5,-112.5 691.5,-112.5"/>
<text text-anchor="middle" x="723.5" y="-119.5" font-family="Helvetica,sans-Serif" font-size="10.00">algorithm</text>
</a>
</g>
</g>
<!-- Node1&#45;&gt;Node2 -->
<g id="edge1" class="edge">
<title>Node1&#45;&gt;Node2</title>
<path fill="none" stroke="midnightblue" d="M1339.19,-174.91C1221.6,-170.74 975.66,-159.32 769.5,-132 768.23,-131.83 766.94,-131.65 765.64,-131.46"/>
<polygon fill="midnightblue" stroke="midnightblue" points="766.02,-127.97 755.59,-129.8 764.89,-134.88 766.02,-127.97"/>
</g>
<!-- Node3 -->
<g id="node3" class="node">
<title>Node3</title>
<g id="a_node3"><a xlink:title=" ">
<polygon fill="none" stroke="#bfbfbf" points="1325.5,-0.5 1325.5,-19.5 1367.5,-19.5 1367.5,-0.5 1325.5,-0.5"/>
<text text-anchor="middle" x="1346.5" y="-7.5" font-family="Helvetica,sans-Serif" font-size="10.00">array</text>
</a>
</g>
</g>
<!-- Node1&#45;&gt;Node3 -->
<g id="edge2" class="edge">
<title>Node1&#45;&gt;Node3</title>
<path fill="none" stroke="midnightblue" d="M1405.17,-168.08C1395.37,-141.83 1366.5,-64.55 1353.27,-29.12"/>
<polygon fill="midnightblue" stroke="midnightblue" points="1356.48,-27.71 1349.7,-19.57 1349.92,-30.16 1356.48,-27.71"/>
</g>
<!-- Node4 -->
<g id="node4" class="node">
<title>Node4</title>
<g id="a_node4"><a xlink:title=" ">
<polygon fill="none" stroke="#bfbfbf" points="1455.5,-112.5 1455.5,-131.5 1507.5,-131.5 1507.5,-112.5 1455.5,-112.5"/>
<text text-anchor="middle" x="1481.5" y="-119.5" font-family="Helvetica,sans-Serif" font-size="10.00">cassert</text>
</a>
</g>
</g>
<!-- Node1&#45;&gt;Node4 -->
<g id="edge3" class="edge">
<title>Node1&#45;&gt;Node4</title>
<path fill="none" stroke="midnightblue" d="M1420.23,-168.32C1431.34,-160.11 1448.24,-147.6 1461.48,-137.81"/>
<polygon fill="midnightblue" stroke="midnightblue" points="1463.6,-140.59 1469.56,-131.83 1459.44,-134.97 1463.6,-140.59"/>
</g>
<!-- Node5 -->
<g id="node5" class="node">
<title>Node5</title>
<g id="a_node5"><a xlink:title=" ">
<polygon fill="none" stroke="#bfbfbf" points="1525.5,-112.5 1525.5,-131.5 1563.5,-131.5 1563.5,-112.5 1525.5,-112.5"/>
<text text-anchor="middle" x="1544.5" y="-119.5" font-family="Helvetica,sans-Serif" font-size="10.00">map</text>
</a>
</g>
</g>
<!-- Node1&#45;&gt;Node5 -->
<g id="edge4" class="edge">
<title>Node1&#45;&gt;Node5</title>
<path fill="none" stroke="midnightblue" d="M1430.05,-168.44C1453.19,-159.25 1490.08,-144.61 1515.7,-134.43"/>
<polygon fill="midnightblue" stroke="midnightblue" points="1517.25,-137.59 1525.25,-130.64 1514.66,-131.08 1517.25,-137.59"/>
</g>
<!-- Node6 -->
<g id="node6" class="node">
<title>Node6</title>
<g id="a_node6"><a xlink:title=" ">
<polygon fill="none" stroke="#bfbfbf" points="1582,-112.5 1582,-131.5 1627,-131.5 1627,-112.5 1582,-112.5"/>
<text text-anchor="middle" x="1604.5" y="-119.5" font-family="Helvetica,sans-Serif" font-size="10.00">utility</text>
</a>
</g>
</g>
<!-- Node1&#45;&gt;Node6 -->
<g id="edge5" class="edge">
<title>Node1&#45;&gt;Node6</title>
<path fill="none" stroke="midnightblue" d="M1439.96,-168.43C1471.05,-159.95 1520.22,-146.5 1572.07,-132.11"/>
<polygon fill="midnightblue" stroke="midnightblue" points="1573.08,-135.46 1581.78,-129.41 1571.21,-128.71 1573.08,-135.46"/>
</g>
<!-- Node7 -->
<g id="node7" class="node">
<title>Node7</title>
<g id="a_node7"><a xlink:title=" ">
<polygon fill="none" stroke="#bfbfbf" points="1386,-0.5 1386,-19.5 1433,-19.5 1433,-0.5 1386,-0.5"/>
<text text-anchor="middle" x="1409.5" y="-7.5" font-family="Helvetica,sans-Serif" font-size="10.00">vector</text>
</a>
</g>
</g>
<!-- Node1&#45;&gt;Node7 -->
<g id="edge6" class="edge">
<title>Node1&#45;&gt;Node7</title>
<path fill="none" stroke="midnightblue" d="M1408.55,-168.08C1408.71,-141.95 1409.17,-65.21 1409.39,-29.58"/>
<polygon fill="midnightblue" stroke="midnightblue" points="1412.89,-29.59 1409.45,-19.57 1405.89,-29.55 1412.89,-29.59"/>
</g>
<!-- Node8 -->
<g id="node8" class="node">
<title>Node8</title>
<g id="a_node8"><a xlink:href="cache_8h.html" target="_top" xlink:title=" ">
<polygon fill="none" stroke="black" points="811.5,-112.5 811.5,-131.5 865.5,-131.5 865.5,-112.5 811.5,-112.5"/>
<text text-anchor="middle" x="838.5" y="-119.5" font-family="Helvetica,sans-Serif" font-size="10.00">cache.h</text>
</a>
</g>
</g>
<!-- Node1&#45;&gt;Node8 -->
<g id="edge7" class="edge">
<title>Node1&#45;&gt;Node8</title>
<path fill="none" stroke="midnightblue" d="M1339.46,-170.46C1218.02,-158.95 970.15,-135.47 875.96,-126.55"/>
<polygon fill="midnightblue" stroke="midnightblue" points="876.05,-123.04 865.77,-125.58 875.39,-130.01 876.05,-123.04"/>
</g>
<!-- Node27 -->
<g id="node27" class="node">
<title>Node27</title>
<g id="a_node27"><a xlink:href="msl_2bits_8h.html" target="_top" xlink:title=" ">
<polygon fill="none" stroke="black" points="95,-56.5 95,-75.5 160,-75.5 160,-56.5 95,-56.5"/>
<text text-anchor="middle" x="127.5" y="-63.5" font-family="Helvetica,sans-Serif" font-size="10.00">msl/bits.h</text>
</a>
</g>
</g>
<!-- Node1&#45;&gt;Node27 -->
<g id="edge32" class="edge">
<title>Node1&#45;&gt;Node27</title>
<path fill="none" stroke="midnightblue" d="M1339.31,-175.4C1202.38,-171.67 901.56,-160.41 802.5,-132 784.15,-126.74 782.88,-117.14 764.5,-112 512.58,-41.61 433.98,-110.07 170.68,-75.92"/>
<polygon fill="midnightblue" stroke="midnightblue" points="170.81,-72.4 160.43,-74.55 169.88,-79.34 170.81,-72.4"/>
</g>
<!-- Node8&#45;&gt;Node3 -->
<g id="edge8" class="edge">
<title>Node8&#45;&gt;Node3</title>
<path fill="none" stroke="midnightblue" d="M865.56,-121.04C951.93,-120.76 1219.77,-116.55 1294.5,-76 1314.09,-65.37 1328.95,-43.96 1337.67,-28.61"/>
<polygon fill="midnightblue" stroke="midnightblue" points="1340.87,-30.05 1342.5,-19.58 1334.69,-26.75 1340.87,-30.05"/>
</g>
<!-- Node8&#45;&gt;Node7 -->
<g id="edge14" class="edge">
<title>Node8&#45;&gt;Node7</title>
<path fill="none" stroke="midnightblue" d="M865.68,-120.33C954.51,-117.85 1235.29,-107.64 1319.5,-76 1348.65,-65.05 1376.85,-42.03 1393.69,-26.54"/>
<polygon fill="midnightblue" stroke="midnightblue" points="1396.14,-29.04 1401,-19.62 1391.33,-23.95 1396.14,-29.04"/>
</g>
<!-- Node9 -->
<g id="node9" class="node">
<title>Node9</title>
<g id="a_node9"><a xlink:title=" ">
<polygon fill="none" stroke="#bfbfbf" points="178.5,-56.5 178.5,-75.5 222.5,-75.5 222.5,-56.5 178.5,-56.5"/>
<text text-anchor="middle" x="200.5" y="-63.5" font-family="Helvetica,sans-Serif" font-size="10.00">bitset</text>
</a>
</g>
</g>
<!-- Node8&#45;&gt;Node9 -->
<g id="edge9" class="edge">
<title>Node8&#45;&gt;Node9</title>
<path fill="none" stroke="midnightblue" d="M811.26,-114.41C806.69,-113.48 801.97,-112.63 797.5,-112 551.19,-77.34 481.63,-118.29 232.78,-75.83"/>
<polygon fill="midnightblue" stroke="midnightblue" points="233.16,-72.34 222.71,-74.08 231.97,-79.24 233.16,-72.34"/>
</g>
<!-- Node10 -->
<g id="node10" class="node">
<title>Node10</title>
<g id="a_node10"><a xlink:title=" ">
<polygon fill="none" stroke="#bfbfbf" points="1086,-0.5 1086,-19.5 1133,-19.5 1133,-0.5 1086,-0.5"/>
<text text-anchor="middle" x="1109.5" y="-7.5" font-family="Helvetica,sans-Serif" font-size="10.00">deque</text>
</a>
</g>
</g>
<!-- Node8&#45;&gt;Node10 -->
<g id="edge10" class="edge">
<title>Node8&#45;&gt;Node10</title>
<path fill="none" stroke="midnightblue" d="M865.52,-121.71C938.05,-122.98 1134.24,-122.01 1174.5,-76 1190.99,-57.15 1162.83,-36.98 1138.57,-24.2"/>
<polygon fill="midnightblue" stroke="midnightblue" points="1140.07,-21.03 1129.56,-19.68 1136.93,-27.29 1140.07,-21.03"/>
</g>
<!-- Node11 -->
<g id="node11" class="node">
<title>Node11</title>
<g id="a_node11"><a xlink:title=" ">
<polygon fill="none" stroke="#bfbfbf" points="240.5,-56.5 240.5,-75.5 298.5,-75.5 298.5,-56.5 240.5,-56.5"/>
<text text-anchor="middle" x="269.5" y="-63.5" font-family="Helvetica,sans-Serif" font-size="10.00">memory</text>
</a>
</g>
</g>
<!-- Node8&#45;&gt;Node11 -->
<g id="edge11" class="edge">
<title>Node8&#45;&gt;Node11</title>
<path fill="none" stroke="midnightblue" d="M811.25,-114.45C806.68,-113.52 801.97,-112.65 797.5,-112 585.12,-81.03 525.76,-107.76 308.91,-75.78"/>
<polygon fill="midnightblue" stroke="midnightblue" points="309.2,-72.29 298.79,-74.27 308.16,-79.21 309.2,-72.29"/>
</g>
<!-- Node12 -->
<g id="node12" class="node">
<title>Node12</title>
<g id="a_node12"><a xlink:title=" ">
<polygon fill="none" stroke="#bfbfbf" points="317,-56.5 317,-75.5 382,-75.5 382,-56.5 317,-56.5"/>
<text text-anchor="middle" x="349.5" y="-63.5" font-family="Helvetica,sans-Serif" font-size="10.00">stdexcept</text>
</a>
</g>
</g>
<!-- Node8&#45;&gt;Node12 -->
<g id="edge12" class="edge">
<title>Node8&#45;&gt;Node12</title>
<path fill="none" stroke="midnightblue" d="M811.24,-114.51C806.67,-113.57 801.97,-112.69 797.5,-112 621.68,-85.02 572.4,-102.38 392.51,-75.96"/>
<polygon fill="midnightblue" stroke="midnightblue" points="392.85,-72.47 382.44,-74.46 391.82,-79.4 392.85,-72.47"/>
</g>
<!-- Node13 -->
<g id="node13" class="node">
<title>Node13</title>
<g id="a_node13"><a xlink:title=" ">
<polygon fill="none" stroke="#bfbfbf" points="400.5,-56.5 400.5,-75.5 444.5,-75.5 444.5,-56.5 400.5,-56.5"/>
<text text-anchor="middle" x="422.5" y="-63.5" font-family="Helvetica,sans-Serif" font-size="10.00">string</text>
</a>
</g>
</g>
<!-- Node8&#45;&gt;Node13 -->
<g id="edge13" class="edge">
<title>Node8&#45;&gt;Node13</title>
<path fill="none" stroke="midnightblue" d="M811.23,-114.57C806.67,-113.62 801.96,-112.72 797.5,-112 649.44,-88.06 606.86,-104.13 454.93,-75.72"/>
<polygon fill="midnightblue" stroke="midnightblue" points="455.24,-72.22 444.76,-73.78 453.93,-79.09 455.24,-72.22"/>
</g>
<!-- Node14 -->
<g id="node14" class="node">
<title>Node14</title>
<g id="a_node14"><a xlink:href="champsim_8h.html" target="_top" xlink:title=" ">
<polygon fill="none" stroke="black" points="0,-56.5 0,-75.5 77,-75.5 77,-56.5 0,-56.5"/>
<text text-anchor="middle" x="38.5" y="-63.5" font-family="Helvetica,sans-Serif" font-size="10.00">champsim.h</text>
</a>
</g>
</g>
<!-- Node8&#45;&gt;Node14 -->
<g id="edge15" class="edge">
<title>Node8&#45;&gt;Node14</title>
<path fill="none" stroke="midnightblue" d="M811.48,-117.27C797.49,-115.45 780.1,-113.36 764.5,-112 466.82,-86.04 387.27,-111.91 87.46,-76.08"/>
<polygon fill="midnightblue" stroke="midnightblue" points="87.51,-72.56 77.16,-74.84 86.67,-79.51 87.51,-72.56"/>
</g>
<!-- Node17 -->
<g id="node17" class="node">
<title>Node17</title>
<g id="a_node17"><a xlink:title=" ">
<polygon fill="none" stroke="#bfbfbf" points="463,-56.5 463,-75.5 592,-75.5 592,-56.5 463,-56.5"/>
<text text-anchor="middle" x="527.5" y="-63.5" font-family="Helvetica,sans-Serif" font-size="10.00">champsim_constants.h</text>
</a>
</g>
</g>
<!-- Node8&#45;&gt;Node17 -->
<g id="edge18" class="edge">
<title>Node8&#45;&gt;Node17</title>
<path fill="none" stroke="midnightblue" d="M811.19,-114.8C806.63,-113.83 801.94,-112.86 797.5,-112 728.21,-98.63 648.45,-85.63 593.68,-77.07"/>
<polygon fill="midnightblue" stroke="midnightblue" points="594.18,-73.6 583.76,-75.52 593.1,-80.52 594.18,-73.6"/>
</g>
<!-- Node18 -->
<g id="node18" class="node">
<title>Node18</title>
<g id="a_node18"><a xlink:href="channel_8h.html" target="_top" xlink:title=" ">
<polygon fill="none" stroke="black" points="1221.5,-56.5 1221.5,-75.5 1285.5,-75.5 1285.5,-56.5 1221.5,-56.5"/>
<text text-anchor="middle" x="1253.5" y="-63.5" font-family="Helvetica,sans-Serif" font-size="10.00">channel.h</text>
</a>
</g>
</g>
<!-- Node8&#45;&gt;Node18 -->
<g id="edge19" class="edge">
<title>Node8&#45;&gt;Node18</title>
<path fill="none" stroke="midnightblue" d="M865.91,-118.34C927.27,-112.23 1080.34,-96.17 1207.5,-76 1208.77,-75.8 1210.05,-75.59 1211.35,-75.37"/>
<polygon fill="midnightblue" stroke="midnightblue" points="1212.15,-78.78 1221.38,-73.59 1210.92,-71.89 1212.15,-78.78"/>
</g>
<!-- Node22 -->
<g id="node22" class="node">
<title>Node22</title>
<g id="a_node22"><a xlink:href="module__impl_8h.html" target="_top" xlink:title=" ">
<polygon fill="none" stroke="black" points="610,-56.5 610,-75.5 699,-75.5 699,-56.5 610,-56.5"/>
<text text-anchor="middle" x="654.5" y="-63.5" font-family="Helvetica,sans-Serif" font-size="10.00">module_impl.h</text>
</a>
</g>
</g>
<!-- Node8&#45;&gt;Node22 -->
<g id="edge27" class="edge">
<title>Node8&#45;&gt;Node22</title>
<path fill="none" stroke="midnightblue" d="M811.35,-113.03C780.23,-103.9 728.98,-88.86 693.57,-78.47"/>
<polygon fill="midnightblue" stroke="midnightblue" points="694.17,-74.99 683.59,-75.54 692.2,-81.71 694.17,-74.99"/>
</g>
<!-- Node23 -->
<g id="node23" class="node">
<title>Node23</title>
<g id="a_node23"><a xlink:href="operable_8h.html" target="_top" xlink:title=" ">
<polygon fill="none" stroke="black" points="717.5,-56.5 717.5,-75.5 785.5,-75.5 785.5,-56.5 717.5,-56.5"/>
<text text-anchor="middle" x="751.5" y="-63.5" font-family="Helvetica,sans-Serif" font-size="10.00">operable.h</text>
</a>
</g>
</g>
<!-- Node8&#45;&gt;Node23 -->
<g id="edge28" class="edge">
<title>Node8&#45;&gt;Node23</title>
<path fill="none" stroke="midnightblue" d="M824.52,-112.32C810.95,-103.9 790.12,-90.97 774.18,-81.07"/>
<polygon fill="midnightblue" stroke="midnightblue" points="775.79,-77.95 765.44,-75.65 772.09,-83.9 775.79,-77.95"/>
</g>
<!-- Node24 -->
<g id="node24" class="node">
<title>Node24</title>
<g id="a_node24"><a xlink:title=" ">
<polygon fill="none" stroke="#bfbfbf" points="804,-56.5 804,-75.5 873,-75.5 873,-56.5 804,-56.5"/>
<text text-anchor="middle" x="838.5" y="-63.5" font-family="Helvetica,sans-Serif" font-size="10.00">type_traits</text>
</a>
</g>
</g>
<!-- Node8&#45;&gt;Node24 -->
<g id="edge29" class="edge">
<title>Node8&#45;&gt;Node24</title>
<path fill="none" stroke="midnightblue" d="M838.5,-112.08C838.5,-105.01 838.5,-94.86 838.5,-85.99"/>
<polygon fill="midnightblue" stroke="midnightblue" points="842,-85.75 838.5,-75.75 835,-85.75 842,-85.75"/>
</g>
<!-- Node25 -->
<g id="node25" class="node">
<title>Node25</title>
<g id="a_node25"><a xlink:title=" ">
<polygon fill="none" stroke="#bfbfbf" points="891.5,-56.5 891.5,-75.5 1021.5,-75.5 1021.5,-56.5 891.5,-56.5"/>
<text text-anchor="middle" x="956.5" y="-63.5" font-family="Helvetica,sans-Serif" font-size="10.00">cache_module_decl.inc</text>
</a>
</g>
</g>
<!-- Node8&#45;&gt;Node25 -->
<g id="edge30" class="edge">
<title>Node8&#45;&gt;Node25</title>
<path fill="none" stroke="midnightblue" d="M857.2,-112.44C876.44,-103.64 906.65,-89.81 928.7,-79.72"/>
<polygon fill="midnightblue" stroke="midnightblue" points="930.25,-82.86 937.89,-75.52 927.34,-76.5 930.25,-82.86"/>
</g>
<!-- Node26 -->
<g id="node26" class="node">
<title>Node26</title>
<g id="a_node26"><a xlink:title=" ">
<polygon fill="none" stroke="#bfbfbf" points="1040,-56.5 1040,-75.5 1165,-75.5 1165,-56.5 1040,-56.5"/>
<text text-anchor="middle" x="1102.5" y="-63.5" font-family="Helvetica,sans-Serif" font-size="10.00">cache_module_def.inc</text>
</a>
</g>
</g>
<!-- Node8&#45;&gt;Node26 -->
<g id="edge31" class="edge">
<title>Node8&#45;&gt;Node26</title>
<path fill="none" stroke="midnightblue" d="M865.76,-115.42C909.29,-106.52 995.24,-88.94 1050.72,-77.59"/>
<polygon fill="midnightblue" stroke="midnightblue" points="1051.62,-80.98 1060.71,-75.55 1050.21,-74.12 1051.62,-80.98"/>
</g>
<!-- Node15 -->
<g id="node15" class="node">
<title>Node15</title>
<g id="a_node15"><a xlink:title=" ">
<polygon fill="none" stroke="#bfbfbf" points="102.5,-0.5 102.5,-19.5 152.5,-19.5 152.5,-0.5 102.5,-0.5"/>
<text text-anchor="middle" x="127.5" y="-7.5" font-family="Helvetica,sans-Serif" font-size="10.00">cstdint</text>
</a>
</g>
</g>
<!-- Node14&#45;&gt;Node15 -->
<g id="edge16" class="edge">
<title>Node14&#45;&gt;Node15</title>
<path fill="none" stroke="midnightblue" d="M52.8,-56.32C66.68,-47.9 87.99,-34.97 104.3,-25.07"/>
<polygon fill="midnightblue" stroke="midnightblue" points="106.5,-27.83 113.24,-19.65 102.87,-21.85 106.5,-27.83"/>
</g>
<!-- Node16 -->
<g id="node16" class="node">
<title>Node16</title>
<g id="a_node16"><a xlink:title=" ">
<polygon fill="none" stroke="#bfbfbf" points="6,-0.5 6,-19.5 71,-19.5 71,-0.5 6,-0.5"/>
<text text-anchor="middle" x="38.5" y="-7.5" font-family="Helvetica,sans-Serif" font-size="10.00">exception</text>
</a>
</g>
</g>
<!-- Node14&#45;&gt;Node16 -->
<g id="edge17" class="edge">
<title>Node14&#45;&gt;Node16</title>
<path fill="none" stroke="midnightblue" d="M38.5,-56.08C38.5,-49.01 38.5,-38.86 38.5,-29.99"/>
<polygon fill="midnightblue" stroke="midnightblue" points="42,-29.75 38.5,-19.75 35,-29.75 42,-29.75"/>
</g>
<!-- Node18&#45;&gt;Node3 -->
<g id="edge20" class="edge">
<title>Node18&#45;&gt;Node3</title>
<path fill="none" stroke="midnightblue" d="M1268.44,-56.32C1283.09,-47.82 1305.63,-34.73 1322.74,-24.8"/>
<polygon fill="midnightblue" stroke="midnightblue" points="1324.7,-27.7 1331.6,-19.65 1321.19,-21.65 1324.7,-27.7"/>
</g>
<!-- Node18&#45;&gt;Node7 -->
<g id="edge25" class="edge">
<title>Node18&#45;&gt;Node7</title>
<path fill="none" stroke="midnightblue" d="M1278.22,-56.44C1304.66,-47.29 1346.74,-32.73 1376.11,-22.56"/>
<polygon fill="midnightblue" stroke="midnightblue" points="1377.61,-25.74 1385.92,-19.16 1375.32,-19.13 1377.61,-25.74"/>
</g>
<!-- Node18&#45;&gt;Node10 -->
<g id="edge22" class="edge">
<title>Node18&#45;&gt;Node10</title>
<path fill="none" stroke="midnightblue" d="M1230.68,-56.44C1206.67,-47.44 1168.67,-33.19 1141.63,-23.05"/>
<polygon fill="midnightblue" stroke="midnightblue" points="1142.8,-19.75 1132.21,-19.52 1140.34,-26.3 1142.8,-19.75"/>
</g>
<!-- Node18&#45;&gt;Node15 -->
<g id="edge21" class="edge">
<title>Node18&#45;&gt;Node15</title>
<path fill="none" stroke="midnightblue" d="M1221.26,-60.81C1206.96,-59.08 1189.91,-57.21 1174.5,-56 778.43,-24.97 296.27,-14.13 163.06,-11.62"/>
<polygon fill="midnightblue" stroke="midnightblue" points="162.72,-8.11 152.66,-11.43 162.59,-15.11 162.72,-8.11"/>
</g>
<!-- Node19 -->
<g id="node19" class="node">
<title>Node19</title>
<g id="a_node19"><a xlink:title=" ">
<polygon fill="none" stroke="#bfbfbf" points="1151,-0.5 1151,-19.5 1216,-19.5 1216,-0.5 1151,-0.5"/>
<text text-anchor="middle" x="1183.5" y="-7.5" font-family="Helvetica,sans-Serif" font-size="10.00">functional</text>
</a>
</g>
</g>
<!-- Node18&#45;&gt;Node19 -->
<g id="edge23" class="edge">
<title>Node18&#45;&gt;Node19</title>
<path fill="none" stroke="midnightblue" d="M1242.25,-56.32C1231.7,-48.18 1215.7,-35.84 1203.06,-26.09"/>
<polygon fill="midnightblue" stroke="midnightblue" points="1205.01,-23.17 1194.95,-19.83 1200.73,-28.71 1205.01,-23.17"/>
</g>
<!-- Node20 -->
<g id="node20" class="node">
<title>Node20</title>
<g id="a_node20"><a xlink:title=" ">
<polygon fill="none" stroke="#bfbfbf" points="605.5,-0.5 605.5,-19.5 649.5,-19.5 649.5,-0.5 605.5,-0.5"/>
<text text-anchor="middle" x="627.5" y="-7.5" font-family="Helvetica,sans-Serif" font-size="10.00">limits</text>
</a>
</g>
</g>
<!-- Node18&#45;&gt;Node20 -->
<g id="edge24" class="edge">
<title>Node18&#45;&gt;Node20</title>
<path fill="none" stroke="midnightblue" d="M1221.24,-61.09C1206.93,-59.42 1189.89,-57.51 1174.5,-56 979.2,-36.85 744.13,-19.39 659.66,-13.29"/>
<polygon fill="midnightblue" stroke="midnightblue" points="659.89,-9.8 649.67,-12.57 659.39,-16.78 659.89,-9.8"/>
</g>
<!-- Node21 -->
<g id="node21" class="node">
<title>Node21</title>
<g id="a_node21"><a xlink:title=" ">
<polygon fill="none" stroke="#bfbfbf" points="1234,-0.5 1234,-19.5 1307,-19.5 1307,-0.5 1234,-0.5"/>
<text text-anchor="middle" x="1270.5" y="-7.5" font-family="Helvetica,sans-Serif" font-size="10.00">string_view</text>
</a>
</g>
</g>
<!-- Node18&#45;&gt;Node21 -->
<g id="edge26" class="edge">
<title>Node18&#45;&gt;Node21</title>
<path fill="none" stroke="midnightblue" d="M1256.31,-56.08C1258.58,-48.85 1261.87,-38.41 1264.71,-29.4"/>
<polygon fill="midnightblue" stroke="midnightblue" points="1268.08,-30.34 1267.75,-19.75 1261.4,-28.24 1268.08,-30.34"/>
</g>
<!-- Node27&#45;&gt;Node15 -->
<g id="edge33" class="edge">
<title>Node27&#45;&gt;Node15</title>
<path fill="none" stroke="midnightblue" d="M127.5,-56.08C127.5,-49.01 127.5,-38.86 127.5,-29.99"/>
<polygon fill="midnightblue" stroke="midnightblue" points="131,-29.75 127.5,-19.75 124,-29.75 131,-29.75"/>
</g>
<!-- Node27&#45;&gt;Node20 -->
<g id="edge34" class="edge">
<title>Node27&#45;&gt;Node20</title>
<path fill="none" stroke="midnightblue" d="M160.45,-57.57C163.5,-56.99 166.55,-56.46 169.5,-56 328.27,-31.27 520.23,-17.62 595.26,-12.91"/>
<polygon fill="midnightblue" stroke="midnightblue" points="595.7,-16.39 605.46,-12.28 595.26,-9.4 595.7,-16.39"/>
</g>
</g>
</svg>
