<?xml version="1.0" encoding="UTF-8" standalone="no"?>
<!DOCTYPE svg PUBLIC "-//W3C//DTD SVG 1.1//EN"
 "http://www.w3.org/Graphics/SVG/1.1/DTD/svg11.dtd">
<!-- Generated by graphviz version 2.43.0 (0)
 -->
<!-- Title: inc/util/span.h Pages: 1 -->
<svg width="681pt" height="162pt"
 viewBox="0.00 0.00 680.50 162.00" xmlns="http://www.w3.org/2000/svg" xmlns:xlink="http://www.w3.org/1999/xlink">
<g id="graph0" class="graph" transform="scale(1 1) rotate(0) translate(4 158)">
<title>inc/util/span.h</title>
<!-- Node1 -->
<g id="node1" class="node">
<title>Node1</title>
<g id="a_node1"><a xlink:title=" ">
<polygon fill="#bfbfbf" stroke="black" points="309.5,-134.5 309.5,-153.5 394.5,-153.5 394.5,-134.5 309.5,-134.5"/>
<text text-anchor="middle" x="352" y="-141.5" font-family="Helvetica,sans-Serif" font-size="10.00">inc/util/span.h</text>
</a>
</g>
</g>
<!-- Node2 -->
<g id="node2" class="node">
<title>Node2</title>
<g id="a_node2"><a xlink:href="algorithm_8h.html" target="_top" xlink:title=" ">
<polygon fill="none" stroke="black" points="100.5,-73 100.5,-92 209.5,-92 209.5,-73 100.5,-73"/>
<text text-anchor="middle" x="155" y="-80" font-family="Helvetica,sans-Serif" font-size="10.00">inc/util/algorithm.h</text>
</a>
</g>
</g>
<!-- Node1&#45;&gt;Node2 -->
<g id="edge1" class="edge">
<title>Node1&#45;&gt;Node2</title>
<path fill="none" stroke="midnightblue" d="M314.02,-131.53C275.73,-119.96 217.53,-102.38 183.17,-92.01"/>
<polygon fill="midnightblue" stroke="midnightblue" points="313.19,-134.93 323.77,-134.48 315.21,-128.23 313.19,-134.93"/>
</g>
<!-- Node3 -->
<g id="node3" class="node">
<title>Node3</title>
<g id="a_node3"><a xlink:href="cache_8cc.html" target="_top" xlink:title=" ">
<polygon fill="none" stroke="black" points="0,-6 0,-25 76,-25 76,-6 0,-6"/>
<text text-anchor="middle" x="38" y="-13" font-family="Helvetica,sans-Serif" font-size="10.00">src/cache.cc</text>
</a>
</g>
</g>
<!-- Node1&#45;&gt;Node3 -->
<g id="edge5" class="edge">
<title>Node1&#45;&gt;Node3</title>
<path fill="none" stroke="midnightblue" d="M299.04,-138.87C232.91,-132.88 124.4,-120 91,-98 63.51,-79.9 47.15,-42.08 40.91,-25.09"/>
<polygon fill="midnightblue" stroke="midnightblue" points="299,-142.38 309.27,-139.78 299.62,-135.41 299,-142.38"/>
</g>
<!-- Node6 -->
<g id="node6" class="node">
<title>Node6</title>
<g id="a_node6"><a xlink:href="dram__controller_8cc.html" target="_top" xlink:title=" ">
<polygon fill="none" stroke="black" points="228,-73 228,-92 352,-92 352,-73 228,-73"/>
<text text-anchor="middle" x="290" y="-80" font-family="Helvetica,sans-Serif" font-size="10.00">src/dram_controller.cc</text>
</a>
</g>
</g>
<!-- Node1&#45;&gt;Node6 -->
<g id="edge6" class="edge">
<title>Node1&#45;&gt;Node6</title>
<path fill="none" stroke="midnightblue" d="M335.67,-127.32C323.89,-116.02 308.44,-101.19 298.87,-92.01"/>
<polygon fill="midnightblue" stroke="midnightblue" points="333.48,-130.08 343.12,-134.48 338.33,-125.03 333.48,-130.08"/>
</g>
<!-- Node7 -->
<g id="node7" class="node">
<title>Node7</title>
<g id="a_node7"><a xlink:href="ooo__cpu_8cc.html" target="_top" xlink:title=" ">
<polygon fill="none" stroke="black" points="370,-73 370,-92 458,-92 458,-73 370,-73"/>
<text text-anchor="middle" x="414" y="-80" font-family="Helvetica,sans-Serif" font-size="10.00">src/ooo_cpu.cc</text>
</a>
</g>
</g>
<!-- Node1&#45;&gt;Node7 -->
<g id="edge7" class="edge">
<title>Node1&#45;&gt;Node7</title>
<path fill="none" stroke="midnightblue" d="M368.33,-127.32C380.11,-116.02 395.56,-101.19 405.13,-92.01"/>
<polygon fill="midnightblue" stroke="midnightblue" points="365.67,-125.03 360.88,-134.48 370.52,-130.08 365.67,-125.03"/>
</g>
<!-- Node8 -->
<g id="node8" class="node">
<title>Node8</title>
<g id="a_node8"><a xlink:href="ptw_8cc.html" target="_top" xlink:title=" ">
<polygon fill="none" stroke="black" points="476.5,-73 476.5,-92 541.5,-92 541.5,-73 476.5,-73"/>
<text text-anchor="middle" x="509" y="-80" font-family="Helvetica,sans-Serif" font-size="10.00">src/ptw.cc</text>
</a>
</g>
</g>
<!-- Node1&#45;&gt;Node8 -->
<g id="edge8" class="edge">
<title>Node1&#45;&gt;Node8</title>
<path fill="none" stroke="midnightblue" d="M384.24,-130.78C414.75,-119.22 459.75,-102.16 486.55,-92.01"/>
<polygon fill="midnightblue" stroke="midnightblue" points="382.6,-127.66 374.49,-134.48 385.09,-134.2 382.6,-127.66"/>
</g>
<!-- Node9 -->
<g id="node9" class="node">
<title>Node9</title>
<g id="a_node9"><a xlink:href="042-get-span_8cc.html" target="_top" xlink:title=" ">
<polygon fill="none" stroke="black" points="559.5,-67.5 559.5,-97.5 672.5,-97.5 672.5,-67.5 559.5,-67.5"/>
<text text-anchor="start" x="567.5" y="-85.5" font-family="Helvetica,sans-Serif" font-size="10.00">test/cpp/src/042&#45;get</text>
<text text-anchor="middle" x="616" y="-74.5" font-family="Helvetica,sans-Serif" font-size="10.00">&#45;span.cc</text>
</a>
</g>
</g>
<!-- Node1&#45;&gt;Node9 -->
<g id="edge9" class="edge">
<title>Node1&#45;&gt;Node9</title>
<path fill="none" stroke="midnightblue" d="M399.6,-132.27C444.45,-122.16 511.69,-107.01 559.3,-96.28"/>
<polygon fill="midnightblue" stroke="midnightblue" points="398.81,-128.86 389.82,-134.48 400.35,-135.69 398.81,-128.86"/>
</g>
<!-- Node2&#45;&gt;Node3 -->
<g id="edge2" class="edge">
<title>Node2&#45;&gt;Node3</title>
<path fill="none" stroke="midnightblue" d="M130.32,-67.79C107.13,-54.9 73.14,-36.02 53.53,-25.13"/>
<polygon fill="midnightblue" stroke="midnightblue" points="128.78,-70.94 139.22,-72.73 132.18,-64.82 128.78,-70.94"/>
</g>
<!-- Node4 -->
<g id="node4" class="node">
<title>Node4</title>
<g id="a_node4"><a xlink:href="044-extract_8cc.html" target="_top" xlink:title=" ">
<polygon fill="none" stroke="black" points="94,-6 94,-25 240,-25 240,-6 94,-6"/>
<text text-anchor="middle" x="167" y="-13" font-family="Helvetica,sans-Serif" font-size="10.00">test/cpp/src/044&#45;extract.cc</text>
</a>
</g>
</g>
<!-- Node2&#45;&gt;Node4 -->
<g id="edge3" class="edge">
<title>Node2&#45;&gt;Node4</title>
<path fill="none" stroke="midnightblue" d="M158.5,-62.54C160.78,-50.17 163.65,-34.62 165.41,-25.13"/>
<polygon fill="midnightblue" stroke="midnightblue" points="154.99,-62.26 156.62,-72.73 161.88,-63.54 154.99,-62.26"/>
</g>
<!-- Node5 -->
<g id="node5" class="node">
<title>Node5</title>
<g id="a_node5"><a xlink:href="045-transform-while-n_8cc.html" target="_top" xlink:title=" ">
<polygon fill="none" stroke="black" points="258,-0.5 258,-30.5 404,-30.5 404,-0.5 258,-0.5"/>
<text text-anchor="start" x="266" y="-18.5" font-family="Helvetica,sans-Serif" font-size="10.00">test/cpp/src/045&#45;transform</text>
<text text-anchor="middle" x="331" y="-7.5" font-family="Helvetica,sans-Serif" font-size="10.00">&#45;while&#45;n.cc</text>
</a>
</g>
</g>
<!-- Node2&#45;&gt;Node5 -->
<g id="edge4" class="edge">
<title>Node2&#45;&gt;Node5</title>
<path fill="none" stroke="midnightblue" d="M187.91,-69.35C217.74,-58.33 261.7,-42.09 293.02,-30.53"/>
<polygon fill="midnightblue" stroke="midnightblue" points="186.54,-66.12 178.37,-72.87 188.96,-72.69 186.54,-66.12"/>
</g>
</g>
</svg>
