<?xml version="1.0" encoding="UTF-8" standalone="no"?>
<!DOCTYPE svg PUBLIC "-//W3C//DTD SVG 1.1//EN"
 "http://www.w3.org/Graphics/SVG/1.1/DTD/svg11.dtd">
<!-- Generated by graphviz version 2.43.0 (0)
 -->
<!-- Title: inc/stats_printer.h Pages: 1 -->
<svg width="328pt" height="84pt"
 viewBox="0.00 0.00 328.00 84.00" xmlns="http://www.w3.org/2000/svg" xmlns:xlink="http://www.w3.org/1999/xlink">
<g id="graph0" class="graph" transform="scale(1 1) rotate(0) translate(4 80)">
<title>inc/stats_printer.h</title>
<!-- Node1 -->
<g id="node1" class="node">
<title>Node1</title>
<g id="a_node1"><a xlink:title=" ">
<polygon fill="#bfbfbf" stroke="black" points="106,-56.5 106,-75.5 210,-75.5 210,-56.5 106,-56.5"/>
<text text-anchor="middle" x="158" y="-63.5" font-family="Helvetica,sans-Serif" font-size="10.00">inc/stats_printer.h</text>
</a>
</g>
</g>
<!-- Node2 -->
<g id="node2" class="node">
<title>Node2</title>
<g id="a_node2"><a xlink:href="json__printer_8cc.html" target="_top" xlink:title=" ">
<polygon fill="none" stroke="black" points="0,-0.5 0,-19.5 104,-19.5 104,-0.5 0,-0.5"/>
<text text-anchor="middle" x="52" y="-7.5" font-family="Helvetica,sans-Serif" font-size="10.00">src/json_printer.cc</text>
</a>
</g>
</g>
<!-- Node1&#45;&gt;Node2 -->
<g id="edge1" class="edge">
<title>Node1&#45;&gt;Node2</title>
<path fill="none" stroke="midnightblue" d="M131.94,-51.73C112.32,-41.73 85.97,-28.31 68.99,-19.65"/>
<polygon fill="midnightblue" stroke="midnightblue" points="130.47,-54.9 140.97,-56.32 133.65,-48.67 130.47,-54.9"/>
</g>
<!-- Node3 -->
<g id="node3" class="node">
<title>Node3</title>
<g id="a_node3"><a xlink:href="main_8cc.html" target="_top" xlink:title=" ">
<polygon fill="none" stroke="black" points="122,-0.5 122,-19.5 194,-19.5 194,-0.5 122,-0.5"/>
<text text-anchor="middle" x="158" y="-7.5" font-family="Helvetica,sans-Serif" font-size="10.00">src/main.cc</text>
</a>
</g>
</g>
<!-- Node1&#45;&gt;Node3 -->
<g id="edge2" class="edge">
<title>Node1&#45;&gt;Node3</title>
<path fill="none" stroke="midnightblue" d="M158,-45.8C158,-36.91 158,-26.78 158,-19.75"/>
<polygon fill="midnightblue" stroke="midnightblue" points="154.5,-46.08 158,-56.08 161.5,-46.08 154.5,-46.08"/>
</g>
<!-- Node4 -->
<g id="node4" class="node">
<title>Node4</title>
<g id="a_node4"><a xlink:href="plain__printer_8cc.html" target="_top" xlink:title=" ">
<polygon fill="none" stroke="black" points="212,-0.5 212,-19.5 320,-19.5 320,-0.5 212,-0.5"/>
<text text-anchor="middle" x="266" y="-7.5" font-family="Helvetica,sans-Serif" font-size="10.00">src/plain_printer.cc</text>
</a>
</g>
</g>
<!-- Node1&#45;&gt;Node4 -->
<g id="edge3" class="edge">
<title>Node1&#45;&gt;Node4</title>
<path fill="none" stroke="midnightblue" d="M184.55,-51.73C204.55,-41.73 231.39,-28.31 248.69,-19.65"/>
<polygon fill="midnightblue" stroke="midnightblue" points="182.73,-48.72 175.35,-56.32 185.86,-54.98 182.73,-48.72"/>
</g>
</g>
</svg>
