<?xml version="1.0" encoding="UTF-8" standalone="no"?>
<!DOCTYPE svg PUBLIC "-//W3C//DTD SVG 1.1//EN"
 "http://www.w3.org/Graphics/SVG/1.1/DTD/svg11.dtd">
<!-- Generated by graphviz version 2.43.0 (0)
 -->
<!-- Title: inc/stats_printer.h Pages: 1 -->
<svg width="2318pt" height="364pt"
 viewBox="0.00 0.00 2318.44 364.00" xmlns="http://www.w3.org/2000/svg" xmlns:xlink="http://www.w3.org/1999/xlink">
<g id="graph0" class="graph" transform="scale(1 1) rotate(0) translate(4 360)">
<title>inc/stats_printer.h</title>
<!-- Node1 -->
<g id="node1" class="node">
<title>Node1</title>
<g id="a_node1"><a xlink:title=" ">
<polygon fill="#bfbfbf" stroke="black" points="928.44,-336.5 928.44,-355.5 1032.44,-355.5 1032.44,-336.5 928.44,-336.5"/>
<text text-anchor="middle" x="980.44" y="-343.5" font-family="Helvetica,sans-Serif" font-size="10.00">inc/stats_printer.h</text>
</a>
</g>
</g>
<!-- Node2 -->
<g id="node2" class="node">
<title>Node2</title>
<g id="a_node2"><a xlink:title=" ">
<polygon fill="none" stroke="#bfbfbf" points="820.44,-280.5 820.44,-299.5 880.44,-299.5 880.44,-280.5 820.44,-280.5"/>
<text text-anchor="middle" x="850.44" y="-287.5" font-family="Helvetica,sans-Serif" font-size="10.00">iostream</text>
</a>
</g>
</g>
<!-- Node1&#45;&gt;Node2 -->
<g id="edge1" class="edge">
<title>Node1&#45;&gt;Node2</title>
<path fill="none" stroke="midnightblue" d="M959.84,-336.44C938.45,-327.56 904.76,-313.56 880.42,-303.45"/>
<polygon fill="midnightblue" stroke="midnightblue" points="881.52,-300.12 870.94,-299.52 878.84,-306.58 881.52,-300.12"/>
</g>
<!-- Node3 -->
<g id="node3" class="node">
<title>Node3</title>
<g id="a_node3"><a xlink:title=" ">
<polygon fill="none" stroke="#bfbfbf" points="1646.94,-56.5 1646.94,-75.5 1693.94,-75.5 1693.94,-56.5 1646.94,-56.5"/>
<text text-anchor="middle" x="1670.44" y="-63.5" font-family="Helvetica,sans-Serif" font-size="10.00">vector</text>
</a>
</g>
</g>
<!-- Node1&#45;&gt;Node3 -->
<g id="edge2" class="edge">
<title>Node1&#45;&gt;Node3</title>
<path fill="none" stroke="midnightblue" d="M1032.81,-342.89C1261.16,-333.09 2161.53,-288.27 2231.44,-188 2236.52,-180.71 2236.65,-175.2 2231.44,-168 2219.78,-151.89 2080.89,-116.16 2061.44,-112 1909.82,-79.56 1867.69,-99.56 1714.44,-76 1711.02,-75.47 1707.47,-74.86 1703.93,-74.21"/>
<polygon fill="midnightblue" stroke="midnightblue" points="1704.6,-70.77 1694.11,-72.29 1703.26,-77.64 1704.6,-70.77"/>
</g>
<!-- Node4 -->
<g id="node4" class="node">
<title>Node4</title>
<g id="a_node4"><a xlink:href="cache_8h.html" target="_top" xlink:title=" ">
<polygon fill="none" stroke="black" points="883.44,-224.5 883.44,-243.5 937.44,-243.5 937.44,-224.5 883.44,-224.5"/>
<text text-anchor="middle" x="910.44" y="-231.5" font-family="Helvetica,sans-Serif" font-size="10.00">cache.h</text>
</a>
</g>
</g>
<!-- Node1&#45;&gt;Node4 -->
<g id="edge3" class="edge">
<title>Node1&#45;&gt;Node4</title>
<path fill="none" stroke="midnightblue" d="M974.95,-336.37C963.45,-318.3 936.64,-276.18 921.45,-252.31"/>
<polygon fill="midnightblue" stroke="midnightblue" points="924.23,-250.15 915.91,-243.59 918.32,-253.91 924.23,-250.15"/>
</g>
<!-- Node24 -->
<g id="node24" class="node">
<title>Node24</title>
<g id="a_node24"><a xlink:href="dram__controller_8h.html" target="_top" xlink:title=" ">
<polygon fill="none" stroke="black" points="543.44,-224.5 543.44,-243.5 645.44,-243.5 645.44,-224.5 543.44,-224.5"/>
<text text-anchor="middle" x="594.44" y="-231.5" font-family="Helvetica,sans-Serif" font-size="10.00">dram_controller.h</text>
</a>
</g>
</g>
<!-- Node1&#45;&gt;Node24 -->
<g id="edge28" class="edge">
<title>Node1&#45;&gt;Node24</title>
<path fill="none" stroke="midnightblue" d="M971.25,-336.13C955.78,-321.74 922.9,-293.59 889.44,-280 812.87,-248.9 717.18,-239.09 655.93,-236.11"/>
<polygon fill="midnightblue" stroke="midnightblue" points="655.8,-232.6 645.66,-235.65 655.49,-239.59 655.8,-232.6"/>
</g>
<!-- Node27 -->
<g id="node27" class="node">
<title>Node27</title>
<g id="a_node27"><a xlink:href="ooo__cpu_8h.html" target="_top" xlink:title=" ">
<polygon fill="none" stroke="black" points="1282.44,-224.5 1282.44,-243.5 1348.44,-243.5 1348.44,-224.5 1282.44,-224.5"/>
<text text-anchor="middle" x="1315.44" y="-231.5" font-family="Helvetica,sans-Serif" font-size="10.00">ooo_cpu.h</text>
</a>
</g>
</g>
<!-- Node1&#45;&gt;Node27 -->
<g id="edge37" class="edge">
<title>Node1&#45;&gt;Node27</title>
<path fill="none" stroke="midnightblue" d="M1006.45,-336.46C1065.82,-316.97 1211.41,-269.16 1279.39,-246.84"/>
<polygon fill="midnightblue" stroke="midnightblue" points="1280.81,-250.06 1289.22,-243.61 1278.63,-243.4 1280.81,-250.06"/>
</g>
<!-- Node39 -->
<g id="node39" class="node">
<title>Node39</title>
<g id="a_node39"><a xlink:href="phase__info_8h.html" target="_top" xlink:title=" ">
<polygon fill="none" stroke="black" points="974.94,-280.5 974.94,-299.5 1053.94,-299.5 1053.94,-280.5 974.94,-280.5"/>
<text text-anchor="middle" x="1014.44" y="-287.5" font-family="Helvetica,sans-Serif" font-size="10.00">phase_info.h</text>
</a>
</g>
</g>
<!-- Node1&#45;&gt;Node39 -->
<g id="edge75" class="edge">
<title>Node1&#45;&gt;Node39</title>
<path fill="none" stroke="midnightblue" d="M986.06,-336.08C990.81,-328.53 997.76,-317.49 1003.59,-308.23"/>
<polygon fill="midnightblue" stroke="midnightblue" points="1006.56,-310.08 1008.93,-299.75 1000.64,-306.35 1006.56,-310.08"/>
</g>
<!-- Node4&#45;&gt;Node3 -->
<g id="edge10" class="edge">
<title>Node4&#45;&gt;Node3</title>
<path fill="none" stroke="midnightblue" d="M910.21,-224.28C910.35,-210.12 912.87,-182.27 929.44,-168 956.77,-144.47 1494.96,-85.69 1636.55,-70.58"/>
<polygon fill="midnightblue" stroke="midnightblue" points="1637.22,-74.03 1646.79,-69.49 1636.48,-67.07 1637.22,-74.03"/>
</g>
<!-- Node5 -->
<g id="node5" class="node">
<title>Node5</title>
<g id="a_node5"><a xlink:title=" ">
<polygon fill="none" stroke="#bfbfbf" points="856.44,-112.5 856.44,-131.5 898.44,-131.5 898.44,-112.5 856.44,-112.5"/>
<text text-anchor="middle" x="877.44" y="-119.5" font-family="Helvetica,sans-Serif" font-size="10.00">array</text>
</a>
</g>
</g>
<!-- Node4&#45;&gt;Node5 -->
<g id="edge4" class="edge">
<title>Node4&#45;&gt;Node5</title>
<path fill="none" stroke="midnightblue" d="M905.86,-224.26C901.36,-215.36 894.59,-201.04 890.44,-188 885.59,-172.73 882.17,-154.85 880.06,-141.71"/>
<polygon fill="midnightblue" stroke="midnightblue" points="883.48,-140.94 878.54,-131.57 876.56,-141.97 883.48,-140.94"/>
</g>
<!-- Node6 -->
<g id="node6" class="node">
<title>Node6</title>
<g id="a_node6"><a xlink:title=" ">
<polygon fill="none" stroke="#bfbfbf" points="1293.44,-168.5 1293.44,-187.5 1337.44,-187.5 1337.44,-168.5 1293.44,-168.5"/>
<text text-anchor="middle" x="1315.44" y="-175.5" font-family="Helvetica,sans-Serif" font-size="10.00">bitset</text>
</a>
</g>
</g>
<!-- Node4&#45;&gt;Node6 -->
<g id="edge5" class="edge">
<title>Node4&#45;&gt;Node6</title>
<path fill="none" stroke="midnightblue" d="M937.9,-231.23C998.58,-227 1148.71,-214.75 1283.14,-187.97"/>
<polygon fill="midnightblue" stroke="midnightblue" points="1284.09,-191.34 1293.2,-185.93 1282.7,-184.48 1284.09,-191.34"/>
</g>
<!-- Node7 -->
<g id="node7" class="node">
<title>Node7</title>
<g id="a_node7"><a xlink:title=" ">
<polygon fill="none" stroke="#bfbfbf" points="916.94,-112.5 916.94,-131.5 963.94,-131.5 963.94,-112.5 916.94,-112.5"/>
<text text-anchor="middle" x="940.44" y="-119.5" font-family="Helvetica,sans-Serif" font-size="10.00">deque</text>
</a>
</g>
</g>
<!-- Node4&#45;&gt;Node7 -->
<g id="edge6" class="edge">
<title>Node4&#45;&gt;Node7</title>
<path fill="none" stroke="midnightblue" d="M905.4,-224.3C898.7,-211.56 888.6,-187.24 896.44,-168 901.24,-156.23 910.77,-145.86 919.74,-138.05"/>
<polygon fill="midnightblue" stroke="midnightblue" points="922.09,-140.64 927.66,-131.63 917.69,-135.2 922.09,-140.64"/>
</g>
<!-- Node8 -->
<g id="node8" class="node">
<title>Node8</title>
<g id="a_node8"><a xlink:title=" ">
<polygon fill="none" stroke="#bfbfbf" points="1022.44,-168.5 1022.44,-187.5 1080.44,-187.5 1080.44,-168.5 1022.44,-168.5"/>
<text text-anchor="middle" x="1051.44" y="-175.5" font-family="Helvetica,sans-Serif" font-size="10.00">memory</text>
</a>
</g>
</g>
<!-- Node4&#45;&gt;Node8 -->
<g id="edge7" class="edge">
<title>Node4&#45;&gt;Node8</title>
<path fill="none" stroke="midnightblue" d="M932.78,-224.44C956.19,-215.48 993.18,-201.31 1019.63,-191.18"/>
<polygon fill="midnightblue" stroke="midnightblue" points="1021.12,-194.36 1029.2,-187.52 1018.61,-187.82 1021.12,-194.36"/>
</g>
<!-- Node9 -->
<g id="node9" class="node">
<title>Node9</title>
<g id="a_node9"><a xlink:title=" ">
<polygon fill="none" stroke="#bfbfbf" points="938.94,-168.5 938.94,-187.5 1003.94,-187.5 1003.94,-168.5 938.94,-168.5"/>
<text text-anchor="middle" x="971.44" y="-175.5" font-family="Helvetica,sans-Serif" font-size="10.00">stdexcept</text>
</a>
</g>
</g>
<!-- Node4&#45;&gt;Node9 -->
<g id="edge8" class="edge">
<title>Node4&#45;&gt;Node9</title>
<path fill="none" stroke="midnightblue" d="M920.24,-224.32C929.26,-216.34 942.85,-204.31 953.76,-194.65"/>
<polygon fill="midnightblue" stroke="midnightblue" points="956.29,-197.08 961.46,-187.83 951.65,-191.84 956.29,-197.08"/>
</g>
<!-- Node10 -->
<g id="node10" class="node">
<title>Node10</title>
<g id="a_node10"><a xlink:title=" ">
<polygon fill="none" stroke="#bfbfbf" points="79.44,-168.5 79.44,-187.5 123.44,-187.5 123.44,-168.5 79.44,-168.5"/>
<text text-anchor="middle" x="101.44" y="-175.5" font-family="Helvetica,sans-Serif" font-size="10.00">string</text>
</a>
</g>
</g>
<!-- Node4&#45;&gt;Node10 -->
<g id="edge9" class="edge">
<title>Node4&#45;&gt;Node10</title>
<path fill="none" stroke="midnightblue" d="M883.17,-232.02C786.08,-228.39 448.15,-214.52 170.44,-188 158.38,-186.85 145.18,-185.22 133.58,-183.66"/>
<polygon fill="midnightblue" stroke="midnightblue" points="133.84,-180.16 123.46,-182.27 132.89,-187.1 133.84,-180.16"/>
</g>
<!-- Node11 -->
<g id="node11" class="node">
<title>Node11</title>
<g id="a_node11"><a xlink:href="champsim_8h.html" target="_top" xlink:title=" ">
<polygon fill="none" stroke="black" points="1526.94,-168.5 1526.94,-187.5 1603.94,-187.5 1603.94,-168.5 1526.94,-168.5"/>
<text text-anchor="middle" x="1565.44" y="-175.5" font-family="Helvetica,sans-Serif" font-size="10.00">champsim.h</text>
</a>
</g>
</g>
<!-- Node4&#45;&gt;Node11 -->
<g id="edge11" class="edge">
<title>Node4&#45;&gt;Node11</title>
<path fill="none" stroke="midnightblue" d="M937.52,-232.11C1021.84,-229.1 1287.27,-217.87 1516.57,-188.11"/>
<polygon fill="midnightblue" stroke="midnightblue" points="1517.31,-191.54 1526.77,-186.77 1516.4,-184.6 1517.31,-191.54"/>
</g>
<!-- Node14 -->
<g id="node14" class="node">
<title>Node14</title>
<g id="a_node14"><a xlink:title=" ">
<polygon fill="none" stroke="#bfbfbf" points="470.94,-168.5 470.94,-187.5 599.94,-187.5 599.94,-168.5 470.94,-168.5"/>
<text text-anchor="middle" x="535.44" y="-175.5" font-family="Helvetica,sans-Serif" font-size="10.00">champsim_constants.h</text>
</a>
</g>
</g>
<!-- Node4&#45;&gt;Node14 -->
<g id="edge14" class="edge">
<title>Node4&#45;&gt;Node14</title>
<path fill="none" stroke="midnightblue" d="M883.17,-229.07C825.19,-220.72 688.14,-200.99 604.45,-188.94"/>
<polygon fill="midnightblue" stroke="midnightblue" points="604.91,-185.47 594.52,-187.51 603.92,-192.4 604.91,-185.47"/>
</g>
<!-- Node15 -->
<g id="node15" class="node">
<title>Node15</title>
<g id="a_node15"><a xlink:href="channel_8h.html" target="_top" xlink:title=" ">
<polygon fill="none" stroke="black" points="742.44,-168.5 742.44,-187.5 806.44,-187.5 806.44,-168.5 742.44,-168.5"/>
<text text-anchor="middle" x="774.44" y="-175.5" font-family="Helvetica,sans-Serif" font-size="10.00">channel.h</text>
</a>
</g>
</g>
<!-- Node4&#45;&gt;Node15 -->
<g id="edge15" class="edge">
<title>Node4&#45;&gt;Node15</title>
<path fill="none" stroke="midnightblue" d="M888.89,-224.44C866.41,-215.52 830.95,-201.44 805.46,-191.32"/>
<polygon fill="midnightblue" stroke="midnightblue" points="806.48,-187.95 795.89,-187.52 803.89,-194.46 806.48,-187.95"/>
</g>
<!-- Node19 -->
<g id="node19" class="node">
<title>Node19</title>
<g id="a_node19"><a xlink:href="module__impl_8h.html" target="_top" xlink:title=" ">
<polygon fill="none" stroke="black" points="1098.94,-168.5 1098.94,-187.5 1187.94,-187.5 1187.94,-168.5 1098.94,-168.5"/>
<text text-anchor="middle" x="1143.44" y="-175.5" font-family="Helvetica,sans-Serif" font-size="10.00">module_impl.h</text>
</a>
</g>
</g>
<!-- Node4&#45;&gt;Node19 -->
<g id="edge23" class="edge">
<title>Node4&#45;&gt;Node19</title>
<path fill="none" stroke="midnightblue" d="M937.62,-226.7C976.63,-217.66 1049,-200.89 1096.7,-189.83"/>
<polygon fill="midnightblue" stroke="midnightblue" points="1097.53,-193.23 1106.48,-187.57 1095.94,-186.41 1097.53,-193.23"/>
</g>
<!-- Node20 -->
<g id="node20" class="node">
<title>Node20</title>
<g id="a_node20"><a xlink:href="operable_8h.html" target="_top" xlink:title=" ">
<polygon fill="none" stroke="black" points="618.44,-168.5 618.44,-187.5 686.44,-187.5 686.44,-168.5 618.44,-168.5"/>
<text text-anchor="middle" x="652.44" y="-175.5" font-family="Helvetica,sans-Serif" font-size="10.00">operable.h</text>
</a>
</g>
</g>
<!-- Node4&#45;&gt;Node20 -->
<g id="edge24" class="edge">
<title>Node4&#45;&gt;Node20</title>
<path fill="none" stroke="midnightblue" d="M883.32,-227.32C838.83,-218.01 749.97,-199.41 696.4,-188.2"/>
<polygon fill="midnightblue" stroke="midnightblue" points="697.01,-184.75 686.5,-186.13 695.57,-191.6 697.01,-184.75"/>
</g>
<!-- Node21 -->
<g id="node21" class="node">
<title>Node21</title>
<g id="a_node21"><a xlink:title=" ">
<polygon fill="none" stroke="#bfbfbf" points="1205.94,-168.5 1205.94,-187.5 1274.94,-187.5 1274.94,-168.5 1205.94,-168.5"/>
<text text-anchor="middle" x="1240.44" y="-175.5" font-family="Helvetica,sans-Serif" font-size="10.00">type_traits</text>
</a>
</g>
</g>
<!-- Node4&#45;&gt;Node21 -->
<g id="edge25" class="edge">
<title>Node4&#45;&gt;Node21</title>
<path fill="none" stroke="midnightblue" d="M937.82,-229.18C987.32,-222.17 1095.19,-206.44 1195.72,-188.25"/>
<polygon fill="midnightblue" stroke="midnightblue" points="1196.53,-191.66 1205.74,-186.42 1195.27,-184.77 1196.53,-191.66"/>
</g>
<!-- Node22 -->
<g id="node22" class="node">
<title>Node22</title>
<g id="a_node22"><a xlink:title=" ">
<polygon fill="none" stroke="#bfbfbf" points="179.44,-168.5 179.44,-187.5 309.44,-187.5 309.44,-168.5 179.44,-168.5"/>
<text text-anchor="middle" x="244.44" y="-175.5" font-family="Helvetica,sans-Serif" font-size="10.00">cache_module_decl.inc</text>
</a>
</g>
</g>
<!-- Node4&#45;&gt;Node22 -->
<g id="edge26" class="edge">
<title>Node4&#45;&gt;Node22</title>
<path fill="none" stroke="midnightblue" d="M883.26,-231.37C800.41,-226.32 543.57,-209.97 319.75,-188.09"/>
<polygon fill="midnightblue" stroke="midnightblue" points="320.09,-184.61 309.79,-187.11 319.4,-191.57 320.09,-184.61"/>
</g>
<!-- Node23 -->
<g id="node23" class="node">
<title>Node23</title>
<g id="a_node23"><a xlink:title=" ">
<polygon fill="none" stroke="#bfbfbf" points="327.94,-168.5 327.94,-187.5 452.94,-187.5 452.94,-168.5 327.94,-168.5"/>
<text text-anchor="middle" x="390.44" y="-175.5" font-family="Helvetica,sans-Serif" font-size="10.00">cache_module_def.inc</text>
</a>
</g>
</g>
<!-- Node4&#45;&gt;Node23 -->
<g id="edge27" class="edge">
<title>Node4&#45;&gt;Node23</title>
<path fill="none" stroke="midnightblue" d="M883.34,-230.53C814.85,-224.25 629.04,-206.86 463.52,-188.21"/>
<polygon fill="midnightblue" stroke="midnightblue" points="463.48,-184.69 453.15,-187.04 462.69,-191.64 463.48,-184.69"/>
</g>
<!-- Node12 -->
<g id="node12" class="node">
<title>Node12</title>
<g id="a_node12"><a xlink:title=" ">
<polygon fill="none" stroke="#bfbfbf" points="1772.44,-0.5 1772.44,-19.5 1822.44,-19.5 1822.44,-0.5 1772.44,-0.5"/>
<text text-anchor="middle" x="1797.44" y="-7.5" font-family="Helvetica,sans-Serif" font-size="10.00">cstdint</text>
</a>
</g>
</g>
<!-- Node11&#45;&gt;Node12 -->
<g id="edge12" class="edge">
<title>Node11&#45;&gt;Node12</title>
<path fill="none" stroke="midnightblue" d="M1568.11,-168.46C1575.48,-146.33 1598.26,-86.66 1638.44,-56 1674.82,-28.24 1727.59,-17.6 1762.2,-13.53"/>
<polygon fill="midnightblue" stroke="midnightblue" points="1762.74,-16.99 1772.32,-12.46 1762.01,-10.03 1762.74,-16.99"/>
</g>
<!-- Node13 -->
<g id="node13" class="node">
<title>Node13</title>
<g id="a_node13"><a xlink:title=" ">
<polygon fill="none" stroke="#bfbfbf" points="1500.94,-112.5 1500.94,-131.5 1565.94,-131.5 1565.94,-112.5 1500.94,-112.5"/>
<text text-anchor="middle" x="1533.44" y="-119.5" font-family="Helvetica,sans-Serif" font-size="10.00">exception</text>
</a>
</g>
</g>
<!-- Node11&#45;&gt;Node13 -->
<g id="edge13" class="edge">
<title>Node11&#45;&gt;Node13</title>
<path fill="none" stroke="midnightblue" d="M1560.16,-168.08C1555.73,-160.61 1549.28,-149.72 1543.82,-140.52"/>
<polygon fill="midnightblue" stroke="midnightblue" points="1546.74,-138.57 1538.63,-131.75 1540.71,-142.14 1546.74,-138.57"/>
</g>
<!-- Node15&#45;&gt;Node3 -->
<g id="edge21" class="edge">
<title>Node15&#45;&gt;Node3</title>
<path fill="none" stroke="midnightblue" d="M780.91,-168.25C792.4,-153.52 817.95,-124.16 847.44,-112 921.17,-81.6 1490.55,-70.02 1636.46,-67.54"/>
<polygon fill="midnightblue" stroke="midnightblue" points="1636.67,-71.03 1646.61,-67.37 1636.55,-64.04 1636.67,-71.03"/>
</g>
<!-- Node15&#45;&gt;Node5 -->
<g id="edge16" class="edge">
<title>Node15&#45;&gt;Node5</title>
<path fill="none" stroke="midnightblue" d="M790.99,-168.32C807.43,-159.7 832.88,-146.36 851.91,-136.39"/>
<polygon fill="midnightblue" stroke="midnightblue" points="853.7,-139.4 860.93,-131.65 850.45,-133.2 853.7,-139.4"/>
</g>
<!-- Node15&#45;&gt;Node7 -->
<g id="edge18" class="edge">
<title>Node15&#45;&gt;Node7</title>
<path fill="none" stroke="midnightblue" d="M800.74,-168.44C829.53,-159.08 875.76,-144.04 907.08,-133.85"/>
<polygon fill="midnightblue" stroke="midnightblue" points="908.25,-137.15 916.68,-130.73 906.09,-130.49 908.25,-137.15"/>
</g>
<!-- Node15&#45;&gt;Node12 -->
<g id="edge17" class="edge">
<title>Node15&#45;&gt;Node12</title>
<path fill="none" stroke="midnightblue" d="M776.9,-168.15C781.39,-153.79 792.34,-125.68 812.44,-112 892.48,-57.52 1594.58,-20.7 1761.8,-12.66"/>
<polygon fill="midnightblue" stroke="midnightblue" points="1762.21,-16.14 1772.03,-12.17 1761.88,-9.15 1762.21,-16.14"/>
</g>
<!-- Node16 -->
<g id="node16" class="node">
<title>Node16</title>
<g id="a_node16"><a xlink:title=" ">
<polygon fill="none" stroke="#bfbfbf" points="981.94,-112.5 981.94,-131.5 1046.94,-131.5 1046.94,-112.5 981.94,-112.5"/>
<text text-anchor="middle" x="1014.44" y="-119.5" font-family="Helvetica,sans-Serif" font-size="10.00">functional</text>
</a>
</g>
</g>
<!-- Node15&#45;&gt;Node16 -->
<g id="edge19" class="edge">
<title>Node15&#45;&gt;Node16</title>
<path fill="none" stroke="midnightblue" d="M806.81,-169.72C849.48,-160.12 924.67,-143.2 971.9,-132.57"/>
<polygon fill="midnightblue" stroke="midnightblue" points="972.83,-135.95 981.82,-130.34 971.3,-129.12 972.83,-135.95"/>
</g>
<!-- Node17 -->
<g id="node17" class="node">
<title>Node17</title>
<g id="a_node17"><a xlink:title=" ">
<polygon fill="none" stroke="#bfbfbf" points="892.44,-0.5 892.44,-19.5 936.44,-19.5 936.44,-0.5 892.44,-0.5"/>
<text text-anchor="middle" x="914.44" y="-7.5" font-family="Helvetica,sans-Serif" font-size="10.00">limits</text>
</a>
</g>
</g>
<!-- Node15&#45;&gt;Node17 -->
<g id="edge20" class="edge">
<title>Node15&#45;&gt;Node17</title>
<path fill="none" stroke="midnightblue" d="M771.5,-168.32C764.83,-146.84 750.98,-90.48 776.44,-56 800.65,-23.22 849.34,-13.89 881.93,-11.48"/>
<polygon fill="midnightblue" stroke="midnightblue" points="882.51,-14.95 892.3,-10.9 882.12,-7.96 882.51,-14.95"/>
</g>
<!-- Node18 -->
<g id="node18" class="node">
<title>Node18</title>
<g id="a_node18"><a xlink:title=" ">
<polygon fill="none" stroke="#bfbfbf" points="313.94,-112.5 313.94,-131.5 386.94,-131.5 386.94,-112.5 313.94,-112.5"/>
<text text-anchor="middle" x="350.44" y="-119.5" font-family="Helvetica,sans-Serif" font-size="10.00">string_view</text>
</a>
</g>
</g>
<!-- Node15&#45;&gt;Node18 -->
<g id="edge22" class="edge">
<title>Node15&#45;&gt;Node18</title>
<path fill="none" stroke="midnightblue" d="M742.22,-172.9C667.85,-163.42 483.92,-140 397.16,-128.95"/>
<polygon fill="midnightblue" stroke="midnightblue" points="397.44,-125.46 387.08,-127.67 396.56,-132.4 397.44,-125.46"/>
</g>
<!-- Node24&#45;&gt;Node5 -->
<g id="edge29" class="edge">
<title>Node24&#45;&gt;Node5</title>
<path fill="none" stroke="midnightblue" d="M543.09,-232.9C419.3,-231.8 118.4,-223.46 170.44,-168 193.87,-143.03 711.75,-127.44 845.92,-123.82"/>
<polygon fill="midnightblue" stroke="midnightblue" points="846.41,-127.31 856.31,-123.54 846.22,-120.31 846.41,-127.31"/>
</g>
<!-- Node24&#45;&gt;Node10 -->
<g id="edge33" class="edge">
<title>Node24&#45;&gt;Node10</title>
<path fill="none" stroke="midnightblue" d="M543.39,-230.42C458.59,-225.6 283.55,-213.32 137.44,-188 136.19,-187.78 134.92,-187.55 133.64,-187.29"/>
<polygon fill="midnightblue" stroke="midnightblue" points="134.32,-183.86 123.8,-185.13 132.81,-190.7 134.32,-183.86"/>
</g>
<!-- Node24&#45;&gt;Node14 -->
<g id="edge34" class="edge">
<title>Node24&#45;&gt;Node14</title>
<path fill="none" stroke="midnightblue" d="M584.96,-224.32C576.24,-216.34 563.1,-204.31 552.54,-194.65"/>
<polygon fill="midnightblue" stroke="midnightblue" points="554.83,-192 545.09,-187.83 550.11,-197.17 554.83,-192"/>
</g>
<!-- Node24&#45;&gt;Node15 -->
<g id="edge35" class="edge">
<title>Node24&#45;&gt;Node15</title>
<path fill="none" stroke="midnightblue" d="M622.96,-224.44C653.51,-215.28 702.15,-200.69 736.04,-190.52"/>
<polygon fill="midnightblue" stroke="midnightblue" points="737.48,-193.74 746.05,-187.52 735.47,-187.04 737.48,-193.74"/>
</g>
<!-- Node24&#45;&gt;Node17 -->
<g id="edge31" class="edge">
<title>Node24&#45;&gt;Node17</title>
<path fill="none" stroke="midnightblue" d="M543.33,-232.98C406.67,-232.39 40.71,-227.14 4.44,-188 -1.6,-181.48 -1.24,-174.84 4.44,-168 119.49,-29.49 733.27,-13.17 881.98,-11.26"/>
<polygon fill="midnightblue" stroke="midnightblue" points="882.29,-14.75 892.25,-11.14 882.21,-7.75 882.29,-14.75"/>
</g>
<!-- Node24&#45;&gt;Node20 -->
<g id="edge36" class="edge">
<title>Node24&#45;&gt;Node20</title>
<path fill="none" stroke="midnightblue" d="M603.76,-224.32C612.33,-216.34 625.25,-204.31 635.63,-194.65"/>
<polygon fill="midnightblue" stroke="midnightblue" points="638.02,-197.21 642.95,-187.83 633.25,-192.09 638.02,-197.21"/>
</g>
<!-- Node25 -->
<g id="node25" class="node">
<title>Node25</title>
<g id="a_node25"><a xlink:title=" ">
<polygon fill="none" stroke="#bfbfbf" points="13.94,-168.5 13.94,-187.5 60.94,-187.5 60.94,-168.5 13.94,-168.5"/>
<text text-anchor="middle" x="37.44" y="-175.5" font-family="Helvetica,sans-Serif" font-size="10.00">cmath</text>
</a>
</g>
</g>
<!-- Node24&#45;&gt;Node25 -->
<g id="edge30" class="edge">
<title>Node24&#45;&gt;Node25</title>
<path fill="none" stroke="midnightblue" d="M543.09,-231.66C450.53,-228.58 249.56,-218.86 71.21,-187.79"/>
<polygon fill="midnightblue" stroke="midnightblue" points="71.57,-184.3 61.12,-186.01 70.35,-191.2 71.57,-184.3"/>
</g>
<!-- Node26 -->
<g id="node26" class="node">
<title>Node26</title>
<g id="a_node26"><a xlink:title=" ">
<polygon fill="none" stroke="#bfbfbf" points="1893.44,-56.5 1893.44,-75.5 1949.44,-75.5 1949.44,-56.5 1893.44,-56.5"/>
<text text-anchor="middle" x="1921.44" y="-63.5" font-family="Helvetica,sans-Serif" font-size="10.00">optional</text>
</a>
</g>
</g>
<!-- Node24&#45;&gt;Node26 -->
<g id="edge32" class="edge">
<title>Node24&#45;&gt;Node26</title>
<path fill="none" stroke="midnightblue" d="M645.72,-231.2C845.85,-224.14 1565.75,-198.13 1613.44,-188 1723.25,-164.68 1844.88,-106.46 1896.3,-80.21"/>
<polygon fill="midnightblue" stroke="midnightblue" points="1898.06,-83.24 1905.35,-75.55 1894.85,-77.02 1898.06,-83.24"/>
</g>
<!-- Node27&#45;&gt;Node3 -->
<g id="edge46" class="edge">
<title>Node27&#45;&gt;Node3</title>
<path fill="none" stroke="midnightblue" d="M1348.52,-231.86C1417.14,-228.89 1572,-218.87 1613.44,-188 1647.01,-163 1661.56,-113.22 1667.24,-85.95"/>
<polygon fill="midnightblue" stroke="midnightblue" points="1670.74,-86.25 1669.16,-75.77 1663.86,-84.95 1670.74,-86.25"/>
</g>
<!-- Node27&#45;&gt;Node5 -->
<g id="edge38" class="edge">
<title>Node27&#45;&gt;Node5</title>
<path fill="none" stroke="midnightblue" d="M1325.12,-224.48C1339.19,-211.1 1362.03,-184.92 1346.44,-168 1314.83,-133.69 988.36,-140.33 908.53,-131.39"/>
<polygon fill="midnightblue" stroke="midnightblue" points="909.01,-127.92 898.61,-129.95 908,-134.85 909.01,-127.92"/>
</g>
<!-- Node27&#45;&gt;Node6 -->
<g id="edge39" class="edge">
<title>Node27&#45;&gt;Node6</title>
<path fill="none" stroke="midnightblue" d="M1315.44,-224.08C1315.44,-217.01 1315.44,-206.86 1315.44,-197.99"/>
<polygon fill="midnightblue" stroke="midnightblue" points="1318.94,-197.75 1315.44,-187.75 1311.94,-197.75 1318.94,-197.75"/>
</g>
<!-- Node27&#45;&gt;Node7 -->
<g id="edge40" class="edge">
<title>Node27&#45;&gt;Node7</title>
<path fill="none" stroke="midnightblue" d="M1334.95,-224.37C1360.1,-212.1 1398.48,-188.79 1379.44,-168 1350.34,-136.21 1050.01,-139.71 974.25,-131.59"/>
<polygon fill="midnightblue" stroke="midnightblue" points="974.48,-128.09 964.09,-130.18 973.52,-135.02 974.48,-128.09"/>
</g>
<!-- Node27&#45;&gt;Node8 -->
<g id="edge42" class="edge">
<title>Node27&#45;&gt;Node8</title>
<path fill="none" stroke="midnightblue" d="M1282.21,-226.67C1240.14,-218.59 1165.19,-203.96 1090.82,-188.03"/>
<polygon fill="midnightblue" stroke="midnightblue" points="1091.32,-184.56 1080.81,-185.87 1089.85,-191.4 1091.32,-184.56"/>
</g>
<!-- Node27&#45;&gt;Node9 -->
<g id="edge45" class="edge">
<title>Node27&#45;&gt;Node9</title>
<path fill="none" stroke="midnightblue" d="M1282.26,-228.75C1228.28,-221.69 1117.9,-206.63 1013.99,-187.99"/>
<polygon fill="midnightblue" stroke="midnightblue" points="1014.42,-184.52 1003.96,-186.18 1013.18,-191.4 1014.42,-184.52"/>
</g>
<!-- Node27&#45;&gt;Node11 -->
<g id="edge47" class="edge">
<title>Node27&#45;&gt;Node11</title>
<path fill="none" stroke="midnightblue" d="M1348.64,-225.83C1391.76,-216.52 1467.36,-200.19 1516.91,-189.48"/>
<polygon fill="midnightblue" stroke="midnightblue" points="1517.73,-192.89 1526.76,-187.35 1516.25,-186.04 1517.73,-192.89"/>
</g>
<!-- Node27&#45;&gt;Node14 -->
<g id="edge48" class="edge">
<title>Node27&#45;&gt;Node14</title>
<path fill="none" stroke="midnightblue" d="M1282.31,-231.56C1182.53,-227.1 876.01,-212.33 610.22,-188.01"/>
<polygon fill="midnightblue" stroke="midnightblue" points="610.27,-184.5 599.99,-187.07 609.63,-191.47 610.27,-184.5"/>
</g>
<!-- Node27&#45;&gt;Node15 -->
<g id="edge49" class="edge">
<title>Node27&#45;&gt;Node15</title>
<path fill="none" stroke="midnightblue" d="M1282.41,-229.7C1188.7,-220.35 921.2,-193.65 816.85,-183.23"/>
<polygon fill="midnightblue" stroke="midnightblue" points="816.99,-179.73 806.69,-182.22 816.3,-186.7 816.99,-179.73"/>
</g>
<!-- Node27&#45;&gt;Node17 -->
<g id="edge41" class="edge">
<title>Node27&#45;&gt;Node17</title>
<path fill="none" stroke="midnightblue" d="M1282.04,-233C1163.9,-232.64 770.83,-228.39 733.44,-188 705.72,-158.05 645,-177.79 763.44,-56 794.67,-23.88 847.75,-14.44 881.93,-11.81"/>
<polygon fill="midnightblue" stroke="midnightblue" points="882.55,-15.28 892.31,-11.17 882.12,-8.29 882.55,-15.28"/>
</g>
<!-- Node27&#45;&gt;Node19 -->
<g id="edge59" class="edge">
<title>Node27&#45;&gt;Node19</title>
<path fill="none" stroke="midnightblue" d="M1288.19,-224.44C1259,-215.28 1212.52,-200.69 1180.13,-190.52"/>
<polygon fill="midnightblue" stroke="midnightblue" points="1181.16,-187.17 1170.57,-187.52 1179.06,-193.85 1181.16,-187.17"/>
</g>
<!-- Node27&#45;&gt;Node20 -->
<g id="edge60" class="edge">
<title>Node27&#45;&gt;Node20</title>
<path fill="none" stroke="midnightblue" d="M1282.31,-231.89C1189.89,-228.49 921.53,-216.72 700.44,-188 699.16,-187.83 697.87,-187.66 696.56,-187.47"/>
<polygon fill="midnightblue" stroke="midnightblue" points="696.88,-183.97 686.45,-185.87 695.78,-190.89 696.88,-183.97"/>
</g>
<!-- Node27&#45;&gt;Node21 -->
<g id="edge72" class="edge">
<title>Node27&#45;&gt;Node21</title>
<path fill="none" stroke="midnightblue" d="M1303.39,-224.32C1291.98,-216.11 1274.61,-203.6 1261.01,-193.81"/>
<polygon fill="midnightblue" stroke="midnightblue" points="1262.87,-190.84 1252.71,-187.83 1258.78,-196.52 1262.87,-190.84"/>
</g>
<!-- Node27&#45;&gt;Node26 -->
<g id="edge43" class="edge">
<title>Node27&#45;&gt;Node26</title>
<path fill="none" stroke="midnightblue" d="M1348.64,-232.28C1491.3,-229.02 2046.31,-214.67 2071.44,-188 2114.19,-142.63 2015.26,-99.21 1958.24,-78.93"/>
<polygon fill="midnightblue" stroke="midnightblue" points="1959.05,-75.51 1948.46,-75.53 1956.76,-82.12 1959.05,-75.51"/>
</g>
<!-- Node28 -->
<g id="node28" class="node">
<title>Node28</title>
<g id="a_node28"><a xlink:title=" ">
<polygon fill="none" stroke="#bfbfbf" points="1698.94,-168.5 1698.94,-187.5 1745.94,-187.5 1745.94,-168.5 1698.94,-168.5"/>
<text text-anchor="middle" x="1722.44" y="-175.5" font-family="Helvetica,sans-Serif" font-size="10.00">queue</text>
</a>
</g>
</g>
<!-- Node27&#45;&gt;Node28 -->
<g id="edge44" class="edge">
<title>Node27&#45;&gt;Node28</title>
<path fill="none" stroke="midnightblue" d="M1348.45,-230.22C1413.22,-224.48 1561.35,-210.01 1684.44,-188 1685.9,-187.74 1687.39,-187.46 1688.89,-187.16"/>
<polygon fill="midnightblue" stroke="midnightblue" points="1689.77,-190.55 1698.81,-185.03 1688.3,-183.71 1689.77,-190.55"/>
</g>
<!-- Node29 -->
<g id="node29" class="node">
<title>Node29</title>
<g id="a_node29"><a xlink:href="instruction_8h.html" target="_top" xlink:title=" ">
<polygon fill="none" stroke="black" points="1431.94,-168.5 1431.94,-187.5 1508.94,-187.5 1508.94,-168.5 1431.94,-168.5"/>
<text text-anchor="middle" x="1470.44" y="-175.5" font-family="Helvetica,sans-Serif" font-size="10.00">instruction.h</text>
</a>
</g>
</g>
<!-- Node27&#45;&gt;Node29 -->
<g id="edge50" class="edge">
<title>Node27&#45;&gt;Node29</title>
<path fill="none" stroke="midnightblue" d="M1340,-224.44C1365.96,-215.4 1407.11,-201.06 1436.24,-190.92"/>
<polygon fill="midnightblue" stroke="midnightblue" points="1437.7,-194.11 1446,-187.52 1435.4,-187.5 1437.7,-194.11"/>
</g>
<!-- Node32 -->
<g id="node32" class="node">
<title>Node32</title>
<g id="a_node32"><a xlink:href="util_2lru__table_8h.html" target="_top" xlink:title=" ">
<polygon fill="none" stroke="black" points="2118.94,-168.5 2118.94,-187.5 2205.94,-187.5 2205.94,-168.5 2118.94,-168.5"/>
<text text-anchor="middle" x="2162.44" y="-175.5" font-family="Helvetica,sans-Serif" font-size="10.00">util/lru_table.h</text>
</a>
</g>
</g>
<!-- Node27&#45;&gt;Node32 -->
<g id="edge61" class="edge">
<title>Node27&#45;&gt;Node32</title>
<path fill="none" stroke="midnightblue" d="M1348.61,-232.26C1457.29,-229.59 1812.46,-218.91 2104.44,-188 2105.9,-187.85 2107.37,-187.68 2108.86,-187.51"/>
<polygon fill="midnightblue" stroke="midnightblue" points="2109.32,-190.98 2118.8,-186.24 2108.43,-184.03 2109.32,-190.98"/>
</g>
<!-- Node37 -->
<g id="node37" class="node">
<title>Node37</title>
<g id="a_node37"><a xlink:title=" ">
<polygon fill="none" stroke="#bfbfbf" points="1764.44,-168.5 1764.44,-187.5 1906.44,-187.5 1906.44,-168.5 1764.44,-168.5"/>
<text text-anchor="middle" x="1835.44" y="-175.5" font-family="Helvetica,sans-Serif" font-size="10.00">ooo_cpu_module_decl.inc</text>
</a>
</g>
</g>
<!-- Node27&#45;&gt;Node37 -->
<g id="edge73" class="edge">
<title>Node27&#45;&gt;Node37</title>
<path fill="none" stroke="midnightblue" d="M1348.57,-229.73C1420.33,-222.61 1595.75,-205.09 1753.95,-188.15"/>
<polygon fill="midnightblue" stroke="midnightblue" points="1754.78,-191.58 1764.34,-187.04 1754.03,-184.62 1754.78,-191.58"/>
</g>
<!-- Node38 -->
<g id="node38" class="node">
<title>Node38</title>
<g id="a_node38"><a xlink:title=" ">
<polygon fill="none" stroke="#bfbfbf" points="1924.94,-168.5 1924.94,-187.5 2061.94,-187.5 2061.94,-168.5 1924.94,-168.5"/>
<text text-anchor="middle" x="1993.44" y="-175.5" font-family="Helvetica,sans-Serif" font-size="10.00">ooo_cpu_module_def.inc</text>
</a>
</g>
</g>
<!-- Node27&#45;&gt;Node38 -->
<g id="edge74" class="edge">
<title>Node27&#45;&gt;Node38</title>
<path fill="none" stroke="midnightblue" d="M1348.65,-230.98C1438.11,-225.43 1691.82,-209.04 1914.32,-188.07"/>
<polygon fill="midnightblue" stroke="midnightblue" points="1914.93,-191.53 1924.55,-187.1 1914.27,-184.56 1914.93,-191.53"/>
</g>
<!-- Node29&#45;&gt;Node3 -->
<g id="edge56" class="edge">
<title>Node29&#45;&gt;Node3</title>
<path fill="none" stroke="midnightblue" d="M1464.97,-168.36C1457.16,-154.81 1445.15,-128.41 1458.44,-112 1480.48,-84.8 1582.5,-73.36 1636.58,-69.15"/>
<polygon fill="midnightblue" stroke="midnightblue" points="1637,-72.63 1646.72,-68.4 1636.49,-65.65 1637,-72.63"/>
</g>
<!-- Node29&#45;&gt;Node5 -->
<g id="edge52" class="edge">
<title>Node29&#45;&gt;Node5</title>
<path fill="none" stroke="midnightblue" d="M1431.94,-173C1415.74,-171.37 1396.68,-169.51 1379.44,-168 1173.13,-149.93 1116.06,-169.81 908.6,-131.82"/>
<polygon fill="midnightblue" stroke="midnightblue" points="909.08,-128.35 898.61,-129.97 907.8,-135.23 909.08,-128.35"/>
</g>
<!-- Node29&#45;&gt;Node12 -->
<g id="edge53" class="edge">
<title>Node29&#45;&gt;Node12</title>
<path fill="none" stroke="midnightblue" d="M1462.82,-168.26C1452.25,-155.04 1435.79,-129.61 1448.44,-112 1485.54,-60.33 1680.82,-27.38 1762,-15.73"/>
<polygon fill="midnightblue" stroke="midnightblue" points="1762.8,-19.15 1772.22,-14.29 1761.83,-12.22 1762.8,-19.15"/>
</g>
<!-- Node29&#45;&gt;Node16 -->
<g id="edge54" class="edge">
<title>Node29&#45;&gt;Node16</title>
<path fill="none" stroke="midnightblue" d="M1431.7,-170.11C1426.9,-169.35 1422.07,-168.63 1417.44,-168 1259.85,-146.68 1218.8,-154.98 1061.44,-132 1059.98,-131.79 1058.49,-131.56 1056.99,-131.32"/>
<polygon fill="midnightblue" stroke="midnightblue" points="1057.44,-127.85 1046.99,-129.62 1056.26,-134.75 1057.44,-127.85"/>
</g>
<!-- Node29&#45;&gt;Node17 -->
<g id="edge55" class="edge">
<title>Node29&#45;&gt;Node17</title>
<path fill="none" stroke="midnightblue" d="M1441.72,-168.42C1347.11,-140.18 1045.66,-50.18 946.44,-20.55"/>
<polygon fill="midnightblue" stroke="midnightblue" points="947.27,-17.15 936.69,-17.64 945.27,-23.86 947.27,-17.15"/>
</g>
<!-- Node30 -->
<g id="node30" class="node">
<title>Node30</title>
<g id="a_node30"><a xlink:title=" ">
<polygon fill="none" stroke="#bfbfbf" points="1723.44,-56.5 1723.44,-75.5 1787.44,-75.5 1787.44,-56.5 1723.44,-56.5"/>
<text text-anchor="middle" x="1755.44" y="-63.5" font-family="Helvetica,sans-Serif" font-size="10.00">algorithm</text>
</a>
</g>
</g>
<!-- Node29&#45;&gt;Node30 -->
<g id="edge51" class="edge">
<title>Node29&#45;&gt;Node30</title>
<path fill="none" stroke="midnightblue" d="M1470.7,-168.31C1471.61,-154.18 1475.59,-126.39 1492.44,-112 1564.79,-50.23 1609.68,-92.11 1703.44,-76 1706.65,-75.45 1709.96,-74.88 1713.3,-74.3"/>
<polygon fill="midnightblue" stroke="midnightblue" points="1714.01,-77.73 1723.27,-72.58 1712.82,-70.83 1714.01,-77.73"/>
</g>
<!-- Node31 -->
<g id="node31" class="node">
<title>Node31</title>
<g id="a_node31"><a xlink:href="trace__instruction_8h.html" target="_top" xlink:title=" ">
<polygon fill="none" stroke="black" points="1182.94,-56.5 1182.94,-75.5 1289.94,-75.5 1289.94,-56.5 1182.94,-56.5"/>
<text text-anchor="middle" x="1236.44" y="-63.5" font-family="Helvetica,sans-Serif" font-size="10.00">trace_instruction.h</text>
</a>
</g>
</g>
<!-- Node29&#45;&gt;Node31 -->
<g id="edge57" class="edge">
<title>Node29&#45;&gt;Node31</title>
<path fill="none" stroke="midnightblue" d="M1452.08,-168.37C1411.16,-149.13 1312.27,-102.65 1263.95,-79.93"/>
<polygon fill="midnightblue" stroke="midnightblue" points="1265.26,-76.68 1254.72,-75.59 1262.28,-83.01 1265.26,-76.68"/>
</g>
<!-- Node31&#45;&gt;Node17 -->
<g id="edge58" class="edge">
<title>Node31&#45;&gt;Node17</title>
<path fill="none" stroke="midnightblue" d="M1185.42,-56.44C1118.45,-45.21 1002.84,-25.82 946.79,-16.42"/>
<polygon fill="midnightblue" stroke="midnightblue" points="947.16,-12.94 936.72,-14.74 946,-19.84 947.16,-12.94"/>
</g>
<!-- Node33 -->
<g id="node33" class="node">
<title>Node33</title>
<g id="a_node33"><a xlink:href="msl_2lru__table_8h.html" target="_top" xlink:title=" ">
<polygon fill="none" stroke="black" points="2156.94,-112.5 2156.94,-131.5 2245.94,-131.5 2245.94,-112.5 2156.94,-112.5"/>
<text text-anchor="middle" x="2201.44" y="-119.5" font-family="Helvetica,sans-Serif" font-size="10.00">msl/lru_table.h</text>
</a>
</g>
</g>
<!-- Node32&#45;&gt;Node33 -->
<g id="edge62" class="edge">
<title>Node32&#45;&gt;Node33</title>
<path fill="none" stroke="midnightblue" d="M2168.88,-168.08C2174.39,-160.46 2182.47,-149.26 2189.21,-139.94"/>
<polygon fill="midnightblue" stroke="midnightblue" points="2192.1,-141.91 2195.12,-131.75 2186.43,-137.81 2192.1,-141.91"/>
</g>
<!-- Node33&#45;&gt;Node3 -->
<g id="edge68" class="edge">
<title>Node33&#45;&gt;Node3</title>
<path fill="none" stroke="midnightblue" d="M2156.71,-113.85C2151.9,-113.18 2147.07,-112.55 2142.44,-112 1952.87,-89.59 1903.39,-103.17 1714.44,-76 1711.02,-75.51 1707.46,-74.92 1703.92,-74.27"/>
<polygon fill="midnightblue" stroke="midnightblue" points="1704.58,-70.84 1694.1,-72.37 1703.25,-77.71 1704.58,-70.84"/>
</g>
<!-- Node33&#45;&gt;Node12 -->
<g id="edge65" class="edge">
<title>Node33&#45;&gt;Node12</title>
<path fill="none" stroke="midnightblue" d="M2183.75,-112.35C2154.84,-98.55 2095.39,-71.5 2042.44,-56 1969.32,-34.59 1880.81,-21.34 1832.72,-15.15"/>
<polygon fill="midnightblue" stroke="midnightblue" points="1832.89,-11.65 1822.53,-13.87 1832.01,-18.59 1832.89,-11.65"/>
</g>
<!-- Node33&#45;&gt;Node26 -->
<g id="edge66" class="edge">
<title>Node33&#45;&gt;Node26</title>
<path fill="none" stroke="midnightblue" d="M2156.71,-113.35C2108.04,-104.88 2028.01,-90.49 1959.44,-76 1959.34,-75.98 1959.24,-75.96 1959.14,-75.94"/>
<polygon fill="midnightblue" stroke="midnightblue" points="1960.15,-72.57 1949.63,-73.84 1958.64,-79.41 1960.15,-72.57"/>
</g>
<!-- Node33&#45;&gt;Node30 -->
<g id="edge63" class="edge">
<title>Node33&#45;&gt;Node30</title>
<path fill="none" stroke="midnightblue" d="M2156.69,-114C2151.88,-113.3 2147.06,-112.62 2142.44,-112 2017.46,-95.21 1869.27,-79.01 1797.96,-71.44"/>
<polygon fill="midnightblue" stroke="midnightblue" points="1797.91,-67.92 1787.6,-70.35 1797.17,-74.88 1797.91,-67.92"/>
</g>
<!-- Node34 -->
<g id="node34" class="node">
<title>Node34</title>
<g id="a_node34"><a xlink:title=" ">
<polygon fill="none" stroke="#bfbfbf" points="2155.44,-56.5 2155.44,-75.5 2207.44,-75.5 2207.44,-56.5 2155.44,-56.5"/>
<text text-anchor="middle" x="2181.44" y="-63.5" font-family="Helvetica,sans-Serif" font-size="10.00">cassert</text>
</a>
</g>
</g>
<!-- Node33&#45;&gt;Node34 -->
<g id="edge64" class="edge">
<title>Node33&#45;&gt;Node34</title>
<path fill="none" stroke="midnightblue" d="M2198.14,-112.08C2195.46,-104.85 2191.59,-94.41 2188.25,-85.4"/>
<polygon fill="midnightblue" stroke="midnightblue" points="2191.44,-83.91 2184.68,-75.75 2184.87,-86.34 2191.44,-83.91"/>
</g>
<!-- Node35 -->
<g id="node35" class="node">
<title>Node35</title>
<g id="a_node35"><a xlink:title=" ">
<polygon fill="none" stroke="#bfbfbf" points="2225.94,-56.5 2225.94,-75.5 2270.94,-75.5 2270.94,-56.5 2225.94,-56.5"/>
<text text-anchor="middle" x="2248.44" y="-63.5" font-family="Helvetica,sans-Serif" font-size="10.00">utility</text>
</a>
</g>
</g>
<!-- Node33&#45;&gt;Node35 -->
<g id="edge67" class="edge">
<title>Node33&#45;&gt;Node35</title>
<path fill="none" stroke="midnightblue" d="M2209.2,-112.08C2215.98,-104.3 2225.98,-92.8 2234.2,-83.37"/>
<polygon fill="midnightblue" stroke="midnightblue" points="2236.9,-85.59 2240.82,-75.75 2231.62,-81 2236.9,-85.59"/>
</g>
<!-- Node36 -->
<g id="node36" class="node">
<title>Node36</title>
<g id="a_node36"><a xlink:href="msl_2bits_8h.html" target="_top" xlink:title=" ">
<polygon fill="none" stroke="black" points="1967.94,-56.5 1967.94,-75.5 2032.94,-75.5 2032.94,-56.5 1967.94,-56.5"/>
<text text-anchor="middle" x="2000.44" y="-63.5" font-family="Helvetica,sans-Serif" font-size="10.00">msl/bits.h</text>
</a>
</g>
</g>
<!-- Node33&#45;&gt;Node36 -->
<g id="edge69" class="edge">
<title>Node33&#45;&gt;Node36</title>
<path fill="none" stroke="midnightblue" d="M2169.59,-112.44C2135.04,-103.16 2079.76,-88.31 2041.86,-78.13"/>
<polygon fill="midnightblue" stroke="midnightblue" points="2042.71,-74.73 2032.14,-75.52 2040.89,-81.49 2042.71,-74.73"/>
</g>
<!-- Node36&#45;&gt;Node12 -->
<g id="edge70" class="edge">
<title>Node36&#45;&gt;Node12</title>
<path fill="none" stroke="midnightblue" d="M1968.27,-56.44C1931.23,-46.59 1870.57,-30.45 1832.39,-20.3"/>
<polygon fill="midnightblue" stroke="midnightblue" points="1833.29,-16.91 1822.72,-17.73 1831.49,-23.68 1833.29,-16.91"/>
</g>
<!-- Node36&#45;&gt;Node17 -->
<g id="edge71" class="edge">
<title>Node36&#45;&gt;Node17</title>
<path fill="none" stroke="midnightblue" d="M1967.52,-57.4C1964.46,-56.86 1961.4,-56.38 1958.44,-56 1755.68,-30.09 1100.96,-14.93 947.05,-11.67"/>
<polygon fill="midnightblue" stroke="midnightblue" points="946.92,-8.16 936.85,-11.45 946.77,-15.16 946.92,-8.16"/>
</g>
<!-- Node39&#45;&gt;Node3 -->
<g id="edge79" class="edge">
<title>Node39&#45;&gt;Node3</title>
<path fill="none" stroke="midnightblue" d="M1054.09,-288.77C1252.92,-287.22 2135.07,-275.41 2215.44,-188 2221.46,-181.46 2221.13,-174.83 2215.44,-168 2179.21,-124.52 1770,-86.78 1714.44,-76 1711.05,-75.34 1707.51,-74.64 1703.98,-73.93"/>
<polygon fill="midnightblue" stroke="midnightblue" points="1704.67,-70.5 1694.17,-71.95 1703.28,-77.36 1704.67,-70.5"/>
</g>
<!-- Node39&#45;&gt;Node4 -->
<g id="edge80" class="edge">
<title>Node39&#45;&gt;Node4</title>
<path fill="none" stroke="midnightblue" d="M997.73,-280.32C981.13,-271.7 955.44,-258.36 936.22,-248.39"/>
<polygon fill="midnightblue" stroke="midnightblue" points="937.6,-245.16 927.11,-243.65 934.37,-251.37 937.6,-245.16"/>
</g>
<!-- Node39&#45;&gt;Node8 -->
<g id="edge77" class="edge">
<title>Node39&#45;&gt;Node8</title>
<path fill="none" stroke="midnightblue" d="M1017.34,-280.37C1023.34,-262.54 1037.21,-221.3 1045.29,-197.27"/>
<polygon fill="midnightblue" stroke="midnightblue" points="1048.68,-198.19 1048.55,-187.59 1042.05,-195.95 1048.68,-198.19"/>
</g>
<!-- Node39&#45;&gt;Node10 -->
<g id="edge78" class="edge">
<title>Node39&#45;&gt;Node10</title>
<path fill="none" stroke="midnightblue" d="M974.85,-286.04C892.64,-279.72 697.49,-263.87 534.44,-244 384.08,-225.68 205.44,-196.5 133.65,-184.46"/>
<polygon fill="midnightblue" stroke="midnightblue" points="133.9,-180.96 123.46,-182.75 132.74,-187.86 133.9,-180.96"/>
</g>
<!-- Node39&#45;&gt;Node12 -->
<g id="edge76" class="edge">
<title>Node39&#45;&gt;Node12</title>
<path fill="none" stroke="midnightblue" d="M1054.22,-288.55C1222.46,-286.47 1876.25,-276.43 2079.44,-244 2184.76,-227.19 2310.44,-285.65 2310.44,-179 2310.44,-179 2310.44,-179 2310.44,-121 2310.44,-89.18 2306.42,-74.37 2280.44,-56 2244.09,-30.29 1938.16,-16.35 1832.87,-12.28"/>
<polygon fill="midnightblue" stroke="midnightblue" points="1832.88,-8.77 1822.76,-11.89 1832.62,-15.77 1832.88,-8.77"/>
</g>
<!-- Node39&#45;&gt;Node18 -->
<g id="edge83" class="edge">
<title>Node39&#45;&gt;Node18</title>
<path fill="none" stroke="midnightblue" d="M974.75,-286.14C950.18,-284.37 917.98,-282.05 889.44,-280 790.83,-272.91 69.09,-262.79 4.44,-188 -1.37,-181.28 -1.43,-174.68 4.44,-168 23.88,-145.86 213.6,-131.38 303.56,-125.71"/>
<polygon fill="midnightblue" stroke="midnightblue" points="304,-129.19 313.76,-125.07 303.56,-122.2 304,-129.19"/>
</g>
<!-- Node39&#45;&gt;Node24 -->
<g id="edge81" class="edge">
<title>Node39&#45;&gt;Node24</title>
<path fill="none" stroke="midnightblue" d="M974.93,-283.92C901.37,-274.46 742.96,-254.1 655.52,-242.85"/>
<polygon fill="midnightblue" stroke="midnightblue" points="655.84,-239.37 645.48,-241.56 654.95,-246.31 655.84,-239.37"/>
</g>
<!-- Node39&#45;&gt;Node27 -->
<g id="edge82" class="edge">
<title>Node39&#45;&gt;Node27</title>
<path fill="none" stroke="midnightblue" d="M1054.1,-281.88C1110.57,-271.75 1213.77,-253.24 1272.16,-242.76"/>
<polygon fill="midnightblue" stroke="midnightblue" points="1272.95,-246.18 1282.18,-240.97 1271.72,-239.29 1272.95,-246.18"/>
</g>
</g>
</svg>
