<?xml version="1.0" encoding="UTF-8" standalone="no"?>
<!DOCTYPE svg PUBLIC "-//W3C//DTD SVG 1.1//EN"
 "http://www.w3.org/Graphics/SVG/1.1/DTD/svg11.dtd">
<!-- Generated by graphviz version 2.43.0 (0)
 -->
<!-- Title: to_wq_MRP Pages: 1 -->
<svg width="267pt" height="241pt"
 viewBox="0.00 0.00 266.50 241.00" xmlns="http://www.w3.org/2000/svg" xmlns:xlink="http://www.w3.org/1999/xlink">
<g id="graph0" class="graph" transform="scale(1 1) rotate(0) translate(4 237)">
<title>to_wq_MRP</title>
<!-- Node1 -->
<g id="node1" class="node">
<title>Node1</title>
<g id="a_node1"><a xlink:title=" ">
<polygon fill="#bfbfbf" stroke="black" points="62.5,-0.5 62.5,-19.5 135.5,-19.5 135.5,-0.5 62.5,-0.5"/>
<text text-anchor="middle" x="99" y="-7.5" font-family="Helvetica,sans-Serif" font-size="10.00">to_wq_MRP</text>
</a>
</g>
</g>
<!-- Node2 -->
<g id="node2" class="node">
<title>Node2</title>
<g id="a_node2"><a xlink:href="structqueue__issue__MRP.html" target="_top" xlink:title=" ">
<polygon fill="none" stroke="black" points="47,-57.5 47,-76.5 151,-76.5 151,-57.5 47,-57.5"/>
<text text-anchor="middle" x="99" y="-64.5" font-family="Helvetica,sans-Serif" font-size="10.00">queue_issue_MRP</text>
</a>
</g>
</g>
<!-- Node2&#45;&gt;Node1 -->
<g id="edge1" class="edge">
<title>Node2&#45;&gt;Node1</title>
<path fill="none" stroke="midnightblue" d="M99,-47.12C99,-37.82 99,-27.06 99,-19.71"/>
<polygon fill="midnightblue" stroke="midnightblue" points="95.5,-47.41 99,-57.41 102.5,-47.41 95.5,-47.41"/>
</g>
<!-- Node3 -->
<g id="node3" class="node">
<title>Node3</title>
<g id="a_node3"><a xlink:href="classchampsim_1_1operable.html" target="_top" xlink:title=" ">
<polygon fill="none" stroke="black" points="0,-124.5 0,-143.5 116,-143.5 116,-124.5 0,-124.5"/>
<text text-anchor="middle" x="58" y="-131.5" font-family="Helvetica,sans-Serif" font-size="10.00">champsim::operable</text>
</a>
</g>
</g>
<!-- Node3&#45;&gt;Node2 -->
<g id="edge2" class="edge">
<title>Node3&#45;&gt;Node2</title>
<path fill="none" stroke="midnightblue" d="M69.02,-115.53C76.95,-102.95 87.33,-86.51 93.56,-76.63"/>
<polygon fill="midnightblue" stroke="midnightblue" points="65.9,-113.91 63.53,-124.23 71.82,-117.64 65.9,-113.91"/>
</g>
<!-- Node4 -->
<g id="node4" class="node">
<title>Node4</title>
<g id="a_node4"><a xlink:href="classchampsim_1_1channel.html" target="_top" xlink:title=" ">
<polygon fill="none" stroke="black" points="134,-124.5 134,-143.5 246,-143.5 246,-124.5 134,-124.5"/>
<text text-anchor="middle" x="190" y="-131.5" font-family="Helvetica,sans-Serif" font-size="10.00">champsim::channel</text>
</a>
</g>
</g>
<!-- Node4&#45;&gt;Node2 -->
<g id="edge3" class="edge">
<title>Node4&#45;&gt;Node2</title>
<path fill="none" stroke="#9a32cd" stroke-dasharray="5,2" d="M169.59,-118.42C151.6,-105.57 125.99,-87.28 111.08,-76.63"/>
<polygon fill="#9a32cd" stroke="#9a32cd" points="167.56,-121.27 177.73,-124.23 171.62,-115.57 167.56,-121.27"/>
<text text-anchor="middle" x="168.5" y="-98" font-family="Helvetica,sans-Serif" font-size="10.00"> queues</text>
</g>
<!-- Node5 -->
<g id="node5" class="node">
<title>Node5</title>
<g id="a_node5"><a xlink:href="structchampsim_1_1cache__queue__stats.html" target="_top" xlink:title=" ">
<polygon fill="none" stroke="black" points="121.5,-202.5 121.5,-232.5 258.5,-232.5 258.5,-202.5 121.5,-202.5"/>
<text text-anchor="start" x="129.5" y="-220.5" font-family="Helvetica,sans-Serif" font-size="10.00">champsim::cache_queue</text>
<text text-anchor="middle" x="190" y="-209.5" font-family="Helvetica,sans-Serif" font-size="10.00">_stats</text>
</a>
</g>
</g>
<!-- Node5&#45;&gt;Node4 -->
<g id="edge4" class="edge">
<title>Node5&#45;&gt;Node4</title>
<path fill="none" stroke="#9a32cd" stroke-dasharray="5,2" d="M190,-192.25C190,-175.78 190,-154.99 190,-143.54"/>
<polygon fill="#9a32cd" stroke="#9a32cd" points="186.5,-192.3 190,-202.3 193.5,-192.3 186.5,-192.3"/>
<text text-anchor="middle" x="214" y="-176" font-family="Helvetica,sans-Serif" font-size="10.00"> roi_stats</text>
<text text-anchor="middle" x="214" y="-165" font-family="Helvetica,sans-Serif" font-size="10.00">sim_stats</text>
</g>
</g>
</svg>
