<?xml version="1.0" encoding="UTF-8" standalone="no"?>
<!DOCTYPE svg PUBLIC "-//W3C//DTD SVG 1.1//EN"
 "http://www.w3.org/Graphics/SVG/1.1/DTD/svg11.dtd">
<!-- Generated by graphviz version 2.43.0 (0)
 -->
<!-- Title: queue_issue_MRP Pages: 1 -->
<svg width="267pt" height="184pt"
 viewBox="0.00 0.00 266.50 184.00" xmlns="http://www.w3.org/2000/svg" xmlns:xlink="http://www.w3.org/1999/xlink">
<g id="graph0" class="graph" transform="scale(1 1) rotate(0) translate(4 180)">
<title>queue_issue_MRP</title>
<!-- Node1 -->
<g id="node1" class="node">
<title>Node1</title>
<g id="a_node1"><a xlink:title=" ">
<polygon fill="#bfbfbf" stroke="black" points="47,-0.5 47,-19.5 151,-19.5 151,-0.5 47,-0.5"/>
<text text-anchor="middle" x="99" y="-7.5" font-family="Helvetica,sans-Serif" font-size="10.00">queue_issue_MRP</text>
</a>
</g>
</g>
<!-- Node2 -->
<g id="node2" class="node">
<title>Node2</title>
<g id="a_node2"><a xlink:href="classchampsim_1_1operable.html" target="_top" xlink:title=" ">
<polygon fill="none" stroke="black" points="0,-67.5 0,-86.5 116,-86.5 116,-67.5 0,-67.5"/>
<text text-anchor="middle" x="58" y="-74.5" font-family="Helvetica,sans-Serif" font-size="10.00">champsim::operable</text>
</a>
</g>
</g>
<!-- Node2&#45;&gt;Node1 -->
<g id="edge1" class="edge">
<title>Node2&#45;&gt;Node1</title>
<path fill="none" stroke="midnightblue" d="M69.02,-58.53C76.95,-45.95 87.33,-29.51 93.56,-19.63"/>
<polygon fill="midnightblue" stroke="midnightblue" points="65.9,-56.91 63.53,-67.23 71.82,-60.64 65.9,-56.91"/>
</g>
<!-- Node3 -->
<g id="node3" class="node">
<title>Node3</title>
<g id="a_node3"><a xlink:href="classchampsim_1_1channel.html" target="_top" xlink:title=" ">
<polygon fill="none" stroke="black" points="134,-67.5 134,-86.5 246,-86.5 246,-67.5 134,-67.5"/>
<text text-anchor="middle" x="190" y="-74.5" font-family="Helvetica,sans-Serif" font-size="10.00">champsim::channel</text>
</a>
</g>
</g>
<!-- Node3&#45;&gt;Node1 -->
<g id="edge2" class="edge">
<title>Node3&#45;&gt;Node1</title>
<path fill="none" stroke="#9a32cd" stroke-dasharray="5,2" d="M169.59,-61.42C151.6,-48.57 125.99,-30.28 111.08,-19.63"/>
<polygon fill="#9a32cd" stroke="#9a32cd" points="167.56,-64.27 177.73,-67.23 171.62,-58.57 167.56,-64.27"/>
<text text-anchor="middle" x="168.5" y="-41" font-family="Helvetica,sans-Serif" font-size="10.00"> queues</text>
</g>
<!-- Node4 -->
<g id="node4" class="node">
<title>Node4</title>
<g id="a_node4"><a xlink:href="structchampsim_1_1cache__queue__stats.html" target="_top" xlink:title=" ">
<polygon fill="none" stroke="black" points="121.5,-145.5 121.5,-175.5 258.5,-175.5 258.5,-145.5 121.5,-145.5"/>
<text text-anchor="start" x="129.5" y="-163.5" font-family="Helvetica,sans-Serif" font-size="10.00">champsim::cache_queue</text>
<text text-anchor="middle" x="190" y="-152.5" font-family="Helvetica,sans-Serif" font-size="10.00">_stats</text>
</a>
</g>
</g>
<!-- Node4&#45;&gt;Node3 -->
<g id="edge3" class="edge">
<title>Node4&#45;&gt;Node3</title>
<path fill="none" stroke="#9a32cd" stroke-dasharray="5,2" d="M190,-135.25C190,-118.78 190,-97.99 190,-86.54"/>
<polygon fill="#9a32cd" stroke="#9a32cd" points="186.5,-135.3 190,-145.3 193.5,-135.3 186.5,-135.3"/>
<text text-anchor="middle" x="214" y="-119" font-family="Helvetica,sans-Serif" font-size="10.00"> roi_stats</text>
<text text-anchor="middle" x="214" y="-108" font-family="Helvetica,sans-Serif" font-size="10.00">sim_stats</text>
</g>
</g>
</svg>
