<?xml version="1.0" encoding="UTF-8" standalone="no"?>
<!DOCTYPE svg PUBLIC "-//W3C//DTD SVG 1.1//EN"
 "http://www.w3.org/Graphics/SVG/1.1/DTD/svg11.dtd">
<!-- Generated by graphviz version 2.43.0 (0)
 -->
<!-- Title: CACHE::module_model&lt; P_FLAG, R_FLAG &gt; Pages: 1 -->
<svg width="368pt" height="273pt"
 viewBox="0.00 0.00 368.00 273.00" xmlns="http://www.w3.org/2000/svg" xmlns:xlink="http://www.w3.org/1999/xlink">
<g id="graph0" class="graph" transform="scale(1 1) rotate(0) translate(4 269)">
<title>CACHE::module_model&lt; P_FLAG, R_FLAG &gt;</title>
<!-- Node1 -->
<g id="node1" class="node">
<title>Node1</title>
<g id="a_node1"><a xlink:title=" ">
<polygon fill="#bfbfbf" stroke="black" points="20,-0.5 20,-30.5 149,-30.5 149,-0.5 20,-0.5"/>
<text text-anchor="start" x="28" y="-18.5" font-family="Helvetica,sans-Serif" font-size="10.00">CACHE::module_model</text>
<text text-anchor="middle" x="84.5" y="-7.5" font-family="Helvetica,sans-Serif" font-size="10.00">&lt; P_FLAG, R_FLAG &gt;</text>
</a>
</g>
</g>
<!-- Node2 -->
<g id="node2" class="node">
<title>Node2</title>
<g id="a_node2"><a xlink:href="structCACHE_1_1module__concept.html" target="_top" xlink:title=" ">
<polygon fill="none" stroke="black" points="0,-78.5 0,-97.5 137,-97.5 137,-78.5 0,-78.5"/>
<text text-anchor="middle" x="68.5" y="-85.5" font-family="Helvetica,sans-Serif" font-size="10.00">CACHE::module_concept</text>
</a>
</g>
</g>
<!-- Node2&#45;&gt;Node1 -->
<g id="edge1" class="edge">
<title>Node2&#45;&gt;Node1</title>
<path fill="none" stroke="midnightblue" d="M72.68,-68.6C75.37,-56.72 78.83,-41.49 81.31,-30.58"/>
<polygon fill="midnightblue" stroke="midnightblue" points="69.26,-67.83 70.46,-78.36 76.09,-69.38 69.26,-67.83"/>
</g>
<!-- Node3 -->
<g id="node3" class="node">
<title>Node3</title>
<g id="a_node3"><a xlink:href="classCACHE.html" target="_top" xlink:title=" ">
<polygon fill="none" stroke="black" points="155.5,-78.5 155.5,-97.5 205.5,-97.5 205.5,-78.5 155.5,-78.5"/>
<text text-anchor="middle" x="180.5" y="-85.5" font-family="Helvetica,sans-Serif" font-size="10.00">CACHE</text>
</a>
</g>
</g>
<!-- Node3&#45;&gt;Node1 -->
<g id="edge2" class="edge">
<title>Node3&#45;&gt;Node1</title>
<path fill="none" stroke="#9a32cd" stroke-dasharray="5,2" d="M160.25,-72.13C143.56,-59.87 120.05,-42.61 103.67,-30.58"/>
<polygon fill="#9a32cd" stroke="#9a32cd" points="158.6,-75.26 168.73,-78.36 162.74,-69.62 158.6,-75.26"/>
<text text-anchor="middle" x="160" y="-52" font-family="Helvetica,sans-Serif" font-size="10.00"> intern_</text>
</g>
<!-- Node4 -->
<g id="node4" class="node">
<title>Node4</title>
<g id="a_node4"><a xlink:href="classchampsim_1_1operable.html" target="_top" xlink:title=" ">
<polygon fill="none" stroke="black" points="9.5,-156.5 9.5,-175.5 125.5,-175.5 125.5,-156.5 9.5,-156.5"/>
<text text-anchor="middle" x="67.5" y="-163.5" font-family="Helvetica,sans-Serif" font-size="10.00">champsim::operable</text>
</a>
</g>
</g>
<!-- Node4&#45;&gt;Node3 -->
<g id="edge3" class="edge">
<title>Node4&#45;&gt;Node3</title>
<path fill="none" stroke="midnightblue" d="M88.96,-150.57C112.21,-134.93 148.54,-110.5 167.69,-97.62"/>
<polygon fill="midnightblue" stroke="midnightblue" points="86.81,-147.8 80.46,-156.28 90.71,-153.61 86.81,-147.8"/>
</g>
<!-- Node5 -->
<g id="node5" class="node">
<title>Node5</title>
<g id="a_node5"><a xlink:href="structcache__stats.html" target="_top" xlink:title=" ">
<polygon fill="none" stroke="black" points="143.5,-156.5 143.5,-175.5 217.5,-175.5 217.5,-156.5 143.5,-156.5"/>
<text text-anchor="middle" x="180.5" y="-163.5" font-family="Helvetica,sans-Serif" font-size="10.00">cache_stats</text>
</a>
</g>
</g>
<!-- Node5&#45;&gt;Node3 -->
<g id="edge4" class="edge">
<title>Node5&#45;&gt;Node3</title>
<path fill="none" stroke="#9a32cd" stroke-dasharray="5,2" d="M180.5,-146.22C180.5,-130.7 180.5,-109.36 180.5,-97.62"/>
<polygon fill="#9a32cd" stroke="#9a32cd" points="177,-146.28 180.5,-156.28 184,-146.28 177,-146.28"/>
<text text-anchor="middle" x="204.5" y="-130" font-family="Helvetica,sans-Serif" font-size="10.00"> roi_stats</text>
<text text-anchor="middle" x="204.5" y="-119" font-family="Helvetica,sans-Serif" font-size="10.00">sim_stats</text>
</g>
<!-- Node6 -->
<g id="node6" class="node">
<title>Node6</title>
<g id="a_node6"><a xlink:href="classchampsim_1_1channel.html" target="_top" xlink:title=" ">
<polygon fill="none" stroke="black" points="235.5,-156.5 235.5,-175.5 347.5,-175.5 347.5,-156.5 235.5,-156.5"/>
<text text-anchor="middle" x="291.5" y="-163.5" font-family="Helvetica,sans-Serif" font-size="10.00">champsim::channel</text>
</a>
</g>
</g>
<!-- Node6&#45;&gt;Node3 -->
<g id="edge5" class="edge">
<title>Node6&#45;&gt;Node3</title>
<path fill="none" stroke="#9a32cd" stroke-dasharray="5,2" d="M274.91,-149.57C263.48,-139.37 247.68,-126.07 232.5,-116 221.99,-109.02 209.46,-102.47 199.34,-97.57"/>
<polygon fill="#9a32cd" stroke="#9a32cd" points="272.63,-152.23 282.38,-156.36 277.33,-147.05 272.63,-152.23"/>
<text text-anchor="middle" x="298.5" y="-130" font-family="Helvetica,sans-Serif" font-size="10.00"> lower_level</text>
<text text-anchor="middle" x="298.5" y="-119" font-family="Helvetica,sans-Serif" font-size="10.00">lower_translate</text>
</g>
<!-- Node7 -->
<g id="node7" class="node">
<title>Node7</title>
<g id="a_node7"><a xlink:href="structchampsim_1_1cache__queue__stats.html" target="_top" xlink:title=" ">
<polygon fill="none" stroke="black" points="223,-234.5 223,-264.5 360,-264.5 360,-234.5 223,-234.5"/>
<text text-anchor="start" x="231" y="-252.5" font-family="Helvetica,sans-Serif" font-size="10.00">champsim::cache_queue</text>
<text text-anchor="middle" x="291.5" y="-241.5" font-family="Helvetica,sans-Serif" font-size="10.00">_stats</text>
</a>
</g>
</g>
<!-- Node7&#45;&gt;Node6 -->
<g id="edge6" class="edge">
<title>Node7&#45;&gt;Node6</title>
<path fill="none" stroke="#9a32cd" stroke-dasharray="5,2" d="M291.5,-224.25C291.5,-207.78 291.5,-186.99 291.5,-175.54"/>
<polygon fill="#9a32cd" stroke="#9a32cd" points="288,-224.3 291.5,-234.3 295,-224.3 288,-224.3"/>
<text text-anchor="middle" x="315.5" y="-208" font-family="Helvetica,sans-Serif" font-size="10.00"> roi_stats</text>
<text text-anchor="middle" x="315.5" y="-197" font-family="Helvetica,sans-Serif" font-size="10.00">sim_stats</text>
</g>
</g>
</svg>
