<?xml version="1.0" encoding="UTF-8" standalone="no"?>
<!DOCTYPE svg PUBLIC "-//W3C//DTD SVG 1.1//EN"
 "http://www.w3.org/Graphics/SVG/1.1/DTD/svg11.dtd">
<!-- Generated by graphviz version 2.43.0 (0)
 -->
<!-- Title: merge_testbed Pages: 1 -->
<svg width="382pt" height="330pt"
 viewBox="0.00 0.00 381.50 330.00" xmlns="http://www.w3.org/2000/svg" xmlns:xlink="http://www.w3.org/1999/xlink">
<g id="graph0" class="graph" transform="scale(1 1) rotate(0) translate(4 326)">
<title>merge_testbed</title>
<!-- Node1 -->
<g id="node1" class="node">
<title>Node1</title>
<g id="a_node1"><a xlink:title=" ">
<polygon fill="#bfbfbf" stroke="black" points="148.5,-0.5 148.5,-19.5 238.5,-19.5 238.5,-0.5 148.5,-0.5"/>
<text text-anchor="middle" x="193.5" y="-7.5" font-family="Helvetica,sans-Serif" font-size="10.00">merge_testbed</text>
</a>
</g>
</g>
<!-- Node2 -->
<g id="node2" class="node">
<title>Node2</title>
<g id="a_node2"><a xlink:href="classfilter__MRC.html" target="_top" xlink:title=" ">
<polygon fill="none" stroke="black" points="161,-135.5 161,-154.5 228,-154.5 228,-135.5 161,-135.5"/>
<text text-anchor="middle" x="194.5" y="-142.5" font-family="Helvetica,sans-Serif" font-size="10.00">filter_MRC</text>
</a>
</g>
</g>
<!-- Node2&#45;&gt;Node1 -->
<g id="edge1" class="edge">
<title>Node2&#45;&gt;Node1</title>
<path fill="none" stroke="#9a32cd" stroke-dasharray="5,2" d="M194.36,-125.13C194.14,-95.88 193.72,-40.76 193.56,-19.59"/>
<polygon fill="#9a32cd" stroke="#9a32cd" points="190.86,-125.3 194.43,-135.27 197.86,-125.25 190.86,-125.3"/>
<text text-anchor="middle" x="215.5" y="-85.5" font-family="Helvetica,sans-Serif" font-size="10.00"> mock_ll</text>
</g>
<!-- Node3 -->
<g id="node3" class="node">
<title>Node3</title>
<g id="a_node3"><a xlink:href="classchampsim_1_1operable.html" target="_top" xlink:title=" ">
<polygon fill="none" stroke="black" points="165.5,-213.5 165.5,-232.5 281.5,-232.5 281.5,-213.5 165.5,-213.5"/>
<text text-anchor="middle" x="223.5" y="-220.5" font-family="Helvetica,sans-Serif" font-size="10.00">champsim::operable</text>
</a>
</g>
</g>
<!-- Node3&#45;&gt;Node2 -->
<g id="edge2" class="edge">
<title>Node3&#45;&gt;Node2</title>
<path fill="none" stroke="midnightblue" d="M232.18,-203.81C235.48,-194.21 237.39,-182.48 232.5,-173 228.42,-165.09 220.83,-158.99 213.5,-154.61"/>
<polygon fill="midnightblue" stroke="midnightblue" points="228.89,-202.61 228.32,-213.19 235.37,-205.27 228.89,-202.61"/>
</g>
<!-- Node7 -->
<g id="node7" class="node">
<title>Node7</title>
<g id="a_node7"><a xlink:href="structqueue__issue__MRP.html" target="_top" xlink:title=" ">
<polygon fill="none" stroke="black" points="38.5,-135.5 38.5,-154.5 142.5,-154.5 142.5,-135.5 38.5,-135.5"/>
<text text-anchor="middle" x="90.5" y="-142.5" font-family="Helvetica,sans-Serif" font-size="10.00">queue_issue_MRP</text>
</a>
</g>
</g>
<!-- Node3&#45;&gt;Node7 -->
<g id="edge7" class="edge">
<title>Node3&#45;&gt;Node7</title>
<path fill="none" stroke="midnightblue" d="M171.03,-210.5C159.16,-206.62 146.98,-201.55 136.5,-195 119.29,-184.23 104.22,-165.47 96.34,-154.55"/>
<polygon fill="midnightblue" stroke="midnightblue" points="170.31,-213.93 180.89,-213.48 172.33,-207.24 170.31,-213.93"/>
</g>
<!-- Node8 -->
<g id="node8" class="node">
<title>Node8</title>
<g id="a_node8"><a xlink:href="classCACHE.html" target="_top" xlink:title=" ">
<polygon fill="none" stroke="black" points="246.5,-135.5 246.5,-154.5 296.5,-154.5 296.5,-135.5 246.5,-135.5"/>
<text text-anchor="middle" x="271.5" y="-142.5" font-family="Helvetica,sans-Serif" font-size="10.00">CACHE</text>
</a>
</g>
</g>
<!-- Node3&#45;&gt;Node8 -->
<g id="edge10" class="edge">
<title>Node3&#45;&gt;Node8</title>
<path fill="none" stroke="midnightblue" d="M239.99,-205.79C243.02,-202.38 246.01,-198.7 248.5,-195 257.32,-181.91 264.47,-164.9 268.34,-154.75"/>
<polygon fill="midnightblue" stroke="midnightblue" points="237.39,-203.44 233.06,-213.11 242.47,-208.26 237.39,-203.44"/>
</g>
<!-- Node4 -->
<g id="node4" class="node">
<title>Node4</title>
<g id="a_node4"><a xlink:href="classchampsim_1_1channel.html" target="_top" xlink:title=" ">
<polygon fill="none" stroke="black" points="12.5,-213.5 12.5,-232.5 124.5,-232.5 124.5,-213.5 12.5,-213.5"/>
<text text-anchor="middle" x="68.5" y="-220.5" font-family="Helvetica,sans-Serif" font-size="10.00">champsim::channel</text>
</a>
</g>
</g>
<!-- Node4&#45;&gt;Node2 -->
<g id="edge3" class="edge">
<title>Node4&#45;&gt;Node2</title>
<path fill="none" stroke="#9a32cd" stroke-dasharray="5,2" d="M74.04,-203.87C78.11,-193.42 84.68,-180.84 94.5,-173 99.82,-168.75 133.87,-160.08 160.78,-153.7"/>
<polygon fill="#9a32cd" stroke="#9a32cd" points="70.72,-202.76 70.76,-213.35 77.33,-205.04 70.72,-202.76"/>
<text text-anchor="middle" x="114" y="-181.5" font-family="Helvetica,sans-Serif" font-size="10.00"> queues</text>
</g>
<!-- Node4&#45;&gt;Node7 -->
<g id="edge8" class="edge">
<title>Node4&#45;&gt;Node7</title>
<path fill="none" stroke="#9a32cd" stroke-dasharray="5,2" d="M22.39,-208.84C16.5,-205.27 11.24,-200.74 7.5,-195 2.17,-186.81 1.75,-180.91 7.5,-173 14.89,-162.82 26.21,-156.41 38.14,-152.38"/>
<polygon fill="#9a32cd" stroke="#9a32cd" points="20.85,-211.98 31.35,-213.41 24.04,-205.75 20.85,-211.98"/>
<text text-anchor="middle" x="27" y="-181.5" font-family="Helvetica,sans-Serif" font-size="10.00"> queues</text>
</g>
<!-- Node4&#45;&gt;Node8 -->
<g id="edge12" class="edge">
<title>Node4&#45;&gt;Node8</title>
<path fill="none" stroke="#9a32cd" stroke-dasharray="5,2" d="M101.4,-209.58C111.83,-205.32 123.3,-200.28 133.5,-195 149.82,-186.56 151.64,-180.3 168.5,-173 170.33,-172.21 216.46,-160.22 246.36,-152.49"/>
<polygon fill="#9a32cd" stroke="#9a32cd" points="99.78,-206.46 91.79,-213.42 102.37,-212.96 99.78,-206.46"/>
<text text-anchor="middle" x="206.5" y="-187" font-family="Helvetica,sans-Serif" font-size="10.00"> lower_level</text>
<text text-anchor="middle" x="206.5" y="-176" font-family="Helvetica,sans-Serif" font-size="10.00">lower_translate</text>
</g>
<!-- Node5 -->
<g id="node5" class="node">
<title>Node5</title>
<g id="a_node5"><a xlink:href="structchampsim_1_1cache__queue__stats.html" target="_top" xlink:title=" ">
<polygon fill="none" stroke="black" points="0,-291.5 0,-321.5 137,-321.5 137,-291.5 0,-291.5"/>
<text text-anchor="start" x="8" y="-309.5" font-family="Helvetica,sans-Serif" font-size="10.00">champsim::cache_queue</text>
<text text-anchor="middle" x="68.5" y="-298.5" font-family="Helvetica,sans-Serif" font-size="10.00">_stats</text>
</a>
</g>
</g>
<!-- Node5&#45;&gt;Node4 -->
<g id="edge4" class="edge">
<title>Node5&#45;&gt;Node4</title>
<path fill="none" stroke="#9a32cd" stroke-dasharray="5,2" d="M68.5,-281.25C68.5,-264.78 68.5,-243.99 68.5,-232.54"/>
<polygon fill="#9a32cd" stroke="#9a32cd" points="65,-281.3 68.5,-291.3 72,-281.3 65,-281.3"/>
<text text-anchor="middle" x="92.5" y="-265" font-family="Helvetica,sans-Serif" font-size="10.00"> roi_stats</text>
<text text-anchor="middle" x="92.5" y="-254" font-family="Helvetica,sans-Serif" font-size="10.00">sim_stats</text>
</g>
<!-- Node6 -->
<g id="node6" class="node">
<title>Node6</title>
<g id="a_node6"><a xlink:href="structto__rq__MRP.html" target="_top" xlink:title=" ">
<polygon fill="none" stroke="black" points="81.5,-78.5 81.5,-97.5 149.5,-97.5 149.5,-78.5 81.5,-78.5"/>
<text text-anchor="middle" x="115.5" y="-85.5" font-family="Helvetica,sans-Serif" font-size="10.00">to_rq_MRP</text>
</a>
</g>
</g>
<!-- Node6&#45;&gt;Node1 -->
<g id="edge5" class="edge">
<title>Node6&#45;&gt;Node1</title>
<path fill="none" stroke="#9a32cd" stroke-dasharray="5,2" d="M120.82,-68.53C124.47,-58.51 130.18,-46.47 138.5,-38 146.48,-29.88 157.39,-23.83 167.4,-19.54"/>
<polygon fill="#9a32cd" stroke="#9a32cd" points="117.39,-67.77 117.64,-78.36 124.05,-69.92 117.39,-67.77"/>
<text text-anchor="middle" x="159" y="-52" font-family="Helvetica,sans-Serif" font-size="10.00"> seed_ul</text>
<text text-anchor="middle" x="159" y="-41" font-family="Helvetica,sans-Serif" font-size="10.00">test_ul</text>
</g>
<!-- Node7&#45;&gt;Node6 -->
<g id="edge6" class="edge">
<title>Node7&#45;&gt;Node6</title>
<path fill="none" stroke="midnightblue" d="M98.67,-126.03C102.99,-116.53 108.09,-105.3 111.54,-97.71"/>
<polygon fill="midnightblue" stroke="midnightblue" points="95.36,-124.85 94.41,-135.41 101.73,-127.75 95.36,-124.85"/>
</g>
<!-- Node8&#45;&gt;Node1 -->
<g id="edge9" class="edge">
<title>Node8&#45;&gt;Node1</title>
<path fill="none" stroke="#9a32cd" stroke-dasharray="5,2" d="M263.9,-125.65C258.07,-112.17 249.52,-93.55 240.5,-78 227.81,-56.12 210.05,-32.28 200.4,-19.78"/>
<polygon fill="#9a32cd" stroke="#9a32cd" points="260.83,-127.37 267.95,-135.22 267.27,-124.64 260.83,-127.37"/>
<text text-anchor="middle" x="261" y="-85.5" font-family="Helvetica,sans-Serif" font-size="10.00"> uut</text>
</g>
<!-- Node9 -->
<g id="node9" class="node">
<title>Node9</title>
<g id="a_node9"><a xlink:href="structcache__stats.html" target="_top" xlink:title=" ">
<polygon fill="none" stroke="black" points="299.5,-213.5 299.5,-232.5 373.5,-232.5 373.5,-213.5 299.5,-213.5"/>
<text text-anchor="middle" x="336.5" y="-220.5" font-family="Helvetica,sans-Serif" font-size="10.00">cache_stats</text>
</a>
</g>
</g>
<!-- Node9&#45;&gt;Node8 -->
<g id="edge11" class="edge">
<title>Node9&#45;&gt;Node8</title>
<path fill="none" stroke="#9a32cd" stroke-dasharray="5,2" d="M322.34,-205.44C308.95,-189.79 289.4,-166.93 278.87,-154.62"/>
<polygon fill="#9a32cd" stroke="#9a32cd" points="319.88,-207.96 329.04,-213.28 325.2,-203.41 319.88,-207.96"/>
<text text-anchor="middle" x="336.5" y="-187" font-family="Helvetica,sans-Serif" font-size="10.00"> roi_stats</text>
<text text-anchor="middle" x="336.5" y="-176" font-family="Helvetica,sans-Serif" font-size="10.00">sim_stats</text>
</g>
</g>
</svg>
