<?xml version="1.0" encoding="UTF-8" standalone="no"?>
<!DOCTYPE svg PUBLIC "-//W3C//DTD SVG 1.1//EN"
 "http://www.w3.org/Graphics/SVG/1.1/DTD/svg11.dtd">
<!-- Generated by graphviz version 2.43.0 (0)
 -->
<!-- Title: champsim::channel::request Pages: 1 -->
<svg width="268pt" height="95pt"
 viewBox="0.00 0.00 268.00 95.00" xmlns="http://www.w3.org/2000/svg" xmlns:xlink="http://www.w3.org/1999/xlink">
<g id="graph0" class="graph" transform="scale(1 1) rotate(0) translate(4 91)">
<title>champsim::channel::request</title>
<!-- Node1 -->
<g id="node1" class="node">
<title>Node1</title>
<g id="a_node1"><a xlink:title=" ">
<polygon fill="#bfbfbf" stroke="black" points="78.5,-56.5 78.5,-86.5 196.5,-86.5 196.5,-56.5 78.5,-56.5"/>
<text text-anchor="start" x="86.5" y="-74.5" font-family="Helvetica,sans-Serif" font-size="10.00">champsim::channel::</text>
<text text-anchor="middle" x="137.5" y="-63.5" font-family="Helvetica,sans-Serif" font-size="10.00">request</text>
</a>
</g>
</g>
<!-- Node2 -->
<g id="node2" class="node">
<title>Node2</title>
<g id="a_node2"><a xlink:href="structdo__nothing__MRC_1_1packet.html" target="_top" xlink:title=" ">
<polygon fill="none" stroke="black" points="0,-0.5 0,-19.5 137,-19.5 137,-0.5 0,-0.5"/>
<text text-anchor="middle" x="68.5" y="-7.5" font-family="Helvetica,sans-Serif" font-size="10.00">do_nothing_MRC::packet</text>
</a>
</g>
</g>
<!-- Node1&#45;&gt;Node2 -->
<g id="edge1" class="edge">
<title>Node1&#45;&gt;Node2</title>
<path fill="none" stroke="midnightblue" d="M113.26,-49.6C101.34,-39.32 87.61,-27.48 78.54,-19.66"/>
<polygon fill="midnightblue" stroke="midnightblue" points="111.29,-52.52 121.15,-56.4 115.86,-47.22 111.29,-52.52"/>
</g>
<!-- Node3 -->
<g id="node3" class="node">
<title>Node3</title>
<g id="a_node3"><a xlink:href="structfilter__MRC_1_1packet.html" target="_top" xlink:title=" ">
<polygon fill="none" stroke="black" points="155,-0.5 155,-19.5 260,-19.5 260,-0.5 155,-0.5"/>
<text text-anchor="middle" x="207.5" y="-7.5" font-family="Helvetica,sans-Serif" font-size="10.00">filter_MRC::packet</text>
</a>
</g>
</g>
<!-- Node1&#45;&gt;Node3 -->
<g id="edge2" class="edge">
<title>Node1&#45;&gt;Node3</title>
<path fill="none" stroke="midnightblue" d="M161.74,-49.89C173.92,-39.54 188.02,-27.56 197.31,-19.66"/>
<polygon fill="midnightblue" stroke="midnightblue" points="159.44,-47.26 154.09,-56.4 163.98,-52.59 159.44,-47.26"/>
</g>
</g>
</svg>
