<?xml version="1.0" encoding="UTF-8" standalone="no"?>
<!DOCTYPE svg PUBLIC "-//W3C//DTD SVG 1.1//EN"
 "http://www.w3.org/Graphics/SVG/1.1/DTD/svg11.dtd">
<!-- Generated by graphviz version 2.43.0 (0)
 -->
<!-- Title: branch/tage_sc_l/tage_sc_l.cc Pages: 1 -->
<svg width="1507pt" height="319pt"
 viewBox="0.00 0.00 1506.66 319.00" xmlns="http://www.w3.org/2000/svg" xmlns:xlink="http://www.w3.org/1999/xlink">
<g id="graph0" class="graph" transform="scale(1 1) rotate(0) translate(4 315)">
<title>branch/tage_sc_l/tage_sc_l.cc</title>
<!-- Node1 -->
<g id="node1" class="node">
<title>Node1</title>
<g id="a_node1"><a xlink:title=" ">
<polygon fill="#bfbfbf" stroke="black" points="385.74,-280.5 385.74,-310.5 508.74,-310.5 508.74,-280.5 385.74,-280.5"/>
<text text-anchor="start" x="393.74" y="-298.5" font-family="Helvetica,sans-Serif" font-size="10.00">branch/tage_sc_l/tage</text>
<text text-anchor="middle" x="447.24" y="-287.5" font-family="Helvetica,sans-Serif" font-size="10.00">_sc_l.cc</text>
</a>
</g>
</g>
<!-- Node2 -->
<g id="node2" class="node">
<title>Node2</title>
<g id="a_node2"><a xlink:title=" ">
<polygon fill="none" stroke="#bfbfbf" points="160.24,-224.5 160.24,-243.5 216.24,-243.5 216.24,-224.5 160.24,-224.5"/>
<text text-anchor="middle" x="188.24" y="-231.5" font-family="Helvetica,sans-Serif" font-size="10.00">assert.h</text>
</a>
</g>
</g>
<!-- Node1&#45;&gt;Node2 -->
<g id="edge1" class="edge">
<title>Node1&#45;&gt;Node2</title>
<path fill="none" stroke="midnightblue" d="M385.46,-280.71C343.24,-271.22 285.75,-258.18 226.44,-244.26"/>
<polygon fill="midnightblue" stroke="midnightblue" points="227.05,-240.81 216.52,-241.92 225.45,-247.62 227.05,-240.81"/>
</g>
<!-- Node3 -->
<g id="node3" class="node">
<title>Node3</title>
<g id="a_node3"><a xlink:title=" ">
<polygon fill="none" stroke="#bfbfbf" points="234.74,-224.5 234.74,-243.5 299.74,-243.5 299.74,-224.5 234.74,-224.5"/>
<text text-anchor="middle" x="267.24" y="-231.5" font-family="Helvetica,sans-Serif" font-size="10.00">inttypes.h</text>
</a>
</g>
</g>
<!-- Node1&#45;&gt;Node3 -->
<g id="edge2" class="edge">
<title>Node1&#45;&gt;Node3</title>
<path fill="none" stroke="midnightblue" d="M404.59,-280.4C373.62,-270.16 332.2,-256.47 302.97,-246.81"/>
<polygon fill="midnightblue" stroke="midnightblue" points="303.77,-243.39 293.17,-243.57 301.57,-250.03 303.77,-243.39"/>
</g>
<!-- Node4 -->
<g id="node4" class="node">
<title>Node4</title>
<g id="a_node4"><a xlink:title=" ">
<polygon fill="none" stroke="#bfbfbf" points="317.74,-224.5 317.74,-243.5 368.74,-243.5 368.74,-224.5 317.74,-224.5"/>
<text text-anchor="middle" x="343.24" y="-231.5" font-family="Helvetica,sans-Serif" font-size="10.00">math.h</text>
</a>
</g>
</g>
<!-- Node1&#45;&gt;Node4 -->
<g id="edge3" class="edge">
<title>Node1&#45;&gt;Node4</title>
<path fill="none" stroke="midnightblue" d="M422.6,-280.4C405.93,-270.86 384.01,-258.32 367.44,-248.84"/>
<polygon fill="midnightblue" stroke="midnightblue" points="368.8,-245.59 358.38,-243.66 365.32,-251.66 368.8,-245.59"/>
</g>
<!-- Node5 -->
<g id="node5" class="node">
<title>Node5</title>
<g id="a_node5"><a xlink:title=" ">
<polygon fill="none" stroke="#bfbfbf" points="387.24,-224.5 387.24,-243.5 437.24,-243.5 437.24,-224.5 387.24,-224.5"/>
<text text-anchor="middle" x="412.24" y="-231.5" font-family="Helvetica,sans-Serif" font-size="10.00">stdio.h</text>
</a>
</g>
</g>
<!-- Node1&#45;&gt;Node5 -->
<g id="edge4" class="edge">
<title>Node1&#45;&gt;Node5</title>
<path fill="none" stroke="midnightblue" d="M438.95,-280.4C434.02,-272.02 427.73,-261.33 422.49,-252.42"/>
<polygon fill="midnightblue" stroke="midnightblue" points="425.42,-250.5 417.34,-243.66 419.39,-254.05 425.42,-250.5"/>
</g>
<!-- Node6 -->
<g id="node6" class="node">
<title>Node6</title>
<g id="a_node6"><a xlink:title=" ">
<polygon fill="none" stroke="#bfbfbf" points="455.74,-224.5 455.74,-243.5 508.74,-243.5 508.74,-224.5 455.74,-224.5"/>
<text text-anchor="middle" x="482.24" y="-231.5" font-family="Helvetica,sans-Serif" font-size="10.00">stdlib.h</text>
</a>
</g>
</g>
<!-- Node1&#45;&gt;Node6 -->
<g id="edge5" class="edge">
<title>Node1&#45;&gt;Node6</title>
<path fill="none" stroke="midnightblue" d="M455.54,-280.4C460.47,-272.02 466.76,-261.33 472,-252.42"/>
<polygon fill="midnightblue" stroke="midnightblue" points="475.1,-254.05 477.15,-243.66 469.06,-250.5 475.1,-254.05"/>
</g>
<!-- Node7 -->
<g id="node7" class="node">
<title>Node7</title>
<g id="a_node7"><a xlink:title=" ">
<polygon fill="none" stroke="#bfbfbf" points="526.74,-224.5 526.74,-243.5 579.74,-243.5 579.74,-224.5 526.74,-224.5"/>
<text text-anchor="middle" x="553.24" y="-231.5" font-family="Helvetica,sans-Serif" font-size="10.00">string.h</text>
</a>
</g>
</g>
<!-- Node1&#45;&gt;Node7 -->
<g id="edge6" class="edge">
<title>Node1&#45;&gt;Node7</title>
<path fill="none" stroke="midnightblue" d="M472.36,-280.4C489.51,-270.77 512.11,-258.09 529.06,-248.58"/>
<polygon fill="midnightblue" stroke="midnightblue" points="530.81,-251.6 537.82,-243.66 527.39,-245.5 530.81,-251.6"/>
</g>
<!-- Node8 -->
<g id="node8" class="node">
<title>Node8</title>
<g id="a_node8"><a xlink:href="ooo__cpu_8h.html" target="_top" xlink:title=" ">
<polygon fill="none" stroke="black" points="598.24,-224.5 598.24,-243.5 664.24,-243.5 664.24,-224.5 598.24,-224.5"/>
<text text-anchor="middle" x="631.24" y="-231.5" font-family="Helvetica,sans-Serif" font-size="10.00">ooo_cpu.h</text>
</a>
</g>
</g>
<!-- Node1&#45;&gt;Node8 -->
<g id="edge7" class="edge">
<title>Node1&#45;&gt;Node8</title>
<path fill="none" stroke="midnightblue" d="M490.85,-280.4C522.64,-270.12 565.22,-256.35 595.12,-246.68"/>
<polygon fill="midnightblue" stroke="midnightblue" points="596.3,-249.98 604.74,-243.57 594.15,-243.32 596.3,-249.98"/>
</g>
<!-- Node17 -->
<g id="node17" class="node">
<title>Node17</title>
<g id="a_node17"><a xlink:title=" ">
<polygon fill="none" stroke="#bfbfbf" points="992.74,-56.5 992.74,-75.5 1039.74,-75.5 1039.74,-56.5 992.74,-56.5"/>
<text text-anchor="middle" x="1016.24" y="-63.5" font-family="Helvetica,sans-Serif" font-size="10.00">vector</text>
</a>
</g>
</g>
<!-- Node1&#45;&gt;Node17 -->
<g id="edge54" class="edge">
<title>Node1&#45;&gt;Node17</title>
<path fill="none" stroke="midnightblue" d="M508.89,-290.41C681.28,-278.34 1158.67,-240.43 1204.24,-188 1237,-150.31 1189.82,-140.44 1142.24,-112 1126.32,-102.48 1081.22,-87.32 1049.55,-77.27"/>
<polygon fill="midnightblue" stroke="midnightblue" points="1050.38,-73.86 1039.79,-74.2 1048.28,-80.54 1050.38,-73.86"/>
</g>
<!-- Node9 -->
<g id="node9" class="node">
<title>Node9</title>
<g id="a_node9"><a xlink:title=" ">
<polygon fill="none" stroke="#bfbfbf" points="571.24,-56.5 571.24,-75.5 613.24,-75.5 613.24,-56.5 571.24,-56.5"/>
<text text-anchor="middle" x="592.24" y="-63.5" font-family="Helvetica,sans-Serif" font-size="10.00">array</text>
</a>
</g>
</g>
<!-- Node8&#45;&gt;Node9 -->
<g id="edge8" class="edge">
<title>Node8&#45;&gt;Node9</title>
<path fill="none" stroke="midnightblue" d="M597.82,-225.62C594.92,-225.04 592.03,-224.5 589.24,-224 533.12,-214.02 372.62,-231.05 335.24,-188 329.42,-181.29 330.24,-175.35 335.24,-168 348.63,-148.35 495.61,-98.5 561.09,-77.06"/>
<polygon fill="midnightblue" stroke="midnightblue" points="562.44,-80.3 570.86,-73.87 560.27,-73.64 562.44,-80.3"/>
</g>
<!-- Node10 -->
<g id="node10" class="node">
<title>Node10</title>
<g id="a_node10"><a xlink:title=" ">
<polygon fill="none" stroke="#bfbfbf" points="1136.24,-168.5 1136.24,-187.5 1180.24,-187.5 1180.24,-168.5 1136.24,-168.5"/>
<text text-anchor="middle" x="1158.24" y="-175.5" font-family="Helvetica,sans-Serif" font-size="10.00">bitset</text>
</a>
</g>
</g>
<!-- Node8&#45;&gt;Node10 -->
<g id="edge9" class="edge">
<title>Node8&#45;&gt;Node10</title>
<path fill="none" stroke="midnightblue" d="M664.34,-232.19C743.01,-229.79 947.41,-220.84 1126.18,-187.85"/>
<polygon fill="midnightblue" stroke="midnightblue" points="1126.83,-191.29 1136.02,-186.01 1125.54,-184.41 1126.83,-191.29"/>
</g>
<!-- Node11 -->
<g id="node11" class="node">
<title>Node11</title>
<g id="a_node11"><a xlink:title=" ">
<polygon fill="none" stroke="#bfbfbf" points="261.74,-56.5 261.74,-75.5 308.74,-75.5 308.74,-56.5 261.74,-56.5"/>
<text text-anchor="middle" x="285.24" y="-63.5" font-family="Helvetica,sans-Serif" font-size="10.00">deque</text>
</a>
</g>
</g>
<!-- Node8&#45;&gt;Node11 -->
<g id="edge10" class="edge">
<title>Node8&#45;&gt;Node11</title>
<path fill="none" stroke="midnightblue" d="M597.85,-225.42C594.95,-224.89 592.05,-224.41 589.24,-224 537.3,-216.48 153.92,-226.5 118.24,-188 71.11,-137.12 190.93,-93.96 252.03,-75.97"/>
<polygon fill="midnightblue" stroke="midnightblue" points="253,-79.33 261.65,-73.2 251.07,-72.6 253,-79.33"/>
</g>
<!-- Node12 -->
<g id="node12" class="node">
<title>Node12</title>
<g id="a_node12"><a xlink:title=" ">
<polygon fill="none" stroke="#bfbfbf" points="822.24,-0.5 822.24,-19.5 866.24,-19.5 866.24,-0.5 822.24,-0.5"/>
<text text-anchor="middle" x="844.24" y="-7.5" font-family="Helvetica,sans-Serif" font-size="10.00">limits</text>
</a>
</g>
</g>
<!-- Node8&#45;&gt;Node12 -->
<g id="edge11" class="edge">
<title>Node8&#45;&gt;Node12</title>
<path fill="none" stroke="midnightblue" d="M597.85,-225.37C594.95,-224.85 592.05,-224.38 589.24,-224 524.73,-215.15 48.86,-235.44 4.24,-188 -1.85,-181.52 -0.55,-175.48 4.24,-168 36.45,-117.78 71.87,-136.56 126.24,-112 182.09,-86.77 192.82,-70.99 252.24,-56 359.74,-28.89 704.58,-15.57 811.99,-12"/>
<polygon fill="midnightblue" stroke="midnightblue" points="812.32,-15.49 822.2,-11.67 812.09,-8.5 812.32,-15.49"/>
</g>
<!-- Node13 -->
<g id="node13" class="node">
<title>Node13</title>
<g id="a_node13"><a xlink:title=" ">
<polygon fill="none" stroke="#bfbfbf" points="13.24,-168.5 13.24,-187.5 71.24,-187.5 71.24,-168.5 13.24,-168.5"/>
<text text-anchor="middle" x="42.24" y="-175.5" font-family="Helvetica,sans-Serif" font-size="10.00">memory</text>
</a>
</g>
</g>
<!-- Node8&#45;&gt;Node13 -->
<g id="edge12" class="edge">
<title>Node8&#45;&gt;Node13</title>
<path fill="none" stroke="midnightblue" d="M597.85,-225.4C594.95,-224.88 592.05,-224.4 589.24,-224 366.91,-192.4 307.65,-219.07 85.24,-188 83.97,-187.82 82.68,-187.63 81.37,-187.42"/>
<polygon fill="midnightblue" stroke="midnightblue" points="81.75,-183.93 71.3,-185.64 80.53,-190.83 81.75,-183.93"/>
</g>
<!-- Node14 -->
<g id="node14" class="node">
<title>Node14</title>
<g id="a_node14"><a xlink:title=" ">
<polygon fill="none" stroke="#bfbfbf" points="1396.24,-56.5 1396.24,-75.5 1452.24,-75.5 1452.24,-56.5 1396.24,-56.5"/>
<text text-anchor="middle" x="1424.24" y="-63.5" font-family="Helvetica,sans-Serif" font-size="10.00">optional</text>
</a>
</g>
</g>
<!-- Node8&#45;&gt;Node14 -->
<g id="edge13" class="edge">
<title>Node8&#45;&gt;Node14</title>
<path fill="none" stroke="midnightblue" d="M664.29,-232.99C800.35,-232.69 1312.73,-228.84 1371.24,-188 1388.91,-175.67 1409.2,-116.24 1418.74,-85.5"/>
<polygon fill="midnightblue" stroke="midnightblue" points="1422.19,-86.2 1421.75,-75.62 1415.49,-84.17 1422.19,-86.2"/>
</g>
<!-- Node15 -->
<g id="node15" class="node">
<title>Node15</title>
<g id="a_node15"><a xlink:title=" ">
<polygon fill="none" stroke="#bfbfbf" points="127.74,-168.5 127.74,-187.5 174.74,-187.5 174.74,-168.5 127.74,-168.5"/>
<text text-anchor="middle" x="151.24" y="-175.5" font-family="Helvetica,sans-Serif" font-size="10.00">queue</text>
</a>
</g>
</g>
<!-- Node8&#45;&gt;Node15 -->
<g id="edge14" class="edge">
<title>Node8&#45;&gt;Node15</title>
<path fill="none" stroke="midnightblue" d="M597.84,-225.46C594.94,-224.92 592.05,-224.42 589.24,-224 413.36,-197.46 363.23,-219.82 184.87,-187.99"/>
<polygon fill="midnightblue" stroke="midnightblue" points="185.36,-184.52 174.89,-186.18 184.11,-191.41 185.36,-184.52"/>
</g>
<!-- Node16 -->
<g id="node16" class="node">
<title>Node16</title>
<g id="a_node16"><a xlink:title=" ">
<polygon fill="none" stroke="#bfbfbf" points="192.74,-168.5 192.74,-187.5 257.74,-187.5 257.74,-168.5 192.74,-168.5"/>
<text text-anchor="middle" x="225.24" y="-175.5" font-family="Helvetica,sans-Serif" font-size="10.00">stdexcept</text>
</a>
</g>
</g>
<!-- Node8&#45;&gt;Node16 -->
<g id="edge15" class="edge">
<title>Node8&#45;&gt;Node16</title>
<path fill="none" stroke="midnightblue" d="M597.83,-225.53C594.93,-224.98 592.04,-224.46 589.24,-224 449.31,-201.12 412.42,-209.35 272.24,-188 270.78,-187.78 269.29,-187.54 267.79,-187.3"/>
<polygon fill="midnightblue" stroke="midnightblue" points="268.26,-183.82 257.81,-185.57 267.06,-190.72 268.26,-183.82"/>
</g>
<!-- Node8&#45;&gt;Node17 -->
<g id="edge16" class="edge">
<title>Node8&#45;&gt;Node17</title>
<path fill="none" stroke="midnightblue" d="M664.45,-232.88C779.15,-232.12 1153.57,-226.66 1189.24,-188 1195.27,-181.47 1193.67,-175.71 1189.24,-168 1173.27,-140.18 1090.49,-100.01 1045.48,-79.74"/>
<polygon fill="midnightblue" stroke="midnightblue" points="1046.78,-76.48 1036.22,-75.61 1043.93,-82.88 1046.78,-76.48"/>
</g>
<!-- Node18 -->
<g id="node18" class="node">
<title>Node18</title>
<g id="a_node18"><a xlink:href="champsim_8h.html" target="_top" xlink:title=" ">
<polygon fill="none" stroke="black" points="1419.74,-168.5 1419.74,-187.5 1496.74,-187.5 1496.74,-168.5 1419.74,-168.5"/>
<text text-anchor="middle" x="1458.24" y="-175.5" font-family="Helvetica,sans-Serif" font-size="10.00">champsim.h</text>
</a>
</g>
</g>
<!-- Node8&#45;&gt;Node18 -->
<g id="edge17" class="edge">
<title>Node8&#45;&gt;Node18</title>
<path fill="none" stroke="midnightblue" d="M664.55,-232.37C772.1,-230.07 1119.71,-220.44 1405.24,-188 1406.55,-187.85 1407.87,-187.69 1409.2,-187.52"/>
<polygon fill="midnightblue" stroke="midnightblue" points="1410.11,-190.93 1419.53,-186.08 1409.14,-184 1410.11,-190.93"/>
</g>
<!-- Node21 -->
<g id="node21" class="node">
<title>Node21</title>
<g id="a_node21"><a xlink:title=" ">
<polygon fill="none" stroke="#bfbfbf" points="352.74,-168.5 352.74,-187.5 481.74,-187.5 481.74,-168.5 352.74,-168.5"/>
<text text-anchor="middle" x="417.24" y="-175.5" font-family="Helvetica,sans-Serif" font-size="10.00">champsim_constants.h</text>
</a>
</g>
</g>
<!-- Node8&#45;&gt;Node21 -->
<g id="edge20" class="edge">
<title>Node8&#45;&gt;Node21</title>
<path fill="none" stroke="midnightblue" d="M597.81,-224.56C560.96,-215.26 501.56,-200.28 461.03,-190.05"/>
<polygon fill="midnightblue" stroke="midnightblue" points="461.71,-186.61 451.15,-187.56 459.99,-193.4 461.71,-186.61"/>
</g>
<!-- Node22 -->
<g id="node22" class="node">
<title>Node22</title>
<g id="a_node22"><a xlink:href="channel_8h.html" target="_top" xlink:title=" ">
<polygon fill="none" stroke="black" points="584.24,-112.5 584.24,-131.5 648.24,-131.5 648.24,-112.5 584.24,-112.5"/>
<text text-anchor="middle" x="616.24" y="-119.5" font-family="Helvetica,sans-Serif" font-size="10.00">channel.h</text>
</a>
</g>
</g>
<!-- Node8&#45;&gt;Node22 -->
<g id="edge21" class="edge">
<title>Node8&#45;&gt;Node22</title>
<path fill="none" stroke="midnightblue" d="M597.81,-225.63C594.92,-225.05 592.03,-224.5 589.24,-224 534.87,-214.21 379.37,-229.8 343.24,-188 337.43,-181.27 337.49,-174.78 343.24,-168 372.29,-133.77 504.44,-125.54 573.67,-123.58"/>
<polygon fill="midnightblue" stroke="midnightblue" points="573.9,-127.08 583.81,-123.33 573.72,-120.08 573.9,-127.08"/>
</g>
<!-- Node25 -->
<g id="node25" class="node">
<title>Node25</title>
<g id="a_node25"><a xlink:href="instruction_8h.html" target="_top" xlink:title=" ">
<polygon fill="none" stroke="black" points="846.74,-112.5 846.74,-131.5 923.74,-131.5 923.74,-112.5 846.74,-112.5"/>
<text text-anchor="middle" x="885.24" y="-119.5" font-family="Helvetica,sans-Serif" font-size="10.00">instruction.h</text>
</a>
</g>
</g>
<!-- Node8&#45;&gt;Node25 -->
<g id="edge29" class="edge">
<title>Node8&#45;&gt;Node25</title>
<path fill="none" stroke="midnightblue" d="M598.1,-225.29C560.28,-215 506.53,-194.91 530.24,-168 550.17,-145.39 743.81,-131.2 836.4,-125.66"/>
<polygon fill="midnightblue" stroke="midnightblue" points="836.86,-129.14 846.64,-125.06 836.45,-122.15 836.86,-129.14"/>
</g>
<!-- Node28 -->
<g id="node28" class="node">
<title>Node28</title>
<g id="a_node28"><a xlink:href="module__impl_8h.html" target="_top" xlink:title=" ">
<polygon fill="none" stroke="black" points="538.74,-168.5 538.74,-187.5 627.74,-187.5 627.74,-168.5 538.74,-168.5"/>
<text text-anchor="middle" x="583.24" y="-175.5" font-family="Helvetica,sans-Serif" font-size="10.00">module_impl.h</text>
</a>
</g>
</g>
<!-- Node8&#45;&gt;Node28 -->
<g id="edge38" class="edge">
<title>Node8&#45;&gt;Node28</title>
<path fill="none" stroke="midnightblue" d="M623.32,-224.08C616.4,-216.3 606.18,-204.8 597.79,-195.37"/>
<polygon fill="midnightblue" stroke="midnightblue" points="600.28,-192.9 591.02,-187.75 595.05,-197.55 600.28,-192.9"/>
</g>
<!-- Node29 -->
<g id="node29" class="node">
<title>Node29</title>
<g id="a_node29"><a xlink:href="operable_8h.html" target="_top" xlink:title=" ">
<polygon fill="none" stroke="black" points="646.24,-168.5 646.24,-187.5 714.24,-187.5 714.24,-168.5 646.24,-168.5"/>
<text text-anchor="middle" x="680.24" y="-175.5" font-family="Helvetica,sans-Serif" font-size="10.00">operable.h</text>
</a>
</g>
</g>
<!-- Node8&#45;&gt;Node29 -->
<g id="edge39" class="edge">
<title>Node8&#45;&gt;Node29</title>
<path fill="none" stroke="midnightblue" d="M639.34,-224.08C646.4,-216.3 656.83,-204.8 665.39,-195.37"/>
<polygon fill="midnightblue" stroke="midnightblue" points="668.18,-197.51 672.3,-187.75 662.99,-192.8 668.18,-197.51"/>
</g>
<!-- Node30 -->
<g id="node30" class="node">
<title>Node30</title>
<g id="a_node30"><a xlink:href="util_2lru__table_8h.html" target="_top" xlink:title=" ">
<polygon fill="none" stroke="black" points="1274.74,-168.5 1274.74,-187.5 1361.74,-187.5 1361.74,-168.5 1274.74,-168.5"/>
<text text-anchor="middle" x="1318.24" y="-175.5" font-family="Helvetica,sans-Serif" font-size="10.00">util/lru_table.h</text>
</a>
</g>
</g>
<!-- Node8&#45;&gt;Node30 -->
<g id="edge40" class="edge">
<title>Node8&#45;&gt;Node30</title>
<path fill="none" stroke="midnightblue" d="M664.26,-230.69C753.97,-224.37 1009.75,-206.05 1222.24,-188 1235.8,-186.85 1250.43,-185.52 1264.08,-184.25"/>
<polygon fill="midnightblue" stroke="midnightblue" points="1264.66,-187.71 1274.29,-183.28 1264.01,-180.74 1264.66,-187.71"/>
</g>
<!-- Node35 -->
<g id="node35" class="node">
<title>Node35</title>
<g id="a_node35"><a xlink:title=" ">
<polygon fill="none" stroke="#bfbfbf" points="732.74,-168.5 732.74,-187.5 801.74,-187.5 801.74,-168.5 732.74,-168.5"/>
<text text-anchor="middle" x="767.24" y="-175.5" font-family="Helvetica,sans-Serif" font-size="10.00">type_traits</text>
</a>
</g>
</g>
<!-- Node8&#45;&gt;Node35 -->
<g id="edge51" class="edge">
<title>Node8&#45;&gt;Node35</title>
<path fill="none" stroke="midnightblue" d="M652.79,-224.44C675.28,-215.52 710.73,-201.44 736.22,-191.32"/>
<polygon fill="midnightblue" stroke="midnightblue" points="737.79,-194.46 745.8,-187.52 735.21,-187.95 737.79,-194.46"/>
</g>
<!-- Node36 -->
<g id="node36" class="node">
<title>Node36</title>
<g id="a_node36"><a xlink:title=" ">
<polygon fill="none" stroke="#bfbfbf" points="820.24,-168.5 820.24,-187.5 962.24,-187.5 962.24,-168.5 820.24,-168.5"/>
<text text-anchor="middle" x="891.24" y="-175.5" font-family="Helvetica,sans-Serif" font-size="10.00">ooo_cpu_module_decl.inc</text>
</a>
</g>
</g>
<!-- Node8&#45;&gt;Node36 -->
<g id="edge52" class="edge">
<title>Node8&#45;&gt;Node36</title>
<path fill="none" stroke="midnightblue" d="M664.44,-226.11C708.84,-216.88 788.02,-200.44 840.08,-189.63"/>
<polygon fill="midnightblue" stroke="midnightblue" points="841.04,-193 850.12,-187.54 839.61,-186.15 841.04,-193"/>
</g>
<!-- Node37 -->
<g id="node37" class="node">
<title>Node37</title>
<g id="a_node37"><a xlink:title=" ">
<polygon fill="none" stroke="#bfbfbf" points="980.74,-168.5 980.74,-187.5 1117.74,-187.5 1117.74,-168.5 980.74,-168.5"/>
<text text-anchor="middle" x="1049.24" y="-175.5" font-family="Helvetica,sans-Serif" font-size="10.00">ooo_cpu_module_def.inc</text>
</a>
</g>
</g>
<!-- Node8&#45;&gt;Node37 -->
<g id="edge53" class="edge">
<title>Node8&#45;&gt;Node37</title>
<path fill="none" stroke="midnightblue" d="M664.39,-228.72C730.75,-220.15 881.38,-200.69 973.28,-188.81"/>
<polygon fill="midnightblue" stroke="midnightblue" points="973.89,-192.26 983.36,-187.51 972.99,-185.32 973.89,-192.26"/>
</g>
<!-- Node19 -->
<g id="node19" class="node">
<title>Node19</title>
<g id="a_node19"><a xlink:title=" ">
<polygon fill="none" stroke="#bfbfbf" points="1148.24,-0.5 1148.24,-19.5 1198.24,-19.5 1198.24,-0.5 1148.24,-0.5"/>
<text text-anchor="middle" x="1173.24" y="-7.5" font-family="Helvetica,sans-Serif" font-size="10.00">cstdint</text>
</a>
</g>
</g>
<!-- Node18&#45;&gt;Node19 -->
<g id="edge18" class="edge">
<title>Node18&#45;&gt;Node19</title>
<path fill="none" stroke="midnightblue" d="M1468.41,-168.19C1477.15,-159.87 1489.14,-146.54 1494.24,-132 1506.43,-97.25 1491.71,-76.69 1461.24,-56 1420.61,-28.4 1276.01,-16.78 1208.47,-12.78"/>
<polygon fill="midnightblue" stroke="midnightblue" points="1208.51,-9.28 1198.32,-12.2 1208.11,-16.26 1208.51,-9.28"/>
</g>
<!-- Node20 -->
<g id="node20" class="node">
<title>Node20</title>
<g id="a_node20"><a xlink:title=" ">
<polygon fill="none" stroke="#bfbfbf" points="1419.74,-112.5 1419.74,-131.5 1484.74,-131.5 1484.74,-112.5 1419.74,-112.5"/>
<text text-anchor="middle" x="1452.24" y="-119.5" font-family="Helvetica,sans-Serif" font-size="10.00">exception</text>
</a>
</g>
</g>
<!-- Node18&#45;&gt;Node20 -->
<g id="edge19" class="edge">
<title>Node18&#45;&gt;Node20</title>
<path fill="none" stroke="midnightblue" d="M1457.25,-168.08C1456.46,-160.93 1455.31,-150.64 1454.32,-141.69"/>
<polygon fill="midnightblue" stroke="midnightblue" points="1457.8,-141.3 1453.22,-131.75 1450.84,-142.08 1457.8,-141.3"/>
</g>
<!-- Node22&#45;&gt;Node9 -->
<g id="edge22" class="edge">
<title>Node22&#45;&gt;Node9</title>
<path fill="none" stroke="midnightblue" d="M612.28,-112.08C609.03,-104.77 604.32,-94.18 600.29,-85.1"/>
<polygon fill="midnightblue" stroke="midnightblue" points="603.39,-83.47 596.13,-75.75 597,-86.31 603.39,-83.47"/>
</g>
<!-- Node22&#45;&gt;Node11 -->
<g id="edge24" class="edge">
<title>Node22&#45;&gt;Node11</title>
<path fill="none" stroke="midnightblue" d="M584.21,-115.77C521.5,-105.54 383.11,-82.97 319.03,-72.51"/>
<polygon fill="midnightblue" stroke="midnightblue" points="319.48,-69.04 309.04,-70.88 318.35,-75.95 319.48,-69.04"/>
</g>
<!-- Node22&#45;&gt;Node12 -->
<g id="edge26" class="edge">
<title>Node22&#45;&gt;Node12</title>
<path fill="none" stroke="midnightblue" d="M620.32,-112.34C627.4,-98.26 643.34,-70.53 665.24,-56 710.4,-26.05 774.01,-16.03 811.98,-12.68"/>
<polygon fill="midnightblue" stroke="midnightblue" points="812.28,-16.17 821.98,-11.9 811.73,-9.19 812.28,-16.17"/>
</g>
<!-- Node22&#45;&gt;Node17 -->
<g id="edge27" class="edge">
<title>Node22&#45;&gt;Node17</title>
<path fill="none" stroke="midnightblue" d="M648.3,-116.67C722.67,-106.63 906.36,-81.83 982.42,-71.57"/>
<polygon fill="midnightblue" stroke="midnightblue" points="982.97,-75.02 992.42,-70.22 982.04,-68.09 982.97,-75.02"/>
</g>
<!-- Node22&#45;&gt;Node19 -->
<g id="edge23" class="edge">
<title>Node22&#45;&gt;Node19</title>
<path fill="none" stroke="midnightblue" d="M625.87,-112.32C643.99,-96.16 682.84,-62.54 699.24,-56 779.17,-24.12 1042.6,-14.33 1138.19,-11.79"/>
<polygon fill="midnightblue" stroke="midnightblue" points="1138.31,-15.28 1148.22,-11.53 1138.13,-8.29 1138.31,-15.28"/>
</g>
<!-- Node23 -->
<g id="node23" class="node">
<title>Node23</title>
<g id="a_node23"><a xlink:title=" ">
<polygon fill="none" stroke="#bfbfbf" points="707.74,-56.5 707.74,-75.5 772.74,-75.5 772.74,-56.5 707.74,-56.5"/>
<text text-anchor="middle" x="740.24" y="-63.5" font-family="Helvetica,sans-Serif" font-size="10.00">functional</text>
</a>
</g>
</g>
<!-- Node22&#45;&gt;Node23 -->
<g id="edge25" class="edge">
<title>Node22&#45;&gt;Node23</title>
<path fill="none" stroke="midnightblue" d="M635.89,-112.44C656.21,-103.6 688.15,-89.69 711.34,-79.59"/>
<polygon fill="midnightblue" stroke="midnightblue" points="712.92,-82.72 720.69,-75.52 710.12,-76.3 712.92,-82.72"/>
</g>
<!-- Node24 -->
<g id="node24" class="node">
<title>Node24</title>
<g id="a_node24"><a xlink:title=" ">
<polygon fill="none" stroke="#bfbfbf" points="479.74,-56.5 479.74,-75.5 552.74,-75.5 552.74,-56.5 479.74,-56.5"/>
<text text-anchor="middle" x="516.24" y="-63.5" font-family="Helvetica,sans-Serif" font-size="10.00">string_view</text>
</a>
</g>
</g>
<!-- Node22&#45;&gt;Node24 -->
<g id="edge28" class="edge">
<title>Node22&#45;&gt;Node24</title>
<path fill="none" stroke="midnightblue" d="M600.18,-112.32C584.29,-103.74 559.74,-90.49 541.29,-80.52"/>
<polygon fill="midnightblue" stroke="midnightblue" points="542.73,-77.33 532.27,-75.65 539.41,-83.49 542.73,-77.33"/>
</g>
<!-- Node25&#45;&gt;Node9 -->
<g id="edge31" class="edge">
<title>Node25&#45;&gt;Node9</title>
<path fill="none" stroke="midnightblue" d="M846.64,-113.88C787.93,-103.06 677.34,-82.68 623.41,-72.74"/>
<polygon fill="midnightblue" stroke="midnightblue" points="623.88,-69.27 613.41,-70.9 622.61,-76.16 623.88,-69.27"/>
</g>
<!-- Node25&#45;&gt;Node12 -->
<g id="edge34" class="edge">
<title>Node25&#45;&gt;Node12</title>
<path fill="none" stroke="midnightblue" d="M892.5,-112.26C902.19,-99.46 917.06,-75.07 907.24,-56 900.17,-42.25 886.72,-31.77 874.07,-24.39"/>
<polygon fill="midnightblue" stroke="midnightblue" points="875.56,-21.22 865.09,-19.57 872.24,-27.39 875.56,-21.22"/>
</g>
<!-- Node25&#45;&gt;Node17 -->
<g id="edge35" class="edge">
<title>Node25&#45;&gt;Node17</title>
<path fill="none" stroke="midnightblue" d="M906,-112.44C927.56,-103.56 961.51,-89.56 986.04,-79.45"/>
<polygon fill="midnightblue" stroke="midnightblue" points="987.67,-82.56 995.58,-75.52 985,-76.09 987.67,-82.56"/>
</g>
<!-- Node25&#45;&gt;Node19 -->
<g id="edge32" class="edge">
<title>Node25&#45;&gt;Node19</title>
<path fill="none" stroke="midnightblue" d="M895.53,-112.48C912.78,-98.6 949.13,-71.15 984.24,-56 1035.34,-33.95 1099.08,-21.63 1137.94,-15.66"/>
<polygon fill="midnightblue" stroke="midnightblue" points="1138.83,-19.07 1148.21,-14.14 1137.81,-12.14 1138.83,-19.07"/>
</g>
<!-- Node25&#45;&gt;Node23 -->
<g id="edge33" class="edge">
<title>Node25&#45;&gt;Node23</title>
<path fill="none" stroke="midnightblue" d="M862.27,-112.44C838.09,-103.44 799.83,-89.19 772.6,-79.05"/>
<polygon fill="midnightblue" stroke="midnightblue" points="773.71,-75.73 763.11,-75.52 771.26,-82.29 773.71,-75.73"/>
</g>
<!-- Node26 -->
<g id="node26" class="node">
<title>Node26</title>
<g id="a_node26"><a xlink:title=" ">
<polygon fill="none" stroke="#bfbfbf" points="1058.24,-56.5 1058.24,-75.5 1122.24,-75.5 1122.24,-56.5 1058.24,-56.5"/>
<text text-anchor="middle" x="1090.24" y="-63.5" font-family="Helvetica,sans-Serif" font-size="10.00">algorithm</text>
</a>
</g>
</g>
<!-- Node25&#45;&gt;Node26 -->
<g id="edge30" class="edge">
<title>Node25&#45;&gt;Node26</title>
<path fill="none" stroke="midnightblue" d="M917.73,-112.44C952.96,-103.16 1009.35,-88.31 1048,-78.13"/>
<polygon fill="midnightblue" stroke="midnightblue" points="1049.13,-81.45 1057.91,-75.52 1047.35,-74.68 1049.13,-81.45"/>
</g>
<!-- Node27 -->
<g id="node27" class="node">
<title>Node27</title>
<g id="a_node27"><a xlink:href="trace__instruction_8h.html" target="_top" xlink:title=" ">
<polygon fill="none" stroke="black" points="790.74,-56.5 790.74,-75.5 897.74,-75.5 897.74,-56.5 790.74,-56.5"/>
<text text-anchor="middle" x="844.24" y="-63.5" font-family="Helvetica,sans-Serif" font-size="10.00">trace_instruction.h</text>
</a>
</g>
</g>
<!-- Node25&#45;&gt;Node27 -->
<g id="edge36" class="edge">
<title>Node25&#45;&gt;Node27</title>
<path fill="none" stroke="midnightblue" d="M878.47,-112.08C872.68,-104.46 864.19,-93.26 857.11,-83.94"/>
<polygon fill="midnightblue" stroke="midnightblue" points="859.72,-81.6 850.89,-75.75 854.15,-85.83 859.72,-81.6"/>
</g>
<!-- Node27&#45;&gt;Node12 -->
<g id="edge37" class="edge">
<title>Node27&#45;&gt;Node12</title>
<path fill="none" stroke="midnightblue" d="M844.24,-56.08C844.24,-49.01 844.24,-38.86 844.24,-29.99"/>
<polygon fill="midnightblue" stroke="midnightblue" points="847.74,-29.75 844.24,-19.75 840.74,-29.75 847.74,-29.75"/>
</g>
<!-- Node31 -->
<g id="node31" class="node">
<title>Node31</title>
<g id="a_node31"><a xlink:href="msl_2lru__table_8h.html" target="_top" xlink:title=" ">
<polygon fill="none" stroke="black" points="1273.74,-112.5 1273.74,-131.5 1362.74,-131.5 1362.74,-112.5 1273.74,-112.5"/>
<text text-anchor="middle" x="1318.24" y="-119.5" font-family="Helvetica,sans-Serif" font-size="10.00">msl/lru_table.h</text>
</a>
</g>
</g>
<!-- Node30&#45;&gt;Node31 -->
<g id="edge41" class="edge">
<title>Node30&#45;&gt;Node31</title>
<path fill="none" stroke="midnightblue" d="M1318.24,-168.08C1318.24,-161.01 1318.24,-150.86 1318.24,-141.99"/>
<polygon fill="midnightblue" stroke="midnightblue" points="1321.74,-141.75 1318.24,-131.75 1314.74,-141.75 1321.74,-141.75"/>
</g>
<!-- Node31&#45;&gt;Node14 -->
<g id="edge45" class="edge">
<title>Node31&#45;&gt;Node14</title>
<path fill="none" stroke="midnightblue" d="M1335.28,-112.32C1352.27,-103.66 1378.62,-90.24 1398.24,-80.25"/>
<polygon fill="midnightblue" stroke="midnightblue" points="1399.93,-83.31 1407.26,-75.65 1396.76,-77.08 1399.93,-83.31"/>
</g>
<!-- Node31&#45;&gt;Node17 -->
<g id="edge47" class="edge">
<title>Node31&#45;&gt;Node17</title>
<path fill="none" stroke="midnightblue" d="M1273.55,-114.08C1212.5,-104.54 1105.18,-87.43 1049.97,-75.93"/>
<polygon fill="midnightblue" stroke="midnightblue" points="1050.48,-72.46 1039.97,-73.78 1049.01,-79.3 1050.48,-72.46"/>
</g>
<!-- Node31&#45;&gt;Node19 -->
<g id="edge44" class="edge">
<title>Node31&#45;&gt;Node19</title>
<path fill="none" stroke="midnightblue" d="M1305.32,-112.27C1292.27,-103.37 1271.62,-89.06 1254.24,-76 1232.35,-59.55 1207.93,-39.74 1191.68,-26.35"/>
<polygon fill="midnightblue" stroke="midnightblue" points="1193.5,-23.31 1183.56,-19.63 1189.04,-28.7 1193.5,-23.31"/>
</g>
<!-- Node31&#45;&gt;Node26 -->
<g id="edge42" class="edge">
<title>Node31&#45;&gt;Node26</title>
<path fill="none" stroke="midnightblue" d="M1282.12,-112.44C1241.43,-102.81 1175.39,-87.17 1132.39,-76.98"/>
<polygon fill="midnightblue" stroke="midnightblue" points="1133.05,-73.54 1122.52,-74.64 1131.44,-80.35 1133.05,-73.54"/>
</g>
<!-- Node32 -->
<g id="node32" class="node">
<title>Node32</title>
<g id="a_node32"><a xlink:title=" ">
<polygon fill="none" stroke="#bfbfbf" points="1326.24,-56.5 1326.24,-75.5 1378.24,-75.5 1378.24,-56.5 1326.24,-56.5"/>
<text text-anchor="middle" x="1352.24" y="-63.5" font-family="Helvetica,sans-Serif" font-size="10.00">cassert</text>
</a>
</g>
</g>
<!-- Node31&#45;&gt;Node32 -->
<g id="edge43" class="edge">
<title>Node31&#45;&gt;Node32</title>
<path fill="none" stroke="midnightblue" d="M1323.86,-112.08C1328.61,-104.53 1335.56,-93.49 1341.4,-84.23"/>
<polygon fill="midnightblue" stroke="midnightblue" points="1344.37,-86.08 1346.73,-75.75 1338.44,-82.35 1344.37,-86.08"/>
</g>
<!-- Node33 -->
<g id="node33" class="node">
<title>Node33</title>
<g id="a_node33"><a xlink:title=" ">
<polygon fill="none" stroke="#bfbfbf" points="1262.74,-56.5 1262.74,-75.5 1307.74,-75.5 1307.74,-56.5 1262.74,-56.5"/>
<text text-anchor="middle" x="1285.24" y="-63.5" font-family="Helvetica,sans-Serif" font-size="10.00">utility</text>
</a>
</g>
</g>
<!-- Node31&#45;&gt;Node33 -->
<g id="edge46" class="edge">
<title>Node31&#45;&gt;Node33</title>
<path fill="none" stroke="midnightblue" d="M1312.79,-112.08C1308.23,-104.61 1301.58,-93.72 1295.95,-84.52"/>
<polygon fill="midnightblue" stroke="midnightblue" points="1298.79,-82.46 1290.59,-75.75 1292.82,-86.11 1298.79,-82.46"/>
</g>
<!-- Node34 -->
<g id="node34" class="node">
<title>Node34</title>
<g id="a_node34"><a xlink:href="msl_2bits_8h.html" target="_top" xlink:title=" ">
<polygon fill="none" stroke="black" points="1140.74,-56.5 1140.74,-75.5 1205.74,-75.5 1205.74,-56.5 1140.74,-56.5"/>
<text text-anchor="middle" x="1173.24" y="-63.5" font-family="Helvetica,sans-Serif" font-size="10.00">msl/bits.h</text>
</a>
</g>
</g>
<!-- Node31&#45;&gt;Node34 -->
<g id="edge48" class="edge">
<title>Node31&#45;&gt;Node34</title>
<path fill="none" stroke="midnightblue" d="M1295.27,-112.44C1271.09,-103.44 1232.83,-89.19 1205.6,-79.05"/>
<polygon fill="midnightblue" stroke="midnightblue" points="1206.71,-75.73 1196.11,-75.52 1204.26,-82.29 1206.71,-75.73"/>
</g>
<!-- Node34&#45;&gt;Node12 -->
<g id="edge50" class="edge">
<title>Node34&#45;&gt;Node12</title>
<path fill="none" stroke="midnightblue" d="M1140.72,-57.84C1137.52,-57.2 1134.32,-56.57 1131.24,-56 1039.15,-38.93 929.64,-22.94 876.45,-15.45"/>
<polygon fill="midnightblue" stroke="midnightblue" points="876.67,-11.95 866.28,-14.03 875.7,-18.88 876.67,-11.95"/>
</g>
<!-- Node34&#45;&gt;Node19 -->
<g id="edge49" class="edge">
<title>Node34&#45;&gt;Node19</title>
<path fill="none" stroke="midnightblue" d="M1173.24,-56.08C1173.24,-49.01 1173.24,-38.86 1173.24,-29.99"/>
<polygon fill="midnightblue" stroke="midnightblue" points="1176.74,-29.75 1173.24,-19.75 1169.74,-29.75 1176.74,-29.75"/>
</g>
</g>
</svg>
