<?xml version="1.0" encoding="UTF-8" standalone="no"?>
<!DOCTYPE svg PUBLIC "-//W3C//DTD SVG 1.1//EN"
 "http://www.w3.org/Graphics/SVG/1.1/DTD/svg11.dtd">
<!-- Generated by graphviz version 2.43.0 (0)
 -->
<!-- Title: btb/advanced_btb/target_predictor.cc Pages: 1 -->
<svg width="1642pt" height="375pt"
 viewBox="0.00 0.00 1642.40 375.00" xmlns="http://www.w3.org/2000/svg" xmlns:xlink="http://www.w3.org/1999/xlink">
<g id="graph0" class="graph" transform="scale(1 1) rotate(0) translate(4 371)">
<title>btb/advanced_btb/target_predictor.cc</title>
<!-- Node1 -->
<g id="node1" class="node">
<title>Node1</title>
<g id="a_node1"><a xlink:title=" ">
<polygon fill="#bfbfbf" stroke="black" points="554.5,-336.5 554.5,-366.5 690.5,-366.5 690.5,-336.5 554.5,-336.5"/>
<text text-anchor="start" x="562.5" y="-354.5" font-family="Helvetica,sans-Serif" font-size="10.00">btb/advanced_btb/target</text>
<text text-anchor="middle" x="622.5" y="-343.5" font-family="Helvetica,sans-Serif" font-size="10.00">_predictor.cc</text>
</a>
</g>
</g>
<!-- Node2 -->
<g id="node2" class="node">
<title>Node2</title>
<g id="a_node2"><a xlink:title=" ">
<polygon fill="none" stroke="#bfbfbf" points="37.5,-280.5 37.5,-299.5 97.5,-299.5 97.5,-280.5 37.5,-280.5"/>
<text text-anchor="middle" x="67.5" y="-287.5" font-family="Helvetica,sans-Serif" font-size="10.00">iostream</text>
</a>
</g>
</g>
<!-- Node1&#45;&gt;Node2 -->
<g id="edge1" class="edge">
<title>Node1&#45;&gt;Node2</title>
<path fill="none" stroke="midnightblue" d="M554.11,-346.63C456.89,-340.5 273.09,-326.61 107.53,-299.97"/>
<polygon fill="midnightblue" stroke="midnightblue" points="108.09,-296.52 97.66,-298.36 106.96,-303.43 108.09,-296.52"/>
</g>
<!-- Node3 -->
<g id="node3" class="node">
<title>Node3</title>
<g id="a_node3"><a xlink:href="ooo__cpu_8h.html" target="_top" xlink:title=" ">
<polygon fill="none" stroke="black" points="711.5,-224.5 711.5,-243.5 777.5,-243.5 777.5,-224.5 711.5,-224.5"/>
<text text-anchor="middle" x="744.5" y="-231.5" font-family="Helvetica,sans-Serif" font-size="10.00">ooo_cpu.h</text>
</a>
</g>
</g>
<!-- Node1&#45;&gt;Node3 -->
<g id="edge2" class="edge">
<title>Node1&#45;&gt;Node3</title>
<path fill="none" stroke="midnightblue" d="M637.46,-336.34C660.34,-314.68 703.88,-273.45 727.78,-250.83"/>
<polygon fill="midnightblue" stroke="midnightblue" points="730.49,-253.09 735.34,-243.67 725.67,-248 730.49,-253.09"/>
</g>
<!-- Node33 -->
<g id="node33" class="node">
<title>Node33</title>
<g id="a_node33"><a xlink:href="basic__btb_8h.html" target="_top" xlink:title=" ">
<polygon fill="none" stroke="black" points="582,-280.5 582,-299.5 663,-299.5 663,-280.5 582,-280.5"/>
<text text-anchor="middle" x="622.5" y="-287.5" font-family="Helvetica,sans-Serif" font-size="10.00">../basic_btb.h</text>
</a>
</g>
</g>
<!-- Node1&#45;&gt;Node33 -->
<g id="edge49" class="edge">
<title>Node1&#45;&gt;Node33</title>
<path fill="none" stroke="midnightblue" d="M622.5,-336.4C622.5,-328.47 622.5,-318.46 622.5,-309.86"/>
<polygon fill="midnightblue" stroke="midnightblue" points="626,-309.66 622.5,-299.66 619,-309.66 626,-309.66"/>
</g>
<!-- Node35 -->
<g id="node35" class="node">
<title>Node35</title>
<g id="a_node35"><a xlink:href="ittage__64KB_8h.html" target="_top" xlink:title=" ">
<polygon fill="none" stroke="black" points="115.5,-280.5 115.5,-299.5 209.5,-299.5 209.5,-280.5 115.5,-280.5"/>
<text text-anchor="middle" x="162.5" y="-287.5" font-family="Helvetica,sans-Serif" font-size="10.00">../ittage_64KB.h</text>
</a>
</g>
</g>
<!-- Node1&#45;&gt;Node35 -->
<g id="edge52" class="edge">
<title>Node1&#45;&gt;Node35</title>
<path fill="none" stroke="midnightblue" d="M554.13,-341.66C463.34,-329.91 304.61,-309.38 219.79,-298.41"/>
<polygon fill="midnightblue" stroke="midnightblue" points="220.19,-294.93 209.82,-297.12 219.29,-301.87 220.19,-294.93"/>
</g>
<!-- Node38 -->
<g id="node38" class="node">
<title>Node38</title>
<g id="a_node38"><a xlink:href="ras_8h.html" target="_top" xlink:title=" ">
<polygon fill="none" stroke="black" points="719.5,-280.5 719.5,-299.5 769.5,-299.5 769.5,-280.5 719.5,-280.5"/>
<text text-anchor="middle" x="744.5" y="-287.5" font-family="Helvetica,sans-Serif" font-size="10.00">../ras.h</text>
</a>
</g>
</g>
<!-- Node1&#45;&gt;Node38 -->
<g id="edge56" class="edge">
<title>Node1&#45;&gt;Node38</title>
<path fill="none" stroke="midnightblue" d="M651.41,-336.4C671.52,-326.59 698.12,-313.62 717.74,-304.05"/>
<polygon fill="midnightblue" stroke="midnightblue" points="719.29,-307.19 726.75,-299.66 716.23,-300.9 719.29,-307.19"/>
</g>
<!-- Node4 -->
<g id="node4" class="node">
<title>Node4</title>
<g id="a_node4"><a xlink:title=" ">
<polygon fill="none" stroke="#bfbfbf" points="484.5,-56.5 484.5,-75.5 526.5,-75.5 526.5,-56.5 484.5,-56.5"/>
<text text-anchor="middle" x="505.5" y="-63.5" font-family="Helvetica,sans-Serif" font-size="10.00">array</text>
</a>
</g>
</g>
<!-- Node3&#45;&gt;Node4 -->
<g id="edge3" class="edge">
<title>Node3&#45;&gt;Node4</title>
<path fill="none" stroke="midnightblue" d="M711.3,-228.51C699.39,-226.98 685.86,-225.32 673.5,-224 627.37,-219.08 288.86,-222.19 257.5,-188 251.49,-181.45 252.54,-175.38 257.5,-168 270.34,-148.91 411.55,-98.97 474.97,-77.29"/>
<polygon fill="midnightblue" stroke="midnightblue" points="476.11,-80.6 484.45,-74.06 473.86,-73.97 476.11,-80.6"/>
</g>
<!-- Node5 -->
<g id="node5" class="node">
<title>Node5</title>
<g id="a_node5"><a xlink:title=" ">
<polygon fill="none" stroke="#bfbfbf" points="266.5,-168.5 266.5,-187.5 310.5,-187.5 310.5,-168.5 266.5,-168.5"/>
<text text-anchor="middle" x="288.5" y="-175.5" font-family="Helvetica,sans-Serif" font-size="10.00">bitset</text>
</a>
</g>
</g>
<!-- Node3&#45;&gt;Node5 -->
<g id="edge4" class="edge">
<title>Node3&#45;&gt;Node5</title>
<path fill="none" stroke="midnightblue" d="M711.29,-228.62C699.38,-227.09 685.84,-225.41 673.5,-224 519.6,-206.42 476.5,-217.69 320.67,-187.9"/>
<polygon fill="midnightblue" stroke="midnightblue" points="321.22,-184.44 310.73,-185.98 319.88,-191.32 321.22,-184.44"/>
</g>
<!-- Node6 -->
<g id="node6" class="node">
<title>Node6</title>
<g id="a_node6"><a xlink:title=" ">
<polygon fill="none" stroke="#bfbfbf" points="1180,-56.5 1180,-75.5 1227,-75.5 1227,-56.5 1180,-56.5"/>
<text text-anchor="middle" x="1203.5" y="-63.5" font-family="Helvetica,sans-Serif" font-size="10.00">deque</text>
</a>
</g>
</g>
<!-- Node3&#45;&gt;Node6 -->
<g id="edge5" class="edge">
<title>Node3&#45;&gt;Node6</title>
<path fill="none" stroke="midnightblue" d="M777.9,-232.96C895.11,-232.48 1282.62,-227.88 1319.5,-188 1356.48,-148.01 1277.36,-101.81 1232.16,-79.86"/>
<polygon fill="midnightblue" stroke="midnightblue" points="1233.61,-76.68 1223.08,-75.56 1230.61,-83 1233.61,-76.68"/>
</g>
<!-- Node7 -->
<g id="node7" class="node">
<title>Node7</title>
<g id="a_node7"><a xlink:title=" ">
<polygon fill="none" stroke="#bfbfbf" points="268.5,-0.5 268.5,-19.5 312.5,-19.5 312.5,-0.5 268.5,-0.5"/>
<text text-anchor="middle" x="290.5" y="-7.5" font-family="Helvetica,sans-Serif" font-size="10.00">limits</text>
</a>
</g>
</g>
<!-- Node3&#45;&gt;Node7 -->
<g id="edge6" class="edge">
<title>Node3&#45;&gt;Node7</title>
<path fill="none" stroke="midnightblue" d="M711.31,-228.46C699.4,-226.92 685.86,-225.27 673.5,-224 622.72,-218.79 254.47,-220.97 215.5,-188 170.68,-150.08 184.35,-102.26 220.5,-56 231.05,-42.5 246.86,-31.84 260.78,-24.3"/>
<polygon fill="midnightblue" stroke="midnightblue" points="262.71,-27.24 270.03,-19.58 259.53,-21.01 262.71,-27.24"/>
</g>
<!-- Node8 -->
<g id="node8" class="node">
<title>Node8</title>
<g id="a_node8"><a xlink:title=" ">
<polygon fill="none" stroke="#bfbfbf" points="328.5,-168.5 328.5,-187.5 386.5,-187.5 386.5,-168.5 328.5,-168.5"/>
<text text-anchor="middle" x="357.5" y="-175.5" font-family="Helvetica,sans-Serif" font-size="10.00">memory</text>
</a>
</g>
</g>
<!-- Node3&#45;&gt;Node8 -->
<g id="edge7" class="edge">
<title>Node3&#45;&gt;Node8</title>
<path fill="none" stroke="midnightblue" d="M711.27,-228.76C633.78,-218.87 444.56,-194.69 396.95,-187.84"/>
<polygon fill="midnightblue" stroke="midnightblue" points="397.31,-184.35 386.89,-186.28 396.24,-191.27 397.31,-184.35"/>
</g>
<!-- Node9 -->
<g id="node9" class="node">
<title>Node9</title>
<g id="a_node9"><a xlink:title=" ">
<polygon fill="none" stroke="#bfbfbf" points="1500.5,-56.5 1500.5,-75.5 1556.5,-75.5 1556.5,-56.5 1500.5,-56.5"/>
<text text-anchor="middle" x="1528.5" y="-63.5" font-family="Helvetica,sans-Serif" font-size="10.00">optional</text>
</a>
</g>
</g>
<!-- Node3&#45;&gt;Node9 -->
<g id="edge8" class="edge">
<title>Node3&#45;&gt;Node9</title>
<path fill="none" stroke="midnightblue" d="M777.94,-232.18C921.68,-228.53 1480.97,-212.78 1508.5,-188 1537.02,-162.32 1535.3,-112.82 1531.78,-85.77"/>
<polygon fill="midnightblue" stroke="midnightblue" points="1535.21,-85.05 1530.24,-75.69 1528.29,-86.1 1535.21,-85.05"/>
</g>
<!-- Node10 -->
<g id="node10" class="node">
<title>Node10</title>
<g id="a_node10"><a xlink:title=" ">
<polygon fill="none" stroke="#bfbfbf" points="405,-168.5 405,-187.5 452,-187.5 452,-168.5 405,-168.5"/>
<text text-anchor="middle" x="428.5" y="-175.5" font-family="Helvetica,sans-Serif" font-size="10.00">queue</text>
</a>
</g>
</g>
<!-- Node3&#45;&gt;Node10 -->
<g id="edge9" class="edge">
<title>Node3&#45;&gt;Node10</title>
<path fill="none" stroke="midnightblue" d="M711.41,-228.26C650.73,-219.48 522.93,-200.61 462.06,-188.1"/>
<polygon fill="midnightblue" stroke="midnightblue" points="462.7,-184.66 452.19,-186 461.24,-191.5 462.7,-184.66"/>
</g>
<!-- Node11 -->
<g id="node11" class="node">
<title>Node11</title>
<g id="a_node11"><a xlink:title=" ">
<polygon fill="none" stroke="#bfbfbf" points="470,-168.5 470,-187.5 535,-187.5 535,-168.5 470,-168.5"/>
<text text-anchor="middle" x="502.5" y="-175.5" font-family="Helvetica,sans-Serif" font-size="10.00">stdexcept</text>
</a>
</g>
</g>
<!-- Node3&#45;&gt;Node11 -->
<g id="edge10" class="edge">
<title>Node3&#45;&gt;Node11</title>
<path fill="none" stroke="midnightblue" d="M711.36,-225.6C668.18,-215.97 592.63,-199.11 545.2,-188.53"/>
<polygon fill="midnightblue" stroke="midnightblue" points="545.76,-185.07 535.24,-186.31 544.24,-191.9 545.76,-185.07"/>
</g>
<!-- Node12 -->
<g id="node12" class="node">
<title>Node12</title>
<g id="a_node12"><a xlink:title=" ">
<polygon fill="none" stroke="#bfbfbf" points="1115,-56.5 1115,-75.5 1162,-75.5 1162,-56.5 1115,-56.5"/>
<text text-anchor="middle" x="1138.5" y="-63.5" font-family="Helvetica,sans-Serif" font-size="10.00">vector</text>
</a>
</g>
</g>
<!-- Node3&#45;&gt;Node12 -->
<g id="edge11" class="edge">
<title>Node3&#45;&gt;Node12</title>
<path fill="none" stroke="midnightblue" d="M777.83,-232.89C892.93,-232.16 1268.7,-226.8 1304.5,-188 1310.53,-181.47 1308.86,-175.75 1304.5,-168 1276.22,-117.68 1211.58,-89.51 1171.83,-76.35"/>
<polygon fill="midnightblue" stroke="midnightblue" points="1172.64,-72.94 1162.05,-73.26 1170.53,-79.61 1172.64,-72.94"/>
</g>
<!-- Node13 -->
<g id="node13" class="node">
<title>Node13</title>
<g id="a_node13"><a xlink:href="champsim_8h.html" target="_top" xlink:title=" ">
<polygon fill="none" stroke="black" points="1557,-168.5 1557,-187.5 1634,-187.5 1634,-168.5 1557,-168.5"/>
<text text-anchor="middle" x="1595.5" y="-175.5" font-family="Helvetica,sans-Serif" font-size="10.00">champsim.h</text>
</a>
</g>
</g>
<!-- Node3&#45;&gt;Node13 -->
<g id="edge12" class="edge">
<title>Node3&#45;&gt;Node13</title>
<path fill="none" stroke="midnightblue" d="M777.68,-232.46C887.2,-230.38 1247.07,-221.31 1542.5,-188 1543.8,-187.85 1545.13,-187.69 1546.46,-187.53"/>
<polygon fill="midnightblue" stroke="midnightblue" points="1547.36,-190.94 1556.78,-186.09 1546.4,-184 1547.36,-190.94"/>
</g>
<!-- Node16 -->
<g id="node16" class="node">
<title>Node16</title>
<g id="a_node16"><a xlink:title=" ">
<polygon fill="none" stroke="#bfbfbf" points="553,-168.5 553,-187.5 682,-187.5 682,-168.5 553,-168.5"/>
<text text-anchor="middle" x="617.5" y="-175.5" font-family="Helvetica,sans-Serif" font-size="10.00">champsim_constants.h</text>
</a>
</g>
</g>
<!-- Node3&#45;&gt;Node16 -->
<g id="edge15" class="edge">
<title>Node3&#45;&gt;Node16</title>
<path fill="none" stroke="midnightblue" d="M724.38,-224.44C703.48,-215.56 670.57,-201.56 646.78,-191.45"/>
<polygon fill="midnightblue" stroke="midnightblue" points="648.1,-188.21 637.53,-187.52 645.36,-194.65 648.1,-188.21"/>
</g>
<!-- Node17 -->
<g id="node17" class="node">
<title>Node17</title>
<g id="a_node17"><a xlink:href="channel_8h.html" target="_top" xlink:title=" ">
<polygon fill="none" stroke="black" points="1021.5,-112.5 1021.5,-131.5 1085.5,-131.5 1085.5,-112.5 1021.5,-112.5"/>
<text text-anchor="middle" x="1053.5" y="-119.5" font-family="Helvetica,sans-Serif" font-size="10.00">channel.h</text>
</a>
</g>
</g>
<!-- Node3&#45;&gt;Node17 -->
<g id="edge16" class="edge">
<title>Node3&#45;&gt;Node17</title>
<path fill="none" stroke="midnightblue" d="M777.65,-232.8C890.39,-231.8 1253.84,-225.65 1288.5,-188 1294.52,-181.46 1294.16,-174.85 1288.5,-168 1264.54,-139.02 1156.96,-128.52 1096,-124.86"/>
<polygon fill="midnightblue" stroke="midnightblue" points="1096.09,-121.36 1085.91,-124.29 1095.7,-128.35 1096.09,-121.36"/>
</g>
<!-- Node20 -->
<g id="node20" class="node">
<title>Node20</title>
<g id="a_node20"><a xlink:href="instruction_8h.html" target="_top" xlink:title=" ">
<polygon fill="none" stroke="black" points="211,-112.5 211,-131.5 288,-131.5 288,-112.5 211,-112.5"/>
<text text-anchor="middle" x="249.5" y="-119.5" font-family="Helvetica,sans-Serif" font-size="10.00">instruction.h</text>
</a>
</g>
</g>
<!-- Node3&#45;&gt;Node20 -->
<g id="edge24" class="edge">
<title>Node3&#45;&gt;Node20</title>
<path fill="none" stroke="midnightblue" d="M711.31,-228.47C699.4,-226.93 685.86,-225.28 673.5,-224 623.72,-218.85 258.45,-224.78 224.5,-188 212,-174.46 223.24,-154.01 234.39,-139.67"/>
<polygon fill="midnightblue" stroke="midnightblue" points="237.36,-141.57 241.1,-131.65 232,-137.08 237.36,-141.57"/>
</g>
<!-- Node23 -->
<g id="node23" class="node">
<title>Node23</title>
<g id="a_node23"><a xlink:href="module__impl_8h.html" target="_top" xlink:title=" ">
<polygon fill="none" stroke="black" points="700,-168.5 700,-187.5 789,-187.5 789,-168.5 700,-168.5"/>
<text text-anchor="middle" x="744.5" y="-175.5" font-family="Helvetica,sans-Serif" font-size="10.00">module_impl.h</text>
</a>
</g>
</g>
<!-- Node3&#45;&gt;Node23 -->
<g id="edge33" class="edge">
<title>Node3&#45;&gt;Node23</title>
<path fill="none" stroke="midnightblue" d="M744.5,-224.08C744.5,-217.01 744.5,-206.86 744.5,-197.99"/>
<polygon fill="midnightblue" stroke="midnightblue" points="748,-197.75 744.5,-187.75 741,-197.75 748,-197.75"/>
</g>
<!-- Node24 -->
<g id="node24" class="node">
<title>Node24</title>
<g id="a_node24"><a xlink:href="operable_8h.html" target="_top" xlink:title=" ">
<polygon fill="none" stroke="black" points="807.5,-168.5 807.5,-187.5 875.5,-187.5 875.5,-168.5 807.5,-168.5"/>
<text text-anchor="middle" x="841.5" y="-175.5" font-family="Helvetica,sans-Serif" font-size="10.00">operable.h</text>
</a>
</g>
</g>
<!-- Node3&#45;&gt;Node24 -->
<g id="edge34" class="edge">
<title>Node3&#45;&gt;Node24</title>
<path fill="none" stroke="midnightblue" d="M760.08,-224.32C775.5,-215.74 799.31,-202.49 817.21,-192.52"/>
<polygon fill="midnightblue" stroke="midnightblue" points="818.92,-195.58 825.95,-187.65 815.51,-189.46 818.92,-195.58"/>
</g>
<!-- Node25 -->
<g id="node25" class="node">
<title>Node25</title>
<g id="a_node25"><a xlink:href="util_2lru__table_8h.html" target="_top" xlink:title=" ">
<polygon fill="none" stroke="black" points="1412,-168.5 1412,-187.5 1499,-187.5 1499,-168.5 1412,-168.5"/>
<text text-anchor="middle" x="1455.5" y="-175.5" font-family="Helvetica,sans-Serif" font-size="10.00">util/lru_table.h</text>
</a>
</g>
</g>
<!-- Node3&#45;&gt;Node25 -->
<g id="edge35" class="edge">
<title>Node3&#45;&gt;Node25</title>
<path fill="none" stroke="midnightblue" d="M777.54,-231.72C873.54,-227.78 1160.62,-214.49 1397.5,-188 1398.96,-187.84 1400.43,-187.66 1401.92,-187.48"/>
<polygon fill="midnightblue" stroke="midnightblue" points="1402.39,-190.95 1411.85,-186.18 1401.48,-184.01 1402.39,-190.95"/>
</g>
<!-- Node30 -->
<g id="node30" class="node">
<title>Node30</title>
<g id="a_node30"><a xlink:title=" ">
<polygon fill="none" stroke="#bfbfbf" points="894,-168.5 894,-187.5 963,-187.5 963,-168.5 894,-168.5"/>
<text text-anchor="middle" x="928.5" y="-175.5" font-family="Helvetica,sans-Serif" font-size="10.00">type_traits</text>
</a>
</g>
</g>
<!-- Node3&#45;&gt;Node30 -->
<g id="edge46" class="edge">
<title>Node3&#45;&gt;Node30</title>
<path fill="none" stroke="midnightblue" d="M773.66,-224.44C805.01,-215.24 855.03,-200.56 889.7,-190.39"/>
<polygon fill="midnightblue" stroke="midnightblue" points="890.87,-193.69 899.48,-187.52 888.9,-186.97 890.87,-193.69"/>
</g>
<!-- Node31 -->
<g id="node31" class="node">
<title>Node31</title>
<g id="a_node31"><a xlink:title=" ">
<polygon fill="none" stroke="#bfbfbf" points="981.5,-168.5 981.5,-187.5 1123.5,-187.5 1123.5,-168.5 981.5,-168.5"/>
<text text-anchor="middle" x="1052.5" y="-175.5" font-family="Helvetica,sans-Serif" font-size="10.00">ooo_cpu_module_decl.inc</text>
</a>
</g>
</g>
<!-- Node3&#45;&gt;Node31 -->
<g id="edge47" class="edge">
<title>Node3&#45;&gt;Node31</title>
<path fill="none" stroke="midnightblue" d="M777.75,-227.17C829.51,-218.1 930.01,-200.48 994.06,-189.25"/>
<polygon fill="midnightblue" stroke="midnightblue" points="994.77,-192.68 1004.01,-187.5 993.56,-185.78 994.77,-192.68"/>
</g>
<!-- Node32 -->
<g id="node32" class="node">
<title>Node32</title>
<g id="a_node32"><a xlink:title=" ">
<polygon fill="none" stroke="#bfbfbf" points="1142,-168.5 1142,-187.5 1279,-187.5 1279,-168.5 1142,-168.5"/>
<text text-anchor="middle" x="1210.5" y="-175.5" font-family="Helvetica,sans-Serif" font-size="10.00">ooo_cpu_module_def.inc</text>
</a>
</g>
</g>
<!-- Node3&#45;&gt;Node32 -->
<g id="edge48" class="edge">
<title>Node3&#45;&gt;Node32</title>
<path fill="none" stroke="midnightblue" d="M777.64,-229.16C850.89,-220.67 1028.25,-200.12 1131.79,-188.12"/>
<polygon fill="midnightblue" stroke="midnightblue" points="1132.35,-191.58 1141.88,-186.95 1131.54,-184.63 1132.35,-191.58"/>
</g>
<!-- Node14 -->
<g id="node14" class="node">
<title>Node14</title>
<g id="a_node14"><a xlink:title=" ">
<polygon fill="none" stroke="#bfbfbf" points="1252.5,-0.5 1252.5,-19.5 1302.5,-19.5 1302.5,-0.5 1252.5,-0.5"/>
<text text-anchor="middle" x="1277.5" y="-7.5" font-family="Helvetica,sans-Serif" font-size="10.00">cstdint</text>
</a>
</g>
</g>
<!-- Node13&#45;&gt;Node14 -->
<g id="edge13" class="edge">
<title>Node13&#45;&gt;Node14</title>
<path fill="none" stroke="midnightblue" d="M1606.18,-168.38C1619.97,-156.12 1641.15,-132.84 1631.5,-112 1615.34,-77.09 1600.48,-72.01 1565.5,-56 1480.77,-17.21 1368.93,-10.94 1312.82,-10.48"/>
<polygon fill="midnightblue" stroke="midnightblue" points="1312.69,-6.98 1302.68,-10.45 1312.67,-13.98 1312.69,-6.98"/>
</g>
<!-- Node15 -->
<g id="node15" class="node">
<title>Node15</title>
<g id="a_node15"><a xlink:title=" ">
<polygon fill="none" stroke="#bfbfbf" points="1557,-112.5 1557,-131.5 1622,-131.5 1622,-112.5 1557,-112.5"/>
<text text-anchor="middle" x="1589.5" y="-119.5" font-family="Helvetica,sans-Serif" font-size="10.00">exception</text>
</a>
</g>
</g>
<!-- Node13&#45;&gt;Node15 -->
<g id="edge14" class="edge">
<title>Node13&#45;&gt;Node15</title>
<path fill="none" stroke="midnightblue" d="M1594.51,-168.08C1593.71,-160.93 1592.57,-150.64 1591.58,-141.69"/>
<polygon fill="midnightblue" stroke="midnightblue" points="1595.06,-141.3 1590.47,-131.75 1588.1,-142.08 1595.06,-141.3"/>
</g>
<!-- Node17&#45;&gt;Node4 -->
<g id="edge17" class="edge">
<title>Node17&#45;&gt;Node4</title>
<path fill="none" stroke="midnightblue" d="M1021.27,-117.82C923.74,-108.21 632.66,-79.53 536.62,-70.07"/>
<polygon fill="midnightblue" stroke="midnightblue" points="536.96,-66.58 526.67,-69.09 536.28,-73.55 536.96,-66.58"/>
</g>
<!-- Node17&#45;&gt;Node6 -->
<g id="edge19" class="edge">
<title>Node17&#45;&gt;Node6</title>
<path fill="none" stroke="midnightblue" d="M1077.27,-112.44C1102.39,-103.4 1142.21,-89.06 1170.4,-78.92"/>
<polygon fill="midnightblue" stroke="midnightblue" points="1171.62,-82.2 1179.84,-75.52 1169.25,-75.61 1171.62,-82.2"/>
</g>
<!-- Node17&#45;&gt;Node7 -->
<g id="edge21" class="edge">
<title>Node17&#45;&gt;Node7</title>
<path fill="none" stroke="midnightblue" d="M1026.12,-112.39C980.04,-98.26 883.86,-70.29 800.5,-56 621.49,-25.32 403.34,-14.95 322.57,-12.01"/>
<polygon fill="midnightblue" stroke="midnightblue" points="322.65,-8.51 312.54,-11.66 322.41,-15.51 322.65,-8.51"/>
</g>
<!-- Node17&#45;&gt;Node12 -->
<g id="edge22" class="edge">
<title>Node17&#45;&gt;Node12</title>
<path fill="none" stroke="midnightblue" d="M1067.16,-112.32C1080.42,-103.9 1100.77,-90.97 1116.35,-81.07"/>
<polygon fill="midnightblue" stroke="midnightblue" points="1118.31,-83.97 1124.88,-75.65 1114.56,-78.06 1118.31,-83.97"/>
</g>
<!-- Node17&#45;&gt;Node14 -->
<g id="edge18" class="edge">
<title>Node17&#45;&gt;Node14</title>
<path fill="none" stroke="midnightblue" d="M1058.11,-112.37C1066.07,-98.33 1083.73,-70.66 1106.5,-56 1148.32,-29.08 1205.69,-18.21 1242.18,-13.86"/>
<polygon fill="midnightblue" stroke="midnightblue" points="1242.78,-17.31 1252.35,-12.75 1242.02,-10.35 1242.78,-17.31"/>
</g>
<!-- Node18 -->
<g id="node18" class="node">
<title>Node18</title>
<g id="a_node18"><a xlink:title=" ">
<polygon fill="none" stroke="#bfbfbf" points="401,-56.5 401,-75.5 466,-75.5 466,-56.5 401,-56.5"/>
<text text-anchor="middle" x="433.5" y="-63.5" font-family="Helvetica,sans-Serif" font-size="10.00">functional</text>
</a>
</g>
</g>
<!-- Node17&#45;&gt;Node18 -->
<g id="edge20" class="edge">
<title>Node17&#45;&gt;Node18</title>
<path fill="none" stroke="midnightblue" d="M1021.38,-120C934.92,-117 689.99,-106.39 476.58,-75.96"/>
<polygon fill="midnightblue" stroke="midnightblue" points="476.84,-72.46 466.44,-74.49 475.84,-79.39 476.84,-72.46"/>
</g>
<!-- Node19 -->
<g id="node19" class="node">
<title>Node19</title>
<g id="a_node19"><a xlink:title=" ">
<polygon fill="none" stroke="#bfbfbf" points="985,-56.5 985,-75.5 1058,-75.5 1058,-56.5 985,-56.5"/>
<text text-anchor="middle" x="1021.5" y="-63.5" font-family="Helvetica,sans-Serif" font-size="10.00">string_view</text>
</a>
</g>
</g>
<!-- Node17&#45;&gt;Node19 -->
<g id="edge23" class="edge">
<title>Node17&#45;&gt;Node19</title>
<path fill="none" stroke="midnightblue" d="M1048.22,-112.08C1043.79,-104.61 1037.34,-93.72 1031.88,-84.52"/>
<polygon fill="midnightblue" stroke="midnightblue" points="1034.79,-82.57 1026.69,-75.75 1028.77,-86.14 1034.79,-82.57"/>
</g>
<!-- Node20&#45;&gt;Node4 -->
<g id="edge26" class="edge">
<title>Node20&#45;&gt;Node4</title>
<path fill="none" stroke="midnightblue" d="M288.34,-114.27C333.36,-106.23 409.69,-91.86 474.5,-76 474.6,-75.98 474.7,-75.95 474.8,-75.93"/>
<polygon fill="midnightblue" stroke="midnightblue" points="475.45,-79.38 484.22,-73.44 473.66,-72.61 475.45,-79.38"/>
</g>
<!-- Node20&#45;&gt;Node7 -->
<g id="edge29" class="edge">
<title>Node20&#45;&gt;Node7</title>
<path fill="none" stroke="midnightblue" d="M242.24,-112.26C232.55,-99.46 217.69,-75.07 227.5,-56 234.58,-42.25 248.02,-31.77 260.68,-24.39"/>
<polygon fill="midnightblue" stroke="midnightblue" points="262.5,-27.39 269.65,-19.57 259.19,-21.22 262.5,-27.39"/>
</g>
<!-- Node20&#45;&gt;Node12 -->
<g id="edge30" class="edge">
<title>Node20&#45;&gt;Node12</title>
<path fill="none" stroke="midnightblue" d="M288.32,-119.85C405.87,-116.14 768.27,-103.16 1067.5,-76 1079.75,-74.89 1093.14,-73.29 1104.96,-71.75"/>
<polygon fill="midnightblue" stroke="midnightblue" points="1105.43,-75.22 1114.88,-70.42 1104.5,-68.28 1105.43,-75.22"/>
</g>
<!-- Node20&#45;&gt;Node14 -->
<g id="edge27" class="edge">
<title>Node20&#45;&gt;Node14</title>
<path fill="none" stroke="midnightblue" d="M270.19,-112.41C291.11,-103.61 324.29,-89.38 352.5,-76 370.1,-67.65 372.69,-61.05 391.5,-56 556.21,-11.78 1098.98,-10.39 1242.46,-10.82"/>
<polygon fill="midnightblue" stroke="midnightblue" points="1242.45,-14.32 1252.47,-10.86 1242.48,-7.32 1242.45,-14.32"/>
</g>
<!-- Node20&#45;&gt;Node18 -->
<g id="edge28" class="edge">
<title>Node20&#45;&gt;Node18</title>
<path fill="none" stroke="midnightblue" d="M278.66,-112.44C310.01,-103.24 360.03,-88.56 394.7,-78.39"/>
<polygon fill="midnightblue" stroke="midnightblue" points="395.87,-81.69 404.48,-75.52 393.9,-74.97 395.87,-81.69"/>
</g>
<!-- Node21 -->
<g id="node21" class="node">
<title>Node21</title>
<g id="a_node21"><a xlink:title=" ">
<polygon fill="none" stroke="#bfbfbf" points="727.5,-56.5 727.5,-75.5 791.5,-75.5 791.5,-56.5 727.5,-56.5"/>
<text text-anchor="middle" x="759.5" y="-63.5" font-family="Helvetica,sans-Serif" font-size="10.00">algorithm</text>
</a>
</g>
</g>
<!-- Node20&#45;&gt;Node21 -->
<g id="edge25" class="edge">
<title>Node20&#45;&gt;Node21</title>
<path fill="none" stroke="midnightblue" d="M288.25,-116.9C381.89,-106.98 619.89,-81.78 717.13,-71.49"/>
<polygon fill="midnightblue" stroke="midnightblue" points="717.61,-74.96 727.18,-70.42 716.87,-67.99 717.61,-74.96"/>
</g>
<!-- Node22 -->
<g id="node22" class="node">
<title>Node22</title>
<g id="a_node22"><a xlink:href="trace__instruction_8h.html" target="_top" xlink:title=" ">
<polygon fill="none" stroke="black" points="237,-56.5 237,-75.5 344,-75.5 344,-56.5 237,-56.5"/>
<text text-anchor="middle" x="290.5" y="-63.5" font-family="Helvetica,sans-Serif" font-size="10.00">trace_instruction.h</text>
</a>
</g>
</g>
<!-- Node20&#45;&gt;Node22 -->
<g id="edge31" class="edge">
<title>Node20&#45;&gt;Node22</title>
<path fill="none" stroke="midnightblue" d="M256.27,-112.08C262.06,-104.46 270.56,-93.26 277.64,-83.94"/>
<polygon fill="midnightblue" stroke="midnightblue" points="280.6,-85.83 283.86,-75.75 275.02,-81.6 280.6,-85.83"/>
</g>
<!-- Node22&#45;&gt;Node7 -->
<g id="edge32" class="edge">
<title>Node22&#45;&gt;Node7</title>
<path fill="none" stroke="midnightblue" d="M290.5,-56.08C290.5,-49.01 290.5,-38.86 290.5,-29.99"/>
<polygon fill="midnightblue" stroke="midnightblue" points="294,-29.75 290.5,-19.75 287,-29.75 294,-29.75"/>
</g>
<!-- Node26 -->
<g id="node26" class="node">
<title>Node26</title>
<g id="a_node26"><a xlink:href="msl_2lru__table_8h.html" target="_top" xlink:title=" ">
<polygon fill="none" stroke="black" points="1411,-112.5 1411,-131.5 1500,-131.5 1500,-112.5 1411,-112.5"/>
<text text-anchor="middle" x="1455.5" y="-119.5" font-family="Helvetica,sans-Serif" font-size="10.00">msl/lru_table.h</text>
</a>
</g>
</g>
<!-- Node25&#45;&gt;Node26 -->
<g id="edge36" class="edge">
<title>Node25&#45;&gt;Node26</title>
<path fill="none" stroke="midnightblue" d="M1455.5,-168.08C1455.5,-161.01 1455.5,-150.86 1455.5,-141.99"/>
<polygon fill="midnightblue" stroke="midnightblue" points="1459,-141.75 1455.5,-131.75 1452,-141.75 1459,-141.75"/>
</g>
<!-- Node26&#45;&gt;Node9 -->
<g id="edge40" class="edge">
<title>Node26&#45;&gt;Node9</title>
<path fill="none" stroke="midnightblue" d="M1467.23,-112.32C1478.34,-104.11 1495.24,-91.6 1508.48,-81.81"/>
<polygon fill="midnightblue" stroke="midnightblue" points="1510.6,-84.59 1516.56,-75.83 1506.44,-78.97 1510.6,-84.59"/>
</g>
<!-- Node26&#45;&gt;Node12 -->
<g id="edge42" class="edge">
<title>Node26&#45;&gt;Node12</title>
<path fill="none" stroke="midnightblue" d="M1410.95,-115.47C1356.77,-108.41 1262.38,-95.03 1172.07,-75.91"/>
<polygon fill="midnightblue" stroke="midnightblue" points="1172.73,-72.47 1162.22,-73.8 1171.26,-79.32 1172.73,-72.47"/>
</g>
<!-- Node26&#45;&gt;Node14 -->
<g id="edge39" class="edge">
<title>Node26&#45;&gt;Node14</title>
<path fill="none" stroke="midnightblue" d="M1433.14,-112.44C1412.96,-104.3 1382.79,-91.07 1358.5,-76 1334.97,-61.4 1310.53,-40.93 1294.73,-26.88"/>
<polygon fill="midnightblue" stroke="midnightblue" points="1296.67,-23.92 1286.9,-19.82 1291.98,-29.12 1296.67,-23.92"/>
</g>
<!-- Node26&#45;&gt;Node21 -->
<g id="edge37" class="edge">
<title>Node26&#45;&gt;Node21</title>
<path fill="none" stroke="midnightblue" d="M1410.9,-117.54C1284.52,-107.73 925.2,-79.86 801.75,-70.28"/>
<polygon fill="midnightblue" stroke="midnightblue" points="801.81,-66.77 791.57,-69.49 801.27,-73.75 801.81,-66.77"/>
</g>
<!-- Node27 -->
<g id="node27" class="node">
<title>Node27</title>
<g id="a_node27"><a xlink:title=" ">
<polygon fill="none" stroke="#bfbfbf" points="1430.5,-56.5 1430.5,-75.5 1482.5,-75.5 1482.5,-56.5 1430.5,-56.5"/>
<text text-anchor="middle" x="1456.5" y="-63.5" font-family="Helvetica,sans-Serif" font-size="10.00">cassert</text>
</a>
</g>
</g>
<!-- Node26&#45;&gt;Node27 -->
<g id="edge38" class="edge">
<title>Node26&#45;&gt;Node27</title>
<path fill="none" stroke="midnightblue" d="M1455.67,-112.08C1455.8,-105.01 1455.98,-94.86 1456.15,-85.99"/>
<polygon fill="midnightblue" stroke="midnightblue" points="1459.65,-85.81 1456.34,-75.75 1452.65,-85.68 1459.65,-85.81"/>
</g>
<!-- Node28 -->
<g id="node28" class="node">
<title>Node28</title>
<g id="a_node28"><a xlink:title=" ">
<polygon fill="none" stroke="#bfbfbf" points="1367,-56.5 1367,-75.5 1412,-75.5 1412,-56.5 1367,-56.5"/>
<text text-anchor="middle" x="1389.5" y="-63.5" font-family="Helvetica,sans-Serif" font-size="10.00">utility</text>
</a>
</g>
</g>
<!-- Node26&#45;&gt;Node28 -->
<g id="edge41" class="edge">
<title>Node26&#45;&gt;Node28</title>
<path fill="none" stroke="midnightblue" d="M1444.9,-112.32C1435.04,-104.26 1420.15,-92.08 1408.28,-82.37"/>
<polygon fill="midnightblue" stroke="midnightblue" points="1410.25,-79.46 1400.3,-75.83 1405.82,-84.88 1410.25,-79.46"/>
</g>
<!-- Node29 -->
<g id="node29" class="node">
<title>Node29</title>
<g id="a_node29"><a xlink:href="msl_2bits_8h.html" target="_top" xlink:title=" ">
<polygon fill="none" stroke="black" points="1245,-56.5 1245,-75.5 1310,-75.5 1310,-56.5 1245,-56.5"/>
<text text-anchor="middle" x="1277.5" y="-63.5" font-family="Helvetica,sans-Serif" font-size="10.00">msl/bits.h</text>
</a>
</g>
</g>
<!-- Node26&#45;&gt;Node29 -->
<g id="edge43" class="edge">
<title>Node26&#45;&gt;Node29</title>
<path fill="none" stroke="midnightblue" d="M1427.3,-112.44C1397.09,-103.28 1348.99,-88.69 1315.47,-78.52"/>
<polygon fill="midnightblue" stroke="midnightblue" points="1316.16,-75.07 1305.57,-75.52 1314.13,-81.77 1316.16,-75.07"/>
</g>
<!-- Node29&#45;&gt;Node7 -->
<g id="edge45" class="edge">
<title>Node29&#45;&gt;Node7</title>
<path fill="none" stroke="midnightblue" d="M1244.91,-57.33C1242.08,-56.82 1239.25,-56.36 1236.5,-56 880.5,-8.8 443.38,-9.38 322.68,-10.57"/>
<polygon fill="midnightblue" stroke="midnightblue" points="322.58,-7.07 312.62,-10.68 322.66,-14.07 322.58,-7.07"/>
</g>
<!-- Node29&#45;&gt;Node14 -->
<g id="edge44" class="edge">
<title>Node29&#45;&gt;Node14</title>
<path fill="none" stroke="midnightblue" d="M1277.5,-56.08C1277.5,-49.01 1277.5,-38.86 1277.5,-29.99"/>
<polygon fill="midnightblue" stroke="midnightblue" points="1281,-29.75 1277.5,-19.75 1274,-29.75 1281,-29.75"/>
</g>
<!-- Node33&#45;&gt;Node3 -->
<g id="edge50" class="edge">
<title>Node33&#45;&gt;Node3</title>
<path fill="none" stroke="midnightblue" d="M641.83,-280.44C661.82,-271.6 693.24,-257.69 716.06,-247.59"/>
<polygon fill="midnightblue" stroke="midnightblue" points="717.53,-250.76 725.26,-243.52 714.7,-244.36 717.53,-250.76"/>
</g>
<!-- Node34 -->
<g id="node34" class="node">
<title>Node34</title>
<g id="a_node34"><a xlink:href="branch__info_8h.html" target="_top" xlink:title=" ">
<polygon fill="none" stroke="black" points="581,-224.5 581,-243.5 664,-243.5 664,-224.5 581,-224.5"/>
<text text-anchor="middle" x="622.5" y="-231.5" font-family="Helvetica,sans-Serif" font-size="10.00">branch_info.h</text>
</a>
</g>
</g>
<!-- Node33&#45;&gt;Node34 -->
<g id="edge51" class="edge">
<title>Node33&#45;&gt;Node34</title>
<path fill="none" stroke="midnightblue" d="M622.5,-280.08C622.5,-273.01 622.5,-262.86 622.5,-253.99"/>
<polygon fill="midnightblue" stroke="midnightblue" points="626,-253.75 622.5,-243.75 619,-253.75 626,-253.75"/>
</g>
<!-- Node35&#45;&gt;Node20 -->
<g id="edge53" class="edge">
<title>Node35&#45;&gt;Node20</title>
<path fill="none" stroke="midnightblue" d="M165.45,-280.46C172.62,-260.2 192.08,-207.97 215.5,-168 221.38,-157.97 229.12,-147.56 235.73,-139.28"/>
<polygon fill="midnightblue" stroke="midnightblue" points="238.45,-141.49 242.08,-131.54 233.04,-137.05 238.45,-141.49"/>
</g>
<!-- Node36 -->
<g id="node36" class="node">
<title>Node36</title>
<g id="a_node36"><a xlink:title=" ">
<polygon fill="none" stroke="#bfbfbf" points="69,-224.5 69,-243.5 134,-243.5 134,-224.5 69,-224.5"/>
<text text-anchor="middle" x="101.5" y="-231.5" font-family="Helvetica,sans-Serif" font-size="10.00">inttypes.h</text>
</a>
</g>
</g>
<!-- Node35&#45;&gt;Node36 -->
<g id="edge54" class="edge">
<title>Node35&#45;&gt;Node36</title>
<path fill="none" stroke="midnightblue" d="M152.7,-280.32C143.68,-272.34 130.09,-260.31 119.18,-250.65"/>
<polygon fill="midnightblue" stroke="midnightblue" points="121.29,-247.84 111.48,-243.83 116.65,-253.08 121.29,-247.84"/>
</g>
<!-- Node37 -->
<g id="node37" class="node">
<title>Node37</title>
<g id="a_node37"><a xlink:title=" ">
<polygon fill="none" stroke="#bfbfbf" points="0,-224.5 0,-243.5 51,-243.5 51,-224.5 0,-224.5"/>
<text text-anchor="middle" x="25.5" y="-231.5" font-family="Helvetica,sans-Serif" font-size="10.00">math.h</text>
</a>
</g>
</g>
<!-- Node35&#45;&gt;Node37 -->
<g id="edge55" class="edge">
<title>Node35&#45;&gt;Node37</title>
<path fill="none" stroke="midnightblue" d="M140.79,-280.44C118.15,-271.52 82.43,-257.44 56.75,-247.32"/>
<polygon fill="midnightblue" stroke="midnightblue" points="57.69,-243.93 47.11,-243.52 55.13,-250.44 57.69,-243.93"/>
</g>
<!-- Node38&#45;&gt;Node3 -->
<g id="edge57" class="edge">
<title>Node38&#45;&gt;Node3</title>
<path fill="none" stroke="midnightblue" d="M744.5,-280.08C744.5,-273.01 744.5,-262.86 744.5,-253.99"/>
<polygon fill="midnightblue" stroke="midnightblue" points="748,-253.75 744.5,-243.75 741,-253.75 748,-253.75"/>
</g>
</g>
</svg>
