<?xml version="1.0" encoding="UTF-8" standalone="no"?>
<!DOCTYPE svg PUBLIC "-//W3C//DTD SVG 1.1//EN"
 "http://www.w3.org/Graphics/SVG/1.1/DTD/svg11.dtd">
<!-- Generated by graphviz version 2.43.0 (0)
 -->
<!-- Title: inc/tracereader.h Pages: 1 -->
<svg width="997pt" height="95pt"
 viewBox="0.00 0.00 997.00 95.00" xmlns="http://www.w3.org/2000/svg" xmlns:xlink="http://www.w3.org/1999/xlink">
<g id="graph0" class="graph" transform="scale(1 1) rotate(0) translate(4 91)">
<title>inc/tracereader.h</title>
<!-- Node1 -->
<g id="node1" class="node">
<title>Node1</title>
<g id="a_node1"><a xlink:title=" ">
<polygon fill="#bfbfbf" stroke="black" points="362,-67.5 362,-86.5 460,-86.5 460,-67.5 362,-67.5"/>
<text text-anchor="middle" x="411" y="-74.5" font-family="Helvetica,sans-Serif" font-size="10.00">inc/tracereader.h</text>
</a>
</g>
</g>
<!-- Node2 -->
<g id="node2" class="node">
<title>Node2</title>
<g id="a_node2"><a xlink:href="champsim_8cc.html" target="_top" xlink:title=" ">
<polygon fill="none" stroke="black" points="0,-6 0,-25 98,-25 98,-6 0,-6"/>
<text text-anchor="middle" x="49" y="-13" font-family="Helvetica,sans-Serif" font-size="10.00">src/champsim.cc</text>
</a>
</g>
</g>
<!-- Node1&#45;&gt;Node2 -->
<g id="edge1" class="edge">
<title>Node1&#45;&gt;Node2</title>
<path fill="none" stroke="midnightblue" d="M351.49,-68.94C289.99,-61.24 191.35,-47.74 107,-31 98.45,-29.3 89.26,-27.16 80.78,-25.04"/>
<polygon fill="midnightblue" stroke="midnightblue" points="351.42,-72.46 361.78,-70.22 352.29,-65.52 351.42,-72.46"/>
</g>
<!-- Node3 -->
<g id="node3" class="node">
<title>Node3</title>
<g id="a_node3"><a xlink:href="main_8cc.html" target="_top" xlink:title=" ">
<polygon fill="none" stroke="black" points="116,-6 116,-25 188,-25 188,-6 116,-6"/>
<text text-anchor="middle" x="152" y="-13" font-family="Helvetica,sans-Serif" font-size="10.00">src/main.cc</text>
</a>
</g>
</g>
<!-- Node1&#45;&gt;Node3 -->
<g id="edge2" class="edge">
<title>Node1&#45;&gt;Node3</title>
<path fill="none" stroke="midnightblue" d="M353.42,-65.59C310.13,-57.34 249.48,-44.93 197,-31 190.49,-29.27 183.54,-27.16 177.09,-25.1"/>
<polygon fill="midnightblue" stroke="midnightblue" points="353.01,-69.07 363.49,-67.49 354.31,-62.19 353.01,-69.07"/>
</g>
<!-- Node4 -->
<g id="node4" class="node">
<title>Node4</title>
<g id="a_node4"><a xlink:href="tracereader_8cc.html" target="_top" xlink:title=" ">
<polygon fill="none" stroke="black" points="206.5,-6 206.5,-25 309.5,-25 309.5,-6 206.5,-6"/>
<text text-anchor="middle" x="258" y="-13" font-family="Helvetica,sans-Serif" font-size="10.00">src/tracereader.cc</text>
</a>
</g>
</g>
<!-- Node1&#45;&gt;Node4 -->
<g id="edge3" class="edge">
<title>Node1&#45;&gt;Node4</title>
<path fill="none" stroke="midnightblue" d="M379.58,-63.78C349.85,-52.22 305.99,-35.16 279.88,-25.01"/>
<polygon fill="midnightblue" stroke="midnightblue" points="378.49,-67.11 389.08,-67.48 381.03,-60.59 378.49,-67.11"/>
</g>
<!-- Node5 -->
<g id="node5" class="node">
<title>Node5</title>
<g id="a_node5"><a xlink:href="080-tracereader_8cc.html" target="_top" xlink:title=" ">
<polygon fill="none" stroke="black" points="327.5,-6 327.5,-25 494.5,-25 494.5,-6 327.5,-6"/>
<text text-anchor="middle" x="411" y="-13" font-family="Helvetica,sans-Serif" font-size="10.00">test/cpp/src/080&#45;tracereader.cc</text>
</a>
</g>
</g>
<!-- Node1&#45;&gt;Node5 -->
<g id="edge4" class="edge">
<title>Node1&#45;&gt;Node5</title>
<path fill="none" stroke="midnightblue" d="M411,-57.32C411,-46.5 411,-33.4 411,-25.01"/>
<polygon fill="midnightblue" stroke="midnightblue" points="407.5,-57.48 411,-67.48 414.5,-57.48 407.5,-57.48"/>
</g>
<!-- Node6 -->
<g id="node6" class="node">
<title>Node6</title>
<g id="a_node6"><a xlink:href="081-tracereader-instr-id_8cc.html" target="_top" xlink:title=" ">
<polygon fill="none" stroke="black" points="513,-0.5 513,-30.5 667,-30.5 667,-0.5 513,-0.5"/>
<text text-anchor="start" x="521" y="-18.5" font-family="Helvetica,sans-Serif" font-size="10.00">test/cpp/src/081&#45;tracereader</text>
<text text-anchor="middle" x="590" y="-7.5" font-family="Helvetica,sans-Serif" font-size="10.00">&#45;instr&#45;id.cc</text>
</a>
</g>
</g>
<!-- Node1&#45;&gt;Node6 -->
<g id="edge5" class="edge">
<title>Node1&#45;&gt;Node6</title>
<path fill="none" stroke="midnightblue" d="M446.41,-64.23C475.56,-54.54 516.95,-40.78 547.81,-30.52"/>
<polygon fill="midnightblue" stroke="midnightblue" points="445.03,-61 436.65,-67.48 447.24,-67.64 445.03,-61"/>
</g>
<!-- Node7 -->
<g id="node7" class="node">
<title>Node7</title>
<g id="a_node7"><a xlink:href="082-branch-targets_8cc.html" target="_top" xlink:title=" ">
<polygon fill="none" stroke="black" points="685.5,-0.5 685.5,-30.5 816.5,-30.5 816.5,-0.5 685.5,-0.5"/>
<text text-anchor="start" x="693.5" y="-18.5" font-family="Helvetica,sans-Serif" font-size="10.00">test/cpp/src/082&#45;branch</text>
<text text-anchor="middle" x="751" y="-7.5" font-family="Helvetica,sans-Serif" font-size="10.00">&#45;targets.cc</text>
</a>
</g>
</g>
<!-- Node1&#45;&gt;Node7 -->
<g id="edge6" class="edge">
<title>Node1&#45;&gt;Node7</title>
<path fill="none" stroke="midnightblue" d="M470.43,-66.31C524.18,-57.44 605.47,-43.8 676,-31 679,-30.46 682.07,-29.89 685.17,-29.32"/>
<polygon fill="midnightblue" stroke="midnightblue" points="469.69,-62.88 460.39,-67.96 470.82,-69.79 469.69,-62.88"/>
</g>
<!-- Node8 -->
<g id="node8" class="node">
<title>Node8</title>
<g id="a_node8"><a xlink:href="084-tracereader-eof_8cc.html" target="_top" xlink:title=" ">
<polygon fill="none" stroke="black" points="835,-0.5 835,-30.5 989,-30.5 989,-0.5 835,-0.5"/>
<text text-anchor="start" x="843" y="-18.5" font-family="Helvetica,sans-Serif" font-size="10.00">test/cpp/src/084&#45;tracereader</text>
<text text-anchor="middle" x="912" y="-7.5" font-family="Helvetica,sans-Serif" font-size="10.00">&#45;eof.cc</text>
</a>
</g>
</g>
<!-- Node1&#45;&gt;Node8 -->
<g id="edge7" class="edge">
<title>Node1&#45;&gt;Node8</title>
<path fill="none" stroke="midnightblue" d="M470.27,-70.68C550.93,-63.19 699.67,-48.48 826,-31 828.85,-30.61 831.75,-30.19 834.68,-29.76"/>
<polygon fill="midnightblue" stroke="midnightblue" points="469.94,-67.2 460.31,-71.6 470.59,-74.17 469.94,-67.2"/>
</g>
</g>
</svg>
