<?xml version="1.0" encoding="UTF-8" standalone="no"?>
<!DOCTYPE svg PUBLIC "-//W3C//DTD SVG 1.1//EN"
 "http://www.w3.org/Graphics/SVG/1.1/DTD/svg11.dtd">
<!-- Generated by graphviz version 2.43.0 (0)
 -->
<!-- Title: src/tracereader.cc Pages: 1 -->
<svg width="965pt" height="252pt"
 viewBox="0.00 0.00 965.00 252.00" xmlns="http://www.w3.org/2000/svg" xmlns:xlink="http://www.w3.org/1999/xlink">
<g id="graph0" class="graph" transform="scale(1 1) rotate(0) translate(4 248)">
<title>src/tracereader.cc</title>
<!-- Node1 -->
<g id="node1" class="node">
<title>Node1</title>
<g id="a_node1"><a xlink:title=" ">
<polygon fill="#bfbfbf" stroke="black" points="327.5,-224.5 327.5,-243.5 430.5,-243.5 430.5,-224.5 327.5,-224.5"/>
<text text-anchor="middle" x="379" y="-231.5" font-family="Helvetica,sans-Serif" font-size="10.00">src/tracereader.cc</text>
</a>
</g>
</g>
<!-- Node2 -->
<g id="node2" class="node">
<title>Node2</title>
<g id="a_node2"><a xlink:href="tracereader_8h.html" target="_top" xlink:title=" ">
<polygon fill="none" stroke="black" points="213.5,-168.5 213.5,-187.5 294.5,-187.5 294.5,-168.5 213.5,-168.5"/>
<text text-anchor="middle" x="254" y="-175.5" font-family="Helvetica,sans-Serif" font-size="10.00">tracereader.h</text>
</a>
</g>
</g>
<!-- Node1&#45;&gt;Node2 -->
<g id="edge1" class="edge">
<title>Node1&#45;&gt;Node2</title>
<path fill="none" stroke="midnightblue" d="M359.19,-224.44C338.71,-215.6 306.52,-201.69 283.14,-191.59"/>
<polygon fill="midnightblue" stroke="midnightblue" points="284.28,-188.27 273.71,-187.52 281.51,-194.7 284.28,-188.27"/>
</g>
<!-- Node7 -->
<g id="node7" class="node">
<title>Node7</title>
<g id="a_node7"><a xlink:title=" ">
<polygon fill="none" stroke="#bfbfbf" points="300,-112.5 300,-131.5 344,-131.5 344,-112.5 300,-112.5"/>
<text text-anchor="middle" x="322" y="-119.5" font-family="Helvetica,sans-Serif" font-size="10.00">string</text>
</a>
</g>
</g>
<!-- Node1&#45;&gt;Node7 -->
<g id="edge19" class="edge">
<title>Node1&#45;&gt;Node7</title>
<path fill="none" stroke="midnightblue" d="M370.51,-224.39C362.45,-215.8 350.49,-201.92 343,-188 335.1,-173.31 329.54,-155.15 326.14,-141.76"/>
<polygon fill="midnightblue" stroke="midnightblue" points="329.49,-140.74 323.78,-131.81 322.68,-142.35 329.49,-140.74"/>
</g>
<!-- Node18 -->
<g id="node18" class="node">
<title>Node18</title>
<g id="a_node18"><a xlink:title=" ">
<polygon fill="none" stroke="#bfbfbf" points="351.5,-168.5 351.5,-187.5 406.5,-187.5 406.5,-168.5 351.5,-168.5"/>
<text text-anchor="middle" x="379" y="-175.5" font-family="Helvetica,sans-Serif" font-size="10.00">fstream</text>
</a>
</g>
</g>
<!-- Node1&#45;&gt;Node18 -->
<g id="edge18" class="edge">
<title>Node1&#45;&gt;Node18</title>
<path fill="none" stroke="midnightblue" d="M379,-224.08C379,-217.01 379,-206.86 379,-197.99"/>
<polygon fill="midnightblue" stroke="midnightblue" points="382.5,-197.75 379,-187.75 375.5,-197.75 382.5,-197.75"/>
</g>
<!-- Node19 -->
<g id="node19" class="node">
<title>Node19</title>
<g id="a_node19"><a xlink:href="inf__stream_8h.html" target="_top" xlink:title=" ">
<polygon fill="none" stroke="black" points="677,-168.5 677,-187.5 755,-187.5 755,-168.5 677,-168.5"/>
<text text-anchor="middle" x="716" y="-175.5" font-family="Helvetica,sans-Serif" font-size="10.00">inf_stream.h</text>
</a>
</g>
</g>
<!-- Node1&#45;&gt;Node19 -->
<g id="edge20" class="edge">
<title>Node1&#45;&gt;Node19</title>
<path fill="none" stroke="midnightblue" d="M430.55,-224.74C494.74,-214.45 603.6,-197.01 666.72,-186.9"/>
<polygon fill="midnightblue" stroke="midnightblue" points="667.5,-190.32 676.82,-185.28 666.39,-183.41 667.5,-190.32"/>
</g>
<!-- Node25 -->
<g id="node25" class="node">
<title>Node25</title>
<g id="a_node25"><a xlink:href="repeatable_8h.html" target="_top" xlink:title=" ">
<polygon fill="none" stroke="black" points="425,-168.5 425,-187.5 503,-187.5 503,-168.5 425,-168.5"/>
<text text-anchor="middle" x="464" y="-175.5" font-family="Helvetica,sans-Serif" font-size="10.00">repeatable.h</text>
</a>
</g>
</g>
<!-- Node1&#45;&gt;Node25 -->
<g id="edge27" class="edge">
<title>Node1&#45;&gt;Node25</title>
<path fill="none" stroke="midnightblue" d="M392.66,-224.32C405.92,-215.9 426.27,-202.97 441.85,-193.07"/>
<polygon fill="midnightblue" stroke="midnightblue" points="443.81,-195.97 450.38,-187.65 440.06,-190.06 443.81,-195.97"/>
</g>
<!-- Node3 -->
<g id="node3" class="node">
<title>Node3</title>
<g id="a_node3"><a xlink:title=" ">
<polygon fill="none" stroke="#bfbfbf" points="0,-112.5 0,-131.5 50,-131.5 50,-112.5 0,-112.5"/>
<text text-anchor="middle" x="25" y="-119.5" font-family="Helvetica,sans-Serif" font-size="10.00">cstring</text>
</a>
</g>
</g>
<!-- Node2&#45;&gt;Node3 -->
<g id="edge2" class="edge">
<title>Node2&#45;&gt;Node3</title>
<path fill="none" stroke="midnightblue" d="M215.43,-168.48C178.11,-160.15 119.7,-146.9 60.18,-132.24"/>
<polygon fill="midnightblue" stroke="midnightblue" points="60.78,-128.78 50.23,-129.77 59.09,-135.57 60.78,-128.78"/>
</g>
<!-- Node4 -->
<g id="node4" class="node">
<title>Node4</title>
<g id="a_node4"><a xlink:title=" ">
<polygon fill="none" stroke="#bfbfbf" points="68.5,-112.5 68.5,-131.5 115.5,-131.5 115.5,-112.5 68.5,-112.5"/>
<text text-anchor="middle" x="92" y="-119.5" font-family="Helvetica,sans-Serif" font-size="10.00">deque</text>
</a>
</g>
</g>
<!-- Node2&#45;&gt;Node4 -->
<g id="edge3" class="edge">
<title>Node2&#45;&gt;Node4</title>
<path fill="none" stroke="midnightblue" d="M228.33,-168.44C200.52,-159.17 156.03,-144.34 125.48,-134.16"/>
<polygon fill="midnightblue" stroke="midnightblue" points="126.3,-130.74 115.7,-130.9 124.08,-137.38 126.3,-130.74"/>
</g>
<!-- Node5 -->
<g id="node5" class="node">
<title>Node5</title>
<g id="a_node5"><a xlink:title=" ">
<polygon fill="none" stroke="#bfbfbf" points="554,-112.5 554,-131.5 612,-131.5 612,-112.5 554,-112.5"/>
<text text-anchor="middle" x="583" y="-119.5" font-family="Helvetica,sans-Serif" font-size="10.00">memory</text>
</a>
</g>
</g>
<!-- Node2&#45;&gt;Node5 -->
<g id="edge4" class="edge">
<title>Node2&#45;&gt;Node5</title>
<path fill="none" stroke="midnightblue" d="M294.82,-171.83C349.51,-164.66 449.79,-150.66 543.99,-132.28"/>
<polygon fill="midnightblue" stroke="midnightblue" points="544.83,-135.68 553.97,-130.31 543.48,-128.81 544.83,-135.68"/>
</g>
<!-- Node6 -->
<g id="node6" class="node">
<title>Node6</title>
<g id="a_node6"><a xlink:title=" ">
<polygon fill="none" stroke="#bfbfbf" points="226,-112.5 226,-131.5 282,-131.5 282,-112.5 226,-112.5"/>
<text text-anchor="middle" x="254" y="-119.5" font-family="Helvetica,sans-Serif" font-size="10.00">numeric</text>
</a>
</g>
</g>
<!-- Node2&#45;&gt;Node6 -->
<g id="edge5" class="edge">
<title>Node2&#45;&gt;Node6</title>
<path fill="none" stroke="midnightblue" d="M254,-168.08C254,-161.01 254,-150.86 254,-141.99"/>
<polygon fill="midnightblue" stroke="midnightblue" points="257.5,-141.75 254,-131.75 250.5,-141.75 257.5,-141.75"/>
</g>
<!-- Node2&#45;&gt;Node7 -->
<g id="edge6" class="edge">
<title>Node2&#45;&gt;Node7</title>
<path fill="none" stroke="midnightblue" d="M264.93,-168.32C275.17,-160.18 290.72,-147.84 303,-138.09"/>
<polygon fill="midnightblue" stroke="midnightblue" points="305.22,-140.79 310.88,-131.83 300.87,-135.31 305.22,-140.79"/>
</g>
<!-- Node8 -->
<g id="node8" class="node">
<title>Node8</title>
<g id="a_node8"><a xlink:href="instruction_8h.html" target="_top" xlink:title=" ">
<polygon fill="none" stroke="black" points="362.5,-112.5 362.5,-131.5 439.5,-131.5 439.5,-112.5 362.5,-112.5"/>
<text text-anchor="middle" x="401" y="-119.5" font-family="Helvetica,sans-Serif" font-size="10.00">instruction.h</text>
</a>
</g>
</g>
<!-- Node2&#45;&gt;Node8 -->
<g id="edge7" class="edge">
<title>Node2&#45;&gt;Node8</title>
<path fill="none" stroke="midnightblue" d="M277.29,-168.44C301.81,-159.44 340.6,-145.19 368.2,-135.05"/>
<polygon fill="midnightblue" stroke="midnightblue" points="369.64,-138.25 377.82,-131.52 367.22,-131.68 369.64,-138.25"/>
</g>
<!-- Node16 -->
<g id="node16" class="node">
<title>Node16</title>
<g id="a_node16"><a xlink:href="detect_8h.html" target="_top" xlink:title=" ">
<polygon fill="none" stroke="black" points="133.5,-112.5 133.5,-131.5 208.5,-131.5 208.5,-112.5 133.5,-112.5"/>
<text text-anchor="middle" x="171" y="-119.5" font-family="Helvetica,sans-Serif" font-size="10.00">util/detect.h</text>
</a>
</g>
</g>
<!-- Node2&#45;&gt;Node16 -->
<g id="edge16" class="edge">
<title>Node2&#45;&gt;Node16</title>
<path fill="none" stroke="midnightblue" d="M240.66,-168.32C227.84,-159.98 208.22,-147.21 193.06,-137.35"/>
<polygon fill="midnightblue" stroke="midnightblue" points="194.59,-134.17 184.3,-131.65 190.78,-140.04 194.59,-134.17"/>
</g>
<!-- Node9 -->
<g id="node9" class="node">
<title>Node9</title>
<g id="a_node9"><a xlink:title=" ">
<polygon fill="none" stroke="#bfbfbf" points="504,-56.5 504,-75.5 568,-75.5 568,-56.5 504,-56.5"/>
<text text-anchor="middle" x="536" y="-63.5" font-family="Helvetica,sans-Serif" font-size="10.00">algorithm</text>
</a>
</g>
</g>
<!-- Node8&#45;&gt;Node9 -->
<g id="edge8" class="edge">
<title>Node8&#45;&gt;Node9</title>
<path fill="none" stroke="midnightblue" d="M422.39,-112.44C444.71,-103.52 479.9,-89.44 505.21,-79.32"/>
<polygon fill="midnightblue" stroke="midnightblue" points="506.72,-82.48 514.71,-75.52 504.12,-75.98 506.72,-82.48"/>
</g>
<!-- Node10 -->
<g id="node10" class="node">
<title>Node10</title>
<g id="a_node10"><a xlink:title=" ">
<polygon fill="none" stroke="#bfbfbf" points="586,-56.5 586,-75.5 628,-75.5 628,-56.5 586,-56.5"/>
<text text-anchor="middle" x="607" y="-63.5" font-family="Helvetica,sans-Serif" font-size="10.00">array</text>
</a>
</g>
</g>
<!-- Node8&#45;&gt;Node10 -->
<g id="edge9" class="edge">
<title>Node8&#45;&gt;Node10</title>
<path fill="none" stroke="midnightblue" d="M436.18,-112.46C469.77,-104.2 522.03,-91.09 575.99,-76.2"/>
<polygon fill="midnightblue" stroke="midnightblue" points="577.03,-79.55 585.73,-73.5 575.15,-72.8 577.03,-79.55"/>
</g>
<!-- Node11 -->
<g id="node11" class="node">
<title>Node11</title>
<g id="a_node11"><a xlink:title=" ">
<polygon fill="none" stroke="#bfbfbf" points="646,-56.5 646,-75.5 696,-75.5 696,-56.5 646,-56.5"/>
<text text-anchor="middle" x="671" y="-63.5" font-family="Helvetica,sans-Serif" font-size="10.00">cstdint</text>
</a>
</g>
</g>
<!-- Node8&#45;&gt;Node11 -->
<g id="edge10" class="edge">
<title>Node8&#45;&gt;Node11</title>
<path fill="none" stroke="midnightblue" d="M439.57,-113.72C496.69,-102.93 600.21,-83.33 635.75,-76.03"/>
<polygon fill="midnightblue" stroke="midnightblue" points="636.75,-79.4 645.8,-73.88 635.29,-72.55 636.75,-79.4"/>
</g>
<!-- Node12 -->
<g id="node12" class="node">
<title>Node12</title>
<g id="a_node12"><a xlink:title=" ">
<polygon fill="none" stroke="#bfbfbf" points="191.5,-56.5 191.5,-75.5 256.5,-75.5 256.5,-56.5 191.5,-56.5"/>
<text text-anchor="middle" x="224" y="-63.5" font-family="Helvetica,sans-Serif" font-size="10.00">functional</text>
</a>
</g>
</g>
<!-- Node8&#45;&gt;Node12 -->
<g id="edge11" class="edge">
<title>Node8&#45;&gt;Node12</title>
<path fill="none" stroke="midnightblue" d="M372.95,-112.44C342.92,-103.28 295.09,-88.69 261.76,-78.52"/>
<polygon fill="midnightblue" stroke="midnightblue" points="262.5,-75.09 251.91,-75.52 260.46,-81.78 262.5,-75.09"/>
</g>
<!-- Node13 -->
<g id="node13" class="node">
<title>Node13</title>
<g id="a_node13"><a xlink:title=" ">
<polygon fill="none" stroke="#bfbfbf" points="336,-0.5 336,-19.5 380,-19.5 380,-0.5 336,-0.5"/>
<text text-anchor="middle" x="358" y="-7.5" font-family="Helvetica,sans-Serif" font-size="10.00">limits</text>
</a>
</g>
</g>
<!-- Node8&#45;&gt;Node13 -->
<g id="edge12" class="edge">
<title>Node8&#45;&gt;Node13</title>
<path fill="none" stroke="midnightblue" d="M362.48,-113.41C341.64,-107.13 317.64,-95.88 305,-76 293.01,-57.14 314.45,-37.53 333.54,-24.85"/>
<polygon fill="midnightblue" stroke="midnightblue" points="335.41,-27.81 342.02,-19.54 331.69,-21.88 335.41,-27.81"/>
</g>
<!-- Node14 -->
<g id="node14" class="node">
<title>Node14</title>
<g id="a_node14"><a xlink:title=" ">
<polygon fill="none" stroke="#bfbfbf" points="313.5,-56.5 313.5,-75.5 360.5,-75.5 360.5,-56.5 313.5,-56.5"/>
<text text-anchor="middle" x="337" y="-63.5" font-family="Helvetica,sans-Serif" font-size="10.00">vector</text>
</a>
</g>
</g>
<!-- Node8&#45;&gt;Node14 -->
<g id="edge13" class="edge">
<title>Node8&#45;&gt;Node14</title>
<path fill="none" stroke="midnightblue" d="M390.72,-112.32C381.16,-104.26 366.72,-92.08 355.22,-82.37"/>
<polygon fill="midnightblue" stroke="midnightblue" points="357.37,-79.61 347.47,-75.83 352.86,-84.96 357.37,-79.61"/>
</g>
<!-- Node15 -->
<g id="node15" class="node">
<title>Node15</title>
<g id="a_node15"><a xlink:href="trace__instruction_8h.html" target="_top" xlink:title=" ">
<polygon fill="none" stroke="black" points="378.5,-56.5 378.5,-75.5 485.5,-75.5 485.5,-56.5 378.5,-56.5"/>
<text text-anchor="middle" x="432" y="-63.5" font-family="Helvetica,sans-Serif" font-size="10.00">trace_instruction.h</text>
</a>
</g>
</g>
<!-- Node8&#45;&gt;Node15 -->
<g id="edge14" class="edge">
<title>Node8&#45;&gt;Node15</title>
<path fill="none" stroke="midnightblue" d="M406.12,-112.08C410.41,-104.61 416.66,-93.72 421.94,-84.52"/>
<polygon fill="midnightblue" stroke="midnightblue" points="425.03,-86.17 426.98,-75.75 418.96,-82.68 425.03,-86.17"/>
</g>
<!-- Node15&#45;&gt;Node13 -->
<g id="edge15" class="edge">
<title>Node15&#45;&gt;Node13</title>
<path fill="none" stroke="midnightblue" d="M420.11,-56.32C408.85,-48.11 391.71,-35.6 378.29,-25.81"/>
<polygon fill="midnightblue" stroke="midnightblue" points="380.25,-22.9 370.11,-19.83 376.12,-28.56 380.25,-22.9"/>
</g>
<!-- Node17 -->
<g id="node17" class="node">
<title>Node17</title>
<g id="a_node17"><a xlink:title=" ">
<polygon fill="none" stroke="#bfbfbf" points="104.5,-56.5 104.5,-75.5 173.5,-75.5 173.5,-56.5 104.5,-56.5"/>
<text text-anchor="middle" x="139" y="-63.5" font-family="Helvetica,sans-Serif" font-size="10.00">type_traits</text>
</a>
</g>
</g>
<!-- Node16&#45;&gt;Node17 -->
<g id="edge17" class="edge">
<title>Node16&#45;&gt;Node17</title>
<path fill="none" stroke="midnightblue" d="M165.72,-112.08C161.29,-104.61 154.84,-93.72 149.38,-84.52"/>
<polygon fill="midnightblue" stroke="midnightblue" points="152.29,-82.57 144.19,-75.75 146.27,-86.14 152.29,-82.57"/>
</g>
<!-- Node19&#45;&gt;Node5 -->
<g id="edge25" class="edge">
<title>Node19&#45;&gt;Node5</title>
<path fill="none" stroke="midnightblue" d="M694.93,-168.44C672.94,-159.52 638.27,-145.44 613.34,-135.32"/>
<polygon fill="midnightblue" stroke="midnightblue" points="614.56,-132.04 603.98,-131.52 611.92,-138.52 614.56,-132.04"/>
</g>
<!-- Node20 -->
<g id="node20" class="node">
<title>Node20</title>
<g id="a_node20"><a xlink:title=" ">
<polygon fill="none" stroke="#bfbfbf" points="691.5,-112.5 691.5,-131.5 740.5,-131.5 740.5,-112.5 691.5,-112.5"/>
<text text-anchor="middle" x="716" y="-119.5" font-family="Helvetica,sans-Serif" font-size="10.00">bzlib.h</text>
</a>
</g>
</g>
<!-- Node19&#45;&gt;Node20 -->
<g id="edge21" class="edge">
<title>Node19&#45;&gt;Node20</title>
<path fill="none" stroke="midnightblue" d="M716,-168.08C716,-161.01 716,-150.86 716,-141.99"/>
<polygon fill="midnightblue" stroke="midnightblue" points="719.5,-141.75 716,-131.75 712.5,-141.75 719.5,-141.75"/>
</g>
<!-- Node21 -->
<g id="node21" class="node">
<title>Node21</title>
<g id="a_node21"><a xlink:title=" ">
<polygon fill="none" stroke="#bfbfbf" points="759,-112.5 759,-131.5 811,-131.5 811,-112.5 759,-112.5"/>
<text text-anchor="middle" x="785" y="-119.5" font-family="Helvetica,sans-Serif" font-size="10.00">cassert</text>
</a>
</g>
</g>
<!-- Node19&#45;&gt;Node21 -->
<g id="edge22" class="edge">
<title>Node19&#45;&gt;Node21</title>
<path fill="none" stroke="midnightblue" d="M727.09,-168.32C737.49,-160.18 753.26,-147.84 765.72,-138.09"/>
<polygon fill="midnightblue" stroke="midnightblue" points="767.99,-140.75 773.71,-131.83 763.68,-135.24 767.99,-140.75"/>
</g>
<!-- Node22 -->
<g id="node22" class="node">
<title>Node22</title>
<g id="a_node22"><a xlink:title=" ">
<polygon fill="none" stroke="#bfbfbf" points="829,-112.5 829,-131.5 889,-131.5 889,-112.5 829,-112.5"/>
<text text-anchor="middle" x="859" y="-119.5" font-family="Helvetica,sans-Serif" font-size="10.00">iostream</text>
</a>
</g>
</g>
<!-- Node19&#45;&gt;Node22 -->
<g id="edge23" class="edge">
<title>Node19&#45;&gt;Node22</title>
<path fill="none" stroke="midnightblue" d="M738.66,-168.44C762.4,-159.48 799.91,-145.31 826.74,-135.18"/>
<polygon fill="midnightblue" stroke="midnightblue" points="828.33,-138.32 836.45,-131.52 825.86,-131.77 828.33,-138.32"/>
</g>
<!-- Node23 -->
<g id="node23" class="node">
<title>Node23</title>
<g id="a_node23"><a xlink:title=" ">
<polygon fill="none" stroke="#bfbfbf" points="907,-112.5 907,-131.5 957,-131.5 957,-112.5 907,-112.5"/>
<text text-anchor="middle" x="932" y="-119.5" font-family="Helvetica,sans-Serif" font-size="10.00">lzma.h</text>
</a>
</g>
</g>
<!-- Node19&#45;&gt;Node23 -->
<g id="edge24" class="edge">
<title>Node19&#45;&gt;Node23</title>
<path fill="none" stroke="midnightblue" d="M751.27,-168.46C785.96,-160.02 840.68,-146.6 896.98,-132.23"/>
<polygon fill="midnightblue" stroke="midnightblue" points="897.94,-135.6 906.76,-129.73 896.21,-128.82 897.94,-135.6"/>
</g>
<!-- Node24 -->
<g id="node24" class="node">
<title>Node24</title>
<g id="a_node24"><a xlink:title=" ">
<polygon fill="none" stroke="#bfbfbf" points="630.5,-112.5 630.5,-131.5 673.5,-131.5 673.5,-112.5 630.5,-112.5"/>
<text text-anchor="middle" x="652" y="-119.5" font-family="Helvetica,sans-Serif" font-size="10.00">zlib.h</text>
</a>
</g>
</g>
<!-- Node19&#45;&gt;Node24 -->
<g id="edge26" class="edge">
<title>Node19&#45;&gt;Node24</title>
<path fill="none" stroke="midnightblue" d="M705.72,-168.32C696.16,-160.26 681.72,-148.08 670.22,-138.37"/>
<polygon fill="midnightblue" stroke="midnightblue" points="672.37,-135.61 662.47,-131.83 667.86,-140.96 672.37,-135.61"/>
</g>
<!-- Node25&#45;&gt;Node5 -->
<g id="edge28" class="edge">
<title>Node25&#45;&gt;Node5</title>
<path fill="none" stroke="midnightblue" d="M482.86,-168.44C502.27,-159.64 532.73,-145.81 554.96,-135.72"/>
<polygon fill="midnightblue" stroke="midnightblue" points="556.57,-138.84 564.23,-131.52 553.68,-132.46 556.57,-138.84"/>
</g>
<!-- Node25&#45;&gt;Node7 -->
<g id="edge29" class="edge">
<title>Node25&#45;&gt;Node7</title>
<path fill="none" stroke="midnightblue" d="M441.5,-168.44C417.92,-159.48 380.68,-145.31 354.04,-135.18"/>
<polygon fill="midnightblue" stroke="midnightblue" points="354.99,-131.8 344.4,-131.52 352.5,-138.34 354.99,-131.8"/>
</g>
<!-- Node25&#45;&gt;Node8 -->
<g id="edge30" class="edge">
<title>Node25&#45;&gt;Node8</title>
<path fill="none" stroke="midnightblue" d="M453.88,-168.32C444.47,-160.26 430.26,-148.08 418.93,-138.37"/>
<polygon fill="midnightblue" stroke="midnightblue" points="421.18,-135.68 411.31,-131.83 416.62,-141 421.18,-135.68"/>
</g>
<!-- Node26 -->
<g id="node26" class="node">
<title>Node26</title>
<g id="a_node26"><a xlink:title=" ">
<polygon fill="none" stroke="#bfbfbf" points="457.5,-112.5 457.5,-131.5 536.5,-131.5 536.5,-112.5 457.5,-112.5"/>
<text text-anchor="middle" x="497" y="-119.5" font-family="Helvetica,sans-Serif" font-size="10.00">fmt/ranges.h</text>
</a>
</g>
</g>
<!-- Node25&#45;&gt;Node26 -->
<g id="edge31" class="edge">
<title>Node25&#45;&gt;Node26</title>
<path fill="none" stroke="midnightblue" d="M469.45,-168.08C474.01,-160.61 480.67,-149.72 486.29,-140.52"/>
<polygon fill="midnightblue" stroke="midnightblue" points="489.42,-142.11 491.65,-131.75 483.45,-138.46 489.42,-142.11"/>
</g>
</g>
</svg>
