<?xml version="1.0" encoding="UTF-8" standalone="no"?>
<!DOCTYPE svg PUBLIC "-//W3C//DTD SVG 1.1//EN"
 "http://www.w3.org/Graphics/SVG/1.1/DTD/svg11.dtd">
<!-- Generated by graphviz version 2.43.0 (0)
 -->
<!-- Title: inc/util/lru_table.h Pages: 1 -->
<svg width="4743pt" height="240pt"
 viewBox="0.00 0.00 4743.00 240.00" xmlns="http://www.w3.org/2000/svg" xmlns:xlink="http://www.w3.org/1999/xlink">
<g id="graph0" class="graph" transform="scale(1 1) rotate(0) translate(4 236)">
<title>inc/util/lru_table.h</title>
<!-- Node1 -->
<g id="node1" class="node">
<title>Node1</title>
<g id="a_node1"><a xlink:title=" ">
<polygon fill="#bfbfbf" stroke="black" points="4215,-212.5 4215,-231.5 4319,-231.5 4319,-212.5 4215,-212.5"/>
<text text-anchor="middle" x="4267" y="-219.5" font-family="Helvetica,sans-Serif" font-size="10.00">inc/util/lru_table.h</text>
</a>
</g>
</g>
<!-- Node2 -->
<g id="node2" class="node">
<title>Node2</title>
<g id="a_node2"><a xlink:href="ooo__cpu_8h.html" target="_top" xlink:title=" ">
<polygon fill="none" stroke="black" points="801.5,-151 801.5,-170 884.5,-170 884.5,-151 801.5,-151"/>
<text text-anchor="middle" x="843" y="-158" font-family="Helvetica,sans-Serif" font-size="10.00">inc/ooo_cpu.h</text>
</a>
</g>
</g>
<!-- Node1&#45;&gt;Node2 -->
<g id="edge1" class="edge">
<title>Node1&#45;&gt;Node2</title>
<path fill="none" stroke="midnightblue" d="M4204.85,-219.92C3774.27,-212.44 1241.45,-168.42 884.74,-162.23"/>
<polygon fill="midnightblue" stroke="midnightblue" points="4204.87,-223.42 4214.93,-220.1 4204.99,-216.42 4204.87,-223.42"/>
</g>
<!-- Node57 -->
<g id="node48" class="node">
<title>Node57</title>
<g id="a_node48"><a xlink:href="ptw_8h.html" target="_top" xlink:title=" ">
<polygon fill="none" stroke="black" points="4237,-151 4237,-170 4297,-170 4297,-151 4237,-151"/>
<text text-anchor="middle" x="4267" y="-158" font-family="Helvetica,sans-Serif" font-size="10.00">inc/ptw.h</text>
</a>
</g>
</g>
<!-- Node1&#45;&gt;Node57 -->
<g id="edge59" class="edge">
<title>Node1&#45;&gt;Node57</title>
<path fill="none" stroke="midnightblue" d="M4267,-202.32C4267,-191.5 4267,-178.4 4267,-170.01"/>
<polygon fill="midnightblue" stroke="midnightblue" points="4263.5,-202.48 4267,-212.48 4270.5,-202.48 4263.5,-202.48"/>
</g>
<!-- Node59 -->
<g id="node50" class="node">
<title>Node59</title>
<g id="a_node50"><a xlink:href="040-lru-table_8cc.html" target="_top" xlink:title=" ">
<polygon fill="none" stroke="black" points="4315,-145.5 4315,-175.5 4425,-175.5 4425,-145.5 4315,-145.5"/>
<text text-anchor="start" x="4323" y="-163.5" font-family="Helvetica,sans-Serif" font-size="10.00">test/cpp/src/040&#45;lru</text>
<text text-anchor="middle" x="4370" y="-152.5" font-family="Helvetica,sans-Serif" font-size="10.00">&#45;table.cc</text>
</a>
</g>
</g>
<!-- Node1&#45;&gt;Node59 -->
<g id="edge67" class="edge">
<title>Node1&#45;&gt;Node59</title>
<path fill="none" stroke="midnightblue" d="M4290.76,-207.28C4307.24,-197.75 4329.13,-185.11 4345.72,-175.52"/>
<polygon fill="midnightblue" stroke="midnightblue" points="4288.67,-204.44 4281.76,-212.48 4292.17,-210.5 4288.67,-204.44"/>
</g>
<!-- Node3 -->
<g id="node3" class="node">
<title>Node3</title>
<g id="a_node3"><a xlink:href="bimodal_8cc.html" target="_top" xlink:title=" ">
<polygon fill="none" stroke="black" points="398.5,-84 398.5,-103 547.5,-103 547.5,-84 398.5,-84"/>
<text text-anchor="middle" x="473" y="-91" font-family="Helvetica,sans-Serif" font-size="10.00">branch/bimodal/bimodal.cc</text>
</a>
</g>
</g>
<!-- Node2&#45;&gt;Node3 -->
<g id="edge2" class="edge">
<title>Node2&#45;&gt;Node3</title>
<path fill="none" stroke="midnightblue" d="M791.14,-150.39C719.55,-137.81 591.4,-115.3 521.58,-103.03"/>
<polygon fill="midnightblue" stroke="midnightblue" points="790.82,-153.89 801.28,-152.17 792.03,-146.99 790.82,-153.89"/>
</g>
<!-- Node4 -->
<g id="node4" class="node">
<title>Node4</title>
<g id="a_node4"><a xlink:href="gshare_8cc.html" target="_top" xlink:title=" ">
<polygon fill="none" stroke="black" points="641.5,-84 641.5,-103 776.5,-103 776.5,-84 641.5,-84"/>
<text text-anchor="middle" x="709" y="-91" font-family="Helvetica,sans-Serif" font-size="10.00">branch/gshare/gshare.cc</text>
</a>
</g>
</g>
<!-- Node2&#45;&gt;Node4 -->
<g id="edge3" class="edge">
<title>Node2&#45;&gt;Node4</title>
<path fill="none" stroke="midnightblue" d="M816.08,-146.44C789.54,-133.57 749.73,-114.26 726.87,-103.17"/>
<polygon fill="midnightblue" stroke="midnightblue" points="814.68,-149.65 825.21,-150.87 817.74,-143.35 814.68,-149.65"/>
</g>
<!-- Node5 -->
<g id="node5" class="node">
<title>Node5</title>
<g id="a_node5"><a xlink:href="hashed__perceptron_8cc.html" target="_top" xlink:title=" ">
<polygon fill="none" stroke="black" points="977,-78.5 977,-108.5 1123,-108.5 1123,-78.5 977,-78.5"/>
<text text-anchor="start" x="985" y="-96.5" font-family="Helvetica,sans-Serif" font-size="10.00">branch/hashed_perceptron</text>
<text text-anchor="middle" x="1050" y="-85.5" font-family="Helvetica,sans-Serif" font-size="10.00">/hashed_perceptron.cc</text>
</a>
</g>
</g>
<!-- Node2&#45;&gt;Node5 -->
<g id="edge4" class="edge">
<title>Node2&#45;&gt;Node5</title>
<path fill="none" stroke="midnightblue" d="M880.34,-147.77C915.44,-136.75 968.02,-120.24 1005.33,-108.53"/>
<polygon fill="midnightblue" stroke="midnightblue" points="878.98,-144.53 870.49,-150.87 881.08,-151.21 878.98,-144.53"/>
</g>
<!-- Node6 -->
<g id="node6" class="node">
<title>Node6</title>
<g id="a_node6"><a xlink:href="perceptron_8cc.html" target="_top" xlink:title=" ">
<polygon fill="none" stroke="black" points="1141,-84 1141,-103 1315,-103 1315,-84 1141,-84"/>
<text text-anchor="middle" x="1228" y="-91" font-family="Helvetica,sans-Serif" font-size="10.00">branch/perceptron/perceptron.cc</text>
</a>
</g>
</g>
<!-- Node2&#45;&gt;Node6 -->
<g id="edge5" class="edge">
<title>Node2&#45;&gt;Node6</title>
<path fill="none" stroke="midnightblue" d="M894.59,-150.79C968.61,-138.29 1104.1,-115.42 1177.51,-103.02"/>
<polygon fill="midnightblue" stroke="midnightblue" points="893.85,-147.37 884.57,-152.48 895.01,-154.27 893.85,-147.37"/>
</g>
<!-- Node7 -->
<g id="node7" class="node">
<title>Node7</title>
<g id="a_node7"><a xlink:href="tage__sc__l_8cc.html" target="_top" xlink:title=" ">
<polygon fill="none" stroke="black" points="1333.5,-78.5 1333.5,-108.5 1456.5,-108.5 1456.5,-78.5 1333.5,-78.5"/>
<text text-anchor="start" x="1341.5" y="-96.5" font-family="Helvetica,sans-Serif" font-size="10.00">branch/tage_sc_l/tage</text>
<text text-anchor="middle" x="1395" y="-85.5" font-family="Helvetica,sans-Serif" font-size="10.00">_sc_l.cc</text>
</a>
</g>
</g>
<!-- Node2&#45;&gt;Node7 -->
<g id="edge6" class="edge">
<title>Node2&#45;&gt;Node7</title>
<path fill="none" stroke="midnightblue" d="M894.7,-155.72C983.03,-148.9 1168.54,-132.98 1324,-109 1327.11,-108.52 1330.29,-108 1333.49,-107.44"/>
<polygon fill="midnightblue" stroke="midnightblue" points="894.38,-152.24 884.67,-156.49 894.91,-159.22 894.38,-152.24"/>
</g>
<!-- Node8 -->
<g id="node8" class="node">
<title>Node8</title>
<g id="a_node8"><a xlink:href="target__predictor_8cc.html" target="_top" xlink:title=" ">
<polygon fill="none" stroke="black" points="0,-6 0,-36 136,-36 136,-6 0,-6"/>
<text text-anchor="start" x="8" y="-24" font-family="Helvetica,sans-Serif" font-size="10.00">btb/advanced_btb/target</text>
<text text-anchor="middle" x="68" y="-13" font-family="Helvetica,sans-Serif" font-size="10.00">_predictor.cc</text>
</a>
</g>
</g>
<!-- Node2&#45;&gt;Node8 -->
<g id="edge7" class="edge">
<title>Node2&#45;&gt;Node8</title>
<path fill="none" stroke="midnightblue" d="M791.28,-158.29C613.91,-153.87 39.75,-137.43 13,-109 -8.31,-86.36 24.76,-54.3 48.13,-36.09"/>
<polygon fill="midnightblue" stroke="midnightblue" points="791.31,-161.79 801.4,-158.53 791.49,-154.79 791.31,-161.79"/>
</g>
<!-- Node9 -->
<g id="node9" class="node">
<title>Node9</title>
<g id="a_node9"><a xlink:href="basic__btb_8cc.html" target="_top" xlink:title=" ">
<polygon fill="none" stroke="black" points="1513,-78.5 1513,-108.5 1623,-108.5 1623,-78.5 1513,-78.5"/>
<text text-anchor="start" x="1521" y="-96.5" font-family="Helvetica,sans-Serif" font-size="10.00">btb/basic_btb/basic</text>
<text text-anchor="middle" x="1568" y="-85.5" font-family="Helvetica,sans-Serif" font-size="10.00">_btb.cc</text>
</a>
</g>
</g>
<!-- Node2&#45;&gt;Node9 -->
<g id="edge8" class="edge">
<title>Node2&#45;&gt;Node9</title>
<path fill="none" stroke="midnightblue" d="M894.91,-157.8C1006.15,-153.66 1275.53,-140.94 1499,-109 1503.48,-108.36 1508.11,-107.6 1512.75,-106.77"/>
<polygon fill="midnightblue" stroke="midnightblue" points="894.52,-154.31 884.65,-158.18 894.77,-161.31 894.52,-154.31"/>
</g>
<!-- Node10 -->
<g id="node10" class="node">
<title>Node10</title>
<g id="a_node10"><a xlink:href="basic__btb_8h.html" target="_top" xlink:title=" ">
<polygon fill="none" stroke="black" points="22.5,-84 22.5,-103 113.5,-103 113.5,-84 22.5,-84"/>
<text text-anchor="middle" x="68" y="-91" font-family="Helvetica,sans-Serif" font-size="10.00">btb/basic_btb.h</text>
</a>
</g>
</g>
<!-- Node2&#45;&gt;Node10 -->
<g id="edge9" class="edge">
<title>Node2&#45;&gt;Node10</title>
<path fill="none" stroke="midnightblue" d="M790.93,-159.27C671.7,-158.01 370.06,-150.59 122,-109 113.38,-107.56 104.15,-105.33 95.8,-103.06"/>
<polygon fill="midnightblue" stroke="midnightblue" points="791.19,-162.78 801.22,-159.37 791.25,-155.78 791.19,-162.78"/>
</g>
<!-- Node11 -->
<g id="node11" class="node">
<title>Node11</title>
<g id="a_node11"><a xlink:href="ras_8h.html" target="_top" xlink:title=" ">
<polygon fill="none" stroke="black" points="131.5,-84 131.5,-103 190.5,-103 190.5,-84 131.5,-84"/>
<text text-anchor="middle" x="161" y="-91" font-family="Helvetica,sans-Serif" font-size="10.00">btb/ras.h</text>
</a>
</g>
</g>
<!-- Node2&#45;&gt;Node11 -->
<g id="edge11" class="edge">
<title>Node2&#45;&gt;Node11</title>
<path fill="none" stroke="midnightblue" d="M791.38,-159.57C682.09,-158.83 419.74,-152.23 205,-109 197.9,-107.57 190.36,-105.36 183.56,-103.08"/>
<polygon fill="midnightblue" stroke="midnightblue" points="791.46,-163.08 801.48,-159.63 791.49,-156.08 791.46,-163.08"/>
</g>
<!-- Node12 -->
<g id="node12" class="node">
<title>Node12</title>
<g id="a_node12"><a xlink:href="defaults_8hpp.html" target="_top" xlink:title=" ">
<polygon fill="none" stroke="red" points="2591.5,-84 2591.5,-103 2686.5,-103 2686.5,-84 2591.5,-84"/>
<text text-anchor="middle" x="2639" y="-91" font-family="Helvetica,sans-Serif" font-size="10.00">inc/defaults.hpp</text>
</a>
</g>
</g>
<!-- Node2&#45;&gt;Node12 -->
<g id="edge13" class="edge">
<title>Node2&#45;&gt;Node12</title>
<path fill="none" stroke="midnightblue" d="M894.78,-157.63C1157.31,-148.12 2338.76,-105.37 2591.37,-96.22"/>
<polygon fill="midnightblue" stroke="midnightblue" points="894.62,-154.13 884.75,-157.99 894.87,-161.12 894.62,-154.13"/>
</g>
<!-- Node13 -->
<g id="node13" class="node">
<title>Node13</title>
<g id="a_node13"><a xlink:href="140-single-dib-lookup_8cc.html" target="_top" xlink:title=" ">
<polygon fill="none" stroke="black" points="444.5,-6 444.5,-36 571.5,-36 571.5,-6 444.5,-6"/>
<text text-anchor="start" x="452.5" y="-24" font-family="Helvetica,sans-Serif" font-size="10.00">test/cpp/src/140&#45;single</text>
<text text-anchor="middle" x="508" y="-13" font-family="Helvetica,sans-Serif" font-size="10.00">&#45;dib&#45;lookup.cc</text>
</a>
</g>
</g>
<!-- Node2&#45;&gt;Node13 -->
<g id="edge52" class="edge">
<title>Node2&#45;&gt;Node13</title>
<path fill="none" stroke="midnightblue" d="M791.04,-154.11C744.68,-147.83 675.86,-134.82 621,-109 581.12,-90.23 542.07,-55.5 521.97,-36.08"/>
<polygon fill="midnightblue" stroke="midnightblue" points="790.79,-157.61 801.16,-155.42 791.69,-150.66 790.79,-157.61"/>
</g>
<!-- Node14 -->
<g id="node14" class="node">
<title>Node14</title>
<g id="a_node14"><a xlink:href="150-fetch-bandwidth_8cc.html" target="_top" xlink:title=" ">
<polygon fill="none" stroke="black" points="590,-6 590,-36 712,-36 712,-6 590,-6"/>
<text text-anchor="start" x="598" y="-24" font-family="Helvetica,sans-Serif" font-size="10.00">test/cpp/src/150&#45;fetch</text>
<text text-anchor="middle" x="651" y="-13" font-family="Helvetica,sans-Serif" font-size="10.00">&#45;bandwidth.cc</text>
</a>
</g>
</g>
<!-- Node2&#45;&gt;Node14 -->
<g id="edge53" class="edge">
<title>Node2&#45;&gt;Node14</title>
<path fill="none" stroke="midnightblue" d="M791.16,-154.3C735.47,-147.53 652.34,-133.54 633,-109 616.29,-87.8 630.84,-54.93 641.72,-36.25"/>
<polygon fill="midnightblue" stroke="midnightblue" points="790.88,-157.8 801.22,-155.49 791.69,-150.84 790.88,-157.8"/>
</g>
<!-- Node15 -->
<g id="node15" class="node">
<title>Node15</title>
<g id="a_node15"><a xlink:href="165-basic-btb-no-evict-on-unknown-target_8cc.html" target="_top" xlink:title=" ">
<polygon fill="none" stroke="black" points="730.5,-0.5 730.5,-41.5 873.5,-41.5 873.5,-0.5 730.5,-0.5"/>
<text text-anchor="start" x="738.5" y="-29.5" font-family="Helvetica,sans-Serif" font-size="10.00">test/cpp/src/165&#45;basic</text>
<text text-anchor="start" x="738.5" y="-18.5" font-family="Helvetica,sans-Serif" font-size="10.00">&#45;btb&#45;no&#45;evict&#45;on&#45;unknown</text>
<text text-anchor="middle" x="802" y="-7.5" font-family="Helvetica,sans-Serif" font-size="10.00">&#45;target.cc</text>
</a>
</g>
</g>
<!-- Node2&#45;&gt;Node15 -->
<g id="edge54" class="edge">
<title>Node2&#45;&gt;Node15</title>
<path fill="none" stroke="midnightblue" d="M837.56,-141.24C829.85,-115.4 815.82,-68.34 807.88,-41.72"/>
<polygon fill="midnightblue" stroke="midnightblue" points="834.22,-142.32 840.44,-150.9 840.93,-140.32 834.22,-142.32"/>
</g>
<!-- Node16 -->
<g id="node16" class="node">
<title>Node16</title>
<g id="a_node16"><a xlink:href="166-issue296-basic-btb-no-mispredict-on-not-taken_8cc.html" target="_top" xlink:title=" ">
<polygon fill="none" stroke="black" points="891.5,-0.5 891.5,-41.5 1032.5,-41.5 1032.5,-0.5 891.5,-0.5"/>
<text text-anchor="start" x="899.5" y="-29.5" font-family="Helvetica,sans-Serif" font-size="10.00">test/cpp/src/166&#45;issue296</text>
<text text-anchor="start" x="899.5" y="-18.5" font-family="Helvetica,sans-Serif" font-size="10.00">&#45;basic&#45;btb&#45;no&#45;mispredict</text>
<text text-anchor="middle" x="962" y="-7.5" font-family="Helvetica,sans-Serif" font-size="10.00">&#45;on&#45;not&#45;taken.cc</text>
</a>
</g>
</g>
<!-- Node2&#45;&gt;Node16 -->
<g id="edge55" class="edge">
<title>Node2&#45;&gt;Node16</title>
<path fill="none" stroke="midnightblue" d="M843.17,-140.71C844.23,-122.92 848.25,-96.29 862,-78 873.84,-62.25 891.48,-50.31 908.66,-41.59"/>
<polygon fill="midnightblue" stroke="midnightblue" points="839.66,-140.84 842.83,-150.95 846.66,-141.07 839.66,-140.84"/>
</g>
<!-- Node17 -->
<g id="node17" class="node">
<title>Node17</title>
<g id="a_node17"><a xlink:href="200-rob-scheduling_8cc.html" target="_top" xlink:title=" ">
<polygon fill="none" stroke="black" points="1050.5,-6 1050.5,-36 1163.5,-36 1163.5,-6 1050.5,-6"/>
<text text-anchor="start" x="1058.5" y="-24" font-family="Helvetica,sans-Serif" font-size="10.00">test/cpp/src/200&#45;rob</text>
<text text-anchor="middle" x="1107" y="-13" font-family="Helvetica,sans-Serif" font-size="10.00">&#45;scheduling.cc</text>
</a>
</g>
</g>
<!-- Node2&#45;&gt;Node17 -->
<g id="edge56" class="edge">
<title>Node2&#45;&gt;Node17</title>
<path fill="none" stroke="midnightblue" d="M894.86,-159.23C1037.48,-157.95 1427.6,-150.64 1466,-109 1475.34,-98.87 1475.13,-88.32 1466,-78 1422.53,-28.87 1237.18,-55.56 1173,-42 1165.39,-40.39 1157.38,-38.31 1149.68,-36.1"/>
<polygon fill="midnightblue" stroke="midnightblue" points="894.6,-155.73 884.63,-159.31 894.66,-162.73 894.6,-155.73"/>
</g>
<!-- Node18 -->
<g id="node18" class="node">
<title>Node18</title>
<g id="a_node18"><a xlink:href="300-retire-from-rob_8cc.html" target="_top" xlink:title=" ">
<polygon fill="none" stroke="black" points="1182,-6 1182,-36 1306,-36 1306,-6 1182,-6"/>
<text text-anchor="start" x="1190" y="-24" font-family="Helvetica,sans-Serif" font-size="10.00">test/cpp/src/300&#45;retire</text>
<text text-anchor="middle" x="1244" y="-13" font-family="Helvetica,sans-Serif" font-size="10.00">&#45;from&#45;rob.cc</text>
</a>
</g>
</g>
<!-- Node2&#45;&gt;Node18 -->
<g id="edge57" class="edge">
<title>Node2&#45;&gt;Node18</title>
<path fill="none" stroke="midnightblue" d="M894.74,-158.11C1066.26,-153.27 1606.74,-135.93 1632,-109 1641.43,-98.95 1641.17,-88.28 1632,-78 1584.94,-25.27 1385.38,-55.5 1316,-42 1307.72,-40.39 1299.01,-38.31 1290.61,-36.1"/>
<polygon fill="midnightblue" stroke="midnightblue" points="894.6,-154.62 884.7,-158.4 894.79,-161.61 894.6,-154.62"/>
</g>
<!-- Node48 -->
<g id="node42" class="node">
<title>Node48</title>
<g id="a_node42"><a xlink:href="900-btb-bounds-check_8cc.html" target="_top" xlink:title=" ">
<polygon fill="none" stroke="black" points="1324.5,-6 1324.5,-36 1437.5,-36 1437.5,-6 1324.5,-6"/>
<text text-anchor="start" x="1332.5" y="-24" font-family="Helvetica,sans-Serif" font-size="10.00">test/cpp/src/900&#45;btb</text>
<text text-anchor="middle" x="1381" y="-13" font-family="Helvetica,sans-Serif" font-size="10.00">&#45;bounds&#45;check.cc</text>
</a>
</g>
</g>
<!-- Node2&#45;&gt;Node48 -->
<g id="edge58" class="edge">
<title>Node2&#45;&gt;Node48</title>
<path fill="none" stroke="midnightblue" d="M894.98,-158.7C1089.21,-155.45 1762.86,-141.84 1794,-109 1803.48,-99 1803.23,-88.23 1794,-78 1742.09,-20.42 1523,-57.31 1447,-42 1439.14,-40.42 1430.87,-38.29 1422.95,-36.02"/>
<polygon fill="midnightblue" stroke="midnightblue" points="894.69,-155.2 884.75,-158.87 894.81,-162.2 894.69,-155.2"/>
</g>
<!-- Node49 -->
<g id="node43" class="node">
<title>Node49</title>
<g id="a_node43"><a xlink:href="environment_8h.html" target="_top" xlink:title=" ">
<polygon fill="none" stroke="black" points="1679.5,-84 1679.5,-103 1784.5,-103 1784.5,-84 1679.5,-84"/>
<text text-anchor="middle" x="1732" y="-91" font-family="Helvetica,sans-Serif" font-size="10.00">inc/environment.h</text>
</a>
</g>
</g>
<!-- Node2&#45;&gt;Node49 -->
<g id="edge44" class="edge">
<title>Node2&#45;&gt;Node49</title>
<path fill="none" stroke="midnightblue" d="M894.78,-159.04C1024.89,-157.3 1375.76,-148.95 1665,-109 1675.61,-107.53 1687.04,-105.31 1697.4,-103.04"/>
<polygon fill="midnightblue" stroke="midnightblue" points="894.66,-155.54 884.71,-159.17 894.75,-162.54 894.66,-155.54"/>
</g>
<!-- Node50 -->
<g id="node44" class="node">
<title>Node50</title>
<g id="a_node44"><a xlink:href="champsim_8cc.html" target="_top" xlink:title=" ">
<polygon fill="none" stroke="black" points="203,-11.5 203,-30.5 301,-30.5 301,-11.5 203,-11.5"/>
<text text-anchor="middle" x="252" y="-18.5" font-family="Helvetica,sans-Serif" font-size="10.00">src/champsim.cc</text>
</a>
</g>
</g>
<!-- Node2&#45;&gt;Node50 -->
<g id="edge50" class="edge">
<title>Node2&#45;&gt;Node50</title>
<path fill="none" stroke="midnightblue" d="M791.17,-159.09C651.47,-157.47 275.12,-149.34 238,-109 217.8,-87.05 236.5,-48.06 246.55,-30.73"/>
<polygon fill="midnightblue" stroke="midnightblue" points="791.17,-162.59 801.2,-159.21 791.24,-155.6 791.17,-162.59"/>
</g>
<!-- Node51 -->
<g id="node45" class="node">
<title>Node51</title>
<g id="a_node45"><a xlink:href="phase__info_8h.html" target="_top" xlink:title=" ">
<polygon fill="none" stroke="red" points="247,-84 247,-103 343,-103 343,-84 247,-84"/>
<text text-anchor="middle" x="295" y="-91" font-family="Helvetica,sans-Serif" font-size="10.00">inc/phase_info.h</text>
</a>
</g>
</g>
<!-- Node2&#45;&gt;Node51 -->
<g id="edge46" class="edge">
<title>Node2&#45;&gt;Node51</title>
<path fill="none" stroke="midnightblue" d="M791.37,-156.28C702.28,-150.26 514.11,-135.43 357,-109 347.52,-107.4 337.32,-105.22 327.99,-103.03"/>
<polygon fill="midnightblue" stroke="midnightblue" points="791.27,-159.79 801.48,-156.96 791.73,-152.8 791.27,-159.79"/>
</g>
<!-- Node52 -->
<g id="node46" class="node">
<title>Node52</title>
<g id="a_node46"><a xlink:href="stats__printer_8h.html" target="_top" xlink:title=" ">
<polygon fill="none" stroke="red" points="319,-11.5 319,-30.5 423,-30.5 423,-11.5 319,-11.5"/>
<text text-anchor="middle" x="371" y="-18.5" font-family="Helvetica,sans-Serif" font-size="10.00">inc/stats_printer.h</text>
</a>
</g>
</g>
<!-- Node2&#45;&gt;Node52 -->
<g id="edge49" class="edge">
<title>Node2&#45;&gt;Node52</title>
<path fill="none" stroke="midnightblue" d="M791.27,-157.09C678.74,-151.37 419.36,-135.45 390,-109 367.49,-88.72 368.31,-48.49 369.93,-30.75"/>
<polygon fill="midnightblue" stroke="midnightblue" points="791.21,-160.59 801.37,-157.6 791.56,-153.6 791.21,-160.59"/>
</g>
<!-- Node56 -->
<g id="node47" class="node">
<title>Node56</title>
<g id="a_node47"><a xlink:href="ooo__cpu_8cc.html" target="_top" xlink:title=" ">
<polygon fill="none" stroke="black" points="871,-84 871,-103 959,-103 959,-84 871,-84"/>
<text text-anchor="middle" x="915" y="-91" font-family="Helvetica,sans-Serif" font-size="10.00">src/ooo_cpu.cc</text>
</a>
</g>
</g>
<!-- Node2&#45;&gt;Node56 -->
<g id="edge51" class="edge">
<title>Node2&#45;&gt;Node56</title>
<path fill="none" stroke="midnightblue" d="M860.33,-143.86C874.48,-131.08 893.96,-113.49 905.44,-103.13"/>
<polygon fill="midnightblue" stroke="midnightblue" points="857.79,-141.43 852.71,-150.73 862.48,-146.63 857.79,-141.43"/>
</g>
<!-- Node10&#45;&gt;Node8 -->
<g id="edge10" class="edge">
<title>Node10&#45;&gt;Node8</title>
<path fill="none" stroke="midnightblue" d="M68,-73.74C68,-61.91 68,-46.88 68,-36.08"/>
<polygon fill="midnightblue" stroke="midnightblue" points="64.5,-73.86 68,-83.86 71.5,-73.86 64.5,-73.86"/>
</g>
<!-- Node11&#45;&gt;Node8 -->
<g id="edge12" class="edge">
<title>Node11&#45;&gt;Node8</title>
<path fill="none" stroke="midnightblue" d="M141.38,-77.63C125.21,-65.37 102.44,-48.11 86.57,-36.08"/>
<polygon fill="midnightblue" stroke="midnightblue" points="139.51,-80.6 149.6,-83.86 143.74,-75.03 139.51,-80.6"/>
</g>
<!-- Node12&#45;&gt;Node13 -->
<g id="edge14" class="edge">
<title>Node12&#45;&gt;Node13</title>
<path fill="none" stroke="midnightblue" d="M2581.23,-91.48C2257.79,-85.71 682.5,-56.92 581,-42 571.64,-40.62 561.77,-38.44 552.42,-36.01"/>
<polygon fill="midnightblue" stroke="midnightblue" points="2581.26,-94.98 2591.32,-91.66 2581.38,-87.98 2581.26,-94.98"/>
</g>
<!-- Node12&#45;&gt;Node14 -->
<g id="edge15" class="edge">
<title>Node12&#45;&gt;Node14</title>
<path fill="none" stroke="midnightblue" d="M2581.27,-91.38C2271.41,-85.33 816.08,-56.26 722,-42 712.88,-40.62 703.28,-38.43 694.18,-36"/>
<polygon fill="midnightblue" stroke="midnightblue" points="2581.31,-94.88 2591.38,-91.58 2581.45,-87.89 2581.31,-94.88"/>
</g>
<!-- Node12&#45;&gt;Node15 -->
<g id="edge16" class="edge">
<title>Node12&#45;&gt;Node15</title>
<path fill="none" stroke="midnightblue" d="M2581.05,-91.57C2296.52,-86.9 1054.08,-65.31 883,-42 879.99,-41.59 876.92,-41.11 873.83,-40.58"/>
<polygon fill="midnightblue" stroke="midnightblue" points="2581.1,-95.07 2591.16,-91.73 2581.22,-88.07 2581.1,-95.07"/>
</g>
<!-- Node12&#45;&gt;Node16 -->
<g id="edge17" class="edge">
<title>Node12&#45;&gt;Node16</title>
<path fill="none" stroke="midnightblue" d="M2581.2,-91.4C2313.02,-86.22 1196.54,-63.51 1042,-42 1038.88,-41.57 1035.71,-41.06 1032.51,-40.49"/>
<polygon fill="midnightblue" stroke="midnightblue" points="2581.42,-94.91 2591.49,-91.6 2581.55,-87.91 2581.42,-94.91"/>
</g>
<!-- Node12&#45;&gt;Node17 -->
<g id="edge18" class="edge">
<title>Node12&#45;&gt;Node17</title>
<path fill="none" stroke="midnightblue" d="M2580.99,-91.39C2326.28,-86.41 1313.39,-65.28 1173,-42 1164.61,-40.61 1155.8,-38.45 1147.45,-36.06"/>
<polygon fill="midnightblue" stroke="midnightblue" points="2581.08,-94.89 2591.15,-91.59 2581.22,-87.9 2581.08,-94.89"/>
</g>
<!-- Node12&#45;&gt;Node18 -->
<g id="edge19" class="edge">
<title>Node12&#45;&gt;Node18</title>
<path fill="none" stroke="midnightblue" d="M2581.23,-92.08C2359.82,-90.2 1565.28,-80.84 1316,-42 1306.9,-40.58 1297.31,-38.41 1288.2,-36.02"/>
<polygon fill="midnightblue" stroke="midnightblue" points="2581.31,-95.58 2591.34,-92.17 2581.37,-88.58 2581.31,-95.58"/>
</g>
<!-- Node19 -->
<g id="node19" class="node">
<title>Node19</title>
<g id="a_node19"><a xlink:href="400-cache-occupancy-size_8cc.html" target="_top" xlink:title=" ">
<polygon fill="none" stroke="black" points="2237,-6 2237,-36 2363,-36 2363,-6 2237,-6"/>
<text text-anchor="start" x="2245" y="-24" font-family="Helvetica,sans-Serif" font-size="10.00">test/cpp/src/400&#45;cache</text>
<text text-anchor="middle" x="2300" y="-13" font-family="Helvetica,sans-Serif" font-size="10.00">&#45;occupancy&#45;size.cc</text>
</a>
</g>
</g>
<!-- Node12&#45;&gt;Node19 -->
<g id="edge20" class="edge">
<title>Node12&#45;&gt;Node19</title>
<path fill="none" stroke="midnightblue" d="M2581.36,-83.04C2527.09,-73.79 2443.65,-58.7 2372,-42 2364.29,-40.2 2356.17,-38.13 2348.27,-36.01"/>
<polygon fill="midnightblue" stroke="midnightblue" points="2581.04,-86.53 2591.48,-84.75 2582.21,-79.63 2581.04,-86.53"/>
</g>
<!-- Node20 -->
<g id="node20" class="node">
<title>Node20</title>
<g id="a_node20"><a xlink:href="401-hit-latency_8cc.html" target="_top" xlink:title=" ">
<polygon fill="none" stroke="black" points="2381,-6 2381,-36 2491,-36 2491,-6 2381,-6"/>
<text text-anchor="start" x="2389" y="-24" font-family="Helvetica,sans-Serif" font-size="10.00">test/cpp/src/401&#45;hit</text>
<text text-anchor="middle" x="2436" y="-13" font-family="Helvetica,sans-Serif" font-size="10.00">&#45;latency.cc</text>
</a>
</g>
</g>
<!-- Node12&#45;&gt;Node20 -->
<g id="edge21" class="edge">
<title>Node12&#45;&gt;Node20</title>
<path fill="none" stroke="midnightblue" d="M2604.62,-80.56C2569.15,-68.24 2513.85,-49.04 2476.33,-36.01"/>
<polygon fill="midnightblue" stroke="midnightblue" points="2603.92,-84.02 2614.51,-84 2606.22,-77.41 2603.92,-84.02"/>
</g>
<!-- Node21 -->
<g id="node21" class="node">
<title>Node21</title>
<g id="a_node21"><a xlink:href="402-miss-latency_8cc.html" target="_top" xlink:title=" ">
<polygon fill="none" stroke="black" points="2509.5,-6 2509.5,-36 2630.5,-36 2630.5,-6 2509.5,-6"/>
<text text-anchor="start" x="2517.5" y="-24" font-family="Helvetica,sans-Serif" font-size="10.00">test/cpp/src/402&#45;miss</text>
<text text-anchor="middle" x="2570" y="-13" font-family="Helvetica,sans-Serif" font-size="10.00">&#45;latency.cc</text>
</a>
</g>
</g>
<!-- Node12&#45;&gt;Node21 -->
<g id="edge22" class="edge">
<title>Node12&#45;&gt;Node21</title>
<path fill="none" stroke="midnightblue" d="M2623.43,-76.59C2611.51,-64.41 2595.23,-47.77 2583.78,-36.08"/>
<polygon fill="midnightblue" stroke="midnightblue" points="2621.04,-79.16 2630.54,-83.86 2626.05,-74.26 2621.04,-79.16"/>
</g>
<!-- Node22 -->
<g id="node22" class="node">
<title>Node22</title>
<g id="a_node22"><a xlink:href="403-read-bandwidth_8cc.html" target="_top" xlink:title=" ">
<polygon fill="none" stroke="black" points="2648.5,-6 2648.5,-36 2767.5,-36 2767.5,-6 2648.5,-6"/>
<text text-anchor="start" x="2656.5" y="-24" font-family="Helvetica,sans-Serif" font-size="10.00">test/cpp/src/403&#45;read</text>
<text text-anchor="middle" x="2708" y="-13" font-family="Helvetica,sans-Serif" font-size="10.00">&#45;bandwidth.cc</text>
</a>
</g>
</g>
<!-- Node12&#45;&gt;Node22 -->
<g id="edge23" class="edge">
<title>Node12&#45;&gt;Node22</title>
<path fill="none" stroke="midnightblue" d="M2654.57,-76.59C2666.49,-64.41 2682.77,-47.77 2694.22,-36.08"/>
<polygon fill="midnightblue" stroke="midnightblue" points="2651.95,-74.26 2647.46,-83.86 2656.96,-79.16 2651.95,-74.26"/>
</g>
<!-- Node23 -->
<g id="node23" class="node">
<title>Node23</title>
<g id="a_node23"><a xlink:href="404-fill-bandwidth_8cc.html" target="_top" xlink:title=" ">
<polygon fill="none" stroke="black" points="2786,-6 2786,-36 2896,-36 2896,-6 2786,-6"/>
<text text-anchor="start" x="2794" y="-24" font-family="Helvetica,sans-Serif" font-size="10.00">test/cpp/src/404&#45;fill</text>
<text text-anchor="middle" x="2841" y="-13" font-family="Helvetica,sans-Serif" font-size="10.00">&#45;bandwidth.cc</text>
</a>
</g>
</g>
<!-- Node12&#45;&gt;Node23 -->
<g id="edge24" class="edge">
<title>Node12&#45;&gt;Node23</title>
<path fill="none" stroke="midnightblue" d="M2673.21,-80.56C2708.51,-68.24 2763.54,-49.04 2800.87,-36.01"/>
<polygon fill="midnightblue" stroke="midnightblue" points="2671.65,-77.4 2663.37,-84 2673.96,-84.01 2671.65,-77.4"/>
</g>
<!-- Node24 -->
<g id="node24" class="node">
<title>Node24</title>
<g id="a_node24"><a xlink:href="405-fill-eviction_8cc.html" target="_top" xlink:title=" ">
<polygon fill="none" stroke="black" points="2914,-6 2914,-36 3024,-36 3024,-6 2914,-6"/>
<text text-anchor="start" x="2922" y="-24" font-family="Helvetica,sans-Serif" font-size="10.00">test/cpp/src/405&#45;fill</text>
<text text-anchor="middle" x="2969" y="-13" font-family="Helvetica,sans-Serif" font-size="10.00">&#45;eviction.cc</text>
</a>
</g>
</g>
<!-- Node12&#45;&gt;Node24 -->
<g id="edge25" class="edge">
<title>Node12&#45;&gt;Node24</title>
<path fill="none" stroke="midnightblue" d="M2697.04,-83.46C2751.21,-74.56 2834.1,-59.74 2905,-42 2912,-40.25 2919.37,-38.17 2926.51,-36.03"/>
<polygon fill="midnightblue" stroke="midnightblue" points="2696.24,-80.05 2686.93,-85.11 2697.36,-86.96 2696.24,-80.05"/>
</g>
<!-- Node25 -->
<g id="node25" class="node">
<title>Node25</title>
<g id="a_node25"><a xlink:href="406-mshr-merge_8cc.html" target="_top" xlink:title=" ">
<polygon fill="none" stroke="black" points="3042,-6 3042,-36 3164,-36 3164,-6 3042,-6"/>
<text text-anchor="start" x="3050" y="-24" font-family="Helvetica,sans-Serif" font-size="10.00">test/cpp/src/406&#45;mshr</text>
<text text-anchor="middle" x="3103" y="-13" font-family="Helvetica,sans-Serif" font-size="10.00">&#45;merge.cc</text>
</a>
</g>
</g>
<!-- Node12&#45;&gt;Node25 -->
<g id="edge26" class="edge">
<title>Node12&#45;&gt;Node25</title>
<path fill="none" stroke="midnightblue" d="M2696.69,-87.85C2773.86,-81.01 2914.7,-66.34 3033,-42 3041.05,-40.34 3049.52,-38.24 3057.68,-36.02"/>
<polygon fill="midnightblue" stroke="midnightblue" points="2696.34,-84.37 2686.69,-88.73 2696.95,-91.34 2696.34,-84.37"/>
</g>
<!-- Node26 -->
<g id="node26" class="node">
<title>Node26</title>
<g id="a_node26"><a xlink:href="411-queue-translation-hit_8cc.html" target="_top" xlink:title=" ">
<polygon fill="none" stroke="black" points="3182,-6 3182,-36 3310,-36 3310,-6 3182,-6"/>
<text text-anchor="start" x="3190" y="-24" font-family="Helvetica,sans-Serif" font-size="10.00">test/cpp/src/411&#45;queue</text>
<text text-anchor="middle" x="3246" y="-13" font-family="Helvetica,sans-Serif" font-size="10.00">&#45;translation&#45;hit.cc</text>
</a>
</g>
</g>
<!-- Node12&#45;&gt;Node26 -->
<g id="edge27" class="edge">
<title>Node12&#45;&gt;Node26</title>
<path fill="none" stroke="midnightblue" d="M2696.55,-90.32C2794.91,-85.88 3001.36,-73.38 3173,-42 3181.66,-40.42 3190.79,-38.29 3199.55,-36.02"/>
<polygon fill="midnightblue" stroke="midnightblue" points="2696.36,-86.83 2686.52,-90.77 2696.67,-93.82 2696.36,-86.83"/>
</g>
<!-- Node27 -->
<g id="node27" class="node">
<title>Node27</title>
<g id="a_node27"><a xlink:href="412-queue-translation-miss_8cc.html" target="_top" xlink:title=" ">
<polygon fill="none" stroke="black" points="3328,-6 3328,-36 3456,-36 3456,-6 3328,-6"/>
<text text-anchor="start" x="3336" y="-24" font-family="Helvetica,sans-Serif" font-size="10.00">test/cpp/src/412&#45;queue</text>
<text text-anchor="middle" x="3392" y="-13" font-family="Helvetica,sans-Serif" font-size="10.00">&#45;translation&#45;miss.cc</text>
</a>
</g>
</g>
<!-- Node12&#45;&gt;Node27 -->
<g id="edge28" class="edge">
<title>Node12&#45;&gt;Node27</title>
<path fill="none" stroke="midnightblue" d="M2697.04,-91.96C2815.04,-90.03 3091.1,-81.3 3319,-42 3327.81,-40.48 3337.08,-38.36 3345.96,-36.06"/>
<polygon fill="midnightblue" stroke="midnightblue" points="2696.73,-88.46 2686.79,-92.11 2696.84,-95.46 2696.73,-88.46"/>
</g>
<!-- Node28 -->
<g id="node28" class="node">
<title>Node28</title>
<g id="a_node28"><a xlink:href="413-hit-under-miss_8cc.html" target="_top" xlink:title=" ">
<polygon fill="none" stroke="black" points="3474,-6 3474,-36 3584,-36 3584,-6 3474,-6"/>
<text text-anchor="start" x="3482" y="-24" font-family="Helvetica,sans-Serif" font-size="10.00">test/cpp/src/413&#45;hit</text>
<text text-anchor="middle" x="3529" y="-13" font-family="Helvetica,sans-Serif" font-size="10.00">&#45;under&#45;miss.cc</text>
</a>
</g>
</g>
<!-- Node12&#45;&gt;Node28 -->
<g id="edge29" class="edge">
<title>Node12&#45;&gt;Node28</title>
<path fill="none" stroke="midnightblue" d="M2697,-90.78C2859.55,-85.66 3317.23,-69.19 3465,-42 3472.9,-40.55 3481.19,-38.42 3489.09,-36.1"/>
<polygon fill="midnightblue" stroke="midnightblue" points="2696.62,-87.29 2686.73,-91.1 2696.83,-94.28 2696.62,-87.29"/>
</g>
<!-- Node29 -->
<g id="node29" class="node">
<title>Node29</title>
<g id="a_node29"><a xlink:href="414-tag-check-bound_8cc.html" target="_top" xlink:title=" ">
<polygon fill="none" stroke="black" points="3602.5,-6 3602.5,-36 3715.5,-36 3715.5,-6 3602.5,-6"/>
<text text-anchor="start" x="3610.5" y="-24" font-family="Helvetica,sans-Serif" font-size="10.00">test/cpp/src/414&#45;tag</text>
<text text-anchor="middle" x="3659" y="-13" font-family="Helvetica,sans-Serif" font-size="10.00">&#45;check&#45;bound.cc</text>
</a>
</g>
</g>
<!-- Node12&#45;&gt;Node29 -->
<g id="edge30" class="edge">
<title>Node12&#45;&gt;Node29</title>
<path fill="none" stroke="midnightblue" d="M2696.89,-91.27C2875.97,-87.16 3419.31,-72.45 3593,-42 3601.26,-40.55 3609.93,-38.4 3618.18,-36.04"/>
<polygon fill="midnightblue" stroke="midnightblue" points="2696.54,-87.77 2686.63,-91.5 2696.7,-94.77 2696.54,-87.77"/>
</g>
<!-- Node30 -->
<g id="node30" class="node">
<title>Node30</title>
<g id="a_node30"><a xlink:href="420-issue-prefetch_8cc.html" target="_top" xlink:title=" ">
<polygon fill="none" stroke="black" points="3733.5,-6 3733.5,-36 3856.5,-36 3856.5,-6 3733.5,-6"/>
<text text-anchor="start" x="3741.5" y="-24" font-family="Helvetica,sans-Serif" font-size="10.00">test/cpp/src/420&#45;issue</text>
<text text-anchor="middle" x="3795" y="-13" font-family="Helvetica,sans-Serif" font-size="10.00">&#45;prefetch.cc</text>
</a>
</g>
</g>
<!-- Node12&#45;&gt;Node30 -->
<g id="edge31" class="edge">
<title>Node12&#45;&gt;Node30</title>
<path fill="none" stroke="midnightblue" d="M2696.82,-91.58C2891.82,-88.19 3524.28,-74.88 3725,-42 3733.73,-40.57 3742.92,-38.43 3751.67,-36.07"/>
<polygon fill="midnightblue" stroke="midnightblue" points="2696.72,-88.08 2686.78,-91.75 2696.84,-95.08 2696.72,-88.08"/>
</g>
<!-- Node31 -->
<g id="node31" class="node">
<title>Node31</title>
<g id="a_node31"><a xlink:href="421-prefetch-fill-level_8cc.html" target="_top" xlink:title=" ">
<polygon fill="none" stroke="black" points="3875,-6 3875,-36 4013,-36 4013,-6 3875,-6"/>
<text text-anchor="start" x="3883" y="-24" font-family="Helvetica,sans-Serif" font-size="10.00">test/cpp/src/421&#45;prefetch</text>
<text text-anchor="middle" x="3944" y="-13" font-family="Helvetica,sans-Serif" font-size="10.00">&#45;fill&#45;level.cc</text>
</a>
</g>
</g>
<!-- Node12&#45;&gt;Node31 -->
<g id="edge32" class="edge">
<title>Node12&#45;&gt;Node31</title>
<path fill="none" stroke="midnightblue" d="M2697.04,-91.73C2908.34,-88.66 3636.14,-75.82 3866,-42 3875.68,-40.58 3885.9,-38.43 3895.64,-36.08"/>
<polygon fill="midnightblue" stroke="midnightblue" points="2696.73,-88.23 2686.79,-91.87 2696.83,-95.23 2696.73,-88.23"/>
</g>
<!-- Node32 -->
<g id="node32" class="node">
<title>Node32</title>
<g id="a_node32"><a xlink:href="422-prefetch-hit_8cc.html" target="_top" xlink:title=" ">
<polygon fill="none" stroke="black" points="4031,-6 4031,-36 4169,-36 4169,-6 4031,-6"/>
<text text-anchor="start" x="4039" y="-24" font-family="Helvetica,sans-Serif" font-size="10.00">test/cpp/src/422&#45;prefetch</text>
<text text-anchor="middle" x="4100" y="-13" font-family="Helvetica,sans-Serif" font-size="10.00">&#45;hit.cc</text>
</a>
</g>
</g>
<!-- Node12&#45;&gt;Node32 -->
<g id="edge33" class="edge">
<title>Node12&#45;&gt;Node32</title>
<path fill="none" stroke="midnightblue" d="M2696.71,-92.04C2924.3,-89.98 3760,-79.92 4022,-42 4031.82,-40.58 4042.2,-38.41 4052.06,-36.01"/>
<polygon fill="midnightblue" stroke="midnightblue" points="2696.62,-88.54 2686.65,-92.13 2696.68,-95.54 2696.62,-88.54"/>
</g>
<!-- Node33 -->
<g id="node33" class="node">
<title>Node33</title>
<g id="a_node33"><a xlink:href="423-prefetcher-activate_8cc.html" target="_top" xlink:title=" ">
<polygon fill="none" stroke="black" points="1456,-6 1456,-36 1604,-36 1604,-6 1456,-6"/>
<text text-anchor="start" x="1464" y="-24" font-family="Helvetica,sans-Serif" font-size="10.00">test/cpp/src/423&#45;prefetcher</text>
<text text-anchor="middle" x="1530" y="-13" font-family="Helvetica,sans-Serif" font-size="10.00">&#45;activate.cc</text>
</a>
</g>
</g>
<!-- Node12&#45;&gt;Node33 -->
<g id="edge34" class="edge">
<title>Node12&#45;&gt;Node33</title>
<path fill="none" stroke="midnightblue" d="M2581.05,-91.05C2393.29,-86.14 1802.91,-68.91 1614,-42 1603.76,-40.54 1592.94,-38.42 1582.59,-36.09"/>
<polygon fill="midnightblue" stroke="midnightblue" points="2581.18,-94.56 2591.26,-91.32 2581.36,-87.56 2581.18,-94.56"/>
</g>
<!-- Node34 -->
<g id="node34" class="node">
<title>Node34</title>
<g id="a_node34"><a xlink:href="424-duplicate-prefetch_8cc.html" target="_top" xlink:title=" ">
<polygon fill="none" stroke="black" points="1622.5,-6 1622.5,-36 1765.5,-36 1765.5,-6 1622.5,-6"/>
<text text-anchor="start" x="1630.5" y="-24" font-family="Helvetica,sans-Serif" font-size="10.00">test/cpp/src/424&#45;duplicate</text>
<text text-anchor="middle" x="1694" y="-13" font-family="Helvetica,sans-Serif" font-size="10.00">&#45;prefetch.cc</text>
</a>
</g>
</g>
<!-- Node12&#45;&gt;Node34 -->
<g id="edge35" class="edge">
<title>Node12&#45;&gt;Node34</title>
<path fill="none" stroke="midnightblue" d="M2581.35,-92.77C2441.99,-92.64 2076.11,-87.58 1775,-42 1765.12,-40.5 1754.68,-38.36 1744.7,-36.03"/>
<polygon fill="midnightblue" stroke="midnightblue" points="2581.38,-96.27 2591.38,-92.77 2581.39,-89.27 2581.38,-96.27"/>
</g>
<!-- Node35 -->
<g id="node35" class="node">
<title>Node35</title>
<g id="a_node35"><a xlink:href="425-useless-prefetch_8cc.html" target="_top" xlink:title=" ">
<polygon fill="none" stroke="black" points="1784,-6 1784,-36 1918,-36 1918,-6 1784,-6"/>
<text text-anchor="start" x="1792" y="-24" font-family="Helvetica,sans-Serif" font-size="10.00">test/cpp/src/425&#45;useless</text>
<text text-anchor="middle" x="1851" y="-13" font-family="Helvetica,sans-Serif" font-size="10.00">&#45;prefetch.cc</text>
</a>
</g>
</g>
<!-- Node12&#45;&gt;Node35 -->
<g id="edge36" class="edge">
<title>Node12&#45;&gt;Node35</title>
<path fill="none" stroke="midnightblue" d="M2581.01,-91.97C2459.23,-90.07 2168.29,-81.4 1928,-42 1918.73,-40.48 1908.95,-38.36 1899.59,-36.06"/>
<polygon fill="midnightblue" stroke="midnightblue" points="2581.17,-95.47 2591.22,-92.12 2581.27,-88.47 2581.17,-95.47"/>
</g>
<!-- Node36 -->
<g id="node36" class="node">
<title>Node36</title>
<g id="a_node36"><a xlink:href="426-internal-pq-size_8cc.html" target="_top" xlink:title=" ">
<polygon fill="none" stroke="black" points="1936.5,-6 1936.5,-36 2071.5,-36 2071.5,-6 1936.5,-6"/>
<text text-anchor="start" x="1944.5" y="-24" font-family="Helvetica,sans-Serif" font-size="10.00">test/cpp/src/426&#45;internal</text>
<text text-anchor="middle" x="2004" y="-13" font-family="Helvetica,sans-Serif" font-size="10.00">&#45;pq&#45;size.cc</text>
</a>
</g>
</g>
<!-- Node12&#45;&gt;Node36 -->
<g id="edge37" class="edge">
<title>Node12&#45;&gt;Node36</title>
<path fill="none" stroke="midnightblue" d="M2581.19,-90.39C2479.41,-85.98 2261.9,-73.46 2081,-42 2071.88,-40.41 2062.26,-38.29 2053.03,-36.01"/>
<polygon fill="midnightblue" stroke="midnightblue" points="2581.12,-93.89 2591.26,-90.82 2581.41,-86.9 2581.12,-93.89"/>
</g>
<!-- Node37 -->
<g id="node37" class="node">
<title>Node37</title>
<g id="a_node37"><a xlink:href="431-merge-prefetch_8cc.html" target="_top" xlink:title=" ">
<polygon fill="none" stroke="black" points="2089.5,-6 2089.5,-36 2218.5,-36 2218.5,-6 2089.5,-6"/>
<text text-anchor="start" x="2097.5" y="-24" font-family="Helvetica,sans-Serif" font-size="10.00">test/cpp/src/431&#45;merge</text>
<text text-anchor="middle" x="2154" y="-13" font-family="Helvetica,sans-Serif" font-size="10.00">&#45;prefetch.cc</text>
</a>
</g>
</g>
<!-- Node12&#45;&gt;Node37 -->
<g id="edge38" class="edge">
<title>Node12&#45;&gt;Node37</title>
<path fill="none" stroke="midnightblue" d="M2580.83,-87.97C2500.83,-81.14 2352.58,-66.36 2228,-42 2219.51,-40.34 2210.56,-38.23 2201.93,-36.01"/>
<polygon fill="midnightblue" stroke="midnightblue" points="2580.93,-91.49 2591.19,-88.84 2581.52,-84.51 2580.93,-91.49"/>
</g>
<!-- Node44 -->
<g id="node38" class="node">
<title>Node44</title>
<g id="a_node38"><a xlink:href="600-ptw-path_8cc.html" target="_top" xlink:title=" ">
<polygon fill="none" stroke="black" points="4463,-6 4463,-36 4579,-36 4579,-6 4463,-6"/>
<text text-anchor="start" x="4471" y="-24" font-family="Helvetica,sans-Serif" font-size="10.00">test/cpp/src/600&#45;ptw</text>
<text text-anchor="middle" x="4521" y="-13" font-family="Helvetica,sans-Serif" font-size="10.00">&#45;path.cc</text>
</a>
</g>
</g>
<!-- Node12&#45;&gt;Node44 -->
<g id="edge39" class="edge">
<title>Node12&#45;&gt;Node44</title>
<path fill="none" stroke="midnightblue" d="M2697.01,-91.79C2987.52,-88.11 4277.41,-70.31 4454,-42 4462.51,-40.64 4471.45,-38.49 4479.93,-36.1"/>
<polygon fill="midnightblue" stroke="midnightblue" points="2696.65,-88.29 2686.7,-91.92 2696.74,-95.29 2696.65,-88.29"/>
</g>
<!-- Node45 -->
<g id="node39" class="node">
<title>Node45</title>
<g id="a_node39"><a xlink:href="601-multiple-inflight-walks_8cc.html" target="_top" xlink:title=" ">
<polygon fill="none" stroke="black" points="4597,-6 4597,-36 4735,-36 4735,-6 4597,-6"/>
<text text-anchor="start" x="4605" y="-24" font-family="Helvetica,sans-Serif" font-size="10.00">test/cpp/src/601&#45;multiple</text>
<text text-anchor="middle" x="4666" y="-13" font-family="Helvetica,sans-Serif" font-size="10.00">&#45;inflight&#45;walks.cc</text>
</a>
</g>
</g>
<!-- Node12&#45;&gt;Node45 -->
<g id="edge40" class="edge">
<title>Node12&#45;&gt;Node45</title>
<path fill="none" stroke="midnightblue" d="M2697.07,-92.76C2979.24,-93.73 4209.02,-94.81 4588,-42 4597.83,-40.63 4608.21,-38.48 4618.07,-36.09"/>
<polygon fill="midnightblue" stroke="midnightblue" points="2696.67,-89.25 2686.66,-92.72 2696.64,-96.25 2696.67,-89.25"/>
</g>
<!-- Node46 -->
<g id="node40" class="node">
<title>Node46</title>
<g id="a_node40"><a xlink:href="602-walk-latency_8cc.html" target="_top" xlink:title=" ">
<polygon fill="none" stroke="black" points="4187.5,-6 4187.5,-36 4308.5,-36 4308.5,-6 4187.5,-6"/>
<text text-anchor="start" x="4195.5" y="-24" font-family="Helvetica,sans-Serif" font-size="10.00">test/cpp/src/602&#45;walk</text>
<text text-anchor="middle" x="4248" y="-13" font-family="Helvetica,sans-Serif" font-size="10.00">&#45;latency.cc</text>
</a>
</g>
</g>
<!-- Node12&#45;&gt;Node46 -->
<g id="edge41" class="edge">
<title>Node12&#45;&gt;Node46</title>
<path fill="none" stroke="midnightblue" d="M2696.7,-92.5C2940.18,-92.2 3884.44,-88.04 4178,-42 4186.87,-40.61 4196.2,-38.45 4205.06,-36.06"/>
<polygon fill="midnightblue" stroke="midnightblue" points="2696.65,-89 2686.65,-92.51 2696.65,-96 2696.65,-89"/>
</g>
<!-- Node47 -->
<g id="node41" class="node">
<title>Node47</title>
<g id="a_node41"><a xlink:href="603-pte-page-correctness_8cc.html" target="_top" xlink:title=" ">
<polygon fill="none" stroke="black" points="4327,-6 4327,-36 4445,-36 4445,-6 4327,-6"/>
<text text-anchor="start" x="4335" y="-24" font-family="Helvetica,sans-Serif" font-size="10.00">test/cpp/src/603&#45;pte</text>
<text text-anchor="middle" x="4386" y="-13" font-family="Helvetica,sans-Serif" font-size="10.00">&#45;page&#45;correctness.cc</text>
</a>
</g>
</g>
<!-- Node12&#45;&gt;Node47 -->
<g id="edge42" class="edge">
<title>Node12&#45;&gt;Node47</title>
<path fill="none" stroke="midnightblue" d="M2696.8,-92.74C2953.99,-93.52 3995.78,-93.36 4318,-42 4326.63,-40.62 4335.7,-38.47 4344.31,-36.08"/>
<polygon fill="midnightblue" stroke="midnightblue" points="2696.58,-89.24 2686.57,-92.71 2696.55,-96.24 2696.58,-89.24"/>
</g>
<!-- Node12&#45;&gt;Node48 -->
<g id="edge43" class="edge">
<title>Node12&#45;&gt;Node48</title>
<path fill="none" stroke="midnightblue" d="M2581.17,-91.98C2373.93,-89.8 1669.02,-79.72 1447,-42 1438.62,-40.58 1429.81,-38.4 1421.46,-36.01"/>
<polygon fill="midnightblue" stroke="midnightblue" points="2581.2,-95.48 2591.23,-92.08 2581.27,-88.48 2581.2,-95.48"/>
</g>
<!-- Node49&#45;&gt;Node50 -->
<g id="edge45" class="edge">
<title>Node49&#45;&gt;Node50</title>
<path fill="none" stroke="midnightblue" d="M1671.1,-82.51C1658.22,-80.73 1644.69,-79.09 1632,-78 1339.19,-52.87 599.16,-94.51 310,-42 297,-39.64 282.99,-34.87 271.99,-30.59"/>
<polygon fill="midnightblue" stroke="midnightblue" points="1670.86,-86.02 1681.26,-83.97 1671.86,-79.09 1670.86,-86.02"/>
</g>
<!-- Node51&#45;&gt;Node50 -->
<g id="edge48" class="edge">
<title>Node51&#45;&gt;Node50</title>
<path fill="none" stroke="midnightblue" d="M284.38,-75.09C275.79,-61 264.04,-41.74 257.32,-30.72"/>
<polygon fill="midnightblue" stroke="midnightblue" points="281.53,-77.14 289.73,-83.86 287.51,-73.5 281.53,-77.14"/>
</g>
<!-- Node51&#45;&gt;Node52 -->
<g id="edge47" class="edge">
<title>Node51&#45;&gt;Node52</title>
<path fill="none" stroke="midnightblue" d="M312.04,-76.69C327.35,-62.49 349.26,-42.17 361.6,-30.72"/>
<polygon fill="midnightblue" stroke="midnightblue" points="309.27,-74.49 304.32,-83.86 314.03,-79.62 309.27,-74.49"/>
</g>
<!-- Node57&#45;&gt;Node12 -->
<g id="edge60" class="edge">
<title>Node57&#45;&gt;Node12</title>
<path fill="none" stroke="midnightblue" d="M4226.37,-157.88C4003.12,-148.96 2926.89,-105.99 2686.63,-96.4"/>
<polygon fill="midnightblue" stroke="midnightblue" points="4226.51,-161.39 4236.65,-158.29 4226.79,-154.39 4226.51,-161.39"/>
</g>
<!-- Node57&#45;&gt;Node44 -->
<g id="edge63" class="edge">
<title>Node57&#45;&gt;Node44</title>
<path fill="none" stroke="midnightblue" d="M4298.42,-147.28C4328.86,-135.31 4372.74,-117.62 4389,-109 4431.19,-86.63 4477.01,-54.47 4502.03,-36.17"/>
<polygon fill="midnightblue" stroke="midnightblue" points="4297.09,-144.05 4289.06,-150.95 4299.64,-150.56 4297.09,-144.05"/>
</g>
<!-- Node57&#45;&gt;Node45 -->
<g id="edge64" class="edge">
<title>Node57&#45;&gt;Node45</title>
<path fill="none" stroke="midnightblue" d="M4298.65,-147.52C4301.13,-146.65 4303.6,-145.8 4306,-145 4360.06,-127.06 4374.9,-126.82 4429,-109 4501.02,-85.27 4583.93,-53.88 4630.13,-36.02"/>
<polygon fill="midnightblue" stroke="midnightblue" points="4297.39,-144.25 4289.18,-150.94 4299.77,-150.83 4297.39,-144.25"/>
</g>
<!-- Node57&#45;&gt;Node46 -->
<g id="edge65" class="edge">
<title>Node57&#45;&gt;Node46</title>
<path fill="none" stroke="midnightblue" d="M4264.43,-140.89C4260.58,-113.03 4253.4,-61.1 4249.95,-36.12"/>
<polygon fill="midnightblue" stroke="midnightblue" points="4260.98,-141.47 4265.81,-150.9 4267.91,-140.51 4260.98,-141.47"/>
</g>
<!-- Node57&#45;&gt;Node47 -->
<g id="edge66" class="edge">
<title>Node57&#45;&gt;Node47</title>
<path fill="none" stroke="midnightblue" d="M4272.7,-141.18C4278.85,-123.58 4289.96,-96.93 4306,-78 4320.8,-60.54 4342.24,-45.92 4359.2,-36"/>
<polygon fill="midnightblue" stroke="midnightblue" points="4269.33,-140.23 4269.52,-150.83 4275.98,-142.43 4269.33,-140.23"/>
</g>
<!-- Node57&#45;&gt;Node49 -->
<g id="edge61" class="edge">
<title>Node57&#45;&gt;Node49</title>
<path fill="none" stroke="midnightblue" d="M4226.54,-158.46C3931.88,-150.91 2117.95,-104.4 1784.61,-95.85"/>
<polygon fill="midnightblue" stroke="midnightblue" points="4226.68,-161.97 4236.76,-158.72 4226.86,-154.97 4226.68,-161.97"/>
</g>
<!-- Node58 -->
<g id="node49" class="node">
<title>Node58</title>
<g id="a_node49"><a xlink:href="ptw_8cc.html" target="_top" xlink:title=" ">
<polygon fill="none" stroke="black" points="4314.5,-84 4314.5,-103 4379.5,-103 4379.5,-84 4314.5,-84"/>
<text text-anchor="middle" x="4347" y="-91" font-family="Helvetica,sans-Serif" font-size="10.00">src/ptw.cc</text>
</a>
</g>
</g>
<!-- Node57&#45;&gt;Node58 -->
<g id="edge62" class="edge">
<title>Node57&#45;&gt;Node58</title>
<path fill="none" stroke="midnightblue" d="M4285.81,-144.21C4301.58,-131.41 4323.51,-113.59 4336.38,-103.13"/>
<polygon fill="midnightblue" stroke="midnightblue" points="4283.34,-141.71 4277.79,-150.73 4287.76,-147.14 4283.34,-141.71"/>
</g>
</g>
</svg>
