<?xml version="1.0" encoding="UTF-8" standalone="no"?>
<!DOCTYPE svg PUBLIC "-//W3C//DTD SVG 1.1//EN"
 "http://www.w3.org/Graphics/SVG/1.1/DTD/svg11.dtd">
<!-- Generated by graphviz version 2.43.0 (0)
 -->
<!-- Title: prefetcher/va_ampm_lite/va_ampm_lite.cc Pages: 1 -->
<svg width="1300pt" height="207pt"
 viewBox="0.00 0.00 1299.53 207.00" xmlns="http://www.w3.org/2000/svg" xmlns:xlink="http://www.w3.org/1999/xlink">
<g id="graph0" class="graph" transform="scale(1 1) rotate(0) translate(4 203)">
<title>prefetcher/va_ampm_lite/va_ampm_lite.cc</title>
<!-- Node1 -->
<g id="node1" class="node">
<title>Node1</title>
<g id="a_node1"><a xlink:title=" ">
<polygon fill="#bfbfbf" stroke="black" points="258.03,-168.5 258.03,-198.5 382.03,-198.5 382.03,-168.5 258.03,-168.5"/>
<text text-anchor="start" x="266.03" y="-186.5" font-family="Helvetica,sans-Serif" font-size="10.00">prefetcher/va_ampm</text>
<text text-anchor="middle" x="320.03" y="-175.5" font-family="Helvetica,sans-Serif" font-size="10.00">_lite/va_ampm_lite.cc</text>
</a>
</g>
</g>
<!-- Node2 -->
<g id="node2" class="node">
<title>Node2</title>
<g id="a_node2"><a xlink:title=" ">
<polygon fill="none" stroke="#bfbfbf" points="13.03,-56.5 13.03,-75.5 57.03,-75.5 57.03,-56.5 13.03,-56.5"/>
<text text-anchor="middle" x="35.03" y="-63.5" font-family="Helvetica,sans-Serif" font-size="10.00">bitset</text>
</a>
</g>
</g>
<!-- Node1&#45;&gt;Node2 -->
<g id="edge1" class="edge">
<title>Node1&#45;&gt;Node2</title>
<path fill="none" stroke="midnightblue" d="M285.37,-168.45C229.09,-145.64 118.76,-100.93 65.39,-79.3"/>
<polygon fill="midnightblue" stroke="midnightblue" points="66.69,-76.05 56.11,-75.54 64.06,-82.54 66.69,-76.05"/>
</g>
<!-- Node3 -->
<g id="node3" class="node">
<title>Node3</title>
<g id="a_node3"><a xlink:title=" ">
<polygon fill="none" stroke="#bfbfbf" points="460.03,-112.5 460.03,-131.5 498.03,-131.5 498.03,-112.5 460.03,-112.5"/>
<text text-anchor="middle" x="479.03" y="-119.5" font-family="Helvetica,sans-Serif" font-size="10.00">map</text>
</a>
</g>
</g>
<!-- Node1&#45;&gt;Node3 -->
<g id="edge2" class="edge">
<title>Node1&#45;&gt;Node3</title>
<path fill="none" stroke="midnightblue" d="M357.71,-168.4C386.09,-157.78 424.4,-143.44 450.32,-133.74"/>
<polygon fill="midnightblue" stroke="midnightblue" points="451.79,-136.93 459.93,-130.15 449.34,-130.37 451.79,-136.93"/>
</g>
<!-- Node4 -->
<g id="node4" class="node">
<title>Node4</title>
<g id="a_node4"><a xlink:title=" ">
<polygon fill="none" stroke="#bfbfbf" points="25.53,-0.5 25.53,-19.5 72.53,-19.5 72.53,-0.5 25.53,-0.5"/>
<text text-anchor="middle" x="49.03" y="-7.5" font-family="Helvetica,sans-Serif" font-size="10.00">vector</text>
</a>
</g>
</g>
<!-- Node1&#45;&gt;Node4 -->
<g id="edge3" class="edge">
<title>Node1&#45;&gt;Node4</title>
<path fill="none" stroke="midnightblue" d="M257.79,-182.13C182.86,-177.89 60.09,-157.95 4.03,-76 -7.78,-58.73 10.43,-38.98 27.09,-25.83"/>
<polygon fill="midnightblue" stroke="midnightblue" points="29.55,-28.37 35.5,-19.6 25.38,-22.74 29.55,-28.37"/>
</g>
<!-- Node5 -->
<g id="node5" class="node">
<title>Node5</title>
<g id="a_node5"><a xlink:href="cache_8h.html" target="_top" xlink:title=" ">
<polygon fill="none" stroke="black" points="388.03,-112.5 388.03,-131.5 442.03,-131.5 442.03,-112.5 388.03,-112.5"/>
<text text-anchor="middle" x="415.03" y="-119.5" font-family="Helvetica,sans-Serif" font-size="10.00">cache.h</text>
</a>
</g>
</g>
<!-- Node1&#45;&gt;Node5 -->
<g id="edge4" class="edge">
<title>Node1&#45;&gt;Node5</title>
<path fill="none" stroke="midnightblue" d="M342.54,-168.4C357.63,-158.95 377.41,-146.56 392.5,-137.11"/>
<polygon fill="midnightblue" stroke="midnightblue" points="394.59,-139.93 401.21,-131.66 390.87,-134 394.59,-139.93"/>
</g>
<!-- Node5&#45;&gt;Node2 -->
<g id="edge6" class="edge">
<title>Node5&#45;&gt;Node2</title>
<path fill="none" stroke="midnightblue" d="M387.66,-118.5C329.19,-112.92 187.9,-98.18 71.03,-76 69.78,-75.76 68.52,-75.51 67.24,-75.24"/>
<polygon fill="midnightblue" stroke="midnightblue" points="67.94,-71.81 57.41,-73.02 66.39,-78.64 67.94,-71.81"/>
</g>
<!-- Node5&#45;&gt;Node4 -->
<g id="edge11" class="edge">
<title>Node5&#45;&gt;Node4</title>
<path fill="none" stroke="midnightblue" d="M387.81,-121.77C334.39,-122.23 213.19,-118.1 123.03,-76 98.71,-64.65 76.4,-42.79 62.77,-27.57"/>
<polygon fill="midnightblue" stroke="midnightblue" points="65.33,-25.17 56.14,-19.9 60.04,-29.75 65.33,-25.17"/>
</g>
<!-- Node6 -->
<g id="node6" class="node">
<title>Node6</title>
<g id="a_node6"><a xlink:title=" ">
<polygon fill="none" stroke="#bfbfbf" points="561.03,-0.5 561.03,-19.5 603.03,-19.5 603.03,-0.5 561.03,-0.5"/>
<text text-anchor="middle" x="582.03" y="-7.5" font-family="Helvetica,sans-Serif" font-size="10.00">array</text>
</a>
</g>
</g>
<!-- Node5&#45;&gt;Node6 -->
<g id="edge5" class="edge">
<title>Node5&#45;&gt;Node6</title>
<path fill="none" stroke="midnightblue" d="M442.04,-113.65C445.06,-113.01 448.1,-112.44 451.03,-112 529.71,-100.3 1111.22,-133.64 1166.03,-76 1172.16,-69.56 1172.07,-62.52 1166.03,-56 1128.3,-15.25 729.71,-11.28 613.6,-10.99"/>
<polygon fill="midnightblue" stroke="midnightblue" points="613.27,-7.49 603.26,-10.97 613.26,-14.49 613.27,-7.49"/>
</g>
<!-- Node7 -->
<g id="node7" class="node">
<title>Node7</title>
<g id="a_node7"><a xlink:title=" ">
<polygon fill="none" stroke="#bfbfbf" points="90.53,-0.5 90.53,-19.5 137.53,-19.5 137.53,-0.5 90.53,-0.5"/>
<text text-anchor="middle" x="114.03" y="-7.5" font-family="Helvetica,sans-Serif" font-size="10.00">deque</text>
</a>
</g>
</g>
<!-- Node5&#45;&gt;Node7 -->
<g id="edge7" class="edge">
<title>Node5&#45;&gt;Node7</title>
<path fill="none" stroke="midnightblue" d="M387.91,-119.78C326.67,-116.52 180.06,-105.74 142.03,-76 127.68,-64.78 120.56,-44.76 117.11,-29.9"/>
<polygon fill="midnightblue" stroke="midnightblue" points="120.48,-28.91 115.13,-19.76 113.61,-30.25 120.48,-28.91"/>
</g>
<!-- Node8 -->
<g id="node8" class="node">
<title>Node8</title>
<g id="a_node8"><a xlink:title=" ">
<polygon fill="none" stroke="#bfbfbf" points="233.03,-56.5 233.03,-75.5 291.03,-75.5 291.03,-56.5 233.03,-56.5"/>
<text text-anchor="middle" x="262.03" y="-63.5" font-family="Helvetica,sans-Serif" font-size="10.00">memory</text>
</a>
</g>
</g>
<!-- Node5&#45;&gt;Node8 -->
<g id="edge8" class="edge">
<title>Node5&#45;&gt;Node8</title>
<path fill="none" stroke="midnightblue" d="M390.79,-112.44C365.16,-103.4 324.54,-89.06 295.79,-78.92"/>
<polygon fill="midnightblue" stroke="midnightblue" points="296.75,-75.54 286.16,-75.52 294.42,-82.15 296.75,-75.54"/>
</g>
<!-- Node9 -->
<g id="node9" class="node">
<title>Node9</title>
<g id="a_node9"><a xlink:title=" ">
<polygon fill="none" stroke="#bfbfbf" points="309.53,-56.5 309.53,-75.5 374.53,-75.5 374.53,-56.5 309.53,-56.5"/>
<text text-anchor="middle" x="342.03" y="-63.5" font-family="Helvetica,sans-Serif" font-size="10.00">stdexcept</text>
</a>
</g>
</g>
<!-- Node5&#45;&gt;Node9 -->
<g id="edge9" class="edge">
<title>Node5&#45;&gt;Node9</title>
<path fill="none" stroke="midnightblue" d="M403.3,-112.32C392.19,-104.11 375.29,-91.6 362.05,-81.81"/>
<polygon fill="midnightblue" stroke="midnightblue" points="364.09,-78.97 353.97,-75.83 359.93,-84.59 364.09,-78.97"/>
</g>
<!-- Node10 -->
<g id="node10" class="node">
<title>Node10</title>
<g id="a_node10"><a xlink:title=" ">
<polygon fill="none" stroke="#bfbfbf" points="393.03,-56.5 393.03,-75.5 437.03,-75.5 437.03,-56.5 393.03,-56.5"/>
<text text-anchor="middle" x="415.03" y="-63.5" font-family="Helvetica,sans-Serif" font-size="10.00">string</text>
</a>
</g>
</g>
<!-- Node5&#45;&gt;Node10 -->
<g id="edge10" class="edge">
<title>Node5&#45;&gt;Node10</title>
<path fill="none" stroke="midnightblue" d="M415.03,-112.08C415.03,-105.01 415.03,-94.86 415.03,-85.99"/>
<polygon fill="midnightblue" stroke="midnightblue" points="418.53,-85.75 415.03,-75.75 411.53,-85.75 418.53,-85.75"/>
</g>
<!-- Node11 -->
<g id="node11" class="node">
<title>Node11</title>
<g id="a_node11"><a xlink:href="champsim_8h.html" target="_top" xlink:title=" ">
<polygon fill="none" stroke="black" points="1214.53,-56.5 1214.53,-75.5 1291.53,-75.5 1291.53,-56.5 1214.53,-56.5"/>
<text text-anchor="middle" x="1253.03" y="-63.5" font-family="Helvetica,sans-Serif" font-size="10.00">champsim.h</text>
</a>
</g>
</g>
<!-- Node5&#45;&gt;Node11 -->
<g id="edge12" class="edge">
<title>Node5&#45;&gt;Node11</title>
<path fill="none" stroke="midnightblue" d="M442.04,-113.64C445.06,-113 448.1,-112.43 451.03,-112 780.73,-63.35 868.7,-111.96 1200.03,-76 1201.33,-75.86 1202.66,-75.71 1203.99,-75.54"/>
<polygon fill="midnightblue" stroke="midnightblue" points="1204.89,-78.95 1214.32,-74.13 1203.93,-72.02 1204.89,-78.95"/>
</g>
<!-- Node14 -->
<g id="node14" class="node">
<title>Node14</title>
<g id="a_node14"><a xlink:title=" ">
<polygon fill="none" stroke="#bfbfbf" points="455.53,-56.5 455.53,-75.5 584.53,-75.5 584.53,-56.5 455.53,-56.5"/>
<text text-anchor="middle" x="520.03" y="-63.5" font-family="Helvetica,sans-Serif" font-size="10.00">champsim_constants.h</text>
</a>
</g>
</g>
<!-- Node5&#45;&gt;Node14 -->
<g id="edge15" class="edge">
<title>Node5&#45;&gt;Node14</title>
<path fill="none" stroke="midnightblue" d="M431.9,-112.32C448.74,-103.66 474.84,-90.24 494.27,-80.25"/>
<polygon fill="midnightblue" stroke="midnightblue" points="495.91,-83.34 503.2,-75.65 492.71,-77.12 495.91,-83.34"/>
</g>
<!-- Node15 -->
<g id="node15" class="node">
<title>Node15</title>
<g id="a_node15"><a xlink:href="channel_8h.html" target="_top" xlink:title=" ">
<polygon fill="none" stroke="black" points="151.03,-56.5 151.03,-75.5 215.03,-75.5 215.03,-56.5 151.03,-56.5"/>
<text text-anchor="middle" x="183.03" y="-63.5" font-family="Helvetica,sans-Serif" font-size="10.00">channel.h</text>
</a>
</g>
</g>
<!-- Node5&#45;&gt;Node15 -->
<g id="edge16" class="edge">
<title>Node5&#45;&gt;Node15</title>
<path fill="none" stroke="midnightblue" d="M387.96,-114.7C347.87,-105.37 272.37,-87.79 225.05,-76.78"/>
<polygon fill="midnightblue" stroke="midnightblue" points="225.65,-73.33 215.11,-74.47 224.06,-80.14 225.65,-73.33"/>
</g>
<!-- Node19 -->
<g id="node19" class="node">
<title>Node19</title>
<g id="a_node19"><a xlink:href="module__impl_8h.html" target="_top" xlink:title=" ">
<polygon fill="none" stroke="black" points="602.53,-56.5 602.53,-75.5 691.53,-75.5 691.53,-56.5 602.53,-56.5"/>
<text text-anchor="middle" x="647.03" y="-63.5" font-family="Helvetica,sans-Serif" font-size="10.00">module_impl.h</text>
</a>
</g>
</g>
<!-- Node5&#45;&gt;Node19 -->
<g id="edge24" class="edge">
<title>Node5&#45;&gt;Node19</title>
<path fill="none" stroke="midnightblue" d="M442.14,-114.16C445.14,-113.42 448.15,-112.69 451.03,-112 501.31,-99.94 559.02,-86.78 598.73,-77.82"/>
<polygon fill="midnightblue" stroke="midnightblue" points="599.68,-81.19 608.67,-75.58 598.15,-74.36 599.68,-81.19"/>
</g>
<!-- Node20 -->
<g id="node20" class="node">
<title>Node20</title>
<g id="a_node20"><a xlink:href="operable_8h.html" target="_top" xlink:title=" ">
<polygon fill="none" stroke="black" points="710.03,-56.5 710.03,-75.5 778.03,-75.5 778.03,-56.5 710.03,-56.5"/>
<text text-anchor="middle" x="744.03" y="-63.5" font-family="Helvetica,sans-Serif" font-size="10.00">operable.h</text>
</a>
</g>
</g>
<!-- Node5&#45;&gt;Node20 -->
<g id="edge25" class="edge">
<title>Node5&#45;&gt;Node20</title>
<path fill="none" stroke="midnightblue" d="M442.09,-113.92C445.1,-113.23 448.12,-112.57 451.03,-112 560.74,-90.41 589.88,-95.21 700.03,-76 700.13,-75.98 700.23,-75.96 700.33,-75.95"/>
<polygon fill="midnightblue" stroke="midnightblue" points="700.76,-79.43 709.96,-74.17 699.49,-72.54 700.76,-79.43"/>
</g>
<!-- Node21 -->
<g id="node21" class="node">
<title>Node21</title>
<g id="a_node21"><a xlink:title=" ">
<polygon fill="none" stroke="#bfbfbf" points="796.53,-56.5 796.53,-75.5 865.53,-75.5 865.53,-56.5 796.53,-56.5"/>
<text text-anchor="middle" x="831.03" y="-63.5" font-family="Helvetica,sans-Serif" font-size="10.00">type_traits</text>
</a>
</g>
</g>
<!-- Node5&#45;&gt;Node21 -->
<g id="edge26" class="edge">
<title>Node5&#45;&gt;Node21</title>
<path fill="none" stroke="midnightblue" d="M442.07,-113.81C445.08,-113.14 448.11,-112.52 451.03,-112 595.72,-86.29 636.87,-98.52 786.48,-75.93"/>
<polygon fill="midnightblue" stroke="midnightblue" points="787.15,-79.36 796.5,-74.39 786.08,-72.45 787.15,-79.36"/>
</g>
<!-- Node22 -->
<g id="node22" class="node">
<title>Node22</title>
<g id="a_node22"><a xlink:title=" ">
<polygon fill="none" stroke="#bfbfbf" points="884.03,-56.5 884.03,-75.5 1014.03,-75.5 1014.03,-56.5 884.03,-56.5"/>
<text text-anchor="middle" x="949.03" y="-63.5" font-family="Helvetica,sans-Serif" font-size="10.00">cache_module_decl.inc</text>
</a>
</g>
</g>
<!-- Node5&#45;&gt;Node22 -->
<g id="edge27" class="edge">
<title>Node5&#45;&gt;Node22</title>
<path fill="none" stroke="midnightblue" d="M442.06,-113.75C445.07,-113.09 448.11,-112.49 451.03,-112 637.15,-81.02 686.33,-95.24 874.03,-76 874.13,-75.99 874.23,-75.98 874.34,-75.97"/>
<polygon fill="midnightblue" stroke="midnightblue" points="874.43,-79.48 884,-74.94 873.69,-72.52 874.43,-79.48"/>
</g>
<!-- Node23 -->
<g id="node23" class="node">
<title>Node23</title>
<g id="a_node23"><a xlink:title=" ">
<polygon fill="none" stroke="#bfbfbf" points="1032.53,-56.5 1032.53,-75.5 1157.53,-75.5 1157.53,-56.5 1032.53,-56.5"/>
<text text-anchor="middle" x="1095.03" y="-63.5" font-family="Helvetica,sans-Serif" font-size="10.00">cache_module_def.inc</text>
</a>
</g>
</g>
<!-- Node5&#45;&gt;Node23 -->
<g id="edge28" class="edge">
<title>Node5&#45;&gt;Node23</title>
<path fill="none" stroke="midnightblue" d="M442.05,-113.68C445.06,-113.04 448.1,-112.45 451.03,-112 699.43,-73.46 767.63,-99.11 1021.93,-76.03"/>
<polygon fill="midnightblue" stroke="midnightblue" points="1022.59,-79.49 1032.23,-75.08 1021.95,-72.52 1022.59,-79.49"/>
</g>
<!-- Node12 -->
<g id="node12" class="node">
<title>Node12</title>
<g id="a_node12"><a xlink:title=" ">
<polygon fill="none" stroke="#bfbfbf" points="975.03,-0.5 975.03,-19.5 1025.03,-19.5 1025.03,-0.5 975.03,-0.5"/>
<text text-anchor="middle" x="1000.03" y="-7.5" font-family="Helvetica,sans-Serif" font-size="10.00">cstdint</text>
</a>
</g>
</g>
<!-- Node11&#45;&gt;Node12 -->
<g id="edge13" class="edge">
<title>Node11&#45;&gt;Node12</title>
<path fill="none" stroke="midnightblue" d="M1214.33,-56.74C1165.56,-46.33 1082.42,-28.59 1035.32,-18.53"/>
<polygon fill="midnightblue" stroke="midnightblue" points="1035.79,-15.05 1025.28,-16.39 1034.33,-21.9 1035.79,-15.05"/>
</g>
<!-- Node13 -->
<g id="node13" class="node">
<title>Node13</title>
<g id="a_node13"><a xlink:title=" ">
<polygon fill="none" stroke="#bfbfbf" points="1220.53,-0.5 1220.53,-19.5 1285.53,-19.5 1285.53,-0.5 1220.53,-0.5"/>
<text text-anchor="middle" x="1253.03" y="-7.5" font-family="Helvetica,sans-Serif" font-size="10.00">exception</text>
</a>
</g>
</g>
<!-- Node11&#45;&gt;Node13 -->
<g id="edge14" class="edge">
<title>Node11&#45;&gt;Node13</title>
<path fill="none" stroke="midnightblue" d="M1253.03,-56.08C1253.03,-49.01 1253.03,-38.86 1253.03,-29.99"/>
<polygon fill="midnightblue" stroke="midnightblue" points="1256.53,-29.75 1253.03,-19.75 1249.53,-29.75 1256.53,-29.75"/>
</g>
<!-- Node15&#45;&gt;Node4 -->
<g id="edge22" class="edge">
<title>Node15&#45;&gt;Node4</title>
<path fill="none" stroke="midnightblue" d="M161.8,-56.44C139.65,-47.52 104.71,-33.44 79.59,-23.32"/>
<polygon fill="midnightblue" stroke="midnightblue" points="80.75,-20.01 70.16,-19.52 78.13,-26.5 80.75,-20.01"/>
</g>
<!-- Node15&#45;&gt;Node6 -->
<g id="edge17" class="edge">
<title>Node15&#45;&gt;Node6</title>
<path fill="none" stroke="midnightblue" d="M215.2,-57.65C218.18,-57.05 221.16,-56.49 224.03,-56 344.24,-35.29 488.72,-20.05 550.99,-13.94"/>
<polygon fill="midnightblue" stroke="midnightblue" points="551.33,-17.42 560.95,-12.97 550.66,-10.46 551.33,-17.42"/>
</g>
<!-- Node15&#45;&gt;Node7 -->
<g id="edge19" class="edge">
<title>Node15&#45;&gt;Node7</title>
<path fill="none" stroke="midnightblue" d="M171.94,-56.32C161.54,-48.18 145.77,-35.84 133.31,-26.09"/>
<polygon fill="midnightblue" stroke="midnightblue" points="135.35,-23.24 125.32,-19.83 131.04,-28.75 135.35,-23.24"/>
</g>
<!-- Node15&#45;&gt;Node12 -->
<g id="edge18" class="edge">
<title>Node15&#45;&gt;Node12</title>
<path fill="none" stroke="midnightblue" d="M215.17,-57.44C218.16,-56.89 221.14,-56.4 224.03,-56 507.69,-16.89 854.23,-11.7 964.54,-11.07"/>
<polygon fill="midnightblue" stroke="midnightblue" points="964.78,-14.57 974.77,-11.02 964.75,-7.57 964.78,-14.57"/>
</g>
<!-- Node16 -->
<g id="node16" class="node">
<title>Node16</title>
<g id="a_node16"><a xlink:title=" ">
<polygon fill="none" stroke="#bfbfbf" points="246.53,-0.5 246.53,-19.5 311.53,-19.5 311.53,-0.5 246.53,-0.5"/>
<text text-anchor="middle" x="279.03" y="-7.5" font-family="Helvetica,sans-Serif" font-size="10.00">functional</text>
</a>
</g>
</g>
<!-- Node15&#45;&gt;Node16 -->
<g id="edge20" class="edge">
<title>Node15&#45;&gt;Node16</title>
<path fill="none" stroke="midnightblue" d="M198.45,-56.32C213.57,-47.82 236.85,-34.73 254.5,-24.8"/>
<polygon fill="midnightblue" stroke="midnightblue" points="256.64,-27.61 263.64,-19.65 253.21,-21.51 256.64,-27.61"/>
</g>
<!-- Node17 -->
<g id="node17" class="node">
<title>Node17</title>
<g id="a_node17"><a xlink:title=" ">
<polygon fill="none" stroke="#bfbfbf" points="330.03,-0.5 330.03,-19.5 374.03,-19.5 374.03,-0.5 330.03,-0.5"/>
<text text-anchor="middle" x="352.03" y="-7.5" font-family="Helvetica,sans-Serif" font-size="10.00">limits</text>
</a>
</g>
</g>
<!-- Node15&#45;&gt;Node17 -->
<g id="edge21" class="edge">
<title>Node15&#45;&gt;Node17</title>
<path fill="none" stroke="midnightblue" d="M209.81,-56.44C239.79,-46.86 288.34,-31.35 320.23,-21.16"/>
<polygon fill="midnightblue" stroke="midnightblue" points="321.49,-24.43 329.95,-18.05 319.36,-17.76 321.49,-24.43"/>
</g>
<!-- Node18 -->
<g id="node18" class="node">
<title>Node18</title>
<g id="a_node18"><a xlink:title=" ">
<polygon fill="none" stroke="#bfbfbf" points="155.53,-0.5 155.53,-19.5 228.53,-19.5 228.53,-0.5 155.53,-0.5"/>
<text text-anchor="middle" x="192.03" y="-7.5" font-family="Helvetica,sans-Serif" font-size="10.00">string_view</text>
</a>
</g>
</g>
<!-- Node15&#45;&gt;Node18 -->
<g id="edge23" class="edge">
<title>Node15&#45;&gt;Node18</title>
<path fill="none" stroke="midnightblue" d="M184.52,-56.08C185.71,-48.93 187.42,-38.64 188.91,-29.69"/>
<polygon fill="midnightblue" stroke="midnightblue" points="192.38,-30.19 190.57,-19.75 185.47,-29.04 192.38,-30.19"/>
</g>
</g>
</svg>
