<?xml version="1.0" encoding="UTF-8" standalone="no"?>
<!DOCTYPE svg PUBLIC "-//W3C//DTD SVG 1.1//EN"
 "http://www.w3.org/Graphics/SVG/1.1/DTD/svg11.dtd">
<!-- Generated by graphviz version 2.43.0 (0)
 -->
<!-- Title: src/vmem.cc Pages: 1 -->
<svg width="751pt" height="196pt"
 viewBox="0.00 0.00 750.94 196.00" xmlns="http://www.w3.org/2000/svg" xmlns:xlink="http://www.w3.org/1999/xlink">
<g id="graph0" class="graph" transform="scale(1 1) rotate(0) translate(4 192)">
<title>src/vmem.cc</title>
<!-- Node1 -->
<g id="node1" class="node">
<title>Node1</title>
<g id="a_node1"><a xlink:title=" ">
<polygon fill="#bfbfbf" stroke="black" points="349.24,-168.5 349.24,-187.5 428.24,-187.5 428.24,-168.5 349.24,-168.5"/>
<text text-anchor="middle" x="388.74" y="-175.5" font-family="Helvetica,sans-Serif" font-size="10.00">src/vmem.cc</text>
</a>
</g>
</g>
<!-- Node2 -->
<g id="node2" class="node">
<title>Node2</title>
<g id="a_node2"><a xlink:href="vmem_8h.html" target="_top" xlink:title=" ">
<polygon fill="none" stroke="black" points="187.24,-112.5 187.24,-131.5 244.24,-131.5 244.24,-112.5 187.24,-112.5"/>
<text text-anchor="middle" x="215.74" y="-119.5" font-family="Helvetica,sans-Serif" font-size="10.00">vmem.h</text>
</a>
</g>
</g>
<!-- Node1&#45;&gt;Node2 -->
<g id="edge1" class="edge">
<title>Node1&#45;&gt;Node2</title>
<path fill="none" stroke="midnightblue" d="M361.32,-168.44C331.97,-159.28 285.22,-144.69 252.64,-134.52"/>
<polygon fill="midnightblue" stroke="midnightblue" points="253.61,-131.16 243.02,-131.52 251.52,-137.84 253.61,-131.16"/>
</g>
<!-- Node5 -->
<g id="node5" class="node">
<title>Node5</title>
<g id="a_node5"><a xlink:title=" ">
<polygon fill="none" stroke="#bfbfbf" points="191.24,-56.5 191.24,-75.5 320.24,-75.5 320.24,-56.5 191.24,-56.5"/>
<text text-anchor="middle" x="255.74" y="-63.5" font-family="Helvetica,sans-Serif" font-size="10.00">champsim_constants.h</text>
</a>
</g>
</g>
<!-- Node1&#45;&gt;Node5 -->
<g id="edge9" class="edge">
<title>Node1&#45;&gt;Node5</title>
<path fill="none" stroke="midnightblue" d="M378.3,-168.37C355.77,-149.73 302.33,-105.53 274.04,-82.13"/>
<polygon fill="midnightblue" stroke="midnightblue" points="276.06,-79.27 266.12,-75.59 271.6,-84.66 276.06,-79.27"/>
</g>
<!-- Node6 -->
<g id="node6" class="node">
<title>Node6</title>
<g id="a_node6"><a xlink:title=" ">
<polygon fill="none" stroke="#bfbfbf" points="513.74,-112.5 513.74,-131.5 565.74,-131.5 565.74,-112.5 513.74,-112.5"/>
<text text-anchor="middle" x="539.74" y="-119.5" font-family="Helvetica,sans-Serif" font-size="10.00">cassert</text>
</a>
</g>
</g>
<!-- Node1&#45;&gt;Node6 -->
<g id="edge5" class="edge">
<title>Node1&#45;&gt;Node6</title>
<path fill="none" stroke="midnightblue" d="M412.66,-168.44C437.96,-159.4 478.04,-145.06 506.42,-134.92"/>
<polygon fill="midnightblue" stroke="midnightblue" points="507.69,-138.18 515.92,-131.52 505.33,-131.59 507.69,-138.18"/>
</g>
<!-- Node7 -->
<g id="node7" class="node">
<title>Node7</title>
<g id="a_node7"><a xlink:href="champsim_8h.html" target="_top" xlink:title=" ">
<polygon fill="none" stroke="black" points="7.24,-112.5 7.24,-131.5 84.24,-131.5 84.24,-112.5 7.24,-112.5"/>
<text text-anchor="middle" x="45.74" y="-119.5" font-family="Helvetica,sans-Serif" font-size="10.00">champsim.h</text>
</a>
</g>
</g>
<!-- Node1&#45;&gt;Node7 -->
<g id="edge6" class="edge">
<title>Node1&#45;&gt;Node7</title>
<path fill="none" stroke="midnightblue" d="M349.06,-170.75C285.9,-160.81 162.7,-141.41 94.35,-130.65"/>
<polygon fill="midnightblue" stroke="midnightblue" points="94.7,-127.16 84.27,-129.07 93.61,-134.08 94.7,-127.16"/>
</g>
<!-- Node9 -->
<g id="node9" class="node">
<title>Node9</title>
<g id="a_node9"><a xlink:href="dram__controller_8h.html" target="_top" xlink:title=" ">
<polygon fill="none" stroke="black" points="393.74,-112.5 393.74,-131.5 495.74,-131.5 495.74,-112.5 393.74,-112.5"/>
<text text-anchor="middle" x="444.74" y="-119.5" font-family="Helvetica,sans-Serif" font-size="10.00">dram_controller.h</text>
</a>
</g>
</g>
<!-- Node1&#45;&gt;Node9 -->
<g id="edge10" class="edge">
<title>Node1&#45;&gt;Node9</title>
<path fill="none" stroke="midnightblue" d="M397.73,-168.32C405.93,-160.42 418.24,-148.55 428.21,-138.94"/>
<polygon fill="midnightblue" stroke="midnightblue" points="430.81,-141.29 435.58,-131.83 425.95,-136.26 430.81,-141.29"/>
</g>
<!-- Node21 -->
<g id="node21" class="node">
<title>Node21</title>
<g id="a_node21"><a xlink:title=" ">
<polygon fill="none" stroke="#bfbfbf" points="584.24,-112.5 584.24,-131.5 651.24,-131.5 651.24,-112.5 584.24,-112.5"/>
<text text-anchor="middle" x="617.74" y="-119.5" font-family="Helvetica,sans-Serif" font-size="10.00">fmt/core.h</text>
</a>
</g>
</g>
<!-- Node1&#45;&gt;Node21 -->
<g id="edge26" class="edge">
<title>Node1&#45;&gt;Node21</title>
<path fill="none" stroke="midnightblue" d="M425.02,-168.44C465.54,-158.89 531.08,-143.43 574.29,-133.24"/>
<polygon fill="midnightblue" stroke="midnightblue" points="575.3,-136.6 584.23,-130.9 573.69,-129.79 575.3,-136.6"/>
</g>
<!-- Node3 -->
<g id="node3" class="node">
<title>Node3</title>
<g id="a_node3"><a xlink:title=" ">
<polygon fill="none" stroke="#bfbfbf" points="81.74,-0.5 81.74,-19.5 131.74,-19.5 131.74,-0.5 81.74,-0.5"/>
<text text-anchor="middle" x="106.74" y="-7.5" font-family="Helvetica,sans-Serif" font-size="10.00">cstdint</text>
</a>
</g>
</g>
<!-- Node2&#45;&gt;Node3 -->
<g id="edge2" class="edge">
<title>Node2&#45;&gt;Node3</title>
<path fill="none" stroke="midnightblue" d="M187.13,-113.36C167.22,-106.64 141.53,-94.91 125.74,-76 114.8,-62.9 110.15,-43.75 108.18,-29.63"/>
<polygon fill="midnightblue" stroke="midnightblue" points="111.66,-29.16 107.11,-19.59 104.69,-29.91 111.66,-29.16"/>
</g>
<!-- Node4 -->
<g id="node4" class="node">
<title>Node4</title>
<g id="a_node4"><a xlink:title=" ">
<polygon fill="none" stroke="#bfbfbf" points="134.74,-56.5 134.74,-75.5 172.74,-75.5 172.74,-56.5 134.74,-56.5"/>
<text text-anchor="middle" x="153.74" y="-63.5" font-family="Helvetica,sans-Serif" font-size="10.00">map</text>
</a>
</g>
</g>
<!-- Node2&#45;&gt;Node4 -->
<g id="edge3" class="edge">
<title>Node2&#45;&gt;Node4</title>
<path fill="none" stroke="midnightblue" d="M205.78,-112.32C196.61,-104.34 182.8,-92.31 171.71,-82.65"/>
<polygon fill="midnightblue" stroke="midnightblue" points="173.72,-79.76 163.88,-75.83 169.12,-85.04 173.72,-79.76"/>
</g>
<!-- Node2&#45;&gt;Node5 -->
<g id="edge4" class="edge">
<title>Node2&#45;&gt;Node5</title>
<path fill="none" stroke="midnightblue" d="M222.34,-112.08C227.99,-104.46 236.28,-93.26 243.19,-83.94"/>
<polygon fill="midnightblue" stroke="midnightblue" points="246.11,-85.87 249.25,-75.75 240.49,-81.7 246.11,-85.87"/>
</g>
<!-- Node7&#45;&gt;Node3 -->
<g id="edge7" class="edge">
<title>Node7&#45;&gt;Node3</title>
<path fill="none" stroke="midnightblue" d="M33.05,-112.36C16.35,-99.88 -9.43,-76.12 3.74,-56 18.63,-33.24 47.84,-21.93 71.36,-16.34"/>
<polygon fill="midnightblue" stroke="midnightblue" points="72.3,-19.72 81.36,-14.22 70.85,-12.87 72.3,-19.72"/>
</g>
<!-- Node8 -->
<g id="node8" class="node">
<title>Node8</title>
<g id="a_node8"><a xlink:title=" ">
<polygon fill="none" stroke="#bfbfbf" points="13.24,-56.5 13.24,-75.5 78.24,-75.5 78.24,-56.5 13.24,-56.5"/>
<text text-anchor="middle" x="45.74" y="-63.5" font-family="Helvetica,sans-Serif" font-size="10.00">exception</text>
</a>
</g>
</g>
<!-- Node7&#45;&gt;Node8 -->
<g id="edge8" class="edge">
<title>Node7&#45;&gt;Node8</title>
<path fill="none" stroke="midnightblue" d="M45.74,-112.08C45.74,-105.01 45.74,-94.86 45.74,-85.99"/>
<polygon fill="midnightblue" stroke="midnightblue" points="49.24,-85.75 45.74,-75.75 42.24,-85.75 49.24,-85.75"/>
</g>
<!-- Node9&#45;&gt;Node5 -->
<g id="edge16" class="edge">
<title>Node9&#45;&gt;Node5</title>
<path fill="none" stroke="midnightblue" d="M414.79,-112.44C382.58,-103.24 331.2,-88.56 295.59,-78.39"/>
<polygon fill="midnightblue" stroke="midnightblue" points="296.12,-74.9 285.54,-75.52 294.2,-81.63 296.12,-74.9"/>
</g>
<!-- Node10 -->
<g id="node10" class="node">
<title>Node10</title>
<g id="a_node10"><a xlink:title=" ">
<polygon fill="none" stroke="#bfbfbf" points="641.74,-0.5 641.74,-19.5 683.74,-19.5 683.74,-0.5 641.74,-0.5"/>
<text text-anchor="middle" x="662.74" y="-7.5" font-family="Helvetica,sans-Serif" font-size="10.00">array</text>
</a>
</g>
</g>
<!-- Node9&#45;&gt;Node10 -->
<g id="edge11" class="edge">
<title>Node9&#45;&gt;Node10</title>
<path fill="none" stroke="midnightblue" d="M496,-113.23C579.88,-100.51 737.25,-76.57 737.74,-76 755.8,-54.95 721.47,-34.66 693.51,-22.51"/>
<polygon fill="midnightblue" stroke="midnightblue" points="694.56,-19.16 683.98,-18.56 691.88,-25.62 694.56,-19.16"/>
</g>
<!-- Node11 -->
<g id="node11" class="node">
<title>Node11</title>
<g id="a_node11"><a xlink:title=" ">
<polygon fill="none" stroke="#bfbfbf" points="421.24,-56.5 421.24,-75.5 468.24,-75.5 468.24,-56.5 421.24,-56.5"/>
<text text-anchor="middle" x="444.74" y="-63.5" font-family="Helvetica,sans-Serif" font-size="10.00">cmath</text>
</a>
</g>
</g>
<!-- Node9&#45;&gt;Node11 -->
<g id="edge12" class="edge">
<title>Node9&#45;&gt;Node11</title>
<path fill="none" stroke="midnightblue" d="M444.74,-112.08C444.74,-105.01 444.74,-94.86 444.74,-85.99"/>
<polygon fill="midnightblue" stroke="midnightblue" points="448.24,-85.75 444.74,-75.75 441.24,-85.75 448.24,-85.75"/>
</g>
<!-- Node12 -->
<g id="node12" class="node">
<title>Node12</title>
<g id="a_node12"><a xlink:title=" ">
<polygon fill="none" stroke="#bfbfbf" points="480.74,-0.5 480.74,-19.5 524.74,-19.5 524.74,-0.5 480.74,-0.5"/>
<text text-anchor="middle" x="502.74" y="-7.5" font-family="Helvetica,sans-Serif" font-size="10.00">limits</text>
</a>
</g>
</g>
<!-- Node9&#45;&gt;Node12 -->
<g id="edge13" class="edge">
<title>Node9&#45;&gt;Node12</title>
<path fill="none" stroke="midnightblue" d="M452.32,-112.17C459.55,-103.43 470.4,-89.43 477.74,-76 485.89,-61.08 492.63,-42.94 497.05,-29.61"/>
<polygon fill="midnightblue" stroke="midnightblue" points="500.49,-30.33 500.19,-19.73 493.82,-28.2 500.49,-30.33"/>
</g>
<!-- Node13 -->
<g id="node13" class="node">
<title>Node13</title>
<g id="a_node13"><a xlink:title=" ">
<polygon fill="none" stroke="#bfbfbf" points="524.74,-56.5 524.74,-75.5 580.74,-75.5 580.74,-56.5 524.74,-56.5"/>
<text text-anchor="middle" x="552.74" y="-63.5" font-family="Helvetica,sans-Serif" font-size="10.00">optional</text>
</a>
</g>
</g>
<!-- Node9&#45;&gt;Node13 -->
<g id="edge14" class="edge">
<title>Node9&#45;&gt;Node13</title>
<path fill="none" stroke="midnightblue" d="M462.09,-112.32C479.41,-103.66 506.25,-90.24 526.24,-80.25"/>
<polygon fill="midnightblue" stroke="midnightblue" points="528.05,-83.26 535.43,-75.65 524.92,-77 528.05,-83.26"/>
</g>
<!-- Node14 -->
<g id="node14" class="node">
<title>Node14</title>
<g id="a_node14"><a xlink:title=" ">
<polygon fill="none" stroke="#bfbfbf" points="598.74,-56.5 598.74,-75.5 642.74,-75.5 642.74,-56.5 598.74,-56.5"/>
<text text-anchor="middle" x="620.74" y="-63.5" font-family="Helvetica,sans-Serif" font-size="10.00">string</text>
</a>
</g>
</g>
<!-- Node9&#45;&gt;Node14 -->
<g id="edge15" class="edge">
<title>Node9&#45;&gt;Node14</title>
<path fill="none" stroke="midnightblue" d="M472.62,-112.44C504.25,-102.74 555.71,-86.95 588.89,-76.77"/>
<polygon fill="midnightblue" stroke="midnightblue" points="590.02,-80.09 598.55,-73.81 587.97,-73.39 590.02,-80.09"/>
</g>
<!-- Node15 -->
<g id="node15" class="node">
<title>Node15</title>
<g id="a_node15"><a xlink:href="channel_8h.html" target="_top" xlink:title=" ">
<polygon fill="none" stroke="black" points="338.74,-56.5 338.74,-75.5 402.74,-75.5 402.74,-56.5 338.74,-56.5"/>
<text text-anchor="middle" x="370.74" y="-63.5" font-family="Helvetica,sans-Serif" font-size="10.00">channel.h</text>
</a>
</g>
</g>
<!-- Node9&#45;&gt;Node15 -->
<g id="edge17" class="edge">
<title>Node9&#45;&gt;Node15</title>
<path fill="none" stroke="midnightblue" d="M432.85,-112.32C421.59,-104.11 404.45,-91.6 391.03,-81.81"/>
<polygon fill="midnightblue" stroke="midnightblue" points="392.98,-78.9 382.84,-75.83 388.86,-84.56 392.98,-78.9"/>
</g>
<!-- Node20 -->
<g id="node20" class="node">
<title>Node20</title>
<g id="a_node20"><a xlink:href="operable_8h.html" target="_top" xlink:title=" ">
<polygon fill="none" stroke="black" points="660.74,-56.5 660.74,-75.5 728.74,-75.5 728.74,-56.5 660.74,-56.5"/>
<text text-anchor="middle" x="694.74" y="-63.5" font-family="Helvetica,sans-Serif" font-size="10.00">operable.h</text>
</a>
</g>
</g>
<!-- Node9&#45;&gt;Node20 -->
<g id="edge25" class="edge">
<title>Node9&#45;&gt;Node20</title>
<path fill="none" stroke="midnightblue" d="M484.35,-112.44C529.63,-102.66 603.54,-86.7 650.62,-76.53"/>
<polygon fill="midnightblue" stroke="midnightblue" points="651.5,-79.92 660.53,-74.39 650.02,-73.08 651.5,-79.92"/>
</g>
<!-- Node15&#45;&gt;Node3 -->
<g id="edge19" class="edge">
<title>Node15&#45;&gt;Node3</title>
<path fill="none" stroke="midnightblue" d="M338.52,-57.87C335.55,-57.23 332.59,-56.6 329.74,-56 263.37,-42.02 185.69,-26.55 141.74,-17.87"/>
<polygon fill="midnightblue" stroke="midnightblue" points="142.34,-14.42 131.85,-15.92 140.98,-21.29 142.34,-14.42"/>
</g>
<!-- Node15&#45;&gt;Node10 -->
<g id="edge18" class="edge">
<title>Node15&#45;&gt;Node10</title>
<path fill="none" stroke="midnightblue" d="M402.82,-58.01C406.16,-57.32 409.52,-56.63 412.74,-56 491.38,-40.5 584.37,-24.33 631.69,-16.25"/>
<polygon fill="midnightblue" stroke="midnightblue" points="632.35,-19.69 641.62,-14.56 631.18,-12.79 632.35,-19.69"/>
</g>
<!-- Node15&#45;&gt;Node12 -->
<g id="edge22" class="edge">
<title>Node15&#45;&gt;Node12</title>
<path fill="none" stroke="midnightblue" d="M391.65,-56.44C413.47,-47.52 447.89,-33.44 472.63,-23.32"/>
<polygon fill="midnightblue" stroke="midnightblue" points="473.99,-26.54 481.92,-19.52 471.34,-20.06 473.99,-26.54"/>
</g>
<!-- Node16 -->
<g id="node16" class="node">
<title>Node16</title>
<g id="a_node16"><a xlink:title=" ">
<polygon fill="none" stroke="#bfbfbf" points="267.24,-0.5 267.24,-19.5 314.24,-19.5 314.24,-0.5 267.24,-0.5"/>
<text text-anchor="middle" x="290.74" y="-7.5" font-family="Helvetica,sans-Serif" font-size="10.00">deque</text>
</a>
</g>
</g>
<!-- Node15&#45;&gt;Node16 -->
<g id="edge20" class="edge">
<title>Node15&#45;&gt;Node16</title>
<path fill="none" stroke="midnightblue" d="M357.88,-56.32C345.52,-47.98 326.61,-35.21 312,-25.35"/>
<polygon fill="midnightblue" stroke="midnightblue" points="313.81,-22.35 303.56,-19.65 309.89,-28.15 313.81,-22.35"/>
</g>
<!-- Node17 -->
<g id="node17" class="node">
<title>Node17</title>
<g id="a_node17"><a xlink:title=" ">
<polygon fill="none" stroke="#bfbfbf" points="332.24,-0.5 332.24,-19.5 397.24,-19.5 397.24,-0.5 332.24,-0.5"/>
<text text-anchor="middle" x="364.74" y="-7.5" font-family="Helvetica,sans-Serif" font-size="10.00">functional</text>
</a>
</g>
</g>
<!-- Node15&#45;&gt;Node17 -->
<g id="edge21" class="edge">
<title>Node15&#45;&gt;Node17</title>
<path fill="none" stroke="midnightblue" d="M369.75,-56.08C368.95,-48.93 367.81,-38.64 366.81,-29.69"/>
<polygon fill="midnightblue" stroke="midnightblue" points="370.29,-29.3 365.71,-19.75 363.34,-30.08 370.29,-29.3"/>
</g>
<!-- Node18 -->
<g id="node18" class="node">
<title>Node18</title>
<g id="a_node18"><a xlink:title=" ">
<polygon fill="none" stroke="#bfbfbf" points="415.24,-0.5 415.24,-19.5 462.24,-19.5 462.24,-0.5 415.24,-0.5"/>
<text text-anchor="middle" x="438.74" y="-7.5" font-family="Helvetica,sans-Serif" font-size="10.00">vector</text>
</a>
</g>
</g>
<!-- Node15&#45;&gt;Node18 -->
<g id="edge23" class="edge">
<title>Node15&#45;&gt;Node18</title>
<path fill="none" stroke="midnightblue" d="M381.66,-56.32C391.91,-48.18 407.46,-35.84 419.74,-26.09"/>
<polygon fill="midnightblue" stroke="midnightblue" points="421.96,-28.79 427.61,-19.83 417.61,-23.31 421.96,-28.79"/>
</g>
<!-- Node19 -->
<g id="node19" class="node">
<title>Node19</title>
<g id="a_node19"><a xlink:title=" ">
<polygon fill="none" stroke="#bfbfbf" points="176.24,-0.5 176.24,-19.5 249.24,-19.5 249.24,-0.5 176.24,-0.5"/>
<text text-anchor="middle" x="212.74" y="-7.5" font-family="Helvetica,sans-Serif" font-size="10.00">string_view</text>
</a>
</g>
</g>
<!-- Node15&#45;&gt;Node19 -->
<g id="edge24" class="edge">
<title>Node15&#45;&gt;Node19</title>
<path fill="none" stroke="midnightblue" d="M345.7,-56.44C319.12,-47.36 276.93,-32.94 247.21,-22.78"/>
<polygon fill="midnightblue" stroke="midnightblue" points="248.25,-19.44 237.66,-19.52 245.99,-26.06 248.25,-19.44"/>
</g>
</g>
</svg>
