<?xml version="1.0" encoding="UTF-8" standalone="no"?>
<!DOCTYPE svg PUBLIC "-//W3C//DTD SVG 1.1//EN"
 "http://www.w3.org/Graphics/SVG/1.1/DTD/svg11.dtd">
<!-- Generated by graphviz version 2.43.0 (0)
 -->
<!-- Title: inc/vmem.h Pages: 1 -->
<svg width="1250pt" height="95pt"
 viewBox="0.00 0.00 1250.00 95.00" xmlns="http://www.w3.org/2000/svg" xmlns:xlink="http://www.w3.org/1999/xlink">
<g id="graph0" class="graph" transform="scale(1 1) rotate(0) translate(4 91)">
<title>inc/vmem.h</title>
<!-- Node1 -->
<g id="node1" class="node">
<title>Node1</title>
<g id="a_node1"><a xlink:title=" ">
<polygon fill="#bfbfbf" stroke="black" points="510,-67.5 510,-86.5 584,-86.5 584,-67.5 510,-67.5"/>
<text text-anchor="middle" x="547" y="-74.5" font-family="Helvetica,sans-Serif" font-size="10.00">inc/vmem.h</text>
</a>
</g>
</g>
<!-- Node2 -->
<g id="node2" class="node">
<title>Node2</title>
<g id="a_node2"><a xlink:href="main_8cc.html" target="_top" xlink:title=" ">
<polygon fill="none" stroke="black" points="0,-6 0,-25 72,-25 72,-6 0,-6"/>
<text text-anchor="middle" x="36" y="-13" font-family="Helvetica,sans-Serif" font-size="10.00">src/main.cc</text>
</a>
</g>
</g>
<!-- Node1&#45;&gt;Node2 -->
<g id="edge1" class="edge">
<title>Node1&#45;&gt;Node2</title>
<path fill="none" stroke="midnightblue" d="M499.66,-74.79C414.88,-71.88 231.9,-62.22 81,-31 73.93,-29.54 66.4,-27.37 59.56,-25.15"/>
<polygon fill="midnightblue" stroke="midnightblue" points="499.64,-78.29 509.75,-75.12 499.87,-71.29 499.64,-78.29"/>
</g>
<!-- Node3 -->
<g id="node3" class="node">
<title>Node3</title>
<g id="a_node3"><a xlink:href="ptw_8cc.html" target="_top" xlink:title=" ">
<polygon fill="none" stroke="black" points="90.5,-6 90.5,-25 155.5,-25 155.5,-6 90.5,-6"/>
<text text-anchor="middle" x="123" y="-13" font-family="Helvetica,sans-Serif" font-size="10.00">src/ptw.cc</text>
</a>
</g>
</g>
<!-- Node1&#45;&gt;Node3 -->
<g id="edge2" class="edge">
<title>Node1&#45;&gt;Node3</title>
<path fill="none" stroke="midnightblue" d="M499.59,-73.83C426.64,-69.73 282.87,-58.64 164,-31 157.53,-29.5 150.66,-27.31 144.44,-25.09"/>
<polygon fill="midnightblue" stroke="midnightblue" points="499.65,-77.34 509.82,-74.38 500.03,-70.35 499.65,-77.34"/>
</g>
<!-- Node4 -->
<g id="node4" class="node">
<title>Node4</title>
<g id="a_node4"><a xlink:href="vmem_8cc.html" target="_top" xlink:title=" ">
<polygon fill="none" stroke="black" points="173.5,-6 173.5,-25 252.5,-25 252.5,-6 173.5,-6"/>
<text text-anchor="middle" x="213" y="-13" font-family="Helvetica,sans-Serif" font-size="10.00">src/vmem.cc</text>
</a>
</g>
</g>
<!-- Node1&#45;&gt;Node4 -->
<g id="edge3" class="edge">
<title>Node1&#45;&gt;Node4</title>
<path fill="none" stroke="midnightblue" d="M499.51,-70.56C442.45,-63.55 344.03,-49.98 261,-31 253.79,-29.35 246.07,-27.2 238.98,-25.06"/>
<polygon fill="midnightblue" stroke="midnightblue" points="499.32,-74.06 509.67,-71.79 500.16,-67.11 499.32,-74.06"/>
</g>
<!-- Node5 -->
<g id="node5" class="node">
<title>Node5</title>
<g id="a_node5"><a xlink:href="600-ptw-path_8cc.html" target="_top" xlink:title=" ">
<polygon fill="none" stroke="black" points="270,-0.5 270,-30.5 386,-30.5 386,-0.5 270,-0.5"/>
<text text-anchor="start" x="278" y="-18.5" font-family="Helvetica,sans-Serif" font-size="10.00">test/cpp/src/600&#45;ptw</text>
<text text-anchor="middle" x="328" y="-7.5" font-family="Helvetica,sans-Serif" font-size="10.00">&#45;path.cc</text>
</a>
</g>
</g>
<!-- Node1&#45;&gt;Node5 -->
<g id="edge4" class="edge">
<title>Node1&#45;&gt;Node5</title>
<path fill="none" stroke="midnightblue" d="M505.53,-64.73C469.79,-55.02 418.03,-40.96 379.61,-30.52"/>
<polygon fill="midnightblue" stroke="midnightblue" points="505.05,-68.23 515.62,-67.48 506.89,-61.48 505.05,-68.23"/>
</g>
<!-- Node6 -->
<g id="node6" class="node">
<title>Node6</title>
<g id="a_node6"><a xlink:href="601-multiple-inflight-walks_8cc.html" target="_top" xlink:title=" ">
<polygon fill="none" stroke="black" points="404,-0.5 404,-30.5 542,-30.5 542,-0.5 404,-0.5"/>
<text text-anchor="start" x="412" y="-18.5" font-family="Helvetica,sans-Serif" font-size="10.00">test/cpp/src/601&#45;multiple</text>
<text text-anchor="middle" x="473" y="-7.5" font-family="Helvetica,sans-Serif" font-size="10.00">&#45;inflight&#45;walks.cc</text>
</a>
</g>
</g>
<!-- Node1&#45;&gt;Node6 -->
<g id="edge5" class="edge">
<title>Node1&#45;&gt;Node6</title>
<path fill="none" stroke="midnightblue" d="M528.59,-61.2C516.92,-51.81 501.92,-39.75 490.44,-30.52"/>
<polygon fill="midnightblue" stroke="midnightblue" points="526.41,-63.94 536.4,-67.48 530.8,-58.48 526.41,-63.94"/>
</g>
<!-- Node7 -->
<g id="node7" class="node">
<title>Node7</title>
<g id="a_node7"><a xlink:href="602-walk-latency_8cc.html" target="_top" xlink:title=" ">
<polygon fill="none" stroke="black" points="560.5,-0.5 560.5,-30.5 681.5,-30.5 681.5,-0.5 560.5,-0.5"/>
<text text-anchor="start" x="568.5" y="-18.5" font-family="Helvetica,sans-Serif" font-size="10.00">test/cpp/src/602&#45;walk</text>
<text text-anchor="middle" x="621" y="-7.5" font-family="Helvetica,sans-Serif" font-size="10.00">&#45;latency.cc</text>
</a>
</g>
</g>
<!-- Node1&#45;&gt;Node7 -->
<g id="edge6" class="edge">
<title>Node1&#45;&gt;Node7</title>
<path fill="none" stroke="midnightblue" d="M565.41,-61.2C577.08,-51.81 592.08,-39.75 603.56,-30.52"/>
<polygon fill="midnightblue" stroke="midnightblue" points="563.2,-58.48 557.6,-67.48 567.59,-63.94 563.2,-58.48"/>
</g>
<!-- Node8 -->
<g id="node8" class="node">
<title>Node8</title>
<g id="a_node8"><a xlink:href="603-pte-page-correctness_8cc.html" target="_top" xlink:title=" ">
<polygon fill="none" stroke="black" points="700,-0.5 700,-30.5 818,-30.5 818,-0.5 700,-0.5"/>
<text text-anchor="start" x="708" y="-18.5" font-family="Helvetica,sans-Serif" font-size="10.00">test/cpp/src/603&#45;pte</text>
<text text-anchor="middle" x="759" y="-7.5" font-family="Helvetica,sans-Serif" font-size="10.00">&#45;page&#45;correctness.cc</text>
</a>
</g>
</g>
<!-- Node1&#45;&gt;Node8 -->
<g id="edge7" class="edge">
<title>Node1&#45;&gt;Node8</title>
<path fill="none" stroke="midnightblue" d="M587.14,-64.73C621.74,-55.02 671.85,-40.96 709.04,-30.52"/>
<polygon fill="midnightblue" stroke="midnightblue" points="586.06,-61.4 577.37,-67.48 587.95,-68.14 586.06,-61.4"/>
</g>
<!-- Node9 -->
<g id="node9" class="node">
<title>Node9</title>
<g id="a_node9"><a xlink:href="801-vmem-duplicated_8cc.html" target="_top" xlink:title=" ">
<polygon fill="none" stroke="black" points="836,-0.5 836,-30.5 964,-30.5 964,-0.5 836,-0.5"/>
<text text-anchor="start" x="844" y="-18.5" font-family="Helvetica,sans-Serif" font-size="10.00">test/cpp/src/801&#45;vmem</text>
<text text-anchor="middle" x="900" y="-7.5" font-family="Helvetica,sans-Serif" font-size="10.00">&#45;duplicated.cc</text>
</a>
</g>
</g>
<!-- Node1&#45;&gt;Node9 -->
<g id="edge8" class="edge">
<title>Node1&#45;&gt;Node9</title>
<path fill="none" stroke="midnightblue" d="M594.14,-68.96C649.86,-60.52 745.34,-45.67 827,-31 829.93,-30.47 832.91,-29.93 835.93,-29.36"/>
<polygon fill="midnightblue" stroke="midnightblue" points="593.58,-65.51 584.21,-70.46 594.62,-72.43 593.58,-65.51"/>
</g>
<!-- Node10 -->
<g id="node10" class="node">
<title>Node10</title>
<g id="a_node10"><a xlink:href="802-pte-page_8cc.html" target="_top" xlink:title=" ">
<polygon fill="none" stroke="black" points="982.5,-0.5 982.5,-30.5 1095.5,-30.5 1095.5,-0.5 982.5,-0.5"/>
<text text-anchor="start" x="990.5" y="-18.5" font-family="Helvetica,sans-Serif" font-size="10.00">test/cpp/src/802&#45;pte</text>
<text text-anchor="middle" x="1039" y="-7.5" font-family="Helvetica,sans-Serif" font-size="10.00">&#45;page.cc</text>
</a>
</g>
</g>
<!-- Node1&#45;&gt;Node10 -->
<g id="edge9" class="edge">
<title>Node1&#45;&gt;Node10</title>
<path fill="none" stroke="midnightblue" d="M594.33,-72.73C673.19,-66.88 836.35,-53.16 973,-31 976.01,-30.51 979.09,-29.97 982.2,-29.4"/>
<polygon fill="midnightblue" stroke="midnightblue" points="593.94,-69.24 584.22,-73.47 594.45,-76.23 593.94,-69.24"/>
</g>
<!-- Node11 -->
<g id="node11" class="node">
<title>Node11</title>
<g id="a_node11"><a xlink:href="803-vmem-offset_8cc.html" target="_top" xlink:title=" ">
<polygon fill="none" stroke="black" points="1114,-0.5 1114,-30.5 1242,-30.5 1242,-0.5 1114,-0.5"/>
<text text-anchor="start" x="1122" y="-18.5" font-family="Helvetica,sans-Serif" font-size="10.00">test/cpp/src/803&#45;vmem</text>
<text text-anchor="middle" x="1178" y="-7.5" font-family="Helvetica,sans-Serif" font-size="10.00">&#45;offset.cc</text>
</a>
</g>
</g>
<!-- Node1&#45;&gt;Node11 -->
<g id="edge10" class="edge">
<title>Node1&#45;&gt;Node11</title>
<path fill="none" stroke="midnightblue" d="M594.05,-74.04C690.34,-69.64 916.69,-57.21 1105,-31 1107.94,-30.59 1110.95,-30.14 1113.98,-29.65"/>
<polygon fill="midnightblue" stroke="midnightblue" points="593.88,-70.55 584.05,-74.49 594.2,-77.54 593.88,-70.55"/>
</g>
</g>
</svg>
